<?xml version="1.0" encoding="UTF-8" standalone="no"?>
<!DOCTYPE svg PUBLIC "-//W3C//DTD SVG 1.1//EN"
 "http://www.w3.org/Graphics/SVG/1.1/DTD/svg11.dtd">
<!-- Generated by graphviz version 2.36.0 (20140111.2315)
 -->
<!-- Title: view.components.ErrorBox Pages: 1 -->
<svg width="1804pt" height="853pt"
 viewBox="0.00 0.00 1804.00 852.73" xmlns="http://www.w3.org/2000/svg" xmlns:xlink="http://www.w3.org/1999/xlink">
<g id="graph0" class="graph" transform="scale(1 1) rotate(0) translate(4 848.732)">
<title>view.components.ErrorBox</title>
<polygon fill="white" stroke="none" points="-4,4 -4,-848.732 1800,-848.732 1800,4 -4,4"/>
<!-- Node1 -->
<g id="node1" class="node"><title>Node1</title>
<polygon fill="#bfbfbf" stroke="black" points="1652.5,-705.232 1652.5,-724.232 1795.5,-724.232 1795.5,-705.232 1652.5,-705.232"/>
<text text-anchor="middle" x="1724" y="-712.232" font-family="Helvetica,sans-Serif" font-size="10.00">view.components.ErrorBox</text>
</g>
<!-- Node2 -->
<g id="node2" class="node"><title>Node2</title>
<polygon fill="white" stroke="#bfbfbf" points="886.5,-690.232 886.5,-709.232 961.5,-709.232 961.5,-690.232 886.5,-690.232"/>
<text text-anchor="middle" x="924" y="-697.232" font-family="Helvetica,sans-Serif" font-size="10.00">JComponent</text>
</g>
<!-- Node2&#45;&gt;Node1 -->
<g id="edge1" class="edge"><title>Node2&#45;&gt;Node1</title>
<path fill="none" stroke="midnightblue" d="M971.974,-700.615C1106.3,-703.14 1492.61,-710.402 1652.45,-713.406"/>
<polygon fill="midnightblue" stroke="midnightblue" points="971.689,-697.11 961.625,-700.421 971.557,-704.108 971.689,-697.11"/>
</g>
<!-- Node31 -->
<g id="node31" class="node"><title>Node31</title>
<g id="a_node31"><a xlink:href="../../d8/ddd/classview_1_1_canvas.html" target="_top" xlink:title="view.Canvas">
<polygon fill="white" stroke="black" points="1209,-511.232 1209,-530.232 1283,-530.232 1283,-511.232 1209,-511.232"/>
<text text-anchor="middle" x="1246" y="-518.232" font-family="Helvetica,sans-Serif" font-size="10.00">view.Canvas</text>
</a>
</g>
</g>
<!-- Node2&#45;&gt;Node31 -->
<g id="edge40" class="edge"><title>Node2&#45;&gt;Node31</title>
<path fill="none" stroke="midnightblue" d="M971.708,-689.454C1034.99,-675.492 1140.33,-652.099 1142,-650.732 1157.1,-638.398 1149.16,-626.933 1160,-610.732 1182,-577.869 1216.28,-545.753 1233.83,-530.287"/>
<polygon fill="midnightblue" stroke="midnightblue" points="970.948,-686.038 961.936,-691.609 972.455,-692.874 970.948,-686.038"/>
</g>
<!-- Node3 -->
<g id="node3" class="node"><title>Node3</title>
<polygon fill="white" stroke="#bfbfbf" points="576.5,-655.232 576.5,-674.232 669.5,-674.232 669.5,-655.232 576.5,-655.232"/>
<text text-anchor="middle" x="623" y="-662.232" font-family="Helvetica,sans-Serif" font-size="10.00">ResourceBundle</text>
</g>
<!-- Node3&#45;&gt;Node1 -->
<g id="edge2" class="edge"><title>Node3&#45;&gt;Node1</title>
<path fill="none" stroke="#9a32cd" stroke-dasharray="5,2" d="M663.12,-677.234C706.717,-690.482 779.567,-710.589 844,-718.732 1172.08,-760.198 1257.32,-724.955 1588,-726.732 1608.44,-726.842 1613.6,-728.101 1634,-726.732 1642.56,-726.158 1651.54,-725.277 1660.38,-724.247"/>
<polygon fill="#9a32cd" stroke="#9a32cd" points="664.07,-673.864 653.483,-674.272 662.013,-680.555 664.07,-673.864"/>
<text text-anchor="middle" x="1246" y="-742.732" font-family="Helvetica,sans-Serif" font-size="10.00"> ERROR_RESOURCE</text>
</g>
<!-- Node4 -->
<g id="node4" class="node"><title>Node4</title>
<g id="a_node4"><a xlink:href="../../d9/dc7/classview_1_1_window.html" target="_top" xlink:title="view.Window">
<polygon fill="white" stroke="black" points="1496,-356.232 1496,-375.232 1570,-375.232 1570,-356.232 1496,-356.232"/>
<text text-anchor="middle" x="1533" y="-363.232" font-family="Helvetica,sans-Serif" font-size="10.00">view.Window</text>
</a>
</g>
</g>
<!-- Node3&#45;&gt;Node4 -->
<g id="edge6" class="edge"><title>Node3&#45;&gt;Node4</title>
<path fill="none" stroke="#9a32cd" stroke-dasharray="5,2" d="M679.958,-660.994C720.511,-658.251 776.657,-654.383 826,-650.732 905.139,-644.878 925.135,-645.539 1004,-636.732 1065.59,-629.855 1081.7,-631.032 1142,-616.732 1142,-616.732 1478,-504.732 1478,-504.732 1516.62,-467.953 1528.05,-400.36 1531.04,-375.359"/>
<polygon fill="#9a32cd" stroke="#9a32cd" points="679.479,-657.519 669.737,-661.684 679.95,-664.503 679.479,-657.519"/>
<text text-anchor="middle" x="1082" y="-638.732" font-family="Helvetica,sans-Serif" font-size="10.00"> myResource</text>
</g>
<!-- Node9 -->
<g id="node9" class="node"><title>Node9</title>
<g id="a_node9"><a xlink:href="../../d3/daf/classview_1_1windows_1_1_variables_window.html" target="_top" xlink:title="view.windows.VariablesWindow">
<polygon fill="white" stroke="black" points="844,-386.232 844,-405.232 1004,-405.232 1004,-386.232 844,-386.232"/>
<text text-anchor="middle" x="924" y="-393.232" font-family="Helvetica,sans-Serif" font-size="10.00">view.windows.VariablesWindow</text>
</a>
</g>
</g>
<!-- Node3&#45;&gt;Node9 -->
<g id="edge13" class="edge"><title>Node3&#45;&gt;Node9</title>
<path fill="none" stroke="#9a32cd" stroke-dasharray="5,2" d="M674.004,-652.601C727.391,-638.584 806.906,-614.284 826,-589.732 872.101,-530.455 796.794,-480.133 844,-421.732 849.9,-414.433 857.897,-409.165 866.545,-405.366"/>
<polygon fill="#9a32cd" stroke="#9a32cd" points="672.836,-649.288 664.03,-655.18 674.588,-656.065 672.836,-649.288"/>
<text text-anchor="middle" x="773" y="-641.732" font-family="Helvetica,sans-Serif" font-size="10.00"> myResource</text>
</g>
<!-- Node4&#45;&gt;Node1 -->
<g id="edge3" class="edge"><title>Node4&#45;&gt;Node1</title>
<path fill="none" stroke="#9a32cd" stroke-dasharray="5,2" d="M1544.11,-384.399C1578.73,-448.321 1691.79,-657.101 1717.68,-704.915"/>
<polygon fill="#9a32cd" stroke="#9a32cd" points="1547.09,-382.558 1539.25,-375.431 1540.94,-385.891 1547.09,-382.558"/>
<text text-anchor="middle" x="1611" y="-543.732" font-family="Helvetica,sans-Serif" font-size="10.00"> WINDOW</text>
</g>
<!-- Node5 -->
<g id="node5" class="node"><title>Node5</title>
<polygon fill="white" stroke="#bfbfbf" points="1221.5,-356.232 1221.5,-375.232 1270.5,-375.232 1270.5,-356.232 1221.5,-356.232"/>
<text text-anchor="middle" x="1246" y="-363.232" font-family="Helvetica,sans-Serif" font-size="10.00">JFrame</text>
</g>
<!-- Node5&#45;&gt;Node4 -->
<g id="edge4" class="edge"><title>Node5&#45;&gt;Node4</title>
<path fill="none" stroke="midnightblue" d="M1280.91,-365.732C1334.97,-365.732 1440.23,-365.732 1495.73,-365.732"/>
<polygon fill="midnightblue" stroke="midnightblue" points="1280.81,-362.233 1270.81,-365.732 1280.81,-369.233 1280.81,-362.233"/>
</g>
<!-- Node6 -->
<g id="node6" class="node"><title>Node6</title>
<g id="a_node6"><a xlink:href="../../dc/dbd/interfaceview_1_1_workspace_handler.html" target="_top" xlink:title="view.WorkspaceHandler">
<polygon fill="white" stroke="black" points="1182,-318.232 1182,-337.232 1310,-337.232 1310,-318.232 1182,-318.232"/>
<text text-anchor="middle" x="1246" y="-325.232" font-family="Helvetica,sans-Serif" font-size="10.00">view.WorkspaceHandler</text>
</a>
</g>
</g>
<!-- Node6&#45;&gt;Node4 -->
<g id="edge5" class="edge"><title>Node6&#45;&gt;Node4</title>
<path fill="none" stroke="midnightblue" d="M1320.18,-337.489C1376.49,-344.998 1451.89,-355.052 1495.89,-360.917"/>
<polygon fill="midnightblue" stroke="midnightblue" points="1320.63,-334.018 1310.25,-336.166 1319.7,-340.957 1320.63,-334.018"/>
</g>
<!-- Node7 -->
<g id="node7" class="node"><title>Node7</title>
<polygon fill="white" stroke="#bfbfbf" points="903.5,-431.232 903.5,-450.232 944.5,-450.232 944.5,-431.232 903.5,-431.232"/>
<text text-anchor="middle" x="924" y="-438.232" font-family="Helvetica,sans-Serif" font-size="10.00">Color</text>
</g>
<!-- Node7&#45;&gt;Node4 -->
<g id="edge7" class="edge"><title>Node7&#45;&gt;Node4</title>
<path fill="none" stroke="#9a32cd" stroke-dasharray="5,2" d="M954.608,-436.141C973.797,-433.244 999.346,-429.534 1022,-426.732 1224.2,-401.731 1277.49,-415.845 1478,-379.732 1484.67,-378.531 1491.73,-376.94 1498.47,-375.262"/>
<polygon fill="#9a32cd" stroke="#9a32cd" points="954.02,-432.69 944.661,-437.656 955.074,-439.61 954.02,-432.69"/>
<text text-anchor="middle" x="1246" y="-416.732" font-family="Helvetica,sans-Serif" font-size="10.00"> INFO_BACKGROUND_COLOR</text>
</g>
<!-- Node7&#45;&gt;Node31 -->
<g id="edge43" class="edge"><title>Node7&#45;&gt;Node31</title>
<path fill="none" stroke="#9a32cd" stroke-dasharray="5,2" d="M954.526,-435.98C997.195,-430.306 1077.99,-424.08 1142,-445.732 1181.81,-459.201 1219.26,-493.99 1235.93,-511.033"/>
<polygon fill="#9a32cd" stroke="#9a32cd" points="953.944,-432.527 944.533,-437.393 954.924,-439.458 953.944,-432.527"/>
<text text-anchor="middle" x="1082" y="-481.732" font-family="Helvetica,sans-Serif" font-size="10.00"> DEFAULT_BACKGROUND</text>
<text text-anchor="middle" x="1082" y="-470.732" font-family="Helvetica,sans-Serif" font-size="10.00">myBackgroundColor</text>
<text text-anchor="start" x="1022" y="-459.732" font-family="Helvetica,sans-Serif" font-size="10.00">DEFAULT_BACKGROUND</text>
<text text-anchor="middle" x="1082" y="-448.732" font-family="Helvetica,sans-Serif" font-size="10.00">_COLOR</text>
</g>
<!-- Node8 -->
<g id="node8" class="node"><title>Node8</title>
<polygon fill="white" stroke="#bfbfbf" points="593.5,-60.2325 593.5,-79.2325 652.5,-79.2325 652.5,-60.2325 593.5,-60.2325"/>
<text text-anchor="middle" x="623" y="-67.2325" font-family="Helvetica,sans-Serif" font-size="10.00">JTextField</text>
</g>
<!-- Node8&#45;&gt;Node4 -->
<g id="edge8" class="edge"><title>Node8&#45;&gt;Node4</title>
<path fill="none" stroke="#9a32cd" stroke-dasharray="5,2" d="M662.515,-58.1165C794.814,-20.8071 1235.84,81.7212 1478,-128.732 1513.44,-159.529 1528.07,-315.824 1531.29,-356.201"/>
<polygon fill="#9a32cd" stroke="#9a32cd" points="661.463,-54.7767 652.812,-60.8929 663.389,-61.5066 661.463,-54.7767"/>
<text text-anchor="middle" x="1082" y="-6.73249" font-family="Helvetica,sans-Serif" font-size="10.00"> myInputField</text>
</g>
<!-- Node24 -->
<g id="node24" class="node"><title>Node24</title>
<g id="a_node24"><a xlink:href="../../d3/d50/classview_1_1windows_1_1_logo_list_window.html" target="_top" xlink:title="view.windows.LogoListWindow">
<polygon fill="white" stroke="black" points="846,-175.232 846,-194.232 1002,-194.232 1002,-175.232 846,-175.232"/>
<text text-anchor="middle" x="924" y="-182.232" font-family="Helvetica,sans-Serif" font-size="10.00">view.windows.LogoListWindow</text>
</a>
</g>
</g>
<!-- Node8&#45;&gt;Node24 -->
<g id="edge29" class="edge"><title>Node8&#45;&gt;Node24</title>
<path fill="none" stroke="#9a32cd" stroke-dasharray="5,2" d="M662.867,-70.9003C704.853,-73.4478 772.866,-81.369 826,-105.732 863.51,-122.932 898.773,-158.118 914.462,-175.117"/>
<polygon fill="#9a32cd" stroke="#9a32cd" points="662.951,-67.3999 652.778,-70.3617 662.577,-74.3899 662.951,-67.3999"/>
<text text-anchor="middle" x="773" y="-108.732" font-family="Helvetica,sans-Serif" font-size="10.00"> myInputField</text>
</g>
<!-- Node9&#45;&gt;Node4 -->
<g id="edge9" class="edge"><title>Node9&#45;&gt;Node4</title>
<path fill="none" stroke="#9a32cd" stroke-dasharray="5,2" d="M950.326,-381.208C992.282,-358.075 1079.58,-313.83 1160,-297.732 1299.73,-269.764 1345.07,-287.373 1478,-338.732 1490.71,-343.643 1504.44,-350.529 1514.87,-356.118"/>
<polygon fill="#9a32cd" stroke="#9a32cd" points="948.397,-378.276 941.371,-386.207 951.809,-384.389 948.397,-378.276"/>
<text text-anchor="middle" x="1246" y="-300.732" font-family="Helvetica,sans-Serif" font-size="10.00"> myVariablesWindow</text>
</g>
<!-- Node10 -->
<g id="node10" class="node"><title>Node10</title>
<polygon fill="white" stroke="#bfbfbf" points="601,-372.232 601,-391.232 645,-391.232 645,-372.232 601,-372.232"/>
<text text-anchor="middle" x="623" y="-379.232" font-family="Helvetica,sans-Serif" font-size="10.00">JPanel</text>
</g>
<!-- Node10&#45;&gt;Node9 -->
<g id="edge10" class="edge"><title>Node10&#45;&gt;Node9</title>
<path fill="none" stroke="midnightblue" d="M655.139,-377.255C694.909,-372.244 765.796,-365.693 826,-372.732 848.003,-375.305 872.253,-381.055 891.002,-386.162"/>
<polygon fill="midnightblue" stroke="midnightblue" points="654.477,-373.811 645.017,-378.582 655.387,-380.752 654.477,-373.811"/>
</g>
<!-- Node10&#45;&gt;Node9 -->
<g id="edge24" class="edge"><title>Node10&#45;&gt;Node9</title>
<path fill="none" stroke="#9a32cd" stroke-dasharray="5,2" d="M655.169,-383.192C699.475,-385.266 782.145,-389.137 843.968,-392.032"/>
<polygon fill="#9a32cd" stroke="#9a32cd" points="655.178,-379.689 645.025,-382.717 654.85,-386.681 655.178,-379.689"/>
<text text-anchor="middle" x="773" y="-405.732" font-family="Helvetica,sans-Serif" font-size="10.00"> myCardsPanel</text>
<text text-anchor="middle" x="773" y="-394.732" font-family="Helvetica,sans-Serif" font-size="10.00">myButtonsPanel</text>
</g>
<!-- Node10&#45;&gt;Node24 -->
<g id="edge27" class="edge"><title>Node10&#45;&gt;Node24</title>
<path fill="none" stroke="midnightblue" d="M655.422,-376.808C671.512,-372.708 690.155,-365.249 702,-351.732 724.593,-325.951 698.169,-303.162 720,-276.732 758.811,-229.747 826.705,-205.753 873.205,-194.244"/>
<polygon fill="midnightblue" stroke="midnightblue" points="654.321,-373.468 645.314,-379.047 655.835,-380.302 654.321,-373.468"/>
</g>
<!-- Node28 -->
<g id="node28" class="node"><title>Node28</title>
<g id="a_node28"><a xlink:href="../../db/da5/classview_1_1windows_1_1_information_view.html" target="_top" xlink:title="view.windows.InformationView">
<polygon fill="white" stroke="black" points="845,-767.232 845,-786.232 1003,-786.232 1003,-767.232 845,-767.232"/>
<text text-anchor="middle" x="924" y="-774.232" font-family="Helvetica,sans-Serif" font-size="10.00">view.windows.InformationView</text>
</a>
</g>
</g>
<!-- Node10&#45;&gt;Node28 -->
<g id="edge35" class="edge"><title>Node10&#45;&gt;Node28</title>
<path fill="none" stroke="midnightblue" d="M651.859,-396.462C668.726,-406.739 689.353,-421.959 702,-440.732 719.227,-466.305 698.151,-485.976 720,-507.732 754.528,-542.115 794.412,-498.631 826,-535.732 852.49,-566.846 823.775,-683.226 844,-718.732 856.885,-741.353 882.586,-757.652 901.182,-767.106"/>
<polygon fill="midnightblue" stroke="midnightblue" points="653.353,-393.281 642.951,-391.27 649.828,-399.329 653.353,-393.281"/>
</g>
<!-- Node11 -->
<g id="node11" class="node"><title>Node11</title>
<polygon fill="white" stroke="#bfbfbf" points="593,-600.232 593,-619.232 653,-619.232 653,-600.232 593,-600.232"/>
<text text-anchor="middle" x="623" y="-607.232" font-family="Helvetica,sans-Serif" font-size="10.00">Observer</text>
</g>
<!-- Node11&#45;&gt;Node9 -->
<g id="edge11" class="edge"><title>Node11&#45;&gt;Node9</title>
<path fill="none" stroke="midnightblue" d="M663.279,-602.668C718.902,-592.298 815.116,-572.875 826,-560.732 867.579,-514.346 804.309,-469.744 844,-421.732 850.072,-414.388 858.264,-409.102 867.079,-405.302"/>
<polygon fill="midnightblue" stroke="midnightblue" points="662.592,-599.235 653.395,-604.495 663.864,-606.119 662.592,-599.235"/>
</g>
<!-- Node11&#45;&gt;Node24 -->
<g id="edge28" class="edge"><title>Node11&#45;&gt;Node24</title>
<path fill="none" stroke="midnightblue" d="M663.087,-600.29C677.477,-594.861 692.552,-586.489 702,-573.732 736.977,-526.505 681.048,-486.739 720,-442.732 752.296,-406.246 793.812,-451.315 826,-414.732 866.568,-368.627 819.104,-333.872 844,-277.732 859.716,-242.293 893.332,-209.998 911.226,-194.461"/>
<polygon fill="midnightblue" stroke="midnightblue" points="661.664,-597.076 653.312,-603.595 663.906,-603.707 661.664,-597.076"/>
</g>
<!-- Node11&#45;&gt;Node28 -->
<g id="edge36" class="edge"><title>Node11&#45;&gt;Node28</title>
<path fill="none" stroke="midnightblue" d="M655.882,-623.555C670.153,-629.97 687.089,-637.898 702,-645.732 781.561,-687.532 872.794,-744.69 908.034,-767.132"/>
<polygon fill="midnightblue" stroke="midnightblue" points="657.044,-620.242 646.485,-619.376 654.2,-626.638 657.044,-620.242"/>
</g>
<!-- Node11&#45;&gt;Node31 -->
<g id="edge41" class="edge"><title>Node11&#45;&gt;Node31</title>
<path fill="none" stroke="midnightblue" d="M652.707,-623.345C695.712,-641.506 777.029,-666.888 826,-625.732 861.577,-595.834 808.498,-552.72 844,-522.732 898.249,-476.91 1120.68,-502.847 1208.8,-515.275"/>
<polygon fill="midnightblue" stroke="midnightblue" points="653.953,-620.07 643.388,-619.268 651.147,-626.483 653.953,-620.07"/>
</g>
<!-- Node12 -->
<g id="node12" class="node"><title>Node12</title>
<g id="a_node12"><a xlink:href="../../dc/d3c/interfacecontroller_1_1support_1_1_i_error.html" target="_top" xlink:title="controller.support.IError">
<polygon fill="white" stroke="black" points="558.5,-545.232 558.5,-564.232 687.5,-564.232 687.5,-545.232 558.5,-545.232"/>
<text text-anchor="middle" x="623" y="-552.232" font-family="Helvetica,sans-Serif" font-size="10.00">controller.support.IError</text>
</a>
</g>
</g>
<!-- Node12&#45;&gt;Node9 -->
<g id="edge12" class="edge"><title>Node12&#45;&gt;Node9</title>
<path fill="none" stroke="#9a32cd" stroke-dasharray="5,2" d="M697.878,-548.304C747.931,-542.399 808.102,-531.757 826,-513.732 855.357,-484.168 816.433,-452.972 844,-421.732 850.497,-414.371 859.116,-409.085 868.272,-405.293"/>
<polygon fill="#9a32cd" stroke="#9a32cd" points="697.237,-544.854 687.694,-549.458 698.025,-551.81 697.237,-544.854"/>
<text text-anchor="middle" x="773" y="-548.732" font-family="Helvetica,sans-Serif" font-size="10.00"> myErrorNotifier</text>
</g>
<!-- Node13 -->
<g id="node13" class="node"><title>Node13</title>
<g id="a_node13"><a xlink:href="../../df/d37/classview_1_1components_1_1_logo_table.html" target="_top" xlink:title="view.components.LogoTable">
<polygon fill="white" stroke="black" points="548.5,-497.232 548.5,-516.232 697.5,-516.232 697.5,-497.232 548.5,-497.232"/>
<text text-anchor="middle" x="623" y="-504.232" font-family="Helvetica,sans-Serif" font-size="10.00">view.components.LogoTable</text>
</a>
</g>
</g>
<!-- Node13&#45;&gt;Node9 -->
<g id="edge14" class="edge"><title>Node13&#45;&gt;Node9</title>
<path fill="none" stroke="#9a32cd" stroke-dasharray="5,2" d="M707.797,-501.187C747.083,-494.929 792.501,-482.033 826,-455.732 839.448,-445.174 830.933,-432.759 844,-421.732 852.718,-414.376 863.578,-409.084 874.428,-405.283"/>
<polygon fill="#9a32cd" stroke="#9a32cd" points="707.072,-497.756 697.689,-502.675 708.092,-504.681 707.072,-497.756"/>
<text text-anchor="middle" x="773" y="-501.732" font-family="Helvetica,sans-Serif" font-size="10.00"> myTable</text>
</g>
<!-- Node14 -->
<g id="node14" class="node"><title>Node14</title>
<polygon fill="white" stroke="#bfbfbf" points="290.5,-526.232 290.5,-545.232 333.5,-545.232 333.5,-526.232 290.5,-526.232"/>
<text text-anchor="middle" x="312" y="-533.232" font-family="Helvetica,sans-Serif" font-size="10.00">JTable</text>
</g>
<!-- Node14&#45;&gt;Node13 -->
<g id="edge15" class="edge"><title>Node14&#45;&gt;Node13</title>
<path fill="none" stroke="midnightblue" d="M343.594,-534.009C385.012,-531.545 461.2,-526.548 526,-519.732 535.618,-518.721 545.758,-517.508 555.701,-516.235"/>
<polygon fill="midnightblue" stroke="midnightblue" points="343.377,-530.516 333.599,-534.595 343.786,-537.504 343.377,-530.516"/>
</g>
<!-- Node15 -->
<g id="node15" class="node"><title>Node15</title>
<polygon fill="white" stroke="#bfbfbf" points="269,-488.232 269,-507.232 355,-507.232 355,-488.232 269,-488.232"/>
<text text-anchor="middle" x="312" y="-495.232" font-family="Helvetica,sans-Serif" font-size="10.00">TableCellEditor</text>
</g>
<!-- Node15&#45;&gt;Node13 -->
<g id="edge16" class="edge"><title>Node15&#45;&gt;Node13</title>
<path fill="none" stroke="#9a32cd" stroke-dasharray="5,2" d="M365.622,-499.265C415.831,-500.728 491.941,-502.944 548.202,-504.583"/>
<polygon fill="#9a32cd" stroke="#9a32cd" points="365.415,-495.758 355.317,-498.965 365.211,-502.755 365.415,-495.758"/>
<text text-anchor="middle" x="471" y="-507.732" font-family="Helvetica,sans-Serif" font-size="10.00"> myComboEditor</text>
</g>
<!-- Node16 -->
<g id="node16" class="node"><title>Node16</title>
<polygon fill="white" stroke="#bfbfbf" points="276.5,-564.232 276.5,-583.232 347.5,-583.232 347.5,-564.232 276.5,-564.232"/>
<text text-anchor="middle" x="312" y="-571.232" font-family="Helvetica,sans-Serif" font-size="10.00">JComboBox</text>
</g>
<!-- Node16&#45;&gt;Node13 -->
<g id="edge17" class="edge"><title>Node16&#45;&gt;Node13</title>
<path fill="none" stroke="#9a32cd" stroke-dasharray="5,2" d="M357.601,-568.502C400.987,-562.923 468.575,-552.926 526,-538.732 550.559,-532.662 577.864,-523.296 597.055,-516.263"/>
<polygon fill="#9a32cd" stroke="#9a32cd" points="357.133,-565.033 347.65,-569.758 358.01,-571.978 357.133,-565.033"/>
<text text-anchor="middle" x="471" y="-563.732" font-family="Helvetica,sans-Serif" font-size="10.00"> myEditableComboBox</text>
</g>
<!-- Node17 -->
<g id="node17" class="node"><title>Node17</title>
<g id="a_node17"><a xlink:href="../../db/d29/classparser_1_1_variable_manager.html" target="_top" xlink:title="parser.VariableManager">
<polygon fill="white" stroke="black" points="558,-450.232 558,-469.232 688,-469.232 688,-450.232 558,-450.232"/>
<text text-anchor="middle" x="623" y="-457.232" font-family="Helvetica,sans-Serif" font-size="10.00">parser.VariableManager</text>
</a>
</g>
</g>
<!-- Node17&#45;&gt;Node9 -->
<g id="edge18" class="edge"><title>Node17&#45;&gt;Node9</title>
<path fill="none" stroke="#9a32cd" stroke-dasharray="5,2" d="M680.946,-448.178C721.446,-439.89 777.114,-428.357 826,-417.732 844.224,-413.772 864.335,-409.237 881.498,-405.318"/>
<polygon fill="#9a32cd" stroke="#9a32cd" points="680.086,-444.781 670.99,-450.212 681.488,-451.639 680.086,-444.781"/>
<text text-anchor="middle" x="773" y="-443.732" font-family="Helvetica,sans-Serif" font-size="10.00"> myVariableManager</text>
</g>
<!-- Node18 -->
<g id="node18" class="node"><title>Node18</title>
<polygon fill="white" stroke="#bfbfbf" points="226,-450.232 226,-469.232 398,-469.232 398,-450.232 226,-450.232"/>
<text text-anchor="middle" x="312" y="-457.232" font-family="Helvetica,sans-Serif" font-size="10.00">Deque&lt; parser.VariableScope &gt;</text>
</g>
<!-- Node18&#45;&gt;Node17 -->
<g id="edge19" class="edge"><title>Node18&#45;&gt;Node17</title>
<path fill="none" stroke="#9a32cd" stroke-dasharray="5,2" d="M408.445,-459.732C456.892,-459.732 514.458,-459.732 557.608,-459.732"/>
<polygon fill="#9a32cd" stroke="#9a32cd" points="408.254,-456.233 398.254,-459.732 408.254,-463.233 408.254,-456.233"/>
<text text-anchor="middle" x="471" y="-462.732" font-family="Helvetica,sans-Serif" font-size="10.00"> myScopes</text>
</g>
<!-- Node19 -->
<g id="node19" class="node"><title>Node19</title>
<g id="a_node19"><a xlink:href="../../da/d34/classparser_1_1_variable_scope.html" target="_top" xlink:title="parser.VariableScope">
<polygon fill="white" stroke="black" points="253,-412.232 253,-431.232 371,-431.232 371,-412.232 253,-412.232"/>
<text text-anchor="middle" x="312" y="-419.232" font-family="Helvetica,sans-Serif" font-size="10.00">parser.VariableScope</text>
</a>
</g>
</g>
<!-- Node19&#45;&gt;Node17 -->
<g id="edge20" class="edge"><title>Node19&#45;&gt;Node17</title>
<path fill="none" stroke="#9a32cd" stroke-dasharray="5,2" d="M381.473,-428.293C423.284,-432.506 477.798,-438.368 526,-444.732 538.292,-446.356 551.439,-448.283 563.937,-450.206"/>
<polygon fill="#9a32cd" stroke="#9a32cd" points="381.699,-424.798 371.4,-427.285 381.002,-431.764 381.699,-424.798"/>
<text text-anchor="middle" x="471" y="-447.732" font-family="Helvetica,sans-Serif" font-size="10.00"> myGlobal</text>
</g>
<!-- Node20 -->
<g id="node20" class="node"><title>Node20</title>
<polygon fill="white" stroke="#bfbfbf" points="0,-412.232 0,-431.232 128,-431.232 128,-412.232 0,-412.232"/>
<text text-anchor="middle" x="64" y="-419.232" font-family="Helvetica,sans-Serif" font-size="10.00">Map&lt; String, Integer &gt;</text>
</g>
<!-- Node20&#45;&gt;Node19 -->
<g id="edge21" class="edge"><title>Node20&#45;&gt;Node19</title>
<path fill="none" stroke="#9a32cd" stroke-dasharray="5,2" d="M138.156,-421.732C174.769,-421.732 218.473,-421.732 252.773,-421.732"/>
<polygon fill="#9a32cd" stroke="#9a32cd" points="138.032,-418.233 128.032,-421.732 138.032,-425.233 138.032,-418.233"/>
<text text-anchor="middle" x="177" y="-424.732" font-family="Helvetica,sans-Serif" font-size="10.00"> myVariables</text>
</g>
<!-- Node21 -->
<g id="node21" class="node"><title>Node21</title>
<polygon fill="white" stroke="#bfbfbf" points="571,-323.232 571,-342.232 675,-342.232 675,-323.232 571,-323.232"/>
<text text-anchor="middle" x="623" y="-330.232" font-family="Helvetica,sans-Serif" font-size="10.00">DefaultTableModel</text>
</g>
<!-- Node21&#45;&gt;Node9 -->
<g id="edge22" class="edge"><title>Node21&#45;&gt;Node9</title>
<path fill="none" stroke="#9a32cd" stroke-dasharray="5,2" d="M685.368,-334.776C725.843,-337.252 779.731,-342.711 826,-354.732 854.666,-362.18 885.896,-376.621 904.965,-386.221"/>
<polygon fill="#9a32cd" stroke="#9a32cd" points="685.562,-331.282 675.38,-334.209 685.165,-338.271 685.562,-331.282"/>
<text text-anchor="middle" x="773" y="-357.732" font-family="Helvetica,sans-Serif" font-size="10.00"> myModel</text>
</g>
<!-- Node22 -->
<g id="node22" class="node"><title>Node22</title>
<polygon fill="white" stroke="#bfbfbf" points="589,-243.232 589,-262.232 657,-262.232 657,-243.232 589,-243.232"/>
<text text-anchor="middle" x="623" y="-250.232" font-family="Helvetica,sans-Serif" font-size="10.00">Dimension</text>
</g>
<!-- Node22&#45;&gt;Node4 -->
<g id="edge47" class="edge"><title>Node22&#45;&gt;Node4</title>
<path fill="none" stroke="#9a32cd" stroke-dasharray="5,2" d="M667.406,-253.167C708.315,-253.626 771.326,-254.461 826,-255.732 971.07,-259.105 1351.27,-221.044 1478,-291.732 1504.25,-306.375 1521.17,-339.731 1528.23,-356.188"/>
<polygon fill="#9a32cd" stroke="#9a32cd" points="667.283,-249.665 657.245,-253.055 667.206,-256.665 667.283,-249.665"/>
<text text-anchor="start" x="1024" y="-276.732" font-family="Helvetica,sans-Serif" font-size="10.00"> TABBED_INFO_WINDOW</text>
<text text-anchor="middle" x="1082" y="-265.732" font-family="Helvetica,sans-Serif" font-size="10.00">_DIMENSION</text>
<text text-anchor="middle" x="1082" y="-254.732" font-family="Helvetica,sans-Serif" font-size="10.00">WINDOW_DIMENSION</text>
</g>
<!-- Node22&#45;&gt;Node9 -->
<g id="edge23" class="edge"><title>Node22&#45;&gt;Node9</title>
<path fill="none" stroke="#9a32cd" stroke-dasharray="5,2" d="M667.039,-263.44C709.067,-274.851 774.097,-295.09 826,-322.732 860.415,-341.061 895.746,-371.022 912.697,-386.231"/>
<polygon fill="#9a32cd" stroke="#9a32cd" points="667.697,-259.993 657.132,-260.798 665.893,-266.756 667.697,-259.993"/>
<text text-anchor="middle" x="773" y="-325.732" font-family="Helvetica,sans-Serif" font-size="10.00"> TABLE_DIMENSION</text>
</g>
<!-- Node22&#45;&gt;Node24 -->
<g id="edge30" class="edge"><title>Node22&#45;&gt;Node24</title>
<path fill="none" stroke="#9a32cd" stroke-dasharray="5,2" d="M642.529,-236.314C660.788,-221.277 690.205,-199.998 720,-190.732 760.233,-178.221 807.139,-176.083 845.72,-177.36"/>
<polygon fill="#9a32cd" stroke="#9a32cd" points="639.873,-233.977 634.509,-243.113 644.4,-239.316 639.873,-233.977"/>
<text text-anchor="middle" x="773" y="-193.732" font-family="Helvetica,sans-Serif" font-size="10.00"> DEFAULT_DIMENSION</text>
</g>
<!-- Node22&#45;&gt;Node31 -->
<g id="edge46" class="edge"><title>Node22&#45;&gt;Node31</title>
<path fill="none" stroke="#9a32cd" stroke-dasharray="5,2" d="M667.198,-254.727C708.638,-257.518 772.618,-264.142 826,-279.732 974.686,-323.156 1013.08,-340.866 1142,-426.732 1180.89,-452.634 1219.68,-492.908 1236.42,-511.162"/>
<polygon fill="#9a32cd" stroke="#9a32cd" points="667.368,-251.231 657.168,-254.097 666.929,-258.217 667.368,-251.231"/>
<text text-anchor="middle" x="924" y="-346.732" font-family="Helvetica,sans-Serif" font-size="10.00"> DEFAULT_CANVAS_DIMENSION</text>
</g>
<!-- Node23 -->
<g id="node23" class="node"><title>Node23</title>
<g id="a_node23"><a xlink:href="../../dd/d47/classview_1_1windows_1_1_custom_command_window.html" target="_top" xlink:title="view.windows.CustomCommand\lWindow">
<polygon fill="white" stroke="black" points="1161.5,-132.732 1161.5,-162.732 1330.5,-162.732 1330.5,-132.732 1161.5,-132.732"/>
<text text-anchor="start" x="1169.5" y="-150.732" font-family="Helvetica,sans-Serif" font-size="10.00">view.windows.CustomCommand</text>
<text text-anchor="middle" x="1246" y="-139.732" font-family="Helvetica,sans-Serif" font-size="10.00">Window</text>
</a>
</g>
</g>
<!-- Node23&#45;&gt;Node4 -->
<g id="edge25" class="edge"><title>Node23&#45;&gt;Node4</title>
<path fill="none" stroke="#9a32cd" stroke-dasharray="5,2" d="M1340.64,-132.522C1386.85,-130.338 1440.57,-136.495 1478,-167.732 1507.95,-192.731 1526.18,-319.86 1530.82,-356.086"/>
<polygon fill="#9a32cd" stroke="#9a32cd" points="1340.36,-129.032 1330.59,-133.13 1340.79,-136.019 1340.36,-129.032"/>
<text text-anchor="middle" x="1414" y="-170.732" font-family="Helvetica,sans-Serif" font-size="10.00"> myCusCommandsWindow</text>
</g>
<!-- Node24&#45;&gt;Node23 -->
<g id="edge26" class="edge"><title>Node24&#45;&gt;Node23</title>
<path fill="none" stroke="midnightblue" d="M1012.1,-174.661C1058.54,-169.292 1115.41,-162.717 1161.32,-157.408"/>
<polygon fill="midnightblue" stroke="midnightblue" points="1011.59,-171.197 1002.06,-175.823 1012.39,-178.151 1011.59,-171.197"/>
</g>
<!-- Node35 -->
<g id="node35" class="node"><title>Node35</title>
<g id="a_node35"><a xlink:href="../../dd/d14/classview_1_1windows_1_1_previous_command_window.html" target="_top" xlink:title="view.windows.PreviousCommand\lWindow">
<polygon fill="white" stroke="black" points="1160,-181.732 1160,-211.732 1332,-211.732 1332,-181.732 1160,-181.732"/>
<text text-anchor="start" x="1168" y="-199.732" font-family="Helvetica,sans-Serif" font-size="10.00">view.windows.PreviousCommand</text>
<text text-anchor="middle" x="1246" y="-188.732" font-family="Helvetica,sans-Serif" font-size="10.00">Window</text>
</a>
</g>
</g>
<!-- Node24&#45;&gt;Node35 -->
<g id="edge49" class="edge"><title>Node24&#45;&gt;Node35</title>
<path fill="none" stroke="midnightblue" d="M1012.29,-188.006C1058.22,-189.728 1114.3,-191.831 1159.89,-193.541"/>
<polygon fill="midnightblue" stroke="midnightblue" points="1012.18,-184.499 1002.06,-187.622 1011.92,-191.494 1012.18,-184.499"/>
</g>
<!-- Node25 -->
<g id="node25" class="node"><title>Node25</title>
<polygon fill="white" stroke="#bfbfbf" points="605.5,-148.232 605.5,-167.232 640.5,-167.232 640.5,-148.232 605.5,-148.232"/>
<text text-anchor="middle" x="623" y="-155.232" font-family="Helvetica,sans-Serif" font-size="10.00">JList</text>
</g>
<!-- Node25&#45;&gt;Node24 -->
<g id="edge31" class="edge"><title>Node25&#45;&gt;Node24</title>
<path fill="none" stroke="#9a32cd" stroke-dasharray="5,2" d="M651.062,-155.121C689.977,-151.926 763.897,-147.949 826,-156.732 850.644,-160.218 877.794,-168.452 897.086,-175.094"/>
<polygon fill="#9a32cd" stroke="#9a32cd" points="650.265,-151.677 640.606,-156.031 650.872,-158.651 650.265,-151.677"/>
<text text-anchor="middle" x="773" y="-159.732" font-family="Helvetica,sans-Serif" font-size="10.00"> myCommands</text>
</g>
<!-- Node26 -->
<g id="node26" class="node"><title>Node26</title>
<polygon fill="white" stroke="#bfbfbf" points="574,-110.232 574,-129.232 672,-129.232 672,-110.232 574,-110.232"/>
<text text-anchor="middle" x="623" y="-117.232" font-family="Helvetica,sans-Serif" font-size="10.00">Vector&lt; String &gt;</text>
</g>
<!-- Node26&#45;&gt;Node24 -->
<g id="edge32" class="edge"><title>Node26&#45;&gt;Node24</title>
<path fill="none" stroke="#9a32cd" stroke-dasharray="5,2" d="M682.304,-118.908C723.211,-119.708 778.807,-123.583 826,-136.732 856.951,-145.356 889.833,-163.876 908.257,-175.223"/>
<polygon fill="#9a32cd" stroke="#9a32cd" points="682.282,-115.408 672.234,-118.767 682.185,-122.407 682.282,-115.408"/>
<text text-anchor="middle" x="773" y="-139.732" font-family="Helvetica,sans-Serif" font-size="10.00"> myCommandsVector</text>
</g>
<!-- Node27 -->
<g id="node27" class="node"><title>Node27</title>
<polygon fill="white" stroke="#bfbfbf" points="1208,-620.232 1208,-639.232 1284,-639.232 1284,-620.232 1208,-620.232"/>
<text text-anchor="middle" x="1246" y="-627.232" font-family="Helvetica,sans-Serif" font-size="10.00">JTabbedPane</text>
</g>
<!-- Node27&#45;&gt;Node4 -->
<g id="edge33" class="edge"><title>Node27&#45;&gt;Node4</title>
<path fill="none" stroke="#9a32cd" stroke-dasharray="5,2" d="M1294.31,-631.089C1353.9,-631.763 1451.7,-629.104 1478,-605.732 1513.52,-574.171 1528.09,-416.175 1531.29,-375.365"/>
<polygon fill="#9a32cd" stroke="#9a32cd" points="1294.07,-627.585 1284.02,-630.935 1293.96,-634.584 1294.07,-627.585"/>
<text text-anchor="middle" x="1414" y="-644.732" font-family="Helvetica,sans-Serif" font-size="10.00"> myTabbedPane</text>
<text text-anchor="middle" x="1414" y="-633.732" font-family="Helvetica,sans-Serif" font-size="10.00">myTabbedInfoWindow</text>
</g>
<!-- Node28&#45;&gt;Node4 -->
<g id="edge34" class="edge"><title>Node28&#45;&gt;Node4</title>
<path fill="none" stroke="#9a32cd" stroke-dasharray="5,2" d="M980.838,-765.035C1120.4,-735.744 1473.61,-661.257 1478,-656.732 1518.34,-615.152 1529.51,-421.034 1531.6,-375.369"/>
<polygon fill="#9a32cd" stroke="#9a32cd" points="979.839,-761.668 970.771,-767.147 981.276,-768.519 979.839,-761.668"/>
<text text-anchor="middle" x="1246" y="-729.732" font-family="Helvetica,sans-Serif" font-size="10.00"> myInfoView</text>
</g>
<!-- Node29 -->
<g id="node29" class="node"><title>Node29</title>
<polygon fill="white" stroke="#bfbfbf" points="544,-825.232 544,-844.232 702,-844.232 702,-825.232 544,-825.232"/>
<text text-anchor="middle" x="623" y="-832.232" font-family="Helvetica,sans-Serif" font-size="10.00">List&lt; view.labels.LogoLabel &gt;</text>
</g>
<!-- Node29&#45;&gt;Node28 -->
<g id="edge37" class="edge"><title>Node29&#45;&gt;Node28</title>
<path fill="none" stroke="#9a32cd" stroke-dasharray="5,2" d="M712.471,-824.2C747.956,-819.299 789.109,-812.759 826,-804.732 848.95,-799.739 874.451,-792.302 893.545,-786.347"/>
<polygon fill="#9a32cd" stroke="#9a32cd" points="711.576,-820.789 702.138,-825.603 712.518,-827.726 711.576,-820.789"/>
<text text-anchor="middle" x="773" y="-825.732" font-family="Helvetica,sans-Serif" font-size="10.00"> myLabelList</text>
</g>
<!-- Node30 -->
<g id="node30" class="node"><title>Node30</title>
<g id="a_node30"><a xlink:href="../../d0/d32/interfaceview_1_1_i_label_information.html" target="_top" xlink:title="view.ILabelInformation">
<polygon fill="white" stroke="black" points="562,-787.232 562,-806.232 684,-806.232 684,-787.232 562,-787.232"/>
<text text-anchor="middle" x="623" y="-794.232" font-family="Helvetica,sans-Serif" font-size="10.00">view.ILabelInformation</text>
</a>
</g>
</g>
<!-- Node30&#45;&gt;Node28 -->
<g id="edge38" class="edge"><title>Node30&#45;&gt;Node28</title>
<path fill="none" stroke="#9a32cd" stroke-dasharray="5,2" d="M694.152,-792.04C739.322,-789.019 798.1,-785.087 844.776,-781.965"/>
<polygon fill="#9a32cd" stroke="#9a32cd" points="693.892,-788.55 684.147,-792.709 694.359,-795.534 693.892,-788.55"/>
<text text-anchor="middle" x="773" y="-792.732" font-family="Helvetica,sans-Serif" font-size="10.00"> TURTLE_QUERIES</text>
</g>
<!-- Node31&#45;&gt;Node4 -->
<g id="edge39" class="edge"><title>Node31&#45;&gt;Node4</title>
<path fill="none" stroke="#9a32cd" stroke-dasharray="5,2" d="M1292.79,-508.546C1341.69,-494.079 1419.98,-466.64 1478,-425.732 1498.16,-411.52 1516.12,-388.491 1525.38,-375.485"/>
<polygon fill="#9a32cd" stroke="#9a32cd" points="1291.75,-505.204 1283.12,-511.351 1293.7,-511.927 1291.75,-505.204"/>
<text text-anchor="middle" x="1414" y="-492.732" font-family="Helvetica,sans-Serif" font-size="10.00"> myCurrentCanvas</text>
</g>
<!-- Node32 -->
<g id="node32" class="node"><title>Node32</title>
<g id="a_node32"><a xlink:href="../../dc/d3c/interfacemodel_1_1_paintable.html" target="_top" xlink:title="model.Paintable">
<polygon fill="white" stroke="black" points="877.5,-608.232 877.5,-627.232 970.5,-627.232 970.5,-608.232 877.5,-608.232"/>
<text text-anchor="middle" x="924" y="-615.232" font-family="Helvetica,sans-Serif" font-size="10.00">model.Paintable</text>
</a>
</g>
</g>
<!-- Node32&#45;&gt;Node31 -->
<g id="edge42" class="edge"><title>Node32&#45;&gt;Node31</title>
<path fill="none" stroke="#9a32cd" stroke-dasharray="5,2" d="M980.688,-609.873C1039.91,-601.336 1127.09,-588.188 1142,-582.732 1177.48,-569.747 1214.28,-544.131 1232.79,-530.235"/>
<polygon fill="#9a32cd" stroke="#9a32cd" points="980.111,-606.42 970.71,-611.306 981.106,-613.348 980.111,-606.42"/>
<text text-anchor="middle" x="1082" y="-606.732" font-family="Helvetica,sans-Serif" font-size="10.00"> myPaintingResource</text>
</g>
<!-- Node33 -->
<g id="node33" class="node"><title>Node33</title>
<polygon fill="white" stroke="#bfbfbf" points="900,-570.232 900,-589.232 948,-589.232 948,-570.232 900,-570.232"/>
<text text-anchor="middle" x="924" y="-577.232" font-family="Helvetica,sans-Serif" font-size="10.00">Stroke</text>
</g>
<!-- Node33&#45;&gt;Node31 -->
<g id="edge44" class="edge"><title>Node33&#45;&gt;Node31</title>
<path fill="none" stroke="#9a32cd" stroke-dasharray="5,2" d="M958.418,-576.257C1001.22,-571.508 1077.58,-562.037 1142,-548.732 1166.32,-543.71 1193.4,-536.274 1213.69,-530.327"/>
<polygon fill="#9a32cd" stroke="#9a32cd" points="957.847,-572.798 948.286,-577.362 958.606,-579.757 957.847,-572.798"/>
<text text-anchor="middle" x="1082" y="-571.732" font-family="Helvetica,sans-Serif" font-size="10.00"> GRID_STROKE</text>
</g>
<!-- Node34 -->
<g id="node34" class="node"><title>Node34</title>
<polygon fill="white" stroke="#bfbfbf" points="900.5,-532.232 900.5,-551.232 947.5,-551.232 947.5,-532.232 900.5,-532.232"/>
<text text-anchor="middle" x="924" y="-539.232" font-family="Helvetica,sans-Serif" font-size="10.00">Image</text>
</g>
<!-- Node34&#45;&gt;Node31 -->
<g id="edge45" class="edge"><title>Node34&#45;&gt;Node31</title>
<path fill="none" stroke="#9a32cd" stroke-dasharray="5,2" d="M957.578,-539.595C1017.76,-535.645 1145.93,-527.234 1208.76,-523.111"/>
<polygon fill="#9a32cd" stroke="#9a32cd" points="957.251,-536.108 947.502,-540.256 957.71,-543.093 957.251,-536.108"/>
<text text-anchor="middle" x="1082" y="-538.732" font-family="Helvetica,sans-Serif" font-size="10.00"> myBackgroundImage</text>
</g>
<!-- Node35&#45;&gt;Node4 -->
<g id="edge48" class="edge"><title>Node35&#45;&gt;Node4</title>
<path fill="none" stroke="#9a32cd" stroke-dasharray="5,2" d="M1342.27,-182.205C1387.6,-180.485 1440.06,-186.671 1478,-215.732 1523.92,-250.908 1530.85,-328.627 1531.85,-355.978"/>
<polygon fill="#9a32cd" stroke="#9a32cd" points="1341.92,-178.718 1332.11,-182.724 1342.28,-185.709 1341.92,-178.718"/>
<text text-anchor="middle" x="1414" y="-218.732" font-family="Helvetica,sans-Serif" font-size="10.00"> myPreCommandsWindow</text>
</g>
</g>
</svg>
