<?xml version="1.0" encoding="UTF-8" standalone="no"?>
<!DOCTYPE svg PUBLIC "-//W3C//DTD SVG 1.1//EN"
 "http://www.w3.org/Graphics/SVG/1.1/DTD/svg11.dtd">
<!-- Generated by graphviz version 2.36.0 (20140111.2315)
 -->
<!-- Title: view.ILabelInformation Pages: 1 -->
<svg width="362pt" height="213pt"
 viewBox="0.00 0.00 362.00 213.00" xmlns="http://www.w3.org/2000/svg" xmlns:xlink="http://www.w3.org/1999/xlink">
<g id="graph0" class="graph" transform="scale(1 1) rotate(0) translate(4 209)">
<title>view.ILabelInformation</title>
<polygon fill="white" stroke="none" points="-4,4 -4,-209 358,-209 358,4 -4,4"/>
<!-- Node1 -->
<g id="node1" class="node"><title>Node1</title>
<polygon fill="#bfbfbf" stroke="black" points="0,-82.5 0,-101.5 122,-101.5 122,-82.5 0,-82.5"/>
<text text-anchor="middle" x="61" y="-89.5" font-family="Helvetica,sans-Serif" font-size="10.00">view.ILabelInformation</text>
</g>
<!-- Node2 -->
<g id="node2" class="node"><title>Node2</title>
<g id="a_node2"><a xlink:href="../../d7/d77/classparser_1_1commands_1_1turtle_1_1queries_1_1_heading.html" target="_top" xlink:title="parser.commands.turtle.queries.\lHeading">
<polygon fill="white" stroke="black" points="169.5,-175 169.5,-205 342.5,-205 342.5,-175 169.5,-175"/>
<text text-anchor="start" x="177.5" y="-193" font-family="Helvetica,sans-Serif" font-size="10.00">parser.commands.turtle.queries.</text>
<text text-anchor="middle" x="256" y="-182" font-family="Helvetica,sans-Serif" font-size="10.00">Heading</text>
</a>
</g>
</g>
<!-- Node1&#45;&gt;Node2 -->
<g id="edge1" class="edge"><title>Node1&#45;&gt;Node2</title>
<path fill="none" stroke="midnightblue" d="M79.2152,-108.533C97.4031,-125.125 127.607,-150.274 158,-165 165.903,-168.829 174.463,-172.121 183.113,-174.937"/>
<polygon fill="midnightblue" stroke="midnightblue" points="81.4507,-105.833 71.7466,-101.58 76.681,-110.956 81.4507,-105.833"/>
</g>
<!-- Node3 -->
<g id="node3" class="node"><title>Node3</title>
<g id="a_node3"><a xlink:href="../../d5/d57/classparser_1_1commands_1_1turtle_1_1queries_1_1_is_pen_down.html" target="_top" xlink:title="parser.commands.turtle.queries.\lIsPenDown">
<polygon fill="white" stroke="black" points="169.5,-126 169.5,-156 342.5,-156 342.5,-126 169.5,-126"/>
<text text-anchor="start" x="177.5" y="-144" font-family="Helvetica,sans-Serif" font-size="10.00">parser.commands.turtle.queries.</text>
<text text-anchor="middle" x="256" y="-133" font-family="Helvetica,sans-Serif" font-size="10.00">IsPenDown</text>
</a>
</g>
</g>
<!-- Node1&#45;&gt;Node3 -->
<g id="edge2" class="edge"><title>Node1&#45;&gt;Node3</title>
<path fill="none" stroke="midnightblue" d="M109.666,-104.102C135.686,-110.708 168.139,-118.947 195.773,-125.963"/>
<polygon fill="midnightblue" stroke="midnightblue" points="110.224,-100.633 99.6705,-101.564 108.502,-107.417 110.224,-100.633"/>
</g>
<!-- Node4 -->
<g id="node4" class="node"><title>Node4</title>
<g id="a_node4"><a xlink:href="../../de/dfc/classparser_1_1commands_1_1turtle_1_1queries_1_1_is_showing.html" target="_top" xlink:title="parser.commands.turtle.queries.\lIsShowing">
<polygon fill="white" stroke="black" points="169.5,-77 169.5,-107 342.5,-107 342.5,-77 169.5,-77"/>
<text text-anchor="start" x="177.5" y="-95" font-family="Helvetica,sans-Serif" font-size="10.00">parser.commands.turtle.queries.</text>
<text text-anchor="middle" x="256" y="-84" font-family="Helvetica,sans-Serif" font-size="10.00">IsShowing</text>
</a>
</g>
</g>
<!-- Node1&#45;&gt;Node4 -->
<g id="edge3" class="edge"><title>Node1&#45;&gt;Node4</title>
<path fill="none" stroke="midnightblue" d="M132.352,-92C144.316,-92 156.859,-92 169.169,-92"/>
<polygon fill="midnightblue" stroke="midnightblue" points="132.008,-88.5001 122.008,-92 132.008,-95.5001 132.008,-88.5001"/>
</g>
<!-- Node5 -->
<g id="node5" class="node"><title>Node5</title>
<g id="a_node5"><a xlink:href="../../dc/da7/classparser_1_1commands_1_1turtle_1_1queries_1_1_x_cor.html" target="_top" xlink:title="parser.commands.turtle.queries.XCor">
<polygon fill="white" stroke="black" points="158.5,-38.5 158.5,-57.5 353.5,-57.5 353.5,-38.5 158.5,-38.5"/>
<text text-anchor="middle" x="256" y="-45.5" font-family="Helvetica,sans-Serif" font-size="10.00">parser.commands.turtle.queries.XCor</text>
</a>
</g>
</g>
<!-- Node1&#45;&gt;Node5 -->
<g id="edge4" class="edge"><title>Node1&#45;&gt;Node5</title>
<path fill="none" stroke="midnightblue" d="M108.793,-79.887C124.409,-75.9554 141.924,-71.6651 158,-68 173.758,-64.4072 191.023,-60.7564 206.562,-57.5745"/>
<polygon fill="midnightblue" stroke="midnightblue" points="107.674,-76.5599 98.8396,-82.4086 109.393,-83.3455 107.674,-76.5599"/>
</g>
<!-- Node6 -->
<g id="node6" class="node"><title>Node6</title>
<g id="a_node6"><a xlink:href="../../d5/d3e/classparser_1_1commands_1_1turtle_1_1queries_1_1_y_cor.html" target="_top" xlink:title="parser.commands.turtle.queries.YCor">
<polygon fill="white" stroke="black" points="159,-0.5 159,-19.5 353,-19.5 353,-0.5 159,-0.5"/>
<text text-anchor="middle" x="256" y="-7.5" font-family="Helvetica,sans-Serif" font-size="10.00">parser.commands.turtle.queries.YCor</text>
</a>
</g>
</g>
<!-- Node1&#45;&gt;Node6 -->
<g id="edge5" class="edge"><title>Node1&#45;&gt;Node6</title>
<path fill="none" stroke="midnightblue" d="M81.2283,-76.1157C99.7578,-61.6337 129.155,-40.7588 158,-29 167.534,-25.1132 177.928,-22.0047 188.254,-19.5231"/>
<polygon fill="midnightblue" stroke="midnightblue" points="78.92,-73.4799 73.2877,-82.4537 83.2868,-78.9508 78.92,-73.4799"/>
</g>
</g>
</svg>
