<?xml version="1.0" encoding="UTF-8" standalone="no"?>
<!DOCTYPE svg PUBLIC "-//W3C//DTD SVG 1.1//EN"
 "http://www.w3.org/Graphics/SVG/1.1/DTD/svg11.dtd">
<!-- Generated by graphviz version 2.36.0 (20140111.2315)
 -->
<!-- Title: parser.commands.workspace.Tell.checkSyntax Pages: 1 -->
<svg width="364pt" height="38pt"
 viewBox="0.00 0.00 364.00 38.00" xmlns="http://www.w3.org/2000/svg" xmlns:xlink="http://www.w3.org/1999/xlink">
<g id="graph0" class="graph" transform="scale(1 1) rotate(0) translate(4 34)">
<title>parser.commands.workspace.Tell.checkSyntax</title>
<polygon fill="white" stroke="none" points="-4,4 -4,-34 360,-34 360,4 -4,4"/>
<!-- Node1 -->
<g id="node1" class="node"><title>Node1</title>
<polygon fill="#bfbfbf" stroke="black" points="0,-0 0,-30 160,-30 160,-0 0,-0"/>
<text text-anchor="start" x="8" y="-18" font-family="Helvetica,sans-Serif" font-size="10.00">parser.commands.workspace.</text>
<text text-anchor="middle" x="80" y="-7" font-family="Helvetica,sans-Serif" font-size="10.00">Tell.checkSyntax</text>
</g>
<!-- Node2 -->
<g id="node2" class="node"><title>Node2</title>
<g id="a_node2"><a xlink:href="../../de/d96/classparser_1_1commands_1_1workspace_1_1_tell.html#a000e981ff311783d84883c8f19aa597e" target="_top" xlink:title="parser.commands.workspace.\lTell.evaluate">
<polygon fill="white" stroke="black" points="196,-0 196,-30 356,-30 356,-0 196,-0"/>
<text text-anchor="start" x="204" y="-18" font-family="Helvetica,sans-Serif" font-size="10.00">parser.commands.workspace.</text>
<text text-anchor="middle" x="276" y="-7" font-family="Helvetica,sans-Serif" font-size="10.00">Tell.evaluate</text>
</a>
</g>
</g>
<!-- Node1&#45;&gt;Node2 -->
<g id="edge1" class="edge"><title>Node1&#45;&gt;Node2</title>
<path fill="none" stroke="midnightblue" d="M170.436,-15C178.884,-15 187.408,-15 195.752,-15"/>
<polygon fill="midnightblue" stroke="midnightblue" points="170.187,-11.5001 160.187,-15 170.187,-18.5001 170.187,-11.5001"/>
</g>
</g>
</svg>
