<?xml version="1.0" encoding="UTF-8" standalone="no"?>
<!DOCTYPE svg PUBLIC "-//W3C//DTD SVG 1.1//EN"
 "http://www.w3.org/Graphics/SVG/1.1/DTD/svg11.dtd">
<!-- Generated by graphviz version 2.36.0 (20140111.2315)
 -->
<!-- Title: parser.commands.workspace.Tell.evaluate Pages: 1 -->
<svg width="768pt" height="61pt"
 viewBox="0.00 0.00 768.00 61.00" xmlns="http://www.w3.org/2000/svg" xmlns:xlink="http://www.w3.org/1999/xlink">
<g id="graph0" class="graph" transform="scale(1 1) rotate(0) translate(4 57)">
<title>parser.commands.workspace.Tell.evaluate</title>
<polygon fill="white" stroke="none" points="-4,4 -4,-57 764,-57 764,4 -4,4"/>
<!-- Node1 -->
<g id="node1" class="node"><title>Node1</title>
<polygon fill="#bfbfbf" stroke="black" points="0,-1 0,-31 160,-31 160,-1 0,-1"/>
<text text-anchor="start" x="8" y="-19" font-family="Helvetica,sans-Serif" font-size="10.00">parser.commands.workspace.</text>
<text text-anchor="middle" x="80" y="-8" font-family="Helvetica,sans-Serif" font-size="10.00">Tell.evaluate</text>
</g>
<!-- Node2 -->
<g id="node2" class="node"><title>Node2</title>
<g id="a_node2"><a xlink:href="../../de/d96/classparser_1_1commands_1_1workspace_1_1_tell.html#a95838b915534bd40645104c234df15bd" target="_top" xlink:title="parser.commands.workspace.\lTell.checkSyntax">
<polygon fill="white" stroke="black" points="196,-23 196,-53 356,-53 356,-23 196,-23"/>
<text text-anchor="start" x="204" y="-41" font-family="Helvetica,sans-Serif" font-size="10.00">parser.commands.workspace.</text>
<text text-anchor="middle" x="276" y="-30" font-family="Helvetica,sans-Serif" font-size="10.00">Tell.checkSyntax</text>
</a>
</g>
</g>
<!-- Node1&#45;&gt;Node2 -->
<g id="edge1" class="edge"><title>Node1&#45;&gt;Node2</title>
<path fill="none" stroke="midnightblue" d="M160.187,-24.98C168.621,-25.9364 177.241,-26.914 185.781,-27.8823"/>
<polygon fill="midnightblue" stroke="midnightblue" points="185.421,-31.3639 195.752,-29.0131 186.21,-24.4085 185.421,-31.3639"/>
</g>
<!-- Node3 -->
<g id="node3" class="node"><title>Node3</title>
<g id="a_node3"><a xlink:href="../../d3/d36/classparser_1_1nodes_1_1_unary_node.html#a5075c2524d5d8551552e4cb93d4b0aac" target="_top" xlink:title="parser.nodes.UnaryNode.get\lArgument">
<polygon fill="white" stroke="black" points="392.5,-1 392.5,-31 547.5,-31 547.5,-1 392.5,-1"/>
<text text-anchor="start" x="400.5" y="-19" font-family="Helvetica,sans-Serif" font-size="10.00">parser.nodes.UnaryNode.get</text>
<text text-anchor="middle" x="470" y="-8" font-family="Helvetica,sans-Serif" font-size="10.00">Argument</text>
</a>
</g>
</g>
<!-- Node1&#45;&gt;Node3 -->
<g id="edge4" class="edge"><title>Node1&#45;&gt;Node3</title>
<path fill="none" stroke="midnightblue" d="M160.182,-14.4422C172.182,-14.2584 184.419,-14.1007 196,-14 267.108,-13.3817 284.892,-13.3708 356,-14 364.553,-14.0757 373.47,-14.1836 382.379,-14.3105"/>
<polygon fill="midnightblue" stroke="midnightblue" points="382.363,-17.8106 392.414,-14.4613 382.468,-10.8114 382.363,-17.8106"/>
</g>
<!-- Node2&#45;&gt;Node3 -->
<g id="edge2" class="edge"><title>Node2&#45;&gt;Node3</title>
<path fill="none" stroke="midnightblue" d="M356.202,-28.9247C364.815,-27.9379 373.613,-26.9297 382.309,-25.9333"/>
<polygon fill="midnightblue" stroke="midnightblue" points="382.916,-29.3868 392.453,-24.771 382.119,-22.4323 382.916,-29.3868"/>
</g>
<!-- Node4 -->
<g id="node4" class="node"><title>Node4</title>
<g id="a_node4"><a xlink:href="../../d7/d93/classparser_1_1nodes_1_1_parameter_node.html#a2c57eab9997daf1efb840a189c1034c5" target="_top" xlink:title="parser.nodes.ParameterNode.get\lParameter">
<polygon fill="white" stroke="black" points="584,-1 584,-31 760,-31 760,-1 584,-1"/>
<text text-anchor="start" x="592" y="-19" font-family="Helvetica,sans-Serif" font-size="10.00">parser.nodes.ParameterNode.get</text>
<text text-anchor="middle" x="672" y="-8" font-family="Helvetica,sans-Serif" font-size="10.00">Parameter</text>
</a>
</g>
</g>
<!-- Node3&#45;&gt;Node4 -->
<g id="edge3" class="edge"><title>Node3&#45;&gt;Node4</title>
<path fill="none" stroke="midnightblue" d="M547.753,-16C556.225,-16 564.933,-16 573.614,-16"/>
<polygon fill="midnightblue" stroke="midnightblue" points="573.777,-19.5001 583.777,-16 573.777,-12.5001 573.777,-19.5001"/>
</g>
</g>
</svg>
