<?xml version="1.0" encoding="UTF-8" standalone="no"?>
<!DOCTYPE svg PUBLIC "-//W3C//DTD SVG 1.1//EN"
 "http://www.w3.org/Graphics/SVG/1.1/DTD/svg11.dtd">
<!-- Generated by graphviz version 2.36.0 (20140111.2315)
 -->
<!-- Title: parser.nodes.TokenNode Pages: 1 -->
<svg width="341pt" height="140pt"
 viewBox="0.00 0.00 341.00 140.00" xmlns="http://www.w3.org/2000/svg" xmlns:xlink="http://www.w3.org/1999/xlink">
<g id="graph0" class="graph" transform="scale(1 1) rotate(0) translate(4 136)">
<title>parser.nodes.TokenNode</title>
<polygon fill="white" stroke="none" points="-4,4 -4,-136 337,-136 337,4 -4,4"/>
<!-- Node1 -->
<g id="node1" class="node"><title>Node1</title>
<polygon fill="#bfbfbf" stroke="black" points="92,-56.5 92,-75.5 226,-75.5 226,-56.5 92,-56.5"/>
<text text-anchor="middle" x="159" y="-63.5" font-family="Helvetica,sans-Serif" font-size="10.00">parser.nodes.TokenNode</text>
</g>
<!-- Node3 -->
<g id="node3" class="node"><title>Node3</title>
<g id="a_node3"><a xlink:href="../../dd/db0/classparser_1_1nodes_1_1_list_end_node.html" target="_top" xlink:title="parser.nodes.ListEndNode">
<polygon fill="white" stroke="black" points="0,-0.5 0,-19.5 142,-19.5 142,-0.5 0,-0.5"/>
<text text-anchor="middle" x="71" y="-7.5" font-family="Helvetica,sans-Serif" font-size="10.00">parser.nodes.ListEndNode</text>
</a>
</g>
</g>
<!-- Node1&#45;&gt;Node3 -->
<g id="edge2" class="edge"><title>Node1&#45;&gt;Node3</title>
<path fill="none" stroke="midnightblue" d="M136.023,-50.9005C119.887,-40.9986 98.8187,-28.0705 85.1036,-19.6545"/>
<polygon fill="midnightblue" stroke="midnightblue" points="134.507,-54.0769 144.861,-56.324 138.169,-48.1106 134.507,-54.0769"/>
</g>
<!-- Node4 -->
<g id="node4" class="node"><title>Node4</title>
<g id="a_node4"><a xlink:href="../../d9/d13/classparser_1_1nodes_1_1_param_list_end_node.html" target="_top" xlink:title="parser.nodes.ParamListEndNode">
<polygon fill="white" stroke="black" points="160.5,-0.5 160.5,-19.5 333.5,-19.5 333.5,-0.5 160.5,-0.5"/>
<text text-anchor="middle" x="247" y="-7.5" font-family="Helvetica,sans-Serif" font-size="10.00">parser.nodes.ParamListEndNode</text>
</a>
</g>
</g>
<!-- Node1&#45;&gt;Node4 -->
<g id="edge3" class="edge"><title>Node1&#45;&gt;Node4</title>
<path fill="none" stroke="midnightblue" d="M181.977,-50.9005C198.113,-40.9986 219.181,-28.0705 232.896,-19.6545"/>
<polygon fill="midnightblue" stroke="midnightblue" points="179.831,-48.1106 173.139,-56.324 183.493,-54.0769 179.831,-48.1106"/>
</g>
<!-- Node2 -->
<g id="node2" class="node"><title>Node2</title>
<g id="a_node2"><a xlink:href="../../da/d96/classparser_1_1nodes_1_1_syntax_node.html" target="_top" xlink:title="parser.nodes.SyntaxNode">
<polygon fill="white" stroke="black" points="89,-112.5 89,-131.5 229,-131.5 229,-112.5 89,-112.5"/>
<text text-anchor="middle" x="159" y="-119.5" font-family="Helvetica,sans-Serif" font-size="10.00">parser.nodes.SyntaxNode</text>
</a>
</g>
</g>
<!-- Node2&#45;&gt;Node1 -->
<g id="edge1" class="edge"><title>Node2&#45;&gt;Node1</title>
<path fill="none" stroke="midnightblue" d="M159,-101.805C159,-92.9102 159,-82.7798 159,-75.7511"/>
<polygon fill="midnightblue" stroke="midnightblue" points="155.5,-102.083 159,-112.083 162.5,-102.083 155.5,-102.083"/>
</g>
</g>
</svg>
