<?xml version="1.0" encoding="UTF-8" standalone="no"?>
<!DOCTYPE svg PUBLIC "-//W3C//DTD SVG 1.1//EN"
 "http://www.w3.org/Graphics/SVG/1.1/DTD/svg11.dtd">
<!-- Generated by graphviz version 2.36.0 (20140111.2315)
 -->
<!-- Title: parser.Parser Pages: 1 -->
<svg width="523pt" height="232pt"
 viewBox="0.00 0.00 523.00 232.00" xmlns="http://www.w3.org/2000/svg" xmlns:xlink="http://www.w3.org/1999/xlink">
<g id="graph0" class="graph" transform="scale(1 1) rotate(0) translate(4 228)">
<title>parser.Parser</title>
<polygon fill="white" stroke="none" points="-4,4 -4,-228 519,-228 519,4 -4,4"/>
<!-- Node1 -->
<g id="node1" class="node"><title>Node1</title>
<polygon fill="#bfbfbf" stroke="black" points="227,-0.5 227,-19.5 307,-19.5 307,-0.5 227,-0.5"/>
<text text-anchor="middle" x="267" y="-7.5" font-family="Helvetica,sans-Serif" font-size="10.00">parser.Parser</text>
</g>
<!-- Node2 -->
<g id="node2" class="node"><title>Node2</title>
<g id="a_node2"><a xlink:href="../../d7/d0d/classparser_1_1_semantics_checker.html" target="_top" xlink:title="parser.SemanticsChecker">
<polygon fill="white" stroke="black" points="197,-68.5 197,-87.5 337,-87.5 337,-68.5 197,-68.5"/>
<text text-anchor="middle" x="267" y="-75.5" font-family="Helvetica,sans-Serif" font-size="10.00">parser.SemanticsChecker</text>
</a>
</g>
</g>
<!-- Node2&#45;&gt;Node1 -->
<g id="edge1" class="edge"><title>Node2&#45;&gt;Node1</title>
<path fill="none" stroke="#9a32cd" stroke-dasharray="5,2" d="M267,-58.0413C267,-45.4724 267,-29.5631 267,-19.8411"/>
<polygon fill="#9a32cd" stroke="#9a32cd" points="263.5,-58.3716 267,-68.3717 270.5,-58.3717 263.5,-58.3716"/>
<text text-anchor="middle" x="302" y="-41.5" font-family="Helvetica,sans-Serif" font-size="10.00"> mySemantics</text>
</g>
<!-- Node3 -->
<g id="node3" class="node"><title>Node3</title>
<g id="a_node3"><a xlink:href="../../df/daf/classparser_1_1_semantics_table.html" target="_top" xlink:title="parser.SemanticsTable">
<polygon fill="white" stroke="black" points="204.5,-136.5 204.5,-155.5 329.5,-155.5 329.5,-136.5 204.5,-136.5"/>
<text text-anchor="middle" x="267" y="-143.5" font-family="Helvetica,sans-Serif" font-size="10.00">parser.SemanticsTable</text>
</a>
</g>
</g>
<!-- Node3&#45;&gt;Node2 -->
<g id="edge2" class="edge"><title>Node3&#45;&gt;Node2</title>
<path fill="none" stroke="#9a32cd" stroke-dasharray="5,2" d="M267,-126.041C267,-113.472 267,-97.5631 267,-87.8411"/>
<polygon fill="#9a32cd" stroke="#9a32cd" points="263.5,-126.372 267,-136.372 270.5,-126.372 263.5,-126.372"/>
<text text-anchor="middle" x="288.5" y="-109.5" font-family="Helvetica,sans-Serif" font-size="10.00"> myTable</text>
</g>
<!-- Node3&#45;&gt;Node3 -->
<g id="edge5" class="edge"><title>Node3&#45;&gt;Node3</title>
<path fill="none" stroke="#9a32cd" stroke-dasharray="5,2" d="M339.688,-150.475C344.251,-149.422 347,-147.93 347,-146 347,-142.912 339.961,-140.946 329.72,-140.102"/>
<polygon fill="#9a32cd" stroke="#9a32cd" points="339.125,-147.02 329.72,-151.898 340.114,-153.95 339.125,-147.02"/>
<text text-anchor="middle" x="369" y="-143.5" font-family="Helvetica,sans-Serif" font-size="10.00"> instance</text>
</g>
<!-- Node4 -->
<g id="node4" class="node"><title>Node4</title>
<g id="a_node4"><a xlink:href="../../dd/da7/interfaceparser_1_1_i_parser_provider.html" target="_top" xlink:title="parser.IParserProvider">
<polygon fill="white" stroke="black" points="-0.5,-204.5 -0.5,-223.5 120.5,-223.5 120.5,-204.5 -0.5,-204.5"/>
<text text-anchor="middle" x="60" y="-211.5" font-family="Helvetica,sans-Serif" font-size="10.00">parser.IParserProvider</text>
</a>
</g>
</g>
<!-- Node4&#45;&gt;Node3 -->
<g id="edge3" class="edge"><title>Node4&#45;&gt;Node3</title>
<path fill="none" stroke="#9a32cd" stroke-dasharray="5,2" d="M88.7184,-200.537C108.29,-192.33 134.921,-181.716 159,-174 181.454,-166.804 207.035,-160.335 227.662,-155.534"/>
<polygon fill="#9a32cd" stroke="#9a32cd" points="87.2913,-197.341 79.4497,-204.466 90.0228,-203.786 87.2913,-197.341"/>
<text text-anchor="middle" x="187" y="-177.5" font-family="Helvetica,sans-Serif" font-size="10.00"> myContext</text>
</g>
<!-- Node5 -->
<g id="node5" class="node"><title>Node5</title>
<polygon fill="white" stroke="#bfbfbf" points="138.5,-204.5 138.5,-223.5 231.5,-223.5 231.5,-204.5 138.5,-204.5"/>
<text text-anchor="middle" x="185" y="-211.5" font-family="Helvetica,sans-Serif" font-size="10.00">ResourceBundle</text>
</g>
<!-- Node5&#45;&gt;Node3 -->
<g id="edge4" class="edge"><title>Node5&#45;&gt;Node3</title>
<path fill="none" stroke="#9a32cd" stroke-dasharray="5,2" d="M203.517,-198.096C219.786,-185.001 242.894,-166.403 256.277,-155.63"/>
<polygon fill="#9a32cd" stroke="#9a32cd" points="201.316,-195.375 195.72,-204.372 205.705,-200.828 201.316,-195.375"/>
<text text-anchor="middle" x="265" y="-177.5" font-family="Helvetica,sans-Serif" font-size="10.00"> myResource</text>
</g>
<!-- Node6 -->
<g id="node6" class="node"><title>Node6</title>
<polygon fill="white" stroke="#bfbfbf" points="249.5,-204.5 249.5,-223.5 450.5,-223.5 450.5,-204.5 249.5,-204.5"/>
<text text-anchor="middle" x="350" y="-211.5" font-family="Helvetica,sans-Serif" font-size="10.00">List&lt; parser.nodes.NodeInformation &gt;</text>
</g>
<!-- Node6&#45;&gt;Node3 -->
<g id="edge6" class="edge"><title>Node6&#45;&gt;Node3</title>
<path fill="none" stroke="#9a32cd" stroke-dasharray="5,2" d="M331.257,-198.096C314.789,-185.001 291.4,-166.403 277.853,-155.63"/>
<polygon fill="#9a32cd" stroke="#9a32cd" points="329.144,-200.887 339.149,-204.372 333.501,-195.408 329.144,-200.887"/>
<text text-anchor="middle" x="346.5" y="-177.5" font-family="Helvetica,sans-Serif" font-size="10.00"> myNodeList</text>
</g>
<!-- Node7 -->
<g id="node7" class="node"><title>Node7</title>
<polygon fill="white" stroke="#bfbfbf" points="468.5,-204.5 468.5,-223.5 515.5,-223.5 515.5,-204.5 468.5,-204.5"/>
<text text-anchor="middle" x="492" y="-211.5" font-family="Helvetica,sans-Serif" font-size="10.00">Locale</text>
</g>
<!-- Node7&#45;&gt;Node3 -->
<g id="edge7" class="edge"><title>Node7&#45;&gt;Node3</title>
<path fill="none" stroke="#9a32cd" stroke-dasharray="5,2" d="M460.175,-200.815C438.14,-192.626 408.026,-181.924 381,-174 356.896,-166.932 329.517,-160.4 307.633,-155.532"/>
<polygon fill="#9a32cd" stroke="#9a32cd" points="459.099,-204.149 469.691,-204.381 461.555,-197.594 459.099,-204.149"/>
<text text-anchor="middle" x="461.5" y="-177.5" font-family="Helvetica,sans-Serif" font-size="10.00"> DEFAULT_REGION</text>
</g>
</g>
</svg>
