<?xml version="1.0" encoding="UTF-8" standalone="no"?>
<!DOCTYPE svg PUBLIC "-//W3C//DTD SVG 1.1//EN"
 "http://www.w3.org/Graphics/SVG/1.1/DTD/svg11.dtd">
<!-- Generated by graphviz version 2.36.0 (20140111.2315)
 -->
<!-- Title: view.Location Pages: 1 -->
<svg width="198pt" height="96pt"
 viewBox="0.00 0.00 198.00 96.00" xmlns="http://www.w3.org/2000/svg" xmlns:xlink="http://www.w3.org/1999/xlink">
<g id="graph0" class="graph" transform="scale(1 1) rotate(0) translate(4 92)">
<title>view.Location</title>
<polygon fill="white" stroke="none" points="-4,4 -4,-92 194,-92 194,4 -4,4"/>
<!-- Node1 -->
<g id="node1" class="node"><title>Node1</title>
<polygon fill="#bfbfbf" stroke="black" points="23,-0.5 23,-19.5 103,-19.5 103,-0.5 23,-0.5"/>
<text text-anchor="middle" x="63" y="-7.5" font-family="Helvetica,sans-Serif" font-size="10.00">view.Location</text>
</g>
<!-- Node2 -->
<g id="node2" class="node"><title>Node2</title>
<polygon fill="white" stroke="#bfbfbf" points="0,-68.5 0,-87.5 50,-87.5 50,-68.5 0,-68.5"/>
<text text-anchor="middle" x="25" y="-75.5" font-family="Helvetica,sans-Serif" font-size="10.00">Double</text>
</g>
<!-- Node2&#45;&gt;Node1 -->
<g id="edge1" class="edge"><title>Node2&#45;&gt;Node1</title>
<path fill="none" stroke="midnightblue" d="M35.0395,-59.563C42.3985,-46.7815 52.0837,-29.9599 57.9097,-19.8411"/>
<polygon fill="midnightblue" stroke="midnightblue" points="31.9243,-57.959 29.9678,-68.3717 37.9907,-61.4518 31.9243,-57.959"/>
</g>
<!-- Node3 -->
<g id="node3" class="node"><title>Node3</title>
<polygon fill="white" stroke="#bfbfbf" points="68,-68.5 68,-87.5 136,-87.5 136,-68.5 68,-68.5"/>
<text text-anchor="middle" x="102" y="-75.5" font-family="Helvetica,sans-Serif" font-size="10.00">Dimension</text>
</g>
<!-- Node3&#45;&gt;Node1 -->
<g id="edge2" class="edge"><title>Node3&#45;&gt;Node1</title>
<path fill="none" stroke="#9a32cd" stroke-dasharray="5,2" d="M91.6963,-59.563C84.1436,-46.7815 74.2036,-29.9599 68.2243,-19.8411"/>
<polygon fill="#9a32cd" stroke="#9a32cd" points="88.8008,-61.5429 96.9014,-68.3717 94.8273,-57.9818 88.8008,-61.5429"/>
<text text-anchor="middle" x="137.5" y="-41.5" font-family="Helvetica,sans-Serif" font-size="10.00"> myCanvasDimension</text>
</g>
</g>
</svg>
