<?xml version="1.0" encoding="UTF-8" standalone="no"?>
<!DOCTYPE svg PUBLIC "-//W3C//DTD SVG 1.1//EN"
 "http://www.w3.org/Graphics/SVG/1.1/DTD/svg11.dtd">
<!-- Generated by graphviz version 2.36.0 (20140111.2315)
 -->
<!-- Title: view.windows.VariablesWindow Pages: 1 -->
<!--zoomable 307 -->
<svg id="main" version="1.1" xmlns="http://www.w3.org/2000/svg" xmlns:xlink="http://www.w3.org/1999/xlink" xml:space="preserve" onload="init(evt)">
<style type="text/css"><![CDATA[
.edge:hover path { stroke: red; }
.edge:hover polygon { stroke: red; fill: red; }
]]></style>
<script type="text/javascript"><![CDATA[
var edges = document.getElementsByTagName('g');
if (edges && edges.length) {
  for (var i=0;i<edges.length;i++) {
    if (edges[i].id.substr(0,4)=='edge') {
      edges[i].setAttribute('class','edge');
    }
  }
}
]]></script>
        <defs>
                <circle id="rim" cx="0" cy="0" r="7"/>
                <circle id="rim2" cx="0" cy="0" r="3.5"/>
                <g id="zoomPlus">
                        <use xlink:href="#rim" fill="#404040">
                                <set attributeName="fill" to="#808080" begin="zoomplus.mouseover" end="zoomplus.mouseout"/>
                        </use>
                        <path d="M-4,0h8M0,-4v8" fill="none" stroke="white" stroke-width="1.5" pointer-events="none"/>
                </g>
                <g id="zoomMin">
                        <use xlink:href="#rim" fill="#404040">
                                <set attributeName="fill" to="#808080" begin="zoomminus.mouseover" end="zoomminus.mouseout"/>
                        </use>
                        <path d="M-4,0h8" fill="none" stroke="white" stroke-width="1.5" pointer-events="none"/>
                </g>
                <g id="dirArrow">
                        <path fill="none" stroke="white" stroke-width="1.5" d="M0,-3.0v7 M-2.5,-0.5L0,-3.0L2.5,-0.5"/>
                </g>
               <g id="resetDef">
                       <use xlink:href="#rim2" fill="#404040">
                               <set attributeName="fill" to="#808080" begin="reset.mouseover" end="reset.mouseout"/>
                       </use>
               </g>
        </defs>

<script type="text/javascript">
var viewWidth = 998;
var viewHeight = 307;
var sectionId = 'dynsection-1';
</script>
<script xlink:href="../../svgpan.js"/>
<svg id="graph" class="graph">
<g id="viewport">
<title>view.windows.VariablesWindow</title>
<polygon fill="white" stroke="none" points="-4,4 -4,-302.729 994,-302.729 994,4 -4,4"/>
<!-- Node1 -->
<g id="node1" class="node"><title>Node1</title>
<polygon fill="#bfbfbf" stroke="black" points="830,-152.5 830,-171.5 990,-171.5 990,-152.5 830,-152.5"/>
<text text-anchor="middle" x="910" y="-159.5" font-family="Helvetica,sans-Serif" font-size="10.00">view.windows.VariablesWindow</text>
</g>
<!-- Node2 -->
<g id="node2" class="node"><title>Node2</title>
<polygon fill="white" stroke="#bfbfbf" points="597,-276.5 597,-295.5 641,-295.5 641,-276.5 597,-276.5"/>
<text text-anchor="middle" x="619" y="-283.5" font-family="Helvetica,sans-Serif" font-size="10.00">JPanel</text>
</g>
<!-- Node2&#45;&gt;Node1 -->
<g id="edge1" class="edge"><title>Node2&#45;&gt;Node1</title>
<path fill="none" stroke="midnightblue" d="M651.108,-292.541C690.715,-299.246 760.215,-305.464 812,-280 860.548,-256.128 893.318,-195.371 904.629,-171.673"/>
<polygon fill="midnightblue" stroke="midnightblue" points="651.704,-289.092 641.24,-290.754 650.456,-295.98 651.704,-289.092"/>
</g>
<!-- Node2&#45;&gt;Node1 -->
<g id="edge15" class="edge"><title>Node2&#45;&gt;Node1</title>
<path fill="none" stroke="#9a32cd" stroke-dasharray="5,2" d="M650.857,-274.572C668.623,-268.167 691.438,-260.238 712,-254 755.944,-240.668 770.18,-246.973 812,-228 845.759,-212.684 880.544,-185.787 897.833,-171.517"/>
<polygon fill="#9a32cd" stroke="#9a32cd" points="649.238,-271.436 641.036,-278.142 651.63,-278.015 649.238,-271.436"/>
<text text-anchor="middle" x="762" y="-268" font-family="Helvetica,sans-Serif" font-size="10.00"> myCardsPanel</text>
<text text-anchor="middle" x="762" y="-257" font-family="Helvetica,sans-Serif" font-size="10.00">myButtonsPanel</text>
</g>
<!-- Node3 -->
<g id="node3" class="node"><title>Node3</title>
<polygon fill="white" stroke="#bfbfbf" points="589,-228.5 589,-247.5 649,-247.5 649,-228.5 589,-228.5"/>
<text text-anchor="middle" x="619" y="-235.5" font-family="Helvetica,sans-Serif" font-size="10.00">Observer</text>
</g>
<!-- Node3&#45;&gt;Node1 -->
<g id="edge2" class="edge"><title>Node3&#45;&gt;Node1</title>
<path fill="none" stroke="midnightblue" d="M659.036,-233.442C698.252,-228.269 760.142,-218.481 812,-203 839.855,-194.684 870.527,-180.882 889.772,-171.617"/>
<polygon fill="midnightblue" stroke="midnightblue" points="658.562,-229.974 649.09,-234.718 659.454,-236.917 658.562,-229.974"/>
</g>
<!-- Node4 -->
<g id="node4" class="node"><title>Node4</title>
<g id="a_node4"><a xlink:href="../../dc/d3c/interfacecontroller_1_1support_1_1_i_error.html" target="_top" xlink:title="controller.support.IError">
<polygon fill="white" stroke="black" points="554.5,-190.5 554.5,-209.5 683.5,-209.5 683.5,-190.5 554.5,-190.5"/>
<text text-anchor="middle" x="619" y="-197.5" font-family="Helvetica,sans-Serif" font-size="10.00">controller.support.IError</text>
</a>
</g>
</g>
<!-- Node4&#45;&gt;Node1 -->
<g id="edge3" class="edge"><title>Node4&#45;&gt;Node1</title>
<path fill="none" stroke="#9a32cd" stroke-dasharray="5,2" d="M693.935,-191.091C729.629,-186.705 773.063,-181.243 812,-176 822.455,-174.592 833.535,-173.045 844.325,-171.509"/>
<polygon fill="#9a32cd" stroke="#9a32cd" points="693.102,-187.667 683.602,-192.357 693.954,-194.615 693.102,-187.667"/>
<text text-anchor="middle" x="762" y="-191" font-family="Helvetica,sans-Serif" font-size="10.00"> myErrorNotifier</text>
</g>
<!-- Node5 -->
<g id="node5" class="node"><title>Node5</title>
<polygon fill="white" stroke="#bfbfbf" points="572.5,-152.5 572.5,-171.5 665.5,-171.5 665.5,-152.5 572.5,-152.5"/>
<text text-anchor="middle" x="619" y="-159.5" font-family="Helvetica,sans-Serif" font-size="10.00">ResourceBundle</text>
</g>
<!-- Node5&#45;&gt;Node1 -->
<g id="edge4" class="edge"><title>Node5&#45;&gt;Node1</title>
<path fill="none" stroke="#9a32cd" stroke-dasharray="5,2" d="M675.963,-162C719.725,-162 781.117,-162 829.903,-162"/>
<polygon fill="#9a32cd" stroke="#9a32cd" points="675.793,-158.5 665.793,-162 675.793,-165.5 675.793,-158.5"/>
<text text-anchor="middle" x="762" y="-165" font-family="Helvetica,sans-Serif" font-size="10.00"> myResource</text>
</g>
<!-- Node6 -->
<g id="node6" class="node"><title>Node6</title>
<g id="a_node6"><a xlink:href="../../df/d37/classview_1_1components_1_1_logo_table.html" target="_top" xlink:title="view.components.LogoTable">
<polygon fill="white" stroke="black" points="544.5,-114.5 544.5,-133.5 693.5,-133.5 693.5,-114.5 544.5,-114.5"/>
<text text-anchor="middle" x="619" y="-121.5" font-family="Helvetica,sans-Serif" font-size="10.00">view.components.LogoTable</text>
</a>
</g>
</g>
<!-- Node6&#45;&gt;Node1 -->
<g id="edge5" class="edge"><title>Node6&#45;&gt;Node1</title>
<path fill="none" stroke="#9a32cd" stroke-dasharray="5,2" d="M704.164,-133.451C737.744,-137.386 776.734,-142.162 812,-147 824.155,-148.667 837.146,-150.583 849.541,-152.476"/>
<polygon fill="#9a32cd" stroke="#9a32cd" points="704.265,-129.939 693.927,-132.258 703.454,-136.892 704.265,-129.939"/>
<text text-anchor="middle" x="762" y="-150" font-family="Helvetica,sans-Serif" font-size="10.00"> myTable</text>
</g>
<!-- Node7 -->
<g id="node7" class="node"><title>Node7</title>
<polygon fill="white" stroke="#bfbfbf" points="290.5,-190.5 290.5,-209.5 333.5,-209.5 333.5,-190.5 290.5,-190.5"/>
<text text-anchor="middle" x="312" y="-197.5" font-family="Helvetica,sans-Serif" font-size="10.00">JTable</text>
</g>
<!-- Node7&#45;&gt;Node6 -->
<g id="edge6" class="edge"><title>Node7&#45;&gt;Node6</title>
<path fill="none" stroke="midnightblue" d="M343.719,-201.864C387.34,-203.087 468.328,-199.986 526,-166 537.183,-159.41 533.135,-150.103 544,-143 549.884,-139.153 556.503,-136.085 563.301,-133.637"/>
<polygon fill="midnightblue" stroke="midnightblue" points="343.85,-198.366 333.725,-201.488 343.587,-205.362 343.85,-198.366"/>
</g>
<!-- Node8 -->
<g id="node8" class="node"><title>Node8</title>
<polygon fill="white" stroke="#bfbfbf" points="269,-152.5 269,-171.5 355,-171.5 355,-152.5 269,-152.5"/>
<text text-anchor="middle" x="312" y="-159.5" font-family="Helvetica,sans-Serif" font-size="10.00">TableCellEditor</text>
</g>
<!-- Node8&#45;&gt;Node6 -->
<g id="edge7" class="edge"><title>Node8&#45;&gt;Node6</title>
<path fill="none" stroke="#9a32cd" stroke-dasharray="5,2" d="M365.103,-157.167C408.285,-152.972 471.234,-146.416 526,-139 537.867,-137.393 550.561,-135.462 562.612,-133.528"/>
<polygon fill="#9a32cd" stroke="#9a32cd" points="364.731,-153.687 355.113,-158.13 365.402,-160.655 364.731,-153.687"/>
<text text-anchor="middle" x="471" y="-154" font-family="Helvetica,sans-Serif" font-size="10.00"> myComboEditor</text>
</g>
<!-- Node9 -->
<g id="node9" class="node"><title>Node9</title>
<polygon fill="white" stroke="#bfbfbf" points="276.5,-114.5 276.5,-133.5 347.5,-133.5 347.5,-114.5 276.5,-114.5"/>
<text text-anchor="middle" x="312" y="-121.5" font-family="Helvetica,sans-Serif" font-size="10.00">JComboBox</text>
</g>
<!-- Node9&#45;&gt;Node6 -->
<g id="edge8" class="edge"><title>Node9&#45;&gt;Node6</title>
<path fill="none" stroke="#9a32cd" stroke-dasharray="5,2" d="M357.968,-124C406.96,-124 486.099,-124 544.22,-124"/>
<polygon fill="#9a32cd" stroke="#9a32cd" points="357.69,-120.5 347.69,-124 357.69,-127.5 357.69,-120.5"/>
<text text-anchor="middle" x="471" y="-127" font-family="Helvetica,sans-Serif" font-size="10.00"> myEditableComboBox</text>
</g>
<!-- Node10 -->
<g id="node10" class="node"><title>Node10</title>
<g id="a_node10"><a xlink:href="../../db/d29/classparser_1_1_variable_manager.html" target="_top" xlink:title="parser.VariableManager">
<polygon fill="white" stroke="black" points="554,-76.5 554,-95.5 684,-95.5 684,-76.5 554,-76.5"/>
<text text-anchor="middle" x="619" y="-83.5" font-family="Helvetica,sans-Serif" font-size="10.00">parser.VariableManager</text>
</a>
</g>
</g>
<!-- Node10&#45;&gt;Node1 -->
<g id="edge9" class="edge"><title>Node10&#45;&gt;Node1</title>
<path fill="none" stroke="#9a32cd" stroke-dasharray="5,2" d="M694.004,-94.3675C730.086,-99.5422 773.827,-107.453 812,-119 840.563,-127.64 871.82,-142.565 890.923,-152.36"/>
<polygon fill="#9a32cd" stroke="#9a32cd" points="694.428,-90.8929 684.041,-92.9797 693.463,-97.8259 694.428,-90.8929"/>
<text text-anchor="middle" x="762" y="-122" font-family="Helvetica,sans-Serif" font-size="10.00"> myVariableManager</text>
</g>
<!-- Node11 -->
<g id="node11" class="node"><title>Node11</title>
<polygon fill="white" stroke="#bfbfbf" points="226,-76.5 226,-95.5 398,-95.5 398,-76.5 226,-76.5"/>
<text text-anchor="middle" x="312" y="-83.5" font-family="Helvetica,sans-Serif" font-size="10.00">Deque&lt; parser.VariableScope &gt;</text>
</g>
<!-- Node11&#45;&gt;Node10 -->
<g id="edge10" class="edge"><title>Node11&#45;&gt;Node10</title>
<path fill="none" stroke="#9a32cd" stroke-dasharray="5,2" d="M408.64,-86C455.984,-86 511.86,-86 553.975,-86"/>
<polygon fill="#9a32cd" stroke="#9a32cd" points="408.365,-82.5001 398.365,-86 408.365,-89.5001 408.365,-82.5001"/>
<text text-anchor="middle" x="471" y="-89" font-family="Helvetica,sans-Serif" font-size="10.00"> myScopes</text>
</g>
<!-- Node12 -->
<g id="node12" class="node"><title>Node12</title>
<g id="a_node12"><a xlink:href="../../da/d34/classparser_1_1_variable_scope.html" target="_top" xlink:title="parser.VariableScope">
<polygon fill="white" stroke="black" points="253,-38.5 253,-57.5 371,-57.5 371,-38.5 253,-38.5"/>
<text text-anchor="middle" x="312" y="-45.5" font-family="Helvetica,sans-Serif" font-size="10.00">parser.VariableScope</text>
</a>
</g>
</g>
<!-- Node12&#45;&gt;Node10 -->
<g id="edge11" class="edge"><title>Node12&#45;&gt;Node10</title>
<path fill="none" stroke="#9a32cd" stroke-dasharray="5,2" d="M381.488,-54.4459C423.305,-58.6173 477.819,-64.4757 526,-71 537.867,-72.607 550.561,-74.5382 562.612,-76.4721"/>
<polygon fill="#9a32cd" stroke="#9a32cd" points="381.71,-50.9509 371.414,-53.4491 381.021,-57.9169 381.71,-50.9509"/>
<text text-anchor="middle" x="471" y="-74" font-family="Helvetica,sans-Serif" font-size="10.00"> myGlobal</text>
</g>
<!-- Node13 -->
<g id="node13" class="node"><title>Node13</title>
<polygon fill="white" stroke="#bfbfbf" points="0,-38.5 0,-57.5 128,-57.5 128,-38.5 0,-38.5"/>
<text text-anchor="middle" x="64" y="-45.5" font-family="Helvetica,sans-Serif" font-size="10.00">Map&lt; String, Integer &gt;</text>
</g>
<!-- Node13&#45;&gt;Node12 -->
<g id="edge12" class="edge"><title>Node13&#45;&gt;Node12</title>
<path fill="none" stroke="#9a32cd" stroke-dasharray="5,2" d="M138.156,-48C174.769,-48 218.473,-48 252.773,-48"/>
<polygon fill="#9a32cd" stroke="#9a32cd" points="138.032,-44.5001 128.032,-48 138.032,-51.5001 138.032,-44.5001"/>
<text text-anchor="middle" x="177" y="-51" font-family="Helvetica,sans-Serif" font-size="10.00"> myVariables</text>
</g>
<!-- Node14 -->
<g id="node14" class="node"><title>Node14</title>
<polygon fill="white" stroke="#bfbfbf" points="567,-38.5 567,-57.5 671,-57.5 671,-38.5 567,-38.5"/>
<text text-anchor="middle" x="619" y="-45.5" font-family="Helvetica,sans-Serif" font-size="10.00">DefaultTableModel</text>
</g>
<!-- Node14&#45;&gt;Node1 -->
<g id="edge13" class="edge"><title>Node14&#45;&gt;Node1</title>
<path fill="none" stroke="#9a32cd" stroke-dasharray="5,2" d="M681.173,-50.8506C720.122,-54.5615 770.807,-62.9855 812,-82 849.657,-99.3822 884.848,-135.03 900.491,-152.256"/>
<polygon fill="#9a32cd" stroke="#9a32cd" points="681.295,-47.348 671.028,-49.9645 680.686,-54.3215 681.295,-47.348"/>
<text text-anchor="middle" x="762" y="-85" font-family="Helvetica,sans-Serif" font-size="10.00"> myModel</text>
</g>
<!-- Node15 -->
<g id="node15" class="node"><title>Node15</title>
<polygon fill="white" stroke="#bfbfbf" points="585,-0.5 585,-19.5 653,-19.5 653,-0.5 585,-0.5"/>
<text text-anchor="middle" x="619" y="-7.5" font-family="Helvetica,sans-Serif" font-size="10.00">Dimension</text>
</g>
<!-- Node15&#45;&gt;Node1 -->
<g id="edge14" class="edge"><title>Node15&#45;&gt;Node1</title>
<path fill="none" stroke="#9a32cd" stroke-dasharray="5,2" d="M663.514,-8.03704C704.498,-8.12143 766.264,-13.3847 812,-40 859.711,-67.7644 892.978,-128.75 904.525,-152.381"/>
<polygon fill="#9a32cd" stroke="#9a32cd" points="663.278,-4.53879 653.307,-8.12207 663.336,-11.5385 663.278,-4.53879"/>
<text text-anchor="middle" x="762" y="-43" font-family="Helvetica,sans-Serif" font-size="10.00"> TABLE_DIMENSION</text>
</g>
</g>
</svg>
        <g id="navigator" transform="translate(0 0)" fill="#404254">
                <rect fill="#f2f5e9" fill-opacity="0.5" stroke="#606060" stroke-width=".5" x="0" y="0" width="60" height="60"/>
                <use id="zoomplus" xlink:href="#zoomPlus" x="17" y="9" onmousedown="handleZoom(evt,'in')"/>
                <use id="zoomminus" xlink:href="#zoomMin" x="42" y="9" onmousedown="handleZoom(evt,'out')"/>
                <use id="reset" xlink:href="#resetDef" x="30" y="36" onmousedown="handleReset()"/>
                <g id="arrowUp" xlink:href="#dirArrow" transform="translate(30 24)" onmousedown="handlePan(0,-1)">
                  <use xlink:href="#rim" fill="#404040">
                        <set attributeName="fill" to="#808080" begin="arrowUp.mouseover" end="arrowUp.mouseout"/>
                  </use>
                  <path fill="none" stroke="white" stroke-width="1.5" d="M0,-3.0v7 M-2.5,-0.5L0,-3.0L2.5,-0.5"/>
                </g>
                <g id="arrowRight" xlink:href="#dirArrow" transform="rotate(90) translate(36 -43)" onmousedown="handlePan(1,0)">
                  <use xlink:href="#rim" fill="#404040">
                        <set attributeName="fill" to="#808080" begin="arrowRight.mouseover" end="arrowRight.mouseout"/>
                  </use>
                  <path fill="none" stroke="white" stroke-width="1.5" d="M0,-3.0v7 M-2.5,-0.5L0,-3.0L2.5,-0.5"/>
                </g>
                <g id="arrowDown" xlink:href="#dirArrow" transform="rotate(180) translate(-30 -48)" onmousedown="handlePan(0,1)">
                  <use xlink:href="#rim" fill="#404040">
                        <set attributeName="fill" to="#808080" begin="arrowDown.mouseover" end="arrowDown.mouseout"/>
                  </use>
                  <path fill="none" stroke="white" stroke-width="1.5" d="M0,-3.0v7 M-2.5,-0.5L0,-3.0L2.5,-0.5"/>
                </g>
                <g id="arrowLeft" xlink:href="#dirArrow" transform="rotate(270) translate(-36 17)" onmousedown="handlePan(-1,0)">
                  <use xlink:href="#rim" fill="#404040">
                        <set attributeName="fill" to="#808080" begin="arrowLeft.mouseover" end="arrowLeft.mouseout"/>
                  </use>
                  <path fill="none" stroke="white" stroke-width="1.5" d="M0,-3.0v7 M-2.5,-0.5L0,-3.0L2.5,-0.5"/>
                </g>
        </g>
        <svg viewBox="0 0 15 15" width="100%" height="30px" preserveAspectRatio="xMaxYMin meet">
         <g id="arrow_out" transform="scale(0.3 0.3)">
          <a xlink:href="classview_1_1windows_1_1_variables_window__coll__graph_org.svg" target="_base">
           <rect id="button" ry="5" rx="5" y="6" x="6" height="38" width="38"
                fill="#f2f5e9" fill-opacity="0.5" stroke="#606060" stroke-width="1.0"/>
           <path id="arrow"
             d="M 11.500037,31.436501 C 11.940474,20.09759 22.043105,11.32322 32.158766,21.979434 L 37.068811,17.246167 C 37.068811,17.246167 37.088388,32 37.088388,32 L 22.160133,31.978069 C 22.160133,31.978069 26.997745,27.140456 26.997745,27.140456 C 18.528582,18.264221 13.291696,25.230495 11.500037,31.436501 z"
             style="fill:#404040;"/>
          </a>
         </g>
        </svg>
</svg>
