<?xml version="1.0" encoding="UTF-8" standalone="no"?>
<!DOCTYPE svg PUBLIC "-//W3C//DTD SVG 1.1//EN"
 "http://www.w3.org/Graphics/SVG/1.1/DTD/svg11.dtd">
<!-- Generated by graphviz version 2.36.0 (20140111.2315)
 -->
<!-- Title: parser.commands.other.Make.evaluate Pages: 1 -->
<svg width="654pt" height="153pt"
 viewBox="0.00 0.00 654.00 153.00" xmlns="http://www.w3.org/2000/svg" xmlns:xlink="http://www.w3.org/1999/xlink">
<g id="graph0" class="graph" transform="scale(1 1) rotate(0) translate(4 149)">
<title>parser.commands.other.Make.evaluate</title>
<polygon fill="white" stroke="none" points="-4,4 -4,-149 650,-149 650,4 -4,4"/>
<!-- Node1 -->
<g id="node1" class="node"><title>Node1</title>
<polygon fill="#bfbfbf" stroke="black" points="0,-68.5 0,-87.5 204,-87.5 204,-68.5 0,-68.5"/>
<text text-anchor="middle" x="102" y="-75.5" font-family="Helvetica,sans-Serif" font-size="10.00">parser.commands.other.Make.evaluate</text>
</g>
<!-- Node2 -->
<g id="node2" class="node"><title>Node2</title>
<g id="a_node2"><a xlink:href="../../da/d96/classparser_1_1nodes_1_1_syntax_node.html#a669c370adce66a1960835323a90b9adb" target="_top" xlink:title="parser.nodes.SyntaxNode.evaluate">
<polygon fill="white" stroke="black" points="244.5,-125.5 244.5,-144.5 429.5,-144.5 429.5,-125.5 244.5,-125.5"/>
<text text-anchor="middle" x="337" y="-132.5" font-family="Helvetica,sans-Serif" font-size="10.00">parser.nodes.SyntaxNode.evaluate</text>
</a>
</g>
</g>
<!-- Node1&#45;&gt;Node2 -->
<g id="edge1" class="edge"><title>Node1&#45;&gt;Node2</title>
<path fill="none" stroke="midnightblue" d="M134.66,-87.5105C162.315,-95.643 203.616,-107.366 240,-116 250.996,-118.609 262.758,-121.145 274.147,-123.47"/>
<polygon fill="midnightblue" stroke="midnightblue" points="273.537,-126.917 284.031,-125.455 274.916,-120.054 273.537,-126.917"/>
</g>
<!-- Node3 -->
<g id="node3" class="node"><title>Node3</title>
<g id="a_node3"><a xlink:href="../../db/d11/classparser_1_1nodes_1_1_binary_node.html#a555930c71203ce7c05e1290f069b19a1" target="_top" xlink:title="parser.nodes.BinaryNode.getLeft">
<polygon fill="white" stroke="black" points="250,-87.5 250,-106.5 424,-106.5 424,-87.5 250,-87.5"/>
<text text-anchor="middle" x="337" y="-94.5" font-family="Helvetica,sans-Serif" font-size="10.00">parser.nodes.BinaryNode.getLeft</text>
</a>
</g>
</g>
<!-- Node1&#45;&gt;Node3 -->
<g id="edge2" class="edge"><title>Node1&#45;&gt;Node3</title>
<path fill="none" stroke="midnightblue" d="M204.181,-86.2508C215.959,-87.2113 227.95,-88.1891 239.661,-89.144"/>
<polygon fill="midnightblue" stroke="midnightblue" points="239.616,-92.6519 249.868,-89.9763 240.185,-85.6751 239.616,-92.6519"/>
</g>
<!-- Node5 -->
<g id="node5" class="node"><title>Node5</title>
<g id="a_node5"><a xlink:href="../../d4/d75/classparser_1_1nodes_1_1_variable_node.html#adf64e8f71cf1e4be7914c1e8f3f70a67" target="_top" xlink:title="parser.nodes.VariableNode.getName">
<polygon fill="white" stroke="black" points="240,-49.5 240,-68.5 434,-68.5 434,-49.5 240,-49.5"/>
<text text-anchor="middle" x="337" y="-56.5" font-family="Helvetica,sans-Serif" font-size="10.00">parser.nodes.VariableNode.getName</text>
</a>
</g>
</g>
<!-- Node1&#45;&gt;Node5 -->
<g id="edge4" class="edge"><title>Node1&#45;&gt;Node5</title>
<path fill="none" stroke="midnightblue" d="M204.181,-69.7492C212.563,-69.0657 221.052,-68.3734 229.472,-67.6868"/>
<polygon fill="midnightblue" stroke="midnightblue" points="230.013,-71.1544 239.695,-66.8532 229.444,-64.1776 230.013,-71.1544"/>
</g>
<!-- Node6 -->
<g id="node6" class="node"><title>Node6</title>
<g id="a_node6"><a xlink:href="../../db/d11/classparser_1_1nodes_1_1_binary_node.html#a9c33799a377e3c277de0fc9138a2cb81" target="_top" xlink:title="parser.nodes.BinaryNode.get\lRight">
<polygon fill="white" stroke="black" points="259,-0 259,-30 415,-30 415,-0 259,-0"/>
<text text-anchor="start" x="267" y="-18" font-family="Helvetica,sans-Serif" font-size="10.00">parser.nodes.BinaryNode.get</text>
<text text-anchor="middle" x="337" y="-7" font-family="Helvetica,sans-Serif" font-size="10.00">Right</text>
</a>
</g>
</g>
<!-- Node1&#45;&gt;Node6 -->
<g id="edge5" class="edge"><title>Node1&#45;&gt;Node6</title>
<path fill="none" stroke="midnightblue" d="M136.74,-68.4814C164.445,-60.7039 204.723,-49.4853 240,-40 249.011,-37.5771 258.508,-35.06 267.881,-32.5971"/>
<polygon fill="midnightblue" stroke="midnightblue" points="268.793,-35.9765 277.579,-30.0563 267.019,-29.2051 268.793,-35.9765"/>
</g>
<!-- Node4 -->
<g id="node4" class="node"><title>Node4</title>
<g id="a_node4"><a xlink:href="../../d7/d93/classparser_1_1nodes_1_1_parameter_node.html#a2c57eab9997daf1efb840a189c1034c5" target="_top" xlink:title="parser.nodes.ParameterNode.get\lParameter">
<polygon fill="white" stroke="black" points="470,-41 470,-71 646,-71 646,-41 470,-41"/>
<text text-anchor="start" x="478" y="-59" font-family="Helvetica,sans-Serif" font-size="10.00">parser.nodes.ParameterNode.get</text>
<text text-anchor="middle" x="558" y="-48" font-family="Helvetica,sans-Serif" font-size="10.00">Parameter</text>
</a>
</g>
</g>
<!-- Node3&#45;&gt;Node4 -->
<g id="edge3" class="edge"><title>Node3&#45;&gt;Node4</title>
<path fill="none" stroke="midnightblue" d="M388.793,-87.4907C411.874,-83.1696 439.896,-77.9236 466.395,-72.9626"/>
<polygon fill="midnightblue" stroke="midnightblue" points="467.278,-76.3582 476.463,-71.0777 465.99,-69.4777 467.278,-76.3582"/>
</g>
<!-- Node6&#45;&gt;Node4 -->
<g id="edge6" class="edge"><title>Node6&#45;&gt;Node4</title>
<path fill="none" stroke="midnightblue" d="M415.211,-29.4551C431.888,-32.5772 449.662,-35.9048 466.787,-39.1107"/>
<polygon fill="midnightblue" stroke="midnightblue" points="466.308,-42.5818 476.781,-40.9818 467.596,-35.7013 466.308,-42.5818"/>
</g>
</g>
</svg>
