<?xml version="1.0" encoding="UTF-8" standalone="no"?>
<!DOCTYPE svg PUBLIC "-//W3C//DTD SVG 1.1//EN"
 "http://www.w3.org/Graphics/SVG/1.1/DTD/svg11.dtd">
<!-- Generated by graphviz version 2.36.0 (20140111.2315)
 -->
<!-- Title: parser.nodes.BinaryNode Pages: 1 -->
<!--zoomable 866 -->
<svg id="main" version="1.1" xmlns="http://www.w3.org/2000/svg" xmlns:xlink="http://www.w3.org/1999/xlink" xml:space="preserve" onload="init(evt)">
<style type="text/css"><![CDATA[
.edge:hover path { stroke: red; }
.edge:hover polygon { stroke: red; fill: red; }
]]></style>
<script type="text/javascript"><![CDATA[
var edges = document.getElementsByTagName('g');
if (edges && edges.length) {
  for (var i=0;i<edges.length;i++) {
    if (edges[i].id.substr(0,4)=='edge') {
      edges[i].setAttribute('class','edge');
    }
  }
}
]]></script>
        <defs>
                <circle id="rim" cx="0" cy="0" r="7"/>
                <circle id="rim2" cx="0" cy="0" r="3.5"/>
                <g id="zoomPlus">
                        <use xlink:href="#rim" fill="#404040">
                                <set attributeName="fill" to="#808080" begin="zoomplus.mouseover" end="zoomplus.mouseout"/>
                        </use>
                        <path d="M-4,0h8M0,-4v8" fill="none" stroke="white" stroke-width="1.5" pointer-events="none"/>
                </g>
                <g id="zoomMin">
                        <use xlink:href="#rim" fill="#404040">
                                <set attributeName="fill" to="#808080" begin="zoomminus.mouseover" end="zoomminus.mouseout"/>
                        </use>
                        <path d="M-4,0h8" fill="none" stroke="white" stroke-width="1.5" pointer-events="none"/>
                </g>
                <g id="dirArrow">
                        <path fill="none" stroke="white" stroke-width="1.5" d="M0,-3.0v7 M-2.5,-0.5L0,-3.0L2.5,-0.5"/>
                </g>
               <g id="resetDef">
                       <use xlink:href="#rim2" fill="#404040">
                               <set attributeName="fill" to="#808080" begin="reset.mouseover" end="reset.mouseout"/>
                       </use>
               </g>
        </defs>

<script type="text/javascript">
var viewWidth = 940;
var viewHeight = 866;
var sectionId = 'dynsection-0';
</script>
<script xlink:href="../../svgpan.js"/>
<svg id="graph" class="graph">
<g id="viewport">
<title>parser.nodes.BinaryNode</title>
<polygon fill="white" stroke="none" points="-4,4 -4,-862 936,-862 936,4 -4,4"/>
<!-- Node1 -->
<g id="node1" class="node"><title>Node1</title>
<polygon fill="#bfbfbf" stroke="black" points="370.5,-446.5 370.5,-465.5 507.5,-465.5 507.5,-446.5 370.5,-446.5"/>
<text text-anchor="middle" x="439" y="-453.5" font-family="Helvetica,sans-Serif" font-size="10.00">parser.nodes.BinaryNode</text>
</g>
<!-- Node4 -->
<g id="node4" class="node"><title>Node4</title>
<g id="a_node4"><a xlink:href="../../d5/d43/classparser_1_1commands_1_1bool_1_1_and.html" target="_top" xlink:title="parser.commands.bool.And">
<polygon fill="white" stroke="black" points="565.5,-838.5 565.5,-857.5 714.5,-857.5 714.5,-838.5 565.5,-838.5"/>
<text text-anchor="middle" x="640" y="-845.5" font-family="Helvetica,sans-Serif" font-size="10.00">parser.commands.bool.And</text>
</a>
</g>
</g>
<!-- Node1&#45;&gt;Node4 -->
<g id="edge3" class="edge"><title>Node1&#45;&gt;Node4</title>
<path fill="none" stroke="midnightblue" d="M442.794,-475.952C453.011,-546.037 490.556,-779.397 544,-829 550.164,-834.721 557.544,-838.932 565.43,-842.005"/>
<polygon fill="midnightblue" stroke="midnightblue" points="446.226,-475.228 441.344,-465.825 439.297,-476.22 446.226,-475.228"/>
</g>
<!-- Node5 -->
<g id="node5" class="node"><title>Node5</title>
<g id="a_node5"><a xlink:href="../../d0/d39/classparser_1_1commands_1_1bool_1_1_equal.html" target="_top" xlink:title="parser.commands.bool.Equal">
<polygon fill="white" stroke="black" points="562,-800.5 562,-819.5 718,-819.5 718,-800.5 562,-800.5"/>
<text text-anchor="middle" x="640" y="-807.5" font-family="Helvetica,sans-Serif" font-size="10.00">parser.commands.bool.Equal</text>
</a>
</g>
</g>
<!-- Node1&#45;&gt;Node5 -->
<g id="edge4" class="edge"><title>Node1&#45;&gt;Node5</title>
<path fill="none" stroke="midnightblue" d="M439.665,-475.854C439.837,-533.993 448.784,-705.172 544,-791 549.247,-795.73 555.33,-799.419 561.832,-802.282"/>
<polygon fill="midnightblue" stroke="midnightblue" points="443.167,-475.533 439.729,-465.512 436.167,-475.49 443.167,-475.533"/>
</g>
<!-- Node6 -->
<g id="node6" class="node"><title>Node6</title>
<g id="a_node6"><a xlink:href="../../d4/ddb/classparser_1_1commands_1_1bool_1_1_greater_than.html" target="_top" xlink:title="parser.commands.bool.GreaterThan">
<polygon fill="white" stroke="black" points="545,-762.5 545,-781.5 735,-781.5 735,-762.5 545,-762.5"/>
<text text-anchor="middle" x="640" y="-769.5" font-family="Helvetica,sans-Serif" font-size="10.00">parser.commands.bool.GreaterThan</text>
</a>
</g>
</g>
<!-- Node1&#45;&gt;Node6 -->
<g id="edge5" class="edge"><title>Node1&#45;&gt;Node6</title>
<path fill="none" stroke="midnightblue" d="M440.563,-475.733C443.221,-529.324 458.346,-678.528 544,-753 548.316,-756.752 553.161,-759.843 558.318,-762.382"/>
<polygon fill="midnightblue" stroke="midnightblue" points="444.052,-475.401 440.156,-465.548 437.058,-475.68 444.052,-475.401"/>
</g>
<!-- Node7 -->
<g id="node7" class="node"><title>Node7</title>
<g id="a_node7"><a xlink:href="../../d3/df0/classparser_1_1commands_1_1bool_1_1_less_than.html" target="_top" xlink:title="parser.commands.bool.LessThan">
<polygon fill="white" stroke="black" points="552.5,-724.5 552.5,-743.5 727.5,-743.5 727.5,-724.5 552.5,-724.5"/>
<text text-anchor="middle" x="640" y="-731.5" font-family="Helvetica,sans-Serif" font-size="10.00">parser.commands.bool.LessThan</text>
</a>
</g>
</g>
<!-- Node1&#45;&gt;Node7 -->
<g id="edge6" class="edge"><title>Node1&#45;&gt;Node7</title>
<path fill="none" stroke="midnightblue" d="M441.773,-475.681C447.256,-524.292 468.444,-650.674 544,-714 549.038,-718.222 554.746,-721.622 560.802,-724.353"/>
<polygon fill="midnightblue" stroke="midnightblue" points="445.237,-475.153 440.737,-465.562 438.274,-475.866 445.237,-475.153"/>
</g>
<!-- Node8 -->
<g id="node8" class="node"><title>Node8</title>
<g id="a_node8"><a xlink:href="../../d7/dec/classparser_1_1commands_1_1bool_1_1_not_equal.html" target="_top" xlink:title="parser.commands.bool.Not\lEqual">
<polygon fill="white" stroke="black" points="566.5,-675 566.5,-705 713.5,-705 713.5,-675 566.5,-675"/>
<text text-anchor="start" x="574.5" y="-693" font-family="Helvetica,sans-Serif" font-size="10.00">parser.commands.bool.Not</text>
<text text-anchor="middle" x="640" y="-682" font-family="Helvetica,sans-Serif" font-size="10.00">Equal</text>
</a>
</g>
</g>
<!-- Node1&#45;&gt;Node8 -->
<g id="edge7" class="edge"><title>Node1&#45;&gt;Node8</title>
<path fill="none" stroke="midnightblue" d="M444.033,-475.611C453.626,-517.159 481.808,-614.378 544,-665 550.613,-670.383 558.267,-674.617 566.303,-677.945"/>
<polygon fill="midnightblue" stroke="midnightblue" points="447.413,-474.683 441.851,-465.665 440.575,-476.183 447.413,-474.683"/>
</g>
<!-- Node9 -->
<g id="node9" class="node"><title>Node9</title>
<g id="a_node9"><a xlink:href="../../d0/d20/classparser_1_1commands_1_1bool_1_1_or.html" target="_top" xlink:title="parser.commands.bool.Or">
<polygon fill="white" stroke="black" points="569.5,-636.5 569.5,-655.5 710.5,-655.5 710.5,-636.5 569.5,-636.5"/>
<text text-anchor="middle" x="640" y="-643.5" font-family="Helvetica,sans-Serif" font-size="10.00">parser.commands.bool.Or</text>
</a>
</g>
</g>
<!-- Node1&#45;&gt;Node9 -->
<g id="edge8" class="edge"><title>Node1&#45;&gt;Node9</title>
<path fill="none" stroke="midnightblue" d="M445.98,-475.473C458.135,-511.579 489.316,-588.708 544,-627 551.578,-632.306 560.284,-636.209 569.285,-639.068"/>
<polygon fill="midnightblue" stroke="midnightblue" points="449.218,-474.113 442.813,-465.673 442.558,-476.265 449.218,-474.113"/>
</g>
<!-- Node10 -->
<g id="node10" class="node"><title>Node10</title>
<g id="a_node10"><a xlink:href="../../d3/da1/classparser_1_1commands_1_1math_1_1_difference.html" target="_top" xlink:title="parser.commands.math.Difference">
<polygon fill="white" stroke="black" points="548,-598.5 548,-617.5 732,-617.5 732,-598.5 548,-598.5"/>
<text text-anchor="middle" x="640" y="-605.5" font-family="Helvetica,sans-Serif" font-size="10.00">parser.commands.math.Difference</text>
</a>
</g>
</g>
<!-- Node1&#45;&gt;Node10 -->
<g id="edge9" class="edge"><title>Node1&#45;&gt;Node10</title>
<path fill="none" stroke="midnightblue" d="M449.088,-474.798C464.346,-504.209 498.017,-560.663 544,-589 550.3,-592.883 557.241,-595.992 564.417,-598.479"/>
<polygon fill="midnightblue" stroke="midnightblue" points="452.089,-472.975 444.469,-465.614 445.835,-476.12 452.089,-472.975"/>
</g>
<!-- Node11 -->
<g id="node11" class="node"><title>Node11</title>
<g id="a_node11"><a xlink:href="../../d4/dd8/classparser_1_1commands_1_1math_1_1_product.html" target="_top" xlink:title="parser.commands.math.Product">
<polygon fill="white" stroke="black" points="554,-560.5 554,-579.5 726,-579.5 726,-560.5 554,-560.5"/>
<text text-anchor="middle" x="640" y="-567.5" font-family="Helvetica,sans-Serif" font-size="10.00">parser.commands.math.Product</text>
</a>
</g>
</g>
<!-- Node1&#45;&gt;Node11 -->
<g id="edge10" class="edge"><title>Node1&#45;&gt;Node11</title>
<path fill="none" stroke="midnightblue" d="M453.796,-473.443C472.02,-495.207 506.251,-531.882 544,-551 551.728,-554.914 560.191,-558.022 568.781,-560.49"/>
<polygon fill="midnightblue" stroke="midnightblue" points="456.454,-471.166 447.414,-465.641 451.036,-475.597 456.454,-471.166"/>
</g>
<!-- Node12 -->
<g id="node12" class="node"><title>Node12</title>
<g id="a_node12"><a xlink:href="../../dc/d4d/classparser_1_1commands_1_1math_1_1_quotient.html" target="_top" xlink:title="parser.commands.math.Quotient">
<polygon fill="white" stroke="black" points="552,-522.5 552,-541.5 728,-541.5 728,-522.5 552,-522.5"/>
<text text-anchor="middle" x="640" y="-529.5" font-family="Helvetica,sans-Serif" font-size="10.00">parser.commands.math.Quotient</text>
</a>
</g>
</g>
<!-- Node1&#45;&gt;Node12 -->
<g id="edge11" class="edge"><title>Node1&#45;&gt;Node12</title>
<path fill="none" stroke="midnightblue" d="M462.735,-471.115C483.188,-484.052 514.474,-502.243 544,-513 554.509,-516.829 565.969,-519.951 577.177,-522.474"/>
<polygon fill="midnightblue" stroke="midnightblue" points="464.449,-468.055 454.146,-465.586 460.66,-473.942 464.449,-468.055"/>
</g>
<!-- Node13 -->
<g id="node13" class="node"><title>Node13</title>
<g id="a_node13"><a xlink:href="../../d7/da6/classparser_1_1commands_1_1math_1_1_remainder.html" target="_top" xlink:title="parser.commands.math.Remainder">
<polygon fill="white" stroke="black" points="547,-484.5 547,-503.5 733,-503.5 733,-484.5 547,-484.5"/>
<text text-anchor="middle" x="640" y="-491.5" font-family="Helvetica,sans-Serif" font-size="10.00">parser.commands.math.Remainder</text>
</a>
</g>
</g>
<!-- Node1&#45;&gt;Node13 -->
<g id="edge12" class="edge"><title>Node1&#45;&gt;Node13</title>
<path fill="none" stroke="midnightblue" d="M499.795,-467.418C528.268,-472.855 561.931,-479.283 589.02,-484.456"/>
<polygon fill="midnightblue" stroke="midnightblue" points="500.438,-463.978 489.959,-465.54 499.125,-470.854 500.438,-463.978"/>
</g>
<!-- Node14 -->
<g id="node14" class="node"><title>Node14</title>
<g id="a_node14"><a xlink:href="../../d9/df8/classparser_1_1commands_1_1math_1_1_sum.html" target="_top" xlink:title="parser.commands.math.Sum">
<polygon fill="white" stroke="black" points="561,-446.5 561,-465.5 719,-465.5 719,-446.5 561,-446.5"/>
<text text-anchor="middle" x="640" y="-453.5" font-family="Helvetica,sans-Serif" font-size="10.00">parser.commands.math.Sum</text>
</a>
</g>
</g>
<!-- Node1&#45;&gt;Node14 -->
<g id="edge13" class="edge"><title>Node1&#45;&gt;Node14</title>
<path fill="none" stroke="midnightblue" d="M517.829,-456C531.981,-456 546.748,-456 560.908,-456"/>
<polygon fill="midnightblue" stroke="midnightblue" points="517.65,-452.5 507.65,-456 517.65,-459.5 517.65,-452.5"/>
</g>
<!-- Node15 -->
<g id="node15" class="node"><title>Node15</title>
<g id="a_node15"><a xlink:href="../../d0/d05/classparser_1_1commands_1_1other_1_1_do_times.html" target="_top" xlink:title="parser.commands.other.Do\lTimes">
<polygon fill="white" stroke="black" points="566,-397 566,-427 714,-427 714,-397 566,-397"/>
<text text-anchor="start" x="574" y="-415" font-family="Helvetica,sans-Serif" font-size="10.00">parser.commands.other.Do</text>
<text text-anchor="middle" x="640" y="-404" font-family="Helvetica,sans-Serif" font-size="10.00">Times</text>
</a>
</g>
</g>
<!-- Node1&#45;&gt;Node15 -->
<g id="edge14" class="edge"><title>Node1&#45;&gt;Node15</title>
<path fill="none" stroke="midnightblue" d="M493.108,-444.258C516.98,-438.979 545.443,-432.686 570.863,-427.065"/>
<polygon fill="midnightblue" stroke="midnightblue" points="492.189,-440.876 483.18,-446.453 493.7,-447.711 492.189,-440.876"/>
</g>
<!-- Node16 -->
<g id="node16" class="node"><title>Node16</title>
<g id="a_node16"><a xlink:href="../../de/df8/classparser_1_1commands_1_1other_1_1_for.html" target="_top" xlink:title="parser.commands.other.For">
<polygon fill="white" stroke="black" points="565.5,-358.5 565.5,-377.5 714.5,-377.5 714.5,-358.5 565.5,-358.5"/>
<text text-anchor="middle" x="640" y="-365.5" font-family="Helvetica,sans-Serif" font-size="10.00">parser.commands.other.For</text>
</a>
</g>
</g>
<!-- Node1&#45;&gt;Node16 -->
<g id="edge15" class="edge"><title>Node1&#45;&gt;Node16</title>
<path fill="none" stroke="midnightblue" d="M459.282,-439.834C479.227,-423.96 511.899,-400.255 544,-387 553.406,-383.116 563.671,-380.007 573.866,-377.523"/>
<polygon fill="midnightblue" stroke="midnightblue" points="456.866,-437.287 451.307,-446.307 461.277,-442.722 456.866,-437.287"/>
</g>
<!-- Node17 -->
<g id="node17" class="node"><title>Node17</title>
<g id="a_node17"><a xlink:href="../../de/dd8/classparser_1_1commands_1_1other_1_1_if.html" target="_top" xlink:title="parser.commands.other.If">
<polygon fill="white" stroke="black" points="570,-320.5 570,-339.5 710,-339.5 710,-320.5 570,-320.5"/>
<text text-anchor="middle" x="640" y="-327.5" font-family="Helvetica,sans-Serif" font-size="10.00">parser.commands.other.If</text>
</a>
</g>
</g>
<!-- Node1&#45;&gt;Node17 -->
<g id="edge16" class="edge"><title>Node1&#45;&gt;Node17</title>
<path fill="none" stroke="midnightblue" d="M451.993,-438.125C469.295,-413.847 503.65,-370.965 544,-349 551.977,-344.657 560.816,-341.302 569.798,-338.709"/>
<polygon fill="midnightblue" stroke="midnightblue" points="449.05,-436.226 446.22,-446.436 454.799,-440.219 449.05,-436.226"/>
</g>
<!-- Node18 -->
<g id="node18" class="node"><title>Node18</title>
<g id="a_node18"><a xlink:href="../../d6/d87/classparser_1_1commands_1_1other_1_1_make.html" target="_top" xlink:title="parser.commands.other.Make">
<polygon fill="white" stroke="black" points="560,-282.5 560,-301.5 720,-301.5 720,-282.5 560,-282.5"/>
<text text-anchor="middle" x="640" y="-289.5" font-family="Helvetica,sans-Serif" font-size="10.00">parser.commands.other.Make</text>
</a>
</g>
</g>
<!-- Node1&#45;&gt;Node18 -->
<g id="edge17" class="edge"><title>Node1&#45;&gt;Node18</title>
<path fill="none" stroke="midnightblue" d="M448.013,-436.858C462.311,-405.216 495.354,-342.386 544,-311 549.936,-307.17 556.481,-304.085 563.276,-301.605"/>
<polygon fill="midnightblue" stroke="midnightblue" points="444.683,-435.738 443.887,-446.303 451.097,-438.54 444.683,-435.738"/>
</g>
<!-- Node19 -->
<g id="node19" class="node"><title>Node19</title>
<g id="a_node19"><a xlink:href="../../d9/de0/classparser_1_1commands_1_1other_1_1_repeat.html" target="_top" xlink:title="parser.commands.other.Repeat">
<polygon fill="white" stroke="black" points="556.5,-244.5 556.5,-263.5 723.5,-263.5 723.5,-244.5 556.5,-244.5"/>
<text text-anchor="middle" x="640" y="-251.5" font-family="Helvetica,sans-Serif" font-size="10.00">parser.commands.other.Repeat</text>
</a>
</g>
</g>
<!-- Node1&#45;&gt;Node19 -->
<g id="edge18" class="edge"><title>Node1&#45;&gt;Node19</title>
<path fill="none" stroke="midnightblue" d="M445.258,-436.223C456.484,-398.086 486.578,-314.491 544,-273 549.317,-269.158 555.219,-266.046 561.404,-263.53"/>
<polygon fill="midnightblue" stroke="midnightblue" points="441.817,-435.529 442.477,-446.104 448.555,-437.426 441.817,-435.529"/>
</g>
<!-- Node20 -->
<g id="node20" class="node"><title>Node20</title>
<g id="a_node20"><a xlink:href="../../d2/d73/classparser_1_1commands_1_1turtle_1_1commands_1_1_set_position.html" target="_top" xlink:title="parser.commands.turtle.commands.\lSetPosition">
<polygon fill="white" stroke="black" points="544,-195 544,-225 736,-225 736,-195 544,-195"/>
<text text-anchor="start" x="552" y="-213" font-family="Helvetica,sans-Serif" font-size="10.00">parser.commands.turtle.commands.</text>
<text text-anchor="middle" x="640" y="-202" font-family="Helvetica,sans-Serif" font-size="10.00">SetPosition</text>
</a>
</g>
</g>
<!-- Node1&#45;&gt;Node20 -->
<g id="edge19" class="edge"><title>Node1&#45;&gt;Node20</title>
<path fill="none" stroke="midnightblue" d="M443.444,-436.445C452.107,-393.231 478.939,-289.152 544,-235 548.588,-231.181 553.697,-227.94 559.099,-225.188"/>
<polygon fill="midnightblue" stroke="midnightblue" points="440.004,-435.797 441.581,-446.274 446.882,-437.101 440.004,-435.797"/>
</g>
<!-- Node21 -->
<g id="node21" class="node"><title>Node21</title>
<g id="a_node21"><a xlink:href="../../dd/d31/classparser_1_1commands_1_1turtle_1_1commands_1_1_towards.html" target="_top" xlink:title="parser.commands.turtle.commands.\lTowards">
<polygon fill="white" stroke="black" points="544,-146 544,-176 736,-176 736,-146 544,-146"/>
<text text-anchor="start" x="552" y="-164" font-family="Helvetica,sans-Serif" font-size="10.00">parser.commands.turtle.commands.</text>
<text text-anchor="middle" x="640" y="-153" font-family="Helvetica,sans-Serif" font-size="10.00">Towards</text>
</a>
</g>
</g>
<!-- Node1&#45;&gt;Node21 -->
<g id="edge20" class="edge"><title>Node1&#45;&gt;Node21</title>
<path fill="none" stroke="midnightblue" d="M441.537,-436.206C446.519,-386.141 466.725,-253.587 544,-185 547.817,-181.612 552.044,-178.689 556.532,-176.168"/>
<polygon fill="midnightblue" stroke="midnightblue" points="438.036,-436.062 440.63,-446.334 445.008,-436.686 438.036,-436.062"/>
</g>
<!-- Node22 -->
<g id="node22" class="node"><title>Node22</title>
<g id="a_node22"><a xlink:href="../../d5/d6d/classparser_1_1commands_1_1workspace_1_1_ask.html" target="_top" xlink:title="parser.commands.workspace.Ask">
<polygon fill="white" stroke="black" points="551.5,-107.5 551.5,-126.5 728.5,-126.5 728.5,-107.5 551.5,-107.5"/>
<text text-anchor="middle" x="640" y="-114.5" font-family="Helvetica,sans-Serif" font-size="10.00">parser.commands.workspace.Ask</text>
</a>
</g>
</g>
<!-- Node1&#45;&gt;Node22 -->
<g id="edge21" class="edge"><title>Node1&#45;&gt;Node22</title>
<path fill="none" stroke="midnightblue" d="M439.995,-436.263C441.124,-379.953 452.531,-217.361 544,-136 548.273,-132.199 553.087,-129.073 558.222,-126.509"/>
<polygon fill="midnightblue" stroke="midnightblue" points="436.495,-436.289 439.886,-446.327 443.495,-436.365 436.495,-436.289"/>
</g>
<!-- Node23 -->
<g id="node23" class="node"><title>Node23</title>
<g id="a_node23"><a xlink:href="../../db/d77/classparser_1_1commands_1_1workspace_1_1_ask_with.html" target="_top" xlink:title="parser.commands.workspace.\lAskWith">
<polygon fill="white" stroke="black" points="560,-58 560,-88 720,-88 720,-58 560,-58"/>
<text text-anchor="start" x="568" y="-76" font-family="Helvetica,sans-Serif" font-size="10.00">parser.commands.workspace.</text>
<text text-anchor="middle" x="640" y="-65" font-family="Helvetica,sans-Serif" font-size="10.00">AskWith</text>
</a>
</g>
</g>
<!-- Node1&#45;&gt;Node23 -->
<g id="edge22" class="edge"><title>Node1&#45;&gt;Node23</title>
<path fill="none" stroke="midnightblue" d="M439.453,-436.267C438.915,-376.174 445.824,-193.714 544,-98 548.64,-93.476 553.996,-89.7442 559.753,-86.6691"/>
<polygon fill="midnightblue" stroke="midnightblue" points="435.954,-436.367 439.627,-446.304 442.953,-436.245 435.954,-436.367"/>
</g>
<!-- Node24 -->
<g id="node24" class="node"><title>Node24</title>
<g id="a_node24"><a xlink:href="../../d5/dba/classparser_1_1nodes_1_1_ternary_node.html" target="_top" xlink:title="parser.nodes.TernaryNode">
<polygon fill="white" stroke="black" points="569,-19.5 569,-38.5 711,-38.5 711,-19.5 569,-19.5"/>
<text text-anchor="middle" x="640" y="-26.5" font-family="Helvetica,sans-Serif" font-size="10.00">parser.nodes.TernaryNode</text>
</a>
</g>
</g>
<!-- Node1&#45;&gt;Node24 -->
<g id="edge23" class="edge"><title>Node1&#45;&gt;Node24</title>
<path fill="none" stroke="midnightblue" d="M442.276,-436.14C451.173,-362.028 485.998,-103.051 544,-48 550.954,-41.4 559.521,-36.7971 568.638,-33.6292"/>
<polygon fill="midnightblue" stroke="midnightblue" points="438.763,-436.048 441.071,-446.388 445.715,-436.865 438.763,-436.048"/>
</g>
<!-- Node2 -->
<g id="node2" class="node"><title>Node2</title>
<g id="a_node2"><a xlink:href="../../d7/d93/classparser_1_1nodes_1_1_parameter_node.html" target="_top" xlink:title="parser.nodes.ParameterNode">
<polygon fill="white" stroke="black" points="176,-446.5 176,-465.5 334,-465.5 334,-446.5 176,-446.5"/>
<text text-anchor="middle" x="255" y="-453.5" font-family="Helvetica,sans-Serif" font-size="10.00">parser.nodes.ParameterNode</text>
</a>
</g>
</g>
<!-- Node2&#45;&gt;Node1 -->
<g id="edge1" class="edge"><title>Node2&#45;&gt;Node1</title>
<path fill="none" stroke="midnightblue" d="M344.455,-456C353.184,-456 361.945,-456 370.416,-456"/>
<polygon fill="midnightblue" stroke="midnightblue" points="344.241,-452.5 334.241,-456 344.241,-459.5 344.241,-452.5"/>
</g>
<!-- Node3 -->
<g id="node3" class="node"><title>Node3</title>
<g id="a_node3"><a xlink:href="../../da/d96/classparser_1_1nodes_1_1_syntax_node.html" target="_top" xlink:title="parser.nodes.SyntaxNode">
<polygon fill="white" stroke="black" points="0,-446.5 0,-465.5 140,-465.5 140,-446.5 0,-446.5"/>
<text text-anchor="middle" x="70" y="-453.5" font-family="Helvetica,sans-Serif" font-size="10.00">parser.nodes.SyntaxNode</text>
</a>
</g>
</g>
<!-- Node3&#45;&gt;Node2 -->
<g id="edge2" class="edge"><title>Node3&#45;&gt;Node2</title>
<path fill="none" stroke="midnightblue" d="M150.387,-456C158.825,-456 167.402,-456 175.825,-456"/>
<polygon fill="midnightblue" stroke="midnightblue" points="150.184,-452.5 140.184,-456 150.184,-459.5 150.184,-452.5"/>
</g>
<!-- Node25 -->
<g id="node25" class="node"><title>Node25</title>
<g id="a_node25"><a xlink:href="../../d6/dbc/classparser_1_1commands_1_1other_1_1_if_else.html" target="_top" xlink:title="parser.commands.other.IfElse">
<polygon fill="white" stroke="black" points="772.5,-38.5 772.5,-57.5 931.5,-57.5 931.5,-38.5 772.5,-38.5"/>
<text text-anchor="middle" x="852" y="-45.5" font-family="Helvetica,sans-Serif" font-size="10.00">parser.commands.other.IfElse</text>
</a>
</g>
</g>
<!-- Node24&#45;&gt;Node25 -->
<g id="edge24" class="edge"><title>Node24&#45;&gt;Node25</title>
<path fill="none" stroke="midnightblue" d="M721.446,-36.2785C738.079,-37.7833 755.583,-39.367 772.157,-40.8666"/>
<polygon fill="midnightblue" stroke="midnightblue" points="721.494,-32.7685 711.219,-35.3531 720.863,-39.7401 721.494,-32.7685"/>
</g>
<!-- Node26 -->
<g id="node26" class="node"><title>Node26</title>
<g id="a_node26"><a xlink:href="../../dc/d8b/classparser_1_1commands_1_1other_1_1_to.html" target="_top" xlink:title="parser.commands.other.To">
<polygon fill="white" stroke="black" points="780,-0.5 780,-19.5 924,-19.5 924,-0.5 780,-0.5"/>
<text text-anchor="middle" x="852" y="-7.5" font-family="Helvetica,sans-Serif" font-size="10.00">parser.commands.other.To</text>
</a>
</g>
</g>
<!-- Node24&#45;&gt;Node26 -->
<g id="edge25" class="edge"><title>Node24&#45;&gt;Node26</title>
<path fill="none" stroke="midnightblue" d="M721.18,-21.7457C740.462,-20.001 760.929,-18.1492 779.773,-16.4444"/>
<polygon fill="midnightblue" stroke="midnightblue" points="720.863,-18.2599 711.219,-22.6469 721.494,-25.2314 720.863,-18.2599"/>
</g>
</g>
</svg>
        <g id="navigator" transform="translate(0 0)" fill="#404254">
                <rect fill="#f2f5e9" fill-opacity="0.5" stroke="#606060" stroke-width=".5" x="0" y="0" width="60" height="60"/>
                <use id="zoomplus" xlink:href="#zoomPlus" x="17" y="9" onmousedown="handleZoom(evt,'in')"/>
                <use id="zoomminus" xlink:href="#zoomMin" x="42" y="9" onmousedown="handleZoom(evt,'out')"/>
                <use id="reset" xlink:href="#resetDef" x="30" y="36" onmousedown="handleReset()"/>
                <g id="arrowUp" xlink:href="#dirArrow" transform="translate(30 24)" onmousedown="handlePan(0,-1)">
                  <use xlink:href="#rim" fill="#404040">
                        <set attributeName="fill" to="#808080" begin="arrowUp.mouseover" end="arrowUp.mouseout"/>
                  </use>
                  <path fill="none" stroke="white" stroke-width="1.5" d="M0,-3.0v7 M-2.5,-0.5L0,-3.0L2.5,-0.5"/>
                </g>
                <g id="arrowRight" xlink:href="#dirArrow" transform="rotate(90) translate(36 -43)" onmousedown="handlePan(1,0)">
                  <use xlink:href="#rim" fill="#404040">
                        <set attributeName="fill" to="#808080" begin="arrowRight.mouseover" end="arrowRight.mouseout"/>
                  </use>
                  <path fill="none" stroke="white" stroke-width="1.5" d="M0,-3.0v7 M-2.5,-0.5L0,-3.0L2.5,-0.5"/>
                </g>
                <g id="arrowDown" xlink:href="#dirArrow" transform="rotate(180) translate(-30 -48)" onmousedown="handlePan(0,1)">
                  <use xlink:href="#rim" fill="#404040">
                        <set attributeName="fill" to="#808080" begin="arrowDown.mouseover" end="arrowDown.mouseout"/>
                  </use>
                  <path fill="none" stroke="white" stroke-width="1.5" d="M0,-3.0v7 M-2.5,-0.5L0,-3.0L2.5,-0.5"/>
                </g>
                <g id="arrowLeft" xlink:href="#dirArrow" transform="rotate(270) translate(-36 17)" onmousedown="handlePan(-1,0)">
                  <use xlink:href="#rim" fill="#404040">
                        <set attributeName="fill" to="#808080" begin="arrowLeft.mouseover" end="arrowLeft.mouseout"/>
                  </use>
                  <path fill="none" stroke="white" stroke-width="1.5" d="M0,-3.0v7 M-2.5,-0.5L0,-3.0L2.5,-0.5"/>
                </g>
        </g>
        <svg viewBox="0 0 15 15" width="100%" height="30px" preserveAspectRatio="xMaxYMin meet">
         <g id="arrow_out" transform="scale(0.3 0.3)">
          <a xlink:href="classparser_1_1nodes_1_1_binary_node__inherit__graph_org.svg" target="_base">
           <rect id="button" ry="5" rx="5" y="6" x="6" height="38" width="38"
                fill="#f2f5e9" fill-opacity="0.5" stroke="#606060" stroke-width="1.0"/>
           <path id="arrow"
             d="M 11.500037,31.436501 C 11.940474,20.09759 22.043105,11.32322 32.158766,21.979434 L 37.068811,17.246167 C 37.068811,17.246167 37.088388,32 37.088388,32 L 22.160133,31.978069 C 22.160133,31.978069 26.997745,27.140456 26.997745,27.140456 C 18.528582,18.264221 13.291696,25.230495 11.500037,31.436501 z"
             style="fill:#404040;"/>
          </a>
         </g>
        </svg>
</svg>
