<?xml version="1.0" encoding="UTF-8" standalone="no"?>
<!DOCTYPE svg PUBLIC "-//W3C//DTD SVG 1.1//EN"
 "http://www.w3.org/Graphics/SVG/1.1/DTD/svg11.dtd">
<!-- Generated by graphviz version 2.36.0 (20140111.2315)
 -->
<!-- Title: parser.commands.turtle.commands.Left.evaluate Pages: 1 -->
<svg width="634pt" height="77pt"
 viewBox="0.00 0.00 634.00 77.00" xmlns="http://www.w3.org/2000/svg" xmlns:xlink="http://www.w3.org/1999/xlink">
<g id="graph0" class="graph" transform="scale(1 1) rotate(0) translate(4 73)">
<title>parser.commands.turtle.commands.Left.evaluate</title>
<polygon fill="white" stroke="none" points="-4,4 -4,-73 630,-73 630,4 -4,4"/>
<!-- Node1 -->
<g id="node1" class="node"><title>Node1</title>
<polygon fill="#bfbfbf" stroke="black" points="0,-22 0,-52 192,-52 192,-22 0,-22"/>
<text text-anchor="start" x="8" y="-40" font-family="Helvetica,sans-Serif" font-size="10.00">parser.commands.turtle.commands.</text>
<text text-anchor="middle" x="96" y="-29" font-family="Helvetica,sans-Serif" font-size="10.00">Left.evaluate</text>
</g>
<!-- Node2 -->
<g id="node2" class="node"><title>Node2</title>
<g id="a_node2"><a xlink:href="../../da/d96/classparser_1_1nodes_1_1_syntax_node.html#a669c370adce66a1960835323a90b9adb" target="_top" xlink:title="parser.nodes.SyntaxNode.evaluate">
<polygon fill="white" stroke="black" points="228.5,-49.5 228.5,-68.5 413.5,-68.5 413.5,-49.5 228.5,-49.5"/>
<text text-anchor="middle" x="321" y="-56.5" font-family="Helvetica,sans-Serif" font-size="10.00">parser.nodes.SyntaxNode.evaluate</text>
</a>
</g>
</g>
<!-- Node1&#45;&gt;Node2 -->
<g id="edge1" class="edge"><title>Node1&#45;&gt;Node2</title>
<path fill="none" stroke="midnightblue" d="M192.219,-46.3938C200.813,-47.2416 209.538,-48.1024 218.185,-48.9555"/>
<polygon fill="midnightblue" stroke="midnightblue" points="217.993,-52.4534 228.288,-49.9522 218.68,-45.4872 217.993,-52.4534"/>
</g>
<!-- Node3 -->
<g id="node3" class="node"><title>Node3</title>
<g id="a_node3"><a xlink:href="../../d3/d36/classparser_1_1nodes_1_1_unary_node.html#a5075c2524d5d8551552e4cb93d4b0aac" target="_top" xlink:title="parser.nodes.UnaryNode.get\lArgument">
<polygon fill="white" stroke="black" points="243.5,-0 243.5,-30 398.5,-30 398.5,-0 243.5,-0"/>
<text text-anchor="start" x="251.5" y="-18" font-family="Helvetica,sans-Serif" font-size="10.00">parser.nodes.UnaryNode.get</text>
<text text-anchor="middle" x="321" y="-7" font-family="Helvetica,sans-Serif" font-size="10.00">Argument</text>
</a>
</g>
</g>
<!-- Node1&#45;&gt;Node3 -->
<g id="edge2" class="edge"><title>Node1&#45;&gt;Node3</title>
<path fill="none" stroke="midnightblue" d="M192.219,-27.6062C205.803,-26.2661 219.717,-24.8934 233.13,-23.5702"/>
<polygon fill="midnightblue" stroke="midnightblue" points="233.668,-27.0342 243.276,-22.5692 232.98,-20.068 233.668,-27.0342"/>
</g>
<!-- Node4 -->
<g id="node4" class="node"><title>Node4</title>
<g id="a_node4"><a xlink:href="../../d7/d93/classparser_1_1nodes_1_1_parameter_node.html#a2c57eab9997daf1efb840a189c1034c5" target="_top" xlink:title="parser.nodes.ParameterNode.get\lParameter">
<polygon fill="white" stroke="black" points="450,-0 450,-30 626,-30 626,-0 450,-0"/>
<text text-anchor="start" x="458" y="-18" font-family="Helvetica,sans-Serif" font-size="10.00">parser.nodes.ParameterNode.get</text>
<text text-anchor="middle" x="538" y="-7" font-family="Helvetica,sans-Serif" font-size="10.00">Parameter</text>
</a>
</g>
</g>
<!-- Node3&#45;&gt;Node4 -->
<g id="edge3" class="edge"><title>Node3&#45;&gt;Node4</title>
<path fill="none" stroke="midnightblue" d="M398.709,-15C411.875,-15 425.714,-15 439.34,-15"/>
<polygon fill="midnightblue" stroke="midnightblue" points="439.703,-18.5001 449.703,-15 439.703,-11.5001 439.703,-18.5001"/>
</g>
</g>
</svg>
