<?xml version="1.0" encoding="UTF-8" standalone="no"?>
<!DOCTYPE svg PUBLIC "-//W3C//DTD SVG 1.1//EN"
 "http://www.w3.org/Graphics/SVG/1.1/DTD/svg11.dtd">
<!-- Generated by graphviz version 2.36.0 (20140111.2315)
 -->
<!-- Title: model.Pen Pages: 1 -->
<svg width="450pt" height="106pt"
 viewBox="0.00 0.00 450.00 106.00" xmlns="http://www.w3.org/2000/svg" xmlns:xlink="http://www.w3.org/1999/xlink">
<g id="graph0" class="graph" transform="scale(1 1) rotate(0) translate(4 102)">
<title>model.Pen</title>
<polygon fill="white" stroke="none" points="-4,4 -4,-102 446,-102 446,4 -4,4"/>
<!-- Node1 -->
<g id="node1" class="node"><title>Node1</title>
<polygon fill="#bfbfbf" stroke="black" points="142,-0.5 142,-19.5 210,-19.5 210,-0.5 142,-0.5"/>
<text text-anchor="middle" x="176" y="-7.5" font-family="Helvetica,sans-Serif" font-size="10.00">model.Pen</text>
</g>
<!-- Node2 -->
<g id="node2" class="node"><title>Node2</title>
<polygon fill="white" stroke="#bfbfbf" points="-0.5,-78.5 -0.5,-97.5 40.5,-97.5 40.5,-78.5 -0.5,-78.5"/>
<text text-anchor="middle" x="20" y="-85.5" font-family="Helvetica,sans-Serif" font-size="10.00">Color</text>
</g>
<!-- Node2&#45;&gt;Node1 -->
<g id="edge1" class="edge"><title>Node2&#45;&gt;Node1</title>
<path fill="none" stroke="#9a32cd" stroke-dasharray="5,2" d="M21.1524,-68.1518C22.7882,-57.8147 26.5398,-45.5935 35,-38 50.3951,-24.182 105.111,-16.9315 141.681,-13.5413"/>
<polygon fill="#9a32cd" stroke="#9a32cd" points="17.6481,-68.0104 20.0851,-78.3212 24.6099,-68.7411 17.6481,-68.0104"/>
<text text-anchor="middle" x="74.5" y="-46.5" font-family="Helvetica,sans-Serif" font-size="10.00"> myCurrentColor</text>
</g>
<!-- Node3 -->
<g id="node3" class="node"><title>Node3</title>
<polygon fill="white" stroke="#bfbfbf" points="98,-78.5 98,-97.5 146,-97.5 146,-78.5 98,-78.5"/>
<text text-anchor="middle" x="122" y="-85.5" font-family="Helvetica,sans-Serif" font-size="10.00">Stroke</text>
</g>
<!-- Node3&#45;&gt;Node1 -->
<g id="edge2" class="edge"><title>Node3&#45;&gt;Node1</title>
<path fill="none" stroke="#9a32cd" stroke-dasharray="5,2" d="M118.041,-68.3673C116.989,-58.6229 117.417,-46.9042 123,-38 128.266,-29.6008 137.036,-23.7041 145.941,-19.6142"/>
<polygon fill="#9a32cd" stroke="#9a32cd" points="114.593,-68.9712 119.661,-78.275 121.501,-67.8411 114.593,-68.9712"/>
<text text-anchor="middle" x="165.5" y="-52" font-family="Helvetica,sans-Serif" font-size="10.00"> myStroke</text>
<text text-anchor="middle" x="165.5" y="-41" font-family="Helvetica,sans-Serif" font-size="10.00">DEFAULT_STROKE</text>
</g>
<!-- Node4 -->
<g id="node4" class="node"><title>Node4</title>
<polygon fill="white" stroke="#bfbfbf" points="175,-78.5 175,-97.5 285,-97.5 285,-78.5 175,-78.5"/>
<text text-anchor="middle" x="230" y="-85.5" font-family="Helvetica,sans-Serif" font-size="10.00">List&lt; util.PenLine &gt;</text>
</g>
<!-- Node4&#45;&gt;Node1 -->
<g id="edge3" class="edge"><title>Node4&#45;&gt;Node1</title>
<path fill="none" stroke="#9a32cd" stroke-dasharray="5,2" d="M224.112,-68.9141C220.413,-59.1786 215.008,-47.2961 208,-38 202.662,-30.9187 195.144,-24.4548 188.736,-19.628"/>
<polygon fill="#9a32cd" stroke="#9a32cd" points="220.832,-70.1384 227.451,-78.4115 227.436,-67.8167 220.832,-70.1384"/>
<text text-anchor="middle" x="242.5" y="-46.5" font-family="Helvetica,sans-Serif" font-size="10.00"> myLines</text>
</g>
<!-- Node5 -->
<g id="node5" class="node"><title>Node5</title>
<g id="a_node5"><a xlink:href="../../d7/da7/enumview_1_1components_1_1_strokes.html" target="_top" xlink:title="view.components.Strokes">
<polygon fill="white" stroke="black" points="303.5,-78.5 303.5,-97.5 442.5,-97.5 442.5,-78.5 303.5,-78.5"/>
<text text-anchor="middle" x="373" y="-85.5" font-family="Helvetica,sans-Serif" font-size="10.00">view.components.Strokes</text>
</a>
</g>
</g>
<!-- Node5&#45;&gt;Node1 -->
<g id="edge4" class="edge"><title>Node5&#45;&gt;Node1</title>
<path fill="none" stroke="#9a32cd" stroke-dasharray="5,2" d="M347.415,-73.7297C326.437,-63.1756 295.782,-48.4902 268,-38 249.001,-30.8262 227.216,-24.3579 209.616,-19.5519"/>
<polygon fill="#9a32cd" stroke="#9a32cd" points="346.103,-76.989 356.603,-78.4002 349.275,-70.7489 346.103,-76.989"/>
<text text-anchor="middle" x="353.5" y="-46.5" font-family="Helvetica,sans-Serif" font-size="10.00"> myStrokeType</text>
</g>
</g>
</svg>
