<?xml version="1.0" encoding="UTF-8" standalone="no"?>
<!DOCTYPE svg PUBLIC "-//W3C//DTD SVG 1.1//EN"
 "http://www.w3.org/Graphics/SVG/1.1/DTD/svg11.dtd">
<!-- Generated by graphviz version 2.36.0 (20140111.2315)
 -->
<!-- Title: parser.nodes.SimpleNode Pages: 1 -->
<!--zoomable 791 -->
<svg id="main" version="1.1" xmlns="http://www.w3.org/2000/svg" xmlns:xlink="http://www.w3.org/1999/xlink" xml:space="preserve" onload="init(evt)">
<style type="text/css"><![CDATA[
.edge:hover path { stroke: red; }
.edge:hover polygon { stroke: red; fill: red; }
]]></style>
<script type="text/javascript"><![CDATA[
var edges = document.getElementsByTagName('g');
if (edges && edges.length) {
  for (var i=0;i<edges.length;i++) {
    if (edges[i].id.substr(0,4)=='edge') {
      edges[i].setAttribute('class','edge');
    }
  }
}
]]></script>
        <defs>
                <circle id="rim" cx="0" cy="0" r="7"/>
                <circle id="rim2" cx="0" cy="0" r="3.5"/>
                <g id="zoomPlus">
                        <use xlink:href="#rim" fill="#404040">
                                <set attributeName="fill" to="#808080" begin="zoomplus.mouseover" end="zoomplus.mouseout"/>
                        </use>
                        <path d="M-4,0h8M0,-4v8" fill="none" stroke="white" stroke-width="1.5" pointer-events="none"/>
                </g>
                <g id="zoomMin">
                        <use xlink:href="#rim" fill="#404040">
                                <set attributeName="fill" to="#808080" begin="zoomminus.mouseover" end="zoomminus.mouseout"/>
                        </use>
                        <path d="M-4,0h8" fill="none" stroke="white" stroke-width="1.5" pointer-events="none"/>
                </g>
                <g id="dirArrow">
                        <path fill="none" stroke="white" stroke-width="1.5" d="M0,-3.0v7 M-2.5,-0.5L0,-3.0L2.5,-0.5"/>
                </g>
               <g id="resetDef">
                       <use xlink:href="#rim2" fill="#404040">
                               <set attributeName="fill" to="#808080" begin="reset.mouseover" end="reset.mouseout"/>
                       </use>
               </g>
        </defs>

<script type="text/javascript">
var viewWidth = 776;
var viewHeight = 791;
var sectionId = 'dynsection-0';
</script>
<script xlink:href="../../svgpan.js"/>
<svg id="graph" class="graph">
<g id="viewport">
<title>parser.nodes.SimpleNode</title>
<polygon fill="white" stroke="none" points="-4,4 -4,-787 772,-787 772,4 -4,4"/>
<!-- Node1 -->
<g id="node1" class="node"><title>Node1</title>
<polygon fill="#bfbfbf" stroke="black" points="176,-319.5 176,-338.5 316,-338.5 316,-319.5 176,-319.5"/>
<text text-anchor="middle" x="246" y="-326.5" font-family="Helvetica,sans-Serif" font-size="10.00">parser.nodes.SimpleNode</text>
</g>
<!-- Node3 -->
<g id="node3" class="node"><title>Node3</title>
<g id="a_node3"><a xlink:href="../../d4/d4c/classparser_1_1nodes_1_1_basic_control.html" target="_top" xlink:title="parser.nodes.BasicControl">
<polygon fill="white" stroke="black" points="360,-376.5 360,-395.5 502,-395.5 502,-376.5 360,-376.5"/>
<text text-anchor="middle" x="431" y="-383.5" font-family="Helvetica,sans-Serif" font-size="10.00">parser.nodes.BasicControl</text>
</a>
</g>
</g>
<!-- Node1&#45;&gt;Node3 -->
<g id="edge2" class="edge"><title>Node1&#45;&gt;Node3</title>
<path fill="none" stroke="midnightblue" d="M280.441,-342.151C300.916,-349.94 327.757,-359.684 352,-367 363.342,-370.423 375.751,-373.667 387.268,-376.474"/>
<polygon fill="midnightblue" stroke="midnightblue" points="281.53,-338.82 270.94,-338.504 279.021,-345.355 281.53,-338.82"/>
</g>
<!-- Node21 -->
<g id="node21" class="node"><title>Node21</title>
<g id="a_node21"><a xlink:href="../../df/ddc/classparser_1_1nodes_1_1_command_node.html" target="_top" xlink:title="parser.nodes.CommandNode">
<polygon fill="white" stroke="black" points="352,-338.5 352,-357.5 510,-357.5 510,-338.5 352,-338.5"/>
<text text-anchor="middle" x="431" y="-345.5" font-family="Helvetica,sans-Serif" font-size="10.00">parser.nodes.CommandNode</text>
</a>
</g>
</g>
<!-- Node1&#45;&gt;Node21 -->
<g id="edge20" class="edge"><title>Node1&#45;&gt;Node21</title>
<path fill="none" stroke="midnightblue" d="M326.387,-337.242C334.825,-338.118 343.402,-339.009 351.825,-339.884"/>
<polygon fill="midnightblue" stroke="midnightblue" points="326.492,-333.735 316.184,-336.183 325.77,-340.697 326.492,-333.735"/>
</g>
<!-- Node22 -->
<g id="node22" class="node"><title>Node22</title>
<g id="a_node22"><a xlink:href="../../d7/dc9/classparser_1_1nodes_1_1_constant_node.html" target="_top" xlink:title="parser.nodes.ConstantNode">
<polygon fill="white" stroke="black" points="355.5,-300.5 355.5,-319.5 506.5,-319.5 506.5,-300.5 355.5,-300.5"/>
<text text-anchor="middle" x="431" y="-307.5" font-family="Helvetica,sans-Serif" font-size="10.00">parser.nodes.ConstantNode</text>
</a>
</g>
</g>
<!-- Node1&#45;&gt;Node22 -->
<g id="edge21" class="edge"><title>Node1&#45;&gt;Node22</title>
<path fill="none" stroke="midnightblue" d="M326.153,-320.782C335.801,-319.78 345.635,-318.759 355.216,-317.764"/>
<polygon fill="midnightblue" stroke="midnightblue" points="325.77,-317.303 316.184,-321.817 326.492,-324.265 325.77,-317.303"/>
</g>
<!-- Node23 -->
<g id="node23" class="node"><title>Node23</title>
<g id="a_node23"><a xlink:href="../../d4/d75/classparser_1_1nodes_1_1_variable_node.html" target="_top" xlink:title="parser.nodes.VariableNode">
<polygon fill="white" stroke="black" points="358,-262.5 358,-281.5 504,-281.5 504,-262.5 358,-262.5"/>
<text text-anchor="middle" x="431" y="-269.5" font-family="Helvetica,sans-Serif" font-size="10.00">parser.nodes.VariableNode</text>
</a>
</g>
</g>
<!-- Node1&#45;&gt;Node23 -->
<g id="edge22" class="edge"><title>Node1&#45;&gt;Node23</title>
<path fill="none" stroke="midnightblue" d="M280.441,-315.849C300.916,-308.06 327.757,-298.316 352,-291 363.342,-287.577 375.751,-284.333 387.268,-281.526"/>
<polygon fill="midnightblue" stroke="midnightblue" points="279.021,-312.645 270.94,-319.496 281.53,-319.18 279.021,-312.645"/>
</g>
<!-- Node2 -->
<g id="node2" class="node"><title>Node2</title>
<g id="a_node2"><a xlink:href="../../da/d96/classparser_1_1nodes_1_1_syntax_node.html" target="_top" xlink:title="parser.nodes.SyntaxNode">
<polygon fill="white" stroke="black" points="0,-319.5 0,-338.5 140,-338.5 140,-319.5 0,-319.5"/>
<text text-anchor="middle" x="70" y="-326.5" font-family="Helvetica,sans-Serif" font-size="10.00">parser.nodes.SyntaxNode</text>
</a>
</g>
</g>
<!-- Node2&#45;&gt;Node1 -->
<g id="edge1" class="edge"><title>Node2&#45;&gt;Node1</title>
<path fill="none" stroke="midnightblue" d="M150.035,-329C158.625,-329 167.319,-329 175.779,-329"/>
<polygon fill="midnightblue" stroke="midnightblue" points="150.019,-325.5 140.019,-329 150.019,-332.5 150.019,-325.5"/>
</g>
<!-- Node4 -->
<g id="node4" class="node"><title>Node4</title>
<g id="a_node4"><a xlink:href="../../d7/dd6/classparser_1_1commands_1_1turtle_1_1commands_1_1_clear_screen.html" target="_top" xlink:title="parser.commands.turtle.commands.\lClearScreen">
<polygon fill="white" stroke="black" points="561,-753 561,-783 753,-783 753,-753 561,-753"/>
<text text-anchor="start" x="569" y="-771" font-family="Helvetica,sans-Serif" font-size="10.00">parser.commands.turtle.commands.</text>
<text text-anchor="middle" x="657" y="-760" font-family="Helvetica,sans-Serif" font-size="10.00">ClearScreen</text>
</a>
</g>
</g>
<!-- Node3&#45;&gt;Node4 -->
<g id="edge3" class="edge"><title>Node3&#45;&gt;Node4</title>
<path fill="none" stroke="midnightblue" d="M431.942,-405.879C432.905,-466.377 444.456,-649.798 546,-743 550.473,-747.105 555.475,-750.583 560.814,-753.525"/>
<polygon fill="midnightblue" stroke="midnightblue" points="435.441,-405.744 431.866,-395.77 428.441,-405.796 435.441,-405.744"/>
</g>
<!-- Node5 -->
<g id="node5" class="node"><title>Node5</title>
<g id="a_node5"><a xlink:href="../../d7/d9c/classparser_1_1commands_1_1turtle_1_1commands_1_1_clear_stamps.html" target="_top" xlink:title="parser.commands.turtle.commands.\lClearStamps">
<polygon fill="white" stroke="black" points="561,-704 561,-734 753,-734 753,-704 561,-704"/>
<text text-anchor="start" x="569" y="-722" font-family="Helvetica,sans-Serif" font-size="10.00">parser.commands.turtle.commands.</text>
<text text-anchor="middle" x="657" y="-711" font-family="Helvetica,sans-Serif" font-size="10.00">ClearStamps</text>
</a>
</g>
</g>
<!-- Node3&#45;&gt;Node5 -->
<g id="edge4" class="edge"><title>Node3&#45;&gt;Node5</title>
<path fill="none" stroke="midnightblue" d="M433.077,-405.656C437.181,-460.372 456.548,-615.562 546,-694 550.491,-697.938 555.473,-701.293 560.766,-704.147"/>
<polygon fill="midnightblue" stroke="midnightblue" points="436.562,-405.318 432.413,-395.569 429.577,-405.778 436.562,-405.318"/>
</g>
<!-- Node6 -->
<g id="node6" class="node"><title>Node6</title>
<g id="a_node6"><a xlink:href="../../dd/d89/classparser_1_1commands_1_1turtle_1_1commands_1_1_hide_turtle.html" target="_top" xlink:title="parser.commands.turtle.commands.\lHideTurtle">
<polygon fill="white" stroke="black" points="561,-655 561,-685 753,-685 753,-655 561,-655"/>
<text text-anchor="start" x="569" y="-673" font-family="Helvetica,sans-Serif" font-size="10.00">parser.commands.turtle.commands.</text>
<text text-anchor="middle" x="657" y="-662" font-family="Helvetica,sans-Serif" font-size="10.00">HideTurtle</text>
</a>
</g>
</g>
<!-- Node3&#45;&gt;Node6 -->
<g id="edge5" class="edge"><title>Node3&#45;&gt;Node6</title>
<path fill="none" stroke="midnightblue" d="M434.616,-405.726C442.168,-454.454 468.642,-581.177 546,-645 550.683,-648.864 555.845,-652.158 561.301,-654.965"/>
<polygon fill="midnightblue" stroke="midnightblue" points="438.044,-404.979 433.148,-395.583 431.117,-405.981 438.044,-404.979"/>
</g>
<!-- Node7 -->
<g id="node7" class="node"><title>Node7</title>
<g id="a_node7"><a xlink:href="../../df/d5b/classparser_1_1commands_1_1turtle_1_1commands_1_1_home.html" target="_top" xlink:title="parser.commands.turtle.commands.Home">
<polygon fill="white" stroke="black" points="546.5,-616.5 546.5,-635.5 767.5,-635.5 767.5,-616.5 546.5,-616.5"/>
<text text-anchor="middle" x="657" y="-623.5" font-family="Helvetica,sans-Serif" font-size="10.00">parser.commands.turtle.commands.Home</text>
</a>
</g>
</g>
<!-- Node3&#45;&gt;Node7 -->
<g id="edge6" class="edge"><title>Node3&#45;&gt;Node7</title>
<path fill="none" stroke="midnightblue" d="M436.102,-405.885C446.261,-449.754 476.931,-554.973 546,-606 551.698,-610.21 558.008,-613.626 564.639,-616.389"/>
<polygon fill="midnightblue" stroke="midnightblue" points="439.472,-404.913 433.904,-395.9 432.636,-406.419 439.472,-404.913"/>
</g>
<!-- Node8 -->
<g id="node8" class="node"><title>Node8</title>
<g id="a_node8"><a xlink:href="../../d0/df3/classparser_1_1commands_1_1turtle_1_1commands_1_1_pen_down.html" target="_top" xlink:title="parser.commands.turtle.commands.\lPenDown">
<polygon fill="white" stroke="black" points="561,-567 561,-597 753,-597 753,-567 561,-567"/>
<text text-anchor="start" x="569" y="-585" font-family="Helvetica,sans-Serif" font-size="10.00">parser.commands.turtle.commands.</text>
<text text-anchor="middle" x="657" y="-574" font-family="Helvetica,sans-Serif" font-size="10.00">PenDown</text>
</a>
</g>
</g>
<!-- Node3&#45;&gt;Node8 -->
<g id="edge7" class="edge"><title>Node3&#45;&gt;Node8</title>
<path fill="none" stroke="midnightblue" d="M439.206,-405.363C453.619,-441.283 489.545,-518.117 546,-557 551.645,-560.888 557.803,-564.18 564.227,-566.967"/>
<polygon fill="midnightblue" stroke="midnightblue" points="442.305,-403.673 435.425,-395.616 435.778,-406.205 442.305,-403.673"/>
</g>
<!-- Node9 -->
<g id="node9" class="node"><title>Node9</title>
<g id="a_node9"><a xlink:href="../../da/d5a/classparser_1_1commands_1_1turtle_1_1commands_1_1_pen_up.html" target="_top" xlink:title="parser.commands.turtle.commands.\lPenUp">
<polygon fill="white" stroke="black" points="561,-518 561,-548 753,-548 753,-518 561,-518"/>
<text text-anchor="start" x="569" y="-536" font-family="Helvetica,sans-Serif" font-size="10.00">parser.commands.turtle.commands.</text>
<text text-anchor="middle" x="657" y="-525" font-family="Helvetica,sans-Serif" font-size="10.00">PenUp</text>
</a>
</g>
</g>
<!-- Node3&#45;&gt;Node9 -->
<g id="edge8" class="edge"><title>Node3&#45;&gt;Node9</title>
<path fill="none" stroke="midnightblue" d="M443.726,-404.285C462.105,-431.373 500.354,-481.781 546,-508 552.793,-511.902 560.148,-515.195 567.725,-517.974"/>
<polygon fill="midnightblue" stroke="midnightblue" points="446.515,-402.157 438.074,-395.753 440.679,-406.023 446.515,-402.157"/>
</g>
<!-- Node10 -->
<g id="node10" class="node"><title>Node10</title>
<g id="a_node10"><a xlink:href="../../da/dd8/classparser_1_1commands_1_1turtle_1_1commands_1_1_show_turtle.html" target="_top" xlink:title="parser.commands.turtle.commands.\lShowTurtle">
<polygon fill="white" stroke="black" points="561,-469 561,-499 753,-499 753,-469 561,-469"/>
<text text-anchor="start" x="569" y="-487" font-family="Helvetica,sans-Serif" font-size="10.00">parser.commands.turtle.commands.</text>
<text text-anchor="middle" x="657" y="-476" font-family="Helvetica,sans-Serif" font-size="10.00">ShowTurtle</text>
</a>
</g>
</g>
<!-- Node3&#45;&gt;Node10 -->
<g id="edge9" class="edge"><title>Node3&#45;&gt;Node10</title>
<path fill="none" stroke="midnightblue" d="M452.022,-401.899C473.896,-418.506 510.561,-444.162 546,-459 555.123,-462.82 564.927,-466.105 574.788,-468.919"/>
<polygon fill="midnightblue" stroke="midnightblue" points="453.92,-398.943 443.865,-395.603 449.642,-404.484 453.92,-398.943"/>
</g>
<!-- Node11 -->
<g id="node11" class="node"><title>Node11</title>
<g id="a_node11"><a xlink:href="../../d3/d25/classparser_1_1commands_1_1turtle_1_1commands_1_1_stamp.html" target="_top" xlink:title="parser.commands.turtle.commands.\lStamp">
<polygon fill="white" stroke="black" points="561,-420 561,-450 753,-450 753,-420 561,-420"/>
<text text-anchor="start" x="569" y="-438" font-family="Helvetica,sans-Serif" font-size="10.00">parser.commands.turtle.commands.</text>
<text text-anchor="middle" x="657" y="-427" font-family="Helvetica,sans-Serif" font-size="10.00">Stamp</text>
</a>
</g>
</g>
<!-- Node3&#45;&gt;Node11 -->
<g id="edge10" class="edge"><title>Node3&#45;&gt;Node11</title>
<path fill="none" stroke="midnightblue" d="M485.455,-397.693C515.91,-404.355 554.399,-412.775 587.103,-419.929"/>
<polygon fill="midnightblue" stroke="midnightblue" points="485.972,-394.224 475.455,-395.506 484.476,-401.062 485.972,-394.224"/>
</g>
<!-- Node12 -->
<g id="node12" class="node"><title>Node12</title>
<g id="a_node12"><a xlink:href="../../d7/d77/classparser_1_1commands_1_1turtle_1_1queries_1_1_heading.html" target="_top" xlink:title="parser.commands.turtle.queries.\lHeading">
<polygon fill="white" stroke="black" points="570.5,-371 570.5,-401 743.5,-401 743.5,-371 570.5,-371"/>
<text text-anchor="start" x="578.5" y="-389" font-family="Helvetica,sans-Serif" font-size="10.00">parser.commands.turtle.queries.</text>
<text text-anchor="middle" x="657" y="-378" font-family="Helvetica,sans-Serif" font-size="10.00">Heading</text>
</a>
</g>
</g>
<!-- Node3&#45;&gt;Node12 -->
<g id="edge11" class="edge"><title>Node3&#45;&gt;Node12</title>
<path fill="none" stroke="midnightblue" d="M512.266,-386C531.082,-386 551.201,-386 570.246,-386"/>
<polygon fill="midnightblue" stroke="midnightblue" points="512.26,-382.5 502.26,-386 512.26,-389.5 512.26,-382.5"/>
</g>
<!-- Node13 -->
<g id="node13" class="node"><title>Node13</title>
<g id="a_node13"><a xlink:href="../../d5/d57/classparser_1_1commands_1_1turtle_1_1queries_1_1_is_pen_down.html" target="_top" xlink:title="parser.commands.turtle.queries.\lIsPenDown">
<polygon fill="white" stroke="black" points="570.5,-322 570.5,-352 743.5,-352 743.5,-322 570.5,-322"/>
<text text-anchor="start" x="578.5" y="-340" font-family="Helvetica,sans-Serif" font-size="10.00">parser.commands.turtle.queries.</text>
<text text-anchor="middle" x="657" y="-329" font-family="Helvetica,sans-Serif" font-size="10.00">IsPenDown</text>
</a>
</g>
</g>
<!-- Node3&#45;&gt;Node13 -->
<g id="edge12" class="edge"><title>Node3&#45;&gt;Node13</title>
<path fill="none" stroke="midnightblue" d="M485.076,-374.348C504.271,-370.138 526.11,-365.351 546,-361 559.271,-358.097 573.444,-355.001 587.05,-352.032"/>
<polygon fill="midnightblue" stroke="midnightblue" points="484.322,-370.93 475.304,-376.492 485.822,-377.768 484.322,-370.93"/>
</g>
<!-- Node14 -->
<g id="node14" class="node"><title>Node14</title>
<g id="a_node14"><a xlink:href="../../de/dfc/classparser_1_1commands_1_1turtle_1_1queries_1_1_is_showing.html" target="_top" xlink:title="parser.commands.turtle.queries.\lIsShowing">
<polygon fill="white" stroke="black" points="570.5,-273 570.5,-303 743.5,-303 743.5,-273 570.5,-273"/>
<text text-anchor="start" x="578.5" y="-291" font-family="Helvetica,sans-Serif" font-size="10.00">parser.commands.turtle.queries.</text>
<text text-anchor="middle" x="657" y="-280" font-family="Helvetica,sans-Serif" font-size="10.00">IsShowing</text>
</a>
</g>
</g>
<!-- Node3&#45;&gt;Node14 -->
<g id="edge13" class="edge"><title>Node3&#45;&gt;Node14</title>
<path fill="none" stroke="midnightblue" d="M501.341,-372.225C504.363,-370.665 507.268,-368.93 510,-367 533.861,-350.142 521.938,-328.569 546,-312 553.406,-306.901 561.701,-302.859 570.328,-299.66"/>
<polygon fill="midnightblue" stroke="midnightblue" points="499.689,-369.13 491.981,-376.399 502.539,-375.523 499.689,-369.13"/>
</g>
<!-- Node15 -->
<g id="node15" class="node"><title>Node15</title>
<g id="a_node15"><a xlink:href="../../d3/dab/classparser_1_1commands_1_1turtle_1_1queries_1_1_pen_color.html" target="_top" xlink:title="parser.commands.turtle.queries.\lPenColor">
<polygon fill="white" stroke="black" points="570.5,-224 570.5,-254 743.5,-254 743.5,-224 570.5,-224"/>
<text text-anchor="start" x="578.5" y="-242" font-family="Helvetica,sans-Serif" font-size="10.00">parser.commands.turtle.queries.</text>
<text text-anchor="middle" x="657" y="-231" font-family="Helvetica,sans-Serif" font-size="10.00">PenColor</text>
</a>
</g>
</g>
<!-- Node3&#45;&gt;Node15 -->
<g id="edge14" class="edge"><title>Node3&#45;&gt;Node15</title>
<path fill="none" stroke="midnightblue" d="M504.55,-371.328C506.459,-370.002 508.283,-368.562 510,-367 546.179,-334.082 509.427,-295.479 546,-263 553.088,-256.705 561.439,-251.934 570.319,-248.335"/>
<polygon fill="midnightblue" stroke="midnightblue" points="502.603,-368.41 495.695,-376.444 506.105,-374.471 502.603,-368.41"/>
</g>
<!-- Node16 -->
<g id="node16" class="node"><title>Node16</title>
<g id="a_node16"><a xlink:href="../../d9/d77/classparser_1_1commands_1_1turtle_1_1queries_1_1_shape.html" target="_top" xlink:title="parser.commands.turtle.queries.\lShape">
<polygon fill="white" stroke="black" points="570.5,-175 570.5,-205 743.5,-205 743.5,-175 570.5,-175"/>
<text text-anchor="start" x="578.5" y="-193" font-family="Helvetica,sans-Serif" font-size="10.00">parser.commands.turtle.queries.</text>
<text text-anchor="middle" x="657" y="-182" font-family="Helvetica,sans-Serif" font-size="10.00">Shape</text>
</a>
</g>
</g>
<!-- Node3&#45;&gt;Node16 -->
<g id="edge15" class="edge"><title>Node3&#45;&gt;Node16</title>
<path fill="none" stroke="midnightblue" d="M505.947,-370.635C507.363,-369.502 508.718,-368.292 510,-367 559.202,-317.41 496.203,-262.993 546,-214 552.967,-207.146 561.408,-202.053 570.483,-198.296"/>
<polygon fill="midnightblue" stroke="midnightblue" points="503.706,-367.918 497.239,-376.311 507.528,-373.782 503.706,-367.918"/>
</g>
<!-- Node17 -->
<g id="node17" class="node"><title>Node17</title>
<g id="a_node17"><a xlink:href="../../dc/da7/classparser_1_1commands_1_1turtle_1_1queries_1_1_x_cor.html" target="_top" xlink:title="parser.commands.turtle.queries.XCor">
<polygon fill="white" stroke="black" points="559.5,-136.5 559.5,-155.5 754.5,-155.5 754.5,-136.5 559.5,-136.5"/>
<text text-anchor="middle" x="657" y="-143.5" font-family="Helvetica,sans-Serif" font-size="10.00">parser.commands.turtle.queries.XCor</text>
</a>
</g>
</g>
<!-- Node3&#45;&gt;Node17 -->
<g id="edge16" class="edge"><title>Node3&#45;&gt;Node17</title>
<path fill="none" stroke="midnightblue" d="M506.153,-370.637C507.501,-369.503 508.786,-368.292 510,-367 572.434,-300.532 481.346,-229.311 546,-165 549.985,-161.037 554.478,-157.727 559.314,-154.975"/>
<polygon fill="midnightblue" stroke="midnightblue" points="504.11,-367.794 497.831,-376.328 508.061,-373.572 504.11,-367.794"/>
</g>
<!-- Node18 -->
<g id="node18" class="node"><title>Node18</title>
<g id="a_node18"><a xlink:href="../../d5/d3e/classparser_1_1commands_1_1turtle_1_1queries_1_1_y_cor.html" target="_top" xlink:title="parser.commands.turtle.queries.YCor">
<polygon fill="white" stroke="black" points="560,-98.5 560,-117.5 754,-117.5 754,-98.5 560,-98.5"/>
<text text-anchor="middle" x="657" y="-105.5" font-family="Helvetica,sans-Serif" font-size="10.00">parser.commands.turtle.queries.YCor</text>
</a>
</g>
</g>
<!-- Node3&#45;&gt;Node18 -->
<g id="edge17" class="edge"><title>Node3&#45;&gt;Node18</title>
<path fill="none" stroke="midnightblue" d="M506.202,-370.682C507.535,-369.534 508.804,-368.309 510,-367 582.759,-287.376 470.581,-204.108 546,-127 550.133,-122.774 554.843,-119.286 559.933,-116.419"/>
<polygon fill="midnightblue" stroke="midnightblue" points="504.15,-367.846 497.946,-376.434 508.151,-373.589 504.15,-367.846"/>
</g>
<!-- Node19 -->
<g id="node19" class="node"><title>Node19</title>
<g id="a_node19"><a xlink:href="../../d7/df1/classparser_1_1commands_1_1workspace_1_1_tell_even.html" target="_top" xlink:title="parser.commands.workspace.\lTellEven">
<polygon fill="white" stroke="black" points="577,-49 577,-79 737,-79 737,-49 577,-49"/>
<text text-anchor="start" x="585" y="-67" font-family="Helvetica,sans-Serif" font-size="10.00">parser.commands.workspace.</text>
<text text-anchor="middle" x="657" y="-56" font-family="Helvetica,sans-Serif" font-size="10.00">TellEven</text>
</a>
</g>
</g>
<!-- Node3&#45;&gt;Node19 -->
<g id="edge18" class="edge"><title>Node3&#45;&gt;Node19</title>
<path fill="none" stroke="midnightblue" d="M506.693,-370.31C507.849,-369.27 508.954,-368.168 510,-367 593.113,-274.187 462.172,-181.167 546,-89 554.302,-79.8725 565.179,-73.7234 576.862,-69.6396"/>
<polygon fill="midnightblue" stroke="midnightblue" points="504.45,-367.612 498.39,-376.303 508.547,-373.288 504.45,-367.612"/>
</g>
<!-- Node20 -->
<g id="node20" class="node"><title>Node20</title>
<g id="a_node20"><a xlink:href="../../d7/d84/classparser_1_1commands_1_1workspace_1_1_tell_odd.html" target="_top" xlink:title="parser.commands.workspace.\lTellOdd">
<polygon fill="white" stroke="black" points="577,-0 577,-30 737,-30 737,-0 577,-0"/>
<text text-anchor="start" x="585" y="-18" font-family="Helvetica,sans-Serif" font-size="10.00">parser.commands.workspace.</text>
<text text-anchor="middle" x="657" y="-7" font-family="Helvetica,sans-Serif" font-size="10.00">TellOdd</text>
</a>
</g>
</g>
<!-- Node3&#45;&gt;Node20 -->
<g id="edge19" class="edge"><title>Node3&#45;&gt;Node20</title>
<path fill="none" stroke="midnightblue" d="M506.724,-370.338C507.871,-369.29 508.965,-368.178 510,-367 606.766,-256.802 447.912,-148.023 546,-39 554.236,-29.8455 565.081,-23.7432 576.751,-19.7454"/>
<polygon fill="midnightblue" stroke="midnightblue" points="504.476,-367.646 498.471,-376.375 508.609,-373.296 504.476,-367.646"/>
</g>
</g>
</svg>
        <g id="navigator" transform="translate(0 0)" fill="#404254">
                <rect fill="#f2f5e9" fill-opacity="0.5" stroke="#606060" stroke-width=".5" x="0" y="0" width="60" height="60"/>
                <use id="zoomplus" xlink:href="#zoomPlus" x="17" y="9" onmousedown="handleZoom(evt,'in')"/>
                <use id="zoomminus" xlink:href="#zoomMin" x="42" y="9" onmousedown="handleZoom(evt,'out')"/>
                <use id="reset" xlink:href="#resetDef" x="30" y="36" onmousedown="handleReset()"/>
                <g id="arrowUp" xlink:href="#dirArrow" transform="translate(30 24)" onmousedown="handlePan(0,-1)">
                  <use xlink:href="#rim" fill="#404040">
                        <set attributeName="fill" to="#808080" begin="arrowUp.mouseover" end="arrowUp.mouseout"/>
                  </use>
                  <path fill="none" stroke="white" stroke-width="1.5" d="M0,-3.0v7 M-2.5,-0.5L0,-3.0L2.5,-0.5"/>
                </g>
                <g id="arrowRight" xlink:href="#dirArrow" transform="rotate(90) translate(36 -43)" onmousedown="handlePan(1,0)">
                  <use xlink:href="#rim" fill="#404040">
                        <set attributeName="fill" to="#808080" begin="arrowRight.mouseover" end="arrowRight.mouseout"/>
                  </use>
                  <path fill="none" stroke="white" stroke-width="1.5" d="M0,-3.0v7 M-2.5,-0.5L0,-3.0L2.5,-0.5"/>
                </g>
                <g id="arrowDown" xlink:href="#dirArrow" transform="rotate(180) translate(-30 -48)" onmousedown="handlePan(0,1)">
                  <use xlink:href="#rim" fill="#404040">
                        <set attributeName="fill" to="#808080" begin="arrowDown.mouseover" end="arrowDown.mouseout"/>
                  </use>
                  <path fill="none" stroke="white" stroke-width="1.5" d="M0,-3.0v7 M-2.5,-0.5L0,-3.0L2.5,-0.5"/>
                </g>
                <g id="arrowLeft" xlink:href="#dirArrow" transform="rotate(270) translate(-36 17)" onmousedown="handlePan(-1,0)">
                  <use xlink:href="#rim" fill="#404040">
                        <set attributeName="fill" to="#808080" begin="arrowLeft.mouseover" end="arrowLeft.mouseout"/>
                  </use>
                  <path fill="none" stroke="white" stroke-width="1.5" d="M0,-3.0v7 M-2.5,-0.5L0,-3.0L2.5,-0.5"/>
                </g>
        </g>
        <svg viewBox="0 0 15 15" width="100%" height="30px" preserveAspectRatio="xMaxYMin meet">
         <g id="arrow_out" transform="scale(0.3 0.3)">
          <a xlink:href="classparser_1_1nodes_1_1_simple_node__inherit__graph_org.svg" target="_base">
           <rect id="button" ry="5" rx="5" y="6" x="6" height="38" width="38"
                fill="#f2f5e9" fill-opacity="0.5" stroke="#606060" stroke-width="1.0"/>
           <path id="arrow"
             d="M 11.500037,31.436501 C 11.940474,20.09759 22.043105,11.32322 32.158766,21.979434 L 37.068811,17.246167 C 37.068811,17.246167 37.088388,32 37.088388,32 L 22.160133,31.978069 C 22.160133,31.978069 26.997745,27.140456 26.997745,27.140456 C 18.528582,18.264221 13.291696,25.230495 11.500037,31.436501 z"
             style="fill:#404040;"/>
          </a>
         </g>
        </svg>
</svg>
