<?xml version="1.0" encoding="UTF-8" standalone="no"?>
<!DOCTYPE svg PUBLIC "-//W3C//DTD SVG 1.1//EN"
 "http://www.w3.org/Graphics/SVG/1.1/DTD/svg11.dtd">
<!-- Generated by graphviz version 2.36.0 (20140111.2315)
 -->
<!-- Title: view.labels.LogoLabel Pages: 1 -->
<svg width="290pt" height="140pt"
 viewBox="0.00 0.00 290.00 140.00" xmlns="http://www.w3.org/2000/svg" xmlns:xlink="http://www.w3.org/1999/xlink">
<g id="graph0" class="graph" transform="scale(1 1) rotate(0) translate(4 136)">
<title>view.labels.LogoLabel</title>
<polygon fill="white" stroke="none" points="-4,4 -4,-136 286,-136 286,4 -4,4"/>
<!-- Node1 -->
<g id="node1" class="node"><title>Node1</title>
<polygon fill="#bfbfbf" stroke="black" points="90.5,-56.5 90.5,-75.5 209.5,-75.5 209.5,-56.5 90.5,-56.5"/>
<text text-anchor="middle" x="150" y="-63.5" font-family="Helvetica,sans-Serif" font-size="10.00">view.labels.LogoLabel</text>
</g>
<!-- Node3 -->
<g id="node3" class="node"><title>Node3</title>
<g id="a_node3"><a xlink:href="../../d2/de9/classview_1_1labels_1_1_information_label.html" target="_top" xlink:title="view.labels.InformationLabel">
<polygon fill="white" stroke="black" points="0,-0.5 0,-19.5 150,-19.5 150,-0.5 0,-0.5"/>
<text text-anchor="middle" x="75" y="-7.5" font-family="Helvetica,sans-Serif" font-size="10.00">view.labels.InformationLabel</text>
</a>
</g>
</g>
<!-- Node1&#45;&gt;Node3 -->
<g id="edge2" class="edge"><title>Node1&#45;&gt;Node3</title>
<path fill="none" stroke="midnightblue" d="M129.695,-50.3804C116.139,-40.6204 98.7579,-28.1057 87.2693,-19.8339"/>
<polygon fill="midnightblue" stroke="midnightblue" points="127.79,-53.3213 137.95,-56.324 131.88,-47.6405 127.79,-53.3213"/>
</g>
<!-- Node4 -->
<g id="node4" class="node"><title>Node4</title>
<g id="a_node4"><a xlink:href="../../da/d16/classview_1_1labels_1_1_title_label.html" target="_top" xlink:title="view.labels.TitleLabel">
<polygon fill="white" stroke="black" points="167.5,-0.5 167.5,-19.5 282.5,-19.5 282.5,-0.5 167.5,-0.5"/>
<text text-anchor="middle" x="225" y="-7.5" font-family="Helvetica,sans-Serif" font-size="10.00">view.labels.TitleLabel</text>
</a>
</g>
</g>
<!-- Node1&#45;&gt;Node4 -->
<g id="edge3" class="edge"><title>Node1&#45;&gt;Node4</title>
<path fill="none" stroke="midnightblue" d="M170.305,-50.3804C183.861,-40.6204 201.242,-28.1057 212.731,-19.8339"/>
<polygon fill="midnightblue" stroke="midnightblue" points="168.12,-47.6405 162.05,-56.324 172.21,-53.3213 168.12,-47.6405"/>
</g>
<!-- Node2 -->
<g id="node2" class="node"><title>Node2</title>
<polygon fill="white" stroke="#bfbfbf" points="128,-112.5 128,-131.5 172,-131.5 172,-112.5 128,-112.5"/>
<text text-anchor="middle" x="150" y="-119.5" font-family="Helvetica,sans-Serif" font-size="10.00">JLabel</text>
</g>
<!-- Node2&#45;&gt;Node1 -->
<g id="edge1" class="edge"><title>Node2&#45;&gt;Node1</title>
<path fill="none" stroke="midnightblue" d="M150,-101.805C150,-92.9102 150,-82.7798 150,-75.7511"/>
<polygon fill="midnightblue" stroke="midnightblue" points="146.5,-102.083 150,-112.083 153.5,-102.083 146.5,-102.083"/>
</g>
</g>
</svg>
