<?xml version="1.0" encoding="UTF-8" standalone="no"?>
<!DOCTYPE svg PUBLIC "-//W3C//DTD SVG 1.1//EN"
 "http://www.w3.org/Graphics/SVG/1.1/DTD/svg11.dtd">
<!-- Generated by graphviz version 2.36.0 (20140111.2315)
 -->
<!-- Title: view.windows.InformationView.setLabels Pages: 1 -->
<svg width="350pt" height="87pt"
 viewBox="0.00 0.00 350.00 87.00" xmlns="http://www.w3.org/2000/svg" xmlns:xlink="http://www.w3.org/1999/xlink">
<g id="graph0" class="graph" transform="scale(1 1) rotate(0) translate(4 83)">
<title>view.windows.InformationView.setLabels</title>
<polygon fill="white" stroke="none" points="-4,4 -4,-83 346,-83 346,4 -4,4"/>
<!-- Node1 -->
<g id="node1" class="node"><title>Node1</title>
<polygon fill="#bfbfbf" stroke="black" points="0,-24 0,-54 136,-54 136,-24 0,-24"/>
<text text-anchor="start" x="8" y="-42" font-family="Helvetica,sans-Serif" font-size="10.00">view.windows.Information</text>
<text text-anchor="middle" x="68" y="-31" font-family="Helvetica,sans-Serif" font-size="10.00">View.setLabels</text>
</g>
<!-- Node2 -->
<g id="node2" class="node"><title>Node2</title>
<g id="a_node2"><a xlink:href="../../da/d16/classview_1_1labels_1_1_title_label.html#afcb94c2c4ed76f374c88204eaf49a29b" target="_top" xlink:title="view.labels.TitleLabel.get\lGridBagConstraints">
<polygon fill="white" stroke="black" points="190,-49 190,-79 324,-79 324,-49 190,-49"/>
<text text-anchor="start" x="198" y="-67" font-family="Helvetica,sans-Serif" font-size="10.00">view.labels.TitleLabel.get</text>
<text text-anchor="middle" x="257" y="-56" font-family="Helvetica,sans-Serif" font-size="10.00">GridBagConstraints</text>
</a>
</g>
</g>
<!-- Node1&#45;&gt;Node2 -->
<g id="edge1" class="edge"><title>Node1&#45;&gt;Node2</title>
<path fill="none" stroke="midnightblue" d="M136.247,-47.9903C150.455,-49.8897 165.543,-51.9068 180.046,-53.8457"/>
<polygon fill="midnightblue" stroke="midnightblue" points="179.6,-57.3172 189.976,-55.1732 180.528,-50.3789 179.6,-57.3172"/>
</g>
<!-- Node3 -->
<g id="node3" class="node"><title>Node3</title>
<g id="a_node3"><a xlink:href="../../d2/de9/classview_1_1labels_1_1_information_label.html#a13103fb6d78e5f049092c003ebdcfbf3" target="_top" xlink:title="view.labels.InformationLabel.get\lGridBagConstraints">
<polygon fill="white" stroke="black" points="172.5,-0 172.5,-30 341.5,-30 341.5,-0 172.5,-0"/>
<text text-anchor="start" x="180.5" y="-18" font-family="Helvetica,sans-Serif" font-size="10.00">view.labels.InformationLabel.get</text>
<text text-anchor="middle" x="257" y="-7" font-family="Helvetica,sans-Serif" font-size="10.00">GridBagConstraints</text>
</a>
</g>
</g>
<!-- Node1&#45;&gt;Node3 -->
<g id="edge2" class="edge"><title>Node1&#45;&gt;Node3</title>
<path fill="none" stroke="midnightblue" d="M136.247,-30.3694C144.768,-29.2758 153.605,-28.1416 162.443,-27.0073"/>
<polygon fill="midnightblue" stroke="midnightblue" points="162.932,-30.4734 172.405,-25.7288 162.04,-23.5304 162.932,-30.4734"/>
</g>
</g>
</svg>
