<?xml version="1.0" encoding="UTF-8" standalone="no"?>
<!DOCTYPE svg PUBLIC "-//W3C//DTD SVG 1.1//EN"
 "http://www.w3.org/Graphics/SVG/1.1/DTD/svg11.dtd">
<!-- Generated by graphviz version 2.36.0 (20140111.2315)
 -->
<!-- Title: parser.commands.workspace.Ask Pages: 1 -->
<svg width="184pt" height="196pt"
 viewBox="0.00 0.00 184.00 196.00" xmlns="http://www.w3.org/2000/svg" xmlns:xlink="http://www.w3.org/1999/xlink">
<g id="graph0" class="graph" transform="scale(1 1) rotate(0) translate(4 192)">
<title>parser.commands.workspace.Ask</title>
<polygon fill="white" stroke="none" points="-4,4 -4,-192 180,-192 180,4 -4,4"/>
<!-- Node1 -->
<g id="node1" class="node"><title>Node1</title>
<polygon fill="#bfbfbf" stroke="black" points="-0.5,-0.5 -0.5,-19.5 176.5,-19.5 176.5,-0.5 -0.5,-0.5"/>
<text text-anchor="middle" x="88" y="-7.5" font-family="Helvetica,sans-Serif" font-size="10.00">parser.commands.workspace.Ask</text>
</g>
<!-- Node2 -->
<g id="node2" class="node"><title>Node2</title>
<g id="a_node2"><a xlink:href="../../db/d11/classparser_1_1nodes_1_1_binary_node.html" target="_top" xlink:title="parser.nodes.BinaryNode">
<polygon fill="white" stroke="black" points="19.5,-56.5 19.5,-75.5 156.5,-75.5 156.5,-56.5 19.5,-56.5"/>
<text text-anchor="middle" x="88" y="-63.5" font-family="Helvetica,sans-Serif" font-size="10.00">parser.nodes.BinaryNode</text>
</a>
</g>
</g>
<!-- Node2&#45;&gt;Node1 -->
<g id="edge1" class="edge"><title>Node2&#45;&gt;Node1</title>
<path fill="none" stroke="midnightblue" d="M88,-45.8045C88,-36.9102 88,-26.7798 88,-19.7511"/>
<polygon fill="midnightblue" stroke="midnightblue" points="84.5001,-46.083 88,-56.083 91.5001,-46.083 84.5001,-46.083"/>
</g>
<!-- Node3 -->
<g id="node3" class="node"><title>Node3</title>
<g id="a_node3"><a xlink:href="../../d7/d93/classparser_1_1nodes_1_1_parameter_node.html" target="_top" xlink:title="parser.nodes.ParameterNode">
<polygon fill="white" stroke="black" points="9,-112.5 9,-131.5 167,-131.5 167,-112.5 9,-112.5"/>
<text text-anchor="middle" x="88" y="-119.5" font-family="Helvetica,sans-Serif" font-size="10.00">parser.nodes.ParameterNode</text>
</a>
</g>
</g>
<!-- Node3&#45;&gt;Node2 -->
<g id="edge2" class="edge"><title>Node3&#45;&gt;Node2</title>
<path fill="none" stroke="midnightblue" d="M88,-101.805C88,-92.9102 88,-82.7798 88,-75.7511"/>
<polygon fill="midnightblue" stroke="midnightblue" points="84.5001,-102.083 88,-112.083 91.5001,-102.083 84.5001,-102.083"/>
</g>
<!-- Node4 -->
<g id="node4" class="node"><title>Node4</title>
<g id="a_node4"><a xlink:href="../../da/d96/classparser_1_1nodes_1_1_syntax_node.html" target="_top" xlink:title="parser.nodes.SyntaxNode">
<polygon fill="white" stroke="black" points="18,-168.5 18,-187.5 158,-187.5 158,-168.5 18,-168.5"/>
<text text-anchor="middle" x="88" y="-175.5" font-family="Helvetica,sans-Serif" font-size="10.00">parser.nodes.SyntaxNode</text>
</a>
</g>
</g>
<!-- Node4&#45;&gt;Node3 -->
<g id="edge3" class="edge"><title>Node4&#45;&gt;Node3</title>
<path fill="none" stroke="midnightblue" d="M88,-157.805C88,-148.91 88,-138.78 88,-131.751"/>
<polygon fill="midnightblue" stroke="midnightblue" points="84.5001,-158.083 88,-168.083 91.5001,-158.083 84.5001,-158.083"/>
</g>
</g>
</svg>
