<?xml version="1.0" encoding="UTF-8" standalone="no"?>
<!DOCTYPE svg PUBLIC "-//W3C//DTD SVG 1.1//EN"
 "http://www.w3.org/Graphics/SVG/1.1/DTD/svg11.dtd">
<!-- Generated by graphviz version 2.36.0 (20140111.2315)
 -->
<!-- Title: parser.commands.math.Random Pages: 1 -->
<svg width="319pt" height="224pt"
 viewBox="0.00 0.00 319.00 224.00" xmlns="http://www.w3.org/2000/svg" xmlns:xlink="http://www.w3.org/1999/xlink">
<g id="graph0" class="graph" transform="scale(1 1) rotate(0) translate(4 220)">
<title>parser.commands.math.Random</title>
<polygon fill="white" stroke="none" points="-4,4 -4,-220 315,-220 315,4 -4,4"/>
<!-- Node1 -->
<g id="node1" class="node"><title>Node1</title>
<polygon fill="#bfbfbf" stroke="black" points="64.5,-0.5 64.5,-19.5 239.5,-19.5 239.5,-0.5 64.5,-0.5"/>
<text text-anchor="middle" x="152" y="-7.5" font-family="Helvetica,sans-Serif" font-size="10.00">parser.commands.math.Random</text>
</g>
<!-- Node1&#45;&gt;Node1 -->
<g id="edge5" class="edge"><title>Node1&#45;&gt;Node1</title>
<path fill="none" stroke="#9a32cd" stroke-dasharray="5,2" d="M249.771,-13.3005C254.33,-12.4673 257,-11.3672 257,-10 257,-7.8125 250.164,-6.30859 239.697,-5.48828"/>
<polygon fill="#9a32cd" stroke="#9a32cd" points="249.207,-9.84301 239.697,-14.5117 250.043,-16.793 249.207,-9.84301"/>
<text text-anchor="middle" x="278.5" y="-7.5" font-family="Helvetica,sans-Serif" font-size="10.00"> myRand</text>
</g>
<!-- Node2 -->
<g id="node2" class="node"><title>Node2</title>
<g id="a_node2"><a xlink:href="../../d3/d36/classparser_1_1nodes_1_1_unary_node.html" target="_top" xlink:title="parser.nodes.UnaryNode">
<polygon fill="white" stroke="black" points="84,-58.5 84,-77.5 220,-77.5 220,-58.5 84,-58.5"/>
<text text-anchor="middle" x="152" y="-65.5" font-family="Helvetica,sans-Serif" font-size="10.00">parser.nodes.UnaryNode</text>
</a>
</g>
</g>
<!-- Node2&#45;&gt;Node1 -->
<g id="edge1" class="edge"><title>Node2&#45;&gt;Node1</title>
<path fill="none" stroke="midnightblue" d="M152,-47.953C152,-38.2875 152,-27.0312 152,-19.5052"/>
<polygon fill="midnightblue" stroke="midnightblue" points="148.5,-48.25 152,-58.25 155.5,-48.25 148.5,-48.25"/>
</g>
<!-- Node3 -->
<g id="node3" class="node"><title>Node3</title>
<g id="a_node3"><a xlink:href="../../d7/d93/classparser_1_1nodes_1_1_parameter_node.html" target="_top" xlink:title="parser.nodes.ParameterNode">
<polygon fill="white" stroke="black" points="73,-116.5 73,-135.5 231,-135.5 231,-116.5 73,-116.5"/>
<text text-anchor="middle" x="152" y="-123.5" font-family="Helvetica,sans-Serif" font-size="10.00">parser.nodes.ParameterNode</text>
</a>
</g>
</g>
<!-- Node3&#45;&gt;Node2 -->
<g id="edge2" class="edge"><title>Node3&#45;&gt;Node2</title>
<path fill="none" stroke="midnightblue" d="M152,-105.953C152,-96.2875 152,-85.0312 152,-77.5052"/>
<polygon fill="midnightblue" stroke="midnightblue" points="148.5,-106.25 152,-116.25 155.5,-106.25 148.5,-106.25"/>
</g>
<!-- Node4 -->
<g id="node4" class="node"><title>Node4</title>
<g id="a_node4"><a xlink:href="../../da/d96/classparser_1_1nodes_1_1_syntax_node.html" target="_top" xlink:title="parser.nodes.SyntaxNode">
<polygon fill="white" stroke="black" points="0,-190.5 0,-209.5 140,-209.5 140,-190.5 0,-190.5"/>
<text text-anchor="middle" x="70" y="-197.5" font-family="Helvetica,sans-Serif" font-size="10.00">parser.nodes.SyntaxNode</text>
</a>
</g>
</g>
<!-- Node4&#45;&gt;Node3 -->
<g id="edge3" class="edge"><title>Node4&#45;&gt;Node3</title>
<path fill="none" stroke="midnightblue" d="M87.6627,-183.491C104.378,-168.815 128.852,-147.325 142.284,-135.531"/>
<polygon fill="midnightblue" stroke="midnightblue" points="84.9336,-181.23 79.7285,-190.458 89.5522,-186.49 84.9336,-181.23"/>
</g>
<!-- Node5 -->
<g id="node5" class="node"><title>Node5</title>
<polygon fill="white" stroke="#bfbfbf" points="158.5,-185 158.5,-215 311.5,-215 311.5,-185 158.5,-185"/>
<text text-anchor="start" x="166.5" y="-203" font-family="Helvetica,sans-Serif" font-size="10.00">Map&lt; Integer, parser.nodes.</text>
<text text-anchor="middle" x="235" y="-192" font-family="Helvetica,sans-Serif" font-size="10.00">SyntaxNode &gt;</text>
</g>
<!-- Node5&#45;&gt;Node3 -->
<g id="edge4" class="edge"><title>Node5&#45;&gt;Node3</title>
<path fill="none" stroke="#9a32cd" stroke-dasharray="5,2" d="M211.04,-178.216C194.804,-164.131 174.177,-146.238 162.097,-135.759"/>
<polygon fill="#9a32cd" stroke="#9a32cd" points="208.754,-180.866 218.602,-184.775 213.341,-175.578 208.754,-180.866"/>
<text text-anchor="middle" x="220.5" y="-157.5" font-family="Helvetica,sans-Serif" font-size="10.00"> myNodes</text>
</g>
</g>
</svg>
