<?xml version="1.0" encoding="UTF-8" standalone="no"?>
<!DOCTYPE svg PUBLIC "-//W3C//DTD SVG 1.1//EN"
 "http://www.w3.org/Graphics/SVG/1.1/DTD/svg11.dtd">
<!-- Generated by graphviz version 2.36.0 (20140111.2315)
 -->
<!-- Title: view.components.InputField.setText Pages: 1 -->
<svg width="568pt" height="38pt"
 viewBox="0.00 0.00 568.00 38.00" xmlns="http://www.w3.org/2000/svg" xmlns:xlink="http://www.w3.org/1999/xlink">
<g id="graph0" class="graph" transform="scale(1 1) rotate(0) translate(4 34)">
<title>view.components.InputField.setText</title>
<polygon fill="white" stroke="none" points="-4,4 -4,-34 564,-34 564,4 -4,4"/>
<!-- Node1 -->
<g id="node1" class="node"><title>Node1</title>
<polygon fill="#bfbfbf" stroke="black" points="0,-5.5 0,-24.5 184,-24.5 184,-5.5 0,-5.5"/>
<text text-anchor="middle" x="92" y="-12.5" font-family="Helvetica,sans-Serif" font-size="10.00">view.components.InputField.setText</text>
</g>
<!-- Node2 -->
<g id="node2" class="node"><title>Node2</title>
<g id="a_node2"><a xlink:href="../../d9/df7/classcontroller_1_1_controller.html#a2bfb87bca460d87b2c97e0b5045a2175" target="_top" xlink:title="controller.Controller.create\lRunCommandListener">
<polygon fill="white" stroke="black" points="220.5,-0 220.5,-30 363.5,-30 363.5,-0 220.5,-0"/>
<text text-anchor="start" x="228.5" y="-18" font-family="Helvetica,sans-Serif" font-size="10.00">controller.Controller.create</text>
<text text-anchor="middle" x="292" y="-7" font-family="Helvetica,sans-Serif" font-size="10.00">RunCommandListener</text>
</a>
</g>
</g>
<!-- Node1&#45;&gt;Node2 -->
<g id="edge1" class="edge"><title>Node1&#45;&gt;Node2</title>
<path fill="none" stroke="midnightblue" d="M194.188,-15C203.059,-15 211.908,-15 220.448,-15"/>
<polygon fill="midnightblue" stroke="midnightblue" points="194.176,-11.5001 184.176,-15 194.176,-18.5001 194.176,-11.5001"/>
</g>
<!-- Node3 -->
<g id="node3" class="node"><title>Node3</title>
<g id="a_node3"><a xlink:href="../../d9/df7/classcontroller_1_1_controller.html#a47511ec57338c8e75e71e9314cda5271" target="_top" xlink:title="controller.Controller.Controller">
<polygon fill="white" stroke="black" points="400.5,-5.5 400.5,-24.5 559.5,-24.5 559.5,-5.5 400.5,-5.5"/>
<text text-anchor="middle" x="480" y="-12.5" font-family="Helvetica,sans-Serif" font-size="10.00">controller.Controller.Controller</text>
</a>
</g>
</g>
<!-- Node2&#45;&gt;Node3 -->
<g id="edge2" class="edge"><title>Node2&#45;&gt;Node3</title>
<path fill="none" stroke="midnightblue" d="M373.836,-15C382.644,-15 391.599,-15 400.38,-15"/>
<polygon fill="midnightblue" stroke="midnightblue" points="373.584,-11.5001 363.584,-15 373.584,-18.5001 373.584,-11.5001"/>
</g>
</g>
</svg>
