<?xml version="1.0" encoding="UTF-8" standalone="no"?>
<!DOCTYPE svg PUBLIC "-//W3C//DTD SVG 1.1//EN"
 "http://www.w3.org/Graphics/SVG/1.1/DTD/svg11.dtd">
<!-- Generated by graphviz version 2.36.0 (20140111.2315)
 -->
<!-- Title: view.windows.VariablesWindow.createOkButton Pages: 1 -->
<svg width="608pt" height="202pt"
 viewBox="0.00 0.00 608.00 202.00" xmlns="http://www.w3.org/2000/svg" xmlns:xlink="http://www.w3.org/1999/xlink">
<g id="graph0" class="graph" transform="scale(1 1) rotate(0) translate(4 198)">
<title>view.windows.VariablesWindow.createOkButton</title>
<polygon fill="white" stroke="none" points="-4,4 -4,-198 604,-198 604,4 -4,4"/>
<!-- Node1 -->
<g id="node1" class="node"><title>Node1</title>
<polygon fill="#bfbfbf" stroke="black" points="0.5,-73 0.5,-103 193.5,-103 193.5,-73 0.5,-73"/>
<text text-anchor="start" x="8.5" y="-91" font-family="Helvetica,sans-Serif" font-size="10.00">view.windows.VariablesWindow.create</text>
<text text-anchor="middle" x="97" y="-80" font-family="Helvetica,sans-Serif" font-size="10.00">OkButton</text>
</g>
<!-- Node2 -->
<g id="node2" class="node"><title>Node2</title>
<g id="a_node2"><a xlink:href="../../db/d29/classparser_1_1_variable_manager.html#ab6b4d986f801921f4433d4ef7880b2c6" target="_top" xlink:title="parser.VariableManager.add\lToScope">
<polygon fill="white" stroke="black" points="239,-147 239,-177 389,-177 389,-147 239,-147"/>
<text text-anchor="start" x="247" y="-165" font-family="Helvetica,sans-Serif" font-size="10.00">parser.VariableManager.add</text>
<text text-anchor="middle" x="314" y="-154" font-family="Helvetica,sans-Serif" font-size="10.00">ToScope</text>
</a>
</g>
</g>
<!-- Node1&#45;&gt;Node2 -->
<g id="edge1" class="edge"><title>Node1&#45;&gt;Node2</title>
<path fill="none" stroke="midnightblue" d="M136.471,-103.009C162.682,-113.055 198.253,-126.338 230,-137 236.866,-139.306 244.083,-141.628 251.277,-143.879"/>
<polygon fill="midnightblue" stroke="midnightblue" points="250.451,-147.287 261.039,-146.897 252.518,-140.599 250.451,-147.287"/>
</g>
<!-- Node5 -->
<g id="node5" class="node"><title>Node5</title>
<g id="a_node5"><a xlink:href="../../df/d37/classview_1_1components_1_1_logo_table.html#a1f01ef9e47e2c5582718594dd76055d9" target="_top" xlink:title="view.components.LogoTable.get\lComboBox">
<polygon fill="white" stroke="black" points="230,-98 230,-128 398,-128 398,-98 230,-98"/>
<text text-anchor="start" x="238" y="-116" font-family="Helvetica,sans-Serif" font-size="10.00">view.components.LogoTable.get</text>
<text text-anchor="middle" x="314" y="-105" font-family="Helvetica,sans-Serif" font-size="10.00">ComboBox</text>
</a>
</g>
</g>
<!-- Node1&#45;&gt;Node5 -->
<g id="edge4" class="edge"><title>Node1&#45;&gt;Node5</title>
<path fill="none" stroke="midnightblue" d="M193.554,-99.111C202.26,-100.123 211.071,-101.148 219.757,-102.158"/>
<polygon fill="midnightblue" stroke="midnightblue" points="219.543,-105.656 229.88,-103.335 220.351,-98.7032 219.543,-105.656"/>
</g>
<!-- Node6 -->
<g id="node6" class="node"><title>Node6</title>
<g id="a_node6"><a xlink:href="../../df/d37/classview_1_1components_1_1_logo_table.html#a9b6f7e6d321d7d777aa1d06d2d236be6" target="_top" xlink:title="view.components.LogoTable.set\lLastRowEditable">
<polygon fill="white" stroke="black" points="230.5,-49 230.5,-79 397.5,-79 397.5,-49 230.5,-49"/>
<text text-anchor="start" x="238.5" y="-67" font-family="Helvetica,sans-Serif" font-size="10.00">view.components.LogoTable.set</text>
<text text-anchor="middle" x="314" y="-56" font-family="Helvetica,sans-Serif" font-size="10.00">LastRowEditable</text>
</a>
</g>
</g>
<!-- Node1&#45;&gt;Node6 -->
<g id="edge5" class="edge"><title>Node1&#45;&gt;Node6</title>
<path fill="none" stroke="midnightblue" d="M193.554,-77.3335C202.341,-76.3527 211.235,-75.3599 219.998,-74.3816"/>
<polygon fill="midnightblue" stroke="midnightblue" points="220.661,-77.8295 230.211,-73.2416 219.884,-70.8727 220.661,-77.8295"/>
</g>
<!-- Node7 -->
<g id="node7" class="node"><title>Node7</title>
<g id="a_node7"><a xlink:href="../../dc/d3c/interfacecontroller_1_1support_1_1_i_error.html#abeaf08aec62a493bcf863d69f147be72" target="_top" xlink:title="controller.support.IError.show\lError">
<polygon fill="white" stroke="black" points="236.5,-0 236.5,-30 391.5,-30 391.5,-0 236.5,-0"/>
<text text-anchor="start" x="244.5" y="-18" font-family="Helvetica,sans-Serif" font-size="10.00">controller.support.IError.show</text>
<text text-anchor="middle" x="314" y="-7" font-family="Helvetica,sans-Serif" font-size="10.00">Error</text>
</a>
</g>
</g>
<!-- Node1&#45;&gt;Node7 -->
<g id="edge6" class="edge"><title>Node1&#45;&gt;Node7</title>
<path fill="none" stroke="midnightblue" d="M137.653,-72.921C163.759,-63.1571 198.759,-50.3762 230,-40 236.971,-37.6846 244.302,-35.3432 251.601,-33.07"/>
<polygon fill="midnightblue" stroke="midnightblue" points="252.972,-36.3101 261.498,-30.0212 250.911,-29.6203 252.972,-36.3101"/>
</g>
<!-- Node3 -->
<g id="node3" class="node"><title>Node3</title>
<g id="a_node3"><a xlink:href="../../da/d34/classparser_1_1_variable_scope.html#a63f35d1ba60e450f319d87f3afbf4fd2" target="_top" xlink:title="parser.VariableScope.getName">
<polygon fill="white" stroke="black" points="434,-174.5 434,-193.5 600,-193.5 600,-174.5 434,-174.5"/>
<text text-anchor="middle" x="517" y="-181.5" font-family="Helvetica,sans-Serif" font-size="10.00">parser.VariableScope.getName</text>
</a>
</g>
</g>
<!-- Node2&#45;&gt;Node3 -->
<g id="edge2" class="edge"><title>Node2&#45;&gt;Node3</title>
<path fill="none" stroke="midnightblue" d="M389.274,-170.129C400.518,-171.36 412.233,-172.642 423.801,-173.909"/>
<polygon fill="midnightblue" stroke="midnightblue" points="423.591,-177.406 433.913,-175.015 424.353,-170.448 423.591,-177.406"/>
</g>
<!-- Node4 -->
<g id="node4" class="node"><title>Node4</title>
<g id="a_node4"><a xlink:href="../../da/d34/classparser_1_1_variable_scope.html#a49590398e11784b1310e8b65d9933011" target="_top" xlink:title="parser.VariableScope.set\lVariable">
<polygon fill="white" stroke="black" points="449,-125 449,-155 585,-155 585,-125 449,-125"/>
<text text-anchor="start" x="457" y="-143" font-family="Helvetica,sans-Serif" font-size="10.00">parser.VariableScope.set</text>
<text text-anchor="middle" x="517" y="-132" font-family="Helvetica,sans-Serif" font-size="10.00">Variable</text>
</a>
</g>
</g>
<!-- Node2&#45;&gt;Node4 -->
<g id="edge3" class="edge"><title>Node2&#45;&gt;Node4</title>
<path fill="none" stroke="midnightblue" d="M389.274,-153.871C405.388,-152.107 422.469,-150.237 438.697,-148.461"/>
<polygon fill="midnightblue" stroke="midnightblue" points="439.115,-151.936 448.675,-147.369 438.353,-144.978 439.115,-151.936"/>
</g>
</g>
</svg>
