<?xml version="1.0" encoding="UTF-8" standalone="no"?>
<!DOCTYPE svg PUBLIC "-//W3C//DTD SVG 1.1//EN"
 "http://www.w3.org/Graphics/SVG/1.1/DTD/svg11.dtd">
<!-- Generated by graphviz version 2.36.0 (20140111.2315)
 -->
<!-- Title: view.windows.VariablesWindow.update Pages: 1 -->
<svg width="388pt" height="87pt"
 viewBox="0.00 0.00 388.00 87.00" xmlns="http://www.w3.org/2000/svg" xmlns:xlink="http://www.w3.org/1999/xlink">
<g id="graph0" class="graph" transform="scale(1 1) rotate(0) translate(4 83)">
<title>view.windows.VariablesWindow.update</title>
<polygon fill="white" stroke="none" points="-4,4 -4,-83 384,-83 384,4 -4,4"/>
<!-- Node1 -->
<g id="node1" class="node"><title>Node1</title>
<polygon fill="#bfbfbf" stroke="black" points="0,-29.5 0,-48.5 196,-48.5 196,-29.5 0,-29.5"/>
<text text-anchor="middle" x="98" y="-36.5" font-family="Helvetica,sans-Serif" font-size="10.00">view.windows.VariablesWindow.update</text>
</g>
<!-- Node2 -->
<g id="node2" class="node"><title>Node2</title>
<g id="a_node2"><a xlink:href="../../db/d29/classparser_1_1_variable_manager.html#a41e397325af1a7f5167aa9104b400d52" target="_top" xlink:title="parser.VariableManager.get\lScopes">
<polygon fill="white" stroke="black" points="232,-49 232,-79 380,-79 380,-49 232,-49"/>
<text text-anchor="start" x="240" y="-67" font-family="Helvetica,sans-Serif" font-size="10.00">parser.VariableManager.get</text>
<text text-anchor="middle" x="306" y="-56" font-family="Helvetica,sans-Serif" font-size="10.00">Scopes</text>
</a>
</g>
</g>
<!-- Node1&#45;&gt;Node2 -->
<g id="edge1" class="edge"><title>Node1&#45;&gt;Node2</title>
<path fill="none" stroke="midnightblue" d="M177.467,-48.5227C191.972,-50.283 207.165,-52.1268 221.803,-53.9033"/>
<polygon fill="midnightblue" stroke="midnightblue" points="221.485,-57.3903 231.834,-55.1206 222.329,-50.4413 221.485,-57.3903"/>
</g>
<!-- Node3 -->
<g id="node3" class="node"><title>Node3</title>
<g id="a_node3"><a xlink:href="../../de/d84/classcontroller_1_1_workspace.html#a674dfb22c67d53ee1347102245bc8410" target="_top" xlink:title="controller.Workspace.get\lVariables">
<polygon fill="white" stroke="black" points="239,-0 239,-30 373,-30 373,-0 239,-0"/>
<text text-anchor="start" x="247" y="-18" font-family="Helvetica,sans-Serif" font-size="10.00">controller.Workspace.get</text>
<text text-anchor="middle" x="306" y="-7" font-family="Helvetica,sans-Serif" font-size="10.00">Variables</text>
</a>
</g>
</g>
<!-- Node1&#45;&gt;Node3 -->
<g id="edge2" class="edge"><title>Node1&#45;&gt;Node3</title>
<path fill="none" stroke="midnightblue" d="M180.713,-29.4801C196.562,-27.6336 213.114,-25.7051 228.779,-23.8801"/>
<polygon fill="midnightblue" stroke="midnightblue" points="229.4,-27.3315 238.928,-22.6977 228.59,-20.3785 229.4,-27.3315"/>
</g>
</g>
</svg>
