<?xml version="1.0" encoding="UTF-8" standalone="no"?>
<!DOCTYPE svg PUBLIC "-//W3C//DTD SVG 1.1//EN"
 "http://www.w3.org/Graphics/SVG/1.1/DTD/svg11.dtd">
<!-- Generated by graphviz version 2.36.0 (20140111.2315)
 -->
<!-- Title: view.windows.VariablesWindow.createRemoveListener Pages: 1 -->
<svg width="408pt" height="38pt"
 viewBox="0.00 0.00 408.00 38.00" xmlns="http://www.w3.org/2000/svg" xmlns:xlink="http://www.w3.org/1999/xlink">
<g id="graph0" class="graph" transform="scale(1 1) rotate(0) translate(4 34)">
<title>view.windows.VariablesWindow.createRemoveListener</title>
<polygon fill="white" stroke="none" points="-4,4 -4,-34 404,-34 404,4 -4,4"/>
<!-- Node1 -->
<g id="node1" class="node"><title>Node1</title>
<polygon fill="#bfbfbf" stroke="black" points="0.5,-0 0.5,-30 193.5,-30 193.5,-0 0.5,-0"/>
<text text-anchor="start" x="8.5" y="-18" font-family="Helvetica,sans-Serif" font-size="10.00">view.windows.VariablesWindow.create</text>
<text text-anchor="middle" x="97" y="-7" font-family="Helvetica,sans-Serif" font-size="10.00">RemoveListener</text>
</g>
<!-- Node2 -->
<g id="node2" class="node"><title>Node2</title>
<g id="a_node2"><a xlink:href="../../db/d29/classparser_1_1_variable_manager.html#a0d10a9fb4872e78dba5289f369252e31" target="_top" xlink:title="parser.VariableManager.remove\lVariable">
<polygon fill="white" stroke="black" points="230.5,-0 230.5,-30 399.5,-30 399.5,-0 230.5,-0"/>
<text text-anchor="start" x="238.5" y="-18" font-family="Helvetica,sans-Serif" font-size="10.00">parser.VariableManager.remove</text>
<text text-anchor="middle" x="315" y="-7" font-family="Helvetica,sans-Serif" font-size="10.00">Variable</text>
</a>
</g>
</g>
<!-- Node1&#45;&gt;Node2 -->
<g id="edge1" class="edge"><title>Node1&#45;&gt;Node2</title>
<path fill="none" stroke="midnightblue" d="M193.684,-15C202.444,-15 211.313,-15 220.057,-15"/>
<polygon fill="midnightblue" stroke="midnightblue" points="220.25,-18.5001 230.25,-15 220.25,-11.5001 220.25,-18.5001"/>
</g>
</g>
</svg>
