<?xml version="1.0" encoding="UTF-8" standalone="no"?>
<!DOCTYPE svg PUBLIC "-//W3C//DTD SVG 1.1//EN"
 "http://www.w3.org/Graphics/SVG/1.1/DTD/svg11.dtd">
<!-- Generated by graphviz version 2.36.0 (20140111.2315)
 -->
<!-- Title: view.windows.VariablesWindow.createNewListener Pages: 1 -->
<svg width="406pt" height="136pt"
 viewBox="0.00 0.00 406.00 136.00" xmlns="http://www.w3.org/2000/svg" xmlns:xlink="http://www.w3.org/1999/xlink">
<g id="graph0" class="graph" transform="scale(1 1) rotate(0) translate(4 132)">
<title>view.windows.VariablesWindow.createNewListener</title>
<polygon fill="white" stroke="none" points="-4,4 -4,-132 402,-132 402,4 -4,4"/>
<!-- Node1 -->
<g id="node1" class="node"><title>Node1</title>
<polygon fill="#bfbfbf" stroke="black" points="0.5,-49 0.5,-79 193.5,-79 193.5,-49 0.5,-49"/>
<text text-anchor="start" x="8.5" y="-67" font-family="Helvetica,sans-Serif" font-size="10.00">view.windows.VariablesWindow.create</text>
<text text-anchor="middle" x="97" y="-56" font-family="Helvetica,sans-Serif" font-size="10.00">NewListener</text>
</g>
<!-- Node2 -->
<g id="node2" class="node"><title>Node2</title>
<g id="a_node2"><a xlink:href="../../df/d37/classview_1_1components_1_1_logo_table.html#a1f01ef9e47e2c5582718594dd76055d9" target="_top" xlink:title="view.components.LogoTable.get\lComboBox">
<polygon fill="white" stroke="black" points="230,-98 230,-128 398,-128 398,-98 230,-98"/>
<text text-anchor="start" x="238" y="-116" font-family="Helvetica,sans-Serif" font-size="10.00">view.components.LogoTable.get</text>
<text text-anchor="middle" x="314" y="-105" font-family="Helvetica,sans-Serif" font-size="10.00">ComboBox</text>
</a>
</g>
</g>
<!-- Node1&#45;&gt;Node2 -->
<g id="edge1" class="edge"><title>Node1&#45;&gt;Node2</title>
<path fill="none" stroke="midnightblue" d="M163.968,-79.0346C187.185,-84.3259 213.456,-90.3133 237.404,-95.7712"/>
<polygon fill="midnightblue" stroke="midnightblue" points="236.629,-99.1841 247.157,-97.9938 238.184,-92.3591 236.629,-99.1841"/>
</g>
<!-- Node3 -->
<g id="node3" class="node"><title>Node3</title>
<g id="a_node3"><a xlink:href="../../db/d29/classparser_1_1_variable_manager.html#a57940c6ff0aedab715e4560ba6bdcd3b" target="_top" xlink:title="parser.VariableManager.get\lScopeNames">
<polygon fill="white" stroke="black" points="240,-49 240,-79 388,-79 388,-49 240,-49"/>
<text text-anchor="start" x="248" y="-67" font-family="Helvetica,sans-Serif" font-size="10.00">parser.VariableManager.get</text>
<text text-anchor="middle" x="314" y="-56" font-family="Helvetica,sans-Serif" font-size="10.00">ScopeNames</text>
</a>
</g>
</g>
<!-- Node1&#45;&gt;Node3 -->
<g id="edge2" class="edge"><title>Node1&#45;&gt;Node3</title>
<path fill="none" stroke="midnightblue" d="M193.554,-64C205.525,-64 217.695,-64 229.462,-64"/>
<polygon fill="midnightblue" stroke="midnightblue" points="229.683,-67.5001 239.683,-64 229.683,-60.5001 229.683,-67.5001"/>
</g>
<!-- Node4 -->
<g id="node4" class="node"><title>Node4</title>
<g id="a_node4"><a xlink:href="../../df/d37/classview_1_1components_1_1_logo_table.html#a9b6f7e6d321d7d777aa1d06d2d236be6" target="_top" xlink:title="view.components.LogoTable.set\lLastRowEditable">
<polygon fill="white" stroke="black" points="230.5,-0 230.5,-30 397.5,-30 397.5,-0 230.5,-0"/>
<text text-anchor="start" x="238.5" y="-18" font-family="Helvetica,sans-Serif" font-size="10.00">view.components.LogoTable.set</text>
<text text-anchor="middle" x="314" y="-7" font-family="Helvetica,sans-Serif" font-size="10.00">LastRowEditable</text>
</a>
</g>
</g>
<!-- Node1&#45;&gt;Node4 -->
<g id="edge3" class="edge"><title>Node1&#45;&gt;Node4</title>
<path fill="none" stroke="midnightblue" d="M163.968,-48.9654C187.185,-43.6741 213.456,-37.6867 237.404,-32.2288"/>
<polygon fill="midnightblue" stroke="midnightblue" points="238.184,-35.6409 247.157,-30.0062 236.629,-28.8159 238.184,-35.6409"/>
</g>
</g>
</svg>
