<?xml version="1.0" encoding="UTF-8" standalone="no"?>
<!DOCTYPE svg PUBLIC "-//W3C//DTD SVG 1.1//EN"
 "http://www.w3.org/Graphics/SVG/1.1/DTD/svg11.dtd">
<!-- Generated by graphviz version 2.36.0 (20140111.2315)
 -->
<!-- Title: view.windows.VariablesWindow.setTableListener Pages: 1 -->
<svg width="576pt" height="111pt"
 viewBox="0.00 0.00 576.00 111.00" xmlns="http://www.w3.org/2000/svg" xmlns:xlink="http://www.w3.org/1999/xlink">
<g id="graph0" class="graph" transform="scale(1 1) rotate(0) translate(4 107)">
<title>view.windows.VariablesWindow.setTableListener</title>
<polygon fill="white" stroke="none" points="-4,4 -4,-107 572,-107 572,4 -4,4"/>
<!-- Node1 -->
<g id="node1" class="node"><title>Node1</title>
<polygon fill="#bfbfbf" stroke="black" points="0.5,-24 0.5,-54 177.5,-54 177.5,-24 0.5,-24"/>
<text text-anchor="start" x="8.5" y="-42" font-family="Helvetica,sans-Serif" font-size="10.00">view.windows.VariablesWindow.set</text>
<text text-anchor="middle" x="89" y="-31" font-family="Helvetica,sans-Serif" font-size="10.00">TableListener</text>
</g>
<!-- Node2 -->
<g id="node2" class="node"><title>Node2</title>
<g id="a_node2"><a xlink:href="../../db/d29/classparser_1_1_variable_manager.html#aa9ecb1f9858ee96bc9f17e6a16adc9ad" target="_top" xlink:title="parser.VariableManager.set\lVariable">
<polygon fill="white" stroke="black" points="218.5,-49 218.5,-79 365.5,-79 365.5,-49 218.5,-49"/>
<text text-anchor="start" x="226.5" y="-67" font-family="Helvetica,sans-Serif" font-size="10.00">parser.VariableManager.set</text>
<text text-anchor="middle" x="292" y="-56" font-family="Helvetica,sans-Serif" font-size="10.00">Variable</text>
</a>
</g>
</g>
<!-- Node1&#45;&gt;Node2 -->
<g id="edge1" class="edge"><title>Node1&#45;&gt;Node2</title>
<path fill="none" stroke="midnightblue" d="M177.577,-49.8926C187.812,-51.1657 198.229,-52.4614 208.394,-53.7256"/>
<polygon fill="midnightblue" stroke="midnightblue" points="208.103,-57.2163 218.459,-54.9775 208.967,-50.2699 208.103,-57.2163"/>
</g>
<!-- Node5 -->
<g id="node5" class="node"><title>Node5</title>
<g id="a_node5"><a xlink:href="../../dc/d3c/interfacecontroller_1_1support_1_1_i_error.html#abeaf08aec62a493bcf863d69f147be72" target="_top" xlink:title="controller.support.IError.show\lError">
<polygon fill="white" stroke="black" points="214.5,-0 214.5,-30 369.5,-30 369.5,-0 214.5,-0"/>
<text text-anchor="start" x="222.5" y="-18" font-family="Helvetica,sans-Serif" font-size="10.00">controller.support.IError.show</text>
<text text-anchor="middle" x="292" y="-7" font-family="Helvetica,sans-Serif" font-size="10.00">Error</text>
</a>
</g>
</g>
<!-- Node1&#45;&gt;Node5 -->
<g id="edge4" class="edge"><title>Node1&#45;&gt;Node5</title>
<path fill="none" stroke="midnightblue" d="M177.577,-28.5431C186.493,-27.4784 195.547,-26.3973 204.453,-25.334"/>
<polygon fill="midnightblue" stroke="midnightblue" points="204.914,-28.8039 214.428,-24.1429 204.084,-21.8533 204.914,-28.8039"/>
</g>
<!-- Node3 -->
<g id="node3" class="node"><title>Node3</title>
<g id="a_node3"><a xlink:href="../../da/d34/classparser_1_1_variable_scope.html#a01641ffadbd14f821da3ff44d9e7ce4e" target="_top" xlink:title="parser.VariableScope.contains\lVariable">
<polygon fill="white" stroke="black" points="406.5,-73 406.5,-103 567.5,-103 567.5,-73 406.5,-73"/>
<text text-anchor="start" x="414.5" y="-91" font-family="Helvetica,sans-Serif" font-size="10.00">parser.VariableScope.contains</text>
<text text-anchor="middle" x="487" y="-80" font-family="Helvetica,sans-Serif" font-size="10.00">Variable</text>
</a>
</g>
</g>
<!-- Node2&#45;&gt;Node3 -->
<g id="edge2" class="edge"><title>Node2&#45;&gt;Node3</title>
<path fill="none" stroke="midnightblue" d="M365.69,-73.0392C375.628,-74.2749 385.924,-75.5554 396.122,-76.8235"/>
<polygon fill="midnightblue" stroke="midnightblue" points="395.914,-80.3245 406.27,-78.0854 396.778,-73.378 395.914,-80.3245"/>
</g>
<!-- Node4 -->
<g id="node4" class="node"><title>Node4</title>
<g id="a_node4"><a xlink:href="../../da/d34/classparser_1_1_variable_scope.html#a49590398e11784b1310e8b65d9933011" target="_top" xlink:title="parser.VariableScope.set\lVariable">
<polygon fill="white" stroke="black" points="419,-24 419,-54 555,-54 555,-24 419,-24"/>
<text text-anchor="start" x="427" y="-42" font-family="Helvetica,sans-Serif" font-size="10.00">parser.VariableScope.set</text>
<text text-anchor="middle" x="487" y="-31" font-family="Helvetica,sans-Serif" font-size="10.00">Variable</text>
</a>
</g>
</g>
<!-- Node2&#45;&gt;Node4 -->
<g id="edge3" class="edge"><title>Node2&#45;&gt;Node4</title>
<path fill="none" stroke="midnightblue" d="M365.69,-54.5842C379.706,-52.7687 394.436,-50.8607 408.595,-49.0266"/>
<polygon fill="midnightblue" stroke="midnightblue" points="409.318,-52.4623 418.785,-47.7066 408.419,-45.5203 409.318,-52.4623"/>
</g>
</g>
</svg>
