<?xml version="1.0" encoding="UTF-8" standalone="no"?>
<!DOCTYPE svg PUBLIC "-//W3C//DTD SVG 1.1//EN"
 "http://www.w3.org/Graphics/SVG/1.1/DTD/svg11.dtd">
<!-- Generated by graphviz version 2.36.0 (20140111.2315)
 -->
<!-- Title: parser.commands.turtle.commands.SetPosition.evaluate Pages: 1 -->
<svg width="634pt" height="115pt"
 viewBox="0.00 0.00 634.00 115.00" xmlns="http://www.w3.org/2000/svg" xmlns:xlink="http://www.w3.org/1999/xlink">
<g id="graph0" class="graph" transform="scale(1 1) rotate(0) translate(4 111)">
<title>parser.commands.turtle.commands.SetPosition.evaluate</title>
<polygon fill="white" stroke="none" points="-4,4 -4,-111 630,-111 630,4 -4,4"/>
<!-- Node1 -->
<g id="node1" class="node"><title>Node1</title>
<polygon fill="#bfbfbf" stroke="black" points="0,-44 0,-74 192,-74 192,-44 0,-44"/>
<text text-anchor="start" x="8" y="-62" font-family="Helvetica,sans-Serif" font-size="10.00">parser.commands.turtle.commands.</text>
<text text-anchor="middle" x="96" y="-51" font-family="Helvetica,sans-Serif" font-size="10.00">SetPosition.evaluate</text>
</g>
<!-- Node2 -->
<g id="node2" class="node"><title>Node2</title>
<g id="a_node2"><a xlink:href="../../da/d96/classparser_1_1nodes_1_1_syntax_node.html#a669c370adce66a1960835323a90b9adb" target="_top" xlink:title="parser.nodes.SyntaxNode.evaluate">
<polygon fill="white" stroke="black" points="228.5,-87.5 228.5,-106.5 413.5,-106.5 413.5,-87.5 228.5,-87.5"/>
<text text-anchor="middle" x="321" y="-94.5" font-family="Helvetica,sans-Serif" font-size="10.00">parser.nodes.SyntaxNode.evaluate</text>
</a>
</g>
</g>
<!-- Node1&#45;&gt;Node2 -->
<g id="edge1" class="edge"><title>Node1&#45;&gt;Node2</title>
<path fill="none" stroke="midnightblue" d="M185.136,-74.0186C208.152,-77.9407 232.559,-82.0998 254.192,-85.7861"/>
<polygon fill="midnightblue" stroke="midnightblue" points="253.799,-89.2694 264.245,-87.4991 254.975,-82.3689 253.799,-89.2694"/>
</g>
<!-- Node3 -->
<g id="node3" class="node"><title>Node3</title>
<g id="a_node3"><a xlink:href="../../db/d11/classparser_1_1nodes_1_1_binary_node.html#a555930c71203ce7c05e1290f069b19a1" target="_top" xlink:title="parser.nodes.BinaryNode.getLeft">
<polygon fill="white" stroke="black" points="234,-49.5 234,-68.5 408,-68.5 408,-49.5 234,-49.5"/>
<text text-anchor="middle" x="321" y="-56.5" font-family="Helvetica,sans-Serif" font-size="10.00">parser.nodes.BinaryNode.getLeft</text>
</a>
</g>
</g>
<!-- Node1&#45;&gt;Node3 -->
<g id="edge2" class="edge"><title>Node1&#45;&gt;Node3</title>
<path fill="none" stroke="midnightblue" d="M192.219,-59C202.715,-59 213.408,-59 223.914,-59"/>
<polygon fill="midnightblue" stroke="midnightblue" points="223.918,-62.5001 233.918,-59 223.918,-55.5001 223.918,-62.5001"/>
</g>
<!-- Node5 -->
<g id="node5" class="node"><title>Node5</title>
<g id="a_node5"><a xlink:href="../../db/d11/classparser_1_1nodes_1_1_binary_node.html#a9c33799a377e3c277de0fc9138a2cb81" target="_top" xlink:title="parser.nodes.BinaryNode.get\lRight">
<polygon fill="white" stroke="black" points="243,-0 243,-30 399,-30 399,-0 243,-0"/>
<text text-anchor="start" x="251" y="-18" font-family="Helvetica,sans-Serif" font-size="10.00">parser.nodes.BinaryNode.get</text>
<text text-anchor="middle" x="321" y="-7" font-family="Helvetica,sans-Serif" font-size="10.00">Right</text>
</a>
</g>
</g>
<!-- Node1&#45;&gt;Node5 -->
<g id="edge4" class="edge"><title>Node1&#45;&gt;Node5</title>
<path fill="none" stroke="midnightblue" d="M173.12,-43.9808C192.657,-40.126 213.811,-35.9522 233.816,-32.0049"/>
<polygon fill="midnightblue" stroke="midnightblue" points="234.711,-35.3959 243.844,-30.0262 233.356,-28.5283 234.711,-35.3959"/>
</g>
<!-- Node4 -->
<g id="node4" class="node"><title>Node4</title>
<g id="a_node4"><a xlink:href="../../d7/d93/classparser_1_1nodes_1_1_parameter_node.html#a2c57eab9997daf1efb840a189c1034c5" target="_top" xlink:title="parser.nodes.ParameterNode.get\lParameter">
<polygon fill="white" stroke="black" points="450,-22 450,-52 626,-52 626,-22 450,-22"/>
<text text-anchor="start" x="458" y="-40" font-family="Helvetica,sans-Serif" font-size="10.00">parser.nodes.ParameterNode.get</text>
<text text-anchor="middle" x="538" y="-29" font-family="Helvetica,sans-Serif" font-size="10.00">Parameter</text>
</a>
</g>
</g>
<!-- Node3&#45;&gt;Node4 -->
<g id="edge3" class="edge"><title>Node3&#45;&gt;Node4</title>
<path fill="none" stroke="midnightblue" d="M408.21,-50.1785C418.568,-49.1186 429.201,-48.0306 439.703,-46.956"/>
<polygon fill="midnightblue" stroke="midnightblue" points="440.127,-50.431 449.718,-45.9311 439.414,-43.4674 440.127,-50.431"/>
</g>
<!-- Node5&#45;&gt;Node4 -->
<g id="edge5" class="edge"><title>Node5&#45;&gt;Node4</title>
<path fill="none" stroke="midnightblue" d="M399.013,-22.8804C412.167,-24.2264 425.985,-25.6404 439.586,-27.0321"/>
<polygon fill="midnightblue" stroke="midnightblue" points="439.626,-30.5543 449.93,-28.0905 440.338,-23.5907 439.626,-30.5543"/>
</g>
</g>
</svg>
