<?xml version="1.0" encoding="UTF-8" standalone="no"?>
<!DOCTYPE svg PUBLIC "-//W3C//DTD SVG 1.1//EN"
 "http://www.w3.org/Graphics/SVG/1.1/DTD/svg11.dtd">
<!-- Generated by graphviz version 2.36.0 (20140111.2315)
 -->
<!-- Title: parser.VariableScope.containsVariable Pages: 1 -->
<!--zoomable 203 -->
<svg id="main" version="1.1" xmlns="http://www.w3.org/2000/svg" xmlns:xlink="http://www.w3.org/1999/xlink" xml:space="preserve" onload="init(evt)">
<style type="text/css"><![CDATA[
.edge:hover path { stroke: red; }
.edge:hover polygon { stroke: red; fill: red; }
]]></style>
<script type="text/javascript"><![CDATA[
var edges = document.getElementsByTagName('g');
if (edges && edges.length) {
  for (var i=0;i<edges.length;i++) {
    if (edges[i].id.substr(0,4)=='edge') {
      edges[i].setAttribute('class','edge');
    }
  }
}
]]></script>
        <defs>
                <circle id="rim" cx="0" cy="0" r="7"/>
                <circle id="rim2" cx="0" cy="0" r="3.5"/>
                <g id="zoomPlus">
                        <use xlink:href="#rim" fill="#404040">
                                <set attributeName="fill" to="#808080" begin="zoomplus.mouseover" end="zoomplus.mouseout"/>
                        </use>
                        <path d="M-4,0h8M0,-4v8" fill="none" stroke="white" stroke-width="1.5" pointer-events="none"/>
                </g>
                <g id="zoomMin">
                        <use xlink:href="#rim" fill="#404040">
                                <set attributeName="fill" to="#808080" begin="zoomminus.mouseover" end="zoomminus.mouseout"/>
                        </use>
                        <path d="M-4,0h8" fill="none" stroke="white" stroke-width="1.5" pointer-events="none"/>
                </g>
                <g id="dirArrow">
                        <path fill="none" stroke="white" stroke-width="1.5" d="M0,-3.0v7 M-2.5,-0.5L0,-3.0L2.5,-0.5"/>
                </g>
               <g id="resetDef">
                       <use xlink:href="#rim2" fill="#404040">
                               <set attributeName="fill" to="#808080" begin="reset.mouseover" end="reset.mouseout"/>
                       </use>
               </g>
        </defs>

<script type="text/javascript">
var viewWidth = 602;
var viewHeight = 203;
var sectionId = 'dynsection-2';
</script>
<script xlink:href="../../svgpan.js"/>
<svg id="graph" class="graph">
<g id="viewport">
<title>parser.VariableScope.containsVariable</title>
<polygon fill="white" stroke="none" points="-4,4 -4,-199 598,-199 598,4 -4,4"/>
<!-- Node1 -->
<g id="node1" class="node"><title>Node1</title>
<polygon fill="#bfbfbf" stroke="black" points="0.5,-82 0.5,-112 161.5,-112 161.5,-82 0.5,-82"/>
<text text-anchor="start" x="8.5" y="-100" font-family="Helvetica,sans-Serif" font-size="10.00">parser.VariableScope.contains</text>
<text text-anchor="middle" x="81" y="-89" font-family="Helvetica,sans-Serif" font-size="10.00">Variable</text>
</g>
<!-- Node2 -->
<g id="node2" class="node"><title>Node2</title>
<g id="a_node2"><a xlink:href="../../db/d29/classparser_1_1_variable_manager.html#aa9ecb1f9858ee96bc9f17e6a16adc9ad" target="_top" xlink:title="parser.VariableManager.set\lVariable">
<polygon fill="white" stroke="black" points="198.5,-82 198.5,-112 345.5,-112 345.5,-82 198.5,-82"/>
<text text-anchor="start" x="206.5" y="-100" font-family="Helvetica,sans-Serif" font-size="10.00">parser.VariableManager.set</text>
<text text-anchor="middle" x="272" y="-89" font-family="Helvetica,sans-Serif" font-size="10.00">Variable</text>
</a>
</g>
</g>
<!-- Node1&#45;&gt;Node2 -->
<g id="edge1" class="edge"><title>Node1&#45;&gt;Node2</title>
<path fill="none" stroke="midnightblue" d="M171.678,-97C180.636,-97 189.653,-97 198.404,-97"/>
<polygon fill="midnightblue" stroke="midnightblue" points="171.605,-93.5001 161.605,-97 171.605,-100.5 171.605,-93.5001"/>
</g>
<!-- Node3 -->
<g id="node3" class="node"><title>Node3</title>
<g id="a_node3"><a xlink:href="../../d9/de0/classparser_1_1commands_1_1other_1_1_repeat.html#aa94d3f1c4786a256afdbc9718ba2883b" target="_top" xlink:title="parser.commands.other.Repeat.evaluate">
<polygon fill="white" stroke="black" points="382,-175.5 382,-194.5 594,-194.5 594,-175.5 382,-175.5"/>
<text text-anchor="middle" x="488" y="-182.5" font-family="Helvetica,sans-Serif" font-size="10.00">parser.commands.other.Repeat.evaluate</text>
</a>
</g>
</g>
<!-- Node2&#45;&gt;Node3 -->
<g id="edge2" class="edge"><title>Node2&#45;&gt;Node3</title>
<path fill="none" stroke="midnightblue" d="M300.486,-118.173C321.656,-133.449 352.244,-153.356 382,-165 393.146,-169.362 405.341,-172.795 417.349,-175.491"/>
<polygon fill="midnightblue" stroke="midnightblue" points="302.43,-115.258 292.299,-112.157 298.285,-120.899 302.43,-115.258"/>
</g>
<!-- Node4 -->
<g id="node4" class="node"><title>Node4</title>
<g id="a_node4"><a xlink:href="../../d0/d05/classparser_1_1commands_1_1other_1_1_do_times.html#aa1749474b7c85cd1caa0b32ebc3f1120" target="_top" xlink:title="parser.commands.other.Do\lTimes.evaluate">
<polygon fill="white" stroke="black" points="414,-126 414,-156 562,-156 562,-126 414,-126"/>
<text text-anchor="start" x="422" y="-144" font-family="Helvetica,sans-Serif" font-size="10.00">parser.commands.other.Do</text>
<text text-anchor="middle" x="488" y="-133" font-family="Helvetica,sans-Serif" font-size="10.00">Times.evaluate</text>
</a>
</g>
</g>
<!-- Node2&#45;&gt;Node4 -->
<g id="edge3" class="edge"><title>Node2&#45;&gt;Node4</title>
<path fill="none" stroke="midnightblue" d="M355.644,-113.992C374.783,-117.927 395.019,-122.088 413.725,-125.934"/>
<polygon fill="midnightblue" stroke="midnightblue" points="356.249,-110.544 345.749,-111.958 354.839,-117.4 356.249,-110.544"/>
</g>
<!-- Node5 -->
<g id="node5" class="node"><title>Node5</title>
<g id="a_node5"><a xlink:href="../../de/df8/classparser_1_1commands_1_1other_1_1_for.html#ab174f2bbc0bfe9fa9afd51f9213d4001" target="_top" xlink:title="parser.commands.other.For.evaluate">
<polygon fill="white" stroke="black" points="391.5,-87.5 391.5,-106.5 584.5,-106.5 584.5,-87.5 391.5,-87.5"/>
<text text-anchor="middle" x="488" y="-94.5" font-family="Helvetica,sans-Serif" font-size="10.00">parser.commands.other.For.evaluate</text>
</a>
</g>
</g>
<!-- Node2&#45;&gt;Node5 -->
<g id="edge4" class="edge"><title>Node2&#45;&gt;Node5</title>
<path fill="none" stroke="midnightblue" d="M355.847,-97C367.473,-97 379.5,-97 391.339,-97"/>
<polygon fill="midnightblue" stroke="midnightblue" points="355.749,-93.5001 345.749,-97 355.749,-100.5 355.749,-93.5001"/>
</g>
<!-- Node6 -->
<g id="node6" class="node"><title>Node6</title>
<g id="a_node6"><a xlink:href="../../df/ddc/classparser_1_1nodes_1_1_command_node.html#a40c9fa452b071f108d17f6093a72861d" target="_top" xlink:title="parser.nodes.CommandNode.evaluate">
<polygon fill="white" stroke="black" points="387,-49.5 387,-68.5 589,-68.5 589,-49.5 387,-49.5"/>
<text text-anchor="middle" x="488" y="-56.5" font-family="Helvetica,sans-Serif" font-size="10.00">parser.nodes.CommandNode.evaluate</text>
</a>
</g>
</g>
<!-- Node2&#45;&gt;Node6 -->
<g id="edge5" class="edge"><title>Node2&#45;&gt;Node6</title>
<path fill="none" stroke="midnightblue" d="M355.636,-82.3262C381.731,-77.6926 409.867,-72.6965 433.38,-68.5213"/>
<polygon fill="midnightblue" stroke="midnightblue" points="354.983,-78.8874 345.749,-84.0819 356.207,-85.7796 354.983,-78.8874"/>
</g>
<!-- Node7 -->
<g id="node7" class="node"><title>Node7</title>
<g id="a_node7"><a xlink:href="../../d3/daf/classview_1_1windows_1_1_variables_window.html#a360b39c6a71c28028db714be16968cd8" target="_top" xlink:title="view.windows.VariablesWindow.set\lTableListener">
<polygon fill="white" stroke="black" points="399.5,-0 399.5,-30 576.5,-30 576.5,-0 399.5,-0"/>
<text text-anchor="start" x="407.5" y="-18" font-family="Helvetica,sans-Serif" font-size="10.00">view.windows.VariablesWindow.set</text>
<text text-anchor="middle" x="488" y="-7" font-family="Helvetica,sans-Serif" font-size="10.00">TableListener</text>
</a>
</g>
</g>
<!-- Node2&#45;&gt;Node7 -->
<g id="edge6" class="edge"><title>Node2&#45;&gt;Node7</title>
<path fill="none" stroke="midnightblue" d="M306.585,-76.6561C327.64,-64.6132 355.69,-49.8368 382,-40 392.005,-36.2595 402.76,-32.9453 413.435,-30.053"/>
<polygon fill="midnightblue" stroke="midnightblue" points="304.617,-73.7513 297.725,-81.7981 308.131,-79.8055 304.617,-73.7513"/>
</g>
</g>
</svg>
        <g id="navigator" transform="translate(0 0)" fill="#404254">
                <rect fill="#f2f5e9" fill-opacity="0.5" stroke="#606060" stroke-width=".5" x="0" y="0" width="60" height="60"/>
                <use id="zoomplus" xlink:href="#zoomPlus" x="17" y="9" onmousedown="handleZoom(evt,'in')"/>
                <use id="zoomminus" xlink:href="#zoomMin" x="42" y="9" onmousedown="handleZoom(evt,'out')"/>
                <use id="reset" xlink:href="#resetDef" x="30" y="36" onmousedown="handleReset()"/>
                <g id="arrowUp" xlink:href="#dirArrow" transform="translate(30 24)" onmousedown="handlePan(0,-1)">
                  <use xlink:href="#rim" fill="#404040">
                        <set attributeName="fill" to="#808080" begin="arrowUp.mouseover" end="arrowUp.mouseout"/>
                  </use>
                  <path fill="none" stroke="white" stroke-width="1.5" d="M0,-3.0v7 M-2.5,-0.5L0,-3.0L2.5,-0.5"/>
                </g>
                <g id="arrowRight" xlink:href="#dirArrow" transform="rotate(90) translate(36 -43)" onmousedown="handlePan(1,0)">
                  <use xlink:href="#rim" fill="#404040">
                        <set attributeName="fill" to="#808080" begin="arrowRight.mouseover" end="arrowRight.mouseout"/>
                  </use>
                  <path fill="none" stroke="white" stroke-width="1.5" d="M0,-3.0v7 M-2.5,-0.5L0,-3.0L2.5,-0.5"/>
                </g>
                <g id="arrowDown" xlink:href="#dirArrow" transform="rotate(180) translate(-30 -48)" onmousedown="handlePan(0,1)">
                  <use xlink:href="#rim" fill="#404040">
                        <set attributeName="fill" to="#808080" begin="arrowDown.mouseover" end="arrowDown.mouseout"/>
                  </use>
                  <path fill="none" stroke="white" stroke-width="1.5" d="M0,-3.0v7 M-2.5,-0.5L0,-3.0L2.5,-0.5"/>
                </g>
                <g id="arrowLeft" xlink:href="#dirArrow" transform="rotate(270) translate(-36 17)" onmousedown="handlePan(-1,0)">
                  <use xlink:href="#rim" fill="#404040">
                        <set attributeName="fill" to="#808080" begin="arrowLeft.mouseover" end="arrowLeft.mouseout"/>
                  </use>
                  <path fill="none" stroke="white" stroke-width="1.5" d="M0,-3.0v7 M-2.5,-0.5L0,-3.0L2.5,-0.5"/>
                </g>
        </g>
        <svg viewBox="0 0 15 15" width="100%" height="30px" preserveAspectRatio="xMaxYMin meet">
         <g id="arrow_out" transform="scale(0.3 0.3)">
          <a xlink:href="classparser_1_1_variable_scope_a01641ffadbd14f821da3ff44d9e7ce4e_icgraph_org.svg" target="_base">
           <rect id="button" ry="5" rx="5" y="6" x="6" height="38" width="38"
                fill="#f2f5e9" fill-opacity="0.5" stroke="#606060" stroke-width="1.0"/>
           <path id="arrow"
             d="M 11.500037,31.436501 C 11.940474,20.09759 22.043105,11.32322 32.158766,21.979434 L 37.068811,17.246167 C 37.068811,17.246167 37.088388,32 37.088388,32 L 22.160133,31.978069 C 22.160133,31.978069 26.997745,27.140456 26.997745,27.140456 C 18.528582,18.264221 13.291696,25.230495 11.500037,31.436501 z"
             style="fill:#404040;"/>
          </a>
         </g>
        </svg>
</svg>
