<?xml version="1.0" encoding="UTF-8" standalone="no"?>
<!DOCTYPE svg PUBLIC "-//W3C//DTD SVG 1.1//EN"
 "http://www.w3.org/Graphics/SVG/1.1/DTD/svg11.dtd">
<!-- Generated by graphviz version 2.36.0 (20140111.2315)
 -->
<!-- Title: parser.VariableScope.setVariable Pages: 1 -->
<!--zoomable 252 -->
<svg id="main" version="1.1" xmlns="http://www.w3.org/2000/svg" xmlns:xlink="http://www.w3.org/1999/xlink" xml:space="preserve" onload="init(evt)">
<style type="text/css"><![CDATA[
.edge:hover path { stroke: red; }
.edge:hover polygon { stroke: red; fill: red; }
]]></style>
<script type="text/javascript"><![CDATA[
var edges = document.getElementsByTagName('g');
if (edges && edges.length) {
  for (var i=0;i<edges.length;i++) {
    if (edges[i].id.substr(0,4)=='edge') {
      edges[i].setAttribute('class','edge');
    }
  }
}
]]></script>
        <defs>
                <circle id="rim" cx="0" cy="0" r="7"/>
                <circle id="rim2" cx="0" cy="0" r="3.5"/>
                <g id="zoomPlus">
                        <use xlink:href="#rim" fill="#404040">
                                <set attributeName="fill" to="#808080" begin="zoomplus.mouseover" end="zoomplus.mouseout"/>
                        </use>
                        <path d="M-4,0h8M0,-4v8" fill="none" stroke="white" stroke-width="1.5" pointer-events="none"/>
                </g>
                <g id="zoomMin">
                        <use xlink:href="#rim" fill="#404040">
                                <set attributeName="fill" to="#808080" begin="zoomminus.mouseover" end="zoomminus.mouseout"/>
                        </use>
                        <path d="M-4,0h8" fill="none" stroke="white" stroke-width="1.5" pointer-events="none"/>
                </g>
                <g id="dirArrow">
                        <path fill="none" stroke="white" stroke-width="1.5" d="M0,-3.0v7 M-2.5,-0.5L0,-3.0L2.5,-0.5"/>
                </g>
               <g id="resetDef">
                       <use xlink:href="#rim2" fill="#404040">
                               <set attributeName="fill" to="#808080" begin="reset.mouseover" end="reset.mouseout"/>
                       </use>
               </g>
        </defs>

<script type="text/javascript">
var viewWidth = 578;
var viewHeight = 252;
var sectionId = 'dynsection-5';
</script>
<script xlink:href="../../svgpan.js"/>
<svg id="graph" class="graph">
<g id="viewport">
<title>parser.VariableScope.setVariable</title>
<polygon fill="white" stroke="none" points="-4,4 -4,-248 574,-248 574,4 -4,4"/>
<!-- Node1 -->
<g id="node1" class="node"><title>Node1</title>
<polygon fill="#bfbfbf" stroke="black" points="0,-148 0,-178 136,-178 136,-148 0,-148"/>
<text text-anchor="start" x="8" y="-166" font-family="Helvetica,sans-Serif" font-size="10.00">parser.VariableScope.set</text>
<text text-anchor="middle" x="68" y="-155" font-family="Helvetica,sans-Serif" font-size="10.00">Variable</text>
</g>
<!-- Node2 -->
<g id="node2" class="node"><title>Node2</title>
<g id="a_node2"><a xlink:href="../../db/d29/classparser_1_1_variable_manager.html#ab6b4d986f801921f4433d4ef7880b2c6" target="_top" xlink:title="parser.VariableManager.add\lToScope">
<polygon fill="white" stroke="black" points="172,-193 172,-223 322,-223 322,-193 172,-193"/>
<text text-anchor="start" x="180" y="-211" font-family="Helvetica,sans-Serif" font-size="10.00">parser.VariableManager.add</text>
<text text-anchor="middle" x="247" y="-200" font-family="Helvetica,sans-Serif" font-size="10.00">ToScope</text>
</a>
</g>
</g>
<!-- Node1&#45;&gt;Node2 -->
<g id="edge1" class="edge"><title>Node1&#45;&gt;Node2</title>
<path fill="none" stroke="midnightblue" d="M138.269,-180.611C154.284,-184.682 171.183,-188.979 186.726,-192.93"/>
<polygon fill="midnightblue" stroke="midnightblue" points="138.985,-177.182 128.431,-178.11 137.26,-183.966 138.985,-177.182"/>
</g>
<!-- Node4 -->
<g id="node4" class="node"><title>Node4</title>
<g id="a_node4"><a xlink:href="../../db/d29/classparser_1_1_variable_manager.html#aa9ecb1f9858ee96bc9f17e6a16adc9ad" target="_top" xlink:title="parser.VariableManager.set\lVariable">
<polygon fill="white" stroke="black" points="173.5,-103 173.5,-133 320.5,-133 320.5,-103 173.5,-103"/>
<text text-anchor="start" x="181.5" y="-121" font-family="Helvetica,sans-Serif" font-size="10.00">parser.VariableManager.set</text>
<text text-anchor="middle" x="247" y="-110" font-family="Helvetica,sans-Serif" font-size="10.00">Variable</text>
</a>
</g>
</g>
<!-- Node1&#45;&gt;Node4 -->
<g id="edge3" class="edge"><title>Node1&#45;&gt;Node4</title>
<path fill="none" stroke="midnightblue" d="M138.269,-145.389C154.284,-141.318 171.183,-137.021 186.726,-133.07"/>
<polygon fill="midnightblue" stroke="midnightblue" points="137.26,-142.034 128.431,-147.89 138.985,-148.818 137.26,-142.034"/>
</g>
<!-- Node3 -->
<g id="node3" class="node"><title>Node3</title>
<g id="a_node3"><a xlink:href="../../d3/daf/classview_1_1windows_1_1_variables_window.html#a130e9b31651cbf929b9a24ef0a2804fc" target="_top" xlink:title="view.windows.VariablesWindow.create\lOkButton">
<polygon fill="white" stroke="black" points="367.5,-214 367.5,-244 560.5,-244 560.5,-214 367.5,-214"/>
<text text-anchor="start" x="375.5" y="-232" font-family="Helvetica,sans-Serif" font-size="10.00">view.windows.VariablesWindow.create</text>
<text text-anchor="middle" x="464" y="-221" font-family="Helvetica,sans-Serif" font-size="10.00">OkButton</text>
</a>
</g>
</g>
<!-- Node2&#45;&gt;Node3 -->
<g id="edge2" class="edge"><title>Node2&#45;&gt;Node3</title>
<path fill="none" stroke="midnightblue" d="M332.316,-216.236C343.849,-217.362 355.756,-218.525 367.47,-219.669"/>
<polygon fill="midnightblue" stroke="midnightblue" points="332.585,-212.745 322.292,-215.256 331.904,-219.712 332.585,-212.745"/>
</g>
<!-- Node5 -->
<g id="node5" class="node"><title>Node5</title>
<g id="a_node5"><a xlink:href="../../d9/de0/classparser_1_1commands_1_1other_1_1_repeat.html#aa94d3f1c4786a256afdbc9718ba2883b" target="_top" xlink:title="parser.commands.other.Repeat.evaluate">
<polygon fill="white" stroke="black" points="358,-175.5 358,-194.5 570,-194.5 570,-175.5 358,-175.5"/>
<text text-anchor="middle" x="464" y="-182.5" font-family="Helvetica,sans-Serif" font-size="10.00">parser.commands.other.Repeat.evaluate</text>
</a>
</g>
</g>
<!-- Node4&#45;&gt;Node5 -->
<g id="edge4" class="edge"><title>Node4&#45;&gt;Node5</title>
<path fill="none" stroke="midnightblue" d="M287.969,-137.546C308.505,-146.95 334.164,-157.731 358,-165 371.667,-169.168 386.612,-172.638 400.83,-175.453"/>
<polygon fill="midnightblue" stroke="midnightblue" points="289.169,-134.244 278.626,-133.202 286.217,-140.592 289.169,-134.244"/>
</g>
<!-- Node6 -->
<g id="node6" class="node"><title>Node6</title>
<g id="a_node6"><a xlink:href="../../d0/d05/classparser_1_1commands_1_1other_1_1_do_times.html#aa1749474b7c85cd1caa0b32ebc3f1120" target="_top" xlink:title="parser.commands.other.Do\lTimes.evaluate">
<polygon fill="white" stroke="black" points="390,-126 390,-156 538,-156 538,-126 390,-126"/>
<text text-anchor="start" x="398" y="-144" font-family="Helvetica,sans-Serif" font-size="10.00">parser.commands.other.Do</text>
<text text-anchor="middle" x="464" y="-133" font-family="Helvetica,sans-Serif" font-size="10.00">Times.evaluate</text>
</a>
</g>
</g>
<!-- Node4&#45;&gt;Node6 -->
<g id="edge5" class="edge"><title>Node4&#45;&gt;Node6</title>
<path fill="none" stroke="midnightblue" d="M330.85,-126.863C350.315,-128.945 370.919,-131.15 389.92,-133.182"/>
<polygon fill="midnightblue" stroke="midnightblue" points="331.105,-123.37 320.789,-125.787 330.36,-130.331 331.105,-123.37"/>
</g>
<!-- Node7 -->
<g id="node7" class="node"><title>Node7</title>
<g id="a_node7"><a xlink:href="../../de/df8/classparser_1_1commands_1_1other_1_1_for.html#ab174f2bbc0bfe9fa9afd51f9213d4001" target="_top" xlink:title="parser.commands.other.For.evaluate">
<polygon fill="white" stroke="black" points="367.5,-87.5 367.5,-106.5 560.5,-106.5 560.5,-87.5 367.5,-87.5"/>
<text text-anchor="middle" x="464" y="-94.5" font-family="Helvetica,sans-Serif" font-size="10.00">parser.commands.other.For.evaluate</text>
</a>
</g>
</g>
<!-- Node4&#45;&gt;Node7 -->
<g id="edge6" class="edge"><title>Node4&#45;&gt;Node7</title>
<path fill="none" stroke="midnightblue" d="M330.753,-109.917C342.754,-108.745 355.189,-107.53 367.416,-106.336"/>
<polygon fill="midnightblue" stroke="midnightblue" points="330.402,-106.435 320.789,-110.89 331.082,-113.402 330.402,-106.435"/>
</g>
<!-- Node8 -->
<g id="node8" class="node"><title>Node8</title>
<g id="a_node8"><a xlink:href="../../df/ddc/classparser_1_1nodes_1_1_command_node.html#a40c9fa452b071f108d17f6093a72861d" target="_top" xlink:title="parser.nodes.CommandNode.evaluate">
<polygon fill="white" stroke="black" points="363,-49.5 363,-68.5 565,-68.5 565,-49.5 363,-49.5"/>
<text text-anchor="middle" x="464" y="-56.5" font-family="Helvetica,sans-Serif" font-size="10.00">parser.nodes.CommandNode.evaluate</text>
</a>
</g>
</g>
<!-- Node4&#45;&gt;Node8 -->
<g id="edge7" class="edge"><title>Node4&#45;&gt;Node8</title>
<path fill="none" stroke="midnightblue" d="M293.966,-99.3093C313.471,-91.8974 336.603,-83.7813 358,-78 371.592,-74.3276 386.368,-71.1611 400.426,-68.5238"/>
<polygon fill="midnightblue" stroke="midnightblue" points="292.488,-96.128 284.416,-102.991 295.006,-102.659 292.488,-96.128"/>
</g>
<!-- Node9 -->
<g id="node9" class="node"><title>Node9</title>
<g id="a_node9"><a xlink:href="../../d3/daf/classview_1_1windows_1_1_variables_window.html#a360b39c6a71c28028db714be16968cd8" target="_top" xlink:title="view.windows.VariablesWindow.set\lTableListener">
<polygon fill="white" stroke="black" points="375.5,-0 375.5,-30 552.5,-30 552.5,-0 375.5,-0"/>
<text text-anchor="start" x="383.5" y="-18" font-family="Helvetica,sans-Serif" font-size="10.00">view.windows.VariablesWindow.set</text>
<text text-anchor="middle" x="464" y="-7" font-family="Helvetica,sans-Serif" font-size="10.00">TableListener</text>
</a>
</g>
</g>
<!-- Node4&#45;&gt;Node9 -->
<g id="edge8" class="edge"><title>Node4&#45;&gt;Node9</title>
<path fill="none" stroke="midnightblue" d="M272.849,-96.1232C294.09,-78.5168 326.183,-54.4103 358,-40 366.535,-36.1345 375.741,-32.8253 385.031,-30.0025"/>
<polygon fill="midnightblue" stroke="midnightblue" points="270.377,-93.6298 264.991,-102.753 274.891,-98.9802 270.377,-93.6298"/>
</g>
</g>
</svg>
        <g id="navigator" transform="translate(0 0)" fill="#404254">
                <rect fill="#f2f5e9" fill-opacity="0.5" stroke="#606060" stroke-width=".5" x="0" y="0" width="60" height="60"/>
                <use id="zoomplus" xlink:href="#zoomPlus" x="17" y="9" onmousedown="handleZoom(evt,'in')"/>
                <use id="zoomminus" xlink:href="#zoomMin" x="42" y="9" onmousedown="handleZoom(evt,'out')"/>
                <use id="reset" xlink:href="#resetDef" x="30" y="36" onmousedown="handleReset()"/>
                <g id="arrowUp" xlink:href="#dirArrow" transform="translate(30 24)" onmousedown="handlePan(0,-1)">
                  <use xlink:href="#rim" fill="#404040">
                        <set attributeName="fill" to="#808080" begin="arrowUp.mouseover" end="arrowUp.mouseout"/>
                  </use>
                  <path fill="none" stroke="white" stroke-width="1.5" d="M0,-3.0v7 M-2.5,-0.5L0,-3.0L2.5,-0.5"/>
                </g>
                <g id="arrowRight" xlink:href="#dirArrow" transform="rotate(90) translate(36 -43)" onmousedown="handlePan(1,0)">
                  <use xlink:href="#rim" fill="#404040">
                        <set attributeName="fill" to="#808080" begin="arrowRight.mouseover" end="arrowRight.mouseout"/>
                  </use>
                  <path fill="none" stroke="white" stroke-width="1.5" d="M0,-3.0v7 M-2.5,-0.5L0,-3.0L2.5,-0.5"/>
                </g>
                <g id="arrowDown" xlink:href="#dirArrow" transform="rotate(180) translate(-30 -48)" onmousedown="handlePan(0,1)">
                  <use xlink:href="#rim" fill="#404040">
                        <set attributeName="fill" to="#808080" begin="arrowDown.mouseover" end="arrowDown.mouseout"/>
                  </use>
                  <path fill="none" stroke="white" stroke-width="1.5" d="M0,-3.0v7 M-2.5,-0.5L0,-3.0L2.5,-0.5"/>
                </g>
                <g id="arrowLeft" xlink:href="#dirArrow" transform="rotate(270) translate(-36 17)" onmousedown="handlePan(-1,0)">
                  <use xlink:href="#rim" fill="#404040">
                        <set attributeName="fill" to="#808080" begin="arrowLeft.mouseover" end="arrowLeft.mouseout"/>
                  </use>
                  <path fill="none" stroke="white" stroke-width="1.5" d="M0,-3.0v7 M-2.5,-0.5L0,-3.0L2.5,-0.5"/>
                </g>
        </g>
        <svg viewBox="0 0 15 15" width="100%" height="30px" preserveAspectRatio="xMaxYMin meet">
         <g id="arrow_out" transform="scale(0.3 0.3)">
          <a xlink:href="classparser_1_1_variable_scope_a49590398e11784b1310e8b65d9933011_icgraph_org.svg" target="_base">
           <rect id="button" ry="5" rx="5" y="6" x="6" height="38" width="38"
                fill="#f2f5e9" fill-opacity="0.5" stroke="#606060" stroke-width="1.0"/>
           <path id="arrow"
             d="M 11.500037,31.436501 C 11.940474,20.09759 22.043105,11.32322 32.158766,21.979434 L 37.068811,17.246167 C 37.068811,17.246167 37.088388,32 37.088388,32 L 22.160133,31.978069 C 22.160133,31.978069 26.997745,27.140456 26.997745,27.140456 C 18.528582,18.264221 13.291696,25.230495 11.500037,31.436501 z"
             style="fill:#404040;"/>
          </a>
         </g>
        </svg>
</svg>
