<?xml version="1.0" encoding="UTF-8" standalone="no"?>
<!DOCTYPE svg PUBLIC "-//W3C//DTD SVG 1.1//EN"
 "http://www.w3.org/Graphics/SVG/1.1/DTD/svg11.dtd">
<!-- Generated by graphviz version 2.36.0 (20140111.2315)
 -->
<!-- Title: parser.VariableScope.getName Pages: 1 -->
<svg width="592pt" height="77pt"
 viewBox="0.00 0.00 592.00 77.00" xmlns="http://www.w3.org/2000/svg" xmlns:xlink="http://www.w3.org/1999/xlink">
<g id="graph0" class="graph" transform="scale(1 1) rotate(0) translate(4 73)">
<title>parser.VariableScope.getName</title>
<polygon fill="white" stroke="none" points="-4,4 -4,-73 588,-73 588,4 -4,4"/>
<!-- Node1 -->
<g id="node1" class="node"><title>Node1</title>
<polygon fill="#bfbfbf" stroke="black" points="0,-22.5 0,-41.5 166,-41.5 166,-22.5 0,-22.5"/>
<text text-anchor="middle" x="83" y="-29.5" font-family="Helvetica,sans-Serif" font-size="10.00">parser.VariableScope.getName</text>
</g>
<!-- Node2 -->
<g id="node2" class="node"><title>Node2</title>
<g id="a_node2"><a xlink:href="../../db/d29/classparser_1_1_variable_manager.html#ab6b4d986f801921f4433d4ef7880b2c6" target="_top" xlink:title="parser.VariableManager.add\lToScope">
<polygon fill="white" stroke="black" points="203,-39 203,-69 353,-69 353,-39 203,-39"/>
<text text-anchor="start" x="211" y="-57" font-family="Helvetica,sans-Serif" font-size="10.00">parser.VariableManager.add</text>
<text text-anchor="middle" x="278" y="-46" font-family="Helvetica,sans-Serif" font-size="10.00">ToScope</text>
</a>
</g>
</g>
<!-- Node1&#45;&gt;Node2 -->
<g id="edge1" class="edge"><title>Node1&#45;&gt;Node2</title>
<path fill="none" stroke="midnightblue" d="M176.198,-42.5097C185.15,-43.5301 194.151,-44.5561 202.893,-45.5525"/>
<polygon fill="midnightblue" stroke="midnightblue" points="176.461,-39.0171 166.129,-41.3619 175.668,-45.972 176.461,-39.0171"/>
</g>
<!-- Node4 -->
<g id="node4" class="node"><title>Node4</title>
<g id="a_node4"><a xlink:href="../../da/d34/classparser_1_1_variable_scope.html#a1f3aa516e868b45ad2e1fc6390a7b1dc" target="_top" xlink:title="parser.VariableScope.equals">
<polygon fill="white" stroke="black" points="202,-0.5 202,-19.5 354,-19.5 354,-0.5 202,-0.5"/>
<text text-anchor="middle" x="278" y="-7.5" font-family="Helvetica,sans-Serif" font-size="10.00">parser.VariableScope.equals</text>
</a>
</g>
</g>
<!-- Node1&#45;&gt;Node4 -->
<g id="edge3" class="edge"><title>Node1&#45;&gt;Node4</title>
<path fill="none" stroke="midnightblue" d="M176.225,-21.4873C184.857,-20.5033 193.535,-19.5141 201.982,-18.5513"/>
<polygon fill="midnightblue" stroke="midnightblue" points="175.668,-18.028 166.129,-22.6381 176.461,-24.983 175.668,-18.028"/>
</g>
<!-- Node3 -->
<g id="node3" class="node"><title>Node3</title>
<g id="a_node3"><a xlink:href="../../d3/daf/classview_1_1windows_1_1_variables_window.html#a130e9b31651cbf929b9a24ef0a2804fc" target="_top" xlink:title="view.windows.VariablesWindow.create\lOkButton">
<polygon fill="white" stroke="black" points="390.5,-39 390.5,-69 583.5,-69 583.5,-39 390.5,-39"/>
<text text-anchor="start" x="398.5" y="-57" font-family="Helvetica,sans-Serif" font-size="10.00">view.windows.VariablesWindow.create</text>
<text text-anchor="middle" x="487" y="-46" font-family="Helvetica,sans-Serif" font-size="10.00">OkButton</text>
</a>
</g>
</g>
<!-- Node2&#45;&gt;Node3 -->
<g id="edge2" class="edge"><title>Node2&#45;&gt;Node3</title>
<path fill="none" stroke="midnightblue" d="M363.159,-54C372.116,-54 381.273,-54 390.349,-54"/>
<polygon fill="midnightblue" stroke="midnightblue" points="363.147,-50.5001 353.147,-54 363.147,-57.5001 363.147,-50.5001"/>
</g>
</g>
</svg>
