<?xml version="1.0" encoding="UTF-8" standalone="no"?>
<!DOCTYPE svg PUBLIC "-//W3C//DTD SVG 1.1//EN"
 "http://www.w3.org/Graphics/SVG/1.1/DTD/svg11.dtd">
<!-- Generated by graphviz version 2.36.0 (20140111.2315)
 -->
<!-- Title: parser.nodes.ListEndNode.ListEndNode Pages: 1 -->
<svg width="380pt" height="77pt"
 viewBox="0.00 0.00 380.00 77.00" xmlns="http://www.w3.org/2000/svg" xmlns:xlink="http://www.w3.org/1999/xlink">
<g id="graph0" class="graph" transform="scale(1 1) rotate(0) translate(4 73)">
<title>parser.nodes.ListEndNode.ListEndNode</title>
<polygon fill="white" stroke="none" points="-4,4 -4,-73 376,-73 376,4 -4,4"/>
<!-- Node1 -->
<g id="node1" class="node"><title>Node1</title>
<polygon fill="#bfbfbf" stroke="black" points="0.5,-17 0.5,-47 145.5,-47 145.5,-17 0.5,-17"/>
<text text-anchor="start" x="8.5" y="-35" font-family="Helvetica,sans-Serif" font-size="10.00">parser.nodes.ListEndNode.</text>
<text text-anchor="middle" x="73" y="-24" font-family="Helvetica,sans-Serif" font-size="10.00">ListEndNode</text>
</g>
<!-- Node2 -->
<g id="node2" class="node"><title>Node2</title>
<g id="a_node2"><a xlink:href="../../d9/d85/classparser_1_1nodes_1_1_token_node.html#a10f80b7aa4f2d7f647bf3788e9b0b23c" target="_top" xlink:title="parser.nodes.TokenNode.get\lToken">
<polygon fill="white" stroke="black" points="200.5,-39 200.5,-69 353.5,-69 353.5,-39 200.5,-39"/>
<text text-anchor="start" x="208.5" y="-57" font-family="Helvetica,sans-Serif" font-size="10.00">parser.nodes.TokenNode.get</text>
<text text-anchor="middle" x="277" y="-46" font-family="Helvetica,sans-Serif" font-size="10.00">Token</text>
</a>
</g>
</g>
<!-- Node1&#45;&gt;Node2 -->
<g id="edge1" class="edge"><title>Node1&#45;&gt;Node2</title>
<path fill="none" stroke="midnightblue" d="M145.502,-39.7873C159.98,-41.3641 175.344,-43.0374 190.254,-44.6613"/>
<polygon fill="midnightblue" stroke="midnightblue" points="190.167,-48.1724 200.487,-45.7758 190.925,-41.2136 190.167,-48.1724"/>
</g>
<!-- Node3 -->
<g id="node3" class="node"><title>Node3</title>
<g id="a_node3"><a xlink:href="../../d9/d85/classparser_1_1nodes_1_1_token_node.html#abf34eaf7a992cf067c138122a4f73458" target="_top" xlink:title="parser.nodes.TokenNode.TokenNode">
<polygon fill="white" stroke="black" points="182,-0.5 182,-19.5 372,-19.5 372,-0.5 182,-0.5"/>
<text text-anchor="middle" x="277" y="-7.5" font-family="Helvetica,sans-Serif" font-size="10.00">parser.nodes.TokenNode.TokenNode</text>
</a>
</g>
</g>
<!-- Node1&#45;&gt;Node3 -->
<g id="edge2" class="edge"><title>Node1&#45;&gt;Node3</title>
<path fill="none" stroke="midnightblue" d="M145.502,-24.2127C156.19,-23.0486 167.361,-21.832 178.476,-20.6214"/>
<polygon fill="midnightblue" stroke="midnightblue" points="179.09,-24.0754 188.652,-19.5131 178.332,-17.1165 179.09,-24.0754"/>
</g>
</g>
</svg>
