<?xml version="1.0" encoding="UTF-8" standalone="no"?>
<!DOCTYPE svg PUBLIC "-//W3C//DTD SVG 1.1//EN"
 "http://www.w3.org/Graphics/SVG/1.1/DTD/svg11.dtd">
<!-- Generated by graphviz version 2.36.0 (20140111.2315)
 -->
<!-- Title: parser.commands.math.Random.evaluate Pages: 1 -->
<svg width="662pt" height="77pt"
 viewBox="0.00 0.00 662.00 77.00" xmlns="http://www.w3.org/2000/svg" xmlns:xlink="http://www.w3.org/1999/xlink">
<g id="graph0" class="graph" transform="scale(1 1) rotate(0) translate(4 73)">
<title>parser.commands.math.Random.evaluate</title>
<polygon fill="white" stroke="none" points="-4,4 -4,-73 658,-73 658,4 -4,4"/>
<!-- Node1 -->
<g id="node1" class="node"><title>Node1</title>
<polygon fill="#bfbfbf" stroke="black" points="0.5,-27.5 0.5,-46.5 219.5,-46.5 219.5,-27.5 0.5,-27.5"/>
<text text-anchor="middle" x="110" y="-34.5" font-family="Helvetica,sans-Serif" font-size="10.00">parser.commands.math.Random.evaluate</text>
</g>
<!-- Node2 -->
<g id="node2" class="node"><title>Node2</title>
<g id="a_node2"><a xlink:href="../../da/d96/classparser_1_1nodes_1_1_syntax_node.html#a669c370adce66a1960835323a90b9adb" target="_top" xlink:title="parser.nodes.SyntaxNode.evaluate">
<polygon fill="white" stroke="black" points="256.5,-49.5 256.5,-68.5 441.5,-68.5 441.5,-49.5 256.5,-49.5"/>
<text text-anchor="middle" x="349" y="-56.5" font-family="Helvetica,sans-Serif" font-size="10.00">parser.nodes.SyntaxNode.evaluate</text>
</a>
</g>
</g>
<!-- Node1&#45;&gt;Node2 -->
<g id="edge1" class="edge"><title>Node1&#45;&gt;Node2</title>
<path fill="none" stroke="midnightblue" d="M213.573,-46.5216C224.381,-47.5248 235.368,-48.5448 246.168,-49.5472"/>
<polygon fill="midnightblue" stroke="midnightblue" points="246.171,-53.0625 256.452,-50.5018 246.818,-46.0924 246.171,-53.0625"/>
</g>
<!-- Node3 -->
<g id="node3" class="node"><title>Node3</title>
<g id="a_node3"><a xlink:href="../../d3/d36/classparser_1_1nodes_1_1_unary_node.html#a5075c2524d5d8551552e4cb93d4b0aac" target="_top" xlink:title="parser.nodes.UnaryNode.get\lArgument">
<polygon fill="white" stroke="black" points="271.5,-0 271.5,-30 426.5,-30 426.5,-0 271.5,-0"/>
<text text-anchor="start" x="279.5" y="-18" font-family="Helvetica,sans-Serif" font-size="10.00">parser.nodes.UnaryNode.get</text>
<text text-anchor="middle" x="349" y="-7" font-family="Helvetica,sans-Serif" font-size="10.00">Argument</text>
</a>
</g>
</g>
<!-- Node1&#45;&gt;Node3 -->
<g id="edge2" class="edge"><title>Node1&#45;&gt;Node3</title>
<path fill="none" stroke="midnightblue" d="M213.573,-27.4784C229.48,-26.0019 245.776,-24.4891 261.288,-23.0492"/>
<polygon fill="midnightblue" stroke="midnightblue" points="261.722,-26.524 271.356,-22.1146 261.075,-19.554 261.722,-26.524"/>
</g>
<!-- Node4 -->
<g id="node4" class="node"><title>Node4</title>
<g id="a_node4"><a xlink:href="../../d7/d93/classparser_1_1nodes_1_1_parameter_node.html#a2c57eab9997daf1efb840a189c1034c5" target="_top" xlink:title="parser.nodes.ParameterNode.get\lParameter">
<polygon fill="white" stroke="black" points="478,-0 478,-30 654,-30 654,-0 478,-0"/>
<text text-anchor="start" x="486" y="-18" font-family="Helvetica,sans-Serif" font-size="10.00">parser.nodes.ParameterNode.get</text>
<text text-anchor="middle" x="566" y="-7" font-family="Helvetica,sans-Serif" font-size="10.00">Parameter</text>
</a>
</g>
</g>
<!-- Node3&#45;&gt;Node4 -->
<g id="edge3" class="edge"><title>Node3&#45;&gt;Node4</title>
<path fill="none" stroke="midnightblue" d="M426.709,-15C439.875,-15 453.714,-15 467.34,-15"/>
<polygon fill="midnightblue" stroke="midnightblue" points="467.703,-18.5001 477.703,-15 467.703,-11.5001 467.703,-18.5001"/>
</g>
</g>
</svg>
