<?xml version="1.0" encoding="UTF-8" standalone="no"?>
<!DOCTYPE svg PUBLIC "-//W3C//DTD SVG 1.1//EN"
 "http://www.w3.org/Graphics/SVG/1.1/DTD/svg11.dtd">
<!-- Generated by graphviz version 2.36.0 (20140111.2315)
 -->
<!-- Title: parser.VariableManager.createVariableScope Pages: 1 -->
<svg width="420pt" height="154pt"
 viewBox="0.00 0.00 420.00 154.00" xmlns="http://www.w3.org/2000/svg" xmlns:xlink="http://www.w3.org/1999/xlink">
<g id="graph0" class="graph" transform="scale(1 1) rotate(0) translate(4 150)">
<title>parser.VariableManager.createVariableScope</title>
<polygon fill="white" stroke="none" points="-4,4 -4,-150 416,-150 416,4 -4,4"/>
<!-- Node1 -->
<g id="node1" class="node"><title>Node1</title>
<polygon fill="#bfbfbf" stroke="black" points="0.5,-55 0.5,-85 163.5,-85 163.5,-55 0.5,-55"/>
<text text-anchor="start" x="8.5" y="-73" font-family="Helvetica,sans-Serif" font-size="10.00">parser.VariableManager.create</text>
<text text-anchor="middle" x="82" y="-62" font-family="Helvetica,sans-Serif" font-size="10.00">VariableScope</text>
</g>
<!-- Node2 -->
<g id="node2" class="node"><title>Node2</title>
<g id="a_node2"><a xlink:href="../../d9/de0/classparser_1_1commands_1_1other_1_1_repeat.html#aa94d3f1c4786a256afdbc9718ba2883b" target="_top" xlink:title="parser.commands.other.Repeat.evaluate">
<polygon fill="white" stroke="black" points="200,-126.5 200,-145.5 412,-145.5 412,-126.5 200,-126.5"/>
<text text-anchor="middle" x="306" y="-133.5" font-family="Helvetica,sans-Serif" font-size="10.00">parser.commands.other.Repeat.evaluate</text>
</a>
</g>
</g>
<!-- Node1&#45;&gt;Node2 -->
<g id="edge1" class="edge"><title>Node1&#45;&gt;Node2</title>
<path fill="none" stroke="midnightblue" d="M125.797,-89.0466C147.661,-98.2039 174.886,-108.74 200,-116 214.262,-120.123 229.864,-123.622 244.575,-126.485"/>
<polygon fill="midnightblue" stroke="midnightblue" points="127.04,-85.7719 116.467,-85.0868 124.305,-92.2156 127.04,-85.7719"/>
</g>
<!-- Node3 -->
<g id="node3" class="node"><title>Node3</title>
<g id="a_node3"><a xlink:href="../../d0/d05/classparser_1_1commands_1_1other_1_1_do_times.html#aa1749474b7c85cd1caa0b32ebc3f1120" target="_top" xlink:title="parser.commands.other.Do\lTimes.evaluate">
<polygon fill="white" stroke="black" points="232,-77 232,-107 380,-107 380,-77 232,-77"/>
<text text-anchor="start" x="240" y="-95" font-family="Helvetica,sans-Serif" font-size="10.00">parser.commands.other.Do</text>
<text text-anchor="middle" x="306" y="-84" font-family="Helvetica,sans-Serif" font-size="10.00">Times.evaluate</text>
</a>
</g>
</g>
<!-- Node1&#45;&gt;Node3 -->
<g id="edge2" class="edge"><title>Node1&#45;&gt;Node3</title>
<path fill="none" stroke="midnightblue" d="M173.76,-78.9942C193.025,-80.9033 213.131,-82.8959 231.652,-84.7312"/>
<polygon fill="midnightblue" stroke="midnightblue" points="174.072,-75.508 163.775,-78.0047 173.381,-82.4739 174.072,-75.508"/>
</g>
<!-- Node4 -->
<g id="node4" class="node"><title>Node4</title>
<g id="a_node4"><a xlink:href="../../de/df8/classparser_1_1commands_1_1other_1_1_for.html#ab174f2bbc0bfe9fa9afd51f9213d4001" target="_top" xlink:title="parser.commands.other.For.evaluate">
<polygon fill="white" stroke="black" points="209.5,-38.5 209.5,-57.5 402.5,-57.5 402.5,-38.5 209.5,-38.5"/>
<text text-anchor="middle" x="306" y="-45.5" font-family="Helvetica,sans-Serif" font-size="10.00">parser.commands.other.For.evaluate</text>
</a>
</g>
</g>
<!-- Node1&#45;&gt;Node4 -->
<g id="edge3" class="edge"><title>Node1&#45;&gt;Node4</title>
<path fill="none" stroke="midnightblue" d="M173.908,-60.9911C185.543,-59.8381 197.482,-58.6549 209.192,-57.4945"/>
<polygon fill="midnightblue" stroke="midnightblue" points="173.381,-57.5261 163.775,-61.9953 174.072,-64.492 173.381,-57.5261"/>
</g>
<!-- Node5 -->
<g id="node5" class="node"><title>Node5</title>
<g id="a_node5"><a xlink:href="../../df/ddc/classparser_1_1nodes_1_1_command_node.html#a40c9fa452b071f108d17f6093a72861d" target="_top" xlink:title="parser.nodes.CommandNode.evaluate">
<polygon fill="white" stroke="black" points="205,-0.5 205,-19.5 407,-19.5 407,-0.5 205,-0.5"/>
<text text-anchor="middle" x="306" y="-7.5" font-family="Helvetica,sans-Serif" font-size="10.00">parser.nodes.CommandNode.evaluate</text>
</a>
</g>
</g>
<!-- Node1&#45;&gt;Node5 -->
<g id="edge4" class="edge"><title>Node1&#45;&gt;Node5</title>
<path fill="none" stroke="midnightblue" d="M130.647,-51.3832C151.671,-43.6702 176.824,-35.1165 200,-29 213.792,-25.36 228.787,-22.1908 243.013,-19.5384"/>
<polygon fill="midnightblue" stroke="midnightblue" points="129.147,-48.2067 120.993,-54.9714 131.586,-54.7681 129.147,-48.2067"/>
</g>
</g>
</svg>
