<?xml version="1.0" encoding="UTF-8" standalone="no"?>
<!DOCTYPE svg PUBLIC "-//W3C//DTD SVG 1.1//EN"
 "http://www.w3.org/Graphics/SVG/1.1/DTD/svg11.dtd">
<!-- Generated by graphviz version 2.36.0 (20140111.2315)
 -->
<!-- Title: parser.VariableManager.revertVariableScope Pages: 1 -->
<svg width="418pt" height="154pt"
 viewBox="0.00 0.00 418.00 154.00" xmlns="http://www.w3.org/2000/svg" xmlns:xlink="http://www.w3.org/1999/xlink">
<g id="graph0" class="graph" transform="scale(1 1) rotate(0) translate(4 150)">
<title>parser.VariableManager.revertVariableScope</title>
<polygon fill="white" stroke="none" points="-4,4 -4,-150 414,-150 414,4 -4,4"/>
<!-- Node1 -->
<g id="node1" class="node"><title>Node1</title>
<polygon fill="#bfbfbf" stroke="black" points="0.5,-55 0.5,-85 161.5,-85 161.5,-55 0.5,-55"/>
<text text-anchor="start" x="8.5" y="-73" font-family="Helvetica,sans-Serif" font-size="10.00">parser.VariableManager.revert</text>
<text text-anchor="middle" x="81" y="-62" font-family="Helvetica,sans-Serif" font-size="10.00">VariableScope</text>
</g>
<!-- Node2 -->
<g id="node2" class="node"><title>Node2</title>
<g id="a_node2"><a xlink:href="../../d9/de0/classparser_1_1commands_1_1other_1_1_repeat.html#aa94d3f1c4786a256afdbc9718ba2883b" target="_top" xlink:title="parser.commands.other.Repeat.evaluate">
<polygon fill="white" stroke="black" points="198,-126.5 198,-145.5 410,-145.5 410,-126.5 198,-126.5"/>
<text text-anchor="middle" x="304" y="-133.5" font-family="Helvetica,sans-Serif" font-size="10.00">parser.commands.other.Repeat.evaluate</text>
</a>
</g>
</g>
<!-- Node1&#45;&gt;Node2 -->
<g id="edge1" class="edge"><title>Node1&#45;&gt;Node2</title>
<path fill="none" stroke="midnightblue" d="M124.652,-89.1611C146.285,-98.2988 173.173,-108.784 198,-116 212.166,-120.118 227.66,-123.607 242.291,-126.46"/>
<polygon fill="midnightblue" stroke="midnightblue" points="125.988,-85.9258 115.418,-85.208 123.233,-92.361 125.988,-85.9258"/>
</g>
<!-- Node3 -->
<g id="node3" class="node"><title>Node3</title>
<g id="a_node3"><a xlink:href="../../d0/d05/classparser_1_1commands_1_1other_1_1_do_times.html#aa1749474b7c85cd1caa0b32ebc3f1120" target="_top" xlink:title="parser.commands.other.Do\lTimes.evaluate">
<polygon fill="white" stroke="black" points="230,-77 230,-107 378,-107 378,-77 230,-77"/>
<text text-anchor="start" x="238" y="-95" font-family="Helvetica,sans-Serif" font-size="10.00">parser.commands.other.Do</text>
<text text-anchor="middle" x="304" y="-84" font-family="Helvetica,sans-Serif" font-size="10.00">Times.evaluate</text>
</a>
</g>
</g>
<!-- Node1&#45;&gt;Node3 -->
<g id="edge2" class="edge"><title>Node1&#45;&gt;Node3</title>
<path fill="none" stroke="midnightblue" d="M171.803,-78.9396C191.135,-80.8641 211.344,-82.8759 229.947,-84.7278"/>
<polygon fill="midnightblue" stroke="midnightblue" points="172.084,-75.4504 161.786,-77.9425 171.39,-82.416 172.084,-75.4504"/>
</g>
<!-- Node4 -->
<g id="node4" class="node"><title>Node4</title>
<g id="a_node4"><a xlink:href="../../de/df8/classparser_1_1commands_1_1other_1_1_for.html#ab174f2bbc0bfe9fa9afd51f9213d4001" target="_top" xlink:title="parser.commands.other.For.evaluate">
<polygon fill="white" stroke="black" points="207.5,-38.5 207.5,-57.5 400.5,-57.5 400.5,-38.5 207.5,-38.5"/>
<text text-anchor="middle" x="304" y="-45.5" font-family="Helvetica,sans-Serif" font-size="10.00">parser.commands.other.For.evaluate</text>
</a>
</g>
</g>
<!-- Node1&#45;&gt;Node4 -->
<g id="edge3" class="edge"><title>Node1&#45;&gt;Node4</title>
<path fill="none" stroke="midnightblue" d="M171.98,-61.0427C183.689,-59.8771 195.717,-58.6798 207.512,-57.5056"/>
<polygon fill="midnightblue" stroke="midnightblue" points="171.39,-57.584 161.786,-62.0575 172.084,-64.5496 171.39,-57.584"/>
</g>
<!-- Node5 -->
<g id="node5" class="node"><title>Node5</title>
<g id="a_node5"><a xlink:href="../../df/ddc/classparser_1_1nodes_1_1_command_node.html#a40c9fa452b071f108d17f6093a72861d" target="_top" xlink:title="parser.nodes.CommandNode.evaluate">
<polygon fill="white" stroke="black" points="203,-0.5 203,-19.5 405,-19.5 405,-0.5 203,-0.5"/>
<text text-anchor="middle" x="304" y="-7.5" font-family="Helvetica,sans-Serif" font-size="10.00">parser.nodes.CommandNode.evaluate</text>
</a>
</g>
</g>
<!-- Node1&#45;&gt;Node5 -->
<g id="edge4" class="edge"><title>Node1&#45;&gt;Node5</title>
<path fill="none" stroke="midnightblue" d="M129.227,-51.3682C150.069,-43.6525 175.009,-35.1009 198,-29 211.787,-25.3415 226.78,-22.1648 241.005,-19.5112"/>
<polygon fill="midnightblue" stroke="midnightblue" points="127.791,-48.1688 119.657,-54.9581 130.249,-54.7229 127.791,-48.1688"/>
</g>
</g>
</svg>
