<?xml version="1.0" encoding="UTF-8" standalone="no"?>
<!DOCTYPE svg PUBLIC "-//W3C//DTD SVG 1.1//EN"
 "http://www.w3.org/Graphics/SVG/1.1/DTD/svg11.dtd">
<!-- Generated by graphviz version 2.36.0 (20140111.2315)
 -->
<!-- Title: parser.VariableManager.setVariable Pages: 1 -->
<svg width="404pt" height="203pt"
 viewBox="0.00 0.00 404.00 203.00" xmlns="http://www.w3.org/2000/svg" xmlns:xlink="http://www.w3.org/1999/xlink">
<g id="graph0" class="graph" transform="scale(1 1) rotate(0) translate(4 199)">
<title>parser.VariableManager.setVariable</title>
<polygon fill="white" stroke="none" points="-4,4 -4,-199 400,-199 400,4 -4,4"/>
<!-- Node1 -->
<g id="node1" class="node"><title>Node1</title>
<polygon fill="#bfbfbf" stroke="black" points="0.5,-82 0.5,-112 147.5,-112 147.5,-82 0.5,-82"/>
<text text-anchor="start" x="8.5" y="-100" font-family="Helvetica,sans-Serif" font-size="10.00">parser.VariableManager.set</text>
<text text-anchor="middle" x="74" y="-89" font-family="Helvetica,sans-Serif" font-size="10.00">Variable</text>
</g>
<!-- Node2 -->
<g id="node2" class="node"><title>Node2</title>
<g id="a_node2"><a xlink:href="../../d9/de0/classparser_1_1commands_1_1other_1_1_repeat.html#aa94d3f1c4786a256afdbc9718ba2883b" target="_top" xlink:title="parser.commands.other.Repeat.evaluate">
<polygon fill="white" stroke="black" points="184,-175.5 184,-194.5 396,-194.5 396,-175.5 184,-175.5"/>
<text text-anchor="middle" x="290" y="-182.5" font-family="Helvetica,sans-Serif" font-size="10.00">parser.commands.other.Repeat.evaluate</text>
</a>
</g>
</g>
<!-- Node1&#45;&gt;Node2 -->
<g id="edge1" class="edge"><title>Node1&#45;&gt;Node2</title>
<path fill="none" stroke="midnightblue" d="M102.486,-118.173C123.656,-133.449 154.244,-153.356 184,-165 195.146,-169.362 207.341,-172.795 219.349,-175.491"/>
<polygon fill="midnightblue" stroke="midnightblue" points="104.43,-115.258 94.2994,-112.157 100.285,-120.899 104.43,-115.258"/>
</g>
<!-- Node3 -->
<g id="node3" class="node"><title>Node3</title>
<g id="a_node3"><a xlink:href="../../d0/d05/classparser_1_1commands_1_1other_1_1_do_times.html#aa1749474b7c85cd1caa0b32ebc3f1120" target="_top" xlink:title="parser.commands.other.Do\lTimes.evaluate">
<polygon fill="white" stroke="black" points="216,-126 216,-156 364,-156 364,-126 216,-126"/>
<text text-anchor="start" x="224" y="-144" font-family="Helvetica,sans-Serif" font-size="10.00">parser.commands.other.Do</text>
<text text-anchor="middle" x="290" y="-133" font-family="Helvetica,sans-Serif" font-size="10.00">Times.evaluate</text>
</a>
</g>
</g>
<!-- Node1&#45;&gt;Node3 -->
<g id="edge2" class="edge"><title>Node1&#45;&gt;Node3</title>
<path fill="none" stroke="midnightblue" d="M157.644,-113.992C176.783,-117.927 197.019,-122.088 215.725,-125.934"/>
<polygon fill="midnightblue" stroke="midnightblue" points="158.249,-110.544 147.749,-111.958 156.839,-117.4 158.249,-110.544"/>
</g>
<!-- Node4 -->
<g id="node4" class="node"><title>Node4</title>
<g id="a_node4"><a xlink:href="../../de/df8/classparser_1_1commands_1_1other_1_1_for.html#ab174f2bbc0bfe9fa9afd51f9213d4001" target="_top" xlink:title="parser.commands.other.For.evaluate">
<polygon fill="white" stroke="black" points="193.5,-87.5 193.5,-106.5 386.5,-106.5 386.5,-87.5 193.5,-87.5"/>
<text text-anchor="middle" x="290" y="-94.5" font-family="Helvetica,sans-Serif" font-size="10.00">parser.commands.other.For.evaluate</text>
</a>
</g>
</g>
<!-- Node1&#45;&gt;Node4 -->
<g id="edge3" class="edge"><title>Node1&#45;&gt;Node4</title>
<path fill="none" stroke="midnightblue" d="M157.847,-97C169.473,-97 181.5,-97 193.339,-97"/>
<polygon fill="midnightblue" stroke="midnightblue" points="157.749,-93.5001 147.749,-97 157.749,-100.5 157.749,-93.5001"/>
</g>
<!-- Node5 -->
<g id="node5" class="node"><title>Node5</title>
<g id="a_node5"><a xlink:href="../../df/ddc/classparser_1_1nodes_1_1_command_node.html#a40c9fa452b071f108d17f6093a72861d" target="_top" xlink:title="parser.nodes.CommandNode.evaluate">
<polygon fill="white" stroke="black" points="189,-49.5 189,-68.5 391,-68.5 391,-49.5 189,-49.5"/>
<text text-anchor="middle" x="290" y="-56.5" font-family="Helvetica,sans-Serif" font-size="10.00">parser.nodes.CommandNode.evaluate</text>
</a>
</g>
</g>
<!-- Node1&#45;&gt;Node5 -->
<g id="edge4" class="edge"><title>Node1&#45;&gt;Node5</title>
<path fill="none" stroke="midnightblue" d="M157.636,-82.3262C183.731,-77.6926 211.867,-72.6965 235.38,-68.5213"/>
<polygon fill="midnightblue" stroke="midnightblue" points="156.983,-78.8874 147.749,-84.0819 158.207,-85.7796 156.983,-78.8874"/>
</g>
<!-- Node6 -->
<g id="node6" class="node"><title>Node6</title>
<g id="a_node6"><a xlink:href="../../d3/daf/classview_1_1windows_1_1_variables_window.html#a360b39c6a71c28028db714be16968cd8" target="_top" xlink:title="view.windows.VariablesWindow.set\lTableListener">
<polygon fill="white" stroke="black" points="201.5,-0 201.5,-30 378.5,-30 378.5,-0 201.5,-0"/>
<text text-anchor="start" x="209.5" y="-18" font-family="Helvetica,sans-Serif" font-size="10.00">view.windows.VariablesWindow.set</text>
<text text-anchor="middle" x="290" y="-7" font-family="Helvetica,sans-Serif" font-size="10.00">TableListener</text>
</a>
</g>
</g>
<!-- Node1&#45;&gt;Node6 -->
<g id="edge5" class="edge"><title>Node1&#45;&gt;Node6</title>
<path fill="none" stroke="midnightblue" d="M108.585,-76.6561C129.64,-64.6132 157.69,-49.8368 184,-40 194.005,-36.2595 204.76,-32.9453 215.435,-30.053"/>
<polygon fill="midnightblue" stroke="midnightblue" points="106.617,-73.7513 99.7252,-81.7981 110.131,-79.8055 106.617,-73.7513"/>
</g>
</g>
</svg>
