<?xml version="1.0" encoding="UTF-8" standalone="no"?>
<!DOCTYPE svg PUBLIC "-//W3C//DTD SVG 1.1//EN"
 "http://www.w3.org/Graphics/SVG/1.1/DTD/svg11.dtd">
<!-- Generated by graphviz version 2.36.0 (20140111.2315)
 -->
<!-- Title: parser.VariableManager.getScopeNames Pages: 1 -->
<svg width="386pt" height="38pt"
 viewBox="0.00 0.00 386.00 38.00" xmlns="http://www.w3.org/2000/svg" xmlns:xlink="http://www.w3.org/1999/xlink">
<g id="graph0" class="graph" transform="scale(1 1) rotate(0) translate(4 34)">
<title>parser.VariableManager.getScopeNames</title>
<polygon fill="white" stroke="none" points="-4,4 -4,-34 382,-34 382,4 -4,4"/>
<!-- Node1 -->
<g id="node1" class="node"><title>Node1</title>
<polygon fill="#bfbfbf" stroke="black" points="0,-0 0,-30 148,-30 148,-0 0,-0"/>
<text text-anchor="start" x="8" y="-18" font-family="Helvetica,sans-Serif" font-size="10.00">parser.VariableManager.get</text>
<text text-anchor="middle" x="74" y="-7" font-family="Helvetica,sans-Serif" font-size="10.00">ScopeNames</text>
</g>
<!-- Node2 -->
<g id="node2" class="node"><title>Node2</title>
<g id="a_node2"><a xlink:href="../../d3/daf/classview_1_1windows_1_1_variables_window.html#a332ee7a7fc621a7f64ed2bccd8640fdb" target="_top" xlink:title="view.windows.VariablesWindow.create\lNewListener">
<polygon fill="white" stroke="black" points="184.5,-0 184.5,-30 377.5,-30 377.5,-0 184.5,-0"/>
<text text-anchor="start" x="192.5" y="-18" font-family="Helvetica,sans-Serif" font-size="10.00">view.windows.VariablesWindow.create</text>
<text text-anchor="middle" x="281" y="-7" font-family="Helvetica,sans-Serif" font-size="10.00">NewListener</text>
</a>
</g>
</g>
<!-- Node1&#45;&gt;Node2 -->
<g id="edge1" class="edge"><title>Node1&#45;&gt;Node2</title>
<path fill="none" stroke="midnightblue" d="M158.155,-15C166.772,-15 175.579,-15 184.319,-15"/>
<polygon fill="midnightblue" stroke="midnightblue" points="158.142,-11.5001 148.141,-15 158.141,-18.5001 158.142,-11.5001"/>
</g>
</g>
</svg>
