<?xml version="1.0" encoding="UTF-8" standalone="no"?>
<!DOCTYPE svg PUBLIC "-//W3C//DTD SVG 1.1//EN"
 "http://www.w3.org/Graphics/SVG/1.1/DTD/svg11.dtd">
<!-- Generated by graphviz version 2.36.0 (20140111.2315)
 -->
<!-- Title: parser.commands.math.Remainder.evaluate Pages: 1 -->
<svg width="672pt" height="115pt"
 viewBox="0.00 0.00 672.00 115.00" xmlns="http://www.w3.org/2000/svg" xmlns:xlink="http://www.w3.org/1999/xlink">
<g id="graph0" class="graph" transform="scale(1 1) rotate(0) translate(4 111)">
<title>parser.commands.math.Remainder.evaluate</title>
<polygon fill="white" stroke="none" points="-4,4 -4,-111 668,-111 668,4 -4,4"/>
<!-- Node1 -->
<g id="node1" class="node"><title>Node1</title>
<polygon fill="#bfbfbf" stroke="black" points="0,-49.5 0,-68.5 230,-68.5 230,-49.5 0,-49.5"/>
<text text-anchor="middle" x="115" y="-56.5" font-family="Helvetica,sans-Serif" font-size="10.00">parser.commands.math.Remainder.evaluate</text>
</g>
<!-- Node2 -->
<g id="node2" class="node"><title>Node2</title>
<g id="a_node2"><a xlink:href="../../da/d96/classparser_1_1nodes_1_1_syntax_node.html#a669c370adce66a1960835323a90b9adb" target="_top" xlink:title="parser.nodes.SyntaxNode.evaluate">
<polygon fill="white" stroke="black" points="266.5,-87.5 266.5,-106.5 451.5,-106.5 451.5,-87.5 266.5,-87.5"/>
<text text-anchor="middle" x="359" y="-94.5" font-family="Helvetica,sans-Serif" font-size="10.00">parser.nodes.SyntaxNode.evaluate</text>
</a>
</g>
</g>
<!-- Node1&#45;&gt;Node2 -->
<g id="edge1" class="edge"><title>Node1&#45;&gt;Node2</title>
<path fill="none" stroke="midnightblue" d="M176.754,-68.54C210.269,-73.8025 252.062,-80.3651 287.067,-85.8618"/>
<polygon fill="midnightblue" stroke="midnightblue" points="286.799,-89.3624 297.221,-87.4561 287.885,-82.4472 286.799,-89.3624"/>
</g>
<!-- Node3 -->
<g id="node3" class="node"><title>Node3</title>
<g id="a_node3"><a xlink:href="../../db/d11/classparser_1_1nodes_1_1_binary_node.html#a555930c71203ce7c05e1290f069b19a1" target="_top" xlink:title="parser.nodes.BinaryNode.getLeft">
<polygon fill="white" stroke="black" points="272,-49.5 272,-68.5 446,-68.5 446,-49.5 272,-49.5"/>
<text text-anchor="middle" x="359" y="-56.5" font-family="Helvetica,sans-Serif" font-size="10.00">parser.nodes.BinaryNode.getLeft</text>
</a>
</g>
</g>
<!-- Node1&#45;&gt;Node3 -->
<g id="edge2" class="edge"><title>Node1&#45;&gt;Node3</title>
<path fill="none" stroke="midnightblue" d="M230.268,-59C240.731,-59 251.262,-59 261.546,-59"/>
<polygon fill="midnightblue" stroke="midnightblue" points="261.736,-62.5001 271.736,-59 261.736,-55.5001 261.736,-62.5001"/>
</g>
<!-- Node5 -->
<g id="node5" class="node"><title>Node5</title>
<g id="a_node5"><a xlink:href="../../db/d11/classparser_1_1nodes_1_1_binary_node.html#a9c33799a377e3c277de0fc9138a2cb81" target="_top" xlink:title="parser.nodes.BinaryNode.get\lRight">
<polygon fill="white" stroke="black" points="281,-0 281,-30 437,-30 437,-0 281,-0"/>
<text text-anchor="start" x="289" y="-18" font-family="Helvetica,sans-Serif" font-size="10.00">parser.nodes.BinaryNode.get</text>
<text text-anchor="middle" x="359" y="-7" font-family="Helvetica,sans-Serif" font-size="10.00">Right</text>
</a>
</g>
</g>
<!-- Node1&#45;&gt;Node5 -->
<g id="edge4" class="edge"><title>Node1&#45;&gt;Node5</title>
<path fill="none" stroke="midnightblue" d="M168.51,-49.4527C198.37,-44.0237 236.526,-37.0862 270.762,-30.8614"/>
<polygon fill="midnightblue" stroke="midnightblue" points="271.562,-34.2734 280.775,-29.041 270.31,-27.3863 271.562,-34.2734"/>
</g>
<!-- Node4 -->
<g id="node4" class="node"><title>Node4</title>
<g id="a_node4"><a xlink:href="../../d7/d93/classparser_1_1nodes_1_1_parameter_node.html#a2c57eab9997daf1efb840a189c1034c5" target="_top" xlink:title="parser.nodes.ParameterNode.get\lParameter">
<polygon fill="white" stroke="black" points="488,-22 488,-52 664,-52 664,-22 488,-22"/>
<text text-anchor="start" x="496" y="-40" font-family="Helvetica,sans-Serif" font-size="10.00">parser.nodes.ParameterNode.get</text>
<text text-anchor="middle" x="576" y="-29" font-family="Helvetica,sans-Serif" font-size="10.00">Parameter</text>
</a>
</g>
</g>
<!-- Node3&#45;&gt;Node4 -->
<g id="edge3" class="edge"><title>Node3&#45;&gt;Node4</title>
<path fill="none" stroke="midnightblue" d="M446.21,-50.1785C456.568,-49.1186 467.201,-48.0306 477.703,-46.956"/>
<polygon fill="midnightblue" stroke="midnightblue" points="478.127,-50.431 487.718,-45.9311 477.414,-43.4674 478.127,-50.431"/>
</g>
<!-- Node5&#45;&gt;Node4 -->
<g id="edge5" class="edge"><title>Node5&#45;&gt;Node4</title>
<path fill="none" stroke="midnightblue" d="M437.013,-22.8804C450.167,-24.2264 463.985,-25.6404 477.586,-27.0321"/>
<polygon fill="midnightblue" stroke="midnightblue" points="477.626,-30.5543 487.93,-28.0905 478.338,-23.5907 477.626,-30.5543"/>
</g>
</g>
</svg>
