<?xml version="1.0" encoding="UTF-8" standalone="no"?>
<!DOCTYPE svg PUBLIC "-//W3C//DTD SVG 1.1//EN"
 "http://www.w3.org/Graphics/SVG/1.1/DTD/svg11.dtd">
<!-- Generated by graphviz version 2.36.0 (20140111.2315)
 -->
<!-- Title: parser.nodes.UnaryNode.getArgument Pages: 1 -->
<svg width="616pt" height="633pt"
 viewBox="0.00 0.00 616.00 633.00" xmlns="http://www.w3.org/2000/svg" xmlns:xlink="http://www.w3.org/1999/xlink">
<g id="graph0" class="graph" transform="scale(1 1) rotate(0) translate(4 629)">
<title>parser.nodes.UnaryNode.getArgument</title>
<polygon fill="white" stroke="none" points="-4,4 -4,-629 612,-629 612,4 -4,4"/>
<!-- Node1 -->
<g id="node1" class="node"><title>Node1</title>
<polygon fill="#bfbfbf" stroke="black" points="0.5,-286 0.5,-316 155.5,-316 155.5,-286 0.5,-286"/>
<text text-anchor="start" x="8.5" y="-304" font-family="Helvetica,sans-Serif" font-size="10.00">parser.nodes.UnaryNode.get</text>
<text text-anchor="middle" x="78" y="-293" font-family="Helvetica,sans-Serif" font-size="10.00">Argument</text>
</g>
<!-- Node2 -->
<g id="node2" class="node"><title>Node2</title>
<g id="a_node2"><a xlink:href="../../de/d96/classparser_1_1commands_1_1workspace_1_1_tell.html#a95838b915534bd40645104c234df15bd" target="_top" xlink:title="parser.commands.workspace.\lTell.checkSyntax">
<polygon fill="white" stroke="black" points="222,-595 222,-625 382,-625 382,-595 222,-595"/>
<text text-anchor="start" x="230" y="-613" font-family="Helvetica,sans-Serif" font-size="10.00">parser.commands.workspace.</text>
<text text-anchor="middle" x="302" y="-602" font-family="Helvetica,sans-Serif" font-size="10.00">Tell.checkSyntax</text>
</a>
</g>
</g>
<!-- Node1&#45;&gt;Node2 -->
<g id="edge1" class="edge"><title>Node1&#45;&gt;Node2</title>
<path fill="none" stroke="midnightblue" d="M81.7796,-326.214C89.1743,-380.878 114.392,-510.927 192,-580 200.577,-587.634 210.926,-593.345 221.789,-597.614"/>
<polygon fill="midnightblue" stroke="midnightblue" points="85.2194,-325.517 80.4938,-316.034 78.2746,-326.394 85.2194,-325.517"/>
</g>
<!-- Node3 -->
<g id="node3" class="node"><title>Node3</title>
<g id="a_node3"><a xlink:href="../../de/d96/classparser_1_1commands_1_1workspace_1_1_tell.html#a000e981ff311783d84883c8f19aa597e" target="_top" xlink:title="parser.commands.workspace.\lTell.evaluate">
<polygon fill="white" stroke="black" points="448,-573 448,-603 608,-603 608,-573 448,-573"/>
<text text-anchor="start" x="456" y="-591" font-family="Helvetica,sans-Serif" font-size="10.00">parser.commands.workspace.</text>
<text text-anchor="middle" x="528" y="-580" font-family="Helvetica,sans-Serif" font-size="10.00">Tell.evaluate</text>
</a>
</g>
</g>
<!-- Node1&#45;&gt;Node3 -->
<g id="edge15" class="edge"><title>Node1&#45;&gt;Node3</title>
<path fill="none" stroke="midnightblue" d="M82.5487,-326.409C91.1284,-377.389 118.042,-491.885 192,-546 231.44,-574.858 361.634,-583.942 447.62,-586.767"/>
<polygon fill="midnightblue" stroke="midnightblue" points="85.9632,-325.593 80.9449,-316.262 79.0491,-326.686 85.9632,-325.593"/>
</g>
<!-- Node4 -->
<g id="node4" class="node"><title>Node4</title>
<g id="a_node4"><a xlink:href="../../d4/d1b/classparser_1_1commands_1_1turtle_1_1commands_1_1_right.html#ae1d2bec3ebb1dd9ea7d2fc8c40bb1394" target="_top" xlink:title="parser.commands.turtle.commands.\lRight.evaluate">
<polygon fill="white" stroke="black" points="206,-507 206,-537 398,-537 398,-507 206,-507"/>
<text text-anchor="start" x="214" y="-525" font-family="Helvetica,sans-Serif" font-size="10.00">parser.commands.turtle.commands.</text>
<text text-anchor="middle" x="302" y="-514" font-family="Helvetica,sans-Serif" font-size="10.00">Right.evaluate</text>
</a>
</g>
</g>
<!-- Node1&#45;&gt;Node4 -->
<g id="edge3" class="edge"><title>Node1&#45;&gt;Node4</title>
<path fill="none" stroke="midnightblue" d="M86.1014,-325.807C99.4924,-367.918 132.603,-453.086 192,-497 197.23,-500.867 202.958,-504.149 208.963,-506.935"/>
<polygon fill="midnightblue" stroke="midnightblue" points="89.3965,-324.613 83.1179,-316.079 82.7042,-326.666 89.3965,-324.613"/>
</g>
<!-- Node5 -->
<g id="node5" class="node"><title>Node5</title>
<g id="a_node5"><a xlink:href="../../db/d45/classparser_1_1commands_1_1turtle_1_1commands_1_1_backward.html#a5188f3cd325de8494f1d95019f86d01f" target="_top" xlink:title="parser.commands.turtle.commands.\lBackward.evaluate">
<polygon fill="white" stroke="black" points="206,-458 206,-488 398,-488 398,-458 206,-458"/>
<text text-anchor="start" x="214" y="-476" font-family="Helvetica,sans-Serif" font-size="10.00">parser.commands.turtle.commands.</text>
<text text-anchor="middle" x="302" y="-465" font-family="Helvetica,sans-Serif" font-size="10.00">Backward.evaluate</text>
</a>
</g>
</g>
<!-- Node1&#45;&gt;Node5 -->
<g id="edge4" class="edge"><title>Node1&#45;&gt;Node5</title>
<path fill="none" stroke="midnightblue" d="M90.7997,-325.297C108.191,-358.421 143.915,-417.149 192,-448 198.046,-451.879 204.621,-455.159 211.447,-457.932"/>
<polygon fill="midnightblue" stroke="midnightblue" points="93.8613,-323.597 86.1912,-316.288 87.6293,-326.785 93.8613,-323.597"/>
</g>
<!-- Node6 -->
<g id="node6" class="node"><title>Node6</title>
<g id="a_node6"><a xlink:href="../../d3/da6/classparser_1_1commands_1_1turtle_1_1commands_1_1_set_heading.html#a860d6e71f5773c82d726b999272f0887" target="_top" xlink:title="parser.commands.turtle.commands.\lSetHeading.evaluate">
<polygon fill="white" stroke="black" points="206,-409 206,-439 398,-439 398,-409 206,-409"/>
<text text-anchor="start" x="214" y="-427" font-family="Helvetica,sans-Serif" font-size="10.00">parser.commands.turtle.commands.</text>
<text text-anchor="middle" x="302" y="-416" font-family="Helvetica,sans-Serif" font-size="10.00">SetHeading.evaluate</text>
</a>
</g>
</g>
<!-- Node1&#45;&gt;Node6 -->
<g id="edge5" class="edge"><title>Node1&#45;&gt;Node6</title>
<path fill="none" stroke="midnightblue" d="M98.7284,-323.642C119.633,-346.181 154.72,-380.066 192,-399 199.617,-402.868 207.835,-406.146 216.223,-408.92"/>
<polygon fill="midnightblue" stroke="midnightblue" points="101.264,-321.228 91.9453,-316.187 96.0859,-325.939 101.264,-321.228"/>
</g>
<!-- Node7 -->
<g id="node7" class="node"><title>Node7</title>
<g id="a_node7"><a xlink:href="../../d2/d5a/classparser_1_1commands_1_1turtle_1_1commands_1_1_set_shape.html#aa8508d07d037cae6a0f506a06bda841c" target="_top" xlink:title="parser.commands.turtle.commands.\lSetShape.evaluate">
<polygon fill="white" stroke="black" points="206,-360 206,-390 398,-390 398,-360 206,-360"/>
<text text-anchor="start" x="214" y="-378" font-family="Helvetica,sans-Serif" font-size="10.00">parser.commands.turtle.commands.</text>
<text text-anchor="middle" x="302" y="-367" font-family="Helvetica,sans-Serif" font-size="10.00">SetShape.evaluate</text>
</a>
</g>
</g>
<!-- Node1&#45;&gt;Node7 -->
<g id="edge6" class="edge"><title>Node1&#45;&gt;Node7</title>
<path fill="none" stroke="midnightblue" d="M118.667,-320.332C140.027,-330.195 167.048,-341.806 192,-350 203.16,-353.665 215.132,-356.994 226.911,-359.941"/>
<polygon fill="midnightblue" stroke="midnightblue" points="120.122,-317.149 109.581,-316.085 117.158,-323.491 120.122,-317.149"/>
</g>
<!-- Node8 -->
<g id="node8" class="node"><title>Node8</title>
<g id="a_node8"><a xlink:href="../../d5/d8a/classparser_1_1commands_1_1turtle_1_1commands_1_1_set_pen_size.html#a35e14f55b2ea8477661d0fabb15e8861" target="_top" xlink:title="parser.commands.turtle.commands.\lSetPenSize.evaluate">
<polygon fill="white" stroke="black" points="206,-311 206,-341 398,-341 398,-311 206,-311"/>
<text text-anchor="start" x="214" y="-329" font-family="Helvetica,sans-Serif" font-size="10.00">parser.commands.turtle.commands.</text>
<text text-anchor="middle" x="302" y="-318" font-family="Helvetica,sans-Serif" font-size="10.00">SetPenSize.evaluate</text>
</a>
</g>
</g>
<!-- Node1&#45;&gt;Node8 -->
<g id="edge7" class="edge"><title>Node1&#45;&gt;Node8</title>
<path fill="none" stroke="midnightblue" d="M165.683,-310.762C178.863,-312.246 192.524,-313.784 205.873,-315.287"/>
<polygon fill="midnightblue" stroke="midnightblue" points="166.04,-307.28 155.711,-309.639 165.256,-314.236 166.04,-307.28"/>
</g>
<!-- Node9 -->
<g id="node9" class="node"><title>Node9</title>
<g id="a_node9"><a xlink:href="../../d3/d01/classparser_1_1commands_1_1turtle_1_1commands_1_1_set_pen_color.html#ae8f9ac8f6a1e3ce70b72ab4d742cb5ae" target="_top" xlink:title="parser.commands.turtle.commands.\lSetPenColor.evaluate">
<polygon fill="white" stroke="black" points="206,-262 206,-292 398,-292 398,-262 206,-262"/>
<text text-anchor="start" x="214" y="-280" font-family="Helvetica,sans-Serif" font-size="10.00">parser.commands.turtle.commands.</text>
<text text-anchor="middle" x="302" y="-269" font-family="Helvetica,sans-Serif" font-size="10.00">SetPenColor.evaluate</text>
</a>
</g>
</g>
<!-- Node1&#45;&gt;Node9 -->
<g id="edge8" class="edge"><title>Node1&#45;&gt;Node9</title>
<path fill="none" stroke="midnightblue" d="M165.683,-291.629C178.863,-290.204 192.524,-288.727 205.873,-287.284"/>
<polygon fill="midnightblue" stroke="midnightblue" points="165.277,-288.152 155.711,-292.707 166.029,-295.112 165.277,-288.152"/>
</g>
<!-- Node10 -->
<g id="node10" class="node"><title>Node10</title>
<g id="a_node10"><a xlink:href="../../de/d5d/classparser_1_1commands_1_1turtle_1_1commands_1_1_forward.html#a4fed720c423f5189a2cc419372060098" target="_top" xlink:title="parser.commands.turtle.commands.\lForward.evaluate">
<polygon fill="white" stroke="black" points="206,-213 206,-243 398,-243 398,-213 206,-213"/>
<text text-anchor="start" x="214" y="-231" font-family="Helvetica,sans-Serif" font-size="10.00">parser.commands.turtle.commands.</text>
<text text-anchor="middle" x="302" y="-220" font-family="Helvetica,sans-Serif" font-size="10.00">Forward.evaluate</text>
</a>
</g>
</g>
<!-- Node1&#45;&gt;Node10 -->
<g id="edge9" class="edge"><title>Node1&#45;&gt;Node10</title>
<path fill="none" stroke="midnightblue" d="M119.906,-281.561C141.083,-272.029 167.56,-260.925 192,-253 203.266,-249.347 215.351,-246.015 227.227,-243.059"/>
<polygon fill="midnightblue" stroke="midnightblue" points="118.223,-278.481 110.575,-285.813 121.126,-284.851 118.223,-278.481"/>
</g>
<!-- Node11 -->
<g id="node11" class="node"><title>Node11</title>
<g id="a_node11"><a xlink:href="../../de/dc8/classparser_1_1commands_1_1turtle_1_1commands_1_1_left.html#a8388da8b925593779b8ec31cdfb99679" target="_top" xlink:title="parser.commands.turtle.commands.\lLeft.evaluate">
<polygon fill="white" stroke="black" points="206,-164 206,-194 398,-194 398,-164 206,-164"/>
<text text-anchor="start" x="214" y="-182" font-family="Helvetica,sans-Serif" font-size="10.00">parser.commands.turtle.commands.</text>
<text text-anchor="middle" x="302" y="-171" font-family="Helvetica,sans-Serif" font-size="10.00">Left.evaluate</text>
</a>
</g>
</g>
<!-- Node1&#45;&gt;Node11 -->
<g id="edge10" class="edge"><title>Node1&#45;&gt;Node11</title>
<path fill="none" stroke="midnightblue" d="M98.7759,-278.595C119.719,-256.292 154.835,-222.757 192,-204 199.713,-200.107 208.038,-196.812 216.529,-194.025"/>
<polygon fill="midnightblue" stroke="midnightblue" points="96.1806,-276.247 91.9793,-285.973 101.329,-280.99 96.1806,-276.247"/>
</g>
<!-- Node12 -->
<g id="node12" class="node"><title>Node12</title>
<g id="a_node12"><a xlink:href="../../da/dbd/classparser_1_1commands_1_1view_1_1_set_background.html#a9ac8ae934ce147f484f9496d776a1ed0" target="_top" xlink:title="parser.commands.view.Set\lBackground.evaluate">
<polygon fill="white" stroke="black" points="229,-115 229,-145 375,-145 375,-115 229,-115"/>
<text text-anchor="start" x="237" y="-133" font-family="Helvetica,sans-Serif" font-size="10.00">parser.commands.view.Set</text>
<text text-anchor="middle" x="302" y="-122" font-family="Helvetica,sans-Serif" font-size="10.00">Background.evaluate</text>
</a>
</g>
</g>
<!-- Node1&#45;&gt;Node12 -->
<g id="edge11" class="edge"><title>Node1&#45;&gt;Node12</title>
<path fill="none" stroke="midnightblue" d="M90.8434,-276.868C108.286,-243.969 144.07,-185.64 192,-155 203.124,-147.889 216.028,-142.792 228.983,-139.14"/>
<polygon fill="midnightblue" stroke="midnightblue" points="87.701,-275.325 86.2202,-285.816 93.9199,-278.538 87.701,-275.325"/>
</g>
<!-- Node13 -->
<g id="node13" class="node"><title>Node13</title>
<g id="a_node13"><a xlink:href="../../d0/dd3/classparser_1_1commands_1_1math_1_1_minus.html#ac5716854a2e7ce76fe3e5c4bee3ffad8" target="_top" xlink:title="parser.commands.math.Minus.evaluate">
<polygon fill="white" stroke="black" points="198.5,-76.5 198.5,-95.5 405.5,-95.5 405.5,-76.5 198.5,-76.5"/>
<text text-anchor="middle" x="302" y="-83.5" font-family="Helvetica,sans-Serif" font-size="10.00">parser.commands.math.Minus.evaluate</text>
</a>
</g>
</g>
<!-- Node1&#45;&gt;Node13 -->
<g id="edge12" class="edge"><title>Node1&#45;&gt;Node13</title>
<path fill="none" stroke="midnightblue" d="M85.9393,-276.041C99.085,-233.721 131.836,-148.367 192,-106 198.056,-101.735 204.756,-98.3009 211.769,-95.5436"/>
<polygon fill="midnightblue" stroke="midnightblue" points="82.5267,-275.237 83.0148,-285.82 89.2332,-277.242 82.5267,-275.237"/>
</g>
<!-- Node14 -->
<g id="node14" class="node"><title>Node14</title>
<g id="a_node14"><a xlink:href="../../da/d3d/classparser_1_1commands_1_1bool_1_1_not.html#a6960be69c79a17f384c6efb6cf65dc3e" target="_top" xlink:title="parser.commands.bool.Not.evaluate">
<polygon fill="white" stroke="black" points="206.5,-38.5 206.5,-57.5 397.5,-57.5 397.5,-38.5 206.5,-38.5"/>
<text text-anchor="middle" x="302" y="-45.5" font-family="Helvetica,sans-Serif" font-size="10.00">parser.commands.bool.Not.evaluate</text>
</a>
</g>
</g>
<!-- Node1&#45;&gt;Node14 -->
<g id="edge13" class="edge"><title>Node1&#45;&gt;Node14</title>
<path fill="none" stroke="midnightblue" d="M83.3367,-275.982C93.1842,-227.264 122.044,-119.822 192,-67 196.982,-63.2381 202.456,-60.1251 208.217,-57.5569"/>
<polygon fill="midnightblue" stroke="midnightblue" points="79.8657,-275.499 81.4191,-285.979 86.7403,-276.818 79.8657,-275.499"/>
</g>
<!-- Node15 -->
<g id="node15" class="node"><title>Node15</title>
<g id="a_node15"><a xlink:href="../../dd/db0/classparser_1_1commands_1_1math_1_1_random.html#a1813631ffdc040ffd26a12914e8fbbfa" target="_top" xlink:title="parser.commands.math.Random.evaluate">
<polygon fill="white" stroke="black" points="192.5,-0.5 192.5,-19.5 411.5,-19.5 411.5,-0.5 192.5,-0.5"/>
<text text-anchor="middle" x="302" y="-7.5" font-family="Helvetica,sans-Serif" font-size="10.00">parser.commands.math.Random.evaluate</text>
</a>
</g>
</g>
<!-- Node1&#45;&gt;Node15 -->
<g id="edge14" class="edge"><title>Node1&#45;&gt;Node15</title>
<path fill="none" stroke="midnightblue" d="M81.5146,-275.845C88.3834,-221.415 112.623,-92.5114 192,-29 196.65,-25.2797 201.772,-22.1819 207.183,-19.6102"/>
<polygon fill="midnightblue" stroke="midnightblue" points="78.0136,-275.65 80.3299,-285.989 84.9664,-276.462 78.0136,-275.65"/>
</g>
<!-- Node2&#45;&gt;Node3 -->
<g id="edge2" class="edge"><title>Node2&#45;&gt;Node3</title>
<path fill="none" stroke="midnightblue" d="M392.373,-601.222C410.702,-599.422 429.876,-597.539 447.817,-595.777"/>
<polygon fill="midnightblue" stroke="midnightblue" points="391.899,-597.752 382.289,-602.213 392.584,-604.718 391.899,-597.752"/>
</g>
</g>
</svg>
