<?xml version="1.0" encoding="UTF-8" standalone="no"?>
<!DOCTYPE svg PUBLIC "-//W3C//DTD SVG 1.1//EN"
 "http://www.w3.org/Graphics/SVG/1.1/DTD/svg11.dtd">
<!-- Generated by graphviz version 2.36.0 (20140111.2315)
 -->
<!-- Title: parser.commands.other.DoTimes.evaluate Pages: 1 -->
<!--zoomable 336 -->
<svg id="main" version="1.1" xmlns="http://www.w3.org/2000/svg" xmlns:xlink="http://www.w3.org/1999/xlink" xml:space="preserve" onload="init(evt)">
<style type="text/css"><![CDATA[
.edge:hover path { stroke: red; }
.edge:hover polygon { stroke: red; fill: red; }
]]></style>
<script type="text/javascript"><![CDATA[
var edges = document.getElementsByTagName('g');
if (edges && edges.length) {
  for (var i=0;i<edges.length;i++) {
    if (edges[i].id.substr(0,4)=='edge') {
      edges[i].setAttribute('class','edge');
    }
  }
}
]]></script>
        <defs>
                <circle id="rim" cx="0" cy="0" r="7"/>
                <circle id="rim2" cx="0" cy="0" r="3.5"/>
                <g id="zoomPlus">
                        <use xlink:href="#rim" fill="#404040">
                                <set attributeName="fill" to="#808080" begin="zoomplus.mouseover" end="zoomplus.mouseout"/>
                        </use>
                        <path d="M-4,0h8M0,-4v8" fill="none" stroke="white" stroke-width="1.5" pointer-events="none"/>
                </g>
                <g id="zoomMin">
                        <use xlink:href="#rim" fill="#404040">
                                <set attributeName="fill" to="#808080" begin="zoomminus.mouseover" end="zoomminus.mouseout"/>
                        </use>
                        <path d="M-4,0h8" fill="none" stroke="white" stroke-width="1.5" pointer-events="none"/>
                </g>
                <g id="dirArrow">
                        <path fill="none" stroke="white" stroke-width="1.5" d="M0,-3.0v7 M-2.5,-0.5L0,-3.0L2.5,-0.5"/>
                </g>
               <g id="resetDef">
                       <use xlink:href="#rim2" fill="#404040">
                               <set attributeName="fill" to="#808080" begin="reset.mouseover" end="reset.mouseout"/>
                       </use>
               </g>
        </defs>

<script type="text/javascript">
var viewWidth = 800;
var viewHeight = 336;
var sectionId = 'dynsection-4';
</script>
<script xlink:href="../../svgpan.js"/>
<svg id="graph" class="graph">
<g id="viewport">
<title>parser.commands.other.DoTimes.evaluate</title>
<polygon fill="white" stroke="none" points="-4,4 -4,-332 796,-332 796,4 -4,4"/>
<!-- Node1 -->
<g id="node1" class="node"><title>Node1</title>
<polygon fill="#bfbfbf" stroke="black" points="0,-161 0,-191 148,-191 148,-161 0,-161"/>
<text text-anchor="start" x="8" y="-179" font-family="Helvetica,sans-Serif" font-size="10.00">parser.commands.other.Do</text>
<text text-anchor="middle" x="74" y="-168" font-family="Helvetica,sans-Serif" font-size="10.00">Times.evaluate</text>
</g>
<!-- Node2 -->
<g id="node2" class="node"><title>Node2</title>
<g id="a_node2"><a xlink:href="../../d0/d05/classparser_1_1commands_1_1other_1_1_do_times.html#a2ab7e71e355a34d9c136bf67eb751c45" target="_top" xlink:title="parser.commands.other.Do\lTimes.checkSyntax">
<polygon fill="white" stroke="black" points="203,-249 203,-279 351,-279 351,-249 203,-249"/>
<text text-anchor="start" x="211" y="-267" font-family="Helvetica,sans-Serif" font-size="10.00">parser.commands.other.Do</text>
<text text-anchor="middle" x="277" y="-256" font-family="Helvetica,sans-Serif" font-size="10.00">Times.checkSyntax</text>
</a>
</g>
</g>
<!-- Node1&#45;&gt;Node2 -->
<g id="edge1" class="edge"><title>Node1&#45;&gt;Node2</title>
<path fill="none" stroke="midnightblue" d="M100.369,-191.125C122.074,-203.666 154.411,-221.416 184,-234 193.724,-238.135 204.224,-242.05 214.53,-245.602"/>
<polygon fill="midnightblue" stroke="midnightblue" points="213.728,-249.025 224.322,-248.892 215.957,-242.389 213.728,-249.025"/>
</g>
<!-- Node4 -->
<g id="node4" class="node"><title>Node4</title>
<g id="a_node4"><a xlink:href="../../db/d11/classparser_1_1nodes_1_1_binary_node.html#a555930c71203ce7c05e1290f069b19a1" target="_top" xlink:title="parser.nodes.BinaryNode.getLeft">
<polygon fill="white" stroke="black" points="406,-210.5 406,-229.5 580,-229.5 580,-210.5 406,-210.5"/>
<text text-anchor="middle" x="493" y="-217.5" font-family="Helvetica,sans-Serif" font-size="10.00">parser.nodes.BinaryNode.getLeft</text>
</a>
</g>
</g>
<!-- Node1&#45;&gt;Node4 -->
<g id="edge9" class="edge"><title>Node1&#45;&gt;Node4</title>
<path fill="none" stroke="midnightblue" d="M135.525,-191.038C151.226,-194.467 168.172,-197.757 184,-200 254.34,-209.969 334.432,-214.976 395.309,-217.488"/>
<polygon fill="midnightblue" stroke="midnightblue" points="395.545,-221 405.676,-217.899 395.823,-214.005 395.545,-221"/>
</g>
<!-- Node6 -->
<g id="node6" class="node"><title>Node6</title>
<g id="a_node6"><a xlink:href="../../db/d11/classparser_1_1nodes_1_1_binary_node.html#a9c33799a377e3c277de0fc9138a2cb81" target="_top" xlink:title="parser.nodes.BinaryNode.get\lRight">
<polygon fill="white" stroke="black" points="415,-298 415,-328 571,-328 571,-298 415,-298"/>
<text text-anchor="start" x="423" y="-316" font-family="Helvetica,sans-Serif" font-size="10.00">parser.nodes.BinaryNode.get</text>
<text text-anchor="middle" x="493" y="-305" font-family="Helvetica,sans-Serif" font-size="10.00">Right</text>
</a>
</g>
</g>
<!-- Node1&#45;&gt;Node6 -->
<g id="edge10" class="edge"><title>Node1&#45;&gt;Node6</title>
<path fill="none" stroke="midnightblue" d="M84.4822,-191.314C101.093,-216.589 138.094,-266.389 184,-288 253.111,-320.534 340.621,-324.612 404.686,-321.823"/>
<polygon fill="midnightblue" stroke="midnightblue" points="404.948,-325.315 414.76,-321.32 404.598,-318.323 404.948,-325.315"/>
</g>
<!-- Node7 -->
<g id="node7" class="node"><title>Node7</title>
<g id="a_node7"><a xlink:href="../../db/d29/classparser_1_1_variable_manager.html#a1dd0d3b879a7a7173d2c059bef5cb187" target="_top" xlink:title="parser.VariableManager.create\lVariableScope">
<polygon fill="white" stroke="black" points="195.5,-161 195.5,-191 358.5,-191 358.5,-161 195.5,-161"/>
<text text-anchor="start" x="203.5" y="-179" font-family="Helvetica,sans-Serif" font-size="10.00">parser.VariableManager.create</text>
<text text-anchor="middle" x="277" y="-168" font-family="Helvetica,sans-Serif" font-size="10.00">VariableScope</text>
</a>
</g>
</g>
<!-- Node1&#45;&gt;Node7 -->
<g id="edge7" class="edge"><title>Node1&#45;&gt;Node7</title>
<path fill="none" stroke="midnightblue" d="M148.134,-176C160.148,-176 172.727,-176 185.109,-176"/>
<polygon fill="midnightblue" stroke="midnightblue" points="185.448,-179.5 195.448,-176 185.448,-172.5 185.448,-179.5"/>
</g>
<!-- Node8 -->
<g id="node8" class="node"><title>Node8</title>
<g id="a_node8"><a xlink:href="../../da/d96/classparser_1_1nodes_1_1_syntax_node.html#a669c370adce66a1960835323a90b9adb" target="_top" xlink:title="parser.nodes.SyntaxNode.evaluate">
<polygon fill="white" stroke="black" points="184.5,-122.5 184.5,-141.5 369.5,-141.5 369.5,-122.5 184.5,-122.5"/>
<text text-anchor="middle" x="277" y="-129.5" font-family="Helvetica,sans-Serif" font-size="10.00">parser.nodes.SyntaxNode.evaluate</text>
</a>
</g>
</g>
<!-- Node1&#45;&gt;Node8 -->
<g id="edge8" class="edge"><title>Node1&#45;&gt;Node8</title>
<path fill="none" stroke="midnightblue" d="M139.501,-160.961C154.119,-157.621 169.583,-154.142 184,-151 195.216,-148.556 207.218,-146.02 218.728,-143.627"/>
<polygon fill="midnightblue" stroke="midnightblue" points="219.599,-147.02 228.682,-141.566 218.181,-140.166 219.599,-147.02"/>
</g>
<!-- Node9 -->
<g id="node9" class="node"><title>Node9</title>
<g id="a_node9"><a xlink:href="../../db/d29/classparser_1_1_variable_manager.html#acfee079f598dca91fef11afca02f3bbc" target="_top" xlink:title="parser.VariableManager.revert\lVariableScope">
<polygon fill="white" stroke="black" points="196.5,-73 196.5,-103 357.5,-103 357.5,-73 196.5,-73"/>
<text text-anchor="start" x="204.5" y="-91" font-family="Helvetica,sans-Serif" font-size="10.00">parser.VariableManager.revert</text>
<text text-anchor="middle" x="277" y="-80" font-family="Helvetica,sans-Serif" font-size="10.00">VariableScope</text>
</a>
</g>
</g>
<!-- Node1&#45;&gt;Node9 -->
<g id="edge11" class="edge"><title>Node1&#45;&gt;Node9</title>
<path fill="none" stroke="midnightblue" d="M97.0833,-160.942C118.503,-146.901 152.323,-126.195 184,-113 189.815,-110.577 195.935,-108.323 202.141,-106.239"/>
<polygon fill="midnightblue" stroke="midnightblue" points="203.473,-109.488 211.931,-103.107 201.34,-102.821 203.473,-109.488"/>
</g>
<!-- Node10 -->
<g id="node10" class="node"><title>Node10</title>
<g id="a_node10"><a xlink:href="../../db/d29/classparser_1_1_variable_manager.html#aa9ecb1f9858ee96bc9f17e6a16adc9ad" target="_top" xlink:title="parser.VariableManager.set\lVariable">
<polygon fill="white" stroke="black" points="203.5,-24 203.5,-54 350.5,-54 350.5,-24 203.5,-24"/>
<text text-anchor="start" x="211.5" y="-42" font-family="Helvetica,sans-Serif" font-size="10.00">parser.VariableManager.set</text>
<text text-anchor="middle" x="277" y="-31" font-family="Helvetica,sans-Serif" font-size="10.00">Variable</text>
</a>
</g>
</g>
<!-- Node1&#45;&gt;Node10 -->
<g id="edge12" class="edge"><title>Node1&#45;&gt;Node10</title>
<path fill="none" stroke="midnightblue" d="M85.458,-160.621C102.933,-136.135 140.474,-88.4617 184,-63 187.179,-61.1403 190.503,-59.4225 193.922,-57.8359"/>
<polygon fill="midnightblue" stroke="midnightblue" points="195.31,-61.0492 203.161,-53.9354 192.587,-54.6002 195.31,-61.0492"/>
</g>
<!-- Node3 -->
<g id="node3" class="node"><title>Node3</title>
<g id="a_node3"><a xlink:href="../../d4/d1c/classparser_1_1nodes_1_1_list_node.html#af1a89f601b40c44121d264197398164f" target="_top" xlink:title="parser.nodes.ListNode.get\lContents">
<polygon fill="white" stroke="black" points="421.5,-249 421.5,-279 564.5,-279 564.5,-249 421.5,-249"/>
<text text-anchor="start" x="429.5" y="-267" font-family="Helvetica,sans-Serif" font-size="10.00">parser.nodes.ListNode.get</text>
<text text-anchor="middle" x="493" y="-256" font-family="Helvetica,sans-Serif" font-size="10.00">Contents</text>
</a>
</g>
</g>
<!-- Node2&#45;&gt;Node3 -->
<g id="edge2" class="edge"><title>Node2&#45;&gt;Node3</title>
<path fill="none" stroke="midnightblue" d="M351.048,-264C370.433,-264 391.476,-264 411.245,-264"/>
<polygon fill="midnightblue" stroke="midnightblue" points="411.451,-267.5 421.451,-264 411.451,-260.5 411.451,-267.5"/>
</g>
<!-- Node2&#45;&gt;Node4 -->
<g id="edge3" class="edge"><title>Node2&#45;&gt;Node4</title>
<path fill="none" stroke="midnightblue" d="M351.048,-248.981C378.733,-243.288 409.802,-236.901 435.71,-231.574"/>
<polygon fill="midnightblue" stroke="midnightblue" points="436.645,-234.955 445.735,-229.512 435.235,-228.098 436.645,-234.955"/>
</g>
<!-- Node2&#45;&gt;Node6 -->
<g id="edge5" class="edge"><title>Node2&#45;&gt;Node6</title>
<path fill="none" stroke="midnightblue" d="M343.661,-279.035C366.668,-284.302 392.687,-290.26 416.438,-295.698"/>
<polygon fill="midnightblue" stroke="midnightblue" points="415.934,-299.173 426.463,-297.994 417.496,-292.35 415.934,-299.173"/>
</g>
<!-- Node5 -->
<g id="node5" class="node"><title>Node5</title>
<g id="a_node5"><a xlink:href="../../d7/d93/classparser_1_1nodes_1_1_parameter_node.html#a2c57eab9997daf1efb840a189c1034c5" target="_top" xlink:title="parser.nodes.ParameterNode.get\lParameter">
<polygon fill="white" stroke="black" points="616,-251 616,-281 792,-281 792,-251 616,-251"/>
<text text-anchor="start" x="624" y="-269" font-family="Helvetica,sans-Serif" font-size="10.00">parser.nodes.ParameterNode.get</text>
<text text-anchor="middle" x="704" y="-258" font-family="Helvetica,sans-Serif" font-size="10.00">Parameter</text>
</a>
</g>
</g>
<!-- Node4&#45;&gt;Node5 -->
<g id="edge4" class="edge"><title>Node4&#45;&gt;Node5</title>
<path fill="none" stroke="midnightblue" d="M537.305,-229.531C562.549,-235.087 595.15,-242.263 624.747,-248.777"/>
<polygon fill="midnightblue" stroke="midnightblue" points="624.135,-252.226 634.654,-250.957 625.64,-245.39 624.135,-252.226"/>
</g>
<!-- Node6&#45;&gt;Node5 -->
<g id="edge6" class="edge"><title>Node6&#45;&gt;Node5</title>
<path fill="none" stroke="midnightblue" d="M560.704,-298C581.63,-293.294 604.894,-288.062 626.446,-283.215"/>
<polygon fill="midnightblue" stroke="midnightblue" points="627.225,-286.628 636.213,-281.019 625.689,-279.798 627.225,-286.628"/>
</g>
<!-- Node11 -->
<g id="node11" class="node"><title>Node11</title>
<g id="a_node11"><a xlink:href="../../da/d34/classparser_1_1_variable_scope.html#a01641ffadbd14f821da3ff44d9e7ce4e" target="_top" xlink:title="parser.VariableScope.contains\lVariable">
<polygon fill="white" stroke="black" points="412.5,-0 412.5,-30 573.5,-30 573.5,-0 412.5,-0"/>
<text text-anchor="start" x="420.5" y="-18" font-family="Helvetica,sans-Serif" font-size="10.00">parser.VariableScope.contains</text>
<text text-anchor="middle" x="493" y="-7" font-family="Helvetica,sans-Serif" font-size="10.00">Variable</text>
</a>
</g>
</g>
<!-- Node10&#45;&gt;Node11 -->
<g id="edge13" class="edge"><title>Node10&#45;&gt;Node11</title>
<path fill="none" stroke="midnightblue" d="M350.749,-30.8412C367.361,-28.9782 385.204,-26.9772 402.427,-25.0455"/>
<polygon fill="midnightblue" stroke="midnightblue" points="402.935,-28.5106 412.483,-23.9178 402.155,-21.5542 402.935,-28.5106"/>
</g>
<!-- Node12 -->
<g id="node12" class="node"><title>Node12</title>
<g id="a_node12"><a xlink:href="../../da/d34/classparser_1_1_variable_scope.html#a49590398e11784b1310e8b65d9933011" target="_top" xlink:title="parser.VariableScope.set\lVariable">
<polygon fill="white" stroke="black" points="425,-49 425,-79 561,-79 561,-49 425,-49"/>
<text text-anchor="start" x="433" y="-67" font-family="Helvetica,sans-Serif" font-size="10.00">parser.VariableScope.set</text>
<text text-anchor="middle" x="493" y="-56" font-family="Helvetica,sans-Serif" font-size="10.00">Variable</text>
</a>
</g>
</g>
<!-- Node10&#45;&gt;Node12 -->
<g id="edge14" class="edge"><title>Node10&#45;&gt;Node12</title>
<path fill="none" stroke="midnightblue" d="M350.749,-47.4987C371.367,-49.9074 393.882,-52.5376 414.755,-54.976"/>
<polygon fill="midnightblue" stroke="midnightblue" points="414.516,-58.4718 424.854,-56.1559 415.328,-51.5191 414.516,-58.4718"/>
</g>
</g>
</svg>
        <g id="navigator" transform="translate(0 0)" fill="#404254">
                <rect fill="#f2f5e9" fill-opacity="0.5" stroke="#606060" stroke-width=".5" x="0" y="0" width="60" height="60"/>
                <use id="zoomplus" xlink:href="#zoomPlus" x="17" y="9" onmousedown="handleZoom(evt,'in')"/>
                <use id="zoomminus" xlink:href="#zoomMin" x="42" y="9" onmousedown="handleZoom(evt,'out')"/>
                <use id="reset" xlink:href="#resetDef" x="30" y="36" onmousedown="handleReset()"/>
                <g id="arrowUp" xlink:href="#dirArrow" transform="translate(30 24)" onmousedown="handlePan(0,-1)">
                  <use xlink:href="#rim" fill="#404040">
                        <set attributeName="fill" to="#808080" begin="arrowUp.mouseover" end="arrowUp.mouseout"/>
                  </use>
                  <path fill="none" stroke="white" stroke-width="1.5" d="M0,-3.0v7 M-2.5,-0.5L0,-3.0L2.5,-0.5"/>
                </g>
                <g id="arrowRight" xlink:href="#dirArrow" transform="rotate(90) translate(36 -43)" onmousedown="handlePan(1,0)">
                  <use xlink:href="#rim" fill="#404040">
                        <set attributeName="fill" to="#808080" begin="arrowRight.mouseover" end="arrowRight.mouseout"/>
                  </use>
                  <path fill="none" stroke="white" stroke-width="1.5" d="M0,-3.0v7 M-2.5,-0.5L0,-3.0L2.5,-0.5"/>
                </g>
                <g id="arrowDown" xlink:href="#dirArrow" transform="rotate(180) translate(-30 -48)" onmousedown="handlePan(0,1)">
                  <use xlink:href="#rim" fill="#404040">
                        <set attributeName="fill" to="#808080" begin="arrowDown.mouseover" end="arrowDown.mouseout"/>
                  </use>
                  <path fill="none" stroke="white" stroke-width="1.5" d="M0,-3.0v7 M-2.5,-0.5L0,-3.0L2.5,-0.5"/>
                </g>
                <g id="arrowLeft" xlink:href="#dirArrow" transform="rotate(270) translate(-36 17)" onmousedown="handlePan(-1,0)">
                  <use xlink:href="#rim" fill="#404040">
                        <set attributeName="fill" to="#808080" begin="arrowLeft.mouseover" end="arrowLeft.mouseout"/>
                  </use>
                  <path fill="none" stroke="white" stroke-width="1.5" d="M0,-3.0v7 M-2.5,-0.5L0,-3.0L2.5,-0.5"/>
                </g>
        </g>
        <svg viewBox="0 0 15 15" width="100%" height="30px" preserveAspectRatio="xMaxYMin meet">
         <g id="arrow_out" transform="scale(0.3 0.3)">
          <a xlink:href="classparser_1_1commands_1_1other_1_1_do_times_aa1749474b7c85cd1caa0b32ebc3f1120_cgraph_org.svg" target="_base">
           <rect id="button" ry="5" rx="5" y="6" x="6" height="38" width="38"
                fill="#f2f5e9" fill-opacity="0.5" stroke="#606060" stroke-width="1.0"/>
           <path id="arrow"
             d="M 11.500037,31.436501 C 11.940474,20.09759 22.043105,11.32322 32.158766,21.979434 L 37.068811,17.246167 C 37.068811,17.246167 37.088388,32 37.088388,32 L 22.160133,31.978069 C 22.160133,31.978069 26.997745,27.140456 26.997745,27.140456 C 18.528582,18.264221 13.291696,25.230495 11.500037,31.436501 z"
             style="fill:#404040;"/>
          </a>
         </g>
        </svg>
</svg>
