<?xml version="1.0" encoding="UTF-8" standalone="no"?>
<!DOCTYPE svg PUBLIC "-//W3C//DTD SVG 1.1//EN"
 "http://www.w3.org/Graphics/SVG/1.1/DTD/svg11.dtd">
<!-- Generated by graphviz version 2.36.0 (20140111.2315)
 -->
<!-- Title: view.WorkspaceHandler.getWorkspace Pages: 1 -->
<!--zoomable 431 -->
<svg id="main" version="1.1" xmlns="http://www.w3.org/2000/svg" xmlns:xlink="http://www.w3.org/1999/xlink" xml:space="preserve" onload="init(evt)">
<style type="text/css"><![CDATA[
.edge:hover path { stroke: red; }
.edge:hover polygon { stroke: red; fill: red; }
]]></style>
<script type="text/javascript"><![CDATA[
var edges = document.getElementsByTagName('g');
if (edges && edges.length) {
  for (var i=0;i<edges.length;i++) {
    if (edges[i].id.substr(0,4)=='edge') {
      edges[i].setAttribute('class','edge');
    }
  }
}
]]></script>
        <defs>
                <circle id="rim" cx="0" cy="0" r="7"/>
                <circle id="rim2" cx="0" cy="0" r="3.5"/>
                <g id="zoomPlus">
                        <use xlink:href="#rim" fill="#404040">
                                <set attributeName="fill" to="#808080" begin="zoomplus.mouseover" end="zoomplus.mouseout"/>
                        </use>
                        <path d="M-4,0h8M0,-4v8" fill="none" stroke="white" stroke-width="1.5" pointer-events="none"/>
                </g>
                <g id="zoomMin">
                        <use xlink:href="#rim" fill="#404040">
                                <set attributeName="fill" to="#808080" begin="zoomminus.mouseover" end="zoomminus.mouseout"/>
                        </use>
                        <path d="M-4,0h8" fill="none" stroke="white" stroke-width="1.5" pointer-events="none"/>
                </g>
                <g id="dirArrow">
                        <path fill="none" stroke="white" stroke-width="1.5" d="M0,-3.0v7 M-2.5,-0.5L0,-3.0L2.5,-0.5"/>
                </g>
               <g id="resetDef">
                       <use xlink:href="#rim2" fill="#404040">
                               <set attributeName="fill" to="#808080" begin="reset.mouseover" end="reset.mouseout"/>
                       </use>
               </g>
        </defs>

<script type="text/javascript">
var viewWidth = 1442;
var viewHeight = 431;
var sectionId = 'dynsection-2';
</script>
<script xlink:href="../../svgpan.js"/>
<svg id="graph" class="graph">
<g id="viewport">
<title>view.WorkspaceHandler.getWorkspace</title>
<polygon fill="white" stroke="none" points="-4,4 -4,-427.141 1438,-427.141 1438,4 -4,4"/>
<!-- Node1 -->
<g id="node1" class="node"><title>Node1</title>
<polygon fill="#bfbfbf" stroke="black" points="0,-205.361 0,-235.361 146,-235.361 146,-205.361 0,-205.361"/>
<text text-anchor="start" x="8" y="-223.361" font-family="Helvetica,sans-Serif" font-size="10.00">view.WorkspaceHandler.get</text>
<text text-anchor="middle" x="73" y="-212.361" font-family="Helvetica,sans-Serif" font-size="10.00">Workspace</text>
</g>
<!-- Node2 -->
<g id="node2" class="node"><title>Node2</title>
<g id="a_node2"><a xlink:href="../../d9/df7/classcontroller_1_1_controller.html#a318978485f5c3bbf5a89f5dac0db71ae" target="_top" xlink:title="controller.Controller.get\lWorkspace">
<polygon fill="white" stroke="black" points="182,-205.361 182,-235.361 310,-235.361 310,-205.361 182,-205.361"/>
<text text-anchor="start" x="190" y="-223.361" font-family="Helvetica,sans-Serif" font-size="10.00">controller.Controller.get</text>
<text text-anchor="middle" x="246" y="-212.361" font-family="Helvetica,sans-Serif" font-size="10.00">Workspace</text>
</a>
</g>
</g>
<!-- Node1&#45;&gt;Node2 -->
<g id="edge1" class="edge"><title>Node1&#45;&gt;Node2</title>
<path fill="none" stroke="midnightblue" d="M156.099,-220.361C164.717,-220.361 173.382,-220.361 181.742,-220.361"/>
<polygon fill="midnightblue" stroke="midnightblue" points="156.024,-216.861 146.024,-220.361 156.024,-223.861 156.024,-216.861"/>
</g>
<!-- Node3 -->
<g id="node3" class="node"><title>Node3</title>
<g id="a_node3"><a xlink:href="../../d9/df7/classcontroller_1_1_controller.html#acd242cba05fd983be695439ef2186966" target="_top" xlink:title="controller.Controller.create\lCheckBoxItemListener">
<polygon fill="white" stroke="black" points="357.5,-306.361 357.5,-336.361 500.5,-336.361 500.5,-306.361 357.5,-306.361"/>
<text text-anchor="start" x="365.5" y="-324.361" font-family="Helvetica,sans-Serif" font-size="10.00">controller.Controller.create</text>
<text text-anchor="middle" x="429" y="-313.361" font-family="Helvetica,sans-Serif" font-size="10.00">CheckBoxItemListener</text>
</a>
</g>
</g>
<!-- Node2&#45;&gt;Node3 -->
<g id="edge2" class="edge"><title>Node2&#45;&gt;Node3</title>
<path fill="none" stroke="midnightblue" d="M272.977,-241.993C292.236,-257.264 319.615,-277.408 346,-291.361 356.72,-297.03 368.748,-302.086 380.22,-306.358"/>
<polygon fill="midnightblue" stroke="midnightblue" points="274.976,-239.11 264.99,-235.57 270.589,-244.565 274.976,-239.11"/>
</g>
<!-- Node4 -->
<g id="node4" class="node"><title>Node4</title>
<g id="a_node4"><a xlink:href="../../d9/df7/classcontroller_1_1_controller.html#a17d9d0474952b983548cde23a4e27134" target="_top" xlink:title="controller.Controller.create\lTellMenuListener">
<polygon fill="white" stroke="black" points="548.5,-268.361 548.5,-298.361 691.5,-298.361 691.5,-268.361 548.5,-268.361"/>
<text text-anchor="start" x="556.5" y="-286.361" font-family="Helvetica,sans-Serif" font-size="10.00">controller.Controller.create</text>
<text text-anchor="middle" x="620" y="-275.361" font-family="Helvetica,sans-Serif" font-size="10.00">TellMenuListener</text>
</a>
</g>
</g>
<!-- Node2&#45;&gt;Node4 -->
<g id="edge18" class="edge"><title>Node2&#45;&gt;Node4</title>
<path fill="none" stroke="midnightblue" d="M295.568,-238.834C311.444,-244.254 329.292,-249.702 346,-253.361 413.886,-268.229 492.964,-275.891 548.484,-279.734"/>
<polygon fill="midnightblue" stroke="midnightblue" points="296.561,-235.473 285.966,-235.479 294.252,-242.082 296.561,-235.473"/>
</g>
<!-- Node5 -->
<g id="node5" class="node"><title>Node5</title>
<g id="a_node5"><a xlink:href="../../d9/df7/classcontroller_1_1_controller.html#ac03add001882f876041934dfe435b43f" target="_top" xlink:title="controller.Controller.create\lSettingMenu">
<polygon fill="white" stroke="black" points="731.5,-230.361 731.5,-260.361 874.5,-260.361 874.5,-230.361 731.5,-230.361"/>
<text text-anchor="start" x="739.5" y="-248.361" font-family="Helvetica,sans-Serif" font-size="10.00">controller.Controller.create</text>
<text text-anchor="middle" x="803" y="-237.361" font-family="Helvetica,sans-Serif" font-size="10.00">SettingMenu</text>
</a>
</g>
</g>
<!-- Node2&#45;&gt;Node5 -->
<g id="edge17" class="edge"><title>Node2&#45;&gt;Node5</title>
<path fill="none" stroke="midnightblue" d="M320.197,-223.658C427.268,-228.481 625.32,-237.403 731.082,-242.167"/>
<polygon fill="midnightblue" stroke="midnightblue" points="320.273,-220.158 310.125,-223.205 319.958,-227.151 320.273,-220.158"/>
</g>
<!-- Node8 -->
<g id="node8" class="node"><title>Node8</title>
<g id="a_node8"><a xlink:href="../../d9/df7/classcontroller_1_1_controller.html#a028264f3c286e8e1a2d897dda5ff0b53" target="_top" xlink:title="controller.Controller.create\lEditMenu">
<polygon fill="white" stroke="black" points="914.5,-186.361 914.5,-216.361 1057.5,-216.361 1057.5,-186.361 914.5,-186.361"/>
<text text-anchor="start" x="922.5" y="-204.361" font-family="Helvetica,sans-Serif" font-size="10.00">controller.Controller.create</text>
<text text-anchor="middle" x="986" y="-193.361" font-family="Helvetica,sans-Serif" font-size="10.00">EditMenu</text>
</a>
</g>
</g>
<!-- Node2&#45;&gt;Node8 -->
<g id="edge7" class="edge"><title>Node2&#45;&gt;Node8</title>
<path fill="none" stroke="midnightblue" d="M320.604,-218.466C462.951,-214.801 774.248,-206.787 914.279,-203.182"/>
<polygon fill="midnightblue" stroke="midnightblue" points="320.147,-214.977 310.24,-218.733 320.327,-221.974 320.147,-214.977"/>
</g>
<!-- Node9 -->
<g id="node9" class="node"><title>Node9</title>
<g id="a_node9"><a xlink:href="../../d9/df7/classcontroller_1_1_controller.html#aa46804b9ca132af8504b5dafb1cadb0d" target="_top" xlink:title="controller.Controller.create\lFileCommands">
<polygon fill="white" stroke="black" points="731.5,-344.361 731.5,-374.361 874.5,-374.361 874.5,-344.361 731.5,-344.361"/>
<text text-anchor="start" x="739.5" y="-362.361" font-family="Helvetica,sans-Serif" font-size="10.00">controller.Controller.create</text>
<text text-anchor="middle" x="803" y="-351.361" font-family="Helvetica,sans-Serif" font-size="10.00">FileCommands</text>
</a>
</g>
</g>
<!-- Node2&#45;&gt;Node9 -->
<g id="edge9" class="edge"><title>Node2&#45;&gt;Node9</title>
<path fill="none" stroke="midnightblue" d="M253.579,-245.297C265.101,-283.287 292.92,-354.402 346,-384.361 482.885,-461.622 681.23,-404.226 763.751,-374.399"/>
<polygon fill="midnightblue" stroke="midnightblue" points="256.893,-244.157 250.754,-235.522 250.168,-246.101 256.893,-244.157"/>
</g>
<!-- Node11 -->
<g id="node11" class="node"><title>Node11</title>
<g id="a_node11"><a xlink:href="../../d9/df7/classcontroller_1_1_controller.html#ad4ea3ddba3a6da5e7d84dfcea4af939b" target="_top" xlink:title="controller.Controller.create\lHelpMenu">
<polygon fill="white" stroke="black" points="548.5,-142.361 548.5,-172.361 691.5,-172.361 691.5,-142.361 548.5,-142.361"/>
<text text-anchor="start" x="556.5" y="-160.361" font-family="Helvetica,sans-Serif" font-size="10.00">controller.Controller.create</text>
<text text-anchor="middle" x="620" y="-149.361" font-family="Helvetica,sans-Serif" font-size="10.00">HelpMenu</text>
</a>
</g>
</g>
<!-- Node2&#45;&gt;Node11 -->
<g id="edge12" class="edge"><title>Node2&#45;&gt;Node11</title>
<path fill="none" stroke="midnightblue" d="M295.568,-201.889C311.444,-196.468 329.292,-191.02 346,-187.361 413.886,-172.494 492.964,-164.831 548.484,-160.989"/>
<polygon fill="midnightblue" stroke="midnightblue" points="294.252,-198.641 285.966,-205.243 296.561,-205.249 294.252,-198.641"/>
</g>
<!-- Node12 -->
<g id="node12" class="node"><title>Node12</title>
<g id="a_node12"><a xlink:href="../../d9/df7/classcontroller_1_1_controller.html#a19e3ac02ba1459ff9e16013584ba0ae5" target="_top" xlink:title="controller.Controller.create\lPhysicalCommands">
<polygon fill="white" stroke="black" points="357.5,-55.3612 357.5,-85.3612 500.5,-85.3612 500.5,-55.3612 357.5,-55.3612"/>
<text text-anchor="start" x="365.5" y="-73.3612" font-family="Helvetica,sans-Serif" font-size="10.00">controller.Controller.create</text>
<text text-anchor="middle" x="429" y="-62.3612" font-family="Helvetica,sans-Serif" font-size="10.00">PhysicalCommands</text>
</a>
</g>
</g>
<!-- Node2&#45;&gt;Node12 -->
<g id="edge14" class="edge"><title>Node2&#45;&gt;Node12</title>
<path fill="none" stroke="midnightblue" d="M259.805,-196.13C276.095,-167.621 306.873,-120.83 346,-94.3612 351.037,-90.9535 356.564,-88.0217 362.295,-85.5008"/>
<polygon fill="midnightblue" stroke="midnightblue" points="256.65,-194.601 254.845,-205.041 262.767,-198.006 256.65,-194.601"/>
</g>
<!-- Node14 -->
<g id="node14" class="node"><title>Node14</title>
<g id="a_node14"><a xlink:href="../../d9/df7/classcontroller_1_1_controller.html#aaa03ac2d4ba85ce0aea59ded9a2f65b9" target="_top" xlink:title="controller.Controller.create\lVisualCommands">
<polygon fill="white" stroke="black" points="357.5,-104.361 357.5,-134.361 500.5,-134.361 500.5,-104.361 357.5,-104.361"/>
<text text-anchor="start" x="365.5" y="-122.361" font-family="Helvetica,sans-Serif" font-size="10.00">controller.Controller.create</text>
<text text-anchor="middle" x="429" y="-111.361" font-family="Helvetica,sans-Serif" font-size="10.00">VisualCommands</text>
</a>
</g>
</g>
<!-- Node2&#45;&gt;Node14 -->
<g id="edge19" class="edge"><title>Node2&#45;&gt;Node14</title>
<path fill="none" stroke="midnightblue" d="M272.977,-198.729C292.236,-183.459 319.615,-163.314 346,-149.361 356.72,-143.692 368.748,-138.636 380.22,-134.364"/>
<polygon fill="midnightblue" stroke="midnightblue" points="270.589,-196.158 264.99,-205.152 274.976,-201.613 270.589,-196.158"/>
</g>
<!-- Node15 -->
<g id="node15" class="node"><title>Node15</title>
<g id="a_node15"><a xlink:href="../../d9/df7/classcontroller_1_1_controller.html#a89b63f37e67efbeddda1f247016c837b" target="_top" xlink:title="controller.Controller.process\lCommand">
<polygon fill="white" stroke="black" points="728,-31.3612 728,-61.3612 878,-61.3612 878,-31.3612 728,-31.3612"/>
<text text-anchor="start" x="736" y="-49.3612" font-family="Helvetica,sans-Serif" font-size="10.00">controller.Controller.process</text>
<text text-anchor="middle" x="803" y="-38.3612" font-family="Helvetica,sans-Serif" font-size="10.00">Command</text>
</a>
</g>
</g>
<!-- Node2&#45;&gt;Node15 -->
<g id="edge21" class="edge"><title>Node2&#45;&gt;Node15</title>
<path fill="none" stroke="midnightblue" d="M252.597,-195.529C263.099,-155.538 289.949,-78.0511 346,-45.3612 476.276,30.6173 665.172,-7.03533 753.306,-31.2767"/>
<polygon fill="midnightblue" stroke="midnightblue" points="249.186,-194.743 250.164,-205.293 255.978,-196.436 249.186,-194.743"/>
</g>
<!-- Node17 -->
<g id="node17" class="node"><title>Node17</title>
<g id="a_node17"><a xlink:href="../../d9/df7/classcontroller_1_1_controller.html#aec5e242ff69899c974dbd6302510f70b" target="_top" xlink:title="controller.Controller.processFile">
<polygon fill="white" stroke="black" points="346.5,-355.861 346.5,-374.861 511.5,-374.861 511.5,-355.861 346.5,-355.861"/>
<text text-anchor="middle" x="429" y="-362.861" font-family="Helvetica,sans-Serif" font-size="10.00">controller.Controller.processFile</text>
</a>
</g>
</g>
<!-- Node2&#45;&gt;Node17 -->
<g id="edge24" class="edge"><title>Node2&#45;&gt;Node17</title>
<path fill="none" stroke="midnightblue" d="M259.653,-244.703C275.795,-273.281 306.427,-319.991 346,-345.361 352.785,-349.711 360.439,-353.115 368.276,-355.778"/>
<polygon fill="midnightblue" stroke="midnightblue" points="262.625,-242.843 254.743,-235.763 256.49,-246.213 262.625,-242.843"/>
</g>
<!-- Node3&#45;&gt;Node4 -->
<g id="edge3" class="edge"><title>Node3&#45;&gt;Node4</title>
<path fill="none" stroke="midnightblue" d="M510.638,-305.148C523.21,-302.621 536.116,-300.026 548.44,-297.548"/>
<polygon fill="midnightblue" stroke="midnightblue" points="509.759,-301.755 500.645,-307.157 511.139,-308.617 509.759,-301.755"/>
</g>
<!-- Node4&#45;&gt;Node5 -->
<g id="edge4" class="edge"><title>Node4&#45;&gt;Node5</title>
<path fill="none" stroke="midnightblue" d="M701.588,-266.442C711.49,-264.363 721.552,-262.251 731.292,-260.206"/>
<polygon fill="midnightblue" stroke="midnightblue" points="700.824,-263.026 691.757,-268.506 702.263,-269.877 700.824,-263.026"/>
</g>
<!-- Node6 -->
<g id="node6" class="node"><title>Node6</title>
<g id="a_node6"><a xlink:href="../../d9/df7/classcontroller_1_1_controller.html#a2901bf43bb8e47b485558dbf00d40d6d" target="_top" xlink:title="controller.Controller.create\lJMenuBar">
<polygon fill="white" stroke="black" points="1094.5,-164.361 1094.5,-194.361 1237.5,-194.361 1237.5,-164.361 1094.5,-164.361"/>
<text text-anchor="start" x="1102.5" y="-182.361" font-family="Helvetica,sans-Serif" font-size="10.00">controller.Controller.create</text>
<text text-anchor="middle" x="1166" y="-171.361" font-family="Helvetica,sans-Serif" font-size="10.00">JMenuBar</text>
</a>
</g>
</g>
<!-- Node5&#45;&gt;Node6 -->
<g id="edge5" class="edge"><title>Node5&#45;&gt;Node6</title>
<path fill="none" stroke="midnightblue" d="M884.717,-245.703C935.179,-244.278 1001.15,-239.411 1058,-225.361 1085.87,-218.472 1115.75,-205.072 1136.82,-194.504"/>
<polygon fill="midnightblue" stroke="midnightblue" points="884.429,-242.209 874.517,-245.95 884.599,-249.207 884.429,-242.209"/>
</g>
<!-- Node7 -->
<g id="node7" class="node"><title>Node7</title>
<g id="a_node7"><a xlink:href="../../d9/df7/classcontroller_1_1_controller.html#a47511ec57338c8e75e71e9314cda5271" target="_top" xlink:title="controller.Controller.Controller">
<polygon fill="white" stroke="black" points="1274.5,-133.861 1274.5,-152.861 1433.5,-152.861 1433.5,-133.861 1274.5,-133.861"/>
<text text-anchor="middle" x="1354" y="-140.861" font-family="Helvetica,sans-Serif" font-size="10.00">controller.Controller.Controller</text>
</a>
</g>
</g>
<!-- Node6&#45;&gt;Node7 -->
<g id="edge6" class="edge"><title>Node6&#45;&gt;Node7</title>
<path fill="none" stroke="midnightblue" d="M1247.52,-163.776C1266.69,-160.066 1286.58,-156.217 1303.85,-152.874"/>
<polygon fill="midnightblue" stroke="midnightblue" points="1246.74,-160.363 1237.58,-165.7 1248.07,-167.236 1246.74,-160.363"/>
</g>
<!-- Node8&#45;&gt;Node6 -->
<g id="edge8" class="edge"><title>Node8&#45;&gt;Node6</title>
<path fill="none" stroke="midnightblue" d="M1067.65,-191.394C1076.6,-190.287 1085.67,-189.167 1094.48,-188.077"/>
<polygon fill="midnightblue" stroke="midnightblue" points="1067.1,-187.934 1057.61,-192.635 1067.96,-194.881 1067.1,-187.934"/>
</g>
<!-- Node10 -->
<g id="node10" class="node"><title>Node10</title>
<g id="a_node10"><a xlink:href="../../d9/df7/classcontroller_1_1_controller.html#af4c05286f1534b1fa6de523c54549288" target="_top" xlink:title="controller.Controller.create\lFileMenu">
<polygon fill="white" stroke="black" points="914.5,-309.361 914.5,-339.361 1057.5,-339.361 1057.5,-309.361 914.5,-309.361"/>
<text text-anchor="start" x="922.5" y="-327.361" font-family="Helvetica,sans-Serif" font-size="10.00">controller.Controller.create</text>
<text text-anchor="middle" x="986" y="-316.361" font-family="Helvetica,sans-Serif" font-size="10.00">FileMenu</text>
</a>
</g>
</g>
<!-- Node9&#45;&gt;Node10 -->
<g id="edge10" class="edge"><title>Node9&#45;&gt;Node10</title>
<path fill="none" stroke="midnightblue" d="M884.588,-343.778C894.49,-341.863 904.552,-339.917 914.292,-338.034"/>
<polygon fill="midnightblue" stroke="midnightblue" points="883.911,-340.344 874.757,-345.679 885.24,-347.217 883.911,-340.344"/>
</g>
<!-- Node10&#45;&gt;Node6 -->
<g id="edge11" class="edge"><title>Node10&#45;&gt;Node6</title>
<path fill="none" stroke="midnightblue" d="M1013.48,-302.788C1049.99,-273.05 1114.85,-220.217 1146.54,-194.4"/>
<polygon fill="midnightblue" stroke="midnightblue" points="1011.26,-300.088 1005.71,-309.118 1015.68,-305.516 1011.26,-300.088"/>
</g>
<!-- Node11&#45;&gt;Node6 -->
<g id="edge13" class="edge"><title>Node11&#45;&gt;Node6</title>
<path fill="none" stroke="midnightblue" d="M701.588,-160.62C807.81,-164.916 993.005,-172.406 1094.13,-176.495"/>
<polygon fill="midnightblue" stroke="midnightblue" points="701.694,-157.122 691.561,-160.215 701.411,-164.116 701.694,-157.122"/>
</g>
<!-- Node13 -->
<g id="node13" class="node"><title>Node13</title>
<g id="a_node13"><a xlink:href="../../d9/df7/classcontroller_1_1_controller.html#aa81e4dbd87e3f8b9a1c43acb096304dd" target="_top" xlink:title="controller.Controller.create\lCommandMenu">
<polygon fill="white" stroke="black" points="548.5,-93.3612 548.5,-123.361 691.5,-123.361 691.5,-93.3612 548.5,-93.3612"/>
<text text-anchor="start" x="556.5" y="-111.361" font-family="Helvetica,sans-Serif" font-size="10.00">controller.Controller.create</text>
<text text-anchor="middle" x="620" y="-100.361" font-family="Helvetica,sans-Serif" font-size="10.00">CommandMenu</text>
</a>
</g>
</g>
<!-- Node12&#45;&gt;Node13 -->
<g id="edge15" class="edge"><title>Node12&#45;&gt;Node13</title>
<path fill="none" stroke="midnightblue" d="M510.638,-86.5742C523.21,-89.1018 536.116,-91.6966 548.44,-94.1746"/>
<polygon fill="midnightblue" stroke="midnightblue" points="511.139,-83.1049 500.645,-84.565 509.759,-89.9676 511.139,-83.1049"/>
</g>
<!-- Node13&#45;&gt;Node6 -->
<g id="edge16" class="edge"><title>Node13&#45;&gt;Node6</title>
<path fill="none" stroke="midnightblue" d="M701.92,-118.906C789.64,-130.34 933.757,-149.13 1058,-165.361 1069.8,-166.902 1082.32,-168.54 1094.49,-170.132"/>
<polygon fill="midnightblue" stroke="midnightblue" points="702.139,-115.405 691.77,-117.583 701.234,-122.346 702.139,-115.405"/>
</g>
<!-- Node14&#45;&gt;Node13 -->
<g id="edge20" class="edge"><title>Node14&#45;&gt;Node13</title>
<path fill="none" stroke="midnightblue" d="M510.638,-114.668C523.21,-113.936 536.116,-113.185 548.44,-112.468"/>
<polygon fill="midnightblue" stroke="midnightblue" points="510.425,-111.174 500.645,-115.25 510.832,-118.163 510.425,-111.174"/>
</g>
<!-- Node16 -->
<g id="node16" class="node"><title>Node16</title>
<g id="a_node16"><a xlink:href="../../d9/df7/classcontroller_1_1_controller.html#a2bfb87bca460d87b2c97e0b5045a2175" target="_top" xlink:title="controller.Controller.create\lRunCommandListener">
<polygon fill="white" stroke="black" points="914.5,-43.3612 914.5,-73.3612 1057.5,-73.3612 1057.5,-43.3612 914.5,-43.3612"/>
<text text-anchor="start" x="922.5" y="-61.3612" font-family="Helvetica,sans-Serif" font-size="10.00">controller.Controller.create</text>
<text text-anchor="middle" x="986" y="-50.3612" font-family="Helvetica,sans-Serif" font-size="10.00">RunCommandListener</text>
</a>
</g>
</g>
<!-- Node15&#45;&gt;Node16 -->
<g id="edge22" class="edge"><title>Node15&#45;&gt;Node16</title>
<path fill="none" stroke="midnightblue" d="M888.348,-51.9534C897.09,-52.5329 905.908,-53.1175 914.475,-53.6855"/>
<polygon fill="midnightblue" stroke="midnightblue" points="888.352,-48.446 878.142,-51.2767 887.888,-55.4306 888.352,-48.446"/>
</g>
<!-- Node16&#45;&gt;Node7 -->
<g id="edge23" class="edge"><title>Node16&#45;&gt;Node7</title>
<path fill="none" stroke="midnightblue" d="M1061.54,-75.6717C1137.18,-93.2384 1251.5,-119.788 1312.03,-133.847"/>
<polygon fill="midnightblue" stroke="midnightblue" points="1062.12,-72.2148 1051.59,-73.3618 1060.54,-79.0334 1062.12,-72.2148"/>
</g>
<!-- Node18 -->
<g id="node18" class="node"><title>Node18</title>
<g id="a_node18"><a xlink:href="../../d9/df7/classcontroller_1_1_controller.html#a37c3009658f66dc4de0be01b75adf660" target="_top" xlink:title="controller.Controller.load\lWorkspace">
<polygon fill="white" stroke="black" points="553.5,-344.361 553.5,-374.361 686.5,-374.361 686.5,-344.361 553.5,-344.361"/>
<text text-anchor="start" x="561.5" y="-362.361" font-family="Helvetica,sans-Serif" font-size="10.00">controller.Controller.load</text>
<text text-anchor="middle" x="620" y="-351.361" font-family="Helvetica,sans-Serif" font-size="10.00">Workspace</text>
</a>
</g>
</g>
<!-- Node17&#45;&gt;Node18 -->
<g id="edge25" class="edge"><title>Node17&#45;&gt;Node18</title>
<path fill="none" stroke="midnightblue" d="M521.737,-362.449C532.423,-362.11 543.155,-361.769 553.388,-361.444"/>
<polygon fill="midnightblue" stroke="midnightblue" points="521.408,-358.957 511.524,-362.773 521.63,-365.954 521.408,-358.957"/>
</g>
<!-- Node18&#45;&gt;Node9 -->
<g id="edge26" class="edge"><title>Node18&#45;&gt;Node9</title>
<path fill="none" stroke="midnightblue" d="M696.627,-359.361C708.156,-359.361 720.015,-359.361 731.429,-359.361"/>
<polygon fill="midnightblue" stroke="midnightblue" points="696.601,-355.861 686.601,-359.361 696.601,-362.861 696.601,-355.861"/>
</g>
</g>
</svg>
        <g id="navigator" transform="translate(0 0)" fill="#404254">
                <rect fill="#f2f5e9" fill-opacity="0.5" stroke="#606060" stroke-width=".5" x="0" y="0" width="60" height="60"/>
                <use id="zoomplus" xlink:href="#zoomPlus" x="17" y="9" onmousedown="handleZoom(evt,'in')"/>
                <use id="zoomminus" xlink:href="#zoomMin" x="42" y="9" onmousedown="handleZoom(evt,'out')"/>
                <use id="reset" xlink:href="#resetDef" x="30" y="36" onmousedown="handleReset()"/>
                <g id="arrowUp" xlink:href="#dirArrow" transform="translate(30 24)" onmousedown="handlePan(0,-1)">
                  <use xlink:href="#rim" fill="#404040">
                        <set attributeName="fill" to="#808080" begin="arrowUp.mouseover" end="arrowUp.mouseout"/>
                  </use>
                  <path fill="none" stroke="white" stroke-width="1.5" d="M0,-3.0v7 M-2.5,-0.5L0,-3.0L2.5,-0.5"/>
                </g>
                <g id="arrowRight" xlink:href="#dirArrow" transform="rotate(90) translate(36 -43)" onmousedown="handlePan(1,0)">
                  <use xlink:href="#rim" fill="#404040">
                        <set attributeName="fill" to="#808080" begin="arrowRight.mouseover" end="arrowRight.mouseout"/>
                  </use>
                  <path fill="none" stroke="white" stroke-width="1.5" d="M0,-3.0v7 M-2.5,-0.5L0,-3.0L2.5,-0.5"/>
                </g>
                <g id="arrowDown" xlink:href="#dirArrow" transform="rotate(180) translate(-30 -48)" onmousedown="handlePan(0,1)">
                  <use xlink:href="#rim" fill="#404040">
                        <set attributeName="fill" to="#808080" begin="arrowDown.mouseover" end="arrowDown.mouseout"/>
                  </use>
                  <path fill="none" stroke="white" stroke-width="1.5" d="M0,-3.0v7 M-2.5,-0.5L0,-3.0L2.5,-0.5"/>
                </g>
                <g id="arrowLeft" xlink:href="#dirArrow" transform="rotate(270) translate(-36 17)" onmousedown="handlePan(-1,0)">
                  <use xlink:href="#rim" fill="#404040">
                        <set attributeName="fill" to="#808080" begin="arrowLeft.mouseover" end="arrowLeft.mouseout"/>
                  </use>
                  <path fill="none" stroke="white" stroke-width="1.5" d="M0,-3.0v7 M-2.5,-0.5L0,-3.0L2.5,-0.5"/>
                </g>
        </g>
        <svg viewBox="0 0 15 15" width="100%" height="30px" preserveAspectRatio="xMaxYMin meet">
         <g id="arrow_out" transform="scale(0.3 0.3)">
          <a xlink:href="interfaceview_1_1_workspace_handler_ac88b6c9e5fb3ffa06ab3ef23b9ce2ae0_icgraph_org.svg" target="_base">
           <rect id="button" ry="5" rx="5" y="6" x="6" height="38" width="38"
                fill="#f2f5e9" fill-opacity="0.5" stroke="#606060" stroke-width="1.0"/>
           <path id="arrow"
             d="M 11.500037,31.436501 C 11.940474,20.09759 22.043105,11.32322 32.158766,21.979434 L 37.068811,17.246167 C 37.068811,17.246167 37.088388,32 37.088388,32 L 22.160133,31.978069 C 22.160133,31.978069 26.997745,27.140456 26.997745,27.140456 C 18.528582,18.264221 13.291696,25.230495 11.500037,31.436501 z"
             style="fill:#404040;"/>
          </a>
         </g>
        </svg>
</svg>
