<?xml version="1.0" encoding="UTF-8" standalone="no"?>
<!DOCTYPE svg PUBLIC "-//W3C//DTD SVG 1.1//EN"
 "http://www.w3.org/Graphics/SVG/1.1/DTD/svg11.dtd">
<!-- Generated by graphviz version 2.36.0 (20140111.2315)
 -->
<!-- Title: util.Location Pages: 1 -->
<svg width="238pt" height="96pt"
 viewBox="0.00 0.00 238.00 96.00" xmlns="http://www.w3.org/2000/svg" xmlns:xlink="http://www.w3.org/1999/xlink">
<g id="graph0" class="graph" transform="scale(1 1) rotate(0) translate(4 92)">
<title>util.Location</title>
<polygon fill="white" stroke="none" points="-4,4 -4,-92 234,-92 234,4 -4,4"/>
<!-- Node1 -->
<g id="node1" class="node"><title>Node1</title>
<polygon fill="#bfbfbf" stroke="black" points="59,-0.5 59,-19.5 133,-19.5 133,-0.5 59,-0.5"/>
<text text-anchor="middle" x="96" y="-7.5" font-family="Helvetica,sans-Serif" font-size="10.00">util.Location</text>
</g>
<!-- Node2 -->
<g id="node2" class="node"><title>Node2</title>
<polygon fill="white" stroke="#bfbfbf" points="0,-68.5 0,-87.5 94,-87.5 94,-68.5 0,-68.5"/>
<text text-anchor="middle" x="47" y="-75.5" font-family="Helvetica,sans-Serif" font-size="10.00">Point2D::Double</text>
</g>
<!-- Node2&#45;&gt;Node1 -->
<g id="edge1" class="edge"><title>Node2&#45;&gt;Node1</title>
<path fill="none" stroke="midnightblue" d="M59.391,-60.3101C68.9433,-47.4437 81.7764,-30.1583 89.4361,-19.8411"/>
<polygon fill="midnightblue" stroke="midnightblue" points="56.5567,-58.2562 53.4059,-68.3717 62.1771,-62.4289 56.5567,-58.2562"/>
</g>
<!-- Node3 -->
<g id="node3" class="node"><title>Node3</title>
<polygon fill="white" stroke="#bfbfbf" points="112,-68.5 112,-87.5 180,-87.5 180,-68.5 112,-68.5"/>
<text text-anchor="middle" x="146" y="-75.5" font-family="Helvetica,sans-Serif" font-size="10.00">Dimension</text>
</g>
<!-- Node3&#45;&gt;Node1 -->
<g id="edge2" class="edge"><title>Node3&#45;&gt;Node1</title>
<path fill="none" stroke="#9a32cd" stroke-dasharray="5,2" d="M133.356,-60.3101C123.609,-47.4437 110.514,-30.1583 102.698,-19.8411"/>
<polygon fill="#9a32cd" stroke="#9a32cd" points="130.635,-62.5142 139.463,-68.3717 136.215,-58.2872 130.635,-62.5142"/>
<text text-anchor="middle" x="177.5" y="-41.5" font-family="Helvetica,sans-Serif" font-size="10.00"> myCanvasDimension</text>
</g>
</g>
</svg>
