<?xml version="1.0" encoding="UTF-8" standalone="no"?>
<!DOCTYPE svg PUBLIC "-//W3C//DTD SVG 1.1//EN"
 "http://www.w3.org/Graphics/SVG/1.1/DTD/svg11.dtd">
<!-- Generated by graphviz version 2.36.0 (20140111.2315)
 -->
<!-- Title: parser.commands.math.Quotient.evaluate Pages: 1 -->
<svg width="664pt" height="115pt"
 viewBox="0.00 0.00 664.00 115.00" xmlns="http://www.w3.org/2000/svg" xmlns:xlink="http://www.w3.org/1999/xlink">
<g id="graph0" class="graph" transform="scale(1 1) rotate(0) translate(4 111)">
<title>parser.commands.math.Quotient.evaluate</title>
<polygon fill="white" stroke="none" points="-4,4 -4,-111 660,-111 660,4 -4,4"/>
<!-- Node1 -->
<g id="node1" class="node"><title>Node1</title>
<polygon fill="#bfbfbf" stroke="black" points="0.5,-49.5 0.5,-68.5 221.5,-68.5 221.5,-49.5 0.5,-49.5"/>
<text text-anchor="middle" x="111" y="-56.5" font-family="Helvetica,sans-Serif" font-size="10.00">parser.commands.math.Quotient.evaluate</text>
</g>
<!-- Node2 -->
<g id="node2" class="node"><title>Node2</title>
<g id="a_node2"><a xlink:href="../../da/d96/classparser_1_1nodes_1_1_syntax_node.html#a669c370adce66a1960835323a90b9adb" target="_top" xlink:title="parser.nodes.SyntaxNode.evaluate">
<polygon fill="white" stroke="black" points="258.5,-87.5 258.5,-106.5 443.5,-106.5 443.5,-87.5 258.5,-87.5"/>
<text text-anchor="middle" x="351" y="-94.5" font-family="Helvetica,sans-Serif" font-size="10.00">parser.nodes.SyntaxNode.evaluate</text>
</a>
</g>
</g>
<!-- Node1&#45;&gt;Node2 -->
<g id="edge1" class="edge"><title>Node1&#45;&gt;Node2</title>
<path fill="none" stroke="midnightblue" d="M171.75,-68.54C204.711,-73.8025 245.813,-80.3651 280.24,-85.8618"/>
<polygon fill="midnightblue" stroke="midnightblue" points="279.798,-89.3356 290.225,-87.4561 280.902,-82.4231 279.798,-89.3356"/>
</g>
<!-- Node3 -->
<g id="node3" class="node"><title>Node3</title>
<g id="a_node3"><a xlink:href="../../db/d11/classparser_1_1nodes_1_1_binary_node.html#a555930c71203ce7c05e1290f069b19a1" target="_top" xlink:title="parser.nodes.BinaryNode.getLeft">
<polygon fill="white" stroke="black" points="264,-49.5 264,-68.5 438,-68.5 438,-49.5 264,-49.5"/>
<text text-anchor="middle" x="351" y="-56.5" font-family="Helvetica,sans-Serif" font-size="10.00">parser.nodes.BinaryNode.getLeft</text>
</a>
</g>
</g>
<!-- Node1&#45;&gt;Node3 -->
<g id="edge2" class="edge"><title>Node1&#45;&gt;Node3</title>
<path fill="none" stroke="midnightblue" d="M221.596,-59C232.32,-59 243.147,-59 253.725,-59"/>
<polygon fill="midnightblue" stroke="midnightblue" points="253.78,-62.5001 263.779,-59 253.779,-55.5001 253.78,-62.5001"/>
</g>
<!-- Node5 -->
<g id="node5" class="node"><title>Node5</title>
<g id="a_node5"><a xlink:href="../../db/d11/classparser_1_1nodes_1_1_binary_node.html#a9c33799a377e3c277de0fc9138a2cb81" target="_top" xlink:title="parser.nodes.BinaryNode.get\lRight">
<polygon fill="white" stroke="black" points="273,-0 273,-30 429,-30 429,-0 273,-0"/>
<text text-anchor="start" x="281" y="-18" font-family="Helvetica,sans-Serif" font-size="10.00">parser.nodes.BinaryNode.get</text>
<text text-anchor="middle" x="351" y="-7" font-family="Helvetica,sans-Serif" font-size="10.00">Right</text>
</a>
</g>
</g>
<!-- Node1&#45;&gt;Node5 -->
<g id="edge4" class="edge"><title>Node1&#45;&gt;Node5</title>
<path fill="none" stroke="midnightblue" d="M163.642,-49.4527C192.511,-44.1157 229.264,-37.3209 262.489,-31.1785"/>
<polygon fill="midnightblue" stroke="midnightblue" points="263.477,-34.5552 272.674,-29.2955 262.205,-27.6718 263.477,-34.5552"/>
</g>
<!-- Node4 -->
<g id="node4" class="node"><title>Node4</title>
<g id="a_node4"><a xlink:href="../../d7/d93/classparser_1_1nodes_1_1_parameter_node.html#a2c57eab9997daf1efb840a189c1034c5" target="_top" xlink:title="parser.nodes.ParameterNode.get\lParameter">
<polygon fill="white" stroke="black" points="480,-22 480,-52 656,-52 656,-22 480,-22"/>
<text text-anchor="start" x="488" y="-40" font-family="Helvetica,sans-Serif" font-size="10.00">parser.nodes.ParameterNode.get</text>
<text text-anchor="middle" x="568" y="-29" font-family="Helvetica,sans-Serif" font-size="10.00">Parameter</text>
</a>
</g>
</g>
<!-- Node3&#45;&gt;Node4 -->
<g id="edge3" class="edge"><title>Node3&#45;&gt;Node4</title>
<path fill="none" stroke="midnightblue" d="M438.21,-50.1785C448.568,-49.1186 459.201,-48.0306 469.703,-46.956"/>
<polygon fill="midnightblue" stroke="midnightblue" points="470.127,-50.431 479.718,-45.9311 469.414,-43.4674 470.127,-50.431"/>
</g>
<!-- Node5&#45;&gt;Node4 -->
<g id="edge5" class="edge"><title>Node5&#45;&gt;Node4</title>
<path fill="none" stroke="midnightblue" d="M429.013,-22.8804C442.167,-24.2264 455.985,-25.6404 469.586,-27.0321"/>
<polygon fill="midnightblue" stroke="midnightblue" points="469.626,-30.5543 479.93,-28.0905 470.338,-23.5907 469.626,-30.5543"/>
</g>
</g>
</svg>
