<?xml version="1.0" encoding="UTF-8" standalone="no"?>
<!DOCTYPE svg PUBLIC "-//W3C//DTD SVG 1.1//EN"
 "http://www.w3.org/Graphics/SVG/1.1/DTD/svg11.dtd">
<!-- Generated by graphviz version 2.36.0 (20140111.2315)
 -->
<!-- Title: view.Canvas Pages: 1 -->
<!--zoomable 128 -->
<svg id="main" version="1.1" xmlns="http://www.w3.org/2000/svg" xmlns:xlink="http://www.w3.org/1999/xlink" xml:space="preserve" onload="init(evt)">
<style type="text/css"><![CDATA[
.edge:hover path { stroke: red; }
.edge:hover polygon { stroke: red; fill: red; }
]]></style>
<script type="text/javascript"><![CDATA[
var edges = document.getElementsByTagName('g');
if (edges && edges.length) {
  for (var i=0;i<edges.length;i++) {
    if (edges[i].id.substr(0,4)=='edge') {
      edges[i].setAttribute('class','edge');
    }
  }
}
]]></script>
        <defs>
                <circle id="rim" cx="0" cy="0" r="7"/>
                <circle id="rim2" cx="0" cy="0" r="3.5"/>
                <g id="zoomPlus">
                        <use xlink:href="#rim" fill="#404040">
                                <set attributeName="fill" to="#808080" begin="zoomplus.mouseover" end="zoomplus.mouseout"/>
                        </use>
                        <path d="M-4,0h8M0,-4v8" fill="none" stroke="white" stroke-width="1.5" pointer-events="none"/>
                </g>
                <g id="zoomMin">
                        <use xlink:href="#rim" fill="#404040">
                                <set attributeName="fill" to="#808080" begin="zoomminus.mouseover" end="zoomminus.mouseout"/>
                        </use>
                        <path d="M-4,0h8" fill="none" stroke="white" stroke-width="1.5" pointer-events="none"/>
                </g>
                <g id="dirArrow">
                        <path fill="none" stroke="white" stroke-width="1.5" d="M0,-3.0v7 M-2.5,-0.5L0,-3.0L2.5,-0.5"/>
                </g>
               <g id="resetDef">
                       <use xlink:href="#rim2" fill="#404040">
                               <set attributeName="fill" to="#808080" begin="reset.mouseover" end="reset.mouseout"/>
                       </use>
               </g>
        </defs>

<script type="text/javascript">
var viewWidth = 843;
var viewHeight = 128;
var sectionId = 'dynsection-1';
</script>
<script xlink:href="../../svgpan.js"/>
<svg id="graph" class="graph">
<g id="viewport">
<title>view.Canvas</title>
<polygon fill="white" stroke="none" points="-4,4 -4,-124 839,-124 839,4 -4,4"/>
<!-- Node1 -->
<g id="node1" class="node"><title>Node1</title>
<polygon fill="#bfbfbf" stroke="black" points="283,-0.5 283,-19.5 357,-19.5 357,-0.5 283,-0.5"/>
<text text-anchor="middle" x="320" y="-7.5" font-family="Helvetica,sans-Serif" font-size="10.00">view.Canvas</text>
</g>
<!-- Node2 -->
<g id="node2" class="node"><title>Node2</title>
<polygon fill="white" stroke="#bfbfbf" points="-0.5,-100.5 -0.5,-119.5 74.5,-119.5 74.5,-100.5 -0.5,-100.5"/>
<text text-anchor="middle" x="37" y="-107.5" font-family="Helvetica,sans-Serif" font-size="10.00">JComponent</text>
</g>
<!-- Node2&#45;&gt;Node1 -->
<g id="edge1" class="edge"><title>Node2&#45;&gt;Node1</title>
<path fill="none" stroke="midnightblue" d="M54.5628,-93.6364C74.5381,-77.0674 108.832,-51.2831 143,-38 189.066,-20.0916 246.188,-14.0133 282.863,-11.9782"/>
<polygon fill="midnightblue" stroke="midnightblue" points="52.0474,-91.1804 46.6823,-100.316 56.5737,-96.5201 52.0474,-91.1804"/>
</g>
<!-- Node3 -->
<g id="node3" class="node"><title>Node3</title>
<polygon fill="white" stroke="#bfbfbf" points="92,-100.5 92,-119.5 152,-119.5 152,-100.5 92,-100.5"/>
<text text-anchor="middle" x="122" y="-107.5" font-family="Helvetica,sans-Serif" font-size="10.00">Observer</text>
</g>
<!-- Node3&#45;&gt;Node1 -->
<g id="edge2" class="edge"><title>Node3&#45;&gt;Node1</title>
<path fill="none" stroke="midnightblue" d="M136.593,-92.3335C151.804,-76.0201 177.137,-51.6844 204,-38 228.689,-25.4231 259.314,-18.615 282.896,-14.9824"/>
<polygon fill="midnightblue" stroke="midnightblue" points="133.733,-90.2762 129.606,-100.034 138.918,-94.9797 133.733,-90.2762"/>
</g>
<!-- Node4 -->
<g id="node4" class="node"><title>Node4</title>
<g id="a_node4"><a xlink:href="../../dc/d3c/interfacemodel_1_1_paintable.html" target="_top" xlink:title="model.Paintable">
<polygon fill="white" stroke="black" points="169.5,-100.5 169.5,-119.5 262.5,-119.5 262.5,-100.5 169.5,-100.5"/>
<text text-anchor="middle" x="216" y="-107.5" font-family="Helvetica,sans-Serif" font-size="10.00">model.Paintable</text>
</a>
</g>
</g>
<!-- Node4&#45;&gt;Node1 -->
<g id="edge3" class="edge"><title>Node4&#45;&gt;Node1</title>
<path fill="none" stroke="#9a32cd" stroke-dasharray="5,2" d="M210.158,-89.9819C206.623,-74.3915 204.712,-52.5928 216,-38 224.275,-27.3027 256.541,-20.0614 282.966,-15.7929"/>
<polygon fill="#9a32cd" stroke="#9a32cd" points="206.885,-91.2913 212.853,-100.045 213.647,-89.4801 206.885,-91.2913"/>
<text text-anchor="middle" x="266" y="-57.5" font-family="Helvetica,sans-Serif" font-size="10.00"> myPaintingResource</text>
</g>
<!-- Node5 -->
<g id="node5" class="node"><title>Node5</title>
<polygon fill="white" stroke="#bfbfbf" points="299.5,-100.5 299.5,-119.5 340.5,-119.5 340.5,-100.5 299.5,-100.5"/>
<text text-anchor="middle" x="320" y="-107.5" font-family="Helvetica,sans-Serif" font-size="10.00">Color</text>
</g>
<!-- Node5&#45;&gt;Node1 -->
<g id="edge4" class="edge"><title>Node5&#45;&gt;Node1</title>
<path fill="none" stroke="#9a32cd" stroke-dasharray="5,2" d="M320,-90.2203C320,-68.9514 320,-35.2197 320,-19.5374"/>
<polygon fill="#9a32cd" stroke="#9a32cd" points="316.5,-90.3031 320,-100.303 323.5,-90.3032 316.5,-90.3031"/>
<text text-anchor="middle" x="380" y="-74" font-family="Helvetica,sans-Serif" font-size="10.00"> DEFAULT_BACKGROUND</text>
<text text-anchor="middle" x="380" y="-63" font-family="Helvetica,sans-Serif" font-size="10.00">myBackgroundColor</text>
<text text-anchor="start" x="320" y="-52" font-family="Helvetica,sans-Serif" font-size="10.00">DEFAULT_BACKGROUND</text>
<text text-anchor="middle" x="380" y="-41" font-family="Helvetica,sans-Serif" font-size="10.00">_COLOR</text>
</g>
<!-- Node6 -->
<g id="node6" class="node"><title>Node6</title>
<polygon fill="white" stroke="#bfbfbf" points="439,-100.5 439,-119.5 487,-119.5 487,-100.5 439,-100.5"/>
<text text-anchor="middle" x="463" y="-107.5" font-family="Helvetica,sans-Serif" font-size="10.00">Stroke</text>
</g>
<!-- Node6&#45;&gt;Node1 -->
<g id="edge5" class="edge"><title>Node6&#45;&gt;Node1</title>
<path fill="none" stroke="#9a32cd" stroke-dasharray="5,2" d="M462.172,-89.7221C460.424,-73.6215 455.351,-51.2345 441,-38 428.896,-26.8377 388.039,-19.3736 357.122,-15.1743"/>
<polygon fill="#9a32cd" stroke="#9a32cd" points="458.713,-90.4003 462.943,-100.114 465.694,-89.8825 458.713,-90.4003"/>
<text text-anchor="middle" x="497" y="-57.5" font-family="Helvetica,sans-Serif" font-size="10.00"> GRID_STROKE</text>
</g>
<!-- Node7 -->
<g id="node7" class="node"><title>Node7</title>
<polygon fill="white" stroke="#bfbfbf" points="532.5,-100.5 532.5,-119.5 579.5,-119.5 579.5,-100.5 532.5,-100.5"/>
<text text-anchor="middle" x="556" y="-107.5" font-family="Helvetica,sans-Serif" font-size="10.00">Image</text>
</g>
<!-- Node7&#45;&gt;Node1 -->
<g id="edge6" class="edge"><title>Node7&#45;&gt;Node1</title>
<path fill="none" stroke="#9a32cd" stroke-dasharray="5,2" d="M555.568,-90.3694C554.119,-73.9826 549.264,-50.8019 534,-38 507.962,-16.1616 411.276,-11.7176 357.207,-10.9805"/>
<polygon fill="#9a32cd" stroke="#9a32cd" points="552.076,-90.622 556.113,-100.418 559.066,-90.2426 552.076,-90.622"/>
<text text-anchor="middle" x="608" y="-57.5" font-family="Helvetica,sans-Serif" font-size="10.00"> myBackgroundImage</text>
</g>
<!-- Node8 -->
<g id="node8" class="node"><title>Node8</title>
<polygon fill="white" stroke="#bfbfbf" points="651,-100.5 651,-119.5 719,-119.5 719,-100.5 651,-100.5"/>
<text text-anchor="middle" x="685" y="-107.5" font-family="Helvetica,sans-Serif" font-size="10.00">Dimension</text>
</g>
<!-- Node8&#45;&gt;Node1 -->
<g id="edge7" class="edge"><title>Node8&#45;&gt;Node1</title>
<path fill="none" stroke="#9a32cd" stroke-dasharray="5,2" d="M684.708,-90.1983C683.354,-73.6953 678.56,-50.4401 663,-38 639.527,-19.2331 440.984,-13.2866 357.134,-11.6015"/>
<polygon fill="#9a32cd" stroke="#9a32cd" points="681.218,-90.5049 685.186,-100.329 688.211,-90.175 681.218,-90.5049"/>
<text text-anchor="middle" x="759.5" y="-57.5" font-family="Helvetica,sans-Serif" font-size="10.00"> DEFAULT_CANVAS_DIMENSION</text>
</g>
</g>
</svg>
        <g id="navigator" transform="translate(0 0)" fill="#404254">
                <rect fill="#f2f5e9" fill-opacity="0.5" stroke="#606060" stroke-width=".5" x="0" y="0" width="60" height="60"/>
                <use id="zoomplus" xlink:href="#zoomPlus" x="17" y="9" onmousedown="handleZoom(evt,'in')"/>
                <use id="zoomminus" xlink:href="#zoomMin" x="42" y="9" onmousedown="handleZoom(evt,'out')"/>
                <use id="reset" xlink:href="#resetDef" x="30" y="36" onmousedown="handleReset()"/>
                <g id="arrowUp" xlink:href="#dirArrow" transform="translate(30 24)" onmousedown="handlePan(0,-1)">
                  <use xlink:href="#rim" fill="#404040">
                        <set attributeName="fill" to="#808080" begin="arrowUp.mouseover" end="arrowUp.mouseout"/>
                  </use>
                  <path fill="none" stroke="white" stroke-width="1.5" d="M0,-3.0v7 M-2.5,-0.5L0,-3.0L2.5,-0.5"/>
                </g>
                <g id="arrowRight" xlink:href="#dirArrow" transform="rotate(90) translate(36 -43)" onmousedown="handlePan(1,0)">
                  <use xlink:href="#rim" fill="#404040">
                        <set attributeName="fill" to="#808080" begin="arrowRight.mouseover" end="arrowRight.mouseout"/>
                  </use>
                  <path fill="none" stroke="white" stroke-width="1.5" d="M0,-3.0v7 M-2.5,-0.5L0,-3.0L2.5,-0.5"/>
                </g>
                <g id="arrowDown" xlink:href="#dirArrow" transform="rotate(180) translate(-30 -48)" onmousedown="handlePan(0,1)">
                  <use xlink:href="#rim" fill="#404040">
                        <set attributeName="fill" to="#808080" begin="arrowDown.mouseover" end="arrowDown.mouseout"/>
                  </use>
                  <path fill="none" stroke="white" stroke-width="1.5" d="M0,-3.0v7 M-2.5,-0.5L0,-3.0L2.5,-0.5"/>
                </g>
                <g id="arrowLeft" xlink:href="#dirArrow" transform="rotate(270) translate(-36 17)" onmousedown="handlePan(-1,0)">
                  <use xlink:href="#rim" fill="#404040">
                        <set attributeName="fill" to="#808080" begin="arrowLeft.mouseover" end="arrowLeft.mouseout"/>
                  </use>
                  <path fill="none" stroke="white" stroke-width="1.5" d="M0,-3.0v7 M-2.5,-0.5L0,-3.0L2.5,-0.5"/>
                </g>
        </g>
        <svg viewBox="0 0 15 15" width="100%" height="30px" preserveAspectRatio="xMaxYMin meet">
         <g id="arrow_out" transform="scale(0.3 0.3)">
          <a xlink:href="classview_1_1_canvas__coll__graph_org.svg" target="_base">
           <rect id="button" ry="5" rx="5" y="6" x="6" height="38" width="38"
                fill="#f2f5e9" fill-opacity="0.5" stroke="#606060" stroke-width="1.0"/>
           <path id="arrow"
             d="M 11.500037,31.436501 C 11.940474,20.09759 22.043105,11.32322 32.158766,21.979434 L 37.068811,17.246167 C 37.068811,17.246167 37.088388,32 37.088388,32 L 22.160133,31.978069 C 22.160133,31.978069 26.997745,27.140456 26.997745,27.140456 C 18.528582,18.264221 13.291696,25.230495 11.500037,31.436501 z"
             style="fill:#404040;"/>
          </a>
         </g>
        </svg>
</svg>
