<?xml version="1.0" encoding="UTF-8" standalone="no"?>
<!DOCTYPE svg PUBLIC "-//W3C//DTD SVG 1.1//EN"
 "http://www.w3.org/Graphics/SVG/1.1/DTD/svg11.dtd">
<!-- Generated by graphviz version 2.36.0 (20140111.2315)
 -->
<!-- Title: view.windows.InformationView Pages: 1 -->
<svg width="446pt" height="96pt"
 viewBox="0.00 0.00 446.00 96.00" xmlns="http://www.w3.org/2000/svg" xmlns:xlink="http://www.w3.org/1999/xlink">
<g id="graph0" class="graph" transform="scale(1 1) rotate(0) translate(4 92)">
<title>view.windows.InformationView</title>
<polygon fill="white" stroke="none" points="-4,4 -4,-92 442,-92 442,4 -4,4"/>
<!-- Node1 -->
<g id="node1" class="node"><title>Node1</title>
<polygon fill="#bfbfbf" stroke="black" points="76,-0.5 76,-19.5 234,-19.5 234,-0.5 76,-0.5"/>
<text text-anchor="middle" x="155" y="-7.5" font-family="Helvetica,sans-Serif" font-size="10.00">view.windows.InformationView</text>
</g>
<!-- Node2 -->
<g id="node2" class="node"><title>Node2</title>
<polygon fill="white" stroke="#bfbfbf" points="0,-68.5 0,-87.5 44,-87.5 44,-68.5 0,-68.5"/>
<text text-anchor="middle" x="22" y="-75.5" font-family="Helvetica,sans-Serif" font-size="10.00">JPanel</text>
</g>
<!-- Node2&#45;&gt;Node1 -->
<g id="edge1" class="edge"><title>Node2&#45;&gt;Node1</title>
<path fill="none" stroke="midnightblue" d="M48.4748,-63.8621C74.9503,-50.7239 114.905,-30.8969 137.608,-19.6305"/>
<polygon fill="midnightblue" stroke="midnightblue" points="46.7893,-60.7912 39.3874,-68.3717 49.901,-67.0616 46.7893,-60.7912"/>
</g>
<!-- Node3 -->
<g id="node3" class="node"><title>Node3</title>
<polygon fill="white" stroke="#bfbfbf" points="62,-68.5 62,-87.5 122,-87.5 122,-68.5 62,-68.5"/>
<text text-anchor="middle" x="92" y="-75.5" font-family="Helvetica,sans-Serif" font-size="10.00">Observer</text>
</g>
<!-- Node3&#45;&gt;Node1 -->
<g id="edge2" class="edge"><title>Node3&#45;&gt;Node1</title>
<path fill="none" stroke="midnightblue" d="M107.227,-61.0474C119.576,-48.1111 136.523,-30.3567 146.561,-19.8411"/>
<polygon fill="midnightblue" stroke="midnightblue" points="104.609,-58.7214 100.236,-68.3717 109.673,-63.5547 104.609,-58.7214"/>
</g>
<!-- Node4 -->
<g id="node4" class="node"><title>Node4</title>
<polygon fill="white" stroke="#bfbfbf" points="140,-68.5 140,-87.5 298,-87.5 298,-68.5 140,-68.5"/>
<text text-anchor="middle" x="219" y="-75.5" font-family="Helvetica,sans-Serif" font-size="10.00">List&lt; view.labels.LogoLabel &gt;</text>
</g>
<!-- Node4&#45;&gt;Node1 -->
<g id="edge3" class="edge"><title>Node4&#45;&gt;Node1</title>
<path fill="none" stroke="#9a32cd" stroke-dasharray="5,2" d="M203.531,-61.0474C190.987,-48.1111 173.77,-30.3567 163.573,-19.8411"/>
<polygon fill="#9a32cd" stroke="#9a32cd" points="201.159,-63.6291 210.633,-68.3717 206.184,-58.7561 201.159,-63.6291"/>
<text text-anchor="middle" x="223.5" y="-41.5" font-family="Helvetica,sans-Serif" font-size="10.00"> myLabelList</text>
</g>
<!-- Node5 -->
<g id="node5" class="node"><title>Node5</title>
<g id="a_node5"><a xlink:href="../../d0/d32/interfaceview_1_1_i_label_information.html" target="_top" xlink:title="view.ILabelInformation">
<polygon fill="white" stroke="black" points="316,-68.5 316,-87.5 438,-87.5 438,-68.5 316,-68.5"/>
<text text-anchor="middle" x="377" y="-75.5" font-family="Helvetica,sans-Serif" font-size="10.00">view.ILabelInformation</text>
</a>
</g>
</g>
<!-- Node5&#45;&gt;Node1 -->
<g id="edge4" class="edge"><title>Node5&#45;&gt;Node1</title>
<path fill="none" stroke="#9a32cd" stroke-dasharray="5,2" d="M342.931,-65.229C319.228,-57.1887 286.831,-46.4949 258,-38 235.48,-31.3646 209.955,-24.6678 189.948,-19.6036"/>
<polygon fill="#9a32cd" stroke="#9a32cd" points="341.927,-68.5843 352.521,-68.4982 344.185,-61.9587 341.927,-68.5843"/>
<text text-anchor="middle" x="336.5" y="-41.5" font-family="Helvetica,sans-Serif" font-size="10.00"> TURTLE_QUERIES</text>
</g>
</g>
</svg>
