<?xml version="1.0" encoding="UTF-8" standalone="no"?>
<!DOCTYPE svg PUBLIC "-//W3C//DTD SVG 1.1//EN"
 "http://www.w3.org/Graphics/SVG/1.1/DTD/svg11.dtd">
<!-- Generated by graphviz version 2.36.0 (20140111.2315)
 -->
<!-- Title: controller.Workspace.update Pages: 1 -->
<!--zoomable 263 -->
<svg id="main" version="1.1" xmlns="http://www.w3.org/2000/svg" xmlns:xlink="http://www.w3.org/1999/xlink" xml:space="preserve" onload="init(evt)">
<style type="text/css"><![CDATA[
.edge:hover path { stroke: red; }
.edge:hover polygon { stroke: red; fill: red; }
]]></style>
<script type="text/javascript"><![CDATA[
var edges = document.getElementsByTagName('g');
if (edges && edges.length) {
  for (var i=0;i<edges.length;i++) {
    if (edges[i].id.substr(0,4)=='edge') {
      edges[i].setAttribute('class','edge');
    }
  }
}
]]></script>
        <defs>
                <circle id="rim" cx="0" cy="0" r="7"/>
                <circle id="rim2" cx="0" cy="0" r="3.5"/>
                <g id="zoomPlus">
                        <use xlink:href="#rim" fill="#404040">
                                <set attributeName="fill" to="#808080" begin="zoomplus.mouseover" end="zoomplus.mouseout"/>
                        </use>
                        <path d="M-4,0h8M0,-4v8" fill="none" stroke="white" stroke-width="1.5" pointer-events="none"/>
                </g>
                <g id="zoomMin">
                        <use xlink:href="#rim" fill="#404040">
                                <set attributeName="fill" to="#808080" begin="zoomminus.mouseover" end="zoomminus.mouseout"/>
                        </use>
                        <path d="M-4,0h8" fill="none" stroke="white" stroke-width="1.5" pointer-events="none"/>
                </g>
                <g id="dirArrow">
                        <path fill="none" stroke="white" stroke-width="1.5" d="M0,-3.0v7 M-2.5,-0.5L0,-3.0L2.5,-0.5"/>
                </g>
               <g id="resetDef">
                       <use xlink:href="#rim2" fill="#404040">
                               <set attributeName="fill" to="#808080" begin="reset.mouseover" end="reset.mouseout"/>
                       </use>
               </g>
        </defs>

<script type="text/javascript">
var viewWidth = 1280;
var viewHeight = 263;
var sectionId = 'dynsection-38';
</script>
<script xlink:href="../../svgpan.js"/>
<svg id="graph" class="graph">
<g id="viewport">
<title>controller.Workspace.update</title>
<polygon fill="white" stroke="none" points="-4,4 -4,-259 1276,-259 1276,4 -4,4"/>
<!-- Node1 -->
<g id="node1" class="node"><title>Node1</title>
<polygon fill="#bfbfbf" stroke="black" points="0,-115.5 0,-134.5 152,-134.5 152,-115.5 0,-115.5"/>
<text text-anchor="middle" x="76" y="-122.5" font-family="Helvetica,sans-Serif" font-size="10.00">controller.Workspace.update</text>
</g>
<!-- Node2 -->
<g id="node2" class="node"><title>Node2</title>
<g id="a_node2"><a xlink:href="../../de/d84/classcontroller_1_1_workspace.html#abceb71fe227a560303f42bb77b0a1113" target="_top" xlink:title="controller.Workspace.activate\lTurtle">
<polygon fill="white" stroke="black" points="194,-225 194,-255 350,-255 350,-225 194,-225"/>
<text text-anchor="start" x="202" y="-243" font-family="Helvetica,sans-Serif" font-size="10.00">controller.Workspace.activate</text>
<text text-anchor="middle" x="272" y="-232" font-family="Helvetica,sans-Serif" font-size="10.00">Turtle</text>
</a>
</g>
</g>
<!-- Node1&#45;&gt;Node2 -->
<g id="edge1" class="edge"><title>Node1&#45;&gt;Node2</title>
<path fill="none" stroke="midnightblue" d="M93.4064,-141.829C113.843,-161.903 150.642,-195.221 188,-215 195.182,-218.803 203.027,-222.113 210.936,-224.97"/>
<polygon fill="midnightblue" stroke="midnightblue" points="95.7177,-139.191 86.1701,-134.598 90.7698,-144.143 95.7177,-139.191"/>
</g>
<!-- Node8 -->
<g id="node8" class="node"><title>Node8</title>
<g id="a_node8"><a xlink:href="../../de/d84/classcontroller_1_1_workspace.html#a6edc5179c7840bd8bdd91bb19ef7405b" target="_top" xlink:title="controller.Workspace.add\lTurtle">
<polygon fill="white" stroke="black" points="576,-132 576,-162 712,-162 712,-132 576,-132"/>
<text text-anchor="start" x="584" y="-150" font-family="Helvetica,sans-Serif" font-size="10.00">controller.Workspace.add</text>
<text text-anchor="middle" x="644" y="-139" font-family="Helvetica,sans-Serif" font-size="10.00">Turtle</text>
</a>
</g>
</g>
<!-- Node1&#45;&gt;Node8 -->
<g id="edge7" class="edge"><title>Node1&#45;&gt;Node8</title>
<path fill="none" stroke="midnightblue" d="M162.167,-128.31C275.279,-132.707 472.763,-140.383 575.921,-144.393"/>
<polygon fill="midnightblue" stroke="midnightblue" points="162.289,-124.813 152.16,-127.921 162.017,-131.807 162.289,-124.813"/>
</g>
<!-- Node9 -->
<g id="node9" class="node"><title>Node9</title>
<g id="a_node9"><a xlink:href="../../d9/df7/classcontroller_1_1_controller.html#a19e3ac02ba1459ff9e16013584ba0ae5" target="_top" xlink:title="controller.Controller.create\lPhysicalCommands">
<polygon fill="white" stroke="black" points="200.5,-88 200.5,-118 343.5,-118 343.5,-88 200.5,-88"/>
<text text-anchor="start" x="208.5" y="-106" font-family="Helvetica,sans-Serif" font-size="10.00">controller.Controller.create</text>
<text text-anchor="middle" x="272" y="-95" font-family="Helvetica,sans-Serif" font-size="10.00">PhysicalCommands</text>
</a>
</g>
</g>
<!-- Node1&#45;&gt;Node9 -->
<g id="edge9" class="edge"><title>Node1&#45;&gt;Node9</title>
<path fill="none" stroke="midnightblue" d="M162.153,-115.344C174.901,-113.898 187.926,-112.421 200.33,-111.014"/>
<polygon fill="midnightblue" stroke="midnightblue" points="161.547,-111.89 152.005,-116.494 162.336,-118.845 161.547,-111.89"/>
</g>
<!-- Node11 -->
<g id="node11" class="node"><title>Node11</title>
<g id="a_node11"><a xlink:href="../../d9/df7/classcontroller_1_1_controller.html#aaa03ac2d4ba85ce0aea59ded9a2f65b9" target="_top" xlink:title="controller.Controller.create\lVisualCommands">
<polygon fill="white" stroke="black" points="200.5,-39 200.5,-69 343.5,-69 343.5,-39 200.5,-39"/>
<text text-anchor="start" x="208.5" y="-57" font-family="Helvetica,sans-Serif" font-size="10.00">controller.Controller.create</text>
<text text-anchor="middle" x="272" y="-46" font-family="Helvetica,sans-Serif" font-size="10.00">VisualCommands</text>
</a>
</g>
</g>
<!-- Node1&#45;&gt;Node11 -->
<g id="edge12" class="edge"><title>Node1&#45;&gt;Node11</title>
<path fill="none" stroke="midnightblue" d="M107.659,-111.321C129.768,-101.696 160.446,-88.8312 188,-79 197.638,-75.5611 208.012,-72.1852 218.052,-69.0814"/>
<polygon fill="midnightblue" stroke="midnightblue" points="106.198,-108.14 98.4446,-115.36 109.008,-114.551 106.198,-108.14"/>
</g>
<!-- Node12 -->
<g id="node12" class="node"><title>Node12</title>
<g id="a_node12"><a xlink:href="../../de/d84/classcontroller_1_1_workspace.html#a497dad2e57c3d43cd971274660863e6c" target="_top" xlink:title="controller.Workspace.deactivate\lTurtle">
<polygon fill="white" stroke="black" points="188,-176 188,-206 356,-206 356,-176 188,-176"/>
<text text-anchor="start" x="196" y="-194" font-family="Helvetica,sans-Serif" font-size="10.00">controller.Workspace.deactivate</text>
<text text-anchor="middle" x="272" y="-183" font-family="Helvetica,sans-Serif" font-size="10.00">Turtle</text>
</a>
</g>
</g>
<!-- Node1&#45;&gt;Node12 -->
<g id="edge14" class="edge"><title>Node1&#45;&gt;Node12</title>
<path fill="none" stroke="midnightblue" d="M115.088,-137.958C147.108,-148.851 192.914,-164.435 226.594,-175.893"/>
<polygon fill="midnightblue" stroke="midnightblue" points="115.804,-134.504 105.209,-134.597 113.549,-141.131 115.804,-134.504"/>
</g>
<!-- Node13 -->
<g id="node13" class="node"><title>Node13</title>
<g id="a_node13"><a xlink:href="../../d9/dc7/classview_1_1_window.html#aaa5394101525164bc2ec030e9bb9c6b1" target="_top" xlink:title="view.Window.updateObservers">
<polygon fill="white" stroke="black" points="192.5,-0.5 192.5,-19.5 351.5,-19.5 351.5,-0.5 192.5,-0.5"/>
<text text-anchor="middle" x="272" y="-7.5" font-family="Helvetica,sans-Serif" font-size="10.00">view.Window.updateObservers</text>
</a>
</g>
</g>
<!-- Node1&#45;&gt;Node13 -->
<g id="edge16" class="edge"><title>Node1&#45;&gt;Node13</title>
<path fill="none" stroke="midnightblue" d="M91.7673,-107.853C111.474,-86.1009 148.502,-49.0165 188,-29 195.648,-25.1243 204.091,-22.0295 212.576,-19.5607"/>
<polygon fill="midnightblue" stroke="midnightblue" points="89.1144,-105.569 85.0934,-115.372 94.3495,-110.216 89.1144,-105.569"/>
</g>
<!-- Node3 -->
<g id="node3" class="node"><title>Node3</title>
<g id="a_node3"><a xlink:href="../../d9/df7/classcontroller_1_1_controller.html#acd242cba05fd983be695439ef2186966" target="_top" xlink:title="controller.Controller.create\lCheckBoxItemListener">
<polygon fill="white" stroke="black" points="392.5,-181 392.5,-211 535.5,-211 535.5,-181 392.5,-181"/>
<text text-anchor="start" x="400.5" y="-199" font-family="Helvetica,sans-Serif" font-size="10.00">controller.Controller.create</text>
<text text-anchor="middle" x="464" y="-188" font-family="Helvetica,sans-Serif" font-size="10.00">CheckBoxItemListener</text>
</a>
</g>
</g>
<!-- Node2&#45;&gt;Node3 -->
<g id="edge2" class="edge"><title>Node2&#45;&gt;Node3</title>
<path fill="none" stroke="midnightblue" d="M348.037,-222.623C364.594,-218.789 381.999,-214.758 398.114,-211.026"/>
<polygon fill="midnightblue" stroke="midnightblue" points="346.808,-219.315 337.856,-224.981 348.388,-226.134 346.808,-219.315"/>
</g>
<!-- Node4 -->
<g id="node4" class="node"><title>Node4</title>
<g id="a_node4"><a xlink:href="../../d9/df7/classcontroller_1_1_controller.html#a17d9d0474952b983548cde23a4e27134" target="_top" xlink:title="controller.Controller.create\lTellMenuListener">
<polygon fill="white" stroke="black" points="572.5,-181 572.5,-211 715.5,-211 715.5,-181 572.5,-181"/>
<text text-anchor="start" x="580.5" y="-199" font-family="Helvetica,sans-Serif" font-size="10.00">controller.Controller.create</text>
<text text-anchor="middle" x="644" y="-188" font-family="Helvetica,sans-Serif" font-size="10.00">TellMenuListener</text>
</a>
</g>
</g>
<!-- Node3&#45;&gt;Node4 -->
<g id="edge3" class="edge"><title>Node3&#45;&gt;Node4</title>
<path fill="none" stroke="midnightblue" d="M545.646,-196C554.599,-196 563.666,-196 572.479,-196"/>
<polygon fill="midnightblue" stroke="midnightblue" points="545.606,-192.5 535.606,-196 545.606,-199.5 545.606,-192.5"/>
</g>
<!-- Node5 -->
<g id="node5" class="node"><title>Node5</title>
<g id="a_node5"><a xlink:href="../../d9/df7/classcontroller_1_1_controller.html#ac03add001882f876041934dfe435b43f" target="_top" xlink:title="controller.Controller.create\lSettingMenu">
<polygon fill="white" stroke="black" points="752.5,-132 752.5,-162 895.5,-162 895.5,-132 752.5,-132"/>
<text text-anchor="start" x="760.5" y="-150" font-family="Helvetica,sans-Serif" font-size="10.00">controller.Controller.create</text>
<text text-anchor="middle" x="824" y="-139" font-family="Helvetica,sans-Serif" font-size="10.00">SettingMenu</text>
</a>
</g>
</g>
<!-- Node4&#45;&gt;Node5 -->
<g id="edge4" class="edge"><title>Node4&#45;&gt;Node5</title>
<path fill="none" stroke="midnightblue" d="M709.738,-178.179C728.957,-172.888 749.81,-167.148 768.323,-162.052"/>
<polygon fill="midnightblue" stroke="midnightblue" points="708.571,-174.87 699.858,-180.899 710.429,-181.619 708.571,-174.87"/>
</g>
<!-- Node6 -->
<g id="node6" class="node"><title>Node6</title>
<g id="a_node6"><a xlink:href="../../d9/df7/classcontroller_1_1_controller.html#a2901bf43bb8e47b485558dbf00d40d6d" target="_top" xlink:title="controller.Controller.create\lJMenuBar">
<polygon fill="white" stroke="black" points="932.5,-110 932.5,-140 1075.5,-140 1075.5,-110 932.5,-110"/>
<text text-anchor="start" x="940.5" y="-128" font-family="Helvetica,sans-Serif" font-size="10.00">controller.Controller.create</text>
<text text-anchor="middle" x="1004" y="-117" font-family="Helvetica,sans-Serif" font-size="10.00">JMenuBar</text>
</a>
</g>
</g>
<!-- Node5&#45;&gt;Node6 -->
<g id="edge5" class="edge"><title>Node5&#45;&gt;Node6</title>
<path fill="none" stroke="midnightblue" d="M905.646,-137.032C914.599,-135.926 923.666,-134.805 932.479,-133.716"/>
<polygon fill="midnightblue" stroke="midnightblue" points="905.101,-133.573 895.606,-138.273 905.96,-140.52 905.101,-133.573"/>
</g>
<!-- Node7 -->
<g id="node7" class="node"><title>Node7</title>
<g id="a_node7"><a xlink:href="../../d9/df7/classcontroller_1_1_controller.html#a47511ec57338c8e75e71e9314cda5271" target="_top" xlink:title="controller.Controller.Controller">
<polygon fill="white" stroke="black" points="1112.5,-115.5 1112.5,-134.5 1271.5,-134.5 1271.5,-115.5 1112.5,-115.5"/>
<text text-anchor="middle" x="1192" y="-122.5" font-family="Helvetica,sans-Serif" font-size="10.00">controller.Controller.Controller</text>
</a>
</g>
</g>
<!-- Node6&#45;&gt;Node7 -->
<g id="edge6" class="edge"><title>Node6&#45;&gt;Node7</title>
<path fill="none" stroke="midnightblue" d="M1085.84,-125C1094.64,-125 1103.6,-125 1112.38,-125"/>
<polygon fill="midnightblue" stroke="midnightblue" points="1085.58,-121.5 1075.58,-125 1085.58,-128.5 1085.58,-121.5"/>
</g>
<!-- Node8&#45;&gt;Node5 -->
<g id="edge8" class="edge"><title>Node8&#45;&gt;Node5</title>
<path fill="none" stroke="midnightblue" d="M722.054,-147C732.157,-147 742.469,-147 752.457,-147"/>
<polygon fill="midnightblue" stroke="midnightblue" points="722.041,-143.5 712.041,-147 722.04,-150.5 722.041,-143.5"/>
</g>
<!-- Node10 -->
<g id="node10" class="node"><title>Node10</title>
<g id="a_node10"><a xlink:href="../../d9/df7/classcontroller_1_1_controller.html#aa81e4dbd87e3f8b9a1c43acb096304dd" target="_top" xlink:title="controller.Controller.create\lCommandMenu">
<polygon fill="white" stroke="black" points="392.5,-88 392.5,-118 535.5,-118 535.5,-88 392.5,-88"/>
<text text-anchor="start" x="400.5" y="-106" font-family="Helvetica,sans-Serif" font-size="10.00">controller.Controller.create</text>
<text text-anchor="middle" x="464" y="-95" font-family="Helvetica,sans-Serif" font-size="10.00">CommandMenu</text>
</a>
</g>
</g>
<!-- Node9&#45;&gt;Node10 -->
<g id="edge10" class="edge"><title>Node9&#45;&gt;Node10</title>
<path fill="none" stroke="midnightblue" d="M353.874,-103C366.615,-103 379.702,-103 392.192,-103"/>
<polygon fill="midnightblue" stroke="midnightblue" points="353.749,-99.5001 343.749,-103 353.749,-106.5 353.749,-99.5001"/>
</g>
<!-- Node10&#45;&gt;Node6 -->
<g id="edge11" class="edge"><title>Node10&#45;&gt;Node6</title>
<path fill="none" stroke="midnightblue" d="M545.841,-106.306C650.856,-110.6 832.519,-118.029 932.302,-122.109"/>
<polygon fill="midnightblue" stroke="midnightblue" points="545.745,-102.799 535.611,-105.887 545.459,-109.793 545.745,-102.799"/>
</g>
<!-- Node11&#45;&gt;Node10 -->
<g id="edge13" class="edge"><title>Node11&#45;&gt;Node10</title>
<path fill="none" stroke="midnightblue" d="M341.05,-71.5498C361.915,-76.9306 384.67,-82.799 404.813,-87.9938"/>
<polygon fill="midnightblue" stroke="midnightblue" points="341.855,-68.1428 331.297,-69.0346 340.107,-74.921 341.855,-68.1428"/>
</g>
<!-- Node12&#45;&gt;Node3 -->
<g id="edge15" class="edge"><title>Node12&#45;&gt;Node3</title>
<path fill="none" stroke="midnightblue" d="M366.299,-193.455C375.044,-193.685 383.808,-193.916 392.295,-194.139"/>
<polygon fill="midnightblue" stroke="midnightblue" points="366.149,-189.95 356.06,-193.186 365.965,-196.948 366.149,-189.95"/>
</g>
</g>
</svg>
        <g id="navigator" transform="translate(0 0)" fill="#404254">
                <rect fill="#f2f5e9" fill-opacity="0.5" stroke="#606060" stroke-width=".5" x="0" y="0" width="60" height="60"/>
                <use id="zoomplus" xlink:href="#zoomPlus" x="17" y="9" onmousedown="handleZoom(evt,'in')"/>
                <use id="zoomminus" xlink:href="#zoomMin" x="42" y="9" onmousedown="handleZoom(evt,'out')"/>
                <use id="reset" xlink:href="#resetDef" x="30" y="36" onmousedown="handleReset()"/>
                <g id="arrowUp" xlink:href="#dirArrow" transform="translate(30 24)" onmousedown="handlePan(0,-1)">
                  <use xlink:href="#rim" fill="#404040">
                        <set attributeName="fill" to="#808080" begin="arrowUp.mouseover" end="arrowUp.mouseout"/>
                  </use>
                  <path fill="none" stroke="white" stroke-width="1.5" d="M0,-3.0v7 M-2.5,-0.5L0,-3.0L2.5,-0.5"/>
                </g>
                <g id="arrowRight" xlink:href="#dirArrow" transform="rotate(90) translate(36 -43)" onmousedown="handlePan(1,0)">
                  <use xlink:href="#rim" fill="#404040">
                        <set attributeName="fill" to="#808080" begin="arrowRight.mouseover" end="arrowRight.mouseout"/>
                  </use>
                  <path fill="none" stroke="white" stroke-width="1.5" d="M0,-3.0v7 M-2.5,-0.5L0,-3.0L2.5,-0.5"/>
                </g>
                <g id="arrowDown" xlink:href="#dirArrow" transform="rotate(180) translate(-30 -48)" onmousedown="handlePan(0,1)">
                  <use xlink:href="#rim" fill="#404040">
                        <set attributeName="fill" to="#808080" begin="arrowDown.mouseover" end="arrowDown.mouseout"/>
                  </use>
                  <path fill="none" stroke="white" stroke-width="1.5" d="M0,-3.0v7 M-2.5,-0.5L0,-3.0L2.5,-0.5"/>
                </g>
                <g id="arrowLeft" xlink:href="#dirArrow" transform="rotate(270) translate(-36 17)" onmousedown="handlePan(-1,0)">
                  <use xlink:href="#rim" fill="#404040">
                        <set attributeName="fill" to="#808080" begin="arrowLeft.mouseover" end="arrowLeft.mouseout"/>
                  </use>
                  <path fill="none" stroke="white" stroke-width="1.5" d="M0,-3.0v7 M-2.5,-0.5L0,-3.0L2.5,-0.5"/>
                </g>
        </g>
        <svg viewBox="0 0 15 15" width="100%" height="30px" preserveAspectRatio="xMaxYMin meet">
         <g id="arrow_out" transform="scale(0.3 0.3)">
          <a xlink:href="classcontroller_1_1_workspace_a06f94274c983b2edde00bcdc2b15f790_icgraph_org.svg" target="_base">
           <rect id="button" ry="5" rx="5" y="6" x="6" height="38" width="38"
                fill="#f2f5e9" fill-opacity="0.5" stroke="#606060" stroke-width="1.0"/>
           <path id="arrow"
             d="M 11.500037,31.436501 C 11.940474,20.09759 22.043105,11.32322 32.158766,21.979434 L 37.068811,17.246167 C 37.068811,17.246167 37.088388,32 37.088388,32 L 22.160133,31.978069 C 22.160133,31.978069 26.997745,27.140456 26.997745,27.140456 C 18.528582,18.264221 13.291696,25.230495 11.500037,31.436501 z"
             style="fill:#404040;"/>
          </a>
         </g>
        </svg>
</svg>
