<?xml version="1.0" encoding="UTF-8" standalone="no"?>
<!DOCTYPE svg PUBLIC "-//W3C//DTD SVG 1.1//EN"
 "http://www.w3.org/Graphics/SVG/1.1/DTD/svg11.dtd">
<!-- Generated by graphviz version 2.36.0 (20140111.2315)
 -->
<!-- Title: controller.Workspace.getTurtleManager Pages: 1 -->
<!--zoomable 252 -->
<svg id="main" version="1.1" xmlns="http://www.w3.org/2000/svg" xmlns:xlink="http://www.w3.org/1999/xlink" xml:space="preserve" onload="init(evt)">
<style type="text/css"><![CDATA[
.edge:hover path { stroke: red; }
.edge:hover polygon { stroke: red; fill: red; }
]]></style>
<script type="text/javascript"><![CDATA[
var edges = document.getElementsByTagName('g');
if (edges && edges.length) {
  for (var i=0;i<edges.length;i++) {
    if (edges[i].id.substr(0,4)=='edge') {
      edges[i].setAttribute('class','edge');
    }
  }
}
]]></script>
        <defs>
                <circle id="rim" cx="0" cy="0" r="7"/>
                <circle id="rim2" cx="0" cy="0" r="3.5"/>
                <g id="zoomPlus">
                        <use xlink:href="#rim" fill="#404040">
                                <set attributeName="fill" to="#808080" begin="zoomplus.mouseover" end="zoomplus.mouseout"/>
                        </use>
                        <path d="M-4,0h8M0,-4v8" fill="none" stroke="white" stroke-width="1.5" pointer-events="none"/>
                </g>
                <g id="zoomMin">
                        <use xlink:href="#rim" fill="#404040">
                                <set attributeName="fill" to="#808080" begin="zoomminus.mouseover" end="zoomminus.mouseout"/>
                        </use>
                        <path d="M-4,0h8" fill="none" stroke="white" stroke-width="1.5" pointer-events="none"/>
                </g>
                <g id="dirArrow">
                        <path fill="none" stroke="white" stroke-width="1.5" d="M0,-3.0v7 M-2.5,-0.5L0,-3.0L2.5,-0.5"/>
                </g>
               <g id="resetDef">
                       <use xlink:href="#rim2" fill="#404040">
                               <set attributeName="fill" to="#808080" begin="reset.mouseover" end="reset.mouseout"/>
                       </use>
               </g>
        </defs>

<script type="text/javascript">
var viewWidth = 908;
var viewHeight = 252;
var sectionId = 'dynsection-25';
</script>
<script xlink:href="../../svgpan.js"/>
<svg id="graph" class="graph">
<g id="viewport">
<title>controller.Workspace.getTurtleManager</title>
<polygon fill="white" stroke="none" points="-4,4 -4,-248 904,-248 904,4 -4,4"/>
<!-- Node1 -->
<g id="node1" class="node"><title>Node1</title>
<polygon fill="#bfbfbf" stroke="black" points="0,-99 0,-129 134,-129 134,-99 0,-99"/>
<text text-anchor="start" x="8" y="-117" font-family="Helvetica,sans-Serif" font-size="10.00">controller.Workspace.get</text>
<text text-anchor="middle" x="67" y="-106" font-family="Helvetica,sans-Serif" font-size="10.00">TurtleManager</text>
</g>
<!-- Node2 -->
<g id="node2" class="node"><title>Node2</title>
<g id="a_node2"><a xlink:href="../../d9/df7/classcontroller_1_1_controller.html#a19e3ac02ba1459ff9e16013584ba0ae5" target="_top" xlink:title="controller.Controller.create\lPhysicalCommands">
<polygon fill="white" stroke="black" points="185.5,-214 185.5,-244 328.5,-244 328.5,-214 185.5,-214"/>
<text text-anchor="start" x="193.5" y="-232" font-family="Helvetica,sans-Serif" font-size="10.00">controller.Controller.create</text>
<text text-anchor="middle" x="257" y="-221" font-family="Helvetica,sans-Serif" font-size="10.00">PhysicalCommands</text>
</a>
</g>
</g>
<!-- Node1&#45;&gt;Node2 -->
<g id="edge1" class="edge"><title>Node1&#45;&gt;Node2</title>
<path fill="none" stroke="midnightblue" d="M87.987,-136.586C107.152,-156.943 137.85,-186.314 170,-204 176.948,-207.822 184.541,-211.114 192.246,-213.934"/>
<polygon fill="midnightblue" stroke="midnightblue" points="90.3429,-133.978 80.988,-129.005 85.1994,-138.727 90.3429,-133.978"/>
</g>
<!-- Node6 -->
<g id="node6" class="node"><title>Node6</title>
<g id="a_node6"><a xlink:href="../../d9/df7/classcontroller_1_1_controller.html#ac03add001882f876041934dfe435b43f" target="_top" xlink:title="controller.Controller.create\lSettingMenu">
<polygon fill="white" stroke="black" points="380.5,-99 380.5,-129 523.5,-129 523.5,-99 380.5,-99"/>
<text text-anchor="start" x="388.5" y="-117" font-family="Helvetica,sans-Serif" font-size="10.00">controller.Controller.create</text>
<text text-anchor="middle" x="452" y="-106" font-family="Helvetica,sans-Serif" font-size="10.00">SettingMenu</text>
</a>
</g>
</g>
<!-- Node1&#45;&gt;Node6 -->
<g id="edge5" class="edge"><title>Node1&#45;&gt;Node6</title>
<path fill="none" stroke="midnightblue" d="M144.26,-115.659C152.941,-115.799 161.662,-115.918 170,-116 247.33,-116.758 266.67,-116.723 344,-116 355.798,-115.89 368.326,-115.711 380.496,-115.505"/>
<polygon fill="midnightblue" stroke="midnightblue" points="144.172,-112.157 134.114,-115.485 144.052,-119.156 144.172,-112.157"/>
</g>
<!-- Node7 -->
<g id="node7" class="node"><title>Node7</title>
<g id="a_node7"><a xlink:href="../../d9/df7/classcontroller_1_1_controller.html#a17d9d0474952b983548cde23a4e27134" target="_top" xlink:title="controller.Controller.create\lTellMenuListener">
<polygon fill="white" stroke="black" points="185.5,-77 185.5,-107 328.5,-107 328.5,-77 185.5,-77"/>
<text text-anchor="start" x="193.5" y="-95" font-family="Helvetica,sans-Serif" font-size="10.00">controller.Controller.create</text>
<text text-anchor="middle" x="257" y="-84" font-family="Helvetica,sans-Serif" font-size="10.00">TellMenuListener</text>
</a>
</g>
</g>
<!-- Node1&#45;&gt;Node7 -->
<g id="edge7" class="edge"><title>Node1&#45;&gt;Node7</title>
<path fill="none" stroke="midnightblue" d="M144.279,-105.074C157.854,-103.485 171.94,-101.837 185.35,-100.268"/>
<polygon fill="midnightblue" stroke="midnightblue" points="143.543,-101.636 134.017,-106.275 144.356,-108.588 143.543,-101.636"/>
</g>
<!-- Node8 -->
<g id="node8" class="node"><title>Node8</title>
<g id="a_node8"><a xlink:href="../../d9/df7/classcontroller_1_1_controller.html#aaa03ac2d4ba85ce0aea59ded9a2f65b9" target="_top" xlink:title="controller.Controller.create\lVisualCommands">
<polygon fill="white" stroke="black" points="185.5,-165 185.5,-195 328.5,-195 328.5,-165 185.5,-165"/>
<text text-anchor="start" x="193.5" y="-183" font-family="Helvetica,sans-Serif" font-size="10.00">controller.Controller.create</text>
<text text-anchor="middle" x="257" y="-172" font-family="Helvetica,sans-Serif" font-size="10.00">VisualCommands</text>
</a>
</g>
</g>
<!-- Node1&#45;&gt;Node8 -->
<g id="edge9" class="edge"><title>Node1&#45;&gt;Node8</title>
<path fill="none" stroke="midnightblue" d="M120.352,-132.519C136.289,-138.145 153.858,-144.336 170,-150 183.877,-154.869 199.021,-160.16 212.68,-164.923"/>
<polygon fill="midnightblue" stroke="midnightblue" points="121.262,-129.128 110.668,-129.098 118.931,-135.729 121.262,-129.128"/>
</g>
<!-- Node9 -->
<g id="node9" class="node"><title>Node9</title>
<g id="a_node9"><a xlink:href="../../d7/d40/classcontroller_1_1_w_s_undo_manager.html#afc81c41b9d95a8ebd556ea5d5c709d05" target="_top" xlink:title="controller.WSUndoManager.redo">
<polygon fill="white" stroke="black" points="172,-38.5 172,-57.5 342,-57.5 342,-38.5 172,-38.5"/>
<text text-anchor="middle" x="257" y="-45.5" font-family="Helvetica,sans-Serif" font-size="10.00">controller.WSUndoManager.redo</text>
</a>
</g>
</g>
<!-- Node1&#45;&gt;Node9 -->
<g id="edge11" class="edge"><title>Node1&#45;&gt;Node9</title>
<path fill="none" stroke="midnightblue" d="M105.519,-94.3626C124.459,-85.0602 148.026,-74.3946 170,-67 180.869,-63.3424 192.751,-60.1971 204.119,-57.578"/>
<polygon fill="midnightblue" stroke="midnightblue" points="103.732,-91.3426 96.3459,-98.9384 106.857,-97.6066 103.732,-91.3426"/>
</g>
<!-- Node11 -->
<g id="node11" class="node"><title>Node11</title>
<g id="a_node11"><a xlink:href="../../d7/d40/classcontroller_1_1_w_s_undo_manager.html#aea6c6bd525f338f036c8daa4f0ca3225" target="_top" xlink:title="controller.WSUndoManager.undo">
<polygon fill="white" stroke="black" points="170.5,-0.5 170.5,-19.5 343.5,-19.5 343.5,-0.5 170.5,-0.5"/>
<text text-anchor="middle" x="257" y="-7.5" font-family="Helvetica,sans-Serif" font-size="10.00">controller.WSUndoManager.undo</text>
</a>
</g>
</g>
<!-- Node1&#45;&gt;Node11 -->
<g id="edge14" class="edge"><title>Node1&#45;&gt;Node11</title>
<path fill="none" stroke="midnightblue" d="M88.6426,-91.5689C107.846,-72.0789 138.211,-44.5953 170,-29 177.962,-25.0939 186.731,-21.9825 195.532,-19.5062"/>
<polygon fill="midnightblue" stroke="midnightblue" points="86.0316,-89.2343 81.6078,-98.8613 91.0696,-94.0942 86.0316,-89.2343"/>
</g>
<!-- Node3 -->
<g id="node3" class="node"><title>Node3</title>
<g id="a_node3"><a xlink:href="../../d9/df7/classcontroller_1_1_controller.html#aa81e4dbd87e3f8b9a1c43acb096304dd" target="_top" xlink:title="controller.Controller.create\lCommandMenu">
<polygon fill="white" stroke="black" points="380.5,-165 380.5,-195 523.5,-195 523.5,-165 380.5,-165"/>
<text text-anchor="start" x="388.5" y="-183" font-family="Helvetica,sans-Serif" font-size="10.00">controller.Controller.create</text>
<text text-anchor="middle" x="452" y="-172" font-family="Helvetica,sans-Serif" font-size="10.00">CommandMenu</text>
</a>
</g>
</g>
<!-- Node2&#45;&gt;Node3 -->
<g id="edge2" class="edge"><title>Node2&#45;&gt;Node3</title>
<path fill="none" stroke="midnightblue" d="M327.125,-211.45C348.319,-206.069 371.433,-200.201 391.894,-195.006"/>
<polygon fill="midnightblue" stroke="midnightblue" points="326.049,-208.112 317.218,-213.965 327.772,-214.897 326.049,-208.112"/>
</g>
<!-- Node4 -->
<g id="node4" class="node"><title>Node4</title>
<g id="a_node4"><a xlink:href="../../d9/df7/classcontroller_1_1_controller.html#a2901bf43bb8e47b485558dbf00d40d6d" target="_top" xlink:title="controller.Controller.create\lJMenuBar">
<polygon fill="white" stroke="black" points="560.5,-99 560.5,-129 703.5,-129 703.5,-99 560.5,-99"/>
<text text-anchor="start" x="568.5" y="-117" font-family="Helvetica,sans-Serif" font-size="10.00">controller.Controller.create</text>
<text text-anchor="middle" x="632" y="-106" font-family="Helvetica,sans-Serif" font-size="10.00">JMenuBar</text>
</a>
</g>
</g>
<!-- Node3&#45;&gt;Node4 -->
<g id="edge3" class="edge"><title>Node3&#45;&gt;Node4</title>
<path fill="none" stroke="midnightblue" d="M503.297,-161.351C530.83,-151.142 564.5,-138.657 590.353,-129.071"/>
<polygon fill="midnightblue" stroke="midnightblue" points="501.996,-158.1 493.837,-164.858 504.43,-164.663 501.996,-158.1"/>
</g>
<!-- Node5 -->
<g id="node5" class="node"><title>Node5</title>
<g id="a_node5"><a xlink:href="../../d9/df7/classcontroller_1_1_controller.html#a47511ec57338c8e75e71e9314cda5271" target="_top" xlink:title="controller.Controller.Controller">
<polygon fill="white" stroke="black" points="740.5,-104.5 740.5,-123.5 899.5,-123.5 899.5,-104.5 740.5,-104.5"/>
<text text-anchor="middle" x="820" y="-111.5" font-family="Helvetica,sans-Serif" font-size="10.00">controller.Controller.Controller</text>
</a>
</g>
</g>
<!-- Node4&#45;&gt;Node5 -->
<g id="edge4" class="edge"><title>Node4&#45;&gt;Node5</title>
<path fill="none" stroke="midnightblue" d="M713.836,-114C722.644,-114 731.599,-114 740.38,-114"/>
<polygon fill="midnightblue" stroke="midnightblue" points="713.584,-110.5 703.584,-114 713.584,-117.5 713.584,-110.5"/>
</g>
<!-- Node6&#45;&gt;Node4 -->
<g id="edge6" class="edge"><title>Node6&#45;&gt;Node4</title>
<path fill="none" stroke="midnightblue" d="M533.646,-114C542.599,-114 551.666,-114 560.479,-114"/>
<polygon fill="midnightblue" stroke="midnightblue" points="533.606,-110.5 523.606,-114 533.606,-117.5 533.606,-110.5"/>
</g>
<!-- Node7&#45;&gt;Node6 -->
<g id="edge8" class="edge"><title>Node7&#45;&gt;Node6</title>
<path fill="none" stroke="midnightblue" d="M338.715,-101.201C352.504,-102.772 366.734,-104.395 380.238,-105.934"/>
<polygon fill="midnightblue" stroke="midnightblue" points="339.102,-97.7222 328.77,-100.067 338.309,-104.677 339.102,-97.7222"/>
</g>
<!-- Node8&#45;&gt;Node3 -->
<g id="edge10" class="edge"><title>Node8&#45;&gt;Node3</title>
<path fill="none" stroke="midnightblue" d="M339.117,-180C352.78,-180 366.865,-180 380.238,-180"/>
<polygon fill="midnightblue" stroke="midnightblue" points="338.77,-176.5 328.77,-180 338.77,-183.5 338.77,-176.5"/>
</g>
<!-- Node10 -->
<g id="node10" class="node"><title>Node10</title>
<g id="a_node10"><a xlink:href="../../d9/df7/classcontroller_1_1_controller.html#a028264f3c286e8e1a2d897dda5ff0b53" target="_top" xlink:title="controller.Controller.create\lEditMenu">
<polygon fill="white" stroke="black" points="380.5,-33 380.5,-63 523.5,-63 523.5,-33 380.5,-33"/>
<text text-anchor="start" x="388.5" y="-51" font-family="Helvetica,sans-Serif" font-size="10.00">controller.Controller.create</text>
<text text-anchor="middle" x="452" y="-40" font-family="Helvetica,sans-Serif" font-size="10.00">EditMenu</text>
</a>
</g>
</g>
<!-- Node9&#45;&gt;Node10 -->
<g id="edge12" class="edge"><title>Node9&#45;&gt;Node10</title>
<path fill="none" stroke="midnightblue" d="M352.336,-48C361.803,-48 371.298,-48 380.456,-48"/>
<polygon fill="midnightblue" stroke="midnightblue" points="352.091,-44.5001 342.091,-48 352.091,-51.5001 352.091,-44.5001"/>
</g>
<!-- Node10&#45;&gt;Node4 -->
<g id="edge13" class="edge"><title>Node10&#45;&gt;Node4</title>
<path fill="none" stroke="midnightblue" d="M503.297,-66.6493C530.83,-76.8582 564.5,-89.3426 590.353,-98.9287"/>
<polygon fill="midnightblue" stroke="midnightblue" points="504.43,-63.3367 493.837,-63.1417 501.996,-69.9001 504.43,-63.3367"/>
</g>
<!-- Node11&#45;&gt;Node10 -->
<g id="edge15" class="edge"><title>Node11&#45;&gt;Node10</title>
<path fill="none" stroke="midnightblue" d="M316.651,-21.5479C336.762,-25.5076 359.48,-29.9805 380.435,-34.1064"/>
<polygon fill="midnightblue" stroke="midnightblue" points="317.19,-18.0868 306.702,-19.589 315.838,-24.955 317.19,-18.0868"/>
</g>
</g>
</svg>
        <g id="navigator" transform="translate(0 0)" fill="#404254">
                <rect fill="#f2f5e9" fill-opacity="0.5" stroke="#606060" stroke-width=".5" x="0" y="0" width="60" height="60"/>
                <use id="zoomplus" xlink:href="#zoomPlus" x="17" y="9" onmousedown="handleZoom(evt,'in')"/>
                <use id="zoomminus" xlink:href="#zoomMin" x="42" y="9" onmousedown="handleZoom(evt,'out')"/>
                <use id="reset" xlink:href="#resetDef" x="30" y="36" onmousedown="handleReset()"/>
                <g id="arrowUp" xlink:href="#dirArrow" transform="translate(30 24)" onmousedown="handlePan(0,-1)">
                  <use xlink:href="#rim" fill="#404040">
                        <set attributeName="fill" to="#808080" begin="arrowUp.mouseover" end="arrowUp.mouseout"/>
                  </use>
                  <path fill="none" stroke="white" stroke-width="1.5" d="M0,-3.0v7 M-2.5,-0.5L0,-3.0L2.5,-0.5"/>
                </g>
                <g id="arrowRight" xlink:href="#dirArrow" transform="rotate(90) translate(36 -43)" onmousedown="handlePan(1,0)">
                  <use xlink:href="#rim" fill="#404040">
                        <set attributeName="fill" to="#808080" begin="arrowRight.mouseover" end="arrowRight.mouseout"/>
                  </use>
                  <path fill="none" stroke="white" stroke-width="1.5" d="M0,-3.0v7 M-2.5,-0.5L0,-3.0L2.5,-0.5"/>
                </g>
                <g id="arrowDown" xlink:href="#dirArrow" transform="rotate(180) translate(-30 -48)" onmousedown="handlePan(0,1)">
                  <use xlink:href="#rim" fill="#404040">
                        <set attributeName="fill" to="#808080" begin="arrowDown.mouseover" end="arrowDown.mouseout"/>
                  </use>
                  <path fill="none" stroke="white" stroke-width="1.5" d="M0,-3.0v7 M-2.5,-0.5L0,-3.0L2.5,-0.5"/>
                </g>
                <g id="arrowLeft" xlink:href="#dirArrow" transform="rotate(270) translate(-36 17)" onmousedown="handlePan(-1,0)">
                  <use xlink:href="#rim" fill="#404040">
                        <set attributeName="fill" to="#808080" begin="arrowLeft.mouseover" end="arrowLeft.mouseout"/>
                  </use>
                  <path fill="none" stroke="white" stroke-width="1.5" d="M0,-3.0v7 M-2.5,-0.5L0,-3.0L2.5,-0.5"/>
                </g>
        </g>
        <svg viewBox="0 0 15 15" width="100%" height="30px" preserveAspectRatio="xMaxYMin meet">
         <g id="arrow_out" transform="scale(0.3 0.3)">
          <a xlink:href="classcontroller_1_1_workspace_a463927ff3ea61d412cbee3a3b0b9d74f_icgraph_org.svg" target="_base">
           <rect id="button" ry="5" rx="5" y="6" x="6" height="38" width="38"
                fill="#f2f5e9" fill-opacity="0.5" stroke="#606060" stroke-width="1.0"/>
           <path id="arrow"
             d="M 11.500037,31.436501 C 11.940474,20.09759 22.043105,11.32322 32.158766,21.979434 L 37.068811,17.246167 C 37.068811,17.246167 37.088388,32 37.088388,32 L 22.160133,31.978069 C 22.160133,31.978069 26.997745,27.140456 26.997745,27.140456 C 18.528582,18.264221 13.291696,25.230495 11.500037,31.436501 z"
             style="fill:#404040;"/>
          </a>
         </g>
        </svg>
</svg>
