<?xml version="1.0" encoding="UTF-8" standalone="no"?>
<!DOCTYPE svg PUBLIC "-//W3C//DTD SVG 1.1//EN"
 "http://www.w3.org/Graphics/SVG/1.1/DTD/svg11.dtd">
<!-- Generated by graphviz version 2.36.0 (20140111.2315)
 -->
<!-- Title: controller.Workspace.showError Pages: 1 -->
<!--zoomable 331 -->
<svg id="main" version="1.1" xmlns="http://www.w3.org/2000/svg" xmlns:xlink="http://www.w3.org/1999/xlink" xml:space="preserve" onload="init(evt)">
<style type="text/css"><![CDATA[
.edge:hover path { stroke: red; }
.edge:hover polygon { stroke: red; fill: red; }
]]></style>
<script type="text/javascript"><![CDATA[
var edges = document.getElementsByTagName('g');
if (edges && edges.length) {
  for (var i=0;i<edges.length;i++) {
    if (edges[i].id.substr(0,4)=='edge') {
      edges[i].setAttribute('class','edge');
    }
  }
}
]]></script>
        <defs>
                <circle id="rim" cx="0" cy="0" r="7"/>
                <circle id="rim2" cx="0" cy="0" r="3.5"/>
                <g id="zoomPlus">
                        <use xlink:href="#rim" fill="#404040">
                                <set attributeName="fill" to="#808080" begin="zoomplus.mouseover" end="zoomplus.mouseout"/>
                        </use>
                        <path d="M-4,0h8M0,-4v8" fill="none" stroke="white" stroke-width="1.5" pointer-events="none"/>
                </g>
                <g id="zoomMin">
                        <use xlink:href="#rim" fill="#404040">
                                <set attributeName="fill" to="#808080" begin="zoomminus.mouseover" end="zoomminus.mouseout"/>
                        </use>
                        <path d="M-4,0h8" fill="none" stroke="white" stroke-width="1.5" pointer-events="none"/>
                </g>
                <g id="dirArrow">
                        <path fill="none" stroke="white" stroke-width="1.5" d="M0,-3.0v7 M-2.5,-0.5L0,-3.0L2.5,-0.5"/>
                </g>
               <g id="resetDef">
                       <use xlink:href="#rim2" fill="#404040">
                               <set attributeName="fill" to="#808080" begin="reset.mouseover" end="reset.mouseout"/>
                       </use>
               </g>
        </defs>

<script type="text/javascript">
var viewWidth = 1512;
var viewHeight = 331;
var sectionId = 'dynsection-36';
</script>
<script xlink:href="../../svgpan.js"/>
<svg id="graph" class="graph">
<g id="viewport">
<title>controller.Workspace.showError</title>
<polygon fill="white" stroke="none" points="-4,4 -4,-327.454 1508,-327.454 1508,4 -4,4"/>
<!-- Node1 -->
<g id="node1" class="node"><title>Node1</title>
<polygon fill="#bfbfbf" stroke="black" points="0,-170 0,-200 142,-200 142,-170 0,-170"/>
<text text-anchor="start" x="8" y="-188" font-family="Helvetica,sans-Serif" font-size="10.00">controller.Workspace.show</text>
<text text-anchor="middle" x="71" y="-177" font-family="Helvetica,sans-Serif" font-size="10.00">Error</text>
</g>
<!-- Node2 -->
<g id="node2" class="node"><title>Node2</title>
<g id="a_node2"><a xlink:href="../../d9/df7/classcontroller_1_1_controller.html#a028264f3c286e8e1a2d897dda5ff0b53" target="_top" xlink:title="controller.Controller.create\lEditMenu">
<polygon fill="white" stroke="black" points="804.5,-109 804.5,-139 947.5,-139 947.5,-109 804.5,-109"/>
<text text-anchor="start" x="812.5" y="-127" font-family="Helvetica,sans-Serif" font-size="10.00">controller.Controller.create</text>
<text text-anchor="middle" x="876" y="-116" font-family="Helvetica,sans-Serif" font-size="10.00">EditMenu</text>
</a>
</g>
</g>
<!-- Node1&#45;&gt;Node2 -->
<g id="edge1" class="edge"><title>Node1&#45;&gt;Node2</title>
<path fill="none" stroke="midnightblue" d="M137.285,-167.661C150.669,-164.655 164.725,-161.893 178,-160 297.356,-142.984 652.322,-130.669 804.476,-126.029"/>
<polygon fill="midnightblue" stroke="midnightblue" points="136.157,-164.329 127.205,-169.996 137.737,-171.149 136.157,-164.329"/>
</g>
<!-- Node5 -->
<g id="node5" class="node"><title>Node5</title>
<g id="a_node5"><a xlink:href="../../d9/df7/classcontroller_1_1_controller.html#aa46804b9ca132af8504b5dafb1cadb0d" target="_top" xlink:title="controller.Controller.create\lFileCommands">
<polygon fill="white" stroke="black" points="804.5,-263 804.5,-293 947.5,-293 947.5,-263 804.5,-263"/>
<text text-anchor="start" x="812.5" y="-281" font-family="Helvetica,sans-Serif" font-size="10.00">controller.Controller.create</text>
<text text-anchor="middle" x="876" y="-270" font-family="Helvetica,sans-Serif" font-size="10.00">FileCommands</text>
</a>
</g>
</g>
<!-- Node1&#45;&gt;Node5 -->
<g id="edge4" class="edge"><title>Node1&#45;&gt;Node5</title>
<path fill="none" stroke="midnightblue" d="M92.2167,-207.512C111.909,-227.763 143.806,-256.362 178,-270 393.394,-355.91 676.861,-317.689 805.804,-293.034"/>
<polygon fill="midnightblue" stroke="midnightblue" points="94.7092,-205.054 85.2875,-200.208 89.6309,-209.872 94.7092,-205.054"/>
</g>
<!-- Node7 -->
<g id="node7" class="node"><title>Node7</title>
<g id="a_node7"><a xlink:href="../../d9/df7/classcontroller_1_1_controller.html#ad4ea3ddba3a6da5e7d84dfcea4af939b" target="_top" xlink:title="controller.Controller.create\lHelpMenu">
<polygon fill="white" stroke="black" points="804.5,-214 804.5,-244 947.5,-244 947.5,-214 804.5,-214"/>
<text text-anchor="start" x="812.5" y="-232" font-family="Helvetica,sans-Serif" font-size="10.00">controller.Controller.create</text>
<text text-anchor="middle" x="876" y="-221" font-family="Helvetica,sans-Serif" font-size="10.00">HelpMenu</text>
</a>
</g>
</g>
<!-- Node1&#45;&gt;Node7 -->
<g id="edge7" class="edge"><title>Node1&#45;&gt;Node7</title>
<path fill="none" stroke="midnightblue" d="M138.639,-202.154C151.614,-204.906 165.171,-207.379 178,-209 405.593,-237.754 678.161,-234.898 804.411,-231.473"/>
<polygon fill="midnightblue" stroke="midnightblue" points="139.37,-198.731 128.852,-200.004 137.868,-205.568 139.37,-198.731"/>
</g>
<!-- Node8 -->
<g id="node8" class="node"><title>Node8</title>
<g id="a_node8"><a xlink:href="../../d9/df7/classcontroller_1_1_controller.html#ac03add001882f876041934dfe435b43f" target="_top" xlink:title="controller.Controller.create\lSettingMenu">
<polygon fill="white" stroke="black" points="184.5,-170 184.5,-200 327.5,-200 327.5,-170 184.5,-170"/>
<text text-anchor="start" x="192.5" y="-188" font-family="Helvetica,sans-Serif" font-size="10.00">controller.Controller.create</text>
<text text-anchor="middle" x="256" y="-177" font-family="Helvetica,sans-Serif" font-size="10.00">SettingMenu</text>
</a>
</g>
</g>
<!-- Node1&#45;&gt;Node8 -->
<g id="edge9" class="edge"><title>Node1&#45;&gt;Node8</title>
<path fill="none" stroke="midnightblue" d="M152.363,-185C163.019,-185 173.879,-185 184.354,-185"/>
<polygon fill="midnightblue" stroke="midnightblue" points="152.229,-181.5 142.229,-185 152.229,-188.5 152.229,-181.5"/>
</g>
<!-- Node9 -->
<g id="node9" class="node"><title>Node9</title>
<g id="a_node9"><a xlink:href="../../de/d84/classcontroller_1_1_workspace.html#a6e2c1aeab69fcad61e9a29cbf4c189cc" target="_top" xlink:title="controller.Workspace.execute">
<polygon fill="white" stroke="black" points="178,-93.5 178,-112.5 334,-112.5 334,-93.5 178,-93.5"/>
<text text-anchor="middle" x="256" y="-100.5" font-family="Helvetica,sans-Serif" font-size="10.00">controller.Workspace.execute</text>
</a>
</g>
</g>
<!-- Node1&#45;&gt;Node9 -->
<g id="edge11" class="edge"><title>Node1&#45;&gt;Node9</title>
<path fill="none" stroke="midnightblue" d="M104.793,-164.846C125.318,-152.795 152.6,-137.781 178,-127 191.147,-121.42 206.042,-116.476 219.204,-112.548"/>
<polygon fill="midnightblue" stroke="midnightblue" points="102.963,-161.862 96.1529,-169.978 106.538,-167.881 102.963,-161.862"/>
</g>
<!-- Node12 -->
<g id="node12" class="node"><title>Node12</title>
<g id="a_node12"><a xlink:href="../../d9/df7/classcontroller_1_1_controller.html#a89b63f37e67efbeddda1f247016c837b" target="_top" xlink:title="controller.Controller.process\lCommand">
<polygon fill="white" stroke="black" points="389,-0 389,-30 539,-30 539,-0 389,-0"/>
<text text-anchor="start" x="397" y="-18" font-family="Helvetica,sans-Serif" font-size="10.00">controller.Controller.process</text>
<text text-anchor="middle" x="464" y="-7" font-family="Helvetica,sans-Serif" font-size="10.00">Command</text>
</a>
</g>
</g>
<!-- Node1&#45;&gt;Node12 -->
<g id="edge23" class="edge"><title>Node1&#45;&gt;Node12</title>
<path fill="none" stroke="midnightblue" d="M90.0426,-161.781C109.328,-138.582 142.028,-103.623 178,-84 244.143,-47.918 329.063,-30.4941 388.943,-22.2144"/>
<polygon fill="midnightblue" stroke="midnightblue" points="87.1587,-159.78 83.5632,-169.746 92.5889,-164.197 87.1587,-159.78"/>
</g>
<!-- Node14 -->
<g id="node14" class="node"><title>Node14</title>
<g id="a_node14"><a xlink:href="../../d9/df7/classcontroller_1_1_controller.html#aec5e242ff69899c974dbd6302510f70b" target="_top" xlink:title="controller.Controller.processFile">
<polygon fill="white" stroke="black" points="381.5,-257.5 381.5,-276.5 546.5,-276.5 546.5,-257.5 381.5,-257.5"/>
<text text-anchor="middle" x="464" y="-264.5" font-family="Helvetica,sans-Serif" font-size="10.00">controller.Controller.processFile</text>
</a>
</g>
</g>
<!-- Node1&#45;&gt;Node14 -->
<g id="edge24" class="edge"><title>Node1&#45;&gt;Node14</title>
<path fill="none" stroke="midnightblue" d="M101.687,-205.646C122.156,-218.745 150.528,-234.732 178,-243 244.567,-263.034 323.562,-268.334 381.483,-269.023"/>
<polygon fill="midnightblue" stroke="midnightblue" points="103.431,-202.604 93.1471,-200.055 99.5963,-208.461 103.431,-202.604"/>
</g>
<!-- Node3 -->
<g id="node3" class="node"><title>Node3</title>
<g id="a_node3"><a xlink:href="../../d9/df7/classcontroller_1_1_controller.html#a2901bf43bb8e47b485558dbf00d40d6d" target="_top" xlink:title="controller.Controller.create\lJMenuBar">
<polygon fill="white" stroke="black" points="1164.5,-170 1164.5,-200 1307.5,-200 1307.5,-170 1164.5,-170"/>
<text text-anchor="start" x="1172.5" y="-188" font-family="Helvetica,sans-Serif" font-size="10.00">controller.Controller.create</text>
<text text-anchor="middle" x="1236" y="-177" font-family="Helvetica,sans-Serif" font-size="10.00">JMenuBar</text>
</a>
</g>
</g>
<!-- Node2&#45;&gt;Node3 -->
<g id="edge2" class="edge"><title>Node2&#45;&gt;Node3</title>
<path fill="none" stroke="midnightblue" d="M957.887,-137.782C1020.03,-148.371 1105.01,-162.85 1164.42,-172.973"/>
<polygon fill="midnightblue" stroke="midnightblue" points="958.175,-134.281 947.729,-136.052 956.999,-141.182 958.175,-134.281"/>
</g>
<!-- Node4 -->
<g id="node4" class="node"><title>Node4</title>
<g id="a_node4"><a xlink:href="../../d9/df7/classcontroller_1_1_controller.html#a47511ec57338c8e75e71e9314cda5271" target="_top" xlink:title="controller.Controller.Controller">
<polygon fill="white" stroke="black" points="1344.5,-131.5 1344.5,-150.5 1503.5,-150.5 1503.5,-131.5 1344.5,-131.5"/>
<text text-anchor="middle" x="1424" y="-138.5" font-family="Helvetica,sans-Serif" font-size="10.00">controller.Controller.Controller</text>
</a>
</g>
</g>
<!-- Node3&#45;&gt;Node4 -->
<g id="edge3" class="edge"><title>Node3&#45;&gt;Node4</title>
<path fill="none" stroke="midnightblue" d="M1310.54,-167.604C1335.16,-161.779 1361.69,-155.505 1382.79,-150.512"/>
<polygon fill="midnightblue" stroke="midnightblue" points="1309.42,-164.273 1300.49,-169.981 1311.03,-171.085 1309.42,-164.273"/>
</g>
<!-- Node6 -->
<g id="node6" class="node"><title>Node6</title>
<g id="a_node6"><a xlink:href="../../d9/df7/classcontroller_1_1_controller.html#af4c05286f1534b1fa6de523c54549288" target="_top" xlink:title="controller.Controller.create\lFileMenu">
<polygon fill="white" stroke="black" points="984.5,-259 984.5,-289 1127.5,-289 1127.5,-259 984.5,-259"/>
<text text-anchor="start" x="992.5" y="-277" font-family="Helvetica,sans-Serif" font-size="10.00">controller.Controller.create</text>
<text text-anchor="middle" x="1056" y="-266" font-family="Helvetica,sans-Serif" font-size="10.00">FileMenu</text>
</a>
</g>
</g>
<!-- Node5&#45;&gt;Node6 -->
<g id="edge5" class="edge"><title>Node5&#45;&gt;Node6</title>
<path fill="none" stroke="midnightblue" d="M957.646,-276.188C966.599,-275.987 975.666,-275.783 984.479,-275.585"/>
<polygon fill="midnightblue" stroke="midnightblue" points="957.525,-272.689 947.606,-276.413 957.682,-279.688 957.525,-272.689"/>
</g>
<!-- Node6&#45;&gt;Node3 -->
<g id="edge6" class="edge"><title>Node6&#45;&gt;Node3</title>
<path fill="none" stroke="midnightblue" d="M1098.09,-254.565C1107.91,-249.851 1118.35,-244.789 1128,-240 1154.57,-226.814 1184.58,-211.334 1206.05,-200.162"/>
<polygon fill="midnightblue" stroke="midnightblue" points="1096.41,-251.487 1088.9,-258.958 1099.43,-257.802 1096.41,-251.487"/>
</g>
<!-- Node7&#45;&gt;Node3 -->
<g id="edge8" class="edge"><title>Node7&#45;&gt;Node3</title>
<path fill="none" stroke="midnightblue" d="M957.577,-219.601C1006.82,-213.799 1071.07,-206.127 1128,-199 1139.71,-197.534 1152.14,-195.942 1164.22,-194.374"/>
<polygon fill="midnightblue" stroke="midnightblue" points="957.143,-216.127 947.62,-220.772 957.961,-223.079 957.143,-216.127"/>
</g>
<!-- Node8&#45;&gt;Node3 -->
<g id="edge10" class="edge"><title>Node8&#45;&gt;Node3</title>
<path fill="none" stroke="midnightblue" d="M337.843,-185C422.972,-185 560.915,-185 680,-185 680,-185 680,-185 877,-185 976.755,-185 1092.15,-185 1164.36,-185"/>
<polygon fill="midnightblue" stroke="midnightblue" points="337.728,-181.5 327.728,-185 337.728,-188.5 337.728,-181.5"/>
</g>
<!-- Node10 -->
<g id="node10" class="node"><title>Node10</title>
<g id="a_node10"><a xlink:href="../../d7/d40/classcontroller_1_1_w_s_undo_manager.html#a57ad787d609f63c566419fa409dd6fee" target="_top" xlink:title="controller.WSUndoManager.execute\lHistory">
<polygon fill="white" stroke="black" points="370.5,-88 370.5,-118 557.5,-118 557.5,-88 370.5,-88"/>
<text text-anchor="start" x="378.5" y="-106" font-family="Helvetica,sans-Serif" font-size="10.00">controller.WSUndoManager.execute</text>
<text text-anchor="middle" x="464" y="-95" font-family="Helvetica,sans-Serif" font-size="10.00">History</text>
</a>
</g>
</g>
<!-- Node9&#45;&gt;Node10 -->
<g id="edge12" class="edge"><title>Node9&#45;&gt;Node10</title>
<path fill="none" stroke="midnightblue" d="M344.313,-103C352.92,-103 361.677,-103 370.335,-103"/>
<polygon fill="midnightblue" stroke="midnightblue" points="344.293,-99.5001 334.293,-103 344.293,-106.5 344.293,-99.5001"/>
</g>
<!-- Node9&#45;&gt;Node12 -->
<g id="edge15" class="edge"><title>Node9&#45;&gt;Node12</title>
<path fill="none" stroke="midnightblue" d="M282.355,-88.4798C304.895,-75.9391 338.988,-57.8611 370,-45 383.164,-39.5409 397.702,-34.4343 411.295,-30.0367"/>
<polygon fill="midnightblue" stroke="midnightblue" points="280.45,-85.5354 273.445,-93.484 283.878,-91.6387 280.45,-85.5354"/>
</g>
<!-- Node9&#45;&gt;Node14 -->
<g id="edge18" class="edge"><title>Node9&#45;&gt;Node14</title>
<path fill="none" stroke="midnightblue" d="M278.947,-118.752C294.485,-130.024 315.726,-145.675 334,-160 378.426,-194.825 429.601,-238.316 451.783,-257.34"/>
<polygon fill="midnightblue" stroke="midnightblue" points="280.678,-115.684 270.522,-112.664 276.578,-121.358 280.678,-115.684"/>
</g>
<!-- Node16 -->
<g id="node16" class="node"><title>Node16</title>
<g id="a_node16"><a xlink:href="../../d7/d40/classcontroller_1_1_w_s_undo_manager.html#afc81c41b9d95a8ebd556ea5d5c709d05" target="_top" xlink:title="controller.WSUndoManager.redo">
<polygon fill="white" stroke="black" points="596,-55.5 596,-74.5 766,-74.5 766,-55.5 596,-55.5"/>
<text text-anchor="middle" x="681" y="-62.5" font-family="Helvetica,sans-Serif" font-size="10.00">controller.WSUndoManager.redo</text>
</a>
</g>
</g>
<!-- Node9&#45;&gt;Node16 -->
<g id="edge21" class="edge"><title>Node9&#45;&gt;Node16</title>
<path fill="none" stroke="midnightblue" d="M302.588,-90.9982C323.052,-86.108 347.587,-80.9261 370,-78 445.981,-68.0803 533.238,-65.1707 595.78,-64.5436"/>
<polygon fill="midnightblue" stroke="midnightblue" points="301.477,-87.6664 292.594,-93.4395 303.139,-94.4665 301.477,-87.6664"/>
</g>
<!-- Node11 -->
<g id="node11" class="node"><title>Node11</title>
<g id="a_node11"><a xlink:href="../../d7/d40/classcontroller_1_1_w_s_undo_manager.html#aea6c6bd525f338f036c8daa4f0ca3225" target="_top" xlink:title="controller.WSUndoManager.undo">
<polygon fill="white" stroke="black" points="594.5,-97.5 594.5,-116.5 767.5,-116.5 767.5,-97.5 594.5,-97.5"/>
<text text-anchor="middle" x="681" y="-104.5" font-family="Helvetica,sans-Serif" font-size="10.00">controller.WSUndoManager.undo</text>
</a>
</g>
</g>
<!-- Node10&#45;&gt;Node11 -->
<g id="edge13" class="edge"><title>Node10&#45;&gt;Node11</title>
<path fill="none" stroke="midnightblue" d="M567.759,-104.912C576.662,-105.077 585.609,-105.244 594.354,-105.407"/>
<polygon fill="midnightblue" stroke="midnightblue" points="567.803,-101.412 557.739,-104.725 567.672,-108.411 567.803,-101.412"/>
</g>
<!-- Node11&#45;&gt;Node2 -->
<g id="edge14" class="edge"><title>Node11&#45;&gt;Node2</title>
<path fill="none" stroke="midnightblue" d="M777.805,-115.439C786.705,-116.223 795.612,-117.007 804.224,-117.766"/>
<polygon fill="midnightblue" stroke="midnightblue" points="778.045,-111.946 767.777,-114.555 777.431,-118.919 778.045,-111.946"/>
</g>
<!-- Node13 -->
<g id="node13" class="node"><title>Node13</title>
<g id="a_node13"><a xlink:href="../../d9/df7/classcontroller_1_1_controller.html#a2bfb87bca460d87b2c97e0b5045a2175" target="_top" xlink:title="controller.Controller.create\lRunCommandListener">
<polygon fill="white" stroke="black" points="984.5,-40 984.5,-70 1127.5,-70 1127.5,-40 984.5,-40"/>
<text text-anchor="start" x="992.5" y="-58" font-family="Helvetica,sans-Serif" font-size="10.00">controller.Controller.create</text>
<text text-anchor="middle" x="1056" y="-47" font-family="Helvetica,sans-Serif" font-size="10.00">RunCommandListener</text>
</a>
</g>
</g>
<!-- Node12&#45;&gt;Node13 -->
<g id="edge16" class="edge"><title>Node12&#45;&gt;Node13</title>
<path fill="none" stroke="midnightblue" d="M549.453,-20.7257C666.346,-28.6506 875.343,-42.8198 984.393,-50.2131"/>
<polygon fill="midnightblue" stroke="midnightblue" points="549.34,-17.21 539.127,-20.0255 548.867,-24.194 549.34,-17.21"/>
</g>
<!-- Node13&#45;&gt;Node4 -->
<g id="edge17" class="edge"><title>Node13&#45;&gt;Node4</title>
<path fill="none" stroke="midnightblue" d="M1131.14,-72.4202C1206.95,-90.2336 1321.92,-117.249 1382.45,-131.472"/>
<polygon fill="midnightblue" stroke="midnightblue" points="1131.71,-68.9588 1121.17,-70.0785 1130.11,-75.7732 1131.71,-68.9588"/>
</g>
<!-- Node15 -->
<g id="node15" class="node"><title>Node15</title>
<g id="a_node15"><a xlink:href="../../d9/df7/classcontroller_1_1_controller.html#a37c3009658f66dc4de0be01b75adf660" target="_top" xlink:title="controller.Controller.load\lWorkspace">
<polygon fill="white" stroke="black" points="614.5,-258 614.5,-288 747.5,-288 747.5,-258 614.5,-258"/>
<text text-anchor="start" x="622.5" y="-276" font-family="Helvetica,sans-Serif" font-size="10.00">controller.Controller.load</text>
<text text-anchor="middle" x="681" y="-265" font-family="Helvetica,sans-Serif" font-size="10.00">Workspace</text>
</a>
</g>
</g>
<!-- Node14&#45;&gt;Node15 -->
<g id="edge19" class="edge"><title>Node14&#45;&gt;Node15</title>
<path fill="none" stroke="midnightblue" d="M556.625,-269.557C575.966,-270.097 596.008,-270.656 614.171,-271.163"/>
<polygon fill="midnightblue" stroke="midnightblue" points="556.683,-266.057 546.589,-269.277 556.487,-273.055 556.683,-266.057"/>
</g>
<!-- Node15&#45;&gt;Node5 -->
<g id="edge20" class="edge"><title>Node15&#45;&gt;Node5</title>
<path fill="none" stroke="midnightblue" d="M758.03,-274.97C773.273,-275.365 789.231,-275.778 804.286,-276.168"/>
<polygon fill="midnightblue" stroke="midnightblue" points="757.698,-271.46 747.61,-274.7 757.516,-278.458 757.698,-271.46"/>
</g>
<!-- Node16&#45;&gt;Node2 -->
<g id="edge22" class="edge"><title>Node16&#45;&gt;Node2</title>
<path fill="none" stroke="midnightblue" d="M729.628,-77.1624C742.155,-80.5183 755.624,-84.2671 768,-88 789.298,-94.4238 812.743,-102.228 832.245,-108.926"/>
<polygon fill="midnightblue" stroke="midnightblue" points="730.385,-73.7424 719.822,-74.5631 728.591,-80.5087 730.385,-73.7424"/>
</g>
</g>
</svg>
        <g id="navigator" transform="translate(0 0)" fill="#404254">
                <rect fill="#f2f5e9" fill-opacity="0.5" stroke="#606060" stroke-width=".5" x="0" y="0" width="60" height="60"/>
                <use id="zoomplus" xlink:href="#zoomPlus" x="17" y="9" onmousedown="handleZoom(evt,'in')"/>
                <use id="zoomminus" xlink:href="#zoomMin" x="42" y="9" onmousedown="handleZoom(evt,'out')"/>
                <use id="reset" xlink:href="#resetDef" x="30" y="36" onmousedown="handleReset()"/>
                <g id="arrowUp" xlink:href="#dirArrow" transform="translate(30 24)" onmousedown="handlePan(0,-1)">
                  <use xlink:href="#rim" fill="#404040">
                        <set attributeName="fill" to="#808080" begin="arrowUp.mouseover" end="arrowUp.mouseout"/>
                  </use>
                  <path fill="none" stroke="white" stroke-width="1.5" d="M0,-3.0v7 M-2.5,-0.5L0,-3.0L2.5,-0.5"/>
                </g>
                <g id="arrowRight" xlink:href="#dirArrow" transform="rotate(90) translate(36 -43)" onmousedown="handlePan(1,0)">
                  <use xlink:href="#rim" fill="#404040">
                        <set attributeName="fill" to="#808080" begin="arrowRight.mouseover" end="arrowRight.mouseout"/>
                  </use>
                  <path fill="none" stroke="white" stroke-width="1.5" d="M0,-3.0v7 M-2.5,-0.5L0,-3.0L2.5,-0.5"/>
                </g>
                <g id="arrowDown" xlink:href="#dirArrow" transform="rotate(180) translate(-30 -48)" onmousedown="handlePan(0,1)">
                  <use xlink:href="#rim" fill="#404040">
                        <set attributeName="fill" to="#808080" begin="arrowDown.mouseover" end="arrowDown.mouseout"/>
                  </use>
                  <path fill="none" stroke="white" stroke-width="1.5" d="M0,-3.0v7 M-2.5,-0.5L0,-3.0L2.5,-0.5"/>
                </g>
                <g id="arrowLeft" xlink:href="#dirArrow" transform="rotate(270) translate(-36 17)" onmousedown="handlePan(-1,0)">
                  <use xlink:href="#rim" fill="#404040">
                        <set attributeName="fill" to="#808080" begin="arrowLeft.mouseover" end="arrowLeft.mouseout"/>
                  </use>
                  <path fill="none" stroke="white" stroke-width="1.5" d="M0,-3.0v7 M-2.5,-0.5L0,-3.0L2.5,-0.5"/>
                </g>
        </g>
        <svg viewBox="0 0 15 15" width="100%" height="30px" preserveAspectRatio="xMaxYMin meet">
         <g id="arrow_out" transform="scale(0.3 0.3)">
          <a xlink:href="classcontroller_1_1_workspace_a6b1f99115388e9de9dc779e30ed16041_icgraph_org.svg" target="_base">
           <rect id="button" ry="5" rx="5" y="6" x="6" height="38" width="38"
                fill="#f2f5e9" fill-opacity="0.5" stroke="#606060" stroke-width="1.0"/>
           <path id="arrow"
             d="M 11.500037,31.436501 C 11.940474,20.09759 22.043105,11.32322 32.158766,21.979434 L 37.068811,17.246167 C 37.068811,17.246167 37.088388,32 37.088388,32 L 22.160133,31.978069 C 22.160133,31.978069 26.997745,27.140456 26.997745,27.140456 C 18.528582,18.264221 13.291696,25.230495 11.500037,31.436501 z"
             style="fill:#404040;"/>
          </a>
         </g>
        </svg>
</svg>
