<?xml version="1.0" encoding="UTF-8" standalone="no"?>
<!DOCTYPE svg PUBLIC "-//W3C//DTD SVG 1.1//EN"
 "http://www.w3.org/Graphics/SVG/1.1/DTD/svg11.dtd">
<!-- Generated by graphviz version 2.36.0 (20140111.2315)
 -->
<!-- Title: controller.Workspace.setImage Pages: 1 -->
<svg width="728pt" height="77pt"
 viewBox="0.00 0.00 728.00 77.00" xmlns="http://www.w3.org/2000/svg" xmlns:xlink="http://www.w3.org/1999/xlink">
<g id="graph0" class="graph" transform="scale(1 1) rotate(0) translate(4 73)">
<title>controller.Workspace.setImage</title>
<polygon fill="white" stroke="none" points="-4,4 -4,-73 724,-73 724,4 -4,4"/>
<!-- Node1 -->
<g id="node1" class="node"><title>Node1</title>
<polygon fill="#bfbfbf" stroke="black" points="0.5,-22 0.5,-52 133.5,-52 133.5,-22 0.5,-22"/>
<text text-anchor="start" x="8.5" y="-40" font-family="Helvetica,sans-Serif" font-size="10.00">controller.Workspace.set</text>
<text text-anchor="middle" x="67" y="-29" font-family="Helvetica,sans-Serif" font-size="10.00">Image</text>
</g>
<!-- Node2 -->
<g id="node2" class="node"><title>Node2</title>
<g id="a_node2"><a xlink:href="../../d8/dff/classmodel_1_1_turtle_manager.html#ad3a7dfe2894f5335c74644ad749dd77a" target="_top" xlink:title="model.TurtleManager.setImage">
<polygon fill="white" stroke="black" points="170,-27.5 170,-46.5 334,-46.5 334,-27.5 170,-27.5"/>
<text text-anchor="middle" x="252" y="-34.5" font-family="Helvetica,sans-Serif" font-size="10.00">model.TurtleManager.setImage</text>
</a>
</g>
</g>
<!-- Node1&#45;&gt;Node2 -->
<g id="edge1" class="edge"><title>Node1&#45;&gt;Node2</title>
<path fill="none" stroke="midnightblue" d="M133.55,-37C142.12,-37 151.02,-37 159.915,-37"/>
<polygon fill="midnightblue" stroke="midnightblue" points="159.938,-40.5001 169.937,-37 159.937,-33.5001 159.938,-40.5001"/>
</g>
<!-- Node3 -->
<g id="node3" class="node"><title>Node3</title>
<g id="a_node3"><a xlink:href="../../d8/dff/classmodel_1_1_turtle_manager.html#a8679aef13c1e2b3d695b1467c2bb5e9f" target="_top" xlink:title="model.TurtleManager.update">
<polygon fill="white" stroke="black" points="378.5,-49.5 378.5,-68.5 531.5,-68.5 531.5,-49.5 378.5,-49.5"/>
<text text-anchor="middle" x="455" y="-56.5" font-family="Helvetica,sans-Serif" font-size="10.00">model.TurtleManager.update</text>
</a>
</g>
</g>
<!-- Node2&#45;&gt;Node3 -->
<g id="edge2" class="edge"><title>Node2&#45;&gt;Node3</title>
<path fill="none" stroke="midnightblue" d="M334.175,-45.8848C345.353,-47.1083 356.863,-48.3681 368.122,-49.6004"/>
<polygon fill="midnightblue" stroke="midnightblue" points="368.054,-53.1138 378.375,-50.7227 368.815,-46.1553 368.054,-53.1138"/>
</g>
<!-- Node4 -->
<g id="node4" class="node"><title>Node4</title>
<g id="a_node4"><a xlink:href="../../d3/dcf/classview_1_1components_1_1_error_box.html#aca5c0d49cf82077b4e67e4e32f311a64" target="_top" xlink:title="view.components.ErrorBox.show\lError">
<polygon fill="white" stroke="black" points="370,-0 370,-30 540,-30 540,-0 370,-0"/>
<text text-anchor="start" x="378" y="-18" font-family="Helvetica,sans-Serif" font-size="10.00">view.components.ErrorBox.show</text>
<text text-anchor="middle" x="455" y="-7" font-family="Helvetica,sans-Serif" font-size="10.00">Error</text>
</a>
</g>
</g>
<!-- Node2&#45;&gt;Node4 -->
<g id="edge3" class="edge"><title>Node2&#45;&gt;Node4</title>
<path fill="none" stroke="midnightblue" d="M334.175,-28.1152C342.633,-27.1895 351.28,-26.243 359.865,-25.3033"/>
<polygon fill="midnightblue" stroke="midnightblue" points="360.34,-28.7723 369.9,-24.205 359.578,-21.8139 360.34,-28.7723"/>
</g>
<!-- Node5 -->
<g id="node5" class="node"><title>Node5</title>
<g id="a_node5"><a xlink:href="../../dd/d60/enumview_1_1components_1_1_error.html#aaaf045ebafea6177dfa658991af59af8" target="_top" xlink:title="view.components.Error.get\lMessage">
<polygon fill="white" stroke="black" points="576.5,-0 576.5,-30 719.5,-30 719.5,-0 576.5,-0"/>
<text text-anchor="start" x="584.5" y="-18" font-family="Helvetica,sans-Serif" font-size="10.00">view.components.Error.get</text>
<text text-anchor="middle" x="648" y="-7" font-family="Helvetica,sans-Serif" font-size="10.00">Message</text>
</a>
</g>
</g>
<!-- Node4&#45;&gt;Node5 -->
<g id="edge4" class="edge"><title>Node4&#45;&gt;Node5</title>
<path fill="none" stroke="midnightblue" d="M540.053,-15C548.758,-15 557.59,-15 566.257,-15"/>
<polygon fill="midnightblue" stroke="midnightblue" points="566.337,-18.5001 576.337,-15 566.337,-11.5001 566.337,-18.5001"/>
</g>
</g>
</svg>
