<?xml version="1.0" encoding="UTF-8" standalone="no"?>
<!DOCTYPE svg PUBLIC "-//W3C//DTD SVG 1.1//EN"
 "http://www.w3.org/Graphics/SVG/1.1/DTD/svg11.dtd">
<!-- Generated by graphviz version 2.36.0 (20140111.2315)
 -->
<!-- Title: controller.Workspace.deactivateTurtle Pages: 1 -->
<svg width="572pt" height="77pt"
 viewBox="0.00 0.00 572.00 77.00" xmlns="http://www.w3.org/2000/svg" xmlns:xlink="http://www.w3.org/1999/xlink">
<g id="graph0" class="graph" transform="scale(1 1) rotate(0) translate(4 73)">
<title>controller.Workspace.deactivateTurtle</title>
<polygon fill="white" stroke="none" points="-4,4 -4,-73 568,-73 568,4 -4,4"/>
<!-- Node1 -->
<g id="node1" class="node"><title>Node1</title>
<polygon fill="#bfbfbf" stroke="black" points="0,-17 0,-47 168,-47 168,-17 0,-17"/>
<text text-anchor="start" x="8" y="-35" font-family="Helvetica,sans-Serif" font-size="10.00">controller.Workspace.deactivate</text>
<text text-anchor="middle" x="84" y="-24" font-family="Helvetica,sans-Serif" font-size="10.00">Turtle</text>
</g>
<!-- Node2 -->
<g id="node2" class="node"><title>Node2</title>
<g id="a_node2"><a xlink:href="../../d8/dff/classmodel_1_1_turtle_manager.html#a9d3fda35812c5961b645ebcc5cf0c77a" target="_top" xlink:title="model.TurtleManager.deactivate\lTurtle">
<polygon fill="white" stroke="black" points="204,-39 204,-69 374,-69 374,-39 204,-39"/>
<text text-anchor="start" x="212" y="-57" font-family="Helvetica,sans-Serif" font-size="10.00">model.TurtleManager.deactivate</text>
<text text-anchor="middle" x="289" y="-46" font-family="Helvetica,sans-Serif" font-size="10.00">Turtle</text>
</a>
</g>
</g>
<!-- Node1&#45;&gt;Node2 -->
<g id="edge1" class="edge"><title>Node1&#45;&gt;Node2</title>
<path fill="none" stroke="midnightblue" d="M168.154,-41.0117C176.653,-41.9328 185.33,-42.8732 193.936,-43.8058"/>
<polygon fill="midnightblue" stroke="midnightblue" points="193.671,-47.2975 203.99,-44.8954 194.425,-40.3383 193.671,-47.2975"/>
</g>
<!-- Node3 -->
<g id="node3" class="node"><title>Node3</title>
<g id="a_node3"><a xlink:href="../../de/d84/classcontroller_1_1_workspace.html#a06f94274c983b2edde00bcdc2b15f790" target="_top" xlink:title="controller.Workspace.update">
<polygon fill="white" stroke="black" points="213,-0.5 213,-19.5 365,-19.5 365,-0.5 213,-0.5"/>
<text text-anchor="middle" x="289" y="-7.5" font-family="Helvetica,sans-Serif" font-size="10.00">controller.Workspace.update</text>
</a>
</g>
</g>
<!-- Node1&#45;&gt;Node3 -->
<g id="edge2" class="edge"><title>Node1&#45;&gt;Node3</title>
<path fill="none" stroke="midnightblue" d="M168.154,-22.9883C179.586,-21.7493 191.34,-20.4754 202.809,-19.2325"/>
<polygon fill="midnightblue" stroke="midnightblue" points="203.234,-22.707 212.799,-18.1499 202.48,-15.7478 203.234,-22.707"/>
</g>
<!-- Node4 -->
<g id="node4" class="node"><title>Node4</title>
<g id="a_node4"><a xlink:href="../../d8/dff/classmodel_1_1_turtle_manager.html#a8679aef13c1e2b3d695b1467c2bb5e9f" target="_top" xlink:title="model.TurtleManager.update">
<polygon fill="white" stroke="black" points="410.5,-0.5 410.5,-19.5 563.5,-19.5 563.5,-0.5 410.5,-0.5"/>
<text text-anchor="middle" x="487" y="-7.5" font-family="Helvetica,sans-Serif" font-size="10.00">model.TurtleManager.update</text>
</a>
</g>
</g>
<!-- Node3&#45;&gt;Node4 -->
<g id="edge3" class="edge"><title>Node3&#45;&gt;Node4</title>
<path fill="none" stroke="midnightblue" d="M365.218,-10C376.657,-10 388.535,-10 400.179,-10"/>
<polygon fill="midnightblue" stroke="midnightblue" points="400.335,-13.5001 410.335,-10 400.335,-6.5001 400.335,-13.5001"/>
</g>
</g>
</svg>
