<?xml version="1.0" encoding="UTF-8" standalone="no"?>
<!DOCTYPE svg PUBLIC "-//W3C//DTD SVG 1.1//EN"
 "http://www.w3.org/Graphics/SVG/1.1/DTD/svg11.dtd">
<!-- Generated by graphviz version 2.36.0 (20140111.2315)
 -->
<!-- Title: controller.Workspace.execute Pages: 1 -->
<svg width="1334pt" height="169pt"
 viewBox="0.00 0.00 1334.00 169.00" xmlns="http://www.w3.org/2000/svg" xmlns:xlink="http://www.w3.org/1999/xlink">
<g id="graph0" class="graph" transform="scale(1 1) rotate(0) translate(4 165)">
<title>controller.Workspace.execute</title>
<polygon fill="white" stroke="none" points="-4,4 -4,-165 1330,-165 1330,4 -4,4"/>
<!-- Node1 -->
<g id="node1" class="node"><title>Node1</title>
<polygon fill="#bfbfbf" stroke="black" points="0,-66.5 0,-85.5 156,-85.5 156,-66.5 0,-66.5"/>
<text text-anchor="middle" x="78" y="-73.5" font-family="Helvetica,sans-Serif" font-size="10.00">controller.Workspace.execute</text>
</g>
<!-- Node2 -->
<g id="node2" class="node"><title>Node2</title>
<g id="a_node2"><a xlink:href="../../d7/d40/classcontroller_1_1_w_s_undo_manager.html#a57ad787d609f63c566419fa409dd6fee" target="_top" xlink:title="controller.WSUndoManager.execute\lHistory">
<polygon fill="white" stroke="black" points="192.5,-39 192.5,-69 379.5,-69 379.5,-39 192.5,-39"/>
<text text-anchor="start" x="200.5" y="-57" font-family="Helvetica,sans-Serif" font-size="10.00">controller.WSUndoManager.execute</text>
<text text-anchor="middle" x="286" y="-46" font-family="Helvetica,sans-Serif" font-size="10.00">History</text>
</a>
</g>
</g>
<!-- Node1&#45;&gt;Node2 -->
<g id="edge1" class="edge"><title>Node1&#45;&gt;Node2</title>
<path fill="none" stroke="midnightblue" d="M166.313,-66.6753C174.92,-65.7561 183.677,-64.8209 192.335,-63.8963"/>
<polygon fill="midnightblue" stroke="midnightblue" points="165.865,-63.2032 156.293,-67.7454 166.608,-70.1636 165.865,-63.2032"/>
</g>
<!-- Node7 -->
<g id="node7" class="node"><title>Node7</title>
<g id="a_node7"><a xlink:href="../../d9/df7/classcontroller_1_1_controller.html#a89b63f37e67efbeddda1f247016c837b" target="_top" xlink:title="controller.Controller.process\lCommand">
<polygon fill="white" stroke="black" points="428,-131 428,-161 578,-161 578,-131 428,-131"/>
<text text-anchor="start" x="436" y="-149" font-family="Helvetica,sans-Serif" font-size="10.00">controller.Controller.process</text>
<text text-anchor="middle" x="503" y="-138" font-family="Helvetica,sans-Serif" font-size="10.00">Command</text>
</a>
</g>
</g>
<!-- Node1&#45;&gt;Node7 -->
<g id="edge6" class="edge"><title>Node1&#45;&gt;Node7</title>
<path fill="none" stroke="midnightblue" d="M109.484,-89.4653C131.872,-98.756 163.264,-110.554 192,-117 271.379,-134.806 364.567,-141.699 427.892,-144.356"/>
<polygon fill="midnightblue" stroke="midnightblue" points="110.748,-86.1999 100.174,-85.5309 108.023,-92.6477 110.748,-86.1999"/>
</g>
<!-- Node9 -->
<g id="node9" class="node"><title>Node9</title>
<g id="a_node9"><a xlink:href="../../d9/df7/classcontroller_1_1_controller.html#aec5e242ff69899c974dbd6302510f70b" target="_top" xlink:title="controller.Controller.processFile">
<polygon fill="white" stroke="black" points="203.5,-88.5 203.5,-107.5 368.5,-107.5 368.5,-88.5 203.5,-88.5"/>
<text text-anchor="middle" x="286" y="-95.5" font-family="Helvetica,sans-Serif" font-size="10.00">controller.Controller.processFile</text>
</a>
</g>
</g>
<!-- Node1&#45;&gt;Node9 -->
<g id="edge9" class="edge"><title>Node1&#45;&gt;Node9</title>
<path fill="none" stroke="midnightblue" d="M166.509,-85.3457C178.775,-86.6555 191.34,-87.9974 203.487,-89.2948"/>
<polygon fill="midnightblue" stroke="midnightblue" points="166.608,-81.8364 156.293,-84.2546 165.865,-88.7968 166.608,-81.8364"/>
</g>
<!-- Node13 -->
<g id="node13" class="node"><title>Node13</title>
<g id="a_node13"><a xlink:href="../../d7/d40/classcontroller_1_1_w_s_undo_manager.html#afc81c41b9d95a8ebd556ea5d5c709d05" target="_top" xlink:title="controller.WSUndoManager.redo">
<polygon fill="white" stroke="black" points="201,-0.5 201,-19.5 371,-19.5 371,-0.5 201,-0.5"/>
<text text-anchor="middle" x="286" y="-7.5" font-family="Helvetica,sans-Serif" font-size="10.00">controller.WSUndoManager.redo</text>
</a>
</g>
</g>
<!-- Node1&#45;&gt;Node13 -->
<g id="edge14" class="edge"><title>Node1&#45;&gt;Node13</title>
<path fill="none" stroke="midnightblue" d="M107.885,-62.1681C130.385,-51.8425 162.629,-38.0163 192,-29 203.973,-25.3246 217.033,-22.1569 229.481,-19.5194"/>
<polygon fill="midnightblue" stroke="midnightblue" points="106.169,-59.1058 98.5769,-66.4953 109.12,-65.4534 106.169,-59.1058"/>
</g>
<!-- Node3 -->
<g id="node3" class="node"><title>Node3</title>
<g id="a_node3"><a xlink:href="../../d7/d40/classcontroller_1_1_w_s_undo_manager.html#aea6c6bd525f338f036c8daa4f0ca3225" target="_top" xlink:title="controller.WSUndoManager.undo">
<polygon fill="white" stroke="black" points="416.5,-42.5 416.5,-61.5 589.5,-61.5 589.5,-42.5 416.5,-42.5"/>
<text text-anchor="middle" x="503" y="-49.5" font-family="Helvetica,sans-Serif" font-size="10.00">controller.WSUndoManager.undo</text>
</a>
</g>
</g>
<!-- Node2&#45;&gt;Node3 -->
<g id="edge2" class="edge"><title>Node2&#45;&gt;Node3</title>
<path fill="none" stroke="midnightblue" d="M389.759,-53.0441C398.662,-52.9613 407.609,-52.8781 416.354,-52.7967"/>
<polygon fill="midnightblue" stroke="midnightblue" points="389.706,-49.5443 379.739,-53.1373 389.771,-56.544 389.706,-49.5443"/>
</g>
<!-- Node4 -->
<g id="node4" class="node"><title>Node4</title>
<g id="a_node4"><a xlink:href="../../d9/df7/classcontroller_1_1_controller.html#a028264f3c286e8e1a2d897dda5ff0b53" target="_top" xlink:title="controller.Controller.create\lEditMenu">
<polygon fill="white" stroke="black" points="626.5,-33 626.5,-63 769.5,-63 769.5,-33 626.5,-33"/>
<text text-anchor="start" x="634.5" y="-51" font-family="Helvetica,sans-Serif" font-size="10.00">controller.Controller.create</text>
<text text-anchor="middle" x="698" y="-40" font-family="Helvetica,sans-Serif" font-size="10.00">EditMenu</text>
</a>
</g>
</g>
<!-- Node3&#45;&gt;Node4 -->
<g id="edge3" class="edge"><title>Node3&#45;&gt;Node4</title>
<path fill="none" stroke="midnightblue" d="M599.805,-50.0144C608.705,-49.83 617.612,-49.6453 626.224,-49.4668"/>
<polygon fill="midnightblue" stroke="midnightblue" points="599.702,-46.5157 589.777,-50.2222 599.847,-53.5142 599.702,-46.5157"/>
</g>
<!-- Node5 -->
<g id="node5" class="node"><title>Node5</title>
<g id="a_node5"><a xlink:href="../../d9/df7/classcontroller_1_1_controller.html#a2901bf43bb8e47b485558dbf00d40d6d" target="_top" xlink:title="controller.Controller.create\lJMenuBar">
<polygon fill="white" stroke="black" points="986.5,-82 986.5,-112 1129.5,-112 1129.5,-82 986.5,-82"/>
<text text-anchor="start" x="994.5" y="-100" font-family="Helvetica,sans-Serif" font-size="10.00">controller.Controller.create</text>
<text text-anchor="middle" x="1058" y="-89" font-family="Helvetica,sans-Serif" font-size="10.00">JMenuBar</text>
</a>
</g>
</g>
<!-- Node4&#45;&gt;Node5 -->
<g id="edge4" class="edge"><title>Node4&#45;&gt;Node5</title>
<path fill="none" stroke="midnightblue" d="M779.638,-52.9472C829.033,-56.6614 893.419,-62.7281 950,-72 966.002,-74.6222 983.174,-78.2593 998.974,-81.9481"/>
<polygon fill="midnightblue" stroke="midnightblue" points="779.88,-49.4556 769.65,-52.2128 779.367,-56.4368 779.88,-49.4556"/>
</g>
<!-- Node6 -->
<g id="node6" class="node"><title>Node6</title>
<g id="a_node6"><a xlink:href="../../d9/df7/classcontroller_1_1_controller.html#a47511ec57338c8e75e71e9314cda5271" target="_top" xlink:title="controller.Controller.Controller">
<polygon fill="white" stroke="black" points="1166.5,-110.5 1166.5,-129.5 1325.5,-129.5 1325.5,-110.5 1166.5,-110.5"/>
<text text-anchor="middle" x="1246" y="-117.5" font-family="Helvetica,sans-Serif" font-size="10.00">controller.Controller.Controller</text>
</a>
</g>
</g>
<!-- Node5&#45;&gt;Node6 -->
<g id="edge5" class="edge"><title>Node5&#45;&gt;Node6</title>
<path fill="none" stroke="midnightblue" d="M1139.68,-106.976C1149.06,-108.137 1158.61,-109.318 1167.94,-110.472"/>
<polygon fill="midnightblue" stroke="midnightblue" points="1139.94,-103.482 1129.58,-105.728 1139.08,-110.429 1139.94,-103.482"/>
</g>
<!-- Node8 -->
<g id="node8" class="node"><title>Node8</title>
<g id="a_node8"><a xlink:href="../../d9/df7/classcontroller_1_1_controller.html#a2bfb87bca460d87b2c97e0b5045a2175" target="_top" xlink:title="controller.Controller.create\lRunCommandListener">
<polygon fill="white" stroke="black" points="806.5,-131 806.5,-161 949.5,-161 949.5,-131 806.5,-131"/>
<text text-anchor="start" x="814.5" y="-149" font-family="Helvetica,sans-Serif" font-size="10.00">controller.Controller.create</text>
<text text-anchor="middle" x="878" y="-138" font-family="Helvetica,sans-Serif" font-size="10.00">RunCommandListener</text>
</a>
</g>
</g>
<!-- Node7&#45;&gt;Node8 -->
<g id="edge7" class="edge"><title>Node7&#45;&gt;Node8</title>
<path fill="none" stroke="midnightblue" d="M588.48,-146C654.27,-146 744.527,-146 806.476,-146"/>
<polygon fill="midnightblue" stroke="midnightblue" points="588.139,-142.5 578.139,-146 588.139,-149.5 588.139,-142.5"/>
</g>
<!-- Node8&#45;&gt;Node6 -->
<g id="edge8" class="edge"><title>Node8&#45;&gt;Node6</title>
<path fill="none" stroke="midnightblue" d="M959.622,-140.273C1021.13,-135.903 1105.4,-129.917 1166.4,-125.584"/>
<polygon fill="midnightblue" stroke="midnightblue" points="959.295,-136.787 949.568,-140.987 959.791,-143.769 959.295,-136.787"/>
</g>
<!-- Node10 -->
<g id="node10" class="node"><title>Node10</title>
<g id="a_node10"><a xlink:href="../../d9/df7/classcontroller_1_1_controller.html#a37c3009658f66dc4de0be01b75adf660" target="_top" xlink:title="controller.Controller.load\lWorkspace">
<polygon fill="white" stroke="black" points="436.5,-82 436.5,-112 569.5,-112 569.5,-82 436.5,-82"/>
<text text-anchor="start" x="444.5" y="-100" font-family="Helvetica,sans-Serif" font-size="10.00">controller.Controller.load</text>
<text text-anchor="middle" x="503" y="-89" font-family="Helvetica,sans-Serif" font-size="10.00">Workspace</text>
</a>
</g>
</g>
<!-- Node9&#45;&gt;Node10 -->
<g id="edge10" class="edge"><title>Node9&#45;&gt;Node10</title>
<path fill="none" stroke="midnightblue" d="M378.625,-97.5738C397.966,-97.4839 418.008,-97.3907 436.171,-97.3062"/>
<polygon fill="midnightblue" stroke="midnightblue" points="378.572,-94.0739 368.589,-97.6205 378.605,-101.074 378.572,-94.0739"/>
</g>
<!-- Node11 -->
<g id="node11" class="node"><title>Node11</title>
<g id="a_node11"><a xlink:href="../../d9/df7/classcontroller_1_1_controller.html#aa46804b9ca132af8504b5dafb1cadb0d" target="_top" xlink:title="controller.Controller.create\lFileCommands">
<polygon fill="white" stroke="black" points="626.5,-82 626.5,-112 769.5,-112 769.5,-82 626.5,-82"/>
<text text-anchor="start" x="634.5" y="-100" font-family="Helvetica,sans-Serif" font-size="10.00">controller.Controller.create</text>
<text text-anchor="middle" x="698" y="-89" font-family="Helvetica,sans-Serif" font-size="10.00">FileCommands</text>
</a>
</g>
</g>
<!-- Node10&#45;&gt;Node11 -->
<g id="edge11" class="edge"><title>Node10&#45;&gt;Node11</title>
<path fill="none" stroke="midnightblue" d="M580.03,-97C595.273,-97 611.231,-97 626.286,-97"/>
<polygon fill="midnightblue" stroke="midnightblue" points="579.61,-93.5001 569.61,-97 579.61,-100.5 579.61,-93.5001"/>
</g>
<!-- Node12 -->
<g id="node12" class="node"><title>Node12</title>
<g id="a_node12"><a xlink:href="../../d9/df7/classcontroller_1_1_controller.html#af4c05286f1534b1fa6de523c54549288" target="_top" xlink:title="controller.Controller.create\lFileMenu">
<polygon fill="white" stroke="black" points="806.5,-82 806.5,-112 949.5,-112 949.5,-82 806.5,-82"/>
<text text-anchor="start" x="814.5" y="-100" font-family="Helvetica,sans-Serif" font-size="10.00">controller.Controller.create</text>
<text text-anchor="middle" x="878" y="-89" font-family="Helvetica,sans-Serif" font-size="10.00">FileMenu</text>
</a>
</g>
</g>
<!-- Node11&#45;&gt;Node12 -->
<g id="edge12" class="edge"><title>Node11&#45;&gt;Node12</title>
<path fill="none" stroke="midnightblue" d="M779.646,-97C788.599,-97 797.666,-97 806.479,-97"/>
<polygon fill="midnightblue" stroke="midnightblue" points="779.606,-93.5001 769.606,-97 779.606,-100.5 779.606,-93.5001"/>
</g>
<!-- Node12&#45;&gt;Node5 -->
<g id="edge13" class="edge"><title>Node12&#45;&gt;Node5</title>
<path fill="none" stroke="midnightblue" d="M959.646,-97C968.599,-97 977.666,-97 986.479,-97"/>
<polygon fill="midnightblue" stroke="midnightblue" points="959.606,-93.5001 949.606,-97 959.606,-100.5 959.606,-93.5001"/>
</g>
<!-- Node13&#45;&gt;Node4 -->
<g id="edge15" class="edge"><title>Node13&#45;&gt;Node4</title>
<path fill="none" stroke="midnightblue" d="M381.244,-15.6072C441.119,-19.5518 520.213,-25.4674 590,-33 601.749,-34.2682 614.196,-35.8206 626.285,-37.4406"/>
<polygon fill="midnightblue" stroke="midnightblue" points="381.258,-12.1007 371.051,-14.9424 380.802,-19.0859 381.258,-12.1007"/>
</g>
</g>
</svg>
