<?xml version="1.0" encoding="UTF-8" standalone="no"?>
<!DOCTYPE svg PUBLIC "-//W3C//DTD SVG 1.1//EN"
 "http://www.w3.org/Graphics/SVG/1.1/DTD/svg11.dtd">
<!-- Generated by graphviz version 2.36.0 (20140111.2315)
 -->
<!-- Title: controller.Workspace.addTurtle Pages: 1 -->
<!--zoomable 115 -->
<svg id="main" version="1.1" xmlns="http://www.w3.org/2000/svg" xmlns:xlink="http://www.w3.org/1999/xlink" xml:space="preserve" onload="init(evt)">
<style type="text/css"><![CDATA[
.edge:hover path { stroke: red; }
.edge:hover polygon { stroke: red; fill: red; }
]]></style>
<script type="text/javascript"><![CDATA[
var edges = document.getElementsByTagName('g');
if (edges && edges.length) {
  for (var i=0;i<edges.length;i++) {
    if (edges[i].id.substr(0,4)=='edge') {
      edges[i].setAttribute('class','edge');
    }
  }
}
]]></script>
        <defs>
                <circle id="rim" cx="0" cy="0" r="7"/>
                <circle id="rim2" cx="0" cy="0" r="3.5"/>
                <g id="zoomPlus">
                        <use xlink:href="#rim" fill="#404040">
                                <set attributeName="fill" to="#808080" begin="zoomplus.mouseover" end="zoomplus.mouseout"/>
                        </use>
                        <path d="M-4,0h8M0,-4v8" fill="none" stroke="white" stroke-width="1.5" pointer-events="none"/>
                </g>
                <g id="zoomMin">
                        <use xlink:href="#rim" fill="#404040">
                                <set attributeName="fill" to="#808080" begin="zoomminus.mouseover" end="zoomminus.mouseout"/>
                        </use>
                        <path d="M-4,0h8" fill="none" stroke="white" stroke-width="1.5" pointer-events="none"/>
                </g>
                <g id="dirArrow">
                        <path fill="none" stroke="white" stroke-width="1.5" d="M0,-3.0v7 M-2.5,-0.5L0,-3.0L2.5,-0.5"/>
                </g>
               <g id="resetDef">
                       <use xlink:href="#rim2" fill="#404040">
                               <set attributeName="fill" to="#808080" begin="reset.mouseover" end="reset.mouseout"/>
                       </use>
               </g>
        </defs>

<script type="text/javascript">
var viewWidth = 688;
var viewHeight = 115;
var sectionId = 'dynsection-8';
</script>
<script xlink:href="../../svgpan.js"/>
<svg id="graph" class="graph">
<g id="viewport">
<title>controller.Workspace.addTurtle</title>
<polygon fill="white" stroke="none" points="-4,4 -4,-111 684,-111 684,4 -4,4"/>
<!-- Node1 -->
<g id="node1" class="node"><title>Node1</title>
<polygon fill="#bfbfbf" stroke="black" points="0,-14 0,-44 136,-44 136,-14 0,-14"/>
<text text-anchor="start" x="8" y="-32" font-family="Helvetica,sans-Serif" font-size="10.00">controller.Workspace.add</text>
<text text-anchor="middle" x="68" y="-21" font-family="Helvetica,sans-Serif" font-size="10.00">Turtle</text>
</g>
<!-- Node2 -->
<g id="node2" class="node"><title>Node2</title>
<g id="a_node2"><a xlink:href="../../d8/dff/classmodel_1_1_turtle_manager.html#a3d0172590b0214793dbd3997c56f7759" target="_top" xlink:title="model.TurtleManager.addNew">
<polygon fill="white" stroke="black" points="172,-38.5 172,-57.5 330,-57.5 330,-38.5 172,-38.5"/>
<text text-anchor="middle" x="251" y="-45.5" font-family="Helvetica,sans-Serif" font-size="10.00">model.TurtleManager.addNew</text>
</a>
</g>
</g>
<!-- Node1&#45;&gt;Node2 -->
<g id="edge1" class="edge"><title>Node1&#45;&gt;Node2</title>
<path fill="none" stroke="midnightblue" d="M136.141,-36.0479C144.529,-36.9284 153.204,-37.8391 161.851,-38.7468"/>
<polygon fill="midnightblue" stroke="midnightblue" points="161.659,-42.2458 171.97,-39.809 162.39,-35.284 161.659,-42.2458"/>
</g>
<!-- Node7 -->
<g id="node7" class="node"><title>Node7</title>
<g id="a_node7"><a xlink:href="../../de/d84/classcontroller_1_1_workspace.html#a06f94274c983b2edde00bcdc2b15f790" target="_top" xlink:title="controller.Workspace.update">
<polygon fill="white" stroke="black" points="175,-0.5 175,-19.5 327,-19.5 327,-0.5 175,-0.5"/>
<text text-anchor="middle" x="251" y="-7.5" font-family="Helvetica,sans-Serif" font-size="10.00">controller.Workspace.update</text>
</a>
</g>
</g>
<!-- Node1&#45;&gt;Node7 -->
<g id="edge6" class="edge"><title>Node1&#45;&gt;Node7</title>
<path fill="none" stroke="midnightblue" d="M136.141,-21.9521C145.474,-20.9723 155.164,-19.9552 164.774,-18.9464"/>
<polygon fill="midnightblue" stroke="midnightblue" points="165.161,-22.4251 174.741,-17.9001 164.43,-15.4633 165.161,-22.4251"/>
</g>
<!-- Node3 -->
<g id="node3" class="node"><title>Node3</title>
<g id="a_node3"><a xlink:href="../../d8/dff/classmodel_1_1_turtle_manager.html#a9831377a60a443edcedede2e809e36f4" target="_top" xlink:title="model.TurtleManager.create\lTurtle">
<polygon fill="white" stroke="black" points="368,-77 368,-107 518,-107 518,-77 368,-77"/>
<text text-anchor="start" x="376" y="-95" font-family="Helvetica,sans-Serif" font-size="10.00">model.TurtleManager.create</text>
<text text-anchor="middle" x="443" y="-84" font-family="Helvetica,sans-Serif" font-size="10.00">Turtle</text>
</a>
</g>
</g>
<!-- Node2&#45;&gt;Node3 -->
<g id="edge2" class="edge"><title>Node2&#45;&gt;Node3</title>
<path fill="none" stroke="midnightblue" d="M293.227,-57.5473C314.81,-62.5455 341.914,-68.8222 367.055,-74.6442"/>
<polygon fill="midnightblue" stroke="midnightblue" points="366.413,-78.0882 376.945,-76.9346 367.992,-71.2687 366.413,-78.0882"/>
</g>
<!-- Node5 -->
<g id="node5" class="node"><title>Node5</title>
<g id="a_node5"><a xlink:href="../../d6/d34/classmodel_1_1_turtle.html#a65a22c7a1a7abfbc46a6f339479e7646" target="_top" xlink:title="model.Turtle.setStroke">
<polygon fill="white" stroke="black" points="380.5,-38.5 380.5,-57.5 505.5,-57.5 505.5,-38.5 380.5,-38.5"/>
<text text-anchor="middle" x="443" y="-45.5" font-family="Helvetica,sans-Serif" font-size="10.00">model.Turtle.setStroke</text>
</a>
</g>
</g>
<!-- Node2&#45;&gt;Node5 -->
<g id="edge4" class="edge"><title>Node2&#45;&gt;Node5</title>
<path fill="none" stroke="midnightblue" d="M330.103,-48C343.348,-48 357.046,-48 370.121,-48"/>
<polygon fill="midnightblue" stroke="midnightblue" points="370.454,-51.5001 380.454,-48 370.454,-44.5001 370.454,-51.5001"/>
</g>
<!-- Node4 -->
<g id="node4" class="node"><title>Node4</title>
<g id="a_node4"><a xlink:href="../../d6/d34/classmodel_1_1_turtle.html#a27ce4fa61b6e292b1cfff08d511e7fc4" target="_top" xlink:title="model.Turtle.setImage">
<polygon fill="white" stroke="black" points="556.5,-82.5 556.5,-101.5 679.5,-101.5 679.5,-82.5 556.5,-82.5"/>
<text text-anchor="middle" x="618" y="-89.5" font-family="Helvetica,sans-Serif" font-size="10.00">model.Turtle.setImage</text>
</a>
</g>
</g>
<!-- Node3&#45;&gt;Node4 -->
<g id="edge3" class="edge"><title>Node3&#45;&gt;Node4</title>
<path fill="none" stroke="midnightblue" d="M518.12,-92C527.382,-92 536.838,-92 546.05,-92"/>
<polygon fill="midnightblue" stroke="midnightblue" points="546.324,-95.5001 556.324,-92 546.324,-88.5001 546.324,-95.5001"/>
</g>
<!-- Node6 -->
<g id="node6" class="node"><title>Node6</title>
<g id="a_node6"><a xlink:href="../../de/ded/classmodel_1_1_pen.html#a00c08e5bfc9d04986e0ff7ae4ceae10b" target="_top" xlink:title="model.Pen.setStroke">
<polygon fill="white" stroke="black" points="559.5,-38.5 559.5,-57.5 676.5,-57.5 676.5,-38.5 559.5,-38.5"/>
<text text-anchor="middle" x="618" y="-45.5" font-family="Helvetica,sans-Serif" font-size="10.00">model.Pen.setStroke</text>
</a>
</g>
</g>
<!-- Node5&#45;&gt;Node6 -->
<g id="edge5" class="edge"><title>Node5&#45;&gt;Node6</title>
<path fill="none" stroke="midnightblue" d="M505.968,-48C519.934,-48 534.829,-48 549.025,-48"/>
<polygon fill="midnightblue" stroke="midnightblue" points="549.216,-51.5001 559.216,-48 549.216,-44.5001 549.216,-51.5001"/>
</g>
<!-- Node8 -->
<g id="node8" class="node"><title>Node8</title>
<g id="a_node8"><a xlink:href="../../d8/dff/classmodel_1_1_turtle_manager.html#a8679aef13c1e2b3d695b1467c2bb5e9f" target="_top" xlink:title="model.TurtleManager.update">
<polygon fill="white" stroke="black" points="366.5,-0.5 366.5,-19.5 519.5,-19.5 519.5,-0.5 366.5,-0.5"/>
<text text-anchor="middle" x="443" y="-7.5" font-family="Helvetica,sans-Serif" font-size="10.00">model.TurtleManager.update</text>
</a>
</g>
</g>
<!-- Node7&#45;&gt;Node8 -->
<g id="edge7" class="edge"><title>Node7&#45;&gt;Node8</title>
<path fill="none" stroke="midnightblue" d="M327.093,-10C336.639,-10 346.466,-10 356.164,-10"/>
<polygon fill="midnightblue" stroke="midnightblue" points="356.207,-13.5001 366.207,-10 356.207,-6.5001 356.207,-13.5001"/>
</g>
</g>
</svg>
        <g id="navigator" transform="translate(0 0)" fill="#404254">
                <rect fill="#f2f5e9" fill-opacity="0.5" stroke="#606060" stroke-width=".5" x="0" y="0" width="60" height="60"/>
                <use id="zoomplus" xlink:href="#zoomPlus" x="17" y="9" onmousedown="handleZoom(evt,'in')"/>
                <use id="zoomminus" xlink:href="#zoomMin" x="42" y="9" onmousedown="handleZoom(evt,'out')"/>
                <use id="reset" xlink:href="#resetDef" x="30" y="36" onmousedown="handleReset()"/>
                <g id="arrowUp" xlink:href="#dirArrow" transform="translate(30 24)" onmousedown="handlePan(0,-1)">
                  <use xlink:href="#rim" fill="#404040">
                        <set attributeName="fill" to="#808080" begin="arrowUp.mouseover" end="arrowUp.mouseout"/>
                  </use>
                  <path fill="none" stroke="white" stroke-width="1.5" d="M0,-3.0v7 M-2.5,-0.5L0,-3.0L2.5,-0.5"/>
                </g>
                <g id="arrowRight" xlink:href="#dirArrow" transform="rotate(90) translate(36 -43)" onmousedown="handlePan(1,0)">
                  <use xlink:href="#rim" fill="#404040">
                        <set attributeName="fill" to="#808080" begin="arrowRight.mouseover" end="arrowRight.mouseout"/>
                  </use>
                  <path fill="none" stroke="white" stroke-width="1.5" d="M0,-3.0v7 M-2.5,-0.5L0,-3.0L2.5,-0.5"/>
                </g>
                <g id="arrowDown" xlink:href="#dirArrow" transform="rotate(180) translate(-30 -48)" onmousedown="handlePan(0,1)">
                  <use xlink:href="#rim" fill="#404040">
                        <set attributeName="fill" to="#808080" begin="arrowDown.mouseover" end="arrowDown.mouseout"/>
                  </use>
                  <path fill="none" stroke="white" stroke-width="1.5" d="M0,-3.0v7 M-2.5,-0.5L0,-3.0L2.5,-0.5"/>
                </g>
                <g id="arrowLeft" xlink:href="#dirArrow" transform="rotate(270) translate(-36 17)" onmousedown="handlePan(-1,0)">
                  <use xlink:href="#rim" fill="#404040">
                        <set attributeName="fill" to="#808080" begin="arrowLeft.mouseover" end="arrowLeft.mouseout"/>
                  </use>
                  <path fill="none" stroke="white" stroke-width="1.5" d="M0,-3.0v7 M-2.5,-0.5L0,-3.0L2.5,-0.5"/>
                </g>
        </g>
        <svg viewBox="0 0 15 15" width="100%" height="30px" preserveAspectRatio="xMaxYMin meet">
         <g id="arrow_out" transform="scale(0.3 0.3)">
          <a xlink:href="classcontroller_1_1_workspace_a6edc5179c7840bd8bdd91bb19ef7405b_cgraph_org.svg" target="_base">
           <rect id="button" ry="5" rx="5" y="6" x="6" height="38" width="38"
                fill="#f2f5e9" fill-opacity="0.5" stroke="#606060" stroke-width="1.0"/>
           <path id="arrow"
             d="M 11.500037,31.436501 C 11.940474,20.09759 22.043105,11.32322 32.158766,21.979434 L 37.068811,17.246167 C 37.068811,17.246167 37.088388,32 37.088388,32 L 22.160133,31.978069 C 22.160133,31.978069 26.997745,27.140456 26.997745,27.140456 C 18.528582,18.264221 13.291696,25.230495 11.500037,31.436501 z"
             style="fill:#404040;"/>
          </a>
         </g>
        </svg>
</svg>
