<?xml version="1.0" encoding="UTF-8" standalone="no"?>
<!DOCTYPE svg PUBLIC "-//W3C//DTD SVG 1.1//EN"
 "http://www.w3.org/Graphics/SVG/1.1/DTD/svg11.dtd">
<!-- Generated by graphviz version 2.36.0 (20140111.2315)
 -->
<!-- Title: controller.Workspace.setStroke Pages: 1 -->
<svg width="344pt" height="66pt"
 viewBox="0.00 0.00 344.00 66.00" xmlns="http://www.w3.org/2000/svg" xmlns:xlink="http://www.w3.org/1999/xlink">
<g id="graph0" class="graph" transform="scale(1 1) rotate(0) translate(4 62)">
<title>controller.Workspace.setStroke</title>
<polygon fill="white" stroke="none" points="-4,4 -4,-62 340,-62 340,4 -4,4"/>
<!-- Node1 -->
<g id="node1" class="node"><title>Node1</title>
<polygon fill="#bfbfbf" stroke="black" points="0.5,-14 0.5,-44 133.5,-44 133.5,-14 0.5,-14"/>
<text text-anchor="start" x="8.5" y="-32" font-family="Helvetica,sans-Serif" font-size="10.00">controller.Workspace.set</text>
<text text-anchor="middle" x="67" y="-21" font-family="Helvetica,sans-Serif" font-size="10.00">Stroke</text>
</g>
<!-- Node2 -->
<g id="node2" class="node"><title>Node2</title>
<g id="a_node2"><a xlink:href="../../d8/ddd/classview_1_1_canvas.html#ac23fe08cc41e8c0bd02620850146b55e" target="_top" xlink:title="view.Canvas.createStroke">
<polygon fill="white" stroke="black" points="183,-38.5 183,-57.5 323,-57.5 323,-38.5 183,-38.5"/>
<text text-anchor="middle" x="253" y="-45.5" font-family="Helvetica,sans-Serif" font-size="10.00">view.Canvas.createStroke</text>
</a>
</g>
</g>
<!-- Node1&#45;&gt;Node2 -->
<g id="edge1" class="edge"><title>Node1&#45;&gt;Node2</title>
<path fill="none" stroke="midnightblue" d="M133.649,-35.779C146.397,-37.0953 159.882,-38.4878 173.006,-39.843"/>
<polygon fill="midnightblue" stroke="midnightblue" points="172.647,-43.3245 182.954,-40.8703 173.366,-36.3615 172.647,-43.3245"/>
</g>
<!-- Node3 -->
<g id="node3" class="node"><title>Node3</title>
<g id="a_node3"><a xlink:href="../../d8/dff/classmodel_1_1_turtle_manager.html#a1d1adf67f48480748d3e4e31d2ca6651" target="_top" xlink:title="model.TurtleManager.setStroke">
<polygon fill="white" stroke="black" points="170,-0.5 170,-19.5 336,-19.5 336,-0.5 170,-0.5"/>
<text text-anchor="middle" x="253" y="-7.5" font-family="Helvetica,sans-Serif" font-size="10.00">model.TurtleManager.setStroke</text>
</a>
</g>
</g>
<!-- Node1&#45;&gt;Node3 -->
<g id="edge2" class="edge"><title>Node1&#45;&gt;Node3</title>
<path fill="none" stroke="midnightblue" d="M133.649,-22.221C142.197,-21.3383 151.077,-20.4214 159.958,-19.5043"/>
<polygon fill="midnightblue" stroke="midnightblue" points="160.379,-22.9795 169.967,-18.4708 159.66,-16.0166 160.379,-22.9795"/>
</g>
</g>
</svg>
