<?xml version="1.0" encoding="UTF-8" standalone="no"?>
<!DOCTYPE svg PUBLIC "-//W3C//DTD SVG 1.1//EN"
 "http://www.w3.org/Graphics/SVG/1.1/DTD/svg11.dtd">
<!-- Generated by graphviz version 2.36.0 (20140111.2315)
 -->
<!-- Title: controller.Workspace.activateTurtle Pages: 1 -->
<!--zoomable 143 -->
<svg id="main" version="1.1" xmlns="http://www.w3.org/2000/svg" xmlns:xlink="http://www.w3.org/1999/xlink" xml:space="preserve" onload="init(evt)">
<style type="text/css"><![CDATA[
.edge:hover path { stroke: red; }
.edge:hover polygon { stroke: red; fill: red; }
]]></style>
<script type="text/javascript"><![CDATA[
var edges = document.getElementsByTagName('g');
if (edges && edges.length) {
  for (var i=0;i<edges.length;i++) {
    if (edges[i].id.substr(0,4)=='edge') {
      edges[i].setAttribute('class','edge');
    }
  }
}
]]></script>
        <defs>
                <circle id="rim" cx="0" cy="0" r="7"/>
                <circle id="rim2" cx="0" cy="0" r="3.5"/>
                <g id="zoomPlus">
                        <use xlink:href="#rim" fill="#404040">
                                <set attributeName="fill" to="#808080" begin="zoomplus.mouseover" end="zoomplus.mouseout"/>
                        </use>
                        <path d="M-4,0h8M0,-4v8" fill="none" stroke="white" stroke-width="1.5" pointer-events="none"/>
                </g>
                <g id="zoomMin">
                        <use xlink:href="#rim" fill="#404040">
                                <set attributeName="fill" to="#808080" begin="zoomminus.mouseover" end="zoomminus.mouseout"/>
                        </use>
                        <path d="M-4,0h8" fill="none" stroke="white" stroke-width="1.5" pointer-events="none"/>
                </g>
                <g id="dirArrow">
                        <path fill="none" stroke="white" stroke-width="1.5" d="M0,-3.0v7 M-2.5,-0.5L0,-3.0L2.5,-0.5"/>
                </g>
               <g id="resetDef">
                       <use xlink:href="#rim2" fill="#404040">
                               <set attributeName="fill" to="#808080" begin="reset.mouseover" end="reset.mouseout"/>
                       </use>
               </g>
        </defs>

<script type="text/javascript">
var viewWidth = 898;
var viewHeight = 143;
var sectionId = 'dynsection-2';
</script>
<script xlink:href="../../svgpan.js"/>
<svg id="graph" class="graph">
<g id="viewport">
<title>controller.Workspace.activateTurtle</title>
<polygon fill="white" stroke="none" points="-4,4 -4,-139 894,-139 894,4 -4,4"/>
<!-- Node1 -->
<g id="node1" class="node"><title>Node1</title>
<polygon fill="#bfbfbf" stroke="black" points="0,-18 0,-48 156,-48 156,-18 0,-18"/>
<text text-anchor="start" x="8" y="-36" font-family="Helvetica,sans-Serif" font-size="10.00">controller.Workspace.activate</text>
<text text-anchor="middle" x="78" y="-25" font-family="Helvetica,sans-Serif" font-size="10.00">Turtle</text>
</g>
<!-- Node2 -->
<g id="node2" class="node"><title>Node2</title>
<g id="a_node2"><a xlink:href="../../d8/dff/classmodel_1_1_turtle_manager.html#a1c46b383a49e06a2436ad084bf7cd5aa" target="_top" xlink:title="model.TurtleManager.activate">
<polygon fill="white" stroke="black" points="192,-44.5 192,-63.5 350,-63.5 350,-44.5 192,-44.5"/>
<text text-anchor="middle" x="271" y="-51.5" font-family="Helvetica,sans-Serif" font-size="10.00">model.TurtleManager.activate</text>
</a>
</g>
</g>
<!-- Node1&#45;&gt;Node2 -->
<g id="edge1" class="edge"><title>Node1&#45;&gt;Node2</title>
<path fill="none" stroke="midnightblue" d="M156.136,-41.481C164.62,-42.4137 173.304,-43.3685 181.908,-44.3145"/>
<polygon fill="midnightblue" stroke="midnightblue" points="181.631,-47.805 191.954,-45.419 182.396,-40.847 181.631,-47.805"/>
</g>
<!-- Node9 -->
<g id="node9" class="node"><title>Node9</title>
<g id="a_node9"><a xlink:href="../../de/d84/classcontroller_1_1_workspace.html#a06f94274c983b2edde00bcdc2b15f790" target="_top" xlink:title="controller.Workspace.update">
<polygon fill="white" stroke="black" points="195,-3.5 195,-22.5 347,-22.5 347,-3.5 195,-3.5"/>
<text text-anchor="middle" x="271" y="-10.5" font-family="Helvetica,sans-Serif" font-size="10.00">controller.Workspace.update</text>
</a>
</g>
</g>
<!-- Node1&#45;&gt;Node9 -->
<g id="edge8" class="edge"><title>Node1&#45;&gt;Node9</title>
<path fill="none" stroke="midnightblue" d="M156.136,-24.9229C165.489,-23.9436 175.085,-22.9388 184.548,-21.9479"/>
<polygon fill="midnightblue" stroke="midnightblue" points="185.165,-25.4025 194.746,-20.88 184.436,-18.4405 185.165,-25.4025"/>
</g>
<!-- Node3 -->
<g id="node3" class="node"><title>Node3</title>
<g id="a_node3"><a xlink:href="../../d8/dff/classmodel_1_1_turtle_manager.html#a3d0172590b0214793dbd3997c56f7759" target="_top" xlink:title="model.TurtleManager.addNew">
<polygon fill="white" stroke="black" points="386,-88.5 386,-107.5 544,-107.5 544,-88.5 386,-88.5"/>
<text text-anchor="middle" x="465" y="-95.5" font-family="Helvetica,sans-Serif" font-size="10.00">model.TurtleManager.addNew</text>
</a>
</g>
</g>
<!-- Node2&#45;&gt;Node3 -->
<g id="edge2" class="edge"><title>Node2&#45;&gt;Node3</title>
<path fill="none" stroke="midnightblue" d="M313.661,-63.5473C342.721,-70.2069 381.686,-79.1363 412.665,-86.2358"/>
<polygon fill="midnightblue" stroke="midnightblue" points="411.891,-89.649 422.42,-88.4713 413.455,-82.8259 411.891,-89.649"/>
</g>
<!-- Node8 -->
<g id="node8" class="node"><title>Node8</title>
<g id="a_node8"><a xlink:href="../../d8/dff/classmodel_1_1_turtle_manager.html#a2c8eed018128d3a0be175415b36445d9" target="_top" xlink:title="model.TurtleManager.activate\lTurtle">
<polygon fill="white" stroke="black" points="386,-39 386,-69 544,-69 544,-39 386,-39"/>
<text text-anchor="start" x="394" y="-57" font-family="Helvetica,sans-Serif" font-size="10.00">model.TurtleManager.activate</text>
<text text-anchor="middle" x="465" y="-46" font-family="Helvetica,sans-Serif" font-size="10.00">Turtle</text>
</a>
</g>
</g>
<!-- Node2&#45;&gt;Node8 -->
<g id="edge7" class="edge"><title>Node2&#45;&gt;Node8</title>
<path fill="none" stroke="midnightblue" d="M350.094,-54C358.601,-54 367.302,-54 375.918,-54"/>
<polygon fill="midnightblue" stroke="midnightblue" points="375.975,-57.5001 385.975,-54 375.975,-50.5001 375.975,-57.5001"/>
</g>
<!-- Node4 -->
<g id="node4" class="node"><title>Node4</title>
<g id="a_node4"><a xlink:href="../../d8/dff/classmodel_1_1_turtle_manager.html#a9831377a60a443edcedede2e809e36f4" target="_top" xlink:title="model.TurtleManager.create\lTurtle">
<polygon fill="white" stroke="black" points="580,-105 580,-135 730,-135 730,-105 580,-105"/>
<text text-anchor="start" x="588" y="-123" font-family="Helvetica,sans-Serif" font-size="10.00">model.TurtleManager.create</text>
<text text-anchor="middle" x="655" y="-112" font-family="Helvetica,sans-Serif" font-size="10.00">Turtle</text>
</a>
</g>
</g>
<!-- Node3&#45;&gt;Node4 -->
<g id="edge3" class="edge"><title>Node3&#45;&gt;Node4</title>
<path fill="none" stroke="midnightblue" d="M544.096,-107.139C552.579,-108.132 561.241,-109.145 569.794,-110.146"/>
<polygon fill="midnightblue" stroke="midnightblue" points="569.427,-113.627 579.766,-111.313 570.241,-106.674 569.427,-113.627"/>
</g>
<!-- Node6 -->
<g id="node6" class="node"><title>Node6</title>
<g id="a_node6"><a xlink:href="../../d6/d34/classmodel_1_1_turtle.html#a65a22c7a1a7abfbc46a6f339479e7646" target="_top" xlink:title="model.Turtle.setStroke">
<polygon fill="white" stroke="black" points="592.5,-66.5 592.5,-85.5 717.5,-85.5 717.5,-66.5 592.5,-66.5"/>
<text text-anchor="middle" x="655" y="-73.5" font-family="Helvetica,sans-Serif" font-size="10.00">model.Turtle.setStroke</text>
</a>
</g>
</g>
<!-- Node3&#45;&gt;Node6 -->
<g id="edge5" class="edge"><title>Node3&#45;&gt;Node6</title>
<path fill="none" stroke="midnightblue" d="M544.096,-88.8611C556.832,-87.3707 569.97,-85.8333 582.537,-84.3627"/>
<polygon fill="midnightblue" stroke="midnightblue" points="582.949,-87.8385 592.474,-83.1998 582.135,-80.8859 582.949,-87.8385"/>
</g>
<!-- Node5 -->
<g id="node5" class="node"><title>Node5</title>
<g id="a_node5"><a xlink:href="../../d6/d34/classmodel_1_1_turtle.html#a27ce4fa61b6e292b1cfff08d511e7fc4" target="_top" xlink:title="model.Turtle.setImage">
<polygon fill="white" stroke="black" points="766.5,-110.5 766.5,-129.5 889.5,-129.5 889.5,-110.5 766.5,-110.5"/>
<text text-anchor="middle" x="828" y="-117.5" font-family="Helvetica,sans-Serif" font-size="10.00">model.Turtle.setImage</text>
</a>
</g>
</g>
<!-- Node4&#45;&gt;Node5 -->
<g id="edge4" class="edge"><title>Node4&#45;&gt;Node5</title>
<path fill="none" stroke="midnightblue" d="M730.009,-120C738.702,-120 747.557,-120 756.205,-120"/>
<polygon fill="midnightblue" stroke="midnightblue" points="756.24,-123.5 766.24,-120 756.24,-116.5 756.24,-123.5"/>
</g>
<!-- Node7 -->
<g id="node7" class="node"><title>Node7</title>
<g id="a_node7"><a xlink:href="../../de/ded/classmodel_1_1_pen.html#a00c08e5bfc9d04986e0ff7ae4ceae10b" target="_top" xlink:title="model.Pen.setStroke">
<polygon fill="white" stroke="black" points="769.5,-66.5 769.5,-85.5 886.5,-85.5 886.5,-66.5 769.5,-66.5"/>
<text text-anchor="middle" x="828" y="-73.5" font-family="Helvetica,sans-Serif" font-size="10.00">model.Pen.setStroke</text>
</a>
</g>
</g>
<!-- Node6&#45;&gt;Node7 -->
<g id="edge6" class="edge"><title>Node6&#45;&gt;Node7</title>
<path fill="none" stroke="midnightblue" d="M717.735,-76C731.152,-76 745.417,-76 759.059,-76"/>
<polygon fill="midnightblue" stroke="midnightblue" points="759.346,-79.5001 769.346,-76 759.346,-72.5001 759.346,-79.5001"/>
</g>
<!-- Node10 -->
<g id="node10" class="node"><title>Node10</title>
<g id="a_node10"><a xlink:href="../../d8/dff/classmodel_1_1_turtle_manager.html#a8679aef13c1e2b3d695b1467c2bb5e9f" target="_top" xlink:title="model.TurtleManager.update">
<polygon fill="white" stroke="black" points="388.5,-0.5 388.5,-19.5 541.5,-19.5 541.5,-0.5 388.5,-0.5"/>
<text text-anchor="middle" x="465" y="-7.5" font-family="Helvetica,sans-Serif" font-size="10.00">model.TurtleManager.update</text>
</a>
</g>
</g>
<!-- Node9&#45;&gt;Node10 -->
<g id="edge9" class="edge"><title>Node9&#45;&gt;Node10</title>
<path fill="none" stroke="midnightblue" d="M347.057,-11.8272C357.233,-11.6682 367.739,-11.5041 378.087,-11.3424"/>
<polygon fill="midnightblue" stroke="midnightblue" points="378.42,-14.8377 388.364,-11.1818 378.31,-7.83857 378.42,-14.8377"/>
</g>
</g>
</svg>
        <g id="navigator" transform="translate(0 0)" fill="#404254">
                <rect fill="#f2f5e9" fill-opacity="0.5" stroke="#606060" stroke-width=".5" x="0" y="0" width="60" height="60"/>
                <use id="zoomplus" xlink:href="#zoomPlus" x="17" y="9" onmousedown="handleZoom(evt,'in')"/>
                <use id="zoomminus" xlink:href="#zoomMin" x="42" y="9" onmousedown="handleZoom(evt,'out')"/>
                <use id="reset" xlink:href="#resetDef" x="30" y="36" onmousedown="handleReset()"/>
                <g id="arrowUp" xlink:href="#dirArrow" transform="translate(30 24)" onmousedown="handlePan(0,-1)">
                  <use xlink:href="#rim" fill="#404040">
                        <set attributeName="fill" to="#808080" begin="arrowUp.mouseover" end="arrowUp.mouseout"/>
                  </use>
                  <path fill="none" stroke="white" stroke-width="1.5" d="M0,-3.0v7 M-2.5,-0.5L0,-3.0L2.5,-0.5"/>
                </g>
                <g id="arrowRight" xlink:href="#dirArrow" transform="rotate(90) translate(36 -43)" onmousedown="handlePan(1,0)">
                  <use xlink:href="#rim" fill="#404040">
                        <set attributeName="fill" to="#808080" begin="arrowRight.mouseover" end="arrowRight.mouseout"/>
                  </use>
                  <path fill="none" stroke="white" stroke-width="1.5" d="M0,-3.0v7 M-2.5,-0.5L0,-3.0L2.5,-0.5"/>
                </g>
                <g id="arrowDown" xlink:href="#dirArrow" transform="rotate(180) translate(-30 -48)" onmousedown="handlePan(0,1)">
                  <use xlink:href="#rim" fill="#404040">
                        <set attributeName="fill" to="#808080" begin="arrowDown.mouseover" end="arrowDown.mouseout"/>
                  </use>
                  <path fill="none" stroke="white" stroke-width="1.5" d="M0,-3.0v7 M-2.5,-0.5L0,-3.0L2.5,-0.5"/>
                </g>
                <g id="arrowLeft" xlink:href="#dirArrow" transform="rotate(270) translate(-36 17)" onmousedown="handlePan(-1,0)">
                  <use xlink:href="#rim" fill="#404040">
                        <set attributeName="fill" to="#808080" begin="arrowLeft.mouseover" end="arrowLeft.mouseout"/>
                  </use>
                  <path fill="none" stroke="white" stroke-width="1.5" d="M0,-3.0v7 M-2.5,-0.5L0,-3.0L2.5,-0.5"/>
                </g>
        </g>
        <svg viewBox="0 0 15 15" width="100%" height="30px" preserveAspectRatio="xMaxYMin meet">
         <g id="arrow_out" transform="scale(0.3 0.3)">
          <a xlink:href="classcontroller_1_1_workspace_abceb71fe227a560303f42bb77b0a1113_cgraph_org.svg" target="_base">
           <rect id="button" ry="5" rx="5" y="6" x="6" height="38" width="38"
                fill="#f2f5e9" fill-opacity="0.5" stroke="#606060" stroke-width="1.0"/>
           <path id="arrow"
             d="M 11.500037,31.436501 C 11.940474,20.09759 22.043105,11.32322 32.158766,21.979434 L 37.068811,17.246167 C 37.068811,17.246167 37.088388,32 37.088388,32 L 22.160133,31.978069 C 22.160133,31.978069 26.997745,27.140456 26.997745,27.140456 C 18.528582,18.264221 13.291696,25.230495 11.500037,31.436501 z"
             style="fill:#404040;"/>
          </a>
         </g>
        </svg>
</svg>
