<?xml version="1.0" encoding="UTF-8" standalone="no"?>
<!DOCTYPE svg PUBLIC "-//W3C//DTD SVG 1.1//EN"
 "http://www.w3.org/Graphics/SVG/1.1/DTD/svg11.dtd">
<!-- Generated by graphviz version 2.36.0 (20140111.2315)
 -->
<!-- Title: controller.Workspace.addTurtleImage Pages: 1 -->
<svg width="730pt" height="38pt"
 viewBox="0.00 0.00 730.00 38.00" xmlns="http://www.w3.org/2000/svg" xmlns:xlink="http://www.w3.org/1999/xlink">
<g id="graph0" class="graph" transform="scale(1 1) rotate(0) translate(4 34)">
<title>controller.Workspace.addTurtleImage</title>
<polygon fill="white" stroke="none" points="-4,4 -4,-34 726,-34 726,4 -4,4"/>
<!-- Node1 -->
<g id="node1" class="node"><title>Node1</title>
<polygon fill="#bfbfbf" stroke="black" points="0,-0 0,-30 136,-30 136,-0 0,-0"/>
<text text-anchor="start" x="8" y="-18" font-family="Helvetica,sans-Serif" font-size="10.00">controller.Workspace.add</text>
<text text-anchor="middle" x="68" y="-7" font-family="Helvetica,sans-Serif" font-size="10.00">TurtleImage</text>
</g>
<!-- Node2 -->
<g id="node2" class="node"><title>Node2</title>
<g id="a_node2"><a xlink:href="../../d8/dff/classmodel_1_1_turtle_manager.html#a14022290b69ac8fd9c2e1530798a3a44" target="_top" xlink:title="model.TurtleManager.addTurtle\lImage">
<polygon fill="white" stroke="black" points="172.5,-0 172.5,-30 335.5,-30 335.5,-0 172.5,-0"/>
<text text-anchor="start" x="180.5" y="-18" font-family="Helvetica,sans-Serif" font-size="10.00">model.TurtleManager.addTurtle</text>
<text text-anchor="middle" x="254" y="-7" font-family="Helvetica,sans-Serif" font-size="10.00">Image</text>
</a>
</g>
</g>
<!-- Node1&#45;&gt;Node2 -->
<g id="edge1" class="edge"><title>Node1&#45;&gt;Node2</title>
<path fill="none" stroke="midnightblue" d="M136.209,-15C144.621,-15 153.332,-15 162.03,-15"/>
<polygon fill="midnightblue" stroke="midnightblue" points="162.217,-18.5001 172.216,-15 162.216,-11.5001 162.217,-18.5001"/>
</g>
<!-- Node3 -->
<g id="node3" class="node"><title>Node3</title>
<g id="a_node3"><a xlink:href="../../d3/dcf/classview_1_1components_1_1_error_box.html#aca5c0d49cf82077b4e67e4e32f311a64" target="_top" xlink:title="view.components.ErrorBox.show\lError">
<polygon fill="white" stroke="black" points="372,-0 372,-30 542,-30 542,-0 372,-0"/>
<text text-anchor="start" x="380" y="-18" font-family="Helvetica,sans-Serif" font-size="10.00">view.components.ErrorBox.show</text>
<text text-anchor="middle" x="457" y="-7" font-family="Helvetica,sans-Serif" font-size="10.00">Error</text>
</a>
</g>
</g>
<!-- Node2&#45;&gt;Node3 -->
<g id="edge2" class="edge"><title>Node2&#45;&gt;Node3</title>
<path fill="none" stroke="midnightblue" d="M335.596,-15C344.153,-15 352.91,-15 361.606,-15"/>
<polygon fill="midnightblue" stroke="midnightblue" points="361.77,-18.5001 371.77,-15 361.77,-11.5001 361.77,-18.5001"/>
</g>
<!-- Node4 -->
<g id="node4" class="node"><title>Node4</title>
<g id="a_node4"><a xlink:href="../../dd/d60/enumview_1_1components_1_1_error.html#aaaf045ebafea6177dfa658991af59af8" target="_top" xlink:title="view.components.Error.get\lMessage">
<polygon fill="white" stroke="black" points="578.5,-0 578.5,-30 721.5,-30 721.5,-0 578.5,-0"/>
<text text-anchor="start" x="586.5" y="-18" font-family="Helvetica,sans-Serif" font-size="10.00">view.components.Error.get</text>
<text text-anchor="middle" x="650" y="-7" font-family="Helvetica,sans-Serif" font-size="10.00">Message</text>
</a>
</g>
</g>
<!-- Node3&#45;&gt;Node4 -->
<g id="edge3" class="edge"><title>Node3&#45;&gt;Node4</title>
<path fill="none" stroke="midnightblue" d="M542.053,-15C550.758,-15 559.59,-15 568.257,-15"/>
<polygon fill="midnightblue" stroke="midnightblue" points="568.337,-18.5001 578.337,-15 568.337,-11.5001 568.337,-18.5001"/>
</g>
</g>
</svg>
