<?xml version="1.0" encoding="UTF-8" standalone="no"?>
<!DOCTYPE svg PUBLIC "-//W3C//DTD SVG 1.1//EN"
 "http://www.w3.org/Graphics/SVG/1.1/DTD/svg11.dtd">
<!-- Generated by graphviz version 2.36.0 (20140111.2315)
 -->
<!-- Title: controller.Workspace.paint Pages: 1 -->
<svg width="1158pt" height="343pt"
 viewBox="0.00 0.00 1158.00 343.00" xmlns="http://www.w3.org/2000/svg" xmlns:xlink="http://www.w3.org/1999/xlink">
<g id="graph0" class="graph" transform="scale(1 1) rotate(0) translate(4 339)">
<title>controller.Workspace.paint</title>
<polygon fill="white" stroke="none" points="-4,4 -4,-339 1154,-339 1154,4 -4,4"/>
<!-- Node1 -->
<g id="node1" class="node"><title>Node1</title>
<polygon fill="#bfbfbf" stroke="black" points="0,-133.5 0,-152.5 142,-152.5 142,-133.5 0,-133.5"/>
<text text-anchor="middle" x="71" y="-140.5" font-family="Helvetica,sans-Serif" font-size="10.00">controller.Workspace.paint</text>
</g>
<!-- Node2 -->
<g id="node2" class="node"><title>Node2</title>
<g id="a_node2"><a xlink:href="../../d8/dff/classmodel_1_1_turtle_manager.html#a7f2863fbe8420cb5859ab922bd866b1d" target="_top" xlink:title="model.TurtleManager.paint">
<polygon fill="white" stroke="black" points="178.5,-133.5 178.5,-152.5 321.5,-152.5 321.5,-133.5 178.5,-133.5"/>
<text text-anchor="middle" x="250" y="-140.5" font-family="Helvetica,sans-Serif" font-size="10.00">model.TurtleManager.paint</text>
</a>
</g>
</g>
<!-- Node1&#45;&gt;Node2 -->
<g id="edge1" class="edge"><title>Node1&#45;&gt;Node2</title>
<path fill="none" stroke="midnightblue" d="M142.209,-143C150.742,-143 159.512,-143 168.183,-143"/>
<polygon fill="midnightblue" stroke="midnightblue" points="168.296,-146.5 178.296,-143 168.296,-139.5 168.296,-146.5"/>
</g>
<!-- Node3 -->
<g id="node3" class="node"><title>Node3</title>
<g id="a_node3"><a xlink:href="../../d6/d34/classmodel_1_1_turtle.html#aeeab176e64d1ad18647e37aee02affc7" target="_top" xlink:title="model.Turtle.getPainting\lPoint">
<polygon fill="white" stroke="black" points="521.5,-305 521.5,-335 652.5,-335 652.5,-305 521.5,-305"/>
<text text-anchor="start" x="529.5" y="-323" font-family="Helvetica,sans-Serif" font-size="10.00">model.Turtle.getPainting</text>
<text text-anchor="middle" x="587" y="-312" font-family="Helvetica,sans-Serif" font-size="10.00">Point</text>
</a>
</g>
</g>
<!-- Node2&#45;&gt;Node3 -->
<g id="edge2" class="edge"><title>Node2&#45;&gt;Node3</title>
<path fill="none" stroke="midnightblue" d="M254.761,-152.637C265.858,-179.646 301.287,-256.296 358,-290 403.964,-317.316 464.234,-324.262 511.264,-324.675"/>
<polygon fill="midnightblue" stroke="midnightblue" points="511.395,-328.175 521.391,-324.666 511.388,-321.175 511.395,-328.175"/>
</g>
<!-- Node9 -->
<g id="node9" class="node"><title>Node9</title>
<g id="a_node9"><a xlink:href="../../d7/d1e/classutil_1_1_location.html#a232168bda0ff164c4721dea19a7630d8" target="_top" xlink:title="util.Location.getIntX">
<polygon fill="white" stroke="black" points="861.5,-230.5 861.5,-249.5 972.5,-249.5 972.5,-230.5 861.5,-230.5"/>
<text text-anchor="middle" x="917" y="-237.5" font-family="Helvetica,sans-Serif" font-size="10.00">util.Location.getIntX</text>
</a>
</g>
</g>
<!-- Node2&#45;&gt;Node9 -->
<g id="edge10" class="edge"><title>Node2&#45;&gt;Node9</title>
<path fill="none" stroke="midnightblue" d="M265.992,-152.642C286.16,-165.218 323.489,-187.128 358,-200 527.039,-263.05 744.561,-255.66 851.203,-246.859"/>
<polygon fill="midnightblue" stroke="midnightblue" points="851.507,-250.345 861.172,-246.005 850.91,-243.371 851.507,-250.345"/>
</g>
<!-- Node10 -->
<g id="node10" class="node"><title>Node10</title>
<g id="a_node10"><a xlink:href="../../d7/d1e/classutil_1_1_location.html#a1157d4dc33776ed2764c74e0f8390abe" target="_top" xlink:title="util.Location.getIntY">
<polygon fill="white" stroke="black" points="862,-191.5 862,-210.5 972,-210.5 972,-191.5 862,-191.5"/>
<text text-anchor="middle" x="917" y="-198.5" font-family="Helvetica,sans-Serif" font-size="10.00">util.Location.getIntY</text>
</a>
</g>
</g>
<!-- Node2&#45;&gt;Node10 -->
<g id="edge11" class="edge"><title>Node2&#45;&gt;Node10</title>
<path fill="none" stroke="midnightblue" d="M301.337,-133.44C402.078,-116.363 634.553,-87.3348 818,-143 847.398,-151.92 877.214,-171.381 896.11,-185.3"/>
<polygon fill="midnightblue" stroke="midnightblue" points="894.133,-188.193 904.221,-191.432 898.355,-182.609 894.133,-188.193"/>
</g>
<!-- Node11 -->
<g id="node11" class="node"><title>Node11</title>
<g id="a_node11"><a xlink:href="../../d6/d34/classmodel_1_1_turtle.html#a0964938bdc49bef0e66ae0caa10cf83b" target="_top" xlink:title="model.Turtle.getWidth">
<polygon fill="white" stroke="black" points="361,-38.5 361,-57.5 481,-57.5 481,-38.5 361,-38.5"/>
<text text-anchor="middle" x="421" y="-45.5" font-family="Helvetica,sans-Serif" font-size="10.00">model.Turtle.getWidth</text>
</a>
</g>
</g>
<!-- Node2&#45;&gt;Node11 -->
<g id="edge12" class="edge"><title>Node2&#45;&gt;Node11</title>
<path fill="none" stroke="midnightblue" d="M263.62,-133.307C283.086,-118.668 321.965,-90.6499 358,-72 365.662,-68.0343 374.136,-64.3383 382.294,-61.0926"/>
<polygon fill="midnightblue" stroke="midnightblue" points="383.576,-64.3498 391.658,-57.5001 381.068,-57.8143 383.576,-64.3498"/>
</g>
<!-- Node12 -->
<g id="node12" class="node"><title>Node12</title>
<g id="a_node12"><a xlink:href="../../d6/d34/classmodel_1_1_turtle.html#a9ee77f6669ced6a76546ab85d6cce1c5" target="_top" xlink:title="model.Turtle.getHeight">
<polygon fill="white" stroke="black" points="358.5,-0.5 358.5,-19.5 483.5,-19.5 483.5,-0.5 358.5,-0.5"/>
<text text-anchor="middle" x="421" y="-7.5" font-family="Helvetica,sans-Serif" font-size="10.00">model.Turtle.getHeight</text>
</a>
</g>
</g>
<!-- Node2&#45;&gt;Node12 -->
<g id="edge13" class="edge"><title>Node2&#45;&gt;Node12</title>
<path fill="none" stroke="midnightblue" d="M257.282,-133.47C272.14,-111.675 311.694,-57.8522 358,-29 361.344,-26.9163 364.933,-25.0472 368.637,-23.373"/>
<polygon fill="midnightblue" stroke="midnightblue" points="370.037,-26.5823 378.007,-19.6015 367.423,-20.0886 370.037,-26.5823"/>
</g>
<!-- Node13 -->
<g id="node13" class="node"><title>Node13</title>
<g id="a_node13"><a xlink:href="../../d6/d34/classmodel_1_1_turtle.html#a7d850c710649567ac20161f847b2ad11" target="_top" xlink:title="model.Turtle.paint">
<polygon fill="white" stroke="black" points="370,-171.5 370,-190.5 472,-190.5 472,-171.5 370,-171.5"/>
<text text-anchor="middle" x="421" y="-178.5" font-family="Helvetica,sans-Serif" font-size="10.00">model.Turtle.paint</text>
</a>
</g>
</g>
<!-- Node2&#45;&gt;Node13 -->
<g id="edge14" class="edge"><title>Node2&#45;&gt;Node13</title>
<path fill="none" stroke="midnightblue" d="M293.646,-152.589C316.148,-157.649 343.948,-163.9 367.738,-169.249"/>
<polygon fill="midnightblue" stroke="midnightblue" points="367.137,-172.701 377.661,-171.48 368.672,-165.871 367.137,-172.701"/>
</g>
<!-- Node4 -->
<g id="node4" class="node"><title>Node4</title>
<g id="a_node4"><a xlink:href="../../d7/d1e/classutil_1_1_location.html#a82f3e59d7d3e3d46df862be2e63c80e3" target="_top" xlink:title="util.Location.translate">
<polygon fill="white" stroke="black" points="694,-307.5 694,-326.5 814,-326.5 814,-307.5 694,-307.5"/>
<text text-anchor="middle" x="754" y="-314.5" font-family="Helvetica,sans-Serif" font-size="10.00">util.Location.translate</text>
</a>
</g>
</g>
<!-- Node3&#45;&gt;Node4 -->
<g id="edge3" class="edge"><title>Node3&#45;&gt;Node4</title>
<path fill="none" stroke="midnightblue" d="M652.739,-318.823C662.896,-318.638 673.43,-318.447 683.685,-318.26"/>
<polygon fill="midnightblue" stroke="midnightblue" points="683.888,-321.757 693.823,-318.076 683.761,-314.758 683.888,-321.757"/>
</g>
<!-- Node5 -->
<g id="node5" class="node"><title>Node5</title>
<g id="a_node5"><a xlink:href="../../d4/d67/classutil_1_1_vector.html#a3509d652ff8c361b07447f55e0007f31" target="_top" xlink:title="util.Vector.getXChange">
<polygon fill="white" stroke="black" points="854.5,-307.5 854.5,-326.5 979.5,-326.5 979.5,-307.5 854.5,-307.5"/>
<text text-anchor="middle" x="917" y="-314.5" font-family="Helvetica,sans-Serif" font-size="10.00">util.Vector.getXChange</text>
</a>
</g>
</g>
<!-- Node4&#45;&gt;Node5 -->
<g id="edge4" class="edge"><title>Node4&#45;&gt;Node5</title>
<path fill="none" stroke="midnightblue" d="M814.036,-317C823.863,-317 834.151,-317 844.252,-317"/>
<polygon fill="midnightblue" stroke="midnightblue" points="844.268,-320.5 854.268,-317 844.268,-313.5 844.268,-320.5"/>
</g>
<!-- Node8 -->
<g id="node8" class="node"><title>Node8</title>
<g id="a_node8"><a xlink:href="../../d4/d67/classutil_1_1_vector.html#aca15e89ce2edd3e93dcb73621c26237f" target="_top" xlink:title="util.Vector.getYChange">
<polygon fill="white" stroke="black" points="855,-269.5 855,-288.5 979,-288.5 979,-269.5 855,-269.5"/>
<text text-anchor="middle" x="917" y="-276.5" font-family="Helvetica,sans-Serif" font-size="10.00">util.Vector.getYChange</text>
</a>
</g>
</g>
<!-- Node4&#45;&gt;Node8 -->
<g id="edge7" class="edge"><title>Node4&#45;&gt;Node8</title>
<path fill="none" stroke="midnightblue" d="M795.627,-307.411C816.968,-302.374 843.312,-296.156 865.908,-290.823"/>
<polygon fill="midnightblue" stroke="midnightblue" points="866.736,-294.224 875.665,-288.52 865.128,-287.411 866.736,-294.224"/>
</g>
<!-- Node6 -->
<g id="node6" class="node"><title>Node6</title>
<g id="a_node6"><a xlink:href="../../d4/d67/classutil_1_1_vector.html#afa760c6d12c93fbfcfacd6e279d08d88" target="_top" xlink:title="util.Vector.getMagnitude">
<polygon fill="white" stroke="black" points="1016.5,-307.5 1016.5,-326.5 1149.5,-326.5 1149.5,-307.5 1016.5,-307.5"/>
<text text-anchor="middle" x="1083" y="-314.5" font-family="Helvetica,sans-Serif" font-size="10.00">util.Vector.getMagnitude</text>
</a>
</g>
</g>
<!-- Node5&#45;&gt;Node6 -->
<g id="edge5" class="edge"><title>Node5&#45;&gt;Node6</title>
<path fill="none" stroke="midnightblue" d="M979.534,-317C988.251,-317 997.298,-317 1006.24,-317"/>
<polygon fill="midnightblue" stroke="midnightblue" points="1006.28,-320.5 1016.28,-317 1006.28,-313.5 1006.28,-320.5"/>
</g>
<!-- Node7 -->
<g id="node7" class="node"><title>Node7</title>
<g id="a_node7"><a xlink:href="../../d4/d67/classutil_1_1_vector.html#acebe00e22995a3514458ffa3db195295" target="_top" xlink:title="util.Vector.getDirection">
<polygon fill="white" stroke="black" points="1020.5,-269.5 1020.5,-288.5 1145.5,-288.5 1145.5,-269.5 1020.5,-269.5"/>
<text text-anchor="middle" x="1083" y="-276.5" font-family="Helvetica,sans-Serif" font-size="10.00">util.Vector.getDirection</text>
</a>
</g>
</g>
<!-- Node5&#45;&gt;Node7 -->
<g id="edge6" class="edge"><title>Node5&#45;&gt;Node7</title>
<path fill="none" stroke="midnightblue" d="M959.384,-307.411C981.123,-302.374 1007.96,-296.156 1030.97,-290.823"/>
<polygon fill="midnightblue" stroke="midnightblue" points="1031.96,-294.187 1040.91,-288.52 1030.38,-287.368 1031.96,-294.187"/>
</g>
<!-- Node8&#45;&gt;Node6 -->
<g id="edge8" class="edge"><title>Node8&#45;&gt;Node6</title>
<path fill="none" stroke="midnightblue" d="M959.384,-288.589C981.123,-293.626 1007.96,-299.844 1030.97,-305.177"/>
<polygon fill="midnightblue" stroke="midnightblue" points="1030.38,-308.632 1040.91,-307.48 1031.96,-301.813 1030.38,-308.632"/>
</g>
<!-- Node8&#45;&gt;Node7 -->
<g id="edge9" class="edge"><title>Node8&#45;&gt;Node7</title>
<path fill="none" stroke="midnightblue" d="M979.068,-279C989.176,-279 999.74,-279 1010.09,-279"/>
<polygon fill="midnightblue" stroke="midnightblue" points="1010.33,-282.5 1020.33,-279 1010.33,-275.5 1010.33,-282.5"/>
</g>
<!-- Node13&#45;&gt;Node3 -->
<g id="edge16" class="edge"><title>Node13&#45;&gt;Node3</title>
<path fill="none" stroke="midnightblue" d="M433.272,-190.554C459.309,-212.622 524.171,-267.596 560.435,-298.332"/>
<polygon fill="midnightblue" stroke="midnightblue" points="558.251,-301.069 568.143,-304.865 562.777,-295.729 558.251,-301.069"/>
</g>
<!-- Node14 -->
<g id="node14" class="node"><title>Node14</title>
<g id="a_node14"><a xlink:href="../../de/ded/classmodel_1_1_pen.html#aae048b738178ae20513d49cbd5a3740c" target="_top" xlink:title="model.Pen.paint">
<polygon fill="white" stroke="black" points="539.5,-190.5 539.5,-209.5 634.5,-209.5 634.5,-190.5 539.5,-190.5"/>
<text text-anchor="middle" x="587" y="-197.5" font-family="Helvetica,sans-Serif" font-size="10.00">model.Pen.paint</text>
</a>
</g>
</g>
<!-- Node13&#45;&gt;Node14 -->
<g id="edge15" class="edge"><title>Node13&#45;&gt;Node14</title>
<path fill="none" stroke="midnightblue" d="M472.097,-186.804C490.138,-188.894 510.621,-191.267 529.195,-193.419"/>
<polygon fill="midnightblue" stroke="midnightblue" points="528.952,-196.914 539.289,-194.588 529.758,-189.961 528.952,-196.914"/>
</g>
<!-- Node15 -->
<g id="node15" class="node"><title>Node15</title>
<g id="a_node15"><a xlink:href="../../d6/d34/classmodel_1_1_turtle.html#ad0ffa5dc7c5e9876e0083f4232035679" target="_top" xlink:title="model.Turtle.transform">
<polygon fill="white" stroke="black" points="691.5,-152.5 691.5,-171.5 816.5,-171.5 816.5,-152.5 691.5,-152.5"/>
<text text-anchor="middle" x="754" y="-159.5" font-family="Helvetica,sans-Serif" font-size="10.00">model.Turtle.transform</text>
</a>
</g>
</g>
<!-- Node13&#45;&gt;Node15 -->
<g id="edge17" class="edge"><title>Node13&#45;&gt;Node15</title>
<path fill="none" stroke="midnightblue" d="M440.54,-171.417C459.805,-162.04 491.122,-148.403 520,-143 582.625,-131.283 656.06,-141.081 703.498,-150.413"/>
<polygon fill="midnightblue" stroke="midnightblue" points="703.009,-153.885 713.506,-152.451 704.405,-147.026 703.009,-153.885"/>
</g>
<!-- Node16 -->
<g id="node16" class="node"><title>Node16</title>
<g id="a_node16"><a xlink:href="../../d6/d34/classmodel_1_1_turtle.html#a91368e42c1530a73f909499d8d7b8ef3" target="_top" xlink:title="model.Turtle.paintTurtle">
<polygon fill="white" stroke="black" points="690,-211.5 690,-230.5 818,-230.5 818,-211.5 690,-211.5"/>
<text text-anchor="middle" x="754" y="-218.5" font-family="Helvetica,sans-Serif" font-size="10.00">model.Turtle.paintTurtle</text>
</a>
</g>
</g>
<!-- Node13&#45;&gt;Node16 -->
<g id="edge19" class="edge"><title>Node13&#45;&gt;Node16</title>
<path fill="none" stroke="midnightblue" d="M440.55,-190.532C459.823,-199.868 491.145,-213.473 520,-219 572.635,-229.082 633.192,-229.264 679.376,-227.094"/>
<polygon fill="midnightblue" stroke="midnightblue" points="679.792,-230.577 689.598,-226.564 679.43,-223.586 679.792,-230.577"/>
</g>
<!-- Node17 -->
<g id="node17" class="node"><title>Node17</title>
<g id="a_node17"><a xlink:href="../../d6/d34/classmodel_1_1_turtle.html#aae6d22acacfa7bd29fb818f4f9dd3d2e" target="_top" xlink:title="model.Turtle.paintStamp">
<polygon fill="white" stroke="black" points="520,-152.5 520,-171.5 654,-171.5 654,-152.5 520,-152.5"/>
<text text-anchor="middle" x="587" y="-159.5" font-family="Helvetica,sans-Serif" font-size="10.00">model.Turtle.paintStamp</text>
</a>
</g>
</g>
<!-- Node13&#45;&gt;Node17 -->
<g id="edge22" class="edge"><title>Node13&#45;&gt;Node17</title>
<path fill="none" stroke="midnightblue" d="M472.097,-175.196C483.989,-173.818 496.942,-172.318 509.71,-170.838"/>
<polygon fill="midnightblue" stroke="midnightblue" points="510.355,-174.287 519.886,-169.66 509.549,-167.334 510.355,-174.287"/>
</g>
<!-- Node15&#45;&gt;Node7 -->
<g id="edge18" class="edge"><title>Node15&#45;&gt;Node7</title>
<path fill="none" stroke="midnightblue" d="M816.967,-156.78C863.781,-155.322 928.54,-158.743 980,-182 1018.92,-199.592 1052.25,-238.383 1069.47,-261.222"/>
<polygon fill="midnightblue" stroke="midnightblue" points="1066.72,-263.39 1075.46,-269.388 1072.37,-259.253 1066.72,-263.39"/>
</g>
<!-- Node16&#45;&gt;Node9 -->
<g id="edge20" class="edge"><title>Node16&#45;&gt;Node9</title>
<path fill="none" stroke="midnightblue" d="M818.169,-228.455C828.985,-229.731 840.238,-231.059 851.097,-232.341"/>
<polygon fill="midnightblue" stroke="midnightblue" points="851.02,-235.856 861.361,-233.552 851.84,-228.904 851.02,-235.856"/>
</g>
<!-- Node16&#45;&gt;Node10 -->
<g id="edge21" class="edge"><title>Node16&#45;&gt;Node10</title>
<path fill="none" stroke="midnightblue" d="M818.169,-213.153C829.231,-211.779 840.751,-210.348 851.839,-208.97"/>
<polygon fill="midnightblue" stroke="midnightblue" points="852.383,-212.43 861.875,-207.724 851.52,-205.483 852.383,-212.43"/>
</g>
<!-- Node17&#45;&gt;Node15 -->
<g id="edge23" class="edge"><title>Node17&#45;&gt;Node15</title>
<path fill="none" stroke="midnightblue" d="M654.161,-162C663.085,-162 672.276,-162 681.291,-162"/>
<polygon fill="midnightblue" stroke="midnightblue" points="681.371,-165.5 691.371,-162 681.371,-158.5 681.371,-165.5"/>
</g>
<!-- Node17&#45;&gt;Node16 -->
<g id="edge24" class="edge"><title>Node17&#45;&gt;Node16</title>
<path fill="none" stroke="midnightblue" d="M623.835,-171.585C633.677,-174.415 644.306,-177.656 654,-181 677.087,-188.963 702.63,-199.324 721.988,-207.505"/>
<polygon fill="midnightblue" stroke="midnightblue" points="720.656,-210.742 731.228,-211.443 723.401,-204.303 720.656,-210.742"/>
</g>
</g>
</svg>
