<?xml version="1.0" encoding="UTF-8" standalone="no"?>
<!DOCTYPE svg PUBLIC "-//W3C//DTD SVG 1.1//EN"
 "http://www.w3.org/Graphics/SVG/1.1/DTD/svg11.dtd">
<!-- Generated by graphviz version 2.36.0 (20140111.2315)
 -->
<!-- Title: controller.Workspace.addHistory Pages: 1 -->
<svg width="886pt" height="153pt"
 viewBox="0.00 0.00 886.00 153.00" xmlns="http://www.w3.org/2000/svg" xmlns:xlink="http://www.w3.org/1999/xlink">
<g id="graph0" class="graph" transform="scale(1 1) rotate(0) translate(4 149)">
<title>controller.Workspace.addHistory</title>
<polygon fill="white" stroke="none" points="-4,4 -4,-149 882,-149 882,4 -4,4"/>
<!-- Node1 -->
<g id="node1" class="node"><title>Node1</title>
<polygon fill="#bfbfbf" stroke="black" points="0,-49 0,-79 136,-79 136,-49 0,-49"/>
<text text-anchor="start" x="8" y="-67" font-family="Helvetica,sans-Serif" font-size="10.00">controller.Workspace.add</text>
<text text-anchor="middle" x="68" y="-56" font-family="Helvetica,sans-Serif" font-size="10.00">History</text>
</g>
<!-- Node2 -->
<g id="node2" class="node"><title>Node2</title>
<g id="a_node2"><a xlink:href="../../d9/df7/classcontroller_1_1_controller.html#a028264f3c286e8e1a2d897dda5ff0b53" target="_top" xlink:title="controller.Controller.create\lEditMenu">
<polygon fill="white" stroke="black" points="355.5,-115 355.5,-145 498.5,-145 498.5,-115 355.5,-115"/>
<text text-anchor="start" x="363.5" y="-133" font-family="Helvetica,sans-Serif" font-size="10.00">controller.Controller.create</text>
<text text-anchor="middle" x="427" y="-122" font-family="Helvetica,sans-Serif" font-size="10.00">EditMenu</text>
</a>
</g>
</g>
<!-- Node1&#45;&gt;Node2 -->
<g id="edge1" class="edge"><title>Node1&#45;&gt;Node2</title>
<path fill="none" stroke="midnightblue" d="M102.613,-83.971C122.167,-94.5553 147.686,-106.651 172,-113 232.508,-128.801 303.727,-132.328 355.331,-132.323"/>
<polygon fill="midnightblue" stroke="midnightblue" points="104.242,-80.8727 93.7994,-79.0848 100.848,-86.9947 104.242,-80.8727"/>
</g>
<!-- Node5 -->
<g id="node5" class="node"><title>Node5</title>
<g id="a_node5"><a xlink:href="../../d9/df7/classcontroller_1_1_controller.html#a19e3ac02ba1459ff9e16013584ba0ae5" target="_top" xlink:title="controller.Controller.create\lPhysicalCommands">
<polygon fill="white" stroke="black" points="172.5,-74 172.5,-104 315.5,-104 315.5,-74 172.5,-74"/>
<text text-anchor="start" x="180.5" y="-92" font-family="Helvetica,sans-Serif" font-size="10.00">controller.Controller.create</text>
<text text-anchor="middle" x="244" y="-81" font-family="Helvetica,sans-Serif" font-size="10.00">PhysicalCommands</text>
</a>
</g>
</g>
<!-- Node1&#45;&gt;Node5 -->
<g id="edge4" class="edge"><title>Node1&#45;&gt;Node5</title>
<path fill="none" stroke="midnightblue" d="M146.38,-75.1178C155.058,-76.3647 163.865,-77.6301 172.451,-78.8636"/>
<polygon fill="midnightblue" stroke="midnightblue" points="146.669,-71.6235 136.273,-73.6657 145.674,-78.5523 146.669,-71.6235"/>
</g>
<!-- Node7 -->
<g id="node7" class="node"><title>Node7</title>
<g id="a_node7"><a xlink:href="../../d9/df7/classcontroller_1_1_controller.html#aaa03ac2d4ba85ce0aea59ded9a2f65b9" target="_top" xlink:title="controller.Controller.create\lVisualCommands">
<polygon fill="white" stroke="black" points="172.5,-25 172.5,-55 315.5,-55 315.5,-25 172.5,-25"/>
<text text-anchor="start" x="180.5" y="-43" font-family="Helvetica,sans-Serif" font-size="10.00">controller.Controller.create</text>
<text text-anchor="middle" x="244" y="-32" font-family="Helvetica,sans-Serif" font-size="10.00">VisualCommands</text>
</a>
</g>
</g>
<!-- Node1&#45;&gt;Node7 -->
<g id="edge7" class="edge"><title>Node1&#45;&gt;Node7</title>
<path fill="none" stroke="midnightblue" d="M146.38,-53.3269C155.058,-52.1299 163.865,-50.9151 172.451,-49.7309"/>
<polygon fill="midnightblue" stroke="midnightblue" points="145.701,-49.8873 136.273,-54.721 146.657,-56.8217 145.701,-49.8873"/>
</g>
<!-- Node8 -->
<g id="node8" class="node"><title>Node8</title>
<g id="a_node8"><a xlink:href="../../d9/df7/classcontroller_1_1_controller.html#a89b63f37e67efbeddda1f247016c837b" target="_top" xlink:title="controller.Controller.process\lCommand">
<polygon fill="white" stroke="black" points="352,-0 352,-30 502,-30 502,-0 352,-0"/>
<text text-anchor="start" x="360" y="-18" font-family="Helvetica,sans-Serif" font-size="10.00">controller.Controller.process</text>
<text text-anchor="middle" x="427" y="-7" font-family="Helvetica,sans-Serif" font-size="10.00">Command</text>
</a>
</g>
</g>
<!-- Node1&#45;&gt;Node8 -->
<g id="edge9" class="edge"><title>Node1&#45;&gt;Node8</title>
<path fill="none" stroke="midnightblue" d="M101.668,-43.846C121.272,-32.952 147.154,-20.6089 172,-15 231.468,-1.57554 300.783,-2.65055 351.966,-6.4796"/>
<polygon fill="midnightblue" stroke="midnightblue" points="99.8027,-40.8809 92.8558,-48.8803 103.275,-46.959 99.8027,-40.8809"/>
</g>
<!-- Node3 -->
<g id="node3" class="node"><title>Node3</title>
<g id="a_node3"><a xlink:href="../../d9/df7/classcontroller_1_1_controller.html#a2901bf43bb8e47b485558dbf00d40d6d" target="_top" xlink:title="controller.Controller.create\lJMenuBar">
<polygon fill="white" stroke="black" points="538.5,-56 538.5,-86 681.5,-86 681.5,-56 538.5,-56"/>
<text text-anchor="start" x="546.5" y="-74" font-family="Helvetica,sans-Serif" font-size="10.00">controller.Controller.create</text>
<text text-anchor="middle" x="610" y="-63" font-family="Helvetica,sans-Serif" font-size="10.00">JMenuBar</text>
</a>
</g>
</g>
<!-- Node2&#45;&gt;Node3 -->
<g id="edge2" class="edge"><title>Node2&#45;&gt;Node3</title>
<path fill="none" stroke="midnightblue" d="M483.65,-111.86C509.065,-103.575 538.808,-93.8803 562.942,-86.0134"/>
<polygon fill="midnightblue" stroke="midnightblue" points="482.565,-108.532 474.142,-114.959 484.735,-115.188 482.565,-108.532"/>
</g>
<!-- Node4 -->
<g id="node4" class="node"><title>Node4</title>
<g id="a_node4"><a xlink:href="../../d9/df7/classcontroller_1_1_controller.html#a47511ec57338c8e75e71e9314cda5271" target="_top" xlink:title="controller.Controller.Controller">
<polygon fill="white" stroke="black" points="718.5,-34.5 718.5,-53.5 877.5,-53.5 877.5,-34.5 718.5,-34.5"/>
<text text-anchor="middle" x="798" y="-41.5" font-family="Helvetica,sans-Serif" font-size="10.00">controller.Controller.Controller</text>
</a>
</g>
</g>
<!-- Node3&#45;&gt;Node4 -->
<g id="edge3" class="edge"><title>Node3&#45;&gt;Node4</title>
<path fill="none" stroke="midnightblue" d="M691.644,-59.2935C704.912,-57.3677 718.52,-55.3922 731.365,-53.5277"/>
<polygon fill="midnightblue" stroke="midnightblue" points="690.977,-55.8536 681.584,-60.754 691.983,-62.781 690.977,-55.8536"/>
</g>
<!-- Node6 -->
<g id="node6" class="node"><title>Node6</title>
<g id="a_node6"><a xlink:href="../../d9/df7/classcontroller_1_1_controller.html#aa81e4dbd87e3f8b9a1c43acb096304dd" target="_top" xlink:title="controller.Controller.create\lCommandMenu">
<polygon fill="white" stroke="black" points="355.5,-56 355.5,-86 498.5,-86 498.5,-56 355.5,-56"/>
<text text-anchor="start" x="363.5" y="-74" font-family="Helvetica,sans-Serif" font-size="10.00">controller.Controller.create</text>
<text text-anchor="middle" x="427" y="-63" font-family="Helvetica,sans-Serif" font-size="10.00">CommandMenu</text>
</a>
</g>
</g>
<!-- Node5&#45;&gt;Node6 -->
<g id="edge5" class="edge"><title>Node5&#45;&gt;Node6</title>
<path fill="none" stroke="midnightblue" d="M325.897,-80.955C335.699,-79.9802 345.653,-78.9903 355.292,-78.0317"/>
<polygon fill="midnightblue" stroke="midnightblue" points="325.362,-77.4909 315.757,-81.9634 326.054,-84.4565 325.362,-77.4909"/>
</g>
<!-- Node6&#45;&gt;Node3 -->
<g id="edge6" class="edge"><title>Node6&#45;&gt;Node3</title>
<path fill="none" stroke="midnightblue" d="M508.897,-71C518.699,-71 528.653,-71 538.292,-71"/>
<polygon fill="midnightblue" stroke="midnightblue" points="508.757,-67.5001 498.757,-71 508.757,-74.5001 508.757,-67.5001"/>
</g>
<!-- Node7&#45;&gt;Node6 -->
<g id="edge8" class="edge"><title>Node7&#45;&gt;Node6</title>
<path fill="none" stroke="midnightblue" d="M325.897,-53.8553C335.699,-55.5341 345.653,-57.2389 355.292,-58.8898"/>
<polygon fill="midnightblue" stroke="midnightblue" points="326.204,-50.357 315.757,-52.1186 325.023,-57.2566 326.204,-50.357"/>
</g>
<!-- Node9 -->
<g id="node9" class="node"><title>Node9</title>
<g id="a_node9"><a xlink:href="../../d9/df7/classcontroller_1_1_controller.html#a2bfb87bca460d87b2c97e0b5045a2175" target="_top" xlink:title="controller.Controller.create\lRunCommandListener">
<polygon fill="white" stroke="black" points="538.5,-2 538.5,-32 681.5,-32 681.5,-2 538.5,-2"/>
<text text-anchor="start" x="546.5" y="-20" font-family="Helvetica,sans-Serif" font-size="10.00">controller.Controller.create</text>
<text text-anchor="middle" x="610" y="-9" font-family="Helvetica,sans-Serif" font-size="10.00">RunCommandListener</text>
</a>
</g>
</g>
<!-- Node8&#45;&gt;Node9 -->
<g id="edge10" class="edge"><title>Node8&#45;&gt;Node9</title>
<path fill="none" stroke="midnightblue" d="M512.348,-15.932C521.09,-16.0286 529.908,-16.1261 538.475,-16.2207"/>
<polygon fill="midnightblue" stroke="midnightblue" points="512.18,-12.43 502.142,-15.8192 512.103,-19.4296 512.18,-12.43"/>
</g>
<!-- Node9&#45;&gt;Node4 -->
<g id="edge11" class="edge"><title>Node9&#45;&gt;Node4</title>
<path fill="none" stroke="midnightblue" d="M691.644,-28.7065C704.912,-30.6323 718.52,-32.6078 731.365,-34.4723"/>
<polygon fill="midnightblue" stroke="midnightblue" points="691.983,-25.219 681.584,-27.246 690.977,-32.1464 691.983,-25.219"/>
</g>
</g>
</svg>
