<?xml version="1.0" encoding="UTF-8" standalone="no"?>
<!DOCTYPE svg PUBLIC "-//W3C//DTD SVG 1.1//EN"
 "http://www.w3.org/Graphics/SVG/1.1/DTD/svg11.dtd">
<!-- Generated by graphviz version 2.36.0 (20140111.2315)
 -->
<!-- Title: view.Window.createWorkspace Pages: 1 -->
<svg width="366pt" height="77pt"
 viewBox="0.00 0.00 366.00 77.00" xmlns="http://www.w3.org/2000/svg" xmlns:xlink="http://www.w3.org/1999/xlink">
<g id="graph0" class="graph" transform="scale(1 1) rotate(0) translate(4 73)">
<title>view.Window.createWorkspace</title>
<polygon fill="white" stroke="none" points="-4,4 -4,-73 362,-73 362,4 -4,4"/>
<!-- Node1 -->
<g id="node1" class="node"><title>Node1</title>
<polygon fill="#bfbfbf" stroke="black" points="0,-22.5 0,-41.5 158,-41.5 158,-22.5 0,-22.5"/>
<text text-anchor="middle" x="79" y="-29.5" font-family="Helvetica,sans-Serif" font-size="10.00">view.Window.createWorkspace</text>
</g>
<!-- Node2 -->
<g id="node2" class="node"><title>Node2</title>
<g id="a_node2"><a xlink:href="../../de/d84/classcontroller_1_1_workspace.html#ab065682c4b66c8e1fb75a534646db637" target="_top" xlink:title="controller.Workspace.get\lCanvas">
<polygon fill="white" stroke="black" points="209,-39 209,-69 343,-69 343,-39 209,-39"/>
<text text-anchor="start" x="217" y="-57" font-family="Helvetica,sans-Serif" font-size="10.00">controller.Workspace.get</text>
<text text-anchor="middle" x="276" y="-46" font-family="Helvetica,sans-Serif" font-size="10.00">Canvas</text>
</a>
</g>
</g>
<!-- Node1&#45;&gt;Node2 -->
<g id="edge1" class="edge"><title>Node1&#45;&gt;Node2</title>
<path fill="none" stroke="midnightblue" d="M158.19,-40.8215C171.531,-42.3266 185.374,-43.8884 198.666,-45.388"/>
<polygon fill="midnightblue" stroke="midnightblue" points="198.376,-48.8774 208.706,-46.5206 199.161,-41.9215 198.376,-48.8774"/>
</g>
<!-- Node3 -->
<g id="node3" class="node"><title>Node3</title>
<g id="a_node3"><a xlink:href="../../de/d84/classcontroller_1_1_workspace.html#a5110314ec43352365fea30dd07941bc7" target="_top" xlink:title="controller.Workspace.getName">
<polygon fill="white" stroke="black" points="194.5,-0.5 194.5,-19.5 357.5,-19.5 357.5,-0.5 194.5,-0.5"/>
<text text-anchor="middle" x="276" y="-7.5" font-family="Helvetica,sans-Serif" font-size="10.00">controller.Workspace.getName</text>
</a>
</g>
</g>
<!-- Node1&#45;&gt;Node3 -->
<g id="edge2" class="edge"><title>Node1&#45;&gt;Node3</title>
<path fill="none" stroke="midnightblue" d="M158.19,-23.1785C166.72,-22.2162 175.455,-21.2307 184.12,-20.2531"/>
<polygon fill="midnightblue" stroke="midnightblue" points="184.699,-23.7101 194.243,-19.111 183.914,-16.7543 184.699,-23.7101"/>
</g>
</g>
</svg>
