<?xml version="1.0" encoding="UTF-8" standalone="no"?>
<!DOCTYPE svg PUBLIC "-//W3C//DTD SVG 1.1//EN"
 "http://www.w3.org/Graphics/SVG/1.1/DTD/svg11.dtd">
<!-- Generated by graphviz version 2.36.0 (20140111.2315)
 -->
<!-- Title: view.Window.updateObservers Pages: 1 -->
<svg width="546pt" height="126pt"
 viewBox="0.00 0.00 546.00 126.00" xmlns="http://www.w3.org/2000/svg" xmlns:xlink="http://www.w3.org/1999/xlink">
<g id="graph0" class="graph" transform="scale(1 1) rotate(0) translate(4 122)">
<title>view.Window.updateObservers</title>
<polygon fill="white" stroke="none" points="-4,4 -4,-122 542,-122 542,4 -4,4"/>
<!-- Node1 -->
<g id="node1" class="node"><title>Node1</title>
<polygon fill="#bfbfbf" stroke="black" points="0.5,-49.5 0.5,-68.5 159.5,-68.5 159.5,-49.5 0.5,-49.5"/>
<text text-anchor="middle" x="80" y="-56.5" font-family="Helvetica,sans-Serif" font-size="10.00">view.Window.updateObservers</text>
</g>
<!-- Node2 -->
<g id="node2" class="node"><title>Node2</title>
<g id="a_node2"><a xlink:href="../../d8/ddd/classview_1_1_canvas.html#a67e3543b65e69f9e823c5d3f783531ed" target="_top" xlink:title="view.Canvas.getPaintable\lResource">
<polygon fill="white" stroke="black" points="203.5,-88 203.5,-118 340.5,-118 340.5,-88 203.5,-88"/>
<text text-anchor="start" x="211.5" y="-106" font-family="Helvetica,sans-Serif" font-size="10.00">view.Canvas.getPaintable</text>
<text text-anchor="middle" x="272" y="-95" font-family="Helvetica,sans-Serif" font-size="10.00">Resource</text>
</a>
</g>
</g>
<!-- Node1&#45;&gt;Node2 -->
<g id="edge1" class="edge"><title>Node1&#45;&gt;Node2</title>
<path fill="none" stroke="midnightblue" d="M122.227,-68.5473C143.81,-73.5455 170.914,-79.8222 196.055,-85.6442"/>
<polygon fill="midnightblue" stroke="midnightblue" points="195.413,-89.0882 205.945,-87.9346 196.992,-82.2687 195.413,-89.0882"/>
</g>
<!-- Node3 -->
<g id="node3" class="node"><title>Node3</title>
<g id="a_node3"><a xlink:href="../../de/d84/classcontroller_1_1_workspace.html#a06f94274c983b2edde00bcdc2b15f790" target="_top" xlink:title="controller.Workspace.update">
<polygon fill="white" stroke="black" points="196,-49.5 196,-68.5 348,-68.5 348,-49.5 196,-49.5"/>
<text text-anchor="middle" x="272" y="-56.5" font-family="Helvetica,sans-Serif" font-size="10.00">controller.Workspace.update</text>
</a>
</g>
</g>
<!-- Node1&#45;&gt;Node3 -->
<g id="edge2" class="edge"><title>Node1&#45;&gt;Node3</title>
<path fill="none" stroke="midnightblue" d="M159.652,-59C168.237,-59 177.006,-59 185.666,-59"/>
<polygon fill="midnightblue" stroke="midnightblue" points="185.766,-62.5001 195.766,-59 185.766,-55.5001 185.766,-62.5001"/>
</g>
<!-- Node5 -->
<g id="node5" class="node"><title>Node5</title>
<g id="a_node5"><a xlink:href="../../de/d84/classcontroller_1_1_workspace.html#aa1d57b108a587e558d8323b5d4a87670" target="_top" xlink:title="controller.Workspace.update\lInformation">
<polygon fill="white" stroke="black" points="196,-0 196,-30 348,-30 348,-0 196,-0"/>
<text text-anchor="start" x="204" y="-18" font-family="Helvetica,sans-Serif" font-size="10.00">controller.Workspace.update</text>
<text text-anchor="middle" x="272" y="-7" font-family="Helvetica,sans-Serif" font-size="10.00">Information</text>
</a>
</g>
</g>
<!-- Node1&#45;&gt;Node5 -->
<g id="edge4" class="edge"><title>Node1&#45;&gt;Node5</title>
<path fill="none" stroke="midnightblue" d="M122.227,-49.4527C143.81,-44.4545 170.914,-38.1778 196.055,-32.3558"/>
<polygon fill="midnightblue" stroke="midnightblue" points="196.992,-35.7313 205.945,-30.0654 195.413,-28.9118 196.992,-35.7313"/>
</g>
<!-- Node4 -->
<g id="node4" class="node"><title>Node4</title>
<g id="a_node4"><a xlink:href="../../d8/dff/classmodel_1_1_turtle_manager.html#a8679aef13c1e2b3d695b1467c2bb5e9f" target="_top" xlink:title="model.TurtleManager.update">
<polygon fill="white" stroke="black" points="384.5,-49.5 384.5,-68.5 537.5,-68.5 537.5,-49.5 384.5,-49.5"/>
<text text-anchor="middle" x="461" y="-56.5" font-family="Helvetica,sans-Serif" font-size="10.00">model.TurtleManager.update</text>
</a>
</g>
</g>
<!-- Node3&#45;&gt;Node4 -->
<g id="edge3" class="edge"><title>Node3&#45;&gt;Node4</title>
<path fill="none" stroke="midnightblue" d="M348.252,-59C356.786,-59 365.532,-59 374.189,-59"/>
<polygon fill="midnightblue" stroke="midnightblue" points="374.293,-62.5001 384.293,-59 374.293,-55.5001 374.293,-62.5001"/>
</g>
</g>
</svg>
