<?xml version="1.0" encoding="UTF-8" standalone="no"?>
<!DOCTYPE svg PUBLIC "-//W3C//DTD SVG 1.1//EN"
 "http://www.w3.org/Graphics/SVG/1.1/DTD/svg11.dtd">
<!-- Generated by graphviz version 2.36.0 (20140111.2315)
 -->
<!-- Title: model.Turtle Pages: 1 -->
<!--zoomable 294 -->
<svg id="main" version="1.1" xmlns="http://www.w3.org/2000/svg" xmlns:xlink="http://www.w3.org/1999/xlink" xml:space="preserve" onload="init(evt)">
<style type="text/css"><![CDATA[
.edge:hover path { stroke: red; }
.edge:hover polygon { stroke: red; fill: red; }
]]></style>
<script type="text/javascript"><![CDATA[
var edges = document.getElementsByTagName('g');
if (edges && edges.length) {
  for (var i=0;i<edges.length;i++) {
    if (edges[i].id.substr(0,4)=='edge') {
      edges[i].setAttribute('class','edge');
    }
  }
}
]]></script>
        <defs>
                <circle id="rim" cx="0" cy="0" r="7"/>
                <circle id="rim2" cx="0" cy="0" r="3.5"/>
                <g id="zoomPlus">
                        <use xlink:href="#rim" fill="#404040">
                                <set attributeName="fill" to="#808080" begin="zoomplus.mouseover" end="zoomplus.mouseout"/>
                        </use>
                        <path d="M-4,0h8M0,-4v8" fill="none" stroke="white" stroke-width="1.5" pointer-events="none"/>
                </g>
                <g id="zoomMin">
                        <use xlink:href="#rim" fill="#404040">
                                <set attributeName="fill" to="#808080" begin="zoomminus.mouseover" end="zoomminus.mouseout"/>
                        </use>
                        <path d="M-4,0h8" fill="none" stroke="white" stroke-width="1.5" pointer-events="none"/>
                </g>
                <g id="dirArrow">
                        <path fill="none" stroke="white" stroke-width="1.5" d="M0,-3.0v7 M-2.5,-0.5L0,-3.0L2.5,-0.5"/>
                </g>
               <g id="resetDef">
                       <use xlink:href="#rim2" fill="#404040">
                               <set attributeName="fill" to="#808080" begin="reset.mouseover" end="reset.mouseout"/>
                       </use>
               </g>
        </defs>

<script type="text/javascript">
var viewWidth = 574;
var viewHeight = 294;
var sectionId = 'dynsection-1';
</script>
<script xlink:href="../../svgpan.js"/>
<svg id="graph" class="graph">
<g id="viewport">
<title>model.Turtle</title>
<polygon fill="white" stroke="none" points="-4,4 -4,-290 570,-290 570,4 -4,4"/>
<!-- Node1 -->
<g id="node1" class="node"><title>Node1</title>
<polygon fill="#bfbfbf" stroke="black" points="490.5,-152.5 490.5,-171.5 565.5,-171.5 565.5,-152.5 490.5,-152.5"/>
<text text-anchor="middle" x="528" y="-159.5" font-family="Helvetica,sans-Serif" font-size="10.00">model.Turtle</text>
</g>
<!-- Node2 -->
<g id="node2" class="node"><title>Node2</title>
<g id="a_node2"><a xlink:href="../../dc/d3c/interfacemodel_1_1_paintable.html" target="_top" xlink:title="model.Paintable">
<polygon fill="white" stroke="black" points="292.5,-266.5 292.5,-285.5 385.5,-285.5 385.5,-266.5 292.5,-266.5"/>
<text text-anchor="middle" x="339" y="-273.5" font-family="Helvetica,sans-Serif" font-size="10.00">model.Paintable</text>
</a>
</g>
</g>
<!-- Node2&#45;&gt;Node1 -->
<g id="edge1" class="edge"><title>Node2&#45;&gt;Node1</title>
<path fill="none" stroke="midnightblue" d="M392.242,-263.609C417.863,-255.858 448.24,-244.044 472,-227 493.621,-211.491 512.029,-185.656 521.053,-171.684"/>
<polygon fill="midnightblue" stroke="midnightblue" points="390.948,-260.339 382.316,-266.483 392.895,-267.063 390.948,-260.339"/>
</g>
<!-- Node3 -->
<g id="node3" class="node"><title>Node3</title>
<g id="a_node3"><a xlink:href="../../df/dca/interfacemodel_1_1_i_state.html" target="_top" xlink:title="model.IState">
<polygon fill="white" stroke="black" points="300,-228.5 300,-247.5 378,-247.5 378,-228.5 300,-228.5"/>
<text text-anchor="middle" x="339" y="-235.5" font-family="Helvetica,sans-Serif" font-size="10.00">model.IState</text>
</a>
</g>
</g>
<!-- Node3&#45;&gt;Node1 -->
<g id="edge2" class="edge"><title>Node3&#45;&gt;Node1</title>
<path fill="none" stroke="midnightblue" d="M387.955,-229.882C413.712,-224.4 445.519,-215.788 472,-203 488.945,-194.817 505.924,-181.117 516.441,-171.827"/>
<polygon fill="midnightblue" stroke="midnightblue" points="387.145,-226.475 378.045,-231.901 388.543,-233.334 387.145,-226.475"/>
</g>
<!-- Node4 -->
<g id="node4" class="node"><title>Node4</title>
<g id="a_node4"><a xlink:href="../../d4/d67/classutil_1_1_vector.html" target="_top" xlink:title="util.Vector">
<polygon fill="white" stroke="black" points="306.5,-190.5 306.5,-209.5 371.5,-209.5 371.5,-190.5 306.5,-190.5"/>
<text text-anchor="middle" x="339" y="-197.5" font-family="Helvetica,sans-Serif" font-size="10.00">util.Vector</text>
</a>
</g>
</g>
<!-- Node4&#45;&gt;Node1 -->
<g id="edge3" class="edge"><title>Node4&#45;&gt;Node1</title>
<path fill="none" stroke="#9a32cd" stroke-dasharray="5,2" d="M381.563,-193.782C407.654,-189.626 441.934,-183.704 472,-177 479.149,-175.406 486.76,-173.48 493.969,-171.548"/>
<polygon fill="#9a32cd" stroke="#9a32cd" points="380.971,-190.332 371.635,-195.341 382.057,-197.247 380.971,-190.332"/>
<text text-anchor="middle" x="443" y="-191" font-family="Helvetica,sans-Serif" font-size="10.00"> myHeading</text>
</g>
<!-- Node5 -->
<g id="node5" class="node"><title>Node5</title>
<g id="a_node5"><a xlink:href="../../d7/d1e/classutil_1_1_location.html" target="_top" xlink:title="util.Location">
<polygon fill="white" stroke="black" points="302,-152.5 302,-171.5 376,-171.5 376,-152.5 302,-152.5"/>
<text text-anchor="middle" x="339" y="-159.5" font-family="Helvetica,sans-Serif" font-size="10.00">util.Location</text>
</a>
</g>
</g>
<!-- Node5&#45;&gt;Node1 -->
<g id="edge4" class="edge"><title>Node5&#45;&gt;Node1</title>
<path fill="none" stroke="#9a32cd" stroke-dasharray="5,2" d="M386.109,-162C418.263,-162 460.581,-162 490.417,-162"/>
<polygon fill="#9a32cd" stroke="#9a32cd" points="386.056,-158.5 376.055,-162 386.055,-165.5 386.056,-158.5"/>
<text text-anchor="middle" x="443" y="-165" font-family="Helvetica,sans-Serif" font-size="10.00"> myCenter</text>
</g>
<!-- Node6 -->
<g id="node6" class="node"><title>Node6</title>
<polygon fill="white" stroke="#bfbfbf" points="23,-191.5 23,-210.5 117,-210.5 117,-191.5 23,-191.5"/>
<text text-anchor="middle" x="70" y="-198.5" font-family="Helvetica,sans-Serif" font-size="10.00">Point2D::Double</text>
</g>
<!-- Node6&#45;&gt;Node5 -->
<g id="edge5" class="edge"><title>Node6&#45;&gt;Node5</title>
<path fill="none" stroke="midnightblue" d="M127.159,-195.161C165.754,-190.868 218.115,-184.492 264,-177 276.42,-174.972 289.931,-172.356 301.968,-169.877"/>
<polygon fill="midnightblue" stroke="midnightblue" points="126.714,-191.689 117.156,-196.261 127.479,-198.647 126.714,-191.689"/>
</g>
<!-- Node7 -->
<g id="node7" class="node"><title>Node7</title>
<polygon fill="white" stroke="#bfbfbf" points="36,-153.5 36,-172.5 104,-172.5 104,-153.5 36,-153.5"/>
<text text-anchor="middle" x="70" y="-160.5" font-family="Helvetica,sans-Serif" font-size="10.00">Dimension</text>
</g>
<!-- Node7&#45;&gt;Node5 -->
<g id="edge6" class="edge"><title>Node7&#45;&gt;Node5</title>
<path fill="none" stroke="#9a32cd" stroke-dasharray="5,2" d="M114.257,-162.838C166.338,-162.643 252.874,-162.319 301.657,-162.136"/>
<polygon fill="#9a32cd" stroke="#9a32cd" points="113.994,-159.339 104.007,-162.876 114.02,-166.339 113.994,-159.339"/>
<text text-anchor="middle" x="211" y="-165" font-family="Helvetica,sans-Serif" font-size="10.00"> myCanvasDimension</text>
</g>
<!-- Node8 -->
<g id="node8" class="node"><title>Node8</title>
<polygon fill="white" stroke="#bfbfbf" points="295.5,-114.5 295.5,-133.5 382.5,-133.5 382.5,-114.5 295.5,-114.5"/>
<text text-anchor="middle" x="339" y="-121.5" font-family="Helvetica,sans-Serif" font-size="10.00">BufferedImage</text>
</g>
<!-- Node8&#45;&gt;Node1 -->
<g id="edge7" class="edge"><title>Node8&#45;&gt;Node1</title>
<path fill="none" stroke="#9a32cd" stroke-dasharray="5,2" d="M392.775,-132.033C417.015,-136.02 446.074,-141.219 472,-147 479.149,-148.594 486.76,-150.52 493.969,-152.452"/>
<polygon fill="#9a32cd" stroke="#9a32cd" points="393.136,-128.545 382.704,-130.4 392.015,-135.455 393.136,-128.545"/>
<text text-anchor="middle" x="443" y="-150" font-family="Helvetica,sans-Serif" font-size="10.00"> myImage</text>
</g>
<!-- Node9 -->
<g id="node9" class="node"><title>Node9</title>
<g id="a_node9"><a xlink:href="../../de/ded/classmodel_1_1_pen.html" target="_top" xlink:title="model.Pen">
<polygon fill="white" stroke="black" points="305,-75.5 305,-94.5 373,-94.5 373,-75.5 305,-75.5"/>
<text text-anchor="middle" x="339" y="-82.5" font-family="Helvetica,sans-Serif" font-size="10.00">model.Pen</text>
</a>
</g>
</g>
<!-- Node9&#45;&gt;Node1 -->
<g id="edge8" class="edge"><title>Node9&#45;&gt;Node1</title>
<path fill="none" stroke="#9a32cd" stroke-dasharray="5,2" d="M383.139,-91.9887C409.692,-97.3554 443.902,-106.23 472,-120 489.261,-128.459 506.43,-142.751 516.88,-152.28"/>
<polygon fill="#9a32cd" stroke="#9a32cd" points="383.484,-88.4908 373.002,-90.0337 382.159,-95.3641 383.484,-88.4908"/>
<text text-anchor="middle" x="443" y="-123" font-family="Helvetica,sans-Serif" font-size="10.00"> myPen</text>
</g>
<!-- Node10 -->
<g id="node10" class="node"><title>Node10</title>
<polygon fill="white" stroke="#bfbfbf" points="49.5,-115.5 49.5,-134.5 90.5,-134.5 90.5,-115.5 49.5,-115.5"/>
<text text-anchor="middle" x="70" y="-122.5" font-family="Helvetica,sans-Serif" font-size="10.00">Color</text>
</g>
<!-- Node10&#45;&gt;Node9 -->
<g id="edge9" class="edge"><title>Node10&#45;&gt;Node9</title>
<path fill="none" stroke="#9a32cd" stroke-dasharray="5,2" d="M101.03,-124.021C139.209,-122.36 207.014,-118.018 264,-107 279.66,-103.972 296.75,-99.0057 310.558,-94.557"/>
<polygon fill="#9a32cd" stroke="#9a32cd" points="100.481,-120.54 90.6291,-124.438 100.761,-127.534 100.481,-120.54"/>
<text text-anchor="middle" x="211" y="-123" font-family="Helvetica,sans-Serif" font-size="10.00"> myCurrentColor</text>
</g>
<!-- Node11 -->
<g id="node11" class="node"><title>Node11</title>
<polygon fill="white" stroke="#bfbfbf" points="46,-76.5 46,-95.5 94,-95.5 94,-76.5 46,-76.5"/>
<text text-anchor="middle" x="70" y="-83.5" font-family="Helvetica,sans-Serif" font-size="10.00">Stroke</text>
</g>
<!-- Node11&#45;&gt;Node9 -->
<g id="edge10" class="edge"><title>Node11&#45;&gt;Node9</title>
<path fill="none" stroke="#9a32cd" stroke-dasharray="5,2" d="M104.337,-85.5271C120.534,-85.3203 140.281,-85.1018 158,-85 209.249,-84.7055 268.707,-84.7883 304.824,-84.8859"/>
<polygon fill="#9a32cd" stroke="#9a32cd" points="104.216,-82.0283 94.2629,-85.66 104.308,-89.0277 104.216,-82.0283"/>
<text text-anchor="middle" x="211" y="-99" font-family="Helvetica,sans-Serif" font-size="10.00"> myStroke</text>
<text text-anchor="middle" x="211" y="-88" font-family="Helvetica,sans-Serif" font-size="10.00">DEFAULT_STROKE</text>
</g>
<!-- Node12 -->
<g id="node12" class="node"><title>Node12</title>
<polygon fill="white" stroke="#bfbfbf" points="15,-38.5 15,-57.5 125,-57.5 125,-38.5 15,-38.5"/>
<text text-anchor="middle" x="70" y="-45.5" font-family="Helvetica,sans-Serif" font-size="10.00">List&lt; util.PenLine &gt;</text>
</g>
<!-- Node12&#45;&gt;Node9 -->
<g id="edge11" class="edge"><title>Node12&#45;&gt;Node9</title>
<path fill="none" stroke="#9a32cd" stroke-dasharray="5,2" d="M135.588,-53.3265C173.187,-56.8511 221.424,-62.1003 264,-69 277.494,-71.1868 292.237,-74.2374 304.987,-77.0891"/>
<polygon fill="#9a32cd" stroke="#9a32cd" points="135.557,-49.809 125.278,-52.3782 134.916,-56.7796 135.557,-49.809"/>
<text text-anchor="middle" x="211" y="-72" font-family="Helvetica,sans-Serif" font-size="10.00"> myLines</text>
</g>
<!-- Node13 -->
<g id="node13" class="node"><title>Node13</title>
<g id="a_node13"><a xlink:href="../../d7/da7/enumview_1_1components_1_1_strokes.html" target="_top" xlink:title="view.components.Strokes">
<polygon fill="white" stroke="black" points="0.5,-0.5 0.5,-19.5 139.5,-19.5 139.5,-0.5 0.5,-0.5"/>
<text text-anchor="middle" x="70" y="-7.5" font-family="Helvetica,sans-Serif" font-size="10.00">view.components.Strokes</text>
</a>
</g>
</g>
<!-- Node13&#45;&gt;Node9 -->
<g id="edge12" class="edge"><title>Node13&#45;&gt;Node9</title>
<path fill="none" stroke="#9a32cd" stroke-dasharray="5,2" d="M150.174,-8.29789C187.178,-10.8583 230.38,-18.9349 264,-40 275.91,-47.4624 270.779,-57.5372 282,-66 288.721,-71.0691 296.882,-74.8403 304.871,-77.6248"/>
<polygon fill="#9a32cd" stroke="#9a32cd" points="150.097,-4.78797 139.915,-7.7158 149.7,-11.7767 150.097,-4.78797"/>
<text text-anchor="middle" x="211" y="-43" font-family="Helvetica,sans-Serif" font-size="10.00"> myStrokeType</text>
</g>
<!-- Node14 -->
<g id="node14" class="node"><title>Node14</title>
<polygon fill="white" stroke="#bfbfbf" points="282.5,-37.5 282.5,-56.5 395.5,-56.5 395.5,-37.5 282.5,-37.5"/>
<text text-anchor="middle" x="339" y="-44.5" font-family="Helvetica,sans-Serif" font-size="10.00">List&lt; util.Location &gt;</text>
</g>
<!-- Node14&#45;&gt;Node1 -->
<g id="edge13" class="edge"><title>Node14&#45;&gt;Node1</title>
<path fill="none" stroke="#9a32cd" stroke-dasharray="5,2" d="M405.536,-56.1485C428.081,-61.5894 452.526,-70.245 472,-84 497.579,-102.067 515.367,-135.972 522.926,-152.481"/>
<polygon fill="#9a32cd" stroke="#9a32cd" points="406.198,-52.7101 395.675,-53.9381 404.667,-59.5406 406.198,-52.7101"/>
<text text-anchor="middle" x="443" y="-87" font-family="Helvetica,sans-Serif" font-size="10.00"> myStamp</text>
</g>
</g>
</svg>
        <g id="navigator" transform="translate(0 0)" fill="#404254">
                <rect fill="#f2f5e9" fill-opacity="0.5" stroke="#606060" stroke-width=".5" x="0" y="0" width="60" height="60"/>
                <use id="zoomplus" xlink:href="#zoomPlus" x="17" y="9" onmousedown="handleZoom(evt,'in')"/>
                <use id="zoomminus" xlink:href="#zoomMin" x="42" y="9" onmousedown="handleZoom(evt,'out')"/>
                <use id="reset" xlink:href="#resetDef" x="30" y="36" onmousedown="handleReset()"/>
                <g id="arrowUp" xlink:href="#dirArrow" transform="translate(30 24)" onmousedown="handlePan(0,-1)">
                  <use xlink:href="#rim" fill="#404040">
                        <set attributeName="fill" to="#808080" begin="arrowUp.mouseover" end="arrowUp.mouseout"/>
                  </use>
                  <path fill="none" stroke="white" stroke-width="1.5" d="M0,-3.0v7 M-2.5,-0.5L0,-3.0L2.5,-0.5"/>
                </g>
                <g id="arrowRight" xlink:href="#dirArrow" transform="rotate(90) translate(36 -43)" onmousedown="handlePan(1,0)">
                  <use xlink:href="#rim" fill="#404040">
                        <set attributeName="fill" to="#808080" begin="arrowRight.mouseover" end="arrowRight.mouseout"/>
                  </use>
                  <path fill="none" stroke="white" stroke-width="1.5" d="M0,-3.0v7 M-2.5,-0.5L0,-3.0L2.5,-0.5"/>
                </g>
                <g id="arrowDown" xlink:href="#dirArrow" transform="rotate(180) translate(-30 -48)" onmousedown="handlePan(0,1)">
                  <use xlink:href="#rim" fill="#404040">
                        <set attributeName="fill" to="#808080" begin="arrowDown.mouseover" end="arrowDown.mouseout"/>
                  </use>
                  <path fill="none" stroke="white" stroke-width="1.5" d="M0,-3.0v7 M-2.5,-0.5L0,-3.0L2.5,-0.5"/>
                </g>
                <g id="arrowLeft" xlink:href="#dirArrow" transform="rotate(270) translate(-36 17)" onmousedown="handlePan(-1,0)">
                  <use xlink:href="#rim" fill="#404040">
                        <set attributeName="fill" to="#808080" begin="arrowLeft.mouseover" end="arrowLeft.mouseout"/>
                  </use>
                  <path fill="none" stroke="white" stroke-width="1.5" d="M0,-3.0v7 M-2.5,-0.5L0,-3.0L2.5,-0.5"/>
                </g>
        </g>
        <svg viewBox="0 0 15 15" width="100%" height="30px" preserveAspectRatio="xMaxYMin meet">
         <g id="arrow_out" transform="scale(0.3 0.3)">
          <a xlink:href="classmodel_1_1_turtle__coll__graph_org.svg" target="_base">
           <rect id="button" ry="5" rx="5" y="6" x="6" height="38" width="38"
                fill="#f2f5e9" fill-opacity="0.5" stroke="#606060" stroke-width="1.0"/>
           <path id="arrow"
             d="M 11.500037,31.436501 C 11.940474,20.09759 22.043105,11.32322 32.158766,21.979434 L 37.068811,17.246167 C 37.068811,17.246167 37.088388,32 37.088388,32 L 22.160133,31.978069 C 22.160133,31.978069 26.997745,27.140456 26.997745,27.140456 C 18.528582,18.264221 13.291696,25.230495 11.500037,31.436501 z"
             style="fill:#404040;"/>
          </a>
         </g>
        </svg>
</svg>
