<?xml version="1.0" encoding="UTF-8" standalone="no"?>
<!DOCTYPE svg PUBLIC "-//W3C//DTD SVG 1.1//EN"
 "http://www.w3.org/Graphics/SVG/1.1/DTD/svg11.dtd">
<!-- Generated by graphviz version 2.36.0 (20140111.2315)
 -->
<!-- Title: parser.commands.workspace.Ask.evaluate Pages: 1 -->
<!--zoomable 368 -->
<svg id="main" version="1.1" xmlns="http://www.w3.org/2000/svg" xmlns:xlink="http://www.w3.org/1999/xlink" xml:space="preserve" onload="init(evt)">
<style type="text/css"><![CDATA[
.edge:hover path { stroke: red; }
.edge:hover polygon { stroke: red; fill: red; }
]]></style>
<script type="text/javascript"><![CDATA[
var edges = document.getElementsByTagName('g');
if (edges && edges.length) {
  for (var i=0;i<edges.length;i++) {
    if (edges[i].id.substr(0,4)=='edge') {
      edges[i].setAttribute('class','edge');
    }
  }
}
]]></script>
        <defs>
                <circle id="rim" cx="0" cy="0" r="7"/>
                <circle id="rim2" cx="0" cy="0" r="3.5"/>
                <g id="zoomPlus">
                        <use xlink:href="#rim" fill="#404040">
                                <set attributeName="fill" to="#808080" begin="zoomplus.mouseover" end="zoomplus.mouseout"/>
                        </use>
                        <path d="M-4,0h8M0,-4v8" fill="none" stroke="white" stroke-width="1.5" pointer-events="none"/>
                </g>
                <g id="zoomMin">
                        <use xlink:href="#rim" fill="#404040">
                                <set attributeName="fill" to="#808080" begin="zoomminus.mouseover" end="zoomminus.mouseout"/>
                        </use>
                        <path d="M-4,0h8" fill="none" stroke="white" stroke-width="1.5" pointer-events="none"/>
                </g>
                <g id="dirArrow">
                        <path fill="none" stroke="white" stroke-width="1.5" d="M0,-3.0v7 M-2.5,-0.5L0,-3.0L2.5,-0.5"/>
                </g>
               <g id="resetDef">
                       <use xlink:href="#rim2" fill="#404040">
                               <set attributeName="fill" to="#808080" begin="reset.mouseover" end="reset.mouseout"/>
                       </use>
               </g>
        </defs>

<script type="text/javascript">
var viewWidth = 972;
var viewHeight = 368;
var sectionId = 'dynsection-4';
</script>
<script xlink:href="../../svgpan.js"/>
<svg id="graph" class="graph">
<g id="viewport">
<title>parser.commands.workspace.Ask.evaluate</title>
<polygon fill="white" stroke="none" points="-4,4 -4,-364 968,-364 968,4 -4,4"/>
<!-- Node1 -->
<g id="node1" class="node"><title>Node1</title>
<polygon fill="#bfbfbf" stroke="black" points="0,-159 0,-189 160,-189 160,-159 0,-159"/>
<text text-anchor="start" x="8" y="-177" font-family="Helvetica,sans-Serif" font-size="10.00">parser.commands.workspace.</text>
<text text-anchor="middle" x="80" y="-166" font-family="Helvetica,sans-Serif" font-size="10.00">Ask.evaluate</text>
</g>
<!-- Node2 -->
<g id="node2" class="node"><title>Node2</title>
<g id="a_node2"><a xlink:href="../../d8/dff/classmodel_1_1_turtle_manager.html#a1c46b383a49e06a2436ad084bf7cd5aa" target="_top" xlink:title="model.TurtleManager.activate">
<polygon fill="white" stroke="black" points="210,-312.5 210,-331.5 368,-331.5 368,-312.5 210,-312.5"/>
<text text-anchor="middle" x="289" y="-319.5" font-family="Helvetica,sans-Serif" font-size="10.00">model.TurtleManager.activate</text>
</a>
</g>
</g>
<!-- Node1&#45;&gt;Node2 -->
<g id="edge1" class="edge"><title>Node1&#45;&gt;Node2</title>
<path fill="none" stroke="midnightblue" d="M90.7225,-189.181C108.391,-215.501 148.379,-269.512 196,-298 203.616,-302.556 212.091,-306.257 220.729,-309.261"/>
<polygon fill="midnightblue" stroke="midnightblue" points="219.922,-312.677 230.512,-312.365 222.039,-306.005 219.922,-312.677"/>
</g>
<!-- Node9 -->
<g id="node9" class="node"><title>Node9</title>
<g id="a_node9"><a xlink:href="../../d5/d6d/classparser_1_1commands_1_1workspace_1_1_ask.html#a1bd211ebe968474e99560ac3723fe0e8" target="_top" xlink:title="parser.commands.workspace.\lAsk.checkSyntax">
<polygon fill="white" stroke="black" points="209,-225 209,-255 369,-255 369,-225 209,-225"/>
<text text-anchor="start" x="217" y="-243" font-family="Helvetica,sans-Serif" font-size="10.00">parser.commands.workspace.</text>
<text text-anchor="middle" x="289" y="-232" font-family="Helvetica,sans-Serif" font-size="10.00">Ask.checkSyntax</text>
</a>
</g>
</g>
<!-- Node1&#45;&gt;Node9 -->
<g id="edge8" class="edge"><title>Node1&#45;&gt;Node9</title>
<path fill="none" stroke="midnightblue" d="M128.231,-189.059C158.725,-198.782 198.583,-211.49 230.86,-221.781"/>
<polygon fill="midnightblue" stroke="midnightblue" points="230.024,-225.188 240.614,-224.892 232.15,-218.519 230.024,-225.188"/>
</g>
<!-- Node10 -->
<g id="node10" class="node"><title>Node10</title>
<g id="a_node10"><a xlink:href="../../db/d11/classparser_1_1nodes_1_1_binary_node.html#a555930c71203ce7c05e1290f069b19a1" target="_top" xlink:title="parser.nodes.BinaryNode.getLeft">
<polygon fill="white" stroke="black" points="418,-250.5 418,-269.5 592,-269.5 592,-250.5 418,-250.5"/>
<text text-anchor="middle" x="505" y="-257.5" font-family="Helvetica,sans-Serif" font-size="10.00">parser.nodes.BinaryNode.getLeft</text>
</a>
</g>
</g>
<!-- Node1&#45;&gt;Node10 -->
<g id="edge18" class="edge"><title>Node1&#45;&gt;Node10</title>
<path fill="none" stroke="midnightblue" d="M93.9815,-189.154C113.53,-210.673 152.858,-249.125 196,-264 281.244,-293.391 387.812,-282.33 450.633,-271.354"/>
<polygon fill="midnightblue" stroke="midnightblue" points="451.492,-274.756 460.707,-269.529 450.243,-267.868 451.492,-274.756"/>
</g>
<!-- Node12 -->
<g id="node12" class="node"><title>Node12</title>
<g id="a_node12"><a xlink:href="../../db/d11/classparser_1_1nodes_1_1_binary_node.html#a9c33799a377e3c277de0fc9138a2cb81" target="_top" xlink:title="parser.nodes.BinaryNode.get\lRight">
<polygon fill="white" stroke="black" points="427,-201 427,-231 583,-231 583,-201 427,-201"/>
<text text-anchor="start" x="435" y="-219" font-family="Helvetica,sans-Serif" font-size="10.00">parser.nodes.BinaryNode.get</text>
<text text-anchor="middle" x="505" y="-208" font-family="Helvetica,sans-Serif" font-size="10.00">Right</text>
</a>
</g>
</g>
<!-- Node1&#45;&gt;Node12 -->
<g id="edge19" class="edge"><title>Node1&#45;&gt;Node12</title>
<path fill="none" stroke="midnightblue" d="M160.067,-181.851C233.07,-189.099 341.296,-199.845 416.785,-207.34"/>
<polygon fill="midnightblue" stroke="midnightblue" points="416.452,-210.824 426.749,-208.33 417.144,-203.859 416.452,-210.824"/>
</g>
<!-- Node13 -->
<g id="node13" class="node"><title>Node13</title>
<g id="a_node13"><a xlink:href="../../d8/dff/classmodel_1_1_turtle_manager.html#a574d2559ea66b6d03c753ef8498103d4" target="_top" xlink:title="model.TurtleManager.clear\lActive">
<polygon fill="white" stroke="black" points="217.5,-137 217.5,-167 360.5,-167 360.5,-137 217.5,-137"/>
<text text-anchor="start" x="225.5" y="-155" font-family="Helvetica,sans-Serif" font-size="10.00">model.TurtleManager.clear</text>
<text text-anchor="middle" x="289" y="-144" font-family="Helvetica,sans-Serif" font-size="10.00">Active</text>
</a>
</g>
</g>
<!-- Node1&#45;&gt;Node13 -->
<g id="edge13" class="edge"><title>Node1&#45;&gt;Node13</title>
<path fill="none" stroke="midnightblue" d="M160.144,-165.589C175.592,-163.947 191.808,-162.223 207.306,-160.576"/>
<polygon fill="midnightblue" stroke="midnightblue" points="207.797,-164.044 217.371,-159.506 207.057,-157.083 207.797,-164.044"/>
</g>
<!-- Node14 -->
<g id="node14" class="node"><title>Node14</title>
<g id="a_node14"><a xlink:href="../../d8/dff/classmodel_1_1_turtle_manager.html#a97d7fc3f46cfc4e419c5638b5d17ed71" target="_top" xlink:title="model.TurtleManager.copy\lActive">
<polygon fill="white" stroke="black" points="218,-88 218,-118 360,-118 360,-88 218,-88"/>
<text text-anchor="start" x="226" y="-106" font-family="Helvetica,sans-Serif" font-size="10.00">model.TurtleManager.copy</text>
<text text-anchor="middle" x="289" y="-95" font-family="Helvetica,sans-Serif" font-size="10.00">Active</text>
</a>
</g>
</g>
<!-- Node1&#45;&gt;Node14 -->
<g id="edge14" class="edge"><title>Node1&#45;&gt;Node14</title>
<path fill="none" stroke="midnightblue" d="M115.59,-158.953C138.222,-149.41 168.573,-137.178 196,-128 203.394,-125.526 211.183,-123.115 218.97,-120.829"/>
<polygon fill="midnightblue" stroke="midnightblue" points="220.158,-124.13 228.803,-118.005 218.225,-117.402 220.158,-124.13"/>
</g>
<!-- Node16 -->
<g id="node16" class="node"><title>Node16</title>
<g id="a_node16"><a xlink:href="../../da/d96/classparser_1_1nodes_1_1_syntax_node.html#a669c370adce66a1960835323a90b9adb" target="_top" xlink:title="parser.nodes.SyntaxNode.evaluate">
<polygon fill="white" stroke="black" points="196.5,-49.5 196.5,-68.5 381.5,-68.5 381.5,-49.5 196.5,-49.5"/>
<text text-anchor="middle" x="289" y="-56.5" font-family="Helvetica,sans-Serif" font-size="10.00">parser.nodes.SyntaxNode.evaluate</text>
</a>
</g>
</g>
<!-- Node1&#45;&gt;Node16 -->
<g id="edge16" class="edge"><title>Node1&#45;&gt;Node16</title>
<path fill="none" stroke="midnightblue" d="M94.637,-158.884C114.694,-137.632 154.305,-99.2568 196,-79 202.026,-76.0726 208.48,-73.5699 215.071,-71.4309"/>
<polygon fill="midnightblue" stroke="midnightblue" points="216.198,-74.7473 224.792,-68.5503 214.21,-68.0358 216.198,-74.7473"/>
</g>
<!-- Node17 -->
<g id="node17" class="node"><title>Node17</title>
<g id="a_node17"><a xlink:href="../../d4/d1c/classparser_1_1nodes_1_1_list_node.html#af1a89f601b40c44121d264197398164f" target="_top" xlink:title="parser.nodes.ListNode.get\lContents">
<polygon fill="white" stroke="black" points="217.5,-0 217.5,-30 360.5,-30 360.5,-0 217.5,-0"/>
<text text-anchor="start" x="225.5" y="-18" font-family="Helvetica,sans-Serif" font-size="10.00">parser.nodes.ListNode.get</text>
<text text-anchor="middle" x="289" y="-7" font-family="Helvetica,sans-Serif" font-size="10.00">Contents</text>
</a>
</g>
</g>
<!-- Node1&#45;&gt;Node17 -->
<g id="edge17" class="edge"><title>Node1&#45;&gt;Node17</title>
<path fill="none" stroke="midnightblue" d="M89.6384,-158.957C106.432,-131.094 146.238,-71.4374 196,-40 199.802,-37.598 203.834,-35.4242 208.003,-33.4573"/>
<polygon fill="midnightblue" stroke="midnightblue" points="209.498,-36.6248 217.315,-29.4735 206.744,-30.189 209.498,-36.6248"/>
</g>
<!-- Node3 -->
<g id="node3" class="node"><title>Node3</title>
<g id="a_node3"><a xlink:href="../../d8/dff/classmodel_1_1_turtle_manager.html#a2c8eed018128d3a0be175415b36445d9" target="_top" xlink:title="model.TurtleManager.activate\lTurtle">
<polygon fill="white" stroke="black" points="426,-330 426,-360 584,-360 584,-330 426,-330"/>
<text text-anchor="start" x="434" y="-348" font-family="Helvetica,sans-Serif" font-size="10.00">model.TurtleManager.activate</text>
<text text-anchor="middle" x="505" y="-337" font-family="Helvetica,sans-Serif" font-size="10.00">Turtle</text>
</a>
</g>
</g>
<!-- Node2&#45;&gt;Node3 -->
<g id="edge2" class="edge"><title>Node2&#45;&gt;Node3</title>
<path fill="none" stroke="midnightblue" d="M368.167,-330.401C383.545,-332.054 399.78,-333.799 415.47,-335.485"/>
<polygon fill="midnightblue" stroke="midnightblue" points="415.37,-338.994 425.686,-336.583 416.118,-332.034 415.37,-338.994"/>
</g>
<!-- Node4 -->
<g id="node4" class="node"><title>Node4</title>
<g id="a_node4"><a xlink:href="../../d8/dff/classmodel_1_1_turtle_manager.html#a3d0172590b0214793dbd3997c56f7759" target="_top" xlink:title="model.TurtleManager.addNew">
<polygon fill="white" stroke="black" points="426,-291.5 426,-310.5 584,-310.5 584,-291.5 426,-291.5"/>
<text text-anchor="middle" x="505" y="-298.5" font-family="Helvetica,sans-Serif" font-size="10.00">model.TurtleManager.addNew</text>
</a>
</g>
</g>
<!-- Node2&#45;&gt;Node4 -->
<g id="edge3" class="edge"><title>Node2&#45;&gt;Node4</title>
<path fill="none" stroke="midnightblue" d="M368.167,-314.329C383.545,-312.82 399.78,-311.227 415.47,-309.688"/>
<polygon fill="midnightblue" stroke="midnightblue" points="416.076,-313.145 425.686,-308.685 415.392,-306.178 416.076,-313.145"/>
</g>
<!-- Node5 -->
<g id="node5" class="node"><title>Node5</title>
<g id="a_node5"><a xlink:href="../../d8/dff/classmodel_1_1_turtle_manager.html#a9831377a60a443edcedede2e809e36f4" target="_top" xlink:title="model.TurtleManager.create\lTurtle">
<polygon fill="white" stroke="black" points="641,-319 641,-349 791,-349 791,-319 641,-319"/>
<text text-anchor="start" x="649" y="-337" font-family="Helvetica,sans-Serif" font-size="10.00">model.TurtleManager.create</text>
<text text-anchor="middle" x="716" y="-326" font-family="Helvetica,sans-Serif" font-size="10.00">Turtle</text>
</a>
</g>
</g>
<!-- Node4&#45;&gt;Node5 -->
<g id="edge4" class="edge"><title>Node4&#45;&gt;Node5</title>
<path fill="none" stroke="midnightblue" d="M566.171,-310.501C586.263,-313.673 609.039,-317.269 630.624,-320.678"/>
<polygon fill="midnightblue" stroke="midnightblue" points="630.351,-324.178 640.775,-322.28 631.443,-317.263 630.351,-324.178"/>
</g>
<!-- Node7 -->
<g id="node7" class="node"><title>Node7</title>
<g id="a_node7"><a xlink:href="../../d6/d34/classmodel_1_1_turtle.html#a65a22c7a1a7abfbc46a6f339479e7646" target="_top" xlink:title="model.Turtle.setStroke">
<polygon fill="white" stroke="black" points="653.5,-280.5 653.5,-299.5 778.5,-299.5 778.5,-280.5 653.5,-280.5"/>
<text text-anchor="middle" x="716" y="-287.5" font-family="Helvetica,sans-Serif" font-size="10.00">model.Turtle.setStroke</text>
</a>
</g>
</g>
<!-- Node4&#45;&gt;Node7 -->
<g id="edge6" class="edge"><title>Node4&#45;&gt;Node7</title>
<path fill="none" stroke="midnightblue" d="M584.121,-296.888C603.482,-295.869 624.136,-294.782 643.18,-293.78"/>
<polygon fill="midnightblue" stroke="midnightblue" points="643.473,-297.27 653.275,-293.249 643.105,-290.279 643.473,-297.27"/>
</g>
<!-- Node6 -->
<g id="node6" class="node"><title>Node6</title>
<g id="a_node6"><a xlink:href="../../d6/d34/classmodel_1_1_turtle.html#a27ce4fa61b6e292b1cfff08d511e7fc4" target="_top" xlink:title="model.Turtle.setImage">
<polygon fill="white" stroke="black" points="840.5,-324.5 840.5,-343.5 963.5,-343.5 963.5,-324.5 840.5,-324.5"/>
<text text-anchor="middle" x="902" y="-331.5" font-family="Helvetica,sans-Serif" font-size="10.00">model.Turtle.setImage</text>
</a>
</g>
</g>
<!-- Node5&#45;&gt;Node6 -->
<g id="edge5" class="edge"><title>Node5&#45;&gt;Node6</title>
<path fill="none" stroke="midnightblue" d="M791.044,-334C803.967,-334 817.381,-334 830.214,-334"/>
<polygon fill="midnightblue" stroke="midnightblue" points="830.359,-337.5 840.359,-334 830.359,-330.5 830.359,-337.5"/>
</g>
<!-- Node8 -->
<g id="node8" class="node"><title>Node8</title>
<g id="a_node8"><a xlink:href="../../de/ded/classmodel_1_1_pen.html#a00c08e5bfc9d04986e0ff7ae4ceae10b" target="_top" xlink:title="model.Pen.setStroke">
<polygon fill="white" stroke="black" points="843.5,-280.5 843.5,-299.5 960.5,-299.5 960.5,-280.5 843.5,-280.5"/>
<text text-anchor="middle" x="902" y="-287.5" font-family="Helvetica,sans-Serif" font-size="10.00">model.Pen.setStroke</text>
</a>
</g>
</g>
<!-- Node7&#45;&gt;Node8 -->
<g id="edge7" class="edge"><title>Node7&#45;&gt;Node8</title>
<path fill="none" stroke="midnightblue" d="M778.525,-290C796.073,-290 815.289,-290 833.19,-290"/>
<polygon fill="midnightblue" stroke="midnightblue" points="833.266,-293.5 843.266,-290 833.266,-286.5 833.266,-293.5"/>
</g>
<!-- Node9&#45;&gt;Node10 -->
<g id="edge9" class="edge"><title>Node9&#45;&gt;Node10</title>
<path fill="none" stroke="midnightblue" d="M369.078,-247.39C381.573,-248.558 394.614,-249.777 407.453,-250.977"/>
<polygon fill="midnightblue" stroke="midnightblue" points="407.409,-254.488 417.692,-251.934 408.061,-247.518 407.409,-254.488"/>
</g>
<!-- Node9&#45;&gt;Node12 -->
<g id="edge11" class="edge"><title>Node9&#45;&gt;Node12</title>
<path fill="none" stroke="midnightblue" d="M369.078,-231.131C384.509,-229.401 400.774,-227.577 416.462,-225.817"/>
<polygon fill="midnightblue" stroke="midnightblue" points="417.125,-229.265 426.673,-224.672 416.345,-222.309 417.125,-229.265"/>
</g>
<!-- Node11 -->
<g id="node11" class="node"><title>Node11</title>
<g id="a_node11"><a xlink:href="../../d7/d93/classparser_1_1nodes_1_1_parameter_node.html#a2c57eab9997daf1efb840a189c1034c5" target="_top" xlink:title="parser.nodes.ParameterNode.get\lParameter">
<polygon fill="white" stroke="black" points="628,-221 628,-251 804,-251 804,-221 628,-221"/>
<text text-anchor="start" x="636" y="-239" font-family="Helvetica,sans-Serif" font-size="10.00">parser.nodes.ParameterNode.get</text>
<text text-anchor="middle" x="716" y="-228" font-family="Helvetica,sans-Serif" font-size="10.00">Parameter</text>
</a>
</g>
</g>
<!-- Node10&#45;&gt;Node11 -->
<g id="edge10" class="edge"><title>Node10&#45;&gt;Node11</title>
<path fill="none" stroke="midnightblue" d="M588.903,-250.48C598.376,-249.392 608.097,-248.276 617.736,-247.169"/>
<polygon fill="midnightblue" stroke="midnightblue" points="618.201,-250.639 627.737,-246.021 617.403,-243.684 618.201,-250.639"/>
</g>
<!-- Node12&#45;&gt;Node11 -->
<g id="edge12" class="edge"><title>Node12&#45;&gt;Node11</title>
<path fill="none" stroke="midnightblue" d="M583.23,-223.39C594.472,-224.466 606.167,-225.585 617.743,-226.693"/>
<polygon fill="midnightblue" stroke="midnightblue" points="617.582,-230.194 627.87,-227.662 618.249,-223.225 617.582,-230.194"/>
</g>
<!-- Node15 -->
<g id="node15" class="node"><title>Node15</title>
<g id="a_node15"><a xlink:href="../../d8/dff/classmodel_1_1_turtle_manager.html#ae661b1676bacbdfac66e971c950e8cf3" target="_top" xlink:title="model.TurtleManager.getTurtles">
<polygon fill="white" stroke="black" points="422,-93.5 422,-112.5 588,-112.5 588,-93.5 422,-93.5"/>
<text text-anchor="middle" x="505" y="-100.5" font-family="Helvetica,sans-Serif" font-size="10.00">model.TurtleManager.getTurtles</text>
</a>
</g>
</g>
<!-- Node14&#45;&gt;Node15 -->
<g id="edge15" class="edge"><title>Node14&#45;&gt;Node15</title>
<path fill="none" stroke="midnightblue" d="M360.072,-103C376.579,-103 394.423,-103 411.742,-103"/>
<polygon fill="midnightblue" stroke="midnightblue" points="411.865,-106.5 421.864,-103 411.864,-99.5001 411.865,-106.5"/>
</g>
</g>
</svg>
        <g id="navigator" transform="translate(0 0)" fill="#404254">
                <rect fill="#f2f5e9" fill-opacity="0.5" stroke="#606060" stroke-width=".5" x="0" y="0" width="60" height="60"/>
                <use id="zoomplus" xlink:href="#zoomPlus" x="17" y="9" onmousedown="handleZoom(evt,'in')"/>
                <use id="zoomminus" xlink:href="#zoomMin" x="42" y="9" onmousedown="handleZoom(evt,'out')"/>
                <use id="reset" xlink:href="#resetDef" x="30" y="36" onmousedown="handleReset()"/>
                <g id="arrowUp" xlink:href="#dirArrow" transform="translate(30 24)" onmousedown="handlePan(0,-1)">
                  <use xlink:href="#rim" fill="#404040">
                        <set attributeName="fill" to="#808080" begin="arrowUp.mouseover" end="arrowUp.mouseout"/>
                  </use>
                  <path fill="none" stroke="white" stroke-width="1.5" d="M0,-3.0v7 M-2.5,-0.5L0,-3.0L2.5,-0.5"/>
                </g>
                <g id="arrowRight" xlink:href="#dirArrow" transform="rotate(90) translate(36 -43)" onmousedown="handlePan(1,0)">
                  <use xlink:href="#rim" fill="#404040">
                        <set attributeName="fill" to="#808080" begin="arrowRight.mouseover" end="arrowRight.mouseout"/>
                  </use>
                  <path fill="none" stroke="white" stroke-width="1.5" d="M0,-3.0v7 M-2.5,-0.5L0,-3.0L2.5,-0.5"/>
                </g>
                <g id="arrowDown" xlink:href="#dirArrow" transform="rotate(180) translate(-30 -48)" onmousedown="handlePan(0,1)">
                  <use xlink:href="#rim" fill="#404040">
                        <set attributeName="fill" to="#808080" begin="arrowDown.mouseover" end="arrowDown.mouseout"/>
                  </use>
                  <path fill="none" stroke="white" stroke-width="1.5" d="M0,-3.0v7 M-2.5,-0.5L0,-3.0L2.5,-0.5"/>
                </g>
                <g id="arrowLeft" xlink:href="#dirArrow" transform="rotate(270) translate(-36 17)" onmousedown="handlePan(-1,0)">
                  <use xlink:href="#rim" fill="#404040">
                        <set attributeName="fill" to="#808080" begin="arrowLeft.mouseover" end="arrowLeft.mouseout"/>
                  </use>
                  <path fill="none" stroke="white" stroke-width="1.5" d="M0,-3.0v7 M-2.5,-0.5L0,-3.0L2.5,-0.5"/>
                </g>
        </g>
        <svg viewBox="0 0 15 15" width="100%" height="30px" preserveAspectRatio="xMaxYMin meet">
         <g id="arrow_out" transform="scale(0.3 0.3)">
          <a xlink:href="classparser_1_1commands_1_1workspace_1_1_ask_a837a075ce77789761e3060413c51e882_cgraph_org.svg" target="_base">
           <rect id="button" ry="5" rx="5" y="6" x="6" height="38" width="38"
                fill="#f2f5e9" fill-opacity="0.5" stroke="#606060" stroke-width="1.0"/>
           <path id="arrow"
             d="M 11.500037,31.436501 C 11.940474,20.09759 22.043105,11.32322 32.158766,21.979434 L 37.068811,17.246167 C 37.068811,17.246167 37.088388,32 37.088388,32 L 22.160133,31.978069 C 22.160133,31.978069 26.997745,27.140456 26.997745,27.140456 C 18.528582,18.264221 13.291696,25.230495 11.500037,31.436501 z"
             style="fill:#404040;"/>
          </a>
         </g>
        </svg>
</svg>
