<?xml version="1.0" encoding="UTF-8" standalone="no"?>
<!DOCTYPE svg PUBLIC "-//W3C//DTD SVG 1.1//EN"
 "http://www.w3.org/Graphics/SVG/1.1/DTD/svg11.dtd">
<!-- Generated by graphviz version 2.36.0 (20140111.2315)
 -->
<!-- Title: util.PenLine Pages: 1 -->
<svg width="175pt" height="106pt"
 viewBox="0.00 0.00 175.00 106.00" xmlns="http://www.w3.org/2000/svg" xmlns:xlink="http://www.w3.org/1999/xlink">
<g id="graph0" class="graph" transform="scale(1 1) rotate(0) translate(4 102)">
<title>util.PenLine</title>
<polygon fill="white" stroke="none" points="-4,4 -4,-102 171,-102 171,4 -4,4"/>
<!-- Node1 -->
<g id="node1" class="node"><title>Node1</title>
<polygon fill="#bfbfbf" stroke="black" points="37.5,-0.5 37.5,-19.5 108.5,-19.5 108.5,-0.5 37.5,-0.5"/>
<text text-anchor="middle" x="73" y="-7.5" font-family="Helvetica,sans-Serif" font-size="10.00">util.PenLine</text>
</g>
<!-- Node2 -->
<g id="node2" class="node"><title>Node2</title>
<polygon fill="white" stroke="#bfbfbf" points="-0.5,-78.5 -0.5,-97.5 40.5,-97.5 40.5,-78.5 -0.5,-78.5"/>
<text text-anchor="middle" x="20" y="-85.5" font-family="Helvetica,sans-Serif" font-size="10.00">Color</text>
</g>
<!-- Node2&#45;&gt;Node1 -->
<g id="edge1" class="edge"><title>Node2&#45;&gt;Node1</title>
<path fill="none" stroke="#9a32cd" stroke-dasharray="5,2" d="M16.0685,-68.3846C15.0247,-58.6452 15.4518,-46.9258 21,-38 26.209,-29.62 34.9361,-23.714 43.7675,-19.6104"/>
<polygon fill="#9a32cd" stroke="#9a32cd" points="12.6186,-68.976 17.6774,-78.285 19.5279,-67.8531 12.6186,-68.976"/>
<text text-anchor="middle" x="62.5" y="-52" font-family="Helvetica,sans-Serif" font-size="10.00"> DEFAULT_COLOR</text>
<text text-anchor="middle" x="62.5" y="-41" font-family="Helvetica,sans-Serif" font-size="10.00">myColor</text>
</g>
<!-- Node3 -->
<g id="node3" class="node"><title>Node3</title>
<polygon fill="white" stroke="#bfbfbf" points="102,-78.5 102,-97.5 150,-97.5 150,-78.5 102,-78.5"/>
<text text-anchor="middle" x="126" y="-85.5" font-family="Helvetica,sans-Serif" font-size="10.00">Stroke</text>
</g>
<!-- Node3&#45;&gt;Node1 -->
<g id="edge2" class="edge"><title>Node3&#45;&gt;Node1</title>
<path fill="none" stroke="#9a32cd" stroke-dasharray="5,2" d="M120.054,-68.9572C116.338,-59.2347 110.935,-47.3508 104,-38 98.8131,-31.0062 91.5295,-24.5464 85.3257,-19.6999"/>
<polygon fill="#9a32cd" stroke="#9a32cd" points="116.775,-70.1823 123.417,-78.4367 123.372,-67.842 116.775,-70.1823"/>
<text text-anchor="middle" x="142" y="-46.5" font-family="Helvetica,sans-Serif" font-size="10.00"> myStroke</text>
</g>
</g>
</svg>
