<?xml version="1.0" encoding="UTF-8" standalone="no"?>
<!DOCTYPE svg PUBLIC "-//W3C//DTD SVG 1.1//EN"
 "http://www.w3.org/Graphics/SVG/1.1/DTD/svg11.dtd">
<!-- Generated by graphviz version 2.36.0 (20140111.2315)
 -->
<!-- Title: parser.nodes.TernaryNode.getMiddle Pages: 1 -->
<svg width="606pt" height="126pt"
 viewBox="0.00 0.00 606.00 126.00" xmlns="http://www.w3.org/2000/svg" xmlns:xlink="http://www.w3.org/1999/xlink">
<g id="graph0" class="graph" transform="scale(1 1) rotate(0) translate(4 122)">
<title>parser.nodes.TernaryNode.getMiddle</title>
<polygon fill="white" stroke="none" points="-4,4 -4,-122 602,-122 602,4 -4,4"/>
<!-- Node1 -->
<g id="node1" class="node"><title>Node1</title>
<polygon fill="#bfbfbf" stroke="black" points="0.5,-44 0.5,-74 161.5,-74 161.5,-44 0.5,-44"/>
<text text-anchor="start" x="8.5" y="-62" font-family="Helvetica,sans-Serif" font-size="10.00">parser.nodes.TernaryNode.get</text>
<text text-anchor="middle" x="81" y="-51" font-family="Helvetica,sans-Serif" font-size="10.00">Middle</text>
</g>
<!-- Node2 -->
<g id="node2" class="node"><title>Node2</title>
<g id="a_node2"><a xlink:href="../../dc/d8b/classparser_1_1commands_1_1other_1_1_to.html#a85e013d5bbd478f988651a121e7fa78d" target="_top" xlink:title="parser.commands.other.To.check\lSyntax">
<polygon fill="white" stroke="black" points="198.5,-88 198.5,-118 373.5,-118 373.5,-88 198.5,-88"/>
<text text-anchor="start" x="206.5" y="-106" font-family="Helvetica,sans-Serif" font-size="10.00">parser.commands.other.To.check</text>
<text text-anchor="middle" x="286" y="-95" font-family="Helvetica,sans-Serif" font-size="10.00">Syntax</text>
</a>
</g>
</g>
<!-- Node1&#45;&gt;Node2 -->
<g id="edge1" class="edge"><title>Node1&#45;&gt;Node2</title>
<path fill="none" stroke="midnightblue" d="M161.17,-76.1601C179.159,-80.059 198.132,-84.1714 215.675,-87.9738"/>
<polygon fill="midnightblue" stroke="midnightblue" points="161.808,-72.717 151.293,-74.0192 160.325,-79.5582 161.808,-72.717"/>
</g>
<!-- Node3 -->
<g id="node3" class="node"><title>Node3</title>
<g id="a_node3"><a xlink:href="../../dc/d8b/classparser_1_1commands_1_1other_1_1_to.html#a835c478a7eb5b7f48d66a3bcee850d5b" target="_top" xlink:title="parser.commands.other.To.evaluate">
<polygon fill="white" stroke="black" points="410,-71.5 410,-90.5 598,-90.5 598,-71.5 410,-71.5"/>
<text text-anchor="middle" x="504" y="-78.5" font-family="Helvetica,sans-Serif" font-size="10.00">parser.commands.other.To.evaluate</text>
</a>
</g>
</g>
<!-- Node1&#45;&gt;Node3 -->
<g id="edge4" class="edge"><title>Node1&#45;&gt;Node3</title>
<path fill="none" stroke="midnightblue" d="M171.812,-63.6933C241.842,-67.3528 338.783,-72.4186 409.689,-76.1239"/>
<polygon fill="midnightblue" stroke="midnightblue" points="171.851,-60.1906 161.682,-63.1639 171.486,-67.1811 171.851,-60.1906"/>
</g>
<!-- Node4 -->
<g id="node4" class="node"><title>Node4</title>
<g id="a_node4"><a xlink:href="../../d6/dbc/classparser_1_1commands_1_1other_1_1_if_else.html#abedc5a12ff3ae44d149ebe1b9c854078" target="_top" xlink:title="parser.commands.other.If\lElse.evaluate">
<polygon fill="white" stroke="black" points="216,-0 216,-30 356,-30 356,-0 216,-0"/>
<text text-anchor="start" x="224" y="-18" font-family="Helvetica,sans-Serif" font-size="10.00">parser.commands.other.If</text>
<text text-anchor="middle" x="286" y="-7" font-family="Helvetica,sans-Serif" font-size="10.00">Else.evaluate</text>
</a>
</g>
</g>
<!-- Node1&#45;&gt;Node4 -->
<g id="edge3" class="edge"><title>Node1&#45;&gt;Node4</title>
<path fill="none" stroke="midnightblue" d="M161.17,-41.8399C179.159,-37.941 198.132,-33.8286 215.675,-30.0262"/>
<polygon fill="midnightblue" stroke="midnightblue" points="160.325,-38.4418 151.293,-43.9808 161.808,-45.283 160.325,-38.4418"/>
</g>
<!-- Node2&#45;&gt;Node3 -->
<g id="edge2" class="edge"><title>Node2&#45;&gt;Node3</title>
<path fill="none" stroke="midnightblue" d="M383.684,-93.1525C392.315,-92.2734 401.044,-91.3845 409.645,-90.5083"/>
<polygon fill="midnightblue" stroke="midnightblue" points="383.205,-89.6832 373.611,-94.1785 383.914,-96.6471 383.205,-89.6832"/>
</g>
</g>
</svg>
