<?xml version="1.0" encoding="UTF-8" standalone="no"?>
<!DOCTYPE svg PUBLIC "-//W3C//DTD SVG 1.1//EN"
 "http://www.w3.org/Graphics/SVG/1.1/DTD/svg11.dtd">
<!-- Generated by graphviz version 2.36.0 (20140111.2315)
 -->
<!-- Title: util.Vector.getYChange Pages: 1 -->
<!--zoomable 183 -->
<svg id="main" version="1.1" xmlns="http://www.w3.org/2000/svg" xmlns:xlink="http://www.w3.org/1999/xlink" xml:space="preserve" onload="init(evt)">
<style type="text/css"><![CDATA[
.edge:hover path { stroke: red; }
.edge:hover polygon { stroke: red; fill: red; }
]]></style>
<script type="text/javascript"><![CDATA[
var edges = document.getElementsByTagName('g');
if (edges && edges.length) {
  for (var i=0;i<edges.length;i++) {
    if (edges[i].id.substr(0,4)=='edge') {
      edges[i].setAttribute('class','edge');
    }
  }
}
]]></script>
        <defs>
                <circle id="rim" cx="0" cy="0" r="7"/>
                <circle id="rim2" cx="0" cy="0" r="3.5"/>
                <g id="zoomPlus">
                        <use xlink:href="#rim" fill="#404040">
                                <set attributeName="fill" to="#808080" begin="zoomplus.mouseover" end="zoomplus.mouseout"/>
                        </use>
                        <path d="M-4,0h8M0,-4v8" fill="none" stroke="white" stroke-width="1.5" pointer-events="none"/>
                </g>
                <g id="zoomMin">
                        <use xlink:href="#rim" fill="#404040">
                                <set attributeName="fill" to="#808080" begin="zoomminus.mouseover" end="zoomminus.mouseout"/>
                        </use>
                        <path d="M-4,0h8" fill="none" stroke="white" stroke-width="1.5" pointer-events="none"/>
                </g>
                <g id="dirArrow">
                        <path fill="none" stroke="white" stroke-width="1.5" d="M0,-3.0v7 M-2.5,-0.5L0,-3.0L2.5,-0.5"/>
                </g>
               <g id="resetDef">
                       <use xlink:href="#rim2" fill="#404040">
                               <set attributeName="fill" to="#808080" begin="reset.mouseover" end="reset.mouseout"/>
                       </use>
               </g>
        </defs>

<script type="text/javascript">
var viewWidth = 980;
var viewHeight = 183;
var sectionId = 'dynsection-18';
</script>
<script xlink:href="../../svgpan.js"/>
<svg id="graph" class="graph">
<g id="viewport">
<title>util.Vector.getYChange</title>
<polygon fill="white" stroke="none" points="-4,4 -4,-179 976,-179 976,4 -4,4"/>
<!-- Node1 -->
<g id="node1" class="node"><title>Node1</title>
<polygon fill="#bfbfbf" stroke="black" points="0,-81.5 0,-100.5 124,-100.5 124,-81.5 0,-81.5"/>
<text text-anchor="middle" x="62" y="-88.5" font-family="Helvetica,sans-Serif" font-size="10.00">util.Vector.getYChange</text>
</g>
<!-- Node2 -->
<g id="node2" class="node"><title>Node2</title>
<g id="a_node2"><a xlink:href="../../d4/d67/classutil_1_1_vector.html#a95063f0d0e294d8829af7283165234a1" target="_top" xlink:title="util.Vector.sum">
<polygon fill="white" stroke="black" points="176,-113.5 176,-132.5 264,-132.5 264,-113.5 176,-113.5"/>
<text text-anchor="middle" x="220" y="-120.5" font-family="Helvetica,sans-Serif" font-size="10.00">util.Vector.sum</text>
</a>
</g>
</g>
<!-- Node1&#45;&gt;Node2 -->
<g id="edge1" class="edge"><title>Node1&#45;&gt;Node2</title>
<path fill="none" stroke="midnightblue" d="M119.26,-102.541C137.956,-106.376 158.464,-110.582 175.996,-114.179"/>
<polygon fill="midnightblue" stroke="midnightblue" points="119.882,-99.0953 109.383,-100.514 118.475,-105.953 119.882,-99.0953"/>
</g>
<!-- Node4 -->
<g id="node4" class="node"><title>Node4</title>
<g id="a_node4"><a xlink:href="../../d7/d1e/classutil_1_1_location.html#a82f3e59d7d3e3d46df862be2e63c80e3" target="_top" xlink:title="util.Location.translate">
<polygon fill="white" stroke="black" points="160,-50.5 160,-69.5 280,-69.5 280,-50.5 160,-50.5"/>
<text text-anchor="middle" x="220" y="-57.5" font-family="Helvetica,sans-Serif" font-size="10.00">util.Location.translate</text>
</a>
</g>
</g>
<!-- Node1&#45;&gt;Node4 -->
<g id="edge3" class="edge"><title>Node1&#45;&gt;Node4</title>
<path fill="none" stroke="midnightblue" d="M121.131,-79.4483C137.585,-76.1787 155.302,-72.6579 171.081,-69.5224"/>
<polygon fill="midnightblue" stroke="midnightblue" points="120.204,-76.064 111.078,-81.446 121.568,-82.9298 120.204,-76.064"/>
</g>
<!-- Node3 -->
<g id="node3" class="node"><title>Node3</title>
<g id="a_node3"><a xlink:href="../../d4/d67/classutil_1_1_vector.html#a06fc54969a49c22c070452cc6940f98c" target="_top" xlink:title="util.Vector.difference">
<polygon fill="white" stroke="black" points="325,-126.5 325,-145.5 439,-145.5 439,-126.5 325,-126.5"/>
<text text-anchor="middle" x="382" y="-133.5" font-family="Helvetica,sans-Serif" font-size="10.00">util.Vector.difference</text>
</a>
</g>
</g>
<!-- Node2&#45;&gt;Node3 -->
<g id="edge2" class="edge"><title>Node2&#45;&gt;Node3</title>
<path fill="none" stroke="midnightblue" d="M274.621,-127.357C290.731,-128.666 308.448,-130.105 324.724,-131.428"/>
<polygon fill="midnightblue" stroke="midnightblue" points="274.549,-123.839 264.298,-126.518 273.982,-130.816 274.549,-123.839"/>
</g>
<!-- Node5 -->
<g id="node5" class="node"><title>Node5</title>
<g id="a_node5"><a xlink:href="../../d6/d34/classmodel_1_1_turtle.html#aeeab176e64d1ad18647e37aee02affc7" target="_top" xlink:title="model.Turtle.getPainting\lPoint">
<polygon fill="white" stroke="black" points="316.5,-77 316.5,-107 447.5,-107 447.5,-77 316.5,-77"/>
<text text-anchor="start" x="324.5" y="-95" font-family="Helvetica,sans-Serif" font-size="10.00">model.Turtle.getPainting</text>
<text text-anchor="middle" x="382" y="-84" font-family="Helvetica,sans-Serif" font-size="10.00">Point</text>
</a>
</g>
</g>
<!-- Node4&#45;&gt;Node5 -->
<g id="edge4" class="edge"><title>Node4&#45;&gt;Node5</title>
<path fill="none" stroke="midnightblue" d="M278.661,-71.5322C290.918,-73.9836 303.935,-76.5871 316.431,-79.0862"/>
<polygon fill="midnightblue" stroke="midnightblue" points="279.064,-68.0436 268.572,-69.5144 277.691,-74.9077 279.064,-68.0436"/>
</g>
<!-- Node11 -->
<g id="node11" class="node"><title>Node11</title>
<g id="a_node11"><a xlink:href="../../d6/d34/classmodel_1_1_turtle.html#a84ecdb68ad525c369c4dc7dedd675607" target="_top" xlink:title="model.Turtle.move">
<polygon fill="white" stroke="black" points="329.5,-38.5 329.5,-57.5 434.5,-57.5 434.5,-38.5 329.5,-38.5"/>
<text text-anchor="middle" x="382" y="-45.5" font-family="Helvetica,sans-Serif" font-size="10.00">model.Turtle.move</text>
</a>
</g>
</g>
<!-- Node4&#45;&gt;Node11 -->
<g id="edge11" class="edge"><title>Node4&#45;&gt;Node11</title>
<path fill="none" stroke="midnightblue" d="M290.124,-54.8157C303.336,-53.8248 316.952,-52.8036 329.493,-51.8631"/>
<polygon fill="midnightblue" stroke="midnightblue" points="289.834,-51.3275 280.124,-55.5657 290.357,-58.3079 289.834,-51.3275"/>
</g>
<!-- Node12 -->
<g id="node12" class="node"><title>Node12</title>
<g id="a_node12"><a xlink:href="../../d6/d34/classmodel_1_1_turtle.html#a427ec25c0a04d906a6e5d77ae5791a20" target="_top" xlink:title="model.Turtle.setPosition">
<polygon fill="white" stroke="black" points="316.5,-0.5 316.5,-19.5 447.5,-19.5 447.5,-0.5 316.5,-0.5"/>
<text text-anchor="middle" x="382" y="-7.5" font-family="Helvetica,sans-Serif" font-size="10.00">model.Turtle.setPosition</text>
</a>
</g>
</g>
<!-- Node4&#45;&gt;Node12 -->
<g id="edge12" class="edge"><title>Node4&#45;&gt;Node12</title>
<path fill="none" stroke="midnightblue" d="M259.347,-47.1869C276.621,-41.4927 297.295,-34.7841 316,-29 326.221,-25.8393 337.389,-22.5248 347.539,-19.5653"/>
<polygon fill="midnightblue" stroke="midnightblue" points="258.006,-43.9441 249.611,-50.4076 260.204,-50.5899 258.006,-43.9441"/>
</g>
<!-- Node6 -->
<g id="node6" class="node"><title>Node6</title>
<g id="a_node6"><a xlink:href="../../d6/d34/classmodel_1_1_turtle.html#a9eb4cbe280f1a7f2d15df187986eecb8" target="_top" xlink:title="model.Turtle.getBounds">
<polygon fill="white" stroke="black" points="484,-155.5 484,-174.5 614,-174.5 614,-155.5 484,-155.5"/>
<text text-anchor="middle" x="549" y="-162.5" font-family="Helvetica,sans-Serif" font-size="10.00">model.Turtle.getBounds</text>
</a>
</g>
</g>
<!-- Node5&#45;&gt;Node6 -->
<g id="edge5" class="edge"><title>Node5&#45;&gt;Node6</title>
<path fill="none" stroke="midnightblue" d="M435.597,-111.07C439.845,-112.96 444.027,-114.944 448,-117 465.078,-125.839 466.885,-132.233 484,-141 494.773,-146.518 507.121,-151.449 518.08,-155.385"/>
<polygon fill="midnightblue" stroke="midnightblue" points="436.819,-107.786 426.247,-107.092 434.078,-114.228 436.819,-107.786"/>
</g>
<!-- Node7 -->
<g id="node7" class="node"><title>Node7</title>
<g id="a_node7"><a xlink:href="../../d8/dff/classmodel_1_1_turtle_manager.html#a7f2863fbe8420cb5859ab922bd866b1d" target="_top" xlink:title="model.TurtleManager.paint">
<polygon fill="white" stroke="black" points="650.5,-98.5 650.5,-117.5 793.5,-117.5 793.5,-98.5 650.5,-98.5"/>
<text text-anchor="middle" x="722" y="-105.5" font-family="Helvetica,sans-Serif" font-size="10.00">model.TurtleManager.paint</text>
</a>
</g>
</g>
<!-- Node5&#45;&gt;Node7 -->
<g id="edge6" class="edge"><title>Node5&#45;&gt;Node7</title>
<path fill="none" stroke="midnightblue" d="M457.681,-105.176C466.527,-106.338 475.449,-107.327 484,-108 539.786,-112.391 603.187,-112.117 650.368,-110.895"/>
<polygon fill="midnightblue" stroke="midnightblue" points="458.133,-101.706 447.748,-103.799 457.172,-108.639 458.133,-101.706"/>
</g>
<!-- Node9 -->
<g id="node9" class="node"><title>Node9</title>
<g id="a_node9"><a xlink:href="../../d6/d34/classmodel_1_1_turtle.html#a7d850c710649567ac20161f847b2ad11" target="_top" xlink:title="model.Turtle.paint">
<polygon fill="white" stroke="black" points="498,-79.5 498,-98.5 600,-98.5 600,-79.5 498,-79.5"/>
<text text-anchor="middle" x="549" y="-86.5" font-family="Helvetica,sans-Serif" font-size="10.00">model.Turtle.paint</text>
</a>
</g>
</g>
<!-- Node5&#45;&gt;Node9 -->
<g id="edge8" class="edge"><title>Node5&#45;&gt;Node9</title>
<path fill="none" stroke="midnightblue" d="M458.019,-90.636C471.563,-90.3898 485.378,-90.1386 497.988,-89.9093"/>
<polygon fill="midnightblue" stroke="midnightblue" points="457.673,-87.1416 447.739,-90.8229 457.801,-94.1405 457.673,-87.1416"/>
</g>
<!-- Node10 -->
<g id="node10" class="node"><title>Node10</title>
<g id="a_node10"><a xlink:href="../../d6/d34/classmodel_1_1_turtle.html#a094c7d59e4551b8280a793199f612740" target="_top" xlink:title="model.Turtle.stamp">
<polygon fill="white" stroke="black" points="494.5,-41.5 494.5,-60.5 603.5,-60.5 603.5,-41.5 494.5,-41.5"/>
<text text-anchor="middle" x="549" y="-48.5" font-family="Helvetica,sans-Serif" font-size="10.00">model.Turtle.stamp</text>
</a>
</g>
</g>
<!-- Node5&#45;&gt;Node10 -->
<g id="edge10" class="edge"><title>Node5&#45;&gt;Node10</title>
<path fill="none" stroke="midnightblue" d="M453.46,-74.4918C472.699,-69.7111 492.831,-64.7086 509.549,-60.5545"/>
<polygon fill="midnightblue" stroke="midnightblue" points="452.364,-71.1576 443.503,-76.9659 454.052,-77.951 452.364,-71.1576"/>
</g>
<!-- Node8 -->
<g id="node8" class="node"><title>Node8</title>
<g id="a_node8"><a xlink:href="../../de/d84/classcontroller_1_1_workspace.html#aa3ec59da02e89f7882fb31677330af80" target="_top" xlink:title="controller.Workspace.paint">
<polygon fill="white" stroke="black" points="830,-98.5 830,-117.5 972,-117.5 972,-98.5 830,-98.5"/>
<text text-anchor="middle" x="901" y="-105.5" font-family="Helvetica,sans-Serif" font-size="10.00">controller.Workspace.paint</text>
</a>
</g>
</g>
<!-- Node7&#45;&gt;Node8 -->
<g id="edge7" class="edge"><title>Node7&#45;&gt;Node8</title>
<path fill="none" stroke="midnightblue" d="M803.879,-108C812.591,-108 821.402,-108 829.971,-108"/>
<polygon fill="midnightblue" stroke="midnightblue" points="803.718,-104.5 793.718,-108 803.718,-111.5 803.718,-104.5"/>
</g>
<!-- Node9&#45;&gt;Node7 -->
<g id="edge9" class="edge"><title>Node9&#45;&gt;Node7</title>
<path fill="none" stroke="midnightblue" d="M610.522,-95.7247C623.421,-97.1579 637.152,-98.6835 650.391,-100.155"/>
<polygon fill="midnightblue" stroke="midnightblue" points="610.706,-92.2237 600.381,-94.5979 609.933,-99.1809 610.706,-92.2237"/>
</g>
<!-- Node13 -->
<g id="node13" class="node"><title>Node13</title>
<g id="a_node13"><a xlink:href="../../d6/d34/classmodel_1_1_turtle.html#a817b1ab6a35fa3deb30ea4569ab70db1" target="_top" xlink:title="model.Turtle.goHome">
<polygon fill="white" stroke="black" points="489.5,-0.5 489.5,-19.5 608.5,-19.5 608.5,-0.5 489.5,-0.5"/>
<text text-anchor="middle" x="549" y="-7.5" font-family="Helvetica,sans-Serif" font-size="10.00">model.Turtle.goHome</text>
</a>
</g>
</g>
<!-- Node12&#45;&gt;Node13 -->
<g id="edge13" class="edge"><title>Node12&#45;&gt;Node13</title>
<path fill="none" stroke="midnightblue" d="M457.808,-10C468.388,-10 479.139,-10 489.355,-10"/>
<polygon fill="midnightblue" stroke="midnightblue" points="457.739,-6.5001 447.739,-10 457.739,-13.5001 457.739,-6.5001"/>
</g>
<!-- Node14 -->
<g id="node14" class="node"><title>Node14</title>
<g id="a_node14"><a xlink:href="../../d6/d34/classmodel_1_1_turtle.html#a65bffb6b24e40350f6094e054358dcbb" target="_top" xlink:title="model.Turtle.clear">
<polygon fill="white" stroke="black" points="671.5,-0.5 671.5,-19.5 772.5,-19.5 772.5,-0.5 671.5,-0.5"/>
<text text-anchor="middle" x="722" y="-7.5" font-family="Helvetica,sans-Serif" font-size="10.00">model.Turtle.clear</text>
</a>
</g>
</g>
<!-- Node13&#45;&gt;Node14 -->
<g id="edge14" class="edge"><title>Node13&#45;&gt;Node14</title>
<path fill="none" stroke="midnightblue" d="M619.039,-10C636.576,-10 655.073,-10 671.427,-10"/>
<polygon fill="midnightblue" stroke="midnightblue" points="618.849,-6.5001 608.848,-10 618.848,-13.5001 618.849,-6.5001"/>
</g>
</g>
</svg>
        <g id="navigator" transform="translate(0 0)" fill="#404254">
                <rect fill="#f2f5e9" fill-opacity="0.5" stroke="#606060" stroke-width=".5" x="0" y="0" width="60" height="60"/>
                <use id="zoomplus" xlink:href="#zoomPlus" x="17" y="9" onmousedown="handleZoom(evt,'in')"/>
                <use id="zoomminus" xlink:href="#zoomMin" x="42" y="9" onmousedown="handleZoom(evt,'out')"/>
                <use id="reset" xlink:href="#resetDef" x="30" y="36" onmousedown="handleReset()"/>
                <g id="arrowUp" xlink:href="#dirArrow" transform="translate(30 24)" onmousedown="handlePan(0,-1)">
                  <use xlink:href="#rim" fill="#404040">
                        <set attributeName="fill" to="#808080" begin="arrowUp.mouseover" end="arrowUp.mouseout"/>
                  </use>
                  <path fill="none" stroke="white" stroke-width="1.5" d="M0,-3.0v7 M-2.5,-0.5L0,-3.0L2.5,-0.5"/>
                </g>
                <g id="arrowRight" xlink:href="#dirArrow" transform="rotate(90) translate(36 -43)" onmousedown="handlePan(1,0)">
                  <use xlink:href="#rim" fill="#404040">
                        <set attributeName="fill" to="#808080" begin="arrowRight.mouseover" end="arrowRight.mouseout"/>
                  </use>
                  <path fill="none" stroke="white" stroke-width="1.5" d="M0,-3.0v7 M-2.5,-0.5L0,-3.0L2.5,-0.5"/>
                </g>
                <g id="arrowDown" xlink:href="#dirArrow" transform="rotate(180) translate(-30 -48)" onmousedown="handlePan(0,1)">
                  <use xlink:href="#rim" fill="#404040">
                        <set attributeName="fill" to="#808080" begin="arrowDown.mouseover" end="arrowDown.mouseout"/>
                  </use>
                  <path fill="none" stroke="white" stroke-width="1.5" d="M0,-3.0v7 M-2.5,-0.5L0,-3.0L2.5,-0.5"/>
                </g>
                <g id="arrowLeft" xlink:href="#dirArrow" transform="rotate(270) translate(-36 17)" onmousedown="handlePan(-1,0)">
                  <use xlink:href="#rim" fill="#404040">
                        <set attributeName="fill" to="#808080" begin="arrowLeft.mouseover" end="arrowLeft.mouseout"/>
                  </use>
                  <path fill="none" stroke="white" stroke-width="1.5" d="M0,-3.0v7 M-2.5,-0.5L0,-3.0L2.5,-0.5"/>
                </g>
        </g>
        <svg viewBox="0 0 15 15" width="100%" height="30px" preserveAspectRatio="xMaxYMin meet">
         <g id="arrow_out" transform="scale(0.3 0.3)">
          <a xlink:href="classutil_1_1_vector_aca15e89ce2edd3e93dcb73621c26237f_icgraph_org.svg" target="_base">
           <rect id="button" ry="5" rx="5" y="6" x="6" height="38" width="38"
                fill="#f2f5e9" fill-opacity="0.5" stroke="#606060" stroke-width="1.0"/>
           <path id="arrow"
             d="M 11.500037,31.436501 C 11.940474,20.09759 22.043105,11.32322 32.158766,21.979434 L 37.068811,17.246167 C 37.068811,17.246167 37.088388,32 37.088388,32 L 22.160133,31.978069 C 22.160133,31.978069 26.997745,27.140456 26.997745,27.140456 C 18.528582,18.264221 13.291696,25.230495 11.500037,31.436501 z"
             style="fill:#404040;"/>
          </a>
         </g>
        </svg>
</svg>
