<?xml version="1.0" encoding="UTF-8" standalone="no"?>
<!DOCTYPE svg PUBLIC "-//W3C//DTD SVG 1.1//EN"
 "http://www.w3.org/Graphics/SVG/1.1/DTD/svg11.dtd">
<!-- Generated by graphviz version 2.36.0 (20140111.2315)
 -->
<!-- Title: util.Vector.setMagnitude Pages: 1 -->
<svg width="486pt" height="203pt"
 viewBox="0.00 0.00 486.00 203.19" xmlns="http://www.w3.org/2000/svg" xmlns:xlink="http://www.w3.org/1999/xlink">
<g id="graph0" class="graph" transform="scale(1 1) rotate(0) translate(4 199.186)">
<title>util.Vector.setMagnitude</title>
<polygon fill="white" stroke="none" points="-4,4 -4,-199.186 482,-199.186 482,4 -4,4"/>
<!-- Node1 -->
<g id="node1" class="node"><title>Node1</title>
<polygon fill="#bfbfbf" stroke="black" points="0,-95.5 0,-114.5 132,-114.5 132,-95.5 0,-95.5"/>
<text text-anchor="middle" x="66" y="-102.5" font-family="Helvetica,sans-Serif" font-size="10.00">util.Vector.setMagnitude</text>
</g>
<!-- Node2 -->
<g id="node2" class="node"><title>Node2</title>
<g id="a_node2"><a xlink:href="../../d6/d34/classmodel_1_1_turtle.html#a84ecdb68ad525c369c4dc7dedd675607" target="_top" xlink:title="model.Turtle.move">
<polygon fill="white" stroke="black" points="368.5,-133.5 368.5,-152.5 473.5,-152.5 473.5,-133.5 368.5,-133.5"/>
<text text-anchor="middle" x="421" y="-140.5" font-family="Helvetica,sans-Serif" font-size="10.00">model.Turtle.move</text>
</a>
</g>
</g>
<!-- Node1&#45;&gt;Node2 -->
<g id="edge1" class="edge"><title>Node1&#45;&gt;Node2</title>
<path fill="none" stroke="midnightblue" d="M82.4901,-121.916C100.803,-140.538 133.217,-169.375 168,-181 235.444,-203.541 258.248,-194.838 328,-181 355.291,-175.586 384.643,-161.952 402.67,-152.578"/>
<polygon fill="midnightblue" stroke="midnightblue" points="84.9779,-119.454 75.539,-114.641 79.9166,-124.289 84.9779,-119.454"/>
</g>
<!-- Node3 -->
<g id="node3" class="node"><title>Node3</title>
<g id="a_node3"><a xlink:href="../../d4/d67/classutil_1_1_vector.html#a7804c8d7daf0e1238a33f5c2a0f1cc62" target="_top" xlink:title="util.Vector.reset">
<polygon fill="white" stroke="black" points="202,-152.5 202,-171.5 294,-171.5 294,-152.5 202,-152.5"/>
<text text-anchor="middle" x="248" y="-159.5" font-family="Helvetica,sans-Serif" font-size="10.00">util.Vector.reset</text>
</a>
</g>
</g>
<!-- Node1&#45;&gt;Node3 -->
<g id="edge2" class="edge"><title>Node1&#45;&gt;Node3</title>
<path fill="none" stroke="midnightblue" d="M99.3822,-118.353C119.024,-126.158 144.712,-135.849 168,-143 179.192,-146.437 191.432,-149.643 202.862,-152.405"/>
<polygon fill="midnightblue" stroke="midnightblue" points="100.569,-115.058 89.9851,-114.58 97.9608,-121.554 100.569,-115.058"/>
</g>
<!-- Node4 -->
<g id="node4" class="node"><title>Node4</title>
<g id="a_node4"><a xlink:href="../../d4/d67/classutil_1_1_vector.html#a9d1fe4bd1e470674778f4fb07a8a6c76" target="_top" xlink:title="util.Vector.scale">
<polygon fill="white" stroke="black" points="202,-114.5 202,-133.5 294,-133.5 294,-114.5 202,-114.5"/>
<text text-anchor="middle" x="248" y="-121.5" font-family="Helvetica,sans-Serif" font-size="10.00">util.Vector.scale</text>
</a>
</g>
</g>
<!-- Node1&#45;&gt;Node4 -->
<g id="edge3" class="edge"><title>Node1&#45;&gt;Node4</title>
<path fill="none" stroke="midnightblue" d="M142.4,-112.959C162.66,-115.097 183.935,-117.343 201.968,-119.247"/>
<polygon fill="midnightblue" stroke="midnightblue" points="142.551,-109.455 132.239,-111.886 141.816,-116.417 142.551,-109.455"/>
</g>
<!-- Node5 -->
<g id="node5" class="node"><title>Node5</title>
<g id="a_node5"><a xlink:href="../../d4/d67/classutil_1_1_vector.html#a95063f0d0e294d8829af7283165234a1" target="_top" xlink:title="util.Vector.sum">
<polygon fill="white" stroke="black" points="204,-0.5 204,-19.5 292,-19.5 292,-0.5 204,-0.5"/>
<text text-anchor="middle" x="248" y="-7.5" font-family="Helvetica,sans-Serif" font-size="10.00">util.Vector.sum</text>
</a>
</g>
</g>
<!-- Node1&#45;&gt;Node5 -->
<g id="edge4" class="edge"><title>Node1&#45;&gt;Node5</title>
<path fill="none" stroke="midnightblue" d="M84.2261,-88.4804C103.245,-71.1444 135.494,-44.3252 168,-29 179.101,-23.7665 191.78,-19.8958 203.684,-17.066"/>
<polygon fill="midnightblue" stroke="midnightblue" points="81.6329,-86.1124 76.6941,-95.4857 86.4002,-91.2382 81.6329,-86.1124"/>
</g>
<!-- Node7 -->
<g id="node7" class="node"><title>Node7</title>
<g id="a_node7"><a xlink:href="../../d4/d67/classutil_1_1_vector.html#a1283665df8d5fabd9d2d42579be52e81" target="_top" xlink:title="util.Vector.Vector">
<polygon fill="white" stroke="black" points="199,-38.5 199,-57.5 297,-57.5 297,-38.5 199,-38.5"/>
<text text-anchor="middle" x="248" y="-45.5" font-family="Helvetica,sans-Serif" font-size="10.00">util.Vector.Vector</text>
</a>
</g>
</g>
<!-- Node1&#45;&gt;Node7 -->
<g id="edge6" class="edge"><title>Node1&#45;&gt;Node7</title>
<path fill="none" stroke="midnightblue" d="M99.3822,-91.6468C119.024,-83.8416 144.712,-74.1512 168,-67 179.192,-63.563 191.432,-60.3575 202.862,-57.5946"/>
<polygon fill="midnightblue" stroke="midnightblue" points="97.9608,-88.4458 89.9851,-95.42 100.569,-94.9417 97.9608,-88.4458"/>
</g>
<!-- Node8 -->
<g id="node8" class="node"><title>Node8</title>
<g id="a_node8"><a xlink:href="../../d6/d34/classmodel_1_1_turtle.html#aa8650975441f4ca6e0d938c38ac2639c" target="_top" xlink:title="model.Turtle.wrapOnBoundary">
<polygon fill="white" stroke="black" points="168,-76.5 168,-95.5 328,-95.5 328,-76.5 168,-76.5"/>
<text text-anchor="middle" x="248" y="-83.5" font-family="Helvetica,sans-Serif" font-size="10.00">model.Turtle.wrapOnBoundary</text>
</a>
</g>
</g>
<!-- Node1&#45;&gt;Node8 -->
<g id="edge7" class="edge"><title>Node1&#45;&gt;Node8</title>
<path fill="none" stroke="midnightblue" d="M142.4,-97.0411C150.819,-96.1525 159.412,-95.2454 167.876,-94.352"/>
<polygon fill="midnightblue" stroke="midnightblue" points="141.816,-93.5832 132.239,-98.1137 142.551,-100.545 141.816,-93.5832"/>
</g>
<!-- Node6 -->
<g id="node6" class="node"><title>Node6</title>
<g id="a_node6"><a xlink:href="../../d4/d67/classutil_1_1_vector.html#a06fc54969a49c22c070452cc6940f98c" target="_top" xlink:title="util.Vector.difference">
<polygon fill="white" stroke="black" points="364,-0.5 364,-19.5 478,-19.5 478,-0.5 364,-0.5"/>
<text text-anchor="middle" x="421" y="-7.5" font-family="Helvetica,sans-Serif" font-size="10.00">util.Vector.difference</text>
</a>
</g>
</g>
<!-- Node5&#45;&gt;Node6 -->
<g id="edge5" class="edge"><title>Node5&#45;&gt;Node6</title>
<path fill="none" stroke="midnightblue" d="M302.411,-10C321.965,-10 344.138,-10 363.919,-10"/>
<polygon fill="midnightblue" stroke="midnightblue" points="302.151,-6.5001 292.151,-10 302.15,-13.5001 302.151,-6.5001"/>
</g>
<!-- Node8&#45;&gt;Node2 -->
<g id="edge8" class="edge"><title>Node8&#45;&gt;Node2</title>
<path fill="none" stroke="midnightblue" d="M303.882,-98.0287C312.026,-100.151 320.274,-102.492 328,-105 353.148,-113.163 381.098,-125.142 399.518,-133.46"/>
<polygon fill="midnightblue" stroke="midnightblue" points="304.594,-94.5988 294.042,-95.5519 302.885,-101.387 304.594,-94.5988"/>
</g>
</g>
</svg>
