<?xml version="1.0" encoding="UTF-8" standalone="no"?>
<!DOCTYPE svg PUBLIC "-//W3C//DTD SVG 1.1//EN"
 "http://www.w3.org/Graphics/SVG/1.1/DTD/svg11.dtd">
<!-- Generated by graphviz version 2.36.0 (20140111.2315)
 -->
<!-- Title: util.Vector.getMagnitude Pages: 1 -->
<svg width="1196pt" height="382pt"
 viewBox="0.00 0.00 1196.00 382.00" xmlns="http://www.w3.org/2000/svg" xmlns:xlink="http://www.w3.org/1999/xlink">
<g id="graph0" class="graph" transform="scale(1 1) rotate(0) translate(4 378)">
<title>util.Vector.getMagnitude</title>
<polygon fill="white" stroke="none" points="-4,4 -4,-378 1192,-378 1192,4 -4,4"/>
<!-- Node1 -->
<g id="node1" class="node"><title>Node1</title>
<polygon fill="#bfbfbf" stroke="black" points="0.5,-171.5 0.5,-190.5 133.5,-190.5 133.5,-171.5 0.5,-171.5"/>
<text text-anchor="middle" x="67" y="-178.5" font-family="Helvetica,sans-Serif" font-size="10.00">util.Vector.getMagnitude</text>
</g>
<!-- Node2 -->
<g id="node2" class="node"><title>Node2</title>
<g id="a_node2"><a xlink:href="../../d4/d67/classutil_1_1_vector.html#a0e4cafcfe79dde1a06e4dee8b5613984" target="_top" xlink:title="util.Vector.average">
<polygon fill="white" stroke="black" points="202,-354.5 202,-373.5 308,-373.5 308,-354.5 202,-354.5"/>
<text text-anchor="middle" x="255" y="-361.5" font-family="Helvetica,sans-Serif" font-size="10.00">util.Vector.average</text>
</a>
</g>
</g>
<!-- Node1&#45;&gt;Node2 -->
<g id="edge1" class="edge"><title>Node1&#45;&gt;Node2</title>
<path fill="none" stroke="midnightblue" d="M74.4147,-200.5C86.9202,-235.317 117.984,-307.989 170,-345 179.381,-351.675 190.718,-356.053 201.985,-358.912"/>
<polygon fill="midnightblue" stroke="midnightblue" points="77.5753,-198.929 71.0035,-190.619 70.9585,-201.213 77.5753,-198.929"/>
</g>
<!-- Node3 -->
<g id="node3" class="node"><title>Node3</title>
<g id="a_node3"><a xlink:href="../../d4/d67/classutil_1_1_vector.html#aac6586664bb29ca0c2306824a31af3ee" target="_top" xlink:title="util.Vector.equals">
<polygon fill="white" stroke="black" points="206,-316.5 206,-335.5 304,-335.5 304,-316.5 206,-316.5"/>
<text text-anchor="middle" x="255" y="-323.5" font-family="Helvetica,sans-Serif" font-size="10.00">util.Vector.equals</text>
</a>
</g>
</g>
<!-- Node1&#45;&gt;Node3 -->
<g id="edge2" class="edge"><title>Node1&#45;&gt;Node3</title>
<path fill="none" stroke="midnightblue" d="M77.8957,-199.65C93.5916,-227.342 126.885,-278.965 170,-306 180.669,-312.69 193.38,-317.142 205.645,-320.106"/>
<polygon fill="midnightblue" stroke="midnightblue" points="80.813,-197.692 72.9236,-190.62 74.6811,-201.068 80.813,-197.692"/>
</g>
<!-- Node4 -->
<g id="node4" class="node"><title>Node4</title>
<g id="a_node4"><a xlink:href="../../d6/d34/classmodel_1_1_turtle.html#ae420bddb14e58b38c2aec6b4486d9100" target="_top" xlink:title="model.Turtle.getComplement\lPoint">
<polygon fill="white" stroke="black" points="177,-267 177,-297 333,-297 333,-267 177,-267"/>
<text text-anchor="start" x="185" y="-285" font-family="Helvetica,sans-Serif" font-size="10.00">model.Turtle.getComplement</text>
<text text-anchor="middle" x="255" y="-274" font-family="Helvetica,sans-Serif" font-size="10.00">Point</text>
</a>
</g>
</g>
<!-- Node1&#45;&gt;Node4 -->
<g id="edge3" class="edge"><title>Node1&#45;&gt;Node4</title>
<path fill="none" stroke="midnightblue" d="M85.9015,-197.447C105.312,-214.5 137.844,-240.875 170,-257 177.481,-260.751 185.624,-264.045 193.801,-266.904"/>
<polygon fill="midnightblue" stroke="midnightblue" points="87.978,-194.609 78.1903,-190.553 83.3124,-199.827 87.978,-194.609"/>
</g>
<!-- Node5 -->
<g id="node5" class="node"><title>Node5</title>
<g id="a_node5"><a xlink:href="../../d4/d67/classutil_1_1_vector.html#a8e4e4fdce3f0b59129fe0f6d1dcc52f6" target="_top" xlink:title="util.Vector.getRelativeMagnitude">
<polygon fill="white" stroke="black" points="170,-228.5 170,-247.5 340,-247.5 340,-228.5 170,-228.5"/>
<text text-anchor="middle" x="255" y="-235.5" font-family="Helvetica,sans-Serif" font-size="10.00">util.Vector.getRelativeMagnitude</text>
</a>
</g>
</g>
<!-- Node1&#45;&gt;Node5 -->
<g id="edge4" class="edge"><title>Node1&#45;&gt;Node5</title>
<path fill="none" stroke="midnightblue" d="M106.061,-193.659C125.196,-199.936 148.773,-207.536 170,-214 186.25,-218.949 204.36,-224.161 219.591,-228.459"/>
<polygon fill="midnightblue" stroke="midnightblue" points="107.088,-190.313 96.4951,-190.511 104.9,-196.962 107.088,-190.313"/>
</g>
<!-- Node6 -->
<g id="node6" class="node"><title>Node6</title>
<g id="a_node6"><a xlink:href="../../d4/d67/classutil_1_1_vector.html#a3509d652ff8c361b07447f55e0007f31" target="_top" xlink:title="util.Vector.getXChange">
<polygon fill="white" stroke="black" points="192.5,-152.5 192.5,-171.5 317.5,-171.5 317.5,-152.5 192.5,-152.5"/>
<text text-anchor="middle" x="255" y="-159.5" font-family="Helvetica,sans-Serif" font-size="10.00">util.Vector.getXChange</text>
</a>
</g>
</g>
<!-- Node1&#45;&gt;Node6 -->
<g id="edge5" class="edge"><title>Node1&#45;&gt;Node6</title>
<path fill="none" stroke="midnightblue" d="M143.578,-173.28C159.823,-171.62 176.804,-169.886 192.441,-168.288"/>
<polygon fill="midnightblue" stroke="midnightblue" points="143.169,-169.803 133.577,-174.301 143.881,-176.767 143.169,-169.803"/>
</g>
<!-- Node14 -->
<g id="node14" class="node"><title>Node14</title>
<g id="a_node14"><a xlink:href="../../d6/d34/classmodel_1_1_turtle.html#a84ecdb68ad525c369c4dc7dedd675607" target="_top" xlink:title="model.Turtle.move">
<polygon fill="white" stroke="black" points="545.5,-190.5 545.5,-209.5 650.5,-209.5 650.5,-190.5 545.5,-190.5"/>
<text text-anchor="middle" x="598" y="-197.5" font-family="Helvetica,sans-Serif" font-size="10.00">model.Turtle.move</text>
</a>
</g>
</g>
<!-- Node1&#45;&gt;Node14 -->
<g id="edge23" class="edge"><title>Node1&#45;&gt;Node14</title>
<path fill="none" stroke="midnightblue" d="M143.941,-183.728C253.103,-187.648 451.522,-194.775 545.282,-198.142"/>
<polygon fill="midnightblue" stroke="midnightblue" points="143.781,-180.22 133.662,-183.358 143.53,-187.215 143.781,-180.22"/>
</g>
<!-- Node20 -->
<g id="node20" class="node"><title>Node20</title>
<g id="a_node20"><a xlink:href="../../d4/d67/classutil_1_1_vector.html#aca15e89ce2edd3e93dcb73621c26237f" target="_top" xlink:title="util.Vector.getYChange">
<polygon fill="white" stroke="black" points="193,-114.5 193,-133.5 317,-133.5 317,-114.5 193,-114.5"/>
<text text-anchor="middle" x="255" y="-121.5" font-family="Helvetica,sans-Serif" font-size="10.00">util.Vector.getYChange</text>
</a>
</g>
</g>
<!-- Node1&#45;&gt;Node20 -->
<g id="edge20" class="edge"><title>Node1&#45;&gt;Node20</title>
<path fill="none" stroke="midnightblue" d="M100.68,-167.548C120.508,-159.708 146.45,-150.016 170,-143 181.75,-139.5 194.591,-136.292 206.619,-133.549"/>
<polygon fill="midnightblue" stroke="midnightblue" points="99.18,-164.379 91.1946,-171.342 101.779,-170.878 99.18,-164.379"/>
</g>
<!-- Node21 -->
<g id="node21" class="node"><title>Node21</title>
<g id="a_node21"><a xlink:href="../../d4/d67/classutil_1_1_vector.html#a9d1fe4bd1e470674778f4fb07a8a6c76" target="_top" xlink:title="util.Vector.scale">
<polygon fill="white" stroke="black" points="209,-76.5 209,-95.5 301,-95.5 301,-76.5 209,-76.5"/>
<text text-anchor="middle" x="255" y="-83.5" font-family="Helvetica,sans-Serif" font-size="10.00">util.Vector.scale</text>
</a>
</g>
</g>
<!-- Node1&#45;&gt;Node21 -->
<g id="edge24" class="edge"><title>Node1&#45;&gt;Node21</title>
<path fill="none" stroke="midnightblue" d="M85.1299,-164.635C104.294,-147.239 137.001,-120.19 170,-105 182.088,-99.4357 195.924,-95.4439 208.831,-92.6038"/>
<polygon fill="midnightblue" stroke="midnightblue" points="82.744,-162.074 77.7843,-171.436 87.4999,-167.21 82.744,-162.074"/>
</g>
<!-- Node22 -->
<g id="node22" class="node"><title>Node22</title>
<g id="a_node22"><a xlink:href="../../d4/d67/classutil_1_1_vector.html#a2aa16590f6298baa746ffed90e4063dc" target="_top" xlink:title="util.Vector.toString">
<polygon fill="white" stroke="black" points="202.5,-38.5 202.5,-57.5 307.5,-57.5 307.5,-38.5 202.5,-38.5"/>
<text text-anchor="middle" x="255" y="-45.5" font-family="Helvetica,sans-Serif" font-size="10.00">util.Vector.toString</text>
</a>
</g>
</g>
<!-- Node1&#45;&gt;Node22 -->
<g id="edge25" class="edge"><title>Node1&#45;&gt;Node22</title>
<path fill="none" stroke="midnightblue" d="M79.2247,-162.474C95.7706,-136.837 129.201,-90.9968 170,-67 179.795,-61.2391 191.177,-57.2241 202.341,-54.4263"/>
<polygon fill="midnightblue" stroke="midnightblue" points="76.0848,-160.893 73.7299,-171.222 82.0125,-164.616 76.0848,-160.893"/>
</g>
<!-- Node23 -->
<g id="node23" class="node"><title>Node23</title>
<g id="a_node23"><a xlink:href="../../d4/d67/classutil_1_1_vector.html#a9775e5a7b85df799a63f3b350a3c1ed1" target="_top" xlink:title="util.Vector.Vector">
<polygon fill="white" stroke="black" points="206,-0.5 206,-19.5 304,-19.5 304,-0.5 206,-0.5"/>
<text text-anchor="middle" x="255" y="-7.5" font-family="Helvetica,sans-Serif" font-size="10.00">util.Vector.Vector</text>
</a>
</g>
</g>
<!-- Node1&#45;&gt;Node23 -->
<g id="edge26" class="edge"><title>Node1&#45;&gt;Node23</title>
<path fill="none" stroke="midnightblue" d="M75.2111,-161.983C88.6142,-129.341 120.572,-62.8957 170,-29 180.481,-21.8124 193.263,-17.3031 205.662,-14.4861"/>
<polygon fill="midnightblue" stroke="midnightblue" points="71.9455,-160.723 71.5127,-171.309 78.4526,-163.304 71.9455,-160.723"/>
</g>
<!-- Node7 -->
<g id="node7" class="node"><title>Node7</title>
<g id="a_node7"><a xlink:href="../../d7/d1e/classutil_1_1_location.html#a82f3e59d7d3e3d46df862be2e63c80e3" target="_top" xlink:title="util.Location.translate">
<polygon fill="white" stroke="black" points="376,-152.5 376,-171.5 496,-171.5 496,-152.5 376,-152.5"/>
<text text-anchor="middle" x="436" y="-159.5" font-family="Helvetica,sans-Serif" font-size="10.00">util.Location.translate</text>
</a>
</g>
</g>
<!-- Node6&#45;&gt;Node7 -->
<g id="edge6" class="edge"><title>Node6&#45;&gt;Node7</title>
<path fill="none" stroke="midnightblue" d="M327.896,-162C343.764,-162 360.4,-162 375.702,-162"/>
<polygon fill="midnightblue" stroke="midnightblue" points="327.602,-158.5 317.602,-162 327.602,-165.5 327.602,-158.5"/>
</g>
<!-- Node18 -->
<g id="node18" class="node"><title>Node18</title>
<g id="a_node18"><a xlink:href="../../d4/d67/classutil_1_1_vector.html#a95063f0d0e294d8829af7283165234a1" target="_top" xlink:title="util.Vector.sum">
<polygon fill="white" stroke="black" points="392,-114.5 392,-133.5 480,-133.5 480,-114.5 392,-114.5"/>
<text text-anchor="middle" x="436" y="-121.5" font-family="Helvetica,sans-Serif" font-size="10.00">util.Vector.sum</text>
</a>
</g>
</g>
<!-- Node6&#45;&gt;Node18 -->
<g id="edge18" class="edge"><title>Node6&#45;&gt;Node18</title>
<path fill="none" stroke="midnightblue" d="M311.216,-150.278C337.105,-144.782 367.504,-138.329 391.698,-133.193"/>
<polygon fill="midnightblue" stroke="midnightblue" points="310.224,-146.911 301.169,-152.411 311.678,-153.758 310.224,-146.911"/>
</g>
<!-- Node8 -->
<g id="node8" class="node"><title>Node8</title>
<g id="a_node8"><a xlink:href="../../d6/d34/classmodel_1_1_turtle.html#aeeab176e64d1ad18647e37aee02affc7" target="_top" xlink:title="model.Turtle.getPainting\lPoint">
<polygon fill="white" stroke="black" points="532.5,-103 532.5,-133 663.5,-133 663.5,-103 532.5,-103"/>
<text text-anchor="start" x="540.5" y="-121" font-family="Helvetica,sans-Serif" font-size="10.00">model.Turtle.getPainting</text>
<text text-anchor="middle" x="598" y="-110" font-family="Helvetica,sans-Serif" font-size="10.00">Point</text>
</a>
</g>
</g>
<!-- Node7&#45;&gt;Node8 -->
<g id="edge7" class="edge"><title>Node7&#45;&gt;Node8</title>
<path fill="none" stroke="midnightblue" d="M481.51,-149.76C500.321,-144.587 522.417,-138.51 542.217,-133.065"/>
<polygon fill="midnightblue" stroke="midnightblue" points="480.432,-146.426 471.718,-152.453 482.288,-153.176 480.432,-146.426"/>
</g>
<!-- Node7&#45;&gt;Node14 -->
<g id="edge14" class="edge"><title>Node7&#45;&gt;Node14</title>
<path fill="none" stroke="midnightblue" d="M487.392,-173.968C509.813,-179.293 535.847,-185.476 556.916,-190.48"/>
<polygon fill="midnightblue" stroke="midnightblue" points="487.913,-170.495 477.375,-171.589 486.295,-177.305 487.913,-170.495"/>
</g>
<!-- Node15 -->
<g id="node15" class="node"><title>Node15</title>
<g id="a_node15"><a xlink:href="../../d6/d34/classmodel_1_1_turtle.html#a427ec25c0a04d906a6e5d77ae5791a20" target="_top" xlink:title="model.Turtle.setPosition">
<polygon fill="white" stroke="black" points="532.5,-152.5 532.5,-171.5 663.5,-171.5 663.5,-152.5 532.5,-152.5"/>
<text text-anchor="middle" x="598" y="-159.5" font-family="Helvetica,sans-Serif" font-size="10.00">model.Turtle.setPosition</text>
</a>
</g>
</g>
<!-- Node7&#45;&gt;Node15 -->
<g id="edge15" class="edge"><title>Node7&#45;&gt;Node15</title>
<path fill="none" stroke="midnightblue" d="M506.243,-162C514.954,-162 523.837,-162 532.47,-162"/>
<polygon fill="midnightblue" stroke="midnightblue" points="506.124,-158.5 496.124,-162 506.123,-165.5 506.124,-158.5"/>
</g>
<!-- Node9 -->
<g id="node9" class="node"><title>Node9</title>
<g id="a_node9"><a xlink:href="../../d6/d34/classmodel_1_1_turtle.html#a9eb4cbe280f1a7f2d15df187986eecb8" target="_top" xlink:title="model.Turtle.getBounds">
<polygon fill="white" stroke="black" points="700,-108.5 700,-127.5 830,-127.5 830,-108.5 700,-108.5"/>
<text text-anchor="middle" x="765" y="-115.5" font-family="Helvetica,sans-Serif" font-size="10.00">model.Turtle.getBounds</text>
</a>
</g>
</g>
<!-- Node8&#45;&gt;Node9 -->
<g id="edge8" class="edge"><title>Node8&#45;&gt;Node9</title>
<path fill="none" stroke="midnightblue" d="M673.894,-118C682.609,-118 691.439,-118 699.989,-118"/>
<polygon fill="midnightblue" stroke="midnightblue" points="673.739,-114.5 663.739,-118 673.739,-121.5 673.739,-114.5"/>
</g>
<!-- Node10 -->
<g id="node10" class="node"><title>Node10</title>
<g id="a_node10"><a xlink:href="../../d8/dff/classmodel_1_1_turtle_manager.html#a7f2863fbe8420cb5859ab922bd866b1d" target="_top" xlink:title="model.TurtleManager.paint">
<polygon fill="white" stroke="black" points="866.5,-51.5 866.5,-70.5 1009.5,-70.5 1009.5,-51.5 866.5,-51.5"/>
<text text-anchor="middle" x="938" y="-58.5" font-family="Helvetica,sans-Serif" font-size="10.00">model.TurtleManager.paint</text>
</a>
</g>
</g>
<!-- Node8&#45;&gt;Node10 -->
<g id="edge9" class="edge"><title>Node8&#45;&gt;Node10</title>
<path fill="none" stroke="midnightblue" d="M673.597,-103.732C682.489,-102.101 691.443,-100.491 700,-99 759.117,-88.7022 826.715,-77.966 874.549,-70.5428"/>
<polygon fill="midnightblue" stroke="midnightblue" points="672.807,-100.319 663.609,-105.578 674.079,-107.203 672.807,-100.319"/>
</g>
<!-- Node12 -->
<g id="node12" class="node"><title>Node12</title>
<g id="a_node12"><a xlink:href="../../d6/d34/classmodel_1_1_turtle.html#a7d850c710649567ac20161f847b2ad11" target="_top" xlink:title="model.Turtle.paint">
<polygon fill="white" stroke="black" points="714,-32.5 714,-51.5 816,-51.5 816,-32.5 714,-32.5"/>
<text text-anchor="middle" x="765" y="-39.5" font-family="Helvetica,sans-Serif" font-size="10.00">model.Turtle.paint</text>
</a>
</g>
</g>
<!-- Node8&#45;&gt;Node12 -->
<g id="edge11" class="edge"><title>Node8&#45;&gt;Node12</title>
<path fill="none" stroke="midnightblue" d="M652.451,-98.8345C656.42,-96.9903 660.31,-95.0413 664,-93 681.5,-83.3179 682.459,-75.6084 700,-66 710.408,-60.299 722.45,-55.3898 733.262,-51.5237"/>
<polygon fill="midnightblue" stroke="midnightblue" points="650.855,-95.7129 643.109,-102.941 653.672,-102.121 650.855,-95.7129"/>
</g>
<!-- Node13 -->
<g id="node13" class="node"><title>Node13</title>
<g id="a_node13"><a xlink:href="../../d6/d34/classmodel_1_1_turtle.html#a094c7d59e4551b8280a793199f612740" target="_top" xlink:title="model.Turtle.stamp">
<polygon fill="white" stroke="black" points="710.5,-146.5 710.5,-165.5 819.5,-165.5 819.5,-146.5 710.5,-146.5"/>
<text text-anchor="middle" x="765" y="-153.5" font-family="Helvetica,sans-Serif" font-size="10.00">model.Turtle.stamp</text>
</a>
</g>
</g>
<!-- Node8&#45;&gt;Node13 -->
<g id="edge13" class="edge"><title>Node8&#45;&gt;Node13</title>
<path fill="none" stroke="midnightblue" d="M673.61,-135.183C690.499,-139.072 707.833,-143.065 722.746,-146.499"/>
<polygon fill="midnightblue" stroke="midnightblue" points="674.269,-131.743 663.739,-132.91 672.698,-138.565 674.269,-131.743"/>
</g>
<!-- Node11 -->
<g id="node11" class="node"><title>Node11</title>
<g id="a_node11"><a xlink:href="../../de/d84/classcontroller_1_1_workspace.html#aa3ec59da02e89f7882fb31677330af80" target="_top" xlink:title="controller.Workspace.paint">
<polygon fill="white" stroke="black" points="1046,-51.5 1046,-70.5 1188,-70.5 1188,-51.5 1046,-51.5"/>
<text text-anchor="middle" x="1117" y="-58.5" font-family="Helvetica,sans-Serif" font-size="10.00">controller.Workspace.paint</text>
</a>
</g>
</g>
<!-- Node10&#45;&gt;Node11 -->
<g id="edge10" class="edge"><title>Node10&#45;&gt;Node11</title>
<path fill="none" stroke="midnightblue" d="M1019.88,-61C1028.59,-61 1037.4,-61 1045.97,-61"/>
<polygon fill="midnightblue" stroke="midnightblue" points="1019.72,-57.5001 1009.72,-61 1019.72,-64.5001 1019.72,-57.5001"/>
</g>
<!-- Node12&#45;&gt;Node10 -->
<g id="edge12" class="edge"><title>Node12&#45;&gt;Node10</title>
<path fill="none" stroke="midnightblue" d="M826.522,-48.7247C839.421,-50.1579 853.152,-51.6835 866.391,-53.1546"/>
<polygon fill="midnightblue" stroke="midnightblue" points="826.706,-45.2237 816.381,-47.5979 825.933,-52.1809 826.706,-45.2237"/>
</g>
<!-- Node16 -->
<g id="node16" class="node"><title>Node16</title>
<g id="a_node16"><a xlink:href="../../d6/d34/classmodel_1_1_turtle.html#a817b1ab6a35fa3deb30ea4569ab70db1" target="_top" xlink:title="model.Turtle.goHome">
<polygon fill="white" stroke="black" points="705.5,-184.5 705.5,-203.5 824.5,-203.5 824.5,-184.5 705.5,-184.5"/>
<text text-anchor="middle" x="765" y="-191.5" font-family="Helvetica,sans-Serif" font-size="10.00">model.Turtle.goHome</text>
</a>
</g>
</g>
<!-- Node15&#45;&gt;Node16 -->
<g id="edge16" class="edge"><title>Node15&#45;&gt;Node16</title>
<path fill="none" stroke="midnightblue" d="M657.917,-173.426C676.561,-177.042 696.96,-180.998 714.845,-184.467"/>
<polygon fill="midnightblue" stroke="midnightblue" points="658.542,-169.982 648.059,-171.514 657.209,-176.854 658.542,-169.982"/>
</g>
<!-- Node17 -->
<g id="node17" class="node"><title>Node17</title>
<g id="a_node17"><a xlink:href="../../d6/d34/classmodel_1_1_turtle.html#a65bffb6b24e40350f6094e054358dcbb" target="_top" xlink:title="model.Turtle.clear">
<polygon fill="white" stroke="black" points="887.5,-184.5 887.5,-203.5 988.5,-203.5 988.5,-184.5 887.5,-184.5"/>
<text text-anchor="middle" x="938" y="-191.5" font-family="Helvetica,sans-Serif" font-size="10.00">model.Turtle.clear</text>
</a>
</g>
</g>
<!-- Node16&#45;&gt;Node17 -->
<g id="edge17" class="edge"><title>Node16&#45;&gt;Node17</title>
<path fill="none" stroke="midnightblue" d="M835.039,-194C852.576,-194 871.073,-194 887.427,-194"/>
<polygon fill="midnightblue" stroke="midnightblue" points="834.849,-190.5 824.848,-194 834.848,-197.5 834.849,-190.5"/>
</g>
<!-- Node19 -->
<g id="node19" class="node"><title>Node19</title>
<g id="a_node19"><a xlink:href="../../d4/d67/classutil_1_1_vector.html#a06fc54969a49c22c070452cc6940f98c" target="_top" xlink:title="util.Vector.difference">
<polygon fill="white" stroke="black" points="541,-64.5 541,-83.5 655,-83.5 655,-64.5 541,-64.5"/>
<text text-anchor="middle" x="598" y="-71.5" font-family="Helvetica,sans-Serif" font-size="10.00">util.Vector.difference</text>
</a>
</g>
</g>
<!-- Node18&#45;&gt;Node19 -->
<g id="edge19" class="edge"><title>Node18&#45;&gt;Node19</title>
<path fill="none" stroke="midnightblue" d="M476.571,-111.432C493.617,-106.037 513.78,-99.6799 532,-94 543.046,-90.5564 555.161,-86.8184 565.907,-83.5161"/>
<polygon fill="midnightblue" stroke="midnightblue" points="475.409,-108.129 466.933,-114.485 477.523,-114.802 475.409,-108.129"/>
</g>
<!-- Node20&#45;&gt;Node7 -->
<g id="edge21" class="edge"><title>Node20&#45;&gt;Node7</title>
<path fill="none" stroke="midnightblue" d="M311.024,-135.681C336.408,-141.07 366.161,-147.386 390.156,-152.48"/>
<polygon fill="midnightblue" stroke="midnightblue" points="311.678,-132.242 301.169,-133.589 310.224,-139.089 311.678,-132.242"/>
</g>
<!-- Node20&#45;&gt;Node18 -->
<g id="edge22" class="edge"><title>Node20&#45;&gt;Node18</title>
<path fill="none" stroke="midnightblue" d="M327.353,-124C349.215,-124 372.585,-124 391.944,-124"/>
<polygon fill="midnightblue" stroke="midnightblue" points="327.101,-120.5 317.101,-124 327.101,-127.5 327.101,-120.5"/>
</g>
</g>
</svg>
