<?xml version="1.0" encoding="UTF-8" standalone="no"?>
<!DOCTYPE svg PUBLIC "-//W3C//DTD SVG 1.1//EN"
 "http://www.w3.org/Graphics/SVG/1.1/DTD/svg11.dtd">
<!-- Generated by graphviz version 2.36.0 (20140111.2315)
 -->
<!-- Title: util.Vector.turn Pages: 1 -->
<svg width="730pt" height="142pt"
 viewBox="0.00 0.00 730.00 142.00" xmlns="http://www.w3.org/2000/svg" xmlns:xlink="http://www.w3.org/1999/xlink">
<g id="graph0" class="graph" transform="scale(1 1) rotate(0) translate(4 138)">
<title>util.Vector.turn</title>
<polygon fill="white" stroke="none" points="-4,4 -4,-138 726,-138 726,4 -4,4"/>
<!-- Node1 -->
<g id="node1" class="node"><title>Node1</title>
<polygon fill="#bfbfbf" stroke="black" points="0,-57.5 0,-76.5 86,-76.5 86,-57.5 0,-57.5"/>
<text text-anchor="middle" x="43" y="-64.5" font-family="Helvetica,sans-Serif" font-size="10.00">util.Vector.turn</text>
</g>
<!-- Node2 -->
<g id="node2" class="node"><title>Node2</title>
<g id="a_node2"><a xlink:href="../../d6/d34/classmodel_1_1_turtle.html#a7ff0491eca6971ab59d549c33469d69e" target="_top" xlink:title="model.Turtle.faceTowards">
<polygon fill="white" stroke="black" points="122,-114.5 122,-133.5 258,-133.5 258,-114.5 122,-114.5"/>
<text text-anchor="middle" x="190" y="-121.5" font-family="Helvetica,sans-Serif" font-size="10.00">model.Turtle.faceTowards</text>
</a>
</g>
</g>
<!-- Node1&#45;&gt;Node2 -->
<g id="edge1" class="edge"><title>Node1&#45;&gt;Node2</title>
<path fill="none" stroke="midnightblue" d="M70.3721,-81.2969C85.2469,-88.9896 104.339,-98.2546 122,-105 131.149,-108.494 141.216,-111.679 150.704,-114.401"/>
<polygon fill="midnightblue" stroke="midnightblue" points="71.7441,-78.0641 61.2637,-76.511 68.4881,-84.2608 71.7441,-78.0641"/>
</g>
<!-- Node6 -->
<g id="node6" class="node"><title>Node6</title>
<g id="a_node6"><a xlink:href="../../d4/d67/classutil_1_1_vector.html#a3186fe1ffdad30bd397dee8fd313cb26" target="_top" xlink:title="util.Vector.negate">
<polygon fill="white" stroke="black" points="139.5,-76.5 139.5,-95.5 240.5,-95.5 240.5,-76.5 139.5,-76.5"/>
<text text-anchor="middle" x="190" y="-83.5" font-family="Helvetica,sans-Serif" font-size="10.00">util.Vector.negate</text>
</a>
</g>
</g>
<!-- Node1&#45;&gt;Node6 -->
<g id="edge5" class="edge"><title>Node1&#45;&gt;Node6</title>
<path fill="none" stroke="midnightblue" d="M96.3382,-73.8581C110.396,-75.7002 125.552,-77.6862 139.453,-79.5077"/>
<polygon fill="midnightblue" stroke="midnightblue" points="96.6998,-70.3757 86.3298,-72.5467 95.7903,-77.3163 96.6998,-70.3757"/>
</g>
<!-- Node8 -->
<g id="node8" class="node"><title>Node8</title>
<g id="a_node8"><a xlink:href="../../d6/d34/classmodel_1_1_turtle.html#a849598fc06250bf6f435a9837e0f1dfe" target="_top" xlink:title="model.Turtle.setHeading">
<polygon fill="white" stroke="black" points="294.5,-38.5 294.5,-57.5 427.5,-57.5 427.5,-38.5 294.5,-38.5"/>
<text text-anchor="middle" x="361" y="-45.5" font-family="Helvetica,sans-Serif" font-size="10.00">model.Turtle.setHeading</text>
</a>
</g>
</g>
<!-- Node1&#45;&gt;Node8 -->
<g id="edge7" class="edge"><title>Node1&#45;&gt;Node8</title>
<path fill="none" stroke="midnightblue" d="M96.3856,-63.8502C150.66,-60.5869 235.606,-55.4794 294.333,-51.9483"/>
<polygon fill="midnightblue" stroke="midnightblue" points="96.0612,-60.3633 86.2893,-64.4573 96.4813,-67.3507 96.0612,-60.3633"/>
</g>
<!-- Node9 -->
<g id="node9" class="node"><title>Node9</title>
<g id="a_node9"><a xlink:href="../../d6/d34/classmodel_1_1_turtle.html#a4e78ca660d2d834622280c081e3a4c65" target="_top" xlink:title="model.Turtle.turn">
<polygon fill="white" stroke="black" points="141,-0.5 141,-19.5 239,-19.5 239,-0.5 141,-0.5"/>
<text text-anchor="middle" x="190" y="-7.5" font-family="Helvetica,sans-Serif" font-size="10.00">model.Turtle.turn</text>
</a>
</g>
</g>
<!-- Node1&#45;&gt;Node9 -->
<g id="edge9" class="edge"><title>Node1&#45;&gt;Node9</title>
<path fill="none" stroke="midnightblue" d="M75.0534,-53.3888C89.2846,-47.2733 106.419,-40.081 122,-34 134.776,-29.0136 149.069,-23.8393 161.162,-19.5774"/>
<polygon fill="midnightblue" stroke="midnightblue" points="73.5099,-50.2429 65.7196,-57.4236 76.2875,-56.6683 73.5099,-50.2429"/>
</g>
<!-- Node3 -->
<g id="node3" class="node"><title>Node3</title>
<g id="a_node3"><a xlink:href="../../d6/d34/classmodel_1_1_turtle.html#a427ec25c0a04d906a6e5d77ae5791a20" target="_top" xlink:title="model.Turtle.setPosition">
<polygon fill="white" stroke="black" points="295.5,-114.5 295.5,-133.5 426.5,-133.5 426.5,-114.5 295.5,-114.5"/>
<text text-anchor="middle" x="361" y="-121.5" font-family="Helvetica,sans-Serif" font-size="10.00">model.Turtle.setPosition</text>
</a>
</g>
</g>
<!-- Node2&#45;&gt;Node3 -->
<g id="edge2" class="edge"><title>Node2&#45;&gt;Node3</title>
<path fill="none" stroke="midnightblue" d="M268.412,-124C277.448,-124 286.593,-124 295.429,-124"/>
<polygon fill="midnightblue" stroke="midnightblue" points="268.279,-120.5 258.279,-124 268.279,-127.5 268.279,-120.5"/>
</g>
<!-- Node4 -->
<g id="node4" class="node"><title>Node4</title>
<g id="a_node4"><a xlink:href="../../d6/d34/classmodel_1_1_turtle.html#a817b1ab6a35fa3deb30ea4569ab70db1" target="_top" xlink:title="model.Turtle.goHome">
<polygon fill="white" stroke="black" points="464.5,-76.5 464.5,-95.5 583.5,-95.5 583.5,-76.5 464.5,-76.5"/>
<text text-anchor="middle" x="524" y="-83.5" font-family="Helvetica,sans-Serif" font-size="10.00">model.Turtle.goHome</text>
</a>
</g>
</g>
<!-- Node3&#45;&gt;Node4 -->
<g id="edge3" class="edge"><title>Node3&#45;&gt;Node4</title>
<path fill="none" stroke="midnightblue" d="M412.402,-112.104C435.032,-106.763 461.37,-100.546 482.665,-95.5201"/>
<polygon fill="midnightblue" stroke="midnightblue" points="411.556,-108.707 402.627,-114.411 413.164,-115.52 411.556,-108.707"/>
</g>
<!-- Node5 -->
<g id="node5" class="node"><title>Node5</title>
<g id="a_node5"><a xlink:href="../../d6/d34/classmodel_1_1_turtle.html#a65bffb6b24e40350f6094e054358dcbb" target="_top" xlink:title="model.Turtle.clear">
<polygon fill="white" stroke="black" points="620.5,-76.5 620.5,-95.5 721.5,-95.5 721.5,-76.5 620.5,-76.5"/>
<text text-anchor="middle" x="671" y="-83.5" font-family="Helvetica,sans-Serif" font-size="10.00">model.Turtle.clear</text>
</a>
</g>
</g>
<!-- Node4&#45;&gt;Node5 -->
<g id="edge4" class="edge"><title>Node4&#45;&gt;Node5</title>
<path fill="none" stroke="midnightblue" d="M593.58,-86C602.512,-86 611.523,-86 620.069,-86"/>
<polygon fill="midnightblue" stroke="midnightblue" points="593.559,-82.5001 583.559,-86 593.559,-89.5001 593.559,-82.5001"/>
</g>
<!-- Node7 -->
<g id="node7" class="node"><title>Node7</title>
<g id="a_node7"><a xlink:href="../../d4/d67/classutil_1_1_vector.html#a06fc54969a49c22c070452cc6940f98c" target="_top" xlink:title="util.Vector.difference">
<polygon fill="white" stroke="black" points="304,-76.5 304,-95.5 418,-95.5 418,-76.5 304,-76.5"/>
<text text-anchor="middle" x="361" y="-83.5" font-family="Helvetica,sans-Serif" font-size="10.00">util.Vector.difference</text>
</a>
</g>
</g>
<!-- Node6&#45;&gt;Node7 -->
<g id="edge6" class="edge"><title>Node6&#45;&gt;Node7</title>
<path fill="none" stroke="midnightblue" d="M251.227,-86C268.332,-86 286.887,-86 303.747,-86"/>
<polygon fill="midnightblue" stroke="midnightblue" points="250.792,-82.5001 240.792,-86 250.791,-89.5001 250.792,-82.5001"/>
</g>
<!-- Node8&#45;&gt;Node4 -->
<g id="edge8" class="edge"><title>Node8&#45;&gt;Node4</title>
<path fill="none" stroke="midnightblue" d="M412.402,-59.8961C435.032,-65.2374 461.37,-71.4537 482.665,-76.4799"/>
<polygon fill="midnightblue" stroke="midnightblue" points="413.164,-56.4798 402.627,-57.589 411.556,-63.2926 413.164,-56.4798"/>
</g>
</g>
</svg>
