<?xml version="1.0" encoding="UTF-8" standalone="no"?>
<!DOCTYPE svg PUBLIC "-//W3C//DTD SVG 1.1//EN"
 "http://www.w3.org/Graphics/SVG/1.1/DTD/svg11.dtd">
<!-- Generated by graphviz version 2.36.0 (20140111.2315)
 -->
<!-- Title: util.Vector.Vector Pages: 1 -->
<svg width="292pt" height="142pt"
 viewBox="0.00 0.00 292.00 142.00" xmlns="http://www.w3.org/2000/svg" xmlns:xlink="http://www.w3.org/1999/xlink">
<g id="graph0" class="graph" transform="scale(1 1) rotate(0) translate(4 138)">
<title>util.Vector.Vector</title>
<polygon fill="white" stroke="none" points="-4,4 -4,-138 288,-138 288,4 -4,4"/>
<!-- Node1 -->
<g id="node1" class="node"><title>Node1</title>
<polygon fill="#bfbfbf" stroke="black" points="0,-57.5 0,-76.5 98,-76.5 98,-57.5 0,-57.5"/>
<text text-anchor="middle" x="49" y="-64.5" font-family="Helvetica,sans-Serif" font-size="10.00">util.Vector.Vector</text>
</g>
<!-- Node2 -->
<g id="node2" class="node"><title>Node2</title>
<g id="a_node2"><a xlink:href="../../d4/d67/classutil_1_1_vector.html#a7ae34648236878f08cf4120e0f047c02" target="_top" xlink:title="util.Vector.angleBetween">
<polygon fill="white" stroke="black" points="142,-114.5 142,-133.5 276,-133.5 276,-114.5 142,-114.5"/>
<text text-anchor="middle" x="209" y="-121.5" font-family="Helvetica,sans-Serif" font-size="10.00">util.Vector.angleBetween</text>
</a>
</g>
</g>
<!-- Node1&#45;&gt;Node2 -->
<g id="edge1" class="edge"><title>Node1&#45;&gt;Node2</title>
<path fill="none" stroke="midnightblue" d="M68.6319,-76.5597C85.405,-84.8905 110.897,-96.8774 134,-105 141.047,-107.478 148.576,-109.785 156.032,-111.877"/>
<polygon fill="midnightblue" stroke="midnightblue" points="155.18,-115.272 165.746,-114.498 157.004,-108.513 155.18,-115.272"/>
</g>
<!-- Node3 -->
<g id="node3" class="node"><title>Node3</title>
<g id="a_node3"><a xlink:href="../../d4/d67/classutil_1_1_vector.html#a1aea3b29ec9c7374d0d5520ece2085a2" target="_top" xlink:title="util.Vector.distanceBetween">
<polygon fill="white" stroke="black" points="134.5,-76.5 134.5,-95.5 283.5,-95.5 283.5,-76.5 134.5,-76.5"/>
<text text-anchor="middle" x="209" y="-83.5" font-family="Helvetica,sans-Serif" font-size="10.00">util.Vector.distanceBetween</text>
</a>
</g>
</g>
<!-- Node1&#45;&gt;Node3 -->
<g id="edge2" class="edge"><title>Node1&#45;&gt;Node3</title>
<path fill="none" stroke="midnightblue" d="M98.2637,-72.8039C106.572,-73.8029 115.417,-74.8666 124.342,-75.9399"/>
<polygon fill="midnightblue" stroke="midnightblue" points="124.082,-79.4337 134.428,-77.1527 124.917,-72.4837 124.082,-79.4337"/>
</g>
<!-- Node4 -->
<g id="node4" class="node"><title>Node4</title>
<g id="a_node4"><a xlink:href="../../d4/d67/classutil_1_1_vector.html#a338b7c1377d3bc795527c2fbeeb25639" target="_top" xlink:title="util.Vector.setDirection">
<polygon fill="white" stroke="black" points="146.5,-38.5 146.5,-57.5 271.5,-57.5 271.5,-38.5 146.5,-38.5"/>
<text text-anchor="middle" x="209" y="-45.5" font-family="Helvetica,sans-Serif" font-size="10.00">util.Vector.setDirection</text>
</a>
</g>
</g>
<!-- Node1&#45;&gt;Node4 -->
<g id="edge3" class="edge"><title>Node1&#45;&gt;Node4</title>
<path fill="none" stroke="midnightblue" d="M98.2637,-61.1961C110.222,-59.7581 123.294,-58.1861 136.114,-56.6445"/>
<polygon fill="midnightblue" stroke="midnightblue" points="136.805,-60.0867 146.316,-55.4177 135.969,-53.1368 136.805,-60.0867"/>
</g>
<!-- Node5 -->
<g id="node5" class="node"><title>Node5</title>
<g id="a_node5"><a xlink:href="../../d4/d67/classutil_1_1_vector.html#a45ba35e870010e16e64d697f97d1b1dc" target="_top" xlink:title="util.Vector.setMagnitude">
<polygon fill="white" stroke="black" points="143,-0.5 143,-19.5 275,-19.5 275,-0.5 143,-0.5"/>
<text text-anchor="middle" x="209" y="-7.5" font-family="Helvetica,sans-Serif" font-size="10.00">util.Vector.setMagnitude</text>
</a>
</g>
</g>
<!-- Node1&#45;&gt;Node5 -->
<g id="edge4" class="edge"><title>Node1&#45;&gt;Node5</title>
<path fill="none" stroke="midnightblue" d="M68.6319,-57.4403C85.405,-49.1095 110.897,-37.1226 134,-29 141.047,-26.5223 148.576,-24.2152 156.032,-22.1235"/>
<polygon fill="midnightblue" stroke="midnightblue" points="157.004,-25.4865 165.746,-19.5016 155.18,-18.7284 157.004,-25.4865"/>
</g>
</g>
</svg>
