<?xml version="1.0" encoding="UTF-8" standalone="no"?>
<!DOCTYPE svg PUBLIC "-//W3C//DTD SVG 1.1//EN"
 "http://www.w3.org/Graphics/SVG/1.1/DTD/svg11.dtd">
<!-- Generated by graphviz version 2.36.0 (20140111.2315)
 -->
<!-- Title: util.Vector.getXChange Pages: 1 -->
<svg width="304pt" height="66pt"
 viewBox="0.00 0.00 304.00 66.00" xmlns="http://www.w3.org/2000/svg" xmlns:xlink="http://www.w3.org/1999/xlink">
<g id="graph0" class="graph" transform="scale(1 1) rotate(0) translate(4 62)">
<title>util.Vector.getXChange</title>
<polygon fill="white" stroke="none" points="-4,4 -4,-62 300,-62 300,4 -4,4"/>
<!-- Node1 -->
<g id="node1" class="node"><title>Node1</title>
<polygon fill="#bfbfbf" stroke="black" points="0.5,-19.5 0.5,-38.5 125.5,-38.5 125.5,-19.5 0.5,-19.5"/>
<text text-anchor="middle" x="63" y="-26.5" font-family="Helvetica,sans-Serif" font-size="10.00">util.Vector.getXChange</text>
</g>
<!-- Node2 -->
<g id="node2" class="node"><title>Node2</title>
<g id="a_node2"><a xlink:href="../../d4/d67/classutil_1_1_vector.html#acebe00e22995a3514458ffa3db195295" target="_top" xlink:title="util.Vector.getDirection">
<polygon fill="white" stroke="black" points="166.5,-38.5 166.5,-57.5 291.5,-57.5 291.5,-38.5 166.5,-38.5"/>
<text text-anchor="middle" x="229" y="-45.5" font-family="Helvetica,sans-Serif" font-size="10.00">util.Vector.getDirection</text>
</a>
</g>
</g>
<!-- Node1&#45;&gt;Node2 -->
<g id="edge1" class="edge"><title>Node1&#45;&gt;Node2</title>
<path fill="none" stroke="midnightblue" d="M125.534,-36.129C135.555,-37.2899 146.011,-38.5013 156.251,-39.6876"/>
<polygon fill="midnightblue" stroke="midnightblue" points="156.057,-43.1885 166.394,-40.8627 156.863,-36.235 156.057,-43.1885"/>
</g>
<!-- Node3 -->
<g id="node3" class="node"><title>Node3</title>
<g id="a_node3"><a xlink:href="../../d4/d67/classutil_1_1_vector.html#afa760c6d12c93fbfcfacd6e279d08d88" target="_top" xlink:title="util.Vector.getMagnitude">
<polygon fill="white" stroke="black" points="162.5,-0.5 162.5,-19.5 295.5,-19.5 295.5,-0.5 162.5,-0.5"/>
<text text-anchor="middle" x="229" y="-7.5" font-family="Helvetica,sans-Serif" font-size="10.00">util.Vector.getMagnitude</text>
</a>
</g>
</g>
<!-- Node1&#45;&gt;Node3 -->
<g id="edge2" class="edge"><title>Node1&#45;&gt;Node3</title>
<path fill="none" stroke="midnightblue" d="M125.534,-21.871C134.251,-20.8612 143.298,-19.8131 152.244,-18.7766"/>
<polygon fill="midnightblue" stroke="midnightblue" points="152.75,-22.2415 162.28,-17.6139 151.944,-15.288 152.75,-22.2415"/>
</g>
</g>
</svg>
