<?xml version="1.0" encoding="UTF-8" standalone="no"?>
<!DOCTYPE svg PUBLIC "-//W3C//DTD SVG 1.1//EN"
 "http://www.w3.org/Graphics/SVG/1.1/DTD/svg11.dtd">
<!-- Generated by graphviz version 2.36.0 (20140111.2315)
 -->
<!-- Title: util.Vector.difference Pages: 1 -->
<!--zoomable 256 -->
<svg id="main" version="1.1" xmlns="http://www.w3.org/2000/svg" xmlns:xlink="http://www.w3.org/1999/xlink" xml:space="preserve" onload="init(evt)">
<style type="text/css"><![CDATA[
.edge:hover path { stroke: red; }
.edge:hover polygon { stroke: red; fill: red; }
]]></style>
<script type="text/javascript"><![CDATA[
var edges = document.getElementsByTagName('g');
if (edges && edges.length) {
  for (var i=0;i<edges.length;i++) {
    if (edges[i].id.substr(0,4)=='edge') {
      edges[i].setAttribute('class','edge');
    }
  }
}
]]></script>
        <defs>
                <circle id="rim" cx="0" cy="0" r="7"/>
                <circle id="rim2" cx="0" cy="0" r="3.5"/>
                <g id="zoomPlus">
                        <use xlink:href="#rim" fill="#404040">
                                <set attributeName="fill" to="#808080" begin="zoomplus.mouseover" end="zoomplus.mouseout"/>
                        </use>
                        <path d="M-4,0h8M0,-4v8" fill="none" stroke="white" stroke-width="1.5" pointer-events="none"/>
                </g>
                <g id="zoomMin">
                        <use xlink:href="#rim" fill="#404040">
                                <set attributeName="fill" to="#808080" begin="zoomminus.mouseover" end="zoomminus.mouseout"/>
                        </use>
                        <path d="M-4,0h8" fill="none" stroke="white" stroke-width="1.5" pointer-events="none"/>
                </g>
                <g id="dirArrow">
                        <path fill="none" stroke="white" stroke-width="1.5" d="M0,-3.0v7 M-2.5,-0.5L0,-3.0L2.5,-0.5"/>
                </g>
               <g id="resetDef">
                       <use xlink:href="#rim2" fill="#404040">
                               <set attributeName="fill" to="#808080" begin="reset.mouseover" end="reset.mouseout"/>
                       </use>
               </g>
        </defs>

<script type="text/javascript">
var viewWidth = 616;
var viewHeight = 256;
var sectionId = 'dynsection-6';
</script>
<script xlink:href="../../svgpan.js"/>
<svg id="graph" class="graph">
<g id="viewport">
<title>util.Vector.difference</title>
<polygon fill="white" stroke="none" points="-4,4 -4,-252 612,-252 612,4 -4,4"/>
<!-- Node1 -->
<g id="node1" class="node"><title>Node1</title>
<polygon fill="#bfbfbf" stroke="black" points="0,-114.5 0,-133.5 114,-133.5 114,-114.5 0,-114.5"/>
<text text-anchor="middle" x="57" y="-121.5" font-family="Helvetica,sans-Serif" font-size="10.00">util.Vector.difference</text>
</g>
<!-- Node2 -->
<g id="node2" class="node"><title>Node2</title>
<g id="a_node2"><a xlink:href="../../d4/d67/classutil_1_1_vector.html#a3186fe1ffdad30bd397dee8fd313cb26" target="_top" xlink:title="util.Vector.negate">
<polygon fill="white" stroke="black" points="150.5,-190.5 150.5,-209.5 251.5,-209.5 251.5,-190.5 150.5,-190.5"/>
<text text-anchor="middle" x="201" y="-197.5" font-family="Helvetica,sans-Serif" font-size="10.00">util.Vector.negate</text>
</a>
</g>
</g>
<!-- Node1&#45;&gt;Node2 -->
<g id="edge1" class="edge"><title>Node1&#45;&gt;Node2</title>
<path fill="none" stroke="midnightblue" d="M75.9844,-133.625C100.525,-146.76 144.697,-170.401 173.162,-185.636"/>
<polygon fill="midnightblue" stroke="midnightblue" points="171.693,-188.82 182.162,-190.453 174.997,-182.648 171.693,-188.82"/>
</g>
<!-- Node6 -->
<g id="node6" class="node"><title>Node6</title>
<g id="a_node6"><a xlink:href="../../d4/d67/classutil_1_1_vector.html#a95063f0d0e294d8829af7283165234a1" target="_top" xlink:title="util.Vector.sum">
<polygon fill="white" stroke="black" points="157,-114.5 157,-133.5 245,-133.5 245,-114.5 157,-114.5"/>
<text text-anchor="middle" x="201" y="-121.5" font-family="Helvetica,sans-Serif" font-size="10.00">util.Vector.sum</text>
</a>
</g>
</g>
<!-- Node1&#45;&gt;Node6 -->
<g id="edge5" class="edge"><title>Node1&#45;&gt;Node6</title>
<path fill="none" stroke="midnightblue" d="M114.122,-124C124.932,-124 136.223,-124 146.932,-124"/>
<polygon fill="midnightblue" stroke="midnightblue" points="146.986,-127.5 156.986,-124 146.986,-120.5 146.986,-127.5"/>
</g>
<!-- Node13 -->
<g id="node13" class="node"><title>Node13</title>
<g id="a_node13"><a xlink:href="../../d4/d67/classutil_1_1_vector.html#ab0543f99948d674a893c79fb79e0ae60" target="_top" xlink:title="util.Vector.Vector">
<polygon fill="white" stroke="black" points="152,-76.5 152,-95.5 250,-95.5 250,-76.5 152,-76.5"/>
<text text-anchor="middle" x="201" y="-83.5" font-family="Helvetica,sans-Serif" font-size="10.00">util.Vector.Vector</text>
</a>
</g>
</g>
<!-- Node1&#45;&gt;Node13 -->
<g id="edge16" class="edge"><title>Node1&#45;&gt;Node13</title>
<path fill="none" stroke="midnightblue" d="M93.8326,-114.411C112.163,-109.506 134.678,-103.48 154.25,-98.2429"/>
<polygon fill="midnightblue" stroke="midnightblue" points="155.424,-101.552 164.179,-95.5859 153.614,-94.7901 155.424,-101.552"/>
</g>
<!-- Node3 -->
<g id="node3" class="node"><title>Node3</title>
<g id="a_node3"><a xlink:href="../../d4/d67/classutil_1_1_vector.html#a60833e2e656743a823aea9e5899dd301" target="_top" xlink:title="util.Vector.turn">
<polygon fill="white" stroke="black" points="320,-228.5 320,-247.5 406,-247.5 406,-228.5 320,-228.5"/>
<text text-anchor="middle" x="363" y="-235.5" font-family="Helvetica,sans-Serif" font-size="10.00">util.Vector.turn</text>
</a>
</g>
</g>
<!-- Node2&#45;&gt;Node3 -->
<g id="edge2" class="edge"><title>Node2&#45;&gt;Node3</title>
<path fill="none" stroke="midnightblue" d="M242.375,-209.589C263.488,-214.604 289.529,-220.788 311.917,-226.105"/>
<polygon fill="midnightblue" stroke="midnightblue" points="311.377,-229.574 321.916,-228.48 312.995,-222.764 311.377,-229.574"/>
</g>
<!-- Node4 -->
<g id="node4" class="node"><title>Node4</title>
<g id="a_node4"><a xlink:href="../../d4/d67/classutil_1_1_vector.html#a338b7c1377d3bc795527c2fbeeb25639" target="_top" xlink:title="util.Vector.setDirection">
<polygon fill="white" stroke="black" points="478.5,-209.5 478.5,-228.5 603.5,-228.5 603.5,-209.5 478.5,-209.5"/>
<text text-anchor="middle" x="541" y="-216.5" font-family="Helvetica,sans-Serif" font-size="10.00">util.Vector.setDirection</text>
</a>
</g>
</g>
<!-- Node3&#45;&gt;Node4 -->
<g id="edge3" class="edge"><title>Node3&#45;&gt;Node4</title>
<path fill="none" stroke="midnightblue" d="M406.156,-233.449C424.684,-231.449 446.973,-229.043 468.001,-226.773"/>
<polygon fill="midnightblue" stroke="midnightblue" points="468.634,-230.225 478.2,-225.672 467.882,-223.265 468.634,-230.225"/>
</g>
<!-- Node5 -->
<g id="node5" class="node"><title>Node5</title>
<g id="a_node5"><a xlink:href="../../d4/d67/classutil_1_1_vector.html#acebe00e22995a3514458ffa3db195295" target="_top" xlink:title="util.Vector.getDirection">
<polygon fill="white" stroke="black" points="478.5,-38.5 478.5,-57.5 603.5,-57.5 603.5,-38.5 478.5,-38.5"/>
<text text-anchor="middle" x="541" y="-45.5" font-family="Helvetica,sans-Serif" font-size="10.00">util.Vector.getDirection</text>
</a>
</g>
</g>
<!-- Node3&#45;&gt;Node5 -->
<g id="edge4" class="edge"><title>Node3&#45;&gt;Node5</title>
<path fill="none" stroke="midnightblue" d="M378.81,-228.306C394.434,-217.703 419.329,-199.711 438,-181 475.141,-143.781 510.668,-92.8412 528.356,-66.093"/>
<polygon fill="midnightblue" stroke="midnightblue" points="531.298,-67.988 533.842,-57.7029 525.44,-64.1573 531.298,-67.988"/>
</g>
<!-- Node6&#45;&gt;Node4 -->
<g id="edge12" class="edge"><title>Node6&#45;&gt;Node4</title>
<path fill="none" stroke="midnightblue" d="M213.062,-133.68C228.627,-146.721 258.412,-169.609 288,-181 346.162,-203.391 416.613,-212.646 468.221,-216.442"/>
<polygon fill="midnightblue" stroke="midnightblue" points="468.066,-219.94 478.282,-217.131 468.544,-212.956 468.066,-219.94"/>
</g>
<!-- Node7 -->
<g id="node7" class="node"><title>Node7</title>
<g id="a_node7"><a xlink:href="../../d4/d67/classutil_1_1_vector.html#a3509d652ff8c361b07447f55e0007f31" target="_top" xlink:title="util.Vector.getXChange">
<polygon fill="white" stroke="black" points="300.5,-0.5 300.5,-19.5 425.5,-19.5 425.5,-0.5 300.5,-0.5"/>
<text text-anchor="middle" x="363" y="-7.5" font-family="Helvetica,sans-Serif" font-size="10.00">util.Vector.getXChange</text>
</a>
</g>
</g>
<!-- Node6&#45;&gt;Node7 -->
<g id="edge6" class="edge"><title>Node6&#45;&gt;Node7</title>
<path fill="none" stroke="midnightblue" d="M237.594,-114.413C242.822,-111.934 247.839,-108.844 252,-105 279.454,-79.6388 259.171,-52.7874 288,-29 290.059,-27.3011 292.252,-25.7519 294.544,-24.3394"/>
<polygon fill="midnightblue" stroke="midnightblue" points="296.539,-27.2475 303.81,-19.5409 293.32,-21.0316 296.539,-27.2475"/>
</g>
<!-- Node9 -->
<g id="node9" class="node"><title>Node9</title>
<g id="a_node9"><a xlink:href="../../d4/d67/classutil_1_1_vector.html#aca15e89ce2edd3e93dcb73621c26237f" target="_top" xlink:title="util.Vector.getYChange">
<polygon fill="white" stroke="black" points="301,-38.5 301,-57.5 425,-57.5 425,-38.5 301,-38.5"/>
<text text-anchor="middle" x="363" y="-45.5" font-family="Helvetica,sans-Serif" font-size="10.00">util.Vector.getYChange</text>
</a>
</g>
</g>
<!-- Node6&#45;&gt;Node9 -->
<g id="edge9" class="edge"><title>Node6&#45;&gt;Node9</title>
<path fill="none" stroke="midnightblue" d="M233.736,-114.409C240.047,-111.832 246.436,-108.708 252,-105 271.36,-92.0995 267.949,-78.7985 288,-67 291.833,-64.7444 295.932,-62.7538 300.16,-60.9973"/>
<polygon fill="midnightblue" stroke="midnightblue" points="301.409,-64.2672 309.573,-57.5143 298.98,-57.7022 301.409,-64.2672"/>
</g>
<!-- Node10 -->
<g id="node10" class="node"><title>Node10</title>
<g id="a_node10"><a xlink:href="../../d4/d67/classutil_1_1_vector.html#a7ae34648236878f08cf4120e0f047c02" target="_top" xlink:title="util.Vector.angleBetween">
<polygon fill="white" stroke="black" points="296,-152.5 296,-171.5 430,-171.5 430,-152.5 296,-152.5"/>
<text text-anchor="middle" x="363" y="-159.5" font-family="Helvetica,sans-Serif" font-size="10.00">util.Vector.angleBetween</text>
</a>
</g>
</g>
<!-- Node6&#45;&gt;Node10 -->
<g id="edge13" class="edge"><title>Node6&#45;&gt;Node10</title>
<path fill="none" stroke="midnightblue" d="M242.375,-133.589C263.488,-138.604 289.529,-144.788 311.917,-150.105"/>
<polygon fill="midnightblue" stroke="midnightblue" points="311.377,-153.574 321.916,-152.48 312.995,-146.764 311.377,-153.574"/>
</g>
<!-- Node11 -->
<g id="node11" class="node"><title>Node11</title>
<g id="a_node11"><a xlink:href="../../d4/d67/classutil_1_1_vector.html#a45ba35e870010e16e64d697f97d1b1dc" target="_top" xlink:title="util.Vector.setMagnitude">
<polygon fill="white" stroke="black" points="297,-114.5 297,-133.5 429,-133.5 429,-114.5 297,-114.5"/>
<text text-anchor="middle" x="363" y="-121.5" font-family="Helvetica,sans-Serif" font-size="10.00">util.Vector.setMagnitude</text>
</a>
</g>
</g>
<!-- Node6&#45;&gt;Node11 -->
<g id="edge14" class="edge"><title>Node6&#45;&gt;Node11</title>
<path fill="none" stroke="midnightblue" d="M245.298,-124C258.033,-124 272.352,-124 286.484,-124"/>
<polygon fill="midnightblue" stroke="midnightblue" points="286.715,-127.5 296.715,-124 286.715,-120.5 286.715,-127.5"/>
</g>
<!-- Node12 -->
<g id="node12" class="node"><title>Node12</title>
<g id="a_node12"><a xlink:href="../../d4/d67/classutil_1_1_vector.html#a1aea3b29ec9c7374d0d5520ece2085a2" target="_top" xlink:title="util.Vector.distanceBetween">
<polygon fill="white" stroke="black" points="288.5,-76.5 288.5,-95.5 437.5,-95.5 437.5,-76.5 288.5,-76.5"/>
<text text-anchor="middle" x="363" y="-83.5" font-family="Helvetica,sans-Serif" font-size="10.00">util.Vector.distanceBetween</text>
</a>
</g>
</g>
<!-- Node6&#45;&gt;Node12 -->
<g id="edge15" class="edge"><title>Node6&#45;&gt;Node12</title>
<path fill="none" stroke="midnightblue" d="M242.375,-114.411C263.488,-109.396 289.529,-103.212 311.917,-97.8947"/>
<polygon fill="midnightblue" stroke="midnightblue" points="312.995,-101.236 321.916,-95.5201 311.377,-94.4256 312.995,-101.236"/>
</g>
<!-- Node7&#45;&gt;Node5 -->
<g id="edge8" class="edge"><title>Node7&#45;&gt;Node5</title>
<path fill="none" stroke="midnightblue" d="M408.412,-19.589C431.951,-24.6713 461.057,-30.9554 485.905,-36.3203"/>
<polygon fill="midnightblue" stroke="midnightblue" points="485.394,-39.7906 495.907,-38.4799 486.871,-32.9482 485.394,-39.7906"/>
</g>
<!-- Node8 -->
<g id="node8" class="node"><title>Node8</title>
<g id="a_node8"><a xlink:href="../../d4/d67/classutil_1_1_vector.html#afa760c6d12c93fbfcfacd6e279d08d88" target="_top" xlink:title="util.Vector.getMagnitude">
<polygon fill="white" stroke="black" points="474.5,-0.5 474.5,-19.5 607.5,-19.5 607.5,-0.5 474.5,-0.5"/>
<text text-anchor="middle" x="541" y="-7.5" font-family="Helvetica,sans-Serif" font-size="10.00">util.Vector.getMagnitude</text>
</a>
</g>
</g>
<!-- Node7&#45;&gt;Node8 -->
<g id="edge7" class="edge"><title>Node7&#45;&gt;Node8</title>
<path fill="none" stroke="midnightblue" d="M425.556,-10C437.993,-10 451.206,-10 464.069,-10"/>
<polygon fill="midnightblue" stroke="midnightblue" points="464.288,-13.5001 474.288,-10 464.288,-6.5001 464.288,-13.5001"/>
</g>
<!-- Node9&#45;&gt;Node5 -->
<g id="edge11" class="edge"><title>Node9&#45;&gt;Node5</title>
<path fill="none" stroke="midnightblue" d="M425.062,-48C438.964,-48 453.857,-48 468.161,-48"/>
<polygon fill="midnightblue" stroke="midnightblue" points="468.45,-51.5001 478.45,-48 468.449,-44.5001 468.45,-51.5001"/>
</g>
<!-- Node9&#45;&gt;Node8 -->
<g id="edge10" class="edge"><title>Node9&#45;&gt;Node8</title>
<path fill="none" stroke="midnightblue" d="M408.412,-38.411C431.951,-33.3287 461.057,-27.0446 485.905,-21.6797"/>
<polygon fill="midnightblue" stroke="midnightblue" points="486.871,-25.0518 495.907,-19.5201 485.394,-18.2094 486.871,-25.0518"/>
</g>
</g>
</svg>
        <g id="navigator" transform="translate(0 0)" fill="#404254">
                <rect fill="#f2f5e9" fill-opacity="0.5" stroke="#606060" stroke-width=".5" x="0" y="0" width="60" height="60"/>
                <use id="zoomplus" xlink:href="#zoomPlus" x="17" y="9" onmousedown="handleZoom(evt,'in')"/>
                <use id="zoomminus" xlink:href="#zoomMin" x="42" y="9" onmousedown="handleZoom(evt,'out')"/>
                <use id="reset" xlink:href="#resetDef" x="30" y="36" onmousedown="handleReset()"/>
                <g id="arrowUp" xlink:href="#dirArrow" transform="translate(30 24)" onmousedown="handlePan(0,-1)">
                  <use xlink:href="#rim" fill="#404040">
                        <set attributeName="fill" to="#808080" begin="arrowUp.mouseover" end="arrowUp.mouseout"/>
                  </use>
                  <path fill="none" stroke="white" stroke-width="1.5" d="M0,-3.0v7 M-2.5,-0.5L0,-3.0L2.5,-0.5"/>
                </g>
                <g id="arrowRight" xlink:href="#dirArrow" transform="rotate(90) translate(36 -43)" onmousedown="handlePan(1,0)">
                  <use xlink:href="#rim" fill="#404040">
                        <set attributeName="fill" to="#808080" begin="arrowRight.mouseover" end="arrowRight.mouseout"/>
                  </use>
                  <path fill="none" stroke="white" stroke-width="1.5" d="M0,-3.0v7 M-2.5,-0.5L0,-3.0L2.5,-0.5"/>
                </g>
                <g id="arrowDown" xlink:href="#dirArrow" transform="rotate(180) translate(-30 -48)" onmousedown="handlePan(0,1)">
                  <use xlink:href="#rim" fill="#404040">
                        <set attributeName="fill" to="#808080" begin="arrowDown.mouseover" end="arrowDown.mouseout"/>
                  </use>
                  <path fill="none" stroke="white" stroke-width="1.5" d="M0,-3.0v7 M-2.5,-0.5L0,-3.0L2.5,-0.5"/>
                </g>
                <g id="arrowLeft" xlink:href="#dirArrow" transform="rotate(270) translate(-36 17)" onmousedown="handlePan(-1,0)">
                  <use xlink:href="#rim" fill="#404040">
                        <set attributeName="fill" to="#808080" begin="arrowLeft.mouseover" end="arrowLeft.mouseout"/>
                  </use>
                  <path fill="none" stroke="white" stroke-width="1.5" d="M0,-3.0v7 M-2.5,-0.5L0,-3.0L2.5,-0.5"/>
                </g>
        </g>
        <svg viewBox="0 0 15 15" width="100%" height="30px" preserveAspectRatio="xMaxYMin meet">
         <g id="arrow_out" transform="scale(0.3 0.3)">
          <a xlink:href="classutil_1_1_vector_a06fc54969a49c22c070452cc6940f98c_cgraph_org.svg" target="_base">
           <rect id="button" ry="5" rx="5" y="6" x="6" height="38" width="38"
                fill="#f2f5e9" fill-opacity="0.5" stroke="#606060" stroke-width="1.0"/>
           <path id="arrow"
             d="M 11.500037,31.436501 C 11.940474,20.09759 22.043105,11.32322 32.158766,21.979434 L 37.068811,17.246167 C 37.068811,17.246167 37.088388,32 37.088388,32 L 22.160133,31.978069 C 22.160133,31.978069 26.997745,27.140456 26.997745,27.140456 C 18.528582,18.264221 13.291696,25.230495 11.500037,31.436501 z"
             style="fill:#404040;"/>
          </a>
         </g>
        </svg>
</svg>
