<?xml version="1.0" encoding="UTF-8" standalone="no"?>
<!DOCTYPE svg PUBLIC "-//W3C//DTD SVG 1.1//EN"
 "http://www.w3.org/Graphics/SVG/1.1/DTD/svg11.dtd">
<!-- Generated by graphviz version 2.36.0 (20140111.2315)
 -->
<!-- Title: util.Vector.getXChange Pages: 1 -->
<svg width="982pt" height="183pt"
 viewBox="0.00 0.00 982.00 183.00" xmlns="http://www.w3.org/2000/svg" xmlns:xlink="http://www.w3.org/1999/xlink">
<g id="graph0" class="graph" transform="scale(1 1) rotate(0) translate(4 179)">
<title>util.Vector.getXChange</title>
<polygon fill="white" stroke="none" points="-4,4 -4,-179 978,-179 978,4 -4,4"/>
<!-- Node1 -->
<g id="node1" class="node"><title>Node1</title>
<polygon fill="#bfbfbf" stroke="black" points="0.5,-81.5 0.5,-100.5 125.5,-100.5 125.5,-81.5 0.5,-81.5"/>
<text text-anchor="middle" x="63" y="-88.5" font-family="Helvetica,sans-Serif" font-size="10.00">util.Vector.getXChange</text>
</g>
<!-- Node2 -->
<g id="node2" class="node"><title>Node2</title>
<g id="a_node2"><a xlink:href="../../d4/d67/classutil_1_1_vector.html#a95063f0d0e294d8829af7283165234a1" target="_top" xlink:title="util.Vector.sum">
<polygon fill="white" stroke="black" points="178,-113.5 178,-132.5 266,-132.5 266,-113.5 178,-113.5"/>
<text text-anchor="middle" x="222" y="-120.5" font-family="Helvetica,sans-Serif" font-size="10.00">util.Vector.sum</text>
</a>
</g>
</g>
<!-- Node1&#45;&gt;Node2 -->
<g id="edge1" class="edge"><title>Node1&#45;&gt;Node2</title>
<path fill="none" stroke="midnightblue" d="M120.664,-102.549C139.563,-106.401 160.297,-110.627 177.986,-114.233"/>
<polygon fill="midnightblue" stroke="midnightblue" points="121.178,-99.0822 110.68,-100.514 119.78,-105.941 121.178,-99.0822"/>
</g>
<!-- Node4 -->
<g id="node4" class="node"><title>Node4</title>
<g id="a_node4"><a xlink:href="../../d7/d1e/classutil_1_1_location.html#a82f3e59d7d3e3d46df862be2e63c80e3" target="_top" xlink:title="util.Location.translate">
<polygon fill="white" stroke="black" points="162,-50.5 162,-69.5 282,-69.5 282,-50.5 162,-50.5"/>
<text text-anchor="middle" x="222" y="-57.5" font-family="Helvetica,sans-Serif" font-size="10.00">util.Location.translate</text>
</a>
</g>
</g>
<!-- Node1&#45;&gt;Node4 -->
<g id="edge3" class="edge"><title>Node1&#45;&gt;Node4</title>
<path fill="none" stroke="midnightblue" d="M122.504,-79.4483C139.063,-76.1787 156.894,-72.6579 172.774,-69.5224"/>
<polygon fill="midnightblue" stroke="midnightblue" points="121.519,-76.0751 112.386,-81.446 122.875,-82.9425 121.519,-76.0751"/>
</g>
<!-- Node3 -->
<g id="node3" class="node"><title>Node3</title>
<g id="a_node3"><a xlink:href="../../d4/d67/classutil_1_1_vector.html#a06fc54969a49c22c070452cc6940f98c" target="_top" xlink:title="util.Vector.difference">
<polygon fill="white" stroke="black" points="327,-126.5 327,-145.5 441,-145.5 441,-126.5 327,-126.5"/>
<text text-anchor="middle" x="384" y="-133.5" font-family="Helvetica,sans-Serif" font-size="10.00">util.Vector.difference</text>
</a>
</g>
</g>
<!-- Node2&#45;&gt;Node3 -->
<g id="edge2" class="edge"><title>Node2&#45;&gt;Node3</title>
<path fill="none" stroke="midnightblue" d="M276.621,-127.357C292.731,-128.666 310.448,-130.105 326.724,-131.428"/>
<polygon fill="midnightblue" stroke="midnightblue" points="276.549,-123.839 266.298,-126.518 275.982,-130.816 276.549,-123.839"/>
</g>
<!-- Node5 -->
<g id="node5" class="node"><title>Node5</title>
<g id="a_node5"><a xlink:href="../../d6/d34/classmodel_1_1_turtle.html#aeeab176e64d1ad18647e37aee02affc7" target="_top" xlink:title="model.Turtle.getPainting\lPoint">
<polygon fill="white" stroke="black" points="318.5,-77 318.5,-107 449.5,-107 449.5,-77 318.5,-77"/>
<text text-anchor="start" x="326.5" y="-95" font-family="Helvetica,sans-Serif" font-size="10.00">model.Turtle.getPainting</text>
<text text-anchor="middle" x="384" y="-84" font-family="Helvetica,sans-Serif" font-size="10.00">Point</text>
</a>
</g>
</g>
<!-- Node4&#45;&gt;Node5 -->
<g id="edge4" class="edge"><title>Node4&#45;&gt;Node5</title>
<path fill="none" stroke="midnightblue" d="M280.661,-71.5322C292.918,-73.9836 305.935,-76.5871 318.431,-79.0862"/>
<polygon fill="midnightblue" stroke="midnightblue" points="281.064,-68.0436 270.572,-69.5144 279.691,-74.9077 281.064,-68.0436"/>
</g>
<!-- Node11 -->
<g id="node11" class="node"><title>Node11</title>
<g id="a_node11"><a xlink:href="../../d6/d34/classmodel_1_1_turtle.html#a84ecdb68ad525c369c4dc7dedd675607" target="_top" xlink:title="model.Turtle.move">
<polygon fill="white" stroke="black" points="331.5,-38.5 331.5,-57.5 436.5,-57.5 436.5,-38.5 331.5,-38.5"/>
<text text-anchor="middle" x="384" y="-45.5" font-family="Helvetica,sans-Serif" font-size="10.00">model.Turtle.move</text>
</a>
</g>
</g>
<!-- Node4&#45;&gt;Node11 -->
<g id="edge11" class="edge"><title>Node4&#45;&gt;Node11</title>
<path fill="none" stroke="midnightblue" d="M292.124,-54.8157C305.336,-53.8248 318.952,-52.8036 331.493,-51.8631"/>
<polygon fill="midnightblue" stroke="midnightblue" points="291.834,-51.3275 282.124,-55.5657 292.357,-58.3079 291.834,-51.3275"/>
</g>
<!-- Node12 -->
<g id="node12" class="node"><title>Node12</title>
<g id="a_node12"><a xlink:href="../../d6/d34/classmodel_1_1_turtle.html#a427ec25c0a04d906a6e5d77ae5791a20" target="_top" xlink:title="model.Turtle.setPosition">
<polygon fill="white" stroke="black" points="318.5,-0.5 318.5,-19.5 449.5,-19.5 449.5,-0.5 318.5,-0.5"/>
<text text-anchor="middle" x="384" y="-7.5" font-family="Helvetica,sans-Serif" font-size="10.00">model.Turtle.setPosition</text>
</a>
</g>
</g>
<!-- Node4&#45;&gt;Node12 -->
<g id="edge12" class="edge"><title>Node4&#45;&gt;Node12</title>
<path fill="none" stroke="midnightblue" d="M261.347,-47.1869C278.621,-41.4927 299.295,-34.7841 318,-29 328.221,-25.8393 339.389,-22.5248 349.539,-19.5653"/>
<polygon fill="midnightblue" stroke="midnightblue" points="260.006,-43.9441 251.611,-50.4076 262.204,-50.5899 260.006,-43.9441"/>
</g>
<!-- Node6 -->
<g id="node6" class="node"><title>Node6</title>
<g id="a_node6"><a xlink:href="../../d6/d34/classmodel_1_1_turtle.html#a9eb4cbe280f1a7f2d15df187986eecb8" target="_top" xlink:title="model.Turtle.getBounds">
<polygon fill="white" stroke="black" points="486,-155.5 486,-174.5 616,-174.5 616,-155.5 486,-155.5"/>
<text text-anchor="middle" x="551" y="-162.5" font-family="Helvetica,sans-Serif" font-size="10.00">model.Turtle.getBounds</text>
</a>
</g>
</g>
<!-- Node5&#45;&gt;Node6 -->
<g id="edge5" class="edge"><title>Node5&#45;&gt;Node6</title>
<path fill="none" stroke="midnightblue" d="M437.597,-111.07C441.845,-112.96 446.027,-114.944 450,-117 467.078,-125.839 468.885,-132.233 486,-141 496.773,-146.518 509.121,-151.449 520.08,-155.385"/>
<polygon fill="midnightblue" stroke="midnightblue" points="438.819,-107.786 428.247,-107.092 436.078,-114.228 438.819,-107.786"/>
</g>
<!-- Node7 -->
<g id="node7" class="node"><title>Node7</title>
<g id="a_node7"><a xlink:href="../../d8/dff/classmodel_1_1_turtle_manager.html#a7f2863fbe8420cb5859ab922bd866b1d" target="_top" xlink:title="model.TurtleManager.paint">
<polygon fill="white" stroke="black" points="652.5,-98.5 652.5,-117.5 795.5,-117.5 795.5,-98.5 652.5,-98.5"/>
<text text-anchor="middle" x="724" y="-105.5" font-family="Helvetica,sans-Serif" font-size="10.00">model.TurtleManager.paint</text>
</a>
</g>
</g>
<!-- Node5&#45;&gt;Node7 -->
<g id="edge6" class="edge"><title>Node5&#45;&gt;Node7</title>
<path fill="none" stroke="midnightblue" d="M459.681,-105.176C468.527,-106.338 477.449,-107.327 486,-108 541.786,-112.391 605.187,-112.117 652.368,-110.895"/>
<polygon fill="midnightblue" stroke="midnightblue" points="460.133,-101.706 449.748,-103.799 459.172,-108.639 460.133,-101.706"/>
</g>
<!-- Node9 -->
<g id="node9" class="node"><title>Node9</title>
<g id="a_node9"><a xlink:href="../../d6/d34/classmodel_1_1_turtle.html#a7d850c710649567ac20161f847b2ad11" target="_top" xlink:title="model.Turtle.paint">
<polygon fill="white" stroke="black" points="500,-79.5 500,-98.5 602,-98.5 602,-79.5 500,-79.5"/>
<text text-anchor="middle" x="551" y="-86.5" font-family="Helvetica,sans-Serif" font-size="10.00">model.Turtle.paint</text>
</a>
</g>
</g>
<!-- Node5&#45;&gt;Node9 -->
<g id="edge8" class="edge"><title>Node5&#45;&gt;Node9</title>
<path fill="none" stroke="midnightblue" d="M460.019,-90.636C473.563,-90.3898 487.378,-90.1386 499.988,-89.9093"/>
<polygon fill="midnightblue" stroke="midnightblue" points="459.673,-87.1416 449.739,-90.8229 459.801,-94.1405 459.673,-87.1416"/>
</g>
<!-- Node10 -->
<g id="node10" class="node"><title>Node10</title>
<g id="a_node10"><a xlink:href="../../d6/d34/classmodel_1_1_turtle.html#a094c7d59e4551b8280a793199f612740" target="_top" xlink:title="model.Turtle.stamp">
<polygon fill="white" stroke="black" points="496.5,-41.5 496.5,-60.5 605.5,-60.5 605.5,-41.5 496.5,-41.5"/>
<text text-anchor="middle" x="551" y="-48.5" font-family="Helvetica,sans-Serif" font-size="10.00">model.Turtle.stamp</text>
</a>
</g>
</g>
<!-- Node5&#45;&gt;Node10 -->
<g id="edge10" class="edge"><title>Node5&#45;&gt;Node10</title>
<path fill="none" stroke="midnightblue" d="M455.46,-74.4918C474.699,-69.7111 494.831,-64.7086 511.549,-60.5545"/>
<polygon fill="midnightblue" stroke="midnightblue" points="454.364,-71.1576 445.503,-76.9659 456.052,-77.951 454.364,-71.1576"/>
</g>
<!-- Node8 -->
<g id="node8" class="node"><title>Node8</title>
<g id="a_node8"><a xlink:href="../../de/d84/classcontroller_1_1_workspace.html#aa3ec59da02e89f7882fb31677330af80" target="_top" xlink:title="controller.Workspace.paint">
<polygon fill="white" stroke="black" points="832,-98.5 832,-117.5 974,-117.5 974,-98.5 832,-98.5"/>
<text text-anchor="middle" x="903" y="-105.5" font-family="Helvetica,sans-Serif" font-size="10.00">controller.Workspace.paint</text>
</a>
</g>
</g>
<!-- Node7&#45;&gt;Node8 -->
<g id="edge7" class="edge"><title>Node7&#45;&gt;Node8</title>
<path fill="none" stroke="midnightblue" d="M805.879,-108C814.591,-108 823.402,-108 831.971,-108"/>
<polygon fill="midnightblue" stroke="midnightblue" points="805.718,-104.5 795.718,-108 805.718,-111.5 805.718,-104.5"/>
</g>
<!-- Node9&#45;&gt;Node7 -->
<g id="edge9" class="edge"><title>Node9&#45;&gt;Node7</title>
<path fill="none" stroke="midnightblue" d="M612.522,-95.7247C625.421,-97.1579 639.152,-98.6835 652.391,-100.155"/>
<polygon fill="midnightblue" stroke="midnightblue" points="612.706,-92.2237 602.381,-94.5979 611.933,-99.1809 612.706,-92.2237"/>
</g>
<!-- Node13 -->
<g id="node13" class="node"><title>Node13</title>
<g id="a_node13"><a xlink:href="../../d6/d34/classmodel_1_1_turtle.html#a817b1ab6a35fa3deb30ea4569ab70db1" target="_top" xlink:title="model.Turtle.goHome">
<polygon fill="white" stroke="black" points="491.5,-0.5 491.5,-19.5 610.5,-19.5 610.5,-0.5 491.5,-0.5"/>
<text text-anchor="middle" x="551" y="-7.5" font-family="Helvetica,sans-Serif" font-size="10.00">model.Turtle.goHome</text>
</a>
</g>
</g>
<!-- Node12&#45;&gt;Node13 -->
<g id="edge13" class="edge"><title>Node12&#45;&gt;Node13</title>
<path fill="none" stroke="midnightblue" d="M459.808,-10C470.388,-10 481.139,-10 491.355,-10"/>
<polygon fill="midnightblue" stroke="midnightblue" points="459.739,-6.5001 449.739,-10 459.739,-13.5001 459.739,-6.5001"/>
</g>
<!-- Node14 -->
<g id="node14" class="node"><title>Node14</title>
<g id="a_node14"><a xlink:href="../../d6/d34/classmodel_1_1_turtle.html#a65bffb6b24e40350f6094e054358dcbb" target="_top" xlink:title="model.Turtle.clear">
<polygon fill="white" stroke="black" points="673.5,-0.5 673.5,-19.5 774.5,-19.5 774.5,-0.5 673.5,-0.5"/>
<text text-anchor="middle" x="724" y="-7.5" font-family="Helvetica,sans-Serif" font-size="10.00">model.Turtle.clear</text>
</a>
</g>
</g>
<!-- Node13&#45;&gt;Node14 -->
<g id="edge14" class="edge"><title>Node13&#45;&gt;Node14</title>
<path fill="none" stroke="midnightblue" d="M621.039,-10C638.576,-10 657.073,-10 673.427,-10"/>
<polygon fill="midnightblue" stroke="midnightblue" points="620.849,-6.5001 610.848,-10 620.848,-13.5001 620.849,-6.5001"/>
</g>
</g>
</svg>
