<?xml version="1.0" encoding="UTF-8" standalone="no"?>
<!DOCTYPE svg PUBLIC "-//W3C//DTD SVG 1.1//EN"
 "http://www.w3.org/Graphics/SVG/1.1/DTD/svg11.dtd">
<!-- Generated by graphviz version 2.36.0 (20140111.2315)
 -->
<!-- Title: util.Vector.equals Pages: 1 -->
<svg width="276pt" height="142pt"
 viewBox="0.00 0.00 276.00 142.00" xmlns="http://www.w3.org/2000/svg" xmlns:xlink="http://www.w3.org/1999/xlink">
<g id="graph0" class="graph" transform="scale(1 1) rotate(0) translate(4 138)">
<title>util.Vector.equals</title>
<polygon fill="white" stroke="none" points="-4,4 -4,-138 272,-138 272,4 -4,4"/>
<!-- Node1 -->
<g id="node1" class="node"><title>Node1</title>
<polygon fill="#bfbfbf" stroke="black" points="0,-57.5 0,-76.5 98,-76.5 98,-57.5 0,-57.5"/>
<text text-anchor="middle" x="49" y="-64.5" font-family="Helvetica,sans-Serif" font-size="10.00">util.Vector.equals</text>
</g>
<!-- Node2 -->
<g id="node2" class="node"><title>Node2</title>
<g id="a_node2"><a xlink:href="../../d4/d67/classutil_1_1_vector.html#a4ade2e2d13bf79dacac3b88614f4888a" target="_top" xlink:title="util.Vector.fuzzyEquals">
<polygon fill="white" stroke="black" points="139.5,-114.5 139.5,-133.5 262.5,-133.5 262.5,-114.5 139.5,-114.5"/>
<text text-anchor="middle" x="201" y="-121.5" font-family="Helvetica,sans-Serif" font-size="10.00">util.Vector.fuzzyEquals</text>
</a>
</g>
</g>
<!-- Node1&#45;&gt;Node2 -->
<g id="edge1" class="edge"><title>Node1&#45;&gt;Node2</title>
<path fill="none" stroke="midnightblue" d="M69.021,-76.5593C85.835,-84.7776 111.167,-96.5989 134,-105 140.316,-107.324 147.054,-109.546 153.722,-111.599"/>
<polygon fill="midnightblue" stroke="midnightblue" points="152.801,-114.977 163.384,-114.478 154.8,-108.268 152.801,-114.977"/>
</g>
<!-- Node3 -->
<g id="node3" class="node"><title>Node3</title>
<g id="a_node3"><a xlink:href="../../d4/d67/classutil_1_1_vector.html#acebe00e22995a3514458ffa3db195295" target="_top" xlink:title="util.Vector.getDirection">
<polygon fill="white" stroke="black" points="138.5,-76.5 138.5,-95.5 263.5,-95.5 263.5,-76.5 138.5,-76.5"/>
<text text-anchor="middle" x="201" y="-83.5" font-family="Helvetica,sans-Serif" font-size="10.00">util.Vector.getDirection</text>
</a>
</g>
</g>
<!-- Node1&#45;&gt;Node3 -->
<g id="edge2" class="edge"><title>Node1&#45;&gt;Node3</title>
<path fill="none" stroke="midnightblue" d="M98.2866,-73.1163C107.857,-74.3286 118.096,-75.6255 128.254,-76.9122"/>
<polygon fill="midnightblue" stroke="midnightblue" points="127.998,-80.4076 138.359,-78.1921 128.878,-73.4631 127.998,-80.4076"/>
</g>
<!-- Node4 -->
<g id="node4" class="node"><title>Node4</title>
<g id="a_node4"><a xlink:href="../../d4/d67/classutil_1_1_vector.html#afa760c6d12c93fbfcfacd6e279d08d88" target="_top" xlink:title="util.Vector.getMagnitude">
<polygon fill="white" stroke="black" points="134.5,-38.5 134.5,-57.5 267.5,-57.5 267.5,-38.5 134.5,-38.5"/>
<text text-anchor="middle" x="201" y="-45.5" font-family="Helvetica,sans-Serif" font-size="10.00">util.Vector.getMagnitude</text>
</a>
</g>
</g>
<!-- Node1&#45;&gt;Node4 -->
<g id="edge3" class="edge"><title>Node1&#45;&gt;Node4</title>
<path fill="none" stroke="midnightblue" d="M98.2866,-60.8837C106.625,-59.8275 115.47,-58.7072 124.327,-57.5852"/>
<polygon fill="midnightblue" stroke="midnightblue" points="124.826,-61.0501 134.307,-56.3212 123.946,-54.1056 124.826,-61.0501"/>
</g>
<!-- Node5 -->
<g id="node5" class="node"><title>Node5</title>
<g id="a_node5"><a xlink:href="../../d4/d67/classutil_1_1_vector.html#ab0543f99948d674a893c79fb79e0ae60" target="_top" xlink:title="util.Vector.Vector">
<polygon fill="white" stroke="black" points="152,-0.5 152,-19.5 250,-19.5 250,-0.5 152,-0.5"/>
<text text-anchor="middle" x="201" y="-7.5" font-family="Helvetica,sans-Serif" font-size="10.00">util.Vector.Vector</text>
</a>
</g>
</g>
<!-- Node1&#45;&gt;Node5 -->
<g id="edge4" class="edge"><title>Node1&#45;&gt;Node5</title>
<path fill="none" stroke="midnightblue" d="M69.021,-57.4407C85.835,-49.2224 111.167,-37.4011 134,-29 140.316,-26.6763 147.054,-24.4537 153.722,-22.4006"/>
<polygon fill="midnightblue" stroke="midnightblue" points="154.8,-25.7316 163.384,-19.5218 152.801,-19.0231 154.8,-25.7316"/>
</g>
</g>
</svg>
