<?xml version="1.0" encoding="UTF-8" standalone="no"?>
<!DOCTYPE svg PUBLIC "-//W3C//DTD SVG 1.1//EN"
 "http://www.w3.org/Graphics/SVG/1.1/DTD/svg11.dtd">
<!-- Generated by graphviz version 2.36.0 (20140111.2315)
 -->
<!-- Title: util.Vector.getDirection Pages: 1 -->
<!--zoomable 534 -->
<svg id="main" version="1.1" xmlns="http://www.w3.org/2000/svg" xmlns:xlink="http://www.w3.org/1999/xlink" xml:space="preserve" onload="init(evt)">
<style type="text/css"><![CDATA[
.edge:hover path { stroke: red; }
.edge:hover polygon { stroke: red; fill: red; }
]]></style>
<script type="text/javascript"><![CDATA[
var edges = document.getElementsByTagName('g');
if (edges && edges.length) {
  for (var i=0;i<edges.length;i++) {
    if (edges[i].id.substr(0,4)=='edge') {
      edges[i].setAttribute('class','edge');
    }
  }
}
]]></script>
        <defs>
                <circle id="rim" cx="0" cy="0" r="7"/>
                <circle id="rim2" cx="0" cy="0" r="3.5"/>
                <g id="zoomPlus">
                        <use xlink:href="#rim" fill="#404040">
                                <set attributeName="fill" to="#808080" begin="zoomplus.mouseover" end="zoomplus.mouseout"/>
                        </use>
                        <path d="M-4,0h8M0,-4v8" fill="none" stroke="white" stroke-width="1.5" pointer-events="none"/>
                </g>
                <g id="zoomMin">
                        <use xlink:href="#rim" fill="#404040">
                                <set attributeName="fill" to="#808080" begin="zoomminus.mouseover" end="zoomminus.mouseout"/>
                        </use>
                        <path d="M-4,0h8" fill="none" stroke="white" stroke-width="1.5" pointer-events="none"/>
                </g>
                <g id="dirArrow">
                        <path fill="none" stroke="white" stroke-width="1.5" d="M0,-3.0v7 M-2.5,-0.5L0,-3.0L2.5,-0.5"/>
                </g>
               <g id="resetDef">
                       <use xlink:href="#rim2" fill="#404040">
                               <set attributeName="fill" to="#808080" begin="reset.mouseover" end="reset.mouseout"/>
                       </use>
               </g>
        </defs>

<script type="text/javascript">
var viewWidth = 1226;
var viewHeight = 534;
var sectionId = 'dynsection-12';
</script>
<script xlink:href="../../svgpan.js"/>
<svg id="graph" class="graph">
<g id="viewport">
<title>util.Vector.getDirection</title>
<polygon fill="white" stroke="none" points="-4,4 -4,-530 1222,-530 1222,4 -4,4"/>
<!-- Node1 -->
<g id="node1" class="node"><title>Node1</title>
<polygon fill="#bfbfbf" stroke="black" points="0.5,-221.5 0.5,-240.5 125.5,-240.5 125.5,-221.5 0.5,-221.5"/>
<text text-anchor="middle" x="63" y="-228.5" font-family="Helvetica,sans-Serif" font-size="10.00">util.Vector.getDirection</text>
</g>
<!-- Node2 -->
<g id="node2" class="node"><title>Node2</title>
<g id="a_node2"><a xlink:href="../../d4/d67/classutil_1_1_vector.html#a0e4cafcfe79dde1a06e4dee8b5613984" target="_top" xlink:title="util.Vector.average">
<polygon fill="white" stroke="black" points="187,-506.5 187,-525.5 293,-525.5 293,-506.5 187,-506.5"/>
<text text-anchor="middle" x="240" y="-513.5" font-family="Helvetica,sans-Serif" font-size="10.00">util.Vector.average</text>
</a>
</g>
</g>
<!-- Node1&#45;&gt;Node2 -->
<g id="edge1" class="edge"><title>Node1&#45;&gt;Node2</title>
<path fill="none" stroke="midnightblue" d="M65.1919,-250.769C69.2737,-300.175 86.969,-429.872 162,-497 168.978,-503.243 177.682,-507.51 186.702,-510.41"/>
<polygon fill="midnightblue" stroke="midnightblue" points="68.6798,-250.473 64.4652,-240.753 61.6981,-250.98 68.6798,-250.473"/>
</g>
<!-- Node3 -->
<g id="node3" class="node"><title>Node3</title>
<g id="a_node3"><a xlink:href="../../d4/d67/classutil_1_1_vector.html#aac6586664bb29ca0c2306824a31af3ee" target="_top" xlink:title="util.Vector.equals">
<polygon fill="white" stroke="black" points="191,-468.5 191,-487.5 289,-487.5 289,-468.5 191,-468.5"/>
<text text-anchor="middle" x="240" y="-475.5" font-family="Helvetica,sans-Serif" font-size="10.00">util.Vector.equals</text>
</a>
</g>
</g>
<!-- Node1&#45;&gt;Node3 -->
<g id="edge2" class="edge"><title>Node1&#45;&gt;Node3</title>
<path fill="none" stroke="midnightblue" d="M67.0572,-250.772C74.7939,-294.066 99.1959,-397.859 162,-454 170.143,-461.279 180.472,-466.35 190.899,-469.884"/>
<polygon fill="midnightblue" stroke="midnightblue" points="70.4725,-249.975 65.3668,-240.691 63.5689,-251.133 70.4725,-249.975"/>
</g>
<!-- Node4 -->
<g id="node4" class="node"><title>Node4</title>
<g id="a_node4"><a xlink:href="../../d4/d67/classutil_1_1_vector.html#a3e38cf524cc0903761bbe0cba746fab5" target="_top" xlink:title="util.Vector.getAngleBetween">
<polygon fill="white" stroke="black" points="164.5,-335.5 164.5,-354.5 315.5,-354.5 315.5,-335.5 164.5,-335.5"/>
<text text-anchor="middle" x="240" y="-342.5" font-family="Helvetica,sans-Serif" font-size="10.00">util.Vector.getAngleBetween</text>
</a>
</g>
</g>
<!-- Node1&#45;&gt;Node4 -->
<g id="edge3" class="edge"><title>Node1&#45;&gt;Node4</title>
<path fill="none" stroke="midnightblue" d="M82.5863,-247.253C101.706,-263.521 132.744,-288.697 162,-307 179.693,-318.069 201.063,-328.396 216.797,-335.482"/>
<polygon fill="midnightblue" stroke="midnightblue" points="84.7902,-244.532 74.9254,-240.668 80.227,-249.841 84.7902,-244.532"/>
</g>
<!-- Node6 -->
<g id="node6" class="node"><title>Node6</title>
<g id="a_node6"><a xlink:href="../../d6/d34/classmodel_1_1_turtle.html#a427ec25c0a04d906a6e5d77ae5791a20" target="_top" xlink:title="model.Turtle.setPosition">
<polygon fill="white" stroke="black" points="561.5,-354.5 561.5,-373.5 692.5,-373.5 692.5,-354.5 561.5,-354.5"/>
<text text-anchor="middle" x="627" y="-361.5" font-family="Helvetica,sans-Serif" font-size="10.00">model.Turtle.setPosition</text>
</a>
</g>
</g>
<!-- Node1&#45;&gt;Node6 -->
<g id="edge29" class="edge"><title>Node1&#45;&gt;Node6</title>
<path fill="none" stroke="midnightblue" d="M72.7929,-249.739C87.2929,-278.607 118.956,-333.776 162,-364 234.849,-415.152 265.911,-408.2 354,-421 428.77,-431.864 450.884,-440.044 524,-421 559.336,-411.797 595.408,-387.356 613.711,-373.655"/>
<polygon fill="midnightblue" stroke="midnightblue" points="75.9184,-248.164 68.3893,-240.709 69.6267,-251.232 75.9184,-248.164"/>
</g>
<!-- Node11 -->
<g id="node11" class="node"><title>Node11</title>
<g id="a_node11"><a xlink:href="../../d6/d34/classmodel_1_1_turtle.html#ae420bddb14e58b38c2aec6b4486d9100" target="_top" xlink:title="model.Turtle.getComplement\lPoint">
<polygon fill="white" stroke="black" points="162,-115 162,-145 318,-145 318,-115 162,-115"/>
<text text-anchor="start" x="170" y="-133" font-family="Helvetica,sans-Serif" font-size="10.00">model.Turtle.getComplement</text>
<text text-anchor="middle" x="240" y="-122" font-family="Helvetica,sans-Serif" font-size="10.00">Point</text>
</a>
</g>
</g>
<!-- Node1&#45;&gt;Node11 -->
<g id="edge11" class="edge"><title>Node1&#45;&gt;Node11</title>
<path fill="none" stroke="midnightblue" d="M83.025,-214.944C102.088,-199.419 132.728,-175.963 162,-160 172.203,-154.436 183.657,-149.39 194.551,-145.091"/>
<polygon fill="midnightblue" stroke="midnightblue" points="80.611,-212.398 75.1273,-221.463 85.0673,-217.796 80.611,-212.398"/>
</g>
<!-- Node12 -->
<g id="node12" class="node"><title>Node12</title>
<g id="a_node12"><a xlink:href="../../d6/d34/classmodel_1_1_turtle.html#a55f4dcccce0978938b3b98e1eee4f45a" target="_top" xlink:title="model.Turtle.getHeading">
<polygon fill="white" stroke="black" points="173,-76.5 173,-95.5 307,-95.5 307,-76.5 173,-76.5"/>
<text text-anchor="middle" x="240" y="-83.5" font-family="Helvetica,sans-Serif" font-size="10.00">model.Turtle.getHeading</text>
</a>
</g>
</g>
<!-- Node1&#45;&gt;Node12 -->
<g id="edge12" class="edge"><title>Node1&#45;&gt;Node12</title>
<path fill="none" stroke="midnightblue" d="M73.3854,-212.457C88.3072,-184.903 120.092,-133.457 162,-106 168.701,-101.61 176.318,-98.1824 184.092,-95.5068"/>
<polygon fill="midnightblue" stroke="midnightblue" points="70.2189,-210.959 68.6633,-221.439 76.4148,-214.216 70.2189,-210.959"/>
</g>
<!-- Node13 -->
<g id="node13" class="node"><title>Node13</title>
<g id="a_node13"><a xlink:href="../../d4/d67/classutil_1_1_vector.html#a3509d652ff8c361b07447f55e0007f31" target="_top" xlink:title="util.Vector.getXChange">
<polygon fill="white" stroke="black" points="177.5,-202.5 177.5,-221.5 302.5,-221.5 302.5,-202.5 177.5,-202.5"/>
<text text-anchor="middle" x="240" y="-209.5" font-family="Helvetica,sans-Serif" font-size="10.00">util.Vector.getXChange</text>
</a>
</g>
</g>
<!-- Node1&#45;&gt;Node13 -->
<g id="edge13" class="edge"><title>Node1&#45;&gt;Node13</title>
<path fill="none" stroke="midnightblue" d="M136.041,-223.178C149.728,-221.692 163.937,-220.15 177.269,-218.702"/>
<polygon fill="midnightblue" stroke="midnightblue" points="135.262,-219.742 125.698,-224.301 136.018,-226.701 135.262,-219.742"/>
</g>
<!-- Node24 -->
<g id="node24" class="node"><title>Node24</title>
<g id="a_node24"><a xlink:href="../../d4/d67/classutil_1_1_vector.html#aca15e89ce2edd3e93dcb73621c26237f" target="_top" xlink:title="util.Vector.getYChange">
<polygon fill="white" stroke="black" points="178,-240.5 178,-259.5 302,-259.5 302,-240.5 178,-240.5"/>
<text text-anchor="middle" x="240" y="-247.5" font-family="Helvetica,sans-Serif" font-size="10.00">util.Vector.getYChange</text>
</a>
</g>
</g>
<!-- Node1&#45;&gt;Node24 -->
<g id="edge26" class="edge"><title>Node1&#45;&gt;Node24</title>
<path fill="none" stroke="midnightblue" d="M135.756,-238.791C149.733,-240.308 164.264,-241.886 177.859,-243.362"/>
<polygon fill="midnightblue" stroke="midnightblue" points="136.018,-235.299 125.698,-237.699 135.262,-242.258 136.018,-235.299"/>
</g>
<!-- Node25 -->
<g id="node25" class="node"><title>Node25</title>
<g id="a_node25"><a xlink:href="../../d4/d67/classutil_1_1_vector.html#a2aa16590f6298baa746ffed90e4063dc" target="_top" xlink:title="util.Vector.toString">
<polygon fill="white" stroke="black" points="187.5,-38.5 187.5,-57.5 292.5,-57.5 292.5,-38.5 187.5,-38.5"/>
<text text-anchor="middle" x="240" y="-45.5" font-family="Helvetica,sans-Serif" font-size="10.00">util.Vector.toString</text>
</a>
</g>
</g>
<!-- Node1&#45;&gt;Node25 -->
<g id="edge30" class="edge"><title>Node1&#45;&gt;Node25</title>
<path fill="none" stroke="midnightblue" d="M70.0079,-211.609C81.7743,-176.967 111.236,-104.564 162,-67 169.416,-61.5126 178.224,-57.5961 187.188,-54.804"/>
<polygon fill="midnightblue" stroke="midnightblue" points="66.5756,-210.846 66.8048,-221.438 73.2311,-213.015 66.5756,-210.846"/>
</g>
<!-- Node26 -->
<g id="node26" class="node"><title>Node26</title>
<g id="a_node26"><a xlink:href="../../d6/d34/classmodel_1_1_turtle.html#ad0ffa5dc7c5e9876e0083f4232035679" target="_top" xlink:title="model.Turtle.transform">
<polygon fill="white" stroke="black" points="376.5,-114.5 376.5,-133.5 501.5,-133.5 501.5,-114.5 376.5,-114.5"/>
<text text-anchor="middle" x="439" y="-121.5" font-family="Helvetica,sans-Serif" font-size="10.00">model.Turtle.transform</text>
</a>
</g>
</g>
<!-- Node1&#45;&gt;Node26 -->
<g id="edge31" class="edge"><title>Node1&#45;&gt;Node26</title>
<path fill="none" stroke="midnightblue" d="M95.6674,-217.561C114.687,-209.782 139.488,-200.148 162,-193 162.18,-192.943 324.283,-152.423 399.943,-133.512"/>
<polygon fill="midnightblue" stroke="midnightblue" points="94.1955,-214.382 86.291,-221.437 96.8697,-220.851 94.1955,-214.382"/>
</g>
<!-- Node28 -->
<g id="node28" class="node"><title>Node28</title>
<g id="a_node28"><a xlink:href="../../d4/d67/classutil_1_1_vector.html#a60833e2e656743a823aea9e5899dd301" target="_top" xlink:title="util.Vector.turn">
<polygon fill="white" stroke="black" points="197,-278.5 197,-297.5 283,-297.5 283,-278.5 197,-278.5"/>
<text text-anchor="middle" x="240" y="-285.5" font-family="Helvetica,sans-Serif" font-size="10.00">util.Vector.turn</text>
</a>
</g>
</g>
<!-- Node1&#45;&gt;Node28 -->
<g id="edge35" class="edge"><title>Node1&#45;&gt;Node28</title>
<path fill="none" stroke="midnightblue" d="M95.6594,-244.464C114.676,-252.252 139.477,-261.887 162,-269 173.16,-272.525 185.398,-275.803 196.768,-278.611"/>
<polygon fill="midnightblue" stroke="midnightblue" points="96.863,-241.174 86.2847,-240.583 94.1854,-247.642 96.863,-241.174"/>
</g>
<!-- Node31 -->
<g id="node31" class="node"><title>Node31</title>
<g id="a_node31"><a xlink:href="../../d4/d67/classutil_1_1_vector.html#a9775e5a7b85df799a63f3b350a3c1ed1" target="_top" xlink:title="util.Vector.Vector">
<polygon fill="white" stroke="black" points="191,-0.5 191,-19.5 289,-19.5 289,-0.5 191,-0.5"/>
<text text-anchor="middle" x="240" y="-7.5" font-family="Helvetica,sans-Serif" font-size="10.00">util.Vector.Vector</text>
</a>
</g>
</g>
<!-- Node1&#45;&gt;Node31 -->
<g id="edge41" class="edge"><title>Node1&#45;&gt;Node31</title>
<path fill="none" stroke="midnightblue" d="M67.7701,-211.161C76.5814,-170.437 102.461,-77.1974 162,-29 170.241,-22.3292 180.49,-17.9524 190.794,-15.0931"/>
<polygon fill="midnightblue" stroke="midnightblue" points="64.2971,-210.675 65.7236,-221.173 71.1553,-212.077 64.2971,-210.675"/>
</g>
<!-- Node5 -->
<g id="node5" class="node"><title>Node5</title>
<g id="a_node5"><a xlink:href="../../d6/d34/classmodel_1_1_turtle.html#a7ff0491eca6971ab59d549c33469d69e" target="_top" xlink:title="model.Turtle.faceTowards">
<polygon fill="white" stroke="black" points="371,-354.5 371,-373.5 507,-373.5 507,-354.5 371,-354.5"/>
<text text-anchor="middle" x="439" y="-361.5" font-family="Helvetica,sans-Serif" font-size="10.00">model.Turtle.faceTowards</text>
</a>
</g>
</g>
<!-- Node4&#45;&gt;Node5 -->
<g id="edge4" class="edge"><title>Node4&#45;&gt;Node5</title>
<path fill="none" stroke="midnightblue" d="M326.024,-353.2C340.975,-354.642 356.348,-356.125 370.73,-357.512"/>
<polygon fill="midnightblue" stroke="midnightblue" points="326.048,-349.686 315.758,-352.21 325.376,-356.654 326.048,-349.686"/>
</g>
<!-- Node9 -->
<g id="node9" class="node"><title>Node9</title>
<g id="a_node9"><a xlink:href="../../d4/d67/classutil_1_1_vector.html#a8e4e4fdce3f0b59129fe0f6d1dcc52f6" target="_top" xlink:title="util.Vector.getRelativeMagnitude">
<polygon fill="white" stroke="black" points="354,-392.5 354,-411.5 524,-411.5 524,-392.5 354,-392.5"/>
<text text-anchor="middle" x="439" y="-399.5" font-family="Helvetica,sans-Serif" font-size="10.00">util.Vector.getRelativeMagnitude</text>
</a>
</g>
</g>
<!-- Node4&#45;&gt;Node9 -->
<g id="edge8" class="edge"><title>Node4&#45;&gt;Node9</title>
<path fill="none" stroke="midnightblue" d="M276.431,-357.95C298.556,-365.778 327.731,-375.633 354,-383 366.237,-386.432 379.608,-389.679 392.012,-392.487"/>
<polygon fill="midnightblue" stroke="midnightblue" points="277.392,-354.577 266.798,-354.513 275.04,-361.17 277.392,-354.577"/>
</g>
<!-- Node10 -->
<g id="node10" class="node"><title>Node10</title>
<g id="a_node10"><a xlink:href="../../d6/d34/classmodel_1_1_turtle.html#a849598fc06250bf6f435a9837e0f1dfe" target="_top" xlink:title="model.Turtle.setHeading">
<polygon fill="white" stroke="black" points="372.5,-316.5 372.5,-335.5 505.5,-335.5 505.5,-316.5 372.5,-316.5"/>
<text text-anchor="middle" x="439" y="-323.5" font-family="Helvetica,sans-Serif" font-size="10.00">model.Turtle.setHeading</text>
</a>
</g>
</g>
<!-- Node4&#45;&gt;Node10 -->
<g id="edge9" class="edge"><title>Node4&#45;&gt;Node10</title>
<path fill="none" stroke="midnightblue" d="M325.891,-336.812C341.438,-335.313 357.446,-333.769 372.325,-332.334"/>
<polygon fill="midnightblue" stroke="midnightblue" points="325.376,-333.346 315.758,-337.79 326.048,-340.314 325.376,-333.346"/>
</g>
<!-- Node5&#45;&gt;Node6 -->
<g id="edge5" class="edge"><title>Node5&#45;&gt;Node6</title>
<path fill="none" stroke="midnightblue" d="M517.225,-364C531.929,-364 547.176,-364 561.436,-364"/>
<polygon fill="midnightblue" stroke="midnightblue" points="517.15,-360.5 507.15,-364 517.15,-367.5 517.15,-360.5"/>
</g>
<!-- Node7 -->
<g id="node7" class="node"><title>Node7</title>
<g id="a_node7"><a xlink:href="../../d6/d34/classmodel_1_1_turtle.html#a817b1ab6a35fa3deb30ea4569ab70db1" target="_top" xlink:title="model.Turtle.goHome">
<polygon fill="white" stroke="black" points="735.5,-335.5 735.5,-354.5 854.5,-354.5 854.5,-335.5 735.5,-335.5"/>
<text text-anchor="middle" x="795" y="-342.5" font-family="Helvetica,sans-Serif" font-size="10.00">model.Turtle.goHome</text>
</a>
</g>
</g>
<!-- Node6&#45;&gt;Node7 -->
<g id="edge6" class="edge"><title>Node6&#45;&gt;Node7</title>
<path fill="none" stroke="midnightblue" d="M702.677,-355.453C713.674,-354.194 724.868,-352.913 735.476,-351.698"/>
<polygon fill="midnightblue" stroke="midnightblue" points="702.192,-351.985 692.655,-356.6 702.988,-358.94 702.192,-351.985"/>
</g>
<!-- Node8 -->
<g id="node8" class="node"><title>Node8</title>
<g id="a_node8"><a xlink:href="../../d6/d34/classmodel_1_1_turtle.html#a65bffb6b24e40350f6094e054358dcbb" target="_top" xlink:title="model.Turtle.clear">
<polygon fill="white" stroke="black" points="917.5,-335.5 917.5,-354.5 1018.5,-354.5 1018.5,-335.5 917.5,-335.5"/>
<text text-anchor="middle" x="968" y="-342.5" font-family="Helvetica,sans-Serif" font-size="10.00">model.Turtle.clear</text>
</a>
</g>
</g>
<!-- Node7&#45;&gt;Node8 -->
<g id="edge7" class="edge"><title>Node7&#45;&gt;Node8</title>
<path fill="none" stroke="midnightblue" d="M865.039,-345C882.576,-345 901.073,-345 917.427,-345"/>
<polygon fill="midnightblue" stroke="midnightblue" points="864.849,-341.5 854.848,-345 864.848,-348.5 864.849,-341.5"/>
</g>
<!-- Node10&#45;&gt;Node7 -->
<g id="edge10" class="edge"><title>Node10&#45;&gt;Node7</title>
<path fill="none" stroke="midnightblue" d="M516.05,-330.082C581.746,-333.608 675.315,-338.63 735.353,-341.852"/>
<polygon fill="midnightblue" stroke="midnightblue" points="515.928,-326.57 505.755,-329.529 515.553,-333.56 515.928,-326.57"/>
</g>
<!-- Node14 -->
<g id="node14" class="node"><title>Node14</title>
<g id="a_node14"><a xlink:href="../../d7/d1e/classutil_1_1_location.html#a82f3e59d7d3e3d46df862be2e63c80e3" target="_top" xlink:title="util.Location.translate">
<polygon fill="white" stroke="black" points="379,-164.5 379,-183.5 499,-183.5 499,-164.5 379,-164.5"/>
<text text-anchor="middle" x="439" y="-171.5" font-family="Helvetica,sans-Serif" font-size="10.00">util.Location.translate</text>
</a>
</g>
</g>
<!-- Node13&#45;&gt;Node14 -->
<g id="edge14" class="edge"><title>Node13&#45;&gt;Node14</title>
<path fill="none" stroke="midnightblue" d="M300.564,-200.511C328.672,-195.089 361.822,-188.694 388.523,-183.544"/>
<polygon fill="midnightblue" stroke="midnightblue" points="299.613,-197.129 290.457,-202.46 300.939,-204.003 299.613,-197.129"/>
</g>
<!-- Node22 -->
<g id="node22" class="node"><title>Node22</title>
<g id="a_node22"><a xlink:href="../../d4/d67/classutil_1_1_vector.html#a95063f0d0e294d8829af7283165234a1" target="_top" xlink:title="util.Vector.sum">
<polygon fill="white" stroke="black" points="395,-202.5 395,-221.5 483,-221.5 483,-202.5 395,-202.5"/>
<text text-anchor="middle" x="439" y="-209.5" font-family="Helvetica,sans-Serif" font-size="10.00">util.Vector.sum</text>
</a>
</g>
</g>
<!-- Node13&#45;&gt;Node22 -->
<g id="edge24" class="edge"><title>Node13&#45;&gt;Node22</title>
<path fill="none" stroke="midnightblue" d="M312.874,-212C340.318,-212 370.743,-212 394.719,-212"/>
<polygon fill="midnightblue" stroke="midnightblue" points="312.522,-208.5 302.522,-212 312.522,-215.5 312.522,-208.5"/>
</g>
<!-- Node14&#45;&gt;Node6 -->
<g id="edge23" class="edge"><title>Node14&#45;&gt;Node6</title>
<path fill="none" stroke="midnightblue" d="M508.637,-183.819C514.147,-186.269 519.365,-189.287 524,-193 553.169,-216.369 541.274,-236.654 560,-269 578.916,-301.675 605.644,-337.593 618.508,-354.369"/>
<polygon fill="midnightblue" stroke="midnightblue" points="509.732,-180.491 499.141,-180.211 507.246,-187.035 509.732,-180.491"/>
</g>
<!-- Node15 -->
<g id="node15" class="node"><title>Node15</title>
<g id="a_node15"><a xlink:href="../../d6/d34/classmodel_1_1_turtle.html#aeeab176e64d1ad18647e37aee02affc7" target="_top" xlink:title="model.Turtle.getPainting\lPoint">
<polygon fill="white" stroke="black" points="561.5,-153 561.5,-183 692.5,-183 692.5,-153 561.5,-153"/>
<text text-anchor="start" x="569.5" y="-171" font-family="Helvetica,sans-Serif" font-size="10.00">model.Turtle.getPainting</text>
<text text-anchor="middle" x="627" y="-160" font-family="Helvetica,sans-Serif" font-size="10.00">Point</text>
</a>
</g>
</g>
<!-- Node14&#45;&gt;Node15 -->
<g id="edge15" class="edge"><title>Node14&#45;&gt;Node15</title>
<path fill="none" stroke="midnightblue" d="M509.497,-171.758C526.451,-171.211 544.52,-170.628 561.243,-170.089"/>
<polygon fill="midnightblue" stroke="midnightblue" points="508.989,-168.273 499.107,-172.093 509.215,-175.269 508.989,-168.273"/>
</g>
<!-- Node21 -->
<g id="node21" class="node"><title>Node21</title>
<g id="a_node21"><a xlink:href="../../d6/d34/classmodel_1_1_turtle.html#a84ecdb68ad525c369c4dc7dedd675607" target="_top" xlink:title="model.Turtle.move">
<polygon fill="white" stroke="black" points="574.5,-202.5 574.5,-221.5 679.5,-221.5 679.5,-202.5 574.5,-202.5"/>
<text text-anchor="middle" x="627" y="-209.5" font-family="Helvetica,sans-Serif" font-size="10.00">model.Turtle.move</text>
</a>
</g>
</g>
<!-- Node14&#45;&gt;Node21 -->
<g id="edge22" class="edge"><title>Node14&#45;&gt;Node21</title>
<path fill="none" stroke="midnightblue" d="M496.825,-185.61C523.279,-191.014 554.358,-197.364 579.402,-202.48"/>
<polygon fill="midnightblue" stroke="midnightblue" points="497.434,-182.162 486.936,-183.589 496.033,-189.02 497.434,-182.162"/>
</g>
<!-- Node16 -->
<g id="node16" class="node"><title>Node16</title>
<g id="a_node16"><a xlink:href="../../d6/d34/classmodel_1_1_turtle.html#a9eb4cbe280f1a7f2d15df187986eecb8" target="_top" xlink:title="model.Turtle.getBounds">
<polygon fill="white" stroke="black" points="730,-174.5 730,-193.5 860,-193.5 860,-174.5 730,-174.5"/>
<text text-anchor="middle" x="795" y="-181.5" font-family="Helvetica,sans-Serif" font-size="10.00">model.Turtle.getBounds</text>
</a>
</g>
</g>
<!-- Node15&#45;&gt;Node16 -->
<g id="edge16" class="edge"><title>Node15&#45;&gt;Node16</title>
<path fill="none" stroke="midnightblue" d="M702.764,-175.206C711.787,-176.076 720.941,-176.958 729.794,-177.811"/>
<polygon fill="midnightblue" stroke="midnightblue" points="702.945,-171.707 692.655,-174.232 702.273,-178.675 702.945,-171.707"/>
</g>
<!-- Node17 -->
<g id="node17" class="node"><title>Node17</title>
<g id="a_node17"><a xlink:href="../../d8/dff/classmodel_1_1_turtle_manager.html#a7f2863fbe8420cb5859ab922bd866b1d" target="_top" xlink:title="model.TurtleManager.paint">
<polygon fill="white" stroke="black" points="896.5,-117.5 896.5,-136.5 1039.5,-136.5 1039.5,-117.5 896.5,-117.5"/>
<text text-anchor="middle" x="968" y="-124.5" font-family="Helvetica,sans-Serif" font-size="10.00">model.TurtleManager.paint</text>
</a>
</g>
</g>
<!-- Node15&#45;&gt;Node17 -->
<g id="edge17" class="edge"><title>Node15&#45;&gt;Node17</title>
<path fill="none" stroke="midnightblue" d="M702.704,-158.965C760.365,-151.991 839.598,-142.408 896.242,-135.558"/>
<polygon fill="midnightblue" stroke="midnightblue" points="702.069,-155.516 692.561,-160.192 702.909,-162.466 702.069,-155.516"/>
</g>
<!-- Node19 -->
<g id="node19" class="node"><title>Node19</title>
<g id="a_node19"><a xlink:href="../../d6/d34/classmodel_1_1_turtle.html#a7d850c710649567ac20161f847b2ad11" target="_top" xlink:title="model.Turtle.paint">
<polygon fill="white" stroke="black" points="744,-98.5 744,-117.5 846,-117.5 846,-98.5 744,-98.5"/>
<text text-anchor="middle" x="795" y="-105.5" font-family="Helvetica,sans-Serif" font-size="10.00">model.Turtle.paint</text>
</a>
</g>
</g>
<!-- Node15&#45;&gt;Node19 -->
<g id="edge19" class="edge"><title>Node15&#45;&gt;Node19</title>
<path fill="none" stroke="midnightblue" d="M679.539,-149.371C708.761,-138.809 744.09,-126.04 767.697,-117.507"/>
<polygon fill="midnightblue" stroke="midnightblue" points="678.104,-146.169 669.889,-152.859 680.483,-152.752 678.104,-146.169"/>
</g>
<!-- Node20 -->
<g id="node20" class="node"><title>Node20</title>
<g id="a_node20"><a xlink:href="../../d6/d34/classmodel_1_1_turtle.html#a094c7d59e4551b8280a793199f612740" target="_top" xlink:title="model.Turtle.stamp">
<polygon fill="white" stroke="black" points="740.5,-212.5 740.5,-231.5 849.5,-231.5 849.5,-212.5 740.5,-212.5"/>
<text text-anchor="middle" x="795" y="-219.5" font-family="Helvetica,sans-Serif" font-size="10.00">model.Turtle.stamp</text>
</a>
</g>
</g>
<!-- Node15&#45;&gt;Node20 -->
<g id="edge21" class="edge"><title>Node15&#45;&gt;Node20</title>
<path fill="none" stroke="midnightblue" d="M680.225,-186.391C696.158,-191.875 713.756,-197.804 730,-203 739.936,-206.178 750.795,-209.47 760.701,-212.402"/>
<polygon fill="midnightblue" stroke="midnightblue" points="681.142,-183.005 670.547,-183.045 678.854,-189.621 681.142,-183.005"/>
</g>
<!-- Node18 -->
<g id="node18" class="node"><title>Node18</title>
<g id="a_node18"><a xlink:href="../../de/d84/classcontroller_1_1_workspace.html#aa3ec59da02e89f7882fb31677330af80" target="_top" xlink:title="controller.Workspace.paint">
<polygon fill="white" stroke="black" points="1076,-117.5 1076,-136.5 1218,-136.5 1218,-117.5 1076,-117.5"/>
<text text-anchor="middle" x="1147" y="-124.5" font-family="Helvetica,sans-Serif" font-size="10.00">controller.Workspace.paint</text>
</a>
</g>
</g>
<!-- Node17&#45;&gt;Node18 -->
<g id="edge18" class="edge"><title>Node17&#45;&gt;Node18</title>
<path fill="none" stroke="midnightblue" d="M1049.88,-127C1058.59,-127 1067.4,-127 1075.97,-127"/>
<polygon fill="midnightblue" stroke="midnightblue" points="1049.72,-123.5 1039.72,-127 1049.72,-130.5 1049.72,-123.5"/>
</g>
<!-- Node19&#45;&gt;Node17 -->
<g id="edge20" class="edge"><title>Node19&#45;&gt;Node17</title>
<path fill="none" stroke="midnightblue" d="M856.522,-114.725C869.421,-116.158 883.152,-117.684 896.391,-119.155"/>
<polygon fill="midnightblue" stroke="midnightblue" points="856.706,-111.224 846.381,-113.598 855.933,-118.181 856.706,-111.224"/>
</g>
<!-- Node23 -->
<g id="node23" class="node"><title>Node23</title>
<g id="a_node23"><a xlink:href="../../d4/d67/classutil_1_1_vector.html#a06fc54969a49c22c070452cc6940f98c" target="_top" xlink:title="util.Vector.difference">
<polygon fill="white" stroke="black" points="570,-240.5 570,-259.5 684,-259.5 684,-240.5 570,-240.5"/>
<text text-anchor="middle" x="627" y="-247.5" font-family="Helvetica,sans-Serif" font-size="10.00">util.Vector.difference</text>
</a>
</g>
</g>
<!-- Node22&#45;&gt;Node23 -->
<g id="edge25" class="edge"><title>Node22&#45;&gt;Node23</title>
<path fill="none" stroke="midnightblue" d="M493.236,-222.876C520.357,-228.417 553.035,-235.093 579.184,-240.436"/>
<polygon fill="midnightblue" stroke="midnightblue" points="493.638,-219.386 483.14,-220.813 492.237,-226.244 493.638,-219.386"/>
</g>
<!-- Node24&#45;&gt;Node14 -->
<g id="edge27" class="edge"><title>Node24&#45;&gt;Node14</title>
<path fill="none" stroke="midnightblue" d="M305.798,-236.969C310.038,-235.222 314.147,-233.243 318,-231 338.106,-219.296 333.781,-204.508 354,-193 361.667,-188.636 370.261,-185.275 378.949,-182.686"/>
<polygon fill="midnightblue" stroke="midnightblue" points="304.539,-233.702 296.356,-240.433 306.95,-240.274 304.539,-233.702"/>
</g>
<!-- Node24&#45;&gt;Node22 -->
<g id="edge28" class="edge"><title>Node24&#45;&gt;Node22</title>
<path fill="none" stroke="midnightblue" d="M300.519,-238.519C330.916,-232.656 367.22,-225.653 394.886,-220.316"/>
<polygon fill="midnightblue" stroke="midnightblue" points="299.613,-235.129 290.457,-240.46 300.939,-242.003 299.613,-235.129"/>
</g>
<!-- Node26&#45;&gt;Node19 -->
<g id="edge32" class="edge"><title>Node26&#45;&gt;Node19</title>
<path fill="none" stroke="midnightblue" d="M512.015,-120.745C581.017,-117.626 683.352,-113.001 743.903,-110.264"/>
<polygon fill="midnightblue" stroke="midnightblue" points="511.494,-117.265 501.662,-121.213 511.81,-124.258 511.494,-117.265"/>
</g>
<!-- Node27 -->
<g id="node27" class="node"><title>Node27</title>
<g id="a_node27"><a xlink:href="../../d6/d34/classmodel_1_1_turtle.html#aae6d22acacfa7bd29fb818f4f9dd3d2e" target="_top" xlink:title="model.Turtle.paintStamp">
<polygon fill="white" stroke="black" points="560,-76.5 560,-95.5 694,-95.5 694,-76.5 560,-76.5"/>
<text text-anchor="middle" x="627" y="-83.5" font-family="Helvetica,sans-Serif" font-size="10.00">model.Turtle.paintStamp</text>
</a>
</g>
</g>
<!-- Node26&#45;&gt;Node27 -->
<g id="edge33" class="edge"><title>Node26&#45;&gt;Node27</title>
<path fill="none" stroke="midnightblue" d="M496.825,-112.39C523.279,-106.986 554.358,-100.636 579.402,-95.5201"/>
<polygon fill="midnightblue" stroke="midnightblue" points="496.033,-108.98 486.936,-114.411 497.434,-115.838 496.033,-108.98"/>
</g>
<!-- Node27&#45;&gt;Node19 -->
<g id="edge34" class="edge"><title>Node27&#45;&gt;Node19</title>
<path fill="none" stroke="midnightblue" d="M704.26,-96.1067C717.656,-97.8822 731.289,-99.6889 743.748,-101.34"/>
<polygon fill="midnightblue" stroke="midnightblue" points="704.458,-92.6024 694.085,-94.7582 703.538,-99.5418 704.458,-92.6024"/>
</g>
<!-- Node28&#45;&gt;Node5 -->
<g id="edge38" class="edge"><title>Node28&#45;&gt;Node5</title>
<path fill="none" stroke="midnightblue" d="M269.7,-301.934C284.223,-309.043 302.099,-317.882 318,-326 334.113,-334.226 337.03,-338.728 354,-345 364.098,-348.732 375.16,-351.868 385.845,-354.447"/>
<polygon fill="midnightblue" stroke="midnightblue" points="271.217,-298.78 260.695,-297.537 268.146,-305.07 271.217,-298.78"/>
</g>
<!-- Node28&#45;&gt;Node10 -->
<g id="edge37" class="edge"><title>Node28&#45;&gt;Node10</title>
<path fill="none" stroke="midnightblue" d="M293.373,-298.102C322.868,-303.792 359.49,-310.856 388.502,-316.452"/>
<polygon fill="midnightblue" stroke="midnightblue" points="293.743,-294.609 283.261,-296.152 292.418,-301.483 293.743,-294.609"/>
</g>
<!-- Node29 -->
<g id="node29" class="node"><title>Node29</title>
<g id="a_node29"><a xlink:href="../../d6/d34/classmodel_1_1_turtle.html#a4e78ca660d2d834622280c081e3a4c65" target="_top" xlink:title="model.Turtle.turn">
<polygon fill="white" stroke="black" points="390,-278.5 390,-297.5 488,-297.5 488,-278.5 390,-278.5"/>
<text text-anchor="middle" x="439" y="-285.5" font-family="Helvetica,sans-Serif" font-size="10.00">model.Turtle.turn</text>
</a>
</g>
</g>
<!-- Node28&#45;&gt;Node29 -->
<g id="edge36" class="edge"><title>Node28&#45;&gt;Node29</title>
<path fill="none" stroke="midnightblue" d="M293.526,-288C323.478,-288 360.741,-288 389.922,-288"/>
<polygon fill="midnightblue" stroke="midnightblue" points="293.261,-284.5 283.261,-288 293.261,-291.5 293.261,-284.5"/>
</g>
<!-- Node30 -->
<g id="node30" class="node"><title>Node30</title>
<g id="a_node30"><a xlink:href="../../d4/d67/classutil_1_1_vector.html#a3186fe1ffdad30bd397dee8fd313cb26" target="_top" xlink:title="util.Vector.negate">
<polygon fill="white" stroke="black" points="388.5,-240.5 388.5,-259.5 489.5,-259.5 489.5,-240.5 388.5,-240.5"/>
<text text-anchor="middle" x="439" y="-247.5" font-family="Helvetica,sans-Serif" font-size="10.00">util.Vector.negate</text>
</a>
</g>
</g>
<!-- Node28&#45;&gt;Node30 -->
<g id="edge39" class="edge"><title>Node28&#45;&gt;Node30</title>
<path fill="none" stroke="midnightblue" d="M293.373,-277.898C322.868,-272.208 359.49,-265.144 388.502,-259.548"/>
<polygon fill="midnightblue" stroke="midnightblue" points="292.418,-274.517 283.261,-279.848 293.743,-281.391 292.418,-274.517"/>
</g>
<!-- Node30&#45;&gt;Node23 -->
<g id="edge40" class="edge"><title>Node30&#45;&gt;Node23</title>
<path fill="none" stroke="midnightblue" d="M499.915,-250C522.335,-250 547.704,-250 569.778,-250"/>
<polygon fill="midnightblue" stroke="midnightblue" points="499.845,-246.5 489.845,-250 499.845,-253.5 499.845,-246.5"/>
</g>
</g>
</svg>
        <g id="navigator" transform="translate(0 0)" fill="#404254">
                <rect fill="#f2f5e9" fill-opacity="0.5" stroke="#606060" stroke-width=".5" x="0" y="0" width="60" height="60"/>
                <use id="zoomplus" xlink:href="#zoomPlus" x="17" y="9" onmousedown="handleZoom(evt,'in')"/>
                <use id="zoomminus" xlink:href="#zoomMin" x="42" y="9" onmousedown="handleZoom(evt,'out')"/>
                <use id="reset" xlink:href="#resetDef" x="30" y="36" onmousedown="handleReset()"/>
                <g id="arrowUp" xlink:href="#dirArrow" transform="translate(30 24)" onmousedown="handlePan(0,-1)">
                  <use xlink:href="#rim" fill="#404040">
                        <set attributeName="fill" to="#808080" begin="arrowUp.mouseover" end="arrowUp.mouseout"/>
                  </use>
                  <path fill="none" stroke="white" stroke-width="1.5" d="M0,-3.0v7 M-2.5,-0.5L0,-3.0L2.5,-0.5"/>
                </g>
                <g id="arrowRight" xlink:href="#dirArrow" transform="rotate(90) translate(36 -43)" onmousedown="handlePan(1,0)">
                  <use xlink:href="#rim" fill="#404040">
                        <set attributeName="fill" to="#808080" begin="arrowRight.mouseover" end="arrowRight.mouseout"/>
                  </use>
                  <path fill="none" stroke="white" stroke-width="1.5" d="M0,-3.0v7 M-2.5,-0.5L0,-3.0L2.5,-0.5"/>
                </g>
                <g id="arrowDown" xlink:href="#dirArrow" transform="rotate(180) translate(-30 -48)" onmousedown="handlePan(0,1)">
                  <use xlink:href="#rim" fill="#404040">
                        <set attributeName="fill" to="#808080" begin="arrowDown.mouseover" end="arrowDown.mouseout"/>
                  </use>
                  <path fill="none" stroke="white" stroke-width="1.5" d="M0,-3.0v7 M-2.5,-0.5L0,-3.0L2.5,-0.5"/>
                </g>
                <g id="arrowLeft" xlink:href="#dirArrow" transform="rotate(270) translate(-36 17)" onmousedown="handlePan(-1,0)">
                  <use xlink:href="#rim" fill="#404040">
                        <set attributeName="fill" to="#808080" begin="arrowLeft.mouseover" end="arrowLeft.mouseout"/>
                  </use>
                  <path fill="none" stroke="white" stroke-width="1.5" d="M0,-3.0v7 M-2.5,-0.5L0,-3.0L2.5,-0.5"/>
                </g>
        </g>
        <svg viewBox="0 0 15 15" width="100%" height="30px" preserveAspectRatio="xMaxYMin meet">
         <g id="arrow_out" transform="scale(0.3 0.3)">
          <a xlink:href="classutil_1_1_vector_acebe00e22995a3514458ffa3db195295_icgraph_org.svg" target="_base">
           <rect id="button" ry="5" rx="5" y="6" x="6" height="38" width="38"
                fill="#f2f5e9" fill-opacity="0.5" stroke="#606060" stroke-width="1.0"/>
           <path id="arrow"
             d="M 11.500037,31.436501 C 11.940474,20.09759 22.043105,11.32322 32.158766,21.979434 L 37.068811,17.246167 C 37.068811,17.246167 37.088388,32 37.088388,32 L 22.160133,31.978069 C 22.160133,31.978069 26.997745,27.140456 26.997745,27.140456 C 18.528582,18.264221 13.291696,25.230495 11.500037,31.436501 z"
             style="fill:#404040;"/>
          </a>
         </g>
        </svg>
</svg>
