<?xml version="1.0" encoding="UTF-8" standalone="no"?>
<!DOCTYPE svg PUBLIC "-//W3C//DTD SVG 1.1//EN"
 "http://www.w3.org/Graphics/SVG/1.1/DTD/svg11.dtd">
<!-- Generated by graphviz version 2.36.0 (20140111.2315)
 -->
<!-- Title: util.Vector.Vector Pages: 1 -->
<svg width="274pt" height="66pt"
 viewBox="0.00 0.00 274.00 66.00" xmlns="http://www.w3.org/2000/svg" xmlns:xlink="http://www.w3.org/1999/xlink">
<g id="graph0" class="graph" transform="scale(1 1) rotate(0) translate(4 62)">
<title>util.Vector.Vector</title>
<polygon fill="white" stroke="none" points="-4,4 -4,-62 270,-62 270,4 -4,4"/>
<!-- Node1 -->
<g id="node1" class="node"><title>Node1</title>
<polygon fill="#bfbfbf" stroke="black" points="0,-19.5 0,-38.5 98,-38.5 98,-19.5 0,-19.5"/>
<text text-anchor="middle" x="49" y="-26.5" font-family="Helvetica,sans-Serif" font-size="10.00">util.Vector.Vector</text>
</g>
<!-- Node2 -->
<g id="node2" class="node"><title>Node2</title>
<g id="a_node2"><a xlink:href="../../d4/d67/classutil_1_1_vector.html#a338b7c1377d3bc795527c2fbeeb25639" target="_top" xlink:title="util.Vector.setDirection">
<polygon fill="white" stroke="black" points="137.5,-38.5 137.5,-57.5 262.5,-57.5 262.5,-38.5 137.5,-38.5"/>
<text text-anchor="middle" x="200" y="-45.5" font-family="Helvetica,sans-Serif" font-size="10.00">util.Vector.setDirection</text>
</a>
</g>
</g>
<!-- Node1&#45;&gt;Node2 -->
<g id="edge1" class="edge"><title>Node1&#45;&gt;Node2</title>
<path fill="none" stroke="midnightblue" d="M98.376,-35.1688C107.584,-36.3429 117.401,-37.5948 127.158,-38.8389"/>
<polygon fill="midnightblue" stroke="midnightblue" points="126.913,-42.3359 137.275,-40.129 127.798,-35.3921 126.913,-42.3359"/>
</g>
<!-- Node3 -->
<g id="node3" class="node"><title>Node3</title>
<g id="a_node3"><a xlink:href="../../d4/d67/classutil_1_1_vector.html#a45ba35e870010e16e64d697f97d1b1dc" target="_top" xlink:title="util.Vector.setMagnitude">
<polygon fill="white" stroke="black" points="134,-0.5 134,-19.5 266,-19.5 266,-0.5 134,-0.5"/>
<text text-anchor="middle" x="200" y="-7.5" font-family="Helvetica,sans-Serif" font-size="10.00">util.Vector.setMagnitude</text>
</a>
</g>
</g>
<!-- Node1&#45;&gt;Node3 -->
<g id="edge2" class="edge"><title>Node1&#45;&gt;Node3</title>
<path fill="none" stroke="midnightblue" d="M98.376,-22.8312C106.499,-21.7954 115.097,-20.6991 123.708,-19.601"/>
<polygon fill="midnightblue" stroke="midnightblue" points="124.319,-23.0515 133.796,-18.3146 123.434,-16.1077 124.319,-23.0515"/>
</g>
</g>
</svg>
