<?xml version="1.0" encoding="UTF-8" standalone="no"?>
<!DOCTYPE svg PUBLIC "-//W3C//DTD SVG 1.1//EN"
 "http://www.w3.org/Graphics/SVG/1.1/DTD/svg11.dtd">
<!-- Generated by graphviz version 2.36.0 (20140111.2315)
 -->
<!-- Title: util.Vector.sum Pages: 1 -->
<svg width="452pt" height="218pt"
 viewBox="0.00 0.00 452.00 218.00" xmlns="http://www.w3.org/2000/svg" xmlns:xlink="http://www.w3.org/1999/xlink">
<g id="graph0" class="graph" transform="scale(1 1) rotate(0) translate(4 214)">
<title>util.Vector.sum</title>
<polygon fill="white" stroke="none" points="-4,4 -4,-214 448,-214 448,4 -4,4"/>
<!-- Node1 -->
<g id="node1" class="node"><title>Node1</title>
<polygon fill="#bfbfbf" stroke="black" points="0,-95.5 0,-114.5 88,-114.5 88,-95.5 0,-95.5"/>
<text text-anchor="middle" x="44" y="-102.5" font-family="Helvetica,sans-Serif" font-size="10.00">util.Vector.sum</text>
</g>
<!-- Node2 -->
<g id="node2" class="node"><title>Node2</title>
<g id="a_node2"><a xlink:href="../../d4/d67/classutil_1_1_vector.html#a7ae34648236878f08cf4120e0f047c02" target="_top" xlink:title="util.Vector.angleBetween">
<polygon fill="white" stroke="black" points="132,-190.5 132,-209.5 266,-209.5 266,-190.5 132,-190.5"/>
<text text-anchor="middle" x="199" y="-197.5" font-family="Helvetica,sans-Serif" font-size="10.00">util.Vector.angleBetween</text>
</a>
</g>
</g>
<!-- Node1&#45;&gt;Node2 -->
<g id="edge1" class="edge"><title>Node1&#45;&gt;Node2</title>
<path fill="none" stroke="midnightblue" d="M52.1462,-114.55C64.7936,-130.755 92.7508,-163.574 124,-181 128.127,-183.301 132.538,-185.33 137.075,-187.118"/>
<polygon fill="midnightblue" stroke="midnightblue" points="135.918,-190.421 146.513,-190.458 138.253,-183.822 135.918,-190.421"/>
</g>
<!-- Node3 -->
<g id="node3" class="node"><title>Node3</title>
<g id="a_node3"><a xlink:href="../../d4/d67/classutil_1_1_vector.html#a1aea3b29ec9c7374d0d5520ece2085a2" target="_top" xlink:title="util.Vector.distanceBetween">
<polygon fill="white" stroke="black" points="124.5,-152.5 124.5,-171.5 273.5,-171.5 273.5,-152.5 124.5,-152.5"/>
<text text-anchor="middle" x="199" y="-159.5" font-family="Helvetica,sans-Serif" font-size="10.00">util.Vector.distanceBetween</text>
</a>
</g>
</g>
<!-- Node1&#45;&gt;Node3 -->
<g id="edge2" class="edge"><title>Node1&#45;&gt;Node3</title>
<path fill="none" stroke="midnightblue" d="M62.4513,-114.628C78.1789,-123.004 102.125,-135.019 124,-143 130.768,-145.469 137.994,-147.746 145.181,-149.8"/>
<polygon fill="midnightblue" stroke="midnightblue" points="144.34,-153.199 154.909,-152.462 146.187,-146.447 144.34,-153.199"/>
</g>
<!-- Node4 -->
<g id="node4" class="node"><title>Node4</title>
<g id="a_node4"><a xlink:href="../../d4/d67/classutil_1_1_vector.html#a3509d652ff8c361b07447f55e0007f31" target="_top" xlink:title="util.Vector.getXChange">
<polygon fill="white" stroke="black" points="136.5,-114.5 136.5,-133.5 261.5,-133.5 261.5,-114.5 136.5,-114.5"/>
<text text-anchor="middle" x="199" y="-121.5" font-family="Helvetica,sans-Serif" font-size="10.00">util.Vector.getXChange</text>
</a>
</g>
</g>
<!-- Node1&#45;&gt;Node4 -->
<g id="edge3" class="edge"><title>Node1&#45;&gt;Node4</title>
<path fill="none" stroke="midnightblue" d="M88.0262,-110.343C99.9997,-111.83 113.336,-113.486 126.476,-115.118"/>
<polygon fill="midnightblue" stroke="midnightblue" points="126.105,-118.599 136.46,-116.358 126.967,-111.652 126.105,-118.599"/>
</g>
<!-- Node7 -->
<g id="node7" class="node"><title>Node7</title>
<g id="a_node7"><a xlink:href="../../d4/d67/classutil_1_1_vector.html#aca15e89ce2edd3e93dcb73621c26237f" target="_top" xlink:title="util.Vector.getYChange">
<polygon fill="white" stroke="black" points="137,-76.5 137,-95.5 261,-95.5 261,-76.5 137,-76.5"/>
<text text-anchor="middle" x="199" y="-83.5" font-family="Helvetica,sans-Serif" font-size="10.00">util.Vector.getYChange</text>
</a>
</g>
</g>
<!-- Node1&#45;&gt;Node7 -->
<g id="edge6" class="edge"><title>Node1&#45;&gt;Node7</title>
<path fill="none" stroke="midnightblue" d="M88.0262,-99.6569C100.07,-98.1612 113.493,-96.4943 126.708,-94.8533"/>
<polygon fill="midnightblue" stroke="midnightblue" points="127.254,-98.3125 136.746,-93.6067 126.391,-91.3658 127.254,-98.3125"/>
</g>
<!-- Node8 -->
<g id="node8" class="node"><title>Node8</title>
<g id="a_node8"><a xlink:href="../../d4/d67/classutil_1_1_vector.html#a338b7c1377d3bc795527c2fbeeb25639" target="_top" xlink:title="util.Vector.setDirection">
<polygon fill="white" stroke="black" points="136.5,-38.5 136.5,-57.5 261.5,-57.5 261.5,-38.5 136.5,-38.5"/>
<text text-anchor="middle" x="199" y="-45.5" font-family="Helvetica,sans-Serif" font-size="10.00">util.Vector.setDirection</text>
</a>
</g>
</g>
<!-- Node1&#45;&gt;Node8 -->
<g id="edge9" class="edge"><title>Node1&#45;&gt;Node8</title>
<path fill="none" stroke="midnightblue" d="M62.4513,-95.3715C78.1789,-86.9956 102.125,-74.981 124,-67 130.768,-64.5309 137.994,-62.2542 145.181,-60.1996"/>
<polygon fill="midnightblue" stroke="midnightblue" points="146.187,-63.553 154.909,-57.538 144.34,-56.8011 146.187,-63.553"/>
</g>
<!-- Node9 -->
<g id="node9" class="node"><title>Node9</title>
<g id="a_node9"><a xlink:href="../../d4/d67/classutil_1_1_vector.html#a45ba35e870010e16e64d697f97d1b1dc" target="_top" xlink:title="util.Vector.setMagnitude">
<polygon fill="white" stroke="black" points="133,-0.5 133,-19.5 265,-19.5 265,-0.5 133,-0.5"/>
<text text-anchor="middle" x="199" y="-7.5" font-family="Helvetica,sans-Serif" font-size="10.00">util.Vector.setMagnitude</text>
</a>
</g>
</g>
<!-- Node1&#45;&gt;Node9 -->
<g id="edge10" class="edge"><title>Node1&#45;&gt;Node9</title>
<path fill="none" stroke="midnightblue" d="M52.1462,-95.4503C64.7936,-79.2447 92.7508,-46.4257 124,-29 128.127,-26.6986 132.538,-24.6699 137.075,-22.8823"/>
<polygon fill="midnightblue" stroke="midnightblue" points="138.253,-26.1782 146.513,-19.5421 135.918,-19.5793 138.253,-26.1782"/>
</g>
<!-- Node5 -->
<g id="node5" class="node"><title>Node5</title>
<g id="a_node5"><a xlink:href="../../d4/d67/classutil_1_1_vector.html#acebe00e22995a3514458ffa3db195295" target="_top" xlink:title="util.Vector.getDirection">
<polygon fill="white" stroke="black" points="314.5,-114.5 314.5,-133.5 439.5,-133.5 439.5,-114.5 314.5,-114.5"/>
<text text-anchor="middle" x="377" y="-121.5" font-family="Helvetica,sans-Serif" font-size="10.00">util.Vector.getDirection</text>
</a>
</g>
</g>
<!-- Node4&#45;&gt;Node5 -->
<g id="edge4" class="edge"><title>Node4&#45;&gt;Node5</title>
<path fill="none" stroke="midnightblue" d="M261.556,-124C275.356,-124 290.112,-124 304.284,-124"/>
<polygon fill="midnightblue" stroke="midnightblue" points="304.479,-127.5 314.478,-124 304.478,-120.5 304.479,-127.5"/>
</g>
<!-- Node6 -->
<g id="node6" class="node"><title>Node6</title>
<g id="a_node6"><a xlink:href="../../d4/d67/classutil_1_1_vector.html#afa760c6d12c93fbfcfacd6e279d08d88" target="_top" xlink:title="util.Vector.getMagnitude">
<polygon fill="white" stroke="black" points="310.5,-76.5 310.5,-95.5 443.5,-95.5 443.5,-76.5 310.5,-76.5"/>
<text text-anchor="middle" x="377" y="-83.5" font-family="Helvetica,sans-Serif" font-size="10.00">util.Vector.getMagnitude</text>
</a>
</g>
</g>
<!-- Node4&#45;&gt;Node6 -->
<g id="edge5" class="edge"><title>Node4&#45;&gt;Node6</title>
<path fill="none" stroke="midnightblue" d="M244.412,-114.411C267.951,-109.329 297.057,-103.045 321.905,-97.6797"/>
<polygon fill="midnightblue" stroke="midnightblue" points="322.871,-101.052 331.907,-95.5201 321.394,-94.2094 322.871,-101.052"/>
</g>
<!-- Node7&#45;&gt;Node5 -->
<g id="edge7" class="edge"><title>Node7&#45;&gt;Node5</title>
<path fill="none" stroke="midnightblue" d="M244.412,-95.589C267.951,-100.671 297.057,-106.955 321.905,-112.32"/>
<polygon fill="midnightblue" stroke="midnightblue" points="321.394,-115.791 331.907,-114.48 322.871,-108.948 321.394,-115.791"/>
</g>
<!-- Node7&#45;&gt;Node6 -->
<g id="edge8" class="edge"><title>Node7&#45;&gt;Node6</title>
<path fill="none" stroke="midnightblue" d="M261.062,-86C273.597,-86 286.938,-86 299.927,-86"/>
<polygon fill="midnightblue" stroke="midnightblue" points="300.245,-89.5001 310.245,-86 300.245,-82.5001 300.245,-89.5001"/>
</g>
</g>
</svg>
