<?xml version="1.0" encoding="UTF-8" standalone="no"?>
<!DOCTYPE svg PUBLIC "-//W3C//DTD SVG 1.1//EN"
 "http://www.w3.org/Graphics/SVG/1.1/DTD/svg11.dtd">
<!-- Generated by graphviz version 2.36.0 (20140111.2315)
 -->
<!-- Title: model.TurtleManager Pages: 1 -->
<!--zoomable 429 -->
<svg id="main" version="1.1" xmlns="http://www.w3.org/2000/svg" xmlns:xlink="http://www.w3.org/1999/xlink" xml:space="preserve" onload="init(evt)">
<style type="text/css"><![CDATA[
.edge:hover path { stroke: red; }
.edge:hover polygon { stroke: red; fill: red; }
]]></style>
<script type="text/javascript"><![CDATA[
var edges = document.getElementsByTagName('g');
if (edges && edges.length) {
  for (var i=0;i<edges.length;i++) {
    if (edges[i].id.substr(0,4)=='edge') {
      edges[i].setAttribute('class','edge');
    }
  }
}
]]></script>
        <defs>
                <circle id="rim" cx="0" cy="0" r="7"/>
                <circle id="rim2" cx="0" cy="0" r="3.5"/>
                <g id="zoomPlus">
                        <use xlink:href="#rim" fill="#404040">
                                <set attributeName="fill" to="#808080" begin="zoomplus.mouseover" end="zoomplus.mouseout"/>
                        </use>
                        <path d="M-4,0h8M0,-4v8" fill="none" stroke="white" stroke-width="1.5" pointer-events="none"/>
                </g>
                <g id="zoomMin">
                        <use xlink:href="#rim" fill="#404040">
                                <set attributeName="fill" to="#808080" begin="zoomminus.mouseover" end="zoomminus.mouseout"/>
                        </use>
                        <path d="M-4,0h8" fill="none" stroke="white" stroke-width="1.5" pointer-events="none"/>
                </g>
                <g id="dirArrow">
                        <path fill="none" stroke="white" stroke-width="1.5" d="M0,-3.0v7 M-2.5,-0.5L0,-3.0L2.5,-0.5"/>
                </g>
               <g id="resetDef">
                       <use xlink:href="#rim2" fill="#404040">
                               <set attributeName="fill" to="#808080" begin="reset.mouseover" end="reset.mouseout"/>
                       </use>
               </g>
        </defs>

<script type="text/javascript">
var viewWidth = 950;
var viewHeight = 429;
var sectionId = 'dynsection-1';
</script>
<script xlink:href="../../svgpan.js"/>
<svg id="graph" class="graph">
<g id="viewport">
<title>model.TurtleManager</title>
<polygon fill="white" stroke="none" points="-4,4 -4,-425.463 946,-425.463 946,4 -4,4"/>
<!-- Node1 -->
<g id="node1" class="node"><title>Node1</title>
<polygon fill="#bfbfbf" stroke="black" points="824.5,-265.963 824.5,-284.963 941.5,-284.963 941.5,-265.963 824.5,-265.963"/>
<text text-anchor="middle" x="883" y="-272.963" font-family="Helvetica,sans-Serif" font-size="10.00">model.TurtleManager</text>
</g>
<!-- Node2 -->
<g id="node2" class="node"><title>Node2</title>
<polygon fill="white" stroke="#bfbfbf" points="587.5,-401.963 587.5,-420.963 658.5,-420.963 658.5,-401.963 587.5,-401.963"/>
<text text-anchor="middle" x="623" y="-408.963" font-family="Helvetica,sans-Serif" font-size="10.00">Observable</text>
</g>
<!-- Node2&#45;&gt;Node1 -->
<g id="edge1" class="edge"><title>Node2&#45;&gt;Node1</title>
<path fill="none" stroke="midnightblue" d="M668.647,-415.373C707.716,-416.633 764.545,-413.042 806,-387.463 846.396,-362.537 870.361,-307.214 878.674,-284.983"/>
<polygon fill="midnightblue" stroke="midnightblue" points="668.767,-411.875 658.622,-414.931 668.459,-418.868 668.767,-411.875"/>
</g>
<!-- Node3 -->
<g id="node3" class="node"><title>Node3</title>
<g id="a_node3"><a xlink:href="../../dc/d3c/interfacemodel_1_1_paintable.html" target="_top" xlink:title="model.Paintable">
<polygon fill="white" stroke="black" points="292.5,-325.963 292.5,-344.963 385.5,-344.963 385.5,-325.963 292.5,-325.963"/>
<text text-anchor="middle" x="339" y="-332.963" font-family="Helvetica,sans-Serif" font-size="10.00">model.Paintable</text>
</a>
</g>
</g>
<!-- Node3&#45;&gt;Node1 -->
<g id="edge2" class="edge"><title>Node3&#45;&gt;Node1</title>
<path fill="none" stroke="midnightblue" d="M396.011,-339.129C432.085,-339.923 479.614,-338.012 520,-326.463 528.799,-323.947 529.293,-319.28 538,-316.463 589.86,-299.687 740.724,-286.114 824.405,-279.617"/>
<polygon fill="midnightblue" stroke="midnightblue" points="395.78,-335.62 385.681,-338.821 395.572,-342.617 395.78,-335.62"/>
</g>
<!-- Node5 -->
<g id="node5" class="node"><title>Node5</title>
<g id="a_node5"><a xlink:href="../../d6/d34/classmodel_1_1_turtle.html" target="_top" xlink:title="model.Turtle">
<polygon fill="white" stroke="black" points="585.5,-228.963 585.5,-247.963 660.5,-247.963 660.5,-228.963 585.5,-228.963"/>
<text text-anchor="middle" x="623" y="-235.963" font-family="Helvetica,sans-Serif" font-size="10.00">model.Turtle</text>
</a>
</g>
</g>
<!-- Node3&#45;&gt;Node5 -->
<g id="edge5" class="edge"><title>Node3&#45;&gt;Node5</title>
<path fill="none" stroke="midnightblue" d="M395.84,-328.079C440.386,-321.552 498.719,-311.392 520,-300.463 529.789,-295.436 529.072,-289.895 538,-283.463 557.866,-269.15 582.837,-256.346 600.371,-248.09"/>
<polygon fill="midnightblue" stroke="midnightblue" points="395.106,-324.648 385.706,-329.536 396.102,-331.577 395.106,-324.648"/>
</g>
<!-- Node4 -->
<g id="node4" class="node"><title>Node4</title>
<polygon fill="white" stroke="#bfbfbf" points="538,-325.963 538,-344.963 708,-344.963 708,-325.963 538,-325.963"/>
<text text-anchor="middle" x="623" y="-332.963" font-family="Helvetica,sans-Serif" font-size="10.00">Map&lt; Integer, BufferedImage &gt;</text>
</g>
<!-- Node4&#45;&gt;Node1 -->
<g id="edge3" class="edge"><title>Node4&#45;&gt;Node1</title>
<path fill="none" stroke="#9a32cd" stroke-dasharray="5,2" d="M718.043,-328.708C746.673,-325.151 777.971,-319.728 806,-311.463 827.566,-305.104 850.688,-293.368 865.69,-285.025"/>
<polygon fill="#9a32cd" stroke="#9a32cd" points="717.558,-325.241 708.037,-329.89 718.379,-332.193 717.558,-325.241"/>
<text text-anchor="middle" x="766" y="-330.463" font-family="Helvetica,sans-Serif" font-size="10.00"> myTurtleImages</text>
</g>
<!-- Node5&#45;&gt;Node1 -->
<g id="edge4" class="edge"><title>Node5&#45;&gt;Node1</title>
<path fill="none" stroke="#9a32cd" stroke-dasharray="5,2" d="M670.615,-245.148C713.647,-251.319 777.71,-260.507 824.026,-267.149"/>
<polygon fill="#9a32cd" stroke="#9a32cd" points="671.087,-241.68 660.691,-243.725 670.093,-248.609 671.087,-241.68"/>
<text text-anchor="middle" x="766" y="-267.463" font-family="Helvetica,sans-Serif" font-size="10.00"> myCurrent</text>
</g>
<!-- Node6 -->
<g id="node6" class="node"><title>Node6</title>
<g id="a_node6"><a xlink:href="../../df/dca/interfacemodel_1_1_i_state.html" target="_top" xlink:title="model.IState">
<polygon fill="white" stroke="black" points="300,-173.963 300,-192.963 378,-192.963 378,-173.963 300,-173.963"/>
<text text-anchor="middle" x="339" y="-180.963" font-family="Helvetica,sans-Serif" font-size="10.00">model.IState</text>
</a>
</g>
</g>
<!-- Node6&#45;&gt;Node5 -->
<g id="edge6" class="edge"><title>Node6&#45;&gt;Node5</title>
<path fill="none" stroke="midnightblue" d="M388.36,-190.977C424.683,-196.818 475.599,-205.424 520,-214.463 541.748,-218.89 565.933,-224.548 585.293,-229.259"/>
<polygon fill="midnightblue" stroke="midnightblue" points="388.477,-187.451 378.05,-189.33 387.373,-194.363 388.477,-187.451"/>
</g>
<!-- Node7 -->
<g id="node7" class="node"><title>Node7</title>
<g id="a_node7"><a xlink:href="../../d4/d67/classutil_1_1_vector.html" target="_top" xlink:title="util.Vector">
<polygon fill="white" stroke="black" points="306.5,-135.963 306.5,-154.963 371.5,-154.963 371.5,-135.963 306.5,-135.963"/>
<text text-anchor="middle" x="339" y="-142.963" font-family="Helvetica,sans-Serif" font-size="10.00">util.Vector</text>
</a>
</g>
</g>
<!-- Node7&#45;&gt;Node5 -->
<g id="edge7" class="edge"><title>Node7&#45;&gt;Node5</title>
<path fill="none" stroke="#9a32cd" stroke-dasharray="5,2" d="M381.708,-149.68C418.872,-154.342 474.29,-163.542 520,-180.463 553.814,-192.98 589.63,-215.915 608.515,-228.878"/>
<polygon fill="#9a32cd" stroke="#9a32cd" points="382.079,-146.199 371.733,-148.482 381.245,-153.149 382.079,-146.199"/>
<text text-anchor="middle" x="467" y="-183.463" font-family="Helvetica,sans-Serif" font-size="10.00"> myHeading</text>
</g>
<!-- Node8 -->
<g id="node8" class="node"><title>Node8</title>
<g id="a_node8"><a xlink:href="../../d7/d1e/classutil_1_1_location.html" target="_top" xlink:title="util.Location">
<polygon fill="white" stroke="black" points="302,-211.963 302,-230.963 376,-230.963 376,-211.963 302,-211.963"/>
<text text-anchor="middle" x="339" y="-218.963" font-family="Helvetica,sans-Serif" font-size="10.00">util.Location</text>
</a>
</g>
</g>
<!-- Node8&#45;&gt;Node5 -->
<g id="edge8" class="edge"><title>Node8&#45;&gt;Node5</title>
<path fill="none" stroke="#9a32cd" stroke-dasharray="5,2" d="M386.574,-219.81C422.964,-218.98 474.781,-218.811 520,-222.463 541.797,-224.223 565.985,-227.939 585.333,-231.348"/>
<polygon fill="#9a32cd" stroke="#9a32cd" points="386.177,-216.319 376.269,-220.072 386.355,-223.316 386.177,-216.319"/>
<text text-anchor="middle" x="467" y="-225.463" font-family="Helvetica,sans-Serif" font-size="10.00"> myCenter</text>
</g>
<!-- Node9 -->
<g id="node9" class="node"><title>Node9</title>
<polygon fill="white" stroke="#bfbfbf" points="23,-211.963 23,-230.963 117,-230.963 117,-211.963 23,-211.963"/>
<text text-anchor="middle" x="70" y="-218.963" font-family="Helvetica,sans-Serif" font-size="10.00">Point2D::Double</text>
</g>
<!-- Node9&#45;&gt;Node8 -->
<g id="edge9" class="edge"><title>Node9&#45;&gt;Node8</title>
<path fill="none" stroke="midnightblue" d="M127.384,-221.463C179.99,-221.463 256.91,-221.463 301.774,-221.463"/>
<polygon fill="midnightblue" stroke="midnightblue" points="127.203,-217.963 117.203,-221.463 127.203,-224.963 127.203,-217.963"/>
</g>
<!-- Node10 -->
<g id="node10" class="node"><title>Node10</title>
<polygon fill="white" stroke="#bfbfbf" points="36,-22.9628 36,-41.9628 104,-41.9628 104,-22.9628 36,-22.9628"/>
<text text-anchor="middle" x="70" y="-29.9628" font-family="Helvetica,sans-Serif" font-size="10.00">Dimension</text>
</g>
<!-- Node10&#45;&gt;Node8 -->
<g id="edge10" class="edge"><title>Node10&#45;&gt;Node8</title>
<path fill="none" stroke="#9a32cd" stroke-dasharray="5,2" d="M105.388,-45.9855C148.17,-64.4418 220.833,-101.401 264,-154.463 278.378,-172.137 265.636,-186.609 282,-202.463 287.53,-207.821 294.627,-211.67 301.897,-214.435"/>
<polygon fill="#9a32cd" stroke="#9a32cd" points="106.537,-42.6715 95.9625,-42.0105 103.817,-49.1214 106.537,-42.6715"/>
<text text-anchor="middle" x="211" y="-157.463" font-family="Helvetica,sans-Serif" font-size="10.00"> myCanvasDimension</text>
</g>
<!-- Node11 -->
<g id="node11" class="node"><title>Node11</title>
<polygon fill="white" stroke="#bfbfbf" points="295.5,-92.9628 295.5,-111.963 382.5,-111.963 382.5,-92.9628 295.5,-92.9628"/>
<text text-anchor="middle" x="339" y="-99.9628" font-family="Helvetica,sans-Serif" font-size="10.00">BufferedImage</text>
</g>
<!-- Node11&#45;&gt;Node1 -->
<g id="edge21" class="edge"><title>Node11&#45;&gt;Node1</title>
<path fill="none" stroke="#9a32cd" stroke-dasharray="5,2" d="M393.166,-99.1523C429.399,-98.1981 478.195,-99.4798 520,-109.463 663.241,-143.669 818.724,-235.872 866.915,-265.881"/>
<polygon fill="#9a32cd" stroke="#9a32cd" points="392.701,-95.6656 382.822,-99.494 392.932,-102.662 392.701,-95.6656"/>
<text text-anchor="middle" x="623" y="-180.463" font-family="Helvetica,sans-Serif" font-size="10.00"> myImage</text>
</g>
<!-- Node11&#45;&gt;Node5 -->
<g id="edge11" class="edge"><title>Node11&#45;&gt;Node5</title>
<path fill="none" stroke="#9a32cd" stroke-dasharray="5,2" d="M392.84,-105.067C430.203,-108.755 480.472,-117.559 520,-138.463 563.406,-161.417 600.685,-208.685 615.349,-228.924"/>
<polygon fill="#9a32cd" stroke="#9a32cd" points="392.936,-101.562 382.664,-104.157 392.312,-108.534 392.936,-101.562"/>
<text text-anchor="middle" x="467" y="-141.463" font-family="Helvetica,sans-Serif" font-size="10.00"> myImage</text>
</g>
<!-- Node12 -->
<g id="node12" class="node"><title>Node12</title>
<g id="a_node12"><a xlink:href="../../de/ded/classmodel_1_1_pen.html" target="_top" xlink:title="model.Pen">
<polygon fill="white" stroke="black" points="305,-287.963 305,-306.963 373,-306.963 373,-287.963 305,-287.963"/>
<text text-anchor="middle" x="339" y="-294.963" font-family="Helvetica,sans-Serif" font-size="10.00">model.Pen</text>
</a>
</g>
</g>
<!-- Node12&#45;&gt;Node5 -->
<g id="edge12" class="edge"><title>Node12&#45;&gt;Node5</title>
<path fill="none" stroke="#9a32cd" stroke-dasharray="5,2" d="M383.383,-291.622C420.006,-286.36 473.721,-277.864 520,-267.463 544.428,-261.973 571.689,-254.131 591.878,-247.986"/>
<polygon fill="#9a32cd" stroke="#9a32cd" points="382.47,-288.216 373.06,-293.085 383.452,-295.147 382.47,-288.216"/>
<text text-anchor="middle" x="467" y="-288.463" font-family="Helvetica,sans-Serif" font-size="10.00"> myPen</text>
</g>
<!-- Node13 -->
<g id="node13" class="node"><title>Node13</title>
<polygon fill="white" stroke="#bfbfbf" points="49.5,-334.963 49.5,-353.963 90.5,-353.963 90.5,-334.963 49.5,-334.963"/>
<text text-anchor="middle" x="70" y="-341.963" font-family="Helvetica,sans-Serif" font-size="10.00">Color</text>
</g>
<!-- Node13&#45;&gt;Node1 -->
<g id="edge18" class="edge"><title>Node13&#45;&gt;Node1</title>
<path fill="none" stroke="#9a32cd" stroke-dasharray="5,2" d="M100.697,-346.543C191.643,-352.566 474.345,-368.715 708,-354.463 751.799,-351.791 765.972,-360.444 806,-342.463 835.523,-329.201 861.868,-300.391 874.352,-285.234"/>
<polygon fill="#9a32cd" stroke="#9a32cd" points="100.785,-343.041 90.5724,-345.861 100.315,-350.025 100.785,-343.041"/>
<text text-anchor="middle" x="467" y="-373.463" font-family="Helvetica,sans-Serif" font-size="10.00"> INITIAL_GRAD_COLOR</text>
<text text-anchor="middle" x="467" y="-362.463" font-family="Helvetica,sans-Serif" font-size="10.00">FINAL_GRAD_COLOR</text>
</g>
<!-- Node13&#45;&gt;Node12 -->
<g id="edge13" class="edge"><title>Node13&#45;&gt;Node12</title>
<path fill="none" stroke="#9a32cd" stroke-dasharray="5,2" d="M100.916,-340.812C138.975,-335.973 206.655,-326.722 264,-315.463 277.493,-312.814 292.236,-309.346 304.986,-306.163"/>
<polygon fill="#9a32cd" stroke="#9a32cd" points="100.035,-337.395 90.5494,-342.113 100.908,-344.34 100.035,-337.395"/>
<text text-anchor="middle" x="211" y="-335.463" font-family="Helvetica,sans-Serif" font-size="10.00"> myCurrentColor</text>
</g>
<!-- Node14 -->
<g id="node14" class="node"><title>Node14</title>
<polygon fill="white" stroke="#bfbfbf" points="46,-117.963 46,-136.963 94,-136.963 94,-117.963 46,-117.963"/>
<text text-anchor="middle" x="70" y="-124.963" font-family="Helvetica,sans-Serif" font-size="10.00">Stroke</text>
</g>
<!-- Node14&#45;&gt;Node1 -->
<g id="edge19" class="edge"><title>Node14&#45;&gt;Node1</title>
<path fill="none" stroke="#9a32cd" stroke-dasharray="5,2" d="M103.955,-117.079C201.505,-88.2683 495.27,-15.5059 708,-110.463 788.593,-146.437 855.031,-235.985 875.489,-265.704"/>
<polygon fill="#9a32cd" stroke="#9a32cd" points="102.657,-113.814 94.0862,-120.043 104.67,-120.518 102.657,-113.814"/>
<text text-anchor="middle" x="467" y="-79.4628" font-family="Helvetica,sans-Serif" font-size="10.00"> ACTIVE_STROKE</text>
<text text-anchor="middle" x="467" y="-68.4628" font-family="Helvetica,sans-Serif" font-size="10.00">myStroke</text>
</g>
<!-- Node14&#45;&gt;Node12 -->
<g id="edge14" class="edge"><title>Node14&#45;&gt;Node12</title>
<path fill="none" stroke="#9a32cd" stroke-dasharray="5,2" d="M103.517,-140.924C145.003,-159.415 217,-196.082 264,-245.463 275.518,-257.564 269.214,-267.709 282,-278.463 288.521,-283.948 296.701,-287.873 304.777,-290.674"/>
<polygon fill="#9a32cd" stroke="#9a32cd" points="104.72,-137.63 94.1557,-136.83 101.915,-144.044 104.72,-137.63"/>
<text text-anchor="middle" x="211" y="-259.463" font-family="Helvetica,sans-Serif" font-size="10.00"> myStroke</text>
<text text-anchor="middle" x="211" y="-248.463" font-family="Helvetica,sans-Serif" font-size="10.00">DEFAULT_STROKE</text>
</g>
<!-- Node15 -->
<g id="node15" class="node"><title>Node15</title>
<polygon fill="white" stroke="#bfbfbf" points="15,-293.963 15,-312.963 125,-312.963 125,-293.963 15,-293.963"/>
<text text-anchor="middle" x="70" y="-300.963" font-family="Helvetica,sans-Serif" font-size="10.00">List&lt; util.PenLine &gt;</text>
</g>
<!-- Node15&#45;&gt;Node12 -->
<g id="edge15" class="edge"><title>Node15&#45;&gt;Node12</title>
<path fill="none" stroke="#9a32cd" stroke-dasharray="5,2" d="M135.086,-302.023C188.481,-300.823 262.4,-299.162 304.703,-298.211"/>
<polygon fill="#9a32cd" stroke="#9a32cd" points="134.95,-298.525 125.031,-302.249 135.108,-305.523 134.95,-298.525"/>
<text text-anchor="middle" x="211" y="-303.463" font-family="Helvetica,sans-Serif" font-size="10.00"> myLines</text>
</g>
<!-- Node16 -->
<g id="node16" class="node"><title>Node16</title>
<g id="a_node16"><a xlink:href="../../d7/da7/enumview_1_1components_1_1_strokes.html" target="_top" xlink:title="view.components.Strokes">
<polygon fill="white" stroke="black" points="0.5,-255.963 0.5,-274.963 139.5,-274.963 139.5,-255.963 0.5,-255.963"/>
<text text-anchor="middle" x="70" y="-262.963" font-family="Helvetica,sans-Serif" font-size="10.00">view.components.Strokes</text>
</a>
</g>
</g>
<!-- Node16&#45;&gt;Node12 -->
<g id="edge16" class="edge"><title>Node16&#45;&gt;Node12</title>
<path fill="none" stroke="#9a32cd" stroke-dasharray="5,2" d="M149.694,-271.118C184.771,-274.072 226.543,-278.185 264,-283.463 277.465,-285.36 292.203,-288.026 304.957,-290.524"/>
<polygon fill="#9a32cd" stroke="#9a32cd" points="149.767,-267.612 139.513,-270.277 149.191,-274.588 149.767,-267.612"/>
<text text-anchor="middle" x="211" y="-286.463" font-family="Helvetica,sans-Serif" font-size="10.00"> myStrokeType</text>
</g>
<!-- Node17 -->
<g id="node17" class="node"><title>Node17</title>
<polygon fill="white" stroke="#bfbfbf" points="282.5,-249.963 282.5,-268.963 395.5,-268.963 395.5,-249.963 282.5,-249.963"/>
<text text-anchor="middle" x="339" y="-256.963" font-family="Helvetica,sans-Serif" font-size="10.00">List&lt; util.Location &gt;</text>
</g>
<!-- Node17&#45;&gt;Node5 -->
<g id="edge17" class="edge"><title>Node17&#45;&gt;Node5</title>
<path fill="none" stroke="#9a32cd" stroke-dasharray="5,2" d="M405.874,-254.557C461.742,-250.397 539.835,-244.581 585.246,-241.2"/>
<polygon fill="#9a32cd" stroke="#9a32cd" points="405.427,-251.081 395.714,-255.314 405.946,-258.062 405.427,-251.081"/>
<text text-anchor="middle" x="467" y="-256.463" font-family="Helvetica,sans-Serif" font-size="10.00"> myStamp</text>
</g>
<!-- Node18 -->
<g id="node18" class="node"><title>Node18</title>
<polygon fill="white" stroke="#bfbfbf" points="544,-10.9628 544,-29.9628 702,-29.9628 702,-10.9628 544,-10.9628"/>
<text text-anchor="middle" x="623" y="-17.9628" font-family="Helvetica,sans-Serif" font-size="10.00">Map&lt; Integer, model.Turtle &gt;</text>
</g>
<!-- Node18&#45;&gt;Node1 -->
<g id="edge20" class="edge"><title>Node18&#45;&gt;Node1</title>
<path fill="none" stroke="#9a32cd" stroke-dasharray="5,2" d="M663.803,-8.44662C703.852,1.02924 765.349,8.1196 806,-22.4628 846.956,-53.2744 874.327,-223.125 880.617,-265.755"/>
<polygon fill="#9a32cd" stroke="#9a32cd" points="662.701,-5.11472 653.86,-10.9522 664.412,-11.9025 662.701,-5.11472"/>
<text text-anchor="middle" x="766" y="-36.4628" font-family="Helvetica,sans-Serif" font-size="10.00"> myTurtles</text>
<text text-anchor="middle" x="766" y="-25.4628" font-family="Helvetica,sans-Serif" font-size="10.00">myActiveTurtles</text>
</g>
</g>
</svg>
        <g id="navigator" transform="translate(0 0)" fill="#404254">
                <rect fill="#f2f5e9" fill-opacity="0.5" stroke="#606060" stroke-width=".5" x="0" y="0" width="60" height="60"/>
                <use id="zoomplus" xlink:href="#zoomPlus" x="17" y="9" onmousedown="handleZoom(evt,'in')"/>
                <use id="zoomminus" xlink:href="#zoomMin" x="42" y="9" onmousedown="handleZoom(evt,'out')"/>
                <use id="reset" xlink:href="#resetDef" x="30" y="36" onmousedown="handleReset()"/>
                <g id="arrowUp" xlink:href="#dirArrow" transform="translate(30 24)" onmousedown="handlePan(0,-1)">
                  <use xlink:href="#rim" fill="#404040">
                        <set attributeName="fill" to="#808080" begin="arrowUp.mouseover" end="arrowUp.mouseout"/>
                  </use>
                  <path fill="none" stroke="white" stroke-width="1.5" d="M0,-3.0v7 M-2.5,-0.5L0,-3.0L2.5,-0.5"/>
                </g>
                <g id="arrowRight" xlink:href="#dirArrow" transform="rotate(90) translate(36 -43)" onmousedown="handlePan(1,0)">
                  <use xlink:href="#rim" fill="#404040">
                        <set attributeName="fill" to="#808080" begin="arrowRight.mouseover" end="arrowRight.mouseout"/>
                  </use>
                  <path fill="none" stroke="white" stroke-width="1.5" d="M0,-3.0v7 M-2.5,-0.5L0,-3.0L2.5,-0.5"/>
                </g>
                <g id="arrowDown" xlink:href="#dirArrow" transform="rotate(180) translate(-30 -48)" onmousedown="handlePan(0,1)">
                  <use xlink:href="#rim" fill="#404040">
                        <set attributeName="fill" to="#808080" begin="arrowDown.mouseover" end="arrowDown.mouseout"/>
                  </use>
                  <path fill="none" stroke="white" stroke-width="1.5" d="M0,-3.0v7 M-2.5,-0.5L0,-3.0L2.5,-0.5"/>
                </g>
                <g id="arrowLeft" xlink:href="#dirArrow" transform="rotate(270) translate(-36 17)" onmousedown="handlePan(-1,0)">
                  <use xlink:href="#rim" fill="#404040">
                        <set attributeName="fill" to="#808080" begin="arrowLeft.mouseover" end="arrowLeft.mouseout"/>
                  </use>
                  <path fill="none" stroke="white" stroke-width="1.5" d="M0,-3.0v7 M-2.5,-0.5L0,-3.0L2.5,-0.5"/>
                </g>
        </g>
        <svg viewBox="0 0 15 15" width="100%" height="30px" preserveAspectRatio="xMaxYMin meet">
         <g id="arrow_out" transform="scale(0.3 0.3)">
          <a xlink:href="classmodel_1_1_turtle_manager__coll__graph_org.svg" target="_base">
           <rect id="button" ry="5" rx="5" y="6" x="6" height="38" width="38"
                fill="#f2f5e9" fill-opacity="0.5" stroke="#606060" stroke-width="1.0"/>
           <path id="arrow"
             d="M 11.500037,31.436501 C 11.940474,20.09759 22.043105,11.32322 32.158766,21.979434 L 37.068811,17.246167 C 37.068811,17.246167 37.088388,32 37.088388,32 L 22.160133,31.978069 C 22.160133,31.978069 26.997745,27.140456 26.997745,27.140456 C 18.528582,18.264221 13.291696,25.230495 11.500037,31.436501 z"
             style="fill:#404040;"/>
          </a>
         </g>
        </svg>
</svg>
