<?xml version="1.0" encoding="UTF-8" standalone="no"?>
<!DOCTYPE svg PUBLIC "-//W3C//DTD SVG 1.1//EN"
 "http://www.w3.org/Graphics/SVG/1.1/DTD/svg11.dtd">
<!-- Generated by graphviz version 2.36.0 (20140111.2315)
 -->
<!-- Title: view.windows.PreviousCommandWindow Pages: 1 -->
<svg width="571pt" height="166pt"
 viewBox="0.00 0.00 571.00 166.00" xmlns="http://www.w3.org/2000/svg" xmlns:xlink="http://www.w3.org/1999/xlink">
<g id="graph0" class="graph" transform="scale(1 1) rotate(0) translate(4 162)">
<title>view.windows.PreviousCommandWindow</title>
<polygon fill="white" stroke="none" points="-4,4 -4,-162 567,-162 567,4 -4,4"/>
<!-- Node1 -->
<g id="node1" class="node"><title>Node1</title>
<polygon fill="#bfbfbf" stroke="black" points="124,-1 124,-31 296,-31 296,-1 124,-1"/>
<text text-anchor="start" x="132" y="-19" font-family="Helvetica,sans-Serif" font-size="10.00">view.windows.PreviousCommand</text>
<text text-anchor="middle" x="210" y="-8" font-family="Helvetica,sans-Serif" font-size="10.00">Window</text>
</g>
<!-- Node2 -->
<g id="node2" class="node"><title>Node2</title>
<g id="a_node2"><a xlink:href="../../d3/d50/classview_1_1windows_1_1_logo_list_window.html" target="_top" xlink:title="view.windows.LogoListWindow">
<polygon fill="white" stroke="black" points="132,-70.5 132,-89.5 288,-89.5 288,-70.5 132,-70.5"/>
<text text-anchor="middle" x="210" y="-77.5" font-family="Helvetica,sans-Serif" font-size="10.00">view.windows.LogoListWindow</text>
</a>
</g>
</g>
<!-- Node2&#45;&gt;Node1 -->
<g id="edge1" class="edge"><title>Node2&#45;&gt;Node1</title>
<path fill="none" stroke="midnightblue" d="M210,-60.1826C210,-50.8859 210,-39.8507 210,-31.263"/>
<polygon fill="midnightblue" stroke="midnightblue" points="206.5,-60.3791 210,-70.3792 213.5,-60.3792 206.5,-60.3791"/>
</g>
<!-- Node3 -->
<g id="node3" class="node"><title>Node3</title>
<polygon fill="white" stroke="#bfbfbf" points="0,-138.5 0,-157.5 44,-157.5 44,-138.5 0,-138.5"/>
<text text-anchor="middle" x="22" y="-145.5" font-family="Helvetica,sans-Serif" font-size="10.00">JPanel</text>
</g>
<!-- Node3&#45;&gt;Node2 -->
<g id="edge2" class="edge"><title>Node3&#45;&gt;Node2</title>
<path fill="none" stroke="midnightblue" d="M54.1594,-135.71C91.4422,-122.621 152.057,-101.342 185.647,-89.5496"/>
<polygon fill="midnightblue" stroke="midnightblue" points="52.5804,-132.555 44.3043,-139.17 54.8992,-139.16 52.5804,-132.555"/>
</g>
<!-- Node4 -->
<g id="node4" class="node"><title>Node4</title>
<polygon fill="white" stroke="#bfbfbf" points="62,-138.5 62,-157.5 122,-157.5 122,-138.5 62,-138.5"/>
<text text-anchor="middle" x="92" y="-145.5" font-family="Helvetica,sans-Serif" font-size="10.00">Observer</text>
</g>
<!-- Node4&#45;&gt;Node2 -->
<g id="edge3" class="edge"><title>Node4&#45;&gt;Node2</title>
<path fill="none" stroke="midnightblue" d="M116.001,-133.35C129.251,-125.836 146.013,-116.364 161,-108 172.026,-101.846 184.489,-94.98 194.087,-89.7116"/>
<polygon fill="midnightblue" stroke="midnightblue" points="114.017,-130.451 107.049,-138.432 117.473,-136.539 114.017,-130.451"/>
</g>
<!-- Node5 -->
<g id="node5" class="node"><title>Node5</title>
<polygon fill="white" stroke="#bfbfbf" points="140.5,-138.5 140.5,-157.5 199.5,-157.5 199.5,-138.5 140.5,-138.5"/>
<text text-anchor="middle" x="170" y="-145.5" font-family="Helvetica,sans-Serif" font-size="10.00">JTextField</text>
</g>
<!-- Node5&#45;&gt;Node2 -->
<g id="edge4" class="edge"><title>Node5&#45;&gt;Node2</title>
<path fill="none" stroke="#9a32cd" stroke-dasharray="5,2" d="M165.084,-128.075C164.336,-121.38 164.712,-114.023 168,-108 172.403,-99.9351 180.361,-93.9199 188.174,-89.6396"/>
<polygon fill="#9a32cd" stroke="#9a32cd" points="161.741,-129.217 167.088,-138.363 168.612,-127.879 161.741,-129.217"/>
<text text-anchor="middle" x="200" y="-111.5" font-family="Helvetica,sans-Serif" font-size="10.00"> myInputField</text>
</g>
<!-- Node6 -->
<g id="node6" class="node"><title>Node6</title>
<polygon fill="white" stroke="#bfbfbf" points="220,-138.5 220,-157.5 288,-157.5 288,-138.5 220,-138.5"/>
<text text-anchor="middle" x="254" y="-145.5" font-family="Helvetica,sans-Serif" font-size="10.00">Dimension</text>
</g>
<!-- Node6&#45;&gt;Node2 -->
<g id="edge5" class="edge"><title>Node6&#45;&gt;Node2</title>
<path fill="none" stroke="#9a32cd" stroke-dasharray="5,2" d="M244.848,-129.302C241.111,-122.488 236.592,-114.731 232,-108 227.638,-101.606 222.138,-94.8564 217.729,-89.7048"/>
<polygon fill="#9a32cd" stroke="#9a32cd" points="241.893,-131.199 249.68,-138.382 248.072,-127.91 241.893,-131.199"/>
<text text-anchor="middle" x="293" y="-111.5" font-family="Helvetica,sans-Serif" font-size="10.00"> DEFAULT_DIMENSION</text>
</g>
<!-- Node7 -->
<g id="node7" class="node"><title>Node7</title>
<polygon fill="white" stroke="#bfbfbf" points="365.5,-138.5 365.5,-157.5 400.5,-157.5 400.5,-138.5 365.5,-138.5"/>
<text text-anchor="middle" x="383" y="-145.5" font-family="Helvetica,sans-Serif" font-size="10.00">JList</text>
</g>
<!-- Node7&#45;&gt;Node2 -->
<g id="edge6" class="edge"><title>Node7&#45;&gt;Node2</title>
<path fill="none" stroke="#9a32cd" stroke-dasharray="5,2" d="M372.427,-129.803C366.733,-121.967 359.023,-113.281 350,-108 331.414,-97.1218 309.291,-90.5191 288.183,-86.5422"/>
<polygon fill="#9a32cd" stroke="#9a32cd" points="369.676,-131.986 378.141,-138.356 375.496,-128.097 369.676,-131.986"/>
<text text-anchor="middle" x="401" y="-111.5" font-family="Helvetica,sans-Serif" font-size="10.00"> myCommands</text>
</g>
<!-- Node8 -->
<g id="node8" class="node"><title>Node8</title>
<polygon fill="white" stroke="#bfbfbf" points="431,-138.5 431,-157.5 529,-157.5 529,-138.5 431,-138.5"/>
<text text-anchor="middle" x="480" y="-145.5" font-family="Helvetica,sans-Serif" font-size="10.00">Vector&lt; String &gt;</text>
</g>
<!-- Node8&#45;&gt;Node2 -->
<g id="edge7" class="edge"><title>Node8&#45;&gt;Node2</title>
<path fill="none" stroke="#9a32cd" stroke-dasharray="5,2" d="M468.156,-130.295C461.45,-122.172 452.341,-113.086 442,-108 415.62,-95.0245 344.694,-88.0858 288.148,-84.508"/>
<polygon fill="#9a32cd" stroke="#9a32cd" points="465.576,-132.683 474.434,-138.497 471.135,-128.428 465.576,-132.683"/>
<text text-anchor="middle" x="510.5" y="-111.5" font-family="Helvetica,sans-Serif" font-size="10.00"> myCommandsVector</text>
</g>
</g>
</svg>
