<?xml version="1.0" encoding="UTF-8" standalone="no"?>
<!DOCTYPE svg PUBLIC "-//W3C//DTD SVG 1.1//EN"
 "http://www.w3.org/Graphics/SVG/1.1/DTD/svg11.dtd">
<!-- Generated by graphviz version 2.36.0 (20140111.2315)
 -->
<!-- Title: parser.nodes.CommandNode Pages: 1 -->
<svg width="457pt" height="264pt"
 viewBox="0.00 0.00 457.00 264.00" xmlns="http://www.w3.org/2000/svg" xmlns:xlink="http://www.w3.org/1999/xlink">
<g id="graph0" class="graph" transform="scale(1 1) rotate(0) translate(4 260)">
<title>parser.nodes.CommandNode</title>
<polygon fill="white" stroke="none" points="-4,4 -4,-260 453,-260 453,4 -4,4"/>
<!-- Node1 -->
<g id="node1" class="node"><title>Node1</title>
<polygon fill="#bfbfbf" stroke="black" points="157,-0.5 157,-19.5 315,-19.5 315,-0.5 157,-0.5"/>
<text text-anchor="middle" x="236" y="-7.5" font-family="Helvetica,sans-Serif" font-size="10.00">parser.nodes.CommandNode</text>
</g>
<!-- Node2 -->
<g id="node2" class="node"><title>Node2</title>
<g id="a_node2"><a xlink:href="../../da/df7/classparser_1_1nodes_1_1_simple_node.html" target="_top" xlink:title="parser.nodes.SimpleNode">
<polygon fill="white" stroke="black" points="0,-106.5 0,-125.5 140,-125.5 140,-106.5 0,-106.5"/>
<text text-anchor="middle" x="70" y="-113.5" font-family="Helvetica,sans-Serif" font-size="10.00">parser.nodes.SimpleNode</text>
</a>
</g>
</g>
<!-- Node2&#45;&gt;Node1 -->
<g id="edge1" class="edge"><title>Node2&#45;&gt;Node1</title>
<path fill="none" stroke="midnightblue" d="M92.1052,-101.151C126.913,-79.3436 193.488,-37.6342 222.228,-19.6284"/>
<polygon fill="midnightblue" stroke="midnightblue" points="90.2005,-98.214 83.5845,-106.489 93.917,-104.146 90.2005,-98.214"/>
</g>
<!-- Node3 -->
<g id="node3" class="node"><title>Node3</title>
<g id="a_node3"><a xlink:href="../../da/d96/classparser_1_1nodes_1_1_syntax_node.html" target="_top" xlink:title="parser.nodes.SyntaxNode">
<polygon fill="white" stroke="black" points="18,-230.5 18,-249.5 158,-249.5 158,-230.5 18,-230.5"/>
<text text-anchor="middle" x="88" y="-237.5" font-family="Helvetica,sans-Serif" font-size="10.00">parser.nodes.SyntaxNode</text>
</a>
</g>
</g>
<!-- Node3&#45;&gt;Node2 -->
<g id="edge2" class="edge"><title>Node3&#45;&gt;Node2</title>
<path fill="none" stroke="midnightblue" d="M83.5631,-220.435C80.7272,-207.942 77.1844,-191.062 75,-176 72.4329,-158.298 71.0456,-137.403 70.4202,-125.834"/>
<polygon fill="midnightblue" stroke="midnightblue" points="80.2299,-221.553 85.9095,-230.497 87.047,-219.964 80.2299,-221.553"/>
</g>
<!-- Node6 -->
<g id="node6" class="node"><title>Node6</title>
<g id="a_node6"><a xlink:href="../../d4/d1c/classparser_1_1nodes_1_1_list_node.html" target="_top" xlink:title="parser.nodes.ListNode">
<polygon fill="white" stroke="black" points="84,-150.5 84,-169.5 208,-169.5 208,-150.5 84,-150.5"/>
<text text-anchor="middle" x="146" y="-157.5" font-family="Helvetica,sans-Serif" font-size="10.00">parser.nodes.ListNode</text>
</a>
</g>
</g>
<!-- Node3&#45;&gt;Node6 -->
<g id="edge6" class="edge"><title>Node3&#45;&gt;Node6</title>
<path fill="none" stroke="midnightblue" d="M100.716,-221.899C112.632,-205.874 129.976,-182.55 139.364,-169.924"/>
<polygon fill="midnightblue" stroke="midnightblue" points="97.5871,-220.241 94.4286,-230.355 103.204,-224.418 97.5871,-220.241"/>
</g>
<!-- Node4 -->
<g id="node4" class="node"><title>Node4</title>
<polygon fill="white" stroke="#bfbfbf" points="253.5,-225 253.5,-255 396.5,-255 396.5,-225 253.5,-225"/>
<text text-anchor="start" x="261.5" y="-243" font-family="Helvetica,sans-Serif" font-size="10.00">List&lt; parser.nodes.Syntax</text>
<text text-anchor="middle" x="325" y="-232" font-family="Helvetica,sans-Serif" font-size="10.00">Node &gt;</text>
</g>
<!-- Node4&#45;&gt;Node1 -->
<g id="edge3" class="edge"><title>Node4&#45;&gt;Node1</title>
<path fill="none" stroke="#9a32cd" stroke-dasharray="5,2" d="M351.794,-218.098C363.774,-207.036 376.616,-192.36 383,-176 388.17,-162.751 387.267,-157.567 383,-144 365.761,-89.1916 354.467,-73.1269 309,-38 298.2,-29.656 284.559,-23.6933 272,-19.5316"/>
<polygon fill="#9a32cd" stroke="#9a32cd" points="349.332,-215.602 344.122,-224.827 353.948,-220.865 349.332,-215.602"/>
<text text-anchor="middle" x="413" y="-113.5" font-family="Helvetica,sans-Serif" font-size="10.00"> myArguments</text>
</g>
<!-- Node4&#45;&gt;Node6 -->
<g id="edge7" class="edge"><title>Node4&#45;&gt;Node6</title>
<path fill="none" stroke="#9a32cd" stroke-dasharray="5,2" d="M283.063,-220.726C246.077,-204.609 193.816,-181.836 165.714,-169.591"/>
<polygon fill="#9a32cd" stroke="#9a32cd" points="282.019,-224.089 292.584,-224.875 284.815,-217.671 282.019,-224.089"/>
<text text-anchor="middle" x="278" y="-197.5" font-family="Helvetica,sans-Serif" font-size="10.00"> myContents</text>
</g>
<!-- Node5 -->
<g id="node5" class="node"><title>Node5</title>
<g id="a_node5"><a xlink:href="../../d9/d06/classparser_1_1_custom_command.html" target="_top" xlink:title="parser.CustomCommand">
<polygon fill="white" stroke="black" points="167.5,-68.5 167.5,-87.5 304.5,-87.5 304.5,-68.5 167.5,-68.5"/>
<text text-anchor="middle" x="236" y="-75.5" font-family="Helvetica,sans-Serif" font-size="10.00">parser.CustomCommand</text>
</a>
</g>
</g>
<!-- Node5&#45;&gt;Node1 -->
<g id="edge4" class="edge"><title>Node5&#45;&gt;Node1</title>
<path fill="none" stroke="#9a32cd" stroke-dasharray="5,2" d="M236,-58.0413C236,-45.4724 236,-29.5631 236,-19.8411"/>
<polygon fill="#9a32cd" stroke="#9a32cd" points="232.5,-58.3716 236,-68.3717 239.5,-58.3717 232.5,-58.3716"/>
<text text-anchor="middle" x="270.5" y="-41.5" font-family="Helvetica,sans-Serif" font-size="10.00"> myCommand</text>
</g>
<!-- Node6&#45;&gt;Node5 -->
<g id="edge5" class="edge"><title>Node6&#45;&gt;Node5</title>
<path fill="none" stroke="#9a32cd" stroke-dasharray="5,2" d="M157.782,-141.908C165.973,-130.818 177.612,-116.527 190,-106 198.468,-98.8045 209.105,-92.4221 218.016,-87.6717"/>
<polygon fill="#9a32cd" stroke="#9a32cd" points="154.738,-140.147 151.77,-150.318 160.433,-144.218 154.738,-140.147"/>
<text text-anchor="middle" x="227" y="-113.5" font-family="Helvetica,sans-Serif" font-size="10.00"> myCommands</text>
</g>
<!-- Node7 -->
<g id="node7" class="node"><title>Node7</title>
<polygon fill="white" stroke="#bfbfbf" points="226,-145 226,-175 374,-175 374,-145 226,-145"/>
<text text-anchor="start" x="234" y="-163" font-family="Helvetica,sans-Serif" font-size="10.00">List&lt; parser.nodes.Variable</text>
<text text-anchor="middle" x="300" y="-152" font-family="Helvetica,sans-Serif" font-size="10.00">Node &gt;</text>
</g>
<!-- Node7&#45;&gt;Node5 -->
<g id="edge8" class="edge"><title>Node7&#45;&gt;Node5</title>
<path fill="none" stroke="#9a32cd" stroke-dasharray="5,2" d="M288.063,-135.59C282.6,-125.942 275.641,-114.952 268,-106 262.148,-99.1444 254.458,-92.5955 248.082,-87.6645"/>
<polygon fill="#9a32cd" stroke="#9a32cd" points="285.145,-137.55 292.996,-144.664 291.294,-134.207 285.145,-137.55"/>
<text text-anchor="middle" x="302" y="-113.5" font-family="Helvetica,sans-Serif" font-size="10.00"> myArgs</text>
</g>
</g>
</svg>
