<?xml version="1.0" encoding="UTF-8" standalone="no"?>
<!DOCTYPE svg PUBLIC "-//W3C//DTD SVG 1.1//EN"
 "http://www.w3.org/Graphics/SVG/1.1/DTD/svg11.dtd">
<!-- Generated by graphviz version 2.36.0 (20140111.2315)
 -->
<!-- Title: parser.nodes.ParameterNode.addParameter Pages: 1 -->
<svg width="418pt" height="175pt"
 viewBox="0.00 0.00 418.00 175.00" xmlns="http://www.w3.org/2000/svg" xmlns:xlink="http://www.w3.org/1999/xlink">
<g id="graph0" class="graph" transform="scale(1 1) rotate(0) translate(4 171)">
<title>parser.nodes.ParameterNode.addParameter</title>
<polygon fill="white" stroke="none" points="-4,4 -4,-171 414,-171 414,4 -4,4"/>
<!-- Node1 -->
<g id="node1" class="node"><title>Node1</title>
<polygon fill="#bfbfbf" stroke="black" points="0.5,-63 0.5,-93 179.5,-93 179.5,-63 0.5,-63"/>
<text text-anchor="start" x="8.5" y="-81" font-family="Helvetica,sans-Serif" font-size="10.00">parser.nodes.ParameterNode.add</text>
<text text-anchor="middle" x="90" y="-70" font-family="Helvetica,sans-Serif" font-size="10.00">Parameter</text>
</g>
<!-- Node2 -->
<g id="node2" class="node"><title>Node2</title>
<g id="a_node2"><a xlink:href="../../db/d11/classparser_1_1nodes_1_1_binary_node.html#adeb9884b38229ab9caa3011d381f772d" target="_top" xlink:title="parser.nodes.BinaryNode.\lBinaryNode">
<polygon fill="white" stroke="black" points="243,-137 243,-167 383,-167 383,-137 243,-137"/>
<text text-anchor="start" x="251" y="-155" font-family="Helvetica,sans-Serif" font-size="10.00">parser.nodes.BinaryNode.</text>
<text text-anchor="middle" x="313" y="-144" font-family="Helvetica,sans-Serif" font-size="10.00">BinaryNode</text>
</a>
</g>
</g>
<!-- Node1&#45;&gt;Node2 -->
<g id="edge1" class="edge"><title>Node1&#45;&gt;Node2</title>
<path fill="none" stroke="midnightblue" d="M135.564,-96.9581C159.216,-106.64 188.918,-118.2 216,-127 226.81,-130.513 238.428,-133.876 249.717,-136.933"/>
<polygon fill="midnightblue" stroke="midnightblue" points="136.733,-93.6545 126.154,-93.0754 134.063,-100.125 136.733,-93.6545"/>
</g>
<!-- Node3 -->
<g id="node3" class="node"><title>Node3</title>
<g id="a_node3"><a xlink:href="../../d2/dce/classparser_1_1commands_1_1view_1_1_set_palette.html#a240d14cc4c537f09274667129e467428" target="_top" xlink:title="parser.commands.view.Set\lPalette.SetPalette">
<polygon fill="white" stroke="black" points="240,-88 240,-118 386,-118 386,-88 240,-88"/>
<text text-anchor="start" x="248" y="-106" font-family="Helvetica,sans-Serif" font-size="10.00">parser.commands.view.Set</text>
<text text-anchor="middle" x="313" y="-95" font-family="Helvetica,sans-Serif" font-size="10.00">Palette.SetPalette</text>
</a>
</g>
</g>
<!-- Node1&#45;&gt;Node3 -->
<g id="edge2" class="edge"><title>Node1&#45;&gt;Node3</title>
<path fill="none" stroke="midnightblue" d="M189.555,-89.1487C206.531,-91.0691 223.888,-93.0326 239.997,-94.8549"/>
<polygon fill="midnightblue" stroke="midnightblue" points="189.946,-85.6707 179.616,-88.0244 189.159,-92.6264 189.946,-85.6707"/>
</g>
<!-- Node4 -->
<g id="node4" class="node"><title>Node4</title>
<g id="a_node4"><a xlink:href="../../d5/dba/classparser_1_1nodes_1_1_ternary_node.html#a1411166836c6063fe91e0f255d7b4e37" target="_top" xlink:title="parser.nodes.TernaryNode.\lTernaryNode">
<polygon fill="white" stroke="black" points="240.5,-39 240.5,-69 385.5,-69 385.5,-39 240.5,-39"/>
<text text-anchor="start" x="248.5" y="-57" font-family="Helvetica,sans-Serif" font-size="10.00">parser.nodes.TernaryNode.</text>
<text text-anchor="middle" x="313" y="-46" font-family="Helvetica,sans-Serif" font-size="10.00">TernaryNode</text>
</a>
</g>
</g>
<!-- Node1&#45;&gt;Node4 -->
<g id="edge3" class="edge"><title>Node1&#45;&gt;Node4</title>
<path fill="none" stroke="midnightblue" d="M189.615,-67.2907C206.693,-65.436 224.155,-63.5397 240.343,-61.7818"/>
<polygon fill="midnightblue" stroke="midnightblue" points="189.179,-63.8173 179.616,-68.3766 189.935,-70.7764 189.179,-63.8173"/>
</g>
<!-- Node5 -->
<g id="node5" class="node"><title>Node5</title>
<g id="a_node5"><a xlink:href="../../d3/d36/classparser_1_1nodes_1_1_unary_node.html#a24efd4e49ac85ff954d5f0e4bf304d65" target="_top" xlink:title="parser.nodes.UnaryNode.UnaryNode">
<polygon fill="white" stroke="black" points="216.5,-0.5 216.5,-19.5 409.5,-19.5 409.5,-0.5 216.5,-0.5"/>
<text text-anchor="middle" x="313" y="-7.5" font-family="Helvetica,sans-Serif" font-size="10.00">parser.nodes.UnaryNode.UnaryNode</text>
</a>
</g>
</g>
<!-- Node1&#45;&gt;Node5 -->
<g id="edge4" class="edge"><title>Node1&#45;&gt;Node5</title>
<path fill="none" stroke="midnightblue" d="M135.175,-59.0341C158.832,-49.3903 188.656,-38.0413 216,-30 229.638,-25.9893 244.593,-22.4673 258.554,-19.5417"/>
<polygon fill="midnightblue" stroke="midnightblue" points="133.683,-55.8635 125.771,-62.91 136.35,-62.3354 133.683,-55.8635"/>
</g>
</g>
</svg>
