<?xml version="1.0" encoding="UTF-8" standalone="no"?>
<!DOCTYPE svg PUBLIC "-//W3C//DTD SVG 1.1//EN"
 "http://www.w3.org/Graphics/SVG/1.1/DTD/svg11.dtd">
<!-- Generated by graphviz version 2.36.0 (20140111.2315)
 -->
<!-- Title: parser.commands.other.IfElse.evaluate Pages: 1 -->
<svg width="582pt" height="164pt"
 viewBox="0.00 0.00 582.00 164.00" xmlns="http://www.w3.org/2000/svg" xmlns:xlink="http://www.w3.org/1999/xlink">
<g id="graph0" class="graph" transform="scale(1 1) rotate(0) translate(4 160)">
<title>parser.commands.other.IfElse.evaluate</title>
<polygon fill="white" stroke="none" points="-4,4 -4,-160 578,-160 578,4 -4,4"/>
<!-- Node1 -->
<g id="node1" class="node"><title>Node1</title>
<polygon fill="#bfbfbf" stroke="black" points="0,-71 0,-101 140,-101 140,-71 0,-71"/>
<text text-anchor="start" x="8" y="-89" font-family="Helvetica,sans-Serif" font-size="10.00">parser.commands.other.If</text>
<text text-anchor="middle" x="70" y="-78" font-family="Helvetica,sans-Serif" font-size="10.00">Else.evaluate</text>
</g>
<!-- Node2 -->
<g id="node2" class="node"><title>Node2</title>
<g id="a_node2"><a xlink:href="../../da/d96/classparser_1_1nodes_1_1_syntax_node.html#a669c370adce66a1960835323a90b9adb" target="_top" xlink:title="parser.nodes.SyntaxNode.evaluate">
<polygon fill="white" stroke="black" points="176.5,-136.5 176.5,-155.5 361.5,-155.5 361.5,-136.5 176.5,-136.5"/>
<text text-anchor="middle" x="269" y="-143.5" font-family="Helvetica,sans-Serif" font-size="10.00">parser.nodes.SyntaxNode.evaluate</text>
</a>
</g>
</g>
<!-- Node1&#45;&gt;Node2 -->
<g id="edge1" class="edge"><title>Node1&#45;&gt;Node2</title>
<path fill="none" stroke="midnightblue" d="M105.487,-101.165C125.732,-109.636 151.982,-119.886 176,-127 185.053,-129.681 194.716,-132.122 204.25,-134.293"/>
<polygon fill="midnightblue" stroke="midnightblue" points="203.591,-137.731 214.109,-136.457 205.092,-130.894 203.591,-137.731"/>
</g>
<!-- Node3 -->
<g id="node3" class="node"><title>Node3</title>
<g id="a_node3"><a xlink:href="../../db/d11/classparser_1_1nodes_1_1_binary_node.html#a555930c71203ce7c05e1290f069b19a1" target="_top" xlink:title="parser.nodes.BinaryNode.getLeft">
<polygon fill="white" stroke="black" points="182,-98.5 182,-117.5 356,-117.5 356,-98.5 182,-98.5"/>
<text text-anchor="middle" x="269" y="-105.5" font-family="Helvetica,sans-Serif" font-size="10.00">parser.nodes.BinaryNode.getLeft</text>
</a>
</g>
</g>
<!-- Node1&#45;&gt;Node3 -->
<g id="edge2" class="edge"><title>Node1&#45;&gt;Node3</title>
<path fill="none" stroke="midnightblue" d="M140.178,-93.7254C150.703,-94.9009 161.72,-96.1312 172.684,-97.3556"/>
<polygon fill="midnightblue" stroke="midnightblue" points="172.396,-100.845 182.723,-98.4767 173.173,-93.8884 172.396,-100.845"/>
</g>
<!-- Node5 -->
<g id="node5" class="node"><title>Node5</title>
<g id="a_node5"><a xlink:href="../../d5/dba/classparser_1_1nodes_1_1_ternary_node.html#a770c301b3752edf8c5128e5422a17686" target="_top" xlink:title="parser.nodes.TernaryNode.get\lMiddle">
<polygon fill="white" stroke="black" points="188.5,-49 188.5,-79 349.5,-79 349.5,-49 188.5,-49"/>
<text text-anchor="start" x="196.5" y="-67" font-family="Helvetica,sans-Serif" font-size="10.00">parser.nodes.TernaryNode.get</text>
<text text-anchor="middle" x="269" y="-56" font-family="Helvetica,sans-Serif" font-size="10.00">Middle</text>
</a>
</g>
</g>
<!-- Node1&#45;&gt;Node5 -->
<g id="edge4" class="edge"><title>Node1&#45;&gt;Node5</title>
<path fill="none" stroke="midnightblue" d="M140.178,-78.2746C152.425,-76.9068 165.338,-75.4648 178.059,-74.0442"/>
<polygon fill="midnightblue" stroke="midnightblue" points="178.653,-77.4996 188.203,-72.9113 177.876,-70.5429 178.653,-77.4996"/>
</g>
<!-- Node6 -->
<g id="node6" class="node"><title>Node6</title>
<g id="a_node6"><a xlink:href="../../db/d11/classparser_1_1nodes_1_1_binary_node.html#a9c33799a377e3c277de0fc9138a2cb81" target="_top" xlink:title="parser.nodes.BinaryNode.get\lRight">
<polygon fill="white" stroke="black" points="191,-0 191,-30 347,-30 347,-0 191,-0"/>
<text text-anchor="start" x="199" y="-18" font-family="Helvetica,sans-Serif" font-size="10.00">parser.nodes.BinaryNode.get</text>
<text text-anchor="middle" x="269" y="-7" font-family="Helvetica,sans-Serif" font-size="10.00">Right</text>
</a>
</g>
</g>
<!-- Node1&#45;&gt;Node6 -->
<g id="edge6" class="edge"><title>Node1&#45;&gt;Node6</title>
<path fill="none" stroke="midnightblue" d="M102.216,-70.875C122.849,-61.2411 150.663,-48.9377 176,-40 183.054,-37.5116 190.485,-35.1226 197.94,-32.8755"/>
<polygon fill="midnightblue" stroke="midnightblue" points="199.113,-36.179 207.724,-30.0067 197.144,-29.4618 199.113,-36.179"/>
</g>
<!-- Node4 -->
<g id="node4" class="node"><title>Node4</title>
<g id="a_node4"><a xlink:href="../../d7/d93/classparser_1_1nodes_1_1_parameter_node.html#a2c57eab9997daf1efb840a189c1034c5" target="_top" xlink:title="parser.nodes.ParameterNode.get\lParameter">
<polygon fill="white" stroke="black" points="398,-49 398,-79 574,-79 574,-49 398,-49"/>
<text text-anchor="start" x="406" y="-67" font-family="Helvetica,sans-Serif" font-size="10.00">parser.nodes.ParameterNode.get</text>
<text text-anchor="middle" x="486" y="-56" font-family="Helvetica,sans-Serif" font-size="10.00">Parameter</text>
</a>
</g>
</g>
<!-- Node3&#45;&gt;Node4 -->
<g id="edge3" class="edge"><title>Node3&#45;&gt;Node4</title>
<path fill="none" stroke="midnightblue" d="M316.652,-98.4527C341.399,-93.3882 372.56,-87.011 401.325,-81.1242"/>
<polygon fill="midnightblue" stroke="midnightblue" points="402.29,-84.4993 411.385,-79.0654 400.886,-77.6415 402.29,-84.4993"/>
</g>
<!-- Node5&#45;&gt;Node4 -->
<g id="edge5" class="edge"><title>Node5&#45;&gt;Node4</title>
<path fill="none" stroke="midnightblue" d="M349.753,-64C362.105,-64 374.983,-64 387.67,-64"/>
<polygon fill="midnightblue" stroke="midnightblue" points="387.79,-67.5001 397.79,-64 387.79,-60.5001 387.79,-67.5001"/>
</g>
<!-- Node6&#45;&gt;Node4 -->
<g id="edge7" class="edge"><title>Node6&#45;&gt;Node4</title>
<path fill="none" stroke="midnightblue" d="M335.968,-30.0346C359.185,-35.3259 385.456,-41.3133 409.404,-46.7712"/>
<polygon fill="midnightblue" stroke="midnightblue" points="408.629,-50.1841 419.157,-48.9938 410.184,-43.3591 408.629,-50.1841"/>
</g>
</g>
</svg>
