<?xml version="1.0" encoding="UTF-8" standalone="no"?>
<!DOCTYPE svg PUBLIC "-//W3C//DTD SVG 1.1//EN"
 "http://www.w3.org/Graphics/SVG/1.1/DTD/svg11.dtd">
<!-- Generated by graphviz version 2.36.0 (20140111.2315)
 -->
<!-- Title: controller.WSUndoManager.undo Pages: 1 -->
<svg width="738pt" height="38pt"
 viewBox="0.00 0.00 738.00 38.00" xmlns="http://www.w3.org/2000/svg" xmlns:xlink="http://www.w3.org/1999/xlink">
<g id="graph0" class="graph" transform="scale(1 1) rotate(0) translate(4 34)">
<title>controller.WSUndoManager.undo</title>
<polygon fill="white" stroke="none" points="-4,4 -4,-34 734,-34 734,4 -4,4"/>
<!-- Node1 -->
<g id="node1" class="node"><title>Node1</title>
<polygon fill="#bfbfbf" stroke="black" points="0.5,-5.5 0.5,-24.5 173.5,-24.5 173.5,-5.5 0.5,-5.5"/>
<text text-anchor="middle" x="87" y="-12.5" font-family="Helvetica,sans-Serif" font-size="10.00">controller.WSUndoManager.undo</text>
</g>
<!-- Node2 -->
<g id="node2" class="node"><title>Node2</title>
<g id="a_node2"><a xlink:href="../../d9/df7/classcontroller_1_1_controller.html#a028264f3c286e8e1a2d897dda5ff0b53" target="_top" xlink:title="controller.Controller.create\lEditMenu">
<polygon fill="white" stroke="black" points="210.5,-0 210.5,-30 353.5,-30 353.5,-0 210.5,-0"/>
<text text-anchor="start" x="218.5" y="-18" font-family="Helvetica,sans-Serif" font-size="10.00">controller.Controller.create</text>
<text text-anchor="middle" x="282" y="-7" font-family="Helvetica,sans-Serif" font-size="10.00">EditMenu</text>
</a>
</g>
</g>
<!-- Node1&#45;&gt;Node2 -->
<g id="edge1" class="edge"><title>Node1&#45;&gt;Node2</title>
<path fill="none" stroke="midnightblue" d="M183.805,-15C192.705,-15 201.612,-15 210.224,-15"/>
<polygon fill="midnightblue" stroke="midnightblue" points="183.777,-11.5001 173.777,-15 183.777,-18.5001 183.777,-11.5001"/>
</g>
<!-- Node3 -->
<g id="node3" class="node"><title>Node3</title>
<g id="a_node3"><a xlink:href="../../d9/df7/classcontroller_1_1_controller.html#a2901bf43bb8e47b485558dbf00d40d6d" target="_top" xlink:title="controller.Controller.create\lJMenuBar">
<polygon fill="white" stroke="black" points="390.5,-0 390.5,-30 533.5,-30 533.5,-0 390.5,-0"/>
<text text-anchor="start" x="398.5" y="-18" font-family="Helvetica,sans-Serif" font-size="10.00">controller.Controller.create</text>
<text text-anchor="middle" x="462" y="-7" font-family="Helvetica,sans-Serif" font-size="10.00">JMenuBar</text>
</a>
</g>
</g>
<!-- Node2&#45;&gt;Node3 -->
<g id="edge2" class="edge"><title>Node2&#45;&gt;Node3</title>
<path fill="none" stroke="midnightblue" d="M363.646,-15C372.599,-15 381.666,-15 390.479,-15"/>
<polygon fill="midnightblue" stroke="midnightblue" points="363.606,-11.5001 353.606,-15 363.606,-18.5001 363.606,-11.5001"/>
</g>
<!-- Node4 -->
<g id="node4" class="node"><title>Node4</title>
<g id="a_node4"><a xlink:href="../../d9/df7/classcontroller_1_1_controller.html#a47511ec57338c8e75e71e9314cda5271" target="_top" xlink:title="controller.Controller.Controller">
<polygon fill="white" stroke="black" points="570.5,-5.5 570.5,-24.5 729.5,-24.5 729.5,-5.5 570.5,-5.5"/>
<text text-anchor="middle" x="650" y="-12.5" font-family="Helvetica,sans-Serif" font-size="10.00">controller.Controller.Controller</text>
</a>
</g>
</g>
<!-- Node3&#45;&gt;Node4 -->
<g id="edge3" class="edge"><title>Node3&#45;&gt;Node4</title>
<path fill="none" stroke="midnightblue" d="M543.836,-15C552.644,-15 561.599,-15 570.38,-15"/>
<polygon fill="midnightblue" stroke="midnightblue" points="543.584,-11.5001 533.584,-15 543.584,-18.5001 543.584,-11.5001"/>
</g>
</g>
</svg>
