<?xml version="1.0" encoding="UTF-8" standalone="no"?>
<!DOCTYPE svg PUBLIC "-//W3C//DTD SVG 1.1//EN"
 "http://www.w3.org/Graphics/SVG/1.1/DTD/svg11.dtd">
<!-- Generated by graphviz version 2.36.0 (20140111.2315)
 -->
<!-- Title: controller.WSUndoManager.executeHistory Pages: 1 -->
<svg width="962pt" height="38pt"
 viewBox="0.00 0.00 962.00 38.00" xmlns="http://www.w3.org/2000/svg" xmlns:xlink="http://www.w3.org/1999/xlink">
<g id="graph0" class="graph" transform="scale(1 1) rotate(0) translate(4 34)">
<title>controller.WSUndoManager.executeHistory</title>
<polygon fill="white" stroke="none" points="-4,4 -4,-34 958,-34 958,4 -4,4"/>
<!-- Node1 -->
<g id="node1" class="node"><title>Node1</title>
<polygon fill="#bfbfbf" stroke="black" points="0.5,-0 0.5,-30 187.5,-30 187.5,-0 0.5,-0"/>
<text text-anchor="start" x="8.5" y="-18" font-family="Helvetica,sans-Serif" font-size="10.00">controller.WSUndoManager.execute</text>
<text text-anchor="middle" x="94" y="-7" font-family="Helvetica,sans-Serif" font-size="10.00">History</text>
</g>
<!-- Node2 -->
<g id="node2" class="node"><title>Node2</title>
<g id="a_node2"><a xlink:href="../../d7/d40/classcontroller_1_1_w_s_undo_manager.html#aea6c6bd525f338f036c8daa4f0ca3225" target="_top" xlink:title="controller.WSUndoManager.undo">
<polygon fill="white" stroke="black" points="224.5,-5.5 224.5,-24.5 397.5,-24.5 397.5,-5.5 224.5,-5.5"/>
<text text-anchor="middle" x="311" y="-12.5" font-family="Helvetica,sans-Serif" font-size="10.00">controller.WSUndoManager.undo</text>
</a>
</g>
</g>
<!-- Node1&#45;&gt;Node2 -->
<g id="edge1" class="edge"><title>Node1&#45;&gt;Node2</title>
<path fill="none" stroke="midnightblue" d="M197.759,-15C206.662,-15 215.609,-15 224.354,-15"/>
<polygon fill="midnightblue" stroke="midnightblue" points="197.739,-11.5001 187.739,-15 197.739,-18.5001 197.739,-11.5001"/>
</g>
<!-- Node3 -->
<g id="node3" class="node"><title>Node3</title>
<g id="a_node3"><a xlink:href="../../d9/df7/classcontroller_1_1_controller.html#a028264f3c286e8e1a2d897dda5ff0b53" target="_top" xlink:title="controller.Controller.create\lEditMenu">
<polygon fill="white" stroke="black" points="434.5,-0 434.5,-30 577.5,-30 577.5,-0 434.5,-0"/>
<text text-anchor="start" x="442.5" y="-18" font-family="Helvetica,sans-Serif" font-size="10.00">controller.Controller.create</text>
<text text-anchor="middle" x="506" y="-7" font-family="Helvetica,sans-Serif" font-size="10.00">EditMenu</text>
</a>
</g>
</g>
<!-- Node2&#45;&gt;Node3 -->
<g id="edge2" class="edge"><title>Node2&#45;&gt;Node3</title>
<path fill="none" stroke="midnightblue" d="M407.805,-15C416.705,-15 425.612,-15 434.224,-15"/>
<polygon fill="midnightblue" stroke="midnightblue" points="407.777,-11.5001 397.777,-15 407.777,-18.5001 407.777,-11.5001"/>
</g>
<!-- Node4 -->
<g id="node4" class="node"><title>Node4</title>
<g id="a_node4"><a xlink:href="../../d9/df7/classcontroller_1_1_controller.html#a2901bf43bb8e47b485558dbf00d40d6d" target="_top" xlink:title="controller.Controller.create\lJMenuBar">
<polygon fill="white" stroke="black" points="614.5,-0 614.5,-30 757.5,-30 757.5,-0 614.5,-0"/>
<text text-anchor="start" x="622.5" y="-18" font-family="Helvetica,sans-Serif" font-size="10.00">controller.Controller.create</text>
<text text-anchor="middle" x="686" y="-7" font-family="Helvetica,sans-Serif" font-size="10.00">JMenuBar</text>
</a>
</g>
</g>
<!-- Node3&#45;&gt;Node4 -->
<g id="edge3" class="edge"><title>Node3&#45;&gt;Node4</title>
<path fill="none" stroke="midnightblue" d="M587.646,-15C596.599,-15 605.666,-15 614.479,-15"/>
<polygon fill="midnightblue" stroke="midnightblue" points="587.606,-11.5001 577.606,-15 587.606,-18.5001 587.606,-11.5001"/>
</g>
<!-- Node5 -->
<g id="node5" class="node"><title>Node5</title>
<g id="a_node5"><a xlink:href="../../d9/df7/classcontroller_1_1_controller.html#a47511ec57338c8e75e71e9314cda5271" target="_top" xlink:title="controller.Controller.Controller">
<polygon fill="white" stroke="black" points="794.5,-5.5 794.5,-24.5 953.5,-24.5 953.5,-5.5 794.5,-5.5"/>
<text text-anchor="middle" x="874" y="-12.5" font-family="Helvetica,sans-Serif" font-size="10.00">controller.Controller.Controller</text>
</a>
</g>
</g>
<!-- Node4&#45;&gt;Node5 -->
<g id="edge4" class="edge"><title>Node4&#45;&gt;Node5</title>
<path fill="none" stroke="midnightblue" d="M767.836,-15C776.644,-15 785.599,-15 794.38,-15"/>
<polygon fill="midnightblue" stroke="midnightblue" points="767.584,-11.5001 757.584,-15 767.584,-18.5001 767.584,-11.5001"/>
</g>
</g>
</svg>
