<?xml version="1.0" encoding="UTF-8" standalone="no"?>
<!DOCTYPE svg PUBLIC "-//W3C//DTD SVG 1.1//EN"
 "http://www.w3.org/Graphics/SVG/1.1/DTD/svg11.dtd">
<!-- Generated by graphviz version 2.36.0 (20140111.2315)
 -->
<!-- Title: controller.WSUndoManager.undo Pages: 1 -->
<svg width="776pt" height="213pt"
 viewBox="0.00 0.00 776.00 213.00" xmlns="http://www.w3.org/2000/svg" xmlns:xlink="http://www.w3.org/1999/xlink">
<g id="graph0" class="graph" transform="scale(1 1) rotate(0) translate(4 209)">
<title>controller.WSUndoManager.undo</title>
<polygon fill="white" stroke="none" points="-4,4 -4,-209 772,-209 772,4 -4,4"/>
<!-- Node1 -->
<g id="node1" class="node"><title>Node1</title>
<polygon fill="#bfbfbf" stroke="black" points="0.5,-82.5 0.5,-101.5 173.5,-101.5 173.5,-82.5 0.5,-82.5"/>
<text text-anchor="middle" x="87" y="-89.5" font-family="Helvetica,sans-Serif" font-size="10.00">controller.WSUndoManager.undo</text>
</g>
<!-- Node2 -->
<g id="node2" class="node"><title>Node2</title>
<g id="a_node2"><a xlink:href="../../d7/d40/classcontroller_1_1_w_s_undo_manager.html#a57ad787d609f63c566419fa409dd6fee" target="_top" xlink:title="controller.WSUndoManager.execute\lHistory">
<polygon fill="white" stroke="black" points="210.5,-175 210.5,-205 397.5,-205 397.5,-175 210.5,-175"/>
<text text-anchor="start" x="218.5" y="-193" font-family="Helvetica,sans-Serif" font-size="10.00">controller.WSUndoManager.execute</text>
<text text-anchor="middle" x="304" y="-182" font-family="Helvetica,sans-Serif" font-size="10.00">History</text>
</a>
</g>
</g>
<!-- Node1&#45;&gt;Node2 -->
<g id="edge1" class="edge"><title>Node1&#45;&gt;Node2</title>
<path fill="none" stroke="midnightblue" d="M101.246,-101.619C122.967,-116.992 167.958,-147.18 210,-165 215.758,-167.441 221.819,-169.702 227.971,-171.784"/>
<polygon fill="midnightblue" stroke="midnightblue" points="227.093,-175.178 237.684,-174.908 229.236,-168.514 227.093,-175.178"/>
</g>
<!-- Node5 -->
<g id="node5" class="node"><title>Node5</title>
<g id="a_node5"><a xlink:href="../../d7/d40/classcontroller_1_1_w_s_undo_manager.html#a21e804bd378d1df7e47f76d250f05586" target="_top" xlink:title="controller.WSUndoManager.get\lLastCommand">
<polygon fill="white" stroke="black" points="222,-126 222,-156 386,-156 386,-126 222,-126"/>
<text text-anchor="start" x="230" y="-144" font-family="Helvetica,sans-Serif" font-size="10.00">controller.WSUndoManager.get</text>
<text text-anchor="middle" x="304" y="-133" font-family="Helvetica,sans-Serif" font-size="10.00">LastCommand</text>
</a>
</g>
</g>
<!-- Node1&#45;&gt;Node5 -->
<g id="edge4" class="edge"><title>Node1&#45;&gt;Node5</title>
<path fill="none" stroke="midnightblue" d="M129.709,-101.506C157.265,-107.786 194.193,-116.202 226.878,-123.651"/>
<polygon fill="midnightblue" stroke="midnightblue" points="226.343,-127.119 236.871,-125.929 227.899,-120.294 226.343,-127.119"/>
</g>
<!-- Node6 -->
<g id="node6" class="node"><title>Node6</title>
<g id="a_node6"><a xlink:href="../../de/d84/classcontroller_1_1_workspace.html#a463927ff3ea61d412cbee3a3b0b9d74f" target="_top" xlink:title="controller.Workspace.get\lTurtleManager">
<polygon fill="white" stroke="black" points="237,-77 237,-107 371,-107 371,-77 237,-77"/>
<text text-anchor="start" x="245" y="-95" font-family="Helvetica,sans-Serif" font-size="10.00">controller.Workspace.get</text>
<text text-anchor="middle" x="304" y="-84" font-family="Helvetica,sans-Serif" font-size="10.00">TurtleManager</text>
</a>
</g>
</g>
<!-- Node1&#45;&gt;Node6 -->
<g id="edge5" class="edge"><title>Node1&#45;&gt;Node6</title>
<path fill="none" stroke="midnightblue" d="M173.591,-92C191.212,-92 209.652,-92 226.909,-92"/>
<polygon fill="midnightblue" stroke="midnightblue" points="226.917,-95.5001 236.917,-92 226.917,-88.5001 226.917,-95.5001"/>
</g>
<!-- Node7 -->
<g id="node7" class="node"><title>Node7</title>
<g id="a_node7"><a xlink:href="../../d8/dff/classmodel_1_1_turtle_manager.html#ae661b1676bacbdfac66e971c950e8cf3" target="_top" xlink:title="model.TurtleManager.getTurtles">
<polygon fill="white" stroke="black" points="221,-38.5 221,-57.5 387,-57.5 387,-38.5 221,-38.5"/>
<text text-anchor="middle" x="304" y="-45.5" font-family="Helvetica,sans-Serif" font-size="10.00">model.TurtleManager.getTurtles</text>
</a>
</g>
</g>
<!-- Node1&#45;&gt;Node7 -->
<g id="edge6" class="edge"><title>Node1&#45;&gt;Node7</title>
<path fill="none" stroke="midnightblue" d="M134.652,-82.4527C167.474,-75.7355 211.582,-66.7089 246.415,-59.5802"/>
<polygon fill="midnightblue" stroke="midnightblue" points="247.344,-62.9627 256.439,-57.5287 245.941,-56.1048 247.344,-62.9627"/>
</g>
<!-- Node8 -->
<g id="node8" class="node"><title>Node8</title>
<g id="a_node8"><a xlink:href="../../d8/dff/classmodel_1_1_turtle_manager.html#a8679aef13c1e2b3d695b1467c2bb5e9f" target="_top" xlink:title="model.TurtleManager.update">
<polygon fill="white" stroke="black" points="227.5,-0.5 227.5,-19.5 380.5,-19.5 380.5,-0.5 227.5,-0.5"/>
<text text-anchor="middle" x="304" y="-7.5" font-family="Helvetica,sans-Serif" font-size="10.00">model.TurtleManager.update</text>
</a>
</g>
</g>
<!-- Node1&#45;&gt;Node8 -->
<g id="edge7" class="edge"><title>Node1&#45;&gt;Node8</title>
<path fill="none" stroke="midnightblue" d="M103.174,-82.4132C125.659,-68.6208 169.535,-43.273 210,-29 217.624,-26.311 225.74,-23.9548 233.881,-21.9028"/>
<polygon fill="midnightblue" stroke="midnightblue" points="234.871,-25.265 243.792,-19.5485 233.254,-18.4545 234.871,-25.265"/>
</g>
<!-- Node3 -->
<g id="node3" class="node"><title>Node3</title>
<g id="a_node3"><a xlink:href="../../de/d84/classcontroller_1_1_workspace.html#a6e2c1aeab69fcad61e9a29cbf4c189cc" target="_top" xlink:title="controller.Workspace.execute">
<polygon fill="white" stroke="black" points="434,-180.5 434,-199.5 590,-199.5 590,-180.5 434,-180.5"/>
<text text-anchor="middle" x="512" y="-187.5" font-family="Helvetica,sans-Serif" font-size="10.00">controller.Workspace.execute</text>
</a>
</g>
</g>
<!-- Node2&#45;&gt;Node3 -->
<g id="edge2" class="edge"><title>Node2&#45;&gt;Node3</title>
<path fill="none" stroke="midnightblue" d="M397.755,-190C406.429,-190 415.2,-190 423.82,-190"/>
<polygon fill="midnightblue" stroke="midnightblue" points="423.855,-193.5 433.855,-190 423.855,-186.5 423.855,-193.5"/>
</g>
<!-- Node4 -->
<g id="node4" class="node"><title>Node4</title>
<g id="a_node4"><a xlink:href="../../de/d84/classcontroller_1_1_workspace.html#a6b1f99115388e9de9dc779e30ed16041" target="_top" xlink:title="controller.Workspace.show\lError">
<polygon fill="white" stroke="black" points="626,-175 626,-205 768,-205 768,-175 626,-175"/>
<text text-anchor="start" x="634" y="-193" font-family="Helvetica,sans-Serif" font-size="10.00">controller.Workspace.show</text>
<text text-anchor="middle" x="697" y="-182" font-family="Helvetica,sans-Serif" font-size="10.00">Error</text>
</a>
</g>
</g>
<!-- Node3&#45;&gt;Node4 -->
<g id="edge3" class="edge"><title>Node3&#45;&gt;Node4</title>
<path fill="none" stroke="midnightblue" d="M590.078,-190C598.643,-190 607.382,-190 615.983,-190"/>
<polygon fill="midnightblue" stroke="midnightblue" points="615.998,-193.5 625.998,-190 615.997,-186.5 615.998,-193.5"/>
</g>
</g>
</svg>
