<?xml version="1.0" encoding="UTF-8" standalone="no"?>
<!DOCTYPE svg PUBLIC "-//W3C//DTD SVG 1.1//EN"
 "http://www.w3.org/Graphics/SVG/1.1/DTD/svg11.dtd">
<!-- Generated by graphviz version 2.36.0 (20140111.2315)
 -->
<!-- Title: controller.WSUndoManager.executeHistory Pages: 1 -->
<svg width="566pt" height="38pt"
 viewBox="0.00 0.00 566.00 38.00" xmlns="http://www.w3.org/2000/svg" xmlns:xlink="http://www.w3.org/1999/xlink">
<g id="graph0" class="graph" transform="scale(1 1) rotate(0) translate(4 34)">
<title>controller.WSUndoManager.executeHistory</title>
<polygon fill="white" stroke="none" points="-4,4 -4,-34 562,-34 562,4 -4,4"/>
<!-- Node1 -->
<g id="node1" class="node"><title>Node1</title>
<polygon fill="#bfbfbf" stroke="black" points="0.5,-0 0.5,-30 187.5,-30 187.5,-0 0.5,-0"/>
<text text-anchor="start" x="8.5" y="-18" font-family="Helvetica,sans-Serif" font-size="10.00">controller.WSUndoManager.execute</text>
<text text-anchor="middle" x="94" y="-7" font-family="Helvetica,sans-Serif" font-size="10.00">History</text>
</g>
<!-- Node2 -->
<g id="node2" class="node"><title>Node2</title>
<g id="a_node2"><a xlink:href="../../de/d84/classcontroller_1_1_workspace.html#a6e2c1aeab69fcad61e9a29cbf4c189cc" target="_top" xlink:title="controller.Workspace.execute">
<polygon fill="white" stroke="black" points="224,-5.5 224,-24.5 380,-24.5 380,-5.5 224,-5.5"/>
<text text-anchor="middle" x="302" y="-12.5" font-family="Helvetica,sans-Serif" font-size="10.00">controller.Workspace.execute</text>
</a>
</g>
</g>
<!-- Node1&#45;&gt;Node2 -->
<g id="edge1" class="edge"><title>Node1&#45;&gt;Node2</title>
<path fill="none" stroke="midnightblue" d="M187.755,-15C196.429,-15 205.2,-15 213.82,-15"/>
<polygon fill="midnightblue" stroke="midnightblue" points="213.855,-18.5001 223.855,-15 213.855,-11.5001 213.855,-18.5001"/>
</g>
<!-- Node3 -->
<g id="node3" class="node"><title>Node3</title>
<g id="a_node3"><a xlink:href="../../de/d84/classcontroller_1_1_workspace.html#a6b1f99115388e9de9dc779e30ed16041" target="_top" xlink:title="controller.Workspace.show\lError">
<polygon fill="white" stroke="black" points="416,-0 416,-30 558,-30 558,-0 416,-0"/>
<text text-anchor="start" x="424" y="-18" font-family="Helvetica,sans-Serif" font-size="10.00">controller.Workspace.show</text>
<text text-anchor="middle" x="487" y="-7" font-family="Helvetica,sans-Serif" font-size="10.00">Error</text>
</a>
</g>
</g>
<!-- Node2&#45;&gt;Node3 -->
<g id="edge2" class="edge"><title>Node2&#45;&gt;Node3</title>
<path fill="none" stroke="midnightblue" d="M380.078,-15C388.643,-15 397.382,-15 405.983,-15"/>
<polygon fill="midnightblue" stroke="midnightblue" points="405.998,-18.5001 415.998,-15 405.997,-11.5001 405.998,-18.5001"/>
</g>
</g>
</svg>
