<?xml version="1.0" encoding="UTF-8" standalone="no"?>
<!DOCTYPE svg PUBLIC "-//W3C//DTD SVG 1.1//EN"
 "http://www.w3.org/Graphics/SVG/1.1/DTD/svg11.dtd">
<!-- Generated by graphviz version 2.36.0 (20140111.2315)
 -->
<!-- Title: controller.WSUndoManager.redo Pages: 1 -->
<svg width="556pt" height="170pt"
 viewBox="0.00 0.00 556.00 170.00" xmlns="http://www.w3.org/2000/svg" xmlns:xlink="http://www.w3.org/1999/xlink">
<g id="graph0" class="graph" transform="scale(1 1) rotate(0) translate(4 166)">
<title>controller.WSUndoManager.redo</title>
<polygon fill="white" stroke="none" points="-4,4 -4,-166 552,-166 552,4 -4,4"/>
<!-- Node1 -->
<g id="node1" class="node"><title>Node1</title>
<polygon fill="#bfbfbf" stroke="black" points="0,-68.5 0,-87.5 170,-87.5 170,-68.5 0,-68.5"/>
<text text-anchor="middle" x="85" y="-75.5" font-family="Helvetica,sans-Serif" font-size="10.00">controller.WSUndoManager.redo</text>
</g>
<!-- Node2 -->
<g id="node2" class="node"><title>Node2</title>
<g id="a_node2"><a xlink:href="../../de/d84/classcontroller_1_1_workspace.html#a6e2c1aeab69fcad61e9a29cbf4c189cc" target="_top" xlink:title="controller.Workspace.execute">
<polygon fill="white" stroke="black" points="210,-137.5 210,-156.5 366,-156.5 366,-137.5 210,-137.5"/>
<text text-anchor="middle" x="288" y="-144.5" font-family="Helvetica,sans-Serif" font-size="10.00">controller.Workspace.execute</text>
</a>
</g>
</g>
<!-- Node1&#45;&gt;Node2 -->
<g id="edge1" class="edge"><title>Node1&#45;&gt;Node2</title>
<path fill="none" stroke="midnightblue" d="M106.896,-87.6208C130.569,-98.2627 170.481,-115.431 206,-127 214.799,-129.866 224.252,-132.547 233.483,-134.957"/>
<polygon fill="midnightblue" stroke="midnightblue" points="232.819,-138.4 243.372,-137.462 234.538,-131.614 232.819,-138.4"/>
</g>
<!-- Node4 -->
<g id="node4" class="node"><title>Node4</title>
<g id="a_node4"><a xlink:href="../../d7/d40/classcontroller_1_1_w_s_undo_manager.html#a28e53c848519f60a423d7cffdda5cefc" target="_top" xlink:title="controller.WSUndoManager.get\lLastUndoneCommand">
<polygon fill="white" stroke="black" points="206,-88 206,-118 370,-118 370,-88 206,-88"/>
<text text-anchor="start" x="214" y="-106" font-family="Helvetica,sans-Serif" font-size="10.00">controller.WSUndoManager.get</text>
<text text-anchor="middle" x="288" y="-95" font-family="Helvetica,sans-Serif" font-size="10.00">LastUndoneCommand</text>
</a>
</g>
</g>
<!-- Node1&#45;&gt;Node4 -->
<g id="edge3" class="edge"><title>Node1&#45;&gt;Node4</title>
<path fill="none" stroke="midnightblue" d="M162.563,-87.5227C173.435,-88.875 184.704,-90.2767 195.82,-91.6592"/>
<polygon fill="midnightblue" stroke="midnightblue" points="195.614,-95.1605 205.97,-92.9216 196.478,-88.214 195.614,-95.1605"/>
</g>
<!-- Node5 -->
<g id="node5" class="node"><title>Node5</title>
<g id="a_node5"><a xlink:href="../../de/d84/classcontroller_1_1_workspace.html#a463927ff3ea61d412cbee3a3b0b9d74f" target="_top" xlink:title="controller.Workspace.get\lTurtleManager">
<polygon fill="white" stroke="black" points="221,-39 221,-69 355,-69 355,-39 221,-39"/>
<text text-anchor="start" x="229" y="-57" font-family="Helvetica,sans-Serif" font-size="10.00">controller.Workspace.get</text>
<text text-anchor="middle" x="288" y="-46" font-family="Helvetica,sans-Serif" font-size="10.00">TurtleManager</text>
</a>
</g>
</g>
<!-- Node1&#45;&gt;Node5 -->
<g id="edge4" class="edge"><title>Node1&#45;&gt;Node5</title>
<path fill="none" stroke="midnightblue" d="M165.729,-68.4801C180.601,-66.7043 196.108,-64.8528 210.868,-63.0904"/>
<polygon fill="midnightblue" stroke="midnightblue" points="211.436,-66.5475 220.951,-61.8865 210.606,-59.5969 211.436,-66.5475"/>
</g>
<!-- Node6 -->
<g id="node6" class="node"><title>Node6</title>
<g id="a_node6"><a xlink:href="../../d8/dff/classmodel_1_1_turtle_manager.html#a8679aef13c1e2b3d695b1467c2bb5e9f" target="_top" xlink:title="model.TurtleManager.update">
<polygon fill="white" stroke="black" points="211.5,-0.5 211.5,-19.5 364.5,-19.5 364.5,-0.5 211.5,-0.5"/>
<text text-anchor="middle" x="288" y="-7.5" font-family="Helvetica,sans-Serif" font-size="10.00">model.TurtleManager.update</text>
</a>
</g>
</g>
<!-- Node1&#45;&gt;Node6 -->
<g id="edge5" class="edge"><title>Node1&#45;&gt;Node6</title>
<path fill="none" stroke="midnightblue" d="M107.349,-68.415C131.093,-58.002 170.756,-41.3396 206,-30 214.81,-27.1655 224.267,-24.5001 233.501,-22.0959"/>
<polygon fill="midnightblue" stroke="midnightblue" points="234.554,-25.4397 243.391,-19.5941 232.838,-18.6535 234.554,-25.4397"/>
</g>
<!-- Node3 -->
<g id="node3" class="node"><title>Node3</title>
<g id="a_node3"><a xlink:href="../../de/d84/classcontroller_1_1_workspace.html#a6b1f99115388e9de9dc779e30ed16041" target="_top" xlink:title="controller.Workspace.show\lError">
<polygon fill="white" stroke="black" points="406,-132 406,-162 548,-162 548,-132 406,-132"/>
<text text-anchor="start" x="414" y="-150" font-family="Helvetica,sans-Serif" font-size="10.00">controller.Workspace.show</text>
<text text-anchor="middle" x="477" y="-139" font-family="Helvetica,sans-Serif" font-size="10.00">Error</text>
</a>
</g>
</g>
<!-- Node2&#45;&gt;Node3 -->
<g id="edge2" class="edge"><title>Node2&#45;&gt;Node3</title>
<path fill="none" stroke="midnightblue" d="M366.14,-147C375.921,-147 385.95,-147 395.778,-147"/>
<polygon fill="midnightblue" stroke="midnightblue" points="395.93,-150.5 405.93,-147 395.93,-143.5 395.93,-150.5"/>
</g>
</g>
</svg>
