<?xml version="1.0" encoding="UTF-8" standalone="no"?>
<!DOCTYPE svg PUBLIC "-//W3C//DTD SVG 1.1//EN"
 "http://www.w3.org/Graphics/SVG/1.1/DTD/svg11.dtd">
<!-- Generated by graphviz version 2.36.0 (20140111.2315)
 -->
<!-- Title: parser.VariableManager Pages: 1 -->
<svg width="321pt" height="164pt"
 viewBox="0.00 0.00 321.00 164.00" xmlns="http://www.w3.org/2000/svg" xmlns:xlink="http://www.w3.org/1999/xlink">
<g id="graph0" class="graph" transform="scale(1 1) rotate(0) translate(4 160)">
<title>parser.VariableManager</title>
<polygon fill="white" stroke="none" points="-4,4 -4,-160 317,-160 317,4 -4,4"/>
<!-- Node1 -->
<g id="node1" class="node"><title>Node1</title>
<polygon fill="#bfbfbf" stroke="black" points="81,-0.5 81,-19.5 211,-19.5 211,-0.5 81,-0.5"/>
<text text-anchor="middle" x="146" y="-7.5" font-family="Helvetica,sans-Serif" font-size="10.00">parser.VariableManager</text>
</g>
<!-- Node2 -->
<g id="node2" class="node"><title>Node2</title>
<polygon fill="white" stroke="#bfbfbf" points="0,-68.5 0,-87.5 172,-87.5 172,-68.5 0,-68.5"/>
<text text-anchor="middle" x="86" y="-75.5" font-family="Helvetica,sans-Serif" font-size="10.00">Deque&lt; parser.VariableScope &gt;</text>
</g>
<!-- Node2&#45;&gt;Node1 -->
<g id="edge1" class="edge"><title>Node2&#45;&gt;Node1</title>
<path fill="none" stroke="#9a32cd" stroke-dasharray="5,2" d="M100.836,-60.68C112.567,-47.7768 128.493,-30.2575 137.963,-19.8411"/>
<polygon fill="#9a32cd" stroke="#9a32cd" points="97.9809,-58.6179 93.844,-68.3717 103.161,-63.3266 97.9809,-58.6179"/>
<text text-anchor="middle" x="148" y="-41.5" font-family="Helvetica,sans-Serif" font-size="10.00"> myScopes</text>
</g>
<!-- Node3 -->
<g id="node3" class="node"><title>Node3</title>
<g id="a_node3"><a xlink:href="../../da/d34/classparser_1_1_variable_scope.html" target="_top" xlink:title="parser.VariableScope">
<polygon fill="white" stroke="black" points="190,-68.5 190,-87.5 308,-87.5 308,-68.5 190,-68.5"/>
<text text-anchor="middle" x="249" y="-75.5" font-family="Helvetica,sans-Serif" font-size="10.00">parser.VariableScope</text>
</a>
</g>
</g>
<!-- Node3&#45;&gt;Node1 -->
<g id="edge2" class="edge"><title>Node3&#45;&gt;Node1</title>
<path fill="none" stroke="#9a32cd" stroke-dasharray="5,2" d="M226.857,-62.8113C206.374,-49.6863 176.589,-30.6004 159.469,-19.6305"/>
<polygon fill="#9a32cd" stroke="#9a32cd" points="225.226,-65.9233 235.535,-68.3717 229.003,-60.0295 225.226,-65.9233"/>
<text text-anchor="middle" x="230.5" y="-41.5" font-family="Helvetica,sans-Serif" font-size="10.00"> myGlobal</text>
</g>
<!-- Node4 -->
<g id="node4" class="node"><title>Node4</title>
<polygon fill="white" stroke="#bfbfbf" points="185,-136.5 185,-155.5 313,-155.5 313,-136.5 185,-136.5"/>
<text text-anchor="middle" x="249" y="-143.5" font-family="Helvetica,sans-Serif" font-size="10.00">Map&lt; String, Integer &gt;</text>
</g>
<!-- Node4&#45;&gt;Node3 -->
<g id="edge3" class="edge"><title>Node4&#45;&gt;Node3</title>
<path fill="none" stroke="#9a32cd" stroke-dasharray="5,2" d="M249,-126.041C249,-113.472 249,-97.5631 249,-87.8411"/>
<polygon fill="#9a32cd" stroke="#9a32cd" points="245.5,-126.372 249,-136.372 252.5,-126.372 245.5,-126.372"/>
<text text-anchor="middle" x="280" y="-109.5" font-family="Helvetica,sans-Serif" font-size="10.00"> myVariables</text>
</g>
</g>
</svg>
