<?xml version="1.0" encoding="UTF-8" standalone="no"?>
<!DOCTYPE svg PUBLIC "-//W3C//DTD SVG 1.1//EN"
 "http://www.w3.org/Graphics/SVG/1.1/DTD/svg11.dtd">
<!-- Generated by graphviz version 2.36.0 (20140111.2315)
 -->
<!-- Title: model.Turtle.getPaintingPoint Pages: 1 -->
<svg width="664pt" height="142pt"
 viewBox="0.00 0.00 664.00 142.00" xmlns="http://www.w3.org/2000/svg" xmlns:xlink="http://www.w3.org/1999/xlink">
<g id="graph0" class="graph" transform="scale(1 1) rotate(0) translate(4 138)">
<title>model.Turtle.getPaintingPoint</title>
<polygon fill="white" stroke="none" points="-4,4 -4,-138 660,-138 660,4 -4,4"/>
<!-- Node1 -->
<g id="node1" class="node"><title>Node1</title>
<polygon fill="#bfbfbf" stroke="black" points="0.5,-52 0.5,-82 131.5,-82 131.5,-52 0.5,-52"/>
<text text-anchor="start" x="8.5" y="-70" font-family="Helvetica,sans-Serif" font-size="10.00">model.Turtle.getPainting</text>
<text text-anchor="middle" x="66" y="-59" font-family="Helvetica,sans-Serif" font-size="10.00">Point</text>
</g>
<!-- Node2 -->
<g id="node2" class="node"><title>Node2</title>
<g id="a_node2"><a xlink:href="../../d6/d34/classmodel_1_1_turtle.html#a9eb4cbe280f1a7f2d15df187986eecb8" target="_top" xlink:title="model.Turtle.getBounds">
<polygon fill="white" stroke="black" points="168,-114.5 168,-133.5 298,-133.5 298,-114.5 168,-114.5"/>
<text text-anchor="middle" x="233" y="-121.5" font-family="Helvetica,sans-Serif" font-size="10.00">model.Turtle.getBounds</text>
</a>
</g>
</g>
<!-- Node1&#45;&gt;Node2 -->
<g id="edge1" class="edge"><title>Node1&#45;&gt;Node2</title>
<path fill="none" stroke="midnightblue" d="M120.41,-85.4508C148.296,-95.0841 181.267,-106.474 204.105,-114.363"/>
<polygon fill="midnightblue" stroke="midnightblue" points="121.379,-82.0824 110.784,-82.1253 119.093,-88.6987 121.379,-82.0824"/>
</g>
<!-- Node3 -->
<g id="node3" class="node"><title>Node3</title>
<g id="a_node3"><a xlink:href="../../d8/dff/classmodel_1_1_turtle_manager.html#a7f2863fbe8420cb5859ab922bd866b1d" target="_top" xlink:title="model.TurtleManager.paint">
<polygon fill="white" stroke="black" points="334.5,-57.5 334.5,-76.5 477.5,-76.5 477.5,-57.5 334.5,-57.5"/>
<text text-anchor="middle" x="406" y="-64.5" font-family="Helvetica,sans-Serif" font-size="10.00">model.TurtleManager.paint</text>
</a>
</g>
</g>
<!-- Node1&#45;&gt;Node3 -->
<g id="edge2" class="edge"><title>Node1&#45;&gt;Node3</title>
<path fill="none" stroke="midnightblue" d="M141.872,-67C199.286,-67 277.982,-67 334.323,-67"/>
<polygon fill="midnightblue" stroke="midnightblue" points="141.77,-63.5001 131.77,-67 141.77,-70.5001 141.77,-63.5001"/>
</g>
<!-- Node5 -->
<g id="node5" class="node"><title>Node5</title>
<g id="a_node5"><a xlink:href="../../d6/d34/classmodel_1_1_turtle.html#a7d850c710649567ac20161f847b2ad11" target="_top" xlink:title="model.Turtle.paint">
<polygon fill="white" stroke="black" points="182,-38.5 182,-57.5 284,-57.5 284,-38.5 182,-38.5"/>
<text text-anchor="middle" x="233" y="-45.5" font-family="Helvetica,sans-Serif" font-size="10.00">model.Turtle.paint</text>
</a>
</g>
</g>
<!-- Node1&#45;&gt;Node5 -->
<g id="edge4" class="edge"><title>Node1&#45;&gt;Node5</title>
<path fill="none" stroke="midnightblue" d="M142.019,-58.3615C155.563,-56.8019 169.378,-55.211 181.988,-53.7589"/>
<polygon fill="midnightblue" stroke="midnightblue" points="141.273,-54.9242 131.739,-59.5452 142.074,-61.8782 141.273,-54.9242"/>
</g>
<!-- Node6 -->
<g id="node6" class="node"><title>Node6</title>
<g id="a_node6"><a xlink:href="../../d6/d34/classmodel_1_1_turtle.html#a094c7d59e4551b8280a793199f612740" target="_top" xlink:title="model.Turtle.stamp">
<polygon fill="white" stroke="black" points="178.5,-0.5 178.5,-19.5 287.5,-19.5 287.5,-0.5 178.5,-0.5"/>
<text text-anchor="middle" x="233" y="-7.5" font-family="Helvetica,sans-Serif" font-size="10.00">model.Turtle.stamp</text>
</a>
</g>
</g>
<!-- Node1&#45;&gt;Node6 -->
<g id="edge6" class="edge"><title>Node1&#45;&gt;Node6</title>
<path fill="none" stroke="midnightblue" d="M114.714,-48.2508C131.47,-41.8793 150.483,-34.8872 168,-29 177.778,-25.7138 188.493,-22.4161 198.311,-19.5121"/>
<polygon fill="midnightblue" stroke="midnightblue" points="113.225,-45.073 105.138,-51.9175 115.728,-51.6102 113.225,-45.073"/>
</g>
<!-- Node4 -->
<g id="node4" class="node"><title>Node4</title>
<g id="a_node4"><a xlink:href="../../de/d84/classcontroller_1_1_workspace.html#aa3ec59da02e89f7882fb31677330af80" target="_top" xlink:title="controller.Workspace.paint">
<polygon fill="white" stroke="black" points="514,-57.5 514,-76.5 656,-76.5 656,-57.5 514,-57.5"/>
<text text-anchor="middle" x="585" y="-64.5" font-family="Helvetica,sans-Serif" font-size="10.00">controller.Workspace.paint</text>
</a>
</g>
</g>
<!-- Node3&#45;&gt;Node4 -->
<g id="edge3" class="edge"><title>Node3&#45;&gt;Node4</title>
<path fill="none" stroke="midnightblue" d="M487.879,-67C496.591,-67 505.402,-67 513.971,-67"/>
<polygon fill="midnightblue" stroke="midnightblue" points="487.718,-63.5001 477.718,-67 487.718,-70.5001 487.718,-63.5001"/>
</g>
<!-- Node5&#45;&gt;Node3 -->
<g id="edge5" class="edge"><title>Node5&#45;&gt;Node3</title>
<path fill="none" stroke="midnightblue" d="M294.522,-54.7247C307.421,-56.1579 321.152,-57.6835 334.391,-59.1546"/>
<polygon fill="midnightblue" stroke="midnightblue" points="294.706,-51.2237 284.381,-53.5979 293.933,-58.1809 294.706,-51.2237"/>
</g>
</g>
</svg>
