<?xml version="1.0" encoding="UTF-8" standalone="no"?>
<!DOCTYPE svg PUBLIC "-//W3C//DTD SVG 1.1//EN"
 "http://www.w3.org/Graphics/SVG/1.1/DTD/svg11.dtd">
<!-- Generated by graphviz version 2.36.0 (20140111.2315)
 -->
<!-- Title: model.Turtle.paintTurtle Pages: 1 -->
<svg width="284pt" height="66pt"
 viewBox="0.00 0.00 284.00 66.00" xmlns="http://www.w3.org/2000/svg" xmlns:xlink="http://www.w3.org/1999/xlink">
<g id="graph0" class="graph" transform="scale(1 1) rotate(0) translate(4 62)">
<title>model.Turtle.paintTurtle</title>
<polygon fill="white" stroke="none" points="-4,4 -4,-62 280,-62 280,4 -4,4"/>
<!-- Node1 -->
<g id="node1" class="node"><title>Node1</title>
<polygon fill="#bfbfbf" stroke="black" points="0,-19.5 0,-38.5 128,-38.5 128,-19.5 0,-19.5"/>
<text text-anchor="middle" x="64" y="-26.5" font-family="Helvetica,sans-Serif" font-size="10.00">model.Turtle.paintTurtle</text>
</g>
<!-- Node2 -->
<g id="node2" class="node"><title>Node2</title>
<g id="a_node2"><a xlink:href="../../d7/d1e/classutil_1_1_location.html#a232168bda0ff164c4721dea19a7630d8" target="_top" xlink:title="util.Location.getIntX">
<polygon fill="white" stroke="black" points="164.5,-38.5 164.5,-57.5 275.5,-57.5 275.5,-38.5 164.5,-38.5"/>
<text text-anchor="middle" x="220" y="-45.5" font-family="Helvetica,sans-Serif" font-size="10.00">util.Location.getIntX</text>
</a>
</g>
</g>
<!-- Node1&#45;&gt;Node2 -->
<g id="edge1" class="edge"><title>Node1&#45;&gt;Node2</title>
<path fill="none" stroke="midnightblue" d="M128.082,-36.7828C136.679,-37.8435 145.516,-38.9338 154.144,-39.9983"/>
<polygon fill="midnightblue" stroke="midnightblue" points="153.796,-43.4818 164.15,-41.2328 154.654,-36.5345 153.796,-43.4818"/>
</g>
<!-- Node3 -->
<g id="node3" class="node"><title>Node3</title>
<g id="a_node3"><a xlink:href="../../d7/d1e/classutil_1_1_location.html#a1157d4dc33776ed2764c74e0f8390abe" target="_top" xlink:title="util.Location.getIntY">
<polygon fill="white" stroke="black" points="165,-0.5 165,-19.5 275,-19.5 275,-0.5 165,-0.5"/>
<text text-anchor="middle" x="220" y="-7.5" font-family="Helvetica,sans-Serif" font-size="10.00">util.Location.getIntY</text>
</a>
</g>
</g>
<!-- Node1&#45;&gt;Node3 -->
<g id="edge2" class="edge"><title>Node1&#45;&gt;Node3</title>
<path fill="none" stroke="midnightblue" d="M128.082,-21.2172C136.799,-20.1417 145.761,-19.0359 154.503,-17.9574"/>
<polygon fill="midnightblue" stroke="midnightblue" points="155.14,-21.4055 164.636,-16.7073 154.283,-14.4582 155.14,-21.4055"/>
</g>
</g>
</svg>
