<?xml version="1.0" encoding="UTF-8" standalone="no"?>
<!DOCTYPE svg PUBLIC "-//W3C//DTD SVG 1.1//EN"
 "http://www.w3.org/Graphics/SVG/1.1/DTD/svg11.dtd">
<!-- Generated by graphviz version 2.36.0 (20140111.2315)
 -->
<!-- Title: model.Turtle.setHeading Pages: 1 -->
<svg width="492pt" height="115pt"
 viewBox="0.00 0.00 492.00 115.00" xmlns="http://www.w3.org/2000/svg" xmlns:xlink="http://www.w3.org/1999/xlink">
<g id="graph0" class="graph" transform="scale(1 1) rotate(0) translate(4 111)">
<title>model.Turtle.setHeading</title>
<polygon fill="white" stroke="none" points="-4,4 -4,-111 488,-111 488,4 -4,4"/>
<!-- Node1 -->
<g id="node1" class="node"><title>Node1</title>
<polygon fill="#bfbfbf" stroke="black" points="0.5,-49.5 0.5,-68.5 133.5,-68.5 133.5,-49.5 0.5,-49.5"/>
<text text-anchor="middle" x="67" y="-56.5" font-family="Helvetica,sans-Serif" font-size="10.00">model.Turtle.setHeading</text>
</g>
<!-- Node2 -->
<g id="node2" class="node"><title>Node2</title>
<g id="a_node2"><a xlink:href="../../d4/d67/classutil_1_1_vector.html#a3e38cf524cc0903761bbe0cba746fab5" target="_top" xlink:title="util.Vector.getAngleBetween">
<polygon fill="white" stroke="black" points="170.5,-87.5 170.5,-106.5 321.5,-106.5 321.5,-87.5 170.5,-87.5"/>
<text text-anchor="middle" x="246" y="-94.5" font-family="Helvetica,sans-Serif" font-size="10.00">util.Vector.getAngleBetween</text>
</a>
</g>
</g>
<!-- Node1&#45;&gt;Node2 -->
<g id="edge1" class="edge"><title>Node1&#45;&gt;Node2</title>
<path fill="none" stroke="midnightblue" d="M112.665,-68.589C136.337,-73.6713 165.608,-79.9554 190.597,-85.3203"/>
<polygon fill="midnightblue" stroke="midnightblue" points="190.145,-88.8028 200.657,-87.4799 191.614,-81.9588 190.145,-88.8028"/>
</g>
<!-- Node4 -->
<g id="node4" class="node"><title>Node4</title>
<g id="a_node4"><a xlink:href="../../d4/d67/classutil_1_1_vector.html#a60833e2e656743a823aea9e5899dd301" target="_top" xlink:title="util.Vector.turn">
<polygon fill="white" stroke="black" points="203,-49.5 203,-68.5 289,-68.5 289,-49.5 203,-49.5"/>
<text text-anchor="middle" x="246" y="-56.5" font-family="Helvetica,sans-Serif" font-size="10.00">util.Vector.turn</text>
</a>
</g>
</g>
<!-- Node1&#45;&gt;Node4 -->
<g id="edge3" class="edge"><title>Node1&#45;&gt;Node4</title>
<path fill="none" stroke="midnightblue" d="M133.657,-59C153.164,-59 174.262,-59 192.791,-59"/>
<polygon fill="midnightblue" stroke="midnightblue" points="192.795,-62.5001 202.795,-59 192.795,-55.5001 192.795,-62.5001"/>
</g>
<!-- Node6 -->
<g id="node6" class="node"><title>Node6</title>
<g id="a_node6"><a xlink:href="../../d6/d34/classmodel_1_1_turtle.html#a47223132af5beecec7168335e82dbe3a" target="_top" xlink:title="model.Turtle.viewerDegree\lConversion">
<polygon fill="white" stroke="black" points="174.5,-0 174.5,-30 317.5,-30 317.5,-0 174.5,-0"/>
<text text-anchor="start" x="182.5" y="-18" font-family="Helvetica,sans-Serif" font-size="10.00">model.Turtle.viewerDegree</text>
<text text-anchor="middle" x="246" y="-7" font-family="Helvetica,sans-Serif" font-size="10.00">Conversion</text>
</a>
</g>
</g>
<!-- Node1&#45;&gt;Node6 -->
<g id="edge6" class="edge"><title>Node1&#45;&gt;Node6</title>
<path fill="none" stroke="midnightblue" d="M106.406,-49.4527C126.334,-44.4988 151.315,-38.2888 174.56,-32.5105"/>
<polygon fill="midnightblue" stroke="midnightblue" points="175.536,-35.8745 184.396,-30.0654 173.847,-29.0813 175.536,-35.8745"/>
</g>
<!-- Node3 -->
<g id="node3" class="node"><title>Node3</title>
<g id="a_node3"><a xlink:href="../../d4/d67/classutil_1_1_vector.html#acebe00e22995a3514458ffa3db195295" target="_top" xlink:title="util.Vector.getDirection">
<polygon fill="white" stroke="black" points="358.5,-87.5 358.5,-106.5 483.5,-106.5 483.5,-87.5 358.5,-87.5"/>
<text text-anchor="middle" x="421" y="-94.5" font-family="Helvetica,sans-Serif" font-size="10.00">util.Vector.getDirection</text>
</a>
</g>
</g>
<!-- Node2&#45;&gt;Node3 -->
<g id="edge2" class="edge"><title>Node2&#45;&gt;Node3</title>
<path fill="none" stroke="midnightblue" d="M321.623,-97C330.431,-97 339.406,-97 348.174,-97"/>
<polygon fill="midnightblue" stroke="midnightblue" points="348.349,-100.5 358.349,-97 348.349,-93.5001 348.349,-100.5"/>
</g>
<!-- Node4&#45;&gt;Node3 -->
<g id="edge5" class="edge"><title>Node4&#45;&gt;Node3</title>
<path fill="none" stroke="midnightblue" d="M289.321,-68.2958C312.619,-73.4134 341.763,-79.8149 366.612,-85.2732"/>
<polygon fill="midnightblue" stroke="midnightblue" points="366.094,-88.7428 376.613,-87.4698 367.596,-81.9058 366.094,-88.7428"/>
</g>
<!-- Node5 -->
<g id="node5" class="node"><title>Node5</title>
<g id="a_node5"><a xlink:href="../../d4/d67/classutil_1_1_vector.html#a338b7c1377d3bc795527c2fbeeb25639" target="_top" xlink:title="util.Vector.setDirection">
<polygon fill="white" stroke="black" points="358.5,-49.5 358.5,-68.5 483.5,-68.5 483.5,-49.5 358.5,-49.5"/>
<text text-anchor="middle" x="421" y="-56.5" font-family="Helvetica,sans-Serif" font-size="10.00">util.Vector.setDirection</text>
</a>
</g>
</g>
<!-- Node4&#45;&gt;Node5 -->
<g id="edge4" class="edge"><title>Node4&#45;&gt;Node5</title>
<path fill="none" stroke="midnightblue" d="M289.321,-59C307.034,-59 328.127,-59 348.143,-59"/>
<polygon fill="midnightblue" stroke="midnightblue" points="348.174,-62.5001 358.174,-59 348.174,-55.5001 348.174,-62.5001"/>
</g>
</g>
</svg>
