<?xml version="1.0" encoding="UTF-8" standalone="no"?>
<!DOCTYPE svg PUBLIC "-//W3C//DTD SVG 1.1//EN"
 "http://www.w3.org/Graphics/SVG/1.1/DTD/svg11.dtd">
<!-- Generated by graphviz version 2.36.0 (20140111.2315)
 -->
<!-- Title: model.Turtle.stamp Pages: 1 -->
<svg width="774pt" height="66pt"
 viewBox="0.00 0.00 774.00 66.00" xmlns="http://www.w3.org/2000/svg" xmlns:xlink="http://www.w3.org/1999/xlink">
<g id="graph0" class="graph" transform="scale(1 1) rotate(0) translate(4 62)">
<title>model.Turtle.stamp</title>
<polygon fill="white" stroke="none" points="-4,4 -4,-62 770,-62 770,4 -4,4"/>
<!-- Node1 -->
<g id="node1" class="node"><title>Node1</title>
<polygon fill="#bfbfbf" stroke="black" points="0.5,-19.5 0.5,-38.5 109.5,-38.5 109.5,-19.5 0.5,-19.5"/>
<text text-anchor="middle" x="55" y="-26.5" font-family="Helvetica,sans-Serif" font-size="10.00">model.Turtle.stamp</text>
</g>
<!-- Node2 -->
<g id="node2" class="node"><title>Node2</title>
<g id="a_node2"><a xlink:href="../../d6/d34/classmodel_1_1_turtle.html#aeeab176e64d1ad18647e37aee02affc7" target="_top" xlink:title="model.Turtle.getPainting\lPoint">
<polygon fill="white" stroke="black" points="146.5,-14 146.5,-44 277.5,-44 277.5,-14 146.5,-14"/>
<text text-anchor="start" x="154.5" y="-32" font-family="Helvetica,sans-Serif" font-size="10.00">model.Turtle.getPainting</text>
<text text-anchor="middle" x="212" y="-21" font-family="Helvetica,sans-Serif" font-size="10.00">Point</text>
</a>
</g>
</g>
<!-- Node1&#45;&gt;Node2 -->
<g id="edge1" class="edge"><title>Node1&#45;&gt;Node2</title>
<path fill="none" stroke="midnightblue" d="M109.776,-29C118.353,-29 127.358,-29 136.313,-29"/>
<polygon fill="midnightblue" stroke="midnightblue" points="136.377,-32.5001 146.377,-29 136.377,-25.5001 136.377,-32.5001"/>
</g>
<!-- Node3 -->
<g id="node3" class="node"><title>Node3</title>
<g id="a_node3"><a xlink:href="../../d7/d1e/classutil_1_1_location.html#a82f3e59d7d3e3d46df862be2e63c80e3" target="_top" xlink:title="util.Location.translate">
<polygon fill="white" stroke="black" points="314,-19.5 314,-38.5 434,-38.5 434,-19.5 314,-19.5"/>
<text text-anchor="middle" x="374" y="-26.5" font-family="Helvetica,sans-Serif" font-size="10.00">util.Location.translate</text>
</a>
</g>
</g>
<!-- Node2&#45;&gt;Node3 -->
<g id="edge2" class="edge"><title>Node2&#45;&gt;Node3</title>
<path fill="none" stroke="midnightblue" d="M277.617,-29C286.219,-29 295.069,-29 303.746,-29"/>
<polygon fill="midnightblue" stroke="midnightblue" points="303.829,-32.5001 313.829,-29 303.829,-25.5001 303.829,-32.5001"/>
</g>
<!-- Node4 -->
<g id="node4" class="node"><title>Node4</title>
<g id="a_node4"><a xlink:href="../../d4/d67/classutil_1_1_vector.html#a3509d652ff8c361b07447f55e0007f31" target="_top" xlink:title="util.Vector.getXChange">
<polygon fill="white" stroke="black" points="470.5,-38.5 470.5,-57.5 595.5,-57.5 595.5,-38.5 470.5,-38.5"/>
<text text-anchor="middle" x="533" y="-45.5" font-family="Helvetica,sans-Serif" font-size="10.00">util.Vector.getXChange</text>
</a>
</g>
</g>
<!-- Node3&#45;&gt;Node4 -->
<g id="edge3" class="edge"><title>Node3&#45;&gt;Node4</title>
<path fill="none" stroke="midnightblue" d="M434.355,-36.1831C442.843,-37.2103 451.649,-38.276 460.343,-39.3281"/>
<polygon fill="midnightblue" stroke="midnightblue" points="460.122,-42.8269 470.47,-40.5537 460.963,-35.8776 460.122,-42.8269"/>
</g>
<!-- Node7 -->
<g id="node7" class="node"><title>Node7</title>
<g id="a_node7"><a xlink:href="../../d4/d67/classutil_1_1_vector.html#aca15e89ce2edd3e93dcb73621c26237f" target="_top" xlink:title="util.Vector.getYChange">
<polygon fill="white" stroke="black" points="471,-0.5 471,-19.5 595,-19.5 595,-0.5 471,-0.5"/>
<text text-anchor="middle" x="533" y="-7.5" font-family="Helvetica,sans-Serif" font-size="10.00">util.Vector.getYChange</text>
</a>
</g>
</g>
<!-- Node3&#45;&gt;Node7 -->
<g id="edge6" class="edge"><title>Node3&#45;&gt;Node7</title>
<path fill="none" stroke="midnightblue" d="M434.355,-21.8169C443.062,-20.7633 452.103,-19.6691 461.014,-18.5907"/>
<polygon fill="midnightblue" stroke="midnightblue" points="461.487,-22.059 470.994,-17.3829 460.646,-15.1097 461.487,-22.059"/>
</g>
<!-- Node5 -->
<g id="node5" class="node"><title>Node5</title>
<g id="a_node5"><a xlink:href="../../d4/d67/classutil_1_1_vector.html#afa760c6d12c93fbfcfacd6e279d08d88" target="_top" xlink:title="util.Vector.getMagnitude">
<polygon fill="white" stroke="black" points="632.5,-38.5 632.5,-57.5 765.5,-57.5 765.5,-38.5 632.5,-38.5"/>
<text text-anchor="middle" x="699" y="-45.5" font-family="Helvetica,sans-Serif" font-size="10.00">util.Vector.getMagnitude</text>
</a>
</g>
</g>
<!-- Node4&#45;&gt;Node5 -->
<g id="edge4" class="edge"><title>Node4&#45;&gt;Node5</title>
<path fill="none" stroke="midnightblue" d="M595.534,-48C604.251,-48 613.298,-48 622.244,-48"/>
<polygon fill="midnightblue" stroke="midnightblue" points="622.28,-51.5001 632.28,-48 622.28,-44.5001 622.28,-51.5001"/>
</g>
<!-- Node6 -->
<g id="node6" class="node"><title>Node6</title>
<g id="a_node6"><a xlink:href="../../d4/d67/classutil_1_1_vector.html#acebe00e22995a3514458ffa3db195295" target="_top" xlink:title="util.Vector.getDirection">
<polygon fill="white" stroke="black" points="636.5,-0.5 636.5,-19.5 761.5,-19.5 761.5,-0.5 636.5,-0.5"/>
<text text-anchor="middle" x="699" y="-7.5" font-family="Helvetica,sans-Serif" font-size="10.00">util.Vector.getDirection</text>
</a>
</g>
</g>
<!-- Node4&#45;&gt;Node6 -->
<g id="edge5" class="edge"><title>Node4&#45;&gt;Node6</title>
<path fill="none" stroke="midnightblue" d="M575.384,-38.411C597.123,-33.3739 623.957,-27.1562 646.975,-21.8229"/>
<polygon fill="midnightblue" stroke="midnightblue" points="647.962,-25.1871 656.913,-19.5201 646.381,-18.3677 647.962,-25.1871"/>
</g>
<!-- Node7&#45;&gt;Node5 -->
<g id="edge7" class="edge"><title>Node7&#45;&gt;Node5</title>
<path fill="none" stroke="midnightblue" d="M575.384,-19.589C597.123,-24.6261 623.957,-30.8438 646.975,-36.1771"/>
<polygon fill="midnightblue" stroke="midnightblue" points="646.381,-39.6323 656.913,-38.4799 647.962,-32.8129 646.381,-39.6323"/>
</g>
<!-- Node7&#45;&gt;Node6 -->
<g id="edge8" class="edge"><title>Node7&#45;&gt;Node6</title>
<path fill="none" stroke="midnightblue" d="M595.068,-10C605.176,-10 615.74,-10 626.086,-10"/>
<polygon fill="midnightblue" stroke="midnightblue" points="626.335,-13.5001 636.335,-10 626.334,-6.5001 626.335,-13.5001"/>
</g>
</g>
</svg>
