<?xml version="1.0" encoding="UTF-8" standalone="no"?>
<!DOCTYPE svg PUBLIC "-//W3C//DTD SVG 1.1//EN"
 "http://www.w3.org/Graphics/SVG/1.1/DTD/svg11.dtd">
<!-- Generated by graphviz version 2.36.0 (20140111.2315)
 -->
<!-- Title: model.Turtle.transform Pages: 1 -->
<svg width="800pt" height="47pt"
 viewBox="0.00 0.00 800.00 47.00" xmlns="http://www.w3.org/2000/svg" xmlns:xlink="http://www.w3.org/1999/xlink">
<g id="graph0" class="graph" transform="scale(1 1) rotate(0) translate(4 43)">
<title>model.Turtle.transform</title>
<polygon fill="white" stroke="none" points="-4,4 -4,-43 796,-43 796,4 -4,4"/>
<!-- Node1 -->
<g id="node1" class="node"><title>Node1</title>
<polygon fill="#bfbfbf" stroke="black" points="0.5,-19.5 0.5,-38.5 125.5,-38.5 125.5,-19.5 0.5,-19.5"/>
<text text-anchor="middle" x="63" y="-26.5" font-family="Helvetica,sans-Serif" font-size="10.00">model.Turtle.transform</text>
</g>
<!-- Node2 -->
<g id="node2" class="node"><title>Node2</title>
<g id="a_node2"><a xlink:href="../../d6/d34/classmodel_1_1_turtle.html#a7d850c710649567ac20161f847b2ad11" target="_top" xlink:title="model.Turtle.paint">
<polygon fill="white" stroke="black" points="332,-19.5 332,-38.5 434,-38.5 434,-19.5 332,-19.5"/>
<text text-anchor="middle" x="383" y="-26.5" font-family="Helvetica,sans-Serif" font-size="10.00">model.Turtle.paint</text>
</a>
</g>
</g>
<!-- Node1&#45;&gt;Node2 -->
<g id="edge1" class="edge"><title>Node1&#45;&gt;Node2</title>
<path fill="none" stroke="midnightblue" d="M135.819,-29C195.613,-29 279.219,-29 331.976,-29"/>
<polygon fill="midnightblue" stroke="midnightblue" points="135.691,-25.5001 125.691,-29 135.691,-32.5001 135.691,-25.5001"/>
</g>
<!-- Node5 -->
<g id="node5" class="node"><title>Node5</title>
<g id="a_node5"><a xlink:href="../../d6/d34/classmodel_1_1_turtle.html#aae6d22acacfa7bd29fb818f4f9dd3d2e" target="_top" xlink:title="model.Turtle.paintStamp">
<polygon fill="white" stroke="black" points="162,-0.5 162,-19.5 296,-19.5 296,-0.5 162,-0.5"/>
<text text-anchor="middle" x="229" y="-7.5" font-family="Helvetica,sans-Serif" font-size="10.00">model.Turtle.paintStamp</text>
</a>
</g>
</g>
<!-- Node1&#45;&gt;Node5 -->
<g id="edge4" class="edge"><title>Node1&#45;&gt;Node5</title>
<path fill="none" stroke="midnightblue" d="M135.624,-20.7021C144.3,-19.6969 153.134,-18.6735 161.729,-17.6778"/>
<polygon fill="midnightblue" stroke="midnightblue" points="135.065,-17.2434 125.534,-21.871 135.871,-24.1969 135.065,-17.2434"/>
</g>
<!-- Node3 -->
<g id="node3" class="node"><title>Node3</title>
<g id="a_node3"><a xlink:href="../../d8/dff/classmodel_1_1_turtle_manager.html#a7f2863fbe8420cb5859ab922bd866b1d" target="_top" xlink:title="model.TurtleManager.paint">
<polygon fill="white" stroke="black" points="470.5,-19.5 470.5,-38.5 613.5,-38.5 613.5,-19.5 470.5,-19.5"/>
<text text-anchor="middle" x="542" y="-26.5" font-family="Helvetica,sans-Serif" font-size="10.00">model.TurtleManager.paint</text>
</a>
</g>
</g>
<!-- Node2&#45;&gt;Node3 -->
<g id="edge2" class="edge"><title>Node2&#45;&gt;Node3</title>
<path fill="none" stroke="midnightblue" d="M444.356,-29C452.905,-29 461.758,-29 470.479,-29"/>
<polygon fill="midnightblue" stroke="midnightblue" points="444.107,-25.5001 434.107,-29 444.107,-32.5001 444.107,-25.5001"/>
</g>
<!-- Node4 -->
<g id="node4" class="node"><title>Node4</title>
<g id="a_node4"><a xlink:href="../../de/d84/classcontroller_1_1_workspace.html#aa3ec59da02e89f7882fb31677330af80" target="_top" xlink:title="controller.Workspace.paint">
<polygon fill="white" stroke="black" points="650,-19.5 650,-38.5 792,-38.5 792,-19.5 650,-19.5"/>
<text text-anchor="middle" x="721" y="-26.5" font-family="Helvetica,sans-Serif" font-size="10.00">controller.Workspace.paint</text>
</a>
</g>
</g>
<!-- Node3&#45;&gt;Node4 -->
<g id="edge3" class="edge"><title>Node3&#45;&gt;Node4</title>
<path fill="none" stroke="midnightblue" d="M623.879,-29C632.591,-29 641.402,-29 649.971,-29"/>
<polygon fill="midnightblue" stroke="midnightblue" points="623.718,-25.5001 613.718,-29 623.718,-32.5001 623.718,-25.5001"/>
</g>
<!-- Node5&#45;&gt;Node2 -->
<g id="edge5" class="edge"><title>Node5&#45;&gt;Node2</title>
<path fill="none" stroke="midnightblue" d="M306.404,-19.5505C315.093,-20.6366 323.775,-21.7219 331.996,-22.7495"/>
<polygon fill="midnightblue" stroke="midnightblue" points="306.584,-16.0459 296.227,-18.2784 305.716,-22.9918 306.584,-16.0459"/>
</g>
</g>
</svg>
