<?xml version="1.0" encoding="UTF-8" standalone="no"?>
<!DOCTYPE svg PUBLIC "-//W3C//DTD SVG 1.1//EN"
 "http://www.w3.org/Graphics/SVG/1.1/DTD/svg11.dtd">
<!-- Generated by graphviz version 2.36.0 (20140111.2315)
 -->
<!-- Title: model.Turtle.wrapOnBoundary Pages: 1 -->
<svg width="514pt" height="284pt"
 viewBox="0.00 0.00 514.00 284.26" xmlns="http://www.w3.org/2000/svg" xmlns:xlink="http://www.w3.org/1999/xlink">
<g id="graph0" class="graph" transform="scale(1 1) rotate(0) translate(4 280.257)">
<title>model.Turtle.wrapOnBoundary</title>
<polygon fill="white" stroke="none" points="-4,4 -4,-280.257 510,-280.257 510,4 -4,4"/>
<!-- Node1 -->
<g id="node1" class="node"><title>Node1</title>
<polygon fill="#bfbfbf" stroke="black" points="0,-133.5 0,-152.5 160,-152.5 160,-133.5 0,-133.5"/>
<text text-anchor="middle" x="80" y="-140.5" font-family="Helvetica,sans-Serif" font-size="10.00">model.Turtle.wrapOnBoundary</text>
</g>
<!-- Node2 -->
<g id="node2" class="node"><title>Node2</title>
<g id="a_node2"><a xlink:href="../../d6/d34/classmodel_1_1_turtle.html#adc63bb1ed5f0a894a2404b5b55a60c5d" target="_top" xlink:title="model.Turtle.boundsExceeded">
<polygon fill="white" stroke="black" points="197,-228.5 197,-247.5 357,-247.5 357,-228.5 197,-228.5"/>
<text text-anchor="middle" x="277" y="-235.5" font-family="Helvetica,sans-Serif" font-size="10.00">model.Turtle.boundsExceeded</text>
</a>
</g>
</g>
<!-- Node1&#45;&gt;Node2 -->
<g id="edge1" class="edge"><title>Node1&#45;&gt;Node2</title>
<path fill="none" stroke="midnightblue" d="M94.1658,-152.734C114.897,-167.682 156.833,-196.402 196,-214 205.723,-218.369 216.458,-222.207 226.822,-225.46"/>
<polygon fill="midnightblue" stroke="midnightblue" points="226.016,-228.872 236.6,-228.397 228.03,-222.168 226.016,-228.872"/>
</g>
<!-- Node3 -->
<g id="node3" class="node"><title>Node3</title>
<g id="a_node3"><a xlink:href="../../d7/d1e/classutil_1_1_location.html#a232168bda0ff164c4721dea19a7630d8" target="_top" xlink:title="util.Location.getIntX">
<polygon fill="white" stroke="black" points="394.5,-247.5 394.5,-266.5 505.5,-266.5 505.5,-247.5 394.5,-247.5"/>
<text text-anchor="middle" x="450" y="-254.5" font-family="Helvetica,sans-Serif" font-size="10.00">util.Location.getIntX</text>
</a>
</g>
</g>
<!-- Node1&#45;&gt;Node3 -->
<g id="edge5" class="edge"><title>Node1&#45;&gt;Node3</title>
<path fill="none" stroke="midnightblue" d="M86.9606,-152.842C101.837,-176.322 143.228,-235.276 196,-257 260.923,-283.726 343.407,-277.077 396.211,-268.312"/>
<polygon fill="midnightblue" stroke="midnightblue" points="397.113,-271.707 406.362,-266.54 395.909,-264.812 397.113,-271.707"/>
</g>
<!-- Node4 -->
<g id="node4" class="node"><title>Node4</title>
<g id="a_node4"><a xlink:href="../../d7/d1e/classutil_1_1_location.html#a1157d4dc33776ed2764c74e0f8390abe" target="_top" xlink:title="util.Location.getIntY">
<polygon fill="white" stroke="black" points="395,-200.5 395,-219.5 505,-219.5 505,-200.5 395,-200.5"/>
<text text-anchor="middle" x="450" y="-207.5" font-family="Helvetica,sans-Serif" font-size="10.00">util.Location.getIntY</text>
</a>
</g>
</g>
<!-- Node1&#45;&gt;Node4 -->
<g id="edge6" class="edge"><title>Node1&#45;&gt;Node4</title>
<path fill="none" stroke="midnightblue" d="M105.269,-152.638C128.268,-161.381 163.965,-173.949 196,-181 259.35,-194.942 333.188,-202.429 384.683,-206.28"/>
<polygon fill="midnightblue" stroke="midnightblue" points="384.448,-209.772 394.675,-207.003 384.953,-202.79 384.448,-209.772"/>
</g>
<!-- Node5 -->
<g id="node5" class="node"><title>Node5</title>
<g id="a_node5"><a xlink:href="../../d4/d67/classutil_1_1_vector.html#a1aea3b29ec9c7374d0d5520ece2085a2" target="_top" xlink:title="util.Vector.distanceBetween">
<polygon fill="white" stroke="black" points="202.5,-152.5 202.5,-171.5 351.5,-171.5 351.5,-152.5 202.5,-152.5"/>
<text text-anchor="middle" x="277" y="-159.5" font-family="Helvetica,sans-Serif" font-size="10.00">util.Vector.distanceBetween</text>
</a>
</g>
</g>
<!-- Node1&#45;&gt;Node5 -->
<g id="edge4" class="edge"><title>Node1&#45;&gt;Node5</title>
<path fill="none" stroke="midnightblue" d="M160.033,-150.701C170.593,-151.73 181.454,-152.788 192.094,-153.825"/>
<polygon fill="midnightblue" stroke="midnightblue" points="191.919,-157.324 202.212,-154.81 192.598,-150.357 191.919,-157.324"/>
</g>
<!-- Node6 -->
<g id="node6" class="node"><title>Node6</title>
<g id="a_node6"><a xlink:href="../../d7/d1e/classutil_1_1_location.html#af426bff856c968faa03f772bd112f8c3" target="_top" xlink:title="util.Location.getVisualLocation">
<polygon fill="white" stroke="black" points="196,-114.5 196,-133.5 358,-133.5 358,-114.5 196,-114.5"/>
<text text-anchor="middle" x="277" y="-121.5" font-family="Helvetica,sans-Serif" font-size="10.00">util.Location.getVisualLocation</text>
</a>
</g>
</g>
<!-- Node1&#45;&gt;Node6 -->
<g id="edge7" class="edge"><title>Node1&#45;&gt;Node6</title>
<path fill="none" stroke="midnightblue" d="M160.033,-135.299C168.532,-134.471 177.224,-133.624 185.841,-132.785"/>
<polygon fill="midnightblue" stroke="midnightblue" points="186.29,-136.258 195.903,-131.804 185.611,-129.291 186.29,-136.258"/>
</g>
<!-- Node7 -->
<g id="node7" class="node"><title>Node7</title>
<g id="a_node7"><a xlink:href="../../d4/d67/classutil_1_1_vector.html#a45ba35e870010e16e64d697f97d1b1dc" target="_top" xlink:title="util.Vector.setMagnitude">
<polygon fill="white" stroke="black" points="211,-76.5 211,-95.5 343,-95.5 343,-76.5 211,-76.5"/>
<text text-anchor="middle" x="277" y="-83.5" font-family="Helvetica,sans-Serif" font-size="10.00">util.Vector.setMagnitude</text>
</a>
</g>
</g>
<!-- Node1&#45;&gt;Node7 -->
<g id="edge8" class="edge"><title>Node1&#45;&gt;Node7</title>
<path fill="none" stroke="midnightblue" d="M107.752,-133.435C130.931,-125.322 165.452,-113.657 196,-105 204.582,-102.568 213.74,-100.191 222.683,-97.9876"/>
<polygon fill="midnightblue" stroke="midnightblue" points="223.747,-101.331 232.645,-95.5796 222.103,-94.5271 223.747,-101.331"/>
</g>
<!-- Node8 -->
<g id="node8" class="node"><title>Node8</title>
<g id="a_node8"><a xlink:href="../../d7/d1e/classutil_1_1_location.html#a36240d43a76c7ce472aa329cb496cd8f" target="_top" xlink:title="util.Location.setX">
<polygon fill="white" stroke="black" points="228,-38.5 228,-57.5 326,-57.5 326,-38.5 228,-38.5"/>
<text text-anchor="middle" x="277" y="-45.5" font-family="Helvetica,sans-Serif" font-size="10.00">util.Location.setX</text>
</a>
</g>
</g>
<!-- Node1&#45;&gt;Node8 -->
<g id="edge9" class="edge"><title>Node1&#45;&gt;Node8</title>
<path fill="none" stroke="midnightblue" d="M92.6093,-133.288C112.5,-117.137 154.932,-84.78 196,-67 202.923,-64.0029 210.396,-61.4335 217.898,-59.243"/>
<polygon fill="midnightblue" stroke="midnightblue" points="218.996,-62.5717 227.732,-56.5775 217.165,-55.8155 218.996,-62.5717"/>
</g>
<!-- Node9 -->
<g id="node9" class="node"><title>Node9</title>
<g id="a_node9"><a xlink:href="../../d7/d1e/classutil_1_1_location.html#a67bebd8b26034a51f8943a50e237f724" target="_top" xlink:title="util.Location.setY">
<polygon fill="white" stroke="black" points="228,-0.5 228,-19.5 326,-19.5 326,-0.5 228,-0.5"/>
<text text-anchor="middle" x="277" y="-7.5" font-family="Helvetica,sans-Serif" font-size="10.00">util.Location.setY</text>
</a>
</g>
</g>
<!-- Node1&#45;&gt;Node9 -->
<g id="edge10" class="edge"><title>Node1&#45;&gt;Node9</title>
<path fill="none" stroke="midnightblue" d="M87.8037,-133.275C103.881,-111.069 146.605,-56.4423 196,-29 202.844,-25.1978 210.427,-22.1527 218.119,-19.7148"/>
<polygon fill="midnightblue" stroke="midnightblue" points="219.211,-23.043 227.872,-16.9403 217.296,-16.3101 219.211,-23.043"/>
</g>
<!-- Node2&#45;&gt;Node3 -->
<g id="edge2" class="edge"><title>Node2&#45;&gt;Node3</title>
<path fill="none" stroke="midnightblue" d="M357.493,-246.833C366.394,-247.822 375.383,-248.82 384.071,-249.786"/>
<polygon fill="midnightblue" stroke="midnightblue" points="383.783,-253.275 394.108,-250.901 384.556,-246.318 383.783,-253.275"/>
</g>
<!-- Node2&#45;&gt;Node4 -->
<g id="edge3" class="edge"><title>Node2&#45;&gt;Node4</title>
<path fill="none" stroke="midnightblue" d="M336.37,-228.442C351.926,-225.895 368.819,-223.129 384.675,-220.533"/>
<polygon fill="midnightblue" stroke="midnightblue" points="385.617,-223.925 394.92,-218.855 384.486,-217.017 385.617,-223.925"/>
</g>
</g>
</svg>
