<?xml version="1.0" encoding="UTF-8" standalone="no"?>
<!DOCTYPE svg PUBLIC "-//W3C//DTD SVG 1.1//EN"
 "http://www.w3.org/Graphics/SVG/1.1/DTD/svg11.dtd">
<!-- Generated by graphviz version 2.36.0 (20140111.2315)
 -->
<!-- Title: model.Turtle.getHeight Pages: 1 -->
<svg width="492pt" height="28pt"
 viewBox="0.00 0.00 492.00 28.00" xmlns="http://www.w3.org/2000/svg" xmlns:xlink="http://www.w3.org/1999/xlink">
<g id="graph0" class="graph" transform="scale(1 1) rotate(0) translate(4 24)">
<title>model.Turtle.getHeight</title>
<polygon fill="white" stroke="none" points="-4,4 -4,-24 488,-24 488,4 -4,4"/>
<!-- Node1 -->
<g id="node1" class="node"><title>Node1</title>
<polygon fill="#bfbfbf" stroke="black" points="0.5,-0.5 0.5,-19.5 125.5,-19.5 125.5,-0.5 0.5,-0.5"/>
<text text-anchor="middle" x="63" y="-7.5" font-family="Helvetica,sans-Serif" font-size="10.00">model.Turtle.getHeight</text>
</g>
<!-- Node2 -->
<g id="node2" class="node"><title>Node2</title>
<g id="a_node2"><a xlink:href="../../d8/dff/classmodel_1_1_turtle_manager.html#a7f2863fbe8420cb5859ab922bd866b1d" target="_top" xlink:title="model.TurtleManager.paint">
<polygon fill="white" stroke="black" points="162.5,-0.5 162.5,-19.5 305.5,-19.5 305.5,-0.5 162.5,-0.5"/>
<text text-anchor="middle" x="234" y="-7.5" font-family="Helvetica,sans-Serif" font-size="10.00">model.TurtleManager.paint</text>
</a>
</g>
</g>
<!-- Node1&#45;&gt;Node2 -->
<g id="edge1" class="edge"><title>Node1&#45;&gt;Node2</title>
<path fill="none" stroke="midnightblue" d="M136.114,-10C144.845,-10 153.757,-10 162.465,-10"/>
<polygon fill="midnightblue" stroke="midnightblue" points="135.97,-6.5001 125.97,-10 135.97,-13.5001 135.97,-6.5001"/>
</g>
<!-- Node3 -->
<g id="node3" class="node"><title>Node3</title>
<g id="a_node3"><a xlink:href="../../de/d84/classcontroller_1_1_workspace.html#aa3ec59da02e89f7882fb31677330af80" target="_top" xlink:title="controller.Workspace.paint">
<polygon fill="white" stroke="black" points="342,-0.5 342,-19.5 484,-19.5 484,-0.5 342,-0.5"/>
<text text-anchor="middle" x="413" y="-7.5" font-family="Helvetica,sans-Serif" font-size="10.00">controller.Workspace.paint</text>
</a>
</g>
</g>
<!-- Node2&#45;&gt;Node3 -->
<g id="edge2" class="edge"><title>Node2&#45;&gt;Node3</title>
<path fill="none" stroke="midnightblue" d="M315.879,-10C324.591,-10 333.402,-10 341.971,-10"/>
<polygon fill="midnightblue" stroke="midnightblue" points="315.718,-6.5001 305.718,-10 315.718,-13.5001 315.718,-6.5001"/>
</g>
</g>
</svg>
