<?xml version="1.0" encoding="UTF-8" standalone="no"?>
<!DOCTYPE svg PUBLIC "-//W3C//DTD SVG 1.1//EN"
 "http://www.w3.org/Graphics/SVG/1.1/DTD/svg11.dtd">
<!-- Generated by graphviz version 2.36.0 (20140111.2315)
 -->
<!-- Title: model.Turtle.viewerDegreeConversion Pages: 1 -->
<svg width="616pt" height="66pt"
 viewBox="0.00 0.00 616.00 66.00" xmlns="http://www.w3.org/2000/svg" xmlns:xlink="http://www.w3.org/1999/xlink">
<g id="graph0" class="graph" transform="scale(1 1) rotate(0) translate(4 62)">
<title>model.Turtle.viewerDegreeConversion</title>
<polygon fill="white" stroke="none" points="-4,4 -4,-62 612,-62 612,4 -4,4"/>
<!-- Node1 -->
<g id="node1" class="node"><title>Node1</title>
<polygon fill="#bfbfbf" stroke="black" points="0.5,-14 0.5,-44 143.5,-44 143.5,-14 0.5,-14"/>
<text text-anchor="start" x="8.5" y="-32" font-family="Helvetica,sans-Serif" font-size="10.00">model.Turtle.viewerDegree</text>
<text text-anchor="middle" x="72" y="-21" font-family="Helvetica,sans-Serif" font-size="10.00">Conversion</text>
</g>
<!-- Node2 -->
<g id="node2" class="node"><title>Node2</title>
<g id="a_node2"><a xlink:href="../../d6/d34/classmodel_1_1_turtle.html#a55f4dcccce0978938b3b98e1eee4f45a" target="_top" xlink:title="model.Turtle.getHeading">
<polygon fill="white" stroke="black" points="180,-38.5 180,-57.5 314,-57.5 314,-38.5 180,-38.5"/>
<text text-anchor="middle" x="247" y="-45.5" font-family="Helvetica,sans-Serif" font-size="10.00">model.Turtle.getHeading</text>
</a>
</g>
</g>
<!-- Node1&#45;&gt;Node2 -->
<g id="edge1" class="edge"><title>Node1&#45;&gt;Node2</title>
<path fill="none" stroke="midnightblue" d="M154.019,-37.8981C162.716,-38.8532 171.487,-39.8165 179.979,-40.7492"/>
<polygon fill="midnightblue" stroke="midnightblue" points="154.187,-34.3956 143.865,-36.7828 153.423,-41.3537 154.187,-34.3956"/>
</g>
<!-- Node3 -->
<g id="node3" class="node"><title>Node3</title>
<g id="a_node3"><a xlink:href="../../d6/d34/classmodel_1_1_turtle.html#a849598fc06250bf6f435a9837e0f1dfe" target="_top" xlink:title="model.Turtle.setHeading">
<polygon fill="white" stroke="black" points="180.5,-0.5 180.5,-19.5 313.5,-19.5 313.5,-0.5 180.5,-0.5"/>
<text text-anchor="middle" x="247" y="-7.5" font-family="Helvetica,sans-Serif" font-size="10.00">model.Turtle.setHeading</text>
</a>
</g>
</g>
<!-- Node1&#45;&gt;Node3 -->
<g id="edge2" class="edge"><title>Node1&#45;&gt;Node3</title>
<path fill="none" stroke="midnightblue" d="M153.813,-20.1246C162.672,-19.1516 171.611,-18.1699 180.256,-17.2204"/>
<polygon fill="midnightblue" stroke="midnightblue" points="153.423,-16.6463 143.865,-21.2172 154.187,-23.6044 153.423,-16.6463"/>
</g>
<!-- Node4 -->
<g id="node4" class="node"><title>Node4</title>
<g id="a_node4"><a xlink:href="../../d6/d34/classmodel_1_1_turtle.html#a817b1ab6a35fa3deb30ea4569ab70db1" target="_top" xlink:title="model.Turtle.goHome">
<polygon fill="white" stroke="black" points="350.5,-0.5 350.5,-19.5 469.5,-19.5 469.5,-0.5 350.5,-0.5"/>
<text text-anchor="middle" x="410" y="-7.5" font-family="Helvetica,sans-Serif" font-size="10.00">model.Turtle.goHome</text>
</a>
</g>
</g>
<!-- Node3&#45;&gt;Node4 -->
<g id="edge3" class="edge"><title>Node3&#45;&gt;Node4</title>
<path fill="none" stroke="midnightblue" d="M324.216,-10C333.01,-10 341.872,-10 350.382,-10"/>
<polygon fill="midnightblue" stroke="midnightblue" points="323.949,-6.5001 313.949,-10 323.949,-13.5001 323.949,-6.5001"/>
</g>
<!-- Node5 -->
<g id="node5" class="node"><title>Node5</title>
<g id="a_node5"><a xlink:href="../../d6/d34/classmodel_1_1_turtle.html#a65bffb6b24e40350f6094e054358dcbb" target="_top" xlink:title="model.Turtle.clear">
<polygon fill="white" stroke="black" points="506.5,-0.5 506.5,-19.5 607.5,-19.5 607.5,-0.5 506.5,-0.5"/>
<text text-anchor="middle" x="557" y="-7.5" font-family="Helvetica,sans-Serif" font-size="10.00">model.Turtle.clear</text>
</a>
</g>
</g>
<!-- Node4&#45;&gt;Node5 -->
<g id="edge4" class="edge"><title>Node4&#45;&gt;Node5</title>
<path fill="none" stroke="midnightblue" d="M479.58,-10C488.512,-10 497.523,-10 506.069,-10"/>
<polygon fill="midnightblue" stroke="midnightblue" points="479.559,-6.5001 469.559,-10 479.559,-13.5001 479.559,-6.5001"/>
</g>
</g>
</svg>
