<?xml version="1.0" encoding="UTF-8" standalone="no"?>
<!DOCTYPE svg PUBLIC "-//W3C//DTD SVG 1.1//EN"
 "http://www.w3.org/Graphics/SVG/1.1/DTD/svg11.dtd">
<!-- Generated by graphviz version 2.36.0 (20140111.2315)
 -->
<!-- Title: model.Turtle.setPenSize Pages: 1 -->
<svg width="316pt" height="66pt"
 viewBox="0.00 0.00 316.00 66.00" xmlns="http://www.w3.org/2000/svg" xmlns:xlink="http://www.w3.org/1999/xlink">
<g id="graph0" class="graph" transform="scale(1 1) rotate(0) translate(4 62)">
<title>model.Turtle.setPenSize</title>
<polygon fill="white" stroke="none" points="-4,4 -4,-62 312,-62 312,4 -4,4"/>
<!-- Node1 -->
<g id="node1" class="node"><title>Node1</title>
<polygon fill="#bfbfbf" stroke="black" points="0.5,-19.5 0.5,-38.5 131.5,-38.5 131.5,-19.5 0.5,-19.5"/>
<text text-anchor="middle" x="66" y="-26.5" font-family="Helvetica,sans-Serif" font-size="10.00">model.Turtle.setPenSize</text>
</g>
<!-- Node2 -->
<g id="node2" class="node"><title>Node2</title>
<g id="a_node2"><a xlink:href="../../de/ded/classmodel_1_1_pen.html#a8123fe96876e6f7b6989edf9aa54934a" target="_top" xlink:title="model.Pen.getStrokeType">
<polygon fill="white" stroke="black" points="168.5,-38.5 168.5,-57.5 307.5,-57.5 307.5,-38.5 168.5,-38.5"/>
<text text-anchor="middle" x="238" y="-45.5" font-family="Helvetica,sans-Serif" font-size="10.00">model.Pen.getStrokeType</text>
</a>
</g>
</g>
<!-- Node1&#45;&gt;Node2 -->
<g id="edge1" class="edge"><title>Node1&#45;&gt;Node2</title>
<path fill="none" stroke="midnightblue" d="M131.755,-36.2373C140.481,-37.2126 149.51,-38.2217 158.443,-39.2201"/>
<polygon fill="midnightblue" stroke="midnightblue" points="158.14,-42.7079 168.467,-40.3404 158.918,-35.7513 158.14,-42.7079"/>
</g>
<!-- Node3 -->
<g id="node3" class="node"><title>Node3</title>
<g id="a_node3"><a xlink:href="../../de/ded/classmodel_1_1_pen.html#a00c08e5bfc9d04986e0ff7ae4ceae10b" target="_top" xlink:title="model.Pen.setStroke">
<polygon fill="white" stroke="black" points="179.5,-0.5 179.5,-19.5 296.5,-19.5 296.5,-0.5 179.5,-0.5"/>
<text text-anchor="middle" x="238" y="-7.5" font-family="Helvetica,sans-Serif" font-size="10.00">model.Pen.setStroke</text>
</a>
</g>
</g>
<!-- Node1&#45;&gt;Node3 -->
<g id="edge2" class="edge"><title>Node1&#45;&gt;Node3</title>
<path fill="none" stroke="midnightblue" d="M131.755,-21.7627C143.997,-20.3945 156.834,-18.9597 169.168,-17.5813"/>
<polygon fill="midnightblue" stroke="midnightblue" points="169.836,-21.0284 179.386,-16.4393 169.059,-14.0717 169.836,-21.0284"/>
</g>
</g>
</svg>
