<?xml version="1.0" encoding="UTF-8" standalone="no"?>
<!DOCTYPE svg PUBLIC "-//W3C//DTD SVG 1.1//EN"
 "http://www.w3.org/Graphics/SVG/1.1/DTD/svg11.dtd">
<!-- Generated by graphviz version 2.36.0 (20140111.2315)
 -->
<!-- Title: model.Turtle.setPosition Pages: 1 -->
<svg width="684pt" height="180pt"
 viewBox="0.00 0.00 684.00 180.00" xmlns="http://www.w3.org/2000/svg" xmlns:xlink="http://www.w3.org/1999/xlink">
<g id="graph0" class="graph" transform="scale(1 1) rotate(0) translate(4 176)">
<title>model.Turtle.setPosition</title>
<polygon fill="white" stroke="none" points="-4,4 -4,-176 680,-176 680,4 -4,4"/>
<!-- Node1 -->
<g id="node1" class="node"><title>Node1</title>
<polygon fill="#bfbfbf" stroke="black" points="0.5,-95.5 0.5,-114.5 131.5,-114.5 131.5,-95.5 0.5,-95.5"/>
<text text-anchor="middle" x="66" y="-102.5" font-family="Helvetica,sans-Serif" font-size="10.00">model.Turtle.setPosition</text>
</g>
<!-- Node2 -->
<g id="node2" class="node"><title>Node2</title>
<g id="a_node2"><a xlink:href="../../d4/d67/classutil_1_1_vector.html#a1aea3b29ec9c7374d0d5520ece2085a2" target="_top" xlink:title="util.Vector.distanceBetween">
<polygon fill="white" stroke="black" points="168.5,-152.5 168.5,-171.5 317.5,-171.5 317.5,-152.5 168.5,-152.5"/>
<text text-anchor="middle" x="243" y="-159.5" font-family="Helvetica,sans-Serif" font-size="10.00">util.Vector.distanceBetween</text>
</a>
</g>
</g>
<!-- Node1&#45;&gt;Node2 -->
<g id="edge1" class="edge"><title>Node1&#45;&gt;Node2</title>
<path fill="none" stroke="midnightblue" d="M90.4194,-114.639C110.73,-122.797 141.021,-134.489 168,-143 175.56,-145.385 183.623,-147.692 191.543,-149.827"/>
<polygon fill="midnightblue" stroke="midnightblue" points="190.887,-153.274 201.449,-152.433 192.668,-146.504 190.887,-153.274"/>
</g>
<!-- Node3 -->
<g id="node3" class="node"><title>Node3</title>
<g id="a_node3"><a xlink:href="../../d6/d34/classmodel_1_1_turtle.html#a7ff0491eca6971ab59d549c33469d69e" target="_top" xlink:title="model.Turtle.faceTowards">
<polygon fill="white" stroke="black" points="175,-114.5 175,-133.5 311,-133.5 311,-114.5 175,-114.5"/>
<text text-anchor="middle" x="243" y="-121.5" font-family="Helvetica,sans-Serif" font-size="10.00">model.Turtle.faceTowards</text>
</a>
</g>
</g>
<!-- Node1&#45;&gt;Node3 -->
<g id="edge2" class="edge"><title>Node1&#45;&gt;Node3</title>
<path fill="none" stroke="midnightblue" d="M131.666,-112.021C142.475,-113.194 153.784,-114.422 164.868,-115.626"/>
<polygon fill="midnightblue" stroke="midnightblue" points="164.644,-119.122 174.963,-116.722 165.399,-112.163 164.644,-119.122"/>
</g>
<!-- Node5 -->
<g id="node5" class="node"><title>Node5</title>
<g id="a_node5"><a xlink:href="../../d4/d67/classutil_1_1_vector.html#acebe00e22995a3514458ffa3db195295" target="_top" xlink:title="util.Vector.getDirection">
<polygon fill="white" stroke="black" points="546.5,-76.5 546.5,-95.5 671.5,-95.5 671.5,-76.5 546.5,-76.5"/>
<text text-anchor="middle" x="609" y="-83.5" font-family="Helvetica,sans-Serif" font-size="10.00">util.Vector.getDirection</text>
</a>
</g>
</g>
<!-- Node1&#45;&gt;Node5 -->
<g id="edge8" class="edge"><title>Node1&#45;&gt;Node5</title>
<path fill="none" stroke="midnightblue" d="M131.72,-102.727C233.37,-99.1571 429.766,-92.2596 535.836,-88.5344"/>
<polygon fill="midnightblue" stroke="midnightblue" points="536.254,-92.022 546.125,-88.173 536.009,-85.0263 536.254,-92.022"/>
</g>
<!-- Node8 -->
<g id="node8" class="node"><title>Node8</title>
<g id="a_node8"><a xlink:href="../../d7/d1e/classutil_1_1_location.html#a82f3e59d7d3e3d46df862be2e63c80e3" target="_top" xlink:title="util.Location.translate">
<polygon fill="white" stroke="black" points="183,-38.5 183,-57.5 303,-57.5 303,-38.5 183,-38.5"/>
<text text-anchor="middle" x="243" y="-45.5" font-family="Helvetica,sans-Serif" font-size="10.00">util.Location.translate</text>
</a>
</g>
</g>
<!-- Node1&#45;&gt;Node8 -->
<g id="edge9" class="edge"><title>Node1&#45;&gt;Node8</title>
<path fill="none" stroke="midnightblue" d="M96.1651,-95.4522C116.335,-88.8537 143.793,-79.8799 168,-72 179.324,-68.3138 191.625,-64.3198 202.888,-60.6673"/>
<polygon fill="midnightblue" stroke="midnightblue" points="204.034,-63.9751 212.468,-57.5618 201.876,-57.3163 204.034,-63.9751"/>
</g>
<!-- Node4 -->
<g id="node4" class="node"><title>Node4</title>
<g id="a_node4"><a xlink:href="../../d4/d67/classutil_1_1_vector.html#a3e38cf524cc0903761bbe0cba746fab5" target="_top" xlink:title="util.Vector.getAngleBetween">
<polygon fill="white" stroke="black" points="354.5,-114.5 354.5,-133.5 505.5,-133.5 505.5,-114.5 354.5,-114.5"/>
<text text-anchor="middle" x="430" y="-121.5" font-family="Helvetica,sans-Serif" font-size="10.00">util.Vector.getAngleBetween</text>
</a>
</g>
</g>
<!-- Node3&#45;&gt;Node4 -->
<g id="edge3" class="edge"><title>Node3&#45;&gt;Node4</title>
<path fill="none" stroke="midnightblue" d="M311.051,-124C321.818,-124 333.084,-124 344.201,-124"/>
<polygon fill="midnightblue" stroke="midnightblue" points="344.349,-127.5 354.349,-124 344.349,-120.5 344.349,-127.5"/>
</g>
<!-- Node6 -->
<g id="node6" class="node"><title>Node6</title>
<g id="a_node6"><a xlink:href="../../d4/d67/classutil_1_1_vector.html#a60833e2e656743a823aea9e5899dd301" target="_top" xlink:title="util.Vector.turn">
<polygon fill="white" stroke="black" points="387,-152.5 387,-171.5 473,-171.5 473,-152.5 387,-152.5"/>
<text text-anchor="middle" x="430" y="-159.5" font-family="Helvetica,sans-Serif" font-size="10.00">util.Vector.turn</text>
</a>
</g>
</g>
<!-- Node3&#45;&gt;Node6 -->
<g id="edge5" class="edge"><title>Node3&#45;&gt;Node6</title>
<path fill="none" stroke="midnightblue" d="M290.683,-133.589C316.88,-138.97 349.635,-145.698 376.694,-151.256"/>
<polygon fill="midnightblue" stroke="midnightblue" points="376.26,-154.74 386.76,-153.324 377.669,-147.883 376.26,-154.74"/>
</g>
<!-- Node4&#45;&gt;Node5 -->
<g id="edge4" class="edge"><title>Node4&#45;&gt;Node5</title>
<path fill="none" stroke="midnightblue" d="M475.665,-114.411C499.337,-109.329 528.608,-103.045 553.597,-97.6797"/>
<polygon fill="midnightblue" stroke="midnightblue" points="554.614,-101.041 563.657,-95.5201 553.145,-94.1972 554.614,-101.041"/>
</g>
<!-- Node6&#45;&gt;Node5 -->
<g id="edge7" class="edge"><title>Node6&#45;&gt;Node5</title>
<path fill="none" stroke="midnightblue" d="M473.27,-153.346C484.116,-150.57 495.642,-147.123 506,-143 534.602,-131.614 565.138,-113.697 585.263,-100.993"/>
<polygon fill="midnightblue" stroke="midnightblue" points="587.202,-103.907 593.733,-95.5648 583.425,-98.0135 587.202,-103.907"/>
</g>
<!-- Node7 -->
<g id="node7" class="node"><title>Node7</title>
<g id="a_node7"><a xlink:href="../../d4/d67/classutil_1_1_vector.html#a338b7c1377d3bc795527c2fbeeb25639" target="_top" xlink:title="util.Vector.setDirection">
<polygon fill="white" stroke="black" points="546.5,-152.5 546.5,-171.5 671.5,-171.5 671.5,-152.5 546.5,-152.5"/>
<text text-anchor="middle" x="609" y="-159.5" font-family="Helvetica,sans-Serif" font-size="10.00">util.Vector.setDirection</text>
</a>
</g>
</g>
<!-- Node6&#45;&gt;Node7 -->
<g id="edge6" class="edge"><title>Node6&#45;&gt;Node7</title>
<path fill="none" stroke="midnightblue" d="M473.396,-162C492.202,-162 514.861,-162 536.181,-162"/>
<polygon fill="midnightblue" stroke="midnightblue" points="536.188,-165.5 546.188,-162 536.188,-158.5 536.188,-165.5"/>
</g>
<!-- Node9 -->
<g id="node9" class="node"><title>Node9</title>
<g id="a_node9"><a xlink:href="../../d4/d67/classutil_1_1_vector.html#a3509d652ff8c361b07447f55e0007f31" target="_top" xlink:title="util.Vector.getXChange">
<polygon fill="white" stroke="black" points="367.5,-0.5 367.5,-19.5 492.5,-19.5 492.5,-0.5 367.5,-0.5"/>
<text text-anchor="middle" x="430" y="-7.5" font-family="Helvetica,sans-Serif" font-size="10.00">util.Vector.getXChange</text>
</a>
</g>
</g>
<!-- Node8&#45;&gt;Node9 -->
<g id="edge10" class="edge"><title>Node8&#45;&gt;Node9</title>
<path fill="none" stroke="midnightblue" d="M290.683,-38.411C315.646,-33.2835 346.564,-26.9328 372.834,-21.5368"/>
<polygon fill="midnightblue" stroke="midnightblue" points="373.561,-24.9606 382.652,-19.5201 372.153,-18.1038 373.561,-24.9606"/>
</g>
<!-- Node11 -->
<g id="node11" class="node"><title>Node11</title>
<g id="a_node11"><a xlink:href="../../d4/d67/classutil_1_1_vector.html#aca15e89ce2edd3e93dcb73621c26237f" target="_top" xlink:title="util.Vector.getYChange">
<polygon fill="white" stroke="black" points="368,-38.5 368,-57.5 492,-57.5 492,-38.5 368,-38.5"/>
<text text-anchor="middle" x="430" y="-45.5" font-family="Helvetica,sans-Serif" font-size="10.00">util.Vector.getYChange</text>
</a>
</g>
</g>
<!-- Node8&#45;&gt;Node11 -->
<g id="edge13" class="edge"><title>Node8&#45;&gt;Node11</title>
<path fill="none" stroke="midnightblue" d="M303.044,-48C320.45,-48 339.684,-48 357.77,-48"/>
<polygon fill="midnightblue" stroke="midnightblue" points="357.972,-51.5001 367.972,-48 357.971,-44.5001 357.972,-51.5001"/>
</g>
<!-- Node9&#45;&gt;Node5 -->
<g id="edge12" class="edge"><title>Node9&#45;&gt;Node5</title>
<path fill="none" stroke="midnightblue" d="M476.82,-19.5807C486.602,-22.1852 496.765,-25.3237 506,-29 513.874,-32.1345 554.931,-55.465 582.495,-71.2892"/>
<polygon fill="midnightblue" stroke="midnightblue" points="580.844,-74.3772 591.257,-76.3279 584.333,-68.3089 580.844,-74.3772"/>
</g>
<!-- Node10 -->
<g id="node10" class="node"><title>Node10</title>
<g id="a_node10"><a xlink:href="../../d4/d67/classutil_1_1_vector.html#afa760c6d12c93fbfcfacd6e279d08d88" target="_top" xlink:title="util.Vector.getMagnitude">
<polygon fill="white" stroke="black" points="542.5,-19.5 542.5,-38.5 675.5,-38.5 675.5,-19.5 542.5,-19.5"/>
<text text-anchor="middle" x="609" y="-26.5" font-family="Helvetica,sans-Serif" font-size="10.00">util.Vector.getMagnitude</text>
</a>
</g>
</g>
<!-- Node9&#45;&gt;Node10 -->
<g id="edge11" class="edge"><title>Node9&#45;&gt;Node10</title>
<path fill="none" stroke="midnightblue" d="M492.906,-16.6453C505.617,-18.0097 519.134,-19.4607 532.268,-20.8706"/>
<polygon fill="midnightblue" stroke="midnightblue" points="531.901,-24.3512 542.218,-21.9386 532.648,-17.3912 531.901,-24.3512"/>
</g>
<!-- Node11&#45;&gt;Node5 -->
<g id="edge15" class="edge"><title>Node11&#45;&gt;Node5</title>
<path fill="none" stroke="midnightblue" d="M475.665,-57.589C499.337,-62.6713 528.608,-68.9554 553.597,-74.3203"/>
<polygon fill="midnightblue" stroke="midnightblue" points="553.145,-77.8028 563.657,-76.4799 554.614,-70.9588 553.145,-77.8028"/>
</g>
<!-- Node11&#45;&gt;Node10 -->
<g id="edge14" class="edge"><title>Node11&#45;&gt;Node10</title>
<path fill="none" stroke="midnightblue" d="M492.409,-41.408C505.299,-40.0244 519.037,-38.5497 532.376,-37.1178"/>
<polygon fill="midnightblue" stroke="midnightblue" points="532.909,-40.5808 542.479,-36.0334 532.162,-33.6207 532.909,-40.5808"/>
</g>
</g>
</svg>
