<?xml version="1.0" encoding="UTF-8" standalone="no"?>
<!DOCTYPE svg PUBLIC "-//W3C//DTD SVG 1.1//EN"
 "http://www.w3.org/Graphics/SVG/1.1/DTD/svg11.dtd">
<!-- Generated by graphviz version 2.36.0 (20140111.2315)
 -->
<!-- Title: model.Turtle.paintTurtle Pages: 1 -->
<svg width="802pt" height="47pt"
 viewBox="0.00 0.00 802.00 47.00" xmlns="http://www.w3.org/2000/svg" xmlns:xlink="http://www.w3.org/1999/xlink">
<g id="graph0" class="graph" transform="scale(1 1) rotate(0) translate(4 43)">
<title>model.Turtle.paintTurtle</title>
<polygon fill="white" stroke="none" points="-4,4 -4,-43 798,-43 798,4 -4,4"/>
<!-- Node1 -->
<g id="node1" class="node"><title>Node1</title>
<polygon fill="#bfbfbf" stroke="black" points="0,-19.5 0,-38.5 128,-38.5 128,-19.5 0,-19.5"/>
<text text-anchor="middle" x="64" y="-26.5" font-family="Helvetica,sans-Serif" font-size="10.00">model.Turtle.paintTurtle</text>
</g>
<!-- Node2 -->
<g id="node2" class="node"><title>Node2</title>
<g id="a_node2"><a xlink:href="../../d6/d34/classmodel_1_1_turtle.html#a7d850c710649567ac20161f847b2ad11" target="_top" xlink:title="model.Turtle.paint">
<polygon fill="white" stroke="black" points="334,-19.5 334,-38.5 436,-38.5 436,-19.5 334,-19.5"/>
<text text-anchor="middle" x="385" y="-26.5" font-family="Helvetica,sans-Serif" font-size="10.00">model.Turtle.paint</text>
</a>
</g>
</g>
<!-- Node1&#45;&gt;Node2 -->
<g id="edge1" class="edge"><title>Node1&#45;&gt;Node2</title>
<path fill="none" stroke="midnightblue" d="M138.184,-29C198.13,-29 281.353,-29 333.936,-29"/>
<polygon fill="midnightblue" stroke="midnightblue" points="138.024,-25.5001 128.024,-29 138.024,-32.5001 138.024,-25.5001"/>
</g>
<!-- Node5 -->
<g id="node5" class="node"><title>Node5</title>
<g id="a_node5"><a xlink:href="../../d6/d34/classmodel_1_1_turtle.html#aae6d22acacfa7bd29fb818f4f9dd3d2e" target="_top" xlink:title="model.Turtle.paintStamp">
<polygon fill="white" stroke="black" points="164,-0.5 164,-19.5 298,-19.5 298,-0.5 164,-0.5"/>
<text text-anchor="middle" x="231" y="-7.5" font-family="Helvetica,sans-Serif" font-size="10.00">model.Turtle.paintStamp</text>
</a>
</g>
</g>
<!-- Node1&#45;&gt;Node5 -->
<g id="edge4" class="edge"><title>Node1&#45;&gt;Node5</title>
<path fill="none" stroke="midnightblue" d="M138.52,-20.534C146.952,-19.5631 155.511,-18.5775 163.839,-17.6185"/>
<polygon fill="midnightblue" stroke="midnightblue" points="137.855,-17.0874 128.321,-21.7084 138.656,-24.0414 137.855,-17.0874"/>
</g>
<!-- Node3 -->
<g id="node3" class="node"><title>Node3</title>
<g id="a_node3"><a xlink:href="../../d8/dff/classmodel_1_1_turtle_manager.html#a7f2863fbe8420cb5859ab922bd866b1d" target="_top" xlink:title="model.TurtleManager.paint">
<polygon fill="white" stroke="black" points="472.5,-19.5 472.5,-38.5 615.5,-38.5 615.5,-19.5 472.5,-19.5"/>
<text text-anchor="middle" x="544" y="-26.5" font-family="Helvetica,sans-Serif" font-size="10.00">model.TurtleManager.paint</text>
</a>
</g>
</g>
<!-- Node2&#45;&gt;Node3 -->
<g id="edge2" class="edge"><title>Node2&#45;&gt;Node3</title>
<path fill="none" stroke="midnightblue" d="M446.356,-29C454.905,-29 463.758,-29 472.479,-29"/>
<polygon fill="midnightblue" stroke="midnightblue" points="446.107,-25.5001 436.107,-29 446.107,-32.5001 446.107,-25.5001"/>
</g>
<!-- Node4 -->
<g id="node4" class="node"><title>Node4</title>
<g id="a_node4"><a xlink:href="../../de/d84/classcontroller_1_1_workspace.html#aa3ec59da02e89f7882fb31677330af80" target="_top" xlink:title="controller.Workspace.paint">
<polygon fill="white" stroke="black" points="652,-19.5 652,-38.5 794,-38.5 794,-19.5 652,-19.5"/>
<text text-anchor="middle" x="723" y="-26.5" font-family="Helvetica,sans-Serif" font-size="10.00">controller.Workspace.paint</text>
</a>
</g>
</g>
<!-- Node3&#45;&gt;Node4 -->
<g id="edge3" class="edge"><title>Node3&#45;&gt;Node4</title>
<path fill="none" stroke="midnightblue" d="M625.879,-29C634.591,-29 643.402,-29 651.971,-29"/>
<polygon fill="midnightblue" stroke="midnightblue" points="625.718,-25.5001 615.718,-29 625.718,-32.5001 625.718,-25.5001"/>
</g>
<!-- Node5&#45;&gt;Node2 -->
<g id="edge5" class="edge"><title>Node5&#45;&gt;Node2</title>
<path fill="none" stroke="midnightblue" d="M308.404,-19.5505C317.093,-20.6366 325.775,-21.7219 333.996,-22.7495"/>
<polygon fill="midnightblue" stroke="midnightblue" points="308.584,-16.0459 298.227,-18.2784 307.716,-22.9918 308.584,-16.0459"/>
</g>
</g>
</svg>
