<?xml version="1.0" encoding="UTF-8" standalone="no"?>
<!DOCTYPE svg PUBLIC "-//W3C//DTD SVG 1.1//EN"
 "http://www.w3.org/Graphics/SVG/1.1/DTD/svg11.dtd">
<!-- Generated by graphviz version 2.36.0 (20140111.2315)
 -->
<!-- Title: model.Turtle.paint Pages: 1 -->
<!--zoomable 209 -->
<svg id="main" version="1.1" xmlns="http://www.w3.org/2000/svg" xmlns:xlink="http://www.w3.org/1999/xlink" xml:space="preserve" onload="init(evt)">
<style type="text/css"><![CDATA[
.edge:hover path { stroke: red; }
.edge:hover polygon { stroke: red; fill: red; }
]]></style>
<script type="text/javascript"><![CDATA[
var edges = document.getElementsByTagName('g');
if (edges && edges.length) {
  for (var i=0;i<edges.length;i++) {
    if (edges[i].id.substr(0,4)=='edge') {
      edges[i].setAttribute('class','edge');
    }
  }
}
]]></script>
        <defs>
                <circle id="rim" cx="0" cy="0" r="7"/>
                <circle id="rim2" cx="0" cy="0" r="3.5"/>
                <g id="zoomPlus">
                        <use xlink:href="#rim" fill="#404040">
                                <set attributeName="fill" to="#808080" begin="zoomplus.mouseover" end="zoomplus.mouseout"/>
                        </use>
                        <path d="M-4,0h8M0,-4v8" fill="none" stroke="white" stroke-width="1.5" pointer-events="none"/>
                </g>
                <g id="zoomMin">
                        <use xlink:href="#rim" fill="#404040">
                                <set attributeName="fill" to="#808080" begin="zoomminus.mouseover" end="zoomminus.mouseout"/>
                        </use>
                        <path d="M-4,0h8" fill="none" stroke="white" stroke-width="1.5" pointer-events="none"/>
                </g>
                <g id="dirArrow">
                        <path fill="none" stroke="white" stroke-width="1.5" d="M0,-3.0v7 M-2.5,-0.5L0,-3.0L2.5,-0.5"/>
                </g>
               <g id="resetDef">
                       <use xlink:href="#rim2" fill="#404040">
                               <set attributeName="fill" to="#808080" begin="reset.mouseover" end="reset.mouseout"/>
                       </use>
               </g>
        </defs>

<script type="text/javascript">
var viewWidth = 776;
var viewHeight = 209;
var sectionId = 'dynsection-20';
</script>
<script xlink:href="../../svgpan.js"/>
<svg id="graph" class="graph">
<g id="viewport">
<title>model.Turtle.paint</title>
<polygon fill="white" stroke="none" points="-4,4 -4,-205 772,-205 772,4 -4,4"/>
<!-- Node1 -->
<g id="node1" class="node"><title>Node1</title>
<polygon fill="#bfbfbf" stroke="black" points="0,-76.5 0,-95.5 102,-95.5 102,-76.5 0,-76.5"/>
<text text-anchor="middle" x="51" y="-83.5" font-family="Helvetica,sans-Serif" font-size="10.00">model.Turtle.paint</text>
</g>
<!-- Node2 -->
<g id="node2" class="node"><title>Node2</title>
<g id="a_node2"><a xlink:href="../../d6/d34/classmodel_1_1_turtle.html#aeeab176e64d1ad18647e37aee02affc7" target="_top" xlink:title="model.Turtle.getPainting\lPoint">
<polygon fill="white" stroke="black" points="139.5,-153 139.5,-183 270.5,-183 270.5,-153 139.5,-153"/>
<text text-anchor="start" x="147.5" y="-171" font-family="Helvetica,sans-Serif" font-size="10.00">model.Turtle.getPainting</text>
<text text-anchor="middle" x="205" y="-160" font-family="Helvetica,sans-Serif" font-size="10.00">Point</text>
</a>
</g>
</g>
<!-- Node1&#45;&gt;Node2 -->
<g id="edge1" class="edge"><title>Node1&#45;&gt;Node2</title>
<path fill="none" stroke="midnightblue" d="M66.6102,-95.5572C83.4813,-106.422 112.226,-124.41 138,-138 144.889,-141.632 152.303,-145.261 159.587,-148.677"/>
<polygon fill="midnightblue" stroke="midnightblue" points="158.146,-151.866 168.693,-152.872 161.075,-145.509 158.146,-151.866"/>
</g>
<!-- Node8 -->
<g id="node8" class="node"><title>Node8</title>
<g id="a_node8"><a xlink:href="../../de/ded/classmodel_1_1_pen.html#aae048b738178ae20513d49cbd5a3740c" target="_top" xlink:title="model.Pen.paint">
<polygon fill="white" stroke="black" points="157.5,-0.5 157.5,-19.5 252.5,-19.5 252.5,-0.5 157.5,-0.5"/>
<text text-anchor="middle" x="205" y="-7.5" font-family="Helvetica,sans-Serif" font-size="10.00">model.Pen.paint</text>
</a>
</g>
</g>
<!-- Node1&#45;&gt;Node8 -->
<g id="edge9" class="edge"><title>Node1&#45;&gt;Node8</title>
<path fill="none" stroke="midnightblue" d="M65.8306,-76.4748C82.4421,-65.3126 111.402,-46.7274 138,-34 146.31,-30.0234 155.465,-26.3034 164.242,-23.0349"/>
<polygon fill="midnightblue" stroke="midnightblue" points="165.703,-26.2289 173.925,-19.547 163.33,-19.6431 165.703,-26.2289"/>
</g>
<!-- Node9 -->
<g id="node9" class="node"><title>Node9</title>
<g id="a_node9"><a xlink:href="../../d6/d34/classmodel_1_1_turtle.html#aae6d22acacfa7bd29fb818f4f9dd3d2e" target="_top" xlink:title="model.Turtle.paintStamp">
<polygon fill="white" stroke="black" points="138,-76.5 138,-95.5 272,-95.5 272,-76.5 138,-76.5"/>
<text text-anchor="middle" x="205" y="-83.5" font-family="Helvetica,sans-Serif" font-size="10.00">model.Turtle.paintStamp</text>
</a>
</g>
</g>
<!-- Node1&#45;&gt;Node9 -->
<g id="edge10" class="edge"><title>Node1&#45;&gt;Node9</title>
<path fill="none" stroke="midnightblue" d="M102.192,-86C110.396,-86 119.055,-86 127.72,-86"/>
<polygon fill="midnightblue" stroke="midnightblue" points="127.866,-89.5001 137.866,-86 127.866,-82.5001 127.866,-89.5001"/>
</g>
<!-- Node10 -->
<g id="node10" class="node"><title>Node10</title>
<g id="a_node10"><a xlink:href="../../d6/d34/classmodel_1_1_turtle.html#ad0ffa5dc7c5e9876e0083f4232035679" target="_top" xlink:title="model.Turtle.transform">
<polygon fill="white" stroke="black" points="309.5,-105.5 309.5,-124.5 434.5,-124.5 434.5,-105.5 309.5,-105.5"/>
<text text-anchor="middle" x="372" y="-112.5" font-family="Helvetica,sans-Serif" font-size="10.00">model.Turtle.transform</text>
</a>
</g>
</g>
<!-- Node1&#45;&gt;Node10 -->
<g id="edge17" class="edge"><title>Node1&#45;&gt;Node10</title>
<path fill="none" stroke="midnightblue" d="M88.578,-95.5592C103.761,-99.14 121.626,-102.857 138,-105 191.746,-112.036 252.999,-114.447 299.209,-115.147"/>
<polygon fill="midnightblue" stroke="midnightblue" points="299.382,-118.65 309.426,-115.278 299.471,-111.65 299.382,-118.65"/>
</g>
<!-- Node11 -->
<g id="node11" class="node"><title>Node11</title>
<g id="a_node11"><a xlink:href="../../d6/d34/classmodel_1_1_turtle.html#a91368e42c1530a73f909499d8d7b8ef3" target="_top" xlink:title="model.Turtle.paintTurtle">
<polygon fill="white" stroke="black" points="308,-57.5 308,-76.5 436,-76.5 436,-57.5 308,-57.5"/>
<text text-anchor="middle" x="372" y="-64.5" font-family="Helvetica,sans-Serif" font-size="10.00">model.Turtle.paintTurtle</text>
</a>
</g>
</g>
<!-- Node1&#45;&gt;Node11 -->
<g id="edge16" class="edge"><title>Node1&#45;&gt;Node11</title>
<path fill="none" stroke="midnightblue" d="M86.8607,-76.4919C102.387,-72.7272 120.976,-68.8582 138,-67 191.087,-61.2056 251.384,-61.3874 297.337,-62.9226"/>
<polygon fill="midnightblue" stroke="midnightblue" points="297.387,-66.4267 307.507,-63.2922 297.641,-59.4313 297.387,-66.4267"/>
</g>
<!-- Node3 -->
<g id="node3" class="node"><title>Node3</title>
<g id="a_node3"><a xlink:href="../../d7/d1e/classutil_1_1_location.html#a82f3e59d7d3e3d46df862be2e63c80e3" target="_top" xlink:title="util.Location.translate">
<polygon fill="white" stroke="black" points="312,-158.5 312,-177.5 432,-177.5 432,-158.5 312,-158.5"/>
<text text-anchor="middle" x="372" y="-165.5" font-family="Helvetica,sans-Serif" font-size="10.00">util.Location.translate</text>
</a>
</g>
</g>
<!-- Node2&#45;&gt;Node3 -->
<g id="edge2" class="edge"><title>Node2&#45;&gt;Node3</title>
<path fill="none" stroke="midnightblue" d="M270.739,-168C280.896,-168 291.43,-168 301.685,-168"/>
<polygon fill="midnightblue" stroke="midnightblue" points="301.823,-171.5 311.823,-168 301.823,-164.5 301.823,-171.5"/>
</g>
<!-- Node4 -->
<g id="node4" class="node"><title>Node4</title>
<g id="a_node4"><a xlink:href="../../d4/d67/classutil_1_1_vector.html#a3509d652ff8c361b07447f55e0007f31" target="_top" xlink:title="util.Vector.getXChange">
<polygon fill="white" stroke="black" points="472.5,-181.5 472.5,-200.5 597.5,-200.5 597.5,-181.5 472.5,-181.5"/>
<text text-anchor="middle" x="535" y="-188.5" font-family="Helvetica,sans-Serif" font-size="10.00">util.Vector.getXChange</text>
</a>
</g>
</g>
<!-- Node3&#45;&gt;Node4 -->
<g id="edge3" class="edge"><title>Node3&#45;&gt;Node4</title>
<path fill="none" stroke="midnightblue" d="M432.036,-176.434C441.863,-177.838 452.151,-179.307 462.252,-180.75"/>
<polygon fill="midnightblue" stroke="midnightblue" points="461.873,-184.232 472.268,-182.181 462.863,-177.302 461.873,-184.232"/>
</g>
<!-- Node7 -->
<g id="node7" class="node"><title>Node7</title>
<g id="a_node7"><a xlink:href="../../d4/d67/classutil_1_1_vector.html#aca15e89ce2edd3e93dcb73621c26237f" target="_top" xlink:title="util.Vector.getYChange">
<polygon fill="white" stroke="black" points="473,-143.5 473,-162.5 597,-162.5 597,-143.5 473,-143.5"/>
<text text-anchor="middle" x="535" y="-150.5" font-family="Helvetica,sans-Serif" font-size="10.00">util.Vector.getYChange</text>
</a>
</g>
</g>
<!-- Node3&#45;&gt;Node7 -->
<g id="edge6" class="edge"><title>Node3&#45;&gt;Node7</title>
<path fill="none" stroke="midnightblue" d="M432.036,-162.5C441.998,-161.572 452.433,-160.599 462.667,-159.646"/>
<polygon fill="midnightblue" stroke="midnightblue" points="463.178,-163.114 472.81,-158.701 462.528,-156.144 463.178,-163.114"/>
</g>
<!-- Node5 -->
<g id="node5" class="node"><title>Node5</title>
<g id="a_node5"><a xlink:href="../../d4/d67/classutil_1_1_vector.html#afa760c6d12c93fbfcfacd6e279d08d88" target="_top" xlink:title="util.Vector.getMagnitude">
<polygon fill="white" stroke="black" points="634.5,-181.5 634.5,-200.5 767.5,-200.5 767.5,-181.5 634.5,-181.5"/>
<text text-anchor="middle" x="701" y="-188.5" font-family="Helvetica,sans-Serif" font-size="10.00">util.Vector.getMagnitude</text>
</a>
</g>
</g>
<!-- Node4&#45;&gt;Node5 -->
<g id="edge4" class="edge"><title>Node4&#45;&gt;Node5</title>
<path fill="none" stroke="midnightblue" d="M597.534,-191C606.251,-191 615.298,-191 624.244,-191"/>
<polygon fill="midnightblue" stroke="midnightblue" points="624.28,-194.5 634.28,-191 624.28,-187.5 624.28,-194.5"/>
</g>
<!-- Node6 -->
<g id="node6" class="node"><title>Node6</title>
<g id="a_node6"><a xlink:href="../../d4/d67/classutil_1_1_vector.html#acebe00e22995a3514458ffa3db195295" target="_top" xlink:title="util.Vector.getDirection">
<polygon fill="white" stroke="black" points="638.5,-143.5 638.5,-162.5 763.5,-162.5 763.5,-143.5 638.5,-143.5"/>
<text text-anchor="middle" x="701" y="-150.5" font-family="Helvetica,sans-Serif" font-size="10.00">util.Vector.getDirection</text>
</a>
</g>
</g>
<!-- Node4&#45;&gt;Node6 -->
<g id="edge5" class="edge"><title>Node4&#45;&gt;Node6</title>
<path fill="none" stroke="midnightblue" d="M577.384,-181.411C599.123,-176.374 625.957,-170.156 648.975,-164.823"/>
<polygon fill="midnightblue" stroke="midnightblue" points="649.962,-168.187 658.913,-162.52 648.381,-161.368 649.962,-168.187"/>
</g>
<!-- Node7&#45;&gt;Node5 -->
<g id="edge7" class="edge"><title>Node7&#45;&gt;Node5</title>
<path fill="none" stroke="midnightblue" d="M577.384,-162.589C599.123,-167.626 625.957,-173.844 648.975,-179.177"/>
<polygon fill="midnightblue" stroke="midnightblue" points="648.381,-182.632 658.913,-181.48 649.962,-175.813 648.381,-182.632"/>
</g>
<!-- Node7&#45;&gt;Node6 -->
<g id="edge8" class="edge"><title>Node7&#45;&gt;Node6</title>
<path fill="none" stroke="midnightblue" d="M597.068,-153C607.176,-153 617.74,-153 628.086,-153"/>
<polygon fill="midnightblue" stroke="midnightblue" points="628.335,-156.5 638.335,-153 628.334,-149.5 628.335,-156.5"/>
</g>
<!-- Node9&#45;&gt;Node10 -->
<g id="edge11" class="edge"><title>Node9&#45;&gt;Node10</title>
<path fill="none" stroke="midnightblue" d="M260.484,-95.5761C275.346,-98.188 291.583,-101.042 306.925,-103.738"/>
<polygon fill="midnightblue" stroke="midnightblue" points="306.399,-107.199 316.854,-105.483 307.611,-100.305 306.399,-107.199"/>
</g>
<!-- Node9&#45;&gt;Node11 -->
<g id="edge13" class="edge"><title>Node9&#45;&gt;Node11</title>
<path fill="none" stroke="midnightblue" d="M272.161,-78.3815C280.603,-77.4094 289.282,-76.4099 297.827,-75.426"/>
<polygon fill="midnightblue" stroke="midnightblue" points="298.239,-78.9018 307.773,-74.2807 297.438,-71.9478 298.239,-78.9018"/>
</g>
<!-- Node10&#45;&gt;Node6 -->
<g id="edge12" class="edge"><title>Node10&#45;&gt;Node6</title>
<path fill="none" stroke="midnightblue" d="M434.778,-118.548C480.085,-121.556 543.029,-126.578 598,-134 613.012,-136.027 629.167,-138.772 644.096,-141.546"/>
<polygon fill="midnightblue" stroke="midnightblue" points="643.728,-145.038 654.205,-143.461 645.032,-138.161 643.728,-145.038"/>
</g>
<!-- Node12 -->
<g id="node12" class="node"><title>Node12</title>
<g id="a_node12"><a xlink:href="../../d7/d1e/classutil_1_1_location.html#a232168bda0ff164c4721dea19a7630d8" target="_top" xlink:title="util.Location.getIntX">
<polygon fill="white" stroke="black" points="479.5,-24.5 479.5,-43.5 590.5,-43.5 590.5,-24.5 479.5,-24.5"/>
<text text-anchor="middle" x="535" y="-31.5" font-family="Helvetica,sans-Serif" font-size="10.00">util.Location.getIntX</text>
</a>
</g>
</g>
<!-- Node11&#45;&gt;Node12 -->
<g id="edge14" class="edge"><title>Node11&#45;&gt;Node12</title>
<path fill="none" stroke="midnightblue" d="M419.568,-57.455C437.674,-53.7439 458.583,-49.4581 477.535,-45.5735"/>
<polygon fill="midnightblue" stroke="midnightblue" points="478.443,-48.9603 487.537,-43.5235 477.038,-42.1028 478.443,-48.9603"/>
</g>
<!-- Node13 -->
<g id="node13" class="node"><title>Node13</title>
<g id="a_node13"><a xlink:href="../../d7/d1e/classutil_1_1_location.html#a1157d4dc33776ed2764c74e0f8390abe" target="_top" xlink:title="util.Location.getIntY">
<polygon fill="white" stroke="black" points="480,-62.5 480,-81.5 590,-81.5 590,-62.5 480,-62.5"/>
<text text-anchor="middle" x="535" y="-69.5" font-family="Helvetica,sans-Serif" font-size="10.00">util.Location.getIntY</text>
</a>
</g>
</g>
<!-- Node11&#45;&gt;Node13 -->
<g id="edge15" class="edge"><title>Node11&#45;&gt;Node13</title>
<path fill="none" stroke="midnightblue" d="M436.169,-68.9618C447.231,-69.3053 458.751,-69.6631 469.839,-70.0074"/>
<polygon fill="midnightblue" stroke="midnightblue" points="469.771,-73.5069 479.875,-70.3191 469.988,-66.5103 469.771,-73.5069"/>
</g>
</g>
</svg>
        <g id="navigator" transform="translate(0 0)" fill="#404254">
                <rect fill="#f2f5e9" fill-opacity="0.5" stroke="#606060" stroke-width=".5" x="0" y="0" width="60" height="60"/>
                <use id="zoomplus" xlink:href="#zoomPlus" x="17" y="9" onmousedown="handleZoom(evt,'in')"/>
                <use id="zoomminus" xlink:href="#zoomMin" x="42" y="9" onmousedown="handleZoom(evt,'out')"/>
                <use id="reset" xlink:href="#resetDef" x="30" y="36" onmousedown="handleReset()"/>
                <g id="arrowUp" xlink:href="#dirArrow" transform="translate(30 24)" onmousedown="handlePan(0,-1)">
                  <use xlink:href="#rim" fill="#404040">
                        <set attributeName="fill" to="#808080" begin="arrowUp.mouseover" end="arrowUp.mouseout"/>
                  </use>
                  <path fill="none" stroke="white" stroke-width="1.5" d="M0,-3.0v7 M-2.5,-0.5L0,-3.0L2.5,-0.5"/>
                </g>
                <g id="arrowRight" xlink:href="#dirArrow" transform="rotate(90) translate(36 -43)" onmousedown="handlePan(1,0)">
                  <use xlink:href="#rim" fill="#404040">
                        <set attributeName="fill" to="#808080" begin="arrowRight.mouseover" end="arrowRight.mouseout"/>
                  </use>
                  <path fill="none" stroke="white" stroke-width="1.5" d="M0,-3.0v7 M-2.5,-0.5L0,-3.0L2.5,-0.5"/>
                </g>
                <g id="arrowDown" xlink:href="#dirArrow" transform="rotate(180) translate(-30 -48)" onmousedown="handlePan(0,1)">
                  <use xlink:href="#rim" fill="#404040">
                        <set attributeName="fill" to="#808080" begin="arrowDown.mouseover" end="arrowDown.mouseout"/>
                  </use>
                  <path fill="none" stroke="white" stroke-width="1.5" d="M0,-3.0v7 M-2.5,-0.5L0,-3.0L2.5,-0.5"/>
                </g>
                <g id="arrowLeft" xlink:href="#dirArrow" transform="rotate(270) translate(-36 17)" onmousedown="handlePan(-1,0)">
                  <use xlink:href="#rim" fill="#404040">
                        <set attributeName="fill" to="#808080" begin="arrowLeft.mouseover" end="arrowLeft.mouseout"/>
                  </use>
                  <path fill="none" stroke="white" stroke-width="1.5" d="M0,-3.0v7 M-2.5,-0.5L0,-3.0L2.5,-0.5"/>
                </g>
        </g>
        <svg viewBox="0 0 15 15" width="100%" height="30px" preserveAspectRatio="xMaxYMin meet">
         <g id="arrow_out" transform="scale(0.3 0.3)">
          <a xlink:href="classmodel_1_1_turtle_a7d850c710649567ac20161f847b2ad11_cgraph_org.svg" target="_base">
           <rect id="button" ry="5" rx="5" y="6" x="6" height="38" width="38"
                fill="#f2f5e9" fill-opacity="0.5" stroke="#606060" stroke-width="1.0"/>
           <path id="arrow"
             d="M 11.500037,31.436501 C 11.940474,20.09759 22.043105,11.32322 32.158766,21.979434 L 37.068811,17.246167 C 37.068811,17.246167 37.088388,32 37.088388,32 L 22.160133,31.978069 C 22.160133,31.978069 26.997745,27.140456 26.997745,27.140456 C 18.528582,18.264221 13.291696,25.230495 11.500037,31.436501 z"
             style="fill:#404040;"/>
          </a>
         </g>
        </svg>
</svg>
