<?xml version="1.0" encoding="UTF-8" standalone="no"?>
<!DOCTYPE svg PUBLIC "-//W3C//DTD SVG 1.1//EN"
 "http://www.w3.org/Graphics/SVG/1.1/DTD/svg11.dtd">
<!-- Generated by graphviz version 2.36.0 (20140111.2315)
 -->
<!-- Title: model.Turtle.boundsExceeded Pages: 1 -->
<svg width="316pt" height="66pt"
 viewBox="0.00 0.00 316.00 66.00" xmlns="http://www.w3.org/2000/svg" xmlns:xlink="http://www.w3.org/1999/xlink">
<g id="graph0" class="graph" transform="scale(1 1) rotate(0) translate(4 62)">
<title>model.Turtle.boundsExceeded</title>
<polygon fill="white" stroke="none" points="-4,4 -4,-62 312,-62 312,4 -4,4"/>
<!-- Node1 -->
<g id="node1" class="node"><title>Node1</title>
<polygon fill="#bfbfbf" stroke="black" points="0,-19.5 0,-38.5 160,-38.5 160,-19.5 0,-19.5"/>
<text text-anchor="middle" x="80" y="-26.5" font-family="Helvetica,sans-Serif" font-size="10.00">model.Turtle.boundsExceeded</text>
</g>
<!-- Node2 -->
<g id="node2" class="node"><title>Node2</title>
<g id="a_node2"><a xlink:href="../../d7/d1e/classutil_1_1_location.html#a232168bda0ff164c4721dea19a7630d8" target="_top" xlink:title="util.Location.getIntX">
<polygon fill="white" stroke="black" points="196.5,-38.5 196.5,-57.5 307.5,-57.5 307.5,-38.5 196.5,-38.5"/>
<text text-anchor="middle" x="252" y="-45.5" font-family="Helvetica,sans-Serif" font-size="10.00">util.Location.getIntX</text>
</a>
</g>
</g>
<!-- Node1&#45;&gt;Node2 -->
<g id="edge1" class="edge"><title>Node1&#45;&gt;Node2</title>
<path fill="none" stroke="midnightblue" d="M160.028,-37.8325C168.877,-38.8216 177.814,-39.8204 186.451,-40.7857"/>
<polygon fill="midnightblue" stroke="midnightblue" points="186.102,-44.2684 196.429,-41.9009 186.88,-37.3117 186.102,-44.2684"/>
</g>
<!-- Node3 -->
<g id="node3" class="node"><title>Node3</title>
<g id="a_node3"><a xlink:href="../../d7/d1e/classutil_1_1_location.html#a1157d4dc33776ed2764c74e0f8390abe" target="_top" xlink:title="util.Location.getIntY">
<polygon fill="white" stroke="black" points="197,-0.5 197,-19.5 307,-19.5 307,-0.5 197,-0.5"/>
<text text-anchor="middle" x="252" y="-7.5" font-family="Helvetica,sans-Serif" font-size="10.00">util.Location.getIntY</text>
</a>
</g>
</g>
<!-- Node1&#45;&gt;Node3 -->
<g id="edge2" class="edge"><title>Node1&#45;&gt;Node3</title>
<path fill="none" stroke="midnightblue" d="M160.028,-20.1675C169.002,-19.1645 178.066,-18.1515 186.815,-17.1736"/>
<polygon fill="midnightblue" stroke="midnightblue" points="187.37,-20.6335 196.919,-16.0444 186.592,-13.6768 187.37,-20.6335"/>
</g>
</g>
</svg>
