<?xml version="1.0" encoding="UTF-8" standalone="no"?>
<!DOCTYPE svg PUBLIC "-//W3C//DTD SVG 1.1//EN"
 "http://www.w3.org/Graphics/SVG/1.1/DTD/svg11.dtd">
<!-- Generated by graphviz version 2.36.0 (20140111.2315)
 -->
<!-- Title: model.Turtle.paintStamp Pages: 1 -->
<svg width="468pt" height="104pt"
 viewBox="0.00 0.00 468.00 104.00" xmlns="http://www.w3.org/2000/svg" xmlns:xlink="http://www.w3.org/1999/xlink">
<g id="graph0" class="graph" transform="scale(1 1) rotate(0) translate(4 100)">
<title>model.Turtle.paintStamp</title>
<polygon fill="white" stroke="none" points="-4,4 -4,-100 464,-100 464,4 -4,4"/>
<!-- Node1 -->
<g id="node1" class="node"><title>Node1</title>
<polygon fill="#bfbfbf" stroke="black" points="0,-19.5 0,-38.5 134,-38.5 134,-19.5 0,-19.5"/>
<text text-anchor="middle" x="67" y="-26.5" font-family="Helvetica,sans-Serif" font-size="10.00">model.Turtle.paintStamp</text>
</g>
<!-- Node2 -->
<g id="node2" class="node"><title>Node2</title>
<g id="a_node2"><a xlink:href="../../d6/d34/classmodel_1_1_turtle.html#a91368e42c1530a73f909499d8d7b8ef3" target="_top" xlink:title="model.Turtle.paintTurtle">
<polygon fill="white" stroke="black" points="170,-38.5 170,-57.5 298,-57.5 298,-38.5 170,-38.5"/>
<text text-anchor="middle" x="234" y="-45.5" font-family="Helvetica,sans-Serif" font-size="10.00">model.Turtle.paintTurtle</text>
</a>
</g>
</g>
<!-- Node1&#45;&gt;Node2 -->
<g id="edge1" class="edge"><title>Node1&#45;&gt;Node2</title>
<path fill="none" stroke="midnightblue" d="M134.161,-36.6185C142.603,-37.5906 151.282,-38.5901 159.827,-39.574"/>
<polygon fill="midnightblue" stroke="midnightblue" points="159.438,-43.0522 169.773,-40.7193 160.239,-36.0982 159.438,-43.0522"/>
</g>
<!-- Node5 -->
<g id="node5" class="node"><title>Node5</title>
<g id="a_node5"><a xlink:href="../../d6/d34/classmodel_1_1_turtle.html#ad0ffa5dc7c5e9876e0083f4232035679" target="_top" xlink:title="model.Turtle.transform">
<polygon fill="white" stroke="black" points="171.5,-0.5 171.5,-19.5 296.5,-19.5 296.5,-0.5 171.5,-0.5"/>
<text text-anchor="middle" x="234" y="-7.5" font-family="Helvetica,sans-Serif" font-size="10.00">model.Turtle.transform</text>
</a>
</g>
</g>
<!-- Node1&#45;&gt;Node5 -->
<g id="edge4" class="edge"><title>Node1&#45;&gt;Node5</title>
<path fill="none" stroke="midnightblue" d="M134.161,-21.3815C143.085,-20.3538 152.276,-19.2955 161.291,-18.2574"/>
<polygon fill="midnightblue" stroke="midnightblue" points="161.837,-21.7177 171.371,-17.0966 161.037,-14.7637 161.837,-21.7177"/>
</g>
<!-- Node3 -->
<g id="node3" class="node"><title>Node3</title>
<g id="a_node3"><a xlink:href="../../d7/d1e/classutil_1_1_location.html#a232168bda0ff164c4721dea19a7630d8" target="_top" xlink:title="util.Location.getIntX">
<polygon fill="white" stroke="black" points="341.5,-76.5 341.5,-95.5 452.5,-95.5 452.5,-76.5 341.5,-76.5"/>
<text text-anchor="middle" x="397" y="-83.5" font-family="Helvetica,sans-Serif" font-size="10.00">util.Location.getIntX</text>
</a>
</g>
</g>
<!-- Node2&#45;&gt;Node3 -->
<g id="edge2" class="edge"><title>Node2&#45;&gt;Node3</title>
<path fill="none" stroke="midnightblue" d="M275.627,-57.589C296.968,-62.6261 323.312,-68.8438 345.908,-74.1771"/>
<polygon fill="midnightblue" stroke="midnightblue" points="345.128,-77.5891 355.665,-76.4799 346.736,-70.7763 345.128,-77.5891"/>
</g>
<!-- Node4 -->
<g id="node4" class="node"><title>Node4</title>
<g id="a_node4"><a xlink:href="../../d7/d1e/classutil_1_1_location.html#a1157d4dc33776ed2764c74e0f8390abe" target="_top" xlink:title="util.Location.getIntY">
<polygon fill="white" stroke="black" points="342,-38.5 342,-57.5 452,-57.5 452,-38.5 342,-38.5"/>
<text text-anchor="middle" x="397" y="-45.5" font-family="Helvetica,sans-Serif" font-size="10.00">util.Location.getIntY</text>
</a>
</g>
</g>
<!-- Node2&#45;&gt;Node4 -->
<g id="edge3" class="edge"><title>Node2&#45;&gt;Node4</title>
<path fill="none" stroke="midnightblue" d="M298.169,-48C309.231,-48 320.751,-48 331.839,-48"/>
<polygon fill="midnightblue" stroke="midnightblue" points="331.875,-51.5001 341.875,-48 331.875,-44.5001 331.875,-51.5001"/>
</g>
<!-- Node6 -->
<g id="node6" class="node"><title>Node6</title>
<g id="a_node6"><a xlink:href="../../d4/d67/classutil_1_1_vector.html#acebe00e22995a3514458ffa3db195295" target="_top" xlink:title="util.Vector.getDirection">
<polygon fill="white" stroke="black" points="334.5,-0.5 334.5,-19.5 459.5,-19.5 459.5,-0.5 334.5,-0.5"/>
<text text-anchor="middle" x="397" y="-7.5" font-family="Helvetica,sans-Serif" font-size="10.00">util.Vector.getDirection</text>
</a>
</g>
</g>
<!-- Node5&#45;&gt;Node6 -->
<g id="edge5" class="edge"><title>Node5&#45;&gt;Node6</title>
<path fill="none" stroke="midnightblue" d="M296.786,-10C305.742,-10 315.025,-10 324.157,-10"/>
<polygon fill="midnightblue" stroke="midnightblue" points="324.379,-13.5001 334.379,-10 324.379,-6.5001 324.379,-13.5001"/>
</g>
</g>
</svg>
