<?xml version="1.0" encoding="UTF-8" standalone="no"?>
<!DOCTYPE svg PUBLIC "-//W3C//DTD SVG 1.1//EN"
 "http://www.w3.org/Graphics/SVG/1.1/DTD/svg11.dtd">
<!-- Generated by graphviz version 2.36.0 (20140111.2315)
 -->
<!-- Title: model.Turtle.faceTowards Pages: 1 -->
<svg width="494pt" height="66pt"
 viewBox="0.00 0.00 494.00 66.00" xmlns="http://www.w3.org/2000/svg" xmlns:xlink="http://www.w3.org/1999/xlink">
<g id="graph0" class="graph" transform="scale(1 1) rotate(0) translate(4 62)">
<title>model.Turtle.faceTowards</title>
<polygon fill="white" stroke="none" points="-4,4 -4,-62 490,-62 490,4 -4,4"/>
<!-- Node1 -->
<g id="node1" class="node"><title>Node1</title>
<polygon fill="#bfbfbf" stroke="black" points="0,-19.5 0,-38.5 136,-38.5 136,-19.5 0,-19.5"/>
<text text-anchor="middle" x="68" y="-26.5" font-family="Helvetica,sans-Serif" font-size="10.00">model.Turtle.faceTowards</text>
</g>
<!-- Node2 -->
<g id="node2" class="node"><title>Node2</title>
<g id="a_node2"><a xlink:href="../../d4/d67/classutil_1_1_vector.html#a3e38cf524cc0903761bbe0cba746fab5" target="_top" xlink:title="util.Vector.getAngleBetween">
<polygon fill="white" stroke="black" points="172.5,-38.5 172.5,-57.5 323.5,-57.5 323.5,-38.5 172.5,-38.5"/>
<text text-anchor="middle" x="248" y="-45.5" font-family="Helvetica,sans-Serif" font-size="10.00">util.Vector.getAngleBetween</text>
</a>
</g>
</g>
<!-- Node1&#45;&gt;Node2 -->
<g id="edge1" class="edge"><title>Node1&#45;&gt;Node2</title>
<path fill="none" stroke="midnightblue" d="M136.041,-36.156C144.54,-37.0633 153.325,-38.001 162.058,-38.9332"/>
<polygon fill="midnightblue" stroke="midnightblue" points="161.95,-42.4415 172.266,-40.0227 162.694,-35.481 161.95,-42.4415"/>
</g>
<!-- Node4 -->
<g id="node4" class="node"><title>Node4</title>
<g id="a_node4"><a xlink:href="../../d4/d67/classutil_1_1_vector.html#a60833e2e656743a823aea9e5899dd301" target="_top" xlink:title="util.Vector.turn">
<polygon fill="white" stroke="black" points="205,-0.5 205,-19.5 291,-19.5 291,-0.5 205,-0.5"/>
<text text-anchor="middle" x="248" y="-7.5" font-family="Helvetica,sans-Serif" font-size="10.00">util.Vector.turn</text>
</a>
</g>
</g>
<!-- Node1&#45;&gt;Node4 -->
<g id="edge3" class="edge"><title>Node1&#45;&gt;Node4</title>
<path fill="none" stroke="midnightblue" d="M136.041,-21.844C155.408,-19.7767 176.255,-17.5514 194.593,-15.594"/>
<polygon fill="midnightblue" stroke="midnightblue" points="195.21,-19.0481 204.782,-14.5064 194.467,-12.0876 195.21,-19.0481"/>
</g>
<!-- Node3 -->
<g id="node3" class="node"><title>Node3</title>
<g id="a_node3"><a xlink:href="../../d4/d67/classutil_1_1_vector.html#acebe00e22995a3514458ffa3db195295" target="_top" xlink:title="util.Vector.getDirection">
<polygon fill="white" stroke="black" points="360.5,-38.5 360.5,-57.5 485.5,-57.5 485.5,-38.5 360.5,-38.5"/>
<text text-anchor="middle" x="423" y="-45.5" font-family="Helvetica,sans-Serif" font-size="10.00">util.Vector.getDirection</text>
</a>
</g>
</g>
<!-- Node2&#45;&gt;Node3 -->
<g id="edge2" class="edge"><title>Node2&#45;&gt;Node3</title>
<path fill="none" stroke="midnightblue" d="M323.623,-48C332.431,-48 341.406,-48 350.174,-48"/>
<polygon fill="midnightblue" stroke="midnightblue" points="350.349,-51.5001 360.349,-48 350.349,-44.5001 350.349,-51.5001"/>
</g>
<!-- Node4&#45;&gt;Node3 -->
<g id="edge5" class="edge"><title>Node4&#45;&gt;Node3</title>
<path fill="none" stroke="midnightblue" d="M291.321,-19.2958C314.619,-24.4134 343.763,-30.8149 368.612,-36.2732"/>
<polygon fill="midnightblue" stroke="midnightblue" points="368.094,-39.7428 378.613,-38.4698 369.596,-32.9058 368.094,-39.7428"/>
</g>
<!-- Node5 -->
<g id="node5" class="node"><title>Node5</title>
<g id="a_node5"><a xlink:href="../../d4/d67/classutil_1_1_vector.html#a338b7c1377d3bc795527c2fbeeb25639" target="_top" xlink:title="util.Vector.setDirection">
<polygon fill="white" stroke="black" points="360.5,-0.5 360.5,-19.5 485.5,-19.5 485.5,-0.5 360.5,-0.5"/>
<text text-anchor="middle" x="423" y="-7.5" font-family="Helvetica,sans-Serif" font-size="10.00">util.Vector.setDirection</text>
</a>
</g>
</g>
<!-- Node4&#45;&gt;Node5 -->
<g id="edge4" class="edge"><title>Node4&#45;&gt;Node5</title>
<path fill="none" stroke="midnightblue" d="M291.321,-10C309.034,-10 330.127,-10 350.143,-10"/>
<polygon fill="midnightblue" stroke="midnightblue" points="350.174,-13.5001 360.174,-10 350.174,-6.5001 350.174,-13.5001"/>
</g>
</g>
</svg>
