<?xml version="1.0" encoding="UTF-8" standalone="no"?>
<!DOCTYPE svg PUBLIC "-//W3C//DTD SVG 1.1//EN"
 "http://www.w3.org/Graphics/SVG/1.1/DTD/svg11.dtd">
<!-- Generated by graphviz version 2.36.0 (20140111.2315)
 -->
<!-- Title: model.Turtle.getBounds Pages: 1 -->
<svg width="794pt" height="129pt"
 viewBox="0.00 0.00 794.00 129.00" xmlns="http://www.w3.org/2000/svg" xmlns:xlink="http://www.w3.org/1999/xlink">
<g id="graph0" class="graph" transform="scale(1 1) rotate(0) translate(4 125)">
<title>model.Turtle.getBounds</title>
<polygon fill="white" stroke="none" points="-4,4 -4,-125 790,-125 790,4 -4,4"/>
<!-- Node1 -->
<g id="node1" class="node"><title>Node1</title>
<polygon fill="#bfbfbf" stroke="black" points="0,-63.5 0,-82.5 130,-82.5 130,-63.5 0,-63.5"/>
<text text-anchor="middle" x="65" y="-70.5" font-family="Helvetica,sans-Serif" font-size="10.00">model.Turtle.getBounds</text>
</g>
<!-- Node2 -->
<g id="node2" class="node"><title>Node2</title>
<g id="a_node2"><a xlink:href="../../d7/d1e/classutil_1_1_location.html#a232168bda0ff164c4721dea19a7630d8" target="_top" xlink:title="util.Location.getIntX">
<polygon fill="white" stroke="black" points="176.5,-101.5 176.5,-120.5 287.5,-120.5 287.5,-101.5 176.5,-101.5"/>
<text text-anchor="middle" x="232" y="-108.5" font-family="Helvetica,sans-Serif" font-size="10.00">util.Location.getIntX</text>
</a>
</g>
</g>
<!-- Node1&#45;&gt;Node2 -->
<g id="edge1" class="edge"><title>Node1&#45;&gt;Node2</title>
<path fill="none" stroke="midnightblue" d="M107.636,-82.589C129.508,-87.6261 156.506,-93.8438 179.664,-99.1771"/>
<polygon fill="midnightblue" stroke="midnightblue" points="179.133,-102.646 189.663,-101.48 180.704,-95.8249 179.133,-102.646"/>
</g>
<!-- Node3 -->
<g id="node3" class="node"><title>Node3</title>
<g id="a_node3"><a xlink:href="../../d7/d1e/classutil_1_1_location.html#a1157d4dc33776ed2764c74e0f8390abe" target="_top" xlink:title="util.Location.getIntY">
<polygon fill="white" stroke="black" points="177,-63.5 177,-82.5 287,-82.5 287,-63.5 177,-63.5"/>
<text text-anchor="middle" x="232" y="-70.5" font-family="Helvetica,sans-Serif" font-size="10.00">util.Location.getIntY</text>
</a>
</g>
</g>
<!-- Node1&#45;&gt;Node3 -->
<g id="edge2" class="edge"><title>Node1&#45;&gt;Node3</title>
<path fill="none" stroke="midnightblue" d="M130.266,-73C142.163,-73 154.594,-73 166.498,-73"/>
<polygon fill="midnightblue" stroke="midnightblue" points="166.798,-76.5001 176.798,-73 166.798,-69.5001 166.798,-76.5001"/>
</g>
<!-- Node4 -->
<g id="node4" class="node"><title>Node4</title>
<g id="a_node4"><a xlink:href="../../d6/d34/classmodel_1_1_turtle.html#aeeab176e64d1ad18647e37aee02affc7" target="_top" xlink:title="model.Turtle.getPainting\lPoint">
<polygon fill="white" stroke="black" points="166.5,-14 166.5,-44 297.5,-44 297.5,-14 166.5,-14"/>
<text text-anchor="start" x="174.5" y="-32" font-family="Helvetica,sans-Serif" font-size="10.00">model.Turtle.getPainting</text>
<text text-anchor="middle" x="232" y="-21" font-family="Helvetica,sans-Serif" font-size="10.00">Point</text>
</a>
</g>
</g>
<!-- Node1&#45;&gt;Node4 -->
<g id="edge3" class="edge"><title>Node1&#45;&gt;Node4</title>
<path fill="none" stroke="midnightblue" d="M101.803,-63.4527C120.214,-58.543 143.251,-52.3996 164.755,-46.6653"/>
<polygon fill="midnightblue" stroke="midnightblue" points="165.744,-50.0239 174.505,-44.0654 163.941,-43.2602 165.744,-50.0239"/>
</g>
<!-- Node5 -->
<g id="node5" class="node"><title>Node5</title>
<g id="a_node5"><a xlink:href="../../d7/d1e/classutil_1_1_location.html#a82f3e59d7d3e3d46df862be2e63c80e3" target="_top" xlink:title="util.Location.translate">
<polygon fill="white" stroke="black" points="334,-19.5 334,-38.5 454,-38.5 454,-19.5 334,-19.5"/>
<text text-anchor="middle" x="394" y="-26.5" font-family="Helvetica,sans-Serif" font-size="10.00">util.Location.translate</text>
</a>
</g>
</g>
<!-- Node4&#45;&gt;Node5 -->
<g id="edge4" class="edge"><title>Node4&#45;&gt;Node5</title>
<path fill="none" stroke="midnightblue" d="M297.617,-29C306.219,-29 315.069,-29 323.746,-29"/>
<polygon fill="midnightblue" stroke="midnightblue" points="323.829,-32.5001 333.829,-29 323.829,-25.5001 323.829,-32.5001"/>
</g>
<!-- Node6 -->
<g id="node6" class="node"><title>Node6</title>
<g id="a_node6"><a xlink:href="../../d4/d67/classutil_1_1_vector.html#a3509d652ff8c361b07447f55e0007f31" target="_top" xlink:title="util.Vector.getXChange">
<polygon fill="white" stroke="black" points="490.5,-38.5 490.5,-57.5 615.5,-57.5 615.5,-38.5 490.5,-38.5"/>
<text text-anchor="middle" x="553" y="-45.5" font-family="Helvetica,sans-Serif" font-size="10.00">util.Vector.getXChange</text>
</a>
</g>
</g>
<!-- Node5&#45;&gt;Node6 -->
<g id="edge5" class="edge"><title>Node5&#45;&gt;Node6</title>
<path fill="none" stroke="midnightblue" d="M454.355,-36.1831C462.843,-37.2103 471.649,-38.276 480.343,-39.3281"/>
<polygon fill="midnightblue" stroke="midnightblue" points="480.122,-42.8269 490.47,-40.5537 480.963,-35.8776 480.122,-42.8269"/>
</g>
<!-- Node9 -->
<g id="node9" class="node"><title>Node9</title>
<g id="a_node9"><a xlink:href="../../d4/d67/classutil_1_1_vector.html#aca15e89ce2edd3e93dcb73621c26237f" target="_top" xlink:title="util.Vector.getYChange">
<polygon fill="white" stroke="black" points="491,-0.5 491,-19.5 615,-19.5 615,-0.5 491,-0.5"/>
<text text-anchor="middle" x="553" y="-7.5" font-family="Helvetica,sans-Serif" font-size="10.00">util.Vector.getYChange</text>
</a>
</g>
</g>
<!-- Node5&#45;&gt;Node9 -->
<g id="edge8" class="edge"><title>Node5&#45;&gt;Node9</title>
<path fill="none" stroke="midnightblue" d="M454.355,-21.8169C463.062,-20.7633 472.103,-19.6691 481.014,-18.5907"/>
<polygon fill="midnightblue" stroke="midnightblue" points="481.487,-22.059 490.994,-17.3829 480.646,-15.1097 481.487,-22.059"/>
</g>
<!-- Node7 -->
<g id="node7" class="node"><title>Node7</title>
<g id="a_node7"><a xlink:href="../../d4/d67/classutil_1_1_vector.html#afa760c6d12c93fbfcfacd6e279d08d88" target="_top" xlink:title="util.Vector.getMagnitude">
<polygon fill="white" stroke="black" points="652.5,-38.5 652.5,-57.5 785.5,-57.5 785.5,-38.5 652.5,-38.5"/>
<text text-anchor="middle" x="719" y="-45.5" font-family="Helvetica,sans-Serif" font-size="10.00">util.Vector.getMagnitude</text>
</a>
</g>
</g>
<!-- Node6&#45;&gt;Node7 -->
<g id="edge6" class="edge"><title>Node6&#45;&gt;Node7</title>
<path fill="none" stroke="midnightblue" d="M615.534,-48C624.251,-48 633.298,-48 642.244,-48"/>
<polygon fill="midnightblue" stroke="midnightblue" points="642.28,-51.5001 652.28,-48 642.28,-44.5001 642.28,-51.5001"/>
</g>
<!-- Node8 -->
<g id="node8" class="node"><title>Node8</title>
<g id="a_node8"><a xlink:href="../../d4/d67/classutil_1_1_vector.html#acebe00e22995a3514458ffa3db195295" target="_top" xlink:title="util.Vector.getDirection">
<polygon fill="white" stroke="black" points="656.5,-0.5 656.5,-19.5 781.5,-19.5 781.5,-0.5 656.5,-0.5"/>
<text text-anchor="middle" x="719" y="-7.5" font-family="Helvetica,sans-Serif" font-size="10.00">util.Vector.getDirection</text>
</a>
</g>
</g>
<!-- Node6&#45;&gt;Node8 -->
<g id="edge7" class="edge"><title>Node6&#45;&gt;Node8</title>
<path fill="none" stroke="midnightblue" d="M595.384,-38.411C617.123,-33.3739 643.957,-27.1562 666.975,-21.8229"/>
<polygon fill="midnightblue" stroke="midnightblue" points="667.962,-25.1871 676.913,-19.5201 666.381,-18.3677 667.962,-25.1871"/>
</g>
<!-- Node9&#45;&gt;Node7 -->
<g id="edge9" class="edge"><title>Node9&#45;&gt;Node7</title>
<path fill="none" stroke="midnightblue" d="M595.384,-19.589C617.123,-24.6261 643.957,-30.8438 666.975,-36.1771"/>
<polygon fill="midnightblue" stroke="midnightblue" points="666.381,-39.6323 676.913,-38.4799 667.962,-32.8129 666.381,-39.6323"/>
</g>
<!-- Node9&#45;&gt;Node8 -->
<g id="edge10" class="edge"><title>Node9&#45;&gt;Node8</title>
<path fill="none" stroke="midnightblue" d="M615.068,-10C625.176,-10 635.74,-10 646.086,-10"/>
<polygon fill="midnightblue" stroke="midnightblue" points="646.335,-13.5001 656.335,-10 646.334,-6.5001 646.335,-13.5001"/>
</g>
</g>
</svg>
