<?xml version="1.0" encoding="UTF-8" standalone="no"?>
<!DOCTYPE svg PUBLIC "-//W3C//DTD SVG 1.1//EN"
 "http://www.w3.org/Graphics/SVG/1.1/DTD/svg11.dtd">
<!-- Generated by graphviz version 2.36.0 (20140111.2315)
 -->
<!-- Title: model.Turtle.move Pages: 1 -->
<!--zoomable 439 -->
<svg id="main" version="1.1" xmlns="http://www.w3.org/2000/svg" xmlns:xlink="http://www.w3.org/1999/xlink" xml:space="preserve" onload="init(evt)">
<style type="text/css"><![CDATA[
.edge:hover path { stroke: red; }
.edge:hover polygon { stroke: red; fill: red; }
]]></style>
<script type="text/javascript"><![CDATA[
var edges = document.getElementsByTagName('g');
if (edges && edges.length) {
  for (var i=0;i<edges.length;i++) {
    if (edges[i].id.substr(0,4)=='edge') {
      edges[i].setAttribute('class','edge');
    }
  }
}
]]></script>
        <defs>
                <circle id="rim" cx="0" cy="0" r="7"/>
                <circle id="rim2" cx="0" cy="0" r="3.5"/>
                <g id="zoomPlus">
                        <use xlink:href="#rim" fill="#404040">
                                <set attributeName="fill" to="#808080" begin="zoomplus.mouseover" end="zoomplus.mouseout"/>
                        </use>
                        <path d="M-4,0h8M0,-4v8" fill="none" stroke="white" stroke-width="1.5" pointer-events="none"/>
                </g>
                <g id="zoomMin">
                        <use xlink:href="#rim" fill="#404040">
                                <set attributeName="fill" to="#808080" begin="zoomminus.mouseover" end="zoomminus.mouseout"/>
                        </use>
                        <path d="M-4,0h8" fill="none" stroke="white" stroke-width="1.5" pointer-events="none"/>
                </g>
                <g id="dirArrow">
                        <path fill="none" stroke="white" stroke-width="1.5" d="M0,-3.0v7 M-2.5,-0.5L0,-3.0L2.5,-0.5"/>
                </g>
               <g id="resetDef">
                       <use xlink:href="#rim2" fill="#404040">
                               <set attributeName="fill" to="#808080" begin="reset.mouseover" end="reset.mouseout"/>
                       </use>
               </g>
        </defs>

<script type="text/javascript">
var viewWidth = 678;
var viewHeight = 439;
var sectionId = 'dynsection-19';
</script>
<script xlink:href="../../svgpan.js"/>
<svg id="graph" class="graph">
<g id="viewport">
<title>model.Turtle.move</title>
<polygon fill="white" stroke="none" points="-4,4 -4,-434.793 674,-434.793 674,4 -4,4"/>
<!-- Node1 -->
<g id="node1" class="node"><title>Node1</title>
<polygon fill="#bfbfbf" stroke="black" points="0.5,-325.293 0.5,-344.293 105.5,-344.293 105.5,-325.293 0.5,-325.293"/>
<text text-anchor="middle" x="53" y="-332.293" font-family="Helvetica,sans-Serif" font-size="10.00">model.Turtle.move</text>
</g>
<!-- Node2 -->
<g id="node2" class="node"><title>Node2</title>
<g id="a_node2"><a xlink:href="../../de/ded/classmodel_1_1_pen.html#a742443ac5b38dff58f54549800d70fa0" target="_top" xlink:title="model.Pen.addLine">
<polygon fill="white" stroke="black" points="168,-411.293 168,-430.293 276,-430.293 276,-411.293 168,-411.293"/>
<text text-anchor="middle" x="222" y="-418.293" font-family="Helvetica,sans-Serif" font-size="10.00">model.Pen.addLine</text>
</a>
</g>
</g>
<!-- Node1&#45;&gt;Node2 -->
<g id="edge1" class="edge"><title>Node1&#45;&gt;Node2</title>
<path fill="none" stroke="midnightblue" d="M65.2053,-344.487C81.2407,-357.922 112.109,-382.193 142,-396.793 151.08,-401.228 161.151,-405.041 170.977,-408.237"/>
<polygon fill="midnightblue" stroke="midnightblue" points="170.089,-411.626 180.677,-411.229 172.152,-404.937 170.089,-411.626"/>
</g>
<!-- Node3 -->
<g id="node3" class="node"><title>Node3</title>
<g id="a_node3"><a xlink:href="../../d4/d67/classutil_1_1_vector.html#afa760c6d12c93fbfcfacd6e279d08d88" target="_top" xlink:title="util.Vector.getMagnitude">
<polygon fill="white" stroke="black" points="536.5,-335.293 536.5,-354.293 669.5,-354.293 669.5,-335.293 536.5,-335.293"/>
<text text-anchor="middle" x="603" y="-342.293" font-family="Helvetica,sans-Serif" font-size="10.00">util.Vector.getMagnitude</text>
</a>
</g>
</g>
<!-- Node1&#45;&gt;Node3 -->
<g id="edge2" class="edge"><title>Node1&#45;&gt;Node3</title>
<path fill="none" stroke="midnightblue" d="M91.8822,-344.376C107.328,-347.915 125.421,-351.595 142,-353.793 299.792,-374.713 341.501,-378.429 500,-363.793 516.479,-362.271 534.268,-359.395 550.303,-356.332"/>
<polygon fill="midnightblue" stroke="midnightblue" points="551.425,-359.678 560.556,-354.304 550.067,-352.811 551.425,-359.678"/>
</g>
<!-- Node4 -->
<g id="node4" class="node"><title>Node4</title>
<g id="a_node4"><a xlink:href="../../d4/d67/classutil_1_1_vector.html#a45ba35e870010e16e64d697f97d1b1dc" target="_top" xlink:title="util.Vector.setMagnitude">
<polygon fill="white" stroke="black" points="353,-259.293 353,-278.293 485,-278.293 485,-259.293 353,-259.293"/>
<text text-anchor="middle" x="419" y="-266.293" font-family="Helvetica,sans-Serif" font-size="10.00">util.Vector.setMagnitude</text>
</a>
</g>
</g>
<!-- Node1&#45;&gt;Node4 -->
<g id="edge3" class="edge"><title>Node1&#45;&gt;Node4</title>
<path fill="none" stroke="midnightblue" d="M96.4445,-325.234C110.874,-322.09 127.114,-318.666 142,-315.793 211.64,-302.352 291.562,-288.964 347.418,-279.935"/>
<polygon fill="midnightblue" stroke="midnightblue" points="348.244,-283.347 357.56,-278.301 347.131,-276.436 348.244,-283.347"/>
</g>
<!-- Node5 -->
<g id="node5" class="node"><title>Node5</title>
<g id="a_node5"><a xlink:href="../../d7/d1e/classutil_1_1_location.html#a82f3e59d7d3e3d46df862be2e63c80e3" target="_top" xlink:title="util.Location.translate">
<polygon fill="white" stroke="black" points="162,-325.293 162,-344.293 282,-344.293 282,-325.293 162,-325.293"/>
<text text-anchor="middle" x="222" y="-332.293" font-family="Helvetica,sans-Serif" font-size="10.00">util.Location.translate</text>
</a>
</g>
</g>
<!-- Node1&#45;&gt;Node5 -->
<g id="edge4" class="edge"><title>Node1&#45;&gt;Node5</title>
<path fill="none" stroke="midnightblue" d="M105.924,-334.793C120.317,-334.793 136.177,-334.793 151.402,-334.793"/>
<polygon fill="midnightblue" stroke="midnightblue" points="151.815,-338.293 161.815,-334.793 151.815,-331.293 151.815,-338.293"/>
</g>
<!-- Node9 -->
<g id="node9" class="node"><title>Node9</title>
<g id="a_node9"><a xlink:href="../../d6/d34/classmodel_1_1_turtle.html#aa8650975441f4ca6e0d938c38ac2639c" target="_top" xlink:title="model.Turtle.wrapOnBoundary">
<polygon fill="white" stroke="black" points="142,-145.293 142,-164.293 302,-164.293 302,-145.293 142,-145.293"/>
<text text-anchor="middle" x="222" y="-152.293" font-family="Helvetica,sans-Serif" font-size="10.00">model.Turtle.wrapOnBoundary</text>
</a>
</g>
</g>
<!-- Node1&#45;&gt;Node9 -->
<g id="edge11" class="edge"><title>Node1&#45;&gt;Node9</title>
<path fill="none" stroke="midnightblue" d="M62.9786,-325.115C89.9365,-296.059 170.435,-209.295 204.972,-172.068"/>
<polygon fill="midnightblue" stroke="midnightblue" points="207.741,-174.23 211.977,-164.519 202.61,-169.469 207.741,-174.23"/>
</g>
<!-- Node6 -->
<g id="node6" class="node"><title>Node6</title>
<g id="a_node6"><a xlink:href="../../d4/d67/classutil_1_1_vector.html#a3509d652ff8c361b07447f55e0007f31" target="_top" xlink:title="util.Vector.getXChange">
<polygon fill="white" stroke="black" points="356.5,-335.293 356.5,-354.293 481.5,-354.293 481.5,-335.293 356.5,-335.293"/>
<text text-anchor="middle" x="419" y="-342.293" font-family="Helvetica,sans-Serif" font-size="10.00">util.Vector.getXChange</text>
</a>
</g>
</g>
<!-- Node5&#45;&gt;Node6 -->
<g id="edge5" class="edge"><title>Node5&#45;&gt;Node6</title>
<path fill="none" stroke="midnightblue" d="M282.036,-337.821C302.266,-338.858 325.127,-340.03 346.251,-341.114"/>
<polygon fill="midnightblue" stroke="midnightblue" points="346.296,-344.62 356.462,-341.637 346.654,-337.63 346.296,-344.62"/>
</g>
<!-- Node8 -->
<g id="node8" class="node"><title>Node8</title>
<g id="a_node8"><a xlink:href="../../d4/d67/classutil_1_1_vector.html#aca15e89ce2edd3e93dcb73621c26237f" target="_top" xlink:title="util.Vector.getYChange">
<polygon fill="white" stroke="black" points="357,-297.293 357,-316.293 481,-316.293 481,-297.293 357,-297.293"/>
<text text-anchor="middle" x="419" y="-304.293" font-family="Helvetica,sans-Serif" font-size="10.00">util.Vector.getYChange</text>
</a>
</g>
</g>
<!-- Node5&#45;&gt;Node8 -->
<g id="edge8" class="edge"><title>Node5&#45;&gt;Node8</title>
<path fill="none" stroke="midnightblue" d="M282.036,-326.316C302.454,-323.384 325.553,-320.067 346.841,-317.011"/>
<polygon fill="midnightblue" stroke="midnightblue" points="347.4,-320.466 356.801,-315.581 346.405,-313.538 347.4,-320.466"/>
</g>
<!-- Node6&#45;&gt;Node3 -->
<g id="edge6" class="edge"><title>Node6&#45;&gt;Node3</title>
<path fill="none" stroke="midnightblue" d="M481.617,-344.793C495.945,-344.793 511.361,-344.793 526.22,-344.793"/>
<polygon fill="midnightblue" stroke="midnightblue" points="526.398,-348.293 536.398,-344.793 526.398,-341.293 526.398,-348.293"/>
</g>
<!-- Node7 -->
<g id="node7" class="node"><title>Node7</title>
<g id="a_node7"><a xlink:href="../../d4/d67/classutil_1_1_vector.html#acebe00e22995a3514458ffa3db195295" target="_top" xlink:title="util.Vector.getDirection">
<polygon fill="white" stroke="black" points="540.5,-297.293 540.5,-316.293 665.5,-316.293 665.5,-297.293 540.5,-297.293"/>
<text text-anchor="middle" x="603" y="-304.293" font-family="Helvetica,sans-Serif" font-size="10.00">util.Vector.getDirection</text>
</a>
</g>
</g>
<!-- Node6&#45;&gt;Node7 -->
<g id="edge7" class="edge"><title>Node6&#45;&gt;Node7</title>
<path fill="none" stroke="midnightblue" d="M465.926,-335.204C490.376,-330.099 520.633,-323.782 546.403,-318.401"/>
<polygon fill="midnightblue" stroke="midnightblue" points="547.33,-321.783 556.404,-316.313 545.9,-314.931 547.33,-321.783"/>
</g>
<!-- Node8&#45;&gt;Node3 -->
<g id="edge9" class="edge"><title>Node8&#45;&gt;Node3</title>
<path fill="none" stroke="midnightblue" d="M465.926,-316.382C490.376,-321.487 520.633,-327.804 546.403,-333.185"/>
<polygon fill="midnightblue" stroke="midnightblue" points="545.9,-336.655 556.404,-335.273 547.33,-329.803 545.9,-336.655"/>
</g>
<!-- Node8&#45;&gt;Node7 -->
<g id="edge10" class="edge"><title>Node8&#45;&gt;Node7</title>
<path fill="none" stroke="midnightblue" d="M481.11,-306.793C496.931,-306.793 514.107,-306.793 530.412,-306.793"/>
<polygon fill="midnightblue" stroke="midnightblue" points="530.432,-310.293 540.432,-306.793 530.432,-303.293 530.432,-310.293"/>
</g>
<!-- Node9&#45;&gt;Node4 -->
<g id="edge21" class="edge"><title>Node9&#45;&gt;Node4</title>
<path fill="none" stroke="midnightblue" d="M232.571,-164.375C251.25,-182.566 294.548,-222.296 338,-244.793 346.601,-249.246 356.161,-253.01 365.592,-256.14"/>
<polygon fill="midnightblue" stroke="midnightblue" points="364.741,-259.541 375.33,-259.175 366.824,-252.858 364.741,-259.541"/>
</g>
<!-- Node10 -->
<g id="node10" class="node"><title>Node10</title>
<g id="a_node10"><a xlink:href="../../d6/d34/classmodel_1_1_turtle.html#adc63bb1ed5f0a894a2404b5b55a60c5d" target="_top" xlink:title="model.Turtle.boundsExceeded">
<polygon fill="white" stroke="black" points="339,-31.2931 339,-50.2931 499,-50.2931 499,-31.2931 339,-31.2931"/>
<text text-anchor="middle" x="419" y="-38.2931" font-family="Helvetica,sans-Serif" font-size="10.00">model.Turtle.boundsExceeded</text>
</a>
</g>
</g>
<!-- Node9&#45;&gt;Node10 -->
<g id="edge12" class="edge"><title>Node9&#45;&gt;Node10</title>
<path fill="none" stroke="midnightblue" d="M231.776,-145.015C249.731,-125.637 292.792,-82.2937 338,-59.7931 342.872,-57.3681 348.068,-55.244 353.382,-53.3849"/>
<polygon fill="midnightblue" stroke="midnightblue" points="354.562,-56.6824 363.032,-50.3171 352.441,-50.0114 354.562,-56.6824"/>
</g>
<!-- Node11 -->
<g id="node11" class="node"><title>Node11</title>
<g id="a_node11"><a xlink:href="../../d7/d1e/classutil_1_1_location.html#a232168bda0ff164c4721dea19a7630d8" target="_top" xlink:title="util.Location.getIntX">
<polygon fill="white" stroke="black" points="547.5,-12.2931 547.5,-31.2931 658.5,-31.2931 658.5,-12.2931 547.5,-12.2931"/>
<text text-anchor="middle" x="603" y="-19.2931" font-family="Helvetica,sans-Serif" font-size="10.00">util.Location.getIntX</text>
</a>
</g>
</g>
<!-- Node9&#45;&gt;Node11 -->
<g id="edge16" class="edge"><title>Node9&#45;&gt;Node11</title>
<path fill="none" stroke="midnightblue" d="M227.711,-144.929C240.813,-118.812 280.537,-48.072 338,-21.7931 407.65,10.0592 498.854,0.329389 553.799,-10.2695"/>
<polygon fill="midnightblue" stroke="midnightblue" points="553.129,-13.7047 563.623,-12.2488 554.511,-6.84259 553.129,-13.7047"/>
</g>
<!-- Node12 -->
<g id="node12" class="node"><title>Node12</title>
<g id="a_node12"><a xlink:href="../../d7/d1e/classutil_1_1_location.html#a1157d4dc33776ed2764c74e0f8390abe" target="_top" xlink:title="util.Location.getIntY">
<polygon fill="white" stroke="black" points="548,-145.293 548,-164.293 658,-164.293 658,-145.293 548,-145.293"/>
<text text-anchor="middle" x="603" y="-152.293" font-family="Helvetica,sans-Serif" font-size="10.00">util.Location.getIntY</text>
</a>
</g>
</g>
<!-- Node9&#45;&gt;Node12 -->
<g id="edge15" class="edge"><title>Node9&#45;&gt;Node12</title>
<path fill="none" stroke="midnightblue" d="M237.063,-164.463C257.958,-178.182 298.947,-202.646 338,-211.793 408.103,-228.213 430.325,-229.941 500,-211.793 530.643,-203.812 561.839,-184.372 581.522,-170.414"/>
<polygon fill="midnightblue" stroke="midnightblue" points="583.69,-173.165 589.711,-164.448 579.568,-167.507 583.69,-173.165"/>
</g>
<!-- Node13 -->
<g id="node13" class="node"><title>Node13</title>
<g id="a_node13"><a xlink:href="../../d7/d1e/classutil_1_1_location.html#af426bff856c968faa03f772bd112f8c3" target="_top" xlink:title="util.Location.getVisualLocation">
<polygon fill="white" stroke="black" points="338,-183.293 338,-202.293 500,-202.293 500,-183.293 338,-183.293"/>
<text text-anchor="middle" x="419" y="-190.293" font-family="Helvetica,sans-Serif" font-size="10.00">util.Location.getVisualLocation</text>
</a>
</g>
</g>
<!-- Node9&#45;&gt;Node13 -->
<g id="edge17" class="edge"><title>Node9&#45;&gt;Node13</title>
<path fill="none" stroke="midnightblue" d="M271.955,-164.333C298.381,-169.483 331.194,-175.877 359.02,-181.3"/>
<polygon fill="midnightblue" stroke="midnightblue" points="358.54,-184.772 369.025,-183.249 359.879,-177.901 358.54,-184.772"/>
</g>
<!-- Node14 -->
<g id="node14" class="node"><title>Node14</title>
<g id="a_node14"><a xlink:href="../../d7/d1e/classutil_1_1_location.html#a67bebd8b26034a51f8943a50e237f724" target="_top" xlink:title="util.Location.setY">
<polygon fill="white" stroke="black" points="370,-145.293 370,-164.293 468,-164.293 468,-145.293 370,-145.293"/>
<text text-anchor="middle" x="419" y="-152.293" font-family="Helvetica,sans-Serif" font-size="10.00">util.Location.setY</text>
</a>
</g>
</g>
<!-- Node9&#45;&gt;Node14 -->
<g id="edge18" class="edge"><title>Node9&#45;&gt;Node14</title>
<path fill="none" stroke="midnightblue" d="M302.033,-154.793C321.362,-154.793 341.696,-154.793 359.845,-154.793"/>
<polygon fill="midnightblue" stroke="midnightblue" points="359.967,-158.293 369.967,-154.793 359.967,-151.293 359.967,-158.293"/>
</g>
<!-- Node15 -->
<g id="node15" class="node"><title>Node15</title>
<g id="a_node15"><a xlink:href="../../d4/d67/classutil_1_1_vector.html#a1aea3b29ec9c7374d0d5520ece2085a2" target="_top" xlink:title="util.Vector.distanceBetween">
<polygon fill="white" stroke="black" points="344.5,-107.293 344.5,-126.293 493.5,-126.293 493.5,-107.293 344.5,-107.293"/>
<text text-anchor="middle" x="419" y="-114.293" font-family="Helvetica,sans-Serif" font-size="10.00">util.Vector.distanceBetween</text>
</a>
</g>
</g>
<!-- Node9&#45;&gt;Node15 -->
<g id="edge19" class="edge"><title>Node9&#45;&gt;Node15</title>
<path fill="none" stroke="midnightblue" d="M271.955,-145.253C298.381,-140.103 331.194,-133.709 359.02,-128.287"/>
<polygon fill="midnightblue" stroke="midnightblue" points="359.879,-131.685 369.025,-126.337 358.54,-124.814 359.879,-131.685"/>
</g>
<!-- Node16 -->
<g id="node16" class="node"><title>Node16</title>
<g id="a_node16"><a xlink:href="../../d7/d1e/classutil_1_1_location.html#a36240d43a76c7ce472aa329cb496cd8f" target="_top" xlink:title="util.Location.setX">
<polygon fill="white" stroke="black" points="370,-69.2931 370,-88.2931 468,-88.2931 468,-69.2931 370,-69.2931"/>
<text text-anchor="middle" x="419" y="-76.2931" font-family="Helvetica,sans-Serif" font-size="10.00">util.Location.setX</text>
</a>
</g>
</g>
<!-- Node9&#45;&gt;Node16 -->
<g id="edge20" class="edge"><title>Node9&#45;&gt;Node16</title>
<path fill="none" stroke="midnightblue" d="M239.238,-145.264C261.052,-132.814 301.324,-111.043 338,-97.7931 345.095,-95.23 352.669,-92.9155 360.223,-90.8561"/>
<polygon fill="midnightblue" stroke="midnightblue" points="361.298,-94.1934 370.1,-88.2964 359.541,-87.4173 361.298,-94.1934"/>
</g>
<!-- Node10&#45;&gt;Node11 -->
<g id="edge13" class="edge"><title>Node10&#45;&gt;Node11</title>
<path fill="none" stroke="midnightblue" d="M499.034,-32.5423C511.775,-31.2122 524.834,-29.8489 537.189,-28.559"/>
<polygon fill="midnightblue" stroke="midnightblue" points="537.797,-32.0147 547.38,-27.4952 537.07,-25.0525 537.797,-32.0147"/>
</g>
<!-- Node10&#45;&gt;Node12 -->
<g id="edge14" class="edge"><title>Node10&#45;&gt;Node12</title>
<path fill="none" stroke="midnightblue" d="M476.442,-50.2962C484.602,-52.7729 492.701,-55.8853 500,-59.7931 536.752,-79.4683 570.229,-115.681 588.197,-137.266"/>
<polygon fill="midnightblue" stroke="midnightblue" points="585.684,-139.723 594.708,-145.273 591.114,-135.306 585.684,-139.723"/>
</g>
</g>
</svg>
        <g id="navigator" transform="translate(0 0)" fill="#404254">
                <rect fill="#f2f5e9" fill-opacity="0.5" stroke="#606060" stroke-width=".5" x="0" y="0" width="60" height="60"/>
                <use id="zoomplus" xlink:href="#zoomPlus" x="17" y="9" onmousedown="handleZoom(evt,'in')"/>
                <use id="zoomminus" xlink:href="#zoomMin" x="42" y="9" onmousedown="handleZoom(evt,'out')"/>
                <use id="reset" xlink:href="#resetDef" x="30" y="36" onmousedown="handleReset()"/>
                <g id="arrowUp" xlink:href="#dirArrow" transform="translate(30 24)" onmousedown="handlePan(0,-1)">
                  <use xlink:href="#rim" fill="#404040">
                        <set attributeName="fill" to="#808080" begin="arrowUp.mouseover" end="arrowUp.mouseout"/>
                  </use>
                  <path fill="none" stroke="white" stroke-width="1.5" d="M0,-3.0v7 M-2.5,-0.5L0,-3.0L2.5,-0.5"/>
                </g>
                <g id="arrowRight" xlink:href="#dirArrow" transform="rotate(90) translate(36 -43)" onmousedown="handlePan(1,0)">
                  <use xlink:href="#rim" fill="#404040">
                        <set attributeName="fill" to="#808080" begin="arrowRight.mouseover" end="arrowRight.mouseout"/>
                  </use>
                  <path fill="none" stroke="white" stroke-width="1.5" d="M0,-3.0v7 M-2.5,-0.5L0,-3.0L2.5,-0.5"/>
                </g>
                <g id="arrowDown" xlink:href="#dirArrow" transform="rotate(180) translate(-30 -48)" onmousedown="handlePan(0,1)">
                  <use xlink:href="#rim" fill="#404040">
                        <set attributeName="fill" to="#808080" begin="arrowDown.mouseover" end="arrowDown.mouseout"/>
                  </use>
                  <path fill="none" stroke="white" stroke-width="1.5" d="M0,-3.0v7 M-2.5,-0.5L0,-3.0L2.5,-0.5"/>
                </g>
                <g id="arrowLeft" xlink:href="#dirArrow" transform="rotate(270) translate(-36 17)" onmousedown="handlePan(-1,0)">
                  <use xlink:href="#rim" fill="#404040">
                        <set attributeName="fill" to="#808080" begin="arrowLeft.mouseover" end="arrowLeft.mouseout"/>
                  </use>
                  <path fill="none" stroke="white" stroke-width="1.5" d="M0,-3.0v7 M-2.5,-0.5L0,-3.0L2.5,-0.5"/>
                </g>
        </g>
        <svg viewBox="0 0 15 15" width="100%" height="30px" preserveAspectRatio="xMaxYMin meet">
         <g id="arrow_out" transform="scale(0.3 0.3)">
          <a xlink:href="classmodel_1_1_turtle_a84ecdb68ad525c369c4dc7dedd675607_cgraph_org.svg" target="_base">
           <rect id="button" ry="5" rx="5" y="6" x="6" height="38" width="38"
                fill="#f2f5e9" fill-opacity="0.5" stroke="#606060" stroke-width="1.0"/>
           <path id="arrow"
             d="M 11.500037,31.436501 C 11.940474,20.09759 22.043105,11.32322 32.158766,21.979434 L 37.068811,17.246167 C 37.068811,17.246167 37.088388,32 37.088388,32 L 22.160133,31.978069 C 22.160133,31.978069 26.997745,27.140456 26.997745,27.140456 C 18.528582,18.264221 13.291696,25.230495 11.500037,31.436501 z"
             style="fill:#404040;"/>
          </a>
         </g>
        </svg>
</svg>
