<?xml version="1.0" encoding="UTF-8" standalone="no"?>
<!DOCTYPE svg PUBLIC "-//W3C//DTD SVG 1.1//EN"
 "http://www.w3.org/Graphics/SVG/1.1/DTD/svg11.dtd">
<!-- Generated by graphviz version 2.36.0 (20140111.2315)
 -->
<!-- Title: parser.commands.bool.And.evaluate Pages: 1 -->
<svg width="624pt" height="77pt"
 viewBox="0.00 0.00 624.00 77.00" xmlns="http://www.w3.org/2000/svg" xmlns:xlink="http://www.w3.org/1999/xlink">
<g id="graph0" class="graph" transform="scale(1 1) rotate(0) translate(4 73)">
<title>parser.commands.bool.And.evaluate</title>
<polygon fill="white" stroke="none" points="-4,4 -4,-73 620,-73 620,4 -4,4"/>
<!-- Node1 -->
<g id="node1" class="node"><title>Node1</title>
<polygon fill="#bfbfbf" stroke="black" points="0.5,-27.5 0.5,-46.5 193.5,-46.5 193.5,-27.5 0.5,-27.5"/>
<text text-anchor="middle" x="97" y="-34.5" font-family="Helvetica,sans-Serif" font-size="10.00">parser.commands.bool.And.evaluate</text>
</g>
<!-- Node2 -->
<g id="node2" class="node"><title>Node2</title>
<g id="a_node2"><a xlink:href="../../db/d11/classparser_1_1nodes_1_1_binary_node.html#a555930c71203ce7c05e1290f069b19a1" target="_top" xlink:title="parser.nodes.BinaryNode.getLeft">
<polygon fill="white" stroke="black" points="230,-49.5 230,-68.5 404,-68.5 404,-49.5 230,-49.5"/>
<text text-anchor="middle" x="317" y="-56.5" font-family="Helvetica,sans-Serif" font-size="10.00">parser.nodes.BinaryNode.getLeft</text>
</a>
</g>
</g>
<!-- Node1&#45;&gt;Node2 -->
<g id="edge1" class="edge"><title>Node1&#45;&gt;Node2</title>
<path fill="none" stroke="midnightblue" d="M192.35,-46.5216C201.38,-47.4328 210.546,-48.3578 219.595,-49.271"/>
<polygon fill="midnightblue" stroke="midnightblue" points="219.447,-52.7738 229.748,-50.2956 220.15,-45.8092 219.447,-52.7738"/>
</g>
<!-- Node4 -->
<g id="node4" class="node"><title>Node4</title>
<g id="a_node4"><a xlink:href="../../db/d11/classparser_1_1nodes_1_1_binary_node.html#a9c33799a377e3c277de0fc9138a2cb81" target="_top" xlink:title="parser.nodes.BinaryNode.get\lRight">
<polygon fill="white" stroke="black" points="239,-0 239,-30 395,-30 395,-0 239,-0"/>
<text text-anchor="start" x="247" y="-18" font-family="Helvetica,sans-Serif" font-size="10.00">parser.nodes.BinaryNode.get</text>
<text text-anchor="middle" x="317" y="-7" font-family="Helvetica,sans-Serif" font-size="10.00">Right</text>
</a>
</g>
</g>
<!-- Node1&#45;&gt;Node4 -->
<g id="edge3" class="edge"><title>Node1&#45;&gt;Node4</title>
<path fill="none" stroke="midnightblue" d="M192.35,-27.4784C204.487,-26.2536 216.87,-25.004 228.883,-23.7916"/>
<polygon fill="midnightblue" stroke="midnightblue" points="229.276,-27.2698 238.874,-22.7833 228.573,-20.3052 229.276,-27.2698"/>
</g>
<!-- Node3 -->
<g id="node3" class="node"><title>Node3</title>
<g id="a_node3"><a xlink:href="../../d7/d93/classparser_1_1nodes_1_1_parameter_node.html#a2c57eab9997daf1efb840a189c1034c5" target="_top" xlink:title="parser.nodes.ParameterNode.get\lParameter">
<polygon fill="white" stroke="black" points="440,-22 440,-52 616,-52 616,-22 440,-22"/>
<text text-anchor="start" x="448" y="-40" font-family="Helvetica,sans-Serif" font-size="10.00">parser.nodes.ParameterNode.get</text>
<text text-anchor="middle" x="528" y="-29" font-family="Helvetica,sans-Serif" font-size="10.00">Parameter</text>
</a>
</g>
</g>
<!-- Node2&#45;&gt;Node3 -->
<g id="edge2" class="edge"><title>Node2&#45;&gt;Node3</title>
<path fill="none" stroke="midnightblue" d="M404.215,-49.9247C412.701,-49.0315 421.353,-48.1207 429.938,-47.2171"/>
<polygon fill="midnightblue" stroke="midnightblue" points="430.392,-50.6887 439.971,-46.161 429.659,-43.7271 430.392,-50.6887"/>
</g>
<!-- Node4&#45;&gt;Node3 -->
<g id="edge4" class="edge"><title>Node4&#45;&gt;Node3</title>
<path fill="none" stroke="midnightblue" d="M395.23,-23.1295C406.472,-24.3129 418.167,-25.5439 429.743,-26.7624"/>
<polygon fill="midnightblue" stroke="midnightblue" points="429.559,-30.2623 439.87,-27.8285 430.292,-23.3007 429.559,-30.2623"/>
</g>
</g>
</svg>
