<?xml version="1.0" encoding="UTF-8" standalone="no"?>
<!DOCTYPE svg PUBLIC "-//W3C//DTD SVG 1.1//EN"
 "http://www.w3.org/Graphics/SVG/1.1/DTD/svg11.dtd">
<!-- Generated by graphviz version 2.36.0 (20140111.2315)
 -->
<!-- Title: parser.commands.turtle.queries.IsShowing Pages: 1 -->
<svg width="290pt" height="208pt"
 viewBox="0.00 0.00 290.00 208.00" xmlns="http://www.w3.org/2000/svg" xmlns:xlink="http://www.w3.org/1999/xlink">
<g id="graph0" class="graph" transform="scale(1 1) rotate(0) translate(4 204)">
<title>parser.commands.turtle.queries.IsShowing</title>
<polygon fill="white" stroke="none" points="-4,4 -4,-204 286,-204 286,4 -4,4"/>
<!-- Node1 -->
<g id="node1" class="node"><title>Node1</title>
<polygon fill="#bfbfbf" stroke="black" points="59.5,-1 59.5,-31 232.5,-31 232.5,-1 59.5,-1"/>
<text text-anchor="start" x="67.5" y="-19" font-family="Helvetica,sans-Serif" font-size="10.00">parser.commands.turtle.queries.</text>
<text text-anchor="middle" x="146" y="-8" font-family="Helvetica,sans-Serif" font-size="10.00">IsShowing</text>
</g>
<!-- Node2 -->
<g id="node2" class="node"><title>Node2</title>
<g id="a_node2"><a xlink:href="../../d4/d4c/classparser_1_1nodes_1_1_basic_control.html" target="_top" xlink:title="parser.nodes.BasicControl">
<polygon fill="white" stroke="black" points="0,-68.5 0,-87.5 142,-87.5 142,-68.5 0,-68.5"/>
<text text-anchor="middle" x="71" y="-75.5" font-family="Helvetica,sans-Serif" font-size="10.00">parser.nodes.BasicControl</text>
</a>
</g>
</g>
<!-- Node2&#45;&gt;Node1 -->
<g id="edge1" class="edge"><title>Node2&#45;&gt;Node1</title>
<path fill="none" stroke="midnightblue" d="M89.6611,-62.0711C101.488,-52.6097 116.692,-40.4466 128.324,-31.1408"/>
<polygon fill="midnightblue" stroke="midnightblue" points="87.3679,-59.4234 81.7457,-68.4035 91.7408,-64.8895 87.3679,-59.4234"/>
</g>
<!-- Node3 -->
<g id="node3" class="node"><title>Node3</title>
<g id="a_node3"><a xlink:href="../../da/df7/classparser_1_1nodes_1_1_simple_node.html" target="_top" xlink:title="parser.nodes.SimpleNode">
<polygon fill="white" stroke="black" points="1,-124.5 1,-143.5 141,-143.5 141,-124.5 1,-124.5"/>
<text text-anchor="middle" x="71" y="-131.5" font-family="Helvetica,sans-Serif" font-size="10.00">parser.nodes.SimpleNode</text>
</a>
</g>
</g>
<!-- Node3&#45;&gt;Node2 -->
<g id="edge2" class="edge"><title>Node3&#45;&gt;Node2</title>
<path fill="none" stroke="midnightblue" d="M71,-113.805C71,-104.91 71,-94.7798 71,-87.7511"/>
<polygon fill="midnightblue" stroke="midnightblue" points="67.5001,-114.083 71,-124.083 74.5001,-114.083 67.5001,-114.083"/>
</g>
<!-- Node4 -->
<g id="node4" class="node"><title>Node4</title>
<g id="a_node4"><a xlink:href="../../da/d96/classparser_1_1nodes_1_1_syntax_node.html" target="_top" xlink:title="parser.nodes.SyntaxNode">
<polygon fill="white" stroke="black" points="1,-180.5 1,-199.5 141,-199.5 141,-180.5 1,-180.5"/>
<text text-anchor="middle" x="71" y="-187.5" font-family="Helvetica,sans-Serif" font-size="10.00">parser.nodes.SyntaxNode</text>
</a>
</g>
</g>
<!-- Node4&#45;&gt;Node3 -->
<g id="edge3" class="edge"><title>Node4&#45;&gt;Node3</title>
<path fill="none" stroke="midnightblue" d="M71,-169.805C71,-160.91 71,-150.78 71,-143.751"/>
<polygon fill="midnightblue" stroke="midnightblue" points="67.5001,-170.083 71,-180.083 74.5001,-170.083 67.5001,-170.083"/>
</g>
<!-- Node5 -->
<g id="node5" class="node"><title>Node5</title>
<g id="a_node5"><a xlink:href="../../d0/d32/interfaceview_1_1_i_label_information.html" target="_top" xlink:title="view.ILabelInformation">
<polygon fill="white" stroke="black" points="160,-68.5 160,-87.5 282,-87.5 282,-68.5 160,-68.5"/>
<text text-anchor="middle" x="221" y="-75.5" font-family="Helvetica,sans-Serif" font-size="10.00">view.ILabelInformation</text>
</a>
</g>
</g>
<!-- Node5&#45;&gt;Node1 -->
<g id="edge4" class="edge"><title>Node5&#45;&gt;Node1</title>
<path fill="none" stroke="midnightblue" d="M202.339,-62.0711C190.512,-52.6097 175.308,-40.4466 163.676,-31.1408"/>
<polygon fill="midnightblue" stroke="midnightblue" points="200.259,-64.8895 210.254,-68.4035 204.632,-59.4234 200.259,-64.8895"/>
</g>
</g>
</svg>
