<?xml version="1.0" encoding="UTF-8" standalone="no"?>
<!DOCTYPE svg PUBLIC "-//W3C//DTD SVG 1.1//EN"
 "http://www.w3.org/Graphics/SVG/1.1/DTD/svg11.dtd">
<!-- Generated by graphviz version 2.36.0 (20140111.2315)
 -->
<!-- Title: view.labels.LogoLabel Pages: 1 -->
<svg width="253pt" height="96pt"
 viewBox="0.00 0.00 253.00 96.00" xmlns="http://www.w3.org/2000/svg" xmlns:xlink="http://www.w3.org/1999/xlink">
<g id="graph0" class="graph" transform="scale(1 1) rotate(0) translate(4 92)">
<title>view.labels.LogoLabel</title>
<polygon fill="white" stroke="none" points="-4,4 -4,-92 249,-92 249,4 -4,4"/>
<!-- Node1 -->
<g id="node1" class="node"><title>Node1</title>
<polygon fill="#bfbfbf" stroke="black" points="23.5,-0.5 23.5,-19.5 142.5,-19.5 142.5,-0.5 23.5,-0.5"/>
<text text-anchor="middle" x="83" y="-7.5" font-family="Helvetica,sans-Serif" font-size="10.00">view.labels.LogoLabel</text>
</g>
<!-- Node2 -->
<g id="node2" class="node"><title>Node2</title>
<polygon fill="white" stroke="#bfbfbf" points="0,-68.5 0,-87.5 44,-87.5 44,-68.5 0,-68.5"/>
<text text-anchor="middle" x="22" y="-75.5" font-family="Helvetica,sans-Serif" font-size="10.00">JLabel</text>
</g>
<!-- Node2&#45;&gt;Node1 -->
<g id="edge1" class="edge"><title>Node2&#45;&gt;Node1</title>
<path fill="none" stroke="midnightblue" d="M37.0836,-60.68C49.0093,-47.7768 65.2014,-30.2575 74.8287,-19.8411"/>
<polygon fill="midnightblue" stroke="midnightblue" points="34.1918,-58.6523 29.9747,-68.3717 39.3325,-63.4035 34.1918,-58.6523"/>
</g>
<!-- Node3 -->
<g id="node3" class="node"><title>Node3</title>
<polygon fill="white" stroke="#bfbfbf" points="62.5,-68.5 62.5,-87.5 103.5,-87.5 103.5,-68.5 62.5,-68.5"/>
<text text-anchor="middle" x="83" y="-75.5" font-family="Helvetica,sans-Serif" font-size="10.00">Color</text>
</g>
<!-- Node3&#45;&gt;Node1 -->
<g id="edge2" class="edge"><title>Node3&#45;&gt;Node1</title>
<path fill="none" stroke="#9a32cd" stroke-dasharray="5,2" d="M83,-58.0413C83,-45.4724 83,-29.5631 83,-19.8411"/>
<polygon fill="#9a32cd" stroke="#9a32cd" points="79.5001,-58.3716 83,-68.3717 86.5001,-58.3717 79.5001,-58.3716"/>
<text text-anchor="middle" x="121" y="-41.5" font-family="Helvetica,sans-Serif" font-size="10.00"> LETTER_COLOR</text>
</g>
<!-- Node4 -->
<g id="node4" class="node"><title>Node4</title>
<g id="a_node4"><a xlink:href="../../d0/d32/interfaceview_1_1_i_label_information.html" target="_top" xlink:title="view.ILabelInformation">
<polygon fill="white" stroke="black" points="122,-68.5 122,-87.5 244,-87.5 244,-68.5 122,-68.5"/>
<text text-anchor="middle" x="183" y="-75.5" font-family="Helvetica,sans-Serif" font-size="10.00">view.ILabelInformation</text>
</a>
</g>
</g>
<!-- Node4&#45;&gt;Node1 -->
<g id="edge3" class="edge"><title>Node4&#45;&gt;Node1</title>
<path fill="none" stroke="#9a32cd" stroke-dasharray="5,2" d="M176.235,-59.0324C172.676,-51.6481 167.649,-43.546 161,-38 150.766,-29.4634 137.674,-23.5659 125.151,-19.5166"/>
<polygon fill="#9a32cd" stroke="#9a32cd" points="173.061,-60.5132 180.191,-68.3497 179.504,-57.7771 173.061,-60.5132"/>
<text text-anchor="middle" x="208.5" y="-41.5" font-family="Helvetica,sans-Serif" font-size="10.00"> myTurtleQuery</text>
</g>
</g>
</svg>
