<?xml version="1.0" encoding="UTF-8" standalone="no"?>
<!DOCTYPE svg PUBLIC "-//W3C//DTD SVG 1.1//EN"
 "http://www.w3.org/Graphics/SVG/1.1/DTD/svg11.dtd">
<!-- Generated by graphviz version 2.36.0 (20140111.2315)
 -->
<!-- Title: parser.commands.other.For.evaluate Pages: 1 -->
<svg width="846pt" height="361pt"
 viewBox="0.00 0.00 846.00 361.36" xmlns="http://www.w3.org/2000/svg" xmlns:xlink="http://www.w3.org/1999/xlink">
<g id="graph0" class="graph" transform="scale(1 1) rotate(0) translate(4 357.36)">
<title>parser.commands.other.For.evaluate</title>
<polygon fill="white" stroke="none" points="-4,4 -4,-357.36 842,-357.36 842,4 -4,4"/>
<!-- Node1 -->
<g id="node1" class="node"><title>Node1</title>
<polygon fill="#bfbfbf" stroke="black" points="0.5,-188.5 0.5,-207.5 193.5,-207.5 193.5,-188.5 0.5,-188.5"/>
<text text-anchor="middle" x="97" y="-195.5" font-family="Helvetica,sans-Serif" font-size="10.00">parser.commands.other.For.evaluate</text>
</g>
<!-- Node2 -->
<g id="node2" class="node"><title>Node2</title>
<g id="a_node2"><a xlink:href="../../de/df8/classparser_1_1commands_1_1other_1_1_for.html#a933e3bbdcdc5a36054aaeff53163f412" target="_top" xlink:title="parser.commands.other.For.check\lSyntax">
<polygon fill="white" stroke="black" points="233.5,-287 233.5,-317 412.5,-317 412.5,-287 233.5,-287"/>
<text text-anchor="start" x="241.5" y="-305" font-family="Helvetica,sans-Serif" font-size="10.00">parser.commands.other.For.check</text>
<text text-anchor="middle" x="323" y="-294" font-family="Helvetica,sans-Serif" font-size="10.00">Syntax</text>
</a>
</g>
</g>
<!-- Node1&#45;&gt;Node2 -->
<g id="edge1" class="edge"><title>Node1&#45;&gt;Node2</title>
<path fill="none" stroke="midnightblue" d="M112.944,-207.663C136.904,-222.856 185.725,-252.594 230,-272 239.562,-276.191 249.902,-280.115 260.08,-283.654"/>
<polygon fill="midnightblue" stroke="midnightblue" points="259.163,-287.039 269.757,-286.927 261.405,-280.408 259.163,-287.039"/>
</g>
<!-- Node3 -->
<g id="node3" class="node"><title>Node3</title>
<g id="a_node3"><a xlink:href="../../d4/d1c/classparser_1_1nodes_1_1_list_node.html#af1a89f601b40c44121d264197398164f" target="_top" xlink:title="parser.nodes.ListNode.get\lContents">
<polygon fill="white" stroke="black" points="467.5,-322 467.5,-352 610.5,-352 610.5,-322 467.5,-322"/>
<text text-anchor="start" x="475.5" y="-340" font-family="Helvetica,sans-Serif" font-size="10.00">parser.nodes.ListNode.get</text>
<text text-anchor="middle" x="539" y="-329" font-family="Helvetica,sans-Serif" font-size="10.00">Contents</text>
</a>
</g>
</g>
<!-- Node1&#45;&gt;Node3 -->
<g id="edge9" class="edge"><title>Node1&#45;&gt;Node3</title>
<path fill="none" stroke="midnightblue" d="M104.216,-207.791C120.896,-233.047 169.505,-300.219 230,-326 302.304,-356.814 393.039,-355.887 457.248,-349.501"/>
<polygon fill="midnightblue" stroke="midnightblue" points="457.744,-352.968 467.319,-348.433 457.005,-346.007 457.744,-352.968"/>
</g>
<!-- Node4 -->
<g id="node4" class="node"><title>Node4</title>
<g id="a_node4"><a xlink:href="../../db/d11/classparser_1_1nodes_1_1_binary_node.html#a555930c71203ce7c05e1290f069b19a1" target="_top" xlink:title="parser.nodes.BinaryNode.getLeft">
<polygon fill="white" stroke="black" points="452,-218.5 452,-237.5 626,-237.5 626,-218.5 452,-218.5"/>
<text text-anchor="middle" x="539" y="-225.5" font-family="Helvetica,sans-Serif" font-size="10.00">parser.nodes.BinaryNode.getLeft</text>
</a>
</g>
</g>
<!-- Node1&#45;&gt;Node4 -->
<g id="edge10" class="edge"><title>Node1&#45;&gt;Node4</title>
<path fill="none" stroke="midnightblue" d="M193.745,-204.528C267.145,-209.533 368.003,-216.409 441.573,-221.425"/>
<polygon fill="midnightblue" stroke="midnightblue" points="441.552,-224.932 451.767,-222.12 442.028,-217.948 441.552,-224.932"/>
</g>
<!-- Node6 -->
<g id="node6" class="node"><title>Node6</title>
<g id="a_node6"><a xlink:href="../../db/d11/classparser_1_1nodes_1_1_binary_node.html#a9c33799a377e3c277de0fc9138a2cb81" target="_top" xlink:title="parser.nodes.BinaryNode.get\lRight">
<polygon fill="white" stroke="black" points="461,-257 461,-287 617,-287 617,-257 461,-257"/>
<text text-anchor="start" x="469" y="-275" font-family="Helvetica,sans-Serif" font-size="10.00">parser.nodes.BinaryNode.get</text>
<text text-anchor="middle" x="539" y="-264" font-family="Helvetica,sans-Serif" font-size="10.00">Right</text>
</a>
</g>
</g>
<!-- Node1&#45;&gt;Node6 -->
<g id="edge11" class="edge"><title>Node1&#45;&gt;Node6</title>
<path fill="none" stroke="midnightblue" d="M136.24,-207.56C162.502,-213.911 198.224,-222.129 230,-228 304.089,-241.688 388.879,-253.522 450.714,-261.459"/>
<polygon fill="midnightblue" stroke="midnightblue" points="450.459,-264.955 460.821,-262.748 451.345,-258.011 450.459,-264.955"/>
</g>
<!-- Node7 -->
<g id="node7" class="node"><title>Node7</title>
<g id="a_node7"><a xlink:href="../../db/d29/classparser_1_1_variable_manager.html#a1dd0d3b879a7a7173d2c059bef5cb187" target="_top" xlink:title="parser.VariableManager.create\lVariableScope">
<polygon fill="white" stroke="black" points="241.5,-161 241.5,-191 404.5,-191 404.5,-161 241.5,-161"/>
<text text-anchor="start" x="249.5" y="-179" font-family="Helvetica,sans-Serif" font-size="10.00">parser.VariableManager.create</text>
<text text-anchor="middle" x="323" y="-168" font-family="Helvetica,sans-Serif" font-size="10.00">VariableScope</text>
</a>
</g>
</g>
<!-- Node1&#45;&gt;Node7 -->
<g id="edge7" class="edge"><title>Node1&#45;&gt;Node7</title>
<path fill="none" stroke="midnightblue" d="M193.646,-188.606C206.094,-187.384 218.818,-186.134 231.185,-184.919"/>
<polygon fill="midnightblue" stroke="midnightblue" points="231.865,-188.37 241.475,-183.909 231.18,-181.403 231.865,-188.37"/>
</g>
<!-- Node8 -->
<g id="node8" class="node"><title>Node8</title>
<g id="a_node8"><a xlink:href="../../da/d96/classparser_1_1nodes_1_1_syntax_node.html#a669c370adce66a1960835323a90b9adb" target="_top" xlink:title="parser.nodes.SyntaxNode.evaluate">
<polygon fill="white" stroke="black" points="230.5,-122.5 230.5,-141.5 415.5,-141.5 415.5,-122.5 230.5,-122.5"/>
<text text-anchor="middle" x="323" y="-129.5" font-family="Helvetica,sans-Serif" font-size="10.00">parser.nodes.SyntaxNode.evaluate</text>
</a>
</g>
</g>
<!-- Node1&#45;&gt;Node8 -->
<g id="edge8" class="edge"><title>Node1&#45;&gt;Node8</title>
<path fill="none" stroke="midnightblue" d="M122.005,-188.318C148.214,-178.016 191.581,-161.751 230,-151 239.541,-148.33 249.735,-145.857 259.734,-143.638"/>
<polygon fill="midnightblue" stroke="midnightblue" points="260.598,-147.033 269.637,-141.506 259.125,-140.19 260.598,-147.033"/>
</g>
<!-- Node9 -->
<g id="node9" class="node"><title>Node9</title>
<g id="a_node9"><a xlink:href="../../db/d29/classparser_1_1_variable_manager.html#acfee079f598dca91fef11afca02f3bbc" target="_top" xlink:title="parser.VariableManager.revert\lVariableScope">
<polygon fill="white" stroke="black" points="242.5,-73 242.5,-103 403.5,-103 403.5,-73 242.5,-73"/>
<text text-anchor="start" x="250.5" y="-91" font-family="Helvetica,sans-Serif" font-size="10.00">parser.VariableManager.revert</text>
<text text-anchor="middle" x="323" y="-80" font-family="Helvetica,sans-Serif" font-size="10.00">VariableScope</text>
</a>
</g>
</g>
<!-- Node1&#45;&gt;Node9 -->
<g id="edge12" class="edge"><title>Node1&#45;&gt;Node9</title>
<path fill="none" stroke="midnightblue" d="M110.009,-188.437C132.368,-171.065 182.437,-134.167 230,-113 235.425,-110.586 241.136,-108.357 246.947,-106.31"/>
<polygon fill="midnightblue" stroke="midnightblue" points="248.404,-109.513 256.787,-103.034 246.193,-102.872 248.404,-109.513"/>
</g>
<!-- Node10 -->
<g id="node10" class="node"><title>Node10</title>
<g id="a_node10"><a xlink:href="../../db/d29/classparser_1_1_variable_manager.html#aa9ecb1f9858ee96bc9f17e6a16adc9ad" target="_top" xlink:title="parser.VariableManager.set\lVariable">
<polygon fill="white" stroke="black" points="249.5,-24 249.5,-54 396.5,-54 396.5,-24 249.5,-24"/>
<text text-anchor="start" x="257.5" y="-42" font-family="Helvetica,sans-Serif" font-size="10.00">parser.VariableManager.set</text>
<text text-anchor="middle" x="323" y="-31" font-family="Helvetica,sans-Serif" font-size="10.00">Variable</text>
</a>
</g>
</g>
<!-- Node1&#45;&gt;Node10 -->
<g id="edge13" class="edge"><title>Node1&#45;&gt;Node10</title>
<path fill="none" stroke="midnightblue" d="M104.456,-188.441C121.714,-163.657 171.599,-96.8977 230,-63 233.185,-61.1511 236.514,-59.4422 239.938,-57.8629"/>
<polygon fill="midnightblue" stroke="midnightblue" points="241.322,-61.0777 249.186,-53.978 238.611,-54.6239 241.322,-61.0777"/>
</g>
<!-- Node2&#45;&gt;Node3 -->
<g id="edge2" class="edge"><title>Node2&#45;&gt;Node3</title>
<path fill="none" stroke="midnightblue" d="M412.587,-316.488C427.441,-318.918 442.784,-321.427 457.423,-323.822"/>
<polygon fill="midnightblue" stroke="midnightblue" points="456.997,-327.298 467.431,-325.458 458.127,-320.39 456.997,-327.298"/>
</g>
<!-- Node2&#45;&gt;Node4 -->
<g id="edge3" class="edge"><title>Node2&#45;&gt;Node4</title>
<path fill="none" stroke="midnightblue" d="M355.514,-286.921C381.078,-275.126 418.277,-258.946 452,-248 461.09,-245.05 470.853,-242.35 480.422,-239.954"/>
<polygon fill="midnightblue" stroke="midnightblue" points="481.39,-243.321 490.287,-237.57 479.745,-236.517 481.39,-243.321"/>
</g>
<!-- Node2&#45;&gt;Node6 -->
<g id="edge5" class="edge"><title>Node2&#45;&gt;Node6</title>
<path fill="none" stroke="midnightblue" d="M412.587,-289.581C425.198,-287.813 438.162,-285.996 450.748,-284.232"/>
<polygon fill="midnightblue" stroke="midnightblue" points="451.329,-287.684 460.746,-282.83 450.357,-280.752 451.329,-287.684"/>
</g>
<!-- Node5 -->
<g id="node5" class="node"><title>Node5</title>
<g id="a_node5"><a xlink:href="../../d7/d93/classparser_1_1nodes_1_1_parameter_node.html#a2c57eab9997daf1efb840a189c1034c5" target="_top" xlink:title="parser.nodes.ParameterNode.get\lParameter">
<polygon fill="white" stroke="black" points="662,-235 662,-265 838,-265 838,-235 662,-235"/>
<text text-anchor="start" x="670" y="-253" font-family="Helvetica,sans-Serif" font-size="10.00">parser.nodes.ParameterNode.get</text>
<text text-anchor="middle" x="750" y="-242" font-family="Helvetica,sans-Serif" font-size="10.00">Parameter</text>
</a>
</g>
</g>
<!-- Node4&#45;&gt;Node5 -->
<g id="edge4" class="edge"><title>Node4&#45;&gt;Node5</title>
<path fill="none" stroke="midnightblue" d="M626.215,-237.075C634.701,-237.969 643.353,-238.879 651.938,-239.783"/>
<polygon fill="midnightblue" stroke="midnightblue" points="651.659,-243.273 661.971,-240.839 652.392,-236.311 651.659,-243.273"/>
</g>
<!-- Node6&#45;&gt;Node5 -->
<g id="edge6" class="edge"><title>Node6&#45;&gt;Node5</title>
<path fill="none" stroke="midnightblue" d="M617.23,-263.871C628.472,-262.687 640.167,-261.456 651.743,-260.238"/>
<polygon fill="midnightblue" stroke="midnightblue" points="652.292,-263.699 661.87,-259.172 651.559,-256.738 652.292,-263.699"/>
</g>
<!-- Node11 -->
<g id="node11" class="node"><title>Node11</title>
<g id="a_node11"><a xlink:href="../../da/d34/classparser_1_1_variable_scope.html#a01641ffadbd14f821da3ff44d9e7ce4e" target="_top" xlink:title="parser.VariableScope.contains\lVariable">
<polygon fill="white" stroke="black" points="458.5,-0 458.5,-30 619.5,-30 619.5,-0 458.5,-0"/>
<text text-anchor="start" x="466.5" y="-18" font-family="Helvetica,sans-Serif" font-size="10.00">parser.VariableScope.contains</text>
<text text-anchor="middle" x="539" y="-7" font-family="Helvetica,sans-Serif" font-size="10.00">Variable</text>
</a>
</g>
</g>
<!-- Node10&#45;&gt;Node11 -->
<g id="edge14" class="edge"><title>Node10&#45;&gt;Node11</title>
<path fill="none" stroke="midnightblue" d="M396.749,-30.8412C413.361,-28.9782 431.204,-26.9772 448.427,-25.0455"/>
<polygon fill="midnightblue" stroke="midnightblue" points="448.935,-28.5106 458.483,-23.9178 448.155,-21.5542 448.935,-28.5106"/>
</g>
<!-- Node12 -->
<g id="node12" class="node"><title>Node12</title>
<g id="a_node12"><a xlink:href="../../da/d34/classparser_1_1_variable_scope.html#a49590398e11784b1310e8b65d9933011" target="_top" xlink:title="parser.VariableScope.set\lVariable">
<polygon fill="white" stroke="black" points="471,-49 471,-79 607,-79 607,-49 471,-49"/>
<text text-anchor="start" x="479" y="-67" font-family="Helvetica,sans-Serif" font-size="10.00">parser.VariableScope.set</text>
<text text-anchor="middle" x="539" y="-56" font-family="Helvetica,sans-Serif" font-size="10.00">Variable</text>
</a>
</g>
</g>
<!-- Node10&#45;&gt;Node12 -->
<g id="edge15" class="edge"><title>Node10&#45;&gt;Node12</title>
<path fill="none" stroke="midnightblue" d="M396.749,-47.4987C417.367,-49.9074 439.882,-52.5376 460.755,-54.976"/>
<polygon fill="midnightblue" stroke="midnightblue" points="460.516,-58.4718 470.854,-56.1559 461.328,-51.5191 460.516,-58.4718"/>
</g>
</g>
</svg>
