<?xml version="1.0" encoding="UTF-8" standalone="no"?>
<!DOCTYPE svg PUBLIC "-//W3C//DTD SVG 1.1//EN"
 "http://www.w3.org/Graphics/SVG/1.1/DTD/svg11.dtd">
<!-- Generated by graphviz version 2.36.0 (20140111.2315)
 -->
<!-- Title: parser.commands.other.For.checkSyntax Pages: 1 -->
<svg width="610pt" height="126pt"
 viewBox="0.00 0.00 610.00 126.00" xmlns="http://www.w3.org/2000/svg" xmlns:xlink="http://www.w3.org/1999/xlink">
<g id="graph0" class="graph" transform="scale(1 1) rotate(0) translate(4 122)">
<title>parser.commands.other.For.checkSyntax</title>
<polygon fill="white" stroke="none" points="-4,4 -4,-122 606,-122 606,4 -4,4"/>
<!-- Node1 -->
<g id="node1" class="node"><title>Node1</title>
<polygon fill="#bfbfbf" stroke="black" points="0.5,-44 0.5,-74 179.5,-74 179.5,-44 0.5,-44"/>
<text text-anchor="start" x="8.5" y="-62" font-family="Helvetica,sans-Serif" font-size="10.00">parser.commands.other.For.check</text>
<text text-anchor="middle" x="90" y="-51" font-family="Helvetica,sans-Serif" font-size="10.00">Syntax</text>
</g>
<!-- Node2 -->
<g id="node2" class="node"><title>Node2</title>
<g id="a_node2"><a xlink:href="../../d4/d1c/classparser_1_1nodes_1_1_list_node.html#af1a89f601b40c44121d264197398164f" target="_top" xlink:title="parser.nodes.ListNode.get\lContents">
<polygon fill="white" stroke="black" points="231.5,-88 231.5,-118 374.5,-118 374.5,-88 231.5,-88"/>
<text text-anchor="start" x="239.5" y="-106" font-family="Helvetica,sans-Serif" font-size="10.00">parser.nodes.ListNode.get</text>
<text text-anchor="middle" x="303" y="-95" font-family="Helvetica,sans-Serif" font-size="10.00">Contents</text>
</a>
</g>
</g>
<!-- Node1&#45;&gt;Node2 -->
<g id="edge1" class="edge"><title>Node1&#45;&gt;Node2</title>
<path fill="none" stroke="midnightblue" d="M163.024,-74.0192C181.832,-77.9412 202.223,-82.1935 221.443,-86.2014"/>
<polygon fill="midnightblue" stroke="midnightblue" points="220.868,-89.6567 231.372,-88.2719 222.297,-82.8042 220.868,-89.6567"/>
</g>
<!-- Node3 -->
<g id="node3" class="node"><title>Node3</title>
<g id="a_node3"><a xlink:href="../../db/d11/classparser_1_1nodes_1_1_binary_node.html#a555930c71203ce7c05e1290f069b19a1" target="_top" xlink:title="parser.nodes.BinaryNode.getLeft">
<polygon fill="white" stroke="black" points="216,-49.5 216,-68.5 390,-68.5 390,-49.5 216,-49.5"/>
<text text-anchor="middle" x="303" y="-56.5" font-family="Helvetica,sans-Serif" font-size="10.00">parser.nodes.BinaryNode.getLeft</text>
</a>
</g>
</g>
<!-- Node1&#45;&gt;Node3 -->
<g id="edge2" class="edge"><title>Node1&#45;&gt;Node3</title>
<path fill="none" stroke="midnightblue" d="M179.566,-59C188.158,-59 196.904,-59 205.568,-59"/>
<polygon fill="midnightblue" stroke="midnightblue" points="205.687,-62.5001 215.687,-59 205.687,-55.5001 205.687,-62.5001"/>
</g>
<!-- Node5 -->
<g id="node5" class="node"><title>Node5</title>
<g id="a_node5"><a xlink:href="../../db/d11/classparser_1_1nodes_1_1_binary_node.html#a9c33799a377e3c277de0fc9138a2cb81" target="_top" xlink:title="parser.nodes.BinaryNode.get\lRight">
<polygon fill="white" stroke="black" points="225,-0 225,-30 381,-30 381,-0 225,-0"/>
<text text-anchor="start" x="233" y="-18" font-family="Helvetica,sans-Serif" font-size="10.00">parser.nodes.BinaryNode.get</text>
<text text-anchor="middle" x="303" y="-7" font-family="Helvetica,sans-Serif" font-size="10.00">Right</text>
</a>
</g>
</g>
<!-- Node1&#45;&gt;Node5 -->
<g id="edge4" class="edge"><title>Node1&#45;&gt;Node5</title>
<path fill="none" stroke="midnightblue" d="M163.024,-43.9808C181.341,-40.1612 201.159,-36.0284 219.935,-32.1131"/>
<polygon fill="midnightblue" stroke="midnightblue" points="220.868,-35.494 229.943,-30.0262 219.439,-28.6414 220.868,-35.494"/>
</g>
<!-- Node4 -->
<g id="node4" class="node"><title>Node4</title>
<g id="a_node4"><a xlink:href="../../d7/d93/classparser_1_1nodes_1_1_parameter_node.html#a2c57eab9997daf1efb840a189c1034c5" target="_top" xlink:title="parser.nodes.ParameterNode.get\lParameter">
<polygon fill="white" stroke="black" points="426,-22 426,-52 602,-52 602,-22 426,-22"/>
<text text-anchor="start" x="434" y="-40" font-family="Helvetica,sans-Serif" font-size="10.00">parser.nodes.ParameterNode.get</text>
<text text-anchor="middle" x="514" y="-29" font-family="Helvetica,sans-Serif" font-size="10.00">Parameter</text>
</a>
</g>
</g>
<!-- Node3&#45;&gt;Node4 -->
<g id="edge3" class="edge"><title>Node3&#45;&gt;Node4</title>
<path fill="none" stroke="midnightblue" d="M390.215,-49.9247C398.701,-49.0315 407.353,-48.1207 415.938,-47.2171"/>
<polygon fill="midnightblue" stroke="midnightblue" points="416.392,-50.6887 425.971,-46.161 415.659,-43.7271 416.392,-50.6887"/>
</g>
<!-- Node5&#45;&gt;Node4 -->
<g id="edge5" class="edge"><title>Node5&#45;&gt;Node4</title>
<path fill="none" stroke="midnightblue" d="M381.23,-23.1295C392.472,-24.3129 404.167,-25.5439 415.743,-26.7624"/>
<polygon fill="midnightblue" stroke="midnightblue" points="415.559,-30.2623 425.87,-27.8285 416.292,-23.3007 415.559,-30.2623"/>
</g>
</g>
</svg>
