<?xml version="1.0" encoding="UTF-8" standalone="no"?>
<!DOCTYPE svg PUBLIC "-//W3C//DTD SVG 1.1//EN"
 "http://www.w3.org/Graphics/SVG/1.1/DTD/svg11.dtd">
<!-- Generated by graphviz version 2.36.0 (20140111.2315)
 -->
<!-- Title: util.Location.translate Pages: 1 -->
<svg width="820pt" height="183pt"
 viewBox="0.00 0.00 820.00 183.00" xmlns="http://www.w3.org/2000/svg" xmlns:xlink="http://www.w3.org/1999/xlink">
<g id="graph0" class="graph" transform="scale(1 1) rotate(0) translate(4 179)">
<title>util.Location.translate</title>
<polygon fill="white" stroke="none" points="-4,4 -4,-179 816,-179 816,4 -4,4"/>
<!-- Node1 -->
<g id="node1" class="node"><title>Node1</title>
<polygon fill="#bfbfbf" stroke="black" points="0,-38.5 0,-57.5 120,-57.5 120,-38.5 0,-38.5"/>
<text text-anchor="middle" x="60" y="-45.5" font-family="Helvetica,sans-Serif" font-size="10.00">util.Location.translate</text>
</g>
<!-- Node2 -->
<g id="node2" class="node"><title>Node2</title>
<g id="a_node2"><a xlink:href="../../d6/d34/classmodel_1_1_turtle.html#aeeab176e64d1ad18647e37aee02affc7" target="_top" xlink:title="model.Turtle.getPainting\lPoint">
<polygon fill="white" stroke="black" points="156.5,-77 156.5,-107 287.5,-107 287.5,-77 156.5,-77"/>
<text text-anchor="start" x="164.5" y="-95" font-family="Helvetica,sans-Serif" font-size="10.00">model.Turtle.getPainting</text>
<text text-anchor="middle" x="222" y="-84" font-family="Helvetica,sans-Serif" font-size="10.00">Point</text>
</a>
</g>
</g>
<!-- Node1&#45;&gt;Node2 -->
<g id="edge1" class="edge"><title>Node1&#45;&gt;Node2</title>
<path fill="none" stroke="midnightblue" d="M105.51,-60.2402C124.321,-65.4134 146.417,-71.4897 166.217,-76.9346"/>
<polygon fill="midnightblue" stroke="midnightblue" points="106.288,-56.8243 95.7176,-57.5473 104.432,-63.5737 106.288,-56.8243"/>
</g>
<!-- Node8 -->
<g id="node8" class="node"><title>Node8</title>
<g id="a_node8"><a xlink:href="../../d6/d34/classmodel_1_1_turtle.html#a84ecdb68ad525c369c4dc7dedd675607" target="_top" xlink:title="model.Turtle.move">
<polygon fill="white" stroke="black" points="169.5,-38.5 169.5,-57.5 274.5,-57.5 274.5,-38.5 169.5,-38.5"/>
<text text-anchor="middle" x="222" y="-45.5" font-family="Helvetica,sans-Serif" font-size="10.00">model.Turtle.move</text>
</a>
</g>
</g>
<!-- Node1&#45;&gt;Node8 -->
<g id="edge8" class="edge"><title>Node1&#45;&gt;Node8</title>
<path fill="none" stroke="midnightblue" d="M130.124,-48C143.336,-48 156.952,-48 169.493,-48"/>
<polygon fill="midnightblue" stroke="midnightblue" points="130.124,-44.5001 120.124,-48 130.123,-51.5001 130.124,-44.5001"/>
</g>
<!-- Node9 -->
<g id="node9" class="node"><title>Node9</title>
<g id="a_node9"><a xlink:href="../../d6/d34/classmodel_1_1_turtle.html#a427ec25c0a04d906a6e5d77ae5791a20" target="_top" xlink:title="model.Turtle.setPosition">
<polygon fill="white" stroke="black" points="156.5,-0.5 156.5,-19.5 287.5,-19.5 287.5,-0.5 156.5,-0.5"/>
<text text-anchor="middle" x="222" y="-7.5" font-family="Helvetica,sans-Serif" font-size="10.00">model.Turtle.setPosition</text>
</a>
</g>
</g>
<!-- Node1&#45;&gt;Node9 -->
<g id="edge9" class="edge"><title>Node1&#45;&gt;Node9</title>
<path fill="none" stroke="midnightblue" d="M111.392,-36.032C133.813,-30.7069 159.847,-24.5238 180.916,-19.5201"/>
<polygon fill="midnightblue" stroke="midnightblue" points="110.295,-32.6949 101.375,-38.411 111.913,-39.5055 110.295,-32.6949"/>
</g>
<!-- Node3 -->
<g id="node3" class="node"><title>Node3</title>
<g id="a_node3"><a xlink:href="../../d6/d34/classmodel_1_1_turtle.html#a9eb4cbe280f1a7f2d15df187986eecb8" target="_top" xlink:title="model.Turtle.getBounds">
<polygon fill="white" stroke="black" points="324,-155.5 324,-174.5 454,-174.5 454,-155.5 324,-155.5"/>
<text text-anchor="middle" x="389" y="-162.5" font-family="Helvetica,sans-Serif" font-size="10.00">model.Turtle.getBounds</text>
</a>
</g>
</g>
<!-- Node2&#45;&gt;Node3 -->
<g id="edge2" class="edge"><title>Node2&#45;&gt;Node3</title>
<path fill="none" stroke="midnightblue" d="M261.364,-111.652C280.069,-120.965 303.009,-131.995 324,-141 335.887,-146.099 349.254,-151.207 360.686,-155.392"/>
<polygon fill="midnightblue" stroke="midnightblue" points="262.784,-108.449 252.276,-107.097 259.648,-114.707 262.784,-108.449"/>
</g>
<!-- Node4 -->
<g id="node4" class="node"><title>Node4</title>
<g id="a_node4"><a xlink:href="../../d8/dff/classmodel_1_1_turtle_manager.html#a7f2863fbe8420cb5859ab922bd866b1d" target="_top" xlink:title="model.TurtleManager.paint">
<polygon fill="white" stroke="black" points="490.5,-98.5 490.5,-117.5 633.5,-117.5 633.5,-98.5 490.5,-98.5"/>
<text text-anchor="middle" x="562" y="-105.5" font-family="Helvetica,sans-Serif" font-size="10.00">model.TurtleManager.paint</text>
</a>
</g>
</g>
<!-- Node2&#45;&gt;Node4 -->
<g id="edge3" class="edge"><title>Node2&#45;&gt;Node4</title>
<path fill="none" stroke="midnightblue" d="M297.681,-105.176C306.527,-106.338 315.449,-107.327 324,-108 379.786,-112.391 443.187,-112.117 490.368,-110.895"/>
<polygon fill="midnightblue" stroke="midnightblue" points="298.133,-101.706 287.748,-103.799 297.172,-108.639 298.133,-101.706"/>
</g>
<!-- Node6 -->
<g id="node6" class="node"><title>Node6</title>
<g id="a_node6"><a xlink:href="../../d6/d34/classmodel_1_1_turtle.html#a7d850c710649567ac20161f847b2ad11" target="_top" xlink:title="model.Turtle.paint">
<polygon fill="white" stroke="black" points="338,-79.5 338,-98.5 440,-98.5 440,-79.5 338,-79.5"/>
<text text-anchor="middle" x="389" y="-86.5" font-family="Helvetica,sans-Serif" font-size="10.00">model.Turtle.paint</text>
</a>
</g>
</g>
<!-- Node2&#45;&gt;Node6 -->
<g id="edge5" class="edge"><title>Node2&#45;&gt;Node6</title>
<path fill="none" stroke="midnightblue" d="M298.019,-90.636C311.563,-90.3898 325.378,-90.1386 337.988,-89.9093"/>
<polygon fill="midnightblue" stroke="midnightblue" points="297.673,-87.1416 287.739,-90.8229 297.801,-94.1405 297.673,-87.1416"/>
</g>
<!-- Node7 -->
<g id="node7" class="node"><title>Node7</title>
<g id="a_node7"><a xlink:href="../../d6/d34/classmodel_1_1_turtle.html#a094c7d59e4551b8280a793199f612740" target="_top" xlink:title="model.Turtle.stamp">
<polygon fill="white" stroke="black" points="334.5,-41.5 334.5,-60.5 443.5,-60.5 443.5,-41.5 334.5,-41.5"/>
<text text-anchor="middle" x="389" y="-48.5" font-family="Helvetica,sans-Serif" font-size="10.00">model.Turtle.stamp</text>
</a>
</g>
</g>
<!-- Node2&#45;&gt;Node7 -->
<g id="edge7" class="edge"><title>Node2&#45;&gt;Node7</title>
<path fill="none" stroke="midnightblue" d="M293.46,-74.4918C312.699,-69.7111 332.831,-64.7086 349.549,-60.5545"/>
<polygon fill="midnightblue" stroke="midnightblue" points="292.364,-71.1576 283.503,-76.9659 294.052,-77.951 292.364,-71.1576"/>
</g>
<!-- Node5 -->
<g id="node5" class="node"><title>Node5</title>
<g id="a_node5"><a xlink:href="../../de/d84/classcontroller_1_1_workspace.html#aa3ec59da02e89f7882fb31677330af80" target="_top" xlink:title="controller.Workspace.paint">
<polygon fill="white" stroke="black" points="670,-98.5 670,-117.5 812,-117.5 812,-98.5 670,-98.5"/>
<text text-anchor="middle" x="741" y="-105.5" font-family="Helvetica,sans-Serif" font-size="10.00">controller.Workspace.paint</text>
</a>
</g>
</g>
<!-- Node4&#45;&gt;Node5 -->
<g id="edge4" class="edge"><title>Node4&#45;&gt;Node5</title>
<path fill="none" stroke="midnightblue" d="M643.879,-108C652.591,-108 661.402,-108 669.971,-108"/>
<polygon fill="midnightblue" stroke="midnightblue" points="643.718,-104.5 633.718,-108 643.718,-111.5 643.718,-104.5"/>
</g>
<!-- Node6&#45;&gt;Node4 -->
<g id="edge6" class="edge"><title>Node6&#45;&gt;Node4</title>
<path fill="none" stroke="midnightblue" d="M450.522,-95.7247C463.421,-97.1579 477.152,-98.6835 490.391,-100.155"/>
<polygon fill="midnightblue" stroke="midnightblue" points="450.706,-92.2237 440.381,-94.5979 449.933,-99.1809 450.706,-92.2237"/>
</g>
<!-- Node10 -->
<g id="node10" class="node"><title>Node10</title>
<g id="a_node10"><a xlink:href="../../d6/d34/classmodel_1_1_turtle.html#a817b1ab6a35fa3deb30ea4569ab70db1" target="_top" xlink:title="model.Turtle.goHome">
<polygon fill="white" stroke="black" points="329.5,-0.5 329.5,-19.5 448.5,-19.5 448.5,-0.5 329.5,-0.5"/>
<text text-anchor="middle" x="389" y="-7.5" font-family="Helvetica,sans-Serif" font-size="10.00">model.Turtle.goHome</text>
</a>
</g>
</g>
<!-- Node9&#45;&gt;Node10 -->
<g id="edge10" class="edge"><title>Node9&#45;&gt;Node10</title>
<path fill="none" stroke="midnightblue" d="M297.808,-10C308.388,-10 319.139,-10 329.355,-10"/>
<polygon fill="midnightblue" stroke="midnightblue" points="297.739,-6.5001 287.739,-10 297.739,-13.5001 297.739,-6.5001"/>
</g>
<!-- Node11 -->
<g id="node11" class="node"><title>Node11</title>
<g id="a_node11"><a xlink:href="../../d6/d34/classmodel_1_1_turtle.html#a65bffb6b24e40350f6094e054358dcbb" target="_top" xlink:title="model.Turtle.clear">
<polygon fill="white" stroke="black" points="511.5,-0.5 511.5,-19.5 612.5,-19.5 612.5,-0.5 511.5,-0.5"/>
<text text-anchor="middle" x="562" y="-7.5" font-family="Helvetica,sans-Serif" font-size="10.00">model.Turtle.clear</text>
</a>
</g>
</g>
<!-- Node10&#45;&gt;Node11 -->
<g id="edge11" class="edge"><title>Node10&#45;&gt;Node11</title>
<path fill="none" stroke="midnightblue" d="M459.039,-10C476.576,-10 495.073,-10 511.427,-10"/>
<polygon fill="midnightblue" stroke="midnightblue" points="458.849,-6.5001 448.848,-10 458.848,-13.5001 458.849,-6.5001"/>
</g>
</g>
</svg>
