<?xml version="1.0" encoding="UTF-8" standalone="no"?>
<!DOCTYPE svg PUBLIC "-//W3C//DTD SVG 1.1//EN"
 "http://www.w3.org/Graphics/SVG/1.1/DTD/svg11.dtd">
<!-- Generated by graphviz version 2.36.0 (20140111.2315)
 -->
<!-- Title: util.Location.translate Pages: 1 -->
<svg width="460pt" height="66pt"
 viewBox="0.00 0.00 460.00 66.00" xmlns="http://www.w3.org/2000/svg" xmlns:xlink="http://www.w3.org/1999/xlink">
<g id="graph0" class="graph" transform="scale(1 1) rotate(0) translate(4 62)">
<title>util.Location.translate</title>
<polygon fill="white" stroke="none" points="-4,4 -4,-62 456,-62 456,4 -4,4"/>
<!-- Node1 -->
<g id="node1" class="node"><title>Node1</title>
<polygon fill="#bfbfbf" stroke="black" points="0,-19.5 0,-38.5 120,-38.5 120,-19.5 0,-19.5"/>
<text text-anchor="middle" x="60" y="-26.5" font-family="Helvetica,sans-Serif" font-size="10.00">util.Location.translate</text>
</g>
<!-- Node2 -->
<g id="node2" class="node"><title>Node2</title>
<g id="a_node2"><a xlink:href="../../d4/d67/classutil_1_1_vector.html#a3509d652ff8c361b07447f55e0007f31" target="_top" xlink:title="util.Vector.getXChange">
<polygon fill="white" stroke="black" points="156.5,-38.5 156.5,-57.5 281.5,-57.5 281.5,-38.5 156.5,-38.5"/>
<text text-anchor="middle" x="219" y="-45.5" font-family="Helvetica,sans-Serif" font-size="10.00">util.Vector.getXChange</text>
</a>
</g>
</g>
<!-- Node1&#45;&gt;Node2 -->
<g id="edge1" class="edge"><title>Node1&#45;&gt;Node2</title>
<path fill="none" stroke="midnightblue" d="M120.355,-36.1831C128.843,-37.2103 137.649,-38.276 146.343,-39.3281"/>
<polygon fill="midnightblue" stroke="midnightblue" points="146.122,-42.8269 156.47,-40.5537 146.963,-35.8776 146.122,-42.8269"/>
</g>
<!-- Node5 -->
<g id="node5" class="node"><title>Node5</title>
<g id="a_node5"><a xlink:href="../../d4/d67/classutil_1_1_vector.html#aca15e89ce2edd3e93dcb73621c26237f" target="_top" xlink:title="util.Vector.getYChange">
<polygon fill="white" stroke="black" points="157,-0.5 157,-19.5 281,-19.5 281,-0.5 157,-0.5"/>
<text text-anchor="middle" x="219" y="-7.5" font-family="Helvetica,sans-Serif" font-size="10.00">util.Vector.getYChange</text>
</a>
</g>
</g>
<!-- Node1&#45;&gt;Node5 -->
<g id="edge4" class="edge"><title>Node1&#45;&gt;Node5</title>
<path fill="none" stroke="midnightblue" d="M120.355,-21.8169C129.062,-20.7633 138.103,-19.6691 147.014,-18.5907"/>
<polygon fill="midnightblue" stroke="midnightblue" points="147.487,-22.059 156.994,-17.3829 146.646,-15.1097 147.487,-22.059"/>
</g>
<!-- Node3 -->
<g id="node3" class="node"><title>Node3</title>
<g id="a_node3"><a xlink:href="../../d4/d67/classutil_1_1_vector.html#afa760c6d12c93fbfcfacd6e279d08d88" target="_top" xlink:title="util.Vector.getMagnitude">
<polygon fill="white" stroke="black" points="318.5,-38.5 318.5,-57.5 451.5,-57.5 451.5,-38.5 318.5,-38.5"/>
<text text-anchor="middle" x="385" y="-45.5" font-family="Helvetica,sans-Serif" font-size="10.00">util.Vector.getMagnitude</text>
</a>
</g>
</g>
<!-- Node2&#45;&gt;Node3 -->
<g id="edge2" class="edge"><title>Node2&#45;&gt;Node3</title>
<path fill="none" stroke="midnightblue" d="M281.534,-48C290.251,-48 299.298,-48 308.244,-48"/>
<polygon fill="midnightblue" stroke="midnightblue" points="308.28,-51.5001 318.28,-48 308.28,-44.5001 308.28,-51.5001"/>
</g>
<!-- Node4 -->
<g id="node4" class="node"><title>Node4</title>
<g id="a_node4"><a xlink:href="../../d4/d67/classutil_1_1_vector.html#acebe00e22995a3514458ffa3db195295" target="_top" xlink:title="util.Vector.getDirection">
<polygon fill="white" stroke="black" points="322.5,-0.5 322.5,-19.5 447.5,-19.5 447.5,-0.5 322.5,-0.5"/>
<text text-anchor="middle" x="385" y="-7.5" font-family="Helvetica,sans-Serif" font-size="10.00">util.Vector.getDirection</text>
</a>
</g>
</g>
<!-- Node2&#45;&gt;Node4 -->
<g id="edge3" class="edge"><title>Node2&#45;&gt;Node4</title>
<path fill="none" stroke="midnightblue" d="M261.384,-38.411C283.123,-33.3739 309.957,-27.1562 332.975,-21.8229"/>
<polygon fill="midnightblue" stroke="midnightblue" points="333.962,-25.1871 342.913,-19.5201 332.381,-18.3677 333.962,-25.1871"/>
</g>
<!-- Node5&#45;&gt;Node3 -->
<g id="edge5" class="edge"><title>Node5&#45;&gt;Node3</title>
<path fill="none" stroke="midnightblue" d="M261.384,-19.589C283.123,-24.6261 309.957,-30.8438 332.975,-36.1771"/>
<polygon fill="midnightblue" stroke="midnightblue" points="332.381,-39.6323 342.913,-38.4799 333.962,-32.8129 332.381,-39.6323"/>
</g>
<!-- Node5&#45;&gt;Node4 -->
<g id="edge6" class="edge"><title>Node5&#45;&gt;Node4</title>
<path fill="none" stroke="midnightblue" d="M281.068,-10C291.176,-10 301.74,-10 312.086,-10"/>
<polygon fill="midnightblue" stroke="midnightblue" points="312.335,-13.5001 322.335,-10 312.334,-6.5001 312.335,-13.5001"/>
</g>
</g>
</svg>
