<?xml version="1.0" encoding="UTF-8" standalone="no"?>
<!DOCTYPE svg PUBLIC "-//W3C//DTD SVG 1.1//EN"
 "http://www.w3.org/Graphics/SVG/1.1/DTD/svg11.dtd">
<!-- Generated by graphviz version 2.36.0 (20140111.2315)
 -->
<!-- Title: util.Location.getIntX Pages: 1 -->
<!--zoomable 268 -->
<svg id="main" version="1.1" xmlns="http://www.w3.org/2000/svg" xmlns:xlink="http://www.w3.org/1999/xlink" xml:space="preserve" onload="init(evt)">
<style type="text/css"><![CDATA[
.edge:hover path { stroke: red; }
.edge:hover polygon { stroke: red; fill: red; }
]]></style>
<script type="text/javascript"><![CDATA[
var edges = document.getElementsByTagName('g');
if (edges && edges.length) {
  for (var i=0;i<edges.length;i++) {
    if (edges[i].id.substr(0,4)=='edge') {
      edges[i].setAttribute('class','edge');
    }
  }
}
]]></script>
        <defs>
                <circle id="rim" cx="0" cy="0" r="7"/>
                <circle id="rim2" cx="0" cy="0" r="3.5"/>
                <g id="zoomPlus">
                        <use xlink:href="#rim" fill="#404040">
                                <set attributeName="fill" to="#808080" begin="zoomplus.mouseover" end="zoomplus.mouseout"/>
                        </use>
                        <path d="M-4,0h8M0,-4v8" fill="none" stroke="white" stroke-width="1.5" pointer-events="none"/>
                </g>
                <g id="zoomMin">
                        <use xlink:href="#rim" fill="#404040">
                                <set attributeName="fill" to="#808080" begin="zoomminus.mouseover" end="zoomminus.mouseout"/>
                        </use>
                        <path d="M-4,0h8" fill="none" stroke="white" stroke-width="1.5" pointer-events="none"/>
                </g>
                <g id="dirArrow">
                        <path fill="none" stroke="white" stroke-width="1.5" d="M0,-3.0v7 M-2.5,-0.5L0,-3.0L2.5,-0.5"/>
                </g>
               <g id="resetDef">
                       <use xlink:href="#rim2" fill="#404040">
                               <set attributeName="fill" to="#808080" begin="reset.mouseover" end="reset.mouseout"/>
                       </use>
               </g>
        </defs>

<script type="text/javascript">
var viewWidth = 1026;
var viewHeight = 268;
var sectionId = 'dynsection-2';
</script>
<script xlink:href="../../svgpan.js"/>
<svg id="graph" class="graph">
<g id="viewport">
<title>util.Location.getIntX</title>
<polygon fill="white" stroke="none" points="-4,4 -4,-264 1022,-264 1022,4 -4,4"/>
<!-- Node1 -->
<g id="node1" class="node"><title>Node1</title>
<polygon fill="#bfbfbf" stroke="black" points="0.5,-136.5 0.5,-155.5 111.5,-155.5 111.5,-136.5 0.5,-136.5"/>
<text text-anchor="middle" x="56" y="-143.5" font-family="Helvetica,sans-Serif" font-size="10.00">util.Location.getIntX</text>
</g>
<!-- Node2 -->
<g id="node2" class="node"><title>Node2</title>
<g id="a_node2"><a xlink:href="../../d6/d34/classmodel_1_1_turtle.html#adc63bb1ed5f0a894a2404b5b55a60c5d" target="_top" xlink:title="model.Turtle.boundsExceeded">
<polygon fill="white" stroke="black" points="155,-240.5 155,-259.5 315,-259.5 315,-240.5 155,-240.5"/>
<text text-anchor="middle" x="235" y="-247.5" font-family="Helvetica,sans-Serif" font-size="10.00">model.Turtle.boundsExceeded</text>
</a>
</g>
</g>
<!-- Node1&#45;&gt;Node2 -->
<g id="edge1" class="edge"><title>Node1&#45;&gt;Node2</title>
<path fill="none" stroke="midnightblue" d="M72.0905,-163.235C88.8893,-181.388 117.688,-209.572 148,-226 159.448,-232.204 172.642,-236.921 185.205,-240.458"/>
<polygon fill="midnightblue" stroke="midnightblue" points="74.5585,-160.746 65.2542,-155.678 69.3675,-165.442 74.5585,-160.746"/>
</g>
<!-- Node3 -->
<g id="node3" class="node"><title>Node3</title>
<g id="a_node3"><a xlink:href="../../d6/d34/classmodel_1_1_turtle.html#aa8650975441f4ca6e0d938c38ac2639c" target="_top" xlink:title="model.Turtle.wrapOnBoundary">
<polygon fill="white" stroke="black" points="358,-221.5 358,-240.5 518,-240.5 518,-221.5 358,-221.5"/>
<text text-anchor="middle" x="438" y="-228.5" font-family="Helvetica,sans-Serif" font-size="10.00">model.Turtle.wrapOnBoundary</text>
</a>
</g>
</g>
<!-- Node1&#45;&gt;Node3 -->
<g id="edge13" class="edge"><title>Node1&#45;&gt;Node3</title>
<path fill="none" stroke="midnightblue" d="M80.7037,-160.76C98.545,-171.168 123.958,-184.534 148,-192 217.021,-213.433 298.928,-223.09 357.889,-227.439"/>
<polygon fill="midnightblue" stroke="midnightblue" points="82.4925,-157.752 72.1114,-155.635 78.9063,-163.764 82.4925,-157.752"/>
</g>
<!-- Node5 -->
<g id="node5" class="node"><title>Node5</title>
<g id="a_node5"><a xlink:href="../../dc/da7/classparser_1_1commands_1_1turtle_1_1queries_1_1_x_cor.html#a9462aae9e68852c438ae9c7f906eedfc" target="_top" xlink:title="parser.commands.turtle.queries.\lXCor.evaluate">
<polygon fill="white" stroke="black" points="148.5,-153 148.5,-183 321.5,-183 321.5,-153 148.5,-153"/>
<text text-anchor="start" x="156.5" y="-171" font-family="Helvetica,sans-Serif" font-size="10.00">parser.commands.turtle.queries.</text>
<text text-anchor="middle" x="235" y="-160" font-family="Helvetica,sans-Serif" font-size="10.00">XCor.evaluate</text>
</a>
</g>
</g>
<!-- Node1&#45;&gt;Node5 -->
<g id="edge4" class="edge"><title>Node1&#45;&gt;Node5</title>
<path fill="none" stroke="midnightblue" d="M121.604,-154.03C130.319,-155.113 139.368,-156.238 148.377,-157.358"/>
<polygon fill="midnightblue" stroke="midnightblue" points="121.905,-150.54 111.55,-152.78 121.042,-157.487 121.905,-150.54"/>
</g>
<!-- Node6 -->
<g id="node6" class="node"><title>Node6</title>
<g id="a_node6"><a xlink:href="../../d6/d34/classmodel_1_1_turtle.html#a9eb4cbe280f1a7f2d15df187986eecb8" target="_top" xlink:title="model.Turtle.getBounds">
<polygon fill="white" stroke="black" points="170,-114.5 170,-133.5 300,-133.5 300,-114.5 170,-114.5"/>
<text text-anchor="middle" x="235" y="-121.5" font-family="Helvetica,sans-Serif" font-size="10.00">model.Turtle.getBounds</text>
</a>
</g>
</g>
<!-- Node1&#45;&gt;Node6 -->
<g id="edge5" class="edge"><title>Node1&#45;&gt;Node6</title>
<path fill="none" stroke="midnightblue" d="M121.661,-137.963C137.318,-136.017 154.051,-133.937 169.691,-131.993"/>
<polygon fill="midnightblue" stroke="midnightblue" points="121.042,-134.513 111.55,-139.22 121.905,-141.46 121.042,-134.513"/>
</g>
<!-- Node7 -->
<g id="node7" class="node"><title>Node7</title>
<g id="a_node7"><a xlink:href="../../d8/dff/classmodel_1_1_turtle_manager.html#a7f2863fbe8420cb5859ab922bd866b1d" target="_top" xlink:title="model.TurtleManager.paint">
<polygon fill="white" stroke="black" points="696.5,-57.5 696.5,-76.5 839.5,-76.5 839.5,-57.5 696.5,-57.5"/>
<text text-anchor="middle" x="768" y="-64.5" font-family="Helvetica,sans-Serif" font-size="10.00">model.TurtleManager.paint</text>
</a>
</g>
</g>
<!-- Node1&#45;&gt;Node7 -->
<g id="edge6" class="edge"><title>Node1&#45;&gt;Node7</title>
<path fill="none" stroke="midnightblue" d="M82.5637,-131.459C100.323,-122.126 124.865,-110.718 148,-105 250.105,-79.7629 556.896,-70.9138 696.477,-68.1379"/>
<polygon fill="midnightblue" stroke="midnightblue" points="80.5833,-128.551 73.447,-136.382 83.9092,-134.71 80.5833,-128.551"/>
</g>
<!-- Node9 -->
<g id="node9" class="node"><title>Node9</title>
<g id="a_node9"><a xlink:href="../../d6/d34/classmodel_1_1_turtle.html#a91368e42c1530a73f909499d8d7b8ef3" target="_top" xlink:title="model.Turtle.paintTurtle">
<polygon fill="white" stroke="black" points="171,-38.5 171,-57.5 299,-57.5 299,-38.5 171,-38.5"/>
<text text-anchor="middle" x="235" y="-45.5" font-family="Helvetica,sans-Serif" font-size="10.00">model.Turtle.paintTurtle</text>
</a>
</g>
</g>
<!-- Node1&#45;&gt;Node9 -->
<g id="edge8" class="edge"><title>Node1&#45;&gt;Node9</title>
<path fill="none" stroke="midnightblue" d="M73.6354,-128.853C90.8055,-112.085 119.091,-86.9563 148,-72 159.84,-65.8744 173.431,-61.1559 186.259,-57.5905"/>
<polygon fill="midnightblue" stroke="midnightblue" points="70.749,-126.789 66.1453,-136.331 75.6949,-131.742 70.749,-126.789"/>
</g>
<!-- Node2&#45;&gt;Node3 -->
<g id="edge2" class="edge"><title>Node2&#45;&gt;Node3</title>
<path fill="none" stroke="midnightblue" d="M325.12,-241.576C336.047,-240.543 347.156,-239.493 357.92,-238.475"/>
<polygon fill="midnightblue" stroke="midnightblue" points="324.778,-238.092 315.152,-242.518 325.437,-245.061 324.778,-238.092"/>
</g>
<!-- Node4 -->
<g id="node4" class="node"><title>Node4</title>
<g id="a_node4"><a xlink:href="../../d6/d34/classmodel_1_1_turtle.html#a84ecdb68ad525c369c4dc7dedd675607" target="_top" xlink:title="model.Turtle.move">
<polygon fill="white" stroke="black" points="554.5,-221.5 554.5,-240.5 659.5,-240.5 659.5,-221.5 554.5,-221.5"/>
<text text-anchor="middle" x="607" y="-228.5" font-family="Helvetica,sans-Serif" font-size="10.00">model.Turtle.move</text>
</a>
</g>
</g>
<!-- Node3&#45;&gt;Node4 -->
<g id="edge3" class="edge"><title>Node3&#45;&gt;Node4</title>
<path fill="none" stroke="midnightblue" d="M528.202,-231C537.138,-231 545.986,-231 554.334,-231"/>
<polygon fill="midnightblue" stroke="midnightblue" points="528.099,-227.5 518.098,-231 528.098,-234.5 528.099,-227.5"/>
</g>
<!-- Node8 -->
<g id="node8" class="node"><title>Node8</title>
<g id="a_node8"><a xlink:href="../../de/d84/classcontroller_1_1_workspace.html#aa3ec59da02e89f7882fb31677330af80" target="_top" xlink:title="controller.Workspace.paint">
<polygon fill="white" stroke="black" points="876,-57.5 876,-76.5 1018,-76.5 1018,-57.5 876,-57.5"/>
<text text-anchor="middle" x="947" y="-64.5" font-family="Helvetica,sans-Serif" font-size="10.00">controller.Workspace.paint</text>
</a>
</g>
</g>
<!-- Node7&#45;&gt;Node8 -->
<g id="edge7" class="edge"><title>Node7&#45;&gt;Node8</title>
<path fill="none" stroke="midnightblue" d="M849.879,-67C858.591,-67 867.402,-67 875.971,-67"/>
<polygon fill="midnightblue" stroke="midnightblue" points="849.718,-63.5001 839.718,-67 849.718,-70.5001 849.718,-63.5001"/>
</g>
<!-- Node10 -->
<g id="node10" class="node"><title>Node10</title>
<g id="a_node10"><a xlink:href="../../d6/d34/classmodel_1_1_turtle.html#a7d850c710649567ac20161f847b2ad11" target="_top" xlink:title="model.Turtle.paint">
<polygon fill="white" stroke="black" points="556,-38.5 556,-57.5 658,-57.5 658,-38.5 556,-38.5"/>
<text text-anchor="middle" x="607" y="-45.5" font-family="Helvetica,sans-Serif" font-size="10.00">model.Turtle.paint</text>
</a>
</g>
</g>
<!-- Node9&#45;&gt;Node10 -->
<g id="edge9" class="edge"><title>Node9&#45;&gt;Node10</title>
<path fill="none" stroke="midnightblue" d="M309.226,-48C382.192,-48 492.266,-48 555.84,-48"/>
<polygon fill="midnightblue" stroke="midnightblue" points="309.185,-44.5001 299.185,-48 309.185,-51.5001 309.185,-44.5001"/>
</g>
<!-- Node11 -->
<g id="node11" class="node"><title>Node11</title>
<g id="a_node11"><a xlink:href="../../d6/d34/classmodel_1_1_turtle.html#aae6d22acacfa7bd29fb818f4f9dd3d2e" target="_top" xlink:title="model.Turtle.paintStamp">
<polygon fill="white" stroke="black" points="371,-0.5 371,-19.5 505,-19.5 505,-0.5 371,-0.5"/>
<text text-anchor="middle" x="438" y="-7.5" font-family="Helvetica,sans-Serif" font-size="10.00">model.Turtle.paintStamp</text>
</a>
</g>
</g>
<!-- Node9&#45;&gt;Node11 -->
<g id="edge11" class="edge"><title>Node9&#45;&gt;Node11</title>
<path fill="none" stroke="midnightblue" d="M296.396,-36.5819C325.155,-31.1448 359.156,-24.7168 386.518,-19.5439"/>
<polygon fill="midnightblue" stroke="midnightblue" points="295.637,-33.1632 286.461,-38.46 296.937,-40.0414 295.637,-33.1632"/>
</g>
<!-- Node10&#45;&gt;Node7 -->
<g id="edge10" class="edge"><title>Node10&#45;&gt;Node7</title>
<path fill="none" stroke="midnightblue" d="M668.442,-55.2226C677.576,-56.3141 687.067,-57.4482 696.392,-58.5626"/>
<polygon fill="midnightblue" stroke="midnightblue" points="668.653,-51.7231 658.309,-54.0117 667.823,-58.6736 668.653,-51.7231"/>
</g>
<!-- Node11&#45;&gt;Node10 -->
<g id="edge12" class="edge"><title>Node11&#45;&gt;Node10</title>
<path fill="none" stroke="midnightblue" d="M490.965,-21.8243C514.509,-27.1816 541.974,-33.4311 564.162,-38.4799"/>
<polygon fill="midnightblue" stroke="midnightblue" points="491.668,-18.3951 481.141,-19.589 490.115,-25.2206 491.668,-18.3951"/>
</g>
</g>
</svg>
        <g id="navigator" transform="translate(0 0)" fill="#404254">
                <rect fill="#f2f5e9" fill-opacity="0.5" stroke="#606060" stroke-width=".5" x="0" y="0" width="60" height="60"/>
                <use id="zoomplus" xlink:href="#zoomPlus" x="17" y="9" onmousedown="handleZoom(evt,'in')"/>
                <use id="zoomminus" xlink:href="#zoomMin" x="42" y="9" onmousedown="handleZoom(evt,'out')"/>
                <use id="reset" xlink:href="#resetDef" x="30" y="36" onmousedown="handleReset()"/>
                <g id="arrowUp" xlink:href="#dirArrow" transform="translate(30 24)" onmousedown="handlePan(0,-1)">
                  <use xlink:href="#rim" fill="#404040">
                        <set attributeName="fill" to="#808080" begin="arrowUp.mouseover" end="arrowUp.mouseout"/>
                  </use>
                  <path fill="none" stroke="white" stroke-width="1.5" d="M0,-3.0v7 M-2.5,-0.5L0,-3.0L2.5,-0.5"/>
                </g>
                <g id="arrowRight" xlink:href="#dirArrow" transform="rotate(90) translate(36 -43)" onmousedown="handlePan(1,0)">
                  <use xlink:href="#rim" fill="#404040">
                        <set attributeName="fill" to="#808080" begin="arrowRight.mouseover" end="arrowRight.mouseout"/>
                  </use>
                  <path fill="none" stroke="white" stroke-width="1.5" d="M0,-3.0v7 M-2.5,-0.5L0,-3.0L2.5,-0.5"/>
                </g>
                <g id="arrowDown" xlink:href="#dirArrow" transform="rotate(180) translate(-30 -48)" onmousedown="handlePan(0,1)">
                  <use xlink:href="#rim" fill="#404040">
                        <set attributeName="fill" to="#808080" begin="arrowDown.mouseover" end="arrowDown.mouseout"/>
                  </use>
                  <path fill="none" stroke="white" stroke-width="1.5" d="M0,-3.0v7 M-2.5,-0.5L0,-3.0L2.5,-0.5"/>
                </g>
                <g id="arrowLeft" xlink:href="#dirArrow" transform="rotate(270) translate(-36 17)" onmousedown="handlePan(-1,0)">
                  <use xlink:href="#rim" fill="#404040">
                        <set attributeName="fill" to="#808080" begin="arrowLeft.mouseover" end="arrowLeft.mouseout"/>
                  </use>
                  <path fill="none" stroke="white" stroke-width="1.5" d="M0,-3.0v7 M-2.5,-0.5L0,-3.0L2.5,-0.5"/>
                </g>
        </g>
        <svg viewBox="0 0 15 15" width="100%" height="30px" preserveAspectRatio="xMaxYMin meet">
         <g id="arrow_out" transform="scale(0.3 0.3)">
          <a xlink:href="classutil_1_1_location_a232168bda0ff164c4721dea19a7630d8_icgraph_org.svg" target="_base">
           <rect id="button" ry="5" rx="5" y="6" x="6" height="38" width="38"
                fill="#f2f5e9" fill-opacity="0.5" stroke="#606060" stroke-width="1.0"/>
           <path id="arrow"
             d="M 11.500037,31.436501 C 11.940474,20.09759 22.043105,11.32322 32.158766,21.979434 L 37.068811,17.246167 C 37.068811,17.246167 37.088388,32 37.088388,32 L 22.160133,31.978069 C 22.160133,31.978069 26.997745,27.140456 26.997745,27.140456 C 18.528582,18.264221 13.291696,25.230495 11.500037,31.436501 z"
             style="fill:#404040;"/>
          </a>
         </g>
        </svg>
</svg>
