<?xml version="1.0" encoding="UTF-8" standalone="no"?>
<!DOCTYPE svg PUBLIC "-//W3C//DTD SVG 1.1//EN"
 "http://www.w3.org/Graphics/SVG/1.1/DTD/svg11.dtd">
<!-- Generated by graphviz version 2.36.0 (20140111.2315)
 -->
<!-- Title: util.Location.getIntY Pages: 1 -->
<svg width="1024pt" height="268pt"
 viewBox="0.00 0.00 1024.00 268.00" xmlns="http://www.w3.org/2000/svg" xmlns:xlink="http://www.w3.org/1999/xlink">
<g id="graph0" class="graph" transform="scale(1 1) rotate(0) translate(4 264)">
<title>util.Location.getIntY</title>
<polygon fill="white" stroke="none" points="-4,4 -4,-264 1020,-264 1020,4 -4,4"/>
<!-- Node1 -->
<g id="node1" class="node"><title>Node1</title>
<polygon fill="#bfbfbf" stroke="black" points="0,-136.5 0,-155.5 110,-155.5 110,-136.5 0,-136.5"/>
<text text-anchor="middle" x="55" y="-143.5" font-family="Helvetica,sans-Serif" font-size="10.00">util.Location.getIntY</text>
</g>
<!-- Node2 -->
<g id="node2" class="node"><title>Node2</title>
<g id="a_node2"><a xlink:href="../../d6/d34/classmodel_1_1_turtle.html#adc63bb1ed5f0a894a2404b5b55a60c5d" target="_top" xlink:title="model.Turtle.boundsExceeded">
<polygon fill="white" stroke="black" points="153,-240.5 153,-259.5 313,-259.5 313,-240.5 153,-240.5"/>
<text text-anchor="middle" x="233" y="-247.5" font-family="Helvetica,sans-Serif" font-size="10.00">model.Turtle.boundsExceeded</text>
</a>
</g>
</g>
<!-- Node1&#45;&gt;Node2 -->
<g id="edge1" class="edge"><title>Node1&#45;&gt;Node2</title>
<path fill="none" stroke="midnightblue" d="M70.8855,-163.242C87.4663,-181.402 115.921,-209.591 146,-226 157.295,-232.161 170.305,-236.85 182.732,-240.374"/>
<polygon fill="midnightblue" stroke="midnightblue" points="73.4092,-160.814 64.1396,-155.683 68.1864,-165.474 73.4092,-160.814"/>
</g>
<!-- Node3 -->
<g id="node3" class="node"><title>Node3</title>
<g id="a_node3"><a xlink:href="../../d6/d34/classmodel_1_1_turtle.html#aa8650975441f4ca6e0d938c38ac2639c" target="_top" xlink:title="model.Turtle.wrapOnBoundary">
<polygon fill="white" stroke="black" points="356,-221.5 356,-240.5 516,-240.5 516,-221.5 356,-221.5"/>
<text text-anchor="middle" x="436" y="-228.5" font-family="Helvetica,sans-Serif" font-size="10.00">model.Turtle.wrapOnBoundary</text>
</a>
</g>
</g>
<!-- Node1&#45;&gt;Node3 -->
<g id="edge13" class="edge"><title>Node1&#45;&gt;Node3</title>
<path fill="none" stroke="midnightblue" d="M79.9083,-161.055C97.5162,-171.423 122.403,-184.615 146,-192 214.973,-213.587 296.886,-223.226 355.861,-227.529"/>
<polygon fill="midnightblue" stroke="midnightblue" points="81.3002,-157.807 70.9294,-155.64 77.6851,-163.801 81.3002,-157.807"/>
</g>
<!-- Node5 -->
<g id="node5" class="node"><title>Node5</title>
<g id="a_node5"><a xlink:href="../../d5/d3e/classparser_1_1commands_1_1turtle_1_1queries_1_1_y_cor.html#aad7a45e54ae49d997bb8549fe0467a8d" target="_top" xlink:title="parser.commands.turtle.queries.\lYCor.evaluate">
<polygon fill="white" stroke="black" points="146.5,-153 146.5,-183 319.5,-183 319.5,-153 146.5,-153"/>
<text text-anchor="start" x="154.5" y="-171" font-family="Helvetica,sans-Serif" font-size="10.00">parser.commands.turtle.queries.</text>
<text text-anchor="middle" x="233" y="-160" font-family="Helvetica,sans-Serif" font-size="10.00">YCor.evaluate</text>
</a>
</g>
</g>
<!-- Node1&#45;&gt;Node5 -->
<g id="edge4" class="edge"><title>Node1&#45;&gt;Node5</title>
<path fill="none" stroke="midnightblue" d="M120.34,-154.043C128.765,-155.096 137.502,-156.188 146.21,-157.276"/>
<polygon fill="midnightblue" stroke="midnightblue" points="120.599,-150.548 110.242,-152.78 119.731,-157.494 120.599,-150.548"/>
</g>
<!-- Node6 -->
<g id="node6" class="node"><title>Node6</title>
<g id="a_node6"><a xlink:href="../../d6/d34/classmodel_1_1_turtle.html#a9eb4cbe280f1a7f2d15df187986eecb8" target="_top" xlink:title="model.Turtle.getBounds">
<polygon fill="white" stroke="black" points="168,-114.5 168,-133.5 298,-133.5 298,-114.5 168,-114.5"/>
<text text-anchor="middle" x="233" y="-121.5" font-family="Helvetica,sans-Serif" font-size="10.00">model.Turtle.getBounds</text>
</a>
</g>
</g>
<!-- Node1&#45;&gt;Node6 -->
<g id="edge5" class="edge"><title>Node1&#45;&gt;Node6</title>
<path fill="none" stroke="midnightblue" d="M120.239,-137.97C135.719,-136.035 152.259,-133.968 167.74,-132.032"/>
<polygon fill="midnightblue" stroke="midnightblue" points="119.731,-134.506 110.242,-139.22 120.599,-141.452 119.731,-134.506"/>
</g>
<!-- Node7 -->
<g id="node7" class="node"><title>Node7</title>
<g id="a_node7"><a xlink:href="../../d8/dff/classmodel_1_1_turtle_manager.html#a7f2863fbe8420cb5859ab922bd866b1d" target="_top" xlink:title="model.TurtleManager.paint">
<polygon fill="white" stroke="black" points="694.5,-57.5 694.5,-76.5 837.5,-76.5 837.5,-57.5 694.5,-57.5"/>
<text text-anchor="middle" x="766" y="-64.5" font-family="Helvetica,sans-Serif" font-size="10.00">model.TurtleManager.paint</text>
</a>
</g>
</g>
<!-- Node1&#45;&gt;Node7 -->
<g id="edge6" class="edge"><title>Node1&#45;&gt;Node7</title>
<path fill="none" stroke="midnightblue" d="M81.2627,-131.456C98.8182,-122.122 123.088,-110.714 146,-105 248.052,-79.5509 554.871,-70.8134 694.468,-68.1023"/>
<polygon fill="midnightblue" stroke="midnightblue" points="79.349,-128.514 72.2516,-136.38 82.7054,-134.656 79.349,-128.514"/>
</g>
<!-- Node9 -->
<g id="node9" class="node"><title>Node9</title>
<g id="a_node9"><a xlink:href="../../d6/d34/classmodel_1_1_turtle.html#a91368e42c1530a73f909499d8d7b8ef3" target="_top" xlink:title="model.Turtle.paintTurtle">
<polygon fill="white" stroke="black" points="169,-38.5 169,-57.5 297,-57.5 297,-38.5 169,-38.5"/>
<text text-anchor="middle" x="233" y="-45.5" font-family="Helvetica,sans-Serif" font-size="10.00">model.Turtle.paintTurtle</text>
</a>
</g>
</g>
<!-- Node1&#45;&gt;Node9 -->
<g id="edge8" class="edge"><title>Node1&#45;&gt;Node9</title>
<path fill="none" stroke="midnightblue" d="M72.4159,-128.844C89.3689,-112.07 117.322,-86.9353 146,-72 157.824,-65.8423 171.409,-61.1134 184.237,-57.5481"/>
<polygon fill="midnightblue" stroke="midnightblue" points="69.5619,-126.753 65.0222,-136.326 74.5408,-131.673 69.5619,-126.753"/>
</g>
<!-- Node2&#45;&gt;Node3 -->
<g id="edge2" class="edge"><title>Node2&#45;&gt;Node3</title>
<path fill="none" stroke="midnightblue" d="M323.12,-241.576C334.047,-240.543 345.156,-239.493 355.92,-238.475"/>
<polygon fill="midnightblue" stroke="midnightblue" points="322.778,-238.092 313.152,-242.518 323.437,-245.061 322.778,-238.092"/>
</g>
<!-- Node4 -->
<g id="node4" class="node"><title>Node4</title>
<g id="a_node4"><a xlink:href="../../d6/d34/classmodel_1_1_turtle.html#a84ecdb68ad525c369c4dc7dedd675607" target="_top" xlink:title="model.Turtle.move">
<polygon fill="white" stroke="black" points="552.5,-221.5 552.5,-240.5 657.5,-240.5 657.5,-221.5 552.5,-221.5"/>
<text text-anchor="middle" x="605" y="-228.5" font-family="Helvetica,sans-Serif" font-size="10.00">model.Turtle.move</text>
</a>
</g>
</g>
<!-- Node3&#45;&gt;Node4 -->
<g id="edge3" class="edge"><title>Node3&#45;&gt;Node4</title>
<path fill="none" stroke="midnightblue" d="M526.202,-231C535.138,-231 543.986,-231 552.334,-231"/>
<polygon fill="midnightblue" stroke="midnightblue" points="526.099,-227.5 516.098,-231 526.098,-234.5 526.099,-227.5"/>
</g>
<!-- Node8 -->
<g id="node8" class="node"><title>Node8</title>
<g id="a_node8"><a xlink:href="../../de/d84/classcontroller_1_1_workspace.html#aa3ec59da02e89f7882fb31677330af80" target="_top" xlink:title="controller.Workspace.paint">
<polygon fill="white" stroke="black" points="874,-57.5 874,-76.5 1016,-76.5 1016,-57.5 874,-57.5"/>
<text text-anchor="middle" x="945" y="-64.5" font-family="Helvetica,sans-Serif" font-size="10.00">controller.Workspace.paint</text>
</a>
</g>
</g>
<!-- Node7&#45;&gt;Node8 -->
<g id="edge7" class="edge"><title>Node7&#45;&gt;Node8</title>
<path fill="none" stroke="midnightblue" d="M847.879,-67C856.591,-67 865.402,-67 873.971,-67"/>
<polygon fill="midnightblue" stroke="midnightblue" points="847.718,-63.5001 837.718,-67 847.718,-70.5001 847.718,-63.5001"/>
</g>
<!-- Node10 -->
<g id="node10" class="node"><title>Node10</title>
<g id="a_node10"><a xlink:href="../../d6/d34/classmodel_1_1_turtle.html#a7d850c710649567ac20161f847b2ad11" target="_top" xlink:title="model.Turtle.paint">
<polygon fill="white" stroke="black" points="554,-38.5 554,-57.5 656,-57.5 656,-38.5 554,-38.5"/>
<text text-anchor="middle" x="605" y="-45.5" font-family="Helvetica,sans-Serif" font-size="10.00">model.Turtle.paint</text>
</a>
</g>
</g>
<!-- Node9&#45;&gt;Node10 -->
<g id="edge9" class="edge"><title>Node9&#45;&gt;Node10</title>
<path fill="none" stroke="midnightblue" d="M307.226,-48C380.192,-48 490.266,-48 553.84,-48"/>
<polygon fill="midnightblue" stroke="midnightblue" points="307.185,-44.5001 297.185,-48 307.185,-51.5001 307.185,-44.5001"/>
</g>
<!-- Node11 -->
<g id="node11" class="node"><title>Node11</title>
<g id="a_node11"><a xlink:href="../../d6/d34/classmodel_1_1_turtle.html#aae6d22acacfa7bd29fb818f4f9dd3d2e" target="_top" xlink:title="model.Turtle.paintStamp">
<polygon fill="white" stroke="black" points="369,-0.5 369,-19.5 503,-19.5 503,-0.5 369,-0.5"/>
<text text-anchor="middle" x="436" y="-7.5" font-family="Helvetica,sans-Serif" font-size="10.00">model.Turtle.paintStamp</text>
</a>
</g>
</g>
<!-- Node9&#45;&gt;Node11 -->
<g id="edge11" class="edge"><title>Node9&#45;&gt;Node11</title>
<path fill="none" stroke="midnightblue" d="M294.396,-36.5819C323.155,-31.1448 357.156,-24.7168 384.518,-19.5439"/>
<polygon fill="midnightblue" stroke="midnightblue" points="293.637,-33.1632 284.461,-38.46 294.937,-40.0414 293.637,-33.1632"/>
</g>
<!-- Node10&#45;&gt;Node7 -->
<g id="edge10" class="edge"><title>Node10&#45;&gt;Node7</title>
<path fill="none" stroke="midnightblue" d="M666.442,-55.2226C675.576,-56.3141 685.067,-57.4482 694.392,-58.5626"/>
<polygon fill="midnightblue" stroke="midnightblue" points="666.653,-51.7231 656.309,-54.0117 665.823,-58.6736 666.653,-51.7231"/>
</g>
<!-- Node11&#45;&gt;Node10 -->
<g id="edge12" class="edge"><title>Node11&#45;&gt;Node10</title>
<path fill="none" stroke="midnightblue" d="M488.965,-21.8243C512.509,-27.1816 539.974,-33.4311 562.162,-38.4799"/>
<polygon fill="midnightblue" stroke="midnightblue" points="489.668,-18.3951 479.141,-19.589 488.115,-25.2206 489.668,-18.3951"/>
</g>
</g>
</svg>
