<?xml version="1.0" encoding="UTF-8" standalone="no"?>
<!DOCTYPE svg PUBLIC "-//W3C//DTD SVG 1.1//EN"
 "http://www.w3.org/Graphics/SVG/1.1/DTD/svg11.dtd">
<!-- Generated by graphviz version 2.36.0 (20140111.2315)
 -->
<!-- Title: parser.IParserProvider.addCommand Pages: 1 -->
<!--zoomable 801 -->
<svg id="main" version="1.1" xmlns="http://www.w3.org/2000/svg" xmlns:xlink="http://www.w3.org/1999/xlink" xml:space="preserve" onload="init(evt)">
<style type="text/css"><![CDATA[
.edge:hover path { stroke: red; }
.edge:hover polygon { stroke: red; fill: red; }
]]></style>
<script type="text/javascript"><![CDATA[
var edges = document.getElementsByTagName('g');
if (edges && edges.length) {
  for (var i=0;i<edges.length;i++) {
    if (edges[i].id.substr(0,4)=='edge') {
      edges[i].setAttribute('class','edge');
    }
  }
}
]]></script>
        <defs>
                <circle id="rim" cx="0" cy="0" r="7"/>
                <circle id="rim2" cx="0" cy="0" r="3.5"/>
                <g id="zoomPlus">
                        <use xlink:href="#rim" fill="#404040">
                                <set attributeName="fill" to="#808080" begin="zoomplus.mouseover" end="zoomplus.mouseout"/>
                        </use>
                        <path d="M-4,0h8M0,-4v8" fill="none" stroke="white" stroke-width="1.5" pointer-events="none"/>
                </g>
                <g id="zoomMin">
                        <use xlink:href="#rim" fill="#404040">
                                <set attributeName="fill" to="#808080" begin="zoomminus.mouseover" end="zoomminus.mouseout"/>
                        </use>
                        <path d="M-4,0h8" fill="none" stroke="white" stroke-width="1.5" pointer-events="none"/>
                </g>
                <g id="dirArrow">
                        <path fill="none" stroke="white" stroke-width="1.5" d="M0,-3.0v7 M-2.5,-0.5L0,-3.0L2.5,-0.5"/>
                </g>
               <g id="resetDef">
                       <use xlink:href="#rim2" fill="#404040">
                               <set attributeName="fill" to="#808080" begin="reset.mouseover" end="reset.mouseout"/>
                       </use>
               </g>
        </defs>

<script type="text/javascript">
var viewWidth = 1892;
var viewHeight = 801;
var sectionId = 'dynsection-1';
</script>
<script xlink:href="../../svgpan.js"/>
<svg id="graph" class="graph">
<g id="viewport">
<title>parser.IParserProvider.addCommand</title>
<polygon fill="white" stroke="none" points="-4,4 -4,-797 1888,-797 1888,4 -4,4"/>
<!-- Node1 -->
<g id="node1" class="node"><title>Node1</title>
<polygon fill="#bfbfbf" stroke="black" points="0.5,-393 0.5,-423 141.5,-423 141.5,-393 0.5,-393"/>
<text text-anchor="start" x="8.5" y="-411" font-family="Helvetica,sans-Serif" font-size="10.00">parser.IParserProvider.add</text>
<text text-anchor="middle" x="71" y="-400" font-family="Helvetica,sans-Serif" font-size="10.00">Command</text>
</g>
<!-- Node2 -->
<g id="node2" class="node"><title>Node2</title>
<g id="a_node2"><a xlink:href="../../df/daf/classparser_1_1_semantics_table.html#a8b10ea894ea685fb78306df326a17db2" target="_top" xlink:title="parser.SemanticsTable.register\lCustomCommand">
<polygon fill="white" stroke="black" points="178,-393 178,-423 342,-423 342,-393 178,-393"/>
<text text-anchor="start" x="186" y="-411" font-family="Helvetica,sans-Serif" font-size="10.00">parser.SemanticsTable.register</text>
<text text-anchor="middle" x="260" y="-400" font-family="Helvetica,sans-Serif" font-size="10.00">CustomCommand</text>
</a>
</g>
</g>
<!-- Node1&#45;&gt;Node2 -->
<g id="edge1" class="edge"><title>Node1&#45;&gt;Node2</title>
<path fill="none" stroke="midnightblue" d="M151.731,-408C160.414,-408 169.258,-408 177.956,-408"/>
<polygon fill="midnightblue" stroke="midnightblue" points="151.632,-404.5 141.632,-408 151.632,-411.5 151.632,-404.5"/>
</g>
<!-- Node3 -->
<g id="node3" class="node"><title>Node3</title>
<g id="a_node3"><a xlink:href="../../d7/d0d/classparser_1_1_semantics_checker.html#a8620f3090287a61f86765ee920d53de0" target="_top" xlink:title="parser.SemanticsChecker.evaluate\lExpression">
<polygon fill="white" stroke="black" points="378.5,-393 378.5,-423 561.5,-423 561.5,-393 378.5,-393"/>
<text text-anchor="start" x="386.5" y="-411" font-family="Helvetica,sans-Serif" font-size="10.00">parser.SemanticsChecker.evaluate</text>
<text text-anchor="middle" x="470" y="-400" font-family="Helvetica,sans-Serif" font-size="10.00">Expression</text>
</a>
</g>
</g>
<!-- Node2&#45;&gt;Node3 -->
<g id="edge2" class="edge"><title>Node2&#45;&gt;Node3</title>
<path fill="none" stroke="midnightblue" d="M352.108,-408C360.767,-408 369.547,-408 378.203,-408"/>
<polygon fill="midnightblue" stroke="midnightblue" points="352.014,-404.5 342.014,-408 352.014,-411.5 352.014,-404.5"/>
</g>
<!-- Node4 -->
<g id="node4" class="node"><title>Node4</title>
<g id="a_node4"><a xlink:href="../../d6/d95/classparser_1_1_parser.html#ac0cfecef1d5308df35c49519d94f85a5" target="_top" xlink:title="parser.Parser.parseCommand">
<polygon fill="white" stroke="black" points="598.5,-398.5 598.5,-417.5 757.5,-417.5 757.5,-398.5 598.5,-398.5"/>
<text text-anchor="middle" x="678" y="-405.5" font-family="Helvetica,sans-Serif" font-size="10.00">parser.Parser.parseCommand</text>
</a>
</g>
</g>
<!-- Node3&#45;&gt;Node4 -->
<g id="edge3" class="edge"><title>Node3&#45;&gt;Node4</title>
<path fill="none" stroke="midnightblue" d="M571.699,-408C580.616,-408 589.557,-408 598.253,-408"/>
<polygon fill="midnightblue" stroke="midnightblue" points="571.654,-404.5 561.654,-408 571.654,-411.5 571.654,-404.5"/>
</g>
<!-- Node5 -->
<g id="node5" class="node"><title>Node5</title>
<g id="a_node5"><a xlink:href="../../d9/df7/classcontroller_1_1_controller.html#a89b63f37e67efbeddda1f247016c837b" target="_top" xlink:title="controller.Controller.process\lCommand">
<polygon fill="white" stroke="black" points="811,-760 811,-790 961,-790 961,-760 811,-760"/>
<text text-anchor="start" x="819" y="-778" font-family="Helvetica,sans-Serif" font-size="10.00">controller.Controller.process</text>
<text text-anchor="middle" x="886" y="-767" font-family="Helvetica,sans-Serif" font-size="10.00">Command</text>
</a>
</g>
</g>
<!-- Node4&#45;&gt;Node5 -->
<g id="edge4" class="edge"><title>Node4&#45;&gt;Node5</title>
<path fill="none" stroke="midnightblue" d="M679.572,-427.521C682.354,-485.456 698.649,-658.026 794,-749 798.874,-753.65 804.521,-757.478 810.568,-760.627"/>
<polygon fill="midnightblue" stroke="midnightblue" points="683.069,-427.375 679.176,-417.521 676.075,-427.652 683.069,-427.375"/>
</g>
<!-- Node8 -->
<g id="node8" class="node"><title>Node8</title>
<g id="a_node8"><a xlink:href="../../d9/df7/classcontroller_1_1_controller.html#aec5e242ff69899c974dbd6302510f70b" target="_top" xlink:title="controller.Controller.processFile">
<polygon fill="white" stroke="black" points="803.5,-720.5 803.5,-739.5 968.5,-739.5 968.5,-720.5 803.5,-720.5"/>
<text text-anchor="middle" x="886" y="-727.5" font-family="Helvetica,sans-Serif" font-size="10.00">controller.Controller.processFile</text>
</a>
</g>
</g>
<!-- Node4&#45;&gt;Node8 -->
<g id="edge7" class="edge"><title>Node4&#45;&gt;Node8</title>
<path fill="none" stroke="midnightblue" d="M680.215,-427.795C684.675,-482.187 704.933,-634.916 794,-711 798.418,-714.774 803.393,-717.862 808.68,-720.383"/>
<polygon fill="midnightblue" stroke="midnightblue" points="683.701,-427.464 679.484,-417.744 676.719,-427.972 683.701,-427.464"/>
</g>
<!-- Node13 -->
<g id="node13" class="node"><title>Node13</title>
<g id="a_node13"><a xlink:href="../../d7/dde/classparser_1_1_main.html#a75a40fb31f3397122c167e54e6e233c1" target="_top" xlink:title="parser.Main.checkFile">
<polygon fill="white" stroke="black" points="827,-682.5 827,-701.5 945,-701.5 945,-682.5 827,-682.5"/>
<text text-anchor="middle" x="886" y="-689.5" font-family="Helvetica,sans-Serif" font-size="10.00">parser.Main.checkFile</text>
</a>
</g>
</g>
<!-- Node4&#45;&gt;Node13 -->
<g id="edge13" class="edge"><title>Node4&#45;&gt;Node13</title>
<path fill="none" stroke="midnightblue" d="M681.38,-427.609C688.489,-477.159 714.278,-608.056 794,-673 803.385,-680.645 815.081,-685.441 826.929,-688.402"/>
<polygon fill="midnightblue" stroke="midnightblue" points="684.834,-427.03 680.042,-417.58 677.895,-427.955 684.834,-427.03"/>
</g>
<!-- Node15 -->
<g id="node15" class="node"><title>Node15</title>
<g id="a_node15"><a xlink:href="../../d6/d95/classparser_1_1_parser.html#afc96f83c32dde8c90fdab91dd543dddf" target="_top" xlink:title="parser.Parser.parseCommand">
<polygon fill="white" stroke="black" points="806.5,-644.5 806.5,-663.5 965.5,-663.5 965.5,-644.5 806.5,-644.5"/>
<text text-anchor="middle" x="886" y="-651.5" font-family="Helvetica,sans-Serif" font-size="10.00">parser.Parser.parseCommand</text>
</a>
</g>
</g>
<!-- Node4&#45;&gt;Node15 -->
<g id="edge15" class="edge"><title>Node4&#45;&gt;Node15</title>
<path fill="none" stroke="midnightblue" d="M682.888,-427.473C692.83,-471.887 723.527,-580.996 794,-635 798.996,-638.829 804.582,-641.932 810.462,-644.441"/>
<polygon fill="midnightblue" stroke="midnightblue" points="686.302,-426.7 680.796,-417.648 679.456,-428.158 686.302,-426.7"/>
</g>
<!-- Node16 -->
<g id="node16" class="node"><title>Node16</title>
<g id="a_node16"><a xlink:href="../../d1/d01/classparser_1_1tests_1_1_boolean_tester.html#ab009444f79be316835e50742f06550a9" target="_top" xlink:title="parser.tests.BooleanTester.testAnd">
<polygon fill="white" stroke="black" points="794,-606.5 794,-625.5 978,-625.5 978,-606.5 794,-606.5"/>
<text text-anchor="middle" x="886" y="-613.5" font-family="Helvetica,sans-Serif" font-size="10.00">parser.tests.BooleanTester.testAnd</text>
</a>
</g>
</g>
<!-- Node4&#45;&gt;Node16 -->
<g id="edge16" class="edge"><title>Node4&#45;&gt;Node16</title>
<path fill="none" stroke="midnightblue" d="M685.004,-427.2C698.1,-465.746 733.047,-552.57 794,-596 800.06,-600.318 806.88,-603.73 813.992,-606.422"/>
<polygon fill="midnightblue" stroke="midnightblue" points="688.326,-426.097 681.886,-417.684 681.674,-428.277 688.326,-426.097"/>
</g>
<!-- Node17 -->
<g id="node17" class="node"><title>Node17</title>
<g id="a_node17"><a xlink:href="../../d1/d01/classparser_1_1tests_1_1_boolean_tester.html#a99be1a3a9584ed717090f5bb310bdae0" target="_top" xlink:title="parser.tests.BooleanTester.test\lEqual">
<polygon fill="white" stroke="black" points="803.5,-557 803.5,-587 968.5,-587 968.5,-557 803.5,-557"/>
<text text-anchor="start" x="811.5" y="-575" font-family="Helvetica,sans-Serif" font-size="10.00">parser.tests.BooleanTester.test</text>
<text text-anchor="middle" x="886" y="-564" font-family="Helvetica,sans-Serif" font-size="10.00">Equal</text>
</a>
</g>
</g>
<!-- Node4&#45;&gt;Node17 -->
<g id="edge17" class="edge"><title>Node4&#45;&gt;Node17</title>
<path fill="none" stroke="midnightblue" d="M689.379,-426.848C706.919,-456.912 745.319,-515.531 794,-547 799.917,-550.825 806.413,-554.07 813.127,-556.822"/>
<polygon fill="midnightblue" stroke="midnightblue" points="692.234,-424.788 684.246,-417.828 686.15,-428.25 692.234,-424.788"/>
</g>
<!-- Node18 -->
<g id="node18" class="node"><title>Node18</title>
<g id="a_node18"><a xlink:href="../../d1/d01/classparser_1_1tests_1_1_boolean_tester.html#ad5101fc213b8aeaa37baf5e3b5868d9d" target="_top" xlink:title="parser.tests.BooleanTester.test\lGreaterThan">
<polygon fill="white" stroke="black" points="803.5,-508 803.5,-538 968.5,-538 968.5,-508 803.5,-508"/>
<text text-anchor="start" x="811.5" y="-526" font-family="Helvetica,sans-Serif" font-size="10.00">parser.tests.BooleanTester.test</text>
<text text-anchor="middle" x="886" y="-515" font-family="Helvetica,sans-Serif" font-size="10.00">GreaterThan</text>
</a>
</g>
</g>
<!-- Node4&#45;&gt;Node18 -->
<g id="edge18" class="edge"><title>Node4&#45;&gt;Node18</title>
<path fill="none" stroke="midnightblue" d="M695.756,-424.685C716.909,-444.852 755.24,-478.502 794,-498 801.611,-501.829 809.885,-505.133 818.238,-507.969"/>
<polygon fill="midnightblue" stroke="midnightblue" points="698.14,-422.122 688.524,-417.674 693.267,-427.148 698.14,-422.122"/>
</g>
<!-- Node19 -->
<g id="node19" class="node"><title>Node19</title>
<g id="a_node19"><a xlink:href="../../d1/d01/classparser_1_1tests_1_1_boolean_tester.html#a828f5f4183434799d083a68a00791dba" target="_top" xlink:title="parser.tests.BooleanTester.test\lLessThan">
<polygon fill="white" stroke="black" points="803.5,-459 803.5,-489 968.5,-489 968.5,-459 803.5,-459"/>
<text text-anchor="start" x="811.5" y="-477" font-family="Helvetica,sans-Serif" font-size="10.00">parser.tests.BooleanTester.test</text>
<text text-anchor="middle" x="886" y="-466" font-family="Helvetica,sans-Serif" font-size="10.00">LessThan</text>
</a>
</g>
</g>
<!-- Node4&#45;&gt;Node19 -->
<g id="edge19" class="edge"><title>Node4&#45;&gt;Node19</title>
<path fill="none" stroke="midnightblue" d="M713.928,-421.215C736.605,-429.606 766.88,-440.453 794,-449 804.782,-452.398 816.363,-455.78 827.529,-458.909"/>
<polygon fill="midnightblue" stroke="midnightblue" points="714.987,-417.875 704.394,-417.667 712.545,-424.435 714.987,-417.875"/>
</g>
<!-- Node20 -->
<g id="node20" class="node"><title>Node20</title>
<g id="a_node20"><a xlink:href="../../d1/d01/classparser_1_1tests_1_1_boolean_tester.html#a402bae747c40cf9030ea6e85a44b10d2" target="_top" xlink:title="parser.tests.BooleanTester.testNot">
<polygon fill="white" stroke="black" points="795,-420.5 795,-439.5 977,-439.5 977,-420.5 795,-420.5"/>
<text text-anchor="middle" x="886" y="-427.5" font-family="Helvetica,sans-Serif" font-size="10.00">parser.tests.BooleanTester.testNot</text>
</a>
</g>
</g>
<!-- Node4&#45;&gt;Node20 -->
<g id="edge20" class="edge"><title>Node4&#45;&gt;Node20</title>
<path fill="none" stroke="midnightblue" d="M767.81,-417.485C777.141,-418.481 786.63,-419.494 795.964,-420.491"/>
<polygon fill="midnightblue" stroke="midnightblue" points="768.077,-413.993 757.762,-416.411 767.333,-420.954 768.077,-413.993"/>
</g>
<!-- Node21 -->
<g id="node21" class="node"><title>Node21</title>
<g id="a_node21"><a xlink:href="../../d1/d01/classparser_1_1tests_1_1_boolean_tester.html#ac0deac7b7ba9e48e30a9ed6cff134d09" target="_top" xlink:title="parser.tests.BooleanTester.test\lNotEqual">
<polygon fill="white" stroke="black" points="803.5,-371 803.5,-401 968.5,-401 968.5,-371 803.5,-371"/>
<text text-anchor="start" x="811.5" y="-389" font-family="Helvetica,sans-Serif" font-size="10.00">parser.tests.BooleanTester.test</text>
<text text-anchor="middle" x="886" y="-378" font-family="Helvetica,sans-Serif" font-size="10.00">NotEqual</text>
</a>
</g>
</g>
<!-- Node4&#45;&gt;Node21 -->
<g id="edge21" class="edge"><title>Node4&#45;&gt;Node21</title>
<path fill="none" stroke="midnightblue" d="M767.969,-398.498C779.675,-397.248 791.627,-395.972 803.206,-394.735"/>
<polygon fill="midnightblue" stroke="midnightblue" points="767.333,-395.046 757.762,-399.589 768.077,-402.007 767.333,-395.046"/>
</g>
<!-- Node22 -->
<g id="node22" class="node"><title>Node22</title>
<g id="a_node22"><a xlink:href="../../d1/d01/classparser_1_1tests_1_1_boolean_tester.html#a733a8bed2ef17160461077bd2e53490c" target="_top" xlink:title="parser.tests.BooleanTester.testOr">
<polygon fill="white" stroke="black" points="798,-332.5 798,-351.5 974,-351.5 974,-332.5 798,-332.5"/>
<text text-anchor="middle" x="886" y="-339.5" font-family="Helvetica,sans-Serif" font-size="10.00">parser.tests.BooleanTester.testOr</text>
</a>
</g>
</g>
<!-- Node4&#45;&gt;Node22 -->
<g id="edge22" class="edge"><title>Node4&#45;&gt;Node22</title>
<path fill="none" stroke="midnightblue" d="M709.02,-394.413C731.944,-384.428 764.507,-371.072 794,-362 806.987,-358.005 821.249,-354.478 834.551,-351.543"/>
<polygon fill="midnightblue" stroke="midnightblue" points="707.563,-391.231 699.822,-398.465 710.385,-397.637 707.563,-391.231"/>
</g>
<!-- Node23 -->
<g id="node23" class="node"><title>Node23</title>
<g id="a_node23"><a xlink:href="../../d3/d64/classparser_1_1tests_1_1_math_tester.html#a0059e207747b76f3579b4218cfe7c5dc" target="_top" xlink:title="parser.tests.MathTester.testSum">
<polygon fill="white" stroke="black" points="799.5,-294.5 799.5,-313.5 972.5,-313.5 972.5,-294.5 799.5,-294.5"/>
<text text-anchor="middle" x="886" y="-301.5" font-family="Helvetica,sans-Serif" font-size="10.00">parser.tests.MathTester.testSum</text>
</a>
</g>
</g>
<!-- Node4&#45;&gt;Node23 -->
<g id="edge23" class="edge"><title>Node4&#45;&gt;Node23</title>
<path fill="none" stroke="midnightblue" d="M696.362,-391.337C717.632,-371.889 755.596,-340.204 794,-323 802.69,-319.107 812.208,-315.999 821.711,-313.522"/>
<polygon fill="midnightblue" stroke="midnightblue" points="693.742,-388.995 688.812,-398.373 698.514,-394.116 693.742,-388.995"/>
</g>
<!-- Node24 -->
<g id="node24" class="node"><title>Node24</title>
<g id="a_node24"><a xlink:href="../../d3/d64/classparser_1_1tests_1_1_math_tester.html#a1677c0f6237b5c48799087b702e713ca" target="_top" xlink:title="parser.tests.MathTester.test\lDifference">
<polygon fill="white" stroke="black" points="811,-245 811,-275 961,-275 961,-245 811,-245"/>
<text text-anchor="start" x="819" y="-263" font-family="Helvetica,sans-Serif" font-size="10.00">parser.tests.MathTester.test</text>
<text text-anchor="middle" x="886" y="-252" font-family="Helvetica,sans-Serif" font-size="10.00">Difference</text>
</a>
</g>
</g>
<!-- Node4&#45;&gt;Node24 -->
<g id="edge24" class="edge"><title>Node4&#45;&gt;Node24</title>
<path fill="none" stroke="midnightblue" d="M690.984,-389.824C709.725,-362.849 748.565,-312.455 794,-285 800.31,-281.187 807.214,-277.942 814.307,-275.183"/>
<polygon fill="midnightblue" stroke="midnightblue" points="687.941,-388.075 685.215,-398.313 693.731,-392.009 687.941,-388.075"/>
</g>
<!-- Node25 -->
<g id="node25" class="node"><title>Node25</title>
<g id="a_node25"><a xlink:href="../../d3/d64/classparser_1_1tests_1_1_math_tester.html#af3c9e732ab91e0cad71ea7cd66a7a0d4" target="_top" xlink:title="parser.tests.MathTester.test\lProduct">
<polygon fill="white" stroke="black" points="811,-196 811,-226 961,-226 961,-196 811,-196"/>
<text text-anchor="start" x="819" y="-214" font-family="Helvetica,sans-Serif" font-size="10.00">parser.tests.MathTester.test</text>
<text text-anchor="middle" x="886" y="-203" font-family="Helvetica,sans-Serif" font-size="10.00">Product</text>
</a>
</g>
</g>
<!-- Node4&#45;&gt;Node25 -->
<g id="edge25" class="edge"><title>Node4&#45;&gt;Node25</title>
<path fill="none" stroke="midnightblue" d="M686.451,-388.759C701.295,-353.02 738.024,-276.367 794,-236 799.316,-232.167 805.192,-228.921 811.323,-226.173"/>
<polygon fill="midnightblue" stroke="midnightblue" points="683.037,-387.867 682.55,-398.451 689.531,-390.481 683.037,-387.867"/>
</g>
<!-- Node26 -->
<g id="node26" class="node"><title>Node26</title>
<g id="a_node26"><a xlink:href="../../d3/d64/classparser_1_1tests_1_1_math_tester.html#a0bee886e0100c55a64fb804fa462e079" target="_top" xlink:title="parser.tests.MathTester.test\lQuotient">
<polygon fill="white" stroke="black" points="811,-147 811,-177 961,-177 961,-147 811,-147"/>
<text text-anchor="start" x="819" y="-165" font-family="Helvetica,sans-Serif" font-size="10.00">parser.tests.MathTester.test</text>
<text text-anchor="middle" x="886" y="-154" font-family="Helvetica,sans-Serif" font-size="10.00">Quotient</text>
</a>
</g>
</g>
<!-- Node4&#45;&gt;Node26 -->
<g id="edge26" class="edge"><title>Node4&#45;&gt;Node26</title>
<path fill="none" stroke="midnightblue" d="M683.504,-388.461C694.493,-345.278 726.84,-241.26 794,-187 799.098,-182.881 804.824,-179.44 810.858,-176.563"/>
<polygon fill="midnightblue" stroke="midnightblue" points="680.078,-387.738 681.111,-398.282 686.879,-389.395 680.078,-387.738"/>
</g>
<!-- Node27 -->
<g id="node27" class="node"><title>Node27</title>
<g id="a_node27"><a xlink:href="../../d3/d64/classparser_1_1tests_1_1_math_tester.html#a06cade99788206056814bc20735cd193" target="_top" xlink:title="parser.tests.MathTester.test\lMinus">
<polygon fill="white" stroke="black" points="811,-98 811,-128 961,-128 961,-98 811,-98"/>
<text text-anchor="start" x="819" y="-116" font-family="Helvetica,sans-Serif" font-size="10.00">parser.tests.MathTester.test</text>
<text text-anchor="middle" x="886" y="-105" font-family="Helvetica,sans-Serif" font-size="10.00">Minus</text>
</a>
</g>
</g>
<!-- Node4&#45;&gt;Node27 -->
<g id="edge27" class="edge"><title>Node4&#45;&gt;Node27</title>
<path fill="none" stroke="midnightblue" d="M681.506,-388.326C688.91,-338.557 715.336,-206.733 794,-138 799.058,-133.58 804.831,-129.935 810.959,-126.929"/>
<polygon fill="midnightblue" stroke="midnightblue" points="678.017,-388.007 680.106,-398.394 684.95,-388.971 678.017,-388.007"/>
</g>
<!-- Node28 -->
<g id="node28" class="node"><title>Node28</title>
<g id="a_node28"><a xlink:href="../../d3/d64/classparser_1_1tests_1_1_math_tester.html#aeba46a296188edda903e21c6be23bdd8" target="_top" xlink:title="parser.tests.MathTester.test\lRemainder">
<polygon fill="white" stroke="black" points="811,-49 811,-79 961,-79 961,-49 811,-49"/>
<text text-anchor="start" x="819" y="-67" font-family="Helvetica,sans-Serif" font-size="10.00">parser.tests.MathTester.test</text>
<text text-anchor="middle" x="886" y="-56" font-family="Helvetica,sans-Serif" font-size="10.00">Remainder</text>
</a>
</g>
</g>
<!-- Node4&#45;&gt;Node28 -->
<g id="edge28" class="edge"><title>Node4&#45;&gt;Node28</title>
<path fill="none" stroke="midnightblue" d="M680.065,-388.239C684.161,-332.489 703.622,-172.599 794,-89 798.931,-84.4386 804.617,-80.697 810.689,-77.6297"/>
<polygon fill="midnightblue" stroke="midnightblue" points="676.554,-388.286 679.404,-398.49 683.54,-388.736 676.554,-388.286"/>
</g>
<!-- Node29 -->
<g id="node29" class="node"><title>Node29</title>
<g id="a_node29"><a xlink:href="../../d3/d64/classparser_1_1tests_1_1_math_tester.html#a0834a1beeeb3689ab52b3523b1ec053e" target="_top" xlink:title="parser.tests.MathTester.test\lRandom">
<polygon fill="white" stroke="black" points="811,-0 811,-30 961,-30 961,-0 811,-0"/>
<text text-anchor="start" x="819" y="-18" font-family="Helvetica,sans-Serif" font-size="10.00">parser.tests.MathTester.test</text>
<text text-anchor="middle" x="886" y="-7" font-family="Helvetica,sans-Serif" font-size="10.00">Random</text>
</a>
</g>
</g>
<!-- Node4&#45;&gt;Node29 -->
<g id="edge29" class="edge"><title>Node4&#45;&gt;Node29</title>
<path fill="none" stroke="midnightblue" d="M678.973,-388.135C680.012,-326.819 691.777,-138.729 794,-40 798.95,-35.2195 804.725,-31.3348 810.921,-28.1804"/>
<polygon fill="midnightblue" stroke="midnightblue" points="675.472,-388.323 678.885,-398.353 682.471,-388.384 675.472,-388.323"/>
</g>
<!-- Node6 -->
<g id="node6" class="node"><title>Node6</title>
<g id="a_node6"><a xlink:href="../../d9/df7/classcontroller_1_1_controller.html#a2bfb87bca460d87b2c97e0b5045a2175" target="_top" xlink:title="controller.Controller.create\lRunCommandListener">
<polygon fill="white" stroke="black" points="1184.5,-763 1184.5,-793 1327.5,-793 1327.5,-763 1184.5,-763"/>
<text text-anchor="start" x="1192.5" y="-781" font-family="Helvetica,sans-Serif" font-size="10.00">controller.Controller.create</text>
<text text-anchor="middle" x="1256" y="-770" font-family="Helvetica,sans-Serif" font-size="10.00">RunCommandListener</text>
</a>
</g>
</g>
<!-- Node5&#45;&gt;Node6 -->
<g id="edge5" class="edge"><title>Node5&#45;&gt;Node6</title>
<path fill="none" stroke="midnightblue" d="M971.156,-775.686C1035.57,-776.211 1123.39,-776.927 1184.21,-777.423"/>
<polygon fill="midnightblue" stroke="midnightblue" points="971.056,-772.185 961.028,-775.603 970.999,-779.185 971.056,-772.185"/>
</g>
<!-- Node7 -->
<g id="node7" class="node"><title>Node7</title>
<g id="a_node7"><a xlink:href="../../d9/df7/classcontroller_1_1_controller.html#a47511ec57338c8e75e71e9314cda5271" target="_top" xlink:title="controller.Controller.Controller">
<polygon fill="white" stroke="black" points="1724.5,-744.5 1724.5,-763.5 1883.5,-763.5 1883.5,-744.5 1724.5,-744.5"/>
<text text-anchor="middle" x="1804" y="-751.5" font-family="Helvetica,sans-Serif" font-size="10.00">controller.Controller.Controller</text>
</a>
</g>
</g>
<!-- Node6&#45;&gt;Node7 -->
<g id="edge6" class="edge"><title>Node6&#45;&gt;Node7</title>
<path fill="none" stroke="midnightblue" d="M1337.67,-774.454C1441.64,-769.884 1621.25,-761.989 1724.27,-757.461"/>
<polygon fill="midnightblue" stroke="midnightblue" points="1337.38,-770.963 1327.54,-774.899 1337.69,-777.957 1337.38,-770.963"/>
</g>
<!-- Node9 -->
<g id="node9" class="node"><title>Node9</title>
<g id="a_node9"><a xlink:href="../../d9/df7/classcontroller_1_1_controller.html#a37c3009658f66dc4de0be01b75adf660" target="_top" xlink:title="controller.Controller.load\lWorkspace">
<polygon fill="white" stroke="black" points="1014.5,-715 1014.5,-745 1147.5,-745 1147.5,-715 1014.5,-715"/>
<text text-anchor="start" x="1022.5" y="-733" font-family="Helvetica,sans-Serif" font-size="10.00">controller.Controller.load</text>
<text text-anchor="middle" x="1081" y="-722" font-family="Helvetica,sans-Serif" font-size="10.00">Workspace</text>
</a>
</g>
</g>
<!-- Node8&#45;&gt;Node9 -->
<g id="edge8" class="edge"><title>Node8&#45;&gt;Node9</title>
<path fill="none" stroke="midnightblue" d="M978.618,-730C990.629,-730 1002.74,-730 1014.21,-730"/>
<polygon fill="midnightblue" stroke="midnightblue" points="978.57,-726.5 968.57,-730 978.57,-733.5 978.57,-726.5"/>
</g>
<!-- Node10 -->
<g id="node10" class="node"><title>Node10</title>
<g id="a_node10"><a xlink:href="../../d9/df7/classcontroller_1_1_controller.html#aa46804b9ca132af8504b5dafb1cadb0d" target="_top" xlink:title="controller.Controller.create\lFileCommands">
<polygon fill="white" stroke="black" points="1184.5,-714 1184.5,-744 1327.5,-744 1327.5,-714 1184.5,-714"/>
<text text-anchor="start" x="1192.5" y="-732" font-family="Helvetica,sans-Serif" font-size="10.00">controller.Controller.create</text>
<text text-anchor="middle" x="1256" y="-721" font-family="Helvetica,sans-Serif" font-size="10.00">FileCommands</text>
</a>
</g>
</g>
<!-- Node9&#45;&gt;Node10 -->
<g id="edge9" class="edge"><title>Node9&#45;&gt;Node10</title>
<path fill="none" stroke="midnightblue" d="M1158.08,-729.56C1166.83,-729.51 1175.72,-729.458 1184.39,-729.408"/>
<polygon fill="midnightblue" stroke="midnightblue" points="1157.88,-726.061 1147.9,-729.619 1157.92,-733.061 1157.88,-726.061"/>
</g>
<!-- Node11 -->
<g id="node11" class="node"><title>Node11</title>
<g id="a_node11"><a xlink:href="../../d9/df7/classcontroller_1_1_controller.html#af4c05286f1534b1fa6de523c54549288" target="_top" xlink:title="controller.Controller.create\lFileMenu">
<polygon fill="white" stroke="black" points="1364.5,-716 1364.5,-746 1507.5,-746 1507.5,-716 1364.5,-716"/>
<text text-anchor="start" x="1372.5" y="-734" font-family="Helvetica,sans-Serif" font-size="10.00">controller.Controller.create</text>
<text text-anchor="middle" x="1436" y="-723" font-family="Helvetica,sans-Serif" font-size="10.00">FileMenu</text>
</a>
</g>
</g>
<!-- Node10&#45;&gt;Node11 -->
<g id="edge10" class="edge"><title>Node10&#45;&gt;Node11</title>
<path fill="none" stroke="midnightblue" d="M1337.65,-729.906C1346.6,-730.007 1355.67,-730.109 1364.48,-730.208"/>
<polygon fill="midnightblue" stroke="midnightblue" points="1337.64,-726.406 1327.61,-729.793 1337.57,-733.406 1337.64,-726.406"/>
</g>
<!-- Node12 -->
<g id="node12" class="node"><title>Node12</title>
<g id="a_node12"><a xlink:href="../../d9/df7/classcontroller_1_1_controller.html#a2901bf43bb8e47b485558dbf00d40d6d" target="_top" xlink:title="controller.Controller.create\lJMenuBar">
<polygon fill="white" stroke="black" points="1544.5,-717 1544.5,-747 1687.5,-747 1687.5,-717 1544.5,-717"/>
<text text-anchor="start" x="1552.5" y="-735" font-family="Helvetica,sans-Serif" font-size="10.00">controller.Controller.create</text>
<text text-anchor="middle" x="1616" y="-724" font-family="Helvetica,sans-Serif" font-size="10.00">JMenuBar</text>
</a>
</g>
</g>
<!-- Node11&#45;&gt;Node12 -->
<g id="edge11" class="edge"><title>Node11&#45;&gt;Node12</title>
<path fill="none" stroke="midnightblue" d="M1517.65,-731.453C1526.6,-731.503 1535.67,-731.554 1544.48,-731.604"/>
<polygon fill="midnightblue" stroke="midnightblue" points="1517.63,-727.953 1507.61,-731.397 1517.59,-734.953 1517.63,-727.953"/>
</g>
<!-- Node12&#45;&gt;Node7 -->
<g id="edge12" class="edge"><title>Node12&#45;&gt;Node7</title>
<path fill="none" stroke="midnightblue" d="M1697.55,-741.527C1706.45,-742.58 1715.5,-743.651 1724.38,-744.701"/>
<polygon fill="midnightblue" stroke="midnightblue" points="1697.93,-738.048 1687.58,-740.349 1697.1,-744.999 1697.93,-738.048"/>
</g>
<!-- Node14 -->
<g id="node14" class="node"><title>Node14</title>
<g id="a_node14"><a xlink:href="../../d7/dde/classparser_1_1_main.html#ac3abd936d94632f17feedf0cce82afff" target="_top" xlink:title="parser.Main.main">
<polygon fill="white" stroke="black" points="1031.5,-676.5 1031.5,-695.5 1130.5,-695.5 1130.5,-676.5 1031.5,-676.5"/>
<text text-anchor="middle" x="1081" y="-683.5" font-family="Helvetica,sans-Serif" font-size="10.00">parser.Main.main</text>
</a>
</g>
</g>
<!-- Node13&#45;&gt;Node14 -->
<g id="edge14" class="edge"><title>Node13&#45;&gt;Node14</title>
<path fill="none" stroke="midnightblue" d="M955.366,-689.875C980.471,-689.094 1008.36,-688.227 1031.38,-687.512"/>
<polygon fill="midnightblue" stroke="midnightblue" points="955.054,-686.383 945.168,-690.192 955.272,-693.379 955.054,-686.383"/>
</g>
</g>
</svg>
        <g id="navigator" transform="translate(0 0)" fill="#404254">
                <rect fill="#f2f5e9" fill-opacity="0.5" stroke="#606060" stroke-width=".5" x="0" y="0" width="60" height="60"/>
                <use id="zoomplus" xlink:href="#zoomPlus" x="17" y="9" onmousedown="handleZoom(evt,'in')"/>
                <use id="zoomminus" xlink:href="#zoomMin" x="42" y="9" onmousedown="handleZoom(evt,'out')"/>
                <use id="reset" xlink:href="#resetDef" x="30" y="36" onmousedown="handleReset()"/>
                <g id="arrowUp" xlink:href="#dirArrow" transform="translate(30 24)" onmousedown="handlePan(0,-1)">
                  <use xlink:href="#rim" fill="#404040">
                        <set attributeName="fill" to="#808080" begin="arrowUp.mouseover" end="arrowUp.mouseout"/>
                  </use>
                  <path fill="none" stroke="white" stroke-width="1.5" d="M0,-3.0v7 M-2.5,-0.5L0,-3.0L2.5,-0.5"/>
                </g>
                <g id="arrowRight" xlink:href="#dirArrow" transform="rotate(90) translate(36 -43)" onmousedown="handlePan(1,0)">
                  <use xlink:href="#rim" fill="#404040">
                        <set attributeName="fill" to="#808080" begin="arrowRight.mouseover" end="arrowRight.mouseout"/>
                  </use>
                  <path fill="none" stroke="white" stroke-width="1.5" d="M0,-3.0v7 M-2.5,-0.5L0,-3.0L2.5,-0.5"/>
                </g>
                <g id="arrowDown" xlink:href="#dirArrow" transform="rotate(180) translate(-30 -48)" onmousedown="handlePan(0,1)">
                  <use xlink:href="#rim" fill="#404040">
                        <set attributeName="fill" to="#808080" begin="arrowDown.mouseover" end="arrowDown.mouseout"/>
                  </use>
                  <path fill="none" stroke="white" stroke-width="1.5" d="M0,-3.0v7 M-2.5,-0.5L0,-3.0L2.5,-0.5"/>
                </g>
                <g id="arrowLeft" xlink:href="#dirArrow" transform="rotate(270) translate(-36 17)" onmousedown="handlePan(-1,0)">
                  <use xlink:href="#rim" fill="#404040">
                        <set attributeName="fill" to="#808080" begin="arrowLeft.mouseover" end="arrowLeft.mouseout"/>
                  </use>
                  <path fill="none" stroke="white" stroke-width="1.5" d="M0,-3.0v7 M-2.5,-0.5L0,-3.0L2.5,-0.5"/>
                </g>
        </g>
        <svg viewBox="0 0 15 15" width="100%" height="30px" preserveAspectRatio="xMaxYMin meet">
         <g id="arrow_out" transform="scale(0.3 0.3)">
          <a xlink:href="interfaceparser_1_1_i_parser_provider_a933bbd5080c55f69c3e3f740a465e0a5_icgraph_org.svg" target="_base">
           <rect id="button" ry="5" rx="5" y="6" x="6" height="38" width="38"
                fill="#f2f5e9" fill-opacity="0.5" stroke="#606060" stroke-width="1.0"/>
           <path id="arrow"
             d="M 11.500037,31.436501 C 11.940474,20.09759 22.043105,11.32322 32.158766,21.979434 L 37.068811,17.246167 C 37.068811,17.246167 37.088388,32 37.088388,32 L 22.160133,31.978069 C 22.160133,31.978069 26.997745,27.140456 26.997745,27.140456 C 18.528582,18.264221 13.291696,25.230495 11.500037,31.436501 z"
             style="fill:#404040;"/>
          </a>
         </g>
        </svg>
</svg>
