<?xml version="1.0" encoding="UTF-8" standalone="no"?>
<!DOCTYPE svg PUBLIC "-//W3C//DTD SVG 1.1//EN"
 "http://www.w3.org/Graphics/SVG/1.1/DTD/svg11.dtd">
<!-- Generated by graphviz version 2.36.0 (20140111.2315)
 -->
<!-- Title: parser.IParserProvider.getCommand Pages: 1 -->
<svg width="2104pt" height="801pt"
 viewBox="0.00 0.00 2104.00 801.00" xmlns="http://www.w3.org/2000/svg" xmlns:xlink="http://www.w3.org/1999/xlink">
<g id="graph0" class="graph" transform="scale(1 1) rotate(0) translate(4 797)">
<title>parser.IParserProvider.getCommand</title>
<polygon fill="white" stroke="none" points="-4,4 -4,-797 2100,-797 2100,4 -4,4"/>
<!-- Node1 -->
<g id="node1" class="node"><title>Node1</title>
<polygon fill="#bfbfbf" stroke="black" points="0.5,-415 0.5,-445 139.5,-445 139.5,-415 0.5,-415"/>
<text text-anchor="start" x="8.5" y="-433" font-family="Helvetica,sans-Serif" font-size="10.00">parser.IParserProvider.get</text>
<text text-anchor="middle" x="70" y="-422" font-family="Helvetica,sans-Serif" font-size="10.00">Command</text>
</g>
<!-- Node2 -->
<g id="node2" class="node"><title>Node2</title>
<g id="a_node2"><a xlink:href="../../df/daf/classparser_1_1_semantics_table.html#ad21bbcf3716340782e1da8da4efe1e82" target="_top" xlink:title="parser.SemanticsTable.get\lCommand">
<polygon fill="white" stroke="black" points="176.5,-415 176.5,-445 319.5,-445 319.5,-415 176.5,-415"/>
<text text-anchor="start" x="184.5" y="-433" font-family="Helvetica,sans-Serif" font-size="10.00">parser.SemanticsTable.get</text>
<text text-anchor="middle" x="248" y="-422" font-family="Helvetica,sans-Serif" font-size="10.00">Command</text>
</a>
</g>
</g>
<!-- Node1&#45;&gt;Node2 -->
<g id="edge1" class="edge"><title>Node1&#45;&gt;Node2</title>
<path fill="none" stroke="midnightblue" d="M149.83,-430C158.654,-430 167.603,-430 176.315,-430"/>
<polygon fill="midnightblue" stroke="midnightblue" points="149.55,-426.5 139.55,-430 149.55,-433.5 149.55,-426.5"/>
</g>
<!-- Node3 -->
<g id="node3" class="node"><title>Node3</title>
<g id="a_node3"><a xlink:href="../../df/ddc/classparser_1_1nodes_1_1_command_node.html#afc528cdec7c087a621e6828b02bce48b" target="_top" xlink:title="parser.nodes.CommandNode.\lCommandNode">
<polygon fill="white" stroke="black" points="374.5,-437 374.5,-467 535.5,-467 535.5,-437 374.5,-437"/>
<text text-anchor="start" x="382.5" y="-455" font-family="Helvetica,sans-Serif" font-size="10.00">parser.nodes.CommandNode.</text>
<text text-anchor="middle" x="455" y="-444" font-family="Helvetica,sans-Serif" font-size="10.00">CommandNode</text>
</a>
</g>
</g>
<!-- Node2&#45;&gt;Node3 -->
<g id="edge2" class="edge"><title>Node2&#45;&gt;Node3</title>
<path fill="none" stroke="midnightblue" d="M329.584,-438.648C344.245,-440.221 359.534,-441.862 374.173,-443.433"/>
<polygon fill="midnightblue" stroke="midnightblue" points="329.866,-435.158 319.549,-437.571 329.119,-442.118 329.866,-435.158"/>
</g>
<!-- Node4 -->
<g id="node4" class="node"><title>Node4</title>
<g id="a_node4"><a xlink:href="../../d7/d0d/classparser_1_1_semantics_checker.html#a9874458f603e4eac6181412441aff5af" target="_top" xlink:title="parser.SemanticsChecker.createNode">
<polygon fill="white" stroke="black" points="356,-398.5 356,-417.5 554,-417.5 554,-398.5 356,-398.5"/>
<text text-anchor="middle" x="455" y="-405.5" font-family="Helvetica,sans-Serif" font-size="10.00">parser.SemanticsChecker.createNode</text>
</a>
</g>
</g>
<!-- Node2&#45;&gt;Node4 -->
<g id="edge3" class="edge"><title>Node2&#45;&gt;Node4</title>
<path fill="none" stroke="midnightblue" d="M329.681,-421.342C341.344,-420.09 353.402,-418.796 365.213,-417.528"/>
<polygon fill="midnightblue" stroke="midnightblue" points="329.119,-417.882 319.549,-422.429 329.866,-424.842 329.119,-417.882"/>
</g>
<!-- Node5 -->
<g id="node5" class="node"><title>Node5</title>
<g id="a_node5"><a xlink:href="../../d7/d0d/classparser_1_1_semantics_checker.html#a8620f3090287a61f86765ee920d53de0" target="_top" xlink:title="parser.SemanticsChecker.evaluate\lExpression">
<polygon fill="white" stroke="black" points="590.5,-393 590.5,-423 773.5,-423 773.5,-393 590.5,-393"/>
<text text-anchor="start" x="598.5" y="-411" font-family="Helvetica,sans-Serif" font-size="10.00">parser.SemanticsChecker.evaluate</text>
<text text-anchor="middle" x="682" y="-400" font-family="Helvetica,sans-Serif" font-size="10.00">Expression</text>
</a>
</g>
</g>
<!-- Node4&#45;&gt;Node5 -->
<g id="edge4" class="edge"><title>Node4&#45;&gt;Node5</title>
<path fill="none" stroke="midnightblue" d="M564.267,-408C573.008,-408 581.783,-408 590.381,-408"/>
<polygon fill="midnightblue" stroke="midnightblue" points="564.034,-404.5 554.034,-408 564.034,-411.5 564.034,-404.5"/>
</g>
<!-- Node6 -->
<g id="node6" class="node"><title>Node6</title>
<g id="a_node6"><a xlink:href="../../d6/d95/classparser_1_1_parser.html#ac0cfecef1d5308df35c49519d94f85a5" target="_top" xlink:title="parser.Parser.parseCommand">
<polygon fill="white" stroke="black" points="810.5,-398.5 810.5,-417.5 969.5,-417.5 969.5,-398.5 810.5,-398.5"/>
<text text-anchor="middle" x="890" y="-405.5" font-family="Helvetica,sans-Serif" font-size="10.00">parser.Parser.parseCommand</text>
</a>
</g>
</g>
<!-- Node5&#45;&gt;Node6 -->
<g id="edge5" class="edge"><title>Node5&#45;&gt;Node6</title>
<path fill="none" stroke="midnightblue" d="M783.699,-408C792.616,-408 801.557,-408 810.253,-408"/>
<polygon fill="midnightblue" stroke="midnightblue" points="783.654,-404.5 773.654,-408 783.654,-411.5 783.654,-404.5"/>
</g>
<!-- Node7 -->
<g id="node7" class="node"><title>Node7</title>
<g id="a_node7"><a xlink:href="../../d9/df7/classcontroller_1_1_controller.html#a89b63f37e67efbeddda1f247016c837b" target="_top" xlink:title="controller.Controller.process\lCommand">
<polygon fill="white" stroke="black" points="1023,-760 1023,-790 1173,-790 1173,-760 1023,-760"/>
<text text-anchor="start" x="1031" y="-778" font-family="Helvetica,sans-Serif" font-size="10.00">controller.Controller.process</text>
<text text-anchor="middle" x="1098" y="-767" font-family="Helvetica,sans-Serif" font-size="10.00">Command</text>
</a>
</g>
</g>
<!-- Node6&#45;&gt;Node7 -->
<g id="edge6" class="edge"><title>Node6&#45;&gt;Node7</title>
<path fill="none" stroke="midnightblue" d="M891.572,-427.521C894.354,-485.456 910.649,-658.026 1006,-749 1010.87,-753.65 1016.52,-757.478 1022.57,-760.627"/>
<polygon fill="midnightblue" stroke="midnightblue" points="895.069,-427.375 891.176,-417.521 888.075,-427.652 895.069,-427.375"/>
</g>
<!-- Node10 -->
<g id="node10" class="node"><title>Node10</title>
<g id="a_node10"><a xlink:href="../../d9/df7/classcontroller_1_1_controller.html#aec5e242ff69899c974dbd6302510f70b" target="_top" xlink:title="controller.Controller.processFile">
<polygon fill="white" stroke="black" points="1015.5,-720.5 1015.5,-739.5 1180.5,-739.5 1180.5,-720.5 1015.5,-720.5"/>
<text text-anchor="middle" x="1098" y="-727.5" font-family="Helvetica,sans-Serif" font-size="10.00">controller.Controller.processFile</text>
</a>
</g>
</g>
<!-- Node6&#45;&gt;Node10 -->
<g id="edge9" class="edge"><title>Node6&#45;&gt;Node10</title>
<path fill="none" stroke="midnightblue" d="M892.215,-427.795C896.675,-482.187 916.933,-634.916 1006,-711 1010.42,-714.774 1015.39,-717.862 1020.68,-720.383"/>
<polygon fill="midnightblue" stroke="midnightblue" points="895.701,-427.464 891.484,-417.744 888.719,-427.972 895.701,-427.464"/>
</g>
<!-- Node15 -->
<g id="node15" class="node"><title>Node15</title>
<g id="a_node15"><a xlink:href="../../d7/dde/classparser_1_1_main.html#a75a40fb31f3397122c167e54e6e233c1" target="_top" xlink:title="parser.Main.checkFile">
<polygon fill="white" stroke="black" points="1039,-682.5 1039,-701.5 1157,-701.5 1157,-682.5 1039,-682.5"/>
<text text-anchor="middle" x="1098" y="-689.5" font-family="Helvetica,sans-Serif" font-size="10.00">parser.Main.checkFile</text>
</a>
</g>
</g>
<!-- Node6&#45;&gt;Node15 -->
<g id="edge15" class="edge"><title>Node6&#45;&gt;Node15</title>
<path fill="none" stroke="midnightblue" d="M893.38,-427.609C900.489,-477.159 926.278,-608.056 1006,-673 1015.38,-680.645 1027.08,-685.441 1038.93,-688.402"/>
<polygon fill="midnightblue" stroke="midnightblue" points="896.834,-427.03 892.042,-417.58 889.895,-427.955 896.834,-427.03"/>
</g>
<!-- Node17 -->
<g id="node17" class="node"><title>Node17</title>
<g id="a_node17"><a xlink:href="../../d6/d95/classparser_1_1_parser.html#afc96f83c32dde8c90fdab91dd543dddf" target="_top" xlink:title="parser.Parser.parseCommand">
<polygon fill="white" stroke="black" points="1018.5,-644.5 1018.5,-663.5 1177.5,-663.5 1177.5,-644.5 1018.5,-644.5"/>
<text text-anchor="middle" x="1098" y="-651.5" font-family="Helvetica,sans-Serif" font-size="10.00">parser.Parser.parseCommand</text>
</a>
</g>
</g>
<!-- Node6&#45;&gt;Node17 -->
<g id="edge17" class="edge"><title>Node6&#45;&gt;Node17</title>
<path fill="none" stroke="midnightblue" d="M894.888,-427.473C904.83,-471.887 935.527,-580.996 1006,-635 1011,-638.829 1016.58,-641.932 1022.46,-644.441"/>
<polygon fill="midnightblue" stroke="midnightblue" points="898.302,-426.7 892.796,-417.648 891.456,-428.158 898.302,-426.7"/>
</g>
<!-- Node18 -->
<g id="node18" class="node"><title>Node18</title>
<g id="a_node18"><a xlink:href="../../d1/d01/classparser_1_1tests_1_1_boolean_tester.html#ab009444f79be316835e50742f06550a9" target="_top" xlink:title="parser.tests.BooleanTester.testAnd">
<polygon fill="white" stroke="black" points="1006,-606.5 1006,-625.5 1190,-625.5 1190,-606.5 1006,-606.5"/>
<text text-anchor="middle" x="1098" y="-613.5" font-family="Helvetica,sans-Serif" font-size="10.00">parser.tests.BooleanTester.testAnd</text>
</a>
</g>
</g>
<!-- Node6&#45;&gt;Node18 -->
<g id="edge18" class="edge"><title>Node6&#45;&gt;Node18</title>
<path fill="none" stroke="midnightblue" d="M897.004,-427.2C910.1,-465.746 945.047,-552.57 1006,-596 1012.06,-600.318 1018.88,-603.73 1025.99,-606.422"/>
<polygon fill="midnightblue" stroke="midnightblue" points="900.326,-426.097 893.886,-417.684 893.674,-428.277 900.326,-426.097"/>
</g>
<!-- Node19 -->
<g id="node19" class="node"><title>Node19</title>
<g id="a_node19"><a xlink:href="../../d1/d01/classparser_1_1tests_1_1_boolean_tester.html#a99be1a3a9584ed717090f5bb310bdae0" target="_top" xlink:title="parser.tests.BooleanTester.test\lEqual">
<polygon fill="white" stroke="black" points="1015.5,-557 1015.5,-587 1180.5,-587 1180.5,-557 1015.5,-557"/>
<text text-anchor="start" x="1023.5" y="-575" font-family="Helvetica,sans-Serif" font-size="10.00">parser.tests.BooleanTester.test</text>
<text text-anchor="middle" x="1098" y="-564" font-family="Helvetica,sans-Serif" font-size="10.00">Equal</text>
</a>
</g>
</g>
<!-- Node6&#45;&gt;Node19 -->
<g id="edge19" class="edge"><title>Node6&#45;&gt;Node19</title>
<path fill="none" stroke="midnightblue" d="M901.379,-426.848C918.919,-456.912 957.319,-515.531 1006,-547 1011.92,-550.825 1018.41,-554.07 1025.13,-556.822"/>
<polygon fill="midnightblue" stroke="midnightblue" points="904.234,-424.788 896.246,-417.828 898.15,-428.25 904.234,-424.788"/>
</g>
<!-- Node20 -->
<g id="node20" class="node"><title>Node20</title>
<g id="a_node20"><a xlink:href="../../d1/d01/classparser_1_1tests_1_1_boolean_tester.html#ad5101fc213b8aeaa37baf5e3b5868d9d" target="_top" xlink:title="parser.tests.BooleanTester.test\lGreaterThan">
<polygon fill="white" stroke="black" points="1015.5,-508 1015.5,-538 1180.5,-538 1180.5,-508 1015.5,-508"/>
<text text-anchor="start" x="1023.5" y="-526" font-family="Helvetica,sans-Serif" font-size="10.00">parser.tests.BooleanTester.test</text>
<text text-anchor="middle" x="1098" y="-515" font-family="Helvetica,sans-Serif" font-size="10.00">GreaterThan</text>
</a>
</g>
</g>
<!-- Node6&#45;&gt;Node20 -->
<g id="edge20" class="edge"><title>Node6&#45;&gt;Node20</title>
<path fill="none" stroke="midnightblue" d="M907.756,-424.685C928.909,-444.852 967.24,-478.502 1006,-498 1013.61,-501.829 1021.88,-505.133 1030.24,-507.969"/>
<polygon fill="midnightblue" stroke="midnightblue" points="910.14,-422.122 900.524,-417.674 905.267,-427.148 910.14,-422.122"/>
</g>
<!-- Node21 -->
<g id="node21" class="node"><title>Node21</title>
<g id="a_node21"><a xlink:href="../../d1/d01/classparser_1_1tests_1_1_boolean_tester.html#a828f5f4183434799d083a68a00791dba" target="_top" xlink:title="parser.tests.BooleanTester.test\lLessThan">
<polygon fill="white" stroke="black" points="1015.5,-459 1015.5,-489 1180.5,-489 1180.5,-459 1015.5,-459"/>
<text text-anchor="start" x="1023.5" y="-477" font-family="Helvetica,sans-Serif" font-size="10.00">parser.tests.BooleanTester.test</text>
<text text-anchor="middle" x="1098" y="-466" font-family="Helvetica,sans-Serif" font-size="10.00">LessThan</text>
</a>
</g>
</g>
<!-- Node6&#45;&gt;Node21 -->
<g id="edge21" class="edge"><title>Node6&#45;&gt;Node21</title>
<path fill="none" stroke="midnightblue" d="M925.928,-421.215C948.605,-429.606 978.88,-440.453 1006,-449 1016.78,-452.398 1028.36,-455.78 1039.53,-458.909"/>
<polygon fill="midnightblue" stroke="midnightblue" points="926.987,-417.875 916.394,-417.667 924.545,-424.435 926.987,-417.875"/>
</g>
<!-- Node22 -->
<g id="node22" class="node"><title>Node22</title>
<g id="a_node22"><a xlink:href="../../d1/d01/classparser_1_1tests_1_1_boolean_tester.html#a402bae747c40cf9030ea6e85a44b10d2" target="_top" xlink:title="parser.tests.BooleanTester.testNot">
<polygon fill="white" stroke="black" points="1007,-420.5 1007,-439.5 1189,-439.5 1189,-420.5 1007,-420.5"/>
<text text-anchor="middle" x="1098" y="-427.5" font-family="Helvetica,sans-Serif" font-size="10.00">parser.tests.BooleanTester.testNot</text>
</a>
</g>
</g>
<!-- Node6&#45;&gt;Node22 -->
<g id="edge22" class="edge"><title>Node6&#45;&gt;Node22</title>
<path fill="none" stroke="midnightblue" d="M979.81,-417.485C989.141,-418.481 998.63,-419.494 1007.96,-420.491"/>
<polygon fill="midnightblue" stroke="midnightblue" points="980.077,-413.993 969.762,-416.411 979.333,-420.954 980.077,-413.993"/>
</g>
<!-- Node23 -->
<g id="node23" class="node"><title>Node23</title>
<g id="a_node23"><a xlink:href="../../d1/d01/classparser_1_1tests_1_1_boolean_tester.html#ac0deac7b7ba9e48e30a9ed6cff134d09" target="_top" xlink:title="parser.tests.BooleanTester.test\lNotEqual">
<polygon fill="white" stroke="black" points="1015.5,-371 1015.5,-401 1180.5,-401 1180.5,-371 1015.5,-371"/>
<text text-anchor="start" x="1023.5" y="-389" font-family="Helvetica,sans-Serif" font-size="10.00">parser.tests.BooleanTester.test</text>
<text text-anchor="middle" x="1098" y="-378" font-family="Helvetica,sans-Serif" font-size="10.00">NotEqual</text>
</a>
</g>
</g>
<!-- Node6&#45;&gt;Node23 -->
<g id="edge23" class="edge"><title>Node6&#45;&gt;Node23</title>
<path fill="none" stroke="midnightblue" d="M979.969,-398.498C991.675,-397.248 1003.63,-395.972 1015.21,-394.735"/>
<polygon fill="midnightblue" stroke="midnightblue" points="979.333,-395.046 969.762,-399.589 980.077,-402.007 979.333,-395.046"/>
</g>
<!-- Node24 -->
<g id="node24" class="node"><title>Node24</title>
<g id="a_node24"><a xlink:href="../../d1/d01/classparser_1_1tests_1_1_boolean_tester.html#a733a8bed2ef17160461077bd2e53490c" target="_top" xlink:title="parser.tests.BooleanTester.testOr">
<polygon fill="white" stroke="black" points="1010,-332.5 1010,-351.5 1186,-351.5 1186,-332.5 1010,-332.5"/>
<text text-anchor="middle" x="1098" y="-339.5" font-family="Helvetica,sans-Serif" font-size="10.00">parser.tests.BooleanTester.testOr</text>
</a>
</g>
</g>
<!-- Node6&#45;&gt;Node24 -->
<g id="edge24" class="edge"><title>Node6&#45;&gt;Node24</title>
<path fill="none" stroke="midnightblue" d="M921.02,-394.413C943.944,-384.428 976.507,-371.072 1006,-362 1018.99,-358.005 1033.25,-354.478 1046.55,-351.543"/>
<polygon fill="midnightblue" stroke="midnightblue" points="919.563,-391.231 911.822,-398.465 922.385,-397.637 919.563,-391.231"/>
</g>
<!-- Node25 -->
<g id="node25" class="node"><title>Node25</title>
<g id="a_node25"><a xlink:href="../../d3/d64/classparser_1_1tests_1_1_math_tester.html#a0059e207747b76f3579b4218cfe7c5dc" target="_top" xlink:title="parser.tests.MathTester.testSum">
<polygon fill="white" stroke="black" points="1011.5,-294.5 1011.5,-313.5 1184.5,-313.5 1184.5,-294.5 1011.5,-294.5"/>
<text text-anchor="middle" x="1098" y="-301.5" font-family="Helvetica,sans-Serif" font-size="10.00">parser.tests.MathTester.testSum</text>
</a>
</g>
</g>
<!-- Node6&#45;&gt;Node25 -->
<g id="edge25" class="edge"><title>Node6&#45;&gt;Node25</title>
<path fill="none" stroke="midnightblue" d="M908.362,-391.337C929.632,-371.889 967.596,-340.204 1006,-323 1014.69,-319.107 1024.21,-315.999 1033.71,-313.522"/>
<polygon fill="midnightblue" stroke="midnightblue" points="905.742,-388.995 900.812,-398.373 910.514,-394.116 905.742,-388.995"/>
</g>
<!-- Node26 -->
<g id="node26" class="node"><title>Node26</title>
<g id="a_node26"><a xlink:href="../../d3/d64/classparser_1_1tests_1_1_math_tester.html#a1677c0f6237b5c48799087b702e713ca" target="_top" xlink:title="parser.tests.MathTester.test\lDifference">
<polygon fill="white" stroke="black" points="1023,-245 1023,-275 1173,-275 1173,-245 1023,-245"/>
<text text-anchor="start" x="1031" y="-263" font-family="Helvetica,sans-Serif" font-size="10.00">parser.tests.MathTester.test</text>
<text text-anchor="middle" x="1098" y="-252" font-family="Helvetica,sans-Serif" font-size="10.00">Difference</text>
</a>
</g>
</g>
<!-- Node6&#45;&gt;Node26 -->
<g id="edge26" class="edge"><title>Node6&#45;&gt;Node26</title>
<path fill="none" stroke="midnightblue" d="M902.984,-389.824C921.725,-362.849 960.565,-312.455 1006,-285 1012.31,-281.187 1019.21,-277.942 1026.31,-275.183"/>
<polygon fill="midnightblue" stroke="midnightblue" points="899.941,-388.075 897.215,-398.313 905.731,-392.009 899.941,-388.075"/>
</g>
<!-- Node27 -->
<g id="node27" class="node"><title>Node27</title>
<g id="a_node27"><a xlink:href="../../d3/d64/classparser_1_1tests_1_1_math_tester.html#af3c9e732ab91e0cad71ea7cd66a7a0d4" target="_top" xlink:title="parser.tests.MathTester.test\lProduct">
<polygon fill="white" stroke="black" points="1023,-196 1023,-226 1173,-226 1173,-196 1023,-196"/>
<text text-anchor="start" x="1031" y="-214" font-family="Helvetica,sans-Serif" font-size="10.00">parser.tests.MathTester.test</text>
<text text-anchor="middle" x="1098" y="-203" font-family="Helvetica,sans-Serif" font-size="10.00">Product</text>
</a>
</g>
</g>
<!-- Node6&#45;&gt;Node27 -->
<g id="edge27" class="edge"><title>Node6&#45;&gt;Node27</title>
<path fill="none" stroke="midnightblue" d="M898.451,-388.759C913.295,-353.02 950.024,-276.367 1006,-236 1011.32,-232.167 1017.19,-228.921 1023.32,-226.173"/>
<polygon fill="midnightblue" stroke="midnightblue" points="895.037,-387.867 894.55,-398.451 901.531,-390.481 895.037,-387.867"/>
</g>
<!-- Node28 -->
<g id="node28" class="node"><title>Node28</title>
<g id="a_node28"><a xlink:href="../../d3/d64/classparser_1_1tests_1_1_math_tester.html#a0bee886e0100c55a64fb804fa462e079" target="_top" xlink:title="parser.tests.MathTester.test\lQuotient">
<polygon fill="white" stroke="black" points="1023,-147 1023,-177 1173,-177 1173,-147 1023,-147"/>
<text text-anchor="start" x="1031" y="-165" font-family="Helvetica,sans-Serif" font-size="10.00">parser.tests.MathTester.test</text>
<text text-anchor="middle" x="1098" y="-154" font-family="Helvetica,sans-Serif" font-size="10.00">Quotient</text>
</a>
</g>
</g>
<!-- Node6&#45;&gt;Node28 -->
<g id="edge28" class="edge"><title>Node6&#45;&gt;Node28</title>
<path fill="none" stroke="midnightblue" d="M895.504,-388.461C906.493,-345.278 938.84,-241.26 1006,-187 1011.1,-182.881 1016.82,-179.44 1022.86,-176.563"/>
<polygon fill="midnightblue" stroke="midnightblue" points="892.078,-387.738 893.111,-398.282 898.879,-389.395 892.078,-387.738"/>
</g>
<!-- Node29 -->
<g id="node29" class="node"><title>Node29</title>
<g id="a_node29"><a xlink:href="../../d3/d64/classparser_1_1tests_1_1_math_tester.html#a06cade99788206056814bc20735cd193" target="_top" xlink:title="parser.tests.MathTester.test\lMinus">
<polygon fill="white" stroke="black" points="1023,-98 1023,-128 1173,-128 1173,-98 1023,-98"/>
<text text-anchor="start" x="1031" y="-116" font-family="Helvetica,sans-Serif" font-size="10.00">parser.tests.MathTester.test</text>
<text text-anchor="middle" x="1098" y="-105" font-family="Helvetica,sans-Serif" font-size="10.00">Minus</text>
</a>
</g>
</g>
<!-- Node6&#45;&gt;Node29 -->
<g id="edge29" class="edge"><title>Node6&#45;&gt;Node29</title>
<path fill="none" stroke="midnightblue" d="M893.506,-388.326C900.91,-338.557 927.336,-206.733 1006,-138 1011.06,-133.58 1016.83,-129.935 1022.96,-126.929"/>
<polygon fill="midnightblue" stroke="midnightblue" points="890.017,-388.007 892.106,-398.394 896.95,-388.971 890.017,-388.007"/>
</g>
<!-- Node30 -->
<g id="node30" class="node"><title>Node30</title>
<g id="a_node30"><a xlink:href="../../d3/d64/classparser_1_1tests_1_1_math_tester.html#aeba46a296188edda903e21c6be23bdd8" target="_top" xlink:title="parser.tests.MathTester.test\lRemainder">
<polygon fill="white" stroke="black" points="1023,-49 1023,-79 1173,-79 1173,-49 1023,-49"/>
<text text-anchor="start" x="1031" y="-67" font-family="Helvetica,sans-Serif" font-size="10.00">parser.tests.MathTester.test</text>
<text text-anchor="middle" x="1098" y="-56" font-family="Helvetica,sans-Serif" font-size="10.00">Remainder</text>
</a>
</g>
</g>
<!-- Node6&#45;&gt;Node30 -->
<g id="edge30" class="edge"><title>Node6&#45;&gt;Node30</title>
<path fill="none" stroke="midnightblue" d="M892.065,-388.239C896.161,-332.489 915.622,-172.599 1006,-89 1010.93,-84.4386 1016.62,-80.697 1022.69,-77.6297"/>
<polygon fill="midnightblue" stroke="midnightblue" points="888.554,-388.286 891.404,-398.49 895.54,-388.736 888.554,-388.286"/>
</g>
<!-- Node31 -->
<g id="node31" class="node"><title>Node31</title>
<g id="a_node31"><a xlink:href="../../d3/d64/classparser_1_1tests_1_1_math_tester.html#a0834a1beeeb3689ab52b3523b1ec053e" target="_top" xlink:title="parser.tests.MathTester.test\lRandom">
<polygon fill="white" stroke="black" points="1023,-0 1023,-30 1173,-30 1173,-0 1023,-0"/>
<text text-anchor="start" x="1031" y="-18" font-family="Helvetica,sans-Serif" font-size="10.00">parser.tests.MathTester.test</text>
<text text-anchor="middle" x="1098" y="-7" font-family="Helvetica,sans-Serif" font-size="10.00">Random</text>
</a>
</g>
</g>
<!-- Node6&#45;&gt;Node31 -->
<g id="edge31" class="edge"><title>Node6&#45;&gt;Node31</title>
<path fill="none" stroke="midnightblue" d="M890.973,-388.135C892.012,-326.819 903.777,-138.729 1006,-40 1010.95,-35.2195 1016.72,-31.3348 1022.92,-28.1804"/>
<polygon fill="midnightblue" stroke="midnightblue" points="887.472,-388.323 890.885,-398.353 894.471,-388.384 887.472,-388.323"/>
</g>
<!-- Node8 -->
<g id="node8" class="node"><title>Node8</title>
<g id="a_node8"><a xlink:href="../../d9/df7/classcontroller_1_1_controller.html#a2bfb87bca460d87b2c97e0b5045a2175" target="_top" xlink:title="controller.Controller.create\lRunCommandListener">
<polygon fill="white" stroke="black" points="1396.5,-763 1396.5,-793 1539.5,-793 1539.5,-763 1396.5,-763"/>
<text text-anchor="start" x="1404.5" y="-781" font-family="Helvetica,sans-Serif" font-size="10.00">controller.Controller.create</text>
<text text-anchor="middle" x="1468" y="-770" font-family="Helvetica,sans-Serif" font-size="10.00">RunCommandListener</text>
</a>
</g>
</g>
<!-- Node7&#45;&gt;Node8 -->
<g id="edge7" class="edge"><title>Node7&#45;&gt;Node8</title>
<path fill="none" stroke="midnightblue" d="M1183.16,-775.686C1247.57,-776.211 1335.39,-776.927 1396.21,-777.423"/>
<polygon fill="midnightblue" stroke="midnightblue" points="1183.06,-772.185 1173.03,-775.603 1183,-779.185 1183.06,-772.185"/>
</g>
<!-- Node9 -->
<g id="node9" class="node"><title>Node9</title>
<g id="a_node9"><a xlink:href="../../d9/df7/classcontroller_1_1_controller.html#a47511ec57338c8e75e71e9314cda5271" target="_top" xlink:title="controller.Controller.Controller">
<polygon fill="white" stroke="black" points="1936.5,-744.5 1936.5,-763.5 2095.5,-763.5 2095.5,-744.5 1936.5,-744.5"/>
<text text-anchor="middle" x="2016" y="-751.5" font-family="Helvetica,sans-Serif" font-size="10.00">controller.Controller.Controller</text>
</a>
</g>
</g>
<!-- Node8&#45;&gt;Node9 -->
<g id="edge8" class="edge"><title>Node8&#45;&gt;Node9</title>
<path fill="none" stroke="midnightblue" d="M1549.67,-774.454C1653.64,-769.884 1833.25,-761.989 1936.27,-757.461"/>
<polygon fill="midnightblue" stroke="midnightblue" points="1549.38,-770.963 1539.54,-774.899 1549.69,-777.957 1549.38,-770.963"/>
</g>
<!-- Node11 -->
<g id="node11" class="node"><title>Node11</title>
<g id="a_node11"><a xlink:href="../../d9/df7/classcontroller_1_1_controller.html#a37c3009658f66dc4de0be01b75adf660" target="_top" xlink:title="controller.Controller.load\lWorkspace">
<polygon fill="white" stroke="black" points="1226.5,-715 1226.5,-745 1359.5,-745 1359.5,-715 1226.5,-715"/>
<text text-anchor="start" x="1234.5" y="-733" font-family="Helvetica,sans-Serif" font-size="10.00">controller.Controller.load</text>
<text text-anchor="middle" x="1293" y="-722" font-family="Helvetica,sans-Serif" font-size="10.00">Workspace</text>
</a>
</g>
</g>
<!-- Node10&#45;&gt;Node11 -->
<g id="edge10" class="edge"><title>Node10&#45;&gt;Node11</title>
<path fill="none" stroke="midnightblue" d="M1190.62,-730C1202.63,-730 1214.74,-730 1226.21,-730"/>
<polygon fill="midnightblue" stroke="midnightblue" points="1190.57,-726.5 1180.57,-730 1190.57,-733.5 1190.57,-726.5"/>
</g>
<!-- Node12 -->
<g id="node12" class="node"><title>Node12</title>
<g id="a_node12"><a xlink:href="../../d9/df7/classcontroller_1_1_controller.html#aa46804b9ca132af8504b5dafb1cadb0d" target="_top" xlink:title="controller.Controller.create\lFileCommands">
<polygon fill="white" stroke="black" points="1396.5,-714 1396.5,-744 1539.5,-744 1539.5,-714 1396.5,-714"/>
<text text-anchor="start" x="1404.5" y="-732" font-family="Helvetica,sans-Serif" font-size="10.00">controller.Controller.create</text>
<text text-anchor="middle" x="1468" y="-721" font-family="Helvetica,sans-Serif" font-size="10.00">FileCommands</text>
</a>
</g>
</g>
<!-- Node11&#45;&gt;Node12 -->
<g id="edge11" class="edge"><title>Node11&#45;&gt;Node12</title>
<path fill="none" stroke="midnightblue" d="M1370.08,-729.56C1378.83,-729.51 1387.72,-729.458 1396.39,-729.408"/>
<polygon fill="midnightblue" stroke="midnightblue" points="1369.88,-726.061 1359.9,-729.619 1369.92,-733.061 1369.88,-726.061"/>
</g>
<!-- Node13 -->
<g id="node13" class="node"><title>Node13</title>
<g id="a_node13"><a xlink:href="../../d9/df7/classcontroller_1_1_controller.html#af4c05286f1534b1fa6de523c54549288" target="_top" xlink:title="controller.Controller.create\lFileMenu">
<polygon fill="white" stroke="black" points="1576.5,-716 1576.5,-746 1719.5,-746 1719.5,-716 1576.5,-716"/>
<text text-anchor="start" x="1584.5" y="-734" font-family="Helvetica,sans-Serif" font-size="10.00">controller.Controller.create</text>
<text text-anchor="middle" x="1648" y="-723" font-family="Helvetica,sans-Serif" font-size="10.00">FileMenu</text>
</a>
</g>
</g>
<!-- Node12&#45;&gt;Node13 -->
<g id="edge12" class="edge"><title>Node12&#45;&gt;Node13</title>
<path fill="none" stroke="midnightblue" d="M1549.65,-729.906C1558.6,-730.007 1567.67,-730.109 1576.48,-730.208"/>
<polygon fill="midnightblue" stroke="midnightblue" points="1549.64,-726.406 1539.61,-729.793 1549.57,-733.406 1549.64,-726.406"/>
</g>
<!-- Node14 -->
<g id="node14" class="node"><title>Node14</title>
<g id="a_node14"><a xlink:href="../../d9/df7/classcontroller_1_1_controller.html#a2901bf43bb8e47b485558dbf00d40d6d" target="_top" xlink:title="controller.Controller.create\lJMenuBar">
<polygon fill="white" stroke="black" points="1756.5,-717 1756.5,-747 1899.5,-747 1899.5,-717 1756.5,-717"/>
<text text-anchor="start" x="1764.5" y="-735" font-family="Helvetica,sans-Serif" font-size="10.00">controller.Controller.create</text>
<text text-anchor="middle" x="1828" y="-724" font-family="Helvetica,sans-Serif" font-size="10.00">JMenuBar</text>
</a>
</g>
</g>
<!-- Node13&#45;&gt;Node14 -->
<g id="edge13" class="edge"><title>Node13&#45;&gt;Node14</title>
<path fill="none" stroke="midnightblue" d="M1729.65,-731.453C1738.6,-731.503 1747.67,-731.554 1756.48,-731.604"/>
<polygon fill="midnightblue" stroke="midnightblue" points="1729.63,-727.953 1719.61,-731.397 1729.59,-734.953 1729.63,-727.953"/>
</g>
<!-- Node14&#45;&gt;Node9 -->
<g id="edge14" class="edge"><title>Node14&#45;&gt;Node9</title>
<path fill="none" stroke="midnightblue" d="M1909.55,-741.527C1918.45,-742.58 1927.5,-743.651 1936.38,-744.701"/>
<polygon fill="midnightblue" stroke="midnightblue" points="1909.93,-738.048 1899.58,-740.349 1909.1,-744.999 1909.93,-738.048"/>
</g>
<!-- Node16 -->
<g id="node16" class="node"><title>Node16</title>
<g id="a_node16"><a xlink:href="../../d7/dde/classparser_1_1_main.html#ac3abd936d94632f17feedf0cce82afff" target="_top" xlink:title="parser.Main.main">
<polygon fill="white" stroke="black" points="1243.5,-676.5 1243.5,-695.5 1342.5,-695.5 1342.5,-676.5 1243.5,-676.5"/>
<text text-anchor="middle" x="1293" y="-683.5" font-family="Helvetica,sans-Serif" font-size="10.00">parser.Main.main</text>
</a>
</g>
</g>
<!-- Node15&#45;&gt;Node16 -->
<g id="edge16" class="edge"><title>Node15&#45;&gt;Node16</title>
<path fill="none" stroke="midnightblue" d="M1167.37,-689.875C1192.47,-689.094 1220.36,-688.227 1243.38,-687.512"/>
<polygon fill="midnightblue" stroke="midnightblue" points="1167.05,-686.383 1157.17,-690.192 1167.27,-693.379 1167.05,-686.383"/>
</g>
</g>
</svg>
