<?xml version="1.0" encoding="UTF-8" standalone="no"?>
<!DOCTYPE svg PUBLIC "-//W3C//DTD SVG 1.1//EN"
 "http://www.w3.org/Graphics/SVG/1.1/DTD/svg11.dtd">
<!-- Generated by graphviz version 2.36.0 (20140111.2315)
 -->
<!-- Title: model.ColorManager Pages: 1 -->
<svg width="247pt" height="96pt"
 viewBox="0.00 0.00 247.00 96.00" xmlns="http://www.w3.org/2000/svg" xmlns:xlink="http://www.w3.org/1999/xlink">
<g id="graph0" class="graph" transform="scale(1 1) rotate(0) translate(4 92)">
<title>model.ColorManager</title>
<polygon fill="white" stroke="none" points="-4,4 -4,-92 243,-92 243,4 -4,4"/>
<!-- Node1 -->
<g id="node1" class="node"><title>Node1</title>
<polygon fill="#bfbfbf" stroke="black" points="54,-0.5 54,-19.5 170,-19.5 170,-0.5 54,-0.5"/>
<text text-anchor="middle" x="112" y="-7.5" font-family="Helvetica,sans-Serif" font-size="10.00">model.ColorManager</text>
</g>
<!-- Node2 -->
<g id="node2" class="node"><title>Node2</title>
<polygon fill="white" stroke="#bfbfbf" points="0,-68.5 0,-87.5 124,-87.5 124,-68.5 0,-68.5"/>
<text text-anchor="middle" x="62" y="-75.5" font-family="Helvetica,sans-Serif" font-size="10.00">Map&lt; Integer, Color &gt;</text>
</g>
<!-- Node2&#45;&gt;Node1 -->
<g id="edge1" class="edge"><title>Node2&#45;&gt;Node1</title>
<path fill="none" stroke="#9a32cd" stroke-dasharray="5,2" d="M73.3006,-59.8913C78.0042,-52.9814 83.6159,-45.0013 89,-38 93.8048,-31.752 99.5548,-25.002 104.104,-19.814"/>
<polygon fill="#9a32cd" stroke="#9a32cd" points="70.2185,-58.2033 67.556,-68.4581 76.0324,-62.1018 70.2185,-58.2033"/>
<text text-anchor="middle" x="115" y="-41.5" font-family="Helvetica,sans-Serif" font-size="10.00"> myPalette</text>
</g>
<!-- Node3 -->
<g id="node3" class="node"><title>Node3</title>
<polygon fill="white" stroke="#bfbfbf" points="142.5,-68.5 142.5,-87.5 183.5,-87.5 183.5,-68.5 142.5,-68.5"/>
<text text-anchor="middle" x="163" y="-75.5" font-family="Helvetica,sans-Serif" font-size="10.00">Color</text>
</g>
<!-- Node3&#45;&gt;Node1 -->
<g id="edge2" class="edge"><title>Node3&#45;&gt;Node1</title>
<path fill="none" stroke="#9a32cd" stroke-dasharray="5,2" d="M154.461,-59.2191C150.762,-52.2943 146.107,-44.482 141,-38 135.636,-31.1919 128.527,-24.5448 122.69,-19.5495"/>
<polygon fill="#9a32cd" stroke="#9a32cd" points="151.503,-61.126 159.138,-68.4714 157.75,-57.9678 151.503,-61.126"/>
<text text-anchor="middle" x="194" y="-41.5" font-family="Helvetica,sans-Serif" font-size="10.00"> DEFAULT_COLORS</text>
</g>
</g>
</svg>
