<?xml version="1.0" encoding="UTF-8" standalone="no"?>
<!DOCTYPE svg PUBLIC "-//W3C//DTD SVG 1.1//EN"
 "http://www.w3.org/Graphics/SVG/1.1/DTD/svg11.dtd">
<!-- Generated by graphviz version 2.36.0 (20140111.2315)
 -->
<!-- Title: parser.commands.math.Product.evaluate Pages: 1 -->
<svg width="658pt" height="115pt"
 viewBox="0.00 0.00 658.00 115.00" xmlns="http://www.w3.org/2000/svg" xmlns:xlink="http://www.w3.org/1999/xlink">
<g id="graph0" class="graph" transform="scale(1 1) rotate(0) translate(4 111)">
<title>parser.commands.math.Product.evaluate</title>
<polygon fill="white" stroke="none" points="-4,4 -4,-111 654,-111 654,4 -4,4"/>
<!-- Node1 -->
<g id="node1" class="node"><title>Node1</title>
<polygon fill="#bfbfbf" stroke="black" points="0,-49.5 0,-68.5 216,-68.5 216,-49.5 0,-49.5"/>
<text text-anchor="middle" x="108" y="-56.5" font-family="Helvetica,sans-Serif" font-size="10.00">parser.commands.math.Product.evaluate</text>
</g>
<!-- Node2 -->
<g id="node2" class="node"><title>Node2</title>
<g id="a_node2"><a xlink:href="../../da/d96/classparser_1_1nodes_1_1_syntax_node.html#a669c370adce66a1960835323a90b9adb" target="_top" xlink:title="parser.nodes.SyntaxNode.evaluate">
<polygon fill="white" stroke="black" points="252.5,-87.5 252.5,-106.5 437.5,-106.5 437.5,-87.5 252.5,-87.5"/>
<text text-anchor="middle" x="345" y="-94.5" font-family="Helvetica,sans-Serif" font-size="10.00">parser.nodes.SyntaxNode.evaluate</text>
</a>
</g>
</g>
<!-- Node1&#45;&gt;Node2 -->
<g id="edge1" class="edge"><title>Node1&#45;&gt;Node2</title>
<path fill="none" stroke="midnightblue" d="M167.997,-68.54C200.402,-73.7799 240.778,-80.3088 274.681,-85.7909"/>
<polygon fill="midnightblue" stroke="midnightblue" points="274.548,-89.3149 284.979,-87.4561 275.666,-82.4046 274.548,-89.3149"/>
</g>
<!-- Node3 -->
<g id="node3" class="node"><title>Node3</title>
<g id="a_node3"><a xlink:href="../../db/d11/classparser_1_1nodes_1_1_binary_node.html#a555930c71203ce7c05e1290f069b19a1" target="_top" xlink:title="parser.nodes.BinaryNode.getLeft">
<polygon fill="white" stroke="black" points="258,-49.5 258,-68.5 432,-68.5 432,-49.5 258,-49.5"/>
<text text-anchor="middle" x="345" y="-56.5" font-family="Helvetica,sans-Serif" font-size="10.00">parser.nodes.BinaryNode.getLeft</text>
</a>
</g>
</g>
<!-- Node1&#45;&gt;Node3 -->
<g id="edge2" class="edge"><title>Node1&#45;&gt;Node3</title>
<path fill="none" stroke="midnightblue" d="M216.185,-59C226.625,-59 237.176,-59 247.502,-59"/>
<polygon fill="midnightblue" stroke="midnightblue" points="247.742,-62.5001 257.742,-59 247.742,-55.5001 247.742,-62.5001"/>
</g>
<!-- Node5 -->
<g id="node5" class="node"><title>Node5</title>
<g id="a_node5"><a xlink:href="../../db/d11/classparser_1_1nodes_1_1_binary_node.html#a9c33799a377e3c277de0fc9138a2cb81" target="_top" xlink:title="parser.nodes.BinaryNode.get\lRight">
<polygon fill="white" stroke="black" points="267,-0 267,-30 423,-30 423,-0 267,-0"/>
<text text-anchor="start" x="275" y="-18" font-family="Helvetica,sans-Serif" font-size="10.00">parser.nodes.BinaryNode.get</text>
<text text-anchor="middle" x="345" y="-7" font-family="Helvetica,sans-Serif" font-size="10.00">Right</text>
</a>
</g>
</g>
<!-- Node1&#45;&gt;Node5 -->
<g id="edge4" class="edge"><title>Node1&#45;&gt;Node5</title>
<path fill="none" stroke="midnightblue" d="M159.992,-49.4527C188.251,-44.1615 224.164,-37.4375 256.747,-31.3368"/>
<polygon fill="midnightblue" stroke="midnightblue" points="257.554,-34.7465 266.739,-29.4658 256.266,-27.866 257.554,-34.7465"/>
</g>
<!-- Node4 -->
<g id="node4" class="node"><title>Node4</title>
<g id="a_node4"><a xlink:href="../../d7/d93/classparser_1_1nodes_1_1_parameter_node.html#a2c57eab9997daf1efb840a189c1034c5" target="_top" xlink:title="parser.nodes.ParameterNode.get\lParameter">
<polygon fill="white" stroke="black" points="474,-22 474,-52 650,-52 650,-22 474,-22"/>
<text text-anchor="start" x="482" y="-40" font-family="Helvetica,sans-Serif" font-size="10.00">parser.nodes.ParameterNode.get</text>
<text text-anchor="middle" x="562" y="-29" font-family="Helvetica,sans-Serif" font-size="10.00">Parameter</text>
</a>
</g>
</g>
<!-- Node3&#45;&gt;Node4 -->
<g id="edge3" class="edge"><title>Node3&#45;&gt;Node4</title>
<path fill="none" stroke="midnightblue" d="M432.21,-50.1785C442.568,-49.1186 453.201,-48.0306 463.703,-46.956"/>
<polygon fill="midnightblue" stroke="midnightblue" points="464.127,-50.431 473.718,-45.9311 463.414,-43.4674 464.127,-50.431"/>
</g>
<!-- Node5&#45;&gt;Node4 -->
<g id="edge5" class="edge"><title>Node5&#45;&gt;Node4</title>
<path fill="none" stroke="midnightblue" d="M423.013,-22.8804C436.167,-24.2264 449.985,-25.6404 463.586,-27.0321"/>
<polygon fill="midnightblue" stroke="midnightblue" points="463.626,-30.5543 473.93,-28.0905 464.338,-23.5907 463.626,-30.5543"/>
</g>
</g>
</svg>
