<?xml version="1.0" encoding="UTF-8" standalone="no"?>
<!DOCTYPE svg PUBLIC "-//W3C//DTD SVG 1.1//EN"
 "http://www.w3.org/Graphics/SVG/1.1/DTD/svg11.dtd">
<!-- Generated by graphviz version 2.36.0 (20140111.2315)
 -->
<!-- Title: parser.nodes.UnaryNode Pages: 1 -->
<svg width="319pt" height="166pt"
 viewBox="0.00 0.00 319.00 166.00" xmlns="http://www.w3.org/2000/svg" xmlns:xlink="http://www.w3.org/1999/xlink">
<g id="graph0" class="graph" transform="scale(1 1) rotate(0) translate(4 162)">
<title>parser.nodes.UnaryNode</title>
<polygon fill="white" stroke="none" points="-4,4 -4,-162 315,-162 315,4 -4,4"/>
<!-- Node1 -->
<g id="node1" class="node"><title>Node1</title>
<polygon fill="#bfbfbf" stroke="black" points="84,-0.5 84,-19.5 220,-19.5 220,-0.5 84,-0.5"/>
<text text-anchor="middle" x="152" y="-7.5" font-family="Helvetica,sans-Serif" font-size="10.00">parser.nodes.UnaryNode</text>
</g>
<!-- Node2 -->
<g id="node2" class="node"><title>Node2</title>
<g id="a_node2"><a xlink:href="../../d7/d93/classparser_1_1nodes_1_1_parameter_node.html" target="_top" xlink:title="parser.nodes.ParameterNode">
<polygon fill="white" stroke="black" points="73,-58.5 73,-77.5 231,-77.5 231,-58.5 73,-58.5"/>
<text text-anchor="middle" x="152" y="-65.5" font-family="Helvetica,sans-Serif" font-size="10.00">parser.nodes.ParameterNode</text>
</a>
</g>
</g>
<!-- Node2&#45;&gt;Node1 -->
<g id="edge1" class="edge"><title>Node2&#45;&gt;Node1</title>
<path fill="none" stroke="midnightblue" d="M152,-47.953C152,-38.2875 152,-27.0312 152,-19.5052"/>
<polygon fill="midnightblue" stroke="midnightblue" points="148.5,-48.25 152,-58.25 155.5,-48.25 148.5,-48.25"/>
</g>
<!-- Node3 -->
<g id="node3" class="node"><title>Node3</title>
<g id="a_node3"><a xlink:href="../../da/d96/classparser_1_1nodes_1_1_syntax_node.html" target="_top" xlink:title="parser.nodes.SyntaxNode">
<polygon fill="white" stroke="black" points="0,-132.5 0,-151.5 140,-151.5 140,-132.5 0,-132.5"/>
<text text-anchor="middle" x="70" y="-139.5" font-family="Helvetica,sans-Serif" font-size="10.00">parser.nodes.SyntaxNode</text>
</a>
</g>
</g>
<!-- Node3&#45;&gt;Node2 -->
<g id="edge2" class="edge"><title>Node3&#45;&gt;Node2</title>
<path fill="none" stroke="midnightblue" d="M87.6627,-125.491C104.378,-110.815 128.852,-89.325 142.284,-77.531"/>
<polygon fill="midnightblue" stroke="midnightblue" points="84.9336,-123.23 79.7285,-132.458 89.5522,-128.49 84.9336,-123.23"/>
</g>
<!-- Node4 -->
<g id="node4" class="node"><title>Node4</title>
<polygon fill="white" stroke="#bfbfbf" points="158.5,-127 158.5,-157 311.5,-157 311.5,-127 158.5,-127"/>
<text text-anchor="start" x="166.5" y="-145" font-family="Helvetica,sans-Serif" font-size="10.00">Map&lt; Integer, parser.nodes.</text>
<text text-anchor="middle" x="235" y="-134" font-family="Helvetica,sans-Serif" font-size="10.00">SyntaxNode &gt;</text>
</g>
<!-- Node4&#45;&gt;Node2 -->
<g id="edge3" class="edge"><title>Node4&#45;&gt;Node2</title>
<path fill="none" stroke="#9a32cd" stroke-dasharray="5,2" d="M211.04,-120.216C194.804,-106.131 174.177,-88.2378 162.097,-77.7589"/>
<polygon fill="#9a32cd" stroke="#9a32cd" points="208.754,-122.866 218.602,-126.775 213.341,-117.578 208.754,-122.866"/>
<text text-anchor="middle" x="220.5" y="-99.5" font-family="Helvetica,sans-Serif" font-size="10.00"> myNodes</text>
</g>
</g>
</svg>
