<?xml version="1.0" encoding="UTF-8" standalone="no"?>
<!DOCTYPE svg PUBLIC "-//W3C//DTD SVG 1.1//EN"
 "http://www.w3.org/Graphics/SVG/1.1/DTD/svg11.dtd">
<!-- Generated by graphviz version 2.36.0 (20140111.2315)
 -->
<!-- Title: parser.Main.main Pages: 1 -->
<!--zoomable 390 -->
<svg id="main" version="1.1" xmlns="http://www.w3.org/2000/svg" xmlns:xlink="http://www.w3.org/1999/xlink" xml:space="preserve" onload="init(evt)">
<style type="text/css"><![CDATA[
.edge:hover path { stroke: red; }
.edge:hover polygon { stroke: red; fill: red; }
]]></style>
<script type="text/javascript"><![CDATA[
var edges = document.getElementsByTagName('g');
if (edges && edges.length) {
  for (var i=0;i<edges.length;i++) {
    if (edges[i].id.substr(0,4)=='edge') {
      edges[i].setAttribute('class','edge');
    }
  }
}
]]></script>
        <defs>
                <circle id="rim" cx="0" cy="0" r="7"/>
                <circle id="rim2" cx="0" cy="0" r="3.5"/>
                <g id="zoomPlus">
                        <use xlink:href="#rim" fill="#404040">
                                <set attributeName="fill" to="#808080" begin="zoomplus.mouseover" end="zoomplus.mouseout"/>
                        </use>
                        <path d="M-4,0h8M0,-4v8" fill="none" stroke="white" stroke-width="1.5" pointer-events="none"/>
                </g>
                <g id="zoomMin">
                        <use xlink:href="#rim" fill="#404040">
                                <set attributeName="fill" to="#808080" begin="zoomminus.mouseover" end="zoomminus.mouseout"/>
                        </use>
                        <path d="M-4,0h8" fill="none" stroke="white" stroke-width="1.5" pointer-events="none"/>
                </g>
                <g id="dirArrow">
                        <path fill="none" stroke="white" stroke-width="1.5" d="M0,-3.0v7 M-2.5,-0.5L0,-3.0L2.5,-0.5"/>
                </g>
               <g id="resetDef">
                       <use xlink:href="#rim2" fill="#404040">
                               <set attributeName="fill" to="#808080" begin="reset.mouseover" end="reset.mouseout"/>
                       </use>
               </g>
        </defs>

<script type="text/javascript">
var viewWidth = 1548;
var viewHeight = 390;
var sectionId = 'dynsection-4';
</script>
<script xlink:href="../../svgpan.js"/>
<svg id="graph" class="graph">
<g id="viewport">
<title>parser.Main.main</title>
<polygon fill="white" stroke="none" points="-4,4 -4,-386 1544,-386 1544,4 -4,4"/>
<!-- Node1 -->
<g id="node1" class="node"><title>Node1</title>
<polygon fill="#bfbfbf" stroke="black" points="0.5,-225.5 0.5,-244.5 99.5,-244.5 99.5,-225.5 0.5,-225.5"/>
<text text-anchor="middle" x="50" y="-232.5" font-family="Helvetica,sans-Serif" font-size="10.00">parser.Main.main</text>
</g>
<!-- Node2 -->
<g id="node2" class="node"><title>Node2</title>
<g id="a_node2"><a xlink:href="../../d7/dde/classparser_1_1_main.html#a75a40fb31f3397122c167e54e6e233c1" target="_top" xlink:title="parser.Main.checkFile">
<polygon fill="white" stroke="black" points="138,-244.5 138,-263.5 256,-263.5 256,-244.5 138,-244.5"/>
<text text-anchor="middle" x="197" y="-251.5" font-family="Helvetica,sans-Serif" font-size="10.00">parser.Main.checkFile</text>
</a>
</g>
</g>
<!-- Node1&#45;&gt;Node2 -->
<g id="edge1" class="edge"><title>Node1&#45;&gt;Node2</title>
<path fill="none" stroke="midnightblue" d="M99.6863,-241.38C108.689,-242.559 118.242,-243.811 127.7,-245.05"/>
<polygon fill="midnightblue" stroke="midnightblue" points="127.525,-248.557 137.895,-246.386 128.435,-241.617 127.525,-248.557"/>
</g>
<!-- Node24 -->
<g id="node24" class="node"><title>Node24</title>
<g id="a_node24"><a xlink:href="../../d7/dde/classparser_1_1_main.html#ae2e6ba906f61e867fdb5ed7f817dc832" target="_top" xlink:title="parser.Main.checkLine">
<polygon fill="white" stroke="black" points="136,-206.5 136,-225.5 258,-225.5 258,-206.5 136,-206.5"/>
<text text-anchor="middle" x="197" y="-213.5" font-family="Helvetica,sans-Serif" font-size="10.00">parser.Main.checkLine</text>
</a>
</g>
</g>
<!-- Node1&#45;&gt;Node24 -->
<g id="edge23" class="edge"><title>Node1&#45;&gt;Node24</title>
<path fill="none" stroke="midnightblue" d="M99.6863,-228.62C108.115,-227.516 117.026,-226.348 125.89,-225.187"/>
<polygon fill="midnightblue" stroke="midnightblue" points="126.389,-228.651 135.849,-223.882 125.479,-221.711 126.389,-228.651"/>
</g>
<!-- Node3 -->
<g id="node3" class="node"><title>Node3</title>
<g id="a_node3"><a xlink:href="../../d6/d95/classparser_1_1_parser.html#ac0cfecef1d5308df35c49519d94f85a5" target="_top" xlink:title="parser.Parser.parseCommand">
<polygon fill="white" stroke="black" points="294.5,-244.5 294.5,-263.5 453.5,-263.5 453.5,-244.5 294.5,-244.5"/>
<text text-anchor="middle" x="374" y="-251.5" font-family="Helvetica,sans-Serif" font-size="10.00">parser.Parser.parseCommand</text>
</a>
</g>
</g>
<!-- Node2&#45;&gt;Node3 -->
<g id="edge2" class="edge"><title>Node2&#45;&gt;Node3</title>
<path fill="none" stroke="midnightblue" d="M256.272,-254C265.254,-254 274.699,-254 284.165,-254"/>
<polygon fill="midnightblue" stroke="midnightblue" points="284.424,-257.5 294.424,-254 284.424,-250.5 284.424,-257.5"/>
</g>
<!-- Node4 -->
<g id="node4" class="node"><title>Node4</title>
<g id="a_node4"><a xlink:href="../../d2/df8/classparser_1_1_lex_checker.html#a982a56b6fbf6428a5dca97eb56a81625" target="_top" xlink:title="parser.LexChecker.splitTokens">
<polygon fill="white" stroke="black" points="502.5,-266.5 502.5,-285.5 661.5,-285.5 661.5,-266.5 502.5,-266.5"/>
<text text-anchor="middle" x="582" y="-273.5" font-family="Helvetica,sans-Serif" font-size="10.00">parser.LexChecker.splitTokens</text>
</a>
</g>
</g>
<!-- Node3&#45;&gt;Node4 -->
<g id="edge3" class="edge"><title>Node3&#45;&gt;Node4</title>
<path fill="none" stroke="midnightblue" d="M453.762,-262.411C466.309,-263.751 479.365,-265.146 492.126,-266.509"/>
<polygon fill="midnightblue" stroke="midnightblue" points="491.967,-270.011 502.282,-267.593 492.71,-263.051 491.967,-270.011"/>
</g>
<!-- Node5 -->
<g id="node5" class="node"><title>Node5</title>
<g id="a_node5"><a xlink:href="../../d7/d0d/classparser_1_1_semantics_checker.html#a8620f3090287a61f86765ee920d53de0" target="_top" xlink:title="parser.SemanticsChecker.evaluate\lExpression">
<polygon fill="white" stroke="black" points="490.5,-217 490.5,-247 673.5,-247 673.5,-217 490.5,-217"/>
<text text-anchor="start" x="498.5" y="-235" font-family="Helvetica,sans-Serif" font-size="10.00">parser.SemanticsChecker.evaluate</text>
<text text-anchor="middle" x="582" y="-224" font-family="Helvetica,sans-Serif" font-size="10.00">Expression</text>
</a>
</g>
</g>
<!-- Node3&#45;&gt;Node5 -->
<g id="edge4" class="edge"><title>Node3&#45;&gt;Node5</title>
<path fill="none" stroke="midnightblue" d="M453.762,-245.589C462.427,-244.663 471.334,-243.712 480.22,-242.763"/>
<polygon fill="midnightblue" stroke="midnightblue" points="480.657,-246.236 490.229,-241.694 479.914,-239.276 480.657,-246.236"/>
</g>
<!-- Node6 -->
<g id="node6" class="node"><title>Node6</title>
<g id="a_node6"><a xlink:href="../../df/daf/classparser_1_1_semantics_table.html#aab459a521d748abf6058d243b8714d32" target="_top" xlink:title="parser.SemanticsTable.get\lTokenClass">
<polygon fill="white" stroke="black" points="743.5,-308 743.5,-338 886.5,-338 886.5,-308 743.5,-308"/>
<text text-anchor="start" x="751.5" y="-326" font-family="Helvetica,sans-Serif" font-size="10.00">parser.SemanticsTable.get</text>
<text text-anchor="middle" x="815" y="-315" font-family="Helvetica,sans-Serif" font-size="10.00">TokenClass</text>
</a>
</g>
</g>
<!-- Node5&#45;&gt;Node6 -->
<g id="edge5" class="edge"><title>Node5&#45;&gt;Node6</title>
<path fill="none" stroke="midnightblue" d="M653.194,-247.043C660.458,-249.833 667.537,-253.123 674,-257 693.951,-268.966 690.019,-283.085 710,-295 717.409,-299.418 725.526,-303.154 733.855,-306.308"/>
<polygon fill="midnightblue" stroke="midnightblue" points="732.726,-309.622 743.321,-309.629 735.043,-303.016 732.726,-309.622"/>
</g>
<!-- Node10 -->
<g id="node10" class="node"><title>Node10</title>
<g id="a_node10"><a xlink:href="../../d5/d08/classparser_1_1nodes_1_1_node_information.html#a1553927792e60fe77a0b2a7d21c53182" target="_top" xlink:title="parser.nodes.NodeInformation.getName">
<polygon fill="white" stroke="black" points="710,-266.5 710,-285.5 920,-285.5 920,-266.5 710,-266.5"/>
<text text-anchor="middle" x="815" y="-273.5" font-family="Helvetica,sans-Serif" font-size="10.00">parser.nodes.NodeInformation.getName</text>
</a>
</g>
</g>
<!-- Node5&#45;&gt;Node10 -->
<g id="edge9" class="edge"><title>Node5&#45;&gt;Node10</title>
<path fill="none" stroke="midnightblue" d="M661.851,-247.019C692,-252.762 725.866,-259.213 753.98,-264.568"/>
<polygon fill="midnightblue" stroke="midnightblue" points="753.581,-268.055 764.06,-266.488 754.891,-261.178 753.581,-268.055"/>
</g>
<!-- Node11 -->
<g id="node11" class="node"><title>Node11</title>
<g id="a_node11"><a xlink:href="../../df/daf/classparser_1_1_semantics_table.html#a8b10ea894ea685fb78306df326a17db2" target="_top" xlink:title="parser.SemanticsTable.register\lCustomCommand">
<polygon fill="white" stroke="black" points="733,-217 733,-247 897,-247 897,-217 733,-217"/>
<text text-anchor="start" x="741" y="-235" font-family="Helvetica,sans-Serif" font-size="10.00">parser.SemanticsTable.register</text>
<text text-anchor="middle" x="815" y="-224" font-family="Helvetica,sans-Serif" font-size="10.00">CustomCommand</text>
</a>
</g>
</g>
<!-- Node5&#45;&gt;Node11 -->
<g id="edge10" class="edge"><title>Node5&#45;&gt;Node11</title>
<path fill="none" stroke="midnightblue" d="M673.634,-232C689.602,-232 706.235,-232 722.234,-232"/>
<polygon fill="midnightblue" stroke="midnightblue" points="722.642,-235.5 732.642,-232 722.642,-228.5 722.642,-235.5"/>
</g>
<!-- Node13 -->
<g id="node13" class="node"><title>Node13</title>
<g id="a_node13"><a xlink:href="../../d7/d0d/classparser_1_1_semantics_checker.html#a41a9f32483c1d0e32acd7fa553c9670c" target="_top" xlink:title="parser.SemanticsChecker.create\lCustomCommand">
<polygon fill="white" stroke="black" points="728.5,-163 728.5,-193 901.5,-193 901.5,-163 728.5,-163"/>
<text text-anchor="start" x="736.5" y="-181" font-family="Helvetica,sans-Serif" font-size="10.00">parser.SemanticsChecker.create</text>
<text text-anchor="middle" x="815" y="-170" font-family="Helvetica,sans-Serif" font-size="10.00">CustomCommand</text>
</a>
</g>
</g>
<!-- Node5&#45;&gt;Node13 -->
<g id="edge12" class="edge"><title>Node5&#45;&gt;Node13</title>
<path fill="none" stroke="midnightblue" d="M647.346,-216.958C676.012,-210.257 709.946,-202.324 739.687,-195.372"/>
<polygon fill="midnightblue" stroke="midnightblue" points="740.658,-198.739 749.598,-193.055 739.064,-191.923 740.658,-198.739"/>
</g>
<!-- Node17 -->
<g id="node17" class="node"><title>Node17</title>
<g id="a_node17"><a xlink:href="../../d7/d0d/classparser_1_1_semantics_checker.html#a9874458f603e4eac6181412441aff5af" target="_top" xlink:title="parser.SemanticsChecker.createNode">
<polygon fill="white" stroke="black" points="716,-78.5 716,-97.5 914,-97.5 914,-78.5 716,-78.5"/>
<text text-anchor="middle" x="815" y="-85.5" font-family="Helvetica,sans-Serif" font-size="10.00">parser.SemanticsChecker.createNode</text>
</a>
</g>
</g>
<!-- Node5&#45;&gt;Node17 -->
<g id="edge16" class="edge"><title>Node5&#45;&gt;Node17</title>
<path fill="none" stroke="midnightblue" d="M607.284,-216.862C651.732,-189.154 745.659,-130.602 789.94,-102.999"/>
<polygon fill="midnightblue" stroke="midnightblue" points="791.965,-105.861 798.599,-97.6004 788.262,-99.9204 791.965,-105.861"/>
</g>
<!-- Node7 -->
<g id="node7" class="node"><title>Node7</title>
<g id="a_node7"><a xlink:href="../../d5/d08/classparser_1_1nodes_1_1_node_information.html#a10357cfb2c29282a4571d4713551a448" target="_top" xlink:title="parser.nodes.NodeInformation.clone">
<polygon fill="white" stroke="black" points="961.5,-357.5 961.5,-376.5 1152.5,-376.5 1152.5,-357.5 961.5,-357.5"/>
<text text-anchor="middle" x="1057" y="-364.5" font-family="Helvetica,sans-Serif" font-size="10.00">parser.nodes.NodeInformation.clone</text>
</a>
</g>
</g>
<!-- Node6&#45;&gt;Node7 -->
<g id="edge6" class="edge"><title>Node6&#45;&gt;Node7</title>
<path fill="none" stroke="midnightblue" d="M886.71,-335.963C920.793,-342.212 961.298,-349.638 994.14,-355.659"/>
<polygon fill="midnightblue" stroke="midnightblue" points="993.604,-359.119 1004.07,-357.48 994.866,-352.234 993.604,-359.119"/>
</g>
<!-- Node9 -->
<g id="node9" class="node"><title>Node9</title>
<g id="a_node9"><a xlink:href="../../d5/d08/classparser_1_1nodes_1_1_node_information.html#a0c4a6fe4a61e93a5dbe095ee42c213ed" target="_top" xlink:title="parser.nodes.NodeInformation.set\lToken">
<polygon fill="white" stroke="black" points="967,-308 967,-338 1147,-338 1147,-308 967,-308"/>
<text text-anchor="start" x="975" y="-326" font-family="Helvetica,sans-Serif" font-size="10.00">parser.nodes.NodeInformation.set</text>
<text text-anchor="middle" x="1057" y="-315" font-family="Helvetica,sans-Serif" font-size="10.00">Token</text>
</a>
</g>
</g>
<!-- Node6&#45;&gt;Node9 -->
<g id="edge8" class="edge"><title>Node6&#45;&gt;Node9</title>
<path fill="none" stroke="midnightblue" d="M886.71,-323C908.511,-323 932.938,-323 956.308,-323"/>
<polygon fill="midnightblue" stroke="midnightblue" points="956.601,-326.5 966.601,-323 956.601,-319.5 956.601,-326.5"/>
</g>
<!-- Node8 -->
<g id="node8" class="node"><title>Node8</title>
<g id="a_node8"><a xlink:href="../../d5/d08/classparser_1_1nodes_1_1_node_information.html#a0672ed587472f62f81cad30d9c35e3f0" target="_top" xlink:title="parser.nodes.NodeInformation.\lNodeInformation">
<polygon fill="white" stroke="black" points="1194.5,-352 1194.5,-382 1359.5,-382 1359.5,-352 1194.5,-352"/>
<text text-anchor="start" x="1202.5" y="-370" font-family="Helvetica,sans-Serif" font-size="10.00">parser.nodes.NodeInformation.</text>
<text text-anchor="middle" x="1277" y="-359" font-family="Helvetica,sans-Serif" font-size="10.00">NodeInformation</text>
</a>
</g>
</g>
<!-- Node7&#45;&gt;Node8 -->
<g id="edge7" class="edge"><title>Node7&#45;&gt;Node8</title>
<path fill="none" stroke="midnightblue" d="M1152.67,-367C1163.09,-367 1173.7,-367 1184.09,-367"/>
<polygon fill="midnightblue" stroke="midnightblue" points="1184.4,-370.5 1194.4,-367 1184.4,-363.5 1184.4,-370.5"/>
</g>
<!-- Node12 -->
<g id="node12" class="node"><title>Node12</title>
<g id="a_node12"><a xlink:href="../../dd/da7/interfaceparser_1_1_i_parser_provider.html#a933bbd5080c55f69c3e3f740a465e0a5" target="_top" xlink:title="parser.IParserProvider.add\lCommand">
<polygon fill="white" stroke="black" points="986.5,-259 986.5,-289 1127.5,-289 1127.5,-259 986.5,-259"/>
<text text-anchor="start" x="994.5" y="-277" font-family="Helvetica,sans-Serif" font-size="10.00">parser.IParserProvider.add</text>
<text text-anchor="middle" x="1057" y="-266" font-family="Helvetica,sans-Serif" font-size="10.00">Command</text>
</a>
</g>
</g>
<!-- Node11&#45;&gt;Node12 -->
<g id="edge11" class="edge"><title>Node11&#45;&gt;Node12</title>
<path fill="none" stroke="midnightblue" d="M897.253,-246.219C922.824,-250.694 951.025,-255.629 976.474,-260.083"/>
<polygon fill="midnightblue" stroke="midnightblue" points="975.997,-263.553 986.451,-261.829 977.204,-256.657 975.997,-263.553"/>
</g>
<!-- Node14 -->
<g id="node14" class="node"><title>Node14</title>
<g id="a_node14"><a xlink:href="../../d5/d08/classparser_1_1nodes_1_1_node_information.html#a1a0cba33547c0d09dd567f0a9db27a51" target="_top" xlink:title="parser.nodes.NodeInformation.set\lShouldCreate">
<polygon fill="white" stroke="black" points="967,-210 967,-240 1147,-240 1147,-210 967,-210"/>
<text text-anchor="start" x="975" y="-228" font-family="Helvetica,sans-Serif" font-size="10.00">parser.nodes.NodeInformation.set</text>
<text text-anchor="middle" x="1057" y="-217" font-family="Helvetica,sans-Serif" font-size="10.00">ShouldCreate</text>
</a>
</g>
</g>
<!-- Node13&#45;&gt;Node14 -->
<g id="edge13" class="edge"><title>Node13&#45;&gt;Node14</title>
<path fill="none" stroke="midnightblue" d="M892.597,-193C917.061,-197.791 944.306,-203.127 969.427,-208.046"/>
<polygon fill="midnightblue" stroke="midnightblue" points="968.821,-211.494 979.307,-209.981 970.166,-204.624 968.821,-211.494"/>
</g>
<!-- Node15 -->
<g id="node15" class="node"><title>Node15</title>
<g id="a_node15"><a xlink:href="../../d5/d08/classparser_1_1nodes_1_1_node_information.html#ae642533c8e960e3d6dff2653e422f301" target="_top" xlink:title="parser.nodes.NodeInformation.get\lToken">
<polygon fill="white" stroke="black" points="966.5,-161 966.5,-191 1147.5,-191 1147.5,-161 966.5,-161"/>
<text text-anchor="start" x="974.5" y="-179" font-family="Helvetica,sans-Serif" font-size="10.00">parser.nodes.NodeInformation.get</text>
<text text-anchor="middle" x="1057" y="-168" font-family="Helvetica,sans-Serif" font-size="10.00">Token</text>
</a>
</g>
</g>
<!-- Node13&#45;&gt;Node15 -->
<g id="edge14" class="edge"><title>Node13&#45;&gt;Node15</title>
<path fill="none" stroke="midnightblue" d="M901.629,-177.286C919.348,-177.139 938.159,-176.982 956.33,-176.831"/>
<polygon fill="midnightblue" stroke="midnightblue" points="956.377,-180.33 966.348,-176.747 956.319,-173.331 956.377,-180.33"/>
</g>
<!-- Node16 -->
<g id="node16" class="node"><title>Node16</title>
<g id="a_node16"><a xlink:href="../../d5/d08/classparser_1_1nodes_1_1_node_information.html#ad42f8e4caa516857bf2ad3eb9e392a9e" target="_top" xlink:title="parser.nodes.NodeInformation.getType">
<polygon fill="white" stroke="black" points="956,-122.5 956,-141.5 1158,-141.5 1158,-122.5 956,-122.5"/>
<text text-anchor="middle" x="1057" y="-129.5" font-family="Helvetica,sans-Serif" font-size="10.00">parser.nodes.NodeInformation.getType</text>
</a>
</g>
</g>
<!-- Node13&#45;&gt;Node16 -->
<g id="edge15" class="edge"><title>Node13&#45;&gt;Node16</title>
<path fill="none" stroke="midnightblue" d="M893.747,-162.966C914.01,-159.059 935.821,-154.863 956,-151 968.863,-148.538 982.659,-145.909 995.77,-143.416"/>
<polygon fill="midnightblue" stroke="midnightblue" points="996.464,-146.847 1005.64,-141.541 995.158,-139.97 996.464,-146.847"/>
</g>
<!-- Node18 -->
<g id="node18" class="node"><title>Node18</title>
<g id="a_node18"><a xlink:href="../../df/daf/classparser_1_1_semantics_table.html#ad21bbcf3716340782e1da8da4efe1e82" target="_top" xlink:title="parser.SemanticsTable.get\lCommand">
<polygon fill="white" stroke="black" points="985.5,-73 985.5,-103 1128.5,-103 1128.5,-73 985.5,-73"/>
<text text-anchor="start" x="993.5" y="-91" font-family="Helvetica,sans-Serif" font-size="10.00">parser.SemanticsTable.get</text>
<text text-anchor="middle" x="1057" y="-80" font-family="Helvetica,sans-Serif" font-size="10.00">Command</text>
</a>
</g>
</g>
<!-- Node17&#45;&gt;Node18 -->
<g id="edge17" class="edge"><title>Node17&#45;&gt;Node18</title>
<path fill="none" stroke="midnightblue" d="M914.31,-88C934.593,-88 955.732,-88 975.303,-88"/>
<polygon fill="midnightblue" stroke="midnightblue" points="975.381,-91.5001 985.381,-88 975.381,-84.5001 975.381,-91.5001"/>
</g>
<!-- Node20 -->
<g id="node20" class="node"><title>Node20</title>
<g id="a_node20"><a xlink:href="../../d6/dcd/classparser_1_1reflection_1_1_reflection_helper.html#aff20ce969eb8ac26feda4d41f9f26411" target="_top" xlink:title="parser.reflection.Reflection\lHelper.createInstanceOf">
<polygon fill="white" stroke="black" points="985.5,-24 985.5,-54 1128.5,-54 1128.5,-24 985.5,-24"/>
<text text-anchor="start" x="993.5" y="-42" font-family="Helvetica,sans-Serif" font-size="10.00">parser.reflection.Reflection</text>
<text text-anchor="middle" x="1057" y="-31" font-family="Helvetica,sans-Serif" font-size="10.00">Helper.createInstanceOf</text>
</a>
</g>
</g>
<!-- Node17&#45;&gt;Node20 -->
<g id="edge19" class="edge"><title>Node17&#45;&gt;Node20</title>
<path fill="none" stroke="midnightblue" d="M862.559,-78.4942C894.593,-71.9539 937.972,-63.0973 975.534,-55.4285"/>
<polygon fill="midnightblue" stroke="midnightblue" points="976.354,-58.8333 985.452,-53.4036 974.954,-51.9748 976.354,-58.8333"/>
</g>
<!-- Node19 -->
<g id="node19" class="node"><title>Node19</title>
<g id="a_node19"><a xlink:href="../../dd/da7/interfaceparser_1_1_i_parser_provider.html#a190d86fe0b03a1c15700dae1237754fb" target="_top" xlink:title="parser.IParserProvider.get\lCommand">
<polygon fill="white" stroke="black" points="1207.5,-73 1207.5,-103 1346.5,-103 1346.5,-73 1207.5,-73"/>
<text text-anchor="start" x="1215.5" y="-91" font-family="Helvetica,sans-Serif" font-size="10.00">parser.IParserProvider.get</text>
<text text-anchor="middle" x="1277" y="-80" font-family="Helvetica,sans-Serif" font-size="10.00">Command</text>
</a>
</g>
</g>
<!-- Node18&#45;&gt;Node19 -->
<g id="edge18" class="edge"><title>Node18&#45;&gt;Node19</title>
<path fill="none" stroke="midnightblue" d="M1128.78,-88C1150.66,-88 1174.9,-88 1197.29,-88"/>
<polygon fill="midnightblue" stroke="midnightblue" points="1197.43,-91.5001 1207.43,-88 1197.43,-84.5001 1197.43,-91.5001"/>
</g>
<!-- Node21 -->
<g id="node21" class="node"><title>Node21</title>
<g id="a_node21"><a xlink:href="../../d6/dcd/classparser_1_1reflection_1_1_reflection_helper.html#a560ebe5618d9e6e27c57d13b55fe1b43" target="_top" xlink:title="parser.reflection.Reflection\lHelper.findConstructor">
<polygon fill="white" stroke="black" points="1205.5,-24 1205.5,-54 1348.5,-54 1348.5,-24 1205.5,-24"/>
<text text-anchor="start" x="1213.5" y="-42" font-family="Helvetica,sans-Serif" font-size="10.00">parser.reflection.Reflection</text>
<text text-anchor="middle" x="1277" y="-31" font-family="Helvetica,sans-Serif" font-size="10.00">Helper.findConstructor</text>
</a>
</g>
</g>
<!-- Node20&#45;&gt;Node21 -->
<g id="edge20" class="edge"><title>Node20&#45;&gt;Node21</title>
<path fill="none" stroke="midnightblue" d="M1128.78,-39C1149.92,-39 1173.26,-39 1195.01,-39"/>
<polygon fill="midnightblue" stroke="midnightblue" points="1195.2,-42.5001 1205.2,-39 1195.2,-35.5001 1195.2,-42.5001"/>
</g>
<!-- Node22 -->
<g id="node22" class="node"><title>Node22</title>
<g id="a_node22"><a xlink:href="../../d6/dcd/classparser_1_1reflection_1_1_reflection_helper.html#ab29ddff567376a34fe0e284cf6833b0d" target="_top" xlink:title="parser.reflection.Reflection\lHelper.toClassArray">
<polygon fill="white" stroke="black" points="1396.5,-49 1396.5,-79 1539.5,-79 1539.5,-49 1396.5,-49"/>
<text text-anchor="start" x="1404.5" y="-67" font-family="Helvetica,sans-Serif" font-size="10.00">parser.reflection.Reflection</text>
<text text-anchor="middle" x="1468" y="-56" font-family="Helvetica,sans-Serif" font-size="10.00">Helper.toClassArray</text>
</a>
</g>
</g>
<!-- Node21&#45;&gt;Node22 -->
<g id="edge21" class="edge"><title>Node21&#45;&gt;Node22</title>
<path fill="none" stroke="midnightblue" d="M1348.65,-48.3446C1360.97,-49.9752 1373.88,-51.6824 1386.45,-53.3451"/>
<polygon fill="midnightblue" stroke="midnightblue" points="1386.07,-56.8251 1396.44,-54.6667 1386.99,-49.8855 1386.07,-56.8251"/>
</g>
<!-- Node23 -->
<g id="node23" class="node"><title>Node23</title>
<g id="a_node23"><a xlink:href="../../d6/dcd/classparser_1_1reflection_1_1_reflection_helper.html#ac2c724f682c2eb9bd6be04a816e86320" target="_top" xlink:title="parser.reflection.Reflection\lHelper.paramsEqual">
<polygon fill="white" stroke="black" points="1396.5,-0 1396.5,-30 1539.5,-30 1539.5,-0 1396.5,-0"/>
<text text-anchor="start" x="1404.5" y="-18" font-family="Helvetica,sans-Serif" font-size="10.00">parser.reflection.Reflection</text>
<text text-anchor="middle" x="1468" y="-7" font-family="Helvetica,sans-Serif" font-size="10.00">Helper.paramsEqual</text>
</a>
</g>
</g>
<!-- Node21&#45;&gt;Node23 -->
<g id="edge22" class="edge"><title>Node21&#45;&gt;Node23</title>
<path fill="none" stroke="midnightblue" d="M1348.65,-30.0292C1360.97,-28.4638 1373.88,-26.8249 1386.45,-25.2287"/>
<polygon fill="midnightblue" stroke="midnightblue" points="1386.96,-28.6919 1396.44,-23.96 1386.08,-21.7477 1386.96,-28.6919"/>
</g>
</g>
</svg>
        <g id="navigator" transform="translate(0 0)" fill="#404254">
                <rect fill="#f2f5e9" fill-opacity="0.5" stroke="#606060" stroke-width=".5" x="0" y="0" width="60" height="60"/>
                <use id="zoomplus" xlink:href="#zoomPlus" x="17" y="9" onmousedown="handleZoom(evt,'in')"/>
                <use id="zoomminus" xlink:href="#zoomMin" x="42" y="9" onmousedown="handleZoom(evt,'out')"/>
                <use id="reset" xlink:href="#resetDef" x="30" y="36" onmousedown="handleReset()"/>
                <g id="arrowUp" xlink:href="#dirArrow" transform="translate(30 24)" onmousedown="handlePan(0,-1)">
                  <use xlink:href="#rim" fill="#404040">
                        <set attributeName="fill" to="#808080" begin="arrowUp.mouseover" end="arrowUp.mouseout"/>
                  </use>
                  <path fill="none" stroke="white" stroke-width="1.5" d="M0,-3.0v7 M-2.5,-0.5L0,-3.0L2.5,-0.5"/>
                </g>
                <g id="arrowRight" xlink:href="#dirArrow" transform="rotate(90) translate(36 -43)" onmousedown="handlePan(1,0)">
                  <use xlink:href="#rim" fill="#404040">
                        <set attributeName="fill" to="#808080" begin="arrowRight.mouseover" end="arrowRight.mouseout"/>
                  </use>
                  <path fill="none" stroke="white" stroke-width="1.5" d="M0,-3.0v7 M-2.5,-0.5L0,-3.0L2.5,-0.5"/>
                </g>
                <g id="arrowDown" xlink:href="#dirArrow" transform="rotate(180) translate(-30 -48)" onmousedown="handlePan(0,1)">
                  <use xlink:href="#rim" fill="#404040">
                        <set attributeName="fill" to="#808080" begin="arrowDown.mouseover" end="arrowDown.mouseout"/>
                  </use>
                  <path fill="none" stroke="white" stroke-width="1.5" d="M0,-3.0v7 M-2.5,-0.5L0,-3.0L2.5,-0.5"/>
                </g>
                <g id="arrowLeft" xlink:href="#dirArrow" transform="rotate(270) translate(-36 17)" onmousedown="handlePan(-1,0)">
                  <use xlink:href="#rim" fill="#404040">
                        <set attributeName="fill" to="#808080" begin="arrowLeft.mouseover" end="arrowLeft.mouseout"/>
                  </use>
                  <path fill="none" stroke="white" stroke-width="1.5" d="M0,-3.0v7 M-2.5,-0.5L0,-3.0L2.5,-0.5"/>
                </g>
        </g>
        <svg viewBox="0 0 15 15" width="100%" height="30px" preserveAspectRatio="xMaxYMin meet">
         <g id="arrow_out" transform="scale(0.3 0.3)">
          <a xlink:href="classparser_1_1_main_ac3abd936d94632f17feedf0cce82afff_cgraph_org.svg" target="_base">
           <rect id="button" ry="5" rx="5" y="6" x="6" height="38" width="38"
                fill="#f2f5e9" fill-opacity="0.5" stroke="#606060" stroke-width="1.0"/>
           <path id="arrow"
             d="M 11.500037,31.436501 C 11.940474,20.09759 22.043105,11.32322 32.158766,21.979434 L 37.068811,17.246167 C 37.068811,17.246167 37.088388,32 37.088388,32 L 22.160133,31.978069 C 22.160133,31.978069 26.997745,27.140456 26.997745,27.140456 C 18.528582,18.264221 13.291696,25.230495 11.500037,31.436501 z"
             style="fill:#404040;"/>
          </a>
         </g>
        </svg>
</svg>
