<?xml version="1.0" encoding="UTF-8" standalone="no"?>
<!DOCTYPE svg PUBLIC "-//W3C//DTD SVG 1.1//EN"
 "http://www.w3.org/Graphics/SVG/1.1/DTD/svg11.dtd">
<!-- Generated by graphviz version 2.36.0 (20140111.2315)
 -->
<!-- Title: parser.reflection.ReflectionHelper.toClassArray Pages: 1 -->
<!--zoomable 799 -->
<svg id="main" version="1.1" xmlns="http://www.w3.org/2000/svg" xmlns:xlink="http://www.w3.org/1999/xlink" xml:space="preserve" onload="init(evt)">
<style type="text/css"><![CDATA[
.edge:hover path { stroke: red; }
.edge:hover polygon { stroke: red; fill: red; }
]]></style>
<script type="text/javascript"><![CDATA[
var edges = document.getElementsByTagName('g');
if (edges && edges.length) {
  for (var i=0;i<edges.length;i++) {
    if (edges[i].id.substr(0,4)=='edge') {
      edges[i].setAttribute('class','edge');
    }
  }
}
]]></script>
        <defs>
                <circle id="rim" cx="0" cy="0" r="7"/>
                <circle id="rim2" cx="0" cy="0" r="3.5"/>
                <g id="zoomPlus">
                        <use xlink:href="#rim" fill="#404040">
                                <set attributeName="fill" to="#808080" begin="zoomplus.mouseover" end="zoomplus.mouseout"/>
                        </use>
                        <path d="M-4,0h8M0,-4v8" fill="none" stroke="white" stroke-width="1.5" pointer-events="none"/>
                </g>
                <g id="zoomMin">
                        <use xlink:href="#rim" fill="#404040">
                                <set attributeName="fill" to="#808080" begin="zoomminus.mouseover" end="zoomminus.mouseout"/>
                        </use>
                        <path d="M-4,0h8" fill="none" stroke="white" stroke-width="1.5" pointer-events="none"/>
                </g>
                <g id="dirArrow">
                        <path fill="none" stroke="white" stroke-width="1.5" d="M0,-3.0v7 M-2.5,-0.5L0,-3.0L2.5,-0.5"/>
                </g>
               <g id="resetDef">
                       <use xlink:href="#rim2" fill="#404040">
                               <set attributeName="fill" to="#808080" begin="reset.mouseover" end="reset.mouseout"/>
                       </use>
               </g>
        </defs>

<script type="text/javascript">
var viewWidth = 2288;
var viewHeight = 799;
var sectionId = 'dynsection-7';
</script>
<script xlink:href="../../svgpan.js"/>
<svg id="graph" class="graph">
<g id="viewport">
<title>parser.reflection.ReflectionHelper.toClassArray</title>
<polygon fill="white" stroke="none" points="-4,4 -4,-795 2284,-795 2284,4 -4,4"/>
<!-- Node1 -->
<g id="node1" class="node"><title>Node1</title>
<polygon fill="#bfbfbf" stroke="black" points="0.5,-339 0.5,-369 143.5,-369 143.5,-339 0.5,-339"/>
<text text-anchor="start" x="8.5" y="-357" font-family="Helvetica,sans-Serif" font-size="10.00">parser.reflection.Reflection</text>
<text text-anchor="middle" x="72" y="-346" font-family="Helvetica,sans-Serif" font-size="10.00">Helper.toClassArray</text>
</g>
<!-- Node2 -->
<g id="node2" class="node"><title>Node2</title>
<g id="a_node2"><a xlink:href="../../d6/dcd/classparser_1_1reflection_1_1_reflection_helper.html#a560ebe5618d9e6e27c57d13b55fe1b43" target="_top" xlink:title="parser.reflection.Reflection\lHelper.findConstructor">
<polygon fill="white" stroke="black" points="180.5,-364 180.5,-394 323.5,-394 323.5,-364 180.5,-364"/>
<text text-anchor="start" x="188.5" y="-382" font-family="Helvetica,sans-Serif" font-size="10.00">parser.reflection.Reflection</text>
<text text-anchor="middle" x="252" y="-371" font-family="Helvetica,sans-Serif" font-size="10.00">Helper.findConstructor</text>
</a>
</g>
</g>
<!-- Node1&#45;&gt;Node2 -->
<g id="edge1" class="edge"><title>Node1&#45;&gt;Node2</title>
<path fill="none" stroke="midnightblue" d="M153.646,-365.327C162.599,-366.584 171.666,-367.858 180.479,-369.095"/>
<polygon fill="midnightblue" stroke="midnightblue" points="153.996,-361.842 143.606,-363.917 153.022,-368.773 153.996,-361.842"/>
</g>
<!-- Node33 -->
<g id="node33" class="node"><title>Node33</title>
<g id="a_node33"><a xlink:href="../../d6/dcd/classparser_1_1reflection_1_1_reflection_helper.html#a1aee55bd8391dfce61d24c13acb08343" target="_top" xlink:title="parser.reflection.Reflection\lHelper.findMethod">
<polygon fill="white" stroke="black" points="180.5,-315 180.5,-345 323.5,-345 323.5,-315 180.5,-315"/>
<text text-anchor="start" x="188.5" y="-333" font-family="Helvetica,sans-Serif" font-size="10.00">parser.reflection.Reflection</text>
<text text-anchor="middle" x="252" y="-322" font-family="Helvetica,sans-Serif" font-size="10.00">Helper.findMethod</text>
</a>
</g>
</g>
<!-- Node1&#45;&gt;Node33 -->
<g id="edge33" class="edge"><title>Node1&#45;&gt;Node33</title>
<path fill="none" stroke="midnightblue" d="M153.646,-343.126C162.599,-341.919 171.666,-340.697 180.479,-339.508"/>
<polygon fill="midnightblue" stroke="midnightblue" points="153.049,-339.675 143.606,-344.48 153.984,-346.612 153.049,-339.675"/>
</g>
<!-- Node3 -->
<g id="node3" class="node"><title>Node3</title>
<g id="a_node3"><a xlink:href="../../d6/dcd/classparser_1_1reflection_1_1_reflection_helper.html#aff20ce969eb8ac26feda4d41f9f26411" target="_top" xlink:title="parser.reflection.Reflection\lHelper.createInstanceOf">
<polygon fill="white" stroke="black" points="360.5,-364 360.5,-394 503.5,-394 503.5,-364 360.5,-364"/>
<text text-anchor="start" x="368.5" y="-382" font-family="Helvetica,sans-Serif" font-size="10.00">parser.reflection.Reflection</text>
<text text-anchor="middle" x="432" y="-371" font-family="Helvetica,sans-Serif" font-size="10.00">Helper.createInstanceOf</text>
</a>
</g>
</g>
<!-- Node2&#45;&gt;Node3 -->
<g id="edge2" class="edge"><title>Node2&#45;&gt;Node3</title>
<path fill="none" stroke="midnightblue" d="M333.646,-379C342.599,-379 351.666,-379 360.479,-379"/>
<polygon fill="midnightblue" stroke="midnightblue" points="333.606,-375.5 323.606,-379 333.606,-382.5 333.606,-375.5"/>
</g>
<!-- Node4 -->
<g id="node4" class="node"><title>Node4</title>
<g id="a_node4"><a xlink:href="../../d7/d0d/classparser_1_1_semantics_checker.html#a9874458f603e4eac6181412441aff5af" target="_top" xlink:title="parser.SemanticsChecker.createNode">
<polygon fill="white" stroke="black" points="540,-391.5 540,-410.5 738,-410.5 738,-391.5 540,-391.5"/>
<text text-anchor="middle" x="639" y="-398.5" font-family="Helvetica,sans-Serif" font-size="10.00">parser.SemanticsChecker.createNode</text>
</a>
</g>
</g>
<!-- Node3&#45;&gt;Node4 -->
<g id="edge3" class="edge"><title>Node3&#45;&gt;Node4</title>
<path fill="none" stroke="midnightblue" d="M513.681,-387.658C525.344,-388.91 537.402,-390.204 549.213,-391.472"/>
<polygon fill="midnightblue" stroke="midnightblue" points="513.866,-384.158 503.549,-386.571 513.119,-391.118 513.866,-384.158"/>
</g>
<!-- Node32 -->
<g id="node32" class="node"><title>Node32</title>
<g id="a_node32"><a xlink:href="../../d8/d22/classparser_1_1nodes_1_1_param_list_node.html#a846716e63113f3cbdb3428466bd60515" target="_top" xlink:title="parser.nodes.ParamListNode.\lParamListNode">
<polygon fill="white" stroke="black" points="560,-342 560,-372 718,-372 718,-342 560,-342"/>
<text text-anchor="start" x="568" y="-360" font-family="Helvetica,sans-Serif" font-size="10.00">parser.nodes.ParamListNode.</text>
<text text-anchor="middle" x="639" y="-349" font-family="Helvetica,sans-Serif" font-size="10.00">ParamListNode</text>
</a>
</g>
</g>
<!-- Node3&#45;&gt;Node32 -->
<g id="edge32" class="edge"><title>Node3&#45;&gt;Node32</title>
<path fill="none" stroke="midnightblue" d="M513.918,-370.316C529.071,-368.69 544.883,-366.993 559.948,-365.376"/>
<polygon fill="midnightblue" stroke="midnightblue" points="513.119,-366.882 503.549,-371.429 513.866,-373.842 513.119,-366.882"/>
</g>
<!-- Node5 -->
<g id="node5" class="node"><title>Node5</title>
<g id="a_node5"><a xlink:href="../../d7/d0d/classparser_1_1_semantics_checker.html#a8620f3090287a61f86765ee920d53de0" target="_top" xlink:title="parser.SemanticsChecker.evaluate\lExpression">
<polygon fill="white" stroke="black" points="774.5,-386 774.5,-416 957.5,-416 957.5,-386 774.5,-386"/>
<text text-anchor="start" x="782.5" y="-404" font-family="Helvetica,sans-Serif" font-size="10.00">parser.SemanticsChecker.evaluate</text>
<text text-anchor="middle" x="866" y="-393" font-family="Helvetica,sans-Serif" font-size="10.00">Expression</text>
</a>
</g>
</g>
<!-- Node4&#45;&gt;Node5 -->
<g id="edge4" class="edge"><title>Node4&#45;&gt;Node5</title>
<path fill="none" stroke="midnightblue" d="M748.267,-401C757.008,-401 765.783,-401 774.381,-401"/>
<polygon fill="midnightblue" stroke="midnightblue" points="748.034,-397.5 738.034,-401 748.034,-404.5 748.034,-397.5"/>
</g>
<!-- Node6 -->
<g id="node6" class="node"><title>Node6</title>
<g id="a_node6"><a xlink:href="../../d6/d95/classparser_1_1_parser.html#ac0cfecef1d5308df35c49519d94f85a5" target="_top" xlink:title="parser.Parser.parseCommand">
<polygon fill="white" stroke="black" points="994.5,-391.5 994.5,-410.5 1153.5,-410.5 1153.5,-391.5 994.5,-391.5"/>
<text text-anchor="middle" x="1074" y="-398.5" font-family="Helvetica,sans-Serif" font-size="10.00">parser.Parser.parseCommand</text>
</a>
</g>
</g>
<!-- Node5&#45;&gt;Node6 -->
<g id="edge5" class="edge"><title>Node5&#45;&gt;Node6</title>
<path fill="none" stroke="midnightblue" d="M967.699,-401C976.616,-401 985.557,-401 994.253,-401"/>
<polygon fill="midnightblue" stroke="midnightblue" points="967.654,-397.5 957.654,-401 967.654,-404.5 967.654,-397.5"/>
</g>
<!-- Node7 -->
<g id="node7" class="node"><title>Node7</title>
<g id="a_node7"><a xlink:href="../../d7/dde/classparser_1_1_main.html#a75a40fb31f3397122c167e54e6e233c1" target="_top" xlink:title="parser.Main.checkFile">
<polygon fill="white" stroke="black" points="1223,-771.5 1223,-790.5 1341,-790.5 1341,-771.5 1223,-771.5"/>
<text text-anchor="middle" x="1282" y="-778.5" font-family="Helvetica,sans-Serif" font-size="10.00">parser.Main.checkFile</text>
</a>
</g>
</g>
<!-- Node6&#45;&gt;Node7 -->
<g id="edge6" class="edge"><title>Node6&#45;&gt;Node7</title>
<path fill="none" stroke="midnightblue" d="M1074.85,-420.774C1075.51,-481.76 1086.32,-668.441 1190,-762 1199.11,-770.217 1210.83,-775.23 1222.81,-778.217"/>
<polygon fill="midnightblue" stroke="midnightblue" points="1078.35,-420.599 1074.82,-410.608 1071.35,-420.616 1078.35,-420.599"/>
</g>
<!-- Node9 -->
<g id="node9" class="node"><title>Node9</title>
<g id="a_node9"><a xlink:href="../../d6/d95/classparser_1_1_parser.html#afc96f83c32dde8c90fdab91dd543dddf" target="_top" xlink:title="parser.Parser.parseCommand">
<polygon fill="white" stroke="black" points="1202.5,-733.5 1202.5,-752.5 1361.5,-752.5 1361.5,-733.5 1202.5,-733.5"/>
<text text-anchor="middle" x="1282" y="-740.5" font-family="Helvetica,sans-Serif" font-size="10.00">parser.Parser.parseCommand</text>
</a>
</g>
</g>
<!-- Node6&#45;&gt;Node9 -->
<g id="edge8" class="edge"><title>Node6&#45;&gt;Node9</title>
<path fill="none" stroke="midnightblue" d="M1075.76,-420.826C1079.07,-477.396 1096.65,-640.781 1190,-723 1194.86,-727.276 1200.42,-730.705 1206.34,-733.446"/>
<polygon fill="midnightblue" stroke="midnightblue" points="1079.25,-420.531 1075.26,-410.716 1072.26,-420.877 1079.25,-420.531"/>
</g>
<!-- Node10 -->
<g id="node10" class="node"><title>Node10</title>
<g id="a_node10"><a xlink:href="../../d9/df7/classcontroller_1_1_controller.html#a89b63f37e67efbeddda1f247016c837b" target="_top" xlink:title="controller.Controller.process\lCommand">
<polygon fill="white" stroke="black" points="1207,-684 1207,-714 1357,-714 1357,-684 1207,-684"/>
<text text-anchor="start" x="1215" y="-702" font-family="Helvetica,sans-Serif" font-size="10.00">controller.Controller.process</text>
<text text-anchor="middle" x="1282" y="-691" font-family="Helvetica,sans-Serif" font-size="10.00">Command</text>
</a>
</g>
</g>
<!-- Node6&#45;&gt;Node10 -->
<g id="edge9" class="edge"><title>Node6&#45;&gt;Node10</title>
<path fill="none" stroke="midnightblue" d="M1077.43,-420.888C1084.67,-471.198 1110.73,-604.462 1190,-674 1195.05,-678.43 1200.82,-682.082 1206.94,-685.092"/>
<polygon fill="midnightblue" stroke="midnightblue" points="1080.87,-420.156 1076.07,-410.71 1073.93,-421.087 1080.87,-420.156"/>
</g>
<!-- Node13 -->
<g id="node13" class="node"><title>Node13</title>
<g id="a_node13"><a xlink:href="../../d9/df7/classcontroller_1_1_controller.html#aec5e242ff69899c974dbd6302510f70b" target="_top" xlink:title="controller.Controller.processFile">
<polygon fill="white" stroke="black" points="1199.5,-645.5 1199.5,-664.5 1364.5,-664.5 1364.5,-645.5 1199.5,-645.5"/>
<text text-anchor="middle" x="1282" y="-652.5" font-family="Helvetica,sans-Serif" font-size="10.00">controller.Controller.processFile</text>
</a>
</g>
</g>
<!-- Node6&#45;&gt;Node13 -->
<g id="edge12" class="edge"><title>Node6&#45;&gt;Node13</title>
<path fill="none" stroke="midnightblue" d="M1078.61,-420.852C1088.02,-466.61 1117.78,-579.859 1190,-636 1194.84,-639.764 1200.25,-642.829 1205.95,-645.32"/>
<polygon fill="midnightblue" stroke="midnightblue" points="1082.03,-420.125 1076.68,-410.98 1075.16,-421.465 1082.03,-420.125"/>
</g>
<!-- Node18 -->
<g id="node18" class="node"><title>Node18</title>
<g id="a_node18"><a xlink:href="../../d1/d01/classparser_1_1tests_1_1_boolean_tester.html#ab009444f79be316835e50742f06550a9" target="_top" xlink:title="parser.tests.BooleanTester.testAnd">
<polygon fill="white" stroke="black" points="1190,-607.5 1190,-626.5 1374,-626.5 1374,-607.5 1190,-607.5"/>
<text text-anchor="middle" x="1282" y="-614.5" font-family="Helvetica,sans-Serif" font-size="10.00">parser.tests.BooleanTester.testAnd</text>
</a>
</g>
</g>
<!-- Node6&#45;&gt;Node18 -->
<g id="edge18" class="edge"><title>Node6&#45;&gt;Node18</title>
<path fill="none" stroke="midnightblue" d="M1080.58,-420.444C1093.08,-460.32 1127.27,-551.43 1190,-597 1195.89,-601.278 1202.52,-604.67 1209.45,-607.356"/>
<polygon fill="midnightblue" stroke="midnightblue" points="1083.86,-419.2 1077.62,-410.636 1077.16,-421.22 1083.86,-419.2"/>
</g>
<!-- Node19 -->
<g id="node19" class="node"><title>Node19</title>
<g id="a_node19"><a xlink:href="../../d3/d64/classparser_1_1tests_1_1_math_tester.html#a1677c0f6237b5c48799087b702e713ca" target="_top" xlink:title="parser.tests.MathTester.test\lDifference">
<polygon fill="white" stroke="black" points="1207,-558 1207,-588 1357,-588 1357,-558 1207,-558"/>
<text text-anchor="start" x="1215" y="-576" font-family="Helvetica,sans-Serif" font-size="10.00">parser.tests.MathTester.test</text>
<text text-anchor="middle" x="1282" y="-565" font-family="Helvetica,sans-Serif" font-size="10.00">Difference</text>
</a>
</g>
</g>
<!-- Node6&#45;&gt;Node19 -->
<g id="edge19" class="edge"><title>Node6&#45;&gt;Node19</title>
<path fill="none" stroke="midnightblue" d="M1084.38,-419.615C1101.17,-450.994 1139.38,-514.29 1190,-548 1195.86,-551.905 1202.33,-555.204 1209.02,-557.989"/>
<polygon fill="midnightblue" stroke="midnightblue" points="1087.42,-417.875 1079.7,-410.626 1081.22,-421.111 1087.42,-417.875"/>
</g>
<!-- Node20 -->
<g id="node20" class="node"><title>Node20</title>
<g id="a_node20"><a xlink:href="../../d1/d01/classparser_1_1tests_1_1_boolean_tester.html#a99be1a3a9584ed717090f5bb310bdae0" target="_top" xlink:title="parser.tests.BooleanTester.test\lEqual">
<polygon fill="white" stroke="black" points="1199.5,-509 1199.5,-539 1364.5,-539 1364.5,-509 1199.5,-509"/>
<text text-anchor="start" x="1207.5" y="-527" font-family="Helvetica,sans-Serif" font-size="10.00">parser.tests.BooleanTester.test</text>
<text text-anchor="middle" x="1282" y="-516" font-family="Helvetica,sans-Serif" font-size="10.00">Equal</text>
</a>
</g>
</g>
<!-- Node6&#45;&gt;Node20 -->
<g id="edge20" class="edge"><title>Node6&#45;&gt;Node20</title>
<path fill="none" stroke="midnightblue" d="M1090.49,-418.226C1111.12,-440.132 1149.71,-477.668 1190,-499 1197.24,-502.833 1205.12,-506.123 1213.12,-508.935"/>
<polygon fill="midnightblue" stroke="midnightblue" points="1092.86,-415.629 1083.5,-410.662 1087.72,-420.381 1092.86,-415.629"/>
</g>
<!-- Node21 -->
<g id="node21" class="node"><title>Node21</title>
<g id="a_node21"><a xlink:href="../../d1/d01/classparser_1_1tests_1_1_boolean_tester.html#ad5101fc213b8aeaa37baf5e3b5868d9d" target="_top" xlink:title="parser.tests.BooleanTester.test\lGreaterThan">
<polygon fill="white" stroke="black" points="1199.5,-460 1199.5,-490 1364.5,-490 1364.5,-460 1199.5,-460"/>
<text text-anchor="start" x="1207.5" y="-478" font-family="Helvetica,sans-Serif" font-size="10.00">parser.tests.BooleanTester.test</text>
<text text-anchor="middle" x="1282" y="-467" font-family="Helvetica,sans-Serif" font-size="10.00">GreaterThan</text>
</a>
</g>
</g>
<!-- Node6&#45;&gt;Node21 -->
<g id="edge21" class="edge"><title>Node6&#45;&gt;Node21</title>
<path fill="none" stroke="midnightblue" d="M1104.23,-414.751C1127.22,-425.247 1160.23,-439.623 1190,-450 1200.06,-453.506 1210.87,-456.843 1221.41,-459.871"/>
<polygon fill="midnightblue" stroke="midnightblue" points="1105.58,-411.518 1095.03,-410.513 1102.65,-417.876 1105.58,-411.518"/>
</g>
<!-- Node22 -->
<g id="node22" class="node"><title>Node22</title>
<g id="a_node22"><a xlink:href="../../d1/d01/classparser_1_1tests_1_1_boolean_tester.html#a828f5f4183434799d083a68a00791dba" target="_top" xlink:title="parser.tests.BooleanTester.test\lLessThan">
<polygon fill="white" stroke="black" points="1199.5,-411 1199.5,-441 1364.5,-441 1364.5,-411 1199.5,-411"/>
<text text-anchor="start" x="1207.5" y="-429" font-family="Helvetica,sans-Serif" font-size="10.00">parser.tests.BooleanTester.test</text>
<text text-anchor="middle" x="1282" y="-418" font-family="Helvetica,sans-Serif" font-size="10.00">LessThan</text>
</a>
</g>
</g>
<!-- Node6&#45;&gt;Node22 -->
<g id="edge22" class="edge"><title>Node6&#45;&gt;Node22</title>
<path fill="none" stroke="midnightblue" d="M1163.41,-411.729C1175.33,-413.177 1187.53,-414.656 1199.33,-416.088"/>
<polygon fill="midnightblue" stroke="midnightblue" points="1163.82,-408.253 1153.47,-410.523 1162.97,-415.202 1163.82,-408.253"/>
</g>
<!-- Node23 -->
<g id="node23" class="node"><title>Node23</title>
<g id="a_node23"><a xlink:href="../../d3/d64/classparser_1_1tests_1_1_math_tester.html#a06cade99788206056814bc20735cd193" target="_top" xlink:title="parser.tests.MathTester.test\lMinus">
<polygon fill="white" stroke="black" points="1207,-362 1207,-392 1357,-392 1357,-362 1207,-362"/>
<text text-anchor="start" x="1215" y="-380" font-family="Helvetica,sans-Serif" font-size="10.00">parser.tests.MathTester.test</text>
<text text-anchor="middle" x="1282" y="-369" font-family="Helvetica,sans-Serif" font-size="10.00">Minus</text>
</a>
</g>
</g>
<!-- Node6&#45;&gt;Node23 -->
<g id="edge23" class="edge"><title>Node6&#45;&gt;Node23</title>
<path fill="none" stroke="midnightblue" d="M1164.04,-390.626C1178.27,-388.969 1192.85,-387.27 1206.69,-385.658"/>
<polygon fill="midnightblue" stroke="midnightblue" points="1163.29,-387.19 1153.76,-391.824 1164.1,-394.143 1163.29,-387.19"/>
</g>
<!-- Node24 -->
<g id="node24" class="node"><title>Node24</title>
<g id="a_node24"><a xlink:href="../../d1/d01/classparser_1_1tests_1_1_boolean_tester.html#a402bae747c40cf9030ea6e85a44b10d2" target="_top" xlink:title="parser.tests.BooleanTester.testNot">
<polygon fill="white" stroke="black" points="1191,-323.5 1191,-342.5 1373,-342.5 1373,-323.5 1191,-323.5"/>
<text text-anchor="middle" x="1282" y="-330.5" font-family="Helvetica,sans-Serif" font-size="10.00">parser.tests.BooleanTester.testNot</text>
</a>
</g>
</g>
<!-- Node6&#45;&gt;Node24 -->
<g id="edge24" class="edge"><title>Node6&#45;&gt;Node24</title>
<path fill="none" stroke="midnightblue" d="M1104.12,-387.135C1127.05,-376.64 1160.03,-362.463 1190,-353 1202.8,-348.957 1216.87,-345.433 1230.03,-342.517"/>
<polygon fill="midnightblue" stroke="midnightblue" points="1102.55,-384.005 1094.95,-391.383 1105.49,-390.357 1102.55,-384.005"/>
</g>
<!-- Node25 -->
<g id="node25" class="node"><title>Node25</title>
<g id="a_node25"><a xlink:href="../../d1/d01/classparser_1_1tests_1_1_boolean_tester.html#ac0deac7b7ba9e48e30a9ed6cff134d09" target="_top" xlink:title="parser.tests.BooleanTester.test\lNotEqual">
<polygon fill="white" stroke="black" points="1199.5,-274 1199.5,-304 1364.5,-304 1364.5,-274 1199.5,-274"/>
<text text-anchor="start" x="1207.5" y="-292" font-family="Helvetica,sans-Serif" font-size="10.00">parser.tests.BooleanTester.test</text>
<text text-anchor="middle" x="1282" y="-281" font-family="Helvetica,sans-Serif" font-size="10.00">NotEqual</text>
</a>
</g>
</g>
<!-- Node6&#45;&gt;Node25 -->
<g id="edge25" class="edge"><title>Node6&#45;&gt;Node25</title>
<path fill="none" stroke="midnightblue" d="M1092.48,-384.339C1113.86,-364.816 1151.94,-332.758 1190,-314 1197.64,-310.234 1205.93,-306.966 1214.3,-304.15"/>
<polygon fill="midnightblue" stroke="midnightblue" points="1089.83,-382.021 1084.88,-391.39 1094.59,-387.151 1089.83,-382.021"/>
</g>
<!-- Node26 -->
<g id="node26" class="node"><title>Node26</title>
<g id="a_node26"><a xlink:href="../../d1/d01/classparser_1_1tests_1_1_boolean_tester.html#a733a8bed2ef17160461077bd2e53490c" target="_top" xlink:title="parser.tests.BooleanTester.testOr">
<polygon fill="white" stroke="black" points="1194,-235.5 1194,-254.5 1370,-254.5 1370,-235.5 1194,-235.5"/>
<text text-anchor="middle" x="1282" y="-242.5" font-family="Helvetica,sans-Serif" font-size="10.00">parser.tests.BooleanTester.testOr</text>
</a>
</g>
</g>
<!-- Node6&#45;&gt;Node26 -->
<g id="edge26" class="edge"><title>Node6&#45;&gt;Node26</title>
<path fill="none" stroke="midnightblue" d="M1085.3,-382.273C1102.74,-352.457 1140.99,-294.551 1190,-265 1197.2,-260.657 1205.23,-257.253 1213.46,-254.585"/>
<polygon fill="midnightblue" stroke="midnightblue" points="1082.11,-380.805 1080.2,-391.227 1088.2,-384.27 1082.11,-380.805"/>
</g>
<!-- Node27 -->
<g id="node27" class="node"><title>Node27</title>
<g id="a_node27"><a xlink:href="../../d3/d64/classparser_1_1tests_1_1_math_tester.html#af3c9e732ab91e0cad71ea7cd66a7a0d4" target="_top" xlink:title="parser.tests.MathTester.test\lProduct">
<polygon fill="white" stroke="black" points="1207,-186 1207,-216 1357,-216 1357,-186 1207,-186"/>
<text text-anchor="start" x="1215" y="-204" font-family="Helvetica,sans-Serif" font-size="10.00">parser.tests.MathTester.test</text>
<text text-anchor="middle" x="1282" y="-193" font-family="Helvetica,sans-Serif" font-size="10.00">Product</text>
</a>
</g>
</g>
<!-- Node6&#45;&gt;Node27 -->
<g id="edge27" class="edge"><title>Node6&#45;&gt;Node27</title>
<path fill="none" stroke="midnightblue" d="M1082.17,-381.893C1096.72,-345.739 1133.27,-267.257 1190,-226 1195.3,-222.146 1201.17,-218.885 1207.29,-216.128"/>
<polygon fill="midnightblue" stroke="midnightblue" points="1078.88,-380.697 1078.5,-391.285 1085.4,-383.243 1078.88,-380.697"/>
</g>
<!-- Node28 -->
<g id="node28" class="node"><title>Node28</title>
<g id="a_node28"><a xlink:href="../../d3/d64/classparser_1_1tests_1_1_math_tester.html#a0bee886e0100c55a64fb804fa462e079" target="_top" xlink:title="parser.tests.MathTester.test\lQuotient">
<polygon fill="white" stroke="black" points="1207,-137 1207,-167 1357,-167 1357,-137 1207,-137"/>
<text text-anchor="start" x="1215" y="-155" font-family="Helvetica,sans-Serif" font-size="10.00">parser.tests.MathTester.test</text>
<text text-anchor="middle" x="1282" y="-144" font-family="Helvetica,sans-Serif" font-size="10.00">Quotient</text>
</a>
</g>
</g>
<!-- Node6&#45;&gt;Node28 -->
<g id="edge28" class="edge"><title>Node6&#45;&gt;Node28</title>
<path fill="none" stroke="midnightblue" d="M1079.42,-381.2C1090.24,-337.44 1122.27,-232.027 1190,-177 1195.09,-172.867 1200.8,-169.416 1206.83,-166.534"/>
<polygon fill="midnightblue" stroke="midnightblue" points="1075.96,-380.616 1077.07,-391.153 1082.78,-382.227 1075.96,-380.616"/>
</g>
<!-- Node29 -->
<g id="node29" class="node"><title>Node29</title>
<g id="a_node29"><a xlink:href="../../d3/d64/classparser_1_1tests_1_1_math_tester.html#a0834a1beeeb3689ab52b3523b1ec053e" target="_top" xlink:title="parser.tests.MathTester.test\lRandom">
<polygon fill="white" stroke="black" points="1207,-88 1207,-118 1357,-118 1357,-88 1207,-88"/>
<text text-anchor="start" x="1215" y="-106" font-family="Helvetica,sans-Serif" font-size="10.00">parser.tests.MathTester.test</text>
<text text-anchor="middle" x="1282" y="-95" font-family="Helvetica,sans-Serif" font-size="10.00">Random</text>
</a>
</g>
</g>
<!-- Node6&#45;&gt;Node29 -->
<g id="edge29" class="edge"><title>Node6&#45;&gt;Node29</title>
<path fill="none" stroke="midnightblue" d="M1077.43,-381.112C1084.67,-330.802 1110.73,-197.538 1190,-128 1195.05,-123.57 1200.82,-119.918 1206.94,-116.908"/>
<polygon fill="midnightblue" stroke="midnightblue" points="1073.93,-380.913 1076.07,-391.29 1080.87,-381.844 1073.93,-380.913"/>
</g>
<!-- Node30 -->
<g id="node30" class="node"><title>Node30</title>
<g id="a_node30"><a xlink:href="../../d3/d64/classparser_1_1tests_1_1_math_tester.html#aeba46a296188edda903e21c6be23bdd8" target="_top" xlink:title="parser.tests.MathTester.test\lRemainder">
<polygon fill="white" stroke="black" points="1207,-39 1207,-69 1357,-69 1357,-39 1207,-39"/>
<text text-anchor="start" x="1215" y="-57" font-family="Helvetica,sans-Serif" font-size="10.00">parser.tests.MathTester.test</text>
<text text-anchor="middle" x="1282" y="-46" font-family="Helvetica,sans-Serif" font-size="10.00">Remainder</text>
</a>
</g>
</g>
<!-- Node6&#45;&gt;Node30 -->
<g id="edge30" class="edge"><title>Node6&#45;&gt;Node30</title>
<path fill="none" stroke="midnightblue" d="M1075.98,-381.41C1079.85,-325.471 1098.8,-163.607 1190,-79 1194.92,-74.4313 1200.61,-70.6847 1206.68,-67.6142"/>
<polygon fill="midnightblue" stroke="midnightblue" points="1072.48,-381.21 1075.37,-391.403 1079.47,-381.633 1072.48,-381.21"/>
</g>
<!-- Node31 -->
<g id="node31" class="node"><title>Node31</title>
<g id="a_node31"><a xlink:href="../../d3/d64/classparser_1_1tests_1_1_math_tester.html#a0059e207747b76f3579b4218cfe7c5dc" target="_top" xlink:title="parser.tests.MathTester.testSum">
<polygon fill="white" stroke="black" points="1195.5,-0.5 1195.5,-19.5 1368.5,-19.5 1368.5,-0.5 1195.5,-0.5"/>
<text text-anchor="middle" x="1282" y="-7.5" font-family="Helvetica,sans-Serif" font-size="10.00">parser.tests.MathTester.testSum</text>
</a>
</g>
</g>
<!-- Node6&#45;&gt;Node31 -->
<g id="edge31" class="edge"><title>Node6&#45;&gt;Node31</title>
<path fill="none" stroke="midnightblue" d="M1074.69,-381.155C1074.88,-319.1 1084.36,-127.099 1190,-30 1194.64,-25.731 1199.99,-22.2985 1205.7,-19.5468"/>
<polygon fill="midnightblue" stroke="midnightblue" points="1071.2,-381.493 1074.75,-391.473 1078.2,-381.454 1071.2,-381.493"/>
</g>
<!-- Node8 -->
<g id="node8" class="node"><title>Node8</title>
<g id="a_node8"><a xlink:href="../../d7/dde/classparser_1_1_main.html#ac3abd936d94632f17feedf0cce82afff" target="_top" xlink:title="parser.Main.main">
<polygon fill="white" stroke="black" points="1427.5,-771.5 1427.5,-790.5 1526.5,-790.5 1526.5,-771.5 1427.5,-771.5"/>
<text text-anchor="middle" x="1477" y="-778.5" font-family="Helvetica,sans-Serif" font-size="10.00">parser.Main.main</text>
</a>
</g>
</g>
<!-- Node7&#45;&gt;Node8 -->
<g id="edge7" class="edge"><title>Node7&#45;&gt;Node8</title>
<path fill="none" stroke="midnightblue" d="M1351.37,-781C1376.47,-781 1404.36,-781 1427.38,-781"/>
<polygon fill="midnightblue" stroke="midnightblue" points="1351.17,-777.5 1341.17,-781 1351.17,-784.5 1351.17,-777.5"/>
</g>
<!-- Node11 -->
<g id="node11" class="node"><title>Node11</title>
<g id="a_node11"><a xlink:href="../../d9/df7/classcontroller_1_1_controller.html#a2bfb87bca460d87b2c97e0b5045a2175" target="_top" xlink:title="controller.Controller.create\lRunCommandListener">
<polygon fill="white" stroke="black" points="1580.5,-686 1580.5,-716 1723.5,-716 1723.5,-686 1580.5,-686"/>
<text text-anchor="start" x="1588.5" y="-704" font-family="Helvetica,sans-Serif" font-size="10.00">controller.Controller.create</text>
<text text-anchor="middle" x="1652" y="-693" font-family="Helvetica,sans-Serif" font-size="10.00">RunCommandListener</text>
</a>
</g>
</g>
<!-- Node10&#45;&gt;Node11 -->
<g id="edge10" class="edge"><title>Node10&#45;&gt;Node11</title>
<path fill="none" stroke="midnightblue" d="M1367.16,-699.457C1431.57,-699.807 1519.39,-700.285 1580.21,-700.615"/>
<polygon fill="midnightblue" stroke="midnightblue" points="1367.05,-695.957 1357.03,-699.402 1367.01,-702.957 1367.05,-695.957"/>
</g>
<!-- Node12 -->
<g id="node12" class="node"><title>Node12</title>
<g id="a_node12"><a xlink:href="../../d9/df7/classcontroller_1_1_controller.html#a47511ec57338c8e75e71e9314cda5271" target="_top" xlink:title="controller.Controller.Controller">
<polygon fill="white" stroke="black" points="2120.5,-667.5 2120.5,-686.5 2279.5,-686.5 2279.5,-667.5 2120.5,-667.5"/>
<text text-anchor="middle" x="2200" y="-674.5" font-family="Helvetica,sans-Serif" font-size="10.00">controller.Controller.Controller</text>
</a>
</g>
</g>
<!-- Node11&#45;&gt;Node12 -->
<g id="edge11" class="edge"><title>Node11&#45;&gt;Node12</title>
<path fill="none" stroke="midnightblue" d="M1733.67,-697.454C1837.64,-692.884 2017.25,-684.989 2120.27,-680.461"/>
<polygon fill="midnightblue" stroke="midnightblue" points="1733.38,-693.963 1723.54,-697.899 1733.69,-700.957 1733.38,-693.963"/>
</g>
<!-- Node14 -->
<g id="node14" class="node"><title>Node14</title>
<g id="a_node14"><a xlink:href="../../d9/df7/classcontroller_1_1_controller.html#a37c3009658f66dc4de0be01b75adf660" target="_top" xlink:title="controller.Controller.load\lWorkspace">
<polygon fill="white" stroke="black" points="1410.5,-638 1410.5,-668 1543.5,-668 1543.5,-638 1410.5,-638"/>
<text text-anchor="start" x="1418.5" y="-656" font-family="Helvetica,sans-Serif" font-size="10.00">controller.Controller.load</text>
<text text-anchor="middle" x="1477" y="-645" font-family="Helvetica,sans-Serif" font-size="10.00">Workspace</text>
</a>
</g>
</g>
<!-- Node13&#45;&gt;Node14 -->
<g id="edge13" class="edge"><title>Node13&#45;&gt;Node14</title>
<path fill="none" stroke="midnightblue" d="M1374.62,-654.051C1386.63,-653.926 1398.74,-653.801 1410.21,-653.682"/>
<polygon fill="midnightblue" stroke="midnightblue" points="1374.53,-650.551 1364.57,-654.155 1374.61,-657.551 1374.53,-650.551"/>
</g>
<!-- Node15 -->
<g id="node15" class="node"><title>Node15</title>
<g id="a_node15"><a xlink:href="../../d9/df7/classcontroller_1_1_controller.html#aa46804b9ca132af8504b5dafb1cadb0d" target="_top" xlink:title="controller.Controller.create\lFileCommands">
<polygon fill="white" stroke="black" points="1580.5,-637 1580.5,-667 1723.5,-667 1723.5,-637 1580.5,-637"/>
<text text-anchor="start" x="1588.5" y="-655" font-family="Helvetica,sans-Serif" font-size="10.00">controller.Controller.create</text>
<text text-anchor="middle" x="1652" y="-644" font-family="Helvetica,sans-Serif" font-size="10.00">FileCommands</text>
</a>
</g>
</g>
<!-- Node14&#45;&gt;Node15 -->
<g id="edge14" class="edge"><title>Node14&#45;&gt;Node15</title>
<path fill="none" stroke="midnightblue" d="M1554.08,-652.56C1562.83,-652.51 1571.72,-652.458 1580.39,-652.408"/>
<polygon fill="midnightblue" stroke="midnightblue" points="1553.88,-649.061 1543.9,-652.619 1553.92,-656.061 1553.88,-649.061"/>
</g>
<!-- Node16 -->
<g id="node16" class="node"><title>Node16</title>
<g id="a_node16"><a xlink:href="../../d9/df7/classcontroller_1_1_controller.html#af4c05286f1534b1fa6de523c54549288" target="_top" xlink:title="controller.Controller.create\lFileMenu">
<polygon fill="white" stroke="black" points="1760.5,-639 1760.5,-669 1903.5,-669 1903.5,-639 1760.5,-639"/>
<text text-anchor="start" x="1768.5" y="-657" font-family="Helvetica,sans-Serif" font-size="10.00">controller.Controller.create</text>
<text text-anchor="middle" x="1832" y="-646" font-family="Helvetica,sans-Serif" font-size="10.00">FileMenu</text>
</a>
</g>
</g>
<!-- Node15&#45;&gt;Node16 -->
<g id="edge15" class="edge"><title>Node15&#45;&gt;Node16</title>
<path fill="none" stroke="midnightblue" d="M1733.65,-652.906C1742.6,-653.007 1751.67,-653.109 1760.48,-653.208"/>
<polygon fill="midnightblue" stroke="midnightblue" points="1733.64,-649.406 1723.61,-652.793 1733.57,-656.406 1733.64,-649.406"/>
</g>
<!-- Node17 -->
<g id="node17" class="node"><title>Node17</title>
<g id="a_node17"><a xlink:href="../../d9/df7/classcontroller_1_1_controller.html#a2901bf43bb8e47b485558dbf00d40d6d" target="_top" xlink:title="controller.Controller.create\lJMenuBar">
<polygon fill="white" stroke="black" points="1940.5,-640 1940.5,-670 2083.5,-670 2083.5,-640 1940.5,-640"/>
<text text-anchor="start" x="1948.5" y="-658" font-family="Helvetica,sans-Serif" font-size="10.00">controller.Controller.create</text>
<text text-anchor="middle" x="2012" y="-647" font-family="Helvetica,sans-Serif" font-size="10.00">JMenuBar</text>
</a>
</g>
</g>
<!-- Node16&#45;&gt;Node17 -->
<g id="edge16" class="edge"><title>Node16&#45;&gt;Node17</title>
<path fill="none" stroke="midnightblue" d="M1913.65,-654.453C1922.6,-654.503 1931.67,-654.554 1940.48,-654.604"/>
<polygon fill="midnightblue" stroke="midnightblue" points="1913.63,-650.953 1903.61,-654.397 1913.59,-657.953 1913.63,-650.953"/>
</g>
<!-- Node17&#45;&gt;Node12 -->
<g id="edge17" class="edge"><title>Node17&#45;&gt;Node12</title>
<path fill="none" stroke="midnightblue" d="M2093.55,-664.527C2102.45,-665.58 2111.5,-666.651 2120.38,-667.701"/>
<polygon fill="midnightblue" stroke="midnightblue" points="2093.93,-661.048 2083.58,-663.349 2093.1,-667.999 2093.93,-661.048"/>
</g>
</g>
</svg>
        <g id="navigator" transform="translate(0 0)" fill="#404254">
                <rect fill="#f2f5e9" fill-opacity="0.5" stroke="#606060" stroke-width=".5" x="0" y="0" width="60" height="60"/>
                <use id="zoomplus" xlink:href="#zoomPlus" x="17" y="9" onmousedown="handleZoom(evt,'in')"/>
                <use id="zoomminus" xlink:href="#zoomMin" x="42" y="9" onmousedown="handleZoom(evt,'out')"/>
                <use id="reset" xlink:href="#resetDef" x="30" y="36" onmousedown="handleReset()"/>
                <g id="arrowUp" xlink:href="#dirArrow" transform="translate(30 24)" onmousedown="handlePan(0,-1)">
                  <use xlink:href="#rim" fill="#404040">
                        <set attributeName="fill" to="#808080" begin="arrowUp.mouseover" end="arrowUp.mouseout"/>
                  </use>
                  <path fill="none" stroke="white" stroke-width="1.5" d="M0,-3.0v7 M-2.5,-0.5L0,-3.0L2.5,-0.5"/>
                </g>
                <g id="arrowRight" xlink:href="#dirArrow" transform="rotate(90) translate(36 -43)" onmousedown="handlePan(1,0)">
                  <use xlink:href="#rim" fill="#404040">
                        <set attributeName="fill" to="#808080" begin="arrowRight.mouseover" end="arrowRight.mouseout"/>
                  </use>
                  <path fill="none" stroke="white" stroke-width="1.5" d="M0,-3.0v7 M-2.5,-0.5L0,-3.0L2.5,-0.5"/>
                </g>
                <g id="arrowDown" xlink:href="#dirArrow" transform="rotate(180) translate(-30 -48)" onmousedown="handlePan(0,1)">
                  <use xlink:href="#rim" fill="#404040">
                        <set attributeName="fill" to="#808080" begin="arrowDown.mouseover" end="arrowDown.mouseout"/>
                  </use>
                  <path fill="none" stroke="white" stroke-width="1.5" d="M0,-3.0v7 M-2.5,-0.5L0,-3.0L2.5,-0.5"/>
                </g>
                <g id="arrowLeft" xlink:href="#dirArrow" transform="rotate(270) translate(-36 17)" onmousedown="handlePan(-1,0)">
                  <use xlink:href="#rim" fill="#404040">
                        <set attributeName="fill" to="#808080" begin="arrowLeft.mouseover" end="arrowLeft.mouseout"/>
                  </use>
                  <path fill="none" stroke="white" stroke-width="1.5" d="M0,-3.0v7 M-2.5,-0.5L0,-3.0L2.5,-0.5"/>
                </g>
        </g>
        <svg viewBox="0 0 15 15" width="100%" height="30px" preserveAspectRatio="xMaxYMin meet">
         <g id="arrow_out" transform="scale(0.3 0.3)">
          <a xlink:href="classparser_1_1reflection_1_1_reflection_helper_ab29ddff567376a34fe0e284cf6833b0d_icgraph_org.svg" target="_base">
           <rect id="button" ry="5" rx="5" y="6" x="6" height="38" width="38"
                fill="#f2f5e9" fill-opacity="0.5" stroke="#606060" stroke-width="1.0"/>
           <path id="arrow"
             d="M 11.500037,31.436501 C 11.940474,20.09759 22.043105,11.32322 32.158766,21.979434 L 37.068811,17.246167 C 37.068811,17.246167 37.088388,32 37.088388,32 L 22.160133,31.978069 C 22.160133,31.978069 26.997745,27.140456 26.997745,27.140456 C 18.528582,18.264221 13.291696,25.230495 11.500037,31.436501 z"
             style="fill:#404040;"/>
          </a>
         </g>
        </svg>
</svg>
