<?xml version="1.0" encoding="UTF-8" standalone="no"?>
<!DOCTYPE svg PUBLIC "-//W3C//DTD SVG 1.1//EN"
 "http://www.w3.org/Graphics/SVG/1.1/DTD/svg11.dtd">
<!-- Generated by graphviz version 2.36.0 (20140111.2315)
 -->
<!-- Title: parser.reflection.ReflectionHelper.findConstructor Pages: 1 -->
<svg width="2108pt" height="799pt"
 viewBox="0.00 0.00 2108.00 799.00" xmlns="http://www.w3.org/2000/svg" xmlns:xlink="http://www.w3.org/1999/xlink">
<g id="graph0" class="graph" transform="scale(1 1) rotate(0) translate(4 795)">
<title>parser.reflection.ReflectionHelper.findConstructor</title>
<polygon fill="white" stroke="none" points="-4,4 -4,-795 2104,-795 2104,4 -4,4"/>
<!-- Node1 -->
<g id="node1" class="node"><title>Node1</title>
<polygon fill="#bfbfbf" stroke="black" points="0.5,-364 0.5,-394 143.5,-394 143.5,-364 0.5,-364"/>
<text text-anchor="start" x="8.5" y="-382" font-family="Helvetica,sans-Serif" font-size="10.00">parser.reflection.Reflection</text>
<text text-anchor="middle" x="72" y="-371" font-family="Helvetica,sans-Serif" font-size="10.00">Helper.findConstructor</text>
</g>
<!-- Node2 -->
<g id="node2" class="node"><title>Node2</title>
<g id="a_node2"><a xlink:href="../../d6/dcd/classparser_1_1reflection_1_1_reflection_helper.html#aff20ce969eb8ac26feda4d41f9f26411" target="_top" xlink:title="parser.reflection.Reflection\lHelper.createInstanceOf">
<polygon fill="white" stroke="black" points="180.5,-364 180.5,-394 323.5,-394 323.5,-364 180.5,-364"/>
<text text-anchor="start" x="188.5" y="-382" font-family="Helvetica,sans-Serif" font-size="10.00">parser.reflection.Reflection</text>
<text text-anchor="middle" x="252" y="-371" font-family="Helvetica,sans-Serif" font-size="10.00">Helper.createInstanceOf</text>
</a>
</g>
</g>
<!-- Node1&#45;&gt;Node2 -->
<g id="edge1" class="edge"><title>Node1&#45;&gt;Node2</title>
<path fill="none" stroke="midnightblue" d="M153.646,-379C162.599,-379 171.666,-379 180.479,-379"/>
<polygon fill="midnightblue" stroke="midnightblue" points="153.606,-375.5 143.606,-379 153.606,-382.5 153.606,-375.5"/>
</g>
<!-- Node3 -->
<g id="node3" class="node"><title>Node3</title>
<g id="a_node3"><a xlink:href="../../d7/d0d/classparser_1_1_semantics_checker.html#a9874458f603e4eac6181412441aff5af" target="_top" xlink:title="parser.SemanticsChecker.createNode">
<polygon fill="white" stroke="black" points="360,-391.5 360,-410.5 558,-410.5 558,-391.5 360,-391.5"/>
<text text-anchor="middle" x="459" y="-398.5" font-family="Helvetica,sans-Serif" font-size="10.00">parser.SemanticsChecker.createNode</text>
</a>
</g>
</g>
<!-- Node2&#45;&gt;Node3 -->
<g id="edge2" class="edge"><title>Node2&#45;&gt;Node3</title>
<path fill="none" stroke="midnightblue" d="M333.681,-387.658C345.344,-388.91 357.402,-390.204 369.213,-391.472"/>
<polygon fill="midnightblue" stroke="midnightblue" points="333.866,-384.158 323.549,-386.571 333.119,-391.118 333.866,-384.158"/>
</g>
<!-- Node31 -->
<g id="node31" class="node"><title>Node31</title>
<g id="a_node31"><a xlink:href="../../d8/d22/classparser_1_1nodes_1_1_param_list_node.html#a846716e63113f3cbdb3428466bd60515" target="_top" xlink:title="parser.nodes.ParamListNode.\lParamListNode">
<polygon fill="white" stroke="black" points="380,-342 380,-372 538,-372 538,-342 380,-342"/>
<text text-anchor="start" x="388" y="-360" font-family="Helvetica,sans-Serif" font-size="10.00">parser.nodes.ParamListNode.</text>
<text text-anchor="middle" x="459" y="-349" font-family="Helvetica,sans-Serif" font-size="10.00">ParamListNode</text>
</a>
</g>
</g>
<!-- Node2&#45;&gt;Node31 -->
<g id="edge31" class="edge"><title>Node2&#45;&gt;Node31</title>
<path fill="none" stroke="midnightblue" d="M333.918,-370.316C349.071,-368.69 364.883,-366.993 379.948,-365.376"/>
<polygon fill="midnightblue" stroke="midnightblue" points="333.119,-366.882 323.549,-371.429 333.866,-373.842 333.119,-366.882"/>
</g>
<!-- Node4 -->
<g id="node4" class="node"><title>Node4</title>
<g id="a_node4"><a xlink:href="../../d7/d0d/classparser_1_1_semantics_checker.html#a8620f3090287a61f86765ee920d53de0" target="_top" xlink:title="parser.SemanticsChecker.evaluate\lExpression">
<polygon fill="white" stroke="black" points="594.5,-386 594.5,-416 777.5,-416 777.5,-386 594.5,-386"/>
<text text-anchor="start" x="602.5" y="-404" font-family="Helvetica,sans-Serif" font-size="10.00">parser.SemanticsChecker.evaluate</text>
<text text-anchor="middle" x="686" y="-393" font-family="Helvetica,sans-Serif" font-size="10.00">Expression</text>
</a>
</g>
</g>
<!-- Node3&#45;&gt;Node4 -->
<g id="edge3" class="edge"><title>Node3&#45;&gt;Node4</title>
<path fill="none" stroke="midnightblue" d="M568.267,-401C577.008,-401 585.783,-401 594.381,-401"/>
<polygon fill="midnightblue" stroke="midnightblue" points="568.034,-397.5 558.034,-401 568.034,-404.5 568.034,-397.5"/>
</g>
<!-- Node5 -->
<g id="node5" class="node"><title>Node5</title>
<g id="a_node5"><a xlink:href="../../d6/d95/classparser_1_1_parser.html#ac0cfecef1d5308df35c49519d94f85a5" target="_top" xlink:title="parser.Parser.parseCommand">
<polygon fill="white" stroke="black" points="814.5,-391.5 814.5,-410.5 973.5,-410.5 973.5,-391.5 814.5,-391.5"/>
<text text-anchor="middle" x="894" y="-398.5" font-family="Helvetica,sans-Serif" font-size="10.00">parser.Parser.parseCommand</text>
</a>
</g>
</g>
<!-- Node4&#45;&gt;Node5 -->
<g id="edge4" class="edge"><title>Node4&#45;&gt;Node5</title>
<path fill="none" stroke="midnightblue" d="M787.699,-401C796.616,-401 805.557,-401 814.253,-401"/>
<polygon fill="midnightblue" stroke="midnightblue" points="787.654,-397.5 777.654,-401 787.654,-404.5 787.654,-397.5"/>
</g>
<!-- Node6 -->
<g id="node6" class="node"><title>Node6</title>
<g id="a_node6"><a xlink:href="../../d7/dde/classparser_1_1_main.html#a75a40fb31f3397122c167e54e6e233c1" target="_top" xlink:title="parser.Main.checkFile">
<polygon fill="white" stroke="black" points="1043,-771.5 1043,-790.5 1161,-790.5 1161,-771.5 1043,-771.5"/>
<text text-anchor="middle" x="1102" y="-778.5" font-family="Helvetica,sans-Serif" font-size="10.00">parser.Main.checkFile</text>
</a>
</g>
</g>
<!-- Node5&#45;&gt;Node6 -->
<g id="edge5" class="edge"><title>Node5&#45;&gt;Node6</title>
<path fill="none" stroke="midnightblue" d="M894.846,-420.774C895.514,-481.76 906.317,-668.441 1010,-762 1019.11,-770.217 1030.83,-775.23 1042.81,-778.217"/>
<polygon fill="midnightblue" stroke="midnightblue" points="898.345,-420.599 894.821,-410.608 891.345,-420.616 898.345,-420.599"/>
</g>
<!-- Node8 -->
<g id="node8" class="node"><title>Node8</title>
<g id="a_node8"><a xlink:href="../../d6/d95/classparser_1_1_parser.html#afc96f83c32dde8c90fdab91dd543dddf" target="_top" xlink:title="parser.Parser.parseCommand">
<polygon fill="white" stroke="black" points="1022.5,-733.5 1022.5,-752.5 1181.5,-752.5 1181.5,-733.5 1022.5,-733.5"/>
<text text-anchor="middle" x="1102" y="-740.5" font-family="Helvetica,sans-Serif" font-size="10.00">parser.Parser.parseCommand</text>
</a>
</g>
</g>
<!-- Node5&#45;&gt;Node8 -->
<g id="edge7" class="edge"><title>Node5&#45;&gt;Node8</title>
<path fill="none" stroke="midnightblue" d="M895.764,-420.826C899.069,-477.396 916.645,-640.781 1010,-723 1014.86,-727.276 1020.42,-730.705 1026.34,-733.446"/>
<polygon fill="midnightblue" stroke="midnightblue" points="899.254,-420.531 895.264,-410.716 892.262,-420.877 899.254,-420.531"/>
</g>
<!-- Node9 -->
<g id="node9" class="node"><title>Node9</title>
<g id="a_node9"><a xlink:href="../../d9/df7/classcontroller_1_1_controller.html#a89b63f37e67efbeddda1f247016c837b" target="_top" xlink:title="controller.Controller.process\lCommand">
<polygon fill="white" stroke="black" points="1027,-684 1027,-714 1177,-714 1177,-684 1027,-684"/>
<text text-anchor="start" x="1035" y="-702" font-family="Helvetica,sans-Serif" font-size="10.00">controller.Controller.process</text>
<text text-anchor="middle" x="1102" y="-691" font-family="Helvetica,sans-Serif" font-size="10.00">Command</text>
</a>
</g>
</g>
<!-- Node5&#45;&gt;Node9 -->
<g id="edge8" class="edge"><title>Node5&#45;&gt;Node9</title>
<path fill="none" stroke="midnightblue" d="M897.434,-420.888C904.67,-471.198 930.733,-604.462 1010,-674 1015.05,-678.43 1020.82,-682.082 1026.94,-685.092"/>
<polygon fill="midnightblue" stroke="midnightblue" points="900.868,-420.156 896.07,-410.71 893.93,-421.087 900.868,-420.156"/>
</g>
<!-- Node12 -->
<g id="node12" class="node"><title>Node12</title>
<g id="a_node12"><a xlink:href="../../d9/df7/classcontroller_1_1_controller.html#aec5e242ff69899c974dbd6302510f70b" target="_top" xlink:title="controller.Controller.processFile">
<polygon fill="white" stroke="black" points="1019.5,-645.5 1019.5,-664.5 1184.5,-664.5 1184.5,-645.5 1019.5,-645.5"/>
<text text-anchor="middle" x="1102" y="-652.5" font-family="Helvetica,sans-Serif" font-size="10.00">controller.Controller.processFile</text>
</a>
</g>
</g>
<!-- Node5&#45;&gt;Node12 -->
<g id="edge11" class="edge"><title>Node5&#45;&gt;Node12</title>
<path fill="none" stroke="midnightblue" d="M898.607,-420.852C908.017,-466.61 937.777,-579.859 1010,-636 1014.84,-639.764 1020.25,-642.829 1025.95,-645.32"/>
<polygon fill="midnightblue" stroke="midnightblue" points="902.031,-420.125 896.682,-410.98 895.16,-421.465 902.031,-420.125"/>
</g>
<!-- Node17 -->
<g id="node17" class="node"><title>Node17</title>
<g id="a_node17"><a xlink:href="../../d1/d01/classparser_1_1tests_1_1_boolean_tester.html#ab009444f79be316835e50742f06550a9" target="_top" xlink:title="parser.tests.BooleanTester.testAnd">
<polygon fill="white" stroke="black" points="1010,-607.5 1010,-626.5 1194,-626.5 1194,-607.5 1010,-607.5"/>
<text text-anchor="middle" x="1102" y="-614.5" font-family="Helvetica,sans-Serif" font-size="10.00">parser.tests.BooleanTester.testAnd</text>
</a>
</g>
</g>
<!-- Node5&#45;&gt;Node17 -->
<g id="edge17" class="edge"><title>Node5&#45;&gt;Node17</title>
<path fill="none" stroke="midnightblue" d="M900.58,-420.444C913.081,-460.32 947.272,-551.43 1010,-597 1015.89,-601.278 1022.52,-604.67 1029.45,-607.356"/>
<polygon fill="midnightblue" stroke="midnightblue" points="903.861,-419.2 897.624,-410.636 897.159,-421.22 903.861,-419.2"/>
</g>
<!-- Node18 -->
<g id="node18" class="node"><title>Node18</title>
<g id="a_node18"><a xlink:href="../../d3/d64/classparser_1_1tests_1_1_math_tester.html#a1677c0f6237b5c48799087b702e713ca" target="_top" xlink:title="parser.tests.MathTester.test\lDifference">
<polygon fill="white" stroke="black" points="1027,-558 1027,-588 1177,-588 1177,-558 1027,-558"/>
<text text-anchor="start" x="1035" y="-576" font-family="Helvetica,sans-Serif" font-size="10.00">parser.tests.MathTester.test</text>
<text text-anchor="middle" x="1102" y="-565" font-family="Helvetica,sans-Serif" font-size="10.00">Difference</text>
</a>
</g>
</g>
<!-- Node5&#45;&gt;Node18 -->
<g id="edge18" class="edge"><title>Node5&#45;&gt;Node18</title>
<path fill="none" stroke="midnightblue" d="M904.383,-419.615C921.171,-450.994 959.382,-514.29 1010,-548 1015.86,-551.905 1022.33,-555.204 1029.02,-557.989"/>
<polygon fill="midnightblue" stroke="midnightblue" points="907.423,-417.875 899.696,-410.626 901.216,-421.111 907.423,-417.875"/>
</g>
<!-- Node19 -->
<g id="node19" class="node"><title>Node19</title>
<g id="a_node19"><a xlink:href="../../d1/d01/classparser_1_1tests_1_1_boolean_tester.html#a99be1a3a9584ed717090f5bb310bdae0" target="_top" xlink:title="parser.tests.BooleanTester.test\lEqual">
<polygon fill="white" stroke="black" points="1019.5,-509 1019.5,-539 1184.5,-539 1184.5,-509 1019.5,-509"/>
<text text-anchor="start" x="1027.5" y="-527" font-family="Helvetica,sans-Serif" font-size="10.00">parser.tests.BooleanTester.test</text>
<text text-anchor="middle" x="1102" y="-516" font-family="Helvetica,sans-Serif" font-size="10.00">Equal</text>
</a>
</g>
</g>
<!-- Node5&#45;&gt;Node19 -->
<g id="edge19" class="edge"><title>Node5&#45;&gt;Node19</title>
<path fill="none" stroke="midnightblue" d="M910.495,-418.226C931.122,-440.132 969.709,-477.668 1010,-499 1017.24,-502.833 1025.12,-506.123 1033.12,-508.935"/>
<polygon fill="midnightblue" stroke="midnightblue" points="912.861,-415.629 903.502,-410.662 907.72,-420.381 912.861,-415.629"/>
</g>
<!-- Node20 -->
<g id="node20" class="node"><title>Node20</title>
<g id="a_node20"><a xlink:href="../../d1/d01/classparser_1_1tests_1_1_boolean_tester.html#ad5101fc213b8aeaa37baf5e3b5868d9d" target="_top" xlink:title="parser.tests.BooleanTester.test\lGreaterThan">
<polygon fill="white" stroke="black" points="1019.5,-460 1019.5,-490 1184.5,-490 1184.5,-460 1019.5,-460"/>
<text text-anchor="start" x="1027.5" y="-478" font-family="Helvetica,sans-Serif" font-size="10.00">parser.tests.BooleanTester.test</text>
<text text-anchor="middle" x="1102" y="-467" font-family="Helvetica,sans-Serif" font-size="10.00">GreaterThan</text>
</a>
</g>
</g>
<!-- Node5&#45;&gt;Node20 -->
<g id="edge20" class="edge"><title>Node5&#45;&gt;Node20</title>
<path fill="none" stroke="midnightblue" d="M924.234,-414.751C947.225,-425.247 980.235,-439.623 1010,-450 1020.06,-453.506 1030.87,-456.843 1041.41,-459.871"/>
<polygon fill="midnightblue" stroke="midnightblue" points="925.581,-411.518 915.033,-410.513 922.652,-417.876 925.581,-411.518"/>
</g>
<!-- Node21 -->
<g id="node21" class="node"><title>Node21</title>
<g id="a_node21"><a xlink:href="../../d1/d01/classparser_1_1tests_1_1_boolean_tester.html#a828f5f4183434799d083a68a00791dba" target="_top" xlink:title="parser.tests.BooleanTester.test\lLessThan">
<polygon fill="white" stroke="black" points="1019.5,-411 1019.5,-441 1184.5,-441 1184.5,-411 1019.5,-411"/>
<text text-anchor="start" x="1027.5" y="-429" font-family="Helvetica,sans-Serif" font-size="10.00">parser.tests.BooleanTester.test</text>
<text text-anchor="middle" x="1102" y="-418" font-family="Helvetica,sans-Serif" font-size="10.00">LessThan</text>
</a>
</g>
</g>
<!-- Node5&#45;&gt;Node21 -->
<g id="edge21" class="edge"><title>Node5&#45;&gt;Node21</title>
<path fill="none" stroke="midnightblue" d="M983.408,-411.729C995.335,-413.177 1007.53,-414.656 1019.33,-416.088"/>
<polygon fill="midnightblue" stroke="midnightblue" points="983.816,-408.253 973.467,-410.523 982.973,-415.202 983.816,-408.253"/>
</g>
<!-- Node22 -->
<g id="node22" class="node"><title>Node22</title>
<g id="a_node22"><a xlink:href="../../d3/d64/classparser_1_1tests_1_1_math_tester.html#a06cade99788206056814bc20735cd193" target="_top" xlink:title="parser.tests.MathTester.test\lMinus">
<polygon fill="white" stroke="black" points="1027,-362 1027,-392 1177,-392 1177,-362 1027,-362"/>
<text text-anchor="start" x="1035" y="-380" font-family="Helvetica,sans-Serif" font-size="10.00">parser.tests.MathTester.test</text>
<text text-anchor="middle" x="1102" y="-369" font-family="Helvetica,sans-Serif" font-size="10.00">Minus</text>
</a>
</g>
</g>
<!-- Node5&#45;&gt;Node22 -->
<g id="edge22" class="edge"><title>Node5&#45;&gt;Node22</title>
<path fill="none" stroke="midnightblue" d="M984.04,-390.626C998.265,-388.969 1012.85,-387.27 1026.69,-385.658"/>
<polygon fill="midnightblue" stroke="midnightblue" points="983.289,-387.19 973.762,-391.824 984.099,-394.143 983.289,-387.19"/>
</g>
<!-- Node23 -->
<g id="node23" class="node"><title>Node23</title>
<g id="a_node23"><a xlink:href="../../d1/d01/classparser_1_1tests_1_1_boolean_tester.html#a402bae747c40cf9030ea6e85a44b10d2" target="_top" xlink:title="parser.tests.BooleanTester.testNot">
<polygon fill="white" stroke="black" points="1011,-323.5 1011,-342.5 1193,-342.5 1193,-323.5 1011,-323.5"/>
<text text-anchor="middle" x="1102" y="-330.5" font-family="Helvetica,sans-Serif" font-size="10.00">parser.tests.BooleanTester.testNot</text>
</a>
</g>
</g>
<!-- Node5&#45;&gt;Node23 -->
<g id="edge23" class="edge"><title>Node5&#45;&gt;Node23</title>
<path fill="none" stroke="midnightblue" d="M924.122,-387.135C947.051,-376.64 980.034,-362.463 1010,-353 1022.8,-348.957 1036.87,-345.433 1050.03,-342.517"/>
<polygon fill="midnightblue" stroke="midnightblue" points="922.552,-384.005 914.949,-391.383 925.494,-390.357 922.552,-384.005"/>
</g>
<!-- Node24 -->
<g id="node24" class="node"><title>Node24</title>
<g id="a_node24"><a xlink:href="../../d1/d01/classparser_1_1tests_1_1_boolean_tester.html#ac0deac7b7ba9e48e30a9ed6cff134d09" target="_top" xlink:title="parser.tests.BooleanTester.test\lNotEqual">
<polygon fill="white" stroke="black" points="1019.5,-274 1019.5,-304 1184.5,-304 1184.5,-274 1019.5,-274"/>
<text text-anchor="start" x="1027.5" y="-292" font-family="Helvetica,sans-Serif" font-size="10.00">parser.tests.BooleanTester.test</text>
<text text-anchor="middle" x="1102" y="-281" font-family="Helvetica,sans-Serif" font-size="10.00">NotEqual</text>
</a>
</g>
</g>
<!-- Node5&#45;&gt;Node24 -->
<g id="edge24" class="edge"><title>Node5&#45;&gt;Node24</title>
<path fill="none" stroke="midnightblue" d="M912.479,-384.339C933.863,-364.816 971.937,-332.758 1010,-314 1017.64,-310.234 1025.93,-306.966 1034.3,-304.15"/>
<polygon fill="midnightblue" stroke="midnightblue" points="909.831,-382.021 904.885,-391.39 914.594,-387.151 909.831,-382.021"/>
</g>
<!-- Node25 -->
<g id="node25" class="node"><title>Node25</title>
<g id="a_node25"><a xlink:href="../../d1/d01/classparser_1_1tests_1_1_boolean_tester.html#a733a8bed2ef17160461077bd2e53490c" target="_top" xlink:title="parser.tests.BooleanTester.testOr">
<polygon fill="white" stroke="black" points="1014,-235.5 1014,-254.5 1190,-254.5 1190,-235.5 1014,-235.5"/>
<text text-anchor="middle" x="1102" y="-242.5" font-family="Helvetica,sans-Serif" font-size="10.00">parser.tests.BooleanTester.testOr</text>
</a>
</g>
</g>
<!-- Node5&#45;&gt;Node25 -->
<g id="edge25" class="edge"><title>Node5&#45;&gt;Node25</title>
<path fill="none" stroke="midnightblue" d="M905.304,-382.273C922.738,-352.457 960.992,-294.551 1010,-265 1017.2,-260.657 1025.23,-257.253 1033.46,-254.585"/>
<polygon fill="midnightblue" stroke="midnightblue" points="902.113,-380.805 900.205,-391.227 908.195,-384.27 902.113,-380.805"/>
</g>
<!-- Node26 -->
<g id="node26" class="node"><title>Node26</title>
<g id="a_node26"><a xlink:href="../../d3/d64/classparser_1_1tests_1_1_math_tester.html#af3c9e732ab91e0cad71ea7cd66a7a0d4" target="_top" xlink:title="parser.tests.MathTester.test\lProduct">
<polygon fill="white" stroke="black" points="1027,-186 1027,-216 1177,-216 1177,-186 1027,-186"/>
<text text-anchor="start" x="1035" y="-204" font-family="Helvetica,sans-Serif" font-size="10.00">parser.tests.MathTester.test</text>
<text text-anchor="middle" x="1102" y="-193" font-family="Helvetica,sans-Serif" font-size="10.00">Product</text>
</a>
</g>
</g>
<!-- Node5&#45;&gt;Node26 -->
<g id="edge26" class="edge"><title>Node5&#45;&gt;Node26</title>
<path fill="none" stroke="midnightblue" d="M902.167,-381.893C916.725,-345.739 953.268,-267.257 1010,-226 1015.3,-222.146 1021.17,-218.885 1027.29,-216.128"/>
<polygon fill="midnightblue" stroke="midnightblue" points="898.876,-380.697 898.5,-391.285 905.397,-383.243 898.876,-380.697"/>
</g>
<!-- Node27 -->
<g id="node27" class="node"><title>Node27</title>
<g id="a_node27"><a xlink:href="../../d3/d64/classparser_1_1tests_1_1_math_tester.html#a0bee886e0100c55a64fb804fa462e079" target="_top" xlink:title="parser.tests.MathTester.test\lQuotient">
<polygon fill="white" stroke="black" points="1027,-137 1027,-167 1177,-167 1177,-137 1027,-137"/>
<text text-anchor="start" x="1035" y="-155" font-family="Helvetica,sans-Serif" font-size="10.00">parser.tests.MathTester.test</text>
<text text-anchor="middle" x="1102" y="-144" font-family="Helvetica,sans-Serif" font-size="10.00">Quotient</text>
</a>
</g>
</g>
<!-- Node5&#45;&gt;Node27 -->
<g id="edge27" class="edge"><title>Node5&#45;&gt;Node27</title>
<path fill="none" stroke="midnightblue" d="M899.421,-381.2C910.244,-337.44 942.272,-232.027 1010,-177 1015.09,-172.867 1020.8,-169.416 1026.83,-166.534"/>
<polygon fill="midnightblue" stroke="midnightblue" points="895.963,-380.616 897.068,-391.153 902.775,-382.227 895.963,-380.616"/>
</g>
<!-- Node28 -->
<g id="node28" class="node"><title>Node28</title>
<g id="a_node28"><a xlink:href="../../d3/d64/classparser_1_1tests_1_1_math_tester.html#a0834a1beeeb3689ab52b3523b1ec053e" target="_top" xlink:title="parser.tests.MathTester.test\lRandom">
<polygon fill="white" stroke="black" points="1027,-88 1027,-118 1177,-118 1177,-88 1027,-88"/>
<text text-anchor="start" x="1035" y="-106" font-family="Helvetica,sans-Serif" font-size="10.00">parser.tests.MathTester.test</text>
<text text-anchor="middle" x="1102" y="-95" font-family="Helvetica,sans-Serif" font-size="10.00">Random</text>
</a>
</g>
</g>
<!-- Node5&#45;&gt;Node28 -->
<g id="edge28" class="edge"><title>Node5&#45;&gt;Node28</title>
<path fill="none" stroke="midnightblue" d="M897.434,-381.112C904.67,-330.802 930.733,-197.538 1010,-128 1015.05,-123.57 1020.82,-119.918 1026.94,-116.908"/>
<polygon fill="midnightblue" stroke="midnightblue" points="893.93,-380.913 896.07,-391.29 900.868,-381.844 893.93,-380.913"/>
</g>
<!-- Node29 -->
<g id="node29" class="node"><title>Node29</title>
<g id="a_node29"><a xlink:href="../../d3/d64/classparser_1_1tests_1_1_math_tester.html#aeba46a296188edda903e21c6be23bdd8" target="_top" xlink:title="parser.tests.MathTester.test\lRemainder">
<polygon fill="white" stroke="black" points="1027,-39 1027,-69 1177,-69 1177,-39 1027,-39"/>
<text text-anchor="start" x="1035" y="-57" font-family="Helvetica,sans-Serif" font-size="10.00">parser.tests.MathTester.test</text>
<text text-anchor="middle" x="1102" y="-46" font-family="Helvetica,sans-Serif" font-size="10.00">Remainder</text>
</a>
</g>
</g>
<!-- Node5&#45;&gt;Node29 -->
<g id="edge29" class="edge"><title>Node5&#45;&gt;Node29</title>
<path fill="none" stroke="midnightblue" d="M895.977,-381.41C899.852,-325.471 918.805,-163.607 1010,-79 1014.92,-74.4313 1020.61,-70.6847 1026.68,-67.6142"/>
<polygon fill="midnightblue" stroke="midnightblue" points="892.483,-381.21 895.372,-391.403 899.47,-381.633 892.483,-381.21"/>
</g>
<!-- Node30 -->
<g id="node30" class="node"><title>Node30</title>
<g id="a_node30"><a xlink:href="../../d3/d64/classparser_1_1tests_1_1_math_tester.html#a0059e207747b76f3579b4218cfe7c5dc" target="_top" xlink:title="parser.tests.MathTester.testSum">
<polygon fill="white" stroke="black" points="1015.5,-0.5 1015.5,-19.5 1188.5,-19.5 1188.5,-0.5 1015.5,-0.5"/>
<text text-anchor="middle" x="1102" y="-7.5" font-family="Helvetica,sans-Serif" font-size="10.00">parser.tests.MathTester.testSum</text>
</a>
</g>
</g>
<!-- Node5&#45;&gt;Node30 -->
<g id="edge30" class="edge"><title>Node5&#45;&gt;Node30</title>
<path fill="none" stroke="midnightblue" d="M894.693,-381.155C894.882,-319.1 904.356,-127.099 1010,-30 1014.64,-25.731 1019.99,-22.2985 1025.7,-19.5468"/>
<polygon fill="midnightblue" stroke="midnightblue" points="891.195,-381.493 894.75,-391.473 898.195,-381.454 891.195,-381.493"/>
</g>
<!-- Node7 -->
<g id="node7" class="node"><title>Node7</title>
<g id="a_node7"><a xlink:href="../../d7/dde/classparser_1_1_main.html#ac3abd936d94632f17feedf0cce82afff" target="_top" xlink:title="parser.Main.main">
<polygon fill="white" stroke="black" points="1247.5,-771.5 1247.5,-790.5 1346.5,-790.5 1346.5,-771.5 1247.5,-771.5"/>
<text text-anchor="middle" x="1297" y="-778.5" font-family="Helvetica,sans-Serif" font-size="10.00">parser.Main.main</text>
</a>
</g>
</g>
<!-- Node6&#45;&gt;Node7 -->
<g id="edge6" class="edge"><title>Node6&#45;&gt;Node7</title>
<path fill="none" stroke="midnightblue" d="M1171.37,-781C1196.47,-781 1224.36,-781 1247.38,-781"/>
<polygon fill="midnightblue" stroke="midnightblue" points="1171.17,-777.5 1161.17,-781 1171.17,-784.5 1171.17,-777.5"/>
</g>
<!-- Node10 -->
<g id="node10" class="node"><title>Node10</title>
<g id="a_node10"><a xlink:href="../../d9/df7/classcontroller_1_1_controller.html#a2bfb87bca460d87b2c97e0b5045a2175" target="_top" xlink:title="controller.Controller.create\lRunCommandListener">
<polygon fill="white" stroke="black" points="1400.5,-686 1400.5,-716 1543.5,-716 1543.5,-686 1400.5,-686"/>
<text text-anchor="start" x="1408.5" y="-704" font-family="Helvetica,sans-Serif" font-size="10.00">controller.Controller.create</text>
<text text-anchor="middle" x="1472" y="-693" font-family="Helvetica,sans-Serif" font-size="10.00">RunCommandListener</text>
</a>
</g>
</g>
<!-- Node9&#45;&gt;Node10 -->
<g id="edge9" class="edge"><title>Node9&#45;&gt;Node10</title>
<path fill="none" stroke="midnightblue" d="M1187.16,-699.457C1251.57,-699.807 1339.39,-700.285 1400.21,-700.615"/>
<polygon fill="midnightblue" stroke="midnightblue" points="1187.05,-695.957 1177.03,-699.402 1187.01,-702.957 1187.05,-695.957"/>
</g>
<!-- Node11 -->
<g id="node11" class="node"><title>Node11</title>
<g id="a_node11"><a xlink:href="../../d9/df7/classcontroller_1_1_controller.html#a47511ec57338c8e75e71e9314cda5271" target="_top" xlink:title="controller.Controller.Controller">
<polygon fill="white" stroke="black" points="1940.5,-667.5 1940.5,-686.5 2099.5,-686.5 2099.5,-667.5 1940.5,-667.5"/>
<text text-anchor="middle" x="2020" y="-674.5" font-family="Helvetica,sans-Serif" font-size="10.00">controller.Controller.Controller</text>
</a>
</g>
</g>
<!-- Node10&#45;&gt;Node11 -->
<g id="edge10" class="edge"><title>Node10&#45;&gt;Node11</title>
<path fill="none" stroke="midnightblue" d="M1553.67,-697.454C1657.64,-692.884 1837.25,-684.989 1940.27,-680.461"/>
<polygon fill="midnightblue" stroke="midnightblue" points="1553.38,-693.963 1543.54,-697.899 1553.69,-700.957 1553.38,-693.963"/>
</g>
<!-- Node13 -->
<g id="node13" class="node"><title>Node13</title>
<g id="a_node13"><a xlink:href="../../d9/df7/classcontroller_1_1_controller.html#a37c3009658f66dc4de0be01b75adf660" target="_top" xlink:title="controller.Controller.load\lWorkspace">
<polygon fill="white" stroke="black" points="1230.5,-638 1230.5,-668 1363.5,-668 1363.5,-638 1230.5,-638"/>
<text text-anchor="start" x="1238.5" y="-656" font-family="Helvetica,sans-Serif" font-size="10.00">controller.Controller.load</text>
<text text-anchor="middle" x="1297" y="-645" font-family="Helvetica,sans-Serif" font-size="10.00">Workspace</text>
</a>
</g>
</g>
<!-- Node12&#45;&gt;Node13 -->
<g id="edge12" class="edge"><title>Node12&#45;&gt;Node13</title>
<path fill="none" stroke="midnightblue" d="M1194.62,-654.051C1206.63,-653.926 1218.74,-653.801 1230.21,-653.682"/>
<polygon fill="midnightblue" stroke="midnightblue" points="1194.53,-650.551 1184.57,-654.155 1194.61,-657.551 1194.53,-650.551"/>
</g>
<!-- Node14 -->
<g id="node14" class="node"><title>Node14</title>
<g id="a_node14"><a xlink:href="../../d9/df7/classcontroller_1_1_controller.html#aa46804b9ca132af8504b5dafb1cadb0d" target="_top" xlink:title="controller.Controller.create\lFileCommands">
<polygon fill="white" stroke="black" points="1400.5,-637 1400.5,-667 1543.5,-667 1543.5,-637 1400.5,-637"/>
<text text-anchor="start" x="1408.5" y="-655" font-family="Helvetica,sans-Serif" font-size="10.00">controller.Controller.create</text>
<text text-anchor="middle" x="1472" y="-644" font-family="Helvetica,sans-Serif" font-size="10.00">FileCommands</text>
</a>
</g>
</g>
<!-- Node13&#45;&gt;Node14 -->
<g id="edge13" class="edge"><title>Node13&#45;&gt;Node14</title>
<path fill="none" stroke="midnightblue" d="M1374.08,-652.56C1382.83,-652.51 1391.72,-652.458 1400.39,-652.408"/>
<polygon fill="midnightblue" stroke="midnightblue" points="1373.88,-649.061 1363.9,-652.619 1373.92,-656.061 1373.88,-649.061"/>
</g>
<!-- Node15 -->
<g id="node15" class="node"><title>Node15</title>
<g id="a_node15"><a xlink:href="../../d9/df7/classcontroller_1_1_controller.html#af4c05286f1534b1fa6de523c54549288" target="_top" xlink:title="controller.Controller.create\lFileMenu">
<polygon fill="white" stroke="black" points="1580.5,-639 1580.5,-669 1723.5,-669 1723.5,-639 1580.5,-639"/>
<text text-anchor="start" x="1588.5" y="-657" font-family="Helvetica,sans-Serif" font-size="10.00">controller.Controller.create</text>
<text text-anchor="middle" x="1652" y="-646" font-family="Helvetica,sans-Serif" font-size="10.00">FileMenu</text>
</a>
</g>
</g>
<!-- Node14&#45;&gt;Node15 -->
<g id="edge14" class="edge"><title>Node14&#45;&gt;Node15</title>
<path fill="none" stroke="midnightblue" d="M1553.65,-652.906C1562.6,-653.007 1571.67,-653.109 1580.48,-653.208"/>
<polygon fill="midnightblue" stroke="midnightblue" points="1553.64,-649.406 1543.61,-652.793 1553.57,-656.406 1553.64,-649.406"/>
</g>
<!-- Node16 -->
<g id="node16" class="node"><title>Node16</title>
<g id="a_node16"><a xlink:href="../../d9/df7/classcontroller_1_1_controller.html#a2901bf43bb8e47b485558dbf00d40d6d" target="_top" xlink:title="controller.Controller.create\lJMenuBar">
<polygon fill="white" stroke="black" points="1760.5,-640 1760.5,-670 1903.5,-670 1903.5,-640 1760.5,-640"/>
<text text-anchor="start" x="1768.5" y="-658" font-family="Helvetica,sans-Serif" font-size="10.00">controller.Controller.create</text>
<text text-anchor="middle" x="1832" y="-647" font-family="Helvetica,sans-Serif" font-size="10.00">JMenuBar</text>
</a>
</g>
</g>
<!-- Node15&#45;&gt;Node16 -->
<g id="edge15" class="edge"><title>Node15&#45;&gt;Node16</title>
<path fill="none" stroke="midnightblue" d="M1733.65,-654.453C1742.6,-654.503 1751.67,-654.554 1760.48,-654.604"/>
<polygon fill="midnightblue" stroke="midnightblue" points="1733.63,-650.953 1723.61,-654.397 1733.59,-657.953 1733.63,-650.953"/>
</g>
<!-- Node16&#45;&gt;Node11 -->
<g id="edge16" class="edge"><title>Node16&#45;&gt;Node11</title>
<path fill="none" stroke="midnightblue" d="M1913.55,-664.527C1922.45,-665.58 1931.5,-666.651 1940.38,-667.701"/>
<polygon fill="midnightblue" stroke="midnightblue" points="1913.93,-661.048 1903.58,-663.349 1913.1,-667.999 1913.93,-661.048"/>
</g>
</g>
</svg>
