<?xml version="1.0" encoding="UTF-8" standalone="no"?>
<!DOCTYPE svg PUBLIC "-//W3C//DTD SVG 1.1//EN"
 "http://www.w3.org/Graphics/SVG/1.1/DTD/svg11.dtd">
<!-- Generated by graphviz version 2.36.0 (20140111.2315)
 -->
<!-- Title: parser.reflection.ReflectionHelper.findMethod Pages: 1 -->
<svg width="346pt" height="77pt"
 viewBox="0.00 0.00 346.00 77.00" xmlns="http://www.w3.org/2000/svg" xmlns:xlink="http://www.w3.org/1999/xlink">
<g id="graph0" class="graph" transform="scale(1 1) rotate(0) translate(4 73)">
<title>parser.reflection.ReflectionHelper.findMethod</title>
<polygon fill="white" stroke="none" points="-4,4 -4,-73 342,-73 342,4 -4,4"/>
<!-- Node1 -->
<g id="node1" class="node"><title>Node1</title>
<polygon fill="#bfbfbf" stroke="black" points="0.5,-22 0.5,-52 143.5,-52 143.5,-22 0.5,-22"/>
<text text-anchor="start" x="8.5" y="-40" font-family="Helvetica,sans-Serif" font-size="10.00">parser.reflection.Reflection</text>
<text text-anchor="middle" x="72" y="-29" font-family="Helvetica,sans-Serif" font-size="10.00">Helper.findMethod</text>
</g>
<!-- Node2 -->
<g id="node2" class="node"><title>Node2</title>
<g id="a_node2"><a xlink:href="../../d8/dff/classmodel_1_1_turtle_manager.html#aaba8ff7fe556efe6e986cd43e5315608" target="_top" xlink:title="model.TurtleManager.execute">
<polygon fill="white" stroke="black" points="180,-49.5 180,-68.5 338,-68.5 338,-49.5 180,-49.5"/>
<text text-anchor="middle" x="259" y="-56.5" font-family="Helvetica,sans-Serif" font-size="10.00">model.TurtleManager.execute</text>
</a>
</g>
</g>
<!-- Node1&#45;&gt;Node2 -->
<g id="edge1" class="edge"><title>Node1&#45;&gt;Node2</title>
<path fill="none" stroke="midnightblue" d="M153.817,-46.6107C162.478,-47.6406 171.278,-48.6871 179.906,-49.7131"/>
<polygon fill="midnightblue" stroke="midnightblue" points="154.076,-43.1169 143.732,-45.4114 153.249,-50.0679 154.076,-43.1169"/>
</g>
<!-- Node3 -->
<g id="node3" class="node"><title>Node3</title>
<g id="a_node3"><a xlink:href="../../d6/dcd/classparser_1_1reflection_1_1_reflection_helper.html#a1aee55bd8391dfce61d24c13acb08343" target="_top" xlink:title="parser.reflection.Reflection\lHelper.findMethod">
<polygon fill="white" stroke="black" points="187.5,-0 187.5,-30 330.5,-30 330.5,-0 187.5,-0"/>
<text text-anchor="start" x="195.5" y="-18" font-family="Helvetica,sans-Serif" font-size="10.00">parser.reflection.Reflection</text>
<text text-anchor="middle" x="259" y="-7" font-family="Helvetica,sans-Serif" font-size="10.00">Helper.findMethod</text>
</a>
</g>
</g>
<!-- Node1&#45;&gt;Node3 -->
<g id="edge2" class="edge"><title>Node1&#45;&gt;Node3</title>
<path fill="none" stroke="midnightblue" d="M153.876,-27.3824C165.011,-26.0582 176.374,-24.7069 187.307,-23.4068"/>
<polygon fill="midnightblue" stroke="midnightblue" points="153.249,-23.9321 143.732,-28.5886 154.076,-30.8831 153.249,-23.9321"/>
</g>
</g>
</svg>
