<?xml version="1.0" encoding="UTF-8" standalone="no"?>
<!DOCTYPE svg PUBLIC "-//W3C//DTD SVG 1.1//EN"
 "http://www.w3.org/Graphics/SVG/1.1/DTD/svg11.dtd">
<!-- Generated by graphviz version 2.36.0 (20140111.2315)
 -->
<!-- Title: view.windows.SettingsWindow Pages: 1 -->
<svg width="361pt" height="152pt"
 viewBox="0.00 0.00 361.00 152.00" xmlns="http://www.w3.org/2000/svg" xmlns:xlink="http://www.w3.org/1999/xlink">
<g id="graph0" class="graph" transform="scale(1 1) rotate(0) translate(4 148)">
<title>view.windows.SettingsWindow</title>
<polygon fill="white" stroke="none" points="-4,4 -4,-148 357,-148 357,4 -4,4"/>
<!-- Node1 -->
<g id="node1" class="node"><title>Node1</title>
<polygon fill="#bfbfbf" stroke="black" points="96,-68.5 96,-87.5 252,-87.5 252,-68.5 96,-68.5"/>
<text text-anchor="middle" x="174" y="-75.5" font-family="Helvetica,sans-Serif" font-size="10.00">view.windows.SettingsWindow</text>
</g>
<!-- Node3 -->
<g id="node3" class="node"><title>Node3</title>
<g id="a_node3"><a xlink:href="../../d5/d1a/classview_1_1windows_1_1_graphics_settings_window.html" target="_top" xlink:title="view.windows.GraphicsSettings\lWindow">
<polygon fill="white" stroke="black" points="-0.5,-1 -0.5,-31 162.5,-31 162.5,-1 -0.5,-1"/>
<text text-anchor="start" x="7.5" y="-19" font-family="Helvetica,sans-Serif" font-size="10.00">view.windows.GraphicsSettings</text>
<text text-anchor="middle" x="81" y="-8" font-family="Helvetica,sans-Serif" font-size="10.00">Window</text>
</a>
</g>
</g>
<!-- Node1&#45;&gt;Node3 -->
<g id="edge2" class="edge"><title>Node1&#45;&gt;Node3</title>
<path fill="none" stroke="midnightblue" d="M152.131,-62.8908C137.297,-53.3206 117.762,-40.7176 102.918,-31.1408"/>
<polygon fill="midnightblue" stroke="midnightblue" points="150.375,-65.9232 160.675,-68.4035 154.17,-60.0411 150.375,-65.9232"/>
</g>
<!-- Node4 -->
<g id="node4" class="node"><title>Node4</title>
<g id="a_node4"><a xlink:href="../../d1/dcf/classview_1_1windows_1_1_workspace_settings_window.html" target="_top" xlink:title="view.windows.WorkspaceSettings\lWindow">
<polygon fill="white" stroke="black" points="181,-1 181,-31 353,-31 353,-1 181,-1"/>
<text text-anchor="start" x="189" y="-19" font-family="Helvetica,sans-Serif" font-size="10.00">view.windows.WorkspaceSettings</text>
<text text-anchor="middle" x="267" y="-8" font-family="Helvetica,sans-Serif" font-size="10.00">Window</text>
</a>
</g>
</g>
<!-- Node1&#45;&gt;Node4 -->
<g id="edge3" class="edge"><title>Node1&#45;&gt;Node4</title>
<path fill="none" stroke="midnightblue" d="M195.869,-62.8908C210.703,-53.3206 230.238,-40.7176 245.082,-31.1408"/>
<polygon fill="midnightblue" stroke="midnightblue" points="193.83,-60.0411 187.325,-68.4035 197.625,-65.9232 193.83,-60.0411"/>
</g>
<!-- Node2 -->
<g id="node2" class="node"><title>Node2</title>
<polygon fill="white" stroke="#bfbfbf" points="149.5,-124.5 149.5,-143.5 198.5,-143.5 198.5,-124.5 149.5,-124.5"/>
<text text-anchor="middle" x="174" y="-131.5" font-family="Helvetica,sans-Serif" font-size="10.00">JFrame</text>
</g>
<!-- Node2&#45;&gt;Node1 -->
<g id="edge1" class="edge"><title>Node2&#45;&gt;Node1</title>
<path fill="none" stroke="midnightblue" d="M174,-113.805C174,-104.91 174,-94.7798 174,-87.7511"/>
<polygon fill="midnightblue" stroke="midnightblue" points="170.5,-114.083 174,-124.083 177.5,-114.083 170.5,-114.083"/>
</g>
</g>
</svg>
