<?xml version="1.0" encoding="UTF-8" standalone="no"?>
<!DOCTYPE svg PUBLIC "-//W3C//DTD SVG 1.1//EN"
 "http://www.w3.org/Graphics/SVG/1.1/DTD/svg11.dtd">
<!-- Generated by graphviz version 2.36.0 (20140111.2315)
 -->
<!-- Title: parser.commands.other.To Pages: 1 -->
<svg width="164pt" height="252pt"
 viewBox="0.00 0.00 164.00 252.00" xmlns="http://www.w3.org/2000/svg" xmlns:xlink="http://www.w3.org/1999/xlink">
<g id="graph0" class="graph" transform="scale(1 1) rotate(0) translate(4 248)">
<title>parser.commands.other.To</title>
<polygon fill="white" stroke="none" points="-4,4 -4,-248 160,-248 160,4 -4,4"/>
<!-- Node1 -->
<g id="node1" class="node"><title>Node1</title>
<polygon fill="#bfbfbf" stroke="black" points="6,-0.5 6,-19.5 150,-19.5 150,-0.5 6,-0.5"/>
<text text-anchor="middle" x="78" y="-7.5" font-family="Helvetica,sans-Serif" font-size="10.00">parser.commands.other.To</text>
</g>
<!-- Node2 -->
<g id="node2" class="node"><title>Node2</title>
<g id="a_node2"><a xlink:href="../../d5/dba/classparser_1_1nodes_1_1_ternary_node.html" target="_top" xlink:title="parser.nodes.TernaryNode">
<polygon fill="white" stroke="black" points="7,-56.5 7,-75.5 149,-75.5 149,-56.5 7,-56.5"/>
<text text-anchor="middle" x="78" y="-63.5" font-family="Helvetica,sans-Serif" font-size="10.00">parser.nodes.TernaryNode</text>
</a>
</g>
</g>
<!-- Node2&#45;&gt;Node1 -->
<g id="edge1" class="edge"><title>Node2&#45;&gt;Node1</title>
<path fill="none" stroke="midnightblue" d="M78,-45.8045C78,-36.9102 78,-26.7798 78,-19.7511"/>
<polygon fill="midnightblue" stroke="midnightblue" points="74.5001,-46.083 78,-56.083 81.5001,-46.083 74.5001,-46.083"/>
</g>
<!-- Node3 -->
<g id="node3" class="node"><title>Node3</title>
<g id="a_node3"><a xlink:href="../../db/d11/classparser_1_1nodes_1_1_binary_node.html" target="_top" xlink:title="parser.nodes.BinaryNode">
<polygon fill="white" stroke="black" points="9.5,-112.5 9.5,-131.5 146.5,-131.5 146.5,-112.5 9.5,-112.5"/>
<text text-anchor="middle" x="78" y="-119.5" font-family="Helvetica,sans-Serif" font-size="10.00">parser.nodes.BinaryNode</text>
</a>
</g>
</g>
<!-- Node3&#45;&gt;Node2 -->
<g id="edge2" class="edge"><title>Node3&#45;&gt;Node2</title>
<path fill="none" stroke="midnightblue" d="M78,-101.805C78,-92.9102 78,-82.7798 78,-75.7511"/>
<polygon fill="midnightblue" stroke="midnightblue" points="74.5001,-102.083 78,-112.083 81.5001,-102.083 74.5001,-102.083"/>
</g>
<!-- Node4 -->
<g id="node4" class="node"><title>Node4</title>
<g id="a_node4"><a xlink:href="../../d7/d93/classparser_1_1nodes_1_1_parameter_node.html" target="_top" xlink:title="parser.nodes.ParameterNode">
<polygon fill="white" stroke="black" points="-1,-168.5 -1,-187.5 157,-187.5 157,-168.5 -1,-168.5"/>
<text text-anchor="middle" x="78" y="-175.5" font-family="Helvetica,sans-Serif" font-size="10.00">parser.nodes.ParameterNode</text>
</a>
</g>
</g>
<!-- Node4&#45;&gt;Node3 -->
<g id="edge3" class="edge"><title>Node4&#45;&gt;Node3</title>
<path fill="none" stroke="midnightblue" d="M78,-157.805C78,-148.91 78,-138.78 78,-131.751"/>
<polygon fill="midnightblue" stroke="midnightblue" points="74.5001,-158.083 78,-168.083 81.5001,-158.083 74.5001,-158.083"/>
</g>
<!-- Node5 -->
<g id="node5" class="node"><title>Node5</title>
<g id="a_node5"><a xlink:href="../../da/d96/classparser_1_1nodes_1_1_syntax_node.html" target="_top" xlink:title="parser.nodes.SyntaxNode">
<polygon fill="white" stroke="black" points="8,-224.5 8,-243.5 148,-243.5 148,-224.5 8,-224.5"/>
<text text-anchor="middle" x="78" y="-231.5" font-family="Helvetica,sans-Serif" font-size="10.00">parser.nodes.SyntaxNode</text>
</a>
</g>
</g>
<!-- Node5&#45;&gt;Node4 -->
<g id="edge4" class="edge"><title>Node5&#45;&gt;Node4</title>
<path fill="none" stroke="midnightblue" d="M78,-213.805C78,-204.91 78,-194.78 78,-187.751"/>
<polygon fill="midnightblue" stroke="midnightblue" points="74.5001,-214.083 78,-224.083 81.5001,-214.083 74.5001,-214.083"/>
</g>
</g>
</svg>
