<?xml version="1.0" encoding="UTF-8" standalone="no"?>
<!DOCTYPE svg PUBLIC "-//W3C//DTD SVG 1.1//EN"
 "http://www.w3.org/Graphics/SVG/1.1/DTD/svg11.dtd">
<!-- Generated by graphviz version 2.36.0 (20140111.2315)
 -->
<!-- Title: view.windows.LogoListWindow Pages: 1 -->
<svg width="571pt" height="96pt"
 viewBox="0.00 0.00 571.00 96.00" xmlns="http://www.w3.org/2000/svg" xmlns:xlink="http://www.w3.org/1999/xlink">
<g id="graph0" class="graph" transform="scale(1 1) rotate(0) translate(4 92)">
<title>view.windows.LogoListWindow</title>
<polygon fill="white" stroke="none" points="-4,4 -4,-92 567,-92 567,4 -4,4"/>
<!-- Node1 -->
<g id="node1" class="node"><title>Node1</title>
<polygon fill="#bfbfbf" stroke="black" points="132,-0.5 132,-19.5 288,-19.5 288,-0.5 132,-0.5"/>
<text text-anchor="middle" x="210" y="-7.5" font-family="Helvetica,sans-Serif" font-size="10.00">view.windows.LogoListWindow</text>
</g>
<!-- Node2 -->
<g id="node2" class="node"><title>Node2</title>
<polygon fill="white" stroke="#bfbfbf" points="0,-68.5 0,-87.5 44,-87.5 44,-68.5 0,-68.5"/>
<text text-anchor="middle" x="22" y="-75.5" font-family="Helvetica,sans-Serif" font-size="10.00">JPanel</text>
</g>
<!-- Node2&#45;&gt;Node1 -->
<g id="edge1" class="edge"><title>Node2&#45;&gt;Node1</title>
<path fill="none" stroke="midnightblue" d="M54.1594,-65.71C91.4422,-52.6214 152.057,-31.3418 185.647,-19.5496"/>
<polygon fill="midnightblue" stroke="midnightblue" points="52.5804,-62.5548 44.3043,-69.1698 54.8992,-69.1597 52.5804,-62.5548"/>
</g>
<!-- Node3 -->
<g id="node3" class="node"><title>Node3</title>
<polygon fill="white" stroke="#bfbfbf" points="62,-68.5 62,-87.5 122,-87.5 122,-68.5 62,-68.5"/>
<text text-anchor="middle" x="92" y="-75.5" font-family="Helvetica,sans-Serif" font-size="10.00">Observer</text>
</g>
<!-- Node3&#45;&gt;Node1 -->
<g id="edge2" class="edge"><title>Node3&#45;&gt;Node1</title>
<path fill="none" stroke="midnightblue" d="M116.001,-63.3501C129.251,-55.8356 146.013,-46.364 161,-38 172.026,-31.8465 184.489,-24.98 194.087,-19.7116"/>
<polygon fill="midnightblue" stroke="midnightblue" points="114.017,-60.4514 107.049,-68.4321 117.473,-66.5388 114.017,-60.4514"/>
</g>
<!-- Node4 -->
<g id="node4" class="node"><title>Node4</title>
<polygon fill="white" stroke="#bfbfbf" points="140.5,-68.5 140.5,-87.5 199.5,-87.5 199.5,-68.5 140.5,-68.5"/>
<text text-anchor="middle" x="170" y="-75.5" font-family="Helvetica,sans-Serif" font-size="10.00">JTextField</text>
</g>
<!-- Node4&#45;&gt;Node1 -->
<g id="edge3" class="edge"><title>Node4&#45;&gt;Node1</title>
<path fill="none" stroke="#9a32cd" stroke-dasharray="5,2" d="M165.084,-58.0748C164.336,-51.3803 164.712,-44.0232 168,-38 172.403,-29.9351 180.361,-23.9199 188.174,-19.6396"/>
<polygon fill="#9a32cd" stroke="#9a32cd" points="161.741,-59.217 167.088,-68.3634 168.612,-57.8787 161.741,-59.217"/>
<text text-anchor="middle" x="200" y="-41.5" font-family="Helvetica,sans-Serif" font-size="10.00"> myInputField</text>
</g>
<!-- Node5 -->
<g id="node5" class="node"><title>Node5</title>
<polygon fill="white" stroke="#bfbfbf" points="220,-68.5 220,-87.5 288,-87.5 288,-68.5 220,-68.5"/>
<text text-anchor="middle" x="254" y="-75.5" font-family="Helvetica,sans-Serif" font-size="10.00">Dimension</text>
</g>
<!-- Node5&#45;&gt;Node1 -->
<g id="edge4" class="edge"><title>Node5&#45;&gt;Node1</title>
<path fill="none" stroke="#9a32cd" stroke-dasharray="5,2" d="M244.848,-59.3021C241.111,-52.4878 236.592,-44.731 232,-38 227.638,-31.6064 222.138,-24.8564 217.729,-19.7048"/>
<polygon fill="#9a32cd" stroke="#9a32cd" points="241.893,-61.1987 249.68,-68.3823 248.072,-57.9102 241.893,-61.1987"/>
<text text-anchor="middle" x="293" y="-41.5" font-family="Helvetica,sans-Serif" font-size="10.00"> DEFAULT_DIMENSION</text>
</g>
<!-- Node6 -->
<g id="node6" class="node"><title>Node6</title>
<polygon fill="white" stroke="#bfbfbf" points="365.5,-68.5 365.5,-87.5 400.5,-87.5 400.5,-68.5 365.5,-68.5"/>
<text text-anchor="middle" x="383" y="-75.5" font-family="Helvetica,sans-Serif" font-size="10.00">JList</text>
</g>
<!-- Node6&#45;&gt;Node1 -->
<g id="edge5" class="edge"><title>Node6&#45;&gt;Node1</title>
<path fill="none" stroke="#9a32cd" stroke-dasharray="5,2" d="M372.427,-59.8033C366.733,-51.9673 359.023,-43.281 350,-38 331.414,-27.1218 309.291,-20.5191 288.183,-16.5422"/>
<polygon fill="#9a32cd" stroke="#9a32cd" points="369.676,-61.9861 378.141,-68.3565 375.496,-58.0972 369.676,-61.9861"/>
<text text-anchor="middle" x="401" y="-41.5" font-family="Helvetica,sans-Serif" font-size="10.00"> myCommands</text>
</g>
<!-- Node7 -->
<g id="node7" class="node"><title>Node7</title>
<polygon fill="white" stroke="#bfbfbf" points="431,-68.5 431,-87.5 529,-87.5 529,-68.5 431,-68.5"/>
<text text-anchor="middle" x="480" y="-75.5" font-family="Helvetica,sans-Serif" font-size="10.00">Vector&lt; String &gt;</text>
</g>
<!-- Node7&#45;&gt;Node1 -->
<g id="edge6" class="edge"><title>Node7&#45;&gt;Node1</title>
<path fill="none" stroke="#9a32cd" stroke-dasharray="5,2" d="M468.156,-60.2953C461.45,-52.1724 452.341,-43.0865 442,-38 415.62,-25.0245 344.694,-18.0858 288.148,-14.508"/>
<polygon fill="#9a32cd" stroke="#9a32cd" points="465.576,-62.6832 474.434,-68.4967 471.135,-58.4285 465.576,-62.6832"/>
<text text-anchor="middle" x="510.5" y="-41.5" font-family="Helvetica,sans-Serif" font-size="10.00"> myCommandsVector</text>
</g>
</g>
</svg>
