<?xml version="1.0" encoding="UTF-8" standalone="no"?>
<!DOCTYPE svg PUBLIC "-//W3C//DTD SVG 1.1//EN"
 "http://www.w3.org/Graphics/SVG/1.1/DTD/svg11.dtd">
<!-- Generated by graphviz version 2.36.0 (20140111.2315)
 -->
<!-- Title: parser.nodes.SyntaxNode.evaluate Pages: 1 -->
<!--zoomable 1196 -->
<svg id="main" version="1.1" xmlns="http://www.w3.org/2000/svg" xmlns:xlink="http://www.w3.org/1999/xlink" xml:space="preserve" onload="init(evt)">
<style type="text/css"><![CDATA[
.edge:hover path { stroke: red; }
.edge:hover polygon { stroke: red; fill: red; }
]]></style>
<script type="text/javascript"><![CDATA[
var edges = document.getElementsByTagName('g');
if (edges && edges.length) {
  for (var i=0;i<edges.length;i++) {
    if (edges[i].id.substr(0,4)=='edge') {
      edges[i].setAttribute('class','edge');
    }
  }
}
]]></script>
        <defs>
                <circle id="rim" cx="0" cy="0" r="7"/>
                <circle id="rim2" cx="0" cy="0" r="3.5"/>
                <g id="zoomPlus">
                        <use xlink:href="#rim" fill="#404040">
                                <set attributeName="fill" to="#808080" begin="zoomplus.mouseover" end="zoomplus.mouseout"/>
                        </use>
                        <path d="M-4,0h8M0,-4v8" fill="none" stroke="white" stroke-width="1.5" pointer-events="none"/>
                </g>
                <g id="zoomMin">
                        <use xlink:href="#rim" fill="#404040">
                                <set attributeName="fill" to="#808080" begin="zoomminus.mouseover" end="zoomminus.mouseout"/>
                        </use>
                        <path d="M-4,0h8" fill="none" stroke="white" stroke-width="1.5" pointer-events="none"/>
                </g>
                <g id="dirArrow">
                        <path fill="none" stroke="white" stroke-width="1.5" d="M0,-3.0v7 M-2.5,-0.5L0,-3.0L2.5,-0.5"/>
                </g>
               <g id="resetDef">
                       <use xlink:href="#rim2" fill="#404040">
                               <set attributeName="fill" to="#808080" begin="reset.mouseover" end="reset.mouseout"/>
                       </use>
               </g>
        </defs>

<script type="text/javascript">
var viewWidth = 460;
var viewHeight = 1196;
var sectionId = 'dynsection-1';
</script>
<script xlink:href="../../svgpan.js"/>
<svg id="graph" class="graph">
<g id="viewport">
<title>parser.nodes.SyntaxNode.evaluate</title>
<polygon fill="white" stroke="none" points="-4,4 -4,-1192 456,-1192 456,4 -4,4"/>
<!-- Node1 -->
<g id="node1" class="node"><title>Node1</title>
<polygon fill="#bfbfbf" stroke="black" points="0.5,-567.5 0.5,-586.5 185.5,-586.5 185.5,-567.5 0.5,-567.5"/>
<text text-anchor="middle" x="93" y="-574.5" font-family="Helvetica,sans-Serif" font-size="10.00">parser.nodes.SyntaxNode.evaluate</text>
</g>
<!-- Node2 -->
<g id="node2" class="node"><title>Node2</title>
<g id="a_node2"><a xlink:href="../../d3/da1/classparser_1_1commands_1_1math_1_1_difference.html#afbe5542ce504313e87e25ab8c951983c" target="_top" xlink:title="parser.commands.math.Difference.evaluate">
<polygon fill="white" stroke="black" points="223,-1168.5 223,-1187.5 451,-1187.5 451,-1168.5 223,-1168.5"/>
<text text-anchor="middle" x="337" y="-1175.5" font-family="Helvetica,sans-Serif" font-size="10.00">parser.commands.math.Difference.evaluate</text>
</a>
</g>
</g>
<!-- Node1&#45;&gt;Node2 -->
<g id="edge1" class="edge"><title>Node1&#45;&gt;Node2</title>
<path fill="none" stroke="midnightblue" d="M95.4535,-596.872C102.652,-689.622 137.574,-1078.8 222,-1159 225.855,-1162.66 230.134,-1165.77 234.707,-1168.4"/>
<polygon fill="midnightblue" stroke="midnightblue" points="98.9403,-596.565 94.6959,-586.858 91.9603,-597.093 98.9403,-596.565"/>
</g>
<!-- Node3 -->
<g id="node3" class="node"><title>Node3</title>
<g id="a_node3"><a xlink:href="../../d0/dd3/classparser_1_1commands_1_1math_1_1_minus.html#ac5716854a2e7ce76fe3e5c4bee3ffad8" target="_top" xlink:title="parser.commands.math.Minus.evaluate">
<polygon fill="white" stroke="black" points="233.5,-1130.5 233.5,-1149.5 440.5,-1149.5 440.5,-1130.5 233.5,-1130.5"/>
<text text-anchor="middle" x="337" y="-1137.5" font-family="Helvetica,sans-Serif" font-size="10.00">parser.commands.math.Minus.evaluate</text>
</a>
</g>
</g>
<!-- Node1&#45;&gt;Node3 -->
<g id="edge2" class="edge"><title>Node1&#45;&gt;Node3</title>
<path fill="none" stroke="midnightblue" d="M95.7823,-596.636C104.217,-685.093 143.048,-1045.49 222,-1120 226.384,-1124.14 231.306,-1127.58 236.58,-1130.43"/>
<polygon fill="midnightblue" stroke="midnightblue" points="99.2616,-596.25 94.8476,-586.618 92.2919,-596.9 99.2616,-596.25"/>
</g>
<!-- Node4 -->
<g id="node4" class="node"><title>Node4</title>
<g id="a_node4"><a xlink:href="../../de/dc8/classparser_1_1commands_1_1turtle_1_1commands_1_1_left.html#a8388da8b925593779b8ec31cdfb99679" target="_top" xlink:title="parser.commands.turtle.commands.\lLeft.evaluate">
<polygon fill="white" stroke="black" points="241,-1081 241,-1111 433,-1111 433,-1081 241,-1081"/>
<text text-anchor="start" x="249" y="-1099" font-family="Helvetica,sans-Serif" font-size="10.00">parser.commands.turtle.commands.</text>
<text text-anchor="middle" x="337" y="-1088" font-family="Helvetica,sans-Serif" font-size="10.00">Left.evaluate</text>
</a>
</g>
</g>
<!-- Node1&#45;&gt;Node4 -->
<g id="edge3" class="edge"><title>Node1&#45;&gt;Node4</title>
<path fill="none" stroke="midnightblue" d="M96.3502,-596.614C106.714,-679.84 150.995,-1002.62 222,-1071 227.546,-1076.34 233.957,-1080.65 240.855,-1084.11"/>
<polygon fill="midnightblue" stroke="midnightblue" points="99.8028,-596.013 95.1136,-586.512 92.8547,-596.863 99.8028,-596.013"/>
</g>
<!-- Node5 -->
<g id="node5" class="node"><title>Node5</title>
<g id="a_node5"><a xlink:href="../../d4/d1b/classparser_1_1commands_1_1turtle_1_1commands_1_1_right.html#ae1d2bec3ebb1dd9ea7d2fc8c40bb1394" target="_top" xlink:title="parser.commands.turtle.commands.\lRight.evaluate">
<polygon fill="white" stroke="black" points="241,-1032 241,-1062 433,-1062 433,-1032 241,-1032"/>
<text text-anchor="start" x="249" y="-1050" font-family="Helvetica,sans-Serif" font-size="10.00">parser.commands.turtle.commands.</text>
<text text-anchor="middle" x="337" y="-1039" font-family="Helvetica,sans-Serif" font-size="10.00">Right.evaluate</text>
</a>
</g>
</g>
<!-- Node1&#45;&gt;Node5 -->
<g id="edge4" class="edge"><title>Node1&#45;&gt;Node5</title>
<path fill="none" stroke="midnightblue" d="M96.9475,-596.643C109.044,-674.661 157.307,-961.332 222,-1022 227.542,-1027.2 233.907,-1031.41 240.735,-1034.81"/>
<polygon fill="midnightblue" stroke="midnightblue" points="100.398,-596.055 95.4277,-586.698 93.4787,-597.112 100.398,-596.055"/>
</g>
<!-- Node6 -->
<g id="node6" class="node"><title>Node6</title>
<g id="a_node6"><a xlink:href="../../d3/da6/classparser_1_1commands_1_1turtle_1_1commands_1_1_set_heading.html#a860d6e71f5773c82d726b999272f0887" target="_top" xlink:title="parser.commands.turtle.commands.\lSetHeading.evaluate">
<polygon fill="white" stroke="black" points="241,-983 241,-1013 433,-1013 433,-983 241,-983"/>
<text text-anchor="start" x="249" y="-1001" font-family="Helvetica,sans-Serif" font-size="10.00">parser.commands.turtle.commands.</text>
<text text-anchor="middle" x="337" y="-990" font-family="Helvetica,sans-Serif" font-size="10.00">SetHeading.evaluate</text>
</a>
</g>
</g>
<!-- Node1&#45;&gt;Node6 -->
<g id="edge5" class="edge"><title>Node1&#45;&gt;Node6</title>
<path fill="none" stroke="midnightblue" d="M93.9517,-596.531C94.916,-660.992 107.18,-868.784 222,-973 227.626,-978.107 234.05,-982.254 240.918,-985.613"/>
<polygon fill="midnightblue" stroke="midnightblue" points="97.4517,-596.498 93.8805,-586.524 90.4519,-596.548 97.4517,-596.498"/>
</g>
<!-- Node7 -->
<g id="node7" class="node"><title>Node7</title>
<g id="a_node7"><a xlink:href="../../dd/d31/classparser_1_1commands_1_1turtle_1_1commands_1_1_towards.html#a4e9fe5ecca2bf6d6abe92ca2cebd9c50" target="_top" xlink:title="parser.commands.turtle.commands.\lTowards.evaluate">
<polygon fill="white" stroke="black" points="241,-934 241,-964 433,-964 433,-934 241,-934"/>
<text text-anchor="start" x="249" y="-952" font-family="Helvetica,sans-Serif" font-size="10.00">parser.commands.turtle.commands.</text>
<text text-anchor="middle" x="337" y="-941" font-family="Helvetica,sans-Serif" font-size="10.00">Towards.evaluate</text>
</a>
</g>
</g>
<!-- Node1&#45;&gt;Node7 -->
<g id="edge6" class="edge"><title>Node1&#45;&gt;Node7</title>
<path fill="none" stroke="midnightblue" d="M94.9814,-596.803C99.0506,-656.297 119.645,-834.834 222,-924 227.653,-928.924 234.053,-932.948 240.866,-936.227"/>
<polygon fill="midnightblue" stroke="midnightblue" points="98.4592,-596.326 94.3686,-586.553 91.4717,-596.744 98.4592,-596.326"/>
</g>
<!-- Node8 -->
<g id="node8" class="node"><title>Node8</title>
<g id="a_node8"><a xlink:href="../../d3/d01/classparser_1_1commands_1_1turtle_1_1commands_1_1_set_pen_color.html#ae8f9ac8f6a1e3ce70b72ab4d742cb5ae" target="_top" xlink:title="parser.commands.turtle.commands.\lSetPenColor.evaluate">
<polygon fill="white" stroke="black" points="241,-885 241,-915 433,-915 433,-885 241,-885"/>
<text text-anchor="start" x="249" y="-903" font-family="Helvetica,sans-Serif" font-size="10.00">parser.commands.turtle.commands.</text>
<text text-anchor="middle" x="337" y="-892" font-family="Helvetica,sans-Serif" font-size="10.00">SetPenColor.evaluate</text>
</a>
</g>
</g>
<!-- Node1&#45;&gt;Node8 -->
<g id="edge7" class="edge"><title>Node1&#45;&gt;Node8</title>
<path fill="none" stroke="midnightblue" d="M96.3156,-596.823C103.707,-650.653 131.816,-800.493 222,-875 227.702,-879.71 234.095,-883.586 240.866,-886.769"/>
<polygon fill="midnightblue" stroke="midnightblue" points="99.7476,-596.067 95.0069,-586.592 92.8041,-596.955 99.7476,-596.067"/>
</g>
<!-- Node9 -->
<g id="node9" class="node"><title>Node9</title>
<g id="a_node9"><a xlink:href="../../d5/d8a/classparser_1_1commands_1_1turtle_1_1commands_1_1_set_pen_size.html#a35e14f55b2ea8477661d0fabb15e8861" target="_top" xlink:title="parser.commands.turtle.commands.\lSetPenSize.evaluate">
<polygon fill="white" stroke="black" points="241,-836 241,-866 433,-866 433,-836 241,-836"/>
<text text-anchor="start" x="249" y="-854" font-family="Helvetica,sans-Serif" font-size="10.00">parser.commands.turtle.commands.</text>
<text text-anchor="middle" x="337" y="-843" font-family="Helvetica,sans-Serif" font-size="10.00">SetPenSize.evaluate</text>
</a>
</g>
</g>
<!-- Node1&#45;&gt;Node9 -->
<g id="edge8" class="edge"><title>Node1&#45;&gt;Node9</title>
<path fill="none" stroke="midnightblue" d="M98.024,-596.39C108.907,-643.708 143.546,-765.622 222,-826 227.781,-830.449 234.19,-834.141 240.937,-837.201"/>
<polygon fill="midnightblue" stroke="midnightblue" points="101.419,-595.534 95.8543,-586.518 94.5826,-597.036 101.419,-595.534"/>
</g>
<!-- Node10 -->
<g id="node10" class="node"><title>Node10</title>
<g id="a_node10"><a xlink:href="../../d2/d73/classparser_1_1commands_1_1turtle_1_1commands_1_1_set_position.html#a194ec4afe3fb1f9563204b56bc42dca3" target="_top" xlink:title="parser.commands.turtle.commands.\lSetPosition.evaluate">
<polygon fill="white" stroke="black" points="241,-787 241,-817 433,-817 433,-787 241,-787"/>
<text text-anchor="start" x="249" y="-805" font-family="Helvetica,sans-Serif" font-size="10.00">parser.commands.turtle.commands.</text>
<text text-anchor="middle" x="337" y="-794" font-family="Helvetica,sans-Serif" font-size="10.00">SetPosition.evaluate</text>
</a>
</g>
</g>
<!-- Node1&#45;&gt;Node10 -->
<g id="edge9" class="edge"><title>Node1&#45;&gt;Node10</title>
<path fill="none" stroke="midnightblue" d="M100.564,-596.349C115.343,-636.816 155.25,-730.478 222,-777 227.818,-781.055 234.176,-784.468 240.818,-787.34"/>
<polygon fill="midnightblue" stroke="midnightblue" points="103.837,-595.107 97.2026,-586.847 97.2379,-597.442 103.837,-595.107"/>
</g>
<!-- Node11 -->
<g id="node11" class="node"><title>Node11</title>
<g id="a_node11"><a xlink:href="../../d2/d5a/classparser_1_1commands_1_1turtle_1_1commands_1_1_set_shape.html#aa8508d07d037cae6a0f506a06bda841c" target="_top" xlink:title="parser.commands.turtle.commands.\lSetShape.evaluate">
<polygon fill="white" stroke="black" points="241,-738 241,-768 433,-768 433,-738 241,-738"/>
<text text-anchor="start" x="249" y="-756" font-family="Helvetica,sans-Serif" font-size="10.00">parser.commands.turtle.commands.</text>
<text text-anchor="middle" x="337" y="-745" font-family="Helvetica,sans-Serif" font-size="10.00">SetShape.evaluate</text>
</a>
</g>
</g>
<!-- Node1&#45;&gt;Node11 -->
<g id="edge10" class="edge"><title>Node1&#45;&gt;Node11</title>
<path fill="none" stroke="midnightblue" d="M104.157,-595.524C122.916,-627.879 166.229,-694.435 222,-728 228.423,-731.866 235.371,-735.136 242.558,-737.903"/>
<polygon fill="midnightblue" stroke="midnightblue" points="107.108,-593.633 99.1361,-586.655 101.016,-597.082 107.108,-593.633"/>
</g>
<!-- Node12 -->
<g id="node12" class="node"><title>Node12</title>
<g id="a_node12"><a xlink:href="../../d4/dd8/classparser_1_1commands_1_1math_1_1_product.html#abaf355a9da0c625ad47ea2925a48fae3" target="_top" xlink:title="parser.commands.math.Product.evaluate">
<polygon fill="white" stroke="black" points="229,-699.5 229,-718.5 445,-718.5 445,-699.5 229,-699.5"/>
<text text-anchor="middle" x="337" y="-706.5" font-family="Helvetica,sans-Serif" font-size="10.00">parser.commands.math.Product.evaluate</text>
</a>
</g>
</g>
<!-- Node1&#45;&gt;Node12 -->
<g id="edge11" class="edge"><title>Node1&#45;&gt;Node12</title>
<path fill="none" stroke="midnightblue" d="M108.256,-594.44C129.966,-619.709 173.898,-665.986 222,-689 231.154,-693.379 241.132,-696.809 251.254,-699.494"/>
<polygon fill="midnightblue" stroke="midnightblue" points="110.891,-592.135 101.772,-586.741 105.536,-596.644 110.891,-592.135"/>
</g>
<!-- Node13 -->
<g id="node13" class="node"><title>Node13</title>
<g id="a_node13"><a xlink:href="../../da/dbd/classparser_1_1commands_1_1view_1_1_set_background.html#a9ac8ae934ce147f484f9496d776a1ed0" target="_top" xlink:title="parser.commands.view.Set\lBackground.evaluate">
<polygon fill="white" stroke="black" points="264,-650 264,-680 410,-680 410,-650 264,-650"/>
<text text-anchor="start" x="272" y="-668" font-family="Helvetica,sans-Serif" font-size="10.00">parser.commands.view.Set</text>
<text text-anchor="middle" x="337" y="-657" font-family="Helvetica,sans-Serif" font-size="10.00">Background.evaluate</text>
</a>
</g>
</g>
<!-- Node1&#45;&gt;Node13 -->
<g id="edge12" class="edge"><title>Node1&#45;&gt;Node13</title>
<path fill="none" stroke="midnightblue" d="M119.327,-591.752C144.595,-605.913 184.894,-627.015 222,-640 235.292,-644.651 249.769,-648.62 263.808,-651.933"/>
<polygon fill="midnightblue" stroke="midnightblue" points="120.841,-588.587 110.417,-586.696 117.386,-594.675 120.841,-588.587"/>
</g>
<!-- Node14 -->
<g id="node14" class="node"><title>Node14</title>
<g id="a_node14"><a xlink:href="../../d9/df8/classparser_1_1commands_1_1math_1_1_sum.html#aac71753de6b82df094d0b032396bc7d8" target="_top" xlink:title="parser.commands.math.Sum.evaluate">
<polygon fill="white" stroke="black" points="236,-611.5 236,-630.5 438,-630.5 438,-611.5 236,-611.5"/>
<text text-anchor="middle" x="337" y="-618.5" font-family="Helvetica,sans-Serif" font-size="10.00">parser.commands.math.Sum.evaluate</text>
</a>
</g>
</g>
<!-- Node1&#45;&gt;Node14 -->
<g id="edge13" class="edge"><title>Node1&#45;&gt;Node14</title>
<path fill="none" stroke="midnightblue" d="M154.07,-588.413C175.498,-592.444 199.819,-596.975 222,-601 241.178,-604.48 262.19,-608.194 280.892,-611.466"/>
<polygon fill="midnightblue" stroke="midnightblue" points="154.602,-584.952 144.127,-586.539 153.306,-591.831 154.602,-584.952"/>
</g>
<!-- Node15 -->
<g id="node15" class="node"><title>Node15</title>
<g id="a_node15"><a xlink:href="../../db/d45/classparser_1_1commands_1_1turtle_1_1commands_1_1_backward.html#a5188f3cd325de8494f1d95019f86d01f" target="_top" xlink:title="parser.commands.turtle.commands.\lBackward.evaluate">
<polygon fill="white" stroke="black" points="241,-562 241,-592 433,-592 433,-562 241,-562"/>
<text text-anchor="start" x="249" y="-580" font-family="Helvetica,sans-Serif" font-size="10.00">parser.commands.turtle.commands.</text>
<text text-anchor="middle" x="337" y="-569" font-family="Helvetica,sans-Serif" font-size="10.00">Backward.evaluate</text>
</a>
</g>
</g>
<!-- Node1&#45;&gt;Node15 -->
<g id="edge14" class="edge"><title>Node1&#45;&gt;Node15</title>
<path fill="none" stroke="midnightblue" d="M195.998,-577C210.783,-577 225.957,-577 240.606,-577"/>
<polygon fill="midnightblue" stroke="midnightblue" points="195.835,-573.5 185.835,-577 195.835,-580.5 195.835,-573.5"/>
</g>
<!-- Node16 -->
<g id="node16" class="node"><title>Node16</title>
<g id="a_node16"><a xlink:href="../../de/d5d/classparser_1_1commands_1_1turtle_1_1commands_1_1_forward.html#a4fed720c423f5189a2cc419372060098" target="_top" xlink:title="parser.commands.turtle.commands.\lForward.evaluate">
<polygon fill="white" stroke="black" points="241,-513 241,-543 433,-543 433,-513 241,-513"/>
<text text-anchor="start" x="249" y="-531" font-family="Helvetica,sans-Serif" font-size="10.00">parser.commands.turtle.commands.</text>
<text text-anchor="middle" x="337" y="-520" font-family="Helvetica,sans-Serif" font-size="10.00">Forward.evaluate</text>
</a>
</g>
</g>
<!-- Node1&#45;&gt;Node16 -->
<g id="edge15" class="edge"><title>Node1&#45;&gt;Node16</title>
<path fill="none" stroke="midnightblue" d="M150.895,-565.48C183.93,-558.791 225.928,-550.287 261.566,-543.071"/>
<polygon fill="midnightblue" stroke="midnightblue" points="150.053,-562.079 140.947,-567.494 151.443,-568.94 150.053,-562.079"/>
</g>
<!-- Node17 -->
<g id="node17" class="node"><title>Node17</title>
<g id="a_node17"><a xlink:href="../../d6/dbc/classparser_1_1commands_1_1other_1_1_if_else.html#abedc5a12ff3ae44d149ebe1b9c854078" target="_top" xlink:title="parser.commands.other.If\lElse.evaluate">
<polygon fill="white" stroke="black" points="267,-464 267,-494 407,-494 407,-464 267,-464"/>
<text text-anchor="start" x="275" y="-482" font-family="Helvetica,sans-Serif" font-size="10.00">parser.commands.other.If</text>
<text text-anchor="middle" x="337" y="-471" font-family="Helvetica,sans-Serif" font-size="10.00">Else.evaluate</text>
</a>
</g>
</g>
<!-- Node1&#45;&gt;Node17 -->
<g id="edge16" class="edge"><title>Node1&#45;&gt;Node17</title>
<path fill="none" stroke="midnightblue" d="M115.794,-561.825C140.484,-545.303 182.445,-519.21 222,-504 236.184,-498.546 251.842,-494.142 266.892,-490.641"/>
<polygon fill="midnightblue" stroke="midnightblue" points="113.826,-558.931 107.515,-567.441 117.756,-564.723 113.826,-558.931"/>
</g>
<!-- Node18 -->
<g id="node18" class="node"><title>Node18</title>
<g id="a_node18"><a xlink:href="../../de/dd8/classparser_1_1commands_1_1other_1_1_if.html#a87f6a4d0e8da520a85595f100561ff61" target="_top" xlink:title="parser.commands.other.If.evaluate">
<polygon fill="white" stroke="black" points="245.5,-425.5 245.5,-444.5 428.5,-444.5 428.5,-425.5 245.5,-425.5"/>
<text text-anchor="middle" x="337" y="-432.5" font-family="Helvetica,sans-Serif" font-size="10.00">parser.commands.other.If.evaluate</text>
</a>
</g>
</g>
<!-- Node1&#45;&gt;Node18 -->
<g id="edge17" class="edge"><title>Node1&#45;&gt;Node18</title>
<path fill="none" stroke="midnightblue" d="M106.958,-559.199C127.856,-531.94 171.772,-480.358 222,-455 230.61,-450.653 239.999,-447.233 249.572,-444.545"/>
<polygon fill="midnightblue" stroke="midnightblue" points="103.979,-557.338 100.778,-567.438 109.579,-561.538 103.979,-557.338"/>
</g>
<!-- Node19 -->
<g id="node19" class="node"><title>Node19</title>
<g id="a_node19"><a xlink:href="../../d7/da6/classparser_1_1commands_1_1math_1_1_remainder.html#a22cfed07cc01dc68980e68dc6c191da8" target="_top" xlink:title="parser.commands.math.Remainder.evaluate">
<polygon fill="white" stroke="black" points="222,-387.5 222,-406.5 452,-406.5 452,-387.5 222,-387.5"/>
<text text-anchor="middle" x="337" y="-394.5" font-family="Helvetica,sans-Serif" font-size="10.00">parser.commands.math.Remainder.evaluate</text>
</a>
</g>
</g>
<!-- Node1&#45;&gt;Node19 -->
<g id="edge18" class="edge"><title>Node1&#45;&gt;Node19</title>
<path fill="none" stroke="midnightblue" d="M102.911,-558.389C120.441,-523.988 162.906,-450.793 222,-416 228.484,-412.182 235.514,-409.076 242.792,-406.553"/>
<polygon fill="midnightblue" stroke="midnightblue" points="99.7648,-556.855 98.4562,-567.368 106.036,-559.965 99.7648,-556.855"/>
</g>
<!-- Node20 -->
<g id="node20" class="node"><title>Node20</title>
<g id="a_node20"><a xlink:href="../../d6/d87/classparser_1_1commands_1_1other_1_1_make.html#a7fc80a476ce57bf7ffa57061b0543dbf" target="_top" xlink:title="parser.commands.other.Make.evaluate">
<polygon fill="white" stroke="black" points="235,-349.5 235,-368.5 439,-368.5 439,-349.5 235,-349.5"/>
<text text-anchor="middle" x="337" y="-356.5" font-family="Helvetica,sans-Serif" font-size="10.00">parser.commands.other.Make.evaluate</text>
</a>
</g>
</g>
<!-- Node1&#45;&gt;Node20 -->
<g id="edge19" class="edge"><title>Node1&#45;&gt;Node20</title>
<path fill="none" stroke="midnightblue" d="M100.412,-557.478C114.9,-516.7 154.282,-422.578 222,-378 227.782,-374.194 234.076,-371.068 240.639,-368.51"/>
<polygon fill="midnightblue" stroke="midnightblue" points="97.0591,-556.464 97.1214,-567.059 103.68,-558.738 97.0591,-556.464"/>
</g>
<!-- Node21 -->
<g id="node21" class="node"><title>Node21</title>
<g id="a_node21"><a xlink:href="../../dc/d4d/classparser_1_1commands_1_1math_1_1_quotient.html#a1f8c57a0dd1e98dca45aa0b68f1f6d8a" target="_top" xlink:title="parser.commands.math.Quotient.evaluate">
<polygon fill="white" stroke="black" points="226.5,-311.5 226.5,-330.5 447.5,-330.5 447.5,-311.5 226.5,-311.5"/>
<text text-anchor="middle" x="337" y="-318.5" font-family="Helvetica,sans-Serif" font-size="10.00">parser.commands.math.Quotient.evaluate</text>
</a>
</g>
</g>
<!-- Node1&#45;&gt;Node21 -->
<g id="edge20" class="edge"><title>Node1&#45;&gt;Node21</title>
<path fill="none" stroke="midnightblue" d="M98.3697,-557.362C109.768,-511.093 145.019,-395.001 222,-340 227.224,-336.267 232.924,-333.171 238.898,-330.61"/>
<polygon fill="midnightblue" stroke="midnightblue" points="94.9126,-556.774 96.0266,-567.31 101.726,-558.379 94.9126,-556.774"/>
</g>
<!-- Node22 -->
<g id="node22" class="node"><title>Node22</title>
<g id="a_node22"><a xlink:href="../../dd/db0/classparser_1_1commands_1_1math_1_1_random.html#a1813631ffdc040ffd26a12914e8fbbfa" target="_top" xlink:title="parser.commands.math.Random.evaluate">
<polygon fill="white" stroke="black" points="227.5,-273.5 227.5,-292.5 446.5,-292.5 446.5,-273.5 227.5,-273.5"/>
<text text-anchor="middle" x="337" y="-280.5" font-family="Helvetica,sans-Serif" font-size="10.00">parser.commands.math.Random.evaluate</text>
</a>
</g>
</g>
<!-- Node1&#45;&gt;Node22 -->
<g id="edge21" class="edge"><title>Node1&#45;&gt;Node22</title>
<path fill="none" stroke="midnightblue" d="M96.8107,-557.433C105.272,-506.243 135.485,-367.79 222,-302 226.951,-298.235 232.375,-295.103 238.084,-292.506"/>
<polygon fill="midnightblue" stroke="midnightblue" points="93.3265,-557.062 95.2493,-567.481 100.243,-558.137 93.3265,-557.062"/>
</g>
<!-- Node23 -->
<g id="node23" class="node"><title>Node23</title>
<g id="a_node23"><a xlink:href="../../d9/de0/classparser_1_1commands_1_1other_1_1_repeat.html#aa94d3f1c4786a256afdbc9718ba2883b" target="_top" xlink:title="parser.commands.other.Repeat.evaluate">
<polygon fill="white" stroke="black" points="231,-235.5 231,-254.5 443,-254.5 443,-235.5 231,-235.5"/>
<text text-anchor="middle" x="337" y="-242.5" font-family="Helvetica,sans-Serif" font-size="10.00">parser.commands.other.Repeat.evaluate</text>
</a>
</g>
</g>
<!-- Node1&#45;&gt;Node23 -->
<g id="edge22" class="edge"><title>Node1&#45;&gt;Node23</title>
<path fill="none" stroke="midnightblue" d="M95.6173,-557.418C101.348,-501.598 125.862,-340.774 222,-264 226.625,-260.306 231.698,-257.212 237.055,-254.627"/>
<polygon fill="midnightblue" stroke="midnightblue" points="92.1304,-557.115 94.6831,-567.397 99.0999,-557.767 92.1304,-557.115"/>
</g>
<!-- Node24 -->
<g id="node24" class="node"><title>Node24</title>
<g id="a_node24"><a xlink:href="../../d5/d6d/classparser_1_1commands_1_1workspace_1_1_ask.html#a837a075ce77789761e3060413c51e882" target="_top" xlink:title="parser.commands.workspace.\lAsk.evaluate">
<polygon fill="white" stroke="black" points="257,-186 257,-216 417,-216 417,-186 257,-186"/>
<text text-anchor="start" x="265" y="-204" font-family="Helvetica,sans-Serif" font-size="10.00">parser.commands.workspace.</text>
<text text-anchor="middle" x="337" y="-193" font-family="Helvetica,sans-Serif" font-size="10.00">Ask.evaluate</text>
</a>
</g>
</g>
<!-- Node1&#45;&gt;Node24 -->
<g id="edge23" class="edge"><title>Node1&#45;&gt;Node24</title>
<path fill="none" stroke="midnightblue" d="M94.8782,-557.35C98.6636,-497.565 118.558,-316.451 222,-226 231.915,-217.331 244.144,-211.452 256.873,-207.506"/>
<polygon fill="midnightblue" stroke="midnightblue" points="91.3832,-557.163 94.3289,-567.34 98.3727,-557.548 91.3832,-557.163"/>
</g>
<!-- Node25 -->
<g id="node25" class="node"><title>Node25</title>
<g id="a_node25"><a xlink:href="../../d2/dce/classparser_1_1commands_1_1view_1_1_set_palette.html#ab115ff17dea0a1f57e53b29723b522d6" target="_top" xlink:title="parser.commands.view.Set\lPalette.evaluate">
<polygon fill="white" stroke="black" points="264,-137 264,-167 410,-167 410,-137 264,-137"/>
<text text-anchor="start" x="272" y="-155" font-family="Helvetica,sans-Serif" font-size="10.00">parser.commands.view.Set</text>
<text text-anchor="middle" x="337" y="-144" font-family="Helvetica,sans-Serif" font-size="10.00">Palette.evaluate</text>
</a>
</g>
</g>
<!-- Node1&#45;&gt;Node25 -->
<g id="edge24" class="edge"><title>Node1&#45;&gt;Node25</title>
<path fill="none" stroke="midnightblue" d="M93.8814,-557.277C94.6262,-492.182 106.283,-282.339 222,-177 233.612,-166.429 248.641,-159.967 263.955,-156.096"/>
<polygon fill="midnightblue" stroke="midnightblue" points="90.3812,-557.37 93.8451,-567.383 97.3811,-557.396 90.3812,-557.37"/>
</g>
<!-- Node26 -->
<g id="node26" class="node"><title>Node26</title>
<g id="a_node26"><a xlink:href="../../d0/d05/classparser_1_1commands_1_1other_1_1_do_times.html#aa1749474b7c85cd1caa0b32ebc3f1120" target="_top" xlink:title="parser.commands.other.Do\lTimes.evaluate">
<polygon fill="white" stroke="black" points="263,-88 263,-118 411,-118 411,-88 263,-88"/>
<text text-anchor="start" x="271" y="-106" font-family="Helvetica,sans-Serif" font-size="10.00">parser.commands.other.Do</text>
<text text-anchor="middle" x="337" y="-95" font-family="Helvetica,sans-Serif" font-size="10.00">Times.evaluate</text>
</a>
</g>
</g>
<!-- Node1&#45;&gt;Node26 -->
<g id="edge25" class="edge"><title>Node1&#45;&gt;Node26</title>
<path fill="none" stroke="midnightblue" d="M96.921,-557.182C108.915,-478.471 156.842,-189.249 222,-128 233.22,-117.453 247.826,-110.965 262.818,-107.055"/>
<polygon fill="midnightblue" stroke="midnightblue" points="93.4382,-556.807 95.4143,-567.216 100.361,-557.846 93.4382,-556.807"/>
</g>
<!-- Node27 -->
<g id="node27" class="node"><title>Node27</title>
<g id="a_node27"><a xlink:href="../../db/d77/classparser_1_1commands_1_1workspace_1_1_ask_with.html#a1de9ef4326a655f16ceec2a53302a0b5" target="_top" xlink:title="parser.commands.workspace.\lAskWith.evaluate">
<polygon fill="white" stroke="black" points="257,-39 257,-69 417,-69 417,-39 257,-39"/>
<text text-anchor="start" x="265" y="-57" font-family="Helvetica,sans-Serif" font-size="10.00">parser.commands.workspace.</text>
<text text-anchor="middle" x="337" y="-46" font-family="Helvetica,sans-Serif" font-size="10.00">AskWith.evaluate</text>
</a>
</g>
</g>
<!-- Node1&#45;&gt;Node27 -->
<g id="edge26" class="edge"><title>Node1&#45;&gt;Node27</title>
<path fill="none" stroke="midnightblue" d="M96.326,-557.229C106.591,-473.337 150.523,-147.969 222,-79 231.623,-69.7142 243.862,-63.5547 256.728,-59.5268"/>
<polygon fill="midnightblue" stroke="midnightblue" points="92.8205,-557.065 95.1017,-567.412 99.7705,-557.901 92.8205,-557.065"/>
</g>
<!-- Node28 -->
<g id="node28" class="node"><title>Node28</title>
<g id="a_node28"><a xlink:href="../../de/df8/classparser_1_1commands_1_1other_1_1_for.html#ab174f2bbc0bfe9fa9afd51f9213d4001" target="_top" xlink:title="parser.commands.other.For.evaluate">
<polygon fill="white" stroke="black" points="240.5,-0.5 240.5,-19.5 433.5,-19.5 433.5,-0.5 240.5,-0.5"/>
<text text-anchor="middle" x="337" y="-7.5" font-family="Helvetica,sans-Serif" font-size="10.00">parser.commands.other.For.evaluate</text>
</a>
</g>
</g>
<!-- Node1&#45;&gt;Node28 -->
<g id="edge27" class="edge"><title>Node1&#45;&gt;Node28</title>
<path fill="none" stroke="midnightblue" d="M95.7596,-557.221C104.095,-468.12 142.559,-105.098 222,-30 227.403,-24.8926 233.625,-20.8438 240.317,-17.6542"/>
<polygon fill="midnightblue" stroke="midnightblue" points="92.2622,-557.035 94.8362,-567.312 99.2331,-557.673 92.2622,-557.035"/>
</g>
</g>
</svg>
        <g id="navigator" transform="translate(0 0)" fill="#404254">
                <rect fill="#f2f5e9" fill-opacity="0.5" stroke="#606060" stroke-width=".5" x="0" y="0" width="60" height="60"/>
                <use id="zoomplus" xlink:href="#zoomPlus" x="17" y="9" onmousedown="handleZoom(evt,'in')"/>
                <use id="zoomminus" xlink:href="#zoomMin" x="42" y="9" onmousedown="handleZoom(evt,'out')"/>
                <use id="reset" xlink:href="#resetDef" x="30" y="36" onmousedown="handleReset()"/>
                <g id="arrowUp" xlink:href="#dirArrow" transform="translate(30 24)" onmousedown="handlePan(0,-1)">
                  <use xlink:href="#rim" fill="#404040">
                        <set attributeName="fill" to="#808080" begin="arrowUp.mouseover" end="arrowUp.mouseout"/>
                  </use>
                  <path fill="none" stroke="white" stroke-width="1.5" d="M0,-3.0v7 M-2.5,-0.5L0,-3.0L2.5,-0.5"/>
                </g>
                <g id="arrowRight" xlink:href="#dirArrow" transform="rotate(90) translate(36 -43)" onmousedown="handlePan(1,0)">
                  <use xlink:href="#rim" fill="#404040">
                        <set attributeName="fill" to="#808080" begin="arrowRight.mouseover" end="arrowRight.mouseout"/>
                  </use>
                  <path fill="none" stroke="white" stroke-width="1.5" d="M0,-3.0v7 M-2.5,-0.5L0,-3.0L2.5,-0.5"/>
                </g>
                <g id="arrowDown" xlink:href="#dirArrow" transform="rotate(180) translate(-30 -48)" onmousedown="handlePan(0,1)">
                  <use xlink:href="#rim" fill="#404040">
                        <set attributeName="fill" to="#808080" begin="arrowDown.mouseover" end="arrowDown.mouseout"/>
                  </use>
                  <path fill="none" stroke="white" stroke-width="1.5" d="M0,-3.0v7 M-2.5,-0.5L0,-3.0L2.5,-0.5"/>
                </g>
                <g id="arrowLeft" xlink:href="#dirArrow" transform="rotate(270) translate(-36 17)" onmousedown="handlePan(-1,0)">
                  <use xlink:href="#rim" fill="#404040">
                        <set attributeName="fill" to="#808080" begin="arrowLeft.mouseover" end="arrowLeft.mouseout"/>
                  </use>
                  <path fill="none" stroke="white" stroke-width="1.5" d="M0,-3.0v7 M-2.5,-0.5L0,-3.0L2.5,-0.5"/>
                </g>
        </g>
        <svg viewBox="0 0 15 15" width="100%" height="30px" preserveAspectRatio="xMaxYMin meet">
         <g id="arrow_out" transform="scale(0.3 0.3)">
          <a xlink:href="classparser_1_1nodes_1_1_syntax_node_a669c370adce66a1960835323a90b9adb_icgraph_org.svg" target="_base">
           <rect id="button" ry="5" rx="5" y="6" x="6" height="38" width="38"
                fill="#f2f5e9" fill-opacity="0.5" stroke="#606060" stroke-width="1.0"/>
           <path id="arrow"
             d="M 11.500037,31.436501 C 11.940474,20.09759 22.043105,11.32322 32.158766,21.979434 L 37.068811,17.246167 C 37.068811,17.246167 37.088388,32 37.088388,32 L 22.160133,31.978069 C 22.160133,31.978069 26.997745,27.140456 26.997745,27.140456 C 18.528582,18.264221 13.291696,25.230495 11.500037,31.436501 z"
             style="fill:#404040;"/>
          </a>
         </g>
        </svg>
</svg>
