<?xml version="1.0" encoding="UTF-8" standalone="no"?>
<!DOCTYPE svg PUBLIC "-//W3C//DTD SVG 1.1//EN"
 "http://www.w3.org/Graphics/SVG/1.1/DTD/svg11.dtd">
<!-- Generated by graphviz version 2.36.0 (20140111.2315)
 -->
<!-- Title: parser.nodes.ParamListEndNode.ParamListEndNode Pages: 1 -->
<svg width="382pt" height="77pt"
 viewBox="0.00 0.00 382.00 77.00" xmlns="http://www.w3.org/2000/svg" xmlns:xlink="http://www.w3.org/1999/xlink">
<g id="graph0" class="graph" transform="scale(1 1) rotate(0) translate(4 73)">
<title>parser.nodes.ParamListEndNode.ParamListEndNode</title>
<polygon fill="white" stroke="none" points="-4,4 -4,-73 378,-73 378,4 -4,4"/>
<!-- Node1 -->
<g id="node1" class="node"><title>Node1</title>
<polygon fill="#bfbfbf" stroke="black" points="0.5,-17 0.5,-47 147.5,-47 147.5,-17 0.5,-17"/>
<text text-anchor="start" x="8.5" y="-35" font-family="Helvetica,sans-Serif" font-size="10.00">parser.nodes.ParamListEnd</text>
<text text-anchor="middle" x="74" y="-24" font-family="Helvetica,sans-Serif" font-size="10.00">Node.ParamListEndNode</text>
</g>
<!-- Node2 -->
<g id="node2" class="node"><title>Node2</title>
<g id="a_node2"><a xlink:href="../../d9/d85/classparser_1_1nodes_1_1_token_node.html#a10f80b7aa4f2d7f647bf3788e9b0b23c" target="_top" xlink:title="parser.nodes.TokenNode.get\lToken">
<polygon fill="white" stroke="black" points="202.5,-39 202.5,-69 355.5,-69 355.5,-39 202.5,-39"/>
<text text-anchor="start" x="210.5" y="-57" font-family="Helvetica,sans-Serif" font-size="10.00">parser.nodes.TokenNode.get</text>
<text text-anchor="middle" x="279" y="-46" font-family="Helvetica,sans-Serif" font-size="10.00">Token</text>
</a>
</g>
</g>
<!-- Node1&#45;&gt;Node2 -->
<g id="edge1" class="edge"><title>Node1&#45;&gt;Node2</title>
<path fill="none" stroke="midnightblue" d="M147.714,-39.8804C162.134,-41.4431 177.399,-43.0975 192.207,-44.7022"/>
<polygon fill="midnightblue" stroke="midnightblue" points="192.051,-48.2057 202.37,-45.8036 192.805,-41.2465 192.051,-48.2057"/>
</g>
<!-- Node3 -->
<g id="node3" class="node"><title>Node3</title>
<g id="a_node3"><a xlink:href="../../d9/d85/classparser_1_1nodes_1_1_token_node.html#abf34eaf7a992cf067c138122a4f73458" target="_top" xlink:title="parser.nodes.TokenNode.TokenNode">
<polygon fill="white" stroke="black" points="184,-0.5 184,-19.5 374,-19.5 374,-0.5 184,-0.5"/>
<text text-anchor="middle" x="279" y="-7.5" font-family="Helvetica,sans-Serif" font-size="10.00">parser.nodes.TokenNode.TokenNode</text>
</a>
</g>
</g>
<!-- Node1&#45;&gt;Node3 -->
<g id="edge2" class="edge"><title>Node1&#45;&gt;Node3</title>
<path fill="none" stroke="midnightblue" d="M147.714,-24.1196C158.254,-22.9774 169.245,-21.7863 180.178,-20.6014"/>
<polygon fill="midnightblue" stroke="midnightblue" points="180.624,-24.0736 190.189,-19.5164 179.87,-17.1143 180.624,-24.0736"/>
</g>
</g>
</svg>
