<?xml version="1.0" encoding="UTF-8" standalone="no"?>
<!DOCTYPE svg PUBLIC "-//W3C//DTD SVG 1.1//EN"
 "http://www.w3.org/Graphics/SVG/1.1/DTD/svg11.dtd">
<!-- Generated by graphviz version 2.36.0 (20140111.2315)
 -->
<!-- Title: parser.nodes.NodeInformation.getToken Pages: 1 -->
<svg width="1942pt" height="799pt"
 viewBox="0.00 0.00 1942.00 799.00" xmlns="http://www.w3.org/2000/svg" xmlns:xlink="http://www.w3.org/1999/xlink">
<g id="graph0" class="graph" transform="scale(1 1) rotate(0) translate(4 795)">
<title>parser.nodes.NodeInformation.getToken</title>
<polygon fill="white" stroke="none" points="-4,4 -4,-795 1938,-795 1938,4 -4,4"/>
<!-- Node1 -->
<g id="node1" class="node"><title>Node1</title>
<polygon fill="#bfbfbf" stroke="black" points="0.5,-386 0.5,-416 181.5,-416 181.5,-386 0.5,-386"/>
<text text-anchor="start" x="8.5" y="-404" font-family="Helvetica,sans-Serif" font-size="10.00">parser.nodes.NodeInformation.get</text>
<text text-anchor="middle" x="91" y="-393" font-family="Helvetica,sans-Serif" font-size="10.00">Token</text>
</g>
<!-- Node2 -->
<g id="node2" class="node"><title>Node2</title>
<g id="a_node2"><a xlink:href="../../d7/d0d/classparser_1_1_semantics_checker.html#a41a9f32483c1d0e32acd7fa553c9670c" target="_top" xlink:title="parser.SemanticsChecker.create\lCustomCommand">
<polygon fill="white" stroke="black" points="218.5,-386 218.5,-416 391.5,-416 391.5,-386 218.5,-386"/>
<text text-anchor="start" x="226.5" y="-404" font-family="Helvetica,sans-Serif" font-size="10.00">parser.SemanticsChecker.create</text>
<text text-anchor="middle" x="305" y="-393" font-family="Helvetica,sans-Serif" font-size="10.00">CustomCommand</text>
</a>
</g>
</g>
<!-- Node1&#45;&gt;Node2 -->
<g id="edge1" class="edge"><title>Node1&#45;&gt;Node2</title>
<path fill="none" stroke="midnightblue" d="M191.665,-401C200.614,-401 209.624,-401 218.437,-401"/>
<polygon fill="midnightblue" stroke="midnightblue" points="191.6,-397.5 181.6,-401 191.6,-404.5 191.6,-397.5"/>
</g>
<!-- Node3 -->
<g id="node3" class="node"><title>Node3</title>
<g id="a_node3"><a xlink:href="../../d7/d0d/classparser_1_1_semantics_checker.html#a8620f3090287a61f86765ee920d53de0" target="_top" xlink:title="parser.SemanticsChecker.evaluate\lExpression">
<polygon fill="white" stroke="black" points="428.5,-386 428.5,-416 611.5,-416 611.5,-386 428.5,-386"/>
<text text-anchor="start" x="436.5" y="-404" font-family="Helvetica,sans-Serif" font-size="10.00">parser.SemanticsChecker.evaluate</text>
<text text-anchor="middle" x="520" y="-393" font-family="Helvetica,sans-Serif" font-size="10.00">Expression</text>
</a>
</g>
</g>
<!-- Node2&#45;&gt;Node3 -->
<g id="edge2" class="edge"><title>Node2&#45;&gt;Node3</title>
<path fill="none" stroke="midnightblue" d="M401.931,-401C410.684,-401 419.534,-401 428.239,-401"/>
<polygon fill="midnightblue" stroke="midnightblue" points="401.715,-397.5 391.715,-401 401.715,-404.5 401.715,-397.5"/>
</g>
<!-- Node4 -->
<g id="node4" class="node"><title>Node4</title>
<g id="a_node4"><a xlink:href="../../d6/d95/classparser_1_1_parser.html#ac0cfecef1d5308df35c49519d94f85a5" target="_top" xlink:title="parser.Parser.parseCommand">
<polygon fill="white" stroke="black" points="648.5,-391.5 648.5,-410.5 807.5,-410.5 807.5,-391.5 648.5,-391.5"/>
<text text-anchor="middle" x="728" y="-398.5" font-family="Helvetica,sans-Serif" font-size="10.00">parser.Parser.parseCommand</text>
</a>
</g>
</g>
<!-- Node3&#45;&gt;Node4 -->
<g id="edge3" class="edge"><title>Node3&#45;&gt;Node4</title>
<path fill="none" stroke="midnightblue" d="M621.699,-401C630.616,-401 639.557,-401 648.253,-401"/>
<polygon fill="midnightblue" stroke="midnightblue" points="621.654,-397.5 611.654,-401 621.654,-404.5 621.654,-397.5"/>
</g>
<!-- Node5 -->
<g id="node5" class="node"><title>Node5</title>
<g id="a_node5"><a xlink:href="../../d7/dde/classparser_1_1_main.html#a75a40fb31f3397122c167e54e6e233c1" target="_top" xlink:title="parser.Main.checkFile">
<polygon fill="white" stroke="black" points="877,-771.5 877,-790.5 995,-790.5 995,-771.5 877,-771.5"/>
<text text-anchor="middle" x="936" y="-778.5" font-family="Helvetica,sans-Serif" font-size="10.00">parser.Main.checkFile</text>
</a>
</g>
</g>
<!-- Node4&#45;&gt;Node5 -->
<g id="edge4" class="edge"><title>Node4&#45;&gt;Node5</title>
<path fill="none" stroke="midnightblue" d="M728.846,-420.774C729.514,-481.76 740.317,-668.441 844,-762 853.106,-770.217 864.826,-775.23 876.805,-778.217"/>
<polygon fill="midnightblue" stroke="midnightblue" points="732.345,-420.599 728.821,-410.608 725.345,-420.616 732.345,-420.599"/>
</g>
<!-- Node7 -->
<g id="node7" class="node"><title>Node7</title>
<g id="a_node7"><a xlink:href="../../d6/d95/classparser_1_1_parser.html#afc96f83c32dde8c90fdab91dd543dddf" target="_top" xlink:title="parser.Parser.parseCommand">
<polygon fill="white" stroke="black" points="856.5,-733.5 856.5,-752.5 1015.5,-752.5 1015.5,-733.5 856.5,-733.5"/>
<text text-anchor="middle" x="936" y="-740.5" font-family="Helvetica,sans-Serif" font-size="10.00">parser.Parser.parseCommand</text>
</a>
</g>
</g>
<!-- Node4&#45;&gt;Node7 -->
<g id="edge6" class="edge"><title>Node4&#45;&gt;Node7</title>
<path fill="none" stroke="midnightblue" d="M729.764,-420.826C733.069,-477.396 750.645,-640.781 844,-723 848.856,-727.276 854.416,-730.705 860.341,-733.446"/>
<polygon fill="midnightblue" stroke="midnightblue" points="733.254,-420.531 729.264,-410.716 726.262,-420.877 733.254,-420.531"/>
</g>
<!-- Node8 -->
<g id="node8" class="node"><title>Node8</title>
<g id="a_node8"><a xlink:href="../../d9/df7/classcontroller_1_1_controller.html#a89b63f37e67efbeddda1f247016c837b" target="_top" xlink:title="controller.Controller.process\lCommand">
<polygon fill="white" stroke="black" points="861,-684 861,-714 1011,-714 1011,-684 861,-684"/>
<text text-anchor="start" x="869" y="-702" font-family="Helvetica,sans-Serif" font-size="10.00">controller.Controller.process</text>
<text text-anchor="middle" x="936" y="-691" font-family="Helvetica,sans-Serif" font-size="10.00">Command</text>
</a>
</g>
</g>
<!-- Node4&#45;&gt;Node8 -->
<g id="edge7" class="edge"><title>Node4&#45;&gt;Node8</title>
<path fill="none" stroke="midnightblue" d="M731.434,-420.888C738.67,-471.198 764.733,-604.462 844,-674 849.05,-678.43 854.816,-682.082 860.94,-685.092"/>
<polygon fill="midnightblue" stroke="midnightblue" points="734.868,-420.156 730.07,-410.71 727.93,-421.087 734.868,-420.156"/>
</g>
<!-- Node11 -->
<g id="node11" class="node"><title>Node11</title>
<g id="a_node11"><a xlink:href="../../d9/df7/classcontroller_1_1_controller.html#aec5e242ff69899c974dbd6302510f70b" target="_top" xlink:title="controller.Controller.processFile">
<polygon fill="white" stroke="black" points="853.5,-645.5 853.5,-664.5 1018.5,-664.5 1018.5,-645.5 853.5,-645.5"/>
<text text-anchor="middle" x="936" y="-652.5" font-family="Helvetica,sans-Serif" font-size="10.00">controller.Controller.processFile</text>
</a>
</g>
</g>
<!-- Node4&#45;&gt;Node11 -->
<g id="edge10" class="edge"><title>Node4&#45;&gt;Node11</title>
<path fill="none" stroke="midnightblue" d="M732.607,-420.852C742.017,-466.61 771.777,-579.859 844,-636 848.842,-639.764 854.252,-642.829 859.954,-645.32"/>
<polygon fill="midnightblue" stroke="midnightblue" points="736.031,-420.125 730.682,-410.98 729.16,-421.465 736.031,-420.125"/>
</g>
<!-- Node16 -->
<g id="node16" class="node"><title>Node16</title>
<g id="a_node16"><a xlink:href="../../d1/d01/classparser_1_1tests_1_1_boolean_tester.html#ab009444f79be316835e50742f06550a9" target="_top" xlink:title="parser.tests.BooleanTester.testAnd">
<polygon fill="white" stroke="black" points="844,-607.5 844,-626.5 1028,-626.5 1028,-607.5 844,-607.5"/>
<text text-anchor="middle" x="936" y="-614.5" font-family="Helvetica,sans-Serif" font-size="10.00">parser.tests.BooleanTester.testAnd</text>
</a>
</g>
</g>
<!-- Node4&#45;&gt;Node16 -->
<g id="edge16" class="edge"><title>Node4&#45;&gt;Node16</title>
<path fill="none" stroke="midnightblue" d="M734.58,-420.444C747.081,-460.32 781.272,-551.43 844,-597 849.889,-601.278 856.52,-604.67 863.449,-607.356"/>
<polygon fill="midnightblue" stroke="midnightblue" points="737.861,-419.2 731.624,-410.636 731.159,-421.22 737.861,-419.2"/>
</g>
<!-- Node17 -->
<g id="node17" class="node"><title>Node17</title>
<g id="a_node17"><a xlink:href="../../d3/d64/classparser_1_1tests_1_1_math_tester.html#a1677c0f6237b5c48799087b702e713ca" target="_top" xlink:title="parser.tests.MathTester.test\lDifference">
<polygon fill="white" stroke="black" points="861,-558 861,-588 1011,-588 1011,-558 861,-558"/>
<text text-anchor="start" x="869" y="-576" font-family="Helvetica,sans-Serif" font-size="10.00">parser.tests.MathTester.test</text>
<text text-anchor="middle" x="936" y="-565" font-family="Helvetica,sans-Serif" font-size="10.00">Difference</text>
</a>
</g>
</g>
<!-- Node4&#45;&gt;Node17 -->
<g id="edge17" class="edge"><title>Node4&#45;&gt;Node17</title>
<path fill="none" stroke="midnightblue" d="M738.383,-419.615C755.171,-450.994 793.382,-514.29 844,-548 849.864,-551.905 856.325,-555.204 863.018,-557.989"/>
<polygon fill="midnightblue" stroke="midnightblue" points="741.423,-417.875 733.696,-410.626 735.216,-421.111 741.423,-417.875"/>
</g>
<!-- Node18 -->
<g id="node18" class="node"><title>Node18</title>
<g id="a_node18"><a xlink:href="../../d1/d01/classparser_1_1tests_1_1_boolean_tester.html#a99be1a3a9584ed717090f5bb310bdae0" target="_top" xlink:title="parser.tests.BooleanTester.test\lEqual">
<polygon fill="white" stroke="black" points="853.5,-509 853.5,-539 1018.5,-539 1018.5,-509 853.5,-509"/>
<text text-anchor="start" x="861.5" y="-527" font-family="Helvetica,sans-Serif" font-size="10.00">parser.tests.BooleanTester.test</text>
<text text-anchor="middle" x="936" y="-516" font-family="Helvetica,sans-Serif" font-size="10.00">Equal</text>
</a>
</g>
</g>
<!-- Node4&#45;&gt;Node18 -->
<g id="edge18" class="edge"><title>Node4&#45;&gt;Node18</title>
<path fill="none" stroke="midnightblue" d="M744.495,-418.226C765.122,-440.132 803.709,-477.668 844,-499 851.24,-502.833 859.123,-506.123 867.122,-508.935"/>
<polygon fill="midnightblue" stroke="midnightblue" points="746.861,-415.629 737.502,-410.662 741.72,-420.381 746.861,-415.629"/>
</g>
<!-- Node19 -->
<g id="node19" class="node"><title>Node19</title>
<g id="a_node19"><a xlink:href="../../d1/d01/classparser_1_1tests_1_1_boolean_tester.html#ad5101fc213b8aeaa37baf5e3b5868d9d" target="_top" xlink:title="parser.tests.BooleanTester.test\lGreaterThan">
<polygon fill="white" stroke="black" points="853.5,-460 853.5,-490 1018.5,-490 1018.5,-460 853.5,-460"/>
<text text-anchor="start" x="861.5" y="-478" font-family="Helvetica,sans-Serif" font-size="10.00">parser.tests.BooleanTester.test</text>
<text text-anchor="middle" x="936" y="-467" font-family="Helvetica,sans-Serif" font-size="10.00">GreaterThan</text>
</a>
</g>
</g>
<!-- Node4&#45;&gt;Node19 -->
<g id="edge19" class="edge"><title>Node4&#45;&gt;Node19</title>
<path fill="none" stroke="midnightblue" d="M758.234,-414.751C781.225,-425.247 814.235,-439.623 844,-450 854.056,-453.506 864.872,-456.843 875.414,-459.871"/>
<polygon fill="midnightblue" stroke="midnightblue" points="759.581,-411.518 749.033,-410.513 756.652,-417.876 759.581,-411.518"/>
</g>
<!-- Node20 -->
<g id="node20" class="node"><title>Node20</title>
<g id="a_node20"><a xlink:href="../../d1/d01/classparser_1_1tests_1_1_boolean_tester.html#a828f5f4183434799d083a68a00791dba" target="_top" xlink:title="parser.tests.BooleanTester.test\lLessThan">
<polygon fill="white" stroke="black" points="853.5,-411 853.5,-441 1018.5,-441 1018.5,-411 853.5,-411"/>
<text text-anchor="start" x="861.5" y="-429" font-family="Helvetica,sans-Serif" font-size="10.00">parser.tests.BooleanTester.test</text>
<text text-anchor="middle" x="936" y="-418" font-family="Helvetica,sans-Serif" font-size="10.00">LessThan</text>
</a>
</g>
</g>
<!-- Node4&#45;&gt;Node20 -->
<g id="edge20" class="edge"><title>Node4&#45;&gt;Node20</title>
<path fill="none" stroke="midnightblue" d="M817.408,-411.729C829.335,-413.177 841.527,-414.656 853.329,-416.088"/>
<polygon fill="midnightblue" stroke="midnightblue" points="817.816,-408.253 807.467,-410.523 816.973,-415.202 817.816,-408.253"/>
</g>
<!-- Node21 -->
<g id="node21" class="node"><title>Node21</title>
<g id="a_node21"><a xlink:href="../../d3/d64/classparser_1_1tests_1_1_math_tester.html#a06cade99788206056814bc20735cd193" target="_top" xlink:title="parser.tests.MathTester.test\lMinus">
<polygon fill="white" stroke="black" points="861,-362 861,-392 1011,-392 1011,-362 861,-362"/>
<text text-anchor="start" x="869" y="-380" font-family="Helvetica,sans-Serif" font-size="10.00">parser.tests.MathTester.test</text>
<text text-anchor="middle" x="936" y="-369" font-family="Helvetica,sans-Serif" font-size="10.00">Minus</text>
</a>
</g>
</g>
<!-- Node4&#45;&gt;Node21 -->
<g id="edge21" class="edge"><title>Node4&#45;&gt;Node21</title>
<path fill="none" stroke="midnightblue" d="M818.04,-390.626C832.265,-388.969 846.852,-387.27 860.689,-385.658"/>
<polygon fill="midnightblue" stroke="midnightblue" points="817.289,-387.19 807.762,-391.824 818.099,-394.143 817.289,-387.19"/>
</g>
<!-- Node22 -->
<g id="node22" class="node"><title>Node22</title>
<g id="a_node22"><a xlink:href="../../d1/d01/classparser_1_1tests_1_1_boolean_tester.html#a402bae747c40cf9030ea6e85a44b10d2" target="_top" xlink:title="parser.tests.BooleanTester.testNot">
<polygon fill="white" stroke="black" points="845,-323.5 845,-342.5 1027,-342.5 1027,-323.5 845,-323.5"/>
<text text-anchor="middle" x="936" y="-330.5" font-family="Helvetica,sans-Serif" font-size="10.00">parser.tests.BooleanTester.testNot</text>
</a>
</g>
</g>
<!-- Node4&#45;&gt;Node22 -->
<g id="edge22" class="edge"><title>Node4&#45;&gt;Node22</title>
<path fill="none" stroke="midnightblue" d="M758.122,-387.135C781.051,-376.64 814.034,-362.463 844,-353 856.803,-348.957 870.869,-345.433 884.035,-342.517"/>
<polygon fill="midnightblue" stroke="midnightblue" points="756.552,-384.005 748.949,-391.383 759.494,-390.357 756.552,-384.005"/>
</g>
<!-- Node23 -->
<g id="node23" class="node"><title>Node23</title>
<g id="a_node23"><a xlink:href="../../d1/d01/classparser_1_1tests_1_1_boolean_tester.html#ac0deac7b7ba9e48e30a9ed6cff134d09" target="_top" xlink:title="parser.tests.BooleanTester.test\lNotEqual">
<polygon fill="white" stroke="black" points="853.5,-274 853.5,-304 1018.5,-304 1018.5,-274 853.5,-274"/>
<text text-anchor="start" x="861.5" y="-292" font-family="Helvetica,sans-Serif" font-size="10.00">parser.tests.BooleanTester.test</text>
<text text-anchor="middle" x="936" y="-281" font-family="Helvetica,sans-Serif" font-size="10.00">NotEqual</text>
</a>
</g>
</g>
<!-- Node4&#45;&gt;Node23 -->
<g id="edge23" class="edge"><title>Node4&#45;&gt;Node23</title>
<path fill="none" stroke="midnightblue" d="M746.479,-384.339C767.863,-364.816 805.937,-332.758 844,-314 851.642,-310.234 859.934,-306.966 868.297,-304.15"/>
<polygon fill="midnightblue" stroke="midnightblue" points="743.831,-382.021 738.885,-391.39 748.594,-387.151 743.831,-382.021"/>
</g>
<!-- Node24 -->
<g id="node24" class="node"><title>Node24</title>
<g id="a_node24"><a xlink:href="../../d1/d01/classparser_1_1tests_1_1_boolean_tester.html#a733a8bed2ef17160461077bd2e53490c" target="_top" xlink:title="parser.tests.BooleanTester.testOr">
<polygon fill="white" stroke="black" points="848,-235.5 848,-254.5 1024,-254.5 1024,-235.5 848,-235.5"/>
<text text-anchor="middle" x="936" y="-242.5" font-family="Helvetica,sans-Serif" font-size="10.00">parser.tests.BooleanTester.testOr</text>
</a>
</g>
</g>
<!-- Node4&#45;&gt;Node24 -->
<g id="edge24" class="edge"><title>Node4&#45;&gt;Node24</title>
<path fill="none" stroke="midnightblue" d="M739.304,-382.273C756.738,-352.457 794.992,-294.551 844,-265 851.203,-260.657 859.235,-257.253 867.461,-254.585"/>
<polygon fill="midnightblue" stroke="midnightblue" points="736.113,-380.805 734.205,-391.227 742.195,-384.27 736.113,-380.805"/>
</g>
<!-- Node25 -->
<g id="node25" class="node"><title>Node25</title>
<g id="a_node25"><a xlink:href="../../d3/d64/classparser_1_1tests_1_1_math_tester.html#af3c9e732ab91e0cad71ea7cd66a7a0d4" target="_top" xlink:title="parser.tests.MathTester.test\lProduct">
<polygon fill="white" stroke="black" points="861,-186 861,-216 1011,-216 1011,-186 861,-186"/>
<text text-anchor="start" x="869" y="-204" font-family="Helvetica,sans-Serif" font-size="10.00">parser.tests.MathTester.test</text>
<text text-anchor="middle" x="936" y="-193" font-family="Helvetica,sans-Serif" font-size="10.00">Product</text>
</a>
</g>
</g>
<!-- Node4&#45;&gt;Node25 -->
<g id="edge25" class="edge"><title>Node4&#45;&gt;Node25</title>
<path fill="none" stroke="midnightblue" d="M736.167,-381.893C750.725,-345.739 787.268,-267.257 844,-226 849.3,-222.146 855.166,-218.885 861.291,-216.128"/>
<polygon fill="midnightblue" stroke="midnightblue" points="732.876,-380.697 732.5,-391.285 739.397,-383.243 732.876,-380.697"/>
</g>
<!-- Node26 -->
<g id="node26" class="node"><title>Node26</title>
<g id="a_node26"><a xlink:href="../../d3/d64/classparser_1_1tests_1_1_math_tester.html#a0bee886e0100c55a64fb804fa462e079" target="_top" xlink:title="parser.tests.MathTester.test\lQuotient">
<polygon fill="white" stroke="black" points="861,-137 861,-167 1011,-167 1011,-137 861,-137"/>
<text text-anchor="start" x="869" y="-155" font-family="Helvetica,sans-Serif" font-size="10.00">parser.tests.MathTester.test</text>
<text text-anchor="middle" x="936" y="-144" font-family="Helvetica,sans-Serif" font-size="10.00">Quotient</text>
</a>
</g>
</g>
<!-- Node4&#45;&gt;Node26 -->
<g id="edge26" class="edge"><title>Node4&#45;&gt;Node26</title>
<path fill="none" stroke="midnightblue" d="M733.421,-381.2C744.244,-337.44 776.272,-232.027 844,-177 849.086,-172.867 854.805,-169.416 860.834,-166.534"/>
<polygon fill="midnightblue" stroke="midnightblue" points="729.963,-380.616 731.068,-391.153 736.775,-382.227 729.963,-380.616"/>
</g>
<!-- Node27 -->
<g id="node27" class="node"><title>Node27</title>
<g id="a_node27"><a xlink:href="../../d3/d64/classparser_1_1tests_1_1_math_tester.html#a0834a1beeeb3689ab52b3523b1ec053e" target="_top" xlink:title="parser.tests.MathTester.test\lRandom">
<polygon fill="white" stroke="black" points="861,-88 861,-118 1011,-118 1011,-88 861,-88"/>
<text text-anchor="start" x="869" y="-106" font-family="Helvetica,sans-Serif" font-size="10.00">parser.tests.MathTester.test</text>
<text text-anchor="middle" x="936" y="-95" font-family="Helvetica,sans-Serif" font-size="10.00">Random</text>
</a>
</g>
</g>
<!-- Node4&#45;&gt;Node27 -->
<g id="edge27" class="edge"><title>Node4&#45;&gt;Node27</title>
<path fill="none" stroke="midnightblue" d="M731.434,-381.112C738.67,-330.802 764.733,-197.538 844,-128 849.05,-123.57 854.816,-119.918 860.94,-116.908"/>
<polygon fill="midnightblue" stroke="midnightblue" points="727.93,-380.913 730.07,-391.29 734.868,-381.844 727.93,-380.913"/>
</g>
<!-- Node28 -->
<g id="node28" class="node"><title>Node28</title>
<g id="a_node28"><a xlink:href="../../d3/d64/classparser_1_1tests_1_1_math_tester.html#aeba46a296188edda903e21c6be23bdd8" target="_top" xlink:title="parser.tests.MathTester.test\lRemainder">
<polygon fill="white" stroke="black" points="861,-39 861,-69 1011,-69 1011,-39 861,-39"/>
<text text-anchor="start" x="869" y="-57" font-family="Helvetica,sans-Serif" font-size="10.00">parser.tests.MathTester.test</text>
<text text-anchor="middle" x="936" y="-46" font-family="Helvetica,sans-Serif" font-size="10.00">Remainder</text>
</a>
</g>
</g>
<!-- Node4&#45;&gt;Node28 -->
<g id="edge28" class="edge"><title>Node4&#45;&gt;Node28</title>
<path fill="none" stroke="midnightblue" d="M729.977,-381.41C733.852,-325.471 752.805,-163.607 844,-79 848.924,-74.4313 854.606,-70.6847 860.675,-67.6142"/>
<polygon fill="midnightblue" stroke="midnightblue" points="726.483,-381.21 729.372,-391.403 733.47,-381.633 726.483,-381.21"/>
</g>
<!-- Node29 -->
<g id="node29" class="node"><title>Node29</title>
<g id="a_node29"><a xlink:href="../../d3/d64/classparser_1_1tests_1_1_math_tester.html#a0059e207747b76f3579b4218cfe7c5dc" target="_top" xlink:title="parser.tests.MathTester.testSum">
<polygon fill="white" stroke="black" points="849.5,-0.5 849.5,-19.5 1022.5,-19.5 1022.5,-0.5 849.5,-0.5"/>
<text text-anchor="middle" x="936" y="-7.5" font-family="Helvetica,sans-Serif" font-size="10.00">parser.tests.MathTester.testSum</text>
</a>
</g>
</g>
<!-- Node4&#45;&gt;Node29 -->
<g id="edge29" class="edge"><title>Node4&#45;&gt;Node29</title>
<path fill="none" stroke="midnightblue" d="M728.693,-381.155C728.882,-319.1 738.356,-127.099 844,-30 848.645,-25.731 853.986,-22.2985 859.704,-19.5468"/>
<polygon fill="midnightblue" stroke="midnightblue" points="725.195,-381.493 728.75,-391.473 732.195,-381.454 725.195,-381.493"/>
</g>
<!-- Node6 -->
<g id="node6" class="node"><title>Node6</title>
<g id="a_node6"><a xlink:href="../../d7/dde/classparser_1_1_main.html#ac3abd936d94632f17feedf0cce82afff" target="_top" xlink:title="parser.Main.main">
<polygon fill="white" stroke="black" points="1081.5,-771.5 1081.5,-790.5 1180.5,-790.5 1180.5,-771.5 1081.5,-771.5"/>
<text text-anchor="middle" x="1131" y="-778.5" font-family="Helvetica,sans-Serif" font-size="10.00">parser.Main.main</text>
</a>
</g>
</g>
<!-- Node5&#45;&gt;Node6 -->
<g id="edge5" class="edge"><title>Node5&#45;&gt;Node6</title>
<path fill="none" stroke="midnightblue" d="M1005.37,-781C1030.47,-781 1058.36,-781 1081.38,-781"/>
<polygon fill="midnightblue" stroke="midnightblue" points="1005.17,-777.5 995.168,-781 1005.17,-784.5 1005.17,-777.5"/>
</g>
<!-- Node9 -->
<g id="node9" class="node"><title>Node9</title>
<g id="a_node9"><a xlink:href="../../d9/df7/classcontroller_1_1_controller.html#a2bfb87bca460d87b2c97e0b5045a2175" target="_top" xlink:title="controller.Controller.create\lRunCommandListener">
<polygon fill="white" stroke="black" points="1234.5,-686 1234.5,-716 1377.5,-716 1377.5,-686 1234.5,-686"/>
<text text-anchor="start" x="1242.5" y="-704" font-family="Helvetica,sans-Serif" font-size="10.00">controller.Controller.create</text>
<text text-anchor="middle" x="1306" y="-693" font-family="Helvetica,sans-Serif" font-size="10.00">RunCommandListener</text>
</a>
</g>
</g>
<!-- Node8&#45;&gt;Node9 -->
<g id="edge8" class="edge"><title>Node8&#45;&gt;Node9</title>
<path fill="none" stroke="midnightblue" d="M1021.16,-699.457C1085.57,-699.807 1173.39,-700.285 1234.21,-700.615"/>
<polygon fill="midnightblue" stroke="midnightblue" points="1021.05,-695.957 1011.03,-699.402 1021.01,-702.957 1021.05,-695.957"/>
</g>
<!-- Node10 -->
<g id="node10" class="node"><title>Node10</title>
<g id="a_node10"><a xlink:href="../../d9/df7/classcontroller_1_1_controller.html#a47511ec57338c8e75e71e9314cda5271" target="_top" xlink:title="controller.Controller.Controller">
<polygon fill="white" stroke="black" points="1774.5,-667.5 1774.5,-686.5 1933.5,-686.5 1933.5,-667.5 1774.5,-667.5"/>
<text text-anchor="middle" x="1854" y="-674.5" font-family="Helvetica,sans-Serif" font-size="10.00">controller.Controller.Controller</text>
</a>
</g>
</g>
<!-- Node9&#45;&gt;Node10 -->
<g id="edge9" class="edge"><title>Node9&#45;&gt;Node10</title>
<path fill="none" stroke="midnightblue" d="M1387.67,-697.454C1491.64,-692.884 1671.25,-684.989 1774.27,-680.461"/>
<polygon fill="midnightblue" stroke="midnightblue" points="1387.38,-693.963 1377.54,-697.899 1387.69,-700.957 1387.38,-693.963"/>
</g>
<!-- Node12 -->
<g id="node12" class="node"><title>Node12</title>
<g id="a_node12"><a xlink:href="../../d9/df7/classcontroller_1_1_controller.html#a37c3009658f66dc4de0be01b75adf660" target="_top" xlink:title="controller.Controller.load\lWorkspace">
<polygon fill="white" stroke="black" points="1064.5,-638 1064.5,-668 1197.5,-668 1197.5,-638 1064.5,-638"/>
<text text-anchor="start" x="1072.5" y="-656" font-family="Helvetica,sans-Serif" font-size="10.00">controller.Controller.load</text>
<text text-anchor="middle" x="1131" y="-645" font-family="Helvetica,sans-Serif" font-size="10.00">Workspace</text>
</a>
</g>
</g>
<!-- Node11&#45;&gt;Node12 -->
<g id="edge11" class="edge"><title>Node11&#45;&gt;Node12</title>
<path fill="none" stroke="midnightblue" d="M1028.62,-654.051C1040.63,-653.926 1052.74,-653.801 1064.21,-653.682"/>
<polygon fill="midnightblue" stroke="midnightblue" points="1028.53,-650.551 1018.57,-654.155 1028.61,-657.551 1028.53,-650.551"/>
</g>
<!-- Node13 -->
<g id="node13" class="node"><title>Node13</title>
<g id="a_node13"><a xlink:href="../../d9/df7/classcontroller_1_1_controller.html#aa46804b9ca132af8504b5dafb1cadb0d" target="_top" xlink:title="controller.Controller.create\lFileCommands">
<polygon fill="white" stroke="black" points="1234.5,-637 1234.5,-667 1377.5,-667 1377.5,-637 1234.5,-637"/>
<text text-anchor="start" x="1242.5" y="-655" font-family="Helvetica,sans-Serif" font-size="10.00">controller.Controller.create</text>
<text text-anchor="middle" x="1306" y="-644" font-family="Helvetica,sans-Serif" font-size="10.00">FileCommands</text>
</a>
</g>
</g>
<!-- Node12&#45;&gt;Node13 -->
<g id="edge12" class="edge"><title>Node12&#45;&gt;Node13</title>
<path fill="none" stroke="midnightblue" d="M1208.08,-652.56C1216.83,-652.51 1225.72,-652.458 1234.39,-652.408"/>
<polygon fill="midnightblue" stroke="midnightblue" points="1207.88,-649.061 1197.9,-652.619 1207.92,-656.061 1207.88,-649.061"/>
</g>
<!-- Node14 -->
<g id="node14" class="node"><title>Node14</title>
<g id="a_node14"><a xlink:href="../../d9/df7/classcontroller_1_1_controller.html#af4c05286f1534b1fa6de523c54549288" target="_top" xlink:title="controller.Controller.create\lFileMenu">
<polygon fill="white" stroke="black" points="1414.5,-639 1414.5,-669 1557.5,-669 1557.5,-639 1414.5,-639"/>
<text text-anchor="start" x="1422.5" y="-657" font-family="Helvetica,sans-Serif" font-size="10.00">controller.Controller.create</text>
<text text-anchor="middle" x="1486" y="-646" font-family="Helvetica,sans-Serif" font-size="10.00">FileMenu</text>
</a>
</g>
</g>
<!-- Node13&#45;&gt;Node14 -->
<g id="edge13" class="edge"><title>Node13&#45;&gt;Node14</title>
<path fill="none" stroke="midnightblue" d="M1387.65,-652.906C1396.6,-653.007 1405.67,-653.109 1414.48,-653.208"/>
<polygon fill="midnightblue" stroke="midnightblue" points="1387.64,-649.406 1377.61,-652.793 1387.57,-656.406 1387.64,-649.406"/>
</g>
<!-- Node15 -->
<g id="node15" class="node"><title>Node15</title>
<g id="a_node15"><a xlink:href="../../d9/df7/classcontroller_1_1_controller.html#a2901bf43bb8e47b485558dbf00d40d6d" target="_top" xlink:title="controller.Controller.create\lJMenuBar">
<polygon fill="white" stroke="black" points="1594.5,-640 1594.5,-670 1737.5,-670 1737.5,-640 1594.5,-640"/>
<text text-anchor="start" x="1602.5" y="-658" font-family="Helvetica,sans-Serif" font-size="10.00">controller.Controller.create</text>
<text text-anchor="middle" x="1666" y="-647" font-family="Helvetica,sans-Serif" font-size="10.00">JMenuBar</text>
</a>
</g>
</g>
<!-- Node14&#45;&gt;Node15 -->
<g id="edge14" class="edge"><title>Node14&#45;&gt;Node15</title>
<path fill="none" stroke="midnightblue" d="M1567.65,-654.453C1576.6,-654.503 1585.67,-654.554 1594.48,-654.604"/>
<polygon fill="midnightblue" stroke="midnightblue" points="1567.63,-650.953 1557.61,-654.397 1567.59,-657.953 1567.63,-650.953"/>
</g>
<!-- Node15&#45;&gt;Node10 -->
<g id="edge15" class="edge"><title>Node15&#45;&gt;Node10</title>
<path fill="none" stroke="midnightblue" d="M1747.55,-664.527C1756.45,-665.58 1765.5,-666.651 1774.38,-667.701"/>
<polygon fill="midnightblue" stroke="midnightblue" points="1747.93,-661.048 1737.58,-663.349 1747.1,-667.999 1747.93,-661.048"/>
</g>
</g>
</svg>
