<?xml version="1.0" encoding="UTF-8" standalone="no"?>
<!DOCTYPE svg PUBLIC "-//W3C//DTD SVG 1.1//EN"
 "http://www.w3.org/Graphics/SVG/1.1/DTD/svg11.dtd">
<!-- Generated by graphviz version 2.36.0 (20140111.2315)
 -->
<!-- Title: parser.nodes.NodeInformation.setToken Pages: 1 -->
<svg width="1910pt" height="799pt"
 viewBox="0.00 0.00 1910.00 799.00" xmlns="http://www.w3.org/2000/svg" xmlns:xlink="http://www.w3.org/1999/xlink">
<g id="graph0" class="graph" transform="scale(1 1) rotate(0) translate(4 795)">
<title>parser.nodes.NodeInformation.setToken</title>
<polygon fill="white" stroke="none" points="-4,4 -4,-795 1906,-795 1906,4 -4,4"/>
<!-- Node1 -->
<g id="node1" class="node"><title>Node1</title>
<polygon fill="#bfbfbf" stroke="black" points="0,-386 0,-416 180,-416 180,-386 0,-386"/>
<text text-anchor="start" x="8" y="-404" font-family="Helvetica,sans-Serif" font-size="10.00">parser.nodes.NodeInformation.set</text>
<text text-anchor="middle" x="90" y="-393" font-family="Helvetica,sans-Serif" font-size="10.00">Token</text>
</g>
<!-- Node2 -->
<g id="node2" class="node"><title>Node2</title>
<g id="a_node2"><a xlink:href="../../df/daf/classparser_1_1_semantics_table.html#aab459a521d748abf6058d243b8714d32" target="_top" xlink:title="parser.SemanticsTable.get\lTokenClass">
<polygon fill="white" stroke="black" points="216.5,-386 216.5,-416 359.5,-416 359.5,-386 216.5,-386"/>
<text text-anchor="start" x="224.5" y="-404" font-family="Helvetica,sans-Serif" font-size="10.00">parser.SemanticsTable.get</text>
<text text-anchor="middle" x="288" y="-393" font-family="Helvetica,sans-Serif" font-size="10.00">TokenClass</text>
</a>
</g>
</g>
<!-- Node1&#45;&gt;Node2 -->
<g id="edge1" class="edge"><title>Node1&#45;&gt;Node2</title>
<path fill="none" stroke="midnightblue" d="M190.376,-401C199.13,-401 207.868,-401 216.313,-401"/>
<polygon fill="midnightblue" stroke="midnightblue" points="190.111,-397.5 180.11,-401 190.11,-404.5 190.111,-397.5"/>
</g>
<!-- Node3 -->
<g id="node3" class="node"><title>Node3</title>
<g id="a_node3"><a xlink:href="../../d7/d0d/classparser_1_1_semantics_checker.html#a8620f3090287a61f86765ee920d53de0" target="_top" xlink:title="parser.SemanticsChecker.evaluate\lExpression">
<polygon fill="white" stroke="black" points="396.5,-386 396.5,-416 579.5,-416 579.5,-386 396.5,-386"/>
<text text-anchor="start" x="404.5" y="-404" font-family="Helvetica,sans-Serif" font-size="10.00">parser.SemanticsChecker.evaluate</text>
<text text-anchor="middle" x="488" y="-393" font-family="Helvetica,sans-Serif" font-size="10.00">Expression</text>
</a>
</g>
</g>
<!-- Node2&#45;&gt;Node3 -->
<g id="edge2" class="edge"><title>Node2&#45;&gt;Node3</title>
<path fill="none" stroke="midnightblue" d="M369.795,-401C378.533,-401 387.467,-401 396.312,-401"/>
<polygon fill="midnightblue" stroke="midnightblue" points="369.644,-397.5 359.644,-401 369.644,-404.5 369.644,-397.5"/>
</g>
<!-- Node4 -->
<g id="node4" class="node"><title>Node4</title>
<g id="a_node4"><a xlink:href="../../d6/d95/classparser_1_1_parser.html#ac0cfecef1d5308df35c49519d94f85a5" target="_top" xlink:title="parser.Parser.parseCommand">
<polygon fill="white" stroke="black" points="616.5,-391.5 616.5,-410.5 775.5,-410.5 775.5,-391.5 616.5,-391.5"/>
<text text-anchor="middle" x="696" y="-398.5" font-family="Helvetica,sans-Serif" font-size="10.00">parser.Parser.parseCommand</text>
</a>
</g>
</g>
<!-- Node3&#45;&gt;Node4 -->
<g id="edge3" class="edge"><title>Node3&#45;&gt;Node4</title>
<path fill="none" stroke="midnightblue" d="M589.699,-401C598.616,-401 607.557,-401 616.253,-401"/>
<polygon fill="midnightblue" stroke="midnightblue" points="589.654,-397.5 579.654,-401 589.654,-404.5 589.654,-397.5"/>
</g>
<!-- Node5 -->
<g id="node5" class="node"><title>Node5</title>
<g id="a_node5"><a xlink:href="../../d7/dde/classparser_1_1_main.html#a75a40fb31f3397122c167e54e6e233c1" target="_top" xlink:title="parser.Main.checkFile">
<polygon fill="white" stroke="black" points="845,-771.5 845,-790.5 963,-790.5 963,-771.5 845,-771.5"/>
<text text-anchor="middle" x="904" y="-778.5" font-family="Helvetica,sans-Serif" font-size="10.00">parser.Main.checkFile</text>
</a>
</g>
</g>
<!-- Node4&#45;&gt;Node5 -->
<g id="edge4" class="edge"><title>Node4&#45;&gt;Node5</title>
<path fill="none" stroke="midnightblue" d="M696.846,-420.774C697.514,-481.76 708.317,-668.441 812,-762 821.106,-770.217 832.826,-775.23 844.805,-778.217"/>
<polygon fill="midnightblue" stroke="midnightblue" points="700.345,-420.599 696.821,-410.608 693.345,-420.616 700.345,-420.599"/>
</g>
<!-- Node7 -->
<g id="node7" class="node"><title>Node7</title>
<g id="a_node7"><a xlink:href="../../d6/d95/classparser_1_1_parser.html#afc96f83c32dde8c90fdab91dd543dddf" target="_top" xlink:title="parser.Parser.parseCommand">
<polygon fill="white" stroke="black" points="824.5,-733.5 824.5,-752.5 983.5,-752.5 983.5,-733.5 824.5,-733.5"/>
<text text-anchor="middle" x="904" y="-740.5" font-family="Helvetica,sans-Serif" font-size="10.00">parser.Parser.parseCommand</text>
</a>
</g>
</g>
<!-- Node4&#45;&gt;Node7 -->
<g id="edge6" class="edge"><title>Node4&#45;&gt;Node7</title>
<path fill="none" stroke="midnightblue" d="M697.764,-420.826C701.069,-477.396 718.645,-640.781 812,-723 816.856,-727.276 822.416,-730.705 828.341,-733.446"/>
<polygon fill="midnightblue" stroke="midnightblue" points="701.254,-420.531 697.264,-410.716 694.262,-420.877 701.254,-420.531"/>
</g>
<!-- Node8 -->
<g id="node8" class="node"><title>Node8</title>
<g id="a_node8"><a xlink:href="../../d9/df7/classcontroller_1_1_controller.html#a89b63f37e67efbeddda1f247016c837b" target="_top" xlink:title="controller.Controller.process\lCommand">
<polygon fill="white" stroke="black" points="829,-684 829,-714 979,-714 979,-684 829,-684"/>
<text text-anchor="start" x="837" y="-702" font-family="Helvetica,sans-Serif" font-size="10.00">controller.Controller.process</text>
<text text-anchor="middle" x="904" y="-691" font-family="Helvetica,sans-Serif" font-size="10.00">Command</text>
</a>
</g>
</g>
<!-- Node4&#45;&gt;Node8 -->
<g id="edge7" class="edge"><title>Node4&#45;&gt;Node8</title>
<path fill="none" stroke="midnightblue" d="M699.434,-420.888C706.67,-471.198 732.733,-604.462 812,-674 817.05,-678.43 822.816,-682.082 828.94,-685.092"/>
<polygon fill="midnightblue" stroke="midnightblue" points="702.868,-420.156 698.07,-410.71 695.93,-421.087 702.868,-420.156"/>
</g>
<!-- Node11 -->
<g id="node11" class="node"><title>Node11</title>
<g id="a_node11"><a xlink:href="../../d9/df7/classcontroller_1_1_controller.html#aec5e242ff69899c974dbd6302510f70b" target="_top" xlink:title="controller.Controller.processFile">
<polygon fill="white" stroke="black" points="821.5,-645.5 821.5,-664.5 986.5,-664.5 986.5,-645.5 821.5,-645.5"/>
<text text-anchor="middle" x="904" y="-652.5" font-family="Helvetica,sans-Serif" font-size="10.00">controller.Controller.processFile</text>
</a>
</g>
</g>
<!-- Node4&#45;&gt;Node11 -->
<g id="edge10" class="edge"><title>Node4&#45;&gt;Node11</title>
<path fill="none" stroke="midnightblue" d="M700.607,-420.852C710.017,-466.61 739.777,-579.859 812,-636 816.842,-639.764 822.252,-642.829 827.954,-645.32"/>
<polygon fill="midnightblue" stroke="midnightblue" points="704.031,-420.125 698.682,-410.98 697.16,-421.465 704.031,-420.125"/>
</g>
<!-- Node16 -->
<g id="node16" class="node"><title>Node16</title>
<g id="a_node16"><a xlink:href="../../d1/d01/classparser_1_1tests_1_1_boolean_tester.html#ab009444f79be316835e50742f06550a9" target="_top" xlink:title="parser.tests.BooleanTester.testAnd">
<polygon fill="white" stroke="black" points="812,-607.5 812,-626.5 996,-626.5 996,-607.5 812,-607.5"/>
<text text-anchor="middle" x="904" y="-614.5" font-family="Helvetica,sans-Serif" font-size="10.00">parser.tests.BooleanTester.testAnd</text>
</a>
</g>
</g>
<!-- Node4&#45;&gt;Node16 -->
<g id="edge16" class="edge"><title>Node4&#45;&gt;Node16</title>
<path fill="none" stroke="midnightblue" d="M702.58,-420.444C715.081,-460.32 749.272,-551.43 812,-597 817.889,-601.278 824.52,-604.67 831.449,-607.356"/>
<polygon fill="midnightblue" stroke="midnightblue" points="705.861,-419.2 699.624,-410.636 699.159,-421.22 705.861,-419.2"/>
</g>
<!-- Node17 -->
<g id="node17" class="node"><title>Node17</title>
<g id="a_node17"><a xlink:href="../../d3/d64/classparser_1_1tests_1_1_math_tester.html#a1677c0f6237b5c48799087b702e713ca" target="_top" xlink:title="parser.tests.MathTester.test\lDifference">
<polygon fill="white" stroke="black" points="829,-558 829,-588 979,-588 979,-558 829,-558"/>
<text text-anchor="start" x="837" y="-576" font-family="Helvetica,sans-Serif" font-size="10.00">parser.tests.MathTester.test</text>
<text text-anchor="middle" x="904" y="-565" font-family="Helvetica,sans-Serif" font-size="10.00">Difference</text>
</a>
</g>
</g>
<!-- Node4&#45;&gt;Node17 -->
<g id="edge17" class="edge"><title>Node4&#45;&gt;Node17</title>
<path fill="none" stroke="midnightblue" d="M706.383,-419.615C723.171,-450.994 761.382,-514.29 812,-548 817.864,-551.905 824.325,-555.204 831.018,-557.989"/>
<polygon fill="midnightblue" stroke="midnightblue" points="709.423,-417.875 701.696,-410.626 703.216,-421.111 709.423,-417.875"/>
</g>
<!-- Node18 -->
<g id="node18" class="node"><title>Node18</title>
<g id="a_node18"><a xlink:href="../../d1/d01/classparser_1_1tests_1_1_boolean_tester.html#a99be1a3a9584ed717090f5bb310bdae0" target="_top" xlink:title="parser.tests.BooleanTester.test\lEqual">
<polygon fill="white" stroke="black" points="821.5,-509 821.5,-539 986.5,-539 986.5,-509 821.5,-509"/>
<text text-anchor="start" x="829.5" y="-527" font-family="Helvetica,sans-Serif" font-size="10.00">parser.tests.BooleanTester.test</text>
<text text-anchor="middle" x="904" y="-516" font-family="Helvetica,sans-Serif" font-size="10.00">Equal</text>
</a>
</g>
</g>
<!-- Node4&#45;&gt;Node18 -->
<g id="edge18" class="edge"><title>Node4&#45;&gt;Node18</title>
<path fill="none" stroke="midnightblue" d="M712.495,-418.226C733.122,-440.132 771.709,-477.668 812,-499 819.24,-502.833 827.123,-506.123 835.122,-508.935"/>
<polygon fill="midnightblue" stroke="midnightblue" points="714.861,-415.629 705.502,-410.662 709.72,-420.381 714.861,-415.629"/>
</g>
<!-- Node19 -->
<g id="node19" class="node"><title>Node19</title>
<g id="a_node19"><a xlink:href="../../d1/d01/classparser_1_1tests_1_1_boolean_tester.html#ad5101fc213b8aeaa37baf5e3b5868d9d" target="_top" xlink:title="parser.tests.BooleanTester.test\lGreaterThan">
<polygon fill="white" stroke="black" points="821.5,-460 821.5,-490 986.5,-490 986.5,-460 821.5,-460"/>
<text text-anchor="start" x="829.5" y="-478" font-family="Helvetica,sans-Serif" font-size="10.00">parser.tests.BooleanTester.test</text>
<text text-anchor="middle" x="904" y="-467" font-family="Helvetica,sans-Serif" font-size="10.00">GreaterThan</text>
</a>
</g>
</g>
<!-- Node4&#45;&gt;Node19 -->
<g id="edge19" class="edge"><title>Node4&#45;&gt;Node19</title>
<path fill="none" stroke="midnightblue" d="M726.234,-414.751C749.225,-425.247 782.235,-439.623 812,-450 822.056,-453.506 832.872,-456.843 843.414,-459.871"/>
<polygon fill="midnightblue" stroke="midnightblue" points="727.581,-411.518 717.033,-410.513 724.652,-417.876 727.581,-411.518"/>
</g>
<!-- Node20 -->
<g id="node20" class="node"><title>Node20</title>
<g id="a_node20"><a xlink:href="../../d1/d01/classparser_1_1tests_1_1_boolean_tester.html#a828f5f4183434799d083a68a00791dba" target="_top" xlink:title="parser.tests.BooleanTester.test\lLessThan">
<polygon fill="white" stroke="black" points="821.5,-411 821.5,-441 986.5,-441 986.5,-411 821.5,-411"/>
<text text-anchor="start" x="829.5" y="-429" font-family="Helvetica,sans-Serif" font-size="10.00">parser.tests.BooleanTester.test</text>
<text text-anchor="middle" x="904" y="-418" font-family="Helvetica,sans-Serif" font-size="10.00">LessThan</text>
</a>
</g>
</g>
<!-- Node4&#45;&gt;Node20 -->
<g id="edge20" class="edge"><title>Node4&#45;&gt;Node20</title>
<path fill="none" stroke="midnightblue" d="M785.408,-411.729C797.335,-413.177 809.527,-414.656 821.329,-416.088"/>
<polygon fill="midnightblue" stroke="midnightblue" points="785.816,-408.253 775.467,-410.523 784.973,-415.202 785.816,-408.253"/>
</g>
<!-- Node21 -->
<g id="node21" class="node"><title>Node21</title>
<g id="a_node21"><a xlink:href="../../d3/d64/classparser_1_1tests_1_1_math_tester.html#a06cade99788206056814bc20735cd193" target="_top" xlink:title="parser.tests.MathTester.test\lMinus">
<polygon fill="white" stroke="black" points="829,-362 829,-392 979,-392 979,-362 829,-362"/>
<text text-anchor="start" x="837" y="-380" font-family="Helvetica,sans-Serif" font-size="10.00">parser.tests.MathTester.test</text>
<text text-anchor="middle" x="904" y="-369" font-family="Helvetica,sans-Serif" font-size="10.00">Minus</text>
</a>
</g>
</g>
<!-- Node4&#45;&gt;Node21 -->
<g id="edge21" class="edge"><title>Node4&#45;&gt;Node21</title>
<path fill="none" stroke="midnightblue" d="M786.04,-390.626C800.265,-388.969 814.852,-387.27 828.689,-385.658"/>
<polygon fill="midnightblue" stroke="midnightblue" points="785.289,-387.19 775.762,-391.824 786.099,-394.143 785.289,-387.19"/>
</g>
<!-- Node22 -->
<g id="node22" class="node"><title>Node22</title>
<g id="a_node22"><a xlink:href="../../d1/d01/classparser_1_1tests_1_1_boolean_tester.html#a402bae747c40cf9030ea6e85a44b10d2" target="_top" xlink:title="parser.tests.BooleanTester.testNot">
<polygon fill="white" stroke="black" points="813,-323.5 813,-342.5 995,-342.5 995,-323.5 813,-323.5"/>
<text text-anchor="middle" x="904" y="-330.5" font-family="Helvetica,sans-Serif" font-size="10.00">parser.tests.BooleanTester.testNot</text>
</a>
</g>
</g>
<!-- Node4&#45;&gt;Node22 -->
<g id="edge22" class="edge"><title>Node4&#45;&gt;Node22</title>
<path fill="none" stroke="midnightblue" d="M726.122,-387.135C749.051,-376.64 782.034,-362.463 812,-353 824.803,-348.957 838.869,-345.433 852.035,-342.517"/>
<polygon fill="midnightblue" stroke="midnightblue" points="724.552,-384.005 716.949,-391.383 727.494,-390.357 724.552,-384.005"/>
</g>
<!-- Node23 -->
<g id="node23" class="node"><title>Node23</title>
<g id="a_node23"><a xlink:href="../../d1/d01/classparser_1_1tests_1_1_boolean_tester.html#ac0deac7b7ba9e48e30a9ed6cff134d09" target="_top" xlink:title="parser.tests.BooleanTester.test\lNotEqual">
<polygon fill="white" stroke="black" points="821.5,-274 821.5,-304 986.5,-304 986.5,-274 821.5,-274"/>
<text text-anchor="start" x="829.5" y="-292" font-family="Helvetica,sans-Serif" font-size="10.00">parser.tests.BooleanTester.test</text>
<text text-anchor="middle" x="904" y="-281" font-family="Helvetica,sans-Serif" font-size="10.00">NotEqual</text>
</a>
</g>
</g>
<!-- Node4&#45;&gt;Node23 -->
<g id="edge23" class="edge"><title>Node4&#45;&gt;Node23</title>
<path fill="none" stroke="midnightblue" d="M714.479,-384.339C735.863,-364.816 773.937,-332.758 812,-314 819.642,-310.234 827.934,-306.966 836.297,-304.15"/>
<polygon fill="midnightblue" stroke="midnightblue" points="711.831,-382.021 706.885,-391.39 716.594,-387.151 711.831,-382.021"/>
</g>
<!-- Node24 -->
<g id="node24" class="node"><title>Node24</title>
<g id="a_node24"><a xlink:href="../../d1/d01/classparser_1_1tests_1_1_boolean_tester.html#a733a8bed2ef17160461077bd2e53490c" target="_top" xlink:title="parser.tests.BooleanTester.testOr">
<polygon fill="white" stroke="black" points="816,-235.5 816,-254.5 992,-254.5 992,-235.5 816,-235.5"/>
<text text-anchor="middle" x="904" y="-242.5" font-family="Helvetica,sans-Serif" font-size="10.00">parser.tests.BooleanTester.testOr</text>
</a>
</g>
</g>
<!-- Node4&#45;&gt;Node24 -->
<g id="edge24" class="edge"><title>Node4&#45;&gt;Node24</title>
<path fill="none" stroke="midnightblue" d="M707.304,-382.273C724.738,-352.457 762.992,-294.551 812,-265 819.203,-260.657 827.235,-257.253 835.461,-254.585"/>
<polygon fill="midnightblue" stroke="midnightblue" points="704.113,-380.805 702.205,-391.227 710.195,-384.27 704.113,-380.805"/>
</g>
<!-- Node25 -->
<g id="node25" class="node"><title>Node25</title>
<g id="a_node25"><a xlink:href="../../d3/d64/classparser_1_1tests_1_1_math_tester.html#af3c9e732ab91e0cad71ea7cd66a7a0d4" target="_top" xlink:title="parser.tests.MathTester.test\lProduct">
<polygon fill="white" stroke="black" points="829,-186 829,-216 979,-216 979,-186 829,-186"/>
<text text-anchor="start" x="837" y="-204" font-family="Helvetica,sans-Serif" font-size="10.00">parser.tests.MathTester.test</text>
<text text-anchor="middle" x="904" y="-193" font-family="Helvetica,sans-Serif" font-size="10.00">Product</text>
</a>
</g>
</g>
<!-- Node4&#45;&gt;Node25 -->
<g id="edge25" class="edge"><title>Node4&#45;&gt;Node25</title>
<path fill="none" stroke="midnightblue" d="M704.167,-381.893C718.725,-345.739 755.268,-267.257 812,-226 817.3,-222.146 823.166,-218.885 829.291,-216.128"/>
<polygon fill="midnightblue" stroke="midnightblue" points="700.876,-380.697 700.5,-391.285 707.397,-383.243 700.876,-380.697"/>
</g>
<!-- Node26 -->
<g id="node26" class="node"><title>Node26</title>
<g id="a_node26"><a xlink:href="../../d3/d64/classparser_1_1tests_1_1_math_tester.html#a0bee886e0100c55a64fb804fa462e079" target="_top" xlink:title="parser.tests.MathTester.test\lQuotient">
<polygon fill="white" stroke="black" points="829,-137 829,-167 979,-167 979,-137 829,-137"/>
<text text-anchor="start" x="837" y="-155" font-family="Helvetica,sans-Serif" font-size="10.00">parser.tests.MathTester.test</text>
<text text-anchor="middle" x="904" y="-144" font-family="Helvetica,sans-Serif" font-size="10.00">Quotient</text>
</a>
</g>
</g>
<!-- Node4&#45;&gt;Node26 -->
<g id="edge26" class="edge"><title>Node4&#45;&gt;Node26</title>
<path fill="none" stroke="midnightblue" d="M701.421,-381.2C712.244,-337.44 744.272,-232.027 812,-177 817.086,-172.867 822.805,-169.416 828.834,-166.534"/>
<polygon fill="midnightblue" stroke="midnightblue" points="697.963,-380.616 699.068,-391.153 704.775,-382.227 697.963,-380.616"/>
</g>
<!-- Node27 -->
<g id="node27" class="node"><title>Node27</title>
<g id="a_node27"><a xlink:href="../../d3/d64/classparser_1_1tests_1_1_math_tester.html#a0834a1beeeb3689ab52b3523b1ec053e" target="_top" xlink:title="parser.tests.MathTester.test\lRandom">
<polygon fill="white" stroke="black" points="829,-88 829,-118 979,-118 979,-88 829,-88"/>
<text text-anchor="start" x="837" y="-106" font-family="Helvetica,sans-Serif" font-size="10.00">parser.tests.MathTester.test</text>
<text text-anchor="middle" x="904" y="-95" font-family="Helvetica,sans-Serif" font-size="10.00">Random</text>
</a>
</g>
</g>
<!-- Node4&#45;&gt;Node27 -->
<g id="edge27" class="edge"><title>Node4&#45;&gt;Node27</title>
<path fill="none" stroke="midnightblue" d="M699.434,-381.112C706.67,-330.802 732.733,-197.538 812,-128 817.05,-123.57 822.816,-119.918 828.94,-116.908"/>
<polygon fill="midnightblue" stroke="midnightblue" points="695.93,-380.913 698.07,-391.29 702.868,-381.844 695.93,-380.913"/>
</g>
<!-- Node28 -->
<g id="node28" class="node"><title>Node28</title>
<g id="a_node28"><a xlink:href="../../d3/d64/classparser_1_1tests_1_1_math_tester.html#aeba46a296188edda903e21c6be23bdd8" target="_top" xlink:title="parser.tests.MathTester.test\lRemainder">
<polygon fill="white" stroke="black" points="829,-39 829,-69 979,-69 979,-39 829,-39"/>
<text text-anchor="start" x="837" y="-57" font-family="Helvetica,sans-Serif" font-size="10.00">parser.tests.MathTester.test</text>
<text text-anchor="middle" x="904" y="-46" font-family="Helvetica,sans-Serif" font-size="10.00">Remainder</text>
</a>
</g>
</g>
<!-- Node4&#45;&gt;Node28 -->
<g id="edge28" class="edge"><title>Node4&#45;&gt;Node28</title>
<path fill="none" stroke="midnightblue" d="M697.977,-381.41C701.852,-325.471 720.805,-163.607 812,-79 816.924,-74.4313 822.606,-70.6847 828.675,-67.6142"/>
<polygon fill="midnightblue" stroke="midnightblue" points="694.483,-381.21 697.372,-391.403 701.47,-381.633 694.483,-381.21"/>
</g>
<!-- Node29 -->
<g id="node29" class="node"><title>Node29</title>
<g id="a_node29"><a xlink:href="../../d3/d64/classparser_1_1tests_1_1_math_tester.html#a0059e207747b76f3579b4218cfe7c5dc" target="_top" xlink:title="parser.tests.MathTester.testSum">
<polygon fill="white" stroke="black" points="817.5,-0.5 817.5,-19.5 990.5,-19.5 990.5,-0.5 817.5,-0.5"/>
<text text-anchor="middle" x="904" y="-7.5" font-family="Helvetica,sans-Serif" font-size="10.00">parser.tests.MathTester.testSum</text>
</a>
</g>
</g>
<!-- Node4&#45;&gt;Node29 -->
<g id="edge29" class="edge"><title>Node4&#45;&gt;Node29</title>
<path fill="none" stroke="midnightblue" d="M696.693,-381.155C696.882,-319.1 706.356,-127.099 812,-30 816.645,-25.731 821.986,-22.2985 827.704,-19.5468"/>
<polygon fill="midnightblue" stroke="midnightblue" points="693.195,-381.493 696.75,-391.473 700.195,-381.454 693.195,-381.493"/>
</g>
<!-- Node6 -->
<g id="node6" class="node"><title>Node6</title>
<g id="a_node6"><a xlink:href="../../d7/dde/classparser_1_1_main.html#ac3abd936d94632f17feedf0cce82afff" target="_top" xlink:title="parser.Main.main">
<polygon fill="white" stroke="black" points="1049.5,-771.5 1049.5,-790.5 1148.5,-790.5 1148.5,-771.5 1049.5,-771.5"/>
<text text-anchor="middle" x="1099" y="-778.5" font-family="Helvetica,sans-Serif" font-size="10.00">parser.Main.main</text>
</a>
</g>
</g>
<!-- Node5&#45;&gt;Node6 -->
<g id="edge5" class="edge"><title>Node5&#45;&gt;Node6</title>
<path fill="none" stroke="midnightblue" d="M973.366,-781C998.471,-781 1026.36,-781 1049.38,-781"/>
<polygon fill="midnightblue" stroke="midnightblue" points="973.168,-777.5 963.168,-781 973.168,-784.5 973.168,-777.5"/>
</g>
<!-- Node9 -->
<g id="node9" class="node"><title>Node9</title>
<g id="a_node9"><a xlink:href="../../d9/df7/classcontroller_1_1_controller.html#a2bfb87bca460d87b2c97e0b5045a2175" target="_top" xlink:title="controller.Controller.create\lRunCommandListener">
<polygon fill="white" stroke="black" points="1202.5,-686 1202.5,-716 1345.5,-716 1345.5,-686 1202.5,-686"/>
<text text-anchor="start" x="1210.5" y="-704" font-family="Helvetica,sans-Serif" font-size="10.00">controller.Controller.create</text>
<text text-anchor="middle" x="1274" y="-693" font-family="Helvetica,sans-Serif" font-size="10.00">RunCommandListener</text>
</a>
</g>
</g>
<!-- Node8&#45;&gt;Node9 -->
<g id="edge8" class="edge"><title>Node8&#45;&gt;Node9</title>
<path fill="none" stroke="midnightblue" d="M989.156,-699.457C1053.57,-699.807 1141.39,-700.285 1202.21,-700.615"/>
<polygon fill="midnightblue" stroke="midnightblue" points="989.047,-695.957 979.028,-699.402 989.008,-702.957 989.047,-695.957"/>
</g>
<!-- Node10 -->
<g id="node10" class="node"><title>Node10</title>
<g id="a_node10"><a xlink:href="../../d9/df7/classcontroller_1_1_controller.html#a47511ec57338c8e75e71e9314cda5271" target="_top" xlink:title="controller.Controller.Controller">
<polygon fill="white" stroke="black" points="1742.5,-667.5 1742.5,-686.5 1901.5,-686.5 1901.5,-667.5 1742.5,-667.5"/>
<text text-anchor="middle" x="1822" y="-674.5" font-family="Helvetica,sans-Serif" font-size="10.00">controller.Controller.Controller</text>
</a>
</g>
</g>
<!-- Node9&#45;&gt;Node10 -->
<g id="edge9" class="edge"><title>Node9&#45;&gt;Node10</title>
<path fill="none" stroke="midnightblue" d="M1355.67,-697.454C1459.64,-692.884 1639.25,-684.989 1742.27,-680.461"/>
<polygon fill="midnightblue" stroke="midnightblue" points="1355.38,-693.963 1345.54,-697.899 1355.69,-700.957 1355.38,-693.963"/>
</g>
<!-- Node12 -->
<g id="node12" class="node"><title>Node12</title>
<g id="a_node12"><a xlink:href="../../d9/df7/classcontroller_1_1_controller.html#a37c3009658f66dc4de0be01b75adf660" target="_top" xlink:title="controller.Controller.load\lWorkspace">
<polygon fill="white" stroke="black" points="1032.5,-638 1032.5,-668 1165.5,-668 1165.5,-638 1032.5,-638"/>
<text text-anchor="start" x="1040.5" y="-656" font-family="Helvetica,sans-Serif" font-size="10.00">controller.Controller.load</text>
<text text-anchor="middle" x="1099" y="-645" font-family="Helvetica,sans-Serif" font-size="10.00">Workspace</text>
</a>
</g>
</g>
<!-- Node11&#45;&gt;Node12 -->
<g id="edge11" class="edge"><title>Node11&#45;&gt;Node12</title>
<path fill="none" stroke="midnightblue" d="M996.618,-654.051C1008.63,-653.926 1020.74,-653.801 1032.21,-653.682"/>
<polygon fill="midnightblue" stroke="midnightblue" points="996.533,-650.551 986.57,-654.155 996.605,-657.551 996.533,-650.551"/>
</g>
<!-- Node13 -->
<g id="node13" class="node"><title>Node13</title>
<g id="a_node13"><a xlink:href="../../d9/df7/classcontroller_1_1_controller.html#aa46804b9ca132af8504b5dafb1cadb0d" target="_top" xlink:title="controller.Controller.create\lFileCommands">
<polygon fill="white" stroke="black" points="1202.5,-637 1202.5,-667 1345.5,-667 1345.5,-637 1202.5,-637"/>
<text text-anchor="start" x="1210.5" y="-655" font-family="Helvetica,sans-Serif" font-size="10.00">controller.Controller.create</text>
<text text-anchor="middle" x="1274" y="-644" font-family="Helvetica,sans-Serif" font-size="10.00">FileCommands</text>
</a>
</g>
</g>
<!-- Node12&#45;&gt;Node13 -->
<g id="edge12" class="edge"><title>Node12&#45;&gt;Node13</title>
<path fill="none" stroke="midnightblue" d="M1176.08,-652.56C1184.83,-652.51 1193.72,-652.458 1202.39,-652.408"/>
<polygon fill="midnightblue" stroke="midnightblue" points="1175.88,-649.061 1165.9,-652.619 1175.92,-656.061 1175.88,-649.061"/>
</g>
<!-- Node14 -->
<g id="node14" class="node"><title>Node14</title>
<g id="a_node14"><a xlink:href="../../d9/df7/classcontroller_1_1_controller.html#af4c05286f1534b1fa6de523c54549288" target="_top" xlink:title="controller.Controller.create\lFileMenu">
<polygon fill="white" stroke="black" points="1382.5,-639 1382.5,-669 1525.5,-669 1525.5,-639 1382.5,-639"/>
<text text-anchor="start" x="1390.5" y="-657" font-family="Helvetica,sans-Serif" font-size="10.00">controller.Controller.create</text>
<text text-anchor="middle" x="1454" y="-646" font-family="Helvetica,sans-Serif" font-size="10.00">FileMenu</text>
</a>
</g>
</g>
<!-- Node13&#45;&gt;Node14 -->
<g id="edge13" class="edge"><title>Node13&#45;&gt;Node14</title>
<path fill="none" stroke="midnightblue" d="M1355.65,-652.906C1364.6,-653.007 1373.67,-653.109 1382.48,-653.208"/>
<polygon fill="midnightblue" stroke="midnightblue" points="1355.64,-649.406 1345.61,-652.793 1355.57,-656.406 1355.64,-649.406"/>
</g>
<!-- Node15 -->
<g id="node15" class="node"><title>Node15</title>
<g id="a_node15"><a xlink:href="../../d9/df7/classcontroller_1_1_controller.html#a2901bf43bb8e47b485558dbf00d40d6d" target="_top" xlink:title="controller.Controller.create\lJMenuBar">
<polygon fill="white" stroke="black" points="1562.5,-640 1562.5,-670 1705.5,-670 1705.5,-640 1562.5,-640"/>
<text text-anchor="start" x="1570.5" y="-658" font-family="Helvetica,sans-Serif" font-size="10.00">controller.Controller.create</text>
<text text-anchor="middle" x="1634" y="-647" font-family="Helvetica,sans-Serif" font-size="10.00">JMenuBar</text>
</a>
</g>
</g>
<!-- Node14&#45;&gt;Node15 -->
<g id="edge14" class="edge"><title>Node14&#45;&gt;Node15</title>
<path fill="none" stroke="midnightblue" d="M1535.65,-654.453C1544.6,-654.503 1553.67,-654.554 1562.48,-654.604"/>
<polygon fill="midnightblue" stroke="midnightblue" points="1535.63,-650.953 1525.61,-654.397 1535.59,-657.953 1535.63,-650.953"/>
</g>
<!-- Node15&#45;&gt;Node10 -->
<g id="edge15" class="edge"><title>Node15&#45;&gt;Node10</title>
<path fill="none" stroke="midnightblue" d="M1715.55,-664.527C1724.45,-665.58 1733.5,-666.651 1742.38,-667.701"/>
<polygon fill="midnightblue" stroke="midnightblue" points="1715.93,-661.048 1705.58,-663.349 1715.1,-667.999 1715.93,-661.048"/>
</g>
</g>
</svg>
