<?xml version="1.0" encoding="UTF-8" standalone="no"?>
<!DOCTYPE svg PUBLIC "-//W3C//DTD SVG 1.1//EN"
 "http://www.w3.org/Graphics/SVG/1.1/DTD/svg11.dtd">
<!-- Generated by graphviz version 2.36.0 (20140111.2315)
 -->
<!-- Title: parser.nodes.NodeInformation.setShouldCreate Pages: 1 -->
<!--zoomable 799 -->
<svg id="main" version="1.1" xmlns="http://www.w3.org/2000/svg" xmlns:xlink="http://www.w3.org/1999/xlink" xml:space="preserve" onload="init(evt)">
<style type="text/css"><![CDATA[
.edge:hover path { stroke: red; }
.edge:hover polygon { stroke: red; fill: red; }
]]></style>
<script type="text/javascript"><![CDATA[
var edges = document.getElementsByTagName('g');
if (edges && edges.length) {
  for (var i=0;i<edges.length;i++) {
    if (edges[i].id.substr(0,4)=='edge') {
      edges[i].setAttribute('class','edge');
    }
  }
}
]]></script>
        <defs>
                <circle id="rim" cx="0" cy="0" r="7"/>
                <circle id="rim2" cx="0" cy="0" r="3.5"/>
                <g id="zoomPlus">
                        <use xlink:href="#rim" fill="#404040">
                                <set attributeName="fill" to="#808080" begin="zoomplus.mouseover" end="zoomplus.mouseout"/>
                        </use>
                        <path d="M-4,0h8M0,-4v8" fill="none" stroke="white" stroke-width="1.5" pointer-events="none"/>
                </g>
                <g id="zoomMin">
                        <use xlink:href="#rim" fill="#404040">
                                <set attributeName="fill" to="#808080" begin="zoomminus.mouseover" end="zoomminus.mouseout"/>
                        </use>
                        <path d="M-4,0h8" fill="none" stroke="white" stroke-width="1.5" pointer-events="none"/>
                </g>
                <g id="dirArrow">
                        <path fill="none" stroke="white" stroke-width="1.5" d="M0,-3.0v7 M-2.5,-0.5L0,-3.0L2.5,-0.5"/>
                </g>
               <g id="resetDef">
                       <use xlink:href="#rim2" fill="#404040">
                               <set attributeName="fill" to="#808080" begin="reset.mouseover" end="reset.mouseout"/>
                       </use>
               </g>
        </defs>

<script type="text/javascript">
var viewWidth = 1940;
var viewHeight = 799;
var sectionId = 'dynsection-12';
</script>
<script xlink:href="../../svgpan.js"/>
<svg id="graph" class="graph">
<g id="viewport">
<title>parser.nodes.NodeInformation.setShouldCreate</title>
<polygon fill="white" stroke="none" points="-4,4 -4,-795 1936,-795 1936,4 -4,4"/>
<!-- Node1 -->
<g id="node1" class="node"><title>Node1</title>
<polygon fill="#bfbfbf" stroke="black" points="0,-386 0,-416 180,-416 180,-386 0,-386"/>
<text text-anchor="start" x="8" y="-404" font-family="Helvetica,sans-Serif" font-size="10.00">parser.nodes.NodeInformation.set</text>
<text text-anchor="middle" x="90" y="-393" font-family="Helvetica,sans-Serif" font-size="10.00">ShouldCreate</text>
</g>
<!-- Node2 -->
<g id="node2" class="node"><title>Node2</title>
<g id="a_node2"><a xlink:href="../../d7/d0d/classparser_1_1_semantics_checker.html#a41a9f32483c1d0e32acd7fa553c9670c" target="_top" xlink:title="parser.SemanticsChecker.create\lCustomCommand">
<polygon fill="white" stroke="black" points="216.5,-386 216.5,-416 389.5,-416 389.5,-386 216.5,-386"/>
<text text-anchor="start" x="224.5" y="-404" font-family="Helvetica,sans-Serif" font-size="10.00">parser.SemanticsChecker.create</text>
<text text-anchor="middle" x="303" y="-393" font-family="Helvetica,sans-Serif" font-size="10.00">CustomCommand</text>
</a>
</g>
</g>
<!-- Node1&#45;&gt;Node2 -->
<g id="edge1" class="edge"><title>Node1&#45;&gt;Node2</title>
<path fill="none" stroke="midnightblue" d="M190.29,-401C198.939,-401 207.643,-401 216.17,-401"/>
<polygon fill="midnightblue" stroke="midnightblue" points="190.177,-397.5 180.177,-401 190.177,-404.5 190.177,-397.5"/>
</g>
<!-- Node3 -->
<g id="node3" class="node"><title>Node3</title>
<g id="a_node3"><a xlink:href="../../d7/d0d/classparser_1_1_semantics_checker.html#a8620f3090287a61f86765ee920d53de0" target="_top" xlink:title="parser.SemanticsChecker.evaluate\lExpression">
<polygon fill="white" stroke="black" points="426.5,-386 426.5,-416 609.5,-416 609.5,-386 426.5,-386"/>
<text text-anchor="start" x="434.5" y="-404" font-family="Helvetica,sans-Serif" font-size="10.00">parser.SemanticsChecker.evaluate</text>
<text text-anchor="middle" x="518" y="-393" font-family="Helvetica,sans-Serif" font-size="10.00">Expression</text>
</a>
</g>
</g>
<!-- Node2&#45;&gt;Node3 -->
<g id="edge2" class="edge"><title>Node2&#45;&gt;Node3</title>
<path fill="none" stroke="midnightblue" d="M399.931,-401C408.684,-401 417.534,-401 426.239,-401"/>
<polygon fill="midnightblue" stroke="midnightblue" points="399.715,-397.5 389.715,-401 399.715,-404.5 399.715,-397.5"/>
</g>
<!-- Node4 -->
<g id="node4" class="node"><title>Node4</title>
<g id="a_node4"><a xlink:href="../../d6/d95/classparser_1_1_parser.html#ac0cfecef1d5308df35c49519d94f85a5" target="_top" xlink:title="parser.Parser.parseCommand">
<polygon fill="white" stroke="black" points="646.5,-391.5 646.5,-410.5 805.5,-410.5 805.5,-391.5 646.5,-391.5"/>
<text text-anchor="middle" x="726" y="-398.5" font-family="Helvetica,sans-Serif" font-size="10.00">parser.Parser.parseCommand</text>
</a>
</g>
</g>
<!-- Node3&#45;&gt;Node4 -->
<g id="edge3" class="edge"><title>Node3&#45;&gt;Node4</title>
<path fill="none" stroke="midnightblue" d="M619.699,-401C628.616,-401 637.557,-401 646.253,-401"/>
<polygon fill="midnightblue" stroke="midnightblue" points="619.654,-397.5 609.654,-401 619.654,-404.5 619.654,-397.5"/>
</g>
<!-- Node5 -->
<g id="node5" class="node"><title>Node5</title>
<g id="a_node5"><a xlink:href="../../d7/dde/classparser_1_1_main.html#a75a40fb31f3397122c167e54e6e233c1" target="_top" xlink:title="parser.Main.checkFile">
<polygon fill="white" stroke="black" points="875,-771.5 875,-790.5 993,-790.5 993,-771.5 875,-771.5"/>
<text text-anchor="middle" x="934" y="-778.5" font-family="Helvetica,sans-Serif" font-size="10.00">parser.Main.checkFile</text>
</a>
</g>
</g>
<!-- Node4&#45;&gt;Node5 -->
<g id="edge4" class="edge"><title>Node4&#45;&gt;Node5</title>
<path fill="none" stroke="midnightblue" d="M726.846,-420.774C727.514,-481.76 738.317,-668.441 842,-762 851.106,-770.217 862.826,-775.23 874.805,-778.217"/>
<polygon fill="midnightblue" stroke="midnightblue" points="730.345,-420.599 726.821,-410.608 723.345,-420.616 730.345,-420.599"/>
</g>
<!-- Node7 -->
<g id="node7" class="node"><title>Node7</title>
<g id="a_node7"><a xlink:href="../../d6/d95/classparser_1_1_parser.html#afc96f83c32dde8c90fdab91dd543dddf" target="_top" xlink:title="parser.Parser.parseCommand">
<polygon fill="white" stroke="black" points="854.5,-733.5 854.5,-752.5 1013.5,-752.5 1013.5,-733.5 854.5,-733.5"/>
<text text-anchor="middle" x="934" y="-740.5" font-family="Helvetica,sans-Serif" font-size="10.00">parser.Parser.parseCommand</text>
</a>
</g>
</g>
<!-- Node4&#45;&gt;Node7 -->
<g id="edge6" class="edge"><title>Node4&#45;&gt;Node7</title>
<path fill="none" stroke="midnightblue" d="M727.764,-420.826C731.069,-477.396 748.645,-640.781 842,-723 846.856,-727.276 852.416,-730.705 858.341,-733.446"/>
<polygon fill="midnightblue" stroke="midnightblue" points="731.254,-420.531 727.264,-410.716 724.262,-420.877 731.254,-420.531"/>
</g>
<!-- Node8 -->
<g id="node8" class="node"><title>Node8</title>
<g id="a_node8"><a xlink:href="../../d9/df7/classcontroller_1_1_controller.html#a89b63f37e67efbeddda1f247016c837b" target="_top" xlink:title="controller.Controller.process\lCommand">
<polygon fill="white" stroke="black" points="859,-684 859,-714 1009,-714 1009,-684 859,-684"/>
<text text-anchor="start" x="867" y="-702" font-family="Helvetica,sans-Serif" font-size="10.00">controller.Controller.process</text>
<text text-anchor="middle" x="934" y="-691" font-family="Helvetica,sans-Serif" font-size="10.00">Command</text>
</a>
</g>
</g>
<!-- Node4&#45;&gt;Node8 -->
<g id="edge7" class="edge"><title>Node4&#45;&gt;Node8</title>
<path fill="none" stroke="midnightblue" d="M729.434,-420.888C736.67,-471.198 762.733,-604.462 842,-674 847.05,-678.43 852.816,-682.082 858.94,-685.092"/>
<polygon fill="midnightblue" stroke="midnightblue" points="732.868,-420.156 728.07,-410.71 725.93,-421.087 732.868,-420.156"/>
</g>
<!-- Node11 -->
<g id="node11" class="node"><title>Node11</title>
<g id="a_node11"><a xlink:href="../../d9/df7/classcontroller_1_1_controller.html#aec5e242ff69899c974dbd6302510f70b" target="_top" xlink:title="controller.Controller.processFile">
<polygon fill="white" stroke="black" points="851.5,-645.5 851.5,-664.5 1016.5,-664.5 1016.5,-645.5 851.5,-645.5"/>
<text text-anchor="middle" x="934" y="-652.5" font-family="Helvetica,sans-Serif" font-size="10.00">controller.Controller.processFile</text>
</a>
</g>
</g>
<!-- Node4&#45;&gt;Node11 -->
<g id="edge10" class="edge"><title>Node4&#45;&gt;Node11</title>
<path fill="none" stroke="midnightblue" d="M730.607,-420.852C740.017,-466.61 769.777,-579.859 842,-636 846.842,-639.764 852.252,-642.829 857.954,-645.32"/>
<polygon fill="midnightblue" stroke="midnightblue" points="734.031,-420.125 728.682,-410.98 727.16,-421.465 734.031,-420.125"/>
</g>
<!-- Node16 -->
<g id="node16" class="node"><title>Node16</title>
<g id="a_node16"><a xlink:href="../../d1/d01/classparser_1_1tests_1_1_boolean_tester.html#ab009444f79be316835e50742f06550a9" target="_top" xlink:title="parser.tests.BooleanTester.testAnd">
<polygon fill="white" stroke="black" points="842,-607.5 842,-626.5 1026,-626.5 1026,-607.5 842,-607.5"/>
<text text-anchor="middle" x="934" y="-614.5" font-family="Helvetica,sans-Serif" font-size="10.00">parser.tests.BooleanTester.testAnd</text>
</a>
</g>
</g>
<!-- Node4&#45;&gt;Node16 -->
<g id="edge16" class="edge"><title>Node4&#45;&gt;Node16</title>
<path fill="none" stroke="midnightblue" d="M732.58,-420.444C745.081,-460.32 779.272,-551.43 842,-597 847.889,-601.278 854.52,-604.67 861.449,-607.356"/>
<polygon fill="midnightblue" stroke="midnightblue" points="735.861,-419.2 729.624,-410.636 729.159,-421.22 735.861,-419.2"/>
</g>
<!-- Node17 -->
<g id="node17" class="node"><title>Node17</title>
<g id="a_node17"><a xlink:href="../../d3/d64/classparser_1_1tests_1_1_math_tester.html#a1677c0f6237b5c48799087b702e713ca" target="_top" xlink:title="parser.tests.MathTester.test\lDifference">
<polygon fill="white" stroke="black" points="859,-558 859,-588 1009,-588 1009,-558 859,-558"/>
<text text-anchor="start" x="867" y="-576" font-family="Helvetica,sans-Serif" font-size="10.00">parser.tests.MathTester.test</text>
<text text-anchor="middle" x="934" y="-565" font-family="Helvetica,sans-Serif" font-size="10.00">Difference</text>
</a>
</g>
</g>
<!-- Node4&#45;&gt;Node17 -->
<g id="edge17" class="edge"><title>Node4&#45;&gt;Node17</title>
<path fill="none" stroke="midnightblue" d="M736.383,-419.615C753.171,-450.994 791.382,-514.29 842,-548 847.864,-551.905 854.325,-555.204 861.018,-557.989"/>
<polygon fill="midnightblue" stroke="midnightblue" points="739.423,-417.875 731.696,-410.626 733.216,-421.111 739.423,-417.875"/>
</g>
<!-- Node18 -->
<g id="node18" class="node"><title>Node18</title>
<g id="a_node18"><a xlink:href="../../d1/d01/classparser_1_1tests_1_1_boolean_tester.html#a99be1a3a9584ed717090f5bb310bdae0" target="_top" xlink:title="parser.tests.BooleanTester.test\lEqual">
<polygon fill="white" stroke="black" points="851.5,-509 851.5,-539 1016.5,-539 1016.5,-509 851.5,-509"/>
<text text-anchor="start" x="859.5" y="-527" font-family="Helvetica,sans-Serif" font-size="10.00">parser.tests.BooleanTester.test</text>
<text text-anchor="middle" x="934" y="-516" font-family="Helvetica,sans-Serif" font-size="10.00">Equal</text>
</a>
</g>
</g>
<!-- Node4&#45;&gt;Node18 -->
<g id="edge18" class="edge"><title>Node4&#45;&gt;Node18</title>
<path fill="none" stroke="midnightblue" d="M742.495,-418.226C763.122,-440.132 801.709,-477.668 842,-499 849.24,-502.833 857.123,-506.123 865.122,-508.935"/>
<polygon fill="midnightblue" stroke="midnightblue" points="744.861,-415.629 735.502,-410.662 739.72,-420.381 744.861,-415.629"/>
</g>
<!-- Node19 -->
<g id="node19" class="node"><title>Node19</title>
<g id="a_node19"><a xlink:href="../../d1/d01/classparser_1_1tests_1_1_boolean_tester.html#ad5101fc213b8aeaa37baf5e3b5868d9d" target="_top" xlink:title="parser.tests.BooleanTester.test\lGreaterThan">
<polygon fill="white" stroke="black" points="851.5,-460 851.5,-490 1016.5,-490 1016.5,-460 851.5,-460"/>
<text text-anchor="start" x="859.5" y="-478" font-family="Helvetica,sans-Serif" font-size="10.00">parser.tests.BooleanTester.test</text>
<text text-anchor="middle" x="934" y="-467" font-family="Helvetica,sans-Serif" font-size="10.00">GreaterThan</text>
</a>
</g>
</g>
<!-- Node4&#45;&gt;Node19 -->
<g id="edge19" class="edge"><title>Node4&#45;&gt;Node19</title>
<path fill="none" stroke="midnightblue" d="M756.234,-414.751C779.225,-425.247 812.235,-439.623 842,-450 852.056,-453.506 862.872,-456.843 873.414,-459.871"/>
<polygon fill="midnightblue" stroke="midnightblue" points="757.581,-411.518 747.033,-410.513 754.652,-417.876 757.581,-411.518"/>
</g>
<!-- Node20 -->
<g id="node20" class="node"><title>Node20</title>
<g id="a_node20"><a xlink:href="../../d1/d01/classparser_1_1tests_1_1_boolean_tester.html#a828f5f4183434799d083a68a00791dba" target="_top" xlink:title="parser.tests.BooleanTester.test\lLessThan">
<polygon fill="white" stroke="black" points="851.5,-411 851.5,-441 1016.5,-441 1016.5,-411 851.5,-411"/>
<text text-anchor="start" x="859.5" y="-429" font-family="Helvetica,sans-Serif" font-size="10.00">parser.tests.BooleanTester.test</text>
<text text-anchor="middle" x="934" y="-418" font-family="Helvetica,sans-Serif" font-size="10.00">LessThan</text>
</a>
</g>
</g>
<!-- Node4&#45;&gt;Node20 -->
<g id="edge20" class="edge"><title>Node4&#45;&gt;Node20</title>
<path fill="none" stroke="midnightblue" d="M815.408,-411.729C827.335,-413.177 839.527,-414.656 851.329,-416.088"/>
<polygon fill="midnightblue" stroke="midnightblue" points="815.816,-408.253 805.467,-410.523 814.973,-415.202 815.816,-408.253"/>
</g>
<!-- Node21 -->
<g id="node21" class="node"><title>Node21</title>
<g id="a_node21"><a xlink:href="../../d3/d64/classparser_1_1tests_1_1_math_tester.html#a06cade99788206056814bc20735cd193" target="_top" xlink:title="parser.tests.MathTester.test\lMinus">
<polygon fill="white" stroke="black" points="859,-362 859,-392 1009,-392 1009,-362 859,-362"/>
<text text-anchor="start" x="867" y="-380" font-family="Helvetica,sans-Serif" font-size="10.00">parser.tests.MathTester.test</text>
<text text-anchor="middle" x="934" y="-369" font-family="Helvetica,sans-Serif" font-size="10.00">Minus</text>
</a>
</g>
</g>
<!-- Node4&#45;&gt;Node21 -->
<g id="edge21" class="edge"><title>Node4&#45;&gt;Node21</title>
<path fill="none" stroke="midnightblue" d="M816.04,-390.626C830.265,-388.969 844.852,-387.27 858.689,-385.658"/>
<polygon fill="midnightblue" stroke="midnightblue" points="815.289,-387.19 805.762,-391.824 816.099,-394.143 815.289,-387.19"/>
</g>
<!-- Node22 -->
<g id="node22" class="node"><title>Node22</title>
<g id="a_node22"><a xlink:href="../../d1/d01/classparser_1_1tests_1_1_boolean_tester.html#a402bae747c40cf9030ea6e85a44b10d2" target="_top" xlink:title="parser.tests.BooleanTester.testNot">
<polygon fill="white" stroke="black" points="843,-323.5 843,-342.5 1025,-342.5 1025,-323.5 843,-323.5"/>
<text text-anchor="middle" x="934" y="-330.5" font-family="Helvetica,sans-Serif" font-size="10.00">parser.tests.BooleanTester.testNot</text>
</a>
</g>
</g>
<!-- Node4&#45;&gt;Node22 -->
<g id="edge22" class="edge"><title>Node4&#45;&gt;Node22</title>
<path fill="none" stroke="midnightblue" d="M756.122,-387.135C779.051,-376.64 812.034,-362.463 842,-353 854.803,-348.957 868.869,-345.433 882.035,-342.517"/>
<polygon fill="midnightblue" stroke="midnightblue" points="754.552,-384.005 746.949,-391.383 757.494,-390.357 754.552,-384.005"/>
</g>
<!-- Node23 -->
<g id="node23" class="node"><title>Node23</title>
<g id="a_node23"><a xlink:href="../../d1/d01/classparser_1_1tests_1_1_boolean_tester.html#ac0deac7b7ba9e48e30a9ed6cff134d09" target="_top" xlink:title="parser.tests.BooleanTester.test\lNotEqual">
<polygon fill="white" stroke="black" points="851.5,-274 851.5,-304 1016.5,-304 1016.5,-274 851.5,-274"/>
<text text-anchor="start" x="859.5" y="-292" font-family="Helvetica,sans-Serif" font-size="10.00">parser.tests.BooleanTester.test</text>
<text text-anchor="middle" x="934" y="-281" font-family="Helvetica,sans-Serif" font-size="10.00">NotEqual</text>
</a>
</g>
</g>
<!-- Node4&#45;&gt;Node23 -->
<g id="edge23" class="edge"><title>Node4&#45;&gt;Node23</title>
<path fill="none" stroke="midnightblue" d="M744.479,-384.339C765.863,-364.816 803.937,-332.758 842,-314 849.642,-310.234 857.934,-306.966 866.297,-304.15"/>
<polygon fill="midnightblue" stroke="midnightblue" points="741.831,-382.021 736.885,-391.39 746.594,-387.151 741.831,-382.021"/>
</g>
<!-- Node24 -->
<g id="node24" class="node"><title>Node24</title>
<g id="a_node24"><a xlink:href="../../d1/d01/classparser_1_1tests_1_1_boolean_tester.html#a733a8bed2ef17160461077bd2e53490c" target="_top" xlink:title="parser.tests.BooleanTester.testOr">
<polygon fill="white" stroke="black" points="846,-235.5 846,-254.5 1022,-254.5 1022,-235.5 846,-235.5"/>
<text text-anchor="middle" x="934" y="-242.5" font-family="Helvetica,sans-Serif" font-size="10.00">parser.tests.BooleanTester.testOr</text>
</a>
</g>
</g>
<!-- Node4&#45;&gt;Node24 -->
<g id="edge24" class="edge"><title>Node4&#45;&gt;Node24</title>
<path fill="none" stroke="midnightblue" d="M737.304,-382.273C754.738,-352.457 792.992,-294.551 842,-265 849.203,-260.657 857.235,-257.253 865.461,-254.585"/>
<polygon fill="midnightblue" stroke="midnightblue" points="734.113,-380.805 732.205,-391.227 740.195,-384.27 734.113,-380.805"/>
</g>
<!-- Node25 -->
<g id="node25" class="node"><title>Node25</title>
<g id="a_node25"><a xlink:href="../../d3/d64/classparser_1_1tests_1_1_math_tester.html#af3c9e732ab91e0cad71ea7cd66a7a0d4" target="_top" xlink:title="parser.tests.MathTester.test\lProduct">
<polygon fill="white" stroke="black" points="859,-186 859,-216 1009,-216 1009,-186 859,-186"/>
<text text-anchor="start" x="867" y="-204" font-family="Helvetica,sans-Serif" font-size="10.00">parser.tests.MathTester.test</text>
<text text-anchor="middle" x="934" y="-193" font-family="Helvetica,sans-Serif" font-size="10.00">Product</text>
</a>
</g>
</g>
<!-- Node4&#45;&gt;Node25 -->
<g id="edge25" class="edge"><title>Node4&#45;&gt;Node25</title>
<path fill="none" stroke="midnightblue" d="M734.167,-381.893C748.725,-345.739 785.268,-267.257 842,-226 847.3,-222.146 853.166,-218.885 859.291,-216.128"/>
<polygon fill="midnightblue" stroke="midnightblue" points="730.876,-380.697 730.5,-391.285 737.397,-383.243 730.876,-380.697"/>
</g>
<!-- Node26 -->
<g id="node26" class="node"><title>Node26</title>
<g id="a_node26"><a xlink:href="../../d3/d64/classparser_1_1tests_1_1_math_tester.html#a0bee886e0100c55a64fb804fa462e079" target="_top" xlink:title="parser.tests.MathTester.test\lQuotient">
<polygon fill="white" stroke="black" points="859,-137 859,-167 1009,-167 1009,-137 859,-137"/>
<text text-anchor="start" x="867" y="-155" font-family="Helvetica,sans-Serif" font-size="10.00">parser.tests.MathTester.test</text>
<text text-anchor="middle" x="934" y="-144" font-family="Helvetica,sans-Serif" font-size="10.00">Quotient</text>
</a>
</g>
</g>
<!-- Node4&#45;&gt;Node26 -->
<g id="edge26" class="edge"><title>Node4&#45;&gt;Node26</title>
<path fill="none" stroke="midnightblue" d="M731.421,-381.2C742.244,-337.44 774.272,-232.027 842,-177 847.086,-172.867 852.805,-169.416 858.834,-166.534"/>
<polygon fill="midnightblue" stroke="midnightblue" points="727.963,-380.616 729.068,-391.153 734.775,-382.227 727.963,-380.616"/>
</g>
<!-- Node27 -->
<g id="node27" class="node"><title>Node27</title>
<g id="a_node27"><a xlink:href="../../d3/d64/classparser_1_1tests_1_1_math_tester.html#a0834a1beeeb3689ab52b3523b1ec053e" target="_top" xlink:title="parser.tests.MathTester.test\lRandom">
<polygon fill="white" stroke="black" points="859,-88 859,-118 1009,-118 1009,-88 859,-88"/>
<text text-anchor="start" x="867" y="-106" font-family="Helvetica,sans-Serif" font-size="10.00">parser.tests.MathTester.test</text>
<text text-anchor="middle" x="934" y="-95" font-family="Helvetica,sans-Serif" font-size="10.00">Random</text>
</a>
</g>
</g>
<!-- Node4&#45;&gt;Node27 -->
<g id="edge27" class="edge"><title>Node4&#45;&gt;Node27</title>
<path fill="none" stroke="midnightblue" d="M729.434,-381.112C736.67,-330.802 762.733,-197.538 842,-128 847.05,-123.57 852.816,-119.918 858.94,-116.908"/>
<polygon fill="midnightblue" stroke="midnightblue" points="725.93,-380.913 728.07,-391.29 732.868,-381.844 725.93,-380.913"/>
</g>
<!-- Node28 -->
<g id="node28" class="node"><title>Node28</title>
<g id="a_node28"><a xlink:href="../../d3/d64/classparser_1_1tests_1_1_math_tester.html#aeba46a296188edda903e21c6be23bdd8" target="_top" xlink:title="parser.tests.MathTester.test\lRemainder">
<polygon fill="white" stroke="black" points="859,-39 859,-69 1009,-69 1009,-39 859,-39"/>
<text text-anchor="start" x="867" y="-57" font-family="Helvetica,sans-Serif" font-size="10.00">parser.tests.MathTester.test</text>
<text text-anchor="middle" x="934" y="-46" font-family="Helvetica,sans-Serif" font-size="10.00">Remainder</text>
</a>
</g>
</g>
<!-- Node4&#45;&gt;Node28 -->
<g id="edge28" class="edge"><title>Node4&#45;&gt;Node28</title>
<path fill="none" stroke="midnightblue" d="M727.977,-381.41C731.852,-325.471 750.805,-163.607 842,-79 846.924,-74.4313 852.606,-70.6847 858.675,-67.6142"/>
<polygon fill="midnightblue" stroke="midnightblue" points="724.483,-381.21 727.372,-391.403 731.47,-381.633 724.483,-381.21"/>
</g>
<!-- Node29 -->
<g id="node29" class="node"><title>Node29</title>
<g id="a_node29"><a xlink:href="../../d3/d64/classparser_1_1tests_1_1_math_tester.html#a0059e207747b76f3579b4218cfe7c5dc" target="_top" xlink:title="parser.tests.MathTester.testSum">
<polygon fill="white" stroke="black" points="847.5,-0.5 847.5,-19.5 1020.5,-19.5 1020.5,-0.5 847.5,-0.5"/>
<text text-anchor="middle" x="934" y="-7.5" font-family="Helvetica,sans-Serif" font-size="10.00">parser.tests.MathTester.testSum</text>
</a>
</g>
</g>
<!-- Node4&#45;&gt;Node29 -->
<g id="edge29" class="edge"><title>Node4&#45;&gt;Node29</title>
<path fill="none" stroke="midnightblue" d="M726.693,-381.155C726.882,-319.1 736.356,-127.099 842,-30 846.645,-25.731 851.986,-22.2985 857.704,-19.5468"/>
<polygon fill="midnightblue" stroke="midnightblue" points="723.195,-381.493 726.75,-391.473 730.195,-381.454 723.195,-381.493"/>
</g>
<!-- Node6 -->
<g id="node6" class="node"><title>Node6</title>
<g id="a_node6"><a xlink:href="../../d7/dde/classparser_1_1_main.html#ac3abd936d94632f17feedf0cce82afff" target="_top" xlink:title="parser.Main.main">
<polygon fill="white" stroke="black" points="1079.5,-771.5 1079.5,-790.5 1178.5,-790.5 1178.5,-771.5 1079.5,-771.5"/>
<text text-anchor="middle" x="1129" y="-778.5" font-family="Helvetica,sans-Serif" font-size="10.00">parser.Main.main</text>
</a>
</g>
</g>
<!-- Node5&#45;&gt;Node6 -->
<g id="edge5" class="edge"><title>Node5&#45;&gt;Node6</title>
<path fill="none" stroke="midnightblue" d="M1003.37,-781C1028.47,-781 1056.36,-781 1079.38,-781"/>
<polygon fill="midnightblue" stroke="midnightblue" points="1003.17,-777.5 993.168,-781 1003.17,-784.5 1003.17,-777.5"/>
</g>
<!-- Node9 -->
<g id="node9" class="node"><title>Node9</title>
<g id="a_node9"><a xlink:href="../../d9/df7/classcontroller_1_1_controller.html#a2bfb87bca460d87b2c97e0b5045a2175" target="_top" xlink:title="controller.Controller.create\lRunCommandListener">
<polygon fill="white" stroke="black" points="1232.5,-686 1232.5,-716 1375.5,-716 1375.5,-686 1232.5,-686"/>
<text text-anchor="start" x="1240.5" y="-704" font-family="Helvetica,sans-Serif" font-size="10.00">controller.Controller.create</text>
<text text-anchor="middle" x="1304" y="-693" font-family="Helvetica,sans-Serif" font-size="10.00">RunCommandListener</text>
</a>
</g>
</g>
<!-- Node8&#45;&gt;Node9 -->
<g id="edge8" class="edge"><title>Node8&#45;&gt;Node9</title>
<path fill="none" stroke="midnightblue" d="M1019.16,-699.457C1083.57,-699.807 1171.39,-700.285 1232.21,-700.615"/>
<polygon fill="midnightblue" stroke="midnightblue" points="1019.05,-695.957 1009.03,-699.402 1019.01,-702.957 1019.05,-695.957"/>
</g>
<!-- Node10 -->
<g id="node10" class="node"><title>Node10</title>
<g id="a_node10"><a xlink:href="../../d9/df7/classcontroller_1_1_controller.html#a47511ec57338c8e75e71e9314cda5271" target="_top" xlink:title="controller.Controller.Controller">
<polygon fill="white" stroke="black" points="1772.5,-667.5 1772.5,-686.5 1931.5,-686.5 1931.5,-667.5 1772.5,-667.5"/>
<text text-anchor="middle" x="1852" y="-674.5" font-family="Helvetica,sans-Serif" font-size="10.00">controller.Controller.Controller</text>
</a>
</g>
</g>
<!-- Node9&#45;&gt;Node10 -->
<g id="edge9" class="edge"><title>Node9&#45;&gt;Node10</title>
<path fill="none" stroke="midnightblue" d="M1385.67,-697.454C1489.64,-692.884 1669.25,-684.989 1772.27,-680.461"/>
<polygon fill="midnightblue" stroke="midnightblue" points="1385.38,-693.963 1375.54,-697.899 1385.69,-700.957 1385.38,-693.963"/>
</g>
<!-- Node12 -->
<g id="node12" class="node"><title>Node12</title>
<g id="a_node12"><a xlink:href="../../d9/df7/classcontroller_1_1_controller.html#a37c3009658f66dc4de0be01b75adf660" target="_top" xlink:title="controller.Controller.load\lWorkspace">
<polygon fill="white" stroke="black" points="1062.5,-638 1062.5,-668 1195.5,-668 1195.5,-638 1062.5,-638"/>
<text text-anchor="start" x="1070.5" y="-656" font-family="Helvetica,sans-Serif" font-size="10.00">controller.Controller.load</text>
<text text-anchor="middle" x="1129" y="-645" font-family="Helvetica,sans-Serif" font-size="10.00">Workspace</text>
</a>
</g>
</g>
<!-- Node11&#45;&gt;Node12 -->
<g id="edge11" class="edge"><title>Node11&#45;&gt;Node12</title>
<path fill="none" stroke="midnightblue" d="M1026.62,-654.051C1038.63,-653.926 1050.74,-653.801 1062.21,-653.682"/>
<polygon fill="midnightblue" stroke="midnightblue" points="1026.53,-650.551 1016.57,-654.155 1026.61,-657.551 1026.53,-650.551"/>
</g>
<!-- Node13 -->
<g id="node13" class="node"><title>Node13</title>
<g id="a_node13"><a xlink:href="../../d9/df7/classcontroller_1_1_controller.html#aa46804b9ca132af8504b5dafb1cadb0d" target="_top" xlink:title="controller.Controller.create\lFileCommands">
<polygon fill="white" stroke="black" points="1232.5,-637 1232.5,-667 1375.5,-667 1375.5,-637 1232.5,-637"/>
<text text-anchor="start" x="1240.5" y="-655" font-family="Helvetica,sans-Serif" font-size="10.00">controller.Controller.create</text>
<text text-anchor="middle" x="1304" y="-644" font-family="Helvetica,sans-Serif" font-size="10.00">FileCommands</text>
</a>
</g>
</g>
<!-- Node12&#45;&gt;Node13 -->
<g id="edge12" class="edge"><title>Node12&#45;&gt;Node13</title>
<path fill="none" stroke="midnightblue" d="M1206.08,-652.56C1214.83,-652.51 1223.72,-652.458 1232.39,-652.408"/>
<polygon fill="midnightblue" stroke="midnightblue" points="1205.88,-649.061 1195.9,-652.619 1205.92,-656.061 1205.88,-649.061"/>
</g>
<!-- Node14 -->
<g id="node14" class="node"><title>Node14</title>
<g id="a_node14"><a xlink:href="../../d9/df7/classcontroller_1_1_controller.html#af4c05286f1534b1fa6de523c54549288" target="_top" xlink:title="controller.Controller.create\lFileMenu">
<polygon fill="white" stroke="black" points="1412.5,-639 1412.5,-669 1555.5,-669 1555.5,-639 1412.5,-639"/>
<text text-anchor="start" x="1420.5" y="-657" font-family="Helvetica,sans-Serif" font-size="10.00">controller.Controller.create</text>
<text text-anchor="middle" x="1484" y="-646" font-family="Helvetica,sans-Serif" font-size="10.00">FileMenu</text>
</a>
</g>
</g>
<!-- Node13&#45;&gt;Node14 -->
<g id="edge13" class="edge"><title>Node13&#45;&gt;Node14</title>
<path fill="none" stroke="midnightblue" d="M1385.65,-652.906C1394.6,-653.007 1403.67,-653.109 1412.48,-653.208"/>
<polygon fill="midnightblue" stroke="midnightblue" points="1385.64,-649.406 1375.61,-652.793 1385.57,-656.406 1385.64,-649.406"/>
</g>
<!-- Node15 -->
<g id="node15" class="node"><title>Node15</title>
<g id="a_node15"><a xlink:href="../../d9/df7/classcontroller_1_1_controller.html#a2901bf43bb8e47b485558dbf00d40d6d" target="_top" xlink:title="controller.Controller.create\lJMenuBar">
<polygon fill="white" stroke="black" points="1592.5,-640 1592.5,-670 1735.5,-670 1735.5,-640 1592.5,-640"/>
<text text-anchor="start" x="1600.5" y="-658" font-family="Helvetica,sans-Serif" font-size="10.00">controller.Controller.create</text>
<text text-anchor="middle" x="1664" y="-647" font-family="Helvetica,sans-Serif" font-size="10.00">JMenuBar</text>
</a>
</g>
</g>
<!-- Node14&#45;&gt;Node15 -->
<g id="edge14" class="edge"><title>Node14&#45;&gt;Node15</title>
<path fill="none" stroke="midnightblue" d="M1565.65,-654.453C1574.6,-654.503 1583.67,-654.554 1592.48,-654.604"/>
<polygon fill="midnightblue" stroke="midnightblue" points="1565.63,-650.953 1555.61,-654.397 1565.59,-657.953 1565.63,-650.953"/>
</g>
<!-- Node15&#45;&gt;Node10 -->
<g id="edge15" class="edge"><title>Node15&#45;&gt;Node10</title>
<path fill="none" stroke="midnightblue" d="M1745.55,-664.527C1754.45,-665.58 1763.5,-666.651 1772.38,-667.701"/>
<polygon fill="midnightblue" stroke="midnightblue" points="1745.93,-661.048 1735.58,-663.349 1745.1,-667.999 1745.93,-661.048"/>
</g>
</g>
</svg>
        <g id="navigator" transform="translate(0 0)" fill="#404254">
                <rect fill="#f2f5e9" fill-opacity="0.5" stroke="#606060" stroke-width=".5" x="0" y="0" width="60" height="60"/>
                <use id="zoomplus" xlink:href="#zoomPlus" x="17" y="9" onmousedown="handleZoom(evt,'in')"/>
                <use id="zoomminus" xlink:href="#zoomMin" x="42" y="9" onmousedown="handleZoom(evt,'out')"/>
                <use id="reset" xlink:href="#resetDef" x="30" y="36" onmousedown="handleReset()"/>
                <g id="arrowUp" xlink:href="#dirArrow" transform="translate(30 24)" onmousedown="handlePan(0,-1)">
                  <use xlink:href="#rim" fill="#404040">
                        <set attributeName="fill" to="#808080" begin="arrowUp.mouseover" end="arrowUp.mouseout"/>
                  </use>
                  <path fill="none" stroke="white" stroke-width="1.5" d="M0,-3.0v7 M-2.5,-0.5L0,-3.0L2.5,-0.5"/>
                </g>
                <g id="arrowRight" xlink:href="#dirArrow" transform="rotate(90) translate(36 -43)" onmousedown="handlePan(1,0)">
                  <use xlink:href="#rim" fill="#404040">
                        <set attributeName="fill" to="#808080" begin="arrowRight.mouseover" end="arrowRight.mouseout"/>
                  </use>
                  <path fill="none" stroke="white" stroke-width="1.5" d="M0,-3.0v7 M-2.5,-0.5L0,-3.0L2.5,-0.5"/>
                </g>
                <g id="arrowDown" xlink:href="#dirArrow" transform="rotate(180) translate(-30 -48)" onmousedown="handlePan(0,1)">
                  <use xlink:href="#rim" fill="#404040">
                        <set attributeName="fill" to="#808080" begin="arrowDown.mouseover" end="arrowDown.mouseout"/>
                  </use>
                  <path fill="none" stroke="white" stroke-width="1.5" d="M0,-3.0v7 M-2.5,-0.5L0,-3.0L2.5,-0.5"/>
                </g>
                <g id="arrowLeft" xlink:href="#dirArrow" transform="rotate(270) translate(-36 17)" onmousedown="handlePan(-1,0)">
                  <use xlink:href="#rim" fill="#404040">
                        <set attributeName="fill" to="#808080" begin="arrowLeft.mouseover" end="arrowLeft.mouseout"/>
                  </use>
                  <path fill="none" stroke="white" stroke-width="1.5" d="M0,-3.0v7 M-2.5,-0.5L0,-3.0L2.5,-0.5"/>
                </g>
        </g>
        <svg viewBox="0 0 15 15" width="100%" height="30px" preserveAspectRatio="xMaxYMin meet">
         <g id="arrow_out" transform="scale(0.3 0.3)">
          <a xlink:href="classparser_1_1nodes_1_1_node_information_a1a0cba33547c0d09dd567f0a9db27a51_icgraph_org.svg" target="_base">
           <rect id="button" ry="5" rx="5" y="6" x="6" height="38" width="38"
                fill="#f2f5e9" fill-opacity="0.5" stroke="#606060" stroke-width="1.0"/>
           <path id="arrow"
             d="M 11.500037,31.436501 C 11.940474,20.09759 22.043105,11.32322 32.158766,21.979434 L 37.068811,17.246167 C 37.068811,17.246167 37.088388,32 37.088388,32 L 22.160133,31.978069 C 22.160133,31.978069 26.997745,27.140456 26.997745,27.140456 C 18.528582,18.264221 13.291696,25.230495 11.500037,31.436501 z"
             style="fill:#404040;"/>
          </a>
         </g>
        </svg>
</svg>
