<?xml version="1.0" encoding="UTF-8" standalone="no"?>
<!DOCTYPE svg PUBLIC "-//W3C//DTD SVG 1.1//EN"
 "http://www.w3.org/Graphics/SVG/1.1/DTD/svg11.dtd">
<!-- Generated by graphviz version 2.36.0 (20140111.2315)
 -->
<!-- Title: parser.nodes.NodeInformation.NodeInformation Pages: 1 -->
<!--zoomable 799 -->
<svg id="main" version="1.1" xmlns="http://www.w3.org/2000/svg" xmlns:xlink="http://www.w3.org/1999/xlink" xml:space="preserve" onload="init(evt)">
<style type="text/css"><![CDATA[
.edge:hover path { stroke: red; }
.edge:hover polygon { stroke: red; fill: red; }
]]></style>
<script type="text/javascript"><![CDATA[
var edges = document.getElementsByTagName('g');
if (edges && edges.length) {
  for (var i=0;i<edges.length;i++) {
    if (edges[i].id.substr(0,4)=='edge') {
      edges[i].setAttribute('class','edge');
    }
  }
}
]]></script>
        <defs>
                <circle id="rim" cx="0" cy="0" r="7"/>
                <circle id="rim2" cx="0" cy="0" r="3.5"/>
                <g id="zoomPlus">
                        <use xlink:href="#rim" fill="#404040">
                                <set attributeName="fill" to="#808080" begin="zoomplus.mouseover" end="zoomplus.mouseout"/>
                        </use>
                        <path d="M-4,0h8M0,-4v8" fill="none" stroke="white" stroke-width="1.5" pointer-events="none"/>
                </g>
                <g id="zoomMin">
                        <use xlink:href="#rim" fill="#404040">
                                <set attributeName="fill" to="#808080" begin="zoomminus.mouseover" end="zoomminus.mouseout"/>
                        </use>
                        <path d="M-4,0h8" fill="none" stroke="white" stroke-width="1.5" pointer-events="none"/>
                </g>
                <g id="dirArrow">
                        <path fill="none" stroke="white" stroke-width="1.5" d="M0,-3.0v7 M-2.5,-0.5L0,-3.0L2.5,-0.5"/>
                </g>
               <g id="resetDef">
                       <use xlink:href="#rim2" fill="#404040">
                               <set attributeName="fill" to="#808080" begin="reset.mouseover" end="reset.mouseout"/>
                       </use>
               </g>
        </defs>

<script type="text/javascript">
var viewWidth = 2124;
var viewHeight = 799;
var sectionId = 'dynsection-2';
</script>
<script xlink:href="../../svgpan.js"/>
<svg id="graph" class="graph">
<g id="viewport">
<title>parser.nodes.NodeInformation.NodeInformation</title>
<polygon fill="white" stroke="none" points="-4,4 -4,-795 2120,-795 2120,4 -4,4"/>
<!-- Node1 -->
<g id="node1" class="node"><title>Node1</title>
<polygon fill="#bfbfbf" stroke="black" points="0.5,-386 0.5,-416 165.5,-416 165.5,-386 0.5,-386"/>
<text text-anchor="start" x="8.5" y="-404" font-family="Helvetica,sans-Serif" font-size="10.00">parser.nodes.NodeInformation.</text>
<text text-anchor="middle" x="83" y="-393" font-family="Helvetica,sans-Serif" font-size="10.00">NodeInformation</text>
</g>
<!-- Node2 -->
<g id="node2" class="node"><title>Node2</title>
<g id="a_node2"><a xlink:href="../../d5/d08/classparser_1_1nodes_1_1_node_information.html#a10357cfb2c29282a4571d4713551a448" target="_top" xlink:title="parser.nodes.NodeInformation.clone">
<polygon fill="white" stroke="black" points="202.5,-391.5 202.5,-410.5 393.5,-410.5 393.5,-391.5 202.5,-391.5"/>
<text text-anchor="middle" x="298" y="-398.5" font-family="Helvetica,sans-Serif" font-size="10.00">parser.nodes.NodeInformation.clone</text>
</a>
</g>
</g>
<!-- Node1&#45;&gt;Node2 -->
<g id="edge1" class="edge"><title>Node1&#45;&gt;Node2</title>
<path fill="none" stroke="midnightblue" d="M175.929,-401C184.672,-401 193.548,-401 202.315,-401"/>
<polygon fill="midnightblue" stroke="midnightblue" points="175.742,-397.5 165.742,-401 175.742,-404.5 175.742,-397.5"/>
</g>
<!-- Node3 -->
<g id="node3" class="node"><title>Node3</title>
<g id="a_node3"><a xlink:href="../../df/daf/classparser_1_1_semantics_table.html#aab459a521d748abf6058d243b8714d32" target="_top" xlink:title="parser.SemanticsTable.get\lTokenClass">
<polygon fill="white" stroke="black" points="430.5,-386 430.5,-416 573.5,-416 573.5,-386 430.5,-386"/>
<text text-anchor="start" x="438.5" y="-404" font-family="Helvetica,sans-Serif" font-size="10.00">parser.SemanticsTable.get</text>
<text text-anchor="middle" x="502" y="-393" font-family="Helvetica,sans-Serif" font-size="10.00">TokenClass</text>
</a>
</g>
</g>
<!-- Node2&#45;&gt;Node3 -->
<g id="edge2" class="edge"><title>Node2&#45;&gt;Node3</title>
<path fill="none" stroke="midnightblue" d="M403.893,-401C412.839,-401 421.745,-401 430.328,-401"/>
<polygon fill="midnightblue" stroke="midnightblue" points="403.79,-397.5 393.79,-401 403.79,-404.5 403.79,-397.5"/>
</g>
<!-- Node4 -->
<g id="node4" class="node"><title>Node4</title>
<g id="a_node4"><a xlink:href="../../d7/d0d/classparser_1_1_semantics_checker.html#a8620f3090287a61f86765ee920d53de0" target="_top" xlink:title="parser.SemanticsChecker.evaluate\lExpression">
<polygon fill="white" stroke="black" points="610.5,-386 610.5,-416 793.5,-416 793.5,-386 610.5,-386"/>
<text text-anchor="start" x="618.5" y="-404" font-family="Helvetica,sans-Serif" font-size="10.00">parser.SemanticsChecker.evaluate</text>
<text text-anchor="middle" x="702" y="-393" font-family="Helvetica,sans-Serif" font-size="10.00">Expression</text>
</a>
</g>
</g>
<!-- Node3&#45;&gt;Node4 -->
<g id="edge3" class="edge"><title>Node3&#45;&gt;Node4</title>
<path fill="none" stroke="midnightblue" d="M583.795,-401C592.533,-401 601.467,-401 610.312,-401"/>
<polygon fill="midnightblue" stroke="midnightblue" points="583.644,-397.5 573.644,-401 583.644,-404.5 583.644,-397.5"/>
</g>
<!-- Node5 -->
<g id="node5" class="node"><title>Node5</title>
<g id="a_node5"><a xlink:href="../../d6/d95/classparser_1_1_parser.html#ac0cfecef1d5308df35c49519d94f85a5" target="_top" xlink:title="parser.Parser.parseCommand">
<polygon fill="white" stroke="black" points="830.5,-391.5 830.5,-410.5 989.5,-410.5 989.5,-391.5 830.5,-391.5"/>
<text text-anchor="middle" x="910" y="-398.5" font-family="Helvetica,sans-Serif" font-size="10.00">parser.Parser.parseCommand</text>
</a>
</g>
</g>
<!-- Node4&#45;&gt;Node5 -->
<g id="edge4" class="edge"><title>Node4&#45;&gt;Node5</title>
<path fill="none" stroke="midnightblue" d="M803.699,-401C812.616,-401 821.557,-401 830.253,-401"/>
<polygon fill="midnightblue" stroke="midnightblue" points="803.654,-397.5 793.654,-401 803.654,-404.5 803.654,-397.5"/>
</g>
<!-- Node6 -->
<g id="node6" class="node"><title>Node6</title>
<g id="a_node6"><a xlink:href="../../d7/dde/classparser_1_1_main.html#a75a40fb31f3397122c167e54e6e233c1" target="_top" xlink:title="parser.Main.checkFile">
<polygon fill="white" stroke="black" points="1059,-771.5 1059,-790.5 1177,-790.5 1177,-771.5 1059,-771.5"/>
<text text-anchor="middle" x="1118" y="-778.5" font-family="Helvetica,sans-Serif" font-size="10.00">parser.Main.checkFile</text>
</a>
</g>
</g>
<!-- Node5&#45;&gt;Node6 -->
<g id="edge5" class="edge"><title>Node5&#45;&gt;Node6</title>
<path fill="none" stroke="midnightblue" d="M910.846,-420.774C911.514,-481.76 922.317,-668.441 1026,-762 1035.11,-770.217 1046.83,-775.23 1058.81,-778.217"/>
<polygon fill="midnightblue" stroke="midnightblue" points="914.345,-420.599 910.821,-410.608 907.345,-420.616 914.345,-420.599"/>
</g>
<!-- Node8 -->
<g id="node8" class="node"><title>Node8</title>
<g id="a_node8"><a xlink:href="../../d6/d95/classparser_1_1_parser.html#afc96f83c32dde8c90fdab91dd543dddf" target="_top" xlink:title="parser.Parser.parseCommand">
<polygon fill="white" stroke="black" points="1038.5,-733.5 1038.5,-752.5 1197.5,-752.5 1197.5,-733.5 1038.5,-733.5"/>
<text text-anchor="middle" x="1118" y="-740.5" font-family="Helvetica,sans-Serif" font-size="10.00">parser.Parser.parseCommand</text>
</a>
</g>
</g>
<!-- Node5&#45;&gt;Node8 -->
<g id="edge7" class="edge"><title>Node5&#45;&gt;Node8</title>
<path fill="none" stroke="midnightblue" d="M911.764,-420.826C915.069,-477.396 932.645,-640.781 1026,-723 1030.86,-727.276 1036.42,-730.705 1042.34,-733.446"/>
<polygon fill="midnightblue" stroke="midnightblue" points="915.254,-420.531 911.264,-410.716 908.262,-420.877 915.254,-420.531"/>
</g>
<!-- Node9 -->
<g id="node9" class="node"><title>Node9</title>
<g id="a_node9"><a xlink:href="../../d9/df7/classcontroller_1_1_controller.html#a89b63f37e67efbeddda1f247016c837b" target="_top" xlink:title="controller.Controller.process\lCommand">
<polygon fill="white" stroke="black" points="1043,-684 1043,-714 1193,-714 1193,-684 1043,-684"/>
<text text-anchor="start" x="1051" y="-702" font-family="Helvetica,sans-Serif" font-size="10.00">controller.Controller.process</text>
<text text-anchor="middle" x="1118" y="-691" font-family="Helvetica,sans-Serif" font-size="10.00">Command</text>
</a>
</g>
</g>
<!-- Node5&#45;&gt;Node9 -->
<g id="edge8" class="edge"><title>Node5&#45;&gt;Node9</title>
<path fill="none" stroke="midnightblue" d="M913.434,-420.888C920.67,-471.198 946.733,-604.462 1026,-674 1031.05,-678.43 1036.82,-682.082 1042.94,-685.092"/>
<polygon fill="midnightblue" stroke="midnightblue" points="916.868,-420.156 912.07,-410.71 909.93,-421.087 916.868,-420.156"/>
</g>
<!-- Node12 -->
<g id="node12" class="node"><title>Node12</title>
<g id="a_node12"><a xlink:href="../../d9/df7/classcontroller_1_1_controller.html#aec5e242ff69899c974dbd6302510f70b" target="_top" xlink:title="controller.Controller.processFile">
<polygon fill="white" stroke="black" points="1035.5,-645.5 1035.5,-664.5 1200.5,-664.5 1200.5,-645.5 1035.5,-645.5"/>
<text text-anchor="middle" x="1118" y="-652.5" font-family="Helvetica,sans-Serif" font-size="10.00">controller.Controller.processFile</text>
</a>
</g>
</g>
<!-- Node5&#45;&gt;Node12 -->
<g id="edge11" class="edge"><title>Node5&#45;&gt;Node12</title>
<path fill="none" stroke="midnightblue" d="M914.607,-420.852C924.017,-466.61 953.777,-579.859 1026,-636 1030.84,-639.764 1036.25,-642.829 1041.95,-645.32"/>
<polygon fill="midnightblue" stroke="midnightblue" points="918.031,-420.125 912.682,-410.98 911.16,-421.465 918.031,-420.125"/>
</g>
<!-- Node17 -->
<g id="node17" class="node"><title>Node17</title>
<g id="a_node17"><a xlink:href="../../d1/d01/classparser_1_1tests_1_1_boolean_tester.html#ab009444f79be316835e50742f06550a9" target="_top" xlink:title="parser.tests.BooleanTester.testAnd">
<polygon fill="white" stroke="black" points="1026,-607.5 1026,-626.5 1210,-626.5 1210,-607.5 1026,-607.5"/>
<text text-anchor="middle" x="1118" y="-614.5" font-family="Helvetica,sans-Serif" font-size="10.00">parser.tests.BooleanTester.testAnd</text>
</a>
</g>
</g>
<!-- Node5&#45;&gt;Node17 -->
<g id="edge17" class="edge"><title>Node5&#45;&gt;Node17</title>
<path fill="none" stroke="midnightblue" d="M916.58,-420.444C929.081,-460.32 963.272,-551.43 1026,-597 1031.89,-601.278 1038.52,-604.67 1045.45,-607.356"/>
<polygon fill="midnightblue" stroke="midnightblue" points="919.861,-419.2 913.624,-410.636 913.159,-421.22 919.861,-419.2"/>
</g>
<!-- Node18 -->
<g id="node18" class="node"><title>Node18</title>
<g id="a_node18"><a xlink:href="../../d3/d64/classparser_1_1tests_1_1_math_tester.html#a1677c0f6237b5c48799087b702e713ca" target="_top" xlink:title="parser.tests.MathTester.test\lDifference">
<polygon fill="white" stroke="black" points="1043,-558 1043,-588 1193,-588 1193,-558 1043,-558"/>
<text text-anchor="start" x="1051" y="-576" font-family="Helvetica,sans-Serif" font-size="10.00">parser.tests.MathTester.test</text>
<text text-anchor="middle" x="1118" y="-565" font-family="Helvetica,sans-Serif" font-size="10.00">Difference</text>
</a>
</g>
</g>
<!-- Node5&#45;&gt;Node18 -->
<g id="edge18" class="edge"><title>Node5&#45;&gt;Node18</title>
<path fill="none" stroke="midnightblue" d="M920.383,-419.615C937.171,-450.994 975.382,-514.29 1026,-548 1031.86,-551.905 1038.33,-555.204 1045.02,-557.989"/>
<polygon fill="midnightblue" stroke="midnightblue" points="923.423,-417.875 915.696,-410.626 917.216,-421.111 923.423,-417.875"/>
</g>
<!-- Node19 -->
<g id="node19" class="node"><title>Node19</title>
<g id="a_node19"><a xlink:href="../../d1/d01/classparser_1_1tests_1_1_boolean_tester.html#a99be1a3a9584ed717090f5bb310bdae0" target="_top" xlink:title="parser.tests.BooleanTester.test\lEqual">
<polygon fill="white" stroke="black" points="1035.5,-509 1035.5,-539 1200.5,-539 1200.5,-509 1035.5,-509"/>
<text text-anchor="start" x="1043.5" y="-527" font-family="Helvetica,sans-Serif" font-size="10.00">parser.tests.BooleanTester.test</text>
<text text-anchor="middle" x="1118" y="-516" font-family="Helvetica,sans-Serif" font-size="10.00">Equal</text>
</a>
</g>
</g>
<!-- Node5&#45;&gt;Node19 -->
<g id="edge19" class="edge"><title>Node5&#45;&gt;Node19</title>
<path fill="none" stroke="midnightblue" d="M926.495,-418.226C947.122,-440.132 985.709,-477.668 1026,-499 1033.24,-502.833 1041.12,-506.123 1049.12,-508.935"/>
<polygon fill="midnightblue" stroke="midnightblue" points="928.861,-415.629 919.502,-410.662 923.72,-420.381 928.861,-415.629"/>
</g>
<!-- Node20 -->
<g id="node20" class="node"><title>Node20</title>
<g id="a_node20"><a xlink:href="../../d1/d01/classparser_1_1tests_1_1_boolean_tester.html#ad5101fc213b8aeaa37baf5e3b5868d9d" target="_top" xlink:title="parser.tests.BooleanTester.test\lGreaterThan">
<polygon fill="white" stroke="black" points="1035.5,-460 1035.5,-490 1200.5,-490 1200.5,-460 1035.5,-460"/>
<text text-anchor="start" x="1043.5" y="-478" font-family="Helvetica,sans-Serif" font-size="10.00">parser.tests.BooleanTester.test</text>
<text text-anchor="middle" x="1118" y="-467" font-family="Helvetica,sans-Serif" font-size="10.00">GreaterThan</text>
</a>
</g>
</g>
<!-- Node5&#45;&gt;Node20 -->
<g id="edge20" class="edge"><title>Node5&#45;&gt;Node20</title>
<path fill="none" stroke="midnightblue" d="M940.234,-414.751C963.225,-425.247 996.235,-439.623 1026,-450 1036.06,-453.506 1046.87,-456.843 1057.41,-459.871"/>
<polygon fill="midnightblue" stroke="midnightblue" points="941.581,-411.518 931.033,-410.513 938.652,-417.876 941.581,-411.518"/>
</g>
<!-- Node21 -->
<g id="node21" class="node"><title>Node21</title>
<g id="a_node21"><a xlink:href="../../d1/d01/classparser_1_1tests_1_1_boolean_tester.html#a828f5f4183434799d083a68a00791dba" target="_top" xlink:title="parser.tests.BooleanTester.test\lLessThan">
<polygon fill="white" stroke="black" points="1035.5,-411 1035.5,-441 1200.5,-441 1200.5,-411 1035.5,-411"/>
<text text-anchor="start" x="1043.5" y="-429" font-family="Helvetica,sans-Serif" font-size="10.00">parser.tests.BooleanTester.test</text>
<text text-anchor="middle" x="1118" y="-418" font-family="Helvetica,sans-Serif" font-size="10.00">LessThan</text>
</a>
</g>
</g>
<!-- Node5&#45;&gt;Node21 -->
<g id="edge21" class="edge"><title>Node5&#45;&gt;Node21</title>
<path fill="none" stroke="midnightblue" d="M999.408,-411.729C1011.33,-413.177 1023.53,-414.656 1035.33,-416.088"/>
<polygon fill="midnightblue" stroke="midnightblue" points="999.816,-408.253 989.467,-410.523 998.973,-415.202 999.816,-408.253"/>
</g>
<!-- Node22 -->
<g id="node22" class="node"><title>Node22</title>
<g id="a_node22"><a xlink:href="../../d3/d64/classparser_1_1tests_1_1_math_tester.html#a06cade99788206056814bc20735cd193" target="_top" xlink:title="parser.tests.MathTester.test\lMinus">
<polygon fill="white" stroke="black" points="1043,-362 1043,-392 1193,-392 1193,-362 1043,-362"/>
<text text-anchor="start" x="1051" y="-380" font-family="Helvetica,sans-Serif" font-size="10.00">parser.tests.MathTester.test</text>
<text text-anchor="middle" x="1118" y="-369" font-family="Helvetica,sans-Serif" font-size="10.00">Minus</text>
</a>
</g>
</g>
<!-- Node5&#45;&gt;Node22 -->
<g id="edge22" class="edge"><title>Node5&#45;&gt;Node22</title>
<path fill="none" stroke="midnightblue" d="M1000.04,-390.626C1014.27,-388.969 1028.85,-387.27 1042.69,-385.658"/>
<polygon fill="midnightblue" stroke="midnightblue" points="999.289,-387.19 989.762,-391.824 1000.1,-394.143 999.289,-387.19"/>
</g>
<!-- Node23 -->
<g id="node23" class="node"><title>Node23</title>
<g id="a_node23"><a xlink:href="../../d1/d01/classparser_1_1tests_1_1_boolean_tester.html#a402bae747c40cf9030ea6e85a44b10d2" target="_top" xlink:title="parser.tests.BooleanTester.testNot">
<polygon fill="white" stroke="black" points="1027,-323.5 1027,-342.5 1209,-342.5 1209,-323.5 1027,-323.5"/>
<text text-anchor="middle" x="1118" y="-330.5" font-family="Helvetica,sans-Serif" font-size="10.00">parser.tests.BooleanTester.testNot</text>
</a>
</g>
</g>
<!-- Node5&#45;&gt;Node23 -->
<g id="edge23" class="edge"><title>Node5&#45;&gt;Node23</title>
<path fill="none" stroke="midnightblue" d="M940.122,-387.135C963.051,-376.64 996.034,-362.463 1026,-353 1038.8,-348.957 1052.87,-345.433 1066.03,-342.517"/>
<polygon fill="midnightblue" stroke="midnightblue" points="938.552,-384.005 930.949,-391.383 941.494,-390.357 938.552,-384.005"/>
</g>
<!-- Node24 -->
<g id="node24" class="node"><title>Node24</title>
<g id="a_node24"><a xlink:href="../../d1/d01/classparser_1_1tests_1_1_boolean_tester.html#ac0deac7b7ba9e48e30a9ed6cff134d09" target="_top" xlink:title="parser.tests.BooleanTester.test\lNotEqual">
<polygon fill="white" stroke="black" points="1035.5,-274 1035.5,-304 1200.5,-304 1200.5,-274 1035.5,-274"/>
<text text-anchor="start" x="1043.5" y="-292" font-family="Helvetica,sans-Serif" font-size="10.00">parser.tests.BooleanTester.test</text>
<text text-anchor="middle" x="1118" y="-281" font-family="Helvetica,sans-Serif" font-size="10.00">NotEqual</text>
</a>
</g>
</g>
<!-- Node5&#45;&gt;Node24 -->
<g id="edge24" class="edge"><title>Node5&#45;&gt;Node24</title>
<path fill="none" stroke="midnightblue" d="M928.479,-384.339C949.863,-364.816 987.937,-332.758 1026,-314 1033.64,-310.234 1041.93,-306.966 1050.3,-304.15"/>
<polygon fill="midnightblue" stroke="midnightblue" points="925.831,-382.021 920.885,-391.39 930.594,-387.151 925.831,-382.021"/>
</g>
<!-- Node25 -->
<g id="node25" class="node"><title>Node25</title>
<g id="a_node25"><a xlink:href="../../d1/d01/classparser_1_1tests_1_1_boolean_tester.html#a733a8bed2ef17160461077bd2e53490c" target="_top" xlink:title="parser.tests.BooleanTester.testOr">
<polygon fill="white" stroke="black" points="1030,-235.5 1030,-254.5 1206,-254.5 1206,-235.5 1030,-235.5"/>
<text text-anchor="middle" x="1118" y="-242.5" font-family="Helvetica,sans-Serif" font-size="10.00">parser.tests.BooleanTester.testOr</text>
</a>
</g>
</g>
<!-- Node5&#45;&gt;Node25 -->
<g id="edge25" class="edge"><title>Node5&#45;&gt;Node25</title>
<path fill="none" stroke="midnightblue" d="M921.304,-382.273C938.738,-352.457 976.992,-294.551 1026,-265 1033.2,-260.657 1041.23,-257.253 1049.46,-254.585"/>
<polygon fill="midnightblue" stroke="midnightblue" points="918.113,-380.805 916.205,-391.227 924.195,-384.27 918.113,-380.805"/>
</g>
<!-- Node26 -->
<g id="node26" class="node"><title>Node26</title>
<g id="a_node26"><a xlink:href="../../d3/d64/classparser_1_1tests_1_1_math_tester.html#af3c9e732ab91e0cad71ea7cd66a7a0d4" target="_top" xlink:title="parser.tests.MathTester.test\lProduct">
<polygon fill="white" stroke="black" points="1043,-186 1043,-216 1193,-216 1193,-186 1043,-186"/>
<text text-anchor="start" x="1051" y="-204" font-family="Helvetica,sans-Serif" font-size="10.00">parser.tests.MathTester.test</text>
<text text-anchor="middle" x="1118" y="-193" font-family="Helvetica,sans-Serif" font-size="10.00">Product</text>
</a>
</g>
</g>
<!-- Node5&#45;&gt;Node26 -->
<g id="edge26" class="edge"><title>Node5&#45;&gt;Node26</title>
<path fill="none" stroke="midnightblue" d="M918.167,-381.893C932.725,-345.739 969.268,-267.257 1026,-226 1031.3,-222.146 1037.17,-218.885 1043.29,-216.128"/>
<polygon fill="midnightblue" stroke="midnightblue" points="914.876,-380.697 914.5,-391.285 921.397,-383.243 914.876,-380.697"/>
</g>
<!-- Node27 -->
<g id="node27" class="node"><title>Node27</title>
<g id="a_node27"><a xlink:href="../../d3/d64/classparser_1_1tests_1_1_math_tester.html#a0bee886e0100c55a64fb804fa462e079" target="_top" xlink:title="parser.tests.MathTester.test\lQuotient">
<polygon fill="white" stroke="black" points="1043,-137 1043,-167 1193,-167 1193,-137 1043,-137"/>
<text text-anchor="start" x="1051" y="-155" font-family="Helvetica,sans-Serif" font-size="10.00">parser.tests.MathTester.test</text>
<text text-anchor="middle" x="1118" y="-144" font-family="Helvetica,sans-Serif" font-size="10.00">Quotient</text>
</a>
</g>
</g>
<!-- Node5&#45;&gt;Node27 -->
<g id="edge27" class="edge"><title>Node5&#45;&gt;Node27</title>
<path fill="none" stroke="midnightblue" d="M915.421,-381.2C926.244,-337.44 958.272,-232.027 1026,-177 1031.09,-172.867 1036.8,-169.416 1042.83,-166.534"/>
<polygon fill="midnightblue" stroke="midnightblue" points="911.963,-380.616 913.068,-391.153 918.775,-382.227 911.963,-380.616"/>
</g>
<!-- Node28 -->
<g id="node28" class="node"><title>Node28</title>
<g id="a_node28"><a xlink:href="../../d3/d64/classparser_1_1tests_1_1_math_tester.html#a0834a1beeeb3689ab52b3523b1ec053e" target="_top" xlink:title="parser.tests.MathTester.test\lRandom">
<polygon fill="white" stroke="black" points="1043,-88 1043,-118 1193,-118 1193,-88 1043,-88"/>
<text text-anchor="start" x="1051" y="-106" font-family="Helvetica,sans-Serif" font-size="10.00">parser.tests.MathTester.test</text>
<text text-anchor="middle" x="1118" y="-95" font-family="Helvetica,sans-Serif" font-size="10.00">Random</text>
</a>
</g>
</g>
<!-- Node5&#45;&gt;Node28 -->
<g id="edge28" class="edge"><title>Node5&#45;&gt;Node28</title>
<path fill="none" stroke="midnightblue" d="M913.434,-381.112C920.67,-330.802 946.733,-197.538 1026,-128 1031.05,-123.57 1036.82,-119.918 1042.94,-116.908"/>
<polygon fill="midnightblue" stroke="midnightblue" points="909.93,-380.913 912.07,-391.29 916.868,-381.844 909.93,-380.913"/>
</g>
<!-- Node29 -->
<g id="node29" class="node"><title>Node29</title>
<g id="a_node29"><a xlink:href="../../d3/d64/classparser_1_1tests_1_1_math_tester.html#aeba46a296188edda903e21c6be23bdd8" target="_top" xlink:title="parser.tests.MathTester.test\lRemainder">
<polygon fill="white" stroke="black" points="1043,-39 1043,-69 1193,-69 1193,-39 1043,-39"/>
<text text-anchor="start" x="1051" y="-57" font-family="Helvetica,sans-Serif" font-size="10.00">parser.tests.MathTester.test</text>
<text text-anchor="middle" x="1118" y="-46" font-family="Helvetica,sans-Serif" font-size="10.00">Remainder</text>
</a>
</g>
</g>
<!-- Node5&#45;&gt;Node29 -->
<g id="edge29" class="edge"><title>Node5&#45;&gt;Node29</title>
<path fill="none" stroke="midnightblue" d="M911.977,-381.41C915.852,-325.471 934.805,-163.607 1026,-79 1030.92,-74.4313 1036.61,-70.6847 1042.68,-67.6142"/>
<polygon fill="midnightblue" stroke="midnightblue" points="908.483,-381.21 911.372,-391.403 915.47,-381.633 908.483,-381.21"/>
</g>
<!-- Node30 -->
<g id="node30" class="node"><title>Node30</title>
<g id="a_node30"><a xlink:href="../../d3/d64/classparser_1_1tests_1_1_math_tester.html#a0059e207747b76f3579b4218cfe7c5dc" target="_top" xlink:title="parser.tests.MathTester.testSum">
<polygon fill="white" stroke="black" points="1031.5,-0.5 1031.5,-19.5 1204.5,-19.5 1204.5,-0.5 1031.5,-0.5"/>
<text text-anchor="middle" x="1118" y="-7.5" font-family="Helvetica,sans-Serif" font-size="10.00">parser.tests.MathTester.testSum</text>
</a>
</g>
</g>
<!-- Node5&#45;&gt;Node30 -->
<g id="edge30" class="edge"><title>Node5&#45;&gt;Node30</title>
<path fill="none" stroke="midnightblue" d="M910.693,-381.155C910.882,-319.1 920.356,-127.099 1026,-30 1030.64,-25.731 1035.99,-22.2985 1041.7,-19.5468"/>
<polygon fill="midnightblue" stroke="midnightblue" points="907.195,-381.493 910.75,-391.473 914.195,-381.454 907.195,-381.493"/>
</g>
<!-- Node7 -->
<g id="node7" class="node"><title>Node7</title>
<g id="a_node7"><a xlink:href="../../d7/dde/classparser_1_1_main.html#ac3abd936d94632f17feedf0cce82afff" target="_top" xlink:title="parser.Main.main">
<polygon fill="white" stroke="black" points="1263.5,-771.5 1263.5,-790.5 1362.5,-790.5 1362.5,-771.5 1263.5,-771.5"/>
<text text-anchor="middle" x="1313" y="-778.5" font-family="Helvetica,sans-Serif" font-size="10.00">parser.Main.main</text>
</a>
</g>
</g>
<!-- Node6&#45;&gt;Node7 -->
<g id="edge6" class="edge"><title>Node6&#45;&gt;Node7</title>
<path fill="none" stroke="midnightblue" d="M1187.37,-781C1212.47,-781 1240.36,-781 1263.38,-781"/>
<polygon fill="midnightblue" stroke="midnightblue" points="1187.17,-777.5 1177.17,-781 1187.17,-784.5 1187.17,-777.5"/>
</g>
<!-- Node10 -->
<g id="node10" class="node"><title>Node10</title>
<g id="a_node10"><a xlink:href="../../d9/df7/classcontroller_1_1_controller.html#a2bfb87bca460d87b2c97e0b5045a2175" target="_top" xlink:title="controller.Controller.create\lRunCommandListener">
<polygon fill="white" stroke="black" points="1416.5,-686 1416.5,-716 1559.5,-716 1559.5,-686 1416.5,-686"/>
<text text-anchor="start" x="1424.5" y="-704" font-family="Helvetica,sans-Serif" font-size="10.00">controller.Controller.create</text>
<text text-anchor="middle" x="1488" y="-693" font-family="Helvetica,sans-Serif" font-size="10.00">RunCommandListener</text>
</a>
</g>
</g>
<!-- Node9&#45;&gt;Node10 -->
<g id="edge9" class="edge"><title>Node9&#45;&gt;Node10</title>
<path fill="none" stroke="midnightblue" d="M1203.16,-699.457C1267.57,-699.807 1355.39,-700.285 1416.21,-700.615"/>
<polygon fill="midnightblue" stroke="midnightblue" points="1203.05,-695.957 1193.03,-699.402 1203.01,-702.957 1203.05,-695.957"/>
</g>
<!-- Node11 -->
<g id="node11" class="node"><title>Node11</title>
<g id="a_node11"><a xlink:href="../../d9/df7/classcontroller_1_1_controller.html#a47511ec57338c8e75e71e9314cda5271" target="_top" xlink:title="controller.Controller.Controller">
<polygon fill="white" stroke="black" points="1956.5,-667.5 1956.5,-686.5 2115.5,-686.5 2115.5,-667.5 1956.5,-667.5"/>
<text text-anchor="middle" x="2036" y="-674.5" font-family="Helvetica,sans-Serif" font-size="10.00">controller.Controller.Controller</text>
</a>
</g>
</g>
<!-- Node10&#45;&gt;Node11 -->
<g id="edge10" class="edge"><title>Node10&#45;&gt;Node11</title>
<path fill="none" stroke="midnightblue" d="M1569.67,-697.454C1673.64,-692.884 1853.25,-684.989 1956.27,-680.461"/>
<polygon fill="midnightblue" stroke="midnightblue" points="1569.38,-693.963 1559.54,-697.899 1569.69,-700.957 1569.38,-693.963"/>
</g>
<!-- Node13 -->
<g id="node13" class="node"><title>Node13</title>
<g id="a_node13"><a xlink:href="../../d9/df7/classcontroller_1_1_controller.html#a37c3009658f66dc4de0be01b75adf660" target="_top" xlink:title="controller.Controller.load\lWorkspace">
<polygon fill="white" stroke="black" points="1246.5,-638 1246.5,-668 1379.5,-668 1379.5,-638 1246.5,-638"/>
<text text-anchor="start" x="1254.5" y="-656" font-family="Helvetica,sans-Serif" font-size="10.00">controller.Controller.load</text>
<text text-anchor="middle" x="1313" y="-645" font-family="Helvetica,sans-Serif" font-size="10.00">Workspace</text>
</a>
</g>
</g>
<!-- Node12&#45;&gt;Node13 -->
<g id="edge12" class="edge"><title>Node12&#45;&gt;Node13</title>
<path fill="none" stroke="midnightblue" d="M1210.62,-654.051C1222.63,-653.926 1234.74,-653.801 1246.21,-653.682"/>
<polygon fill="midnightblue" stroke="midnightblue" points="1210.53,-650.551 1200.57,-654.155 1210.61,-657.551 1210.53,-650.551"/>
</g>
<!-- Node14 -->
<g id="node14" class="node"><title>Node14</title>
<g id="a_node14"><a xlink:href="../../d9/df7/classcontroller_1_1_controller.html#aa46804b9ca132af8504b5dafb1cadb0d" target="_top" xlink:title="controller.Controller.create\lFileCommands">
<polygon fill="white" stroke="black" points="1416.5,-637 1416.5,-667 1559.5,-667 1559.5,-637 1416.5,-637"/>
<text text-anchor="start" x="1424.5" y="-655" font-family="Helvetica,sans-Serif" font-size="10.00">controller.Controller.create</text>
<text text-anchor="middle" x="1488" y="-644" font-family="Helvetica,sans-Serif" font-size="10.00">FileCommands</text>
</a>
</g>
</g>
<!-- Node13&#45;&gt;Node14 -->
<g id="edge13" class="edge"><title>Node13&#45;&gt;Node14</title>
<path fill="none" stroke="midnightblue" d="M1390.08,-652.56C1398.83,-652.51 1407.72,-652.458 1416.39,-652.408"/>
<polygon fill="midnightblue" stroke="midnightblue" points="1389.88,-649.061 1379.9,-652.619 1389.92,-656.061 1389.88,-649.061"/>
</g>
<!-- Node15 -->
<g id="node15" class="node"><title>Node15</title>
<g id="a_node15"><a xlink:href="../../d9/df7/classcontroller_1_1_controller.html#af4c05286f1534b1fa6de523c54549288" target="_top" xlink:title="controller.Controller.create\lFileMenu">
<polygon fill="white" stroke="black" points="1596.5,-639 1596.5,-669 1739.5,-669 1739.5,-639 1596.5,-639"/>
<text text-anchor="start" x="1604.5" y="-657" font-family="Helvetica,sans-Serif" font-size="10.00">controller.Controller.create</text>
<text text-anchor="middle" x="1668" y="-646" font-family="Helvetica,sans-Serif" font-size="10.00">FileMenu</text>
</a>
</g>
</g>
<!-- Node14&#45;&gt;Node15 -->
<g id="edge14" class="edge"><title>Node14&#45;&gt;Node15</title>
<path fill="none" stroke="midnightblue" d="M1569.65,-652.906C1578.6,-653.007 1587.67,-653.109 1596.48,-653.208"/>
<polygon fill="midnightblue" stroke="midnightblue" points="1569.64,-649.406 1559.61,-652.793 1569.57,-656.406 1569.64,-649.406"/>
</g>
<!-- Node16 -->
<g id="node16" class="node"><title>Node16</title>
<g id="a_node16"><a xlink:href="../../d9/df7/classcontroller_1_1_controller.html#a2901bf43bb8e47b485558dbf00d40d6d" target="_top" xlink:title="controller.Controller.create\lJMenuBar">
<polygon fill="white" stroke="black" points="1776.5,-640 1776.5,-670 1919.5,-670 1919.5,-640 1776.5,-640"/>
<text text-anchor="start" x="1784.5" y="-658" font-family="Helvetica,sans-Serif" font-size="10.00">controller.Controller.create</text>
<text text-anchor="middle" x="1848" y="-647" font-family="Helvetica,sans-Serif" font-size="10.00">JMenuBar</text>
</a>
</g>
</g>
<!-- Node15&#45;&gt;Node16 -->
<g id="edge15" class="edge"><title>Node15&#45;&gt;Node16</title>
<path fill="none" stroke="midnightblue" d="M1749.65,-654.453C1758.6,-654.503 1767.67,-654.554 1776.48,-654.604"/>
<polygon fill="midnightblue" stroke="midnightblue" points="1749.63,-650.953 1739.61,-654.397 1749.59,-657.953 1749.63,-650.953"/>
</g>
<!-- Node16&#45;&gt;Node11 -->
<g id="edge16" class="edge"><title>Node16&#45;&gt;Node11</title>
<path fill="none" stroke="midnightblue" d="M1929.55,-664.527C1938.45,-665.58 1947.5,-666.651 1956.38,-667.701"/>
<polygon fill="midnightblue" stroke="midnightblue" points="1929.93,-661.048 1919.58,-663.349 1929.1,-667.999 1929.93,-661.048"/>
</g>
</g>
</svg>
        <g id="navigator" transform="translate(0 0)" fill="#404254">
                <rect fill="#f2f5e9" fill-opacity="0.5" stroke="#606060" stroke-width=".5" x="0" y="0" width="60" height="60"/>
                <use id="zoomplus" xlink:href="#zoomPlus" x="17" y="9" onmousedown="handleZoom(evt,'in')"/>
                <use id="zoomminus" xlink:href="#zoomMin" x="42" y="9" onmousedown="handleZoom(evt,'out')"/>
                <use id="reset" xlink:href="#resetDef" x="30" y="36" onmousedown="handleReset()"/>
                <g id="arrowUp" xlink:href="#dirArrow" transform="translate(30 24)" onmousedown="handlePan(0,-1)">
                  <use xlink:href="#rim" fill="#404040">
                        <set attributeName="fill" to="#808080" begin="arrowUp.mouseover" end="arrowUp.mouseout"/>
                  </use>
                  <path fill="none" stroke="white" stroke-width="1.5" d="M0,-3.0v7 M-2.5,-0.5L0,-3.0L2.5,-0.5"/>
                </g>
                <g id="arrowRight" xlink:href="#dirArrow" transform="rotate(90) translate(36 -43)" onmousedown="handlePan(1,0)">
                  <use xlink:href="#rim" fill="#404040">
                        <set attributeName="fill" to="#808080" begin="arrowRight.mouseover" end="arrowRight.mouseout"/>
                  </use>
                  <path fill="none" stroke="white" stroke-width="1.5" d="M0,-3.0v7 M-2.5,-0.5L0,-3.0L2.5,-0.5"/>
                </g>
                <g id="arrowDown" xlink:href="#dirArrow" transform="rotate(180) translate(-30 -48)" onmousedown="handlePan(0,1)">
                  <use xlink:href="#rim" fill="#404040">
                        <set attributeName="fill" to="#808080" begin="arrowDown.mouseover" end="arrowDown.mouseout"/>
                  </use>
                  <path fill="none" stroke="white" stroke-width="1.5" d="M0,-3.0v7 M-2.5,-0.5L0,-3.0L2.5,-0.5"/>
                </g>
                <g id="arrowLeft" xlink:href="#dirArrow" transform="rotate(270) translate(-36 17)" onmousedown="handlePan(-1,0)">
                  <use xlink:href="#rim" fill="#404040">
                        <set attributeName="fill" to="#808080" begin="arrowLeft.mouseover" end="arrowLeft.mouseout"/>
                  </use>
                  <path fill="none" stroke="white" stroke-width="1.5" d="M0,-3.0v7 M-2.5,-0.5L0,-3.0L2.5,-0.5"/>
                </g>
        </g>
        <svg viewBox="0 0 15 15" width="100%" height="30px" preserveAspectRatio="xMaxYMin meet">
         <g id="arrow_out" transform="scale(0.3 0.3)">
          <a xlink:href="classparser_1_1nodes_1_1_node_information_a0672ed587472f62f81cad30d9c35e3f0_icgraph_org.svg" target="_base">
           <rect id="button" ry="5" rx="5" y="6" x="6" height="38" width="38"
                fill="#f2f5e9" fill-opacity="0.5" stroke="#606060" stroke-width="1.0"/>
           <path id="arrow"
             d="M 11.500037,31.436501 C 11.940474,20.09759 22.043105,11.32322 32.158766,21.979434 L 37.068811,17.246167 C 37.068811,17.246167 37.088388,32 37.088388,32 L 22.160133,31.978069 C 22.160133,31.978069 26.997745,27.140456 26.997745,27.140456 C 18.528582,18.264221 13.291696,25.230495 11.500037,31.436501 z"
             style="fill:#404040;"/>
          </a>
         </g>
        </svg>
</svg>
