<?xml version="1.0" encoding="UTF-8" standalone="no"?>
<!DOCTYPE svg PUBLIC "-//W3C//DTD SVG 1.1//EN"
 "http://www.w3.org/Graphics/SVG/1.1/DTD/svg11.dtd">
<!-- Generated by graphviz version 2.36.0 (20140111.2315)
 -->
<!-- Title: parser.nodes.BasicControl Pages: 1 -->
<!--zoomable 791 -->
<svg id="main" version="1.1" xmlns="http://www.w3.org/2000/svg" xmlns:xlink="http://www.w3.org/1999/xlink" xml:space="preserve" onload="init(evt)">
<style type="text/css"><![CDATA[
.edge:hover path { stroke: red; }
.edge:hover polygon { stroke: red; fill: red; }
]]></style>
<script type="text/javascript"><![CDATA[
var edges = document.getElementsByTagName('g');
if (edges && edges.length) {
  for (var i=0;i<edges.length;i++) {
    if (edges[i].id.substr(0,4)=='edge') {
      edges[i].setAttribute('class','edge');
    }
  }
}
]]></script>
        <defs>
                <circle id="rim" cx="0" cy="0" r="7"/>
                <circle id="rim2" cx="0" cy="0" r="3.5"/>
                <g id="zoomPlus">
                        <use xlink:href="#rim" fill="#404040">
                                <set attributeName="fill" to="#808080" begin="zoomplus.mouseover" end="zoomplus.mouseout"/>
                        </use>
                        <path d="M-4,0h8M0,-4v8" fill="none" stroke="white" stroke-width="1.5" pointer-events="none"/>
                </g>
                <g id="zoomMin">
                        <use xlink:href="#rim" fill="#404040">
                                <set attributeName="fill" to="#808080" begin="zoomminus.mouseover" end="zoomminus.mouseout"/>
                        </use>
                        <path d="M-4,0h8" fill="none" stroke="white" stroke-width="1.5" pointer-events="none"/>
                </g>
                <g id="dirArrow">
                        <path fill="none" stroke="white" stroke-width="1.5" d="M0,-3.0v7 M-2.5,-0.5L0,-3.0L2.5,-0.5"/>
                </g>
               <g id="resetDef">
                       <use xlink:href="#rim2" fill="#404040">
                               <set attributeName="fill" to="#808080" begin="reset.mouseover" end="reset.mouseout"/>
                       </use>
               </g>
        </defs>

<script type="text/javascript">
var viewWidth = 760;
var viewHeight = 791;
var sectionId = 'dynsection-0';
</script>
<script xlink:href="../../svgpan.js"/>
<svg id="graph" class="graph">
<g id="viewport">
<title>parser.nodes.BasicControl</title>
<polygon fill="white" stroke="none" points="-4,4 -4,-787 756,-787 756,4 -4,4"/>
<!-- Node1 -->
<g id="node1" class="node"><title>Node1</title>
<polygon fill="#bfbfbf" stroke="black" points="352,-376.5 352,-395.5 494,-395.5 494,-376.5 352,-376.5"/>
<text text-anchor="middle" x="423" y="-383.5" font-family="Helvetica,sans-Serif" font-size="10.00">parser.nodes.BasicControl</text>
</g>
<!-- Node4 -->
<g id="node4" class="node"><title>Node4</title>
<g id="a_node4"><a xlink:href="../../d7/dd6/classparser_1_1commands_1_1turtle_1_1commands_1_1_clear_screen.html" target="_top" xlink:title="parser.commands.turtle.commands.\lClearScreen">
<polygon fill="white" stroke="black" points="545,-753 545,-783 737,-783 737,-753 545,-753"/>
<text text-anchor="start" x="553" y="-771" font-family="Helvetica,sans-Serif" font-size="10.00">parser.commands.turtle.commands.</text>
<text text-anchor="middle" x="641" y="-760" font-family="Helvetica,sans-Serif" font-size="10.00">ClearScreen</text>
</a>
</g>
</g>
<!-- Node1&#45;&gt;Node4 -->
<g id="edge3" class="edge"><title>Node1&#45;&gt;Node4</title>
<path fill="none" stroke="midnightblue" d="M423.452,-405.839C422.933,-466.224 430.047,-649.356 530,-743 534.502,-747.218 539.561,-750.776 544.973,-753.773"/>
<polygon fill="midnightblue" stroke="midnightblue" points="426.953,-405.809 423.625,-395.75 419.954,-405.689 426.953,-405.809"/>
</g>
<!-- Node5 -->
<g id="node5" class="node"><title>Node5</title>
<g id="a_node5"><a xlink:href="../../d7/d9c/classparser_1_1commands_1_1turtle_1_1commands_1_1_clear_stamps.html" target="_top" xlink:title="parser.commands.turtle.commands.\lClearStamps">
<polygon fill="white" stroke="black" points="545,-704 545,-734 737,-734 737,-704 545,-704"/>
<text text-anchor="start" x="553" y="-722" font-family="Helvetica,sans-Serif" font-size="10.00">parser.commands.turtle.commands.</text>
<text text-anchor="middle" x="641" y="-711" font-family="Helvetica,sans-Serif" font-size="10.00">ClearStamps</text>
</a>
</g>
</g>
<!-- Node1&#45;&gt;Node5 -->
<g id="edge4" class="edge"><title>Node1&#45;&gt;Node5</title>
<path fill="none" stroke="midnightblue" d="M424.525,-405.618C427.1,-460.234 442.183,-615.188 530,-694 534.518,-698.055 539.555,-701.495 544.919,-704.408"/>
<polygon fill="midnightblue" stroke="midnightblue" points="428.019,-405.41 424.143,-395.55 421.024,-405.675 428.019,-405.41"/>
</g>
<!-- Node6 -->
<g id="node6" class="node"><title>Node6</title>
<g id="a_node6"><a xlink:href="../../dd/d89/classparser_1_1commands_1_1turtle_1_1commands_1_1_hide_turtle.html" target="_top" xlink:title="parser.commands.turtle.commands.\lHideTurtle">
<polygon fill="white" stroke="black" points="545,-655 545,-685 737,-685 737,-655 545,-655"/>
<text text-anchor="start" x="553" y="-673" font-family="Helvetica,sans-Serif" font-size="10.00">parser.commands.turtle.commands.</text>
<text text-anchor="middle" x="641" y="-662" font-family="Helvetica,sans-Serif" font-size="10.00">HideTurtle</text>
</a>
</g>
</g>
<!-- Node1&#45;&gt;Node6 -->
<g id="edge5" class="edge"><title>Node1&#45;&gt;Node6</title>
<path fill="none" stroke="midnightblue" d="M425.972,-405.69C431.938,-454.337 454.329,-580.887 530,-645 534.557,-648.861 539.59,-652.157 544.92,-654.968"/>
<polygon fill="midnightblue" stroke="midnightblue" points="429.429,-405.112 424.834,-395.565 422.473,-405.893 429.429,-405.112"/>
</g>
<!-- Node7 -->
<g id="node7" class="node"><title>Node7</title>
<g id="a_node7"><a xlink:href="../../df/d5b/classparser_1_1commands_1_1turtle_1_1commands_1_1_home.html" target="_top" xlink:title="parser.commands.turtle.commands.Home">
<polygon fill="white" stroke="black" points="530.5,-616.5 530.5,-635.5 751.5,-635.5 751.5,-616.5 530.5,-616.5"/>
<text text-anchor="middle" x="641" y="-623.5" font-family="Helvetica,sans-Serif" font-size="10.00">parser.commands.turtle.commands.Home</text>
</a>
</g>
</g>
<!-- Node1&#45;&gt;Node7 -->
<g id="edge6" class="edge"><title>Node1&#45;&gt;Node7</title>
<path fill="none" stroke="midnightblue" d="M427.362,-405.849C435.89,-449.645 462.667,-554.725 530,-606 535.559,-610.233 541.73,-613.672 548.231,-616.455"/>
<polygon fill="midnightblue" stroke="midnightblue" points="430.78,-405.086 425.535,-395.881 423.895,-406.348 430.78,-405.086"/>
</g>
<!-- Node8 -->
<g id="node8" class="node"><title>Node8</title>
<g id="a_node8"><a xlink:href="../../d0/df3/classparser_1_1commands_1_1turtle_1_1commands_1_1_pen_down.html" target="_top" xlink:title="parser.commands.turtle.commands.\lPenDown">
<polygon fill="white" stroke="black" points="545,-567 545,-597 737,-597 737,-567 545,-567"/>
<text text-anchor="start" x="553" y="-585" font-family="Helvetica,sans-Serif" font-size="10.00">parser.commands.turtle.commands.</text>
<text text-anchor="middle" x="641" y="-574" font-family="Helvetica,sans-Serif" font-size="10.00">PenDown</text>
</a>
</g>
</g>
<!-- Node1&#45;&gt;Node8 -->
<g id="edge7" class="edge"><title>Node1&#45;&gt;Node8</title>
<path fill="none" stroke="midnightblue" d="M430.301,-405.346C443.036,-441.238 475.371,-518.026 530,-557 535.421,-560.867 541.342,-564.148 547.535,-566.93"/>
<polygon fill="midnightblue" stroke="midnightblue" points="433.519,-403.939 426.975,-395.607 426.895,-406.201 433.519,-403.939"/>
</g>
<!-- Node9 -->
<g id="node9" class="node"><title>Node9</title>
<g id="a_node9"><a xlink:href="../../da/d5a/classparser_1_1commands_1_1turtle_1_1commands_1_1_pen_up.html" target="_top" xlink:title="parser.commands.turtle.commands.\lPenUp">
<polygon fill="white" stroke="black" points="545,-518 545,-548 737,-548 737,-518 545,-518"/>
<text text-anchor="start" x="553" y="-536" font-family="Helvetica,sans-Serif" font-size="10.00">parser.commands.turtle.commands.</text>
<text text-anchor="middle" x="641" y="-525" font-family="Helvetica,sans-Serif" font-size="10.00">PenUp</text>
</a>
</g>
</g>
<!-- Node1&#45;&gt;Node9 -->
<g id="edge8" class="edge"><title>Node1&#45;&gt;Node9</title>
<path fill="none" stroke="midnightblue" d="M434.8,-404.653C451.559,-431.84 486.476,-481.942 530,-508 536.469,-511.873 543.48,-515.147 550.724,-517.913"/>
<polygon fill="midnightblue" stroke="midnightblue" points="437.611,-402.535 429.465,-395.76 431.608,-406.136 437.611,-402.535"/>
</g>
<!-- Node10 -->
<g id="node10" class="node"><title>Node10</title>
<g id="a_node10"><a xlink:href="../../da/dd8/classparser_1_1commands_1_1turtle_1_1commands_1_1_show_turtle.html" target="_top" xlink:title="parser.commands.turtle.commands.\lShowTurtle">
<polygon fill="white" stroke="black" points="545,-469 545,-499 737,-499 737,-469 545,-469"/>
<text text-anchor="start" x="553" y="-487" font-family="Helvetica,sans-Serif" font-size="10.00">parser.commands.turtle.commands.</text>
<text text-anchor="middle" x="641" y="-476" font-family="Helvetica,sans-Serif" font-size="10.00">ShowTurtle</text>
</a>
</g>
</g>
<!-- Node1&#45;&gt;Node10 -->
<g id="edge9" class="edge"><title>Node1&#45;&gt;Node10</title>
<path fill="none" stroke="midnightblue" d="M442.69,-402.188C462.896,-418.856 496.696,-444.395 530,-459 538.788,-462.854 548.242,-466.149 557.785,-468.957"/>
<polygon fill="midnightblue" stroke="midnightblue" points="444.812,-399.399 434.905,-395.645 440.309,-404.758 444.812,-399.399"/>
</g>
<!-- Node11 -->
<g id="node11" class="node"><title>Node11</title>
<g id="a_node11"><a xlink:href="../../d3/d25/classparser_1_1commands_1_1turtle_1_1commands_1_1_stamp.html" target="_top" xlink:title="parser.commands.turtle.commands.\lStamp">
<polygon fill="white" stroke="black" points="545,-420 545,-450 737,-450 737,-420 545,-420"/>
<text text-anchor="start" x="553" y="-438" font-family="Helvetica,sans-Serif" font-size="10.00">parser.commands.turtle.commands.</text>
<text text-anchor="middle" x="641" y="-427" font-family="Helvetica,sans-Serif" font-size="10.00">Stamp</text>
</a>
</g>
</g>
<!-- Node1&#45;&gt;Node11 -->
<g id="edge10" class="edge"><title>Node1&#45;&gt;Node11</title>
<path fill="none" stroke="midnightblue" d="M475.93,-397.78C505.236,-404.429 542.165,-412.806 573.563,-419.929"/>
<polygon fill="midnightblue" stroke="midnightblue" points="476.43,-394.305 465.903,-395.506 474.881,-401.131 476.43,-394.305"/>
</g>
<!-- Node12 -->
<g id="node12" class="node"><title>Node12</title>
<g id="a_node12"><a xlink:href="../../d7/d77/classparser_1_1commands_1_1turtle_1_1queries_1_1_heading.html" target="_top" xlink:title="parser.commands.turtle.queries.\lHeading">
<polygon fill="white" stroke="black" points="554.5,-371 554.5,-401 727.5,-401 727.5,-371 554.5,-371"/>
<text text-anchor="start" x="562.5" y="-389" font-family="Helvetica,sans-Serif" font-size="10.00">parser.commands.turtle.queries.</text>
<text text-anchor="middle" x="641" y="-378" font-family="Helvetica,sans-Serif" font-size="10.00">Heading</text>
</a>
</g>
</g>
<!-- Node1&#45;&gt;Node12 -->
<g id="edge11" class="edge"><title>Node1&#45;&gt;Node12</title>
<path fill="none" stroke="midnightblue" d="M504.185,-386C520.55,-386 537.828,-386 554.374,-386"/>
<polygon fill="midnightblue" stroke="midnightblue" points="504.129,-382.5 494.129,-386 504.129,-389.5 504.129,-382.5"/>
</g>
<!-- Node13 -->
<g id="node13" class="node"><title>Node13</title>
<g id="a_node13"><a xlink:href="../../d5/d57/classparser_1_1commands_1_1turtle_1_1queries_1_1_is_pen_down.html" target="_top" xlink:title="parser.commands.turtle.queries.\lIsPenDown">
<polygon fill="white" stroke="black" points="554.5,-322 554.5,-352 727.5,-352 727.5,-322 554.5,-322"/>
<text text-anchor="start" x="562.5" y="-340" font-family="Helvetica,sans-Serif" font-size="10.00">parser.commands.turtle.queries.</text>
<text text-anchor="middle" x="641" y="-329" font-family="Helvetica,sans-Serif" font-size="10.00">IsPenDown</text>
</a>
</g>
</g>
<!-- Node1&#45;&gt;Node13 -->
<g id="edge12" class="edge"><title>Node1&#45;&gt;Node13</title>
<path fill="none" stroke="midnightblue" d="M473.852,-374.06C491.565,-369.866 511.658,-365.164 530,-361 542.962,-358.058 556.799,-354.985 570.132,-352.059"/>
<polygon fill="midnightblue" stroke="midnightblue" points="472.65,-370.748 463.729,-376.463 474.267,-377.559 472.65,-370.748"/>
</g>
<!-- Node14 -->
<g id="node14" class="node"><title>Node14</title>
<g id="a_node14"><a xlink:href="../../de/dfc/classparser_1_1commands_1_1turtle_1_1queries_1_1_is_showing.html" target="_top" xlink:title="parser.commands.turtle.queries.\lIsShowing">
<polygon fill="white" stroke="black" points="554.5,-273 554.5,-303 727.5,-303 727.5,-273 554.5,-273"/>
<text text-anchor="start" x="562.5" y="-291" font-family="Helvetica,sans-Serif" font-size="10.00">parser.commands.turtle.queries.</text>
<text text-anchor="middle" x="641" y="-280" font-family="Helvetica,sans-Serif" font-size="10.00">IsShowing</text>
</a>
</g>
</g>
<!-- Node1&#45;&gt;Node14 -->
<g id="edge13" class="edge"><title>Node1&#45;&gt;Node14</title>
<path fill="none" stroke="midnightblue" d="M442.301,-369.794C462.413,-352.847 496.352,-326.71 530,-312 537.88,-308.555 546.301,-305.585 554.844,-303.029"/>
<polygon fill="midnightblue" stroke="midnightblue" points="439.875,-367.264 434.57,-376.434 444.436,-372.574 439.875,-367.264"/>
</g>
<!-- Node15 -->
<g id="node15" class="node"><title>Node15</title>
<g id="a_node15"><a xlink:href="../../d3/dab/classparser_1_1commands_1_1turtle_1_1queries_1_1_pen_color.html" target="_top" xlink:title="parser.commands.turtle.queries.\lPenColor">
<polygon fill="white" stroke="black" points="554.5,-224 554.5,-254 727.5,-254 727.5,-224 554.5,-224"/>
<text text-anchor="start" x="562.5" y="-242" font-family="Helvetica,sans-Serif" font-size="10.00">parser.commands.turtle.queries.</text>
<text text-anchor="middle" x="641" y="-231" font-family="Helvetica,sans-Serif" font-size="10.00">PenColor</text>
</a>
</g>
</g>
<!-- Node1&#45;&gt;Node15 -->
<g id="edge14" class="edge"><title>Node1&#45;&gt;Node15</title>
<path fill="none" stroke="midnightblue" d="M434.486,-367.549C451.061,-340.17 485.996,-289.208 530,-263 537.557,-258.499 545.856,-254.839 554.403,-251.863"/>
<polygon fill="midnightblue" stroke="midnightblue" points="431.286,-366.086 429.228,-376.479 437.318,-369.638 431.286,-366.086"/>
</g>
<!-- Node16 -->
<g id="node16" class="node"><title>Node16</title>
<g id="a_node16"><a xlink:href="../../d9/d77/classparser_1_1commands_1_1turtle_1_1queries_1_1_shape.html" target="_top" xlink:title="parser.commands.turtle.queries.\lShape">
<polygon fill="white" stroke="black" points="554.5,-175 554.5,-205 727.5,-205 727.5,-175 554.5,-175"/>
<text text-anchor="start" x="562.5" y="-193" font-family="Helvetica,sans-Serif" font-size="10.00">parser.commands.turtle.queries.</text>
<text text-anchor="middle" x="641" y="-182" font-family="Helvetica,sans-Serif" font-size="10.00">Shape</text>
</a>
</g>
</g>
<!-- Node1&#45;&gt;Node16 -->
<g id="edge15" class="edge"><title>Node1&#45;&gt;Node16</title>
<path fill="none" stroke="midnightblue" d="M430.236,-366.498C442.862,-330.324 475.022,-252.972 530,-214 537.415,-208.744 545.766,-204.605 554.467,-201.351"/>
<polygon fill="midnightblue" stroke="midnightblue" points="426.805,-365.721 426.941,-376.315 433.441,-367.948 426.805,-365.721"/>
</g>
<!-- Node17 -->
<g id="node17" class="node"><title>Node17</title>
<g id="a_node17"><a xlink:href="../../dc/da7/classparser_1_1commands_1_1turtle_1_1queries_1_1_x_cor.html" target="_top" xlink:title="parser.commands.turtle.queries.XCor">
<polygon fill="white" stroke="black" points="543.5,-136.5 543.5,-155.5 738.5,-155.5 738.5,-136.5 543.5,-136.5"/>
<text text-anchor="middle" x="641" y="-143.5" font-family="Helvetica,sans-Serif" font-size="10.00">parser.commands.turtle.queries.XCor</text>
</a>
</g>
</g>
<!-- Node1&#45;&gt;Node17 -->
<g id="edge16" class="edge"><title>Node1&#45;&gt;Node17</title>
<path fill="none" stroke="midnightblue" d="M427.299,-366.02C435.701,-321.942 462.238,-216.226 530,-165 534.947,-161.26 540.376,-158.158 546.089,-155.594"/>
<polygon fill="midnightblue" stroke="midnightblue" points="423.82,-365.592 425.502,-376.053 430.71,-366.826 423.82,-365.592"/>
</g>
<!-- Node18 -->
<g id="node18" class="node"><title>Node18</title>
<g id="a_node18"><a xlink:href="../../d5/d3e/classparser_1_1commands_1_1turtle_1_1queries_1_1_y_cor.html" target="_top" xlink:title="parser.commands.turtle.queries.YCor">
<polygon fill="white" stroke="black" points="544,-98.5 544,-117.5 738,-117.5 738,-98.5 544,-98.5"/>
<text text-anchor="middle" x="641" y="-105.5" font-family="Helvetica,sans-Serif" font-size="10.00">parser.commands.turtle.queries.YCor</text>
</a>
</g>
</g>
<!-- Node1&#45;&gt;Node18 -->
<g id="edge17" class="edge"><title>Node1&#45;&gt;Node18</title>
<path fill="none" stroke="midnightblue" d="M425.768,-366.063C431.268,-316.851 452.674,-189.107 530,-127 534.684,-123.238 539.847,-120.108 545.303,-117.513"/>
<polygon fill="midnightblue" stroke="midnightblue" points="422.256,-366.008 424.731,-376.31 429.22,-366.713 422.256,-366.008"/>
</g>
<!-- Node19 -->
<g id="node19" class="node"><title>Node19</title>
<g id="a_node19"><a xlink:href="../../d7/df1/classparser_1_1commands_1_1workspace_1_1_tell_even.html" target="_top" xlink:title="parser.commands.workspace.\lTellEven">
<polygon fill="white" stroke="black" points="561,-49 561,-79 721,-79 721,-49 561,-49"/>
<text text-anchor="start" x="569" y="-67" font-family="Helvetica,sans-Serif" font-size="10.00">parser.commands.workspace.</text>
<text text-anchor="middle" x="641" y="-56" font-family="Helvetica,sans-Serif" font-size="10.00">TellEven</text>
</a>
</g>
</g>
<!-- Node1&#45;&gt;Node19 -->
<g id="edge18" class="edge"><title>Node1&#45;&gt;Node19</title>
<path fill="none" stroke="midnightblue" d="M424.832,-366.015C428.196,-312.393 445.11,-164.32 530,-89 538.79,-81.2014 549.502,-75.6851 560.752,-71.8096"/>
<polygon fill="midnightblue" stroke="midnightblue" points="421.325,-366.055 424.289,-376.227 428.316,-366.427 421.325,-366.055"/>
</g>
<!-- Node20 -->
<g id="node20" class="node"><title>Node20</title>
<g id="a_node20"><a xlink:href="../../d7/d84/classparser_1_1commands_1_1workspace_1_1_tell_odd.html" target="_top" xlink:title="parser.commands.workspace.\lTellOdd">
<polygon fill="white" stroke="black" points="561,-0 561,-30 721,-30 721,-0 561,-0"/>
<text text-anchor="start" x="569" y="-18" font-family="Helvetica,sans-Serif" font-size="10.00">parser.commands.workspace.</text>
<text text-anchor="middle" x="641" y="-7" font-family="Helvetica,sans-Serif" font-size="10.00">TellOdd</text>
</a>
</g>
</g>
<!-- Node1&#45;&gt;Node20 -->
<g id="edge19" class="edge"><title>Node1&#45;&gt;Node20</title>
<path fill="none" stroke="midnightblue" d="M423.614,-366.295C423.596,-307.078 432.071,-129.242 530,-39 538.696,-30.9863 549.426,-25.4199 560.742,-21.5917"/>
<polygon fill="midnightblue" stroke="midnightblue" points="420.116,-366.529 423.707,-376.496 427.116,-366.465 420.116,-366.529"/>
</g>
<!-- Node2 -->
<g id="node2" class="node"><title>Node2</title>
<g id="a_node2"><a xlink:href="../../da/df7/classparser_1_1nodes_1_1_simple_node.html" target="_top" xlink:title="parser.nodes.SimpleNode">
<polygon fill="white" stroke="black" points="176,-376.5 176,-395.5 316,-395.5 316,-376.5 176,-376.5"/>
<text text-anchor="middle" x="246" y="-383.5" font-family="Helvetica,sans-Serif" font-size="10.00">parser.nodes.SimpleNode</text>
</a>
</g>
</g>
<!-- Node2&#45;&gt;Node1 -->
<g id="edge1" class="edge"><title>Node2&#45;&gt;Node1</title>
<path fill="none" stroke="midnightblue" d="M326.169,-386C334.751,-386 343.441,-386 351.904,-386"/>
<polygon fill="midnightblue" stroke="midnightblue" points="326.165,-382.5 316.165,-386 326.165,-389.5 326.165,-382.5"/>
</g>
<!-- Node3 -->
<g id="node3" class="node"><title>Node3</title>
<g id="a_node3"><a xlink:href="../../da/d96/classparser_1_1nodes_1_1_syntax_node.html" target="_top" xlink:title="parser.nodes.SyntaxNode">
<polygon fill="white" stroke="black" points="0,-376.5 0,-395.5 140,-395.5 140,-376.5 0,-376.5"/>
<text text-anchor="middle" x="70" y="-383.5" font-family="Helvetica,sans-Serif" font-size="10.00">parser.nodes.SyntaxNode</text>
</a>
</g>
</g>
<!-- Node3&#45;&gt;Node2 -->
<g id="edge2" class="edge"><title>Node3&#45;&gt;Node2</title>
<path fill="none" stroke="midnightblue" d="M150.035,-386C158.625,-386 167.319,-386 175.779,-386"/>
<polygon fill="midnightblue" stroke="midnightblue" points="150.019,-382.5 140.019,-386 150.019,-389.5 150.019,-382.5"/>
</g>
</g>
</svg>
        <g id="navigator" transform="translate(0 0)" fill="#404254">
                <rect fill="#f2f5e9" fill-opacity="0.5" stroke="#606060" stroke-width=".5" x="0" y="0" width="60" height="60"/>
                <use id="zoomplus" xlink:href="#zoomPlus" x="17" y="9" onmousedown="handleZoom(evt,'in')"/>
                <use id="zoomminus" xlink:href="#zoomMin" x="42" y="9" onmousedown="handleZoom(evt,'out')"/>
                <use id="reset" xlink:href="#resetDef" x="30" y="36" onmousedown="handleReset()"/>
                <g id="arrowUp" xlink:href="#dirArrow" transform="translate(30 24)" onmousedown="handlePan(0,-1)">
                  <use xlink:href="#rim" fill="#404040">
                        <set attributeName="fill" to="#808080" begin="arrowUp.mouseover" end="arrowUp.mouseout"/>
                  </use>
                  <path fill="none" stroke="white" stroke-width="1.5" d="M0,-3.0v7 M-2.5,-0.5L0,-3.0L2.5,-0.5"/>
                </g>
                <g id="arrowRight" xlink:href="#dirArrow" transform="rotate(90) translate(36 -43)" onmousedown="handlePan(1,0)">
                  <use xlink:href="#rim" fill="#404040">
                        <set attributeName="fill" to="#808080" begin="arrowRight.mouseover" end="arrowRight.mouseout"/>
                  </use>
                  <path fill="none" stroke="white" stroke-width="1.5" d="M0,-3.0v7 M-2.5,-0.5L0,-3.0L2.5,-0.5"/>
                </g>
                <g id="arrowDown" xlink:href="#dirArrow" transform="rotate(180) translate(-30 -48)" onmousedown="handlePan(0,1)">
                  <use xlink:href="#rim" fill="#404040">
                        <set attributeName="fill" to="#808080" begin="arrowDown.mouseover" end="arrowDown.mouseout"/>
                  </use>
                  <path fill="none" stroke="white" stroke-width="1.5" d="M0,-3.0v7 M-2.5,-0.5L0,-3.0L2.5,-0.5"/>
                </g>
                <g id="arrowLeft" xlink:href="#dirArrow" transform="rotate(270) translate(-36 17)" onmousedown="handlePan(-1,0)">
                  <use xlink:href="#rim" fill="#404040">
                        <set attributeName="fill" to="#808080" begin="arrowLeft.mouseover" end="arrowLeft.mouseout"/>
                  </use>
                  <path fill="none" stroke="white" stroke-width="1.5" d="M0,-3.0v7 M-2.5,-0.5L0,-3.0L2.5,-0.5"/>
                </g>
        </g>
        <svg viewBox="0 0 15 15" width="100%" height="30px" preserveAspectRatio="xMaxYMin meet">
         <g id="arrow_out" transform="scale(0.3 0.3)">
          <a xlink:href="classparser_1_1nodes_1_1_basic_control__inherit__graph_org.svg" target="_base">
           <rect id="button" ry="5" rx="5" y="6" x="6" height="38" width="38"
                fill="#f2f5e9" fill-opacity="0.5" stroke="#606060" stroke-width="1.0"/>
           <path id="arrow"
             d="M 11.500037,31.436501 C 11.940474,20.09759 22.043105,11.32322 32.158766,21.979434 L 37.068811,17.246167 C 37.068811,17.246167 37.088388,32 37.088388,32 L 22.160133,31.978069 C 22.160133,31.978069 26.997745,27.140456 26.997745,27.140456 C 18.528582,18.264221 13.291696,25.230495 11.500037,31.436501 z"
             style="fill:#404040;"/>
          </a>
         </g>
        </svg>
</svg>
