<?xml version="1.0" encoding="UTF-8" standalone="no"?>
<!DOCTYPE svg PUBLIC "-//W3C//DTD SVG 1.1//EN"
 "http://www.w3.org/Graphics/SVG/1.1/DTD/svg11.dtd">
<!-- Generated by graphviz version 2.36.0 (20140111.2315)
 -->
<!-- Title: parser.commands.math.Difference.evaluate Pages: 1 -->
<svg width="670pt" height="115pt"
 viewBox="0.00 0.00 670.00 115.00" xmlns="http://www.w3.org/2000/svg" xmlns:xlink="http://www.w3.org/1999/xlink">
<g id="graph0" class="graph" transform="scale(1 1) rotate(0) translate(4 111)">
<title>parser.commands.math.Difference.evaluate</title>
<polygon fill="white" stroke="none" points="-4,4 -4,-111 666,-111 666,4 -4,4"/>
<!-- Node1 -->
<g id="node1" class="node"><title>Node1</title>
<polygon fill="#bfbfbf" stroke="black" points="0,-49.5 0,-68.5 228,-68.5 228,-49.5 0,-49.5"/>
<text text-anchor="middle" x="114" y="-56.5" font-family="Helvetica,sans-Serif" font-size="10.00">parser.commands.math.Difference.evaluate</text>
</g>
<!-- Node2 -->
<g id="node2" class="node"><title>Node2</title>
<g id="a_node2"><a xlink:href="../../da/d96/classparser_1_1nodes_1_1_syntax_node.html#a669c370adce66a1960835323a90b9adb" target="_top" xlink:title="parser.nodes.SyntaxNode.evaluate">
<polygon fill="white" stroke="black" points="264.5,-87.5 264.5,-106.5 449.5,-106.5 449.5,-87.5 264.5,-87.5"/>
<text text-anchor="middle" x="357" y="-94.5" font-family="Helvetica,sans-Serif" font-size="10.00">parser.nodes.SyntaxNode.evaluate</text>
</a>
</g>
</g>
<!-- Node1&#45;&gt;Node2 -->
<g id="edge1" class="edge"><title>Node1&#45;&gt;Node2</title>
<path fill="none" stroke="midnightblue" d="M175.503,-68.54C208.879,-73.8025 250.5,-80.3651 285.36,-85.8618"/>
<polygon fill="midnightblue" stroke="midnightblue" points="285.049,-89.3558 295.472,-87.4561 286.139,-82.4412 285.049,-89.3558"/>
</g>
<!-- Node3 -->
<g id="node3" class="node"><title>Node3</title>
<g id="a_node3"><a xlink:href="../../db/d11/classparser_1_1nodes_1_1_binary_node.html#a555930c71203ce7c05e1290f069b19a1" target="_top" xlink:title="parser.nodes.BinaryNode.getLeft">
<polygon fill="white" stroke="black" points="270,-49.5 270,-68.5 444,-68.5 444,-49.5 270,-49.5"/>
<text text-anchor="middle" x="357" y="-56.5" font-family="Helvetica,sans-Serif" font-size="10.00">parser.nodes.BinaryNode.getLeft</text>
</a>
</g>
</g>
<!-- Node1&#45;&gt;Node3 -->
<g id="edge2" class="edge"><title>Node1&#45;&gt;Node3</title>
<path fill="none" stroke="midnightblue" d="M228.091,-59C238.639,-59 249.263,-59 259.638,-59"/>
<polygon fill="midnightblue" stroke="midnightblue" points="259.918,-62.5001 269.918,-59 259.918,-55.5001 259.918,-62.5001"/>
</g>
<!-- Node5 -->
<g id="node5" class="node"><title>Node5</title>
<g id="a_node5"><a xlink:href="../../db/d11/classparser_1_1nodes_1_1_binary_node.html#a9c33799a377e3c277de0fc9138a2cb81" target="_top" xlink:title="parser.nodes.BinaryNode.get\lRight">
<polygon fill="white" stroke="black" points="279,-0 279,-30 435,-30 435,-0 279,-0"/>
<text text-anchor="start" x="287" y="-18" font-family="Helvetica,sans-Serif" font-size="10.00">parser.nodes.BinaryNode.get</text>
<text text-anchor="middle" x="357" y="-7" font-family="Helvetica,sans-Serif" font-size="10.00">Right</text>
</a>
</g>
</g>
<!-- Node1&#45;&gt;Node5 -->
<g id="edge4" class="edge"><title>Node1&#45;&gt;Node5</title>
<path fill="none" stroke="midnightblue" d="M167.293,-49.4527C196.903,-44.0467 234.706,-37.1449 268.689,-30.9405"/>
<polygon fill="midnightblue" stroke="midnightblue" points="269.421,-34.3649 278.63,-29.1257 268.164,-27.4787 269.421,-34.3649"/>
</g>
<!-- Node4 -->
<g id="node4" class="node"><title>Node4</title>
<g id="a_node4"><a xlink:href="../../d7/d93/classparser_1_1nodes_1_1_parameter_node.html#a2c57eab9997daf1efb840a189c1034c5" target="_top" xlink:title="parser.nodes.ParameterNode.get\lParameter">
<polygon fill="white" stroke="black" points="486,-22 486,-52 662,-52 662,-22 486,-22"/>
<text text-anchor="start" x="494" y="-40" font-family="Helvetica,sans-Serif" font-size="10.00">parser.nodes.ParameterNode.get</text>
<text text-anchor="middle" x="574" y="-29" font-family="Helvetica,sans-Serif" font-size="10.00">Parameter</text>
</a>
</g>
</g>
<!-- Node3&#45;&gt;Node4 -->
<g id="edge3" class="edge"><title>Node3&#45;&gt;Node4</title>
<path fill="none" stroke="midnightblue" d="M444.21,-50.1785C454.568,-49.1186 465.201,-48.0306 475.703,-46.956"/>
<polygon fill="midnightblue" stroke="midnightblue" points="476.127,-50.431 485.718,-45.9311 475.414,-43.4674 476.127,-50.431"/>
</g>
<!-- Node5&#45;&gt;Node4 -->
<g id="edge5" class="edge"><title>Node5&#45;&gt;Node4</title>
<path fill="none" stroke="midnightblue" d="M435.013,-22.8804C448.167,-24.2264 461.985,-25.6404 475.586,-27.0321"/>
<polygon fill="midnightblue" stroke="midnightblue" points="475.626,-30.5543 485.93,-28.0905 476.338,-23.5907 475.626,-30.5543"/>
</g>
</g>
</svg>
