<?xml version="1.0" encoding="UTF-8" standalone="no"?>
<!DOCTYPE svg PUBLIC "-//W3C//DTD SVG 1.1//EN"
 "http://www.w3.org/Graphics/SVG/1.1/DTD/svg11.dtd">
<!-- Generated by graphviz version 2.36.0 (20140111.2315)
 -->
<!-- Title: view.components.LogoTable Pages: 1 -->
<svg width="314pt" height="96pt"
 viewBox="0.00 0.00 314.00 96.00" xmlns="http://www.w3.org/2000/svg" xmlns:xlink="http://www.w3.org/1999/xlink">
<g id="graph0" class="graph" transform="scale(1 1) rotate(0) translate(4 92)">
<title>view.components.LogoTable</title>
<polygon fill="white" stroke="none" points="-4,4 -4,-92 310,-92 310,4 -4,4"/>
<!-- Node1 -->
<g id="node1" class="node"><title>Node1</title>
<polygon fill="#bfbfbf" stroke="black" points="29.5,-0.5 29.5,-19.5 178.5,-19.5 178.5,-0.5 29.5,-0.5"/>
<text text-anchor="middle" x="104" y="-7.5" font-family="Helvetica,sans-Serif" font-size="10.00">view.components.LogoTable</text>
</g>
<!-- Node2 -->
<g id="node2" class="node"><title>Node2</title>
<polygon fill="white" stroke="#bfbfbf" points="-0.5,-68.5 -0.5,-87.5 42.5,-87.5 42.5,-68.5 -0.5,-68.5"/>
<text text-anchor="middle" x="21" y="-75.5" font-family="Helvetica,sans-Serif" font-size="10.00">JTable</text>
</g>
<!-- Node2&#45;&gt;Node1 -->
<g id="edge1" class="edge"><title>Node2&#45;&gt;Node1</title>
<path fill="none" stroke="midnightblue" d="M39.7428,-62.0961C56.2107,-49.0012 79.5995,-30.4028 93.1465,-19.6305"/>
<polygon fill="midnightblue" stroke="midnightblue" points="37.4995,-59.4082 31.8508,-68.3717 41.8563,-64.8872 37.4995,-59.4082"/>
</g>
<!-- Node3 -->
<g id="node3" class="node"><title>Node3</title>
<polygon fill="white" stroke="#bfbfbf" points="61,-68.5 61,-87.5 147,-87.5 147,-68.5 61,-68.5"/>
<text text-anchor="middle" x="104" y="-75.5" font-family="Helvetica,sans-Serif" font-size="10.00">TableCellEditor</text>
</g>
<!-- Node3&#45;&gt;Node1 -->
<g id="edge2" class="edge"><title>Node3&#45;&gt;Node1</title>
<path fill="none" stroke="#9a32cd" stroke-dasharray="5,2" d="M104,-58.0413C104,-45.4724 104,-29.5631 104,-19.8411"/>
<polygon fill="#9a32cd" stroke="#9a32cd" points="100.5,-58.3716 104,-68.3717 107.5,-58.3717 100.5,-58.3716"/>
<text text-anchor="middle" x="144.5" y="-41.5" font-family="Helvetica,sans-Serif" font-size="10.00"> myComboEditor</text>
</g>
<!-- Node4 -->
<g id="node4" class="node"><title>Node4</title>
<polygon fill="white" stroke="#bfbfbf" points="172.5,-68.5 172.5,-87.5 243.5,-87.5 243.5,-68.5 172.5,-68.5"/>
<text text-anchor="middle" x="208" y="-75.5" font-family="Helvetica,sans-Serif" font-size="10.00">JComboBox</text>
</g>
<!-- Node4&#45;&gt;Node1 -->
<g id="edge3" class="edge"><title>Node4&#45;&gt;Node1</title>
<path fill="none" stroke="#9a32cd" stroke-dasharray="5,2" d="M201.275,-58.984C197.724,-51.5909 192.691,-43.4954 186,-38 175.576,-29.4382 162.347,-23.5593 149.573,-19.5352"/>
<polygon fill="#9a32cd" stroke="#9a32cd" points="198.102,-60.4683 205.216,-68.3199 204.551,-57.746 198.102,-60.4683"/>
<text text-anchor="middle" x="251.5" y="-41.5" font-family="Helvetica,sans-Serif" font-size="10.00"> myEditableComboBox</text>
</g>
</g>
</svg>
