<?xml version="1.0" encoding="UTF-8" standalone="no"?>
<!DOCTYPE svg PUBLIC "-//W3C//DTD SVG 1.1//EN"
 "http://www.w3.org/Graphics/SVG/1.1/DTD/svg11.dtd">
<!-- Generated by graphviz version 2.36.0 (20140111.2315)
 -->
<!-- Title: parser.commands.other.To Pages: 1 -->
<svg width="319pt" height="282pt"
 viewBox="0.00 0.00 319.00 282.00" xmlns="http://www.w3.org/2000/svg" xmlns:xlink="http://www.w3.org/1999/xlink">
<g id="graph0" class="graph" transform="scale(1 1) rotate(0) translate(4 278)">
<title>parser.commands.other.To</title>
<polygon fill="white" stroke="none" points="-4,4 -4,-278 315,-278 315,4 -4,4"/>
<!-- Node1 -->
<g id="node1" class="node"><title>Node1</title>
<polygon fill="#bfbfbf" stroke="black" points="80,-0.5 80,-19.5 224,-19.5 224,-0.5 80,-0.5"/>
<text text-anchor="middle" x="152" y="-7.5" font-family="Helvetica,sans-Serif" font-size="10.00">parser.commands.other.To</text>
</g>
<!-- Node2 -->
<g id="node2" class="node"><title>Node2</title>
<g id="a_node2"><a xlink:href="../../d5/dba/classparser_1_1nodes_1_1_ternary_node.html" target="_top" xlink:title="parser.nodes.TernaryNode">
<polygon fill="white" stroke="black" points="81,-58.5 81,-77.5 223,-77.5 223,-58.5 81,-58.5"/>
<text text-anchor="middle" x="152" y="-65.5" font-family="Helvetica,sans-Serif" font-size="10.00">parser.nodes.TernaryNode</text>
</a>
</g>
</g>
<!-- Node2&#45;&gt;Node1 -->
<g id="edge1" class="edge"><title>Node2&#45;&gt;Node1</title>
<path fill="none" stroke="midnightblue" d="M152,-47.953C152,-38.2875 152,-27.0312 152,-19.5052"/>
<polygon fill="midnightblue" stroke="midnightblue" points="148.5,-48.25 152,-58.25 155.5,-48.25 148.5,-48.25"/>
</g>
<!-- Node3 -->
<g id="node3" class="node"><title>Node3</title>
<g id="a_node3"><a xlink:href="../../db/d11/classparser_1_1nodes_1_1_binary_node.html" target="_top" xlink:title="parser.nodes.BinaryNode">
<polygon fill="white" stroke="black" points="83.5,-116.5 83.5,-135.5 220.5,-135.5 220.5,-116.5 83.5,-116.5"/>
<text text-anchor="middle" x="152" y="-123.5" font-family="Helvetica,sans-Serif" font-size="10.00">parser.nodes.BinaryNode</text>
</a>
</g>
</g>
<!-- Node3&#45;&gt;Node2 -->
<g id="edge2" class="edge"><title>Node3&#45;&gt;Node2</title>
<path fill="none" stroke="midnightblue" d="M152,-105.953C152,-96.2875 152,-85.0312 152,-77.5052"/>
<polygon fill="midnightblue" stroke="midnightblue" points="148.5,-106.25 152,-116.25 155.5,-106.25 148.5,-106.25"/>
</g>
<!-- Node4 -->
<g id="node4" class="node"><title>Node4</title>
<g id="a_node4"><a xlink:href="../../d7/d93/classparser_1_1nodes_1_1_parameter_node.html" target="_top" xlink:title="parser.nodes.ParameterNode">
<polygon fill="white" stroke="black" points="73,-174.5 73,-193.5 231,-193.5 231,-174.5 73,-174.5"/>
<text text-anchor="middle" x="152" y="-181.5" font-family="Helvetica,sans-Serif" font-size="10.00">parser.nodes.ParameterNode</text>
</a>
</g>
</g>
<!-- Node4&#45;&gt;Node3 -->
<g id="edge3" class="edge"><title>Node4&#45;&gt;Node3</title>
<path fill="none" stroke="midnightblue" d="M152,-163.953C152,-154.287 152,-143.031 152,-135.505"/>
<polygon fill="midnightblue" stroke="midnightblue" points="148.5,-164.25 152,-174.25 155.5,-164.25 148.5,-164.25"/>
</g>
<!-- Node5 -->
<g id="node5" class="node"><title>Node5</title>
<g id="a_node5"><a xlink:href="../../da/d96/classparser_1_1nodes_1_1_syntax_node.html" target="_top" xlink:title="parser.nodes.SyntaxNode">
<polygon fill="white" stroke="black" points="0,-248.5 0,-267.5 140,-267.5 140,-248.5 0,-248.5"/>
<text text-anchor="middle" x="70" y="-255.5" font-family="Helvetica,sans-Serif" font-size="10.00">parser.nodes.SyntaxNode</text>
</a>
</g>
</g>
<!-- Node5&#45;&gt;Node4 -->
<g id="edge4" class="edge"><title>Node5&#45;&gt;Node4</title>
<path fill="none" stroke="midnightblue" d="M87.6627,-241.491C104.378,-226.815 128.852,-205.325 142.284,-193.531"/>
<polygon fill="midnightblue" stroke="midnightblue" points="84.9336,-239.23 79.7285,-248.458 89.5522,-244.49 84.9336,-239.23"/>
</g>
<!-- Node6 -->
<g id="node6" class="node"><title>Node6</title>
<polygon fill="white" stroke="#bfbfbf" points="158.5,-243 158.5,-273 311.5,-273 311.5,-243 158.5,-243"/>
<text text-anchor="start" x="166.5" y="-261" font-family="Helvetica,sans-Serif" font-size="10.00">Map&lt; Integer, parser.nodes.</text>
<text text-anchor="middle" x="235" y="-250" font-family="Helvetica,sans-Serif" font-size="10.00">SyntaxNode &gt;</text>
</g>
<!-- Node6&#45;&gt;Node4 -->
<g id="edge5" class="edge"><title>Node6&#45;&gt;Node4</title>
<path fill="none" stroke="#9a32cd" stroke-dasharray="5,2" d="M211.04,-236.216C194.804,-222.131 174.177,-204.238 162.097,-193.759"/>
<polygon fill="#9a32cd" stroke="#9a32cd" points="208.754,-238.866 218.602,-242.775 213.341,-233.578 208.754,-238.866"/>
<text text-anchor="middle" x="220.5" y="-215.5" font-family="Helvetica,sans-Serif" font-size="10.00"> myNodes</text>
</g>
</g>
</svg>
