<?xml version="1.0" encoding="UTF-8" standalone="no"?>
<!DOCTYPE svg PUBLIC "-//W3C//DTD SVG 1.1//EN"
 "http://www.w3.org/Graphics/SVG/1.1/DTD/svg11.dtd">
<!-- Generated by graphviz version 2.36.0 (20140111.2315)
 -->
<!-- Title: controller.support.StayOpenCheckBoxMenuItem Pages: 1 -->
<svg width="223pt" height="108pt"
 viewBox="0.00 0.00 223.00 108.00" xmlns="http://www.w3.org/2000/svg" xmlns:xlink="http://www.w3.org/1999/xlink">
<g id="graph0" class="graph" transform="scale(1 1) rotate(0) translate(4 104)">
<title>controller.support.StayOpenCheckBoxMenuItem</title>
<polygon fill="white" stroke="none" points="-4,4 -4,-104 219,-104 219,4 -4,4"/>
<!-- Node1 -->
<g id="node1" class="node"><title>Node1</title>
<polygon fill="#bfbfbf" stroke="black" points="39.5,-1 39.5,-31 190.5,-31 190.5,-1 39.5,-1"/>
<text text-anchor="start" x="47.5" y="-19" font-family="Helvetica,sans-Serif" font-size="10.00">controller.support.StayOpen</text>
<text text-anchor="middle" x="115" y="-8" font-family="Helvetica,sans-Serif" font-size="10.00">CheckBoxMenuItem</text>
</g>
<!-- Node2 -->
<g id="node2" class="node"><title>Node2</title>
<polygon fill="white" stroke="#bfbfbf" points="0,-80.5 0,-99.5 114,-99.5 114,-80.5 0,-80.5"/>
<text text-anchor="middle" x="57" y="-87.5" font-family="Helvetica,sans-Serif" font-size="10.00">JCheckBoxMenuItem</text>
</g>
<!-- Node2&#45;&gt;Node1 -->
<g id="edge1" class="edge"><title>Node2&#45;&gt;Node1</title>
<path fill="none" stroke="midnightblue" d="M70.16,-72.6634C80.213,-60.1839 93.9295,-43.1565 103.536,-31.2316"/>
<polygon fill="midnightblue" stroke="midnightblue" points="67.4288,-70.4747 63.8811,-80.4579 72.8801,-74.866 67.4288,-70.4747"/>
</g>
<!-- Node3 -->
<g id="node3" class="node"><title>Node3</title>
<polygon fill="white" stroke="#bfbfbf" points="132.5,-80.5 132.5,-99.5 215.5,-99.5 215.5,-80.5 132.5,-80.5"/>
<text text-anchor="middle" x="174" y="-87.5" font-family="Helvetica,sans-Serif" font-size="10.00">MenuElement</text>
</g>
<!-- Node3&#45;&gt;Node1 -->
<g id="edge2" class="edge"><title>Node3&#45;&gt;Node1</title>
<path fill="none" stroke="#9a32cd" stroke-dasharray="5,2" d="M160.613,-72.6634C150.387,-60.1839 136.434,-43.1565 126.662,-31.2316"/>
<polygon fill="#9a32cd" stroke="#9a32cd" points="157.955,-74.9415 167,-80.4579 163.369,-70.5047 157.955,-74.9415"/>
<text text-anchor="middle" x="164.5" y="-53.5" font-family="Helvetica,sans-Serif" font-size="10.00"> path</text>
</g>
</g>
</svg>
