<?xml version="1.0" encoding="UTF-8" standalone="no"?>
<!DOCTYPE svg PUBLIC "-//W3C//DTD SVG 1.1//EN"
 "http://www.w3.org/Graphics/SVG/1.1/DTD/svg11.dtd">
<!-- Generated by graphviz version 2.36.0 (20140111.2315)
 -->
<!-- Title: parser.nodes.ListNode.getContents Pages: 1 -->
<svg width="598pt" height="175pt"
 viewBox="0.00 0.00 598.00 175.00" xmlns="http://www.w3.org/2000/svg" xmlns:xlink="http://www.w3.org/1999/xlink">
<g id="graph0" class="graph" transform="scale(1 1) rotate(0) translate(4 171)">
<title>parser.nodes.ListNode.getContents</title>
<polygon fill="white" stroke="none" points="-4,4 -4,-171 594,-171 594,4 -4,4"/>
<!-- Node1 -->
<g id="node1" class="node"><title>Node1</title>
<polygon fill="#bfbfbf" stroke="black" points="0.5,-66 0.5,-96 143.5,-96 143.5,-66 0.5,-66"/>
<text text-anchor="start" x="8.5" y="-84" font-family="Helvetica,sans-Serif" font-size="10.00">parser.nodes.ListNode.get</text>
<text text-anchor="middle" x="72" y="-73" font-family="Helvetica,sans-Serif" font-size="10.00">Contents</text>
</g>
<!-- Node2 -->
<g id="node2" class="node"><title>Node2</title>
<g id="a_node2"><a xlink:href="../../d0/d05/classparser_1_1commands_1_1other_1_1_do_times.html#a2ab7e71e355a34d9c136bf67eb751c45" target="_top" xlink:title="parser.commands.other.Do\lTimes.checkSyntax">
<polygon fill="white" stroke="black" points="196,-137 196,-167 344,-167 344,-137 196,-137"/>
<text text-anchor="start" x="204" y="-155" font-family="Helvetica,sans-Serif" font-size="10.00">parser.commands.other.Do</text>
<text text-anchor="middle" x="270" y="-144" font-family="Helvetica,sans-Serif" font-size="10.00">Times.checkSyntax</text>
</a>
</g>
</g>
<!-- Node1&#45;&gt;Node2 -->
<g id="edge1" class="edge"><title>Node1&#45;&gt;Node2</title>
<path fill="none" stroke="midnightblue" d="M114.153,-100.205C133.838,-108.999 157.884,-119.178 180,-127 189.986,-130.532 200.739,-133.904 211.199,-136.965"/>
<polygon fill="midnightblue" stroke="midnightblue" points="115.422,-96.9375 104.868,-96.0152 112.543,-103.318 115.422,-96.9375"/>
</g>
<!-- Node4 -->
<g id="node4" class="node"><title>Node4</title>
<g id="a_node4"><a xlink:href="../../de/df8/classparser_1_1commands_1_1other_1_1_for.html#a933e3bbdcdc5a36054aaeff53163f412" target="_top" xlink:title="parser.commands.other.For.check\lSyntax">
<polygon fill="white" stroke="black" points="180.5,-88 180.5,-118 359.5,-118 359.5,-88 180.5,-88"/>
<text text-anchor="start" x="188.5" y="-106" font-family="Helvetica,sans-Serif" font-size="10.00">parser.commands.other.For.check</text>
<text text-anchor="middle" x="270" y="-95" font-family="Helvetica,sans-Serif" font-size="10.00">Syntax</text>
</a>
</g>
</g>
<!-- Node1&#45;&gt;Node4 -->
<g id="edge3" class="edge"><title>Node1&#45;&gt;Node4</title>
<path fill="none" stroke="midnightblue" d="M153.872,-90.0775C162.573,-91.0541 171.46,-92.0516 180.247,-93.0379"/>
<polygon fill="midnightblue" stroke="midnightblue" points="154.089,-86.5799 143.76,-88.9425 153.308,-93.5362 154.089,-86.5799"/>
</g>
<!-- Node5 -->
<g id="node5" class="node"><title>Node5</title>
<g id="a_node5"><a xlink:href="../../de/df8/classparser_1_1commands_1_1other_1_1_for.html#ab174f2bbc0bfe9fa9afd51f9213d4001" target="_top" xlink:title="parser.commands.other.For.evaluate">
<polygon fill="white" stroke="black" points="396.5,-71.5 396.5,-90.5 589.5,-90.5 589.5,-71.5 396.5,-71.5"/>
<text text-anchor="middle" x="493" y="-78.5" font-family="Helvetica,sans-Serif" font-size="10.00">parser.commands.other.For.evaluate</text>
</a>
</g>
</g>
<!-- Node1&#45;&gt;Node5 -->
<g id="edge6" class="edge"><title>Node1&#45;&gt;Node5</title>
<path fill="none" stroke="midnightblue" d="M153.542,-78.4995C162.469,-78.2944 171.427,-78.1202 180,-78 259.992,-76.8788 280.005,-77.0911 360,-78 371.804,-78.1341 384.201,-78.3357 396.475,-78.5721"/>
<polygon fill="midnightblue" stroke="midnightblue" points="153.413,-75.0015 143.5,-78.7427 153.582,-81.9994 153.413,-75.0015"/>
</g>
<!-- Node6 -->
<g id="node6" class="node"><title>Node6</title>
<g id="a_node6"><a xlink:href="../../d5/d6d/classparser_1_1commands_1_1workspace_1_1_ask.html#a837a075ce77789761e3060413c51e882" target="_top" xlink:title="parser.commands.workspace.\lAsk.evaluate">
<polygon fill="white" stroke="black" points="190,-0 190,-30 350,-30 350,-0 190,-0"/>
<text text-anchor="start" x="198" y="-18" font-family="Helvetica,sans-Serif" font-size="10.00">parser.commands.workspace.</text>
<text text-anchor="middle" x="270" y="-7" font-family="Helvetica,sans-Serif" font-size="10.00">Ask.evaluate</text>
</a>
</g>
</g>
<!-- Node1&#45;&gt;Node6 -->
<g id="edge5" class="edge"><title>Node1&#45;&gt;Node6</title>
<path fill="none" stroke="midnightblue" d="M127.59,-62.6176C158.052,-52.3601 195.526,-39.7411 224.243,-30.0713"/>
<polygon fill="midnightblue" stroke="midnightblue" points="126.327,-59.3499 117.966,-65.8583 128.56,-65.9839 126.327,-59.3499"/>
</g>
<!-- Node3 -->
<g id="node3" class="node"><title>Node3</title>
<g id="a_node3"><a xlink:href="../../d0/d05/classparser_1_1commands_1_1other_1_1_do_times.html#aa1749474b7c85cd1caa0b32ebc3f1120" target="_top" xlink:title="parser.commands.other.Do\lTimes.evaluate">
<polygon fill="white" stroke="black" points="419,-137 419,-167 567,-167 567,-137 419,-137"/>
<text text-anchor="start" x="427" y="-155" font-family="Helvetica,sans-Serif" font-size="10.00">parser.commands.other.Do</text>
<text text-anchor="middle" x="493" y="-144" font-family="Helvetica,sans-Serif" font-size="10.00">Times.evaluate</text>
</a>
</g>
</g>
<!-- Node2&#45;&gt;Node3 -->
<g id="edge2" class="edge"><title>Node2&#45;&gt;Node3</title>
<path fill="none" stroke="midnightblue" d="M354.55,-152C375.724,-152 398.304,-152 418.915,-152"/>
<polygon fill="midnightblue" stroke="midnightblue" points="354.283,-148.5 344.283,-152 354.283,-155.5 354.283,-148.5"/>
</g>
<!-- Node4&#45;&gt;Node5 -->
<g id="edge4" class="edge"><title>Node4&#45;&gt;Node5</title>
<path fill="none" stroke="midnightblue" d="M369.635,-93.1812C378.559,-92.2928 387.588,-91.394 396.484,-90.5083"/>
<polygon fill="midnightblue" stroke="midnightblue" points="369.22,-89.7051 359.616,-94.1785 369.913,-96.6706 369.22,-89.7051"/>
</g>
</g>
</svg>
