<?xml version="1.0" encoding="UTF-8" standalone="no"?>
<!DOCTYPE svg PUBLIC "-//W3C//DTD SVG 1.1//EN"
 "http://www.w3.org/Graphics/SVG/1.1/DTD/svg11.dtd">
<!-- Generated by graphviz version 2.36.0 (20140111.2315)
 -->
<!-- Title: view.components.LogoTable.setLastRowEditable Pages: 1 -->
<svg width="406pt" height="87pt"
 viewBox="0.00 0.00 406.00 87.00" xmlns="http://www.w3.org/2000/svg" xmlns:xlink="http://www.w3.org/1999/xlink">
<g id="graph0" class="graph" transform="scale(1 1) rotate(0) translate(4 83)">
<title>view.components.LogoTable.setLastRowEditable</title>
<polygon fill="white" stroke="none" points="-4,4 -4,-83 402,-83 402,4 -4,4"/>
<!-- Node1 -->
<g id="node1" class="node"><title>Node1</title>
<polygon fill="#bfbfbf" stroke="black" points="0.5,-24 0.5,-54 167.5,-54 167.5,-24 0.5,-24"/>
<text text-anchor="start" x="8.5" y="-42" font-family="Helvetica,sans-Serif" font-size="10.00">view.components.LogoTable.set</text>
<text text-anchor="middle" x="84" y="-31" font-family="Helvetica,sans-Serif" font-size="10.00">LastRowEditable</text>
</g>
<!-- Node2 -->
<g id="node2" class="node"><title>Node2</title>
<g id="a_node2"><a xlink:href="../../d3/daf/classview_1_1windows_1_1_variables_window.html#a332ee7a7fc621a7f64ed2bccd8640fdb" target="_top" xlink:title="view.windows.VariablesWindow.create\lNewListener">
<polygon fill="white" stroke="black" points="204.5,-49 204.5,-79 397.5,-79 397.5,-49 204.5,-49"/>
<text text-anchor="start" x="212.5" y="-67" font-family="Helvetica,sans-Serif" font-size="10.00">view.windows.VariablesWindow.create</text>
<text text-anchor="middle" x="301" y="-56" font-family="Helvetica,sans-Serif" font-size="10.00">NewListener</text>
</a>
</g>
</g>
<!-- Node1&#45;&gt;Node2 -->
<g id="edge1" class="edge"><title>Node1&#45;&gt;Node2</title>
<path fill="none" stroke="midnightblue" d="M177.505,-49.7564C186.422,-50.7933 195.48,-51.8465 204.426,-52.8868"/>
<polygon fill="midnightblue" stroke="midnightblue" points="177.847,-46.2727 167.51,-48.5942 177.039,-53.2258 177.847,-46.2727"/>
</g>
<!-- Node3 -->
<g id="node3" class="node"><title>Node3</title>
<g id="a_node3"><a xlink:href="../../d3/daf/classview_1_1windows_1_1_variables_window.html#a130e9b31651cbf929b9a24ef0a2804fc" target="_top" xlink:title="view.windows.VariablesWindow.create\lOkButton">
<polygon fill="white" stroke="black" points="204.5,-0 204.5,-30 397.5,-30 397.5,-0 204.5,-0"/>
<text text-anchor="start" x="212.5" y="-18" font-family="Helvetica,sans-Serif" font-size="10.00">view.windows.VariablesWindow.create</text>
<text text-anchor="middle" x="301" y="-7" font-family="Helvetica,sans-Serif" font-size="10.00">OkButton</text>
</a>
</g>
</g>
<!-- Node1&#45;&gt;Node3 -->
<g id="edge2" class="edge"><title>Node1&#45;&gt;Node3</title>
<path fill="none" stroke="midnightblue" d="M177.505,-28.6739C186.422,-27.6785 195.48,-26.6674 204.426,-25.6687"/>
<polygon fill="midnightblue" stroke="midnightblue" points="177.06,-25.2017 167.51,-29.7896 177.836,-32.1585 177.06,-25.2017"/>
</g>
</g>
</svg>
