<?xml version="1.0" encoding="UTF-8" standalone="no"?>
<!DOCTYPE svg PUBLIC "-//W3C//DTD SVG 1.1//EN"
 "http://www.w3.org/Graphics/SVG/1.1/DTD/svg11.dtd">
<!-- Generated by graphviz version 2.36.0 (20140111.2315)
 -->
<!-- Title: parser.commands.other.To.evaluate Pages: 1 -->
<!--zoomable 192 -->
<svg id="main" version="1.1" xmlns="http://www.w3.org/2000/svg" xmlns:xlink="http://www.w3.org/1999/xlink" xml:space="preserve" onload="init(evt)">
<style type="text/css"><![CDATA[
.edge:hover path { stroke: red; }
.edge:hover polygon { stroke: red; fill: red; }
]]></style>
<script type="text/javascript"><![CDATA[
var edges = document.getElementsByTagName('g');
if (edges && edges.length) {
  for (var i=0;i<edges.length;i++) {
    if (edges[i].id.substr(0,4)=='edge') {
      edges[i].setAttribute('class','edge');
    }
  }
}
]]></script>
        <defs>
                <circle id="rim" cx="0" cy="0" r="7"/>
                <circle id="rim2" cx="0" cy="0" r="3.5"/>
                <g id="zoomPlus">
                        <use xlink:href="#rim" fill="#404040">
                                <set attributeName="fill" to="#808080" begin="zoomplus.mouseover" end="zoomplus.mouseout"/>
                        </use>
                        <path d="M-4,0h8M0,-4v8" fill="none" stroke="white" stroke-width="1.5" pointer-events="none"/>
                </g>
                <g id="zoomMin">
                        <use xlink:href="#rim" fill="#404040">
                                <set attributeName="fill" to="#808080" begin="zoomminus.mouseover" end="zoomminus.mouseout"/>
                        </use>
                        <path d="M-4,0h8" fill="none" stroke="white" stroke-width="1.5" pointer-events="none"/>
                </g>
                <g id="dirArrow">
                        <path fill="none" stroke="white" stroke-width="1.5" d="M0,-3.0v7 M-2.5,-0.5L0,-3.0L2.5,-0.5"/>
                </g>
               <g id="resetDef">
                       <use xlink:href="#rim2" fill="#404040">
                               <set attributeName="fill" to="#808080" begin="reset.mouseover" end="reset.mouseout"/>
                       </use>
               </g>
        </defs>

<script type="text/javascript">
var viewWidth = 830;
var viewHeight = 192;
var sectionId = 'dynsection-4';
</script>
<script xlink:href="../../svgpan.js"/>
<svg id="graph" class="graph">
<g id="viewport">
<title>parser.commands.other.To.evaluate</title>
<polygon fill="white" stroke="none" points="-4,4 -4,-188 826,-188 826,4 -4,4"/>
<!-- Node1 -->
<g id="node1" class="node"><title>Node1</title>
<polygon fill="#bfbfbf" stroke="black" points="0,-77.5 0,-96.5 188,-96.5 188,-77.5 0,-77.5"/>
<text text-anchor="middle" x="94" y="-84.5" font-family="Helvetica,sans-Serif" font-size="10.00">parser.commands.other.To.evaluate</text>
</g>
<!-- Node2 -->
<g id="node2" class="node"><title>Node2</title>
<g id="a_node2"><a xlink:href="../../d9/d06/classparser_1_1_custom_command.html#a3a43b45c399799fe2d1b70a61a67a64b" target="_top" xlink:title="parser.CustomCommand.add\lParserInfo">
<polygon fill="white" stroke="black" points="233,-154 233,-184 391,-184 391,-154 233,-154"/>
<text text-anchor="start" x="241" y="-172" font-family="Helvetica,sans-Serif" font-size="10.00">parser.CustomCommand.add</text>
<text text-anchor="middle" x="312" y="-161" font-family="Helvetica,sans-Serif" font-size="10.00">ParserInfo</text>
</a>
</g>
</g>
<!-- Node1&#45;&gt;Node2 -->
<g id="edge1" class="edge"><title>Node1&#45;&gt;Node2</title>
<path fill="none" stroke="midnightblue" d="M117.699,-96.5594C143.358,-107.27 186.452,-124.969 224,-139 234.313,-142.854 245.377,-146.806 256.041,-150.525"/>
<polygon fill="midnightblue" stroke="midnightblue" points="255.094,-153.901 265.689,-153.866 257.384,-147.287 255.094,-153.901"/>
</g>
<!-- Node3 -->
<g id="node3" class="node"><title>Node3</title>
<g id="a_node3"><a xlink:href="../../dc/d8b/classparser_1_1commands_1_1other_1_1_to.html#a85e013d5bbd478f988651a121e7fa78d" target="_top" xlink:title="parser.commands.other.To.check\lSyntax">
<polygon fill="white" stroke="black" points="224.5,-28 224.5,-58 399.5,-58 399.5,-28 224.5,-28"/>
<text text-anchor="start" x="232.5" y="-46" font-family="Helvetica,sans-Serif" font-size="10.00">parser.commands.other.To.check</text>
<text text-anchor="middle" x="312" y="-35" font-family="Helvetica,sans-Serif" font-size="10.00">Syntax</text>
</a>
</g>
</g>
<!-- Node1&#45;&gt;Node3 -->
<g id="edge2" class="edge"><title>Node1&#45;&gt;Node3</title>
<path fill="none" stroke="midnightblue" d="M141.869,-77.4527C166.731,-72.3882 198.037,-66.011 226.936,-60.1242"/>
<polygon fill="midnightblue" stroke="midnightblue" points="227.943,-63.4911 237.043,-58.0654 226.545,-56.6319 227.943,-63.4911"/>
</g>
<!-- Node4 -->
<g id="node4" class="node"><title>Node4</title>
<g id="a_node4"><a xlink:href="../../db/d11/classparser_1_1nodes_1_1_binary_node.html#a555930c71203ce7c05e1290f069b19a1" target="_top" xlink:title="parser.nodes.BinaryNode.getLeft">
<polygon fill="white" stroke="black" points="436,-98.5 436,-117.5 610,-117.5 610,-98.5 436,-98.5"/>
<text text-anchor="middle" x="523" y="-105.5" font-family="Helvetica,sans-Serif" font-size="10.00">parser.nodes.BinaryNode.getLeft</text>
</a>
</g>
</g>
<!-- Node1&#45;&gt;Node4 -->
<g id="edge9" class="edge"><title>Node1&#45;&gt;Node4</title>
<path fill="none" stroke="midnightblue" d="M172.673,-96.505C189.569,-98.2718 207.366,-99.904 224,-101 291.225,-105.429 367.141,-107.164 425.525,-107.799"/>
<polygon fill="midnightblue" stroke="midnightblue" points="425.812,-111.302 435.846,-107.902 425.882,-104.303 425.812,-111.302"/>
</g>
<!-- Node6 -->
<g id="node6" class="node"><title>Node6</title>
<g id="a_node6"><a xlink:href="../../d5/dba/classparser_1_1nodes_1_1_ternary_node.html#a770c301b3752edf8c5128e5422a17686" target="_top" xlink:title="parser.nodes.TernaryNode.get\lMiddle">
<polygon fill="white" stroke="black" points="442.5,-49 442.5,-79 603.5,-79 603.5,-49 442.5,-49"/>
<text text-anchor="start" x="450.5" y="-67" font-family="Helvetica,sans-Serif" font-size="10.00">parser.nodes.TernaryNode.get</text>
<text text-anchor="middle" x="523" y="-56" font-family="Helvetica,sans-Serif" font-size="10.00">Middle</text>
</a>
</g>
</g>
<!-- Node1&#45;&gt;Node6 -->
<g id="edge10" class="edge"><title>Node1&#45;&gt;Node6</title>
<path fill="none" stroke="midnightblue" d="M188.179,-81.981C260.568,-78.0818 360.356,-72.7068 431.941,-68.851"/>
<polygon fill="midnightblue" stroke="midnightblue" points="432.494,-72.3263 442.291,-68.2934 432.118,-65.3365 432.494,-72.3263"/>
</g>
<!-- Node7 -->
<g id="node7" class="node"><title>Node7</title>
<g id="a_node7"><a xlink:href="../../db/d11/classparser_1_1nodes_1_1_binary_node.html#a9c33799a377e3c277de0fc9138a2cb81" target="_top" xlink:title="parser.nodes.BinaryNode.get\lRight">
<polygon fill="white" stroke="black" points="445,-0 445,-30 601,-30 601,-0 445,-0"/>
<text text-anchor="start" x="453" y="-18" font-family="Helvetica,sans-Serif" font-size="10.00">parser.nodes.BinaryNode.get</text>
<text text-anchor="middle" x="523" y="-7" font-family="Helvetica,sans-Serif" font-size="10.00">Right</text>
</a>
</g>
</g>
<!-- Node1&#45;&gt;Node7 -->
<g id="edge11" class="edge"><title>Node1&#45;&gt;Node7</title>
<path fill="none" stroke="midnightblue" d="M107.679,-77.4876C129.855,-61.5031 177.743,-29.8417 224,-18 293.177,-0.290933 374.379,-0.804653 434.533,-5.03971"/>
<polygon fill="midnightblue" stroke="midnightblue" points="434.521,-8.5486 444.756,-5.80927 435.047,-1.56836 434.521,-8.5486"/>
</g>
<!-- Node3&#45;&gt;Node4 -->
<g id="edge3" class="edge"><title>Node3&#45;&gt;Node4</title>
<path fill="none" stroke="midnightblue" d="M350.555,-58.0957C374.709,-67.4659 406.908,-79.331 436,-88 445.696,-90.8893 456.108,-93.6181 466.224,-96.0772"/>
<polygon fill="midnightblue" stroke="midnightblue" points="465.665,-99.5416 476.202,-98.4423 467.279,-92.7303 465.665,-99.5416"/>
</g>
<!-- Node3&#45;&gt;Node6 -->
<g id="edge5" class="edge"><title>Node3&#45;&gt;Node6</title>
<path fill="none" stroke="midnightblue" d="M399.517,-51.6931C410.24,-52.7705 421.223,-53.8741 431.997,-54.9566"/>
<polygon fill="midnightblue" stroke="midnightblue" points="431.947,-58.4691 442.247,-55.9865 432.647,-51.5042 431.947,-58.4691"/>
</g>
<!-- Node3&#45;&gt;Node7 -->
<g id="edge7" class="edge"><title>Node3&#45;&gt;Node7</title>
<path fill="none" stroke="midnightblue" d="M399.517,-31.4092C411.156,-29.85 423.101,-28.2496 434.753,-26.6886"/>
<polygon fill="midnightblue" stroke="midnightblue" points="435.454,-30.126 444.901,-25.3291 434.525,-23.188 435.454,-30.126"/>
</g>
<!-- Node5 -->
<g id="node5" class="node"><title>Node5</title>
<g id="a_node5"><a xlink:href="../../d7/d93/classparser_1_1nodes_1_1_parameter_node.html#a2c57eab9997daf1efb840a189c1034c5" target="_top" xlink:title="parser.nodes.ParameterNode.get\lParameter">
<polygon fill="white" stroke="black" points="646,-49 646,-79 822,-79 822,-49 646,-49"/>
<text text-anchor="start" x="654" y="-67" font-family="Helvetica,sans-Serif" font-size="10.00">parser.nodes.ParameterNode.get</text>
<text text-anchor="middle" x="734" y="-56" font-family="Helvetica,sans-Serif" font-size="10.00">Parameter</text>
</a>
</g>
</g>
<!-- Node4&#45;&gt;Node5 -->
<g id="edge4" class="edge"><title>Node4&#45;&gt;Node5</title>
<path fill="none" stroke="midnightblue" d="M569.35,-98.4527C593.301,-93.4103 623.433,-87.0666 651.294,-81.2013"/>
<polygon fill="midnightblue" stroke="midnightblue" points="652.375,-84.5505 661.44,-79.0654 650.933,-77.7006 652.375,-84.5505"/>
</g>
<!-- Node6&#45;&gt;Node5 -->
<g id="edge6" class="edge"><title>Node6&#45;&gt;Node5</title>
<path fill="none" stroke="midnightblue" d="M603.61,-64C614.101,-64 624.946,-64 635.69,-64"/>
<polygon fill="midnightblue" stroke="midnightblue" points="635.945,-67.5001 645.945,-64 635.945,-60.5001 635.945,-67.5001"/>
</g>
<!-- Node7&#45;&gt;Node5 -->
<g id="edge8" class="edge"><title>Node7&#45;&gt;Node5</title>
<path fill="none" stroke="midnightblue" d="M588.127,-30.0346C610.596,-35.3024 636.007,-41.2601 659.203,-46.6984"/>
<polygon fill="midnightblue" stroke="midnightblue" points="658.459,-50.1187 668.994,-48.9938 660.057,-43.3035 658.459,-50.1187"/>
</g>
</g>
</svg>
        <g id="navigator" transform="translate(0 0)" fill="#404254">
                <rect fill="#f2f5e9" fill-opacity="0.5" stroke="#606060" stroke-width=".5" x="0" y="0" width="60" height="60"/>
                <use id="zoomplus" xlink:href="#zoomPlus" x="17" y="9" onmousedown="handleZoom(evt,'in')"/>
                <use id="zoomminus" xlink:href="#zoomMin" x="42" y="9" onmousedown="handleZoom(evt,'out')"/>
                <use id="reset" xlink:href="#resetDef" x="30" y="36" onmousedown="handleReset()"/>
                <g id="arrowUp" xlink:href="#dirArrow" transform="translate(30 24)" onmousedown="handlePan(0,-1)">
                  <use xlink:href="#rim" fill="#404040">
                        <set attributeName="fill" to="#808080" begin="arrowUp.mouseover" end="arrowUp.mouseout"/>
                  </use>
                  <path fill="none" stroke="white" stroke-width="1.5" d="M0,-3.0v7 M-2.5,-0.5L0,-3.0L2.5,-0.5"/>
                </g>
                <g id="arrowRight" xlink:href="#dirArrow" transform="rotate(90) translate(36 -43)" onmousedown="handlePan(1,0)">
                  <use xlink:href="#rim" fill="#404040">
                        <set attributeName="fill" to="#808080" begin="arrowRight.mouseover" end="arrowRight.mouseout"/>
                  </use>
                  <path fill="none" stroke="white" stroke-width="1.5" d="M0,-3.0v7 M-2.5,-0.5L0,-3.0L2.5,-0.5"/>
                </g>
                <g id="arrowDown" xlink:href="#dirArrow" transform="rotate(180) translate(-30 -48)" onmousedown="handlePan(0,1)">
                  <use xlink:href="#rim" fill="#404040">
                        <set attributeName="fill" to="#808080" begin="arrowDown.mouseover" end="arrowDown.mouseout"/>
                  </use>
                  <path fill="none" stroke="white" stroke-width="1.5" d="M0,-3.0v7 M-2.5,-0.5L0,-3.0L2.5,-0.5"/>
                </g>
                <g id="arrowLeft" xlink:href="#dirArrow" transform="rotate(270) translate(-36 17)" onmousedown="handlePan(-1,0)">
                  <use xlink:href="#rim" fill="#404040">
                        <set attributeName="fill" to="#808080" begin="arrowLeft.mouseover" end="arrowLeft.mouseout"/>
                  </use>
                  <path fill="none" stroke="white" stroke-width="1.5" d="M0,-3.0v7 M-2.5,-0.5L0,-3.0L2.5,-0.5"/>
                </g>
        </g>
        <svg viewBox="0 0 15 15" width="100%" height="30px" preserveAspectRatio="xMaxYMin meet">
         <g id="arrow_out" transform="scale(0.3 0.3)">
          <a xlink:href="classparser_1_1commands_1_1other_1_1_to_a835c478a7eb5b7f48d66a3bcee850d5b_cgraph_org.svg" target="_base">
           <rect id="button" ry="5" rx="5" y="6" x="6" height="38" width="38"
                fill="#f2f5e9" fill-opacity="0.5" stroke="#606060" stroke-width="1.0"/>
           <path id="arrow"
             d="M 11.500037,31.436501 C 11.940474,20.09759 22.043105,11.32322 32.158766,21.979434 L 37.068811,17.246167 C 37.068811,17.246167 37.088388,32 37.088388,32 L 22.160133,31.978069 C 22.160133,31.978069 26.997745,27.140456 26.997745,27.140456 C 18.528582,18.264221 13.291696,25.230495 11.500037,31.436501 z"
             style="fill:#404040;"/>
          </a>
         </g>
        </svg>
</svg>
