<?xml version="1.0" encoding="UTF-8" standalone="no"?>
<!DOCTYPE svg PUBLIC "-//W3C//DTD SVG 1.1//EN"
 "http://www.w3.org/Graphics/SVG/1.1/DTD/svg11.dtd">
<!-- Generated by graphviz version 2.36.0 (20140111.2315)
 -->
<!-- Title: parser.commands.other.To.checkSyntax Pages: 1 -->
<svg width="606pt" height="126pt"
 viewBox="0.00 0.00 606.00 126.00" xmlns="http://www.w3.org/2000/svg" xmlns:xlink="http://www.w3.org/1999/xlink">
<g id="graph0" class="graph" transform="scale(1 1) rotate(0) translate(4 122)">
<title>parser.commands.other.To.checkSyntax</title>
<polygon fill="white" stroke="none" points="-4,4 -4,-122 602,-122 602,4 -4,4"/>
<!-- Node1 -->
<g id="node1" class="node"><title>Node1</title>
<polygon fill="#bfbfbf" stroke="black" points="0.5,-49 0.5,-79 175.5,-79 175.5,-49 0.5,-49"/>
<text text-anchor="start" x="8.5" y="-67" font-family="Helvetica,sans-Serif" font-size="10.00">parser.commands.other.To.check</text>
<text text-anchor="middle" x="88" y="-56" font-family="Helvetica,sans-Serif" font-size="10.00">Syntax</text>
</g>
<!-- Node2 -->
<g id="node2" class="node"><title>Node2</title>
<g id="a_node2"><a xlink:href="../../db/d11/classparser_1_1nodes_1_1_binary_node.html#a555930c71203ce7c05e1290f069b19a1" target="_top" xlink:title="parser.nodes.BinaryNode.getLeft">
<polygon fill="white" stroke="black" points="212,-98.5 212,-117.5 386,-117.5 386,-98.5 212,-98.5"/>
<text text-anchor="middle" x="299" y="-105.5" font-family="Helvetica,sans-Serif" font-size="10.00">parser.nodes.BinaryNode.getLeft</text>
</a>
</g>
</g>
<!-- Node1&#45;&gt;Node2 -->
<g id="edge1" class="edge"><title>Node1&#45;&gt;Node2</title>
<path fill="none" stroke="midnightblue" d="M160.341,-79.0192C187.38,-84.7115 217.722,-91.0994 243.025,-96.4264"/>
<polygon fill="midnightblue" stroke="midnightblue" points="242.309,-99.8523 252.816,-98.4876 243.752,-93.0025 242.309,-99.8523"/>
</g>
<!-- Node4 -->
<g id="node4" class="node"><title>Node4</title>
<g id="a_node4"><a xlink:href="../../d5/dba/classparser_1_1nodes_1_1_ternary_node.html#a770c301b3752edf8c5128e5422a17686" target="_top" xlink:title="parser.nodes.TernaryNode.get\lMiddle">
<polygon fill="white" stroke="black" points="218.5,-49 218.5,-79 379.5,-79 379.5,-49 218.5,-49"/>
<text text-anchor="start" x="226.5" y="-67" font-family="Helvetica,sans-Serif" font-size="10.00">parser.nodes.TernaryNode.get</text>
<text text-anchor="middle" x="299" y="-56" font-family="Helvetica,sans-Serif" font-size="10.00">Middle</text>
</a>
</g>
</g>
<!-- Node1&#45;&gt;Node4 -->
<g id="edge3" class="edge"><title>Node1&#45;&gt;Node4</title>
<path fill="none" stroke="midnightblue" d="M175.517,-64C186.24,-64 197.223,-64 207.997,-64"/>
<polygon fill="midnightblue" stroke="midnightblue" points="208.247,-67.5001 218.247,-64 208.246,-60.5001 208.247,-67.5001"/>
</g>
<!-- Node5 -->
<g id="node5" class="node"><title>Node5</title>
<g id="a_node5"><a xlink:href="../../db/d11/classparser_1_1nodes_1_1_binary_node.html#a9c33799a377e3c277de0fc9138a2cb81" target="_top" xlink:title="parser.nodes.BinaryNode.get\lRight">
<polygon fill="white" stroke="black" points="221,-0 221,-30 377,-30 377,-0 221,-0"/>
<text text-anchor="start" x="229" y="-18" font-family="Helvetica,sans-Serif" font-size="10.00">parser.nodes.BinaryNode.get</text>
<text text-anchor="middle" x="299" y="-7" font-family="Helvetica,sans-Serif" font-size="10.00">Right</text>
</a>
</g>
</g>
<!-- Node1&#45;&gt;Node5 -->
<g id="edge5" class="edge"><title>Node1&#45;&gt;Node5</title>
<path fill="none" stroke="midnightblue" d="M153.127,-48.9654C175.596,-43.6976 201.007,-37.7399 224.203,-32.3016"/>
<polygon fill="midnightblue" stroke="midnightblue" points="225.057,-35.6965 233.994,-30.0062 223.459,-28.8813 225.057,-35.6965"/>
</g>
<!-- Node3 -->
<g id="node3" class="node"><title>Node3</title>
<g id="a_node3"><a xlink:href="../../d7/d93/classparser_1_1nodes_1_1_parameter_node.html#a2c57eab9997daf1efb840a189c1034c5" target="_top" xlink:title="parser.nodes.ParameterNode.get\lParameter">
<polygon fill="white" stroke="black" points="422,-49 422,-79 598,-79 598,-49 422,-49"/>
<text text-anchor="start" x="430" y="-67" font-family="Helvetica,sans-Serif" font-size="10.00">parser.nodes.ParameterNode.get</text>
<text text-anchor="middle" x="510" y="-56" font-family="Helvetica,sans-Serif" font-size="10.00">Parameter</text>
</a>
</g>
</g>
<!-- Node2&#45;&gt;Node3 -->
<g id="edge2" class="edge"><title>Node2&#45;&gt;Node3</title>
<path fill="none" stroke="midnightblue" d="M345.35,-98.4527C369.301,-93.4103 399.433,-87.0666 427.294,-81.2013"/>
<polygon fill="midnightblue" stroke="midnightblue" points="428.375,-84.5505 437.44,-79.0654 426.933,-77.7006 428.375,-84.5505"/>
</g>
<!-- Node4&#45;&gt;Node3 -->
<g id="edge4" class="edge"><title>Node4&#45;&gt;Node3</title>
<path fill="none" stroke="midnightblue" d="M379.61,-64C390.101,-64 400.946,-64 411.69,-64"/>
<polygon fill="midnightblue" stroke="midnightblue" points="411.945,-67.5001 421.945,-64 411.945,-60.5001 411.945,-67.5001"/>
</g>
<!-- Node5&#45;&gt;Node3 -->
<g id="edge6" class="edge"><title>Node5&#45;&gt;Node3</title>
<path fill="none" stroke="midnightblue" d="M364.127,-30.0346C386.596,-35.3024 412.007,-41.2601 435.203,-46.6984"/>
<polygon fill="midnightblue" stroke="midnightblue" points="434.459,-50.1187 444.994,-48.9938 436.057,-43.3035 434.459,-50.1187"/>
</g>
</g>
</svg>
