<?xml version="1.0" encoding="UTF-8" standalone="no"?>
<!DOCTYPE svg PUBLIC "-//W3C//DTD SVG 1.1//EN"
 "http://www.w3.org/Graphics/SVG/1.1/DTD/svg11.dtd">
<!-- Generated by graphviz version 2.36.0 (20140111.2315)
 -->
<!-- Title: parser.commands.turtle.commands.SetPenColor Pages: 1 -->
<svg width="319pt" height="236pt"
 viewBox="0.00 0.00 319.00 236.00" xmlns="http://www.w3.org/2000/svg" xmlns:xlink="http://www.w3.org/1999/xlink">
<g id="graph0" class="graph" transform="scale(1 1) rotate(0) translate(4 232)">
<title>parser.commands.turtle.commands.SetPenColor</title>
<polygon fill="white" stroke="none" points="-4,4 -4,-232 315,-232 315,4 -4,4"/>
<!-- Node1 -->
<g id="node1" class="node"><title>Node1</title>
<polygon fill="#bfbfbf" stroke="black" points="56,-1 56,-31 248,-31 248,-1 56,-1"/>
<text text-anchor="start" x="64" y="-19" font-family="Helvetica,sans-Serif" font-size="10.00">parser.commands.turtle.commands.</text>
<text text-anchor="middle" x="152" y="-8" font-family="Helvetica,sans-Serif" font-size="10.00">SetPenColor</text>
</g>
<!-- Node2 -->
<g id="node2" class="node"><title>Node2</title>
<g id="a_node2"><a xlink:href="../../d3/d36/classparser_1_1nodes_1_1_unary_node.html" target="_top" xlink:title="parser.nodes.UnaryNode">
<polygon fill="white" stroke="black" points="84,-70.5 84,-89.5 220,-89.5 220,-70.5 84,-70.5"/>
<text text-anchor="middle" x="152" y="-77.5" font-family="Helvetica,sans-Serif" font-size="10.00">parser.nodes.UnaryNode</text>
</a>
</g>
</g>
<!-- Node2&#45;&gt;Node1 -->
<g id="edge1" class="edge"><title>Node2&#45;&gt;Node1</title>
<path fill="none" stroke="midnightblue" d="M152,-60.1826C152,-50.8859 152,-39.8507 152,-31.263"/>
<polygon fill="midnightblue" stroke="midnightblue" points="148.5,-60.3791 152,-70.3792 155.5,-60.3792 148.5,-60.3791"/>
</g>
<!-- Node3 -->
<g id="node3" class="node"><title>Node3</title>
<g id="a_node3"><a xlink:href="../../d7/d93/classparser_1_1nodes_1_1_parameter_node.html" target="_top" xlink:title="parser.nodes.ParameterNode">
<polygon fill="white" stroke="black" points="73,-128.5 73,-147.5 231,-147.5 231,-128.5 73,-128.5"/>
<text text-anchor="middle" x="152" y="-135.5" font-family="Helvetica,sans-Serif" font-size="10.00">parser.nodes.ParameterNode</text>
</a>
</g>
</g>
<!-- Node3&#45;&gt;Node2 -->
<g id="edge2" class="edge"><title>Node3&#45;&gt;Node2</title>
<path fill="none" stroke="midnightblue" d="M152,-117.953C152,-108.287 152,-97.0312 152,-89.5052"/>
<polygon fill="midnightblue" stroke="midnightblue" points="148.5,-118.25 152,-128.25 155.5,-118.25 148.5,-118.25"/>
</g>
<!-- Node4 -->
<g id="node4" class="node"><title>Node4</title>
<g id="a_node4"><a xlink:href="../../da/d96/classparser_1_1nodes_1_1_syntax_node.html" target="_top" xlink:title="parser.nodes.SyntaxNode">
<polygon fill="white" stroke="black" points="0,-202.5 0,-221.5 140,-221.5 140,-202.5 0,-202.5"/>
<text text-anchor="middle" x="70" y="-209.5" font-family="Helvetica,sans-Serif" font-size="10.00">parser.nodes.SyntaxNode</text>
</a>
</g>
</g>
<!-- Node4&#45;&gt;Node3 -->
<g id="edge3" class="edge"><title>Node4&#45;&gt;Node3</title>
<path fill="none" stroke="midnightblue" d="M87.6627,-195.491C104.378,-180.815 128.852,-159.325 142.284,-147.531"/>
<polygon fill="midnightblue" stroke="midnightblue" points="84.9336,-193.23 79.7285,-202.458 89.5522,-198.49 84.9336,-193.23"/>
</g>
<!-- Node5 -->
<g id="node5" class="node"><title>Node5</title>
<polygon fill="white" stroke="#bfbfbf" points="158.5,-197 158.5,-227 311.5,-227 311.5,-197 158.5,-197"/>
<text text-anchor="start" x="166.5" y="-215" font-family="Helvetica,sans-Serif" font-size="10.00">Map&lt; Integer, parser.nodes.</text>
<text text-anchor="middle" x="235" y="-204" font-family="Helvetica,sans-Serif" font-size="10.00">SyntaxNode &gt;</text>
</g>
<!-- Node5&#45;&gt;Node3 -->
<g id="edge4" class="edge"><title>Node5&#45;&gt;Node3</title>
<path fill="none" stroke="#9a32cd" stroke-dasharray="5,2" d="M211.04,-190.216C194.804,-176.131 174.177,-158.238 162.097,-147.759"/>
<polygon fill="#9a32cd" stroke="#9a32cd" points="208.754,-192.866 218.602,-196.775 213.341,-187.578 208.754,-192.866"/>
<text text-anchor="middle" x="220.5" y="-169.5" font-family="Helvetica,sans-Serif" font-size="10.00"> myNodes</text>
</g>
</g>
</svg>
