<?xml version="1.0" encoding="UTF-8" standalone="no"?>
<!DOCTYPE svg PUBLIC "-//W3C//DTD SVG 1.1//EN"
 "http://www.w3.org/Graphics/SVG/1.1/DTD/svg11.dtd">
<!-- Generated by graphviz version 2.36.0 (20140111.2315)
 -->
<!-- Title: /tmp/Tadimsky/sLogo/repository/src/parser/commands/turtle Pages: 1 -->
<svg width="272pt" height="111pt"
 viewBox="0.00 0.00 272.00 111.00" xmlns="http://www.w3.org/2000/svg" xmlns:xlink="http://www.w3.org/1999/xlink">
<g id="graph0" class="graph" transform="scale(1 1) rotate(0) translate(4 107)">
<title>/tmp/Tadimsky/sLogo/repository/src/parser/commands/turtle</title>
<polygon fill="white" stroke="none" points="-4,4 -4,-107 268,-107 268,4 -4,4"/>
<g id="clust1" class="cluster"><title>clusterdir_7a06353413920b03a215335816a0b614</title>
<g id="a_clust1"><a xlink:href="dir_7a06353413920b03a215335816a0b614.html" target="_top" xlink:title="commands">
<polygon fill="#ddddee" stroke="black" points="8,-8 8,-95 256,-95 256,-8 8,-8"/>
<text text-anchor="middle" x="132" y="-83" font-family="Helvetica,sans-Serif" font-size="10.00">commands</text>
</a>
</g>
</g>
<g id="clust2" class="cluster"><title>clusterdir_a58a7a89db21e2eaf05260e320cccba5</title>
<g id="a_clust2"><a xlink:href="dir_a58a7a89db21e2eaf05260e320cccba5.html" target="_top">
<polygon fill="#eeeeff" stroke="black" points="16,-16 16,-68 248,-68 248,-16 16,-16"/>
</a>
</g>
</g>
<!-- dir_a58a7a89db21e2eaf05260e320cccba5 -->
<g id="node1" class="node"><title>dir_a58a7a89db21e2eaf05260e320cccba5</title>
<text text-anchor="middle" x="213" y="-39.5" font-family="Helvetica,sans-Serif" font-size="10.00">turtle</text>
</g>
<!-- dir_442039f8678d904643c810c9f72a32e2 -->
<g id="node2" class="node"><title>dir_442039f8678d904643c810c9f72a32e2</title>
<g id="a_node2"><a xlink:href="dir_442039f8678d904643c810c9f72a32e2.html" target="_top" xlink:title="commands">
<polygon fill="white" stroke="black" points="167.25,-60 96.75,-60 96.75,-24 167.25,-24 167.25,-60"/>
<text text-anchor="middle" x="132" y="-39.5" font-family="Helvetica,sans-Serif" font-size="10.00">commands</text>
</a>
</g>
</g>
<!-- dir_4cef5d7623c05cab4349211e7b94740b -->
<g id="node3" class="node"><title>dir_4cef5d7623c05cab4349211e7b94740b</title>
<g id="a_node3"><a xlink:href="dir_4cef5d7623c05cab4349211e7b94740b.html" target="_top" xlink:title="queries">
<polygon fill="white" stroke="black" points="78,-60 24,-60 24,-24 78,-24 78,-60"/>
<text text-anchor="middle" x="51" y="-39.5" font-family="Helvetica,sans-Serif" font-size="10.00">queries</text>
</a>
</g>
</g>
</g>
</svg>
