<?xml version="1.0" encoding="UTF-8" standalone="no"?>
<!DOCTYPE svg PUBLIC "-//W3C//DTD SVG 1.1//EN"
 "http://www.w3.org/Graphics/SVG/1.1/DTD/svg11.dtd">
<!-- Generated by graphviz version 2.36.0 (20140111.2315)
 -->
<!-- Title: /tmp/Tadimsky/sLogo/repository/src/parser Pages: 1 -->
<svg width="510pt" height="111pt"
 viewBox="0.00 0.00 510.00 111.00" xmlns="http://www.w3.org/2000/svg" xmlns:xlink="http://www.w3.org/1999/xlink">
<g id="graph0" class="graph" transform="scale(1 1) rotate(0) translate(4 107)">
<title>/tmp/Tadimsky/sLogo/repository/src/parser</title>
<polygon fill="white" stroke="none" points="-4,4 -4,-107 506,-107 506,4 -4,4"/>
<g id="clust1" class="cluster"><title>clusterdir_157d7439b0930abbd8b26503645ffcf8</title>
<g id="a_clust1"><a xlink:href="dir_157d7439b0930abbd8b26503645ffcf8.html" target="_top" xlink:title="src">
<polygon fill="#ddddee" stroke="black" points="8,-8 8,-95 494,-95 494,-8 8,-8"/>
<text text-anchor="middle" x="251" y="-83" font-family="Helvetica,sans-Serif" font-size="10.00">src</text>
</a>
</g>
</g>
<g id="clust2" class="cluster"><title>clusterdir_0c1123d9bb552724eb2a0273e234943e</title>
<g id="a_clust2"><a xlink:href="dir_0c1123d9bb552724eb2a0273e234943e.html" target="_top">
<polygon fill="#eeeeff" stroke="black" points="16,-16 16,-68 486,-68 486,-16 16,-16"/>
</a>
</g>
</g>
<!-- dir_0c1123d9bb552724eb2a0273e234943e -->
<g id="node1" class="node"><title>dir_0c1123d9bb552724eb2a0273e234943e</title>
<text text-anchor="middle" x="451" y="-39.5" font-family="Helvetica,sans-Serif" font-size="10.00">parser</text>
</g>
<!-- dir_7a06353413920b03a215335816a0b614 -->
<g id="node2" class="node"><title>dir_7a06353413920b03a215335816a0b614</title>
<g id="a_node2"><a xlink:href="dir_7a06353413920b03a215335816a0b614.html" target="_top" xlink:title="commands">
<polygon fill="white" stroke="red" points="405.25,-60 334.75,-60 334.75,-24 405.25,-24 405.25,-60"/>
<text text-anchor="middle" x="370" y="-39.5" font-family="Helvetica,sans-Serif" font-size="10.00">commands</text>
</a>
</g>
</g>
<!-- dir_55912cf0cecc8b847bdd03aa12d8a2c9 -->
<g id="node3" class="node"><title>dir_55912cf0cecc8b847bdd03aa12d8a2c9</title>
<g id="a_node3"><a xlink:href="dir_55912cf0cecc8b847bdd03aa12d8a2c9.html" target="_top" xlink:title="exceptions">
<polygon fill="white" stroke="black" points="316,-60 248,-60 248,-24 316,-24 316,-60"/>
<text text-anchor="middle" x="282" y="-39.5" font-family="Helvetica,sans-Serif" font-size="10.00">exceptions</text>
</a>
</g>
</g>
<!-- dir_76df394ee54b2187aecfc54205e22a35 -->
<g id="node4" class="node"><title>dir_76df394ee54b2187aecfc54205e22a35</title>
<g id="a_node4"><a xlink:href="dir_76df394ee54b2187aecfc54205e22a35.html" target="_top" xlink:title="Nodes">
<polygon fill="white" stroke="red" points="230,-60 176,-60 176,-24 230,-24 230,-60"/>
<text text-anchor="middle" x="203" y="-39.5" font-family="Helvetica,sans-Serif" font-size="10.00">Nodes</text>
</a>
</g>
</g>
<!-- dir_01f41898e6f80fd8fcd00d278d0627d3 -->
<g id="node5" class="node"><title>dir_01f41898e6f80fd8fcd00d278d0627d3</title>
<g id="a_node5"><a xlink:href="dir_01f41898e6f80fd8fcd00d278d0627d3.html" target="_top" xlink:title="reflection">
<polygon fill="white" stroke="black" points="157.25,-60 96.75,-60 96.75,-24 157.25,-24 157.25,-60"/>
<text text-anchor="middle" x="127" y="-39.5" font-family="Helvetica,sans-Serif" font-size="10.00">reflection</text>
</a>
</g>
</g>
<!-- dir_a2aa21b911d70b2cef8e31d0bc9ac87d -->
<g id="node6" class="node"><title>dir_a2aa21b911d70b2cef8e31d0bc9ac87d</title>
<g id="a_node6"><a xlink:href="dir_a2aa21b911d70b2cef8e31d0bc9ac87d.html" target="_top" xlink:title="tests">
<polygon fill="white" stroke="black" points="78,-60 24,-60 24,-24 78,-24 78,-60"/>
<text text-anchor="middle" x="51" y="-39.5" font-family="Helvetica,sans-Serif" font-size="10.00">tests</text>
</a>
</g>
</g>
</g>
</svg>
