<?xml version="1.0" encoding="UTF-8" standalone="no"?>
<!DOCTYPE svg PUBLIC "-//W3C//DTD SVG 1.1//EN"
 "http://www.w3.org/Graphics/SVG/1.1/DTD/svg11.dtd">
<!-- Generated by graphviz version 2.36.0 (20140111.2315)
 -->
<!-- Title: /tmp/Tadimsky/sLogo/repository/src/view Pages: 1 -->
<svg width="352pt" height="111pt"
 viewBox="0.00 0.00 352.00 111.00" xmlns="http://www.w3.org/2000/svg" xmlns:xlink="http://www.w3.org/1999/xlink">
<g id="graph0" class="graph" transform="scale(1 1) rotate(0) translate(4 107)">
<title>/tmp/Tadimsky/sLogo/repository/src/view</title>
<polygon fill="white" stroke="none" points="-4,4 -4,-107 348,-107 348,4 -4,4"/>
<g id="clust1" class="cluster"><title>clusterdir_157d7439b0930abbd8b26503645ffcf8</title>
<g id="a_clust1"><a xlink:href="dir_157d7439b0930abbd8b26503645ffcf8.html" target="_top" xlink:title="src">
<polygon fill="#ddddee" stroke="black" points="8,-8 8,-95 336,-95 336,-8 8,-8"/>
<text text-anchor="middle" x="172" y="-83" font-family="Helvetica,sans-Serif" font-size="10.00">src</text>
</a>
</g>
</g>
<g id="clust2" class="cluster"><title>clusterdir_723fb87022df50d69d612ecd57794de5</title>
<g id="a_clust2"><a xlink:href="dir_723fb87022df50d69d612ecd57794de5.html" target="_top">
<polygon fill="#eeeeff" stroke="black" points="16,-16 16,-68 328,-68 328,-16 16,-16"/>
</a>
</g>
</g>
<!-- dir_723fb87022df50d69d612ecd57794de5 -->
<g id="node1" class="node"><title>dir_723fb87022df50d69d612ecd57794de5</title>
<text text-anchor="middle" x="293" y="-39.5" font-family="Helvetica,sans-Serif" font-size="10.00">view</text>
</g>
<!-- dir_216ebdafde2040127a712326c3eb2f6b -->
<g id="node2" class="node"><title>dir_216ebdafde2040127a712326c3eb2f6b</title>
<g id="a_node2"><a xlink:href="dir_216ebdafde2040127a712326c3eb2f6b.html" target="_top" xlink:title="components">
<polygon fill="white" stroke="black" points="247.25,-60 170.75,-60 170.75,-24 247.25,-24 247.25,-60"/>
<text text-anchor="middle" x="209" y="-39.5" font-family="Helvetica,sans-Serif" font-size="10.00">components</text>
</a>
</g>
</g>
<!-- dir_7748c792191ed72694e1447c5dc4fbf1 -->
<g id="node3" class="node"><title>dir_7748c792191ed72694e1447c5dc4fbf1</title>
<g id="a_node3"><a xlink:href="dir_7748c792191ed72694e1447c5dc4fbf1.html" target="_top" xlink:title="labels">
<polygon fill="white" stroke="black" points="152,-60 98,-60 98,-24 152,-24 152,-60"/>
<text text-anchor="middle" x="125" y="-39.5" font-family="Helvetica,sans-Serif" font-size="10.00">labels</text>
</a>
</g>
</g>
<!-- dir_d128b1edde169fb31ee700a21fe77143 -->
<g id="node4" class="node"><title>dir_d128b1edde169fb31ee700a21fe77143</title>
<g id="a_node4"><a xlink:href="dir_d128b1edde169fb31ee700a21fe77143.html" target="_top" xlink:title="windows">
<polygon fill="white" stroke="black" points="79.5,-60 24.5,-60 24.5,-24 79.5,-24 79.5,-60"/>
<text text-anchor="middle" x="52" y="-39.5" font-family="Helvetica,sans-Serif" font-size="10.00">windows</text>
</a>
</g>
</g>
</g>
</svg>
