<?xml version="1.0" encoding="UTF-8" standalone="no"?>
<!DOCTYPE svg PUBLIC "-//W3C//DTD SVG 1.1//EN"
 "http://www.w3.org/Graphics/SVG/1.1/DTD/svg11.dtd">
<!-- Generated by graphviz version 2.36.0 (20140111.2315)
 -->
<!-- Title: Graphical Class Hierarchy Pages: 1 -->
<svg width="488pt" height="209pt"
 viewBox="0.00 0.00 488.00 209.00" xmlns="http://www.w3.org/2000/svg" xmlns:xlink="http://www.w3.org/1999/xlink">
<g id="graph0" class="graph" transform="scale(1 1) rotate(0) translate(4 205)">
<title>Graphical Class Hierarchy</title>
<polygon fill="white" stroke="none" points="-4,4 -4,-205 484,-205 484,4 -4,4"/>
<!-- Node1 -->
<g id="node1" class="node"><title>Node1</title>
<polygon fill="white" stroke="#bfbfbf" points="0.5,-162.5 0.5,-181.5 75.5,-181.5 75.5,-162.5 0.5,-162.5"/>
<text text-anchor="middle" x="38" y="-169.5" font-family="Helvetica,sans-Serif" font-size="10.00">JComponent</text>
</g>
<!-- Node2 -->
<g id="node2" class="node"><title>Node2</title>
<g id="a_node2"><a xlink:href="d8/ddd/classview_1_1_canvas.html" target="_top" xlink:title="view.Canvas">
<polygon fill="white" stroke="black" points="155,-143.5 155,-162.5 229,-162.5 229,-143.5 155,-143.5"/>
<text text-anchor="middle" x="192" y="-150.5" font-family="Helvetica,sans-Serif" font-size="10.00">view.Canvas</text>
</a>
</g>
</g>
<!-- Node1&#45;&gt;Node2 -->
<g id="edge1" class="edge"><title>Node1&#45;&gt;Node2</title>
<path fill="none" stroke="midnightblue" d="M85.9983,-166.125C108.165,-163.354 134.204,-160.099 154.806,-157.524"/>
<polygon fill="midnightblue" stroke="midnightblue" points="85.2836,-162.687 75.795,-167.401 86.1519,-169.633 85.2836,-162.687"/>
</g>
<!-- Node3 -->
<g id="node3" class="node"><title>Node3</title>
<g id="a_node3"><a xlink:href="d3/dcf/classview_1_1components_1_1_error_box.html" target="_top" xlink:title="view.components.ErrorBox">
<polygon fill="white" stroke="black" points="120.5,-181.5 120.5,-200.5 263.5,-200.5 263.5,-181.5 120.5,-181.5"/>
<text text-anchor="middle" x="192" y="-188.5" font-family="Helvetica,sans-Serif" font-size="10.00">view.components.ErrorBox</text>
</a>
</g>
</g>
<!-- Node1&#45;&gt;Node3 -->
<g id="edge2" class="edge"><title>Node1&#45;&gt;Node3</title>
<path fill="none" stroke="midnightblue" d="M85.9223,-177.865C96.8233,-179.228 108.664,-180.708 120.336,-182.167"/>
<polygon fill="midnightblue" stroke="midnightblue" points="86.1519,-174.367 75.795,-176.599 85.2836,-181.313 86.1519,-174.367"/>
</g>
<!-- Node4 -->
<g id="node4" class="node"><title>Node4</title>
<polygon fill="white" stroke="#bfbfbf" points="16,-67.5 16,-86.5 60,-86.5 60,-67.5 16,-67.5"/>
<text text-anchor="middle" x="38" y="-74.5" font-family="Helvetica,sans-Serif" font-size="10.00">JPanel</text>
</g>
<!-- Node5 -->
<g id="node5" class="node"><title>Node5</title>
<g id="a_node5"><a xlink:href="db/da5/classview_1_1windows_1_1_information_view.html" target="_top" xlink:title="view.windows.InformationView">
<polygon fill="white" stroke="black" points="113,-67.5 113,-86.5 271,-86.5 271,-67.5 113,-67.5"/>
<text text-anchor="middle" x="192" y="-74.5" font-family="Helvetica,sans-Serif" font-size="10.00">view.windows.InformationView</text>
</a>
</g>
</g>
<!-- Node4&#45;&gt;Node5 -->
<g id="edge3" class="edge"><title>Node4&#45;&gt;Node5</title>
<path fill="none" stroke="midnightblue" d="M70.3699,-77C82.8072,-77 97.7141,-77 112.739,-77"/>
<polygon fill="midnightblue" stroke="midnightblue" points="70.135,-73.5001 60.1349,-77 70.1349,-80.5001 70.135,-73.5001"/>
</g>
<!-- Node6 -->
<g id="node6" class="node"><title>Node6</title>
<g id="a_node6"><a xlink:href="d3/d50/classview_1_1windows_1_1_logo_list_window.html" target="_top" xlink:title="view.windows.LogoListWindow">
<polygon fill="white" stroke="black" points="114,-29.5 114,-48.5 270,-48.5 270,-29.5 114,-29.5"/>
<text text-anchor="middle" x="192" y="-36.5" font-family="Helvetica,sans-Serif" font-size="10.00">view.windows.LogoListWindow</text>
</a>
</g>
</g>
<!-- Node4&#45;&gt;Node6 -->
<g id="edge4" class="edge"><title>Node4&#45;&gt;Node6</title>
<path fill="none" stroke="midnightblue" d="M69.9091,-68.8194C82.894,-65.418 98.1668,-61.4634 112,-58 124.589,-54.8481 138.333,-51.5077 150.775,-48.5215"/>
<polygon fill="midnightblue" stroke="midnightblue" points="68.8391,-65.4817 60.0572,-71.4087 70.6184,-72.2518 68.8391,-65.4817"/>
</g>
<!-- Node9 -->
<g id="node9" class="node"><title>Node9</title>
<g id="a_node9"><a xlink:href="d3/daf/classview_1_1windows_1_1_variables_window.html" target="_top" xlink:title="view.windows.VariablesWindow">
<polygon fill="white" stroke="black" points="112,-105.5 112,-124.5 272,-124.5 272,-105.5 112,-105.5"/>
<text text-anchor="middle" x="192" y="-112.5" font-family="Helvetica,sans-Serif" font-size="10.00">view.windows.VariablesWindow</text>
</a>
</g>
</g>
<!-- Node4&#45;&gt;Node9 -->
<g id="edge7" class="edge"><title>Node4&#45;&gt;Node9</title>
<path fill="none" stroke="midnightblue" d="M69.9091,-85.1806C82.894,-88.582 98.1668,-92.5366 112,-96 124.589,-99.1519 138.333,-102.492 150.775,-105.479"/>
<polygon fill="midnightblue" stroke="midnightblue" points="70.6184,-81.7482 60.0572,-82.5913 68.8391,-88.5183 70.6184,-81.7482"/>
</g>
<!-- Node7 -->
<g id="node7" class="node"><title>Node7</title>
<g id="a_node7"><a xlink:href="dd/d47/classview_1_1windows_1_1_custom_command_window.html" target="_top" xlink:title="view.windows.CustomCommand\lWindow">
<polygon fill="white" stroke="black" points="309.5,-49 309.5,-79 478.5,-79 478.5,-49 309.5,-49"/>
<text text-anchor="start" x="317.5" y="-67" font-family="Helvetica,sans-Serif" font-size="10.00">view.windows.CustomCommand</text>
<text text-anchor="middle" x="394" y="-56" font-family="Helvetica,sans-Serif" font-size="10.00">Window</text>
</a>
</g>
</g>
<!-- Node6&#45;&gt;Node7 -->
<g id="edge5" class="edge"><title>Node6&#45;&gt;Node7</title>
<path fill="none" stroke="midnightblue" d="M279.128,-49.766C289.153,-51.0191 299.367,-52.2959 309.358,-53.5447"/>
<polygon fill="midnightblue" stroke="midnightblue" points="279.539,-46.2902 269.182,-48.5227 278.671,-53.2362 279.539,-46.2902"/>
</g>
<!-- Node8 -->
<g id="node8" class="node"><title>Node8</title>
<g id="a_node8"><a xlink:href="dd/d14/classview_1_1windows_1_1_previous_command_window.html" target="_top" xlink:title="view.windows.PreviousCommand\lWindow">
<polygon fill="white" stroke="black" points="308,-0 308,-30 480,-30 480,-0 308,-0"/>
<text text-anchor="start" x="316" y="-18" font-family="Helvetica,sans-Serif" font-size="10.00">view.windows.PreviousCommand</text>
<text text-anchor="middle" x="394" y="-7" font-family="Helvetica,sans-Serif" font-size="10.00">Window</text>
</a>
</g>
</g>
<!-- Node6&#45;&gt;Node8 -->
<g id="edge6" class="edge"><title>Node6&#45;&gt;Node8</title>
<path fill="none" stroke="midnightblue" d="M280.243,-28.5308C289.349,-27.4381 298.599,-26.3281 307.683,-25.238"/>
<polygon fill="midnightblue" stroke="midnightblue" points="279.551,-25.0887 270.039,-29.7553 280.385,-32.0388 279.551,-25.0887"/>
</g>
<!-- Node10 -->
<g id="node10" class="node"><title>Node10</title>
<polygon fill="white" stroke="#bfbfbf" points="8,-105.5 8,-124.5 68,-124.5 68,-105.5 8,-105.5"/>
<text text-anchor="middle" x="38" y="-112.5" font-family="Helvetica,sans-Serif" font-size="10.00">Observer</text>
</g>
<!-- Node10&#45;&gt;Node2 -->
<g id="edge8" class="edge"><title>Node10&#45;&gt;Node2</title>
<path fill="none" stroke="midnightblue" d="M77.8809,-125.263C88.8991,-128.132 100.912,-131.224 112,-134 125.958,-137.495 141.334,-141.221 154.783,-144.439"/>
<polygon fill="midnightblue" stroke="midnightblue" points="78.6568,-121.848 68.0968,-122.706 76.8867,-128.621 78.6568,-121.848"/>
</g>
<!-- Node10&#45;&gt;Node5 -->
<g id="edge9" class="edge"><title>Node10&#45;&gt;Node5</title>
<path fill="none" stroke="midnightblue" d="M77.8809,-104.737C88.8991,-101.868 100.912,-98.7761 112,-96 124.589,-92.8481 138.333,-89.5077 150.775,-86.5215"/>
<polygon fill="midnightblue" stroke="midnightblue" points="76.8867,-101.379 68.0968,-107.294 78.6568,-108.152 76.8867,-101.379"/>
</g>
<!-- Node10&#45;&gt;Node6 -->
<g id="edge10" class="edge"><title>Node10&#45;&gt;Node6</title>
<path fill="none" stroke="midnightblue" d="M69.5935,-100.358C71.8172,-98.973 73.978,-97.5162 76,-96 94.6128,-82.043 91.8596,-69.6448 112,-58 118.717,-54.1166 126.194,-51.0248 133.794,-48.5638"/>
<polygon fill="midnightblue" stroke="midnightblue" points="67.8282,-97.3358 60.8649,-105.321 71.288,-103.421 67.8282,-97.3358"/>
</g>
<!-- Node10&#45;&gt;Node9 -->
<g id="edge11" class="edge"><title>Node10&#45;&gt;Node9</title>
<path fill="none" stroke="midnightblue" d="M78.5609,-115C88.8488,-115 100.304,-115 111.856,-115"/>
<polygon fill="midnightblue" stroke="midnightblue" points="78.3072,-111.5 68.3071,-115 78.3071,-118.5 78.3072,-111.5"/>
</g>
</g>
</svg>
