<?xml version="1.0" encoding="UTF-8" standalone="no"?>
<!DOCTYPE svg PUBLIC "-//W3C//DTD SVG 1.1//EN"
 "http://www.w3.org/Graphics/SVG/1.1/DTD/svg11.dtd">
<!-- Generated by graphviz version 2.36.0 (20140111.2315)
 -->
<!-- Title: Graphical Class Hierarchy Pages: 1 -->
<svg width="254pt" height="136pt"
 viewBox="0.00 0.00 254.00 136.00" xmlns="http://www.w3.org/2000/svg" xmlns:xlink="http://www.w3.org/1999/xlink">
<g id="graph0" class="graph" transform="scale(1 1) rotate(0) translate(4 132)">
<title>Graphical Class Hierarchy</title>
<polygon fill="white" stroke="none" points="-4,4 -4,-132 250,-132 250,4 -4,4"/>
<!-- Node1 -->
<g id="node1" class="node"><title>Node1</title>
<polygon fill="white" stroke="#bfbfbf" points="0.5,-54.5 0.5,-73.5 63.5,-73.5 63.5,-54.5 0.5,-54.5"/>
<text text-anchor="middle" x="32" y="-61.5" font-family="Helvetica,sans-Serif" font-size="10.00">Exception</text>
</g>
<!-- Node2 -->
<g id="node2" class="node"><title>Node2</title>
<g id="a_node2"><a xlink:href="de/d30/classparser_1_1nodes_1_1exceptions_1_1_class_definition_exception.html" target="_top" xlink:title="parser.nodes.exceptions.\lClassDefinitionException">
<polygon fill="white" stroke="black" points="104.5,-98 104.5,-128 241.5,-128 241.5,-98 104.5,-98"/>
<text text-anchor="start" x="112.5" y="-116" font-family="Helvetica,sans-Serif" font-size="10.00">parser.nodes.exceptions.</text>
<text text-anchor="middle" x="173" y="-105" font-family="Helvetica,sans-Serif" font-size="10.00">ClassDefinitionException</text>
</a>
</g>
</g>
<!-- Node1&#45;&gt;Node2 -->
<g id="edge1" class="edge"><title>Node1&#45;&gt;Node2</title>
<path fill="none" stroke="midnightblue" d="M69.0525,-76.9873C79.0667,-80.5749 89.95,-84.4553 100,-88 109.234,-91.257 119.146,-94.7199 128.572,-97.9976"/>
<polygon fill="midnightblue" stroke="midnightblue" points="69.9854,-73.6036 59.3909,-73.5206 67.6213,-80.1923 69.9854,-73.6036"/>
</g>
<!-- Node3 -->
<g id="node3" class="node"><title>Node3</title>
<g id="a_node3"><a xlink:href="da/d39/classparser_1_1nodes_1_1exceptions_1_1_invalid_arguments_exception.html" target="_top" xlink:title="parser.nodes.exceptions.\lInvalidArgumentsException">
<polygon fill="white" stroke="black" points="100,-49 100,-79 246,-79 246,-49 100,-49"/>
<text text-anchor="start" x="108" y="-67" font-family="Helvetica,sans-Serif" font-size="10.00">parser.nodes.exceptions.</text>
<text text-anchor="middle" x="173" y="-56" font-family="Helvetica,sans-Serif" font-size="10.00">InvalidArgumentsException</text>
</a>
</g>
</g>
<!-- Node1&#45;&gt;Node3 -->
<g id="edge2" class="edge"><title>Node1&#45;&gt;Node3</title>
<path fill="none" stroke="midnightblue" d="M73.6351,-64C81.953,-64 90.9416,-64 99.9871,-64"/>
<polygon fill="midnightblue" stroke="midnightblue" points="73.5042,-60.5001 63.5041,-64 73.5041,-67.5001 73.5042,-60.5001"/>
</g>
<!-- Node4 -->
<g id="node4" class="node"><title>Node4</title>
<g id="a_node4"><a xlink:href="d4/d32/classparser_1_1nodes_1_1exceptions_1_1_invalid_semantics_exception.html" target="_top" xlink:title="parser.nodes.exceptions.\lInvalidSemanticsException">
<polygon fill="white" stroke="black" points="101,-0 101,-30 245,-30 245,-0 101,-0"/>
<text text-anchor="start" x="109" y="-18" font-family="Helvetica,sans-Serif" font-size="10.00">parser.nodes.exceptions.</text>
<text text-anchor="middle" x="173" y="-7" font-family="Helvetica,sans-Serif" font-size="10.00">InvalidSemanticsException</text>
</a>
</g>
</g>
<!-- Node1&#45;&gt;Node4 -->
<g id="edge3" class="edge"><title>Node1&#45;&gt;Node4</title>
<path fill="none" stroke="midnightblue" d="M69.0525,-51.0127C79.0667,-47.4251 89.95,-43.5447 100,-40 109.234,-36.743 119.146,-33.2801 128.572,-30.0024"/>
<polygon fill="midnightblue" stroke="midnightblue" points="67.6213,-47.8077 59.3909,-54.4794 69.9854,-54.3964 67.6213,-47.8077"/>
</g>
</g>
</svg>
