<?xml version="1.0" encoding="UTF-8" standalone="no"?>
<!DOCTYPE svg PUBLIC "-//W3C//DTD SVG 1.1//EN"
 "http://www.w3.org/Graphics/SVG/1.1/DTD/svg11.dtd">
<!-- Generated by graphviz version 2.36.0 (20140111.2315)
 -->
<!-- Title: Graphical Class Hierarchy Pages: 1 -->
<svg width="284pt" height="87pt"
 viewBox="0.00 0.00 284.00 87.00" xmlns="http://www.w3.org/2000/svg" xmlns:xlink="http://www.w3.org/1999/xlink">
<g id="graph0" class="graph" transform="scale(1 1) rotate(0) translate(4 83)">
<title>Graphical Class Hierarchy</title>
<polygon fill="white" stroke="none" points="-4,4 -4,-83 280,-83 280,4 -4,4"/>
<!-- Node1 -->
<g id="node1" class="node"><title>Node1</title>
<polygon fill="white" stroke="#bfbfbf" points="0,-29.5 0,-48.5 102,-48.5 102,-29.5 0,-29.5"/>
<text text-anchor="middle" x="51" y="-36.5" font-family="Helvetica,sans-Serif" font-size="10.00">RuntimeException</text>
</g>
<!-- Node2 -->
<g id="node2" class="node"><title>Node2</title>
<g id="a_node2"><a xlink:href="d0/d4f/classparser_1_1exceptions_1_1_invalid_lexicon_exception.html" target="_top" xlink:title="parser.exceptions.Invalid\lLexiconException">
<polygon fill="white" stroke="black" points="140,-49 140,-79 274,-79 274,-49 140,-49"/>
<text text-anchor="start" x="148" y="-67" font-family="Helvetica,sans-Serif" font-size="10.00">parser.exceptions.Invalid</text>
<text text-anchor="middle" x="207" y="-56" font-family="Helvetica,sans-Serif" font-size="10.00">LexiconException</text>
</a>
</g>
</g>
<!-- Node1&#45;&gt;Node2 -->
<g id="edge1" class="edge"><title>Node1&#45;&gt;Node2</title>
<path fill="none" stroke="midnightblue" d="M112.402,-48.8054C121.381,-50.2632 130.677,-51.7722 139.768,-53.2481"/>
<polygon fill="midnightblue" stroke="midnightblue" points="112.857,-45.3336 102.425,-47.1859 111.735,-52.2432 112.857,-45.3336"/>
</g>
<!-- Node3 -->
<g id="node3" class="node"><title>Node3</title>
<g id="a_node3"><a xlink:href="da/d70/classparser_1_1nodes_1_1exceptions_1_1_node_definition_exception.html" target="_top" xlink:title="parser.nodes.exceptions.\lNodeDefinitionException">
<polygon fill="white" stroke="black" points="138.5,-0 138.5,-30 275.5,-30 275.5,-0 138.5,-0"/>
<text text-anchor="start" x="146.5" y="-18" font-family="Helvetica,sans-Serif" font-size="10.00">parser.nodes.exceptions.</text>
<text text-anchor="middle" x="207" y="-7" font-family="Helvetica,sans-Serif" font-size="10.00">NodeDefinitionException</text>
</a>
</g>
</g>
<!-- Node1&#45;&gt;Node3 -->
<g id="edge2" class="edge"><title>Node1&#45;&gt;Node3</title>
<path fill="none" stroke="midnightblue" d="M112.308,-29.6014C120.862,-28.2682 129.705,-26.8901 138.387,-25.5371"/>
<polygon fill="midnightblue" stroke="midnightblue" points="111.767,-26.1433 102.425,-31.1415 112.845,-33.0598 111.767,-26.1433"/>
</g>
</g>
</svg>
