<?xml version="1.0" encoding="UTF-8" standalone="no"?>
<!DOCTYPE svg PUBLIC "-//W3C//DTD SVG 1.1//EN"
 "http://www.w3.org/Graphics/SVG/1.1/DTD/svg11.dtd">
<!-- Generated by graphviz version 2.36.0 (20140111.2315)
 -->
<!-- Title: Graphical Class Hierarchy Pages: 1 -->
<svg width="394pt" height="66pt"
 viewBox="0.00 0.00 394.00 66.00" xmlns="http://www.w3.org/2000/svg" xmlns:xlink="http://www.w3.org/1999/xlink">
<g id="graph0" class="graph" transform="scale(1 1) rotate(0) translate(4 62)">
<title>Graphical Class Hierarchy</title>
<polygon fill="white" stroke="none" points="-4,4 -4,-62 390,-62 390,4 -4,4"/>
<!-- Node1 -->
<g id="node1" class="node"><title>Node1</title>
<polygon fill="white" stroke="#bfbfbf" points="0,-19.5 0,-38.5 44,-38.5 44,-19.5 0,-19.5"/>
<text text-anchor="middle" x="22" y="-26.5" font-family="Helvetica,sans-Serif" font-size="10.00">JLabel</text>
</g>
<!-- Node2 -->
<g id="node2" class="node"><title>Node2</title>
<g id="a_node2"><a xlink:href="d5/da8/classview_1_1labels_1_1_logo_label.html" target="_top" xlink:title="view.labels.LogoLabel">
<polygon fill="white" stroke="black" points="80.5,-19.5 80.5,-38.5 199.5,-38.5 199.5,-19.5 80.5,-19.5"/>
<text text-anchor="middle" x="140" y="-26.5" font-family="Helvetica,sans-Serif" font-size="10.00">view.labels.LogoLabel</text>
</a>
</g>
</g>
<!-- Node1&#45;&gt;Node2 -->
<g id="edge1" class="edge"><title>Node1&#45;&gt;Node2</title>
<path fill="none" stroke="midnightblue" d="M54.1076,-29C62.2454,-29 71.2903,-29 80.3562,-29"/>
<polygon fill="midnightblue" stroke="midnightblue" points="54.0068,-25.5001 44.0067,-29 54.0067,-32.5001 54.0068,-25.5001"/>
</g>
<!-- Node3 -->
<g id="node3" class="node"><title>Node3</title>
<g id="a_node3"><a xlink:href="d2/de9/classview_1_1labels_1_1_information_label.html" target="_top" xlink:title="view.labels.InformationLabel">
<polygon fill="white" stroke="black" points="236,-38.5 236,-57.5 386,-57.5 386,-38.5 236,-38.5"/>
<text text-anchor="middle" x="311" y="-45.5" font-family="Helvetica,sans-Serif" font-size="10.00">view.labels.InformationLabel</text>
</a>
</g>
</g>
<!-- Node2&#45;&gt;Node3 -->
<g id="edge2" class="edge"><title>Node2&#45;&gt;Node3</title>
<path fill="none" stroke="midnightblue" d="M209.679,-36.7213C218.346,-37.6957 227.243,-38.696 235.988,-39.6792"/>
<polygon fill="midnightblue" stroke="midnightblue" points="209.962,-33.2312 199.634,-35.592 209.18,-40.1874 209.962,-33.2312"/>
</g>
<!-- Node4 -->
<g id="node4" class="node"><title>Node4</title>
<g id="a_node4"><a xlink:href="da/d16/classview_1_1labels_1_1_title_label.html" target="_top" xlink:title="view.labels.TitleLabel">
<polygon fill="white" stroke="black" points="253.5,-0.5 253.5,-19.5 368.5,-19.5 368.5,-0.5 253.5,-0.5"/>
<text text-anchor="middle" x="311" y="-7.5" font-family="Helvetica,sans-Serif" font-size="10.00">view.labels.TitleLabel</text>
</a>
</g>
</g>
<!-- Node2&#45;&gt;Node4 -->
<g id="edge3" class="edge"><title>Node2&#45;&gt;Node4</title>
<path fill="none" stroke="midnightblue" d="M209.597,-21.288C224.171,-19.6494 239.4,-17.9373 253.464,-16.3561"/>
<polygon fill="midnightblue" stroke="midnightblue" points="209.18,-17.8126 199.634,-22.408 209.962,-24.7688 209.18,-17.8126"/>
</g>
</g>
</svg>
