<?xml version="1.0" encoding="UTF-8" standalone="no"?>
<!DOCTYPE svg PUBLIC "-//W3C//DTD SVG 1.1//EN"
 "http://www.w3.org/Graphics/SVG/1.1/DTD/svg11.dtd">
<!-- Generated by graphviz version 2.36.0 (20140111.2315)
 -->
<!-- Title: Graphical Class Hierarchy Pages: 1 -->
<svg width="536pt" height="133pt"
 viewBox="0.00 0.00 536.00 133.00" xmlns="http://www.w3.org/2000/svg" xmlns:xlink="http://www.w3.org/1999/xlink">
<g id="graph0" class="graph" transform="scale(1 1) rotate(0) translate(4 129)">
<title>Graphical Class Hierarchy</title>
<polygon fill="white" stroke="none" points="-4,4 -4,-129 532,-129 532,4 -4,4"/>
<!-- Node1 -->
<g id="node1" class="node"><title>Node1</title>
<polygon fill="white" stroke="#bfbfbf" points="39.5,-67.5 39.5,-86.5 88.5,-86.5 88.5,-67.5 39.5,-67.5"/>
<text text-anchor="middle" x="64" y="-74.5" font-family="Helvetica,sans-Serif" font-size="10.00">JFrame</text>
</g>
<!-- Node2 -->
<g id="node2" class="node"><title>Node2</title>
<g id="a_node2"><a xlink:href="d9/dc7/classview_1_1_window.html" target="_top" xlink:title="view.Window">
<polygon fill="white" stroke="black" points="205,-105.5 205,-124.5 279,-124.5 279,-105.5 205,-105.5"/>
<text text-anchor="middle" x="242" y="-112.5" font-family="Helvetica,sans-Serif" font-size="10.00">view.Window</text>
</a>
</g>
</g>
<!-- Node1&#45;&gt;Node2 -->
<g id="edge1" class="edge"><title>Node1&#45;&gt;Node2</title>
<path fill="none" stroke="midnightblue" d="M98.8551,-84.3096C129.253,-90.8728 173.75,-100.48 204.836,-107.192"/>
<polygon fill="midnightblue" stroke="midnightblue" points="99.2496,-80.8142 88.7361,-82.1248 97.7722,-87.6566 99.2496,-80.8142"/>
</g>
<!-- Node3 -->
<g id="node3" class="node"><title>Node3</title>
<g id="a_node3"><a xlink:href="dd/da3/classview_1_1windows_1_1_help_window.html" target="_top" xlink:title="view.windows.HelpWindow">
<polygon fill="white" stroke="black" points="173,-67.5 173,-86.5 311,-86.5 311,-67.5 173,-67.5"/>
<text text-anchor="middle" x="242" y="-74.5" font-family="Helvetica,sans-Serif" font-size="10.00">view.windows.HelpWindow</text>
</a>
</g>
</g>
<!-- Node1&#45;&gt;Node3 -->
<g id="edge2" class="edge"><title>Node1&#45;&gt;Node3</title>
<path fill="none" stroke="midnightblue" d="M98.76,-77C119.765,-77 147.53,-77 172.95,-77"/>
<polygon fill="midnightblue" stroke="midnightblue" points="98.7362,-73.5001 88.7361,-77 98.7361,-80.5001 98.7362,-73.5001"/>
</g>
<!-- Node4 -->
<g id="node4" class="node"><title>Node4</title>
<g id="a_node4"><a xlink:href="de/d6c/classview_1_1windows_1_1_settings_window.html" target="_top" xlink:title="view.windows.SettingsWindow">
<polygon fill="white" stroke="black" points="164,-29.5 164,-48.5 320,-48.5 320,-29.5 164,-29.5"/>
<text text-anchor="middle" x="242" y="-36.5" font-family="Helvetica,sans-Serif" font-size="10.00">view.windows.SettingsWindow</text>
</a>
</g>
</g>
<!-- Node1&#45;&gt;Node4 -->
<g id="edge3" class="edge"><title>Node1&#45;&gt;Node4</title>
<path fill="none" stroke="midnightblue" d="M98.78,-69.7066C126.617,-63.6964 166.314,-55.1253 196.698,-48.5652"/>
<polygon fill="midnightblue" stroke="midnightblue" points="97.7722,-66.3434 88.7361,-71.8752 99.2496,-73.1858 97.7722,-66.3434"/>
</g>
<!-- Node5 -->
<g id="node5" class="node"><title>Node5</title>
<g id="a_node5"><a xlink:href="d5/d1a/classview_1_1windows_1_1_graphics_settings_window.html" target="_top" xlink:title="view.windows.GraphicsSettings\lWindow">
<polygon fill="white" stroke="black" points="360.5,-49 360.5,-79 523.5,-79 523.5,-49 360.5,-49"/>
<text text-anchor="start" x="368.5" y="-67" font-family="Helvetica,sans-Serif" font-size="10.00">view.windows.GraphicsSettings</text>
<text text-anchor="middle" x="442" y="-56" font-family="Helvetica,sans-Serif" font-size="10.00">Window</text>
</a>
</g>
</g>
<!-- Node4&#45;&gt;Node5 -->
<g id="edge4" class="edge"><title>Node4&#45;&gt;Node5</title>
<path fill="none" stroke="midnightblue" d="M328.442,-49.7881C338.977,-51.1183 349.722,-52.475 360.186,-53.7962"/>
<polygon fill="midnightblue" stroke="midnightblue" points="328.78,-46.3031 318.42,-48.5227 327.903,-53.2479 328.78,-46.3031"/>
</g>
<!-- Node6 -->
<g id="node6" class="node"><title>Node6</title>
<g id="a_node6"><a xlink:href="d1/dcf/classview_1_1windows_1_1_workspace_settings_window.html" target="_top" xlink:title="view.windows.WorkspaceSettings\lWindow">
<polygon fill="white" stroke="black" points="356,-0 356,-30 528,-30 528,-0 356,-0"/>
<text text-anchor="start" x="364" y="-18" font-family="Helvetica,sans-Serif" font-size="10.00">view.windows.WorkspaceSettings</text>
<text text-anchor="middle" x="442" y="-7" font-family="Helvetica,sans-Serif" font-size="10.00">Window</text>
</a>
</g>
</g>
<!-- Node4&#45;&gt;Node6 -->
<g id="edge5" class="edge"><title>Node4&#45;&gt;Node6</title>
<path fill="none" stroke="midnightblue" d="M330.1,-28.4424C338.663,-27.4044 347.347,-26.3519 355.89,-25.3164"/>
<polygon fill="midnightblue" stroke="midnightblue" points="329.625,-24.9743 320.119,-29.6523 330.467,-31.9234 329.625,-24.9743"/>
</g>
<!-- Node7 -->
<g id="node7" class="node"><title>Node7</title>
<g id="a_node7"><a xlink:href="dc/dbd/interfaceview_1_1_workspace_handler.html" target="_top" xlink:title="view.WorkspaceHandler">
<polygon fill="white" stroke="black" points="0,-105.5 0,-124.5 128,-124.5 128,-105.5 0,-105.5"/>
<text text-anchor="middle" x="64" y="-112.5" font-family="Helvetica,sans-Serif" font-size="10.00">view.WorkspaceHandler</text>
</a>
</g>
</g>
<!-- Node7&#45;&gt;Node2 -->
<g id="edge6" class="edge"><title>Node7&#45;&gt;Node2</title>
<path fill="none" stroke="midnightblue" d="M138.171,-115C161.241,-115 185.711,-115 204.991,-115"/>
<polygon fill="midnightblue" stroke="midnightblue" points="138.043,-111.5 128.043,-115 138.043,-118.5 138.043,-111.5"/>
</g>
</g>
</svg>
