<?xml version="1.0" encoding="UTF-8" standalone="no"?>
<!DOCTYPE svg PUBLIC "-//W3C//DTD SVG 1.1//EN"
 "http://www.w3.org/Graphics/SVG/1.1/DTD/svg11.dtd">
<!-- Generated by graphviz version 2.36.0 (20140111.2315)
 -->
<!-- Title: Graphical Class Hierarchy Pages: 1 -->
<svg width="276pt" height="66pt"
 viewBox="0.00 0.00 276.00 66.00" xmlns="http://www.w3.org/2000/svg" xmlns:xlink="http://www.w3.org/1999/xlink">
<g id="graph0" class="graph" transform="scale(1 1) rotate(0) translate(4 62)">
<title>Graphical Class Hierarchy</title>
<polygon fill="white" stroke="none" points="-4,4 -4,-62 272,-62 272,4 -4,4"/>
<!-- Node1 -->
<g id="node1" class="node"><title>Node1</title>
<polygon fill="white" stroke="#bfbfbf" points="0.5,-38.5 0.5,-57.5 83.5,-57.5 83.5,-38.5 0.5,-38.5"/>
<text text-anchor="middle" x="42" y="-45.5" font-family="Helvetica,sans-Serif" font-size="10.00">FocusListener</text>
</g>
<!-- Node2 -->
<g id="node2" class="node"><title>Node2</title>
<g id="a_node2"><a xlink:href="db/d1b/classview_1_1components_1_1_input_field.html" target="_top" xlink:title="view.components.InputField">
<polygon fill="white" stroke="black" points="120.5,-38.5 120.5,-57.5 267.5,-57.5 267.5,-38.5 120.5,-38.5"/>
<text text-anchor="middle" x="194" y="-45.5" font-family="Helvetica,sans-Serif" font-size="10.00">view.components.InputField</text>
</a>
</g>
</g>
<!-- Node1&#45;&gt;Node2 -->
<g id="edge1" class="edge"><title>Node1&#45;&gt;Node2</title>
<path fill="none" stroke="midnightblue" d="M93.7515,-48C102.3,-48 111.32,-48 120.296,-48"/>
<polygon fill="midnightblue" stroke="midnightblue" points="93.5922,-44.5001 83.5922,-48 93.5921,-51.5001 93.5922,-44.5001"/>
</g>
<!-- Node3 -->
<g id="node3" class="node"><title>Node3</title>
<g id="a_node3"><a xlink:href="d0/d80/classview_1_1_input_field.html" target="_top" xlink:title="view.InputField">
<polygon fill="white" stroke="black" points="152,-0.5 152,-19.5 236,-19.5 236,-0.5 152,-0.5"/>
<text text-anchor="middle" x="194" y="-7.5" font-family="Helvetica,sans-Serif" font-size="10.00">view.InputField</text>
</a>
</g>
</g>
<!-- Node1&#45;&gt;Node3 -->
<g id="edge2" class="edge"><title>Node1&#45;&gt;Node3</title>
<path fill="none" stroke="midnightblue" d="M90.811,-35.8879C111.702,-30.5956 135.847,-24.4787 155.421,-19.5201"/>
<polygon fill="midnightblue" stroke="midnightblue" points="89.6856,-32.5623 80.8513,-38.411 91.4047,-39.348 89.6856,-32.5623"/>
</g>
<!-- Node4 -->
<g id="node4" class="node"><title>Node4</title>
<polygon fill="white" stroke="#bfbfbf" points="12.5,-0.5 12.5,-19.5 71.5,-19.5 71.5,-0.5 12.5,-0.5"/>
<text text-anchor="middle" x="42" y="-7.5" font-family="Helvetica,sans-Serif" font-size="10.00">JTextField</text>
</g>
<!-- Node4&#45;&gt;Node2 -->
<g id="edge3" class="edge"><title>Node4&#45;&gt;Node2</title>
<path fill="none" stroke="midnightblue" d="M81.5512,-19.7663C104.279,-25.524 132.907,-32.7765 155.457,-38.4891"/>
<polygon fill="midnightblue" stroke="midnightblue" points="82.1202,-16.3 71.5669,-17.237 80.4012,-23.0856 82.1202,-16.3"/>
</g>
<!-- Node4&#45;&gt;Node3 -->
<g id="edge4" class="edge"><title>Node4&#45;&gt;Node3</title>
<path fill="none" stroke="midnightblue" d="M81.6522,-10C103.146,-10 129.893,-10 151.785,-10"/>
<polygon fill="midnightblue" stroke="midnightblue" points="81.567,-6.5001 71.5669,-10 81.5669,-13.5001 81.567,-6.5001"/>
</g>
</g>
</svg>
