<?xml version="1.0" encoding="UTF-8" standalone="no"?>
<!DOCTYPE svg PUBLIC "-//W3C//DTD SVG 1.1//EN"
 "http://www.w3.org/Graphics/SVG/1.1/DTD/svg11.dtd">
<!-- Generated by graphviz version 2.36.0 (20140111.2315)
 -->
<!-- Title: Graphical Class Hierarchy Pages: 1 -->
<svg width="292pt" height="180pt"
 viewBox="0.00 0.00 292.00 180.00" xmlns="http://www.w3.org/2000/svg" xmlns:xlink="http://www.w3.org/1999/xlink">
<g id="graph0" class="graph" transform="scale(1 1) rotate(0) translate(4 176)">
<title>Graphical Class Hierarchy</title>
<polygon fill="white" stroke="none" points="-4,4 -4,-176 288,-176 288,4 -4,4"/>
<!-- Node1 -->
<g id="node1" class="node"><title>Node1</title>
<polygon fill="white" stroke="#bfbfbf" points="29.5,-76.5 29.5,-95.5 100.5,-95.5 100.5,-76.5 29.5,-76.5"/>
<text text-anchor="middle" x="65" y="-83.5" font-family="Helvetica,sans-Serif" font-size="10.00">Observable</text>
</g>
<!-- Node2 -->
<g id="node2" class="node"><title>Node2</title>
<g id="a_node2"><a xlink:href="de/d84/classcontroller_1_1_workspace.html" target="_top" xlink:title="controller.Workspace">
<polygon fill="white" stroke="black" points="167.5,-104.5 167.5,-123.5 282.5,-123.5 282.5,-104.5 167.5,-104.5"/>
<text text-anchor="middle" x="225" y="-111.5" font-family="Helvetica,sans-Serif" font-size="10.00">controller.Workspace</text>
</a>
</g>
</g>
<!-- Node1&#45;&gt;Node2 -->
<g id="edge1" class="edge"><title>Node1&#45;&gt;Node2</title>
<path fill="none" stroke="midnightblue" d="M110.603,-93.9043C129.116,-97.1851 150.761,-101.021 170.15,-104.457"/>
<polygon fill="midnightblue" stroke="midnightblue" points="111.131,-90.4435 100.674,-92.1447 109.91,-97.3361 111.131,-90.4435"/>
</g>
<!-- Node3 -->
<g id="node3" class="node"><title>Node3</title>
<g id="a_node3"><a xlink:href="d8/dff/classmodel_1_1_turtle_manager.html" target="_top" xlink:title="model.TurtleManager">
<polygon fill="white" stroke="black" points="166.5,-47.5 166.5,-66.5 283.5,-66.5 283.5,-47.5 166.5,-47.5"/>
<text text-anchor="middle" x="225" y="-54.5" font-family="Helvetica,sans-Serif" font-size="10.00">model.TurtleManager</text>
</a>
</g>
</g>
<!-- Node1&#45;&gt;Node3 -->
<g id="edge2" class="edge"><title>Node1&#45;&gt;Node3</title>
<path fill="none" stroke="midnightblue" d="M110.614,-77.8113C129.713,-74.3059 152.143,-70.189 171.99,-66.5462"/>
<polygon fill="midnightblue" stroke="midnightblue" points="109.878,-74.388 100.674,-79.6358 111.141,-81.273 109.878,-74.388"/>
</g>
<!-- Node4 -->
<g id="node4" class="node"><title>Node4</title>
<g id="a_node4"><a xlink:href="dc/d3c/interfacecontroller_1_1support_1_1_i_error.html" target="_top" xlink:title="controller.support.IError">
<polygon fill="white" stroke="black" points="0.5,-114.5 0.5,-133.5 129.5,-133.5 129.5,-114.5 0.5,-114.5"/>
<text text-anchor="middle" x="65" y="-121.5" font-family="Helvetica,sans-Serif" font-size="10.00">controller.support.IError</text>
</a>
</g>
</g>
<!-- Node4&#45;&gt;Node2 -->
<g id="edge3" class="edge"><title>Node4&#45;&gt;Node2</title>
<path fill="none" stroke="midnightblue" d="M139.791,-119.33C149.047,-118.744 158.399,-118.152 167.336,-117.586"/>
<polygon fill="midnightblue" stroke="midnightblue" points="139.568,-115.837 129.809,-119.961 140.01,-122.823 139.568,-115.837"/>
</g>
<!-- Node5 -->
<g id="node5" class="node"><title>Node5</title>
<g id="a_node5"><a xlink:href="dd/da7/interfaceparser_1_1_i_parser_provider.html" target="_top" xlink:title="parser.IParserProvider">
<polygon fill="white" stroke="black" points="4.5,-152.5 4.5,-171.5 125.5,-171.5 125.5,-152.5 4.5,-152.5"/>
<text text-anchor="middle" x="65" y="-159.5" font-family="Helvetica,sans-Serif" font-size="10.00">parser.IParserProvider</text>
</a>
</g>
</g>
<!-- Node5&#45;&gt;Node2 -->
<g id="edge4" class="edge"><title>Node5&#45;&gt;Node2</title>
<path fill="none" stroke="midnightblue" d="M108.041,-149.589C115.365,-147.407 122.907,-145.147 130,-143 151.086,-136.617 174.79,-129.304 193.119,-123.618"/>
<polygon fill="midnightblue" stroke="midnightblue" points="106.839,-146.295 98.2502,-152.499 108.833,-153.005 106.839,-146.295"/>
</g>
<!-- Node6 -->
<g id="node6" class="node"><title>Node6</title>
<g id="a_node6"><a xlink:href="df/dca/interfacemodel_1_1_i_state.html" target="_top" xlink:title="model.IState">
<polygon fill="white" stroke="black" points="26,-0.5 26,-19.5 104,-19.5 104,-0.5 26,-0.5"/>
<text text-anchor="middle" x="65" y="-7.5" font-family="Helvetica,sans-Serif" font-size="10.00">model.IState</text>
</a>
</g>
</g>
<!-- Node7 -->
<g id="node7" class="node"><title>Node7</title>
<g id="a_node7"><a xlink:href="d6/d34/classmodel_1_1_turtle.html" target="_top" xlink:title="model.Turtle">
<polygon fill="white" stroke="black" points="187.5,-9.5 187.5,-28.5 262.5,-28.5 262.5,-9.5 187.5,-9.5"/>
<text text-anchor="middle" x="225" y="-16.5" font-family="Helvetica,sans-Serif" font-size="10.00">model.Turtle</text>
</a>
</g>
</g>
<!-- Node6&#45;&gt;Node7 -->
<g id="edge5" class="edge"><title>Node6&#45;&gt;Node7</title>
<path fill="none" stroke="midnightblue" d="M114.38,-12.7558C137.914,-14.0964 165.737,-15.6812 187.463,-16.9188"/>
<polygon fill="midnightblue" stroke="midnightblue" points="114.43,-9.2531 104.247,-12.1786 114.032,-16.2418 114.43,-9.2531"/>
</g>
<!-- Node8 -->
<g id="node8" class="node"><title>Node8</title>
<g id="a_node8"><a xlink:href="dc/d3c/interfacemodel_1_1_paintable.html" target="_top" xlink:title="model.Paintable">
<polygon fill="white" stroke="black" points="18.5,-38.5 18.5,-57.5 111.5,-57.5 111.5,-38.5 18.5,-38.5"/>
<text text-anchor="middle" x="65" y="-45.5" font-family="Helvetica,sans-Serif" font-size="10.00">model.Paintable</text>
</a>
</g>
</g>
<!-- Node8&#45;&gt;Node2 -->
<g id="edge6" class="edge"><title>Node8&#45;&gt;Node2</title>
<path fill="none" stroke="midnightblue" d="M111.849,-60.5472C118.009,-62.5417 124.199,-64.709 130,-67 157.831,-77.9911 188.581,-94.1886 207.089,-104.411"/>
<polygon fill="midnightblue" stroke="midnightblue" points="112.844,-57.1914 102.256,-57.5624 110.765,-63.8753 112.844,-57.1914"/>
</g>
<!-- Node8&#45;&gt;Node3 -->
<g id="edge8" class="edge"><title>Node8&#45;&gt;Node3</title>
<path fill="none" stroke="midnightblue" d="M121.945,-51.1868C136.329,-52.0061 151.829,-52.889 166.3,-53.7133"/>
<polygon fill="midnightblue" stroke="midnightblue" points="121.883,-47.6776 111.7,-50.6032 121.485,-54.6663 121.883,-47.6776"/>
</g>
<!-- Node8&#45;&gt;Node7 -->
<g id="edge7" class="edge"><title>Node8&#45;&gt;Node7</title>
<path fill="none" stroke="midnightblue" d="M121.822,-37.7542C143.597,-33.7575 167.949,-29.2878 187.417,-25.7147"/>
<polygon fill="midnightblue" stroke="midnightblue" points="120.904,-34.3641 111.7,-39.612 122.168,-41.2491 120.904,-34.3641"/>
</g>
</g>
</svg>
