<?xml version="1.0" encoding="UTF-8" standalone="no"?>
<!DOCTYPE svg PUBLIC "-//W3C//DTD SVG 1.1//EN"
 "http://www.w3.org/Graphics/SVG/1.1/DTD/svg11.dtd">
<!-- Generated by graphviz version 2.36.0 (20140111.2315)
 -->
<!-- Title: controller.Workspace Pages: 1 -->
<svg width="1586pt" height="812pt"
 viewBox="0.00 0.00 1586.00 812.00" xmlns="http://www.w3.org/2000/svg" xmlns:xlink="http://www.w3.org/1999/xlink">
<g id="graph0" class="graph" transform="scale(1 1) rotate(0) translate(4 808)">
<title>controller.Workspace</title>
<polygon fill="white" stroke="none" points="-4,4 -4,-808 1582,-808 1582,4 -4,4"/>
<!-- Node1 -->
<g id="node1" class="node"><title>Node1</title>
<polygon fill="#bfbfbf" stroke="black" points="1160.5,-548.5 1160.5,-567.5 1275.5,-567.5 1275.5,-548.5 1160.5,-548.5"/>
<text text-anchor="middle" x="1218" y="-555.5" font-family="Helvetica,sans-Serif" font-size="10.00">controller.Workspace</text>
</g>
<!-- Node7 -->
<g id="node7" class="node"><title>Node7</title>
<g id="a_node7"><a xlink:href="../../d7/d40/classcontroller_1_1_w_s_undo_manager.html" target="_top" xlink:title="controller.WSUndoManager">
<polygon fill="white" stroke="black" points="1432,-512.5 1432,-531.5 1578,-531.5 1578,-512.5 1432,-512.5"/>
<text text-anchor="middle" x="1505" y="-519.5" font-family="Helvetica,sans-Serif" font-size="10.00">controller.WSUndoManager</text>
</a>
</g>
</g>
<!-- Node1&#45;&gt;Node7 -->
<g id="edge8" class="edge"><title>Node1&#45;&gt;Node7</title>
<path fill="none" stroke="#9a32cd" stroke-dasharray="5,2" d="M1286.13,-560.128C1323.96,-560.196 1371.91,-558.389 1414,-551 1437.12,-546.941 1462.49,-538.367 1480.39,-531.59"/>
<polygon fill="#9a32cd" stroke="#9a32cd" points="1285.77,-556.626 1275.75,-560.062 1285.73,-563.626 1285.77,-556.626"/>
<text text-anchor="middle" x="1362" y="-563" font-family="Helvetica,sans-Serif" font-size="10.00"> myWorkspace</text>
</g>
<!-- Node2 -->
<g id="node2" class="node"><title>Node2</title>
<polygon fill="white" stroke="#bfbfbf" points="626.5,-703.5 626.5,-722.5 697.5,-722.5 697.5,-703.5 626.5,-703.5"/>
<text text-anchor="middle" x="662" y="-710.5" font-family="Helvetica,sans-Serif" font-size="10.00">Observable</text>
</g>
<!-- Node2&#45;&gt;Node1 -->
<g id="edge1" class="edge"><title>Node2&#45;&gt;Node1</title>
<path fill="none" stroke="midnightblue" d="M707.896,-719.231C795.824,-729.032 993.67,-739.024 1126,-654 1163.67,-629.793 1196.75,-586.763 1210.38,-567.631"/>
<polygon fill="midnightblue" stroke="midnightblue" points="708.069,-715.727 697.73,-718.043 707.256,-722.68 708.069,-715.727"/>
</g>
<!-- Node16 -->
<g id="node16" class="node"><title>Node16</title>
<g id="a_node16"><a xlink:href="../../d8/dff/classmodel_1_1_turtle_manager.html" target="_top" xlink:title="model.TurtleManager">
<polygon fill="white" stroke="black" points="882.5,-510.5 882.5,-529.5 999.5,-529.5 999.5,-510.5 882.5,-510.5"/>
<text text-anchor="middle" x="941" y="-517.5" font-family="Helvetica,sans-Serif" font-size="10.00">model.TurtleManager</text>
</a>
</g>
</g>
<!-- Node2&#45;&gt;Node16 -->
<g id="edge17" class="edge"><title>Node2&#45;&gt;Node16</title>
<path fill="none" stroke="midnightblue" d="M707.841,-711.114C755.804,-708.102 827.488,-700.404 846,-681 889.913,-634.971 821.769,-586.576 864,-539 868.966,-533.406 875.306,-529.338 882.2,-526.4"/>
<polygon fill="midnightblue" stroke="midnightblue" points="707.477,-707.629 697.697,-711.704 707.883,-714.617 707.477,-707.629"/>
</g>
<!-- Node3 -->
<g id="node3" class="node"><title>Node3</title>
<g id="a_node3"><a xlink:href="../../dc/d3c/interfacemodel_1_1_paintable.html" target="_top" xlink:title="model.Paintable">
<polygon fill="white" stroke="black" points="311.5,-378.5 311.5,-397.5 404.5,-397.5 404.5,-378.5 311.5,-378.5"/>
<text text-anchor="middle" x="358" y="-385.5" font-family="Helvetica,sans-Serif" font-size="10.00">model.Paintable</text>
</a>
</g>
</g>
<!-- Node3&#45;&gt;Node1 -->
<g id="edge2" class="edge"><title>Node3&#45;&gt;Node1</title>
<path fill="none" stroke="midnightblue" d="M414.942,-387.303C454.844,-387.113 509.755,-387.477 558,-390 763.953,-400.771 818.292,-399.53 1018,-451 1067.42,-463.736 1087.67,-456.305 1126,-490 1139.14,-501.549 1131.32,-512.947 1144,-525 1155.19,-535.638 1170.4,-543.255 1184.04,-548.47"/>
<polygon fill="midnightblue" stroke="midnightblue" points="414.856,-383.803 404.877,-387.364 414.898,-390.803 414.856,-383.803"/>
</g>
<!-- Node3&#45;&gt;Node16 -->
<g id="edge18" class="edge"><title>Node3&#45;&gt;Node16</title>
<path fill="none" stroke="midnightblue" d="M414.909,-390.515C455.013,-393.004 510.184,-397.829 558,-407 688.947,-432.115 721.87,-442.322 846,-491 854.327,-494.265 855.631,-496.845 864,-500 874.596,-503.994 886.311,-507.501 897.304,-510.416"/>
<polygon fill="midnightblue" stroke="midnightblue" points="414.982,-387.014 404.793,-389.917 414.569,-394.001 414.982,-387.014"/>
</g>
<!-- Node18 -->
<g id="node18" class="node"><title>Node18</title>
<g id="a_node18"><a xlink:href="../../d6/d34/classmodel_1_1_turtle.html" target="_top" xlink:title="model.Turtle">
<polygon fill="white" stroke="black" points="624.5,-510.5 624.5,-529.5 699.5,-529.5 699.5,-510.5 624.5,-510.5"/>
<text text-anchor="middle" x="662" y="-517.5" font-family="Helvetica,sans-Serif" font-size="10.00">model.Turtle</text>
</a>
</g>
</g>
<!-- Node3&#45;&gt;Node18 -->
<g id="edge21" class="edge"><title>Node3&#45;&gt;Node18</title>
<path fill="none" stroke="midnightblue" d="M414.734,-397.266C469.908,-406.92 547.623,-422.006 558,-432 580.827,-453.985 553.198,-478.988 576,-501 588.729,-513.287 607.577,-518.312 624.293,-520.146"/>
<polygon fill="midnightblue" stroke="midnightblue" points="415.166,-393.789 404.715,-395.529 413.97,-400.686 415.166,-393.789"/>
</g>
<!-- Node32 -->
<g id="node32" class="node"><title>Node32</title>
<g id="a_node32"><a xlink:href="../../d8/ddd/classview_1_1_canvas.html" target="_top" xlink:title="view.Canvas">
<polygon fill="white" stroke="black" points="625,-216.5 625,-235.5 699,-235.5 699,-216.5 625,-216.5"/>
<text text-anchor="middle" x="662" y="-223.5" font-family="Helvetica,sans-Serif" font-size="10.00">view.Canvas</text>
</a>
</g>
</g>
<!-- Node3&#45;&gt;Node32 -->
<g id="edge41" class="edge"><title>Node3&#45;&gt;Node32</title>
<path fill="none" stroke="#9a32cd" stroke-dasharray="5,2" d="M412.474,-374.953C420.019,-371.972 427.432,-368.359 434,-364 444.242,-357.202 441.443,-349.298 452,-343 493.399,-318.301 515.167,-342.12 558,-320 599.945,-298.338 637.752,-255.137 653.387,-235.778"/>
<polygon fill="#9a32cd" stroke="#9a32cd" points="411.122,-371.72 402.899,-378.401 413.494,-378.306 411.122,-371.72"/>
<text text-anchor="middle" x="505" y="-346" font-family="Helvetica,sans-Serif" font-size="10.00"> myPaintingResource</text>
</g>
<!-- Node4 -->
<g id="node4" class="node"><title>Node4</title>
<g id="a_node4"><a xlink:href="../../dd/da7/interfaceparser_1_1_i_parser_provider.html" target="_top" xlink:title="parser.IParserProvider">
<polygon fill="white" stroke="black" points="880.5,-662.5 880.5,-681.5 1001.5,-681.5 1001.5,-662.5 880.5,-662.5"/>
<text text-anchor="middle" x="941" y="-669.5" font-family="Helvetica,sans-Serif" font-size="10.00">parser.IParserProvider</text>
</a>
</g>
</g>
<!-- Node4&#45;&gt;Node1 -->
<g id="edge3" class="edge"><title>Node4&#45;&gt;Node1</title>
<path fill="none" stroke="midnightblue" d="M1011.84,-660.802C1047.19,-653.503 1090.1,-642.085 1126,-625 1158.24,-609.657 1190.63,-582.266 1206.67,-567.712"/>
<polygon fill="midnightblue" stroke="midnightblue" points="1010.73,-657.455 1001.61,-662.845 1012.1,-664.32 1010.73,-657.455"/>
</g>
<!-- Node5 -->
<g id="node5" class="node"><title>Node5</title>
<g id="a_node5"><a xlink:href="../../dc/d3c/interfacecontroller_1_1support_1_1_i_error.html" target="_top" xlink:title="controller.support.IError">
<polygon fill="white" stroke="black" points="876.5,-624.5 876.5,-643.5 1005.5,-643.5 1005.5,-624.5 876.5,-624.5"/>
<text text-anchor="middle" x="941" y="-631.5" font-family="Helvetica,sans-Serif" font-size="10.00">controller.support.IError</text>
</a>
</g>
</g>
<!-- Node5&#45;&gt;Node1 -->
<g id="edge4" class="edge"><title>Node5&#45;&gt;Node1</title>
<path fill="none" stroke="midnightblue" d="M1015.44,-624.731C1049.55,-619.338 1090.35,-611.323 1126,-600 1152.7,-591.519 1181.81,-577.094 1199.74,-567.555"/>
<polygon fill="midnightblue" stroke="midnightblue" points="1014.9,-621.273 1005.55,-626.252 1015.97,-628.192 1014.9,-621.273"/>
</g>
<!-- Node6 -->
<g id="node6" class="node"><title>Node6</title>
<polygon fill="white" stroke="#bfbfbf" points="894.5,-586.5 894.5,-605.5 987.5,-605.5 987.5,-586.5 894.5,-586.5"/>
<text text-anchor="middle" x="941" y="-593.5" font-family="Helvetica,sans-Serif" font-size="10.00">ResourceBundle</text>
</g>
<!-- Node6&#45;&gt;Node1 -->
<g id="edge5" class="edge"><title>Node6&#45;&gt;Node1</title>
<path fill="none" stroke="#9a32cd" stroke-dasharray="5,2" d="M997.777,-589.601C1034.3,-585.27 1083.04,-579.223 1126,-573 1137.41,-571.347 1149.6,-569.438 1161.23,-567.546"/>
<polygon fill="#9a32cd" stroke="#9a32cd" points="997.336,-586.129 987.814,-590.776 998.156,-593.081 997.336,-586.129"/>
<text text-anchor="middle" x="1081" y="-588" font-family="Helvetica,sans-Serif" font-size="10.00"> myErrorResource</text>
</g>
<!-- Node7&#45;&gt;Node1 -->
<g id="edge6" class="edge"><title>Node7&#45;&gt;Node1</title>
<path fill="none" stroke="#9a32cd" stroke-dasharray="5,2" d="M1421.86,-527.742C1387.24,-530.648 1346.56,-534.702 1310,-540 1294.38,-542.263 1277.38,-545.432 1262.35,-548.48"/>
<polygon fill="#9a32cd" stroke="#9a32cd" points="1422.25,-531.222 1431.93,-526.914 1421.68,-524.245 1422.25,-531.222"/>
<text text-anchor="middle" x="1362" y="-543" font-family="Helvetica,sans-Serif" font-size="10.00"> myUndoManager</text>
</g>
<!-- Node8 -->
<g id="node8" class="node"><title>Node8</title>
<polygon fill="white" stroke="#bfbfbf" points="1176,-496.5 1176,-515.5 1260,-515.5 1260,-496.5 1176,-496.5"/>
<text text-anchor="middle" x="1218" y="-503.5" font-family="Helvetica,sans-Serif" font-size="10.00">UndoManager</text>
</g>
<!-- Node8&#45;&gt;Node7 -->
<g id="edge7" class="edge"><title>Node8&#45;&gt;Node7</title>
<path fill="none" stroke="midnightblue" d="M1270.28,-508.879C1315.4,-511.412 1381.57,-515.126 1431.99,-517.957"/>
<polygon fill="midnightblue" stroke="midnightblue" points="1270.32,-505.376 1260.14,-508.309 1269.93,-512.365 1270.32,-505.376"/>
</g>
<!-- Node9 -->
<g id="node9" class="node"><title>Node9</title>
<polygon fill="white" stroke="#bfbfbf" points="1144,-447 1144,-477 1292,-477 1292,-447 1144,-447"/>
<text text-anchor="start" x="1152" y="-465" font-family="Helvetica,sans-Serif" font-size="10.00">Stack&lt; List&lt; parser.nodes.</text>
<text text-anchor="middle" x="1218" y="-454" font-family="Helvetica,sans-Serif" font-size="10.00">SyntaxNode &gt; &gt;</text>
</g>
<!-- Node9&#45;&gt;Node7 -->
<g id="edge9" class="edge"><title>Node9&#45;&gt;Node7</title>
<path fill="none" stroke="#9a32cd" stroke-dasharray="5,2" d="M1302.22,-467.479C1337.13,-471.001 1377.92,-476.73 1414,-486 1439.1,-492.449 1466.57,-504.167 1484.48,-512.48"/>
<polygon fill="#9a32cd" stroke="#9a32cd" points="1302.35,-463.976 1292.06,-466.5 1301.68,-470.944 1302.35,-463.976"/>
<text text-anchor="middle" x="1362" y="-500" font-family="Helvetica,sans-Serif" font-size="10.00"> myActiveCommands</text>
<text text-anchor="middle" x="1362" y="-489" font-family="Helvetica,sans-Serif" font-size="10.00">undoneCommands</text>
</g>
<!-- Node10 -->
<g id="node10" class="node"><title>Node10</title>
<polygon fill="white" stroke="#bfbfbf" points="899,-548.5 899,-567.5 983,-567.5 983,-548.5 899,-548.5"/>
<text text-anchor="middle" x="941" y="-555.5" font-family="Helvetica,sans-Serif" font-size="10.00">List&lt; String &gt;</text>
</g>
<!-- Node10&#45;&gt;Node1 -->
<g id="edge10" class="edge"><title>Node10&#45;&gt;Node1</title>
<path fill="none" stroke="#9a32cd" stroke-dasharray="5,2" d="M993.242,-558C1040.77,-558 1111.36,-558 1160.5,-558"/>
<polygon fill="#9a32cd" stroke="#9a32cd" points="993.17,-554.5 983.17,-558 993.17,-561.5 993.17,-554.5"/>
<text text-anchor="middle" x="1081" y="-561" font-family="Helvetica,sans-Serif" font-size="10.00"> myHistory</text>
</g>
<!-- Node11 -->
<g id="node11" class="node"><title>Node11</title>
<g id="a_node11"><a xlink:href="../../db/d29/classparser_1_1_variable_manager.html" target="_top" xlink:title="parser.VariableManager">
<polygon fill="white" stroke="black" points="876,-748.5 876,-767.5 1006,-767.5 1006,-748.5 876,-748.5"/>
<text text-anchor="middle" x="941" y="-755.5" font-family="Helvetica,sans-Serif" font-size="10.00">parser.VariableManager</text>
</a>
</g>
</g>
<!-- Node11&#45;&gt;Node1 -->
<g id="edge11" class="edge"><title>Node11&#45;&gt;Node1</title>
<path fill="none" stroke="#9a32cd" stroke-dasharray="5,2" d="M1016.52,-763.158C1052.5,-762.057 1094.56,-755.119 1126,-733 1185.65,-691.026 1209.04,-597.751 1215.21,-567.601"/>
<polygon fill="#9a32cd" stroke="#9a32cd" points="1016.01,-759.665 1006.06,-763.322 1016.12,-766.664 1016.01,-759.665"/>
<text text-anchor="middle" x="1081" y="-764" font-family="Helvetica,sans-Serif" font-size="10.00"> myVariables</text>
</g>
<!-- Node12 -->
<g id="node12" class="node"><title>Node12</title>
<polygon fill="white" stroke="#bfbfbf" points="576,-745.5 576,-764.5 748,-764.5 748,-745.5 576,-745.5"/>
<text text-anchor="middle" x="662" y="-752.5" font-family="Helvetica,sans-Serif" font-size="10.00">Deque&lt; parser.VariableScope &gt;</text>
</g>
<!-- Node12&#45;&gt;Node11 -->
<g id="edge12" class="edge"><title>Node12&#45;&gt;Node11</title>
<path fill="none" stroke="#9a32cd" stroke-dasharray="5,2" d="M758.6,-756.035C797.242,-756.454 840.827,-756.926 875.588,-757.302"/>
<polygon fill="#9a32cd" stroke="#9a32cd" points="758.407,-752.533 748.369,-755.925 758.331,-759.533 758.407,-752.533"/>
<text text-anchor="middle" x="806" y="-759" font-family="Helvetica,sans-Serif" font-size="10.00"> myScopes</text>
</g>
<!-- Node13 -->
<g id="node13" class="node"><title>Node13</title>
<g id="a_node13"><a xlink:href="../../da/d34/classparser_1_1_variable_scope.html" target="_top" xlink:title="parser.VariableScope">
<polygon fill="white" stroke="black" points="603,-783.5 603,-802.5 721,-802.5 721,-783.5 603,-783.5"/>
<text text-anchor="middle" x="662" y="-790.5" font-family="Helvetica,sans-Serif" font-size="10.00">parser.VariableScope</text>
</a>
</g>
</g>
<!-- Node13&#45;&gt;Node11 -->
<g id="edge13" class="edge"><title>Node13&#45;&gt;Node11</title>
<path fill="none" stroke="#9a32cd" stroke-dasharray="5,2" d="M731.132,-784.391C775.262,-778.815 832.372,-771.599 875.718,-766.122"/>
<polygon fill="#9a32cd" stroke="#9a32cd" points="730.551,-780.937 721.068,-785.663 731.428,-787.882 730.551,-780.937"/>
<text text-anchor="middle" x="806" y="-782" font-family="Helvetica,sans-Serif" font-size="10.00"> myGlobal</text>
</g>
<!-- Node14 -->
<g id="node14" class="node"><title>Node14</title>
<polygon fill="white" stroke="#bfbfbf" points="294,-783.5 294,-802.5 422,-802.5 422,-783.5 294,-783.5"/>
<text text-anchor="middle" x="358" y="-790.5" font-family="Helvetica,sans-Serif" font-size="10.00">Map&lt; String, Integer &gt;</text>
</g>
<!-- Node14&#45;&gt;Node13 -->
<g id="edge14" class="edge"><title>Node14&#45;&gt;Node13</title>
<path fill="none" stroke="#9a32cd" stroke-dasharray="5,2" d="M432.547,-793C484.933,-793 554.372,-793 602.889,-793"/>
<polygon fill="#9a32cd" stroke="#9a32cd" points="432.309,-789.5 422.309,-793 432.309,-796.5 432.309,-789.5"/>
<text text-anchor="middle" x="505" y="-796" font-family="Helvetica,sans-Serif" font-size="10.00"> myVariables</text>
</g>
<!-- Node15 -->
<g id="node15" class="node"><title>Node15</title>
<polygon fill="white" stroke="#bfbfbf" points="864.5,-461 864.5,-491 1017.5,-491 1017.5,-461 864.5,-461"/>
<text text-anchor="start" x="872.5" y="-479" font-family="Helvetica,sans-Serif" font-size="10.00">Map&lt; String, parser.Custom</text>
<text text-anchor="middle" x="941" y="-468" font-family="Helvetica,sans-Serif" font-size="10.00">Command &gt;</text>
</g>
<!-- Node15&#45;&gt;Node1 -->
<g id="edge15" class="edge"><title>Node15&#45;&gt;Node1</title>
<path fill="none" stroke="#9a32cd" stroke-dasharray="5,2" d="M1027.71,-491.31C1059.02,-497.891 1094.48,-506.509 1126,-517 1126.9,-517.299 1169.09,-536.349 1195.7,-548.373"/>
<polygon fill="#9a32cd" stroke="#9a32cd" points="1028.2,-487.838 1017.7,-489.246 1026.79,-494.694 1028.2,-487.838"/>
<text text-anchor="middle" x="1081" y="-520" font-family="Helvetica,sans-Serif" font-size="10.00"> myCommandMap</text>
</g>
<!-- Node16&#45;&gt;Node1 -->
<g id="edge16" class="edge"><title>Node16&#45;&gt;Node1</title>
<path fill="none" stroke="#9a32cd" stroke-dasharray="5,2" d="M1009.73,-527.825C1044.52,-532.008 1087.58,-537.434 1126,-543 1137.41,-544.653 1149.6,-546.562 1161.23,-548.454"/>
<polygon fill="#9a32cd" stroke="#9a32cd" points="1010.02,-524.336 999.676,-526.624 1009.19,-531.286 1010.02,-524.336"/>
<text text-anchor="middle" x="1081" y="-546" font-family="Helvetica,sans-Serif" font-size="10.00"> myTurtleManager</text>
</g>
<!-- Node17 -->
<g id="node17" class="node"><title>Node17</title>
<polygon fill="white" stroke="#bfbfbf" points="577,-472.5 577,-491.5 747,-491.5 747,-472.5 577,-472.5"/>
<text text-anchor="middle" x="662" y="-479.5" font-family="Helvetica,sans-Serif" font-size="10.00">Map&lt; Integer, BufferedImage &gt;</text>
</g>
<!-- Node17&#45;&gt;Node16 -->
<g id="edge19" class="edge"><title>Node17&#45;&gt;Node16</title>
<path fill="none" stroke="#9a32cd" stroke-dasharray="5,2" d="M753.535,-492.774C783.044,-496.448 815.942,-500.714 846,-505 857.78,-506.68 870.369,-508.601 882.38,-510.495"/>
<polygon fill="#9a32cd" stroke="#9a32cd" points="753.603,-489.256 743.248,-491.501 752.743,-496.203 753.603,-489.256"/>
<text text-anchor="middle" x="806" y="-508" font-family="Helvetica,sans-Serif" font-size="10.00"> myTurtleImages</text>
</g>
<!-- Node18&#45;&gt;Node16 -->
<g id="edge20" class="edge"><title>Node18&#45;&gt;Node16</title>
<path fill="none" stroke="#9a32cd" stroke-dasharray="5,2" d="M709.813,-520C757.383,-520 831.156,-520 882.31,-520"/>
<polygon fill="#9a32cd" stroke="#9a32cd" points="709.783,-516.5 699.783,-520 709.783,-523.5 709.783,-516.5"/>
<text text-anchor="middle" x="806" y="-523" font-family="Helvetica,sans-Serif" font-size="10.00"> myCurrent</text>
</g>
<!-- Node19 -->
<g id="node19" class="node"><title>Node19</title>
<g id="a_node19"><a xlink:href="../../df/dca/interfacemodel_1_1_i_state.html" target="_top" xlink:title="model.IState">
<polygon fill="white" stroke="black" points="319,-499.5 319,-518.5 397,-518.5 397,-499.5 319,-499.5"/>
<text text-anchor="middle" x="358" y="-506.5" font-family="Helvetica,sans-Serif" font-size="10.00">model.IState</text>
</a>
</g>
</g>
<!-- Node19&#45;&gt;Node18 -->
<g id="edge22" class="edge"><title>Node19&#45;&gt;Node18</title>
<path fill="none" stroke="midnightblue" d="M407.312,-510.76C467.812,-512.963 570.105,-516.689 624.475,-518.67"/>
<polygon fill="midnightblue" stroke="midnightblue" points="407.369,-507.26 397.249,-510.393 407.114,-514.255 407.369,-507.26"/>
</g>
<!-- Node20 -->
<g id="node20" class="node"><title>Node20</title>
<g id="a_node20"><a xlink:href="../../d4/d67/classutil_1_1_vector.html" target="_top" xlink:title="util.Vector">
<polygon fill="white" stroke="black" points="325.5,-461.5 325.5,-480.5 390.5,-480.5 390.5,-461.5 325.5,-461.5"/>
<text text-anchor="middle" x="358" y="-468.5" font-family="Helvetica,sans-Serif" font-size="10.00">util.Vector</text>
</a>
</g>
</g>
<!-- Node20&#45;&gt;Node18 -->
<g id="edge23" class="edge"><title>Node20&#45;&gt;Node18</title>
<path fill="none" stroke="#9a32cd" stroke-dasharray="5,2" d="M400.834,-475.744C441.201,-480.541 503.97,-488.578 558,-498 580.157,-501.864 604.8,-507.093 624.425,-511.484"/>
<polygon fill="#9a32cd" stroke="#9a32cd" points="401.163,-472.258 390.822,-474.566 400.345,-479.21 401.163,-472.258"/>
<text text-anchor="middle" x="505" y="-501" font-family="Helvetica,sans-Serif" font-size="10.00"> myHeading</text>
</g>
<!-- Node21 -->
<g id="node21" class="node"><title>Node21</title>
<g id="a_node21"><a xlink:href="../../d7/d1e/classutil_1_1_location.html" target="_top" xlink:title="util.Location">
<polygon fill="white" stroke="black" points="321,-575.5 321,-594.5 395,-594.5 395,-575.5 321,-575.5"/>
<text text-anchor="middle" x="358" y="-582.5" font-family="Helvetica,sans-Serif" font-size="10.00">util.Location</text>
</a>
</g>
</g>
<!-- Node21&#45;&gt;Node18 -->
<g id="edge24" class="edge"><title>Node21&#45;&gt;Node18</title>
<path fill="none" stroke="#9a32cd" stroke-dasharray="5,2" d="M405.434,-579.958C446.036,-575.03 506.407,-566.445 558,-554 585.093,-547.465 615.285,-537.122 635.938,-529.559"/>
<polygon fill="#9a32cd" stroke="#9a32cd" points="404.816,-576.506 395.299,-581.162 405.642,-583.458 404.816,-576.506"/>
<text text-anchor="middle" x="505" y="-577" font-family="Helvetica,sans-Serif" font-size="10.00"> myCenter</text>
</g>
<!-- Node22 -->
<g id="node22" class="node"><title>Node22</title>
<polygon fill="white" stroke="#bfbfbf" points="23,-575.5 23,-594.5 117,-594.5 117,-575.5 23,-575.5"/>
<text text-anchor="middle" x="70" y="-582.5" font-family="Helvetica,sans-Serif" font-size="10.00">Point2D::Double</text>
</g>
<!-- Node22&#45;&gt;Node21 -->
<g id="edge25" class="edge"><title>Node22&#45;&gt;Node21</title>
<path fill="none" stroke="midnightblue" d="M127.623,-585C185.012,-585 272.082,-585 320.776,-585"/>
<polygon fill="midnightblue" stroke="midnightblue" points="127.269,-581.5 117.269,-585 127.269,-588.5 127.269,-581.5"/>
</g>
<!-- Node23 -->
<g id="node23" class="node"><title>Node23</title>
<polygon fill="white" stroke="#bfbfbf" points="36,-350.5 36,-369.5 104,-369.5 104,-350.5 36,-350.5"/>
<text text-anchor="middle" x="70" y="-357.5" font-family="Helvetica,sans-Serif" font-size="10.00">Dimension</text>
</g>
<!-- Node23&#45;&gt;Node21 -->
<g id="edge26" class="edge"><title>Node23&#45;&gt;Node21</title>
<path fill="none" stroke="#9a32cd" stroke-dasharray="5,2" d="M114.261,-357.653C158.838,-357.811 226.894,-365.713 264,-408 310.616,-461.124 235.5,-512.775 282,-566 291.633,-577.026 306.659,-582.107 320.74,-584.307"/>
<polygon fill="#9a32cd" stroke="#9a32cd" points="113.987,-354.156 104.021,-357.751 114.054,-361.155 113.987,-354.156"/>
<text text-anchor="middle" x="211" y="-411" font-family="Helvetica,sans-Serif" font-size="10.00"> myCanvasDimension</text>
</g>
<!-- Node23&#45;&gt;Node32 -->
<g id="edge45" class="edge"><title>Node23&#45;&gt;Node32</title>
<path fill="none" stroke="#9a32cd" stroke-dasharray="5,2" d="M113.776,-349.136C161.597,-336.951 236.001,-317.868 264,-310 348.056,-286.38 366.633,-271.323 452,-253 511.917,-240.14 582.901,-232.549 624.819,-228.838"/>
<polygon fill="#9a32cd" stroke="#9a32cd" points="112.828,-345.765 104.001,-351.625 114.555,-352.549 112.828,-345.765"/>
<text text-anchor="middle" x="358" y="-308" font-family="Helvetica,sans-Serif" font-size="10.00"> DEFAULT_CANVAS_DIMENSION</text>
</g>
<!-- Node24 -->
<g id="node24" class="node"><title>Node24</title>
<polygon fill="white" stroke="#bfbfbf" points="314.5,-618.5 314.5,-637.5 401.5,-637.5 401.5,-618.5 314.5,-618.5"/>
<text text-anchor="middle" x="358" y="-625.5" font-family="Helvetica,sans-Serif" font-size="10.00">BufferedImage</text>
</g>
<!-- Node24&#45;&gt;Node16 -->
<g id="edge37" class="edge"><title>Node24&#45;&gt;Node16</title>
<path fill="none" stroke="#9a32cd" stroke-dasharray="5,2" d="M411.621,-638.25C453.358,-643.791 512.101,-645.672 558,-624 569.116,-618.751 565.477,-609.354 576,-603 602.842,-586.794 797.068,-547.667 890.305,-529.528"/>
<polygon fill="#9a32cd" stroke="#9a32cd" points="412.058,-634.777 401.661,-636.816 411.06,-641.706 412.058,-634.777"/>
<text text-anchor="middle" x="662" y="-606" font-family="Helvetica,sans-Serif" font-size="10.00"> myImage</text>
</g>
<!-- Node24&#45;&gt;Node18 -->
<g id="edge27" class="edge"><title>Node24&#45;&gt;Node18</title>
<path fill="none" stroke="#9a32cd" stroke-dasharray="5,2" d="M411.449,-619.275C465.943,-609.962 545.07,-595.653 558,-589 567.785,-583.966 567.26,-578.685 576,-572 597.848,-555.29 625.346,-539.277 643.048,-529.542"/>
<polygon fill="#9a32cd" stroke="#9a32cd" points="410.854,-615.826 401.582,-620.953 412.027,-622.727 410.854,-615.826"/>
<text text-anchor="middle" x="505" y="-615" font-family="Helvetica,sans-Serif" font-size="10.00"> myImage</text>
</g>
<!-- Node25 -->
<g id="node25" class="node"><title>Node25</title>
<g id="a_node25"><a xlink:href="../../de/ded/classmodel_1_1_pen.html" target="_top" xlink:title="model.Pen">
<polygon fill="white" stroke="black" points="324,-416.5 324,-435.5 392,-435.5 392,-416.5 324,-416.5"/>
<text text-anchor="middle" x="358" y="-423.5" font-family="Helvetica,sans-Serif" font-size="10.00">model.Pen</text>
</a>
</g>
</g>
<!-- Node25&#45;&gt;Node18 -->
<g id="edge28" class="edge"><title>Node25&#45;&gt;Node18</title>
<path fill="none" stroke="#9a32cd" stroke-dasharray="5,2" d="M402.238,-425.044C445.653,-426.225 512.465,-434.116 558,-468 571.403,-477.973 562.657,-490.947 576,-501 589.768,-511.373 608.13,-516.275 624.263,-518.522"/>
<polygon fill="#9a32cd" stroke="#9a32cd" points="402.056,-421.541 392.001,-424.878 401.943,-428.54 402.056,-421.541"/>
<text text-anchor="middle" x="505" y="-471" font-family="Helvetica,sans-Serif" font-size="10.00"> myPen</text>
</g>
<!-- Node26 -->
<g id="node26" class="node"><title>Node26</title>
<polygon fill="white" stroke="#bfbfbf" points="49.5,-140.5 49.5,-159.5 90.5,-159.5 90.5,-140.5 49.5,-140.5"/>
<text text-anchor="middle" x="70" y="-147.5" font-family="Helvetica,sans-Serif" font-size="10.00">Color</text>
</g>
<!-- Node26&#45;&gt;Node16 -->
<g id="edge34" class="edge"><title>Node26&#45;&gt;Node16</title>
<path fill="none" stroke="#9a32cd" stroke-dasharray="5,2" d="M99.781,-163.899C139.821,-182.76 214.977,-216.46 282,-237 401.758,-273.701 440.803,-249.799 558,-294 695.822,-345.98 747.879,-348.141 846,-458 859.528,-473.147 848.62,-486.737 864,-500 869.373,-504.633 875.699,-508.209 882.369,-510.967"/>
<polygon fill="#9a32cd" stroke="#9a32cd" points="101.152,-160.675 90.6173,-159.551 98.152,-167 101.152,-160.675"/>
<text text-anchor="middle" x="505" y="-308" font-family="Helvetica,sans-Serif" font-size="10.00"> INITIAL_GRAD_COLOR</text>
<text text-anchor="middle" x="505" y="-297" font-family="Helvetica,sans-Serif" font-size="10.00">FINAL_GRAD_COLOR</text>
</g>
<!-- Node26&#45;&gt;Node25 -->
<g id="edge29" class="edge"><title>Node26&#45;&gt;Node25</title>
<path fill="none" stroke="#9a32cd" stroke-dasharray="5,2" d="M84.324,-167.81C100.107,-187.935 128.061,-220.659 158,-242 200.113,-272.018 232.738,-248.802 264,-290 295.803,-331.911 246.615,-368.065 282,-407 292.479,-418.531 308.861,-423.513 323.644,-425.514"/>
<polygon fill="#9a32cd" stroke="#9a32cd" points="87.0201,-165.575 78.1495,-159.782 81.4712,-169.842 87.0201,-165.575"/>
<text text-anchor="middle" x="211" y="-293" font-family="Helvetica,sans-Serif" font-size="10.00"> myCurrentColor</text>
</g>
<!-- Node26&#45;&gt;Node32 -->
<g id="edge42" class="edge"><title>Node26&#45;&gt;Node32</title>
<path fill="none" stroke="#9a32cd" stroke-dasharray="5,2" d="M98.0029,-135.985C158.846,-106.291 310.952,-42.6377 434,-79 528.556,-106.942 620.732,-187.96 650.805,-216.173"/>
<polygon fill="#9a32cd" stroke="#9a32cd" points="96.4378,-132.854 89.0399,-140.438 99.5528,-139.123 96.4378,-132.854"/>
<text text-anchor="middle" x="358" y="-115" font-family="Helvetica,sans-Serif" font-size="10.00"> DEFAULT_BACKGROUND</text>
<text text-anchor="middle" x="358" y="-104" font-family="Helvetica,sans-Serif" font-size="10.00">myBackgroundColor</text>
<text text-anchor="start" x="298" y="-93" font-family="Helvetica,sans-Serif" font-size="10.00">DEFAULT_BACKGROUND</text>
<text text-anchor="middle" x="358" y="-82" font-family="Helvetica,sans-Serif" font-size="10.00">_COLOR</text>
</g>
<!-- Node36 -->
<g id="node36" class="node"><title>Node36</title>
<g id="a_node36"><a xlink:href="../../d6/dda/classmodel_1_1_color_manager.html" target="_top" xlink:title="model.ColorManager">
<polygon fill="white" stroke="black" points="300,-14.5 300,-33.5 416,-33.5 416,-14.5 300,-14.5"/>
<text text-anchor="middle" x="358" y="-21.5" font-family="Helvetica,sans-Serif" font-size="10.00">model.ColorManager</text>
</a>
</g>
</g>
<!-- Node26&#45;&gt;Node36 -->
<g id="edge48" class="edge"><title>Node26&#45;&gt;Node36</title>
<path fill="none" stroke="#9a32cd" stroke-dasharray="5,2" d="M80.4698,-131.322C93.9948,-106.826 121.322,-64.6581 158,-45 181.73,-32.2813 249.677,-27.2657 299.597,-25.2878"/>
<polygon fill="#9a32cd" stroke="#9a32cd" points="77.2816,-129.863 75.6772,-140.336 83.4622,-133.149 77.2816,-129.863"/>
<text text-anchor="middle" x="211" y="-48" font-family="Helvetica,sans-Serif" font-size="10.00"> DEFAULT_COLORS</text>
</g>
<!-- Node27 -->
<g id="node27" class="node"><title>Node27</title>
<polygon fill="white" stroke="#bfbfbf" points="46,-449.5 46,-468.5 94,-468.5 94,-449.5 46,-449.5"/>
<text text-anchor="middle" x="70" y="-456.5" font-family="Helvetica,sans-Serif" font-size="10.00">Stroke</text>
</g>
<!-- Node27&#45;&gt;Node16 -->
<g id="edge35" class="edge"><title>Node27&#45;&gt;Node16</title>
<path fill="none" stroke="#9a32cd" stroke-dasharray="5,2" d="M83.7657,-476.946C113.252,-516.663 190.614,-611.301 282,-647 340.377,-669.804 798.407,-695.777 846,-655 885.619,-621.054 828.825,-577.532 864,-539 869.043,-533.475 875.427,-529.448 882.344,-526.529"/>
<polygon fill="#9a32cd" stroke="#9a32cd" points="86.3347,-474.528 77.6144,-468.511 80.6789,-478.653 86.3347,-474.528"/>
<text text-anchor="middle" x="505" y="-689" font-family="Helvetica,sans-Serif" font-size="10.00"> ACTIVE_STROKE</text>
<text text-anchor="middle" x="505" y="-678" font-family="Helvetica,sans-Serif" font-size="10.00">myStroke</text>
</g>
<!-- Node27&#45;&gt;Node25 -->
<g id="edge30" class="edge"><title>Node27&#45;&gt;Node25</title>
<path fill="none" stroke="#9a32cd" stroke-dasharray="5,2" d="M104.347,-455.152C159.417,-448.798 268.738,-436.184 323.746,-429.837"/>
<polygon fill="#9a32cd" stroke="#9a32cd" points="103.937,-451.676 94.4046,-456.299 104.74,-458.63 103.937,-451.676"/>
<text text-anchor="middle" x="211" y="-463" font-family="Helvetica,sans-Serif" font-size="10.00"> myStroke</text>
<text text-anchor="middle" x="211" y="-452" font-family="Helvetica,sans-Serif" font-size="10.00">DEFAULT_STROKE</text>
</g>
<!-- Node27&#45;&gt;Node32 -->
<g id="edge43" class="edge"><title>Node27&#45;&gt;Node32</title>
<path fill="none" stroke="#9a32cd" stroke-dasharray="5,2" d="M104.158,-456.997C116.939,-454.574 130.69,-449.681 140,-440 164.361,-414.668 132.234,-386.901 158,-363 203.509,-320.786 384.971,-358.069 434,-320 450.041,-307.545 436.531,-291.159 452,-278 455.338,-275.161 565.902,-248.586 624.833,-234.567"/>
<polygon fill="#9a32cd" stroke="#9a32cd" points="103.605,-453.54 94.2186,-458.454 104.621,-460.466 103.605,-453.54"/>
<text text-anchor="middle" x="358" y="-344" font-family="Helvetica,sans-Serif" font-size="10.00"> GRID_STROKE</text>
</g>
<!-- Node28 -->
<g id="node28" class="node"><title>Node28</title>
<polygon fill="white" stroke="#bfbfbf" points="15,-411.5 15,-430.5 125,-430.5 125,-411.5 15,-411.5"/>
<text text-anchor="middle" x="70" y="-418.5" font-family="Helvetica,sans-Serif" font-size="10.00">List&lt; util.PenLine &gt;</text>
</g>
<!-- Node28&#45;&gt;Node25 -->
<g id="edge31" class="edge"><title>Node28&#45;&gt;Node25</title>
<path fill="none" stroke="#9a32cd" stroke-dasharray="5,2" d="M135.362,-421.905C172.887,-422.456 221.124,-423.206 264,-424 283.861,-424.368 306.105,-424.844 323.859,-425.239"/>
<polygon fill="#9a32cd" stroke="#9a32cd" points="135.126,-418.401 125.076,-421.754 135.024,-425.4 135.126,-418.401"/>
<text text-anchor="middle" x="211" y="-427" font-family="Helvetica,sans-Serif" font-size="10.00"> myLines</text>
</g>
<!-- Node29 -->
<g id="node29" class="node"><title>Node29</title>
<g id="a_node29"><a xlink:href="../../d7/da7/enumview_1_1components_1_1_strokes.html" target="_top" xlink:title="view.components.Strokes">
<polygon fill="white" stroke="black" points="0.5,-288.5 0.5,-307.5 139.5,-307.5 139.5,-288.5 0.5,-288.5"/>
<text text-anchor="middle" x="70" y="-295.5" font-family="Helvetica,sans-Serif" font-size="10.00">view.components.Strokes</text>
</a>
</g>
</g>
<!-- Node29&#45;&gt;Node25 -->
<g id="edge32" class="edge"><title>Node29&#45;&gt;Node25</title>
<path fill="none" stroke="#9a32cd" stroke-dasharray="5,2" d="M149.873,-302.895C188.683,-309.19 233.547,-322.843 264,-352 282.578,-369.787 263.204,-389.443 282,-407 293.19,-417.452 309.287,-422.363 323.701,-424.596"/>
<polygon fill="#9a32cd" stroke="#9a32cd" points="150.033,-299.381 139.628,-301.379 149.008,-306.306 150.033,-299.381"/>
<text text-anchor="middle" x="211" y="-355" font-family="Helvetica,sans-Serif" font-size="10.00"> myStrokeType</text>
</g>
<!-- Node30 -->
<g id="node30" class="node"><title>Node30</title>
<polygon fill="white" stroke="#bfbfbf" points="301.5,-537.5 301.5,-556.5 414.5,-556.5 414.5,-537.5 301.5,-537.5"/>
<text text-anchor="middle" x="358" y="-544.5" font-family="Helvetica,sans-Serif" font-size="10.00">List&lt; util.Location &gt;</text>
</g>
<!-- Node30&#45;&gt;Node18 -->
<g id="edge33" class="edge"><title>Node30&#45;&gt;Node18</title>
<path fill="none" stroke="#9a32cd" stroke-dasharray="5,2" d="M425.055,-541.094C486.136,-535.633 574.703,-527.715 624.126,-523.297"/>
<polygon fill="#9a32cd" stroke="#9a32cd" points="424.392,-537.64 414.743,-542.016 425.015,-544.612 424.392,-537.64"/>
<text text-anchor="middle" x="505" y="-542" font-family="Helvetica,sans-Serif" font-size="10.00"> myStamp</text>
</g>
<!-- Node31 -->
<g id="node31" class="node"><title>Node31</title>
<polygon fill="white" stroke="#bfbfbf" points="583,-623.5 583,-642.5 741,-642.5 741,-623.5 583,-623.5"/>
<text text-anchor="middle" x="662" y="-630.5" font-family="Helvetica,sans-Serif" font-size="10.00">Map&lt; Integer, model.Turtle &gt;</text>
</g>
<!-- Node31&#45;&gt;Node16 -->
<g id="edge36" class="edge"><title>Node31&#45;&gt;Node16</title>
<path fill="none" stroke="#9a32cd" stroke-dasharray="5,2" d="M751.036,-630.128C790.606,-627.043 831.627,-620.752 846,-608 869.708,-586.967 841.476,-561.296 864,-539 869.22,-533.833 875.619,-530.001 882.468,-527.17"/>
<polygon fill="#9a32cd" stroke="#9a32cd" points="750.749,-626.64 741.025,-630.846 751.249,-633.622 750.749,-626.64"/>
<text text-anchor="middle" x="806" y="-643" font-family="Helvetica,sans-Serif" font-size="10.00"> myTurtles</text>
<text text-anchor="middle" x="806" y="-632" font-family="Helvetica,sans-Serif" font-size="10.00">myActiveTurtles</text>
</g>
<!-- Node32&#45;&gt;Node1 -->
<g id="edge38" class="edge"><title>Node32&#45;&gt;Node1</title>
<path fill="none" stroke="#9a32cd" stroke-dasharray="5,2" d="M709.244,-220.406C803.762,-211.848 1019.15,-207.604 1126,-329 1154.9,-361.833 1118.63,-489.374 1144,-525 1151.91,-536.102 1164.46,-543.54 1176.94,-548.492"/>
<polygon fill="#9a32cd" stroke="#9a32cd" points="708.754,-216.937 699.136,-221.381 709.425,-223.905 708.754,-216.937"/>
<text text-anchor="middle" x="941" y="-258" font-family="Helvetica,sans-Serif" font-size="10.00"> myCanvas</text>
</g>
<!-- Node33 -->
<g id="node33" class="node"><title>Node33</title>
<polygon fill="white" stroke="#bfbfbf" points="320.5,-132.5 320.5,-151.5 395.5,-151.5 395.5,-132.5 320.5,-132.5"/>
<text text-anchor="middle" x="358" y="-139.5" font-family="Helvetica,sans-Serif" font-size="10.00">JComponent</text>
</g>
<!-- Node33&#45;&gt;Node32 -->
<g id="edge39" class="edge"><title>Node33&#45;&gt;Node32</title>
<path fill="none" stroke="midnightblue" d="M405.469,-151.834C446.022,-160.741 506.301,-174.771 558,-190 584.893,-197.922 615.116,-208.716 635.831,-216.414"/>
<polygon fill="midnightblue" stroke="midnightblue" points="406.117,-148.393 395.601,-149.682 404.626,-155.232 406.117,-148.393"/>
</g>
<!-- Node34 -->
<g id="node34" class="node"><title>Node34</title>
<polygon fill="white" stroke="#bfbfbf" points="328,-170.5 328,-189.5 388,-189.5 388,-170.5 328,-170.5"/>
<text text-anchor="middle" x="358" y="-177.5" font-family="Helvetica,sans-Serif" font-size="10.00">Observer</text>
</g>
<!-- Node34&#45;&gt;Node32 -->
<g id="edge40" class="edge"><title>Node34&#45;&gt;Node32</title>
<path fill="none" stroke="midnightblue" d="M397.937,-185.453C438.078,-191.126 502.46,-200.371 558,-209 580.207,-212.45 605.067,-216.547 624.799,-219.854"/>
<polygon fill="midnightblue" stroke="midnightblue" points="398.418,-181.986 388.027,-184.055 397.441,-188.918 398.418,-181.986"/>
</g>
<!-- Node35 -->
<g id="node35" class="node"><title>Node35</title>
<polygon fill="white" stroke="#bfbfbf" points="334.5,-208.5 334.5,-227.5 381.5,-227.5 381.5,-208.5 334.5,-208.5"/>
<text text-anchor="middle" x="358" y="-215.5" font-family="Helvetica,sans-Serif" font-size="10.00">Image</text>
</g>
<!-- Node35&#45;&gt;Node32 -->
<g id="edge44" class="edge"><title>Node35&#45;&gt;Node32</title>
<path fill="none" stroke="#9a32cd" stroke-dasharray="5,2" d="M391.711,-216.249C409.53,-215.382 431.97,-214.431 452,-214 499.1,-212.988 510.968,-211.27 558,-214 580.286,-215.294 605.148,-218.15 624.862,-220.751"/>
<polygon fill="#9a32cd" stroke="#9a32cd" points="391.354,-212.763 381.542,-216.759 391.705,-219.754 391.354,-212.763"/>
<text text-anchor="middle" x="505" y="-217" font-family="Helvetica,sans-Serif" font-size="10.00"> myBackgroundImage</text>
</g>
<!-- Node36&#45;&gt;Node1 -->
<g id="edge46" class="edge"><title>Node36&#45;&gt;Node1</title>
<path fill="none" stroke="#9a32cd" stroke-dasharray="5,2" d="M426.295,-20.6816C580.885,-17.2146 960.746,-33.2804 1126,-260 1160.77,-307.699 1110.33,-476.52 1144,-525 1151.7,-536.081 1164.04,-543.502 1176.41,-548.447"/>
<polygon fill="#9a32cd" stroke="#9a32cd" points="425.906,-17.1904 416.001,-20.9492 426.088,-24.1881 425.906,-17.1904"/>
<text text-anchor="middle" x="806" y="-78" font-family="Helvetica,sans-Serif" font-size="10.00"> myPalette</text>
</g>
<!-- Node37 -->
<g id="node37" class="node"><title>Node37</title>
<polygon fill="white" stroke="#bfbfbf" points="8,-0.5 8,-19.5 132,-19.5 132,-0.5 8,-0.5"/>
<text text-anchor="middle" x="70" y="-7.5" font-family="Helvetica,sans-Serif" font-size="10.00">Map&lt; Integer, Color &gt;</text>
</g>
<!-- Node37&#45;&gt;Node36 -->
<g id="edge47" class="edge"><title>Node37&#45;&gt;Node36</title>
<path fill="none" stroke="#9a32cd" stroke-dasharray="5,2" d="M142.398,-8.09859C178.832,-7.70422 223.829,-8.10133 264,-11 275.545,-11.8331 287.84,-13.204 299.58,-14.7504"/>
<polygon fill="#9a32cd" stroke="#9a32cd" points="142.313,-4.5993 132.36,-8.22939 142.405,-11.5987 142.313,-4.5993"/>
<text text-anchor="middle" x="211" y="-14" font-family="Helvetica,sans-Serif" font-size="10.00"> myPalette</text>
</g>
</g>
</svg>
