<?xml version="1.0" encoding="UTF-8" standalone="no"?>
<!DOCTYPE svg PUBLIC "-//W3C//DTD SVG 1.1//EN"
 "http://www.w3.org/Graphics/SVG/1.1/DTD/svg11.dtd">
<!-- Generated by graphviz version 2.36.0 (20140111.2315)
 -->
<!-- Title: parser.commands.bool.GreaterThan.evaluate Pages: 1 -->
<svg width="598pt" height="77pt"
 viewBox="0.00 0.00 598.00 77.00" xmlns="http://www.w3.org/2000/svg" xmlns:xlink="http://www.w3.org/1999/xlink">
<g id="graph0" class="graph" transform="scale(1 1) rotate(0) translate(4 73)">
<title>parser.commands.bool.GreaterThan.evaluate</title>
<polygon fill="white" stroke="none" points="-4,4 -4,-73 594,-73 594,4 -4,4"/>
<!-- Node1 -->
<g id="node1" class="node"><title>Node1</title>
<polygon fill="#bfbfbf" stroke="black" points="0.5,-22 0.5,-52 167.5,-52 167.5,-22 0.5,-22"/>
<text text-anchor="start" x="8.5" y="-40" font-family="Helvetica,sans-Serif" font-size="10.00">parser.commands.bool.Greater</text>
<text text-anchor="middle" x="84" y="-29" font-family="Helvetica,sans-Serif" font-size="10.00">Than.evaluate</text>
</g>
<!-- Node2 -->
<g id="node2" class="node"><title>Node2</title>
<g id="a_node2"><a xlink:href="../../db/d11/classparser_1_1nodes_1_1_binary_node.html#a555930c71203ce7c05e1290f069b19a1" target="_top" xlink:title="parser.nodes.BinaryNode.getLeft">
<polygon fill="white" stroke="black" points="204,-49.5 204,-68.5 378,-68.5 378,-49.5 204,-49.5"/>
<text text-anchor="middle" x="291" y="-56.5" font-family="Helvetica,sans-Serif" font-size="10.00">parser.nodes.BinaryNode.getLeft</text>
</a>
</g>
</g>
<!-- Node1&#45;&gt;Node2 -->
<g id="edge1" class="edge"><title>Node1&#45;&gt;Node2</title>
<path fill="none" stroke="midnightblue" d="M167.79,-45.8848C176.337,-46.802 185.073,-47.7395 193.749,-48.6706"/>
<polygon fill="midnightblue" stroke="midnightblue" points="193.575,-52.1719 203.891,-49.759 194.322,-45.2119 193.575,-52.1719"/>
</g>
<!-- Node4 -->
<g id="node4" class="node"><title>Node4</title>
<g id="a_node4"><a xlink:href="../../db/d11/classparser_1_1nodes_1_1_binary_node.html#a9c33799a377e3c277de0fc9138a2cb81" target="_top" xlink:title="parser.nodes.BinaryNode.get\lRight">
<polygon fill="white" stroke="black" points="213,-0 213,-30 369,-30 369,-0 213,-0"/>
<text text-anchor="start" x="221" y="-18" font-family="Helvetica,sans-Serif" font-size="10.00">parser.nodes.BinaryNode.get</text>
<text text-anchor="middle" x="291" y="-7" font-family="Helvetica,sans-Serif" font-size="10.00">Right</text>
</a>
</g>
</g>
<!-- Node1&#45;&gt;Node4 -->
<g id="edge3" class="edge"><title>Node1&#45;&gt;Node4</title>
<path fill="none" stroke="midnightblue" d="M167.79,-28.1152C179.307,-26.8792 191.169,-25.6062 202.764,-24.3619"/>
<polygon fill="midnightblue" stroke="midnightblue" points="203.301,-27.8245 212.87,-23.2773 202.554,-20.8645 203.301,-27.8245"/>
</g>
<!-- Node3 -->
<g id="node3" class="node"><title>Node3</title>
<g id="a_node3"><a xlink:href="../../d7/d93/classparser_1_1nodes_1_1_parameter_node.html#a2c57eab9997daf1efb840a189c1034c5" target="_top" xlink:title="parser.nodes.ParameterNode.get\lParameter">
<polygon fill="white" stroke="black" points="414,-22 414,-52 590,-52 590,-22 414,-22"/>
<text text-anchor="start" x="422" y="-40" font-family="Helvetica,sans-Serif" font-size="10.00">parser.nodes.ParameterNode.get</text>
<text text-anchor="middle" x="502" y="-29" font-family="Helvetica,sans-Serif" font-size="10.00">Parameter</text>
</a>
</g>
</g>
<!-- Node2&#45;&gt;Node3 -->
<g id="edge2" class="edge"><title>Node2&#45;&gt;Node3</title>
<path fill="none" stroke="midnightblue" d="M378.215,-49.9247C386.701,-49.0315 395.353,-48.1207 403.938,-47.2171"/>
<polygon fill="midnightblue" stroke="midnightblue" points="404.392,-50.6887 413.971,-46.161 403.659,-43.7271 404.392,-50.6887"/>
</g>
<!-- Node4&#45;&gt;Node3 -->
<g id="edge4" class="edge"><title>Node4&#45;&gt;Node3</title>
<path fill="none" stroke="midnightblue" d="M369.23,-23.1295C380.472,-24.3129 392.167,-25.5439 403.743,-26.7624"/>
<polygon fill="midnightblue" stroke="midnightblue" points="403.559,-30.2623 413.87,-27.8285 404.292,-23.3007 403.559,-30.2623"/>
</g>
</g>
</svg>
