<?xml version="1.0" encoding="UTF-8" standalone="no"?>
<!DOCTYPE svg PUBLIC "-//W3C//DTD SVG 1.1//EN"
 "http://www.w3.org/Graphics/SVG/1.1/DTD/svg11.dtd">
<!-- Generated by graphviz version 2.36.0 (20140111.2315)
 -->
<!-- Title: parser.nodes.ParameterNode Pages: 1 -->
<!--zoomable 1480 -->
<svg id="main" version="1.1" xmlns="http://www.w3.org/2000/svg" xmlns:xlink="http://www.w3.org/1999/xlink" xml:space="preserve" onload="init(evt)">
<style type="text/css"><![CDATA[
.edge:hover path { stroke: red; }
.edge:hover polygon { stroke: red; fill: red; }
]]></style>
<script type="text/javascript"><![CDATA[
var edges = document.getElementsByTagName('g');
if (edges && edges.length) {
  for (var i=0;i<edges.length;i++) {
    if (edges[i].id.substr(0,4)=='edge') {
      edges[i].setAttribute('class','edge');
    }
  }
}
]]></script>
        <defs>
                <circle id="rim" cx="0" cy="0" r="7"/>
                <circle id="rim2" cx="0" cy="0" r="3.5"/>
                <g id="zoomPlus">
                        <use xlink:href="#rim" fill="#404040">
                                <set attributeName="fill" to="#808080" begin="zoomplus.mouseover" end="zoomplus.mouseout"/>
                        </use>
                        <path d="M-4,0h8M0,-4v8" fill="none" stroke="white" stroke-width="1.5" pointer-events="none"/>
                </g>
                <g id="zoomMin">
                        <use xlink:href="#rim" fill="#404040">
                                <set attributeName="fill" to="#808080" begin="zoomminus.mouseover" end="zoomminus.mouseout"/>
                        </use>
                        <path d="M-4,0h8" fill="none" stroke="white" stroke-width="1.5" pointer-events="none"/>
                </g>
                <g id="dirArrow">
                        <path fill="none" stroke="white" stroke-width="1.5" d="M0,-3.0v7 M-2.5,-0.5L0,-3.0L2.5,-0.5"/>
                </g>
               <g id="resetDef">
                       <use xlink:href="#rim2" fill="#404040">
                               <set attributeName="fill" to="#808080" begin="reset.mouseover" end="reset.mouseout"/>
                       </use>
               </g>
        </defs>

<script type="text/javascript">
var viewWidth = 966;
var viewHeight = 1480;
var sectionId = 'dynsection-0';
</script>
<script xlink:href="../../svgpan.js"/>
<svg id="graph" class="graph">
<g id="viewport">
<title>parser.nodes.ParameterNode</title>
<polygon fill="white" stroke="none" points="-4,4 -4,-1476 962,-1476 962,4 -4,4"/>
<!-- Node1 -->
<g id="node1" class="node"><title>Node1</title>
<polygon fill="#bfbfbf" stroke="black" points="176,-1038.5 176,-1057.5 334,-1057.5 334,-1038.5 176,-1038.5"/>
<text text-anchor="middle" x="255" y="-1045.5" font-family="Helvetica,sans-Serif" font-size="10.00">parser.nodes.ParameterNode</text>
</g>
<!-- Node3 -->
<g id="node3" class="node"><title>Node3</title>
<g id="a_node3"><a xlink:href="../../d2/dce/classparser_1_1commands_1_1view_1_1_set_palette.html" target="_top" xlink:title="parser.commands.view.Set\lPalette">
<polygon fill="white" stroke="black" points="370,-1077 370,-1107 516,-1107 516,-1077 370,-1077"/>
<text text-anchor="start" x="378" y="-1095" font-family="Helvetica,sans-Serif" font-size="10.00">parser.commands.view.Set</text>
<text text-anchor="middle" x="443" y="-1084" font-family="Helvetica,sans-Serif" font-size="10.00">Palette</text>
</a>
</g>
</g>
<!-- Node1&#45;&gt;Node3 -->
<g id="edge2" class="edge"><title>Node1&#45;&gt;Node3</title>
<path fill="none" stroke="midnightblue" d="M306.237,-1059.88C328.426,-1065.13 354.767,-1071.36 378.315,-1076.93"/>
<polygon fill="midnightblue" stroke="midnightblue" points="306.896,-1056.44 296.359,-1057.55 305.285,-1063.26 306.896,-1056.44"/>
</g>
<!-- Node4 -->
<g id="node4" class="node"><title>Node4</title>
<g id="a_node4"><a xlink:href="../../db/d11/classparser_1_1nodes_1_1_binary_node.html" target="_top" xlink:title="parser.nodes.BinaryNode">
<polygon fill="white" stroke="black" points="374.5,-1038.5 374.5,-1057.5 511.5,-1057.5 511.5,-1038.5 374.5,-1038.5"/>
<text text-anchor="middle" x="443" y="-1045.5" font-family="Helvetica,sans-Serif" font-size="10.00">parser.nodes.BinaryNode</text>
</a>
</g>
</g>
<!-- Node1&#45;&gt;Node4 -->
<g id="edge3" class="edge"><title>Node1&#45;&gt;Node4</title>
<path fill="none" stroke="midnightblue" d="M344.2,-1048C354.371,-1048 364.619,-1048 374.456,-1048"/>
<polygon fill="midnightblue" stroke="midnightblue" points="344.072,-1044.5 334.072,-1048 344.072,-1051.5 344.072,-1044.5"/>
</g>
<!-- Node28 -->
<g id="node28" class="node"><title>Node28</title>
<g id="a_node28"><a xlink:href="../../d3/d36/classparser_1_1nodes_1_1_unary_node.html" target="_top" xlink:title="parser.nodes.UnaryNode">
<polygon fill="white" stroke="black" points="375,-338.5 375,-357.5 511,-357.5 511,-338.5 375,-338.5"/>
<text text-anchor="middle" x="443" y="-345.5" font-family="Helvetica,sans-Serif" font-size="10.00">parser.nodes.UnaryNode</text>
</a>
</g>
</g>
<!-- Node1&#45;&gt;Node28 -->
<g id="edge27" class="edge"><title>Node1&#45;&gt;Node28</title>
<path fill="none" stroke="midnightblue" d="M261.171,-1028.54C288.91,-924.145 419.575,-432.393 439.46,-357.558"/>
<polygon fill="midnightblue" stroke="midnightblue" points="257.744,-1027.81 258.559,-1038.37 264.509,-1029.61 257.744,-1027.81"/>
</g>
<!-- Node2 -->
<g id="node2" class="node"><title>Node2</title>
<g id="a_node2"><a xlink:href="../../da/d96/classparser_1_1nodes_1_1_syntax_node.html" target="_top" xlink:title="parser.nodes.SyntaxNode">
<polygon fill="white" stroke="black" points="0,-1038.5 0,-1057.5 140,-1057.5 140,-1038.5 0,-1038.5"/>
<text text-anchor="middle" x="70" y="-1045.5" font-family="Helvetica,sans-Serif" font-size="10.00">parser.nodes.SyntaxNode</text>
</a>
</g>
</g>
<!-- Node2&#45;&gt;Node1 -->
<g id="edge1" class="edge"><title>Node2&#45;&gt;Node1</title>
<path fill="none" stroke="midnightblue" d="M150.387,-1048C158.825,-1048 167.402,-1048 175.825,-1048"/>
<polygon fill="midnightblue" stroke="midnightblue" points="150.184,-1044.5 140.184,-1048 150.184,-1051.5 150.184,-1044.5"/>
</g>
<!-- Node5 -->
<g id="node5" class="node"><title>Node5</title>
<g id="a_node5"><a xlink:href="../../d5/d43/classparser_1_1commands_1_1bool_1_1_and.html" target="_top" xlink:title="parser.commands.bool.And">
<polygon fill="white" stroke="black" points="582.5,-1452.5 582.5,-1471.5 731.5,-1471.5 731.5,-1452.5 582.5,-1452.5"/>
<text text-anchor="middle" x="657" y="-1459.5" font-family="Helvetica,sans-Serif" font-size="10.00">parser.commands.bool.And</text>
</a>
</g>
</g>
<!-- Node4&#45;&gt;Node5 -->
<g id="edge4" class="edge"><title>Node4&#45;&gt;Node5</title>
<path fill="none" stroke="midnightblue" d="M512.75,-1063.61C513.894,-1064.67 514.98,-1065.8 516,-1067 570.338,-1130.98 495.23,-1381.17 552,-1443 560.131,-1451.86 570.909,-1457.42 582.448,-1460.81"/>
<polygon fill="midnightblue" stroke="midnightblue" points="514.594,-1060.62 504.46,-1057.53 510.455,-1066.26 514.594,-1060.62"/>
</g>
<!-- Node6 -->
<g id="node6" class="node"><title>Node6</title>
<g id="a_node6"><a xlink:href="../../d0/d39/classparser_1_1commands_1_1bool_1_1_equal.html" target="_top" xlink:title="parser.commands.bool.Equal">
<polygon fill="white" stroke="black" points="579,-1414.5 579,-1433.5 735,-1433.5 735,-1414.5 579,-1414.5"/>
<text text-anchor="middle" x="657" y="-1421.5" font-family="Helvetica,sans-Serif" font-size="10.00">parser.commands.bool.Equal</text>
</a>
</g>
</g>
<!-- Node4&#45;&gt;Node6 -->
<g id="edge5" class="edge"><title>Node4&#45;&gt;Node6</title>
<path fill="none" stroke="midnightblue" d="M512.733,-1063.62C513.882,-1064.68 514.974,-1065.8 516,-1067 614.411,-1181.62 449.233,-1294.27 552,-1405 559.304,-1412.87 568.701,-1418.14 578.852,-1421.58"/>
<polygon fill="midnightblue" stroke="midnightblue" points="514.561,-1060.62 504.416,-1057.57 510.44,-1066.28 514.561,-1060.62"/>
</g>
<!-- Node7 -->
<g id="node7" class="node"><title>Node7</title>
<g id="a_node7"><a xlink:href="../../d4/ddb/classparser_1_1commands_1_1bool_1_1_greater_than.html" target="_top" xlink:title="parser.commands.bool.GreaterThan">
<polygon fill="white" stroke="black" points="562,-1376.5 562,-1395.5 752,-1395.5 752,-1376.5 562,-1376.5"/>
<text text-anchor="middle" x="657" y="-1383.5" font-family="Helvetica,sans-Serif" font-size="10.00">parser.commands.bool.GreaterThan</text>
</a>
</g>
</g>
<!-- Node4&#45;&gt;Node7 -->
<g id="edge6" class="edge"><title>Node4&#45;&gt;Node7</title>
<path fill="none" stroke="midnightblue" d="M512.711,-1063.64C513.867,-1064.69 514.966,-1065.81 516,-1067 604.155,-1168.3 459.996,-1269.18 552,-1367 555.395,-1370.61 559.231,-1373.67 563.377,-1376.26"/>
<polygon fill="midnightblue" stroke="midnightblue" points="514.518,-1060.63 504.362,-1057.61 510.421,-1066.3 514.518,-1060.63"/>
</g>
<!-- Node8 -->
<g id="node8" class="node"><title>Node8</title>
<g id="a_node8"><a xlink:href="../../d3/df0/classparser_1_1commands_1_1bool_1_1_less_than.html" target="_top" xlink:title="parser.commands.bool.LessThan">
<polygon fill="white" stroke="black" points="569.5,-1338.5 569.5,-1357.5 744.5,-1357.5 744.5,-1338.5 569.5,-1338.5"/>
<text text-anchor="middle" x="657" y="-1345.5" font-family="Helvetica,sans-Serif" font-size="10.00">parser.commands.bool.LessThan</text>
</a>
</g>
</g>
<!-- Node4&#45;&gt;Node8 -->
<g id="edge7" class="edge"><title>Node4&#45;&gt;Node8</title>
<path fill="none" stroke="midnightblue" d="M512.683,-1063.67C513.847,-1064.71 514.955,-1065.82 516,-1067 593.646,-1154.65 471.419,-1243.04 552,-1328 556.935,-1333.2 562.779,-1337.28 569.142,-1340.47"/>
<polygon fill="midnightblue" stroke="midnightblue" points="514.463,-1060.64 504.29,-1057.68 510.397,-1066.33 514.463,-1060.64"/>
</g>
<!-- Node9 -->
<g id="node9" class="node"><title>Node9</title>
<g id="a_node9"><a xlink:href="../../d7/dec/classparser_1_1commands_1_1bool_1_1_not_equal.html" target="_top" xlink:title="parser.commands.bool.Not\lEqual">
<polygon fill="white" stroke="black" points="583.5,-1289 583.5,-1319 730.5,-1319 730.5,-1289 583.5,-1289"/>
<text text-anchor="start" x="591.5" y="-1307" font-family="Helvetica,sans-Serif" font-size="10.00">parser.commands.bool.Not</text>
<text text-anchor="middle" x="657" y="-1296" font-family="Helvetica,sans-Serif" font-size="10.00">Equal</text>
</a>
</g>
</g>
<!-- Node4&#45;&gt;Node9 -->
<g id="edge8" class="edge"><title>Node4&#45;&gt;Node9</title>
<path fill="none" stroke="midnightblue" d="M512.178,-1063.32C513.523,-1064.46 514.801,-1065.69 516,-1067 580.478,-1137.54 486.747,-1209.17 552,-1279 560.432,-1288.02 571.5,-1294.04 583.267,-1298.02"/>
<polygon fill="midnightblue" stroke="midnightblue" points="514.054,-1060.36 503.825,-1057.6 510.101,-1066.14 514.054,-1060.36"/>
</g>
<!-- Node10 -->
<g id="node10" class="node"><title>Node10</title>
<g id="a_node10"><a xlink:href="../../d0/d20/classparser_1_1commands_1_1bool_1_1_or.html" target="_top" xlink:title="parser.commands.bool.Or">
<polygon fill="white" stroke="black" points="586.5,-1250.5 586.5,-1269.5 727.5,-1269.5 727.5,-1250.5 586.5,-1250.5"/>
<text text-anchor="middle" x="657" y="-1257.5" font-family="Helvetica,sans-Serif" font-size="10.00">parser.commands.bool.Or</text>
</a>
</g>
</g>
<!-- Node4&#45;&gt;Node10 -->
<g id="edge9" class="edge"><title>Node4&#45;&gt;Node10</title>
<path fill="none" stroke="midnightblue" d="M512.013,-1063.29C513.414,-1064.44 514.747,-1065.68 516,-1067 570.313,-1124.33 495.512,-1185.81 552,-1241 561.387,-1250.17 573.643,-1255.7 586.434,-1258.91"/>
<polygon fill="midnightblue" stroke="midnightblue" points="513.609,-1060.15 503.337,-1057.55 509.747,-1065.99 513.609,-1060.15"/>
</g>
<!-- Node11 -->
<g id="node11" class="node"><title>Node11</title>
<g id="a_node11"><a xlink:href="../../d3/da1/classparser_1_1commands_1_1math_1_1_difference.html" target="_top" xlink:title="parser.commands.math.Difference">
<polygon fill="white" stroke="black" points="565,-1212.5 565,-1231.5 749,-1231.5 749,-1212.5 565,-1212.5"/>
<text text-anchor="middle" x="657" y="-1219.5" font-family="Helvetica,sans-Serif" font-size="10.00">parser.commands.math.Difference</text>
</a>
</g>
</g>
<!-- Node4&#45;&gt;Node11 -->
<g id="edge10" class="edge"><title>Node4&#45;&gt;Node11</title>
<path fill="none" stroke="midnightblue" d="M511.41,-1062.99C513.024,-1064.23 514.56,-1065.56 516,-1067 560.23,-1111.2 506.096,-1160.55 552,-1203 556.043,-1206.74 560.566,-1209.86 565.402,-1212.46"/>
<polygon fill="midnightblue" stroke="midnightblue" points="513.105,-1059.92 502.77,-1057.59 509.393,-1065.86 513.105,-1059.92"/>
</g>
<!-- Node12 -->
<g id="node12" class="node"><title>Node12</title>
<g id="a_node12"><a xlink:href="../../d4/dd8/classparser_1_1commands_1_1math_1_1_product.html" target="_top" xlink:title="parser.commands.math.Product">
<polygon fill="white" stroke="black" points="571,-1174.5 571,-1193.5 743,-1193.5 743,-1174.5 571,-1174.5"/>
<text text-anchor="middle" x="657" y="-1181.5" font-family="Helvetica,sans-Serif" font-size="10.00">parser.commands.math.Product</text>
</a>
</g>
</g>
<!-- Node4&#45;&gt;Node12 -->
<g id="edge11" class="edge"><title>Node4&#45;&gt;Node12</title>
<path fill="none" stroke="midnightblue" d="M510.56,-1062.7C512.47,-1064.01 514.291,-1065.44 516,-1067 550.317,-1098.23 516.502,-1135.12 552,-1165 557.617,-1169.73 564.017,-1173.44 570.819,-1176.34"/>
<polygon fill="midnightblue" stroke="midnightblue" points="512.114,-1059.55 501.695,-1057.63 508.641,-1065.63 512.114,-1059.55"/>
</g>
<!-- Node13 -->
<g id="node13" class="node"><title>Node13</title>
<g id="a_node13"><a xlink:href="../../dc/d4d/classparser_1_1commands_1_1math_1_1_quotient.html" target="_top" xlink:title="parser.commands.math.Quotient">
<polygon fill="white" stroke="black" points="569,-1136.5 569,-1155.5 745,-1155.5 745,-1136.5 569,-1136.5"/>
<text text-anchor="middle" x="657" y="-1143.5" font-family="Helvetica,sans-Serif" font-size="10.00">parser.commands.math.Quotient</text>
</a>
</g>
</g>
<!-- Node4&#45;&gt;Node13 -->
<g id="edge12" class="edge"><title>Node4&#45;&gt;Node13</title>
<path fill="none" stroke="midnightblue" d="M508.032,-1061.9C510.822,-1063.43 513.497,-1065.12 516,-1067 540.866,-1085.68 526.431,-1109.3 552,-1127 557.508,-1130.81 563.56,-1133.93 569.888,-1136.46"/>
<polygon fill="midnightblue" stroke="midnightblue" points="509.333,-1058.64 498.793,-1057.57 506.363,-1064.98 509.333,-1058.64"/>
</g>
<!-- Node14 -->
<g id="node14" class="node"><title>Node14</title>
<g id="a_node14"><a xlink:href="../../d7/da6/classparser_1_1commands_1_1math_1_1_remainder.html" target="_top" xlink:title="parser.commands.math.Remainder">
<polygon fill="white" stroke="black" points="564,-1098.5 564,-1117.5 750,-1117.5 750,-1098.5 564,-1098.5"/>
<text text-anchor="middle" x="657" y="-1105.5" font-family="Helvetica,sans-Serif" font-size="10.00">parser.commands.math.Remainder</text>
</a>
</g>
</g>
<!-- Node4&#45;&gt;Node14 -->
<g id="edge13" class="edge"><title>Node4&#45;&gt;Node14</title>
<path fill="none" stroke="midnightblue" d="M498.088,-1060.44C504.218,-1062.38 510.304,-1064.57 516,-1067 533.247,-1074.36 534.482,-1082.31 552,-1089 562.203,-1092.89 573.281,-1096 584.277,-1098.49"/>
<polygon fill="midnightblue" stroke="midnightblue" points="499.051,-1057.07 488.468,-1057.57 497.052,-1063.78 499.051,-1057.07"/>
</g>
<!-- Node15 -->
<g id="node15" class="node"><title>Node15</title>
<g id="a_node15"><a xlink:href="../../d9/df8/classparser_1_1commands_1_1math_1_1_sum.html" target="_top" xlink:title="parser.commands.math.Sum">
<polygon fill="white" stroke="black" points="578,-1060.5 578,-1079.5 736,-1079.5 736,-1060.5 578,-1060.5"/>
<text text-anchor="middle" x="657" y="-1067.5" font-family="Helvetica,sans-Serif" font-size="10.00">parser.commands.math.Sum</text>
</a>
</g>
</g>
<!-- Node4&#45;&gt;Node15 -->
<g id="edge14" class="edge"><title>Node4&#45;&gt;Node15</title>
<path fill="none" stroke="midnightblue" d="M521.701,-1056.06C540.025,-1057.96 559.567,-1059.99 577.908,-1061.9"/>
<polygon fill="midnightblue" stroke="midnightblue" points="521.969,-1052.57 511.661,-1055.02 521.246,-1059.54 521.969,-1052.57"/>
</g>
<!-- Node16 -->
<g id="node16" class="node"><title>Node16</title>
<g id="a_node16"><a xlink:href="../../d0/d05/classparser_1_1commands_1_1other_1_1_do_times.html" target="_top" xlink:title="parser.commands.other.Do\lTimes">
<polygon fill="white" stroke="black" points="583,-1011 583,-1041 731,-1041 731,-1011 583,-1011"/>
<text text-anchor="start" x="591" y="-1029" font-family="Helvetica,sans-Serif" font-size="10.00">parser.commands.other.Do</text>
<text text-anchor="middle" x="657" y="-1018" font-family="Helvetica,sans-Serif" font-size="10.00">Times</text>
</a>
</g>
</g>
<!-- Node4&#45;&gt;Node16 -->
<g id="edge15" class="edge"><title>Node4&#45;&gt;Node16</title>
<path fill="none" stroke="midnightblue" d="M521.641,-1039.94C541.605,-1037.87 563.017,-1035.65 582.751,-1033.6"/>
<polygon fill="midnightblue" stroke="midnightblue" points="521.246,-1036.46 511.661,-1040.98 521.969,-1043.43 521.246,-1036.46"/>
</g>
<!-- Node17 -->
<g id="node17" class="node"><title>Node17</title>
<g id="a_node17"><a xlink:href="../../de/df8/classparser_1_1commands_1_1other_1_1_for.html" target="_top" xlink:title="parser.commands.other.For">
<polygon fill="white" stroke="black" points="582.5,-972.5 582.5,-991.5 731.5,-991.5 731.5,-972.5 582.5,-972.5"/>
<text text-anchor="middle" x="657" y="-979.5" font-family="Helvetica,sans-Serif" font-size="10.00">parser.commands.other.For</text>
</a>
</g>
</g>
<!-- Node4&#45;&gt;Node17 -->
<g id="edge16" class="edge"><title>Node4&#45;&gt;Node17</title>
<path fill="none" stroke="midnightblue" d="M471.774,-1033.8C493.2,-1023.37 523.84,-1009.57 552,-1001 564.379,-997.231 577.827,-994.096 590.816,-991.533"/>
<polygon fill="midnightblue" stroke="midnightblue" points="470.033,-1030.75 462.619,-1038.32 473.135,-1037.03 470.033,-1030.75"/>
</g>
<!-- Node18 -->
<g id="node18" class="node"><title>Node18</title>
<g id="a_node18"><a xlink:href="../../de/dd8/classparser_1_1commands_1_1other_1_1_if.html" target="_top" xlink:title="parser.commands.other.If">
<polygon fill="white" stroke="black" points="587,-934.5 587,-953.5 727,-953.5 727,-934.5 587,-934.5"/>
<text text-anchor="middle" x="657" y="-941.5" font-family="Helvetica,sans-Serif" font-size="10.00">parser.commands.other.If</text>
</a>
</g>
</g>
<!-- Node4&#45;&gt;Node18 -->
<g id="edge17" class="edge"><title>Node4&#45;&gt;Node18</title>
<path fill="none" stroke="midnightblue" d="M460.294,-1030.88C480.053,-1011.22 515.296,-979.556 552,-963 562.875,-958.095 574.933,-954.455 586.871,-951.755"/>
<polygon fill="midnightblue" stroke="midnightblue" points="457.561,-1028.67 453.045,-1038.25 462.552,-1033.57 457.561,-1028.67"/>
</g>
<!-- Node19 -->
<g id="node19" class="node"><title>Node19</title>
<g id="a_node19"><a xlink:href="../../d6/d87/classparser_1_1commands_1_1other_1_1_make.html" target="_top" xlink:title="parser.commands.other.Make">
<polygon fill="white" stroke="black" points="577,-896.5 577,-915.5 737,-915.5 737,-896.5 577,-896.5"/>
<text text-anchor="middle" x="657" y="-903.5" font-family="Helvetica,sans-Serif" font-size="10.00">parser.commands.other.Make</text>
</a>
</g>
</g>
<!-- Node4&#45;&gt;Node19 -->
<g id="edge18" class="edge"><title>Node4&#45;&gt;Node19</title>
<path fill="none" stroke="midnightblue" d="M454.441,-1029.72C471.208,-1002.18 506.881,-950.563 552,-925 559.665,-920.657 568.112,-917.275 576.779,-914.646"/>
<polygon fill="midnightblue" stroke="midnightblue" points="451.4,-1027.99 449.315,-1038.37 457.423,-1031.55 451.4,-1027.99"/>
</g>
<!-- Node20 -->
<g id="node20" class="node"><title>Node20</title>
<g id="a_node20"><a xlink:href="../../d9/de0/classparser_1_1commands_1_1other_1_1_repeat.html" target="_top" xlink:title="parser.commands.other.Repeat">
<polygon fill="white" stroke="black" points="573.5,-858.5 573.5,-877.5 740.5,-877.5 740.5,-858.5 573.5,-858.5"/>
<text text-anchor="middle" x="657" y="-865.5" font-family="Helvetica,sans-Serif" font-size="10.00">parser.commands.other.Repeat</text>
</a>
</g>
</g>
<!-- Node4&#45;&gt;Node20 -->
<g id="edge19" class="edge"><title>Node4&#45;&gt;Node20</title>
<path fill="none" stroke="midnightblue" d="M450.907,-1029.07C464.503,-994.686 498.177,-922.288 552,-887 558.524,-882.723 565.747,-879.342 573.259,-876.679"/>
<polygon fill="midnightblue" stroke="midnightblue" points="447.629,-1027.84 447.333,-1038.43 454.168,-1030.34 447.629,-1027.84"/>
</g>
<!-- Node21 -->
<g id="node21" class="node"><title>Node21</title>
<g id="a_node21"><a xlink:href="../../d2/d73/classparser_1_1commands_1_1turtle_1_1commands_1_1_set_position.html" target="_top" xlink:title="parser.commands.turtle.commands.\lSetPosition">
<polygon fill="white" stroke="black" points="561,-809 561,-839 753,-839 753,-809 561,-809"/>
<text text-anchor="start" x="569" y="-827" font-family="Helvetica,sans-Serif" font-size="10.00">parser.commands.turtle.commands.</text>
<text text-anchor="middle" x="657" y="-816" font-family="Helvetica,sans-Serif" font-size="10.00">SetPosition</text>
</a>
</g>
</g>
<!-- Node4&#45;&gt;Node21 -->
<g id="edge20" class="edge"><title>Node4&#45;&gt;Node21</title>
<path fill="none" stroke="midnightblue" d="M448.857,-1028.38C459.881,-988.133 490.724,-896.042 552,-849 557.008,-845.155 562.52,-841.891 568.315,-839.12"/>
<polygon fill="midnightblue" stroke="midnightblue" points="445.413,-1027.72 446.265,-1038.28 452.184,-1029.5 445.413,-1027.72"/>
</g>
<!-- Node22 -->
<g id="node22" class="node"><title>Node22</title>
<g id="a_node22"><a xlink:href="../../dd/d31/classparser_1_1commands_1_1turtle_1_1commands_1_1_towards.html" target="_top" xlink:title="parser.commands.turtle.commands.\lTowards">
<polygon fill="white" stroke="black" points="561,-760 561,-790 753,-790 753,-760 561,-760"/>
<text text-anchor="start" x="569" y="-778" font-family="Helvetica,sans-Serif" font-size="10.00">parser.commands.turtle.commands.</text>
<text text-anchor="middle" x="657" y="-767" font-family="Helvetica,sans-Serif" font-size="10.00">Towards</text>
</a>
</g>
</g>
<!-- Node4&#45;&gt;Node22 -->
<g id="edge21" class="edge"><title>Node4&#45;&gt;Node22</title>
<path fill="none" stroke="midnightblue" d="M446.54,-1028.12C453.702,-980.648 478.561,-860.129 552,-799 556.13,-795.562 560.659,-792.595 565.444,-790.037"/>
<polygon fill="midnightblue" stroke="midnightblue" points="443.036,-1027.9 445.112,-1038.29 449.968,-1028.88 443.036,-1027.9"/>
</g>
<!-- Node23 -->
<g id="node23" class="node"><title>Node23</title>
<g id="a_node23"><a xlink:href="../../d5/d6d/classparser_1_1commands_1_1workspace_1_1_ask.html" target="_top" xlink:title="parser.commands.workspace.Ask">
<polygon fill="white" stroke="black" points="568.5,-721.5 568.5,-740.5 745.5,-740.5 745.5,-721.5 568.5,-721.5"/>
<text text-anchor="middle" x="657" y="-728.5" font-family="Helvetica,sans-Serif" font-size="10.00">parser.commands.workspace.Ask</text>
</a>
</g>
</g>
<!-- Node4&#45;&gt;Node23 -->
<g id="edge22" class="edge"><title>Node4&#45;&gt;Node23</title>
<path fill="none" stroke="midnightblue" d="M444.76,-1028.1C447.966,-974.087 464.699,-823.817 552,-750 556.905,-745.852 562.414,-742.483 568.268,-739.758"/>
<polygon fill="midnightblue" stroke="midnightblue" points="441.25,-1028.21 444.25,-1038.37 448.242,-1028.56 441.25,-1028.21"/>
</g>
<!-- Node24 -->
<g id="node24" class="node"><title>Node24</title>
<g id="a_node24"><a xlink:href="../../db/d77/classparser_1_1commands_1_1workspace_1_1_ask_with.html" target="_top" xlink:title="parser.commands.workspace.\lAskWith">
<polygon fill="white" stroke="black" points="577,-672 577,-702 737,-702 737,-672 577,-672"/>
<text text-anchor="start" x="585" y="-690" font-family="Helvetica,sans-Serif" font-size="10.00">parser.commands.workspace.</text>
<text text-anchor="middle" x="657" y="-679" font-family="Helvetica,sans-Serif" font-size="10.00">AskWith</text>
</a>
</g>
</g>
<!-- Node4&#45;&gt;Node24 -->
<g id="edge23" class="edge"><title>Node4&#45;&gt;Node24</title>
<path fill="none" stroke="midnightblue" d="M444.061,-1028.22C445.369,-970.306 457.453,-799.701 552,-712 559.148,-705.37 567.738,-700.408 576.878,-696.708"/>
<polygon fill="midnightblue" stroke="midnightblue" points="440.562,-1028.19 443.922,-1038.24 447.561,-1028.29 440.562,-1028.19"/>
</g>
<!-- Node25 -->
<g id="node25" class="node"><title>Node25</title>
<g id="a_node25"><a xlink:href="../../d5/dba/classparser_1_1nodes_1_1_ternary_node.html" target="_top" xlink:title="parser.nodes.TernaryNode">
<polygon fill="white" stroke="black" points="586,-633.5 586,-652.5 728,-652.5 728,-633.5 586,-633.5"/>
<text text-anchor="middle" x="657" y="-640.5" font-family="Helvetica,sans-Serif" font-size="10.00">parser.nodes.TernaryNode</text>
</a>
</g>
</g>
<!-- Node4&#45;&gt;Node25 -->
<g id="edge24" class="edge"><title>Node4&#45;&gt;Node25</title>
<path fill="none" stroke="midnightblue" d="M446.75,-1028.24C457.099,-956.739 495.993,-713.072 552,-662 561.426,-653.405 573.399,-648.076 585.841,-644.874"/>
<polygon fill="midnightblue" stroke="midnightblue" points="443.279,-1027.78 445.335,-1038.18 450.209,-1028.77 443.279,-1027.78"/>
</g>
<!-- Node26 -->
<g id="node26" class="node"><title>Node26</title>
<g id="a_node26"><a xlink:href="../../d6/dbc/classparser_1_1commands_1_1other_1_1_if_else.html" target="_top" xlink:title="parser.commands.other.IfElse">
<polygon fill="white" stroke="black" points="798.5,-652.5 798.5,-671.5 957.5,-671.5 957.5,-652.5 798.5,-652.5"/>
<text text-anchor="middle" x="878" y="-659.5" font-family="Helvetica,sans-Serif" font-size="10.00">parser.commands.other.IfElse</text>
</a>
</g>
</g>
<!-- Node25&#45;&gt;Node26 -->
<g id="edge25" class="edge"><title>Node25&#45;&gt;Node26</title>
<path fill="none" stroke="midnightblue" d="M738.322,-649.969C757.947,-651.671 778.921,-653.491 798.462,-655.186"/>
<polygon fill="midnightblue" stroke="midnightblue" points="738.462,-646.468 728.197,-649.09 737.857,-653.441 738.462,-646.468"/>
</g>
<!-- Node27 -->
<g id="node27" class="node"><title>Node27</title>
<g id="a_node27"><a xlink:href="../../dc/d8b/classparser_1_1commands_1_1other_1_1_to.html" target="_top" xlink:title="parser.commands.other.To">
<polygon fill="white" stroke="black" points="806,-614.5 806,-633.5 950,-633.5 950,-614.5 806,-614.5"/>
<text text-anchor="middle" x="878" y="-621.5" font-family="Helvetica,sans-Serif" font-size="10.00">parser.commands.other.To</text>
</a>
</g>
</g>
<!-- Node25&#45;&gt;Node27 -->
<g id="edge26" class="edge"><title>Node25&#45;&gt;Node27</title>
<path fill="none" stroke="midnightblue" d="M738.216,-636.041C760.317,-634.123 784.137,-632.057 805.697,-630.186"/>
<polygon fill="midnightblue" stroke="midnightblue" points="737.857,-632.559 728.197,-636.91 738.462,-639.532 737.857,-632.559"/>
</g>
<!-- Node29 -->
<g id="node29" class="node"><title>Node29</title>
<g id="a_node29"><a xlink:href="../../da/d3d/classparser_1_1commands_1_1bool_1_1_not.html" target="_top" xlink:title="parser.commands.bool.Not">
<polygon fill="white" stroke="black" points="583.5,-595.5 583.5,-614.5 730.5,-614.5 730.5,-595.5 583.5,-595.5"/>
<text text-anchor="middle" x="657" y="-602.5" font-family="Helvetica,sans-Serif" font-size="10.00">parser.commands.bool.Not</text>
</a>
</g>
</g>
<!-- Node28&#45;&gt;Node29 -->
<g id="edge28" class="edge"><title>Node28&#45;&gt;Node29</title>
<path fill="none" stroke="midnightblue" d="M446.709,-367.556C454.195,-413.66 479.633,-529.516 552,-586 561.115,-593.115 572.043,-597.878 583.338,-601.017"/>
<polygon fill="midnightblue" stroke="midnightblue" points="450.166,-367.009 445.207,-357.646 443.245,-368.058 450.166,-367.009"/>
</g>
<!-- Node30 -->
<g id="node30" class="node"><title>Node30</title>
<g id="a_node30"><a xlink:href="../../d0/dd3/classparser_1_1commands_1_1math_1_1_minus.html" target="_top" xlink:title="parser.commands.math.Minus">
<polygon fill="white" stroke="black" points="575.5,-557.5 575.5,-576.5 738.5,-576.5 738.5,-557.5 575.5,-557.5"/>
<text text-anchor="middle" x="657" y="-564.5" font-family="Helvetica,sans-Serif" font-size="10.00">parser.commands.math.Minus</text>
</a>
</g>
</g>
<!-- Node28&#45;&gt;Node30 -->
<g id="edge29" class="edge"><title>Node28&#45;&gt;Node30</title>
<path fill="none" stroke="midnightblue" d="M448.552,-367.728C459.07,-408.56 489.12,-502.328 552,-548 559.054,-553.124 567.071,-557 575.45,-559.915"/>
<polygon fill="midnightblue" stroke="midnightblue" points="451.925,-366.787 446.141,-357.91 445.127,-368.456 451.925,-366.787"/>
</g>
<!-- Node31 -->
<g id="node31" class="node"><title>Node31</title>
<g id="a_node31"><a xlink:href="../../dd/db0/classparser_1_1commands_1_1math_1_1_random.html" target="_top" xlink:title="parser.commands.math.Random">
<polygon fill="white" stroke="black" points="569.5,-519.5 569.5,-538.5 744.5,-538.5 744.5,-519.5 569.5,-519.5"/>
<text text-anchor="middle" x="657" y="-526.5" font-family="Helvetica,sans-Serif" font-size="10.00">parser.commands.math.Random</text>
</a>
</g>
</g>
<!-- Node28&#45;&gt;Node31 -->
<g id="edge30" class="edge"><title>Node28&#45;&gt;Node31</title>
<path fill="none" stroke="midnightblue" d="M450.939,-366.884C464.586,-401.187 498.341,-473.463 552,-509 558.515,-513.315 565.733,-516.748 573.241,-519.474"/>
<polygon fill="midnightblue" stroke="midnightblue" points="454.203,-365.62 447.349,-357.54 447.668,-368.13 454.203,-365.62"/>
</g>
<!-- Node32 -->
<g id="node32" class="node"><title>Node32</title>
<g id="a_node32"><a xlink:href="../../db/d45/classparser_1_1commands_1_1turtle_1_1commands_1_1_backward.html" target="_top" xlink:title="parser.commands.turtle.commands.\lBackward">
<polygon fill="white" stroke="black" points="561,-470 561,-500 753,-500 753,-470 561,-470"/>
<text text-anchor="start" x="569" y="-488" font-family="Helvetica,sans-Serif" font-size="10.00">parser.commands.turtle.commands.</text>
<text text-anchor="middle" x="657" y="-477" font-family="Helvetica,sans-Serif" font-size="10.00">Backward</text>
</a>
</g>
</g>
<!-- Node28&#45;&gt;Node32 -->
<g id="edge31" class="edge"><title>Node28&#45;&gt;Node32</title>
<path fill="none" stroke="midnightblue" d="M456.04,-365.778C473.946,-390.789 510.03,-435.984 552,-460 558.769,-463.874 566.117,-467.149 573.671,-469.918"/>
<polygon fill="midnightblue" stroke="midnightblue" points="458.887,-363.742 450.288,-357.554 453.151,-367.754 458.887,-363.742"/>
</g>
<!-- Node33 -->
<g id="node33" class="node"><title>Node33</title>
<g id="a_node33"><a xlink:href="../../de/d5d/classparser_1_1commands_1_1turtle_1_1commands_1_1_forward.html" target="_top" xlink:title="parser.commands.turtle.commands.\lForward">
<polygon fill="white" stroke="black" points="561,-421 561,-451 753,-451 753,-421 561,-421"/>
<text text-anchor="start" x="569" y="-439" font-family="Helvetica,sans-Serif" font-size="10.00">parser.commands.turtle.commands.</text>
<text text-anchor="middle" x="657" y="-428" font-family="Helvetica,sans-Serif" font-size="10.00">Forward</text>
</a>
</g>
</g>
<!-- Node28&#45;&gt;Node33 -->
<g id="edge32" class="edge"><title>Node28&#45;&gt;Node33</title>
<path fill="none" stroke="midnightblue" d="M465.857,-363.334C487.007,-377.533 520.417,-398.312 552,-411 561.391,-414.773 571.497,-418.072 581.588,-420.929"/>
<polygon fill="midnightblue" stroke="midnightblue" points="467.551,-360.253 457.318,-357.51 463.607,-366.036 467.551,-360.253"/>
</g>
<!-- Node34 -->
<g id="node34" class="node"><title>Node34</title>
<g id="a_node34"><a xlink:href="../../de/dc8/classparser_1_1commands_1_1turtle_1_1commands_1_1_left.html" target="_top" xlink:title="parser.commands.turtle.commands.Left">
<polygon fill="white" stroke="black" points="552,-382.5 552,-401.5 762,-401.5 762,-382.5 552,-382.5"/>
<text text-anchor="middle" x="657" y="-389.5" font-family="Helvetica,sans-Serif" font-size="10.00">parser.commands.turtle.commands.Left</text>
</a>
</g>
</g>
<!-- Node28&#45;&gt;Node34 -->
<g id="edge33" class="edge"><title>Node28&#45;&gt;Node34</title>
<path fill="none" stroke="midnightblue" d="M495.431,-359.745C513.314,-363.745 533.519,-368.17 552,-372 569.194,-375.563 588.032,-379.251 604.896,-382.475"/>
<polygon fill="midnightblue" stroke="midnightblue" points="496.005,-356.287 485.481,-357.51 494.471,-363.117 496.005,-356.287"/>
</g>
<!-- Node35 -->
<g id="node35" class="node"><title>Node35</title>
<g id="a_node35"><a xlink:href="../../dc/d11/classparser_1_1commands_1_1turtle_1_1commands_1_1_nothing.html" target="_top" xlink:title="parser.commands.turtle.commands.\lNothing">
<polygon fill="white" stroke="black" points="561,-333 561,-363 753,-363 753,-333 561,-333"/>
<text text-anchor="start" x="569" y="-351" font-family="Helvetica,sans-Serif" font-size="10.00">parser.commands.turtle.commands.</text>
<text text-anchor="middle" x="657" y="-340" font-family="Helvetica,sans-Serif" font-size="10.00">Nothing</text>
</a>
</g>
</g>
<!-- Node28&#45;&gt;Node35 -->
<g id="edge34" class="edge"><title>Node28&#45;&gt;Node35</title>
<path fill="none" stroke="midnightblue" d="M521.22,-348C534.048,-348 547.485,-348 560.698,-348"/>
<polygon fill="midnightblue" stroke="midnightblue" points="521.078,-344.5 511.078,-348 521.078,-351.5 521.078,-344.5"/>
</g>
<!-- Node36 -->
<g id="node36" class="node"><title>Node36</title>
<g id="a_node36"><a xlink:href="../../d4/d1b/classparser_1_1commands_1_1turtle_1_1commands_1_1_right.html" target="_top" xlink:title="parser.commands.turtle.commands.\lRight">
<polygon fill="white" stroke="black" points="561,-284 561,-314 753,-314 753,-284 561,-284"/>
<text text-anchor="start" x="569" y="-302" font-family="Helvetica,sans-Serif" font-size="10.00">parser.commands.turtle.commands.</text>
<text text-anchor="middle" x="657" y="-291" font-family="Helvetica,sans-Serif" font-size="10.00">Right</text>
</a>
</g>
</g>
<!-- Node28&#45;&gt;Node36 -->
<g id="edge35" class="edge"><title>Node28&#45;&gt;Node36</title>
<path fill="none" stroke="midnightblue" d="M494.785,-336.237C512.847,-332.055 533.331,-327.315 552,-323 564.548,-320.1 577.947,-317.006 590.812,-314.036"/>
<polygon fill="midnightblue" stroke="midnightblue" points="493.979,-332.831 485.026,-338.496 495.558,-339.65 493.979,-332.831"/>
</g>
<!-- Node37 -->
<g id="node37" class="node"><title>Node37</title>
<g id="a_node37"><a xlink:href="../../d3/da6/classparser_1_1commands_1_1turtle_1_1commands_1_1_set_heading.html" target="_top" xlink:title="parser.commands.turtle.commands.\lSetHeading">
<polygon fill="white" stroke="black" points="561,-235 561,-265 753,-265 753,-235 561,-235"/>
<text text-anchor="start" x="569" y="-253" font-family="Helvetica,sans-Serif" font-size="10.00">parser.commands.turtle.commands.</text>
<text text-anchor="middle" x="657" y="-242" font-family="Helvetica,sans-Serif" font-size="10.00">SetHeading</text>
</a>
</g>
</g>
<!-- Node28&#45;&gt;Node37 -->
<g id="edge36" class="edge"><title>Node28&#45;&gt;Node37</title>
<path fill="none" stroke="midnightblue" d="M462.737,-331.889C483.304,-315.022 517.948,-288.953 552,-274 559.805,-270.573 568.162,-267.603 576.622,-265.036"/>
<polygon fill="midnightblue" stroke="midnightblue" points="460.259,-329.398 454.827,-338.495 464.746,-334.771 460.259,-329.398"/>
</g>
<!-- Node38 -->
<g id="node38" class="node"><title>Node38</title>
<g id="a_node38"><a xlink:href="../../d3/d01/classparser_1_1commands_1_1turtle_1_1commands_1_1_set_pen_color.html" target="_top" xlink:title="parser.commands.turtle.commands.\lSetPenColor">
<polygon fill="white" stroke="black" points="561,-186 561,-216 753,-216 753,-186 561,-186"/>
<text text-anchor="start" x="569" y="-204" font-family="Helvetica,sans-Serif" font-size="10.00">parser.commands.turtle.commands.</text>
<text text-anchor="middle" x="657" y="-193" font-family="Helvetica,sans-Serif" font-size="10.00">SetPenColor</text>
</a>
</g>
</g>
<!-- Node28&#45;&gt;Node38 -->
<g id="edge37" class="edge"><title>Node28&#45;&gt;Node38</title>
<path fill="none" stroke="midnightblue" d="M454.841,-329.574C471.906,-302.274 507.7,-251.466 552,-225 557.806,-221.531 564.071,-218.564 570.545,-216.025"/>
<polygon fill="midnightblue" stroke="midnightblue" points="451.817,-327.81 449.603,-338.171 457.795,-331.453 451.817,-327.81"/>
</g>
<!-- Node39 -->
<g id="node39" class="node"><title>Node39</title>
<g id="a_node39"><a xlink:href="../../d5/d8a/classparser_1_1commands_1_1turtle_1_1commands_1_1_set_pen_size.html" target="_top" xlink:title="parser.commands.turtle.commands.\lSetPenSize">
<polygon fill="white" stroke="black" points="561,-137 561,-167 753,-167 753,-137 561,-137"/>
<text text-anchor="start" x="569" y="-155" font-family="Helvetica,sans-Serif" font-size="10.00">parser.commands.turtle.commands.</text>
<text text-anchor="middle" x="657" y="-144" font-family="Helvetica,sans-Serif" font-size="10.00">SetPenSize</text>
</a>
</g>
</g>
<!-- Node28&#45;&gt;Node39 -->
<g id="edge38" class="edge"><title>Node28&#45;&gt;Node39</title>
<path fill="none" stroke="midnightblue" d="M450.507,-328.555C463.627,-292.475 496.805,-215.276 552,-176 556.831,-172.562 562.08,-169.609 567.566,-167.072"/>
<polygon fill="midnightblue" stroke="midnightblue" points="447.081,-327.749 447.077,-338.344 453.687,-330.064 447.081,-327.749"/>
</g>
<!-- Node40 -->
<g id="node40" class="node"><title>Node40</title>
<g id="a_node40"><a xlink:href="../../d2/d5a/classparser_1_1commands_1_1turtle_1_1commands_1_1_set_shape.html" target="_top" xlink:title="parser.commands.turtle.commands.\lSetShape">
<polygon fill="white" stroke="black" points="561,-88 561,-118 753,-118 753,-88 561,-88"/>
<text text-anchor="start" x="569" y="-106" font-family="Helvetica,sans-Serif" font-size="10.00">parser.commands.turtle.commands.</text>
<text text-anchor="middle" x="657" y="-95" font-family="Helvetica,sans-Serif" font-size="10.00">SetShape</text>
</a>
</g>
</g>
<!-- Node28&#45;&gt;Node40 -->
<g id="edge39" class="edge"><title>Node28&#45;&gt;Node40</title>
<path fill="none" stroke="midnightblue" d="M447.696,-328.283C456.936,-284.741 485.261,-180.039 552,-127 556.352,-123.541 561.112,-120.564 566.125,-118.002"/>
<polygon fill="midnightblue" stroke="midnightblue" points="444.244,-327.696 445.705,-338.19 451.107,-329.076 444.244,-327.696"/>
</g>
<!-- Node41 -->
<g id="node41" class="node"><title>Node41</title>
<g id="a_node41"><a xlink:href="../../da/dbd/classparser_1_1commands_1_1view_1_1_set_background.html" target="_top" xlink:title="parser.commands.view.Set\lBackground">
<polygon fill="white" stroke="black" points="584,-39 584,-69 730,-69 730,-39 584,-39"/>
<text text-anchor="start" x="592" y="-57" font-family="Helvetica,sans-Serif" font-size="10.00">parser.commands.view.Set</text>
<text text-anchor="middle" x="657" y="-46" font-family="Helvetica,sans-Serif" font-size="10.00">Background</text>
</a>
</g>
</g>
<!-- Node28&#45;&gt;Node41 -->
<g id="edge40" class="edge"><title>Node28&#45;&gt;Node41</title>
<path fill="none" stroke="midnightblue" d="M445.792,-328.162C451.427,-278.01 473.403,-145.358 552,-78 561.146,-70.1623 572.352,-64.7574 583.982,-61.0552"/>
<polygon fill="midnightblue" stroke="midnightblue" points="442.29,-328.006 444.753,-338.311 449.253,-328.719 442.29,-328.006"/>
</g>
<!-- Node42 -->
<g id="node42" class="node"><title>Node42</title>
<g id="a_node42"><a xlink:href="../../de/d96/classparser_1_1commands_1_1workspace_1_1_tell.html" target="_top" xlink:title="parser.commands.workspace.Tell">
<polygon fill="white" stroke="black" points="570,-0.5 570,-19.5 744,-19.5 744,-0.5 570,-0.5"/>
<text text-anchor="middle" x="657" y="-7.5" font-family="Helvetica,sans-Serif" font-size="10.00">parser.commands.workspace.Tell</text>
</a>
</g>
</g>
<!-- Node28&#45;&gt;Node42 -->
<g id="edge41" class="edge"><title>Node28&#45;&gt;Node42</title>
<path fill="none" stroke="midnightblue" d="M444.219,-328.226C445.99,-271.827 459.279,-109.104 552,-29 557.347,-24.3803 563.438,-20.7205 569.929,-17.8361"/>
<polygon fill="midnightblue" stroke="midnightblue" points="440.718,-328.231 443.995,-338.307 447.716,-328.387 440.718,-328.231"/>
</g>
</g>
</svg>
        <g id="navigator" transform="translate(0 0)" fill="#404254">
                <rect fill="#f2f5e9" fill-opacity="0.5" stroke="#606060" stroke-width=".5" x="0" y="0" width="60" height="60"/>
                <use id="zoomplus" xlink:href="#zoomPlus" x="17" y="9" onmousedown="handleZoom(evt,'in')"/>
                <use id="zoomminus" xlink:href="#zoomMin" x="42" y="9" onmousedown="handleZoom(evt,'out')"/>
                <use id="reset" xlink:href="#resetDef" x="30" y="36" onmousedown="handleReset()"/>
                <g id="arrowUp" xlink:href="#dirArrow" transform="translate(30 24)" onmousedown="handlePan(0,-1)">
                  <use xlink:href="#rim" fill="#404040">
                        <set attributeName="fill" to="#808080" begin="arrowUp.mouseover" end="arrowUp.mouseout"/>
                  </use>
                  <path fill="none" stroke="white" stroke-width="1.5" d="M0,-3.0v7 M-2.5,-0.5L0,-3.0L2.5,-0.5"/>
                </g>
                <g id="arrowRight" xlink:href="#dirArrow" transform="rotate(90) translate(36 -43)" onmousedown="handlePan(1,0)">
                  <use xlink:href="#rim" fill="#404040">
                        <set attributeName="fill" to="#808080" begin="arrowRight.mouseover" end="arrowRight.mouseout"/>
                  </use>
                  <path fill="none" stroke="white" stroke-width="1.5" d="M0,-3.0v7 M-2.5,-0.5L0,-3.0L2.5,-0.5"/>
                </g>
                <g id="arrowDown" xlink:href="#dirArrow" transform="rotate(180) translate(-30 -48)" onmousedown="handlePan(0,1)">
                  <use xlink:href="#rim" fill="#404040">
                        <set attributeName="fill" to="#808080" begin="arrowDown.mouseover" end="arrowDown.mouseout"/>
                  </use>
                  <path fill="none" stroke="white" stroke-width="1.5" d="M0,-3.0v7 M-2.5,-0.5L0,-3.0L2.5,-0.5"/>
                </g>
                <g id="arrowLeft" xlink:href="#dirArrow" transform="rotate(270) translate(-36 17)" onmousedown="handlePan(-1,0)">
                  <use xlink:href="#rim" fill="#404040">
                        <set attributeName="fill" to="#808080" begin="arrowLeft.mouseover" end="arrowLeft.mouseout"/>
                  </use>
                  <path fill="none" stroke="white" stroke-width="1.5" d="M0,-3.0v7 M-2.5,-0.5L0,-3.0L2.5,-0.5"/>
                </g>
        </g>
        <svg viewBox="0 0 15 15" width="100%" height="30px" preserveAspectRatio="xMaxYMin meet">
         <g id="arrow_out" transform="scale(0.3 0.3)">
          <a xlink:href="classparser_1_1nodes_1_1_parameter_node__inherit__graph_org.svg" target="_base">
           <rect id="button" ry="5" rx="5" y="6" x="6" height="38" width="38"
                fill="#f2f5e9" fill-opacity="0.5" stroke="#606060" stroke-width="1.0"/>
           <path id="arrow"
             d="M 11.500037,31.436501 C 11.940474,20.09759 22.043105,11.32322 32.158766,21.979434 L 37.068811,17.246167 C 37.068811,17.246167 37.088388,32 37.088388,32 L 22.160133,31.978069 C 22.160133,31.978069 26.997745,27.140456 26.997745,27.140456 C 18.528582,18.264221 13.291696,25.230495 11.500037,31.436501 z"
             style="fill:#404040;"/>
          </a>
         </g>
        </svg>
</svg>
