<?xml version="1.0" encoding="UTF-8" standalone="no"?>
<!DOCTYPE svg PUBLIC "-//W3C//DTD SVG 1.1//EN"
 "http://www.w3.org/Graphics/SVG/1.1/DTD/svg11.dtd">
<!-- Generated by graphviz version 2.36.0 (20140111.2315)
 -->
<!-- Title: controller.Controller.createTellMenuListener Pages: 1 -->
<!--zoomable 370 -->
<svg id="main" version="1.1" xmlns="http://www.w3.org/2000/svg" xmlns:xlink="http://www.w3.org/1999/xlink" xml:space="preserve" onload="init(evt)">
<style type="text/css"><![CDATA[
.edge:hover path { stroke: red; }
.edge:hover polygon { stroke: red; fill: red; }
]]></style>
<script type="text/javascript"><![CDATA[
var edges = document.getElementsByTagName('g');
if (edges && edges.length) {
  for (var i=0;i<edges.length;i++) {
    if (edges[i].id.substr(0,4)=='edge') {
      edges[i].setAttribute('class','edge');
    }
  }
}
]]></script>
        <defs>
                <circle id="rim" cx="0" cy="0" r="7"/>
                <circle id="rim2" cx="0" cy="0" r="3.5"/>
                <g id="zoomPlus">
                        <use xlink:href="#rim" fill="#404040">
                                <set attributeName="fill" to="#808080" begin="zoomplus.mouseover" end="zoomplus.mouseout"/>
                        </use>
                        <path d="M-4,0h8M0,-4v8" fill="none" stroke="white" stroke-width="1.5" pointer-events="none"/>
                </g>
                <g id="zoomMin">
                        <use xlink:href="#rim" fill="#404040">
                                <set attributeName="fill" to="#808080" begin="zoomminus.mouseover" end="zoomminus.mouseout"/>
                        </use>
                        <path d="M-4,0h8" fill="none" stroke="white" stroke-width="1.5" pointer-events="none"/>
                </g>
                <g id="dirArrow">
                        <path fill="none" stroke="white" stroke-width="1.5" d="M0,-3.0v7 M-2.5,-0.5L0,-3.0L2.5,-0.5"/>
                </g>
               <g id="resetDef">
                       <use xlink:href="#rim2" fill="#404040">
                               <set attributeName="fill" to="#808080" begin="reset.mouseover" end="reset.mouseout"/>
                       </use>
               </g>
        </defs>

<script type="text/javascript">
var viewWidth = 1304;
var viewHeight = 370;
var sectionId = 'dynsection-23';
</script>
<script xlink:href="../../svgpan.js"/>
<svg id="graph" class="graph">
<g id="viewport">
<title>controller.Controller.createTellMenuListener</title>
<polygon fill="white" stroke="none" points="-4,4 -4,-366 1300,-366 1300,4 -4,4"/>
<!-- Node1 -->
<g id="node1" class="node"><title>Node1</title>
<polygon fill="#bfbfbf" stroke="black" points="0.5,-88 0.5,-118 143.5,-118 143.5,-88 0.5,-88"/>
<text text-anchor="start" x="8.5" y="-106" font-family="Helvetica,sans-Serif" font-size="10.00">controller.Controller.create</text>
<text text-anchor="middle" x="72" y="-95" font-family="Helvetica,sans-Serif" font-size="10.00">TellMenuListener</text>
</g>
<!-- Node2 -->
<g id="node2" class="node"><title>Node2</title>
<g id="a_node2"><a xlink:href="../../d9/df7/classcontroller_1_1_controller.html#acd242cba05fd983be695439ef2186966" target="_top" xlink:title="controller.Controller.create\lCheckBoxItemListener">
<polygon fill="white" stroke="black" points="191.5,-179 191.5,-209 334.5,-209 334.5,-179 191.5,-179"/>
<text text-anchor="start" x="199.5" y="-197" font-family="Helvetica,sans-Serif" font-size="10.00">controller.Controller.create</text>
<text text-anchor="middle" x="263" y="-186" font-family="Helvetica,sans-Serif" font-size="10.00">CheckBoxItemListener</text>
</a>
</g>
</g>
<!-- Node1&#45;&gt;Node2 -->
<g id="edge1" class="edge"><title>Node1&#45;&gt;Node2</title>
<path fill="none" stroke="midnightblue" d="M98.9536,-118.151C120.361,-130.384 151.702,-147.689 180,-161 190.418,-165.9 201.772,-170.763 212.619,-175.188"/>
<polygon fill="midnightblue" stroke="midnightblue" points="211.401,-178.471 221.985,-178.955 214.013,-171.976 211.401,-178.471"/>
</g>
<!-- Node15 -->
<g id="node15" class="node"><title>Node15</title>
<g id="a_node15"><a xlink:href="../../d9/df7/classcontroller_1_1_controller.html#a318978485f5c3bbf5a89f5dac0db71ae" target="_top" xlink:title="controller.Controller.get\lWorkspace">
<polygon fill="white" stroke="black" points="402,-132 402,-162 530,-162 530,-132 402,-132"/>
<text text-anchor="start" x="410" y="-150" font-family="Helvetica,sans-Serif" font-size="10.00">controller.Controller.get</text>
<text text-anchor="middle" x="466" y="-139" font-family="Helvetica,sans-Serif" font-size="10.00">Workspace</text>
</a>
</g>
</g>
<!-- Node1&#45;&gt;Node15 -->
<g id="edge21" class="edge"><title>Node1&#45;&gt;Node15</title>
<path fill="none" stroke="midnightblue" d="M132.691,-118.056C148.024,-121.464 164.554,-124.739 180,-127 251.53,-137.471 333.991,-142.502 391.751,-144.893"/>
<polygon fill="midnightblue" stroke="midnightblue" points="391.749,-148.396 401.88,-145.296 392.027,-141.401 391.749,-148.396"/>
</g>
<!-- Node17 -->
<g id="node17" class="node"><title>Node17</title>
<g id="a_node17"><a xlink:href="../../de/d84/classcontroller_1_1_workspace.html#a376960fdadb99029dd6585c07f3a33c0" target="_top" xlink:title="controller.Workspace.get\lAllTurtles">
<polygon fill="white" stroke="black" points="196,-88 196,-118 330,-118 330,-88 196,-88"/>
<text text-anchor="start" x="204" y="-106" font-family="Helvetica,sans-Serif" font-size="10.00">controller.Workspace.get</text>
<text text-anchor="middle" x="263" y="-95" font-family="Helvetica,sans-Serif" font-size="10.00">AllTurtles</text>
</a>
</g>
</g>
<!-- Node1&#45;&gt;Node17 -->
<g id="edge17" class="edge"><title>Node1&#45;&gt;Node17</title>
<path fill="none" stroke="midnightblue" d="M143.645,-103C157.398,-103 171.871,-103 185.794,-103"/>
<polygon fill="midnightblue" stroke="midnightblue" points="185.817,-106.5 195.817,-103 185.817,-99.5001 185.817,-106.5"/>
</g>
<!-- Node19 -->
<g id="node19" class="node"><title>Node19</title>
<g id="a_node19"><a xlink:href="../../de/d84/classcontroller_1_1_workspace.html#a463927ff3ea61d412cbee3a3b0b9d74f" target="_top" xlink:title="controller.Workspace.get\lTurtleManager">
<polygon fill="white" stroke="black" points="196,-39 196,-69 330,-69 330,-39 196,-39"/>
<text text-anchor="start" x="204" y="-57" font-family="Helvetica,sans-Serif" font-size="10.00">controller.Workspace.get</text>
<text text-anchor="middle" x="263" y="-46" font-family="Helvetica,sans-Serif" font-size="10.00">TurtleManager</text>
</a>
</g>
</g>
<!-- Node1&#45;&gt;Node19 -->
<g id="edge19" class="edge"><title>Node1&#45;&gt;Node19</title>
<path fill="none" stroke="midnightblue" d="M130.991,-87.9654C151.037,-82.7682 173.674,-76.8994 194.421,-71.5204"/>
<polygon fill="midnightblue" stroke="midnightblue" points="195.317,-74.9039 204.119,-69.0062 193.561,-68.1279 195.317,-74.9039"/>
</g>
<!-- Node20 -->
<g id="node20" class="node"><title>Node20</title>
<g id="a_node20"><a xlink:href="../../d8/dff/classmodel_1_1_turtle_manager.html#ae661b1676bacbdfac66e971c950e8cf3" target="_top" xlink:title="model.TurtleManager.getTurtles">
<polygon fill="white" stroke="black" points="180,-0.5 180,-19.5 346,-19.5 346,-0.5 180,-0.5"/>
<text text-anchor="middle" x="263" y="-7.5" font-family="Helvetica,sans-Serif" font-size="10.00">model.TurtleManager.getTurtles</text>
</a>
</g>
</g>
<!-- Node1&#45;&gt;Node20 -->
<g id="edge20" class="edge"><title>Node1&#45;&gt;Node20</title>
<path fill="none" stroke="midnightblue" d="M90.2973,-87.9184C110.48,-71.0981 145.504,-44.2553 180,-29 185.701,-26.4789 191.779,-24.2704 197.949,-22.3404"/>
<polygon fill="midnightblue" stroke="midnightblue" points="199.044,-25.6673 207.682,-19.5318 197.103,-18.9417 199.044,-25.6673"/>
</g>
<!-- Node3 -->
<g id="node3" class="node"><title>Node3</title>
<g id="a_node3"><a xlink:href="../../de/d84/classcontroller_1_1_workspace.html#abceb71fe227a560303f42bb77b0a1113" target="_top" xlink:title="controller.Workspace.activate\lTurtle">
<polygon fill="white" stroke="black" points="388,-230 388,-260 544,-260 544,-230 388,-230"/>
<text text-anchor="start" x="396" y="-248" font-family="Helvetica,sans-Serif" font-size="10.00">controller.Workspace.activate</text>
<text text-anchor="middle" x="466" y="-237" font-family="Helvetica,sans-Serif" font-size="10.00">Turtle</text>
</a>
</g>
</g>
<!-- Node2&#45;&gt;Node3 -->
<g id="edge2" class="edge"><title>Node2&#45;&gt;Node3</title>
<path fill="none" stroke="midnightblue" d="M323.219,-209.026C346.018,-214.81 372.246,-221.466 395.896,-227.466"/>
<polygon fill="midnightblue" stroke="midnightblue" points="395.303,-230.927 405.857,-229.994 397.025,-224.142 395.303,-230.927"/>
</g>
<!-- Node13 -->
<g id="node13" class="node"><title>Node13</title>
<g id="a_node13"><a xlink:href="../../de/d84/classcontroller_1_1_workspace.html#a497dad2e57c3d43cd971274660863e6c" target="_top" xlink:title="controller.Workspace.deactivate\lTurtle">
<polygon fill="white" stroke="black" points="382,-181 382,-211 550,-211 550,-181 382,-181"/>
<text text-anchor="start" x="390" y="-199" font-family="Helvetica,sans-Serif" font-size="10.00">controller.Workspace.deactivate</text>
<text text-anchor="middle" x="466" y="-188" font-family="Helvetica,sans-Serif" font-size="10.00">Turtle</text>
</a>
</g>
</g>
<!-- Node2&#45;&gt;Node13 -->
<g id="edge12" class="edge"><title>Node2&#45;&gt;Node13</title>
<path fill="none" stroke="midnightblue" d="M334.582,-194.702C346.513,-194.821 359.062,-194.946 371.469,-195.069"/>
<polygon fill="midnightblue" stroke="midnightblue" points="371.806,-198.573 381.841,-195.173 371.876,-191.573 371.806,-198.573"/>
</g>
<!-- Node2&#45;&gt;Node15 -->
<g id="edge15" class="edge"><title>Node2&#45;&gt;Node15</title>
<path fill="none" stroke="midnightblue" d="M328.15,-179C348.483,-174.245 371.109,-168.955 392.015,-164.066"/>
<polygon fill="midnightblue" stroke="midnightblue" points="392.862,-167.463 401.802,-161.778 391.268,-160.647 392.862,-167.463"/>
</g>
<!-- Node4 -->
<g id="node4" class="node"><title>Node4</title>
<g id="a_node4"><a xlink:href="../../d8/dff/classmodel_1_1_turtle_manager.html#a1c46b383a49e06a2436ad084bf7cd5aa" target="_top" xlink:title="model.TurtleManager.activate">
<polygon fill="white" stroke="black" points="592,-271.5 592,-290.5 750,-290.5 750,-271.5 592,-271.5"/>
<text text-anchor="middle" x="671" y="-278.5" font-family="Helvetica,sans-Serif" font-size="10.00">model.TurtleManager.activate</text>
</a>
</g>
</g>
<!-- Node3&#45;&gt;Node4 -->
<g id="edge3" class="edge"><title>Node3&#45;&gt;Node4</title>
<path fill="none" stroke="midnightblue" d="M544.035,-258.661C564.57,-262.303 586.526,-266.197 606.261,-269.697"/>
<polygon fill="midnightblue" stroke="midnightblue" points="605.902,-273.187 616.36,-271.487 607.124,-266.295 605.902,-273.187"/>
</g>
<!-- Node11 -->
<g id="node11" class="node"><title>Node11</title>
<g id="a_node11"><a xlink:href="../../de/d84/classcontroller_1_1_workspace.html#a06f94274c983b2edde00bcdc2b15f790" target="_top" xlink:title="controller.Workspace.update">
<polygon fill="white" stroke="black" points="595,-230.5 595,-249.5 747,-249.5 747,-230.5 595,-230.5"/>
<text text-anchor="middle" x="671" y="-237.5" font-family="Helvetica,sans-Serif" font-size="10.00">controller.Workspace.update</text>
</a>
</g>
</g>
<!-- Node3&#45;&gt;Node11 -->
<g id="edge10" class="edge"><title>Node3&#45;&gt;Node11</title>
<path fill="none" stroke="midnightblue" d="M544.035,-243.103C557.263,-242.777 571.081,-242.436 584.515,-242.106"/>
<polygon fill="midnightblue" stroke="midnightblue" points="584.786,-245.6 594.697,-241.855 584.613,-238.602 584.786,-245.6"/>
</g>
<!-- Node5 -->
<g id="node5" class="node"><title>Node5</title>
<g id="a_node5"><a xlink:href="../../d8/dff/classmodel_1_1_turtle_manager.html#a3d0172590b0214793dbd3997c56f7759" target="_top" xlink:title="model.TurtleManager.addNew">
<polygon fill="white" stroke="black" points="792,-315.5 792,-334.5 950,-334.5 950,-315.5 792,-315.5"/>
<text text-anchor="middle" x="871" y="-322.5" font-family="Helvetica,sans-Serif" font-size="10.00">model.TurtleManager.addNew</text>
</a>
</g>
</g>
<!-- Node4&#45;&gt;Node5 -->
<g id="edge4" class="edge"><title>Node4&#45;&gt;Node5</title>
<path fill="none" stroke="midnightblue" d="M714.963,-290.547C744.931,-297.207 785.114,-306.136 817.061,-313.236"/>
<polygon fill="midnightblue" stroke="midnightblue" points="816.6,-316.719 827.121,-315.471 818.118,-309.885 816.6,-316.719"/>
</g>
<!-- Node10 -->
<g id="node10" class="node"><title>Node10</title>
<g id="a_node10"><a xlink:href="../../d8/dff/classmodel_1_1_turtle_manager.html#a2c8eed018128d3a0be175415b36445d9" target="_top" xlink:title="model.TurtleManager.activate\lTurtle">
<polygon fill="white" stroke="black" points="792,-266 792,-296 950,-296 950,-266 792,-266"/>
<text text-anchor="start" x="800" y="-284" font-family="Helvetica,sans-Serif" font-size="10.00">model.TurtleManager.activate</text>
<text text-anchor="middle" x="871" y="-273" font-family="Helvetica,sans-Serif" font-size="10.00">Turtle</text>
</a>
</g>
</g>
<!-- Node4&#45;&gt;Node10 -->
<g id="edge9" class="edge"><title>Node4&#45;&gt;Node10</title>
<path fill="none" stroke="midnightblue" d="M750.255,-281C760.658,-281 771.381,-281 781.937,-281"/>
<polygon fill="midnightblue" stroke="midnightblue" points="781.989,-284.5 791.989,-281 781.989,-277.5 781.989,-284.5"/>
</g>
<!-- Node6 -->
<g id="node6" class="node"><title>Node6</title>
<g id="a_node6"><a xlink:href="../../d8/dff/classmodel_1_1_turtle_manager.html#a9831377a60a443edcedede2e809e36f4" target="_top" xlink:title="model.TurtleManager.create\lTurtle">
<polygon fill="white" stroke="black" points="986,-332 986,-362 1136,-362 1136,-332 986,-332"/>
<text text-anchor="start" x="994" y="-350" font-family="Helvetica,sans-Serif" font-size="10.00">model.TurtleManager.create</text>
<text text-anchor="middle" x="1061" y="-339" font-family="Helvetica,sans-Serif" font-size="10.00">Turtle</text>
</a>
</g>
</g>
<!-- Node5&#45;&gt;Node6 -->
<g id="edge5" class="edge"><title>Node5&#45;&gt;Node6</title>
<path fill="none" stroke="midnightblue" d="M950.096,-334.139C958.579,-335.132 967.241,-336.145 975.794,-337.146"/>
<polygon fill="midnightblue" stroke="midnightblue" points="975.427,-340.627 985.766,-338.313 976.241,-333.674 975.427,-340.627"/>
</g>
<!-- Node8 -->
<g id="node8" class="node"><title>Node8</title>
<g id="a_node8"><a xlink:href="../../d6/d34/classmodel_1_1_turtle.html#a65a22c7a1a7abfbc46a6f339479e7646" target="_top" xlink:title="model.Turtle.setStroke">
<polygon fill="white" stroke="black" points="998.5,-293.5 998.5,-312.5 1123.5,-312.5 1123.5,-293.5 998.5,-293.5"/>
<text text-anchor="middle" x="1061" y="-300.5" font-family="Helvetica,sans-Serif" font-size="10.00">model.Turtle.setStroke</text>
</a>
</g>
</g>
<!-- Node5&#45;&gt;Node8 -->
<g id="edge7" class="edge"><title>Node5&#45;&gt;Node8</title>
<path fill="none" stroke="midnightblue" d="M950.096,-315.861C962.832,-314.371 975.97,-312.833 988.537,-311.363"/>
<polygon fill="midnightblue" stroke="midnightblue" points="988.949,-314.838 998.474,-310.2 988.135,-307.886 988.949,-314.838"/>
</g>
<!-- Node7 -->
<g id="node7" class="node"><title>Node7</title>
<g id="a_node7"><a xlink:href="../../d6/d34/classmodel_1_1_turtle.html#a27ce4fa61b6e292b1cfff08d511e7fc4" target="_top" xlink:title="model.Turtle.setImage">
<polygon fill="white" stroke="black" points="1172.5,-337.5 1172.5,-356.5 1295.5,-356.5 1295.5,-337.5 1172.5,-337.5"/>
<text text-anchor="middle" x="1234" y="-344.5" font-family="Helvetica,sans-Serif" font-size="10.00">model.Turtle.setImage</text>
</a>
</g>
</g>
<!-- Node6&#45;&gt;Node7 -->
<g id="edge6" class="edge"><title>Node6&#45;&gt;Node7</title>
<path fill="none" stroke="midnightblue" d="M1136.01,-347C1144.7,-347 1153.56,-347 1162.2,-347"/>
<polygon fill="midnightblue" stroke="midnightblue" points="1162.24,-350.5 1172.24,-347 1162.24,-343.5 1162.24,-350.5"/>
</g>
<!-- Node9 -->
<g id="node9" class="node"><title>Node9</title>
<g id="a_node9"><a xlink:href="../../de/ded/classmodel_1_1_pen.html#a00c08e5bfc9d04986e0ff7ae4ceae10b" target="_top" xlink:title="model.Pen.setStroke">
<polygon fill="white" stroke="black" points="1175.5,-293.5 1175.5,-312.5 1292.5,-312.5 1292.5,-293.5 1175.5,-293.5"/>
<text text-anchor="middle" x="1234" y="-300.5" font-family="Helvetica,sans-Serif" font-size="10.00">model.Pen.setStroke</text>
</a>
</g>
</g>
<!-- Node8&#45;&gt;Node9 -->
<g id="edge8" class="edge"><title>Node8&#45;&gt;Node9</title>
<path fill="none" stroke="midnightblue" d="M1123.73,-303C1137.15,-303 1151.42,-303 1165.06,-303"/>
<polygon fill="midnightblue" stroke="midnightblue" points="1165.35,-306.5 1175.35,-303 1165.35,-299.5 1165.35,-306.5"/>
</g>
<!-- Node12 -->
<g id="node12" class="node"><title>Node12</title>
<g id="a_node12"><a xlink:href="../../d8/dff/classmodel_1_1_turtle_manager.html#a8679aef13c1e2b3d695b1467c2bb5e9f" target="_top" xlink:title="model.TurtleManager.update">
<polygon fill="white" stroke="black" points="794.5,-227.5 794.5,-246.5 947.5,-246.5 947.5,-227.5 794.5,-227.5"/>
<text text-anchor="middle" x="871" y="-234.5" font-family="Helvetica,sans-Serif" font-size="10.00">model.TurtleManager.update</text>
</a>
</g>
</g>
<!-- Node11&#45;&gt;Node12 -->
<g id="edge11" class="edge"><title>Node11&#45;&gt;Node12</title>
<path fill="none" stroke="midnightblue" d="M747.138,-238.862C759.189,-238.679 771.741,-238.489 784.022,-238.303"/>
<polygon fill="midnightblue" stroke="midnightblue" points="784.311,-241.799 794.257,-238.148 784.205,-234.8 784.311,-241.799"/>
</g>
<!-- Node13&#45;&gt;Node11 -->
<g id="edge14" class="edge"><title>Node13&#45;&gt;Node11</title>
<path fill="none" stroke="midnightblue" d="M536.293,-211.019C562.439,-216.686 591.766,-223.043 616.277,-228.356"/>
<polygon fill="midnightblue" stroke="midnightblue" points="615.599,-231.79 626.113,-230.488 617.082,-224.949 615.599,-231.79"/>
</g>
<!-- Node14 -->
<g id="node14" class="node"><title>Node14</title>
<g id="a_node14"><a xlink:href="../../d8/dff/classmodel_1_1_turtle_manager.html#a9d3fda35812c5961b645ebcc5cf0c77a" target="_top" xlink:title="model.TurtleManager.deactivate\lTurtle">
<polygon fill="white" stroke="black" points="586,-181 586,-211 756,-211 756,-181 586,-181"/>
<text text-anchor="start" x="594" y="-199" font-family="Helvetica,sans-Serif" font-size="10.00">model.TurtleManager.deactivate</text>
<text text-anchor="middle" x="671" y="-188" font-family="Helvetica,sans-Serif" font-size="10.00">Turtle</text>
</a>
</g>
</g>
<!-- Node13&#45;&gt;Node14 -->
<g id="edge13" class="edge"><title>Node13&#45;&gt;Node14</title>
<path fill="none" stroke="midnightblue" d="M550.154,-196C558.653,-196 567.33,-196 575.936,-196"/>
<polygon fill="midnightblue" stroke="midnightblue" points="575.99,-199.5 585.99,-196 575.99,-192.5 575.99,-199.5"/>
</g>
<!-- Node16 -->
<g id="node16" class="node"><title>Node16</title>
<g id="a_node16"><a xlink:href="../../dc/dbd/interfaceview_1_1_workspace_handler.html#ac88b6c9e5fb3ffa06ab3ef23b9ce2ae0" target="_top" xlink:title="view.WorkspaceHandler.get\lWorkspace">
<polygon fill="white" stroke="black" points="598,-132 598,-162 744,-162 744,-132 598,-132"/>
<text text-anchor="start" x="606" y="-150" font-family="Helvetica,sans-Serif" font-size="10.00">view.WorkspaceHandler.get</text>
<text text-anchor="middle" x="671" y="-139" font-family="Helvetica,sans-Serif" font-size="10.00">Workspace</text>
</a>
</g>
</g>
<!-- Node15&#45;&gt;Node16 -->
<g id="edge16" class="edge"><title>Node15&#45;&gt;Node16</title>
<path fill="none" stroke="midnightblue" d="M530.118,-147C548.271,-147 568.345,-147 587.485,-147"/>
<polygon fill="midnightblue" stroke="midnightblue" points="587.697,-150.5 597.697,-147 587.697,-143.5 587.697,-150.5"/>
</g>
<!-- Node18 -->
<g id="node18" class="node"><title>Node18</title>
<g id="a_node18"><a xlink:href="../../d8/dff/classmodel_1_1_turtle_manager.html#a5d4d01dd0d2fb3c5142614a74dee11af" target="_top" xlink:title="model.TurtleManager.getAll\lTurtles">
<polygon fill="white" stroke="black" points="393,-83 393,-113 539,-113 539,-83 393,-83"/>
<text text-anchor="start" x="401" y="-101" font-family="Helvetica,sans-Serif" font-size="10.00">model.TurtleManager.getAll</text>
<text text-anchor="middle" x="466" y="-90" font-family="Helvetica,sans-Serif" font-size="10.00">Turtles</text>
</a>
</g>
</g>
<!-- Node17&#45;&gt;Node18 -->
<g id="edge18" class="edge"><title>Node17&#45;&gt;Node18</title>
<path fill="none" stroke="midnightblue" d="M330.093,-101.356C346.928,-100.937 365.227,-100.482 382.759,-100.046"/>
<polygon fill="midnightblue" stroke="midnightblue" points="383.066,-103.539 392.976,-99.7917 382.892,-96.5415 383.066,-103.539"/>
</g>
</g>
</svg>
        <g id="navigator" transform="translate(0 0)" fill="#404254">
                <rect fill="#f2f5e9" fill-opacity="0.5" stroke="#606060" stroke-width=".5" x="0" y="0" width="60" height="60"/>
                <use id="zoomplus" xlink:href="#zoomPlus" x="17" y="9" onmousedown="handleZoom(evt,'in')"/>
                <use id="zoomminus" xlink:href="#zoomMin" x="42" y="9" onmousedown="handleZoom(evt,'out')"/>
                <use id="reset" xlink:href="#resetDef" x="30" y="36" onmousedown="handleReset()"/>
                <g id="arrowUp" xlink:href="#dirArrow" transform="translate(30 24)" onmousedown="handlePan(0,-1)">
                  <use xlink:href="#rim" fill="#404040">
                        <set attributeName="fill" to="#808080" begin="arrowUp.mouseover" end="arrowUp.mouseout"/>
                  </use>
                  <path fill="none" stroke="white" stroke-width="1.5" d="M0,-3.0v7 M-2.5,-0.5L0,-3.0L2.5,-0.5"/>
                </g>
                <g id="arrowRight" xlink:href="#dirArrow" transform="rotate(90) translate(36 -43)" onmousedown="handlePan(1,0)">
                  <use xlink:href="#rim" fill="#404040">
                        <set attributeName="fill" to="#808080" begin="arrowRight.mouseover" end="arrowRight.mouseout"/>
                  </use>
                  <path fill="none" stroke="white" stroke-width="1.5" d="M0,-3.0v7 M-2.5,-0.5L0,-3.0L2.5,-0.5"/>
                </g>
                <g id="arrowDown" xlink:href="#dirArrow" transform="rotate(180) translate(-30 -48)" onmousedown="handlePan(0,1)">
                  <use xlink:href="#rim" fill="#404040">
                        <set attributeName="fill" to="#808080" begin="arrowDown.mouseover" end="arrowDown.mouseout"/>
                  </use>
                  <path fill="none" stroke="white" stroke-width="1.5" d="M0,-3.0v7 M-2.5,-0.5L0,-3.0L2.5,-0.5"/>
                </g>
                <g id="arrowLeft" xlink:href="#dirArrow" transform="rotate(270) translate(-36 17)" onmousedown="handlePan(-1,0)">
                  <use xlink:href="#rim" fill="#404040">
                        <set attributeName="fill" to="#808080" begin="arrowLeft.mouseover" end="arrowLeft.mouseout"/>
                  </use>
                  <path fill="none" stroke="white" stroke-width="1.5" d="M0,-3.0v7 M-2.5,-0.5L0,-3.0L2.5,-0.5"/>
                </g>
        </g>
        <svg viewBox="0 0 15 15" width="100%" height="30px" preserveAspectRatio="xMaxYMin meet">
         <g id="arrow_out" transform="scale(0.3 0.3)">
          <a xlink:href="classcontroller_1_1_controller_a17d9d0474952b983548cde23a4e27134_cgraph_org.svg" target="_base">
           <rect id="button" ry="5" rx="5" y="6" x="6" height="38" width="38"
                fill="#f2f5e9" fill-opacity="0.5" stroke="#606060" stroke-width="1.0"/>
           <path id="arrow"
             d="M 11.500037,31.436501 C 11.940474,20.09759 22.043105,11.32322 32.158766,21.979434 L 37.068811,17.246167 C 37.068811,17.246167 37.088388,32 37.088388,32 L 22.160133,31.978069 C 22.160133,31.978069 26.997745,27.140456 26.997745,27.140456 C 18.528582,18.264221 13.291696,25.230495 11.500037,31.436501 z"
             style="fill:#404040;"/>
          </a>
         </g>
        </svg>
</svg>
