<?xml version="1.0" encoding="UTF-8" standalone="no"?>
<!DOCTYPE svg PUBLIC "-//W3C//DTD SVG 1.1//EN"
 "http://www.w3.org/Graphics/SVG/1.1/DTD/svg11.dtd">
<!-- Generated by graphviz version 2.36.0 (20140111.2315)
 -->
<!-- Title: controller.Controller.createRunCommandListener Pages: 1 -->
<!--zoomable 424 -->
<svg id="main" version="1.1" xmlns="http://www.w3.org/2000/svg" xmlns:xlink="http://www.w3.org/1999/xlink" xml:space="preserve" onload="init(evt)">
<style type="text/css"><![CDATA[
.edge:hover path { stroke: red; }
.edge:hover polygon { stroke: red; fill: red; }
]]></style>
<script type="text/javascript"><![CDATA[
var edges = document.getElementsByTagName('g');
if (edges && edges.length) {
  for (var i=0;i<edges.length;i++) {
    if (edges[i].id.substr(0,4)=='edge') {
      edges[i].setAttribute('class','edge');
    }
  }
}
]]></script>
        <defs>
                <circle id="rim" cx="0" cy="0" r="7"/>
                <circle id="rim2" cx="0" cy="0" r="3.5"/>
                <g id="zoomPlus">
                        <use xlink:href="#rim" fill="#404040">
                                <set attributeName="fill" to="#808080" begin="zoomplus.mouseover" end="zoomplus.mouseout"/>
                        </use>
                        <path d="M-4,0h8M0,-4v8" fill="none" stroke="white" stroke-width="1.5" pointer-events="none"/>
                </g>
                <g id="zoomMin">
                        <use xlink:href="#rim" fill="#404040">
                                <set attributeName="fill" to="#808080" begin="zoomminus.mouseover" end="zoomminus.mouseout"/>
                        </use>
                        <path d="M-4,0h8" fill="none" stroke="white" stroke-width="1.5" pointer-events="none"/>
                </g>
                <g id="dirArrow">
                        <path fill="none" stroke="white" stroke-width="1.5" d="M0,-3.0v7 M-2.5,-0.5L0,-3.0L2.5,-0.5"/>
                </g>
               <g id="resetDef">
                       <use xlink:href="#rim2" fill="#404040">
                               <set attributeName="fill" to="#808080" begin="reset.mouseover" end="reset.mouseout"/>
                       </use>
               </g>
        </defs>

<script type="text/javascript">
var viewWidth = 1656;
var viewHeight = 424;
var sectionId = 'dynsection-19';
</script>
<script xlink:href="../../svgpan.js"/>
<svg id="graph" class="graph">
<g id="viewport">
<title>controller.Controller.createRunCommandListener</title>
<polygon fill="white" stroke="none" points="-4,4 -4,-420 1652,-420 1652,4 -4,4"/>
<!-- Node1 -->
<g id="node1" class="node"><title>Node1</title>
<polygon fill="#bfbfbf" stroke="black" points="0.5,-225 0.5,-255 143.5,-255 143.5,-225 0.5,-225"/>
<text text-anchor="start" x="8.5" y="-243" font-family="Helvetica,sans-Serif" font-size="10.00">controller.Controller.create</text>
<text text-anchor="middle" x="72" y="-232" font-family="Helvetica,sans-Serif" font-size="10.00">RunCommandListener</text>
</g>
<!-- Node2 -->
<g id="node2" class="node"><title>Node2</title>
<g id="a_node2"><a xlink:href="../../db/d1b/classview_1_1components_1_1_input_field.html#add573abb0c87c371225c8d68d6c8a857" target="_top" xlink:title="view.components.InputField.getText">
<polygon fill="white" stroke="black" points="180.5,-274.5 180.5,-293.5 365.5,-293.5 365.5,-274.5 180.5,-274.5"/>
<text text-anchor="middle" x="273" y="-281.5" font-family="Helvetica,sans-Serif" font-size="10.00">view.components.InputField.getText</text>
</a>
</g>
</g>
<!-- Node1&#45;&gt;Node2 -->
<g id="edge1" class="edge"><title>Node1&#45;&gt;Node2</title>
<path fill="none" stroke="midnightblue" d="M139.766,-255.047C153.09,-258.03 166.987,-261.126 180,-264 192.342,-266.726 205.622,-269.63 218.148,-272.355"/>
<polygon fill="midnightblue" stroke="midnightblue" points="217.483,-275.793 227.999,-274.496 218.97,-268.952 217.483,-275.793"/>
</g>
<!-- Node3 -->
<g id="node3" class="node"><title>Node3</title>
<g id="a_node3"><a xlink:href="../../d9/df7/classcontroller_1_1_controller.html#a89b63f37e67efbeddda1f247016c837b" target="_top" xlink:title="controller.Controller.process\lCommand">
<polygon fill="white" stroke="black" points="198,-225 198,-255 348,-255 348,-225 198,-225"/>
<text text-anchor="start" x="206" y="-243" font-family="Helvetica,sans-Serif" font-size="10.00">controller.Controller.process</text>
<text text-anchor="middle" x="273" y="-232" font-family="Helvetica,sans-Serif" font-size="10.00">Command</text>
</a>
</g>
</g>
<!-- Node1&#45;&gt;Node3 -->
<g id="edge2" class="edge"><title>Node1&#45;&gt;Node3</title>
<path fill="none" stroke="midnightblue" d="M143.72,-240C157.971,-240 173.083,-240 187.744,-240"/>
<polygon fill="midnightblue" stroke="midnightblue" points="187.805,-243.5 197.805,-240 187.805,-236.5 187.805,-243.5"/>
</g>
<!-- Node36 -->
<g id="node36" class="node"><title>Node36</title>
<g id="a_node36"><a xlink:href="../../db/d1b/classview_1_1components_1_1_input_field.html#a7d94a431ef178bcb7ddc0e16e0403ea9" target="_top" xlink:title="view.components.InputField.setText">
<polygon fill="white" stroke="black" points="181,-186.5 181,-205.5 365,-205.5 365,-186.5 181,-186.5"/>
<text text-anchor="middle" x="273" y="-193.5" font-family="Helvetica,sans-Serif" font-size="10.00">view.components.InputField.setText</text>
</a>
</g>
</g>
<!-- Node1&#45;&gt;Node36 -->
<g id="edge36" class="edge"><title>Node1&#45;&gt;Node36</title>
<path fill="none" stroke="midnightblue" d="M136.024,-224.989C150.458,-221.631 165.747,-218.136 180,-215 191.211,-212.533 203.211,-209.987 214.72,-207.591"/>
<polygon fill="midnightblue" stroke="midnightblue" points="215.592,-210.984 224.674,-205.529 214.172,-204.13 215.592,-210.984"/>
</g>
<!-- Node4 -->
<g id="node4" class="node"><title>Node4</title>
<g id="a_node4"><a xlink:href="../../df/daf/classparser_1_1_semantics_table.html#a737b71f0ef1c252dbe00b3862c45bc74" target="_top" xlink:title="parser.SemanticsTable.get\lInstance">
<polygon fill="white" stroke="black" points="410.5,-386 410.5,-416 553.5,-416 553.5,-386 410.5,-386"/>
<text text-anchor="start" x="418.5" y="-404" font-family="Helvetica,sans-Serif" font-size="10.00">parser.SemanticsTable.get</text>
<text text-anchor="middle" x="482" y="-393" font-family="Helvetica,sans-Serif" font-size="10.00">Instance</text>
</a>
</g>
</g>
<!-- Node3&#45;&gt;Node4 -->
<g id="edge3" class="edge"><title>Node3&#45;&gt;Node4</title>
<path fill="none" stroke="midnightblue" d="M348.384,-252.925C354.83,-256.125 360.847,-260.09 366,-265 403.547,-300.777 365.197,-339.458 402,-376 403.455,-377.444 404.992,-378.805 406.599,-380.088"/>
<polygon fill="midnightblue" stroke="midnightblue" points="404.9,-383.164 415.144,-385.868 408.822,-377.366 404.9,-383.164"/>
</g>
<!-- Node7 -->
<g id="node7" class="node"><title>Node7</title>
<g id="a_node7"><a xlink:href="../../df/daf/classparser_1_1_semantics_table.html#aa027bd54d31d7ddb671b2773f7c2549b" target="_top" xlink:title="parser.SemanticsTable.set\lContext">
<polygon fill="white" stroke="black" points="410.5,-337 410.5,-367 553.5,-367 553.5,-337 410.5,-337"/>
<text text-anchor="start" x="418.5" y="-355" font-family="Helvetica,sans-Serif" font-size="10.00">parser.SemanticsTable.set</text>
<text text-anchor="middle" x="482" y="-344" font-family="Helvetica,sans-Serif" font-size="10.00">Context</text>
</a>
</g>
</g>
<!-- Node3&#45;&gt;Node7 -->
<g id="edge6" class="edge"><title>Node3&#45;&gt;Node7</title>
<path fill="none" stroke="midnightblue" d="M348.289,-254.534C354.601,-257.415 360.618,-260.866 366,-265 391.269,-284.411 377.136,-307.073 402,-327 404.263,-328.813 406.659,-330.496 409.153,-332.058"/>
<polygon fill="midnightblue" stroke="midnightblue" points="407.515,-335.151 417.963,-336.913 410.894,-329.021 407.515,-335.151"/>
</g>
<!-- Node8 -->
<g id="node8" class="node"><title>Node8</title>
<g id="a_node8"><a xlink:href="../../d9/df7/classcontroller_1_1_controller.html#a318978485f5c3bbf5a89f5dac0db71ae" target="_top" xlink:title="controller.Controller.get\lWorkspace">
<polygon fill="white" stroke="black" points="418,-288 418,-318 546,-318 546,-288 418,-288"/>
<text text-anchor="start" x="426" y="-306" font-family="Helvetica,sans-Serif" font-size="10.00">controller.Controller.get</text>
<text text-anchor="middle" x="482" y="-295" font-family="Helvetica,sans-Serif" font-size="10.00">Workspace</text>
</a>
</g>
</g>
<!-- Node3&#45;&gt;Node8 -->
<g id="edge7" class="edge"><title>Node3&#45;&gt;Node8</title>
<path fill="none" stroke="midnightblue" d="M332.12,-255.024C343.407,-258.159 355.11,-261.56 366,-265 382.221,-270.124 385.888,-272.544 402,-278 408.745,-280.284 415.835,-282.619 422.884,-284.901"/>
<polygon fill="midnightblue" stroke="midnightblue" points="421.845,-288.243 432.436,-287.969 423.986,-281.578 421.845,-288.243"/>
</g>
<!-- Node10 -->
<g id="node10" class="node"><title>Node10</title>
<g id="a_node10"><a xlink:href="../../d6/d95/classparser_1_1_parser.html#ac0cfecef1d5308df35c49519d94f85a5" target="_top" xlink:title="parser.Parser.parseCommand">
<polygon fill="white" stroke="black" points="402.5,-249.5 402.5,-268.5 561.5,-268.5 561.5,-249.5 402.5,-249.5"/>
<text text-anchor="middle" x="482" y="-256.5" font-family="Helvetica,sans-Serif" font-size="10.00">parser.Parser.parseCommand</text>
</a>
</g>
</g>
<!-- Node3&#45;&gt;Node10 -->
<g id="edge9" class="edge"><title>Node3&#45;&gt;Node10</title>
<path fill="none" stroke="midnightblue" d="M348.147,-246.806C362.474,-248.121 377.619,-249.511 392.354,-250.863"/>
<polygon fill="midnightblue" stroke="midnightblue" points="392.197,-254.364 402.475,-251.792 392.836,-247.393 392.197,-254.364"/>
</g>
<!-- Node31 -->
<g id="node31" class="node"><title>Node31</title>
<g id="a_node31"><a xlink:href="../../de/d84/classcontroller_1_1_workspace.html#a6b1f99115388e9de9dc779e30ed16041" target="_top" xlink:title="controller.Workspace.show\lError">
<polygon fill="white" stroke="black" points="619,-168 619,-198 761,-198 761,-168 619,-168"/>
<text text-anchor="start" x="627" y="-186" font-family="Helvetica,sans-Serif" font-size="10.00">controller.Workspace.show</text>
<text text-anchor="middle" x="690" y="-175" font-family="Helvetica,sans-Serif" font-size="10.00">Error</text>
</a>
</g>
</g>
<!-- Node3&#45;&gt;Node31 -->
<g id="edge30" class="edge"><title>Node3&#45;&gt;Node31</title>
<path fill="none" stroke="midnightblue" d="M348.038,-230.589C406.237,-223.105 489.336,-212.229 562,-202 577.121,-199.871 593.243,-197.522 608.747,-195.222"/>
<polygon fill="midnightblue" stroke="midnightblue" points="609.454,-198.655 618.829,-193.72 608.423,-191.731 609.454,-198.655"/>
</g>
<!-- Node32 -->
<g id="node32" class="node"><title>Node32</title>
<g id="a_node32"><a xlink:href="../../de/d84/classcontroller_1_1_workspace.html#a6e2c1aeab69fcad61e9a29cbf4c189cc" target="_top" xlink:title="controller.Workspace.execute">
<polygon fill="white" stroke="black" points="404,-173.5 404,-192.5 560,-192.5 560,-173.5 404,-173.5"/>
<text text-anchor="middle" x="482" y="-180.5" font-family="Helvetica,sans-Serif" font-size="10.00">controller.Workspace.execute</text>
</a>
</g>
</g>
<!-- Node3&#45;&gt;Node32 -->
<g id="edge31" class="edge"><title>Node3&#45;&gt;Node32</title>
<path fill="none" stroke="midnightblue" d="M329.475,-224.983C341.521,-221.707 354.19,-218.248 366,-215 389.546,-208.525 415.782,-201.231 437.242,-195.243"/>
<polygon fill="midnightblue" stroke="midnightblue" points="438.358,-198.566 447.049,-192.505 436.476,-191.823 438.358,-198.566"/>
</g>
<!-- Node33 -->
<g id="node33" class="node"><title>Node33</title>
<g id="a_node33"><a xlink:href="../../de/d84/classcontroller_1_1_workspace.html#a4b337514dd9c663a9d975cf23359860d" target="_top" xlink:title="controller.Workspace.add\lHistory">
<polygon fill="white" stroke="black" points="414,-124 414,-154 550,-154 550,-124 414,-124"/>
<text text-anchor="start" x="422" y="-142" font-family="Helvetica,sans-Serif" font-size="10.00">controller.Workspace.add</text>
<text text-anchor="middle" x="482" y="-131" font-family="Helvetica,sans-Serif" font-size="10.00">History</text>
</a>
</g>
</g>
<!-- Node3&#45;&gt;Node33 -->
<g id="edge33" class="edge"><title>Node3&#45;&gt;Node33</title>
<path fill="none" stroke="midnightblue" d="M347.913,-224.953C354.302,-222.178 360.441,-218.892 366,-215 388.729,-199.089 379.603,-180.375 402,-164 404.531,-162.149 407.204,-160.433 409.976,-158.84"/>
<polygon fill="midnightblue" stroke="midnightblue" points="411.805,-161.836 419.115,-154.168 408.618,-155.604 411.805,-161.836"/>
</g>
<!-- Node34 -->
<g id="node34" class="node"><title>Node34</title>
<g id="a_node34"><a xlink:href="../../de/d84/classcontroller_1_1_workspace.html#a634efce33a36707188f79c84a4ef80c4" target="_top" xlink:title="controller.Workspace.add\lExecutableHistory">
<polygon fill="white" stroke="black" points="414,-75 414,-105 550,-105 550,-75 414,-75"/>
<text text-anchor="start" x="422" y="-93" font-family="Helvetica,sans-Serif" font-size="10.00">controller.Workspace.add</text>
<text text-anchor="middle" x="482" y="-82" font-family="Helvetica,sans-Serif" font-size="10.00">ExecutableHistory</text>
</a>
</g>
</g>
<!-- Node3&#45;&gt;Node34 -->
<g id="edge34" class="edge"><title>Node3&#45;&gt;Node34</title>
<path fill="none" stroke="midnightblue" d="M348.238,-226.92C354.713,-223.751 360.777,-219.835 366,-215 400.97,-182.626 367.513,-146.888 402,-114 403.135,-112.918 404.316,-111.885 405.539,-110.898"/>
<polygon fill="midnightblue" stroke="midnightblue" points="407.85,-113.559 414.144,-105.036 403.909,-107.774 407.85,-113.559"/>
</g>
<!-- Node5 -->
<g id="node5" class="node"><title>Node5</title>
<g id="a_node5"><a xlink:href="../../df/daf/classparser_1_1_semantics_table.html#a1ee110bb77636170fa5e8bb1921b8296" target="_top" xlink:title="parser.SemanticsTable.Semantics\lTable">
<polygon fill="white" stroke="black" points="600.5,-386 600.5,-416 779.5,-416 779.5,-386 600.5,-386"/>
<text text-anchor="start" x="608.5" y="-404" font-family="Helvetica,sans-Serif" font-size="10.00">parser.SemanticsTable.Semantics</text>
<text text-anchor="middle" x="690" y="-393" font-family="Helvetica,sans-Serif" font-size="10.00">Table</text>
</a>
</g>
</g>
<!-- Node4&#45;&gt;Node5 -->
<g id="edge4" class="edge"><title>Node4&#45;&gt;Node5</title>
<path fill="none" stroke="midnightblue" d="M553.605,-401C565.343,-401 577.706,-401 589.993,-401"/>
<polygon fill="midnightblue" stroke="midnightblue" points="590.281,-404.5 600.281,-401 590.281,-397.5 590.281,-404.5"/>
</g>
<!-- Node6 -->
<g id="node6" class="node"><title>Node6</title>
<g id="a_node6"><a xlink:href="../../df/daf/classparser_1_1_semantics_table.html#a9c805f5773f5a74c3985fb4a605f0e35" target="_top" xlink:title="parser.SemanticsTable.buildMap">
<polygon fill="white" stroke="black" points="838,-391.5 838,-410.5 1008,-410.5 1008,-391.5 838,-391.5"/>
<text text-anchor="middle" x="923" y="-398.5" font-family="Helvetica,sans-Serif" font-size="10.00">parser.SemanticsTable.buildMap</text>
</a>
</g>
</g>
<!-- Node5&#45;&gt;Node6 -->
<g id="edge5" class="edge"><title>Node5&#45;&gt;Node6</title>
<path fill="none" stroke="midnightblue" d="M779.65,-401C795.306,-401 811.658,-401 827.468,-401"/>
<polygon fill="midnightblue" stroke="midnightblue" points="827.766,-404.5 837.766,-401 827.766,-397.5 827.766,-404.5"/>
</g>
<!-- Node9 -->
<g id="node9" class="node"><title>Node9</title>
<g id="a_node9"><a xlink:href="../../dc/dbd/interfaceview_1_1_workspace_handler.html#ac88b6c9e5fb3ffa06ab3ef23b9ce2ae0" target="_top" xlink:title="view.WorkspaceHandler.get\lWorkspace">
<polygon fill="white" stroke="black" points="617,-305 617,-335 763,-335 763,-305 617,-305"/>
<text text-anchor="start" x="625" y="-323" font-family="Helvetica,sans-Serif" font-size="10.00">view.WorkspaceHandler.get</text>
<text text-anchor="middle" x="690" y="-312" font-family="Helvetica,sans-Serif" font-size="10.00">Workspace</text>
</a>
</g>
</g>
<!-- Node8&#45;&gt;Node9 -->
<g id="edge8" class="edge"><title>Node8&#45;&gt;Node9</title>
<path fill="none" stroke="midnightblue" d="M546.207,-308.216C565.329,-309.794 586.614,-311.551 606.789,-313.216"/>
<polygon fill="midnightblue" stroke="midnightblue" points="606.649,-316.716 616.903,-314.05 607.225,-309.74 606.649,-316.716"/>
</g>
<!-- Node11 -->
<g id="node11" class="node"><title>Node11</title>
<g id="a_node11"><a xlink:href="../../d2/df8/classparser_1_1_lex_checker.html#a982a56b6fbf6428a5dca97eb56a81625" target="_top" xlink:title="parser.LexChecker.splitTokens">
<polygon fill="white" stroke="black" points="610.5,-266.5 610.5,-285.5 769.5,-285.5 769.5,-266.5 610.5,-266.5"/>
<text text-anchor="middle" x="690" y="-273.5" font-family="Helvetica,sans-Serif" font-size="10.00">parser.LexChecker.splitTokens</text>
</a>
</g>
</g>
<!-- Node10&#45;&gt;Node11 -->
<g id="edge10" class="edge"><title>Node10&#45;&gt;Node11</title>
<path fill="none" stroke="midnightblue" d="M561.762,-265.5C574.309,-266.535 587.365,-267.613 600.126,-268.666"/>
<polygon fill="midnightblue" stroke="midnightblue" points="600.028,-272.169 610.282,-269.504 600.604,-265.193 600.028,-272.169"/>
</g>
<!-- Node12 -->
<g id="node12" class="node"><title>Node12</title>
<g id="a_node12"><a xlink:href="../../d7/d0d/classparser_1_1_semantics_checker.html#a8620f3090287a61f86765ee920d53de0" target="_top" xlink:title="parser.SemanticsChecker.evaluate\lExpression">
<polygon fill="white" stroke="black" points="598.5,-217 598.5,-247 781.5,-247 781.5,-217 598.5,-217"/>
<text text-anchor="start" x="606.5" y="-235" font-family="Helvetica,sans-Serif" font-size="10.00">parser.SemanticsChecker.evaluate</text>
<text text-anchor="middle" x="690" y="-224" font-family="Helvetica,sans-Serif" font-size="10.00">Expression</text>
</a>
</g>
</g>
<!-- Node10&#45;&gt;Node12 -->
<g id="edge11" class="edge"><title>Node10&#45;&gt;Node12</title>
<path fill="none" stroke="midnightblue" d="M555.628,-249.481C566.182,-248.098 577.203,-246.653 588.191,-245.213"/>
<polygon fill="midnightblue" stroke="midnightblue" points="588.797,-248.663 598.258,-243.893 587.888,-241.723 588.797,-248.663"/>
</g>
<!-- Node13 -->
<g id="node13" class="node"><title>Node13</title>
<g id="a_node13"><a xlink:href="../../df/daf/classparser_1_1_semantics_table.html#aab459a521d748abf6058d243b8714d32" target="_top" xlink:title="parser.SemanticsTable.get\lTokenClass">
<polygon fill="white" stroke="black" points="851.5,-308 851.5,-338 994.5,-338 994.5,-308 851.5,-308"/>
<text text-anchor="start" x="859.5" y="-326" font-family="Helvetica,sans-Serif" font-size="10.00">parser.SemanticsTable.get</text>
<text text-anchor="middle" x="923" y="-315" font-family="Helvetica,sans-Serif" font-size="10.00">TokenClass</text>
</a>
</g>
</g>
<!-- Node12&#45;&gt;Node13 -->
<g id="edge12" class="edge"><title>Node12&#45;&gt;Node13</title>
<path fill="none" stroke="midnightblue" d="M761.194,-247.043C768.458,-249.833 775.537,-253.123 782,-257 801.951,-268.966 798.019,-283.085 818,-295 825.409,-299.418 833.526,-303.154 841.855,-306.308"/>
<polygon fill="midnightblue" stroke="midnightblue" points="840.726,-309.622 851.321,-309.629 843.043,-303.016 840.726,-309.622"/>
</g>
<!-- Node17 -->
<g id="node17" class="node"><title>Node17</title>
<g id="a_node17"><a xlink:href="../../d5/d08/classparser_1_1nodes_1_1_node_information.html#a1553927792e60fe77a0b2a7d21c53182" target="_top" xlink:title="parser.nodes.NodeInformation.getName">
<polygon fill="white" stroke="black" points="818,-266.5 818,-285.5 1028,-285.5 1028,-266.5 818,-266.5"/>
<text text-anchor="middle" x="923" y="-273.5" font-family="Helvetica,sans-Serif" font-size="10.00">parser.nodes.NodeInformation.getName</text>
</a>
</g>
</g>
<!-- Node12&#45;&gt;Node17 -->
<g id="edge16" class="edge"><title>Node12&#45;&gt;Node17</title>
<path fill="none" stroke="midnightblue" d="M769.851,-247.019C800,-252.762 833.866,-259.213 861.98,-264.568"/>
<polygon fill="midnightblue" stroke="midnightblue" points="861.581,-268.055 872.06,-266.488 862.891,-261.178 861.581,-268.055"/>
</g>
<!-- Node18 -->
<g id="node18" class="node"><title>Node18</title>
<g id="a_node18"><a xlink:href="../../df/daf/classparser_1_1_semantics_table.html#a8b10ea894ea685fb78306df326a17db2" target="_top" xlink:title="parser.SemanticsTable.register\lCustomCommand">
<polygon fill="white" stroke="black" points="841,-217 841,-247 1005,-247 1005,-217 841,-217"/>
<text text-anchor="start" x="849" y="-235" font-family="Helvetica,sans-Serif" font-size="10.00">parser.SemanticsTable.register</text>
<text text-anchor="middle" x="923" y="-224" font-family="Helvetica,sans-Serif" font-size="10.00">CustomCommand</text>
</a>
</g>
</g>
<!-- Node12&#45;&gt;Node18 -->
<g id="edge17" class="edge"><title>Node12&#45;&gt;Node18</title>
<path fill="none" stroke="midnightblue" d="M781.634,-232C797.602,-232 814.235,-232 830.234,-232"/>
<polygon fill="midnightblue" stroke="midnightblue" points="830.642,-235.5 840.642,-232 830.642,-228.5 830.642,-235.5"/>
</g>
<!-- Node20 -->
<g id="node20" class="node"><title>Node20</title>
<g id="a_node20"><a xlink:href="../../d7/d0d/classparser_1_1_semantics_checker.html#a41a9f32483c1d0e32acd7fa553c9670c" target="_top" xlink:title="parser.SemanticsChecker.create\lCustomCommand">
<polygon fill="white" stroke="black" points="836.5,-163 836.5,-193 1009.5,-193 1009.5,-163 836.5,-163"/>
<text text-anchor="start" x="844.5" y="-181" font-family="Helvetica,sans-Serif" font-size="10.00">parser.SemanticsChecker.create</text>
<text text-anchor="middle" x="923" y="-170" font-family="Helvetica,sans-Serif" font-size="10.00">CustomCommand</text>
</a>
</g>
</g>
<!-- Node12&#45;&gt;Node20 -->
<g id="edge19" class="edge"><title>Node12&#45;&gt;Node20</title>
<path fill="none" stroke="midnightblue" d="M755.346,-216.958C784.012,-210.257 817.946,-202.324 847.687,-195.372"/>
<polygon fill="midnightblue" stroke="midnightblue" points="848.658,-198.739 857.598,-193.055 847.064,-191.923 848.658,-198.739"/>
</g>
<!-- Node24 -->
<g id="node24" class="node"><title>Node24</title>
<g id="a_node24"><a xlink:href="../../d7/d0d/classparser_1_1_semantics_checker.html#a9874458f603e4eac6181412441aff5af" target="_top" xlink:title="parser.SemanticsChecker.createNode">
<polygon fill="white" stroke="black" points="824,-78.5 824,-97.5 1022,-97.5 1022,-78.5 824,-78.5"/>
<text text-anchor="middle" x="923" y="-85.5" font-family="Helvetica,sans-Serif" font-size="10.00">parser.SemanticsChecker.createNode</text>
</a>
</g>
</g>
<!-- Node12&#45;&gt;Node24 -->
<g id="edge23" class="edge"><title>Node12&#45;&gt;Node24</title>
<path fill="none" stroke="midnightblue" d="M764.682,-216.835C770.813,-214.085 776.687,-210.837 782,-207 805.384,-190.113 797.306,-173.094 818,-153 840.054,-131.585 870.31,-113.651 892.503,-102.083"/>
<polygon fill="midnightblue" stroke="midnightblue" points="894.145,-105.175 901.473,-97.5232 890.973,-98.9346 894.145,-105.175"/>
</g>
<!-- Node14 -->
<g id="node14" class="node"><title>Node14</title>
<g id="a_node14"><a xlink:href="../../d5/d08/classparser_1_1nodes_1_1_node_information.html#a10357cfb2c29282a4571d4713551a448" target="_top" xlink:title="parser.nodes.NodeInformation.clone">
<polygon fill="white" stroke="black" points="1069.5,-357.5 1069.5,-376.5 1260.5,-376.5 1260.5,-357.5 1069.5,-357.5"/>
<text text-anchor="middle" x="1165" y="-364.5" font-family="Helvetica,sans-Serif" font-size="10.00">parser.nodes.NodeInformation.clone</text>
</a>
</g>
</g>
<!-- Node13&#45;&gt;Node14 -->
<g id="edge13" class="edge"><title>Node13&#45;&gt;Node14</title>
<path fill="none" stroke="midnightblue" d="M994.71,-335.963C1028.79,-342.212 1069.3,-349.638 1102.14,-355.659"/>
<polygon fill="midnightblue" stroke="midnightblue" points="1101.6,-359.119 1112.07,-357.48 1102.87,-352.234 1101.6,-359.119"/>
</g>
<!-- Node16 -->
<g id="node16" class="node"><title>Node16</title>
<g id="a_node16"><a xlink:href="../../d5/d08/classparser_1_1nodes_1_1_node_information.html#a0c4a6fe4a61e93a5dbe095ee42c213ed" target="_top" xlink:title="parser.nodes.NodeInformation.set\lToken">
<polygon fill="white" stroke="black" points="1075,-308 1075,-338 1255,-338 1255,-308 1075,-308"/>
<text text-anchor="start" x="1083" y="-326" font-family="Helvetica,sans-Serif" font-size="10.00">parser.nodes.NodeInformation.set</text>
<text text-anchor="middle" x="1165" y="-315" font-family="Helvetica,sans-Serif" font-size="10.00">Token</text>
</a>
</g>
</g>
<!-- Node13&#45;&gt;Node16 -->
<g id="edge15" class="edge"><title>Node13&#45;&gt;Node16</title>
<path fill="none" stroke="midnightblue" d="M994.71,-323C1016.51,-323 1040.94,-323 1064.31,-323"/>
<polygon fill="midnightblue" stroke="midnightblue" points="1064.6,-326.5 1074.6,-323 1064.6,-319.5 1064.6,-326.5"/>
</g>
<!-- Node15 -->
<g id="node15" class="node"><title>Node15</title>
<g id="a_node15"><a xlink:href="../../d5/d08/classparser_1_1nodes_1_1_node_information.html#a0672ed587472f62f81cad30d9c35e3f0" target="_top" xlink:title="parser.nodes.NodeInformation.\lNodeInformation">
<polygon fill="white" stroke="black" points="1302.5,-352 1302.5,-382 1467.5,-382 1467.5,-352 1302.5,-352"/>
<text text-anchor="start" x="1310.5" y="-370" font-family="Helvetica,sans-Serif" font-size="10.00">parser.nodes.NodeInformation.</text>
<text text-anchor="middle" x="1385" y="-359" font-family="Helvetica,sans-Serif" font-size="10.00">NodeInformation</text>
</a>
</g>
</g>
<!-- Node14&#45;&gt;Node15 -->
<g id="edge14" class="edge"><title>Node14&#45;&gt;Node15</title>
<path fill="none" stroke="midnightblue" d="M1260.67,-367C1271.09,-367 1281.7,-367 1292.09,-367"/>
<polygon fill="midnightblue" stroke="midnightblue" points="1292.4,-370.5 1302.4,-367 1292.4,-363.5 1292.4,-370.5"/>
</g>
<!-- Node19 -->
<g id="node19" class="node"><title>Node19</title>
<g id="a_node19"><a xlink:href="../../dd/da7/interfaceparser_1_1_i_parser_provider.html#a933bbd5080c55f69c3e3f740a465e0a5" target="_top" xlink:title="parser.IParserProvider.add\lCommand">
<polygon fill="white" stroke="black" points="1094.5,-259 1094.5,-289 1235.5,-289 1235.5,-259 1094.5,-259"/>
<text text-anchor="start" x="1102.5" y="-277" font-family="Helvetica,sans-Serif" font-size="10.00">parser.IParserProvider.add</text>
<text text-anchor="middle" x="1165" y="-266" font-family="Helvetica,sans-Serif" font-size="10.00">Command</text>
</a>
</g>
</g>
<!-- Node18&#45;&gt;Node19 -->
<g id="edge18" class="edge"><title>Node18&#45;&gt;Node19</title>
<path fill="none" stroke="midnightblue" d="M1005.25,-246.219C1030.82,-250.694 1059.02,-255.629 1084.47,-260.083"/>
<polygon fill="midnightblue" stroke="midnightblue" points="1084,-263.553 1094.45,-261.829 1085.2,-256.657 1084,-263.553"/>
</g>
<!-- Node21 -->
<g id="node21" class="node"><title>Node21</title>
<g id="a_node21"><a xlink:href="../../d5/d08/classparser_1_1nodes_1_1_node_information.html#a1a0cba33547c0d09dd567f0a9db27a51" target="_top" xlink:title="parser.nodes.NodeInformation.set\lShouldCreate">
<polygon fill="white" stroke="black" points="1075,-210 1075,-240 1255,-240 1255,-210 1075,-210"/>
<text text-anchor="start" x="1083" y="-228" font-family="Helvetica,sans-Serif" font-size="10.00">parser.nodes.NodeInformation.set</text>
<text text-anchor="middle" x="1165" y="-217" font-family="Helvetica,sans-Serif" font-size="10.00">ShouldCreate</text>
</a>
</g>
</g>
<!-- Node20&#45;&gt;Node21 -->
<g id="edge20" class="edge"><title>Node20&#45;&gt;Node21</title>
<path fill="none" stroke="midnightblue" d="M1000.6,-193C1025.06,-197.791 1052.31,-203.127 1077.43,-208.046"/>
<polygon fill="midnightblue" stroke="midnightblue" points="1076.82,-211.494 1087.31,-209.981 1078.17,-204.624 1076.82,-211.494"/>
</g>
<!-- Node22 -->
<g id="node22" class="node"><title>Node22</title>
<g id="a_node22"><a xlink:href="../../d5/d08/classparser_1_1nodes_1_1_node_information.html#ae642533c8e960e3d6dff2653e422f301" target="_top" xlink:title="parser.nodes.NodeInformation.get\lToken">
<polygon fill="white" stroke="black" points="1074.5,-161 1074.5,-191 1255.5,-191 1255.5,-161 1074.5,-161"/>
<text text-anchor="start" x="1082.5" y="-179" font-family="Helvetica,sans-Serif" font-size="10.00">parser.nodes.NodeInformation.get</text>
<text text-anchor="middle" x="1165" y="-168" font-family="Helvetica,sans-Serif" font-size="10.00">Token</text>
</a>
</g>
</g>
<!-- Node20&#45;&gt;Node22 -->
<g id="edge21" class="edge"><title>Node20&#45;&gt;Node22</title>
<path fill="none" stroke="midnightblue" d="M1009.63,-177.286C1027.35,-177.139 1046.16,-176.982 1064.33,-176.831"/>
<polygon fill="midnightblue" stroke="midnightblue" points="1064.38,-180.33 1074.35,-176.747 1064.32,-173.331 1064.38,-180.33"/>
</g>
<!-- Node23 -->
<g id="node23" class="node"><title>Node23</title>
<g id="a_node23"><a xlink:href="../../d5/d08/classparser_1_1nodes_1_1_node_information.html#ad42f8e4caa516857bf2ad3eb9e392a9e" target="_top" xlink:title="parser.nodes.NodeInformation.getType">
<polygon fill="white" stroke="black" points="1064,-122.5 1064,-141.5 1266,-141.5 1266,-122.5 1064,-122.5"/>
<text text-anchor="middle" x="1165" y="-129.5" font-family="Helvetica,sans-Serif" font-size="10.00">parser.nodes.NodeInformation.getType</text>
</a>
</g>
</g>
<!-- Node20&#45;&gt;Node23 -->
<g id="edge22" class="edge"><title>Node20&#45;&gt;Node23</title>
<path fill="none" stroke="midnightblue" d="M1001.75,-162.966C1022.01,-159.059 1043.82,-154.863 1064,-151 1076.86,-148.538 1090.66,-145.909 1103.77,-143.416"/>
<polygon fill="midnightblue" stroke="midnightblue" points="1104.46,-146.847 1113.64,-141.541 1103.16,-139.97 1104.46,-146.847"/>
</g>
<!-- Node25 -->
<g id="node25" class="node"><title>Node25</title>
<g id="a_node25"><a xlink:href="../../df/daf/classparser_1_1_semantics_table.html#ad21bbcf3716340782e1da8da4efe1e82" target="_top" xlink:title="parser.SemanticsTable.get\lCommand">
<polygon fill="white" stroke="black" points="1093.5,-73 1093.5,-103 1236.5,-103 1236.5,-73 1093.5,-73"/>
<text text-anchor="start" x="1101.5" y="-91" font-family="Helvetica,sans-Serif" font-size="10.00">parser.SemanticsTable.get</text>
<text text-anchor="middle" x="1165" y="-80" font-family="Helvetica,sans-Serif" font-size="10.00">Command</text>
</a>
</g>
</g>
<!-- Node24&#45;&gt;Node25 -->
<g id="edge24" class="edge"><title>Node24&#45;&gt;Node25</title>
<path fill="none" stroke="midnightblue" d="M1022.31,-88C1042.59,-88 1063.73,-88 1083.3,-88"/>
<polygon fill="midnightblue" stroke="midnightblue" points="1083.38,-91.5001 1093.38,-88 1083.38,-84.5001 1083.38,-91.5001"/>
</g>
<!-- Node27 -->
<g id="node27" class="node"><title>Node27</title>
<g id="a_node27"><a xlink:href="../../d6/dcd/classparser_1_1reflection_1_1_reflection_helper.html#aff20ce969eb8ac26feda4d41f9f26411" target="_top" xlink:title="parser.reflection.Reflection\lHelper.createInstanceOf">
<polygon fill="white" stroke="black" points="1093.5,-24 1093.5,-54 1236.5,-54 1236.5,-24 1093.5,-24"/>
<text text-anchor="start" x="1101.5" y="-42" font-family="Helvetica,sans-Serif" font-size="10.00">parser.reflection.Reflection</text>
<text text-anchor="middle" x="1165" y="-31" font-family="Helvetica,sans-Serif" font-size="10.00">Helper.createInstanceOf</text>
</a>
</g>
</g>
<!-- Node24&#45;&gt;Node27 -->
<g id="edge26" class="edge"><title>Node24&#45;&gt;Node27</title>
<path fill="none" stroke="midnightblue" d="M970.559,-78.4942C1002.59,-71.9539 1045.97,-63.0973 1083.53,-55.4285"/>
<polygon fill="midnightblue" stroke="midnightblue" points="1084.35,-58.8333 1093.45,-53.4036 1082.95,-51.9748 1084.35,-58.8333"/>
</g>
<!-- Node26 -->
<g id="node26" class="node"><title>Node26</title>
<g id="a_node26"><a xlink:href="../../dd/da7/interfaceparser_1_1_i_parser_provider.html#a190d86fe0b03a1c15700dae1237754fb" target="_top" xlink:title="parser.IParserProvider.get\lCommand">
<polygon fill="white" stroke="black" points="1315.5,-73 1315.5,-103 1454.5,-103 1454.5,-73 1315.5,-73"/>
<text text-anchor="start" x="1323.5" y="-91" font-family="Helvetica,sans-Serif" font-size="10.00">parser.IParserProvider.get</text>
<text text-anchor="middle" x="1385" y="-80" font-family="Helvetica,sans-Serif" font-size="10.00">Command</text>
</a>
</g>
</g>
<!-- Node25&#45;&gt;Node26 -->
<g id="edge25" class="edge"><title>Node25&#45;&gt;Node26</title>
<path fill="none" stroke="midnightblue" d="M1236.78,-88C1258.66,-88 1282.9,-88 1305.29,-88"/>
<polygon fill="midnightblue" stroke="midnightblue" points="1305.43,-91.5001 1315.43,-88 1305.43,-84.5001 1305.43,-91.5001"/>
</g>
<!-- Node28 -->
<g id="node28" class="node"><title>Node28</title>
<g id="a_node28"><a xlink:href="../../d6/dcd/classparser_1_1reflection_1_1_reflection_helper.html#a560ebe5618d9e6e27c57d13b55fe1b43" target="_top" xlink:title="parser.reflection.Reflection\lHelper.findConstructor">
<polygon fill="white" stroke="black" points="1313.5,-24 1313.5,-54 1456.5,-54 1456.5,-24 1313.5,-24"/>
<text text-anchor="start" x="1321.5" y="-42" font-family="Helvetica,sans-Serif" font-size="10.00">parser.reflection.Reflection</text>
<text text-anchor="middle" x="1385" y="-31" font-family="Helvetica,sans-Serif" font-size="10.00">Helper.findConstructor</text>
</a>
</g>
</g>
<!-- Node27&#45;&gt;Node28 -->
<g id="edge27" class="edge"><title>Node27&#45;&gt;Node28</title>
<path fill="none" stroke="midnightblue" d="M1236.78,-39C1257.92,-39 1281.26,-39 1303.01,-39"/>
<polygon fill="midnightblue" stroke="midnightblue" points="1303.2,-42.5001 1313.2,-39 1303.2,-35.5001 1303.2,-42.5001"/>
</g>
<!-- Node29 -->
<g id="node29" class="node"><title>Node29</title>
<g id="a_node29"><a xlink:href="../../d6/dcd/classparser_1_1reflection_1_1_reflection_helper.html#ab29ddff567376a34fe0e284cf6833b0d" target="_top" xlink:title="parser.reflection.Reflection\lHelper.toClassArray">
<polygon fill="white" stroke="black" points="1504.5,-49 1504.5,-79 1647.5,-79 1647.5,-49 1504.5,-49"/>
<text text-anchor="start" x="1512.5" y="-67" font-family="Helvetica,sans-Serif" font-size="10.00">parser.reflection.Reflection</text>
<text text-anchor="middle" x="1576" y="-56" font-family="Helvetica,sans-Serif" font-size="10.00">Helper.toClassArray</text>
</a>
</g>
</g>
<!-- Node28&#45;&gt;Node29 -->
<g id="edge28" class="edge"><title>Node28&#45;&gt;Node29</title>
<path fill="none" stroke="midnightblue" d="M1456.65,-48.3446C1468.97,-49.9752 1481.88,-51.6824 1494.45,-53.3451"/>
<polygon fill="midnightblue" stroke="midnightblue" points="1494.07,-56.8251 1504.44,-54.6667 1494.99,-49.8855 1494.07,-56.8251"/>
</g>
<!-- Node30 -->
<g id="node30" class="node"><title>Node30</title>
<g id="a_node30"><a xlink:href="../../d6/dcd/classparser_1_1reflection_1_1_reflection_helper.html#ac2c724f682c2eb9bd6be04a816e86320" target="_top" xlink:title="parser.reflection.Reflection\lHelper.paramsEqual">
<polygon fill="white" stroke="black" points="1504.5,-0 1504.5,-30 1647.5,-30 1647.5,-0 1504.5,-0"/>
<text text-anchor="start" x="1512.5" y="-18" font-family="Helvetica,sans-Serif" font-size="10.00">parser.reflection.Reflection</text>
<text text-anchor="middle" x="1576" y="-7" font-family="Helvetica,sans-Serif" font-size="10.00">Helper.paramsEqual</text>
</a>
</g>
</g>
<!-- Node28&#45;&gt;Node30 -->
<g id="edge29" class="edge"><title>Node28&#45;&gt;Node30</title>
<path fill="none" stroke="midnightblue" d="M1456.65,-30.0292C1468.97,-28.4638 1481.88,-26.8249 1494.45,-25.2287"/>
<polygon fill="midnightblue" stroke="midnightblue" points="1494.96,-28.6919 1504.44,-23.96 1494.08,-21.7477 1494.96,-28.6919"/>
</g>
<!-- Node32&#45;&gt;Node31 -->
<g id="edge32" class="edge"><title>Node32&#45;&gt;Node31</title>
<path fill="none" stroke="midnightblue" d="M560.293,-183C576.026,-183 592.615,-183 608.458,-183"/>
<polygon fill="midnightblue" stroke="midnightblue" points="608.746,-186.5 618.746,-183 608.746,-179.5 608.746,-186.5"/>
</g>
<!-- Node35 -->
<g id="node35" class="node"><title>Node35</title>
<g id="a_node35"><a xlink:href="../../d7/d40/classcontroller_1_1_w_s_undo_manager.html#a9dc68e98e02d4adda65f6f71cef4224b" target="_top" xlink:title="controller.WSUndoManager.add\lEditToHistory">
<polygon fill="white" stroke="black" points="606.5,-75 606.5,-105 773.5,-105 773.5,-75 606.5,-75"/>
<text text-anchor="start" x="614.5" y="-93" font-family="Helvetica,sans-Serif" font-size="10.00">controller.WSUndoManager.add</text>
<text text-anchor="middle" x="690" y="-82" font-family="Helvetica,sans-Serif" font-size="10.00">EditToHistory</text>
</a>
</g>
</g>
<!-- Node34&#45;&gt;Node35 -->
<g id="edge35" class="edge"><title>Node34&#45;&gt;Node35</title>
<path fill="none" stroke="midnightblue" d="M550.167,-90C564.903,-90 580.757,-90 596.295,-90"/>
<polygon fill="midnightblue" stroke="midnightblue" points="596.446,-93.5001 606.446,-90 596.446,-86.5001 596.446,-93.5001"/>
</g>
</g>
</svg>
        <g id="navigator" transform="translate(0 0)" fill="#404254">
                <rect fill="#f2f5e9" fill-opacity="0.5" stroke="#606060" stroke-width=".5" x="0" y="0" width="60" height="60"/>
                <use id="zoomplus" xlink:href="#zoomPlus" x="17" y="9" onmousedown="handleZoom(evt,'in')"/>
                <use id="zoomminus" xlink:href="#zoomMin" x="42" y="9" onmousedown="handleZoom(evt,'out')"/>
                <use id="reset" xlink:href="#resetDef" x="30" y="36" onmousedown="handleReset()"/>
                <g id="arrowUp" xlink:href="#dirArrow" transform="translate(30 24)" onmousedown="handlePan(0,-1)">
                  <use xlink:href="#rim" fill="#404040">
                        <set attributeName="fill" to="#808080" begin="arrowUp.mouseover" end="arrowUp.mouseout"/>
                  </use>
                  <path fill="none" stroke="white" stroke-width="1.5" d="M0,-3.0v7 M-2.5,-0.5L0,-3.0L2.5,-0.5"/>
                </g>
                <g id="arrowRight" xlink:href="#dirArrow" transform="rotate(90) translate(36 -43)" onmousedown="handlePan(1,0)">
                  <use xlink:href="#rim" fill="#404040">
                        <set attributeName="fill" to="#808080" begin="arrowRight.mouseover" end="arrowRight.mouseout"/>
                  </use>
                  <path fill="none" stroke="white" stroke-width="1.5" d="M0,-3.0v7 M-2.5,-0.5L0,-3.0L2.5,-0.5"/>
                </g>
                <g id="arrowDown" xlink:href="#dirArrow" transform="rotate(180) translate(-30 -48)" onmousedown="handlePan(0,1)">
                  <use xlink:href="#rim" fill="#404040">
                        <set attributeName="fill" to="#808080" begin="arrowDown.mouseover" end="arrowDown.mouseout"/>
                  </use>
                  <path fill="none" stroke="white" stroke-width="1.5" d="M0,-3.0v7 M-2.5,-0.5L0,-3.0L2.5,-0.5"/>
                </g>
                <g id="arrowLeft" xlink:href="#dirArrow" transform="rotate(270) translate(-36 17)" onmousedown="handlePan(-1,0)">
                  <use xlink:href="#rim" fill="#404040">
                        <set attributeName="fill" to="#808080" begin="arrowLeft.mouseover" end="arrowLeft.mouseout"/>
                  </use>
                  <path fill="none" stroke="white" stroke-width="1.5" d="M0,-3.0v7 M-2.5,-0.5L0,-3.0L2.5,-0.5"/>
                </g>
        </g>
        <svg viewBox="0 0 15 15" width="100%" height="30px" preserveAspectRatio="xMaxYMin meet">
         <g id="arrow_out" transform="scale(0.3 0.3)">
          <a xlink:href="classcontroller_1_1_controller_a2bfb87bca460d87b2c97e0b5045a2175_cgraph_org.svg" target="_base">
           <rect id="button" ry="5" rx="5" y="6" x="6" height="38" width="38"
                fill="#f2f5e9" fill-opacity="0.5" stroke="#606060" stroke-width="1.0"/>
           <path id="arrow"
             d="M 11.500037,31.436501 C 11.940474,20.09759 22.043105,11.32322 32.158766,21.979434 L 37.068811,17.246167 C 37.068811,17.246167 37.088388,32 37.088388,32 L 22.160133,31.978069 C 22.160133,31.978069 26.997745,27.140456 26.997745,27.140456 C 18.528582,18.264221 13.291696,25.230495 11.500037,31.436501 z"
             style="fill:#404040;"/>
          </a>
         </g>
        </svg>
</svg>
