<?xml version="1.0" encoding="UTF-8" standalone="no"?>
<!DOCTYPE svg PUBLIC "-//W3C//DTD SVG 1.1//EN"
 "http://www.w3.org/Graphics/SVG/1.1/DTD/svg11.dtd">
<!-- Generated by graphviz version 2.36.0 (20140111.2315)
 -->
<!-- Title: controller.Controller.processFile Pages: 1 -->
<!--zoomable 469 -->
<svg id="main" version="1.1" xmlns="http://www.w3.org/2000/svg" xmlns:xlink="http://www.w3.org/1999/xlink" xml:space="preserve" onload="init(evt)">
<style type="text/css"><![CDATA[
.edge:hover path { stroke: red; }
.edge:hover polygon { stroke: red; fill: red; }
]]></style>
<script type="text/javascript"><![CDATA[
var edges = document.getElementsByTagName('g');
if (edges && edges.length) {
  for (var i=0;i<edges.length;i++) {
    if (edges[i].id.substr(0,4)=='edge') {
      edges[i].setAttribute('class','edge');
    }
  }
}
]]></script>
        <defs>
                <circle id="rim" cx="0" cy="0" r="7"/>
                <circle id="rim2" cx="0" cy="0" r="3.5"/>
                <g id="zoomPlus">
                        <use xlink:href="#rim" fill="#404040">
                                <set attributeName="fill" to="#808080" begin="zoomplus.mouseover" end="zoomplus.mouseout"/>
                        </use>
                        <path d="M-4,0h8M0,-4v8" fill="none" stroke="white" stroke-width="1.5" pointer-events="none"/>
                </g>
                <g id="zoomMin">
                        <use xlink:href="#rim" fill="#404040">
                                <set attributeName="fill" to="#808080" begin="zoomminus.mouseover" end="zoomminus.mouseout"/>
                        </use>
                        <path d="M-4,0h8" fill="none" stroke="white" stroke-width="1.5" pointer-events="none"/>
                </g>
                <g id="dirArrow">
                        <path fill="none" stroke="white" stroke-width="1.5" d="M0,-3.0v7 M-2.5,-0.5L0,-3.0L2.5,-0.5"/>
                </g>
               <g id="resetDef">
                       <use xlink:href="#rim2" fill="#404040">
                               <set attributeName="fill" to="#808080" begin="reset.mouseover" end="reset.mouseout"/>
                       </use>
               </g>
        </defs>

<script type="text/javascript">
var viewWidth = 1456;
var viewHeight = 469;
var sectionId = 'dynsection-33';
</script>
<script xlink:href="../../svgpan.js"/>
<svg id="graph" class="graph">
<g id="viewport">
<title>controller.Controller.processFile</title>
<polygon fill="white" stroke="none" points="-4,4 -4,-465 1452,-465 1452,4 -4,4"/>
<!-- Node1 -->
<g id="node1" class="node"><title>Node1</title>
<polygon fill="#bfbfbf" stroke="black" points="0.5,-334.5 0.5,-353.5 165.5,-353.5 165.5,-334.5 0.5,-334.5"/>
<text text-anchor="middle" x="83" y="-341.5" font-family="Helvetica,sans-Serif" font-size="10.00">controller.Controller.processFile</text>
</g>
<!-- Node2 -->
<g id="node2" class="node"><title>Node2</title>
<g id="a_node2"><a xlink:href="../../de/d84/classcontroller_1_1_workspace.html#a6e2c1aeab69fcad61e9a29cbf4c189cc" target="_top" xlink:title="controller.Workspace.execute">
<polygon fill="white" stroke="black" points="204,-441.5 204,-460.5 360,-460.5 360,-441.5 204,-441.5"/>
<text text-anchor="middle" x="282" y="-448.5" font-family="Helvetica,sans-Serif" font-size="10.00">controller.Workspace.execute</text>
</a>
</g>
</g>
<!-- Node1&#45;&gt;Node2 -->
<g id="edge1" class="edge"><title>Node1&#45;&gt;Node2</title>
<path fill="none" stroke="midnightblue" d="M94.9573,-353.544C114.948,-370.52 159.232,-406.131 202,-427 211.082,-431.432 221.153,-435.243 230.98,-438.439"/>
<polygon fill="midnightblue" stroke="midnightblue" points="230.092,-441.827 240.68,-441.43 232.155,-435.138 230.092,-441.827"/>
</g>
<!-- Node3 -->
<g id="node3" class="node"><title>Node3</title>
<g id="a_node3"><a xlink:href="../../de/d84/classcontroller_1_1_workspace.html#a6b1f99115388e9de9dc779e30ed16041" target="_top" xlink:title="controller.Workspace.show\lError">
<polygon fill="white" stroke="black" points="419,-419 419,-449 561,-449 561,-419 419,-419"/>
<text text-anchor="start" x="427" y="-437" font-family="Helvetica,sans-Serif" font-size="10.00">controller.Workspace.show</text>
<text text-anchor="middle" x="490" y="-426" font-family="Helvetica,sans-Serif" font-size="10.00">Error</text>
</a>
</g>
</g>
<!-- Node1&#45;&gt;Node3 -->
<g id="edge30" class="edge"><title>Node1&#45;&gt;Node3</title>
<path fill="none" stroke="midnightblue" d="M103.096,-353.695C126.003,-364.905 165.848,-383.082 202,-393 270.456,-411.779 350.59,-422.311 408.759,-427.982"/>
<polygon fill="midnightblue" stroke="midnightblue" points="408.706,-431.493 418.992,-428.952 409.367,-424.524 408.706,-431.493"/>
</g>
<!-- Node4 -->
<g id="node4" class="node"><title>Node4</title>
<g id="a_node4"><a xlink:href="../../df/daf/classparser_1_1_semantics_table.html#a737b71f0ef1c252dbe00b3862c45bc74" target="_top" xlink:title="parser.SemanticsTable.get\lInstance">
<polygon fill="white" stroke="black" points="210.5,-354 210.5,-384 353.5,-384 353.5,-354 210.5,-354"/>
<text text-anchor="start" x="218.5" y="-372" font-family="Helvetica,sans-Serif" font-size="10.00">parser.SemanticsTable.get</text>
<text text-anchor="middle" x="282" y="-361" font-family="Helvetica,sans-Serif" font-size="10.00">Instance</text>
</a>
</g>
</g>
<!-- Node1&#45;&gt;Node4 -->
<g id="edge3" class="edge"><title>Node1&#45;&gt;Node4</title>
<path fill="none" stroke="midnightblue" d="M159.039,-353.523C172.47,-355.227 186.518,-357.01 200.104,-358.734"/>
<polygon fill="midnightblue" stroke="midnightblue" points="200.025,-362.252 210.386,-360.039 200.906,-355.308 200.025,-362.252"/>
</g>
<!-- Node7 -->
<g id="node7" class="node"><title>Node7</title>
<g id="a_node7"><a xlink:href="../../d9/df7/classcontroller_1_1_controller.html#a318978485f5c3bbf5a89f5dac0db71ae" target="_top" xlink:title="controller.Controller.get\lWorkspace">
<polygon fill="white" stroke="black" points="218,-305 218,-335 346,-335 346,-305 218,-305"/>
<text text-anchor="start" x="226" y="-323" font-family="Helvetica,sans-Serif" font-size="10.00">controller.Controller.get</text>
<text text-anchor="middle" x="282" y="-312" font-family="Helvetica,sans-Serif" font-size="10.00">Workspace</text>
</a>
</g>
</g>
<!-- Node1&#45;&gt;Node7 -->
<g id="edge6" class="edge"><title>Node1&#45;&gt;Node7</title>
<path fill="none" stroke="midnightblue" d="M162.143,-334.48C177.155,-332.651 192.827,-330.742 207.681,-328.932"/>
<polygon fill="midnightblue" stroke="midnightblue" points="208.311,-332.381 217.815,-327.698 207.465,-325.433 208.311,-332.381"/>
</g>
<!-- Node9 -->
<g id="node9" class="node"><title>Node9</title>
<g id="a_node9"><a xlink:href="../../d6/d95/classparser_1_1_parser.html#ac0cfecef1d5308df35c49519d94f85a5" target="_top" xlink:title="parser.Parser.parseCommand">
<polygon fill="white" stroke="black" points="202.5,-266.5 202.5,-285.5 361.5,-285.5 361.5,-266.5 202.5,-266.5"/>
<text text-anchor="middle" x="282" y="-273.5" font-family="Helvetica,sans-Serif" font-size="10.00">parser.Parser.parseCommand</text>
</a>
</g>
</g>
<!-- Node1&#45;&gt;Node9 -->
<g id="edge8" class="edge"><title>Node1&#45;&gt;Node9</title>
<path fill="none" stroke="midnightblue" d="M104.987,-334.43C128.331,-324.031 167.328,-307.38 202,-296 210.687,-293.149 220.023,-290.462 229.126,-288.04"/>
<polygon fill="midnightblue" stroke="midnightblue" points="230.066,-291.412 238.87,-285.519 228.313,-284.635 230.066,-291.412"/>
</g>
<!-- Node30 -->
<g id="node30" class="node"><title>Node30</title>
<g id="a_node30"><a xlink:href="../../df/daf/classparser_1_1_semantics_table.html#aa027bd54d31d7ddb671b2773f7c2549b" target="_top" xlink:title="parser.SemanticsTable.set\lContext">
<polygon fill="white" stroke="black" points="210.5,-217 210.5,-247 353.5,-247 353.5,-217 210.5,-217"/>
<text text-anchor="start" x="218.5" y="-235" font-family="Helvetica,sans-Serif" font-size="10.00">parser.SemanticsTable.set</text>
<text text-anchor="middle" x="282" y="-224" font-family="Helvetica,sans-Serif" font-size="10.00">Context</text>
</a>
</g>
</g>
<!-- Node1&#45;&gt;Node30 -->
<g id="edge29" class="edge"><title>Node1&#45;&gt;Node30</title>
<path fill="none" stroke="midnightblue" d="M94.5799,-334.288C114.315,-316.629 158.677,-279.056 202,-257 206.339,-254.791 210.911,-252.729 215.579,-250.814"/>
<polygon fill="midnightblue" stroke="midnightblue" points="217.178,-253.95 225.252,-247.09 214.662,-247.417 217.178,-253.95"/>
</g>
<!-- Node2&#45;&gt;Node3 -->
<g id="edge2" class="edge"><title>Node2&#45;&gt;Node3</title>
<path fill="none" stroke="midnightblue" d="M360.293,-444.621C376.026,-443.323 392.615,-441.954 408.458,-440.647"/>
<polygon fill="midnightblue" stroke="midnightblue" points="409.067,-444.108 418.746,-439.798 408.492,-437.132 409.067,-444.108"/>
</g>
<!-- Node5 -->
<g id="node5" class="node"><title>Node5</title>
<g id="a_node5"><a xlink:href="../../df/daf/classparser_1_1_semantics_table.html#a1ee110bb77636170fa5e8bb1921b8296" target="_top" xlink:title="parser.SemanticsTable.Semantics\lTable">
<polygon fill="white" stroke="black" points="400.5,-354 400.5,-384 579.5,-384 579.5,-354 400.5,-354"/>
<text text-anchor="start" x="408.5" y="-372" font-family="Helvetica,sans-Serif" font-size="10.00">parser.SemanticsTable.Semantics</text>
<text text-anchor="middle" x="490" y="-361" font-family="Helvetica,sans-Serif" font-size="10.00">Table</text>
</a>
</g>
</g>
<!-- Node4&#45;&gt;Node5 -->
<g id="edge4" class="edge"><title>Node4&#45;&gt;Node5</title>
<path fill="none" stroke="midnightblue" d="M353.605,-369C365.343,-369 377.706,-369 389.993,-369"/>
<polygon fill="midnightblue" stroke="midnightblue" points="390.281,-372.5 400.281,-369 390.281,-365.5 390.281,-372.5"/>
</g>
<!-- Node6 -->
<g id="node6" class="node"><title>Node6</title>
<g id="a_node6"><a xlink:href="../../df/daf/classparser_1_1_semantics_table.html#a9c805f5773f5a74c3985fb4a605f0e35" target="_top" xlink:title="parser.SemanticsTable.buildMap">
<polygon fill="white" stroke="black" points="638,-359.5 638,-378.5 808,-378.5 808,-359.5 638,-359.5"/>
<text text-anchor="middle" x="723" y="-366.5" font-family="Helvetica,sans-Serif" font-size="10.00">parser.SemanticsTable.buildMap</text>
</a>
</g>
</g>
<!-- Node5&#45;&gt;Node6 -->
<g id="edge5" class="edge"><title>Node5&#45;&gt;Node6</title>
<path fill="none" stroke="midnightblue" d="M579.65,-369C595.306,-369 611.658,-369 627.468,-369"/>
<polygon fill="midnightblue" stroke="midnightblue" points="627.766,-372.5 637.766,-369 627.766,-365.5 627.766,-372.5"/>
</g>
<!-- Node8 -->
<g id="node8" class="node"><title>Node8</title>
<g id="a_node8"><a xlink:href="../../dc/dbd/interfaceview_1_1_workspace_handler.html#ac88b6c9e5fb3ffa06ab3ef23b9ce2ae0" target="_top" xlink:title="view.WorkspaceHandler.get\lWorkspace">
<polygon fill="white" stroke="black" points="417,-305 417,-335 563,-335 563,-305 417,-305"/>
<text text-anchor="start" x="425" y="-323" font-family="Helvetica,sans-Serif" font-size="10.00">view.WorkspaceHandler.get</text>
<text text-anchor="middle" x="490" y="-312" font-family="Helvetica,sans-Serif" font-size="10.00">Workspace</text>
</a>
</g>
</g>
<!-- Node7&#45;&gt;Node8 -->
<g id="edge7" class="edge"><title>Node7&#45;&gt;Node8</title>
<path fill="none" stroke="midnightblue" d="M346.207,-320C365.329,-320 386.614,-320 406.789,-320"/>
<polygon fill="midnightblue" stroke="midnightblue" points="406.903,-323.5 416.903,-320 406.903,-316.5 406.903,-323.5"/>
</g>
<!-- Node10 -->
<g id="node10" class="node"><title>Node10</title>
<g id="a_node10"><a xlink:href="../../d2/df8/classparser_1_1_lex_checker.html#a982a56b6fbf6428a5dca97eb56a81625" target="_top" xlink:title="parser.LexChecker.splitTokens">
<polygon fill="white" stroke="black" points="410.5,-266.5 410.5,-285.5 569.5,-285.5 569.5,-266.5 410.5,-266.5"/>
<text text-anchor="middle" x="490" y="-273.5" font-family="Helvetica,sans-Serif" font-size="10.00">parser.LexChecker.splitTokens</text>
</a>
</g>
</g>
<!-- Node9&#45;&gt;Node10 -->
<g id="edge9" class="edge"><title>Node9&#45;&gt;Node10</title>
<path fill="none" stroke="midnightblue" d="M361.762,-276C374.309,-276 387.365,-276 400.126,-276"/>
<polygon fill="midnightblue" stroke="midnightblue" points="400.282,-279.5 410.282,-276 400.282,-272.5 400.282,-279.5"/>
</g>
<!-- Node11 -->
<g id="node11" class="node"><title>Node11</title>
<g id="a_node11"><a xlink:href="../../d7/d0d/classparser_1_1_semantics_checker.html#a8620f3090287a61f86765ee920d53de0" target="_top" xlink:title="parser.SemanticsChecker.evaluate\lExpression">
<polygon fill="white" stroke="black" points="398.5,-217 398.5,-247 581.5,-247 581.5,-217 398.5,-217"/>
<text text-anchor="start" x="406.5" y="-235" font-family="Helvetica,sans-Serif" font-size="10.00">parser.SemanticsChecker.evaluate</text>
<text text-anchor="middle" x="490" y="-224" font-family="Helvetica,sans-Serif" font-size="10.00">Expression</text>
</a>
</g>
</g>
<!-- Node9&#45;&gt;Node11 -->
<g id="edge10" class="edge"><title>Node9&#45;&gt;Node11</title>
<path fill="none" stroke="midnightblue" d="M327.699,-266.453C351.306,-261.41 381.006,-255.067 408.467,-249.201"/>
<polygon fill="midnightblue" stroke="midnightblue" points="409.418,-252.577 418.467,-247.065 407.956,-245.731 409.418,-252.577"/>
</g>
<!-- Node12 -->
<g id="node12" class="node"><title>Node12</title>
<g id="a_node12"><a xlink:href="../../df/daf/classparser_1_1_semantics_table.html#aab459a521d748abf6058d243b8714d32" target="_top" xlink:title="parser.SemanticsTable.get\lTokenClass">
<polygon fill="white" stroke="black" points="651.5,-308 651.5,-338 794.5,-338 794.5,-308 651.5,-308"/>
<text text-anchor="start" x="659.5" y="-326" font-family="Helvetica,sans-Serif" font-size="10.00">parser.SemanticsTable.get</text>
<text text-anchor="middle" x="723" y="-315" font-family="Helvetica,sans-Serif" font-size="10.00">TokenClass</text>
</a>
</g>
</g>
<!-- Node11&#45;&gt;Node12 -->
<g id="edge11" class="edge"><title>Node11&#45;&gt;Node12</title>
<path fill="none" stroke="midnightblue" d="M561.194,-247.043C568.458,-249.833 575.537,-253.123 582,-257 601.951,-268.966 598.019,-283.085 618,-295 625.409,-299.418 633.526,-303.154 641.855,-306.308"/>
<polygon fill="midnightblue" stroke="midnightblue" points="640.726,-309.622 651.321,-309.629 643.043,-303.016 640.726,-309.622"/>
</g>
<!-- Node16 -->
<g id="node16" class="node"><title>Node16</title>
<g id="a_node16"><a xlink:href="../../d5/d08/classparser_1_1nodes_1_1_node_information.html#a1553927792e60fe77a0b2a7d21c53182" target="_top" xlink:title="parser.nodes.NodeInformation.getName">
<polygon fill="white" stroke="black" points="618,-266.5 618,-285.5 828,-285.5 828,-266.5 618,-266.5"/>
<text text-anchor="middle" x="723" y="-273.5" font-family="Helvetica,sans-Serif" font-size="10.00">parser.nodes.NodeInformation.getName</text>
</a>
</g>
</g>
<!-- Node11&#45;&gt;Node16 -->
<g id="edge15" class="edge"><title>Node11&#45;&gt;Node16</title>
<path fill="none" stroke="midnightblue" d="M569.851,-247.019C600,-252.762 633.866,-259.213 661.98,-264.568"/>
<polygon fill="midnightblue" stroke="midnightblue" points="661.581,-268.055 672.06,-266.488 662.891,-261.178 661.581,-268.055"/>
</g>
<!-- Node17 -->
<g id="node17" class="node"><title>Node17</title>
<g id="a_node17"><a xlink:href="../../df/daf/classparser_1_1_semantics_table.html#a8b10ea894ea685fb78306df326a17db2" target="_top" xlink:title="parser.SemanticsTable.register\lCustomCommand">
<polygon fill="white" stroke="black" points="641,-217 641,-247 805,-247 805,-217 641,-217"/>
<text text-anchor="start" x="649" y="-235" font-family="Helvetica,sans-Serif" font-size="10.00">parser.SemanticsTable.register</text>
<text text-anchor="middle" x="723" y="-224" font-family="Helvetica,sans-Serif" font-size="10.00">CustomCommand</text>
</a>
</g>
</g>
<!-- Node11&#45;&gt;Node17 -->
<g id="edge16" class="edge"><title>Node11&#45;&gt;Node17</title>
<path fill="none" stroke="midnightblue" d="M581.634,-232C597.602,-232 614.235,-232 630.234,-232"/>
<polygon fill="midnightblue" stroke="midnightblue" points="630.642,-235.5 640.642,-232 630.642,-228.5 630.642,-235.5"/>
</g>
<!-- Node19 -->
<g id="node19" class="node"><title>Node19</title>
<g id="a_node19"><a xlink:href="../../d7/d0d/classparser_1_1_semantics_checker.html#a41a9f32483c1d0e32acd7fa553c9670c" target="_top" xlink:title="parser.SemanticsChecker.create\lCustomCommand">
<polygon fill="white" stroke="black" points="636.5,-164 636.5,-194 809.5,-194 809.5,-164 636.5,-164"/>
<text text-anchor="start" x="644.5" y="-182" font-family="Helvetica,sans-Serif" font-size="10.00">parser.SemanticsChecker.create</text>
<text text-anchor="middle" x="723" y="-171" font-family="Helvetica,sans-Serif" font-size="10.00">CustomCommand</text>
</a>
</g>
</g>
<!-- Node11&#45;&gt;Node19 -->
<g id="edge18" class="edge"><title>Node11&#45;&gt;Node19</title>
<path fill="none" stroke="midnightblue" d="M556.577,-216.954C584.498,-210.548 617.238,-203.036 646.19,-196.394"/>
<polygon fill="midnightblue" stroke="midnightblue" points="647.295,-199.731 656.259,-194.084 645.729,-192.909 647.295,-199.731"/>
</g>
<!-- Node23 -->
<g id="node23" class="node"><title>Node23</title>
<g id="a_node23"><a xlink:href="../../d7/d0d/classparser_1_1_semantics_checker.html#a9874458f603e4eac6181412441aff5af" target="_top" xlink:title="parser.SemanticsChecker.createNode">
<polygon fill="white" stroke="black" points="624,-78.5 624,-97.5 822,-97.5 822,-78.5 624,-78.5"/>
<text text-anchor="middle" x="723" y="-85.5" font-family="Helvetica,sans-Serif" font-size="10.00">parser.SemanticsChecker.createNode</text>
</a>
</g>
</g>
<!-- Node11&#45;&gt;Node23 -->
<g id="edge22" class="edge"><title>Node11&#45;&gt;Node23</title>
<path fill="none" stroke="midnightblue" d="M515.284,-216.862C559.732,-189.154 653.659,-130.602 697.94,-102.999"/>
<polygon fill="midnightblue" stroke="midnightblue" points="699.965,-105.861 706.599,-97.6004 696.262,-99.9204 699.965,-105.861"/>
</g>
<!-- Node13 -->
<g id="node13" class="node"><title>Node13</title>
<g id="a_node13"><a xlink:href="../../d5/d08/classparser_1_1nodes_1_1_node_information.html#a10357cfb2c29282a4571d4713551a448" target="_top" xlink:title="parser.nodes.NodeInformation.clone">
<polygon fill="white" stroke="black" points="869.5,-357.5 869.5,-376.5 1060.5,-376.5 1060.5,-357.5 869.5,-357.5"/>
<text text-anchor="middle" x="965" y="-364.5" font-family="Helvetica,sans-Serif" font-size="10.00">parser.nodes.NodeInformation.clone</text>
</a>
</g>
</g>
<!-- Node12&#45;&gt;Node13 -->
<g id="edge12" class="edge"><title>Node12&#45;&gt;Node13</title>
<path fill="none" stroke="midnightblue" d="M794.71,-335.963C828.793,-342.212 869.298,-349.638 902.14,-355.659"/>
<polygon fill="midnightblue" stroke="midnightblue" points="901.604,-359.119 912.071,-357.48 902.866,-352.234 901.604,-359.119"/>
</g>
<!-- Node15 -->
<g id="node15" class="node"><title>Node15</title>
<g id="a_node15"><a xlink:href="../../d5/d08/classparser_1_1nodes_1_1_node_information.html#a0c4a6fe4a61e93a5dbe095ee42c213ed" target="_top" xlink:title="parser.nodes.NodeInformation.set\lToken">
<polygon fill="white" stroke="black" points="875,-308 875,-338 1055,-338 1055,-308 875,-308"/>
<text text-anchor="start" x="883" y="-326" font-family="Helvetica,sans-Serif" font-size="10.00">parser.nodes.NodeInformation.set</text>
<text text-anchor="middle" x="965" y="-315" font-family="Helvetica,sans-Serif" font-size="10.00">Token</text>
</a>
</g>
</g>
<!-- Node12&#45;&gt;Node15 -->
<g id="edge14" class="edge"><title>Node12&#45;&gt;Node15</title>
<path fill="none" stroke="midnightblue" d="M794.71,-323C816.511,-323 840.938,-323 864.308,-323"/>
<polygon fill="midnightblue" stroke="midnightblue" points="864.601,-326.5 874.601,-323 864.601,-319.5 864.601,-326.5"/>
</g>
<!-- Node14 -->
<g id="node14" class="node"><title>Node14</title>
<g id="a_node14"><a xlink:href="../../d5/d08/classparser_1_1nodes_1_1_node_information.html#a0672ed587472f62f81cad30d9c35e3f0" target="_top" xlink:title="parser.nodes.NodeInformation.\lNodeInformation">
<polygon fill="white" stroke="black" points="1102.5,-352 1102.5,-382 1267.5,-382 1267.5,-352 1102.5,-352"/>
<text text-anchor="start" x="1110.5" y="-370" font-family="Helvetica,sans-Serif" font-size="10.00">parser.nodes.NodeInformation.</text>
<text text-anchor="middle" x="1185" y="-359" font-family="Helvetica,sans-Serif" font-size="10.00">NodeInformation</text>
</a>
</g>
</g>
<!-- Node13&#45;&gt;Node14 -->
<g id="edge13" class="edge"><title>Node13&#45;&gt;Node14</title>
<path fill="none" stroke="midnightblue" d="M1060.67,-367C1071.09,-367 1081.7,-367 1092.09,-367"/>
<polygon fill="midnightblue" stroke="midnightblue" points="1092.4,-370.5 1102.4,-367 1092.4,-363.5 1092.4,-370.5"/>
</g>
<!-- Node18 -->
<g id="node18" class="node"><title>Node18</title>
<g id="a_node18"><a xlink:href="../../dd/da7/interfaceparser_1_1_i_parser_provider.html#a933bbd5080c55f69c3e3f740a465e0a5" target="_top" xlink:title="parser.IParserProvider.add\lCommand">
<polygon fill="white" stroke="black" points="894.5,-259 894.5,-289 1035.5,-289 1035.5,-259 894.5,-259"/>
<text text-anchor="start" x="902.5" y="-277" font-family="Helvetica,sans-Serif" font-size="10.00">parser.IParserProvider.add</text>
<text text-anchor="middle" x="965" y="-266" font-family="Helvetica,sans-Serif" font-size="10.00">Command</text>
</a>
</g>
</g>
<!-- Node17&#45;&gt;Node18 -->
<g id="edge17" class="edge"><title>Node17&#45;&gt;Node18</title>
<path fill="none" stroke="midnightblue" d="M805.253,-246.219C830.824,-250.694 859.025,-255.629 884.474,-260.083"/>
<polygon fill="midnightblue" stroke="midnightblue" points="883.997,-263.553 894.451,-261.829 885.204,-256.657 883.997,-263.553"/>
</g>
<!-- Node20 -->
<g id="node20" class="node"><title>Node20</title>
<g id="a_node20"><a xlink:href="../../d5/d08/classparser_1_1nodes_1_1_node_information.html#a1a0cba33547c0d09dd567f0a9db27a51" target="_top" xlink:title="parser.nodes.NodeInformation.set\lShouldCreate">
<polygon fill="white" stroke="black" points="875,-210 875,-240 1055,-240 1055,-210 875,-210"/>
<text text-anchor="start" x="883" y="-228" font-family="Helvetica,sans-Serif" font-size="10.00">parser.nodes.NodeInformation.set</text>
<text text-anchor="middle" x="965" y="-217" font-family="Helvetica,sans-Serif" font-size="10.00">ShouldCreate</text>
</a>
</g>
</g>
<!-- Node19&#45;&gt;Node20 -->
<g id="edge19" class="edge"><title>Node19&#45;&gt;Node20</title>
<path fill="none" stroke="midnightblue" d="M802.585,-194.062C825.911,-198.533 851.616,-203.46 875.524,-208.042"/>
<polygon fill="midnightblue" stroke="midnightblue" points="875.168,-211.538 885.649,-209.983 876.486,-204.663 875.168,-211.538"/>
</g>
<!-- Node21 -->
<g id="node21" class="node"><title>Node21</title>
<g id="a_node21"><a xlink:href="../../d5/d08/classparser_1_1nodes_1_1_node_information.html#ae642533c8e960e3d6dff2653e422f301" target="_top" xlink:title="parser.nodes.NodeInformation.get\lToken">
<polygon fill="white" stroke="black" points="874.5,-161 874.5,-191 1055.5,-191 1055.5,-161 874.5,-161"/>
<text text-anchor="start" x="882.5" y="-179" font-family="Helvetica,sans-Serif" font-size="10.00">parser.nodes.NodeInformation.get</text>
<text text-anchor="middle" x="965" y="-168" font-family="Helvetica,sans-Serif" font-size="10.00">Token</text>
</a>
</g>
</g>
<!-- Node19&#45;&gt;Node21 -->
<g id="edge20" class="edge"><title>Node19&#45;&gt;Node21</title>
<path fill="none" stroke="midnightblue" d="M809.629,-177.93C827.348,-177.708 846.159,-177.473 864.33,-177.246"/>
<polygon fill="midnightblue" stroke="midnightblue" points="864.392,-180.745 874.348,-177.121 864.305,-173.746 864.392,-180.745"/>
</g>
<!-- Node22 -->
<g id="node22" class="node"><title>Node22</title>
<g id="a_node22"><a xlink:href="../../d5/d08/classparser_1_1nodes_1_1_node_information.html#ad42f8e4caa516857bf2ad3eb9e392a9e" target="_top" xlink:title="parser.nodes.NodeInformation.getType">
<polygon fill="white" stroke="black" points="864,-122.5 864,-141.5 1066,-141.5 1066,-122.5 864,-122.5"/>
<text text-anchor="middle" x="965" y="-129.5" font-family="Helvetica,sans-Serif" font-size="10.00">parser.nodes.NodeInformation.getType</text>
</a>
</g>
</g>
<!-- Node19&#45;&gt;Node22 -->
<g id="edge21" class="edge"><title>Node19&#45;&gt;Node22</title>
<path fill="none" stroke="midnightblue" d="M800.597,-164C834.515,-157.358 873.779,-149.668 905.316,-143.492"/>
<polygon fill="midnightblue" stroke="midnightblue" points="906.127,-146.9 915.268,-141.543 904.781,-140.031 906.127,-146.9"/>
</g>
<!-- Node24 -->
<g id="node24" class="node"><title>Node24</title>
<g id="a_node24"><a xlink:href="../../df/daf/classparser_1_1_semantics_table.html#ad21bbcf3716340782e1da8da4efe1e82" target="_top" xlink:title="parser.SemanticsTable.get\lCommand">
<polygon fill="white" stroke="black" points="893.5,-73 893.5,-103 1036.5,-103 1036.5,-73 893.5,-73"/>
<text text-anchor="start" x="901.5" y="-91" font-family="Helvetica,sans-Serif" font-size="10.00">parser.SemanticsTable.get</text>
<text text-anchor="middle" x="965" y="-80" font-family="Helvetica,sans-Serif" font-size="10.00">Command</text>
</a>
</g>
</g>
<!-- Node23&#45;&gt;Node24 -->
<g id="edge23" class="edge"><title>Node23&#45;&gt;Node24</title>
<path fill="none" stroke="midnightblue" d="M822.31,-88C842.593,-88 863.732,-88 883.303,-88"/>
<polygon fill="midnightblue" stroke="midnightblue" points="883.381,-91.5001 893.381,-88 883.381,-84.5001 883.381,-91.5001"/>
</g>
<!-- Node26 -->
<g id="node26" class="node"><title>Node26</title>
<g id="a_node26"><a xlink:href="../../d6/dcd/classparser_1_1reflection_1_1_reflection_helper.html#aff20ce969eb8ac26feda4d41f9f26411" target="_top" xlink:title="parser.reflection.Reflection\lHelper.createInstanceOf">
<polygon fill="white" stroke="black" points="893.5,-24 893.5,-54 1036.5,-54 1036.5,-24 893.5,-24"/>
<text text-anchor="start" x="901.5" y="-42" font-family="Helvetica,sans-Serif" font-size="10.00">parser.reflection.Reflection</text>
<text text-anchor="middle" x="965" y="-31" font-family="Helvetica,sans-Serif" font-size="10.00">Helper.createInstanceOf</text>
</a>
</g>
</g>
<!-- Node23&#45;&gt;Node26 -->
<g id="edge25" class="edge"><title>Node23&#45;&gt;Node26</title>
<path fill="none" stroke="midnightblue" d="M770.559,-78.4942C802.593,-71.9539 845.972,-63.0973 883.534,-55.4285"/>
<polygon fill="midnightblue" stroke="midnightblue" points="884.354,-58.8333 893.452,-53.4036 882.954,-51.9748 884.354,-58.8333"/>
</g>
<!-- Node25 -->
<g id="node25" class="node"><title>Node25</title>
<g id="a_node25"><a xlink:href="../../dd/da7/interfaceparser_1_1_i_parser_provider.html#a190d86fe0b03a1c15700dae1237754fb" target="_top" xlink:title="parser.IParserProvider.get\lCommand">
<polygon fill="white" stroke="black" points="1115.5,-73 1115.5,-103 1254.5,-103 1254.5,-73 1115.5,-73"/>
<text text-anchor="start" x="1123.5" y="-91" font-family="Helvetica,sans-Serif" font-size="10.00">parser.IParserProvider.get</text>
<text text-anchor="middle" x="1185" y="-80" font-family="Helvetica,sans-Serif" font-size="10.00">Command</text>
</a>
</g>
</g>
<!-- Node24&#45;&gt;Node25 -->
<g id="edge24" class="edge"><title>Node24&#45;&gt;Node25</title>
<path fill="none" stroke="midnightblue" d="M1036.78,-88C1058.66,-88 1082.9,-88 1105.29,-88"/>
<polygon fill="midnightblue" stroke="midnightblue" points="1105.43,-91.5001 1115.43,-88 1105.43,-84.5001 1105.43,-91.5001"/>
</g>
<!-- Node27 -->
<g id="node27" class="node"><title>Node27</title>
<g id="a_node27"><a xlink:href="../../d6/dcd/classparser_1_1reflection_1_1_reflection_helper.html#a560ebe5618d9e6e27c57d13b55fe1b43" target="_top" xlink:title="parser.reflection.Reflection\lHelper.findConstructor">
<polygon fill="white" stroke="black" points="1113.5,-24 1113.5,-54 1256.5,-54 1256.5,-24 1113.5,-24"/>
<text text-anchor="start" x="1121.5" y="-42" font-family="Helvetica,sans-Serif" font-size="10.00">parser.reflection.Reflection</text>
<text text-anchor="middle" x="1185" y="-31" font-family="Helvetica,sans-Serif" font-size="10.00">Helper.findConstructor</text>
</a>
</g>
</g>
<!-- Node26&#45;&gt;Node27 -->
<g id="edge26" class="edge"><title>Node26&#45;&gt;Node27</title>
<path fill="none" stroke="midnightblue" d="M1036.78,-39C1057.92,-39 1081.26,-39 1103.01,-39"/>
<polygon fill="midnightblue" stroke="midnightblue" points="1103.2,-42.5001 1113.2,-39 1103.2,-35.5001 1103.2,-42.5001"/>
</g>
<!-- Node28 -->
<g id="node28" class="node"><title>Node28</title>
<g id="a_node28"><a xlink:href="../../d6/dcd/classparser_1_1reflection_1_1_reflection_helper.html#ab29ddff567376a34fe0e284cf6833b0d" target="_top" xlink:title="parser.reflection.Reflection\lHelper.toClassArray">
<polygon fill="white" stroke="black" points="1304.5,-49 1304.5,-79 1447.5,-79 1447.5,-49 1304.5,-49"/>
<text text-anchor="start" x="1312.5" y="-67" font-family="Helvetica,sans-Serif" font-size="10.00">parser.reflection.Reflection</text>
<text text-anchor="middle" x="1376" y="-56" font-family="Helvetica,sans-Serif" font-size="10.00">Helper.toClassArray</text>
</a>
</g>
</g>
<!-- Node27&#45;&gt;Node28 -->
<g id="edge27" class="edge"><title>Node27&#45;&gt;Node28</title>
<path fill="none" stroke="midnightblue" d="M1256.65,-48.3446C1268.97,-49.9752 1281.88,-51.6824 1294.45,-53.3451"/>
<polygon fill="midnightblue" stroke="midnightblue" points="1294.07,-56.8251 1304.44,-54.6667 1294.99,-49.8855 1294.07,-56.8251"/>
</g>
<!-- Node29 -->
<g id="node29" class="node"><title>Node29</title>
<g id="a_node29"><a xlink:href="../../d6/dcd/classparser_1_1reflection_1_1_reflection_helper.html#ac2c724f682c2eb9bd6be04a816e86320" target="_top" xlink:title="parser.reflection.Reflection\lHelper.paramsEqual">
<polygon fill="white" stroke="black" points="1304.5,-0 1304.5,-30 1447.5,-30 1447.5,-0 1304.5,-0"/>
<text text-anchor="start" x="1312.5" y="-18" font-family="Helvetica,sans-Serif" font-size="10.00">parser.reflection.Reflection</text>
<text text-anchor="middle" x="1376" y="-7" font-family="Helvetica,sans-Serif" font-size="10.00">Helper.paramsEqual</text>
</a>
</g>
</g>
<!-- Node27&#45;&gt;Node29 -->
<g id="edge28" class="edge"><title>Node27&#45;&gt;Node29</title>
<path fill="none" stroke="midnightblue" d="M1256.65,-30.0292C1268.97,-28.4638 1281.88,-26.8249 1294.45,-25.2287"/>
<polygon fill="midnightblue" stroke="midnightblue" points="1294.96,-28.6919 1304.44,-23.96 1294.08,-21.7477 1294.96,-28.6919"/>
</g>
</g>
</svg>
        <g id="navigator" transform="translate(0 0)" fill="#404254">
                <rect fill="#f2f5e9" fill-opacity="0.5" stroke="#606060" stroke-width=".5" x="0" y="0" width="60" height="60"/>
                <use id="zoomplus" xlink:href="#zoomPlus" x="17" y="9" onmousedown="handleZoom(evt,'in')"/>
                <use id="zoomminus" xlink:href="#zoomMin" x="42" y="9" onmousedown="handleZoom(evt,'out')"/>
                <use id="reset" xlink:href="#resetDef" x="30" y="36" onmousedown="handleReset()"/>
                <g id="arrowUp" xlink:href="#dirArrow" transform="translate(30 24)" onmousedown="handlePan(0,-1)">
                  <use xlink:href="#rim" fill="#404040">
                        <set attributeName="fill" to="#808080" begin="arrowUp.mouseover" end="arrowUp.mouseout"/>
                  </use>
                  <path fill="none" stroke="white" stroke-width="1.5" d="M0,-3.0v7 M-2.5,-0.5L0,-3.0L2.5,-0.5"/>
                </g>
                <g id="arrowRight" xlink:href="#dirArrow" transform="rotate(90) translate(36 -43)" onmousedown="handlePan(1,0)">
                  <use xlink:href="#rim" fill="#404040">
                        <set attributeName="fill" to="#808080" begin="arrowRight.mouseover" end="arrowRight.mouseout"/>
                  </use>
                  <path fill="none" stroke="white" stroke-width="1.5" d="M0,-3.0v7 M-2.5,-0.5L0,-3.0L2.5,-0.5"/>
                </g>
                <g id="arrowDown" xlink:href="#dirArrow" transform="rotate(180) translate(-30 -48)" onmousedown="handlePan(0,1)">
                  <use xlink:href="#rim" fill="#404040">
                        <set attributeName="fill" to="#808080" begin="arrowDown.mouseover" end="arrowDown.mouseout"/>
                  </use>
                  <path fill="none" stroke="white" stroke-width="1.5" d="M0,-3.0v7 M-2.5,-0.5L0,-3.0L2.5,-0.5"/>
                </g>
                <g id="arrowLeft" xlink:href="#dirArrow" transform="rotate(270) translate(-36 17)" onmousedown="handlePan(-1,0)">
                  <use xlink:href="#rim" fill="#404040">
                        <set attributeName="fill" to="#808080" begin="arrowLeft.mouseover" end="arrowLeft.mouseout"/>
                  </use>
                  <path fill="none" stroke="white" stroke-width="1.5" d="M0,-3.0v7 M-2.5,-0.5L0,-3.0L2.5,-0.5"/>
                </g>
        </g>
        <svg viewBox="0 0 15 15" width="100%" height="30px" preserveAspectRatio="xMaxYMin meet">
         <g id="arrow_out" transform="scale(0.3 0.3)">
          <a xlink:href="classcontroller_1_1_controller_aec5e242ff69899c974dbd6302510f70b_cgraph_org.svg" target="_base">
           <rect id="button" ry="5" rx="5" y="6" x="6" height="38" width="38"
                fill="#f2f5e9" fill-opacity="0.5" stroke="#606060" stroke-width="1.0"/>
           <path id="arrow"
             d="M 11.500037,31.436501 C 11.940474,20.09759 22.043105,11.32322 32.158766,21.979434 L 37.068811,17.246167 C 37.068811,17.246167 37.088388,32 37.088388,32 L 22.160133,31.978069 C 22.160133,31.978069 26.997745,27.140456 26.997745,27.140456 C 18.528582,18.264221 13.291696,25.230495 11.500037,31.436501 z"
             style="fill:#404040;"/>
          </a>
         </g>
        </svg>
</svg>
