<?xml version="1.0" encoding="UTF-8" standalone="no"?>
<!DOCTYPE svg PUBLIC "-//W3C//DTD SVG 1.1//EN"
 "http://www.w3.org/Graphics/SVG/1.1/DTD/svg11.dtd">
<!-- Generated by graphviz version 2.36.0 (20140111.2315)
 -->
<!-- Title: controller.Controller.getWorkspace Pages: 1 -->
<svg width="1260pt" height="431pt"
 viewBox="0.00 0.00 1260.00 431.14" xmlns="http://www.w3.org/2000/svg" xmlns:xlink="http://www.w3.org/1999/xlink">
<g id="graph0" class="graph" transform="scale(1 1) rotate(0) translate(4 427.141)">
<title>controller.Controller.getWorkspace</title>
<polygon fill="white" stroke="none" points="-4,4 -4,-427.141 1256,-427.141 1256,4 -4,4"/>
<!-- Node1 -->
<g id="node1" class="node"><title>Node1</title>
<polygon fill="#bfbfbf" stroke="black" points="0,-205.361 0,-235.361 128,-235.361 128,-205.361 0,-205.361"/>
<text text-anchor="start" x="8" y="-223.361" font-family="Helvetica,sans-Serif" font-size="10.00">controller.Controller.get</text>
<text text-anchor="middle" x="64" y="-212.361" font-family="Helvetica,sans-Serif" font-size="10.00">Workspace</text>
</g>
<!-- Node2 -->
<g id="node2" class="node"><title>Node2</title>
<g id="a_node2"><a xlink:href="../../d9/df7/classcontroller_1_1_controller.html#acd242cba05fd983be695439ef2186966" target="_top" xlink:title="controller.Controller.create\lCheckBoxItemListener">
<polygon fill="white" stroke="black" points="175.5,-306.361 175.5,-336.361 318.5,-336.361 318.5,-306.361 175.5,-306.361"/>
<text text-anchor="start" x="183.5" y="-324.361" font-family="Helvetica,sans-Serif" font-size="10.00">controller.Controller.create</text>
<text text-anchor="middle" x="247" y="-313.361" font-family="Helvetica,sans-Serif" font-size="10.00">CheckBoxItemListener</text>
</a>
</g>
</g>
<!-- Node1&#45;&gt;Node2 -->
<g id="edge1" class="edge"><title>Node1&#45;&gt;Node2</title>
<path fill="none" stroke="midnightblue" d="M90.9769,-241.993C110.236,-257.264 137.615,-277.408 164,-291.361 174.72,-297.03 186.748,-302.086 198.22,-306.358"/>
<polygon fill="midnightblue" stroke="midnightblue" points="92.9759,-239.11 82.9897,-235.57 88.5892,-244.565 92.9759,-239.11"/>
</g>
<!-- Node3 -->
<g id="node3" class="node"><title>Node3</title>
<g id="a_node3"><a xlink:href="../../d9/df7/classcontroller_1_1_controller.html#a17d9d0474952b983548cde23a4e27134" target="_top" xlink:title="controller.Controller.create\lTellMenuListener">
<polygon fill="white" stroke="black" points="366.5,-268.361 366.5,-298.361 509.5,-298.361 509.5,-268.361 366.5,-268.361"/>
<text text-anchor="start" x="374.5" y="-286.361" font-family="Helvetica,sans-Serif" font-size="10.00">controller.Controller.create</text>
<text text-anchor="middle" x="438" y="-275.361" font-family="Helvetica,sans-Serif" font-size="10.00">TellMenuListener</text>
</a>
</g>
</g>
<!-- Node1&#45;&gt;Node3 -->
<g id="edge17" class="edge"><title>Node1&#45;&gt;Node3</title>
<path fill="none" stroke="midnightblue" d="M113.568,-238.834C129.444,-244.254 147.292,-249.702 164,-253.361 231.886,-268.229 310.964,-275.891 366.484,-279.734"/>
<polygon fill="midnightblue" stroke="midnightblue" points="114.561,-235.473 103.966,-235.479 112.252,-242.082 114.561,-235.473"/>
</g>
<!-- Node4 -->
<g id="node4" class="node"><title>Node4</title>
<g id="a_node4"><a xlink:href="../../d9/df7/classcontroller_1_1_controller.html#ac03add001882f876041934dfe435b43f" target="_top" xlink:title="controller.Controller.create\lSettingMenu">
<polygon fill="white" stroke="black" points="549.5,-230.361 549.5,-260.361 692.5,-260.361 692.5,-230.361 549.5,-230.361"/>
<text text-anchor="start" x="557.5" y="-248.361" font-family="Helvetica,sans-Serif" font-size="10.00">controller.Controller.create</text>
<text text-anchor="middle" x="621" y="-237.361" font-family="Helvetica,sans-Serif" font-size="10.00">SettingMenu</text>
</a>
</g>
</g>
<!-- Node1&#45;&gt;Node4 -->
<g id="edge16" class="edge"><title>Node1&#45;&gt;Node4</title>
<path fill="none" stroke="midnightblue" d="M138.197,-223.658C245.268,-228.481 443.32,-237.403 549.082,-242.167"/>
<polygon fill="midnightblue" stroke="midnightblue" points="138.273,-220.158 128.125,-223.205 137.958,-227.151 138.273,-220.158"/>
</g>
<!-- Node7 -->
<g id="node7" class="node"><title>Node7</title>
<g id="a_node7"><a xlink:href="../../d9/df7/classcontroller_1_1_controller.html#a028264f3c286e8e1a2d897dda5ff0b53" target="_top" xlink:title="controller.Controller.create\lEditMenu">
<polygon fill="white" stroke="black" points="732.5,-186.361 732.5,-216.361 875.5,-216.361 875.5,-186.361 732.5,-186.361"/>
<text text-anchor="start" x="740.5" y="-204.361" font-family="Helvetica,sans-Serif" font-size="10.00">controller.Controller.create</text>
<text text-anchor="middle" x="804" y="-193.361" font-family="Helvetica,sans-Serif" font-size="10.00">EditMenu</text>
</a>
</g>
</g>
<!-- Node1&#45;&gt;Node7 -->
<g id="edge6" class="edge"><title>Node1&#45;&gt;Node7</title>
<path fill="none" stroke="midnightblue" d="M138.604,-218.466C280.951,-214.801 592.248,-206.787 732.279,-203.182"/>
<polygon fill="midnightblue" stroke="midnightblue" points="138.147,-214.977 128.24,-218.733 138.327,-221.974 138.147,-214.977"/>
</g>
<!-- Node8 -->
<g id="node8" class="node"><title>Node8</title>
<g id="a_node8"><a xlink:href="../../d9/df7/classcontroller_1_1_controller.html#aa46804b9ca132af8504b5dafb1cadb0d" target="_top" xlink:title="controller.Controller.create\lFileCommands">
<polygon fill="white" stroke="black" points="549.5,-344.361 549.5,-374.361 692.5,-374.361 692.5,-344.361 549.5,-344.361"/>
<text text-anchor="start" x="557.5" y="-362.361" font-family="Helvetica,sans-Serif" font-size="10.00">controller.Controller.create</text>
<text text-anchor="middle" x="621" y="-351.361" font-family="Helvetica,sans-Serif" font-size="10.00">FileCommands</text>
</a>
</g>
</g>
<!-- Node1&#45;&gt;Node8 -->
<g id="edge8" class="edge"><title>Node1&#45;&gt;Node8</title>
<path fill="none" stroke="midnightblue" d="M71.5788,-245.297C83.1012,-283.287 110.92,-354.402 164,-384.361 300.885,-461.622 499.23,-404.226 581.751,-374.399"/>
<polygon fill="midnightblue" stroke="midnightblue" points="74.8927,-244.157 68.7536,-235.522 68.1679,-246.101 74.8927,-244.157"/>
</g>
<!-- Node10 -->
<g id="node10" class="node"><title>Node10</title>
<g id="a_node10"><a xlink:href="../../d9/df7/classcontroller_1_1_controller.html#ad4ea3ddba3a6da5e7d84dfcea4af939b" target="_top" xlink:title="controller.Controller.create\lHelpMenu">
<polygon fill="white" stroke="black" points="366.5,-142.361 366.5,-172.361 509.5,-172.361 509.5,-142.361 366.5,-142.361"/>
<text text-anchor="start" x="374.5" y="-160.361" font-family="Helvetica,sans-Serif" font-size="10.00">controller.Controller.create</text>
<text text-anchor="middle" x="438" y="-149.361" font-family="Helvetica,sans-Serif" font-size="10.00">HelpMenu</text>
</a>
</g>
</g>
<!-- Node1&#45;&gt;Node10 -->
<g id="edge11" class="edge"><title>Node1&#45;&gt;Node10</title>
<path fill="none" stroke="midnightblue" d="M113.568,-201.889C129.444,-196.468 147.292,-191.02 164,-187.361 231.886,-172.494 310.964,-164.831 366.484,-160.989"/>
<polygon fill="midnightblue" stroke="midnightblue" points="112.252,-198.641 103.966,-205.243 114.561,-205.249 112.252,-198.641"/>
</g>
<!-- Node11 -->
<g id="node11" class="node"><title>Node11</title>
<g id="a_node11"><a xlink:href="../../d9/df7/classcontroller_1_1_controller.html#a19e3ac02ba1459ff9e16013584ba0ae5" target="_top" xlink:title="controller.Controller.create\lPhysicalCommands">
<polygon fill="white" stroke="black" points="175.5,-55.3612 175.5,-85.3612 318.5,-85.3612 318.5,-55.3612 175.5,-55.3612"/>
<text text-anchor="start" x="183.5" y="-73.3612" font-family="Helvetica,sans-Serif" font-size="10.00">controller.Controller.create</text>
<text text-anchor="middle" x="247" y="-62.3612" font-family="Helvetica,sans-Serif" font-size="10.00">PhysicalCommands</text>
</a>
</g>
</g>
<!-- Node1&#45;&gt;Node11 -->
<g id="edge13" class="edge"><title>Node1&#45;&gt;Node11</title>
<path fill="none" stroke="midnightblue" d="M77.8052,-196.13C94.0954,-167.621 124.873,-120.83 164,-94.3612 169.037,-90.9535 174.564,-88.0217 180.295,-85.5008"/>
<polygon fill="midnightblue" stroke="midnightblue" points="74.6504,-194.601 72.845,-205.041 80.7667,-198.006 74.6504,-194.601"/>
</g>
<!-- Node13 -->
<g id="node13" class="node"><title>Node13</title>
<g id="a_node13"><a xlink:href="../../d9/df7/classcontroller_1_1_controller.html#aaa03ac2d4ba85ce0aea59ded9a2f65b9" target="_top" xlink:title="controller.Controller.create\lVisualCommands">
<polygon fill="white" stroke="black" points="175.5,-104.361 175.5,-134.361 318.5,-134.361 318.5,-104.361 175.5,-104.361"/>
<text text-anchor="start" x="183.5" y="-122.361" font-family="Helvetica,sans-Serif" font-size="10.00">controller.Controller.create</text>
<text text-anchor="middle" x="247" y="-111.361" font-family="Helvetica,sans-Serif" font-size="10.00">VisualCommands</text>
</a>
</g>
</g>
<!-- Node1&#45;&gt;Node13 -->
<g id="edge18" class="edge"><title>Node1&#45;&gt;Node13</title>
<path fill="none" stroke="midnightblue" d="M90.9769,-198.729C110.236,-183.459 137.615,-163.314 164,-149.361 174.72,-143.692 186.748,-138.636 198.22,-134.364"/>
<polygon fill="midnightblue" stroke="midnightblue" points="88.5892,-196.158 82.9897,-205.152 92.9759,-201.613 88.5892,-196.158"/>
</g>
<!-- Node14 -->
<g id="node14" class="node"><title>Node14</title>
<g id="a_node14"><a xlink:href="../../d9/df7/classcontroller_1_1_controller.html#a89b63f37e67efbeddda1f247016c837b" target="_top" xlink:title="controller.Controller.process\lCommand">
<polygon fill="white" stroke="black" points="546,-31.3612 546,-61.3612 696,-61.3612 696,-31.3612 546,-31.3612"/>
<text text-anchor="start" x="554" y="-49.3612" font-family="Helvetica,sans-Serif" font-size="10.00">controller.Controller.process</text>
<text text-anchor="middle" x="621" y="-38.3612" font-family="Helvetica,sans-Serif" font-size="10.00">Command</text>
</a>
</g>
</g>
<!-- Node1&#45;&gt;Node14 -->
<g id="edge20" class="edge"><title>Node1&#45;&gt;Node14</title>
<path fill="none" stroke="midnightblue" d="M70.5969,-195.529C81.0993,-155.538 107.949,-78.0511 164,-45.3612 294.276,30.6173 483.172,-7.03533 571.306,-31.2767"/>
<polygon fill="midnightblue" stroke="midnightblue" points="67.1857,-194.743 68.1638,-205.293 73.978,-196.436 67.1857,-194.743"/>
</g>
<!-- Node16 -->
<g id="node16" class="node"><title>Node16</title>
<g id="a_node16"><a xlink:href="../../d9/df7/classcontroller_1_1_controller.html#aec5e242ff69899c974dbd6302510f70b" target="_top" xlink:title="controller.Controller.processFile">
<polygon fill="white" stroke="black" points="164.5,-355.861 164.5,-374.861 329.5,-374.861 329.5,-355.861 164.5,-355.861"/>
<text text-anchor="middle" x="247" y="-362.861" font-family="Helvetica,sans-Serif" font-size="10.00">controller.Controller.processFile</text>
</a>
</g>
</g>
<!-- Node1&#45;&gt;Node16 -->
<g id="edge23" class="edge"><title>Node1&#45;&gt;Node16</title>
<path fill="none" stroke="midnightblue" d="M77.6533,-244.703C93.7947,-273.281 124.427,-319.991 164,-345.361 170.785,-349.711 178.439,-353.115 186.276,-355.778"/>
<polygon fill="midnightblue" stroke="midnightblue" points="80.625,-242.843 72.7428,-235.763 74.4896,-246.213 80.625,-242.843"/>
</g>
<!-- Node2&#45;&gt;Node3 -->
<g id="edge2" class="edge"><title>Node2&#45;&gt;Node3</title>
<path fill="none" stroke="midnightblue" d="M328.638,-305.148C341.21,-302.621 354.116,-300.026 366.44,-297.548"/>
<polygon fill="midnightblue" stroke="midnightblue" points="327.759,-301.755 318.645,-307.157 329.139,-308.617 327.759,-301.755"/>
</g>
<!-- Node3&#45;&gt;Node4 -->
<g id="edge3" class="edge"><title>Node3&#45;&gt;Node4</title>
<path fill="none" stroke="midnightblue" d="M519.588,-266.442C529.49,-264.363 539.552,-262.251 549.292,-260.206"/>
<polygon fill="midnightblue" stroke="midnightblue" points="518.824,-263.026 509.757,-268.506 520.263,-269.877 518.824,-263.026"/>
</g>
<!-- Node5 -->
<g id="node5" class="node"><title>Node5</title>
<g id="a_node5"><a xlink:href="../../d9/df7/classcontroller_1_1_controller.html#a2901bf43bb8e47b485558dbf00d40d6d" target="_top" xlink:title="controller.Controller.create\lJMenuBar">
<polygon fill="white" stroke="black" points="912.5,-164.361 912.5,-194.361 1055.5,-194.361 1055.5,-164.361 912.5,-164.361"/>
<text text-anchor="start" x="920.5" y="-182.361" font-family="Helvetica,sans-Serif" font-size="10.00">controller.Controller.create</text>
<text text-anchor="middle" x="984" y="-171.361" font-family="Helvetica,sans-Serif" font-size="10.00">JMenuBar</text>
</a>
</g>
</g>
<!-- Node4&#45;&gt;Node5 -->
<g id="edge4" class="edge"><title>Node4&#45;&gt;Node5</title>
<path fill="none" stroke="midnightblue" d="M702.717,-245.703C753.179,-244.278 819.154,-239.411 876,-225.361 903.874,-218.472 933.747,-205.072 954.825,-194.504"/>
<polygon fill="midnightblue" stroke="midnightblue" points="702.429,-242.209 692.517,-245.95 702.599,-249.207 702.429,-242.209"/>
</g>
<!-- Node6 -->
<g id="node6" class="node"><title>Node6</title>
<g id="a_node6"><a xlink:href="../../d9/df7/classcontroller_1_1_controller.html#a47511ec57338c8e75e71e9314cda5271" target="_top" xlink:title="controller.Controller.Controller">
<polygon fill="white" stroke="black" points="1092.5,-133.861 1092.5,-152.861 1251.5,-152.861 1251.5,-133.861 1092.5,-133.861"/>
<text text-anchor="middle" x="1172" y="-140.861" font-family="Helvetica,sans-Serif" font-size="10.00">controller.Controller.Controller</text>
</a>
</g>
</g>
<!-- Node5&#45;&gt;Node6 -->
<g id="edge5" class="edge"><title>Node5&#45;&gt;Node6</title>
<path fill="none" stroke="midnightblue" d="M1065.52,-163.776C1084.69,-160.066 1104.58,-156.217 1121.85,-152.874"/>
<polygon fill="midnightblue" stroke="midnightblue" points="1064.74,-160.363 1055.58,-165.7 1066.07,-167.236 1064.74,-160.363"/>
</g>
<!-- Node7&#45;&gt;Node5 -->
<g id="edge7" class="edge"><title>Node7&#45;&gt;Node5</title>
<path fill="none" stroke="midnightblue" d="M885.646,-191.394C894.599,-190.287 903.666,-189.167 912.479,-188.077"/>
<polygon fill="midnightblue" stroke="midnightblue" points="885.101,-187.934 875.606,-192.635 885.96,-194.881 885.101,-187.934"/>
</g>
<!-- Node9 -->
<g id="node9" class="node"><title>Node9</title>
<g id="a_node9"><a xlink:href="../../d9/df7/classcontroller_1_1_controller.html#af4c05286f1534b1fa6de523c54549288" target="_top" xlink:title="controller.Controller.create\lFileMenu">
<polygon fill="white" stroke="black" points="732.5,-309.361 732.5,-339.361 875.5,-339.361 875.5,-309.361 732.5,-309.361"/>
<text text-anchor="start" x="740.5" y="-327.361" font-family="Helvetica,sans-Serif" font-size="10.00">controller.Controller.create</text>
<text text-anchor="middle" x="804" y="-316.361" font-family="Helvetica,sans-Serif" font-size="10.00">FileMenu</text>
</a>
</g>
</g>
<!-- Node8&#45;&gt;Node9 -->
<g id="edge9" class="edge"><title>Node8&#45;&gt;Node9</title>
<path fill="none" stroke="midnightblue" d="M702.588,-343.778C712.49,-341.863 722.552,-339.917 732.292,-338.034"/>
<polygon fill="midnightblue" stroke="midnightblue" points="701.911,-340.344 692.757,-345.679 703.24,-347.217 701.911,-340.344"/>
</g>
<!-- Node9&#45;&gt;Node5 -->
<g id="edge10" class="edge"><title>Node9&#45;&gt;Node5</title>
<path fill="none" stroke="midnightblue" d="M831.482,-302.788C867.988,-273.05 932.846,-220.217 964.538,-194.4"/>
<polygon fill="midnightblue" stroke="midnightblue" points="829.255,-300.088 823.713,-309.118 833.676,-305.516 829.255,-300.088"/>
</g>
<!-- Node10&#45;&gt;Node5 -->
<g id="edge12" class="edge"><title>Node10&#45;&gt;Node5</title>
<path fill="none" stroke="midnightblue" d="M519.588,-160.62C625.81,-164.916 811.005,-172.406 912.133,-176.495"/>
<polygon fill="midnightblue" stroke="midnightblue" points="519.694,-157.122 509.561,-160.215 519.411,-164.116 519.694,-157.122"/>
</g>
<!-- Node12 -->
<g id="node12" class="node"><title>Node12</title>
<g id="a_node12"><a xlink:href="../../d9/df7/classcontroller_1_1_controller.html#aa81e4dbd87e3f8b9a1c43acb096304dd" target="_top" xlink:title="controller.Controller.create\lCommandMenu">
<polygon fill="white" stroke="black" points="366.5,-93.3612 366.5,-123.361 509.5,-123.361 509.5,-93.3612 366.5,-93.3612"/>
<text text-anchor="start" x="374.5" y="-111.361" font-family="Helvetica,sans-Serif" font-size="10.00">controller.Controller.create</text>
<text text-anchor="middle" x="438" y="-100.361" font-family="Helvetica,sans-Serif" font-size="10.00">CommandMenu</text>
</a>
</g>
</g>
<!-- Node11&#45;&gt;Node12 -->
<g id="edge14" class="edge"><title>Node11&#45;&gt;Node12</title>
<path fill="none" stroke="midnightblue" d="M328.638,-86.5742C341.21,-89.1018 354.116,-91.6966 366.44,-94.1746"/>
<polygon fill="midnightblue" stroke="midnightblue" points="329.139,-83.1049 318.645,-84.565 327.759,-89.9676 329.139,-83.1049"/>
</g>
<!-- Node12&#45;&gt;Node5 -->
<g id="edge15" class="edge"><title>Node12&#45;&gt;Node5</title>
<path fill="none" stroke="midnightblue" d="M519.92,-118.906C607.64,-130.34 751.757,-149.13 876,-165.361 887.796,-166.902 900.324,-168.54 912.494,-170.132"/>
<polygon fill="midnightblue" stroke="midnightblue" points="520.139,-115.405 509.77,-117.583 519.234,-122.346 520.139,-115.405"/>
</g>
<!-- Node13&#45;&gt;Node12 -->
<g id="edge19" class="edge"><title>Node13&#45;&gt;Node12</title>
<path fill="none" stroke="midnightblue" d="M328.638,-114.668C341.21,-113.936 354.116,-113.185 366.44,-112.468"/>
<polygon fill="midnightblue" stroke="midnightblue" points="328.425,-111.174 318.645,-115.25 328.832,-118.163 328.425,-111.174"/>
</g>
<!-- Node15 -->
<g id="node15" class="node"><title>Node15</title>
<g id="a_node15"><a xlink:href="../../d9/df7/classcontroller_1_1_controller.html#a2bfb87bca460d87b2c97e0b5045a2175" target="_top" xlink:title="controller.Controller.create\lRunCommandListener">
<polygon fill="white" stroke="black" points="732.5,-43.3612 732.5,-73.3612 875.5,-73.3612 875.5,-43.3612 732.5,-43.3612"/>
<text text-anchor="start" x="740.5" y="-61.3612" font-family="Helvetica,sans-Serif" font-size="10.00">controller.Controller.create</text>
<text text-anchor="middle" x="804" y="-50.3612" font-family="Helvetica,sans-Serif" font-size="10.00">RunCommandListener</text>
</a>
</g>
</g>
<!-- Node14&#45;&gt;Node15 -->
<g id="edge21" class="edge"><title>Node14&#45;&gt;Node15</title>
<path fill="none" stroke="midnightblue" d="M706.348,-51.9534C715.09,-52.5329 723.908,-53.1175 732.475,-53.6855"/>
<polygon fill="midnightblue" stroke="midnightblue" points="706.352,-48.446 696.142,-51.2767 705.888,-55.4306 706.352,-48.446"/>
</g>
<!-- Node15&#45;&gt;Node6 -->
<g id="edge22" class="edge"><title>Node15&#45;&gt;Node6</title>
<path fill="none" stroke="midnightblue" d="M879.537,-75.6717C955.177,-93.2384 1069.5,-119.788 1130.03,-133.847"/>
<polygon fill="midnightblue" stroke="midnightblue" points="880.124,-72.2148 869.591,-73.3618 878.54,-79.0334 880.124,-72.2148"/>
</g>
<!-- Node17 -->
<g id="node17" class="node"><title>Node17</title>
<g id="a_node17"><a xlink:href="../../d9/df7/classcontroller_1_1_controller.html#a37c3009658f66dc4de0be01b75adf660" target="_top" xlink:title="controller.Controller.load\lWorkspace">
<polygon fill="white" stroke="black" points="371.5,-344.361 371.5,-374.361 504.5,-374.361 504.5,-344.361 371.5,-344.361"/>
<text text-anchor="start" x="379.5" y="-362.361" font-family="Helvetica,sans-Serif" font-size="10.00">controller.Controller.load</text>
<text text-anchor="middle" x="438" y="-351.361" font-family="Helvetica,sans-Serif" font-size="10.00">Workspace</text>
</a>
</g>
</g>
<!-- Node16&#45;&gt;Node17 -->
<g id="edge24" class="edge"><title>Node16&#45;&gt;Node17</title>
<path fill="none" stroke="midnightblue" d="M339.737,-362.449C350.423,-362.11 361.155,-361.769 371.388,-361.444"/>
<polygon fill="midnightblue" stroke="midnightblue" points="339.408,-358.957 329.524,-362.773 339.63,-365.954 339.408,-358.957"/>
</g>
<!-- Node17&#45;&gt;Node8 -->
<g id="edge25" class="edge"><title>Node17&#45;&gt;Node8</title>
<path fill="none" stroke="midnightblue" d="M514.627,-359.361C526.156,-359.361 538.015,-359.361 549.429,-359.361"/>
<polygon fill="midnightblue" stroke="midnightblue" points="514.601,-355.861 504.601,-359.361 514.601,-362.861 514.601,-355.861"/>
</g>
</g>
</svg>
