<?xml version="1.0" encoding="UTF-8" standalone="no"?>
<!DOCTYPE svg PUBLIC "-//W3C//DTD SVG 1.1//EN"
 "http://www.w3.org/Graphics/SVG/1.1/DTD/svg11.dtd">
<!-- Generated by graphviz version 2.36.0 (20140111.2315)
 -->
<!-- Title: controller.Controller.createFileCommands Pages: 1 -->
<!--zoomable 436 -->
<svg id="main" version="1.1" xmlns="http://www.w3.org/2000/svg" xmlns:xlink="http://www.w3.org/1999/xlink" xml:space="preserve" onload="init(evt)">
<style type="text/css"><![CDATA[
.edge:hover path { stroke: red; }
.edge:hover polygon { stroke: red; fill: red; }
]]></style>
<script type="text/javascript"><![CDATA[
var edges = document.getElementsByTagName('g');
if (edges && edges.length) {
  for (var i=0;i<edges.length;i++) {
    if (edges[i].id.substr(0,4)=='edge') {
      edges[i].setAttribute('class','edge');
    }
  }
}
]]></script>
        <defs>
                <circle id="rim" cx="0" cy="0" r="7"/>
                <circle id="rim2" cx="0" cy="0" r="3.5"/>
                <g id="zoomPlus">
                        <use xlink:href="#rim" fill="#404040">
                                <set attributeName="fill" to="#808080" begin="zoomplus.mouseover" end="zoomplus.mouseout"/>
                        </use>
                        <path d="M-4,0h8M0,-4v8" fill="none" stroke="white" stroke-width="1.5" pointer-events="none"/>
                </g>
                <g id="zoomMin">
                        <use xlink:href="#rim" fill="#404040">
                                <set attributeName="fill" to="#808080" begin="zoomminus.mouseover" end="zoomminus.mouseout"/>
                        </use>
                        <path d="M-4,0h8" fill="none" stroke="white" stroke-width="1.5" pointer-events="none"/>
                </g>
                <g id="dirArrow">
                        <path fill="none" stroke="white" stroke-width="1.5" d="M0,-3.0v7 M-2.5,-0.5L0,-3.0L2.5,-0.5"/>
                </g>
               <g id="resetDef">
                       <use xlink:href="#rim2" fill="#404040">
                               <set attributeName="fill" to="#808080" begin="reset.mouseover" end="reset.mouseout"/>
                       </use>
               </g>
        </defs>

<script type="text/javascript">
var viewWidth = 1834;
var viewHeight = 436;
var sectionId = 'dynsection-8';
</script>
<script xlink:href="../../svgpan.js"/>
<svg id="graph" class="graph">
<g id="viewport">
<title>controller.Controller.createFileCommands</title>
<polygon fill="white" stroke="none" points="-4,4 -4,-432 1830,-432 1830,4 -4,4"/>
<!-- Node1 -->
<g id="node1" class="node"><title>Node1</title>
<polygon fill="#bfbfbf" stroke="black" points="0.5,-253 0.5,-283 143.5,-283 143.5,-253 0.5,-253"/>
<text text-anchor="start" x="8.5" y="-271" font-family="Helvetica,sans-Serif" font-size="10.00">controller.Controller.create</text>
<text text-anchor="middle" x="72" y="-260" font-family="Helvetica,sans-Serif" font-size="10.00">FileCommands</text>
</g>
<!-- Node2 -->
<g id="node2" class="node"><title>Node2</title>
<g id="a_node2"><a xlink:href="../../dc/dbd/interfaceview_1_1_workspace_handler.html#a09940a4c7c5a624e83aef63d8a95dbd8" target="_top" xlink:title="view.WorkspaceHandler.create\lWorkspace">
<polygon fill="white" stroke="black" points="180.5,-341 180.5,-371 341.5,-371 341.5,-341 180.5,-341"/>
<text text-anchor="start" x="188.5" y="-359" font-family="Helvetica,sans-Serif" font-size="10.00">view.WorkspaceHandler.create</text>
<text text-anchor="middle" x="261" y="-348" font-family="Helvetica,sans-Serif" font-size="10.00">Workspace</text>
</a>
</g>
</g>
<!-- Node1&#45;&gt;Node2 -->
<g id="edge1" class="edge"><title>Node1&#45;&gt;Node2</title>
<path fill="none" stroke="midnightblue" d="M98.4384,-283.083C119.805,-295.434 151.353,-312.94 180,-326 188.615,-329.927 197.907,-333.761 207.003,-337.304"/>
<polygon fill="midnightblue" stroke="midnightblue" points="205.784,-340.585 216.375,-340.883 208.281,-334.046 205.784,-340.585"/>
</g>
<!-- Node3 -->
<g id="node3" class="node"><title>Node3</title>
<g id="a_node3"><a xlink:href="../../d9/df7/classcontroller_1_1_controller.html#a318978485f5c3bbf5a89f5dac0db71ae" target="_top" xlink:title="controller.Controller.get\lWorkspace">
<polygon fill="white" stroke="black" points="596,-398 596,-428 724,-428 724,-398 596,-398"/>
<text text-anchor="start" x="604" y="-416" font-family="Helvetica,sans-Serif" font-size="10.00">controller.Controller.get</text>
<text text-anchor="middle" x="660" y="-405" font-family="Helvetica,sans-Serif" font-size="10.00">Workspace</text>
</a>
</g>
</g>
<!-- Node1&#45;&gt;Node3 -->
<g id="edge2" class="edge"><title>Node1&#45;&gt;Node3</title>
<path fill="none" stroke="midnightblue" d="M137.48,-283.024C192.019,-295.808 272.205,-314.782 342,-332 428.114,-353.244 527.113,-378.708 591.242,-395.34"/>
<polygon fill="midnightblue" stroke="midnightblue" points="590.669,-398.807 601.227,-397.931 592.427,-392.031 590.669,-398.807"/>
</g>
<!-- Node5 -->
<g id="node5" class="node"><title>Node5</title>
<g id="a_node5"><a xlink:href="../../d9/df7/classcontroller_1_1_controller.html#a37c3009658f66dc4de0be01b75adf660" target="_top" xlink:title="controller.Controller.load\lWorkspace">
<polygon fill="white" stroke="black" points="194.5,-253 194.5,-283 327.5,-283 327.5,-253 194.5,-253"/>
<text text-anchor="start" x="202.5" y="-271" font-family="Helvetica,sans-Serif" font-size="10.00">controller.Controller.load</text>
<text text-anchor="middle" x="261" y="-260" font-family="Helvetica,sans-Serif" font-size="10.00">Workspace</text>
</a>
</g>
</g>
<!-- Node1&#45;&gt;Node5 -->
<g id="edge4" class="edge"><title>Node1&#45;&gt;Node5</title>
<path fill="none" stroke="midnightblue" d="M143.697,-268C156.966,-268 170.888,-268 184.303,-268"/>
<polygon fill="midnightblue" stroke="midnightblue" points="184.443,-271.5 194.443,-268 184.443,-264.5 184.443,-271.5"/>
</g>
<!-- Node32 -->
<g id="node32" class="node"><title>Node32</title>
<g id="a_node32"><a xlink:href="../../de/d84/classcontroller_1_1_workspace.html#a6b1f99115388e9de9dc779e30ed16041" target="_top" xlink:title="controller.Workspace.show\lError">
<polygon fill="white" stroke="black" points="797,-177 797,-207 939,-207 939,-177 797,-177"/>
<text text-anchor="start" x="805" y="-195" font-family="Helvetica,sans-Serif" font-size="10.00">controller.Workspace.show</text>
<text text-anchor="middle" x="868" y="-184" font-family="Helvetica,sans-Serif" font-size="10.00">Error</text>
</a>
</g>
</g>
<!-- Node1&#45;&gt;Node32 -->
<g id="edge36" class="edge"><title>Node1&#45;&gt;Node32</title>
<path fill="none" stroke="midnightblue" d="M137.388,-252.986C151.406,-249.877 166.178,-246.723 180,-244 425.989,-195.538 489.775,-160.3 740,-176 755.192,-176.953 771.346,-178.542 786.86,-180.357"/>
<polygon fill="midnightblue" stroke="midnightblue" points="786.598,-183.851 796.946,-181.579 787.44,-176.902 786.598,-183.851"/>
</g>
<!-- Node34 -->
<g id="node34" class="node"><title>Node34</title>
<g id="a_node34"><a xlink:href="../../de/d84/classcontroller_1_1_workspace.html#ae35f2990b4bd90ac9b6b0d66c4aa839f" target="_top" xlink:title="controller.Workspace.save\lWorkspace">
<polygon fill="white" stroke="black" points="191,-98 191,-128 331,-128 331,-98 191,-98"/>
<text text-anchor="start" x="199" y="-116" font-family="Helvetica,sans-Serif" font-size="10.00">controller.Workspace.save</text>
<text text-anchor="middle" x="261" y="-105" font-family="Helvetica,sans-Serif" font-size="10.00">Workspace</text>
</a>
</g>
</g>
<!-- Node1&#45;&gt;Node34 -->
<g id="edge35" class="edge"><title>Node1&#45;&gt;Node34</title>
<path fill="none" stroke="midnightblue" d="M82.3257,-252.746C98.9222,-226.776 136.006,-173.801 180,-143 185.848,-138.906 192.324,-135.291 198.986,-132.12"/>
<polygon fill="midnightblue" stroke="midnightblue" points="200.416,-135.314 208.144,-128.067 197.583,-128.913 200.416,-135.314"/>
</g>
<!-- Node4 -->
<g id="node4" class="node"><title>Node4</title>
<g id="a_node4"><a xlink:href="../../dc/dbd/interfaceview_1_1_workspace_handler.html#ac88b6c9e5fb3ffa06ab3ef23b9ce2ae0" target="_top" xlink:title="view.WorkspaceHandler.get\lWorkspace">
<polygon fill="white" stroke="black" points="795,-398 795,-428 941,-428 941,-398 795,-398"/>
<text text-anchor="start" x="803" y="-416" font-family="Helvetica,sans-Serif" font-size="10.00">view.WorkspaceHandler.get</text>
<text text-anchor="middle" x="868" y="-405" font-family="Helvetica,sans-Serif" font-size="10.00">Workspace</text>
</a>
</g>
</g>
<!-- Node3&#45;&gt;Node4 -->
<g id="edge3" class="edge"><title>Node3&#45;&gt;Node4</title>
<path fill="none" stroke="midnightblue" d="M724.207,-413C743.329,-413 764.614,-413 784.789,-413"/>
<polygon fill="midnightblue" stroke="midnightblue" points="784.903,-416.5 794.903,-413 784.903,-409.5 784.903,-416.5"/>
</g>
<!-- Node6 -->
<g id="node6" class="node"><title>Node6</title>
<g id="a_node6"><a xlink:href="../../d9/df7/classcontroller_1_1_controller.html#aec5e242ff69899c974dbd6302510f70b" target="_top" xlink:title="controller.Controller.processFile">
<polygon fill="white" stroke="black" points="378.5,-261.5 378.5,-280.5 543.5,-280.5 543.5,-261.5 378.5,-261.5"/>
<text text-anchor="middle" x="461" y="-268.5" font-family="Helvetica,sans-Serif" font-size="10.00">controller.Controller.processFile</text>
</a>
</g>
</g>
<!-- Node5&#45;&gt;Node6 -->
<g id="edge5" class="edge"><title>Node5&#45;&gt;Node6</title>
<path fill="none" stroke="midnightblue" d="M327.656,-268.995C340.574,-269.191 354.349,-269.399 367.948,-269.605"/>
<polygon fill="midnightblue" stroke="midnightblue" points="368.244,-273.11 378.296,-269.762 368.35,-266.111 368.244,-273.11"/>
</g>
<!-- Node6&#45;&gt;Node3 -->
<g id="edge10" class="edge"><title>Node6&#45;&gt;Node3</title>
<path fill="none" stroke="midnightblue" d="M513.87,-280.551C524.819,-284.507 535.589,-290.098 544,-298 575.399,-327.498 548.431,-358.685 580,-388 582.174,-390.019 584.511,-391.875 586.97,-393.581"/>
<polygon fill="midnightblue" stroke="midnightblue" points="585.362,-396.698 595.742,-398.823 588.953,-390.689 585.362,-396.698"/>
</g>
<!-- Node7 -->
<g id="node7" class="node"><title>Node7</title>
<g id="a_node7"><a xlink:href="../../df/daf/classparser_1_1_semantics_table.html#a737b71f0ef1c252dbe00b3862c45bc74" target="_top" xlink:title="parser.SemanticsTable.get\lInstance">
<polygon fill="white" stroke="black" points="588.5,-349 588.5,-379 731.5,-379 731.5,-349 588.5,-349"/>
<text text-anchor="start" x="596.5" y="-367" font-family="Helvetica,sans-Serif" font-size="10.00">parser.SemanticsTable.get</text>
<text text-anchor="middle" x="660" y="-356" font-family="Helvetica,sans-Serif" font-size="10.00">Instance</text>
</a>
</g>
</g>
<!-- Node6&#45;&gt;Node7 -->
<g id="edge6" class="edge"><title>Node6&#45;&gt;Node7</title>
<path fill="none" stroke="midnightblue" d="M505.256,-280.55C518.371,-284.647 532.373,-290.313 544,-298 564.228,-311.374 559.694,-325.744 580,-339 583.136,-341.047 586.451,-342.936 589.876,-344.679"/>
<polygon fill="midnightblue" stroke="midnightblue" points="588.606,-347.947 599.152,-348.955 591.536,-341.59 588.606,-347.947"/>
</g>
<!-- Node10 -->
<g id="node10" class="node"><title>Node10</title>
<g id="a_node10"><a xlink:href="../../df/daf/classparser_1_1_semantics_table.html#aa027bd54d31d7ddb671b2773f7c2549b" target="_top" xlink:title="parser.SemanticsTable.set\lContext">
<polygon fill="white" stroke="black" points="588.5,-300 588.5,-330 731.5,-330 731.5,-300 588.5,-300"/>
<text text-anchor="start" x="596.5" y="-318" font-family="Helvetica,sans-Serif" font-size="10.00">parser.SemanticsTable.set</text>
<text text-anchor="middle" x="660" y="-307" font-family="Helvetica,sans-Serif" font-size="10.00">Context</text>
</a>
</g>
</g>
<!-- Node6&#45;&gt;Node10 -->
<g id="edge9" class="edge"><title>Node6&#45;&gt;Node10</title>
<path fill="none" stroke="midnightblue" d="M504.746,-280.547C527.223,-285.568 555.475,-291.878 581.639,-297.721"/>
<polygon fill="midnightblue" stroke="midnightblue" points="581.026,-301.171 591.548,-299.935 582.552,-294.339 581.026,-301.171"/>
</g>
<!-- Node11 -->
<g id="node11" class="node"><title>Node11</title>
<g id="a_node11"><a xlink:href="../../d6/d95/classparser_1_1_parser.html#ac0cfecef1d5308df35c49519d94f85a5" target="_top" xlink:title="parser.Parser.parseCommand">
<polygon fill="white" stroke="black" points="580.5,-261.5 580.5,-280.5 739.5,-280.5 739.5,-261.5 580.5,-261.5"/>
<text text-anchor="middle" x="660" y="-268.5" font-family="Helvetica,sans-Serif" font-size="10.00">parser.Parser.parseCommand</text>
</a>
</g>
</g>
<!-- Node6&#45;&gt;Node11 -->
<g id="edge11" class="edge"><title>Node6&#45;&gt;Node11</title>
<path fill="none" stroke="midnightblue" d="M543.549,-271C552.394,-271 561.426,-271 570.35,-271"/>
<polygon fill="midnightblue" stroke="midnightblue" points="570.362,-274.5 580.362,-271 570.362,-267.5 570.362,-274.5"/>
</g>
<!-- Node6&#45;&gt;Node32 -->
<g id="edge32" class="edge"><title>Node6&#45;&gt;Node32</title>
<path fill="none" stroke="midnightblue" d="M510.852,-261.471C579.318,-248.116 704.629,-223.672 786.864,-207.631"/>
<polygon fill="midnightblue" stroke="midnightblue" points="787.777,-211.019 796.922,-205.67 786.437,-204.149 787.777,-211.019"/>
</g>
<!-- Node33 -->
<g id="node33" class="node"><title>Node33</title>
<g id="a_node33"><a xlink:href="../../de/d84/classcontroller_1_1_workspace.html#a6e2c1aeab69fcad61e9a29cbf4c189cc" target="_top" xlink:title="controller.Workspace.execute">
<polygon fill="white" stroke="black" points="582,-185.5 582,-204.5 738,-204.5 738,-185.5 582,-185.5"/>
<text text-anchor="middle" x="660" y="-192.5" font-family="Helvetica,sans-Serif" font-size="10.00">controller.Workspace.execute</text>
</a>
</g>
</g>
<!-- Node6&#45;&gt;Node33 -->
<g id="edge33" class="edge"><title>Node6&#45;&gt;Node33</title>
<path fill="none" stroke="midnightblue" d="M481.743,-261.425C504.937,-250.382 544.735,-232.073 580,-219 591.123,-214.877 603.31,-210.911 614.712,-207.432"/>
<polygon fill="midnightblue" stroke="midnightblue" points="615.905,-210.728 624.482,-204.509 613.898,-204.022 615.905,-210.728"/>
</g>
<!-- Node8 -->
<g id="node8" class="node"><title>Node8</title>
<g id="a_node8"><a xlink:href="../../df/daf/classparser_1_1_semantics_table.html#a1ee110bb77636170fa5e8bb1921b8296" target="_top" xlink:title="parser.SemanticsTable.Semantics\lTable">
<polygon fill="white" stroke="black" points="778.5,-349 778.5,-379 957.5,-379 957.5,-349 778.5,-349"/>
<text text-anchor="start" x="786.5" y="-367" font-family="Helvetica,sans-Serif" font-size="10.00">parser.SemanticsTable.Semantics</text>
<text text-anchor="middle" x="868" y="-356" font-family="Helvetica,sans-Serif" font-size="10.00">Table</text>
</a>
</g>
</g>
<!-- Node7&#45;&gt;Node8 -->
<g id="edge7" class="edge"><title>Node7&#45;&gt;Node8</title>
<path fill="none" stroke="midnightblue" d="M731.605,-364C743.343,-364 755.706,-364 767.993,-364"/>
<polygon fill="midnightblue" stroke="midnightblue" points="768.281,-367.5 778.281,-364 768.281,-360.5 768.281,-367.5"/>
</g>
<!-- Node9 -->
<g id="node9" class="node"><title>Node9</title>
<g id="a_node9"><a xlink:href="../../df/daf/classparser_1_1_semantics_table.html#a9c805f5773f5a74c3985fb4a605f0e35" target="_top" xlink:title="parser.SemanticsTable.buildMap">
<polygon fill="white" stroke="black" points="1016,-357.5 1016,-376.5 1186,-376.5 1186,-357.5 1016,-357.5"/>
<text text-anchor="middle" x="1101" y="-364.5" font-family="Helvetica,sans-Serif" font-size="10.00">parser.SemanticsTable.buildMap</text>
</a>
</g>
</g>
<!-- Node8&#45;&gt;Node9 -->
<g id="edge8" class="edge"><title>Node8&#45;&gt;Node9</title>
<path fill="none" stroke="midnightblue" d="M957.65,-365.151C973.306,-365.355 989.658,-365.567 1005.47,-365.772"/>
<polygon fill="midnightblue" stroke="midnightblue" points="1005.72,-369.276 1015.77,-365.906 1005.81,-362.276 1005.72,-369.276"/>
</g>
<!-- Node12 -->
<g id="node12" class="node"><title>Node12</title>
<g id="a_node12"><a xlink:href="../../d2/df8/classparser_1_1_lex_checker.html#a982a56b6fbf6428a5dca97eb56a81625" target="_top" xlink:title="parser.LexChecker.splitTokens">
<polygon fill="white" stroke="black" points="788.5,-275.5 788.5,-294.5 947.5,-294.5 947.5,-275.5 788.5,-275.5"/>
<text text-anchor="middle" x="868" y="-282.5" font-family="Helvetica,sans-Serif" font-size="10.00">parser.LexChecker.splitTokens</text>
</a>
</g>
</g>
<!-- Node11&#45;&gt;Node12 -->
<g id="edge12" class="edge"><title>Node11&#45;&gt;Node12</title>
<path fill="none" stroke="midnightblue" d="M739.762,-276.353C752.309,-277.205 765.365,-278.093 778.126,-278.96"/>
<polygon fill="midnightblue" stroke="midnightblue" points="778.068,-282.464 788.282,-279.65 778.542,-275.48 778.068,-282.464"/>
</g>
<!-- Node13 -->
<g id="node13" class="node"><title>Node13</title>
<g id="a_node13"><a xlink:href="../../d7/d0d/classparser_1_1_semantics_checker.html#a8620f3090287a61f86765ee920d53de0" target="_top" xlink:title="parser.SemanticsChecker.evaluate\lExpression">
<polygon fill="white" stroke="black" points="776.5,-226 776.5,-256 959.5,-256 959.5,-226 776.5,-226"/>
<text text-anchor="start" x="784.5" y="-244" font-family="Helvetica,sans-Serif" font-size="10.00">parser.SemanticsChecker.evaluate</text>
<text text-anchor="middle" x="868" y="-233" font-family="Helvetica,sans-Serif" font-size="10.00">Expression</text>
</a>
</g>
</g>
<!-- Node11&#45;&gt;Node13 -->
<g id="edge13" class="edge"><title>Node11&#45;&gt;Node13</title>
<path fill="none" stroke="midnightblue" d="M726.463,-261.467C739.261,-259.603 752.955,-257.608 766.588,-255.623"/>
<polygon fill="midnightblue" stroke="midnightblue" points="767.1,-259.086 776.491,-254.181 766.091,-252.159 767.1,-259.086"/>
</g>
<!-- Node14 -->
<g id="node14" class="node"><title>Node14</title>
<g id="a_node14"><a xlink:href="../../df/daf/classparser_1_1_semantics_table.html#aab459a521d748abf6058d243b8714d32" target="_top" xlink:title="parser.SemanticsTable.get\lTokenClass">
<polygon fill="white" stroke="black" points="1029.5,-308 1029.5,-338 1172.5,-338 1172.5,-308 1029.5,-308"/>
<text text-anchor="start" x="1037.5" y="-326" font-family="Helvetica,sans-Serif" font-size="10.00">parser.SemanticsTable.get</text>
<text text-anchor="middle" x="1101" y="-315" font-family="Helvetica,sans-Serif" font-size="10.00">TokenClass</text>
</a>
</g>
</g>
<!-- Node13&#45;&gt;Node14 -->
<g id="edge14" class="edge"><title>Node13&#45;&gt;Node14</title>
<path fill="none" stroke="midnightblue" d="M937.436,-256.09C945.256,-258.89 952.945,-262.17 960,-266 978.814,-276.214 977.024,-288.09 996,-298 1003.45,-301.892 1011.52,-305.19 1019.76,-307.982"/>
<polygon fill="midnightblue" stroke="midnightblue" points="1018.89,-311.376 1029.48,-311.031 1020.98,-304.697 1018.89,-311.376"/>
</g>
<!-- Node18 -->
<g id="node18" class="node"><title>Node18</title>
<g id="a_node18"><a xlink:href="../../d5/d08/classparser_1_1nodes_1_1_node_information.html#a1553927792e60fe77a0b2a7d21c53182" target="_top" xlink:title="parser.nodes.NodeInformation.getName">
<polygon fill="white" stroke="black" points="996,-269.5 996,-288.5 1206,-288.5 1206,-269.5 996,-269.5"/>
<text text-anchor="middle" x="1101" y="-276.5" font-family="Helvetica,sans-Serif" font-size="10.00">parser.nodes.NodeInformation.getName</text>
</a>
</g>
</g>
<!-- Node13&#45;&gt;Node18 -->
<g id="edge18" class="edge"><title>Node13&#45;&gt;Node18</title>
<path fill="none" stroke="midnightblue" d="M959.634,-255.91C983.857,-259.894 1009.61,-264.131 1032.36,-267.873"/>
<polygon fill="midnightblue" stroke="midnightblue" points="1031.81,-271.329 1042.24,-269.499 1032.95,-264.422 1031.81,-271.329"/>
</g>
<!-- Node19 -->
<g id="node19" class="node"><title>Node19</title>
<g id="a_node19"><a xlink:href="../../df/daf/classparser_1_1_semantics_table.html#a8b10ea894ea685fb78306df326a17db2" target="_top" xlink:title="parser.SemanticsTable.register\lCustomCommand">
<polygon fill="white" stroke="black" points="1019,-220 1019,-250 1183,-250 1183,-220 1019,-220"/>
<text text-anchor="start" x="1027" y="-238" font-family="Helvetica,sans-Serif" font-size="10.00">parser.SemanticsTable.register</text>
<text text-anchor="middle" x="1101" y="-227" font-family="Helvetica,sans-Serif" font-size="10.00">CustomCommand</text>
</a>
</g>
</g>
<!-- Node13&#45;&gt;Node19 -->
<g id="edge19" class="edge"><title>Node13&#45;&gt;Node19</title>
<path fill="none" stroke="midnightblue" d="M959.634,-238.646C975.602,-238.231 992.235,-237.799 1008.23,-237.384"/>
<polygon fill="midnightblue" stroke="midnightblue" points="1008.74,-240.872 1018.64,-237.113 1008.55,-233.874 1008.74,-240.872"/>
</g>
<!-- Node21 -->
<g id="node21" class="node"><title>Node21</title>
<g id="a_node21"><a xlink:href="../../d7/d0d/classparser_1_1_semantics_checker.html#a41a9f32483c1d0e32acd7fa553c9670c" target="_top" xlink:title="parser.SemanticsChecker.create\lCustomCommand">
<polygon fill="white" stroke="black" points="1014.5,-166 1014.5,-196 1187.5,-196 1187.5,-166 1014.5,-166"/>
<text text-anchor="start" x="1022.5" y="-184" font-family="Helvetica,sans-Serif" font-size="10.00">parser.SemanticsChecker.create</text>
<text text-anchor="middle" x="1101" y="-173" font-family="Helvetica,sans-Serif" font-size="10.00">CustomCommand</text>
</a>
</g>
</g>
<!-- Node13&#45;&gt;Node21 -->
<g id="edge21" class="edge"><title>Node13&#45;&gt;Node21</title>
<path fill="none" stroke="midnightblue" d="M926.993,-225.937C958.984,-217.628 998.877,-207.266 1032.29,-198.587"/>
<polygon fill="midnightblue" stroke="midnightblue" points="1033.18,-201.971 1041.98,-196.069 1031.42,-195.196 1033.18,-201.971"/>
</g>
<!-- Node25 -->
<g id="node25" class="node"><title>Node25</title>
<g id="a_node25"><a xlink:href="../../d7/d0d/classparser_1_1_semantics_checker.html#a9874458f603e4eac6181412441aff5af" target="_top" xlink:title="parser.SemanticsChecker.createNode">
<polygon fill="white" stroke="black" points="1002,-78.5 1002,-97.5 1200,-97.5 1200,-78.5 1002,-78.5"/>
<text text-anchor="middle" x="1101" y="-85.5" font-family="Helvetica,sans-Serif" font-size="10.00">parser.SemanticsChecker.createNode</text>
</a>
</g>
</g>
<!-- Node13&#45;&gt;Node25 -->
<g id="edge25" class="edge"><title>Node13&#45;&gt;Node25</title>
<path fill="none" stroke="midnightblue" d="M943.336,-225.891C949.259,-223.129 954.91,-219.863 960,-216 984.771,-197.198 974.439,-178.411 996,-156 1017.86,-133.283 1048.64,-114.345 1071.05,-102.273"/>
<polygon fill="midnightblue" stroke="midnightblue" points="1072.86,-105.275 1080.09,-97.5282 1069.61,-99.0772 1072.86,-105.275"/>
</g>
<!-- Node15 -->
<g id="node15" class="node"><title>Node15</title>
<g id="a_node15"><a xlink:href="../../d5/d08/classparser_1_1nodes_1_1_node_information.html#a10357cfb2c29282a4571d4713551a448" target="_top" xlink:title="parser.nodes.NodeInformation.clone">
<polygon fill="white" stroke="black" points="1247.5,-357.5 1247.5,-376.5 1438.5,-376.5 1438.5,-357.5 1247.5,-357.5"/>
<text text-anchor="middle" x="1343" y="-364.5" font-family="Helvetica,sans-Serif" font-size="10.00">parser.nodes.NodeInformation.clone</text>
</a>
</g>
</g>
<!-- Node14&#45;&gt;Node15 -->
<g id="edge15" class="edge"><title>Node14&#45;&gt;Node15</title>
<path fill="none" stroke="midnightblue" d="M1172.71,-335.963C1206.79,-342.212 1247.3,-349.638 1280.14,-355.659"/>
<polygon fill="midnightblue" stroke="midnightblue" points="1279.6,-359.119 1290.07,-357.48 1280.87,-352.234 1279.6,-359.119"/>
</g>
<!-- Node17 -->
<g id="node17" class="node"><title>Node17</title>
<g id="a_node17"><a xlink:href="../../d5/d08/classparser_1_1nodes_1_1_node_information.html#a0c4a6fe4a61e93a5dbe095ee42c213ed" target="_top" xlink:title="parser.nodes.NodeInformation.set\lToken">
<polygon fill="white" stroke="black" points="1253,-308 1253,-338 1433,-338 1433,-308 1253,-308"/>
<text text-anchor="start" x="1261" y="-326" font-family="Helvetica,sans-Serif" font-size="10.00">parser.nodes.NodeInformation.set</text>
<text text-anchor="middle" x="1343" y="-315" font-family="Helvetica,sans-Serif" font-size="10.00">Token</text>
</a>
</g>
</g>
<!-- Node14&#45;&gt;Node17 -->
<g id="edge17" class="edge"><title>Node14&#45;&gt;Node17</title>
<path fill="none" stroke="midnightblue" d="M1172.71,-323C1194.51,-323 1218.94,-323 1242.31,-323"/>
<polygon fill="midnightblue" stroke="midnightblue" points="1242.6,-326.5 1252.6,-323 1242.6,-319.5 1242.6,-326.5"/>
</g>
<!-- Node16 -->
<g id="node16" class="node"><title>Node16</title>
<g id="a_node16"><a xlink:href="../../d5/d08/classparser_1_1nodes_1_1_node_information.html#a0672ed587472f62f81cad30d9c35e3f0" target="_top" xlink:title="parser.nodes.NodeInformation.\lNodeInformation">
<polygon fill="white" stroke="black" points="1480.5,-352 1480.5,-382 1645.5,-382 1645.5,-352 1480.5,-352"/>
<text text-anchor="start" x="1488.5" y="-370" font-family="Helvetica,sans-Serif" font-size="10.00">parser.nodes.NodeInformation.</text>
<text text-anchor="middle" x="1563" y="-359" font-family="Helvetica,sans-Serif" font-size="10.00">NodeInformation</text>
</a>
</g>
</g>
<!-- Node15&#45;&gt;Node16 -->
<g id="edge16" class="edge"><title>Node15&#45;&gt;Node16</title>
<path fill="none" stroke="midnightblue" d="M1438.67,-367C1449.09,-367 1459.7,-367 1470.09,-367"/>
<polygon fill="midnightblue" stroke="midnightblue" points="1470.4,-370.5 1480.4,-367 1470.4,-363.5 1470.4,-370.5"/>
</g>
<!-- Node20 -->
<g id="node20" class="node"><title>Node20</title>
<g id="a_node20"><a xlink:href="../../dd/da7/interfaceparser_1_1_i_parser_provider.html#a933bbd5080c55f69c3e3f740a465e0a5" target="_top" xlink:title="parser.IParserProvider.add\lCommand">
<polygon fill="white" stroke="black" points="1272.5,-259 1272.5,-289 1413.5,-289 1413.5,-259 1272.5,-259"/>
<text text-anchor="start" x="1280.5" y="-277" font-family="Helvetica,sans-Serif" font-size="10.00">parser.IParserProvider.add</text>
<text text-anchor="middle" x="1343" y="-266" font-family="Helvetica,sans-Serif" font-size="10.00">Command</text>
</a>
</g>
</g>
<!-- Node19&#45;&gt;Node20 -->
<g id="edge20" class="edge"><title>Node19&#45;&gt;Node20</title>
<path fill="none" stroke="midnightblue" d="M1183.25,-248.204C1208.82,-252.359 1237.02,-256.942 1262.47,-261.077"/>
<polygon fill="midnightblue" stroke="midnightblue" points="1262.02,-264.549 1272.45,-262.698 1263.14,-257.64 1262.02,-264.549"/>
</g>
<!-- Node22 -->
<g id="node22" class="node"><title>Node22</title>
<g id="a_node22"><a xlink:href="../../d5/d08/classparser_1_1nodes_1_1_node_information.html#a1a0cba33547c0d09dd567f0a9db27a51" target="_top" xlink:title="parser.nodes.NodeInformation.set\lShouldCreate">
<polygon fill="white" stroke="black" points="1253,-210 1253,-240 1433,-240 1433,-210 1253,-210"/>
<text text-anchor="start" x="1261" y="-228" font-family="Helvetica,sans-Serif" font-size="10.00">parser.nodes.NodeInformation.set</text>
<text text-anchor="middle" x="1343" y="-217" font-family="Helvetica,sans-Serif" font-size="10.00">ShouldCreate</text>
</a>
</g>
</g>
<!-- Node21&#45;&gt;Node22 -->
<g id="edge22" class="edge"><title>Node21&#45;&gt;Node22</title>
<path fill="none" stroke="midnightblue" d="M1183.92,-196.019C1205.24,-199.927 1228.34,-204.162 1250.13,-208.157"/>
<polygon fill="midnightblue" stroke="midnightblue" points="1249.57,-211.613 1260.04,-209.974 1250.83,-204.728 1249.57,-211.613"/>
</g>
<!-- Node23 -->
<g id="node23" class="node"><title>Node23</title>
<g id="a_node23"><a xlink:href="../../d5/d08/classparser_1_1nodes_1_1_node_information.html#ae642533c8e960e3d6dff2653e422f301" target="_top" xlink:title="parser.nodes.NodeInformation.get\lToken">
<polygon fill="white" stroke="black" points="1252.5,-161 1252.5,-191 1433.5,-191 1433.5,-161 1252.5,-161"/>
<text text-anchor="start" x="1260.5" y="-179" font-family="Helvetica,sans-Serif" font-size="10.00">parser.nodes.NodeInformation.get</text>
<text text-anchor="middle" x="1343" y="-168" font-family="Helvetica,sans-Serif" font-size="10.00">Token</text>
</a>
</g>
</g>
<!-- Node21&#45;&gt;Node23 -->
<g id="edge23" class="edge"><title>Node21&#45;&gt;Node23</title>
<path fill="none" stroke="midnightblue" d="M1187.63,-179.216C1205.35,-178.847 1224.16,-178.455 1242.33,-178.076"/>
<polygon fill="midnightblue" stroke="midnightblue" points="1242.42,-181.575 1252.35,-177.868 1242.28,-174.577 1242.42,-181.575"/>
</g>
<!-- Node24 -->
<g id="node24" class="node"><title>Node24</title>
<g id="a_node24"><a xlink:href="../../d5/d08/classparser_1_1nodes_1_1_node_information.html#ad42f8e4caa516857bf2ad3eb9e392a9e" target="_top" xlink:title="parser.nodes.NodeInformation.getType">
<polygon fill="white" stroke="black" points="1242,-122.5 1242,-141.5 1444,-141.5 1444,-122.5 1242,-122.5"/>
<text text-anchor="middle" x="1343" y="-129.5" font-family="Helvetica,sans-Serif" font-size="10.00">parser.nodes.NodeInformation.getType</text>
</a>
</g>
</g>
<!-- Node21&#45;&gt;Node24 -->
<g id="edge24" class="edge"><title>Node21&#45;&gt;Node24</title>
<path fill="none" stroke="midnightblue" d="M1170.65,-165.956C1193.34,-161.072 1218.73,-155.703 1242,-151 1254.44,-148.486 1267.77,-145.888 1280.51,-143.45"/>
<polygon fill="midnightblue" stroke="midnightblue" points="1281.4,-146.843 1290.57,-141.534 1280.09,-139.966 1281.4,-146.843"/>
</g>
<!-- Node26 -->
<g id="node26" class="node"><title>Node26</title>
<g id="a_node26"><a xlink:href="../../df/daf/classparser_1_1_semantics_table.html#ad21bbcf3716340782e1da8da4efe1e82" target="_top" xlink:title="parser.SemanticsTable.get\lCommand">
<polygon fill="white" stroke="black" points="1271.5,-73 1271.5,-103 1414.5,-103 1414.5,-73 1271.5,-73"/>
<text text-anchor="start" x="1279.5" y="-91" font-family="Helvetica,sans-Serif" font-size="10.00">parser.SemanticsTable.get</text>
<text text-anchor="middle" x="1343" y="-80" font-family="Helvetica,sans-Serif" font-size="10.00">Command</text>
</a>
</g>
</g>
<!-- Node25&#45;&gt;Node26 -->
<g id="edge26" class="edge"><title>Node25&#45;&gt;Node26</title>
<path fill="none" stroke="midnightblue" d="M1200.31,-88C1220.59,-88 1241.73,-88 1261.3,-88"/>
<polygon fill="midnightblue" stroke="midnightblue" points="1261.38,-91.5001 1271.38,-88 1261.38,-84.5001 1261.38,-91.5001"/>
</g>
<!-- Node28 -->
<g id="node28" class="node"><title>Node28</title>
<g id="a_node28"><a xlink:href="../../d6/dcd/classparser_1_1reflection_1_1_reflection_helper.html#aff20ce969eb8ac26feda4d41f9f26411" target="_top" xlink:title="parser.reflection.Reflection\lHelper.createInstanceOf">
<polygon fill="white" stroke="black" points="1271.5,-24 1271.5,-54 1414.5,-54 1414.5,-24 1271.5,-24"/>
<text text-anchor="start" x="1279.5" y="-42" font-family="Helvetica,sans-Serif" font-size="10.00">parser.reflection.Reflection</text>
<text text-anchor="middle" x="1343" y="-31" font-family="Helvetica,sans-Serif" font-size="10.00">Helper.createInstanceOf</text>
</a>
</g>
</g>
<!-- Node25&#45;&gt;Node28 -->
<g id="edge28" class="edge"><title>Node25&#45;&gt;Node28</title>
<path fill="none" stroke="midnightblue" d="M1148.56,-78.4942C1180.59,-71.9539 1223.97,-63.0973 1261.53,-55.4285"/>
<polygon fill="midnightblue" stroke="midnightblue" points="1262.35,-58.8333 1271.45,-53.4036 1260.95,-51.9748 1262.35,-58.8333"/>
</g>
<!-- Node27 -->
<g id="node27" class="node"><title>Node27</title>
<g id="a_node27"><a xlink:href="../../dd/da7/interfaceparser_1_1_i_parser_provider.html#a190d86fe0b03a1c15700dae1237754fb" target="_top" xlink:title="parser.IParserProvider.get\lCommand">
<polygon fill="white" stroke="black" points="1493.5,-73 1493.5,-103 1632.5,-103 1632.5,-73 1493.5,-73"/>
<text text-anchor="start" x="1501.5" y="-91" font-family="Helvetica,sans-Serif" font-size="10.00">parser.IParserProvider.get</text>
<text text-anchor="middle" x="1563" y="-80" font-family="Helvetica,sans-Serif" font-size="10.00">Command</text>
</a>
</g>
</g>
<!-- Node26&#45;&gt;Node27 -->
<g id="edge27" class="edge"><title>Node26&#45;&gt;Node27</title>
<path fill="none" stroke="midnightblue" d="M1414.78,-88C1436.66,-88 1460.9,-88 1483.29,-88"/>
<polygon fill="midnightblue" stroke="midnightblue" points="1483.43,-91.5001 1493.43,-88 1483.43,-84.5001 1483.43,-91.5001"/>
</g>
<!-- Node29 -->
<g id="node29" class="node"><title>Node29</title>
<g id="a_node29"><a xlink:href="../../d6/dcd/classparser_1_1reflection_1_1_reflection_helper.html#a560ebe5618d9e6e27c57d13b55fe1b43" target="_top" xlink:title="parser.reflection.Reflection\lHelper.findConstructor">
<polygon fill="white" stroke="black" points="1491.5,-24 1491.5,-54 1634.5,-54 1634.5,-24 1491.5,-24"/>
<text text-anchor="start" x="1499.5" y="-42" font-family="Helvetica,sans-Serif" font-size="10.00">parser.reflection.Reflection</text>
<text text-anchor="middle" x="1563" y="-31" font-family="Helvetica,sans-Serif" font-size="10.00">Helper.findConstructor</text>
</a>
</g>
</g>
<!-- Node28&#45;&gt;Node29 -->
<g id="edge29" class="edge"><title>Node28&#45;&gt;Node29</title>
<path fill="none" stroke="midnightblue" d="M1414.78,-39C1435.92,-39 1459.26,-39 1481.01,-39"/>
<polygon fill="midnightblue" stroke="midnightblue" points="1481.2,-42.5001 1491.2,-39 1481.2,-35.5001 1481.2,-42.5001"/>
</g>
<!-- Node30 -->
<g id="node30" class="node"><title>Node30</title>
<g id="a_node30"><a xlink:href="../../d6/dcd/classparser_1_1reflection_1_1_reflection_helper.html#ab29ddff567376a34fe0e284cf6833b0d" target="_top" xlink:title="parser.reflection.Reflection\lHelper.toClassArray">
<polygon fill="white" stroke="black" points="1682.5,-49 1682.5,-79 1825.5,-79 1825.5,-49 1682.5,-49"/>
<text text-anchor="start" x="1690.5" y="-67" font-family="Helvetica,sans-Serif" font-size="10.00">parser.reflection.Reflection</text>
<text text-anchor="middle" x="1754" y="-56" font-family="Helvetica,sans-Serif" font-size="10.00">Helper.toClassArray</text>
</a>
</g>
</g>
<!-- Node29&#45;&gt;Node30 -->
<g id="edge30" class="edge"><title>Node29&#45;&gt;Node30</title>
<path fill="none" stroke="midnightblue" d="M1634.65,-48.3446C1646.97,-49.9752 1659.88,-51.6824 1672.45,-53.3451"/>
<polygon fill="midnightblue" stroke="midnightblue" points="1672.07,-56.8251 1682.44,-54.6667 1672.99,-49.8855 1672.07,-56.8251"/>
</g>
<!-- Node31 -->
<g id="node31" class="node"><title>Node31</title>
<g id="a_node31"><a xlink:href="../../d6/dcd/classparser_1_1reflection_1_1_reflection_helper.html#ac2c724f682c2eb9bd6be04a816e86320" target="_top" xlink:title="parser.reflection.Reflection\lHelper.paramsEqual">
<polygon fill="white" stroke="black" points="1682.5,-0 1682.5,-30 1825.5,-30 1825.5,-0 1682.5,-0"/>
<text text-anchor="start" x="1690.5" y="-18" font-family="Helvetica,sans-Serif" font-size="10.00">parser.reflection.Reflection</text>
<text text-anchor="middle" x="1754" y="-7" font-family="Helvetica,sans-Serif" font-size="10.00">Helper.paramsEqual</text>
</a>
</g>
</g>
<!-- Node29&#45;&gt;Node31 -->
<g id="edge31" class="edge"><title>Node29&#45;&gt;Node31</title>
<path fill="none" stroke="midnightblue" d="M1634.65,-30.0292C1646.97,-28.4638 1659.88,-26.8249 1672.45,-25.2287"/>
<polygon fill="midnightblue" stroke="midnightblue" points="1672.96,-28.6919 1682.44,-23.96 1672.08,-21.7477 1672.96,-28.6919"/>
</g>
<!-- Node33&#45;&gt;Node32 -->
<g id="edge34" class="edge"><title>Node33&#45;&gt;Node32</title>
<path fill="none" stroke="midnightblue" d="M738.293,-193.874C754.026,-193.645 770.615,-193.404 786.458,-193.173"/>
<polygon fill="midnightblue" stroke="midnightblue" points="786.798,-196.668 796.746,-193.023 786.696,-189.669 786.798,-196.668"/>
</g>
</g>
</svg>
        <g id="navigator" transform="translate(0 0)" fill="#404254">
                <rect fill="#f2f5e9" fill-opacity="0.5" stroke="#606060" stroke-width=".5" x="0" y="0" width="60" height="60"/>
                <use id="zoomplus" xlink:href="#zoomPlus" x="17" y="9" onmousedown="handleZoom(evt,'in')"/>
                <use id="zoomminus" xlink:href="#zoomMin" x="42" y="9" onmousedown="handleZoom(evt,'out')"/>
                <use id="reset" xlink:href="#resetDef" x="30" y="36" onmousedown="handleReset()"/>
                <g id="arrowUp" xlink:href="#dirArrow" transform="translate(30 24)" onmousedown="handlePan(0,-1)">
                  <use xlink:href="#rim" fill="#404040">
                        <set attributeName="fill" to="#808080" begin="arrowUp.mouseover" end="arrowUp.mouseout"/>
                  </use>
                  <path fill="none" stroke="white" stroke-width="1.5" d="M0,-3.0v7 M-2.5,-0.5L0,-3.0L2.5,-0.5"/>
                </g>
                <g id="arrowRight" xlink:href="#dirArrow" transform="rotate(90) translate(36 -43)" onmousedown="handlePan(1,0)">
                  <use xlink:href="#rim" fill="#404040">
                        <set attributeName="fill" to="#808080" begin="arrowRight.mouseover" end="arrowRight.mouseout"/>
                  </use>
                  <path fill="none" stroke="white" stroke-width="1.5" d="M0,-3.0v7 M-2.5,-0.5L0,-3.0L2.5,-0.5"/>
                </g>
                <g id="arrowDown" xlink:href="#dirArrow" transform="rotate(180) translate(-30 -48)" onmousedown="handlePan(0,1)">
                  <use xlink:href="#rim" fill="#404040">
                        <set attributeName="fill" to="#808080" begin="arrowDown.mouseover" end="arrowDown.mouseout"/>
                  </use>
                  <path fill="none" stroke="white" stroke-width="1.5" d="M0,-3.0v7 M-2.5,-0.5L0,-3.0L2.5,-0.5"/>
                </g>
                <g id="arrowLeft" xlink:href="#dirArrow" transform="rotate(270) translate(-36 17)" onmousedown="handlePan(-1,0)">
                  <use xlink:href="#rim" fill="#404040">
                        <set attributeName="fill" to="#808080" begin="arrowLeft.mouseover" end="arrowLeft.mouseout"/>
                  </use>
                  <path fill="none" stroke="white" stroke-width="1.5" d="M0,-3.0v7 M-2.5,-0.5L0,-3.0L2.5,-0.5"/>
                </g>
        </g>
        <svg viewBox="0 0 15 15" width="100%" height="30px" preserveAspectRatio="xMaxYMin meet">
         <g id="arrow_out" transform="scale(0.3 0.3)">
          <a xlink:href="classcontroller_1_1_controller_aa46804b9ca132af8504b5dafb1cadb0d_cgraph_org.svg" target="_base">
           <rect id="button" ry="5" rx="5" y="6" x="6" height="38" width="38"
                fill="#f2f5e9" fill-opacity="0.5" stroke="#606060" stroke-width="1.0"/>
           <path id="arrow"
             d="M 11.500037,31.436501 C 11.940474,20.09759 22.043105,11.32322 32.158766,21.979434 L 37.068811,17.246167 C 37.068811,17.246167 37.088388,32 37.088388,32 L 22.160133,31.978069 C 22.160133,31.978069 26.997745,27.140456 26.997745,27.140456 C 18.528582,18.264221 13.291696,25.230495 11.500037,31.436501 z"
             style="fill:#404040;"/>
          </a>
         </g>
        </svg>
</svg>
