<?xml version="1.0" encoding="UTF-8" standalone="no"?>
<!DOCTYPE svg PUBLIC "-//W3C//DTD SVG 1.1//EN"
 "http://www.w3.org/Graphics/SVG/1.1/DTD/svg11.dtd">
<!-- Generated by graphviz version 2.36.0 (20140111.2315)
 -->
<!-- Title: controller.Controller.createCheckBoxItemListener Pages: 1 -->
<svg width="1102pt" height="239pt"
 viewBox="0.00 0.00 1102.00 239.00" xmlns="http://www.w3.org/2000/svg" xmlns:xlink="http://www.w3.org/1999/xlink">
<g id="graph0" class="graph" transform="scale(1 1) rotate(0) translate(4 235)">
<title>controller.Controller.createCheckBoxItemListener</title>
<polygon fill="white" stroke="none" points="-4,4 -4,-235 1098,-235 1098,4 -4,4"/>
<!-- Node1 -->
<g id="node1" class="node"><title>Node1</title>
<polygon fill="#bfbfbf" stroke="black" points="0.5,-49 0.5,-79 143.5,-79 143.5,-49 0.5,-49"/>
<text text-anchor="start" x="8.5" y="-67" font-family="Helvetica,sans-Serif" font-size="10.00">controller.Controller.create</text>
<text text-anchor="middle" x="72" y="-56" font-family="Helvetica,sans-Serif" font-size="10.00">CheckBoxItemListener</text>
</g>
<!-- Node2 -->
<g id="node2" class="node"><title>Node2</title>
<g id="a_node2"><a xlink:href="../../de/d84/classcontroller_1_1_workspace.html#abceb71fe227a560303f42bb77b0a1113" target="_top" xlink:title="controller.Workspace.activate\lTurtle">
<polygon fill="white" stroke="black" points="186,-98 186,-128 342,-128 342,-98 186,-98"/>
<text text-anchor="start" x="194" y="-116" font-family="Helvetica,sans-Serif" font-size="10.00">controller.Workspace.activate</text>
<text text-anchor="middle" x="264" y="-105" font-family="Helvetica,sans-Serif" font-size="10.00">Turtle</text>
</a>
</g>
</g>
<!-- Node1&#45;&gt;Node2 -->
<g id="edge1" class="edge"><title>Node1&#45;&gt;Node2</title>
<path fill="none" stroke="midnightblue" d="M131.297,-79.0346C151.45,-84.2318 174.206,-90.1006 195.064,-95.4796"/>
<polygon fill="midnightblue" stroke="midnightblue" points="194.256,-98.8856 204.813,-97.9938 196.004,-92.1074 194.256,-98.8856"/>
</g>
<!-- Node12 -->
<g id="node12" class="node"><title>Node12</title>
<g id="a_node12"><a xlink:href="../../de/d84/classcontroller_1_1_workspace.html#a497dad2e57c3d43cd971274660863e6c" target="_top" xlink:title="controller.Workspace.deactivate\lTurtle">
<polygon fill="white" stroke="black" points="180,-49 180,-79 348,-79 348,-49 180,-49"/>
<text text-anchor="start" x="188" y="-67" font-family="Helvetica,sans-Serif" font-size="10.00">controller.Workspace.deactivate</text>
<text text-anchor="middle" x="264" y="-56" font-family="Helvetica,sans-Serif" font-size="10.00">Turtle</text>
</a>
</g>
</g>
<!-- Node1&#45;&gt;Node12 -->
<g id="edge11" class="edge"><title>Node1&#45;&gt;Node12</title>
<path fill="none" stroke="midnightblue" d="M143.749,-64C152.166,-64 160.856,-64 169.529,-64"/>
<polygon fill="midnightblue" stroke="midnightblue" points="169.685,-67.5001 179.685,-64 169.685,-60.5001 169.685,-67.5001"/>
</g>
<!-- Node14 -->
<g id="node14" class="node"><title>Node14</title>
<g id="a_node14"><a xlink:href="../../d9/df7/classcontroller_1_1_controller.html#a318978485f5c3bbf5a89f5dac0db71ae" target="_top" xlink:title="controller.Controller.get\lWorkspace">
<polygon fill="white" stroke="black" points="200,-0 200,-30 328,-30 328,-0 200,-0"/>
<text text-anchor="start" x="208" y="-18" font-family="Helvetica,sans-Serif" font-size="10.00">controller.Controller.get</text>
<text text-anchor="middle" x="264" y="-7" font-family="Helvetica,sans-Serif" font-size="10.00">Workspace</text>
</a>
</g>
</g>
<!-- Node1&#45;&gt;Node14 -->
<g id="edge14" class="edge"><title>Node1&#45;&gt;Node14</title>
<path fill="none" stroke="midnightblue" d="M131.297,-48.9654C151.45,-43.7682 174.206,-37.8994 195.064,-32.5204"/>
<polygon fill="midnightblue" stroke="midnightblue" points="196.004,-35.8926 204.813,-30.0062 194.256,-29.1144 196.004,-35.8926"/>
</g>
<!-- Node3 -->
<g id="node3" class="node"><title>Node3</title>
<g id="a_node3"><a xlink:href="../../d8/dff/classmodel_1_1_turtle_manager.html#a1c46b383a49e06a2436ad084bf7cd5aa" target="_top" xlink:title="model.TurtleManager.activate">
<polygon fill="white" stroke="black" points="390,-139.5 390,-158.5 548,-158.5 548,-139.5 390,-139.5"/>
<text text-anchor="middle" x="469" y="-146.5" font-family="Helvetica,sans-Serif" font-size="10.00">model.TurtleManager.activate</text>
</a>
</g>
</g>
<!-- Node2&#45;&gt;Node3 -->
<g id="edge2" class="edge"><title>Node2&#45;&gt;Node3</title>
<path fill="none" stroke="midnightblue" d="M342.035,-126.661C362.57,-130.303 384.526,-134.197 404.261,-137.697"/>
<polygon fill="midnightblue" stroke="midnightblue" points="403.902,-141.187 414.36,-139.487 405.124,-134.295 403.902,-141.187"/>
</g>
<!-- Node10 -->
<g id="node10" class="node"><title>Node10</title>
<g id="a_node10"><a xlink:href="../../de/d84/classcontroller_1_1_workspace.html#a06f94274c983b2edde00bcdc2b15f790" target="_top" xlink:title="controller.Workspace.update">
<polygon fill="white" stroke="black" points="393,-98.5 393,-117.5 545,-117.5 545,-98.5 393,-98.5"/>
<text text-anchor="middle" x="469" y="-105.5" font-family="Helvetica,sans-Serif" font-size="10.00">controller.Workspace.update</text>
</a>
</g>
</g>
<!-- Node2&#45;&gt;Node10 -->
<g id="edge9" class="edge"><title>Node2&#45;&gt;Node10</title>
<path fill="none" stroke="midnightblue" d="M342.035,-111.103C355.263,-110.777 369.081,-110.436 382.515,-110.106"/>
<polygon fill="midnightblue" stroke="midnightblue" points="382.786,-113.6 392.697,-109.855 382.613,-106.602 382.786,-113.6"/>
</g>
<!-- Node4 -->
<g id="node4" class="node"><title>Node4</title>
<g id="a_node4"><a xlink:href="../../d8/dff/classmodel_1_1_turtle_manager.html#a3d0172590b0214793dbd3997c56f7759" target="_top" xlink:title="model.TurtleManager.addNew">
<polygon fill="white" stroke="black" points="590,-183.5 590,-202.5 748,-202.5 748,-183.5 590,-183.5"/>
<text text-anchor="middle" x="669" y="-190.5" font-family="Helvetica,sans-Serif" font-size="10.00">model.TurtleManager.addNew</text>
</a>
</g>
</g>
<!-- Node3&#45;&gt;Node4 -->
<g id="edge3" class="edge"><title>Node3&#45;&gt;Node4</title>
<path fill="none" stroke="midnightblue" d="M512.963,-158.547C542.931,-165.207 583.114,-174.136 615.061,-181.236"/>
<polygon fill="midnightblue" stroke="midnightblue" points="614.6,-184.719 625.121,-183.471 616.118,-177.885 614.6,-184.719"/>
</g>
<!-- Node9 -->
<g id="node9" class="node"><title>Node9</title>
<g id="a_node9"><a xlink:href="../../d8/dff/classmodel_1_1_turtle_manager.html#a2c8eed018128d3a0be175415b36445d9" target="_top" xlink:title="model.TurtleManager.activate\lTurtle">
<polygon fill="white" stroke="black" points="590,-134 590,-164 748,-164 748,-134 590,-134"/>
<text text-anchor="start" x="598" y="-152" font-family="Helvetica,sans-Serif" font-size="10.00">model.TurtleManager.activate</text>
<text text-anchor="middle" x="669" y="-141" font-family="Helvetica,sans-Serif" font-size="10.00">Turtle</text>
</a>
</g>
</g>
<!-- Node3&#45;&gt;Node9 -->
<g id="edge8" class="edge"><title>Node3&#45;&gt;Node9</title>
<path fill="none" stroke="midnightblue" d="M548.255,-149C558.658,-149 569.381,-149 579.937,-149"/>
<polygon fill="midnightblue" stroke="midnightblue" points="579.989,-152.5 589.989,-149 579.989,-145.5 579.989,-152.5"/>
</g>
<!-- Node5 -->
<g id="node5" class="node"><title>Node5</title>
<g id="a_node5"><a xlink:href="../../d8/dff/classmodel_1_1_turtle_manager.html#a9831377a60a443edcedede2e809e36f4" target="_top" xlink:title="model.TurtleManager.create\lTurtle">
<polygon fill="white" stroke="black" points="784,-200 784,-230 934,-230 934,-200 784,-200"/>
<text text-anchor="start" x="792" y="-218" font-family="Helvetica,sans-Serif" font-size="10.00">model.TurtleManager.create</text>
<text text-anchor="middle" x="859" y="-207" font-family="Helvetica,sans-Serif" font-size="10.00">Turtle</text>
</a>
</g>
</g>
<!-- Node4&#45;&gt;Node5 -->
<g id="edge4" class="edge"><title>Node4&#45;&gt;Node5</title>
<path fill="none" stroke="midnightblue" d="M748.096,-202.139C756.579,-203.132 765.241,-204.145 773.794,-205.146"/>
<polygon fill="midnightblue" stroke="midnightblue" points="773.427,-208.627 783.766,-206.313 774.241,-201.674 773.427,-208.627"/>
</g>
<!-- Node7 -->
<g id="node7" class="node"><title>Node7</title>
<g id="a_node7"><a xlink:href="../../d6/d34/classmodel_1_1_turtle.html#a65a22c7a1a7abfbc46a6f339479e7646" target="_top" xlink:title="model.Turtle.setStroke">
<polygon fill="white" stroke="black" points="796.5,-161.5 796.5,-180.5 921.5,-180.5 921.5,-161.5 796.5,-161.5"/>
<text text-anchor="middle" x="859" y="-168.5" font-family="Helvetica,sans-Serif" font-size="10.00">model.Turtle.setStroke</text>
</a>
</g>
</g>
<!-- Node4&#45;&gt;Node7 -->
<g id="edge6" class="edge"><title>Node4&#45;&gt;Node7</title>
<path fill="none" stroke="midnightblue" d="M748.096,-183.861C760.832,-182.371 773.97,-180.833 786.537,-179.363"/>
<polygon fill="midnightblue" stroke="midnightblue" points="786.949,-182.838 796.474,-178.2 786.135,-175.886 786.949,-182.838"/>
</g>
<!-- Node6 -->
<g id="node6" class="node"><title>Node6</title>
<g id="a_node6"><a xlink:href="../../d6/d34/classmodel_1_1_turtle.html#a27ce4fa61b6e292b1cfff08d511e7fc4" target="_top" xlink:title="model.Turtle.setImage">
<polygon fill="white" stroke="black" points="970.5,-205.5 970.5,-224.5 1093.5,-224.5 1093.5,-205.5 970.5,-205.5"/>
<text text-anchor="middle" x="1032" y="-212.5" font-family="Helvetica,sans-Serif" font-size="10.00">model.Turtle.setImage</text>
</a>
</g>
</g>
<!-- Node5&#45;&gt;Node6 -->
<g id="edge5" class="edge"><title>Node5&#45;&gt;Node6</title>
<path fill="none" stroke="midnightblue" d="M934.009,-215C942.702,-215 951.557,-215 960.205,-215"/>
<polygon fill="midnightblue" stroke="midnightblue" points="960.24,-218.5 970.24,-215 960.24,-211.5 960.24,-218.5"/>
</g>
<!-- Node8 -->
<g id="node8" class="node"><title>Node8</title>
<g id="a_node8"><a xlink:href="../../de/ded/classmodel_1_1_pen.html#a00c08e5bfc9d04986e0ff7ae4ceae10b" target="_top" xlink:title="model.Pen.setStroke">
<polygon fill="white" stroke="black" points="973.5,-161.5 973.5,-180.5 1090.5,-180.5 1090.5,-161.5 973.5,-161.5"/>
<text text-anchor="middle" x="1032" y="-168.5" font-family="Helvetica,sans-Serif" font-size="10.00">model.Pen.setStroke</text>
</a>
</g>
</g>
<!-- Node7&#45;&gt;Node8 -->
<g id="edge7" class="edge"><title>Node7&#45;&gt;Node8</title>
<path fill="none" stroke="midnightblue" d="M921.735,-171C935.152,-171 949.417,-171 963.059,-171"/>
<polygon fill="midnightblue" stroke="midnightblue" points="963.346,-174.5 973.346,-171 963.346,-167.5 963.346,-174.5"/>
</g>
<!-- Node11 -->
<g id="node11" class="node"><title>Node11</title>
<g id="a_node11"><a xlink:href="../../d8/dff/classmodel_1_1_turtle_manager.html#a8679aef13c1e2b3d695b1467c2bb5e9f" target="_top" xlink:title="model.TurtleManager.update">
<polygon fill="white" stroke="black" points="592.5,-95.5 592.5,-114.5 745.5,-114.5 745.5,-95.5 592.5,-95.5"/>
<text text-anchor="middle" x="669" y="-102.5" font-family="Helvetica,sans-Serif" font-size="10.00">model.TurtleManager.update</text>
</a>
</g>
</g>
<!-- Node10&#45;&gt;Node11 -->
<g id="edge10" class="edge"><title>Node10&#45;&gt;Node11</title>
<path fill="none" stroke="midnightblue" d="M545.138,-106.862C557.189,-106.679 569.741,-106.489 582.022,-106.303"/>
<polygon fill="midnightblue" stroke="midnightblue" points="582.311,-109.799 592.257,-106.148 582.205,-102.8 582.311,-109.799"/>
</g>
<!-- Node12&#45;&gt;Node10 -->
<g id="edge13" class="edge"><title>Node12&#45;&gt;Node10</title>
<path fill="none" stroke="midnightblue" d="M334.293,-79.0192C360.439,-84.6864 389.766,-91.0429 414.277,-96.3556"/>
<polygon fill="midnightblue" stroke="midnightblue" points="413.599,-99.7898 424.113,-98.4876 415.082,-92.9486 413.599,-99.7898"/>
</g>
<!-- Node13 -->
<g id="node13" class="node"><title>Node13</title>
<g id="a_node13"><a xlink:href="../../d8/dff/classmodel_1_1_turtle_manager.html#a9d3fda35812c5961b645ebcc5cf0c77a" target="_top" xlink:title="model.TurtleManager.deactivate\lTurtle">
<polygon fill="white" stroke="black" points="384,-49 384,-79 554,-79 554,-49 384,-49"/>
<text text-anchor="start" x="392" y="-67" font-family="Helvetica,sans-Serif" font-size="10.00">model.TurtleManager.deactivate</text>
<text text-anchor="middle" x="469" y="-56" font-family="Helvetica,sans-Serif" font-size="10.00">Turtle</text>
</a>
</g>
</g>
<!-- Node12&#45;&gt;Node13 -->
<g id="edge12" class="edge"><title>Node12&#45;&gt;Node13</title>
<path fill="none" stroke="midnightblue" d="M348.154,-64C356.653,-64 365.33,-64 373.936,-64"/>
<polygon fill="midnightblue" stroke="midnightblue" points="373.99,-67.5001 383.99,-64 373.99,-60.5001 373.99,-67.5001"/>
</g>
<!-- Node15 -->
<g id="node15" class="node"><title>Node15</title>
<g id="a_node15"><a xlink:href="../../dc/dbd/interfaceview_1_1_workspace_handler.html#ac88b6c9e5fb3ffa06ab3ef23b9ce2ae0" target="_top" xlink:title="view.WorkspaceHandler.get\lWorkspace">
<polygon fill="white" stroke="black" points="396,-0 396,-30 542,-30 542,-0 396,-0"/>
<text text-anchor="start" x="404" y="-18" font-family="Helvetica,sans-Serif" font-size="10.00">view.WorkspaceHandler.get</text>
<text text-anchor="middle" x="469" y="-7" font-family="Helvetica,sans-Serif" font-size="10.00">Workspace</text>
</a>
</g>
</g>
<!-- Node14&#45;&gt;Node15 -->
<g id="edge15" class="edge"><title>Node14&#45;&gt;Node15</title>
<path fill="none" stroke="midnightblue" d="M328.118,-15C346.271,-15 366.345,-15 385.485,-15"/>
<polygon fill="midnightblue" stroke="midnightblue" points="385.697,-18.5001 395.697,-15 385.697,-11.5001 385.697,-18.5001"/>
</g>
</g>
</svg>
