<?xml version="1.0" encoding="UTF-8" standalone="no"?>
<!DOCTYPE svg PUBLIC "-//W3C//DTD SVG 1.1//EN"
 "http://www.w3.org/Graphics/SVG/1.1/DTD/svg11.dtd">
<!-- Generated by graphviz version 2.36.0 (20140111.2315)
 -->
<!-- Title: controller.Controller.processCommand Pages: 1 -->
<!--zoomable 567 -->
<svg id="main" version="1.1" xmlns="http://www.w3.org/2000/svg" xmlns:xlink="http://www.w3.org/1999/xlink" xml:space="preserve" onload="init(evt)">
<style type="text/css"><![CDATA[
.edge:hover path { stroke: red; }
.edge:hover polygon { stroke: red; fill: red; }
]]></style>
<script type="text/javascript"><![CDATA[
var edges = document.getElementsByTagName('g');
if (edges && edges.length) {
  for (var i=0;i<edges.length;i++) {
    if (edges[i].id.substr(0,4)=='edge') {
      edges[i].setAttribute('class','edge');
    }
  }
}
]]></script>
        <defs>
                <circle id="rim" cx="0" cy="0" r="7"/>
                <circle id="rim2" cx="0" cy="0" r="3.5"/>
                <g id="zoomPlus">
                        <use xlink:href="#rim" fill="#404040">
                                <set attributeName="fill" to="#808080" begin="zoomplus.mouseover" end="zoomplus.mouseout"/>
                        </use>
                        <path d="M-4,0h8M0,-4v8" fill="none" stroke="white" stroke-width="1.5" pointer-events="none"/>
                </g>
                <g id="zoomMin">
                        <use xlink:href="#rim" fill="#404040">
                                <set attributeName="fill" to="#808080" begin="zoomminus.mouseover" end="zoomminus.mouseout"/>
                        </use>
                        <path d="M-4,0h8" fill="none" stroke="white" stroke-width="1.5" pointer-events="none"/>
                </g>
                <g id="dirArrow">
                        <path fill="none" stroke="white" stroke-width="1.5" d="M0,-3.0v7 M-2.5,-0.5L0,-3.0L2.5,-0.5"/>
                </g>
               <g id="resetDef">
                       <use xlink:href="#rim2" fill="#404040">
                               <set attributeName="fill" to="#808080" begin="reset.mouseover" end="reset.mouseout"/>
                       </use>
               </g>
        </defs>

<script type="text/javascript">
var viewWidth = 1440;
var viewHeight = 567;
var sectionId = 'dynsection-31';
</script>
<script xlink:href="../../svgpan.js"/>
<svg id="graph" class="graph">
<g id="viewport">
<title>controller.Controller.processCommand</title>
<polygon fill="white" stroke="none" points="-4,4 -4,-563 1436,-563 1436,4 -4,4"/>
<!-- Node1 -->
<g id="node1" class="node"><title>Node1</title>
<polygon fill="#bfbfbf" stroke="black" points="0,-376 0,-406 150,-406 150,-376 0,-376"/>
<text text-anchor="start" x="8" y="-394" font-family="Helvetica,sans-Serif" font-size="10.00">controller.Controller.process</text>
<text text-anchor="middle" x="75" y="-383" font-family="Helvetica,sans-Serif" font-size="10.00">Command</text>
</g>
<!-- Node2 -->
<g id="node2" class="node"><title>Node2</title>
<g id="a_node2"><a xlink:href="../../de/d84/classcontroller_1_1_workspace.html#a634efce33a36707188f79c84a4ef80c4" target="_top" xlink:title="controller.Workspace.add\lExecutableHistory">
<polygon fill="white" stroke="black" points="198,-529 198,-559 334,-559 334,-529 198,-529"/>
<text text-anchor="start" x="206" y="-547" font-family="Helvetica,sans-Serif" font-size="10.00">controller.Workspace.add</text>
<text text-anchor="middle" x="266" y="-536" font-family="Helvetica,sans-Serif" font-size="10.00">ExecutableHistory</text>
</a>
</g>
</g>
<!-- Node1&#45;&gt;Node2 -->
<g id="edge1" class="edge"><title>Node1&#45;&gt;Node2</title>
<path fill="none" stroke="midnightblue" d="M84.9012,-406.019C101.454,-432.673 139.546,-488.319 186,-519 189.061,-521.022 192.296,-522.889 195.64,-524.612"/>
<polygon fill="midnightblue" stroke="midnightblue" points="194.16,-527.783 204.702,-528.844 197.122,-521.441 194.16,-527.783"/>
</g>
<!-- Node4 -->
<g id="node4" class="node"><title>Node4</title>
<g id="a_node4"><a xlink:href="../../de/d84/classcontroller_1_1_workspace.html#a4b337514dd9c663a9d975cf23359860d" target="_top" xlink:title="controller.Workspace.add\lHistory">
<polygon fill="white" stroke="black" points="198,-480 198,-510 334,-510 334,-480 198,-480"/>
<text text-anchor="start" x="206" y="-498" font-family="Helvetica,sans-Serif" font-size="10.00">controller.Workspace.add</text>
<text text-anchor="middle" x="266" y="-487" font-family="Helvetica,sans-Serif" font-size="10.00">History</text>
</a>
</g>
</g>
<!-- Node1&#45;&gt;Node4 -->
<g id="edge3" class="edge"><title>Node1&#45;&gt;Node4</title>
<path fill="none" stroke="midnightblue" d="M93.1701,-406.001C113.917,-423.469 150.478,-452.194 186,-470 190.545,-472.278 195.341,-474.404 200.232,-476.376"/>
<polygon fill="midnightblue" stroke="midnightblue" points="199.123,-479.699 209.714,-479.978 201.609,-473.155 199.123,-479.699"/>
</g>
<!-- Node5 -->
<g id="node5" class="node"><title>Node5</title>
<g id="a_node5"><a xlink:href="../../de/d84/classcontroller_1_1_workspace.html#a6e2c1aeab69fcad61e9a29cbf4c189cc" target="_top" xlink:title="controller.Workspace.execute">
<polygon fill="white" stroke="black" points="188,-441.5 188,-460.5 344,-460.5 344,-441.5 188,-441.5"/>
<text text-anchor="middle" x="266" y="-448.5" font-family="Helvetica,sans-Serif" font-size="10.00">controller.Workspace.execute</text>
</a>
</g>
</g>
<!-- Node1&#45;&gt;Node5 -->
<g id="edge4" class="edge"><title>Node1&#45;&gt;Node5</title>
<path fill="none" stroke="midnightblue" d="M121.153,-406.018C141.012,-412.561 164.633,-420.259 186,-427 198.068,-430.807 211.208,-434.843 223.244,-438.497"/>
<polygon fill="midnightblue" stroke="midnightblue" points="222.463,-441.917 233.048,-441.462 224.49,-435.217 222.463,-441.917"/>
</g>
<!-- Node6 -->
<g id="node6" class="node"><title>Node6</title>
<g id="a_node6"><a xlink:href="../../de/d84/classcontroller_1_1_workspace.html#a6b1f99115388e9de9dc779e30ed16041" target="_top" xlink:title="controller.Workspace.show\lError">
<polygon fill="white" stroke="black" points="403,-420 403,-450 545,-450 545,-420 403,-420"/>
<text text-anchor="start" x="411" y="-438" font-family="Helvetica,sans-Serif" font-size="10.00">controller.Workspace.show</text>
<text text-anchor="middle" x="474" y="-427" font-family="Helvetica,sans-Serif" font-size="10.00">Error</text>
</a>
</g>
</g>
<!-- Node1&#45;&gt;Node6 -->
<g id="edge33" class="edge"><title>Node1&#45;&gt;Node6</title>
<path fill="none" stroke="midnightblue" d="M150.207,-399.224C219.192,-406.87 321.689,-418.23 392.596,-426.089"/>
<polygon fill="midnightblue" stroke="midnightblue" points="392.496,-429.599 402.821,-427.222 393.268,-422.642 392.496,-429.599"/>
</g>
<!-- Node7 -->
<g id="node7" class="node"><title>Node7</title>
<g id="a_node7"><a xlink:href="../../df/daf/classparser_1_1_semantics_table.html#a737b71f0ef1c252dbe00b3862c45bc74" target="_top" xlink:title="parser.SemanticsTable.get\lInstance">
<polygon fill="white" stroke="black" points="194.5,-354 194.5,-384 337.5,-384 337.5,-354 194.5,-354"/>
<text text-anchor="start" x="202.5" y="-372" font-family="Helvetica,sans-Serif" font-size="10.00">parser.SemanticsTable.get</text>
<text text-anchor="middle" x="266" y="-361" font-family="Helvetica,sans-Serif" font-size="10.00">Instance</text>
</a>
</g>
</g>
<!-- Node1&#45;&gt;Node7 -->
<g id="edge6" class="edge"><title>Node1&#45;&gt;Node7</title>
<path fill="none" stroke="midnightblue" d="M150.155,-382.368C161.433,-381.055 173.117,-379.695 184.523,-378.368"/>
<polygon fill="midnightblue" stroke="midnightblue" points="184.928,-381.844 194.456,-377.211 184.119,-374.891 184.928,-381.844"/>
</g>
<!-- Node10 -->
<g id="node10" class="node"><title>Node10</title>
<g id="a_node10"><a xlink:href="../../d9/df7/classcontroller_1_1_controller.html#a318978485f5c3bbf5a89f5dac0db71ae" target="_top" xlink:title="controller.Controller.get\lWorkspace">
<polygon fill="white" stroke="black" points="202,-305 202,-335 330,-335 330,-305 202,-305"/>
<text text-anchor="start" x="210" y="-323" font-family="Helvetica,sans-Serif" font-size="10.00">controller.Controller.get</text>
<text text-anchor="middle" x="266" y="-312" font-family="Helvetica,sans-Serif" font-size="10.00">Workspace</text>
</a>
</g>
</g>
<!-- Node1&#45;&gt;Node10 -->
<g id="edge9" class="edge"><title>Node1&#45;&gt;Node10</title>
<path fill="none" stroke="midnightblue" d="M109.877,-375.908C131.47,-366.519 160.151,-354.473 186,-345 192.262,-342.705 198.846,-340.422 205.432,-338.221"/>
<polygon fill="midnightblue" stroke="midnightblue" points="206.635,-341.509 215.043,-335.063 204.45,-334.859 206.635,-341.509"/>
</g>
<!-- Node12 -->
<g id="node12" class="node"><title>Node12</title>
<g id="a_node12"><a xlink:href="../../d6/d95/classparser_1_1_parser.html#ac0cfecef1d5308df35c49519d94f85a5" target="_top" xlink:title="parser.Parser.parseCommand">
<polygon fill="white" stroke="black" points="186.5,-266.5 186.5,-285.5 345.5,-285.5 345.5,-266.5 186.5,-266.5"/>
<text text-anchor="middle" x="266" y="-273.5" font-family="Helvetica,sans-Serif" font-size="10.00">parser.Parser.parseCommand</text>
</a>
</g>
</g>
<!-- Node1&#45;&gt;Node12 -->
<g id="edge11" class="edge"><title>Node1&#45;&gt;Node12</title>
<path fill="none" stroke="midnightblue" d="M89.318,-375.695C108.544,-354.572 146.163,-316.747 186,-296 191.306,-293.237 197.013,-290.841 202.846,-288.766"/>
<polygon fill="midnightblue" stroke="midnightblue" points="204.293,-291.977 212.731,-285.57 202.139,-285.316 204.293,-291.977"/>
</g>
<!-- Node33 -->
<g id="node33" class="node"><title>Node33</title>
<g id="a_node33"><a xlink:href="../../df/daf/classparser_1_1_semantics_table.html#aa027bd54d31d7ddb671b2773f7c2549b" target="_top" xlink:title="parser.SemanticsTable.set\lContext">
<polygon fill="white" stroke="black" points="194.5,-217 194.5,-247 337.5,-247 337.5,-217 194.5,-217"/>
<text text-anchor="start" x="202.5" y="-235" font-family="Helvetica,sans-Serif" font-size="10.00">parser.SemanticsTable.set</text>
<text text-anchor="middle" x="266" y="-224" font-family="Helvetica,sans-Serif" font-size="10.00">Context</text>
</a>
</g>
</g>
<!-- Node1&#45;&gt;Node33 -->
<g id="edge32" class="edge"><title>Node1&#45;&gt;Node33</title>
<path fill="none" stroke="midnightblue" d="M84.4654,-375.702C100.591,-347.954 138.39,-289.221 186,-257 188.949,-255.004 192.066,-253.161 195.291,-251.459"/>
<polygon fill="midnightblue" stroke="midnightblue" points="197.086,-254.481 204.616,-247.028 194.082,-248.159 197.086,-254.481"/>
</g>
<!-- Node3 -->
<g id="node3" class="node"><title>Node3</title>
<g id="a_node3"><a xlink:href="../../d7/d40/classcontroller_1_1_w_s_undo_manager.html#a9dc68e98e02d4adda65f6f71cef4224b" target="_top" xlink:title="controller.WSUndoManager.add\lEditToHistory">
<polygon fill="white" stroke="black" points="390.5,-529 390.5,-559 557.5,-559 557.5,-529 390.5,-529"/>
<text text-anchor="start" x="398.5" y="-547" font-family="Helvetica,sans-Serif" font-size="10.00">controller.WSUndoManager.add</text>
<text text-anchor="middle" x="474" y="-536" font-family="Helvetica,sans-Serif" font-size="10.00">EditToHistory</text>
</a>
</g>
</g>
<!-- Node2&#45;&gt;Node3 -->
<g id="edge2" class="edge"><title>Node2&#45;&gt;Node3</title>
<path fill="none" stroke="midnightblue" d="M334.167,-544C348.903,-544 364.757,-544 380.295,-544"/>
<polygon fill="midnightblue" stroke="midnightblue" points="380.446,-547.5 390.446,-544 380.446,-540.5 380.446,-547.5"/>
</g>
<!-- Node5&#45;&gt;Node6 -->
<g id="edge5" class="edge"><title>Node5&#45;&gt;Node6</title>
<path fill="none" stroke="midnightblue" d="M344.293,-444.997C360.026,-443.775 376.615,-442.486 392.458,-441.256"/>
<polygon fill="midnightblue" stroke="midnightblue" points="393.047,-444.721 402.746,-440.457 392.505,-437.742 393.047,-444.721"/>
</g>
<!-- Node8 -->
<g id="node8" class="node"><title>Node8</title>
<g id="a_node8"><a xlink:href="../../df/daf/classparser_1_1_semantics_table.html#a1ee110bb77636170fa5e8bb1921b8296" target="_top" xlink:title="parser.SemanticsTable.Semantics\lTable">
<polygon fill="white" stroke="black" points="384.5,-354 384.5,-384 563.5,-384 563.5,-354 384.5,-354"/>
<text text-anchor="start" x="392.5" y="-372" font-family="Helvetica,sans-Serif" font-size="10.00">parser.SemanticsTable.Semantics</text>
<text text-anchor="middle" x="474" y="-361" font-family="Helvetica,sans-Serif" font-size="10.00">Table</text>
</a>
</g>
</g>
<!-- Node7&#45;&gt;Node8 -->
<g id="edge7" class="edge"><title>Node7&#45;&gt;Node8</title>
<path fill="none" stroke="midnightblue" d="M337.605,-369C349.343,-369 361.706,-369 373.993,-369"/>
<polygon fill="midnightblue" stroke="midnightblue" points="374.281,-372.5 384.281,-369 374.281,-365.5 374.281,-372.5"/>
</g>
<!-- Node9 -->
<g id="node9" class="node"><title>Node9</title>
<g id="a_node9"><a xlink:href="../../df/daf/classparser_1_1_semantics_table.html#a9c805f5773f5a74c3985fb4a605f0e35" target="_top" xlink:title="parser.SemanticsTable.buildMap">
<polygon fill="white" stroke="black" points="622,-359.5 622,-378.5 792,-378.5 792,-359.5 622,-359.5"/>
<text text-anchor="middle" x="707" y="-366.5" font-family="Helvetica,sans-Serif" font-size="10.00">parser.SemanticsTable.buildMap</text>
</a>
</g>
</g>
<!-- Node8&#45;&gt;Node9 -->
<g id="edge8" class="edge"><title>Node8&#45;&gt;Node9</title>
<path fill="none" stroke="midnightblue" d="M563.65,-369C579.306,-369 595.658,-369 611.468,-369"/>
<polygon fill="midnightblue" stroke="midnightblue" points="611.766,-372.5 621.766,-369 611.766,-365.5 611.766,-372.5"/>
</g>
<!-- Node11 -->
<g id="node11" class="node"><title>Node11</title>
<g id="a_node11"><a xlink:href="../../dc/dbd/interfaceview_1_1_workspace_handler.html#ac88b6c9e5fb3ffa06ab3ef23b9ce2ae0" target="_top" xlink:title="view.WorkspaceHandler.get\lWorkspace">
<polygon fill="white" stroke="black" points="401,-305 401,-335 547,-335 547,-305 401,-305"/>
<text text-anchor="start" x="409" y="-323" font-family="Helvetica,sans-Serif" font-size="10.00">view.WorkspaceHandler.get</text>
<text text-anchor="middle" x="474" y="-312" font-family="Helvetica,sans-Serif" font-size="10.00">Workspace</text>
</a>
</g>
</g>
<!-- Node10&#45;&gt;Node11 -->
<g id="edge10" class="edge"><title>Node10&#45;&gt;Node11</title>
<path fill="none" stroke="midnightblue" d="M330.207,-320C349.329,-320 370.614,-320 390.789,-320"/>
<polygon fill="midnightblue" stroke="midnightblue" points="390.903,-323.5 400.903,-320 390.903,-316.5 390.903,-323.5"/>
</g>
<!-- Node13 -->
<g id="node13" class="node"><title>Node13</title>
<g id="a_node13"><a xlink:href="../../d2/df8/classparser_1_1_lex_checker.html#a982a56b6fbf6428a5dca97eb56a81625" target="_top" xlink:title="parser.LexChecker.splitTokens">
<polygon fill="white" stroke="black" points="394.5,-266.5 394.5,-285.5 553.5,-285.5 553.5,-266.5 394.5,-266.5"/>
<text text-anchor="middle" x="474" y="-273.5" font-family="Helvetica,sans-Serif" font-size="10.00">parser.LexChecker.splitTokens</text>
</a>
</g>
</g>
<!-- Node12&#45;&gt;Node13 -->
<g id="edge12" class="edge"><title>Node12&#45;&gt;Node13</title>
<path fill="none" stroke="midnightblue" d="M345.762,-276C358.309,-276 371.365,-276 384.126,-276"/>
<polygon fill="midnightblue" stroke="midnightblue" points="384.282,-279.5 394.282,-276 384.282,-272.5 384.282,-279.5"/>
</g>
<!-- Node14 -->
<g id="node14" class="node"><title>Node14</title>
<g id="a_node14"><a xlink:href="../../d7/d0d/classparser_1_1_semantics_checker.html#a8620f3090287a61f86765ee920d53de0" target="_top" xlink:title="parser.SemanticsChecker.evaluate\lExpression">
<polygon fill="white" stroke="black" points="382.5,-217 382.5,-247 565.5,-247 565.5,-217 382.5,-217"/>
<text text-anchor="start" x="390.5" y="-235" font-family="Helvetica,sans-Serif" font-size="10.00">parser.SemanticsChecker.evaluate</text>
<text text-anchor="middle" x="474" y="-224" font-family="Helvetica,sans-Serif" font-size="10.00">Expression</text>
</a>
</g>
</g>
<!-- Node12&#45;&gt;Node14 -->
<g id="edge13" class="edge"><title>Node12&#45;&gt;Node14</title>
<path fill="none" stroke="midnightblue" d="M311.699,-266.453C335.306,-261.41 365.006,-255.067 392.467,-249.201"/>
<polygon fill="midnightblue" stroke="midnightblue" points="393.418,-252.577 402.467,-247.065 391.956,-245.731 393.418,-252.577"/>
</g>
<!-- Node15 -->
<g id="node15" class="node"><title>Node15</title>
<g id="a_node15"><a xlink:href="../../df/daf/classparser_1_1_semantics_table.html#aab459a521d748abf6058d243b8714d32" target="_top" xlink:title="parser.SemanticsTable.get\lTokenClass">
<polygon fill="white" stroke="black" points="635.5,-308 635.5,-338 778.5,-338 778.5,-308 635.5,-308"/>
<text text-anchor="start" x="643.5" y="-326" font-family="Helvetica,sans-Serif" font-size="10.00">parser.SemanticsTable.get</text>
<text text-anchor="middle" x="707" y="-315" font-family="Helvetica,sans-Serif" font-size="10.00">TokenClass</text>
</a>
</g>
</g>
<!-- Node14&#45;&gt;Node15 -->
<g id="edge14" class="edge"><title>Node14&#45;&gt;Node15</title>
<path fill="none" stroke="midnightblue" d="M545.194,-247.043C552.458,-249.833 559.537,-253.123 566,-257 585.951,-268.966 582.019,-283.085 602,-295 609.409,-299.418 617.526,-303.154 625.855,-306.308"/>
<polygon fill="midnightblue" stroke="midnightblue" points="624.726,-309.622 635.321,-309.629 627.043,-303.016 624.726,-309.622"/>
</g>
<!-- Node19 -->
<g id="node19" class="node"><title>Node19</title>
<g id="a_node19"><a xlink:href="../../d5/d08/classparser_1_1nodes_1_1_node_information.html#a1553927792e60fe77a0b2a7d21c53182" target="_top" xlink:title="parser.nodes.NodeInformation.getName">
<polygon fill="white" stroke="black" points="602,-266.5 602,-285.5 812,-285.5 812,-266.5 602,-266.5"/>
<text text-anchor="middle" x="707" y="-273.5" font-family="Helvetica,sans-Serif" font-size="10.00">parser.nodes.NodeInformation.getName</text>
</a>
</g>
</g>
<!-- Node14&#45;&gt;Node19 -->
<g id="edge18" class="edge"><title>Node14&#45;&gt;Node19</title>
<path fill="none" stroke="midnightblue" d="M553.851,-247.019C584,-252.762 617.866,-259.213 645.98,-264.568"/>
<polygon fill="midnightblue" stroke="midnightblue" points="645.581,-268.055 656.06,-266.488 646.891,-261.178 645.581,-268.055"/>
</g>
<!-- Node20 -->
<g id="node20" class="node"><title>Node20</title>
<g id="a_node20"><a xlink:href="../../df/daf/classparser_1_1_semantics_table.html#a8b10ea894ea685fb78306df326a17db2" target="_top" xlink:title="parser.SemanticsTable.register\lCustomCommand">
<polygon fill="white" stroke="black" points="625,-217 625,-247 789,-247 789,-217 625,-217"/>
<text text-anchor="start" x="633" y="-235" font-family="Helvetica,sans-Serif" font-size="10.00">parser.SemanticsTable.register</text>
<text text-anchor="middle" x="707" y="-224" font-family="Helvetica,sans-Serif" font-size="10.00">CustomCommand</text>
</a>
</g>
</g>
<!-- Node14&#45;&gt;Node20 -->
<g id="edge19" class="edge"><title>Node14&#45;&gt;Node20</title>
<path fill="none" stroke="midnightblue" d="M565.634,-232C581.602,-232 598.235,-232 614.234,-232"/>
<polygon fill="midnightblue" stroke="midnightblue" points="614.642,-235.5 624.642,-232 614.642,-228.5 614.642,-235.5"/>
</g>
<!-- Node22 -->
<g id="node22" class="node"><title>Node22</title>
<g id="a_node22"><a xlink:href="../../d7/d0d/classparser_1_1_semantics_checker.html#a41a9f32483c1d0e32acd7fa553c9670c" target="_top" xlink:title="parser.SemanticsChecker.create\lCustomCommand">
<polygon fill="white" stroke="black" points="620.5,-164 620.5,-194 793.5,-194 793.5,-164 620.5,-164"/>
<text text-anchor="start" x="628.5" y="-182" font-family="Helvetica,sans-Serif" font-size="10.00">parser.SemanticsChecker.create</text>
<text text-anchor="middle" x="707" y="-171" font-family="Helvetica,sans-Serif" font-size="10.00">CustomCommand</text>
</a>
</g>
</g>
<!-- Node14&#45;&gt;Node22 -->
<g id="edge21" class="edge"><title>Node14&#45;&gt;Node22</title>
<path fill="none" stroke="midnightblue" d="M540.577,-216.954C568.498,-210.548 601.238,-203.036 630.19,-196.394"/>
<polygon fill="midnightblue" stroke="midnightblue" points="631.295,-199.731 640.259,-194.084 629.729,-192.909 631.295,-199.731"/>
</g>
<!-- Node26 -->
<g id="node26" class="node"><title>Node26</title>
<g id="a_node26"><a xlink:href="../../d7/d0d/classparser_1_1_semantics_checker.html#a9874458f603e4eac6181412441aff5af" target="_top" xlink:title="parser.SemanticsChecker.createNode">
<polygon fill="white" stroke="black" points="608,-78.5 608,-97.5 806,-97.5 806,-78.5 608,-78.5"/>
<text text-anchor="middle" x="707" y="-85.5" font-family="Helvetica,sans-Serif" font-size="10.00">parser.SemanticsChecker.createNode</text>
</a>
</g>
</g>
<!-- Node14&#45;&gt;Node26 -->
<g id="edge25" class="edge"><title>Node14&#45;&gt;Node26</title>
<path fill="none" stroke="midnightblue" d="M499.284,-216.862C543.732,-189.154 637.659,-130.602 681.94,-102.999"/>
<polygon fill="midnightblue" stroke="midnightblue" points="683.965,-105.861 690.599,-97.6004 680.262,-99.9204 683.965,-105.861"/>
</g>
<!-- Node16 -->
<g id="node16" class="node"><title>Node16</title>
<g id="a_node16"><a xlink:href="../../d5/d08/classparser_1_1nodes_1_1_node_information.html#a10357cfb2c29282a4571d4713551a448" target="_top" xlink:title="parser.nodes.NodeInformation.clone">
<polygon fill="white" stroke="black" points="853.5,-357.5 853.5,-376.5 1044.5,-376.5 1044.5,-357.5 853.5,-357.5"/>
<text text-anchor="middle" x="949" y="-364.5" font-family="Helvetica,sans-Serif" font-size="10.00">parser.nodes.NodeInformation.clone</text>
</a>
</g>
</g>
<!-- Node15&#45;&gt;Node16 -->
<g id="edge15" class="edge"><title>Node15&#45;&gt;Node16</title>
<path fill="none" stroke="midnightblue" d="M778.71,-335.963C812.793,-342.212 853.298,-349.638 886.14,-355.659"/>
<polygon fill="midnightblue" stroke="midnightblue" points="885.604,-359.119 896.071,-357.48 886.866,-352.234 885.604,-359.119"/>
</g>
<!-- Node18 -->
<g id="node18" class="node"><title>Node18</title>
<g id="a_node18"><a xlink:href="../../d5/d08/classparser_1_1nodes_1_1_node_information.html#a0c4a6fe4a61e93a5dbe095ee42c213ed" target="_top" xlink:title="parser.nodes.NodeInformation.set\lToken">
<polygon fill="white" stroke="black" points="859,-308 859,-338 1039,-338 1039,-308 859,-308"/>
<text text-anchor="start" x="867" y="-326" font-family="Helvetica,sans-Serif" font-size="10.00">parser.nodes.NodeInformation.set</text>
<text text-anchor="middle" x="949" y="-315" font-family="Helvetica,sans-Serif" font-size="10.00">Token</text>
</a>
</g>
</g>
<!-- Node15&#45;&gt;Node18 -->
<g id="edge17" class="edge"><title>Node15&#45;&gt;Node18</title>
<path fill="none" stroke="midnightblue" d="M778.71,-323C800.511,-323 824.938,-323 848.308,-323"/>
<polygon fill="midnightblue" stroke="midnightblue" points="848.601,-326.5 858.601,-323 848.601,-319.5 848.601,-326.5"/>
</g>
<!-- Node17 -->
<g id="node17" class="node"><title>Node17</title>
<g id="a_node17"><a xlink:href="../../d5/d08/classparser_1_1nodes_1_1_node_information.html#a0672ed587472f62f81cad30d9c35e3f0" target="_top" xlink:title="parser.nodes.NodeInformation.\lNodeInformation">
<polygon fill="white" stroke="black" points="1086.5,-352 1086.5,-382 1251.5,-382 1251.5,-352 1086.5,-352"/>
<text text-anchor="start" x="1094.5" y="-370" font-family="Helvetica,sans-Serif" font-size="10.00">parser.nodes.NodeInformation.</text>
<text text-anchor="middle" x="1169" y="-359" font-family="Helvetica,sans-Serif" font-size="10.00">NodeInformation</text>
</a>
</g>
</g>
<!-- Node16&#45;&gt;Node17 -->
<g id="edge16" class="edge"><title>Node16&#45;&gt;Node17</title>
<path fill="none" stroke="midnightblue" d="M1044.67,-367C1055.09,-367 1065.7,-367 1076.09,-367"/>
<polygon fill="midnightblue" stroke="midnightblue" points="1076.4,-370.5 1086.4,-367 1076.4,-363.5 1076.4,-370.5"/>
</g>
<!-- Node21 -->
<g id="node21" class="node"><title>Node21</title>
<g id="a_node21"><a xlink:href="../../dd/da7/interfaceparser_1_1_i_parser_provider.html#a933bbd5080c55f69c3e3f740a465e0a5" target="_top" xlink:title="parser.IParserProvider.add\lCommand">
<polygon fill="white" stroke="black" points="878.5,-259 878.5,-289 1019.5,-289 1019.5,-259 878.5,-259"/>
<text text-anchor="start" x="886.5" y="-277" font-family="Helvetica,sans-Serif" font-size="10.00">parser.IParserProvider.add</text>
<text text-anchor="middle" x="949" y="-266" font-family="Helvetica,sans-Serif" font-size="10.00">Command</text>
</a>
</g>
</g>
<!-- Node20&#45;&gt;Node21 -->
<g id="edge20" class="edge"><title>Node20&#45;&gt;Node21</title>
<path fill="none" stroke="midnightblue" d="M789.253,-246.219C814.824,-250.694 843.025,-255.629 868.474,-260.083"/>
<polygon fill="midnightblue" stroke="midnightblue" points="867.997,-263.553 878.451,-261.829 869.204,-256.657 867.997,-263.553"/>
</g>
<!-- Node23 -->
<g id="node23" class="node"><title>Node23</title>
<g id="a_node23"><a xlink:href="../../d5/d08/classparser_1_1nodes_1_1_node_information.html#a1a0cba33547c0d09dd567f0a9db27a51" target="_top" xlink:title="parser.nodes.NodeInformation.set\lShouldCreate">
<polygon fill="white" stroke="black" points="859,-210 859,-240 1039,-240 1039,-210 859,-210"/>
<text text-anchor="start" x="867" y="-228" font-family="Helvetica,sans-Serif" font-size="10.00">parser.nodes.NodeInformation.set</text>
<text text-anchor="middle" x="949" y="-217" font-family="Helvetica,sans-Serif" font-size="10.00">ShouldCreate</text>
</a>
</g>
</g>
<!-- Node22&#45;&gt;Node23 -->
<g id="edge22" class="edge"><title>Node22&#45;&gt;Node23</title>
<path fill="none" stroke="midnightblue" d="M786.585,-194.062C809.911,-198.533 835.616,-203.46 859.524,-208.042"/>
<polygon fill="midnightblue" stroke="midnightblue" points="859.168,-211.538 869.649,-209.983 860.486,-204.663 859.168,-211.538"/>
</g>
<!-- Node24 -->
<g id="node24" class="node"><title>Node24</title>
<g id="a_node24"><a xlink:href="../../d5/d08/classparser_1_1nodes_1_1_node_information.html#ae642533c8e960e3d6dff2653e422f301" target="_top" xlink:title="parser.nodes.NodeInformation.get\lToken">
<polygon fill="white" stroke="black" points="858.5,-161 858.5,-191 1039.5,-191 1039.5,-161 858.5,-161"/>
<text text-anchor="start" x="866.5" y="-179" font-family="Helvetica,sans-Serif" font-size="10.00">parser.nodes.NodeInformation.get</text>
<text text-anchor="middle" x="949" y="-168" font-family="Helvetica,sans-Serif" font-size="10.00">Token</text>
</a>
</g>
</g>
<!-- Node22&#45;&gt;Node24 -->
<g id="edge23" class="edge"><title>Node22&#45;&gt;Node24</title>
<path fill="none" stroke="midnightblue" d="M793.629,-177.93C811.348,-177.708 830.159,-177.473 848.33,-177.246"/>
<polygon fill="midnightblue" stroke="midnightblue" points="848.392,-180.745 858.348,-177.121 848.305,-173.746 848.392,-180.745"/>
</g>
<!-- Node25 -->
<g id="node25" class="node"><title>Node25</title>
<g id="a_node25"><a xlink:href="../../d5/d08/classparser_1_1nodes_1_1_node_information.html#ad42f8e4caa516857bf2ad3eb9e392a9e" target="_top" xlink:title="parser.nodes.NodeInformation.getType">
<polygon fill="white" stroke="black" points="848,-122.5 848,-141.5 1050,-141.5 1050,-122.5 848,-122.5"/>
<text text-anchor="middle" x="949" y="-129.5" font-family="Helvetica,sans-Serif" font-size="10.00">parser.nodes.NodeInformation.getType</text>
</a>
</g>
</g>
<!-- Node22&#45;&gt;Node25 -->
<g id="edge24" class="edge"><title>Node22&#45;&gt;Node25</title>
<path fill="none" stroke="midnightblue" d="M784.597,-164C818.515,-157.358 857.779,-149.668 889.316,-143.492"/>
<polygon fill="midnightblue" stroke="midnightblue" points="890.127,-146.9 899.268,-141.543 888.781,-140.031 890.127,-146.9"/>
</g>
<!-- Node27 -->
<g id="node27" class="node"><title>Node27</title>
<g id="a_node27"><a xlink:href="../../df/daf/classparser_1_1_semantics_table.html#ad21bbcf3716340782e1da8da4efe1e82" target="_top" xlink:title="parser.SemanticsTable.get\lCommand">
<polygon fill="white" stroke="black" points="877.5,-73 877.5,-103 1020.5,-103 1020.5,-73 877.5,-73"/>
<text text-anchor="start" x="885.5" y="-91" font-family="Helvetica,sans-Serif" font-size="10.00">parser.SemanticsTable.get</text>
<text text-anchor="middle" x="949" y="-80" font-family="Helvetica,sans-Serif" font-size="10.00">Command</text>
</a>
</g>
</g>
<!-- Node26&#45;&gt;Node27 -->
<g id="edge26" class="edge"><title>Node26&#45;&gt;Node27</title>
<path fill="none" stroke="midnightblue" d="M806.31,-88C826.593,-88 847.732,-88 867.303,-88"/>
<polygon fill="midnightblue" stroke="midnightblue" points="867.381,-91.5001 877.381,-88 867.381,-84.5001 867.381,-91.5001"/>
</g>
<!-- Node29 -->
<g id="node29" class="node"><title>Node29</title>
<g id="a_node29"><a xlink:href="../../d6/dcd/classparser_1_1reflection_1_1_reflection_helper.html#aff20ce969eb8ac26feda4d41f9f26411" target="_top" xlink:title="parser.reflection.Reflection\lHelper.createInstanceOf">
<polygon fill="white" stroke="black" points="877.5,-24 877.5,-54 1020.5,-54 1020.5,-24 877.5,-24"/>
<text text-anchor="start" x="885.5" y="-42" font-family="Helvetica,sans-Serif" font-size="10.00">parser.reflection.Reflection</text>
<text text-anchor="middle" x="949" y="-31" font-family="Helvetica,sans-Serif" font-size="10.00">Helper.createInstanceOf</text>
</a>
</g>
</g>
<!-- Node26&#45;&gt;Node29 -->
<g id="edge28" class="edge"><title>Node26&#45;&gt;Node29</title>
<path fill="none" stroke="midnightblue" d="M754.559,-78.4942C786.593,-71.9539 829.972,-63.0973 867.534,-55.4285"/>
<polygon fill="midnightblue" stroke="midnightblue" points="868.354,-58.8333 877.452,-53.4036 866.954,-51.9748 868.354,-58.8333"/>
</g>
<!-- Node28 -->
<g id="node28" class="node"><title>Node28</title>
<g id="a_node28"><a xlink:href="../../dd/da7/interfaceparser_1_1_i_parser_provider.html#a190d86fe0b03a1c15700dae1237754fb" target="_top" xlink:title="parser.IParserProvider.get\lCommand">
<polygon fill="white" stroke="black" points="1099.5,-73 1099.5,-103 1238.5,-103 1238.5,-73 1099.5,-73"/>
<text text-anchor="start" x="1107.5" y="-91" font-family="Helvetica,sans-Serif" font-size="10.00">parser.IParserProvider.get</text>
<text text-anchor="middle" x="1169" y="-80" font-family="Helvetica,sans-Serif" font-size="10.00">Command</text>
</a>
</g>
</g>
<!-- Node27&#45;&gt;Node28 -->
<g id="edge27" class="edge"><title>Node27&#45;&gt;Node28</title>
<path fill="none" stroke="midnightblue" d="M1020.78,-88C1042.66,-88 1066.9,-88 1089.29,-88"/>
<polygon fill="midnightblue" stroke="midnightblue" points="1089.43,-91.5001 1099.43,-88 1089.43,-84.5001 1089.43,-91.5001"/>
</g>
<!-- Node30 -->
<g id="node30" class="node"><title>Node30</title>
<g id="a_node30"><a xlink:href="../../d6/dcd/classparser_1_1reflection_1_1_reflection_helper.html#a560ebe5618d9e6e27c57d13b55fe1b43" target="_top" xlink:title="parser.reflection.Reflection\lHelper.findConstructor">
<polygon fill="white" stroke="black" points="1097.5,-24 1097.5,-54 1240.5,-54 1240.5,-24 1097.5,-24"/>
<text text-anchor="start" x="1105.5" y="-42" font-family="Helvetica,sans-Serif" font-size="10.00">parser.reflection.Reflection</text>
<text text-anchor="middle" x="1169" y="-31" font-family="Helvetica,sans-Serif" font-size="10.00">Helper.findConstructor</text>
</a>
</g>
</g>
<!-- Node29&#45;&gt;Node30 -->
<g id="edge29" class="edge"><title>Node29&#45;&gt;Node30</title>
<path fill="none" stroke="midnightblue" d="M1020.78,-39C1041.92,-39 1065.26,-39 1087.01,-39"/>
<polygon fill="midnightblue" stroke="midnightblue" points="1087.2,-42.5001 1097.2,-39 1087.2,-35.5001 1087.2,-42.5001"/>
</g>
<!-- Node31 -->
<g id="node31" class="node"><title>Node31</title>
<g id="a_node31"><a xlink:href="../../d6/dcd/classparser_1_1reflection_1_1_reflection_helper.html#ab29ddff567376a34fe0e284cf6833b0d" target="_top" xlink:title="parser.reflection.Reflection\lHelper.toClassArray">
<polygon fill="white" stroke="black" points="1288.5,-49 1288.5,-79 1431.5,-79 1431.5,-49 1288.5,-49"/>
<text text-anchor="start" x="1296.5" y="-67" font-family="Helvetica,sans-Serif" font-size="10.00">parser.reflection.Reflection</text>
<text text-anchor="middle" x="1360" y="-56" font-family="Helvetica,sans-Serif" font-size="10.00">Helper.toClassArray</text>
</a>
</g>
</g>
<!-- Node30&#45;&gt;Node31 -->
<g id="edge30" class="edge"><title>Node30&#45;&gt;Node31</title>
<path fill="none" stroke="midnightblue" d="M1240.65,-48.3446C1252.97,-49.9752 1265.88,-51.6824 1278.45,-53.3451"/>
<polygon fill="midnightblue" stroke="midnightblue" points="1278.07,-56.8251 1288.44,-54.6667 1278.99,-49.8855 1278.07,-56.8251"/>
</g>
<!-- Node32 -->
<g id="node32" class="node"><title>Node32</title>
<g id="a_node32"><a xlink:href="../../d6/dcd/classparser_1_1reflection_1_1_reflection_helper.html#ac2c724f682c2eb9bd6be04a816e86320" target="_top" xlink:title="parser.reflection.Reflection\lHelper.paramsEqual">
<polygon fill="white" stroke="black" points="1288.5,-0 1288.5,-30 1431.5,-30 1431.5,-0 1288.5,-0"/>
<text text-anchor="start" x="1296.5" y="-18" font-family="Helvetica,sans-Serif" font-size="10.00">parser.reflection.Reflection</text>
<text text-anchor="middle" x="1360" y="-7" font-family="Helvetica,sans-Serif" font-size="10.00">Helper.paramsEqual</text>
</a>
</g>
</g>
<!-- Node30&#45;&gt;Node32 -->
<g id="edge31" class="edge"><title>Node30&#45;&gt;Node32</title>
<path fill="none" stroke="midnightblue" d="M1240.65,-30.0292C1252.97,-28.4638 1265.88,-26.8249 1278.45,-25.2287"/>
<polygon fill="midnightblue" stroke="midnightblue" points="1278.96,-28.6919 1288.44,-23.96 1278.08,-21.7477 1278.96,-28.6919"/>
</g>
</g>
</svg>
        <g id="navigator" transform="translate(0 0)" fill="#404254">
                <rect fill="#f2f5e9" fill-opacity="0.5" stroke="#606060" stroke-width=".5" x="0" y="0" width="60" height="60"/>
                <use id="zoomplus" xlink:href="#zoomPlus" x="17" y="9" onmousedown="handleZoom(evt,'in')"/>
                <use id="zoomminus" xlink:href="#zoomMin" x="42" y="9" onmousedown="handleZoom(evt,'out')"/>
                <use id="reset" xlink:href="#resetDef" x="30" y="36" onmousedown="handleReset()"/>
                <g id="arrowUp" xlink:href="#dirArrow" transform="translate(30 24)" onmousedown="handlePan(0,-1)">
                  <use xlink:href="#rim" fill="#404040">
                        <set attributeName="fill" to="#808080" begin="arrowUp.mouseover" end="arrowUp.mouseout"/>
                  </use>
                  <path fill="none" stroke="white" stroke-width="1.5" d="M0,-3.0v7 M-2.5,-0.5L0,-3.0L2.5,-0.5"/>
                </g>
                <g id="arrowRight" xlink:href="#dirArrow" transform="rotate(90) translate(36 -43)" onmousedown="handlePan(1,0)">
                  <use xlink:href="#rim" fill="#404040">
                        <set attributeName="fill" to="#808080" begin="arrowRight.mouseover" end="arrowRight.mouseout"/>
                  </use>
                  <path fill="none" stroke="white" stroke-width="1.5" d="M0,-3.0v7 M-2.5,-0.5L0,-3.0L2.5,-0.5"/>
                </g>
                <g id="arrowDown" xlink:href="#dirArrow" transform="rotate(180) translate(-30 -48)" onmousedown="handlePan(0,1)">
                  <use xlink:href="#rim" fill="#404040">
                        <set attributeName="fill" to="#808080" begin="arrowDown.mouseover" end="arrowDown.mouseout"/>
                  </use>
                  <path fill="none" stroke="white" stroke-width="1.5" d="M0,-3.0v7 M-2.5,-0.5L0,-3.0L2.5,-0.5"/>
                </g>
                <g id="arrowLeft" xlink:href="#dirArrow" transform="rotate(270) translate(-36 17)" onmousedown="handlePan(-1,0)">
                  <use xlink:href="#rim" fill="#404040">
                        <set attributeName="fill" to="#808080" begin="arrowLeft.mouseover" end="arrowLeft.mouseout"/>
                  </use>
                  <path fill="none" stroke="white" stroke-width="1.5" d="M0,-3.0v7 M-2.5,-0.5L0,-3.0L2.5,-0.5"/>
                </g>
        </g>
        <svg viewBox="0 0 15 15" width="100%" height="30px" preserveAspectRatio="xMaxYMin meet">
         <g id="arrow_out" transform="scale(0.3 0.3)">
          <a xlink:href="classcontroller_1_1_controller_a89b63f37e67efbeddda1f247016c837b_cgraph_org.svg" target="_base">
           <rect id="button" ry="5" rx="5" y="6" x="6" height="38" width="38"
                fill="#f2f5e9" fill-opacity="0.5" stroke="#606060" stroke-width="1.0"/>
           <path id="arrow"
             d="M 11.500037,31.436501 C 11.940474,20.09759 22.043105,11.32322 32.158766,21.979434 L 37.068811,17.246167 C 37.068811,17.246167 37.088388,32 37.088388,32 L 22.160133,31.978069 C 22.160133,31.978069 26.997745,27.140456 26.997745,27.140456 C 18.528582,18.264221 13.291696,25.230495 11.500037,31.436501 z"
             style="fill:#404040;"/>
          </a>
         </g>
        </svg>
</svg>
