<?xml version="1.0" encoding="UTF-8" standalone="no"?>
<!DOCTYPE svg PUBLIC "-//W3C//DTD SVG 1.1//EN"
 "http://www.w3.org/Graphics/SVG/1.1/DTD/svg11.dtd">
<!-- Generated by graphviz version 2.36.0 (20140111.2315)
 -->
<!-- Title: controller.Controller.loadWorkspace Pages: 1 -->
<svg width="1626pt" height="424pt"
 viewBox="0.00 0.00 1626.00 424.00" xmlns="http://www.w3.org/2000/svg" xmlns:xlink="http://www.w3.org/1999/xlink">
<g id="graph0" class="graph" transform="scale(1 1) rotate(0) translate(4 420)">
<title>controller.Controller.loadWorkspace</title>
<polygon fill="white" stroke="none" points="-4,4 -4,-420 1622,-420 1622,4 -4,4"/>
<!-- Node1 -->
<g id="node1" class="node"><title>Node1</title>
<polygon fill="#bfbfbf" stroke="black" points="0.5,-266 0.5,-296 133.5,-296 133.5,-266 0.5,-266"/>
<text text-anchor="start" x="8.5" y="-284" font-family="Helvetica,sans-Serif" font-size="10.00">controller.Controller.load</text>
<text text-anchor="middle" x="67" y="-273" font-family="Helvetica,sans-Serif" font-size="10.00">Workspace</text>
</g>
<!-- Node2 -->
<g id="node2" class="node"><title>Node2</title>
<g id="a_node2"><a xlink:href="../../d9/df7/classcontroller_1_1_controller.html#aec5e242ff69899c974dbd6302510f70b" target="_top" xlink:title="controller.Controller.processFile">
<polygon fill="white" stroke="black" points="170.5,-271.5 170.5,-290.5 335.5,-290.5 335.5,-271.5 170.5,-271.5"/>
<text text-anchor="middle" x="253" y="-278.5" font-family="Helvetica,sans-Serif" font-size="10.00">controller.Controller.processFile</text>
</a>
</g>
</g>
<!-- Node1&#45;&gt;Node2 -->
<g id="edge1" class="edge"><title>Node1&#45;&gt;Node2</title>
<path fill="none" stroke="midnightblue" d="M133.649,-281C142.272,-281 151.233,-281 160.192,-281"/>
<polygon fill="midnightblue" stroke="midnightblue" points="160.287,-284.5 170.287,-281 160.287,-277.5 160.287,-284.5"/>
</g>
<!-- Node3 -->
<g id="node3" class="node"><title>Node3</title>
<g id="a_node3"><a xlink:href="../../df/daf/classparser_1_1_semantics_table.html#a737b71f0ef1c252dbe00b3862c45bc74" target="_top" xlink:title="parser.SemanticsTable.get\lInstance">
<polygon fill="white" stroke="black" points="380.5,-386 380.5,-416 523.5,-416 523.5,-386 380.5,-386"/>
<text text-anchor="start" x="388.5" y="-404" font-family="Helvetica,sans-Serif" font-size="10.00">parser.SemanticsTable.get</text>
<text text-anchor="middle" x="452" y="-393" font-family="Helvetica,sans-Serif" font-size="10.00">Instance</text>
</a>
</g>
</g>
<!-- Node2&#45;&gt;Node3 -->
<g id="edge2" class="edge"><title>Node2&#45;&gt;Node3</title>
<path fill="none" stroke="midnightblue" d="M263.499,-290.775C282.454,-309.765 327.033,-351.89 372,-376 376.031,-378.161 380.28,-380.172 384.63,-382.035"/>
<polygon fill="midnightblue" stroke="midnightblue" points="383.684,-385.426 394.269,-385.88 386.278,-378.924 383.684,-385.426"/>
</g>
<!-- Node6 -->
<g id="node6" class="node"><title>Node6</title>
<g id="a_node6"><a xlink:href="../../df/daf/classparser_1_1_semantics_table.html#aa027bd54d31d7ddb671b2773f7c2549b" target="_top" xlink:title="parser.SemanticsTable.set\lContext">
<polygon fill="white" stroke="black" points="380.5,-337 380.5,-367 523.5,-367 523.5,-337 380.5,-337"/>
<text text-anchor="start" x="388.5" y="-355" font-family="Helvetica,sans-Serif" font-size="10.00">parser.SemanticsTable.set</text>
<text text-anchor="middle" x="452" y="-344" font-family="Helvetica,sans-Serif" font-size="10.00">Context</text>
</a>
</g>
</g>
<!-- Node2&#45;&gt;Node6 -->
<g id="edge5" class="edge"><title>Node2&#45;&gt;Node6</title>
<path fill="none" stroke="midnightblue" d="M277.339,-290.618C301.024,-300.255 338.823,-315.298 372,-327 378.38,-329.251 385.083,-331.518 391.774,-333.72"/>
<polygon fill="midnightblue" stroke="midnightblue" points="390.937,-337.128 401.529,-336.89 393.1,-330.471 390.937,-337.128"/>
</g>
<!-- Node7 -->
<g id="node7" class="node"><title>Node7</title>
<g id="a_node7"><a xlink:href="../../d9/df7/classcontroller_1_1_controller.html#a318978485f5c3bbf5a89f5dac0db71ae" target="_top" xlink:title="controller.Controller.get\lWorkspace">
<polygon fill="white" stroke="black" points="388,-288 388,-318 516,-318 516,-288 388,-288"/>
<text text-anchor="start" x="396" y="-306" font-family="Helvetica,sans-Serif" font-size="10.00">controller.Controller.get</text>
<text text-anchor="middle" x="452" y="-295" font-family="Helvetica,sans-Serif" font-size="10.00">Workspace</text>
</a>
</g>
</g>
<!-- Node2&#45;&gt;Node7 -->
<g id="edge6" class="edge"><title>Node2&#45;&gt;Node7</title>
<path fill="none" stroke="midnightblue" d="M335.549,-290.107C349.467,-291.661 363.851,-293.268 377.542,-294.797"/>
<polygon fill="midnightblue" stroke="midnightblue" points="377.532,-298.317 387.859,-295.949 378.309,-291.36 377.532,-298.317"/>
</g>
<!-- Node9 -->
<g id="node9" class="node"><title>Node9</title>
<g id="a_node9"><a xlink:href="../../d6/d95/classparser_1_1_parser.html#ac0cfecef1d5308df35c49519d94f85a5" target="_top" xlink:title="parser.Parser.parseCommand">
<polygon fill="white" stroke="black" points="372.5,-249.5 372.5,-268.5 531.5,-268.5 531.5,-249.5 372.5,-249.5"/>
<text text-anchor="middle" x="452" y="-256.5" font-family="Helvetica,sans-Serif" font-size="10.00">parser.Parser.parseCommand</text>
</a>
</g>
</g>
<!-- Node2&#45;&gt;Node9 -->
<g id="edge8" class="edge"><title>Node2&#45;&gt;Node9</title>
<path fill="none" stroke="midnightblue" d="M335.549,-271.893C344.394,-270.905 353.426,-269.897 362.35,-268.9"/>
<polygon fill="midnightblue" stroke="midnightblue" points="362.813,-272.37 372.362,-267.782 362.036,-265.413 362.813,-272.37"/>
</g>
<!-- Node30 -->
<g id="node30" class="node"><title>Node30</title>
<g id="a_node30"><a xlink:href="../../de/d84/classcontroller_1_1_workspace.html#a6b1f99115388e9de9dc779e30ed16041" target="_top" xlink:title="controller.Workspace.show\lError">
<polygon fill="white" stroke="black" points="589,-168 589,-198 731,-198 731,-168 589,-168"/>
<text text-anchor="start" x="597" y="-186" font-family="Helvetica,sans-Serif" font-size="10.00">controller.Workspace.show</text>
<text text-anchor="middle" x="660" y="-175" font-family="Helvetica,sans-Serif" font-size="10.00">Error</text>
</a>
</g>
</g>
<!-- Node2&#45;&gt;Node30 -->
<g id="edge29" class="edge"><title>Node2&#45;&gt;Node30</title>
<path fill="none" stroke="midnightblue" d="M278.55,-271.352C302.204,-262.324 339.141,-248.925 372,-240 440.907,-221.283 520.668,-205.935 578.59,-195.9"/>
<polygon fill="midnightblue" stroke="midnightblue" points="579.516,-199.293 588.78,-194.151 578.332,-192.394 579.516,-199.293"/>
</g>
<!-- Node31 -->
<g id="node31" class="node"><title>Node31</title>
<g id="a_node31"><a xlink:href="../../de/d84/classcontroller_1_1_workspace.html#a6e2c1aeab69fcad61e9a29cbf4c189cc" target="_top" xlink:title="controller.Workspace.execute">
<polygon fill="white" stroke="black" points="374,-173.5 374,-192.5 530,-192.5 530,-173.5 374,-173.5"/>
<text text-anchor="middle" x="452" y="-180.5" font-family="Helvetica,sans-Serif" font-size="10.00">controller.Workspace.execute</text>
</a>
</g>
</g>
<!-- Node2&#45;&gt;Node31 -->
<g id="edge30" class="edge"><title>Node2&#45;&gt;Node31</title>
<path fill="none" stroke="midnightblue" d="M266.801,-271.361C287.796,-255.934 331.291,-225.548 372,-207 381.588,-202.631 392.184,-198.793 402.418,-195.54"/>
<polygon fill="midnightblue" stroke="midnightblue" points="403.525,-198.861 412.074,-192.602 401.488,-192.164 403.525,-198.861"/>
</g>
<!-- Node4 -->
<g id="node4" class="node"><title>Node4</title>
<g id="a_node4"><a xlink:href="../../df/daf/classparser_1_1_semantics_table.html#a1ee110bb77636170fa5e8bb1921b8296" target="_top" xlink:title="parser.SemanticsTable.Semantics\lTable">
<polygon fill="white" stroke="black" points="570.5,-386 570.5,-416 749.5,-416 749.5,-386 570.5,-386"/>
<text text-anchor="start" x="578.5" y="-404" font-family="Helvetica,sans-Serif" font-size="10.00">parser.SemanticsTable.Semantics</text>
<text text-anchor="middle" x="660" y="-393" font-family="Helvetica,sans-Serif" font-size="10.00">Table</text>
</a>
</g>
</g>
<!-- Node3&#45;&gt;Node4 -->
<g id="edge3" class="edge"><title>Node3&#45;&gt;Node4</title>
<path fill="none" stroke="midnightblue" d="M523.605,-401C535.343,-401 547.706,-401 559.993,-401"/>
<polygon fill="midnightblue" stroke="midnightblue" points="560.281,-404.5 570.281,-401 560.281,-397.5 560.281,-404.5"/>
</g>
<!-- Node5 -->
<g id="node5" class="node"><title>Node5</title>
<g id="a_node5"><a xlink:href="../../df/daf/classparser_1_1_semantics_table.html#a9c805f5773f5a74c3985fb4a605f0e35" target="_top" xlink:title="parser.SemanticsTable.buildMap">
<polygon fill="white" stroke="black" points="808,-391.5 808,-410.5 978,-410.5 978,-391.5 808,-391.5"/>
<text text-anchor="middle" x="893" y="-398.5" font-family="Helvetica,sans-Serif" font-size="10.00">parser.SemanticsTable.buildMap</text>
</a>
</g>
</g>
<!-- Node4&#45;&gt;Node5 -->
<g id="edge4" class="edge"><title>Node4&#45;&gt;Node5</title>
<path fill="none" stroke="midnightblue" d="M749.65,-401C765.306,-401 781.658,-401 797.468,-401"/>
<polygon fill="midnightblue" stroke="midnightblue" points="797.766,-404.5 807.766,-401 797.766,-397.5 797.766,-404.5"/>
</g>
<!-- Node8 -->
<g id="node8" class="node"><title>Node8</title>
<g id="a_node8"><a xlink:href="../../dc/dbd/interfaceview_1_1_workspace_handler.html#ac88b6c9e5fb3ffa06ab3ef23b9ce2ae0" target="_top" xlink:title="view.WorkspaceHandler.get\lWorkspace">
<polygon fill="white" stroke="black" points="587,-305 587,-335 733,-335 733,-305 587,-305"/>
<text text-anchor="start" x="595" y="-323" font-family="Helvetica,sans-Serif" font-size="10.00">view.WorkspaceHandler.get</text>
<text text-anchor="middle" x="660" y="-312" font-family="Helvetica,sans-Serif" font-size="10.00">Workspace</text>
</a>
</g>
</g>
<!-- Node7&#45;&gt;Node8 -->
<g id="edge7" class="edge"><title>Node7&#45;&gt;Node8</title>
<path fill="none" stroke="midnightblue" d="M516.207,-308.216C535.329,-309.794 556.614,-311.551 576.789,-313.216"/>
<polygon fill="midnightblue" stroke="midnightblue" points="576.649,-316.716 586.903,-314.05 577.225,-309.74 576.649,-316.716"/>
</g>
<!-- Node10 -->
<g id="node10" class="node"><title>Node10</title>
<g id="a_node10"><a xlink:href="../../d2/df8/classparser_1_1_lex_checker.html#a982a56b6fbf6428a5dca97eb56a81625" target="_top" xlink:title="parser.LexChecker.splitTokens">
<polygon fill="white" stroke="black" points="580.5,-266.5 580.5,-285.5 739.5,-285.5 739.5,-266.5 580.5,-266.5"/>
<text text-anchor="middle" x="660" y="-273.5" font-family="Helvetica,sans-Serif" font-size="10.00">parser.LexChecker.splitTokens</text>
</a>
</g>
</g>
<!-- Node9&#45;&gt;Node10 -->
<g id="edge9" class="edge"><title>Node9&#45;&gt;Node10</title>
<path fill="none" stroke="midnightblue" d="M531.762,-265.5C544.309,-266.535 557.365,-267.613 570.126,-268.666"/>
<polygon fill="midnightblue" stroke="midnightblue" points="570.028,-272.169 580.282,-269.504 570.604,-265.193 570.028,-272.169"/>
</g>
<!-- Node11 -->
<g id="node11" class="node"><title>Node11</title>
<g id="a_node11"><a xlink:href="../../d7/d0d/classparser_1_1_semantics_checker.html#a8620f3090287a61f86765ee920d53de0" target="_top" xlink:title="parser.SemanticsChecker.evaluate\lExpression">
<polygon fill="white" stroke="black" points="568.5,-217 568.5,-247 751.5,-247 751.5,-217 568.5,-217"/>
<text text-anchor="start" x="576.5" y="-235" font-family="Helvetica,sans-Serif" font-size="10.00">parser.SemanticsChecker.evaluate</text>
<text text-anchor="middle" x="660" y="-224" font-family="Helvetica,sans-Serif" font-size="10.00">Expression</text>
</a>
</g>
</g>
<!-- Node9&#45;&gt;Node11 -->
<g id="edge10" class="edge"><title>Node9&#45;&gt;Node11</title>
<path fill="none" stroke="midnightblue" d="M525.628,-249.481C536.182,-248.098 547.203,-246.653 558.191,-245.213"/>
<polygon fill="midnightblue" stroke="midnightblue" points="558.797,-248.663 568.258,-243.893 557.888,-241.723 558.797,-248.663"/>
</g>
<!-- Node12 -->
<g id="node12" class="node"><title>Node12</title>
<g id="a_node12"><a xlink:href="../../df/daf/classparser_1_1_semantics_table.html#aab459a521d748abf6058d243b8714d32" target="_top" xlink:title="parser.SemanticsTable.get\lTokenClass">
<polygon fill="white" stroke="black" points="821.5,-308 821.5,-338 964.5,-338 964.5,-308 821.5,-308"/>
<text text-anchor="start" x="829.5" y="-326" font-family="Helvetica,sans-Serif" font-size="10.00">parser.SemanticsTable.get</text>
<text text-anchor="middle" x="893" y="-315" font-family="Helvetica,sans-Serif" font-size="10.00">TokenClass</text>
</a>
</g>
</g>
<!-- Node11&#45;&gt;Node12 -->
<g id="edge11" class="edge"><title>Node11&#45;&gt;Node12</title>
<path fill="none" stroke="midnightblue" d="M731.194,-247.043C738.458,-249.833 745.537,-253.123 752,-257 771.951,-268.966 768.019,-283.085 788,-295 795.409,-299.418 803.526,-303.154 811.855,-306.308"/>
<polygon fill="midnightblue" stroke="midnightblue" points="810.726,-309.622 821.321,-309.629 813.043,-303.016 810.726,-309.622"/>
</g>
<!-- Node16 -->
<g id="node16" class="node"><title>Node16</title>
<g id="a_node16"><a xlink:href="../../d5/d08/classparser_1_1nodes_1_1_node_information.html#a1553927792e60fe77a0b2a7d21c53182" target="_top" xlink:title="parser.nodes.NodeInformation.getName">
<polygon fill="white" stroke="black" points="788,-266.5 788,-285.5 998,-285.5 998,-266.5 788,-266.5"/>
<text text-anchor="middle" x="893" y="-273.5" font-family="Helvetica,sans-Serif" font-size="10.00">parser.nodes.NodeInformation.getName</text>
</a>
</g>
</g>
<!-- Node11&#45;&gt;Node16 -->
<g id="edge15" class="edge"><title>Node11&#45;&gt;Node16</title>
<path fill="none" stroke="midnightblue" d="M739.851,-247.019C770,-252.762 803.866,-259.213 831.98,-264.568"/>
<polygon fill="midnightblue" stroke="midnightblue" points="831.581,-268.055 842.06,-266.488 832.891,-261.178 831.581,-268.055"/>
</g>
<!-- Node17 -->
<g id="node17" class="node"><title>Node17</title>
<g id="a_node17"><a xlink:href="../../df/daf/classparser_1_1_semantics_table.html#a8b10ea894ea685fb78306df326a17db2" target="_top" xlink:title="parser.SemanticsTable.register\lCustomCommand">
<polygon fill="white" stroke="black" points="811,-217 811,-247 975,-247 975,-217 811,-217"/>
<text text-anchor="start" x="819" y="-235" font-family="Helvetica,sans-Serif" font-size="10.00">parser.SemanticsTable.register</text>
<text text-anchor="middle" x="893" y="-224" font-family="Helvetica,sans-Serif" font-size="10.00">CustomCommand</text>
</a>
</g>
</g>
<!-- Node11&#45;&gt;Node17 -->
<g id="edge16" class="edge"><title>Node11&#45;&gt;Node17</title>
<path fill="none" stroke="midnightblue" d="M751.634,-232C767.602,-232 784.235,-232 800.234,-232"/>
<polygon fill="midnightblue" stroke="midnightblue" points="800.642,-235.5 810.642,-232 800.642,-228.5 800.642,-235.5"/>
</g>
<!-- Node19 -->
<g id="node19" class="node"><title>Node19</title>
<g id="a_node19"><a xlink:href="../../d7/d0d/classparser_1_1_semantics_checker.html#a41a9f32483c1d0e32acd7fa553c9670c" target="_top" xlink:title="parser.SemanticsChecker.create\lCustomCommand">
<polygon fill="white" stroke="black" points="806.5,-163 806.5,-193 979.5,-193 979.5,-163 806.5,-163"/>
<text text-anchor="start" x="814.5" y="-181" font-family="Helvetica,sans-Serif" font-size="10.00">parser.SemanticsChecker.create</text>
<text text-anchor="middle" x="893" y="-170" font-family="Helvetica,sans-Serif" font-size="10.00">CustomCommand</text>
</a>
</g>
</g>
<!-- Node11&#45;&gt;Node19 -->
<g id="edge18" class="edge"><title>Node11&#45;&gt;Node19</title>
<path fill="none" stroke="midnightblue" d="M725.346,-216.958C754.012,-210.257 787.946,-202.324 817.687,-195.372"/>
<polygon fill="midnightblue" stroke="midnightblue" points="818.658,-198.739 827.598,-193.055 817.064,-191.923 818.658,-198.739"/>
</g>
<!-- Node23 -->
<g id="node23" class="node"><title>Node23</title>
<g id="a_node23"><a xlink:href="../../d7/d0d/classparser_1_1_semantics_checker.html#a9874458f603e4eac6181412441aff5af" target="_top" xlink:title="parser.SemanticsChecker.createNode">
<polygon fill="white" stroke="black" points="794,-78.5 794,-97.5 992,-97.5 992,-78.5 794,-78.5"/>
<text text-anchor="middle" x="893" y="-85.5" font-family="Helvetica,sans-Serif" font-size="10.00">parser.SemanticsChecker.createNode</text>
</a>
</g>
</g>
<!-- Node11&#45;&gt;Node23 -->
<g id="edge22" class="edge"><title>Node11&#45;&gt;Node23</title>
<path fill="none" stroke="midnightblue" d="M734.682,-216.835C740.813,-214.085 746.687,-210.837 752,-207 775.384,-190.113 767.306,-173.094 788,-153 810.054,-131.585 840.31,-113.651 862.503,-102.083"/>
<polygon fill="midnightblue" stroke="midnightblue" points="864.145,-105.175 871.473,-97.5232 860.973,-98.9346 864.145,-105.175"/>
</g>
<!-- Node13 -->
<g id="node13" class="node"><title>Node13</title>
<g id="a_node13"><a xlink:href="../../d5/d08/classparser_1_1nodes_1_1_node_information.html#a10357cfb2c29282a4571d4713551a448" target="_top" xlink:title="parser.nodes.NodeInformation.clone">
<polygon fill="white" stroke="black" points="1039.5,-357.5 1039.5,-376.5 1230.5,-376.5 1230.5,-357.5 1039.5,-357.5"/>
<text text-anchor="middle" x="1135" y="-364.5" font-family="Helvetica,sans-Serif" font-size="10.00">parser.nodes.NodeInformation.clone</text>
</a>
</g>
</g>
<!-- Node12&#45;&gt;Node13 -->
<g id="edge12" class="edge"><title>Node12&#45;&gt;Node13</title>
<path fill="none" stroke="midnightblue" d="M964.71,-335.963C998.793,-342.212 1039.3,-349.638 1072.14,-355.659"/>
<polygon fill="midnightblue" stroke="midnightblue" points="1071.6,-359.119 1082.07,-357.48 1072.87,-352.234 1071.6,-359.119"/>
</g>
<!-- Node15 -->
<g id="node15" class="node"><title>Node15</title>
<g id="a_node15"><a xlink:href="../../d5/d08/classparser_1_1nodes_1_1_node_information.html#a0c4a6fe4a61e93a5dbe095ee42c213ed" target="_top" xlink:title="parser.nodes.NodeInformation.set\lToken">
<polygon fill="white" stroke="black" points="1045,-308 1045,-338 1225,-338 1225,-308 1045,-308"/>
<text text-anchor="start" x="1053" y="-326" font-family="Helvetica,sans-Serif" font-size="10.00">parser.nodes.NodeInformation.set</text>
<text text-anchor="middle" x="1135" y="-315" font-family="Helvetica,sans-Serif" font-size="10.00">Token</text>
</a>
</g>
</g>
<!-- Node12&#45;&gt;Node15 -->
<g id="edge14" class="edge"><title>Node12&#45;&gt;Node15</title>
<path fill="none" stroke="midnightblue" d="M964.71,-323C986.511,-323 1010.94,-323 1034.31,-323"/>
<polygon fill="midnightblue" stroke="midnightblue" points="1034.6,-326.5 1044.6,-323 1034.6,-319.5 1034.6,-326.5"/>
</g>
<!-- Node14 -->
<g id="node14" class="node"><title>Node14</title>
<g id="a_node14"><a xlink:href="../../d5/d08/classparser_1_1nodes_1_1_node_information.html#a0672ed587472f62f81cad30d9c35e3f0" target="_top" xlink:title="parser.nodes.NodeInformation.\lNodeInformation">
<polygon fill="white" stroke="black" points="1272.5,-352 1272.5,-382 1437.5,-382 1437.5,-352 1272.5,-352"/>
<text text-anchor="start" x="1280.5" y="-370" font-family="Helvetica,sans-Serif" font-size="10.00">parser.nodes.NodeInformation.</text>
<text text-anchor="middle" x="1355" y="-359" font-family="Helvetica,sans-Serif" font-size="10.00">NodeInformation</text>
</a>
</g>
</g>
<!-- Node13&#45;&gt;Node14 -->
<g id="edge13" class="edge"><title>Node13&#45;&gt;Node14</title>
<path fill="none" stroke="midnightblue" d="M1230.67,-367C1241.09,-367 1251.7,-367 1262.09,-367"/>
<polygon fill="midnightblue" stroke="midnightblue" points="1262.4,-370.5 1272.4,-367 1262.4,-363.5 1262.4,-370.5"/>
</g>
<!-- Node18 -->
<g id="node18" class="node"><title>Node18</title>
<g id="a_node18"><a xlink:href="../../dd/da7/interfaceparser_1_1_i_parser_provider.html#a933bbd5080c55f69c3e3f740a465e0a5" target="_top" xlink:title="parser.IParserProvider.add\lCommand">
<polygon fill="white" stroke="black" points="1064.5,-259 1064.5,-289 1205.5,-289 1205.5,-259 1064.5,-259"/>
<text text-anchor="start" x="1072.5" y="-277" font-family="Helvetica,sans-Serif" font-size="10.00">parser.IParserProvider.add</text>
<text text-anchor="middle" x="1135" y="-266" font-family="Helvetica,sans-Serif" font-size="10.00">Command</text>
</a>
</g>
</g>
<!-- Node17&#45;&gt;Node18 -->
<g id="edge17" class="edge"><title>Node17&#45;&gt;Node18</title>
<path fill="none" stroke="midnightblue" d="M975.253,-246.219C1000.82,-250.694 1029.02,-255.629 1054.47,-260.083"/>
<polygon fill="midnightblue" stroke="midnightblue" points="1054,-263.553 1064.45,-261.829 1055.2,-256.657 1054,-263.553"/>
</g>
<!-- Node20 -->
<g id="node20" class="node"><title>Node20</title>
<g id="a_node20"><a xlink:href="../../d5/d08/classparser_1_1nodes_1_1_node_information.html#a1a0cba33547c0d09dd567f0a9db27a51" target="_top" xlink:title="parser.nodes.NodeInformation.set\lShouldCreate">
<polygon fill="white" stroke="black" points="1045,-210 1045,-240 1225,-240 1225,-210 1045,-210"/>
<text text-anchor="start" x="1053" y="-228" font-family="Helvetica,sans-Serif" font-size="10.00">parser.nodes.NodeInformation.set</text>
<text text-anchor="middle" x="1135" y="-217" font-family="Helvetica,sans-Serif" font-size="10.00">ShouldCreate</text>
</a>
</g>
</g>
<!-- Node19&#45;&gt;Node20 -->
<g id="edge19" class="edge"><title>Node19&#45;&gt;Node20</title>
<path fill="none" stroke="midnightblue" d="M970.597,-193C995.061,-197.791 1022.31,-203.127 1047.43,-208.046"/>
<polygon fill="midnightblue" stroke="midnightblue" points="1046.82,-211.494 1057.31,-209.981 1048.17,-204.624 1046.82,-211.494"/>
</g>
<!-- Node21 -->
<g id="node21" class="node"><title>Node21</title>
<g id="a_node21"><a xlink:href="../../d5/d08/classparser_1_1nodes_1_1_node_information.html#ae642533c8e960e3d6dff2653e422f301" target="_top" xlink:title="parser.nodes.NodeInformation.get\lToken">
<polygon fill="white" stroke="black" points="1044.5,-161 1044.5,-191 1225.5,-191 1225.5,-161 1044.5,-161"/>
<text text-anchor="start" x="1052.5" y="-179" font-family="Helvetica,sans-Serif" font-size="10.00">parser.nodes.NodeInformation.get</text>
<text text-anchor="middle" x="1135" y="-168" font-family="Helvetica,sans-Serif" font-size="10.00">Token</text>
</a>
</g>
</g>
<!-- Node19&#45;&gt;Node21 -->
<g id="edge20" class="edge"><title>Node19&#45;&gt;Node21</title>
<path fill="none" stroke="midnightblue" d="M979.629,-177.286C997.348,-177.139 1016.16,-176.982 1034.33,-176.831"/>
<polygon fill="midnightblue" stroke="midnightblue" points="1034.38,-180.33 1044.35,-176.747 1034.32,-173.331 1034.38,-180.33"/>
</g>
<!-- Node22 -->
<g id="node22" class="node"><title>Node22</title>
<g id="a_node22"><a xlink:href="../../d5/d08/classparser_1_1nodes_1_1_node_information.html#ad42f8e4caa516857bf2ad3eb9e392a9e" target="_top" xlink:title="parser.nodes.NodeInformation.getType">
<polygon fill="white" stroke="black" points="1034,-122.5 1034,-141.5 1236,-141.5 1236,-122.5 1034,-122.5"/>
<text text-anchor="middle" x="1135" y="-129.5" font-family="Helvetica,sans-Serif" font-size="10.00">parser.nodes.NodeInformation.getType</text>
</a>
</g>
</g>
<!-- Node19&#45;&gt;Node22 -->
<g id="edge21" class="edge"><title>Node19&#45;&gt;Node22</title>
<path fill="none" stroke="midnightblue" d="M971.747,-162.966C992.01,-159.059 1013.82,-154.863 1034,-151 1046.86,-148.538 1060.66,-145.909 1073.77,-143.416"/>
<polygon fill="midnightblue" stroke="midnightblue" points="1074.46,-146.847 1083.64,-141.541 1073.16,-139.97 1074.46,-146.847"/>
</g>
<!-- Node24 -->
<g id="node24" class="node"><title>Node24</title>
<g id="a_node24"><a xlink:href="../../df/daf/classparser_1_1_semantics_table.html#ad21bbcf3716340782e1da8da4efe1e82" target="_top" xlink:title="parser.SemanticsTable.get\lCommand">
<polygon fill="white" stroke="black" points="1063.5,-73 1063.5,-103 1206.5,-103 1206.5,-73 1063.5,-73"/>
<text text-anchor="start" x="1071.5" y="-91" font-family="Helvetica,sans-Serif" font-size="10.00">parser.SemanticsTable.get</text>
<text text-anchor="middle" x="1135" y="-80" font-family="Helvetica,sans-Serif" font-size="10.00">Command</text>
</a>
</g>
</g>
<!-- Node23&#45;&gt;Node24 -->
<g id="edge23" class="edge"><title>Node23&#45;&gt;Node24</title>
<path fill="none" stroke="midnightblue" d="M992.31,-88C1012.59,-88 1033.73,-88 1053.3,-88"/>
<polygon fill="midnightblue" stroke="midnightblue" points="1053.38,-91.5001 1063.38,-88 1053.38,-84.5001 1053.38,-91.5001"/>
</g>
<!-- Node26 -->
<g id="node26" class="node"><title>Node26</title>
<g id="a_node26"><a xlink:href="../../d6/dcd/classparser_1_1reflection_1_1_reflection_helper.html#aff20ce969eb8ac26feda4d41f9f26411" target="_top" xlink:title="parser.reflection.Reflection\lHelper.createInstanceOf">
<polygon fill="white" stroke="black" points="1063.5,-24 1063.5,-54 1206.5,-54 1206.5,-24 1063.5,-24"/>
<text text-anchor="start" x="1071.5" y="-42" font-family="Helvetica,sans-Serif" font-size="10.00">parser.reflection.Reflection</text>
<text text-anchor="middle" x="1135" y="-31" font-family="Helvetica,sans-Serif" font-size="10.00">Helper.createInstanceOf</text>
</a>
</g>
</g>
<!-- Node23&#45;&gt;Node26 -->
<g id="edge25" class="edge"><title>Node23&#45;&gt;Node26</title>
<path fill="none" stroke="midnightblue" d="M940.559,-78.4942C972.593,-71.9539 1015.97,-63.0973 1053.53,-55.4285"/>
<polygon fill="midnightblue" stroke="midnightblue" points="1054.35,-58.8333 1063.45,-53.4036 1052.95,-51.9748 1054.35,-58.8333"/>
</g>
<!-- Node25 -->
<g id="node25" class="node"><title>Node25</title>
<g id="a_node25"><a xlink:href="../../dd/da7/interfaceparser_1_1_i_parser_provider.html#a190d86fe0b03a1c15700dae1237754fb" target="_top" xlink:title="parser.IParserProvider.get\lCommand">
<polygon fill="white" stroke="black" points="1285.5,-73 1285.5,-103 1424.5,-103 1424.5,-73 1285.5,-73"/>
<text text-anchor="start" x="1293.5" y="-91" font-family="Helvetica,sans-Serif" font-size="10.00">parser.IParserProvider.get</text>
<text text-anchor="middle" x="1355" y="-80" font-family="Helvetica,sans-Serif" font-size="10.00">Command</text>
</a>
</g>
</g>
<!-- Node24&#45;&gt;Node25 -->
<g id="edge24" class="edge"><title>Node24&#45;&gt;Node25</title>
<path fill="none" stroke="midnightblue" d="M1206.78,-88C1228.66,-88 1252.9,-88 1275.29,-88"/>
<polygon fill="midnightblue" stroke="midnightblue" points="1275.43,-91.5001 1285.43,-88 1275.43,-84.5001 1275.43,-91.5001"/>
</g>
<!-- Node27 -->
<g id="node27" class="node"><title>Node27</title>
<g id="a_node27"><a xlink:href="../../d6/dcd/classparser_1_1reflection_1_1_reflection_helper.html#a560ebe5618d9e6e27c57d13b55fe1b43" target="_top" xlink:title="parser.reflection.Reflection\lHelper.findConstructor">
<polygon fill="white" stroke="black" points="1283.5,-24 1283.5,-54 1426.5,-54 1426.5,-24 1283.5,-24"/>
<text text-anchor="start" x="1291.5" y="-42" font-family="Helvetica,sans-Serif" font-size="10.00">parser.reflection.Reflection</text>
<text text-anchor="middle" x="1355" y="-31" font-family="Helvetica,sans-Serif" font-size="10.00">Helper.findConstructor</text>
</a>
</g>
</g>
<!-- Node26&#45;&gt;Node27 -->
<g id="edge26" class="edge"><title>Node26&#45;&gt;Node27</title>
<path fill="none" stroke="midnightblue" d="M1206.78,-39C1227.92,-39 1251.26,-39 1273.01,-39"/>
<polygon fill="midnightblue" stroke="midnightblue" points="1273.2,-42.5001 1283.2,-39 1273.2,-35.5001 1273.2,-42.5001"/>
</g>
<!-- Node28 -->
<g id="node28" class="node"><title>Node28</title>
<g id="a_node28"><a xlink:href="../../d6/dcd/classparser_1_1reflection_1_1_reflection_helper.html#ab29ddff567376a34fe0e284cf6833b0d" target="_top" xlink:title="parser.reflection.Reflection\lHelper.toClassArray">
<polygon fill="white" stroke="black" points="1474.5,-49 1474.5,-79 1617.5,-79 1617.5,-49 1474.5,-49"/>
<text text-anchor="start" x="1482.5" y="-67" font-family="Helvetica,sans-Serif" font-size="10.00">parser.reflection.Reflection</text>
<text text-anchor="middle" x="1546" y="-56" font-family="Helvetica,sans-Serif" font-size="10.00">Helper.toClassArray</text>
</a>
</g>
</g>
<!-- Node27&#45;&gt;Node28 -->
<g id="edge27" class="edge"><title>Node27&#45;&gt;Node28</title>
<path fill="none" stroke="midnightblue" d="M1426.65,-48.3446C1438.97,-49.9752 1451.88,-51.6824 1464.45,-53.3451"/>
<polygon fill="midnightblue" stroke="midnightblue" points="1464.07,-56.8251 1474.44,-54.6667 1464.99,-49.8855 1464.07,-56.8251"/>
</g>
<!-- Node29 -->
<g id="node29" class="node"><title>Node29</title>
<g id="a_node29"><a xlink:href="../../d6/dcd/classparser_1_1reflection_1_1_reflection_helper.html#ac2c724f682c2eb9bd6be04a816e86320" target="_top" xlink:title="parser.reflection.Reflection\lHelper.paramsEqual">
<polygon fill="white" stroke="black" points="1474.5,-0 1474.5,-30 1617.5,-30 1617.5,-0 1474.5,-0"/>
<text text-anchor="start" x="1482.5" y="-18" font-family="Helvetica,sans-Serif" font-size="10.00">parser.reflection.Reflection</text>
<text text-anchor="middle" x="1546" y="-7" font-family="Helvetica,sans-Serif" font-size="10.00">Helper.paramsEqual</text>
</a>
</g>
</g>
<!-- Node27&#45;&gt;Node29 -->
<g id="edge28" class="edge"><title>Node27&#45;&gt;Node29</title>
<path fill="none" stroke="midnightblue" d="M1426.65,-30.0292C1438.97,-28.4638 1451.88,-26.8249 1464.45,-25.2287"/>
<polygon fill="midnightblue" stroke="midnightblue" points="1464.96,-28.6919 1474.44,-23.96 1464.08,-21.7477 1464.96,-28.6919"/>
</g>
<!-- Node31&#45;&gt;Node30 -->
<g id="edge31" class="edge"><title>Node31&#45;&gt;Node30</title>
<path fill="none" stroke="midnightblue" d="M530.293,-183C546.026,-183 562.615,-183 578.458,-183"/>
<polygon fill="midnightblue" stroke="midnightblue" points="578.746,-186.5 588.746,-183 578.746,-179.5 578.746,-186.5"/>
</g>
</g>
</svg>
