<?xml version="1.0" encoding="UTF-8" standalone="no"?>
<!DOCTYPE svg PUBLIC "-//W3C//DTD SVG 1.1//EN"
 "http://www.w3.org/Graphics/SVG/1.1/DTD/svg11.dtd">
<!-- Generated by graphviz version 2.36.0 (20140111.2315)
 -->
<!-- Title: controller.Controller.createVisualCommands Pages: 1 -->
<!--zoomable 214 -->
<svg id="main" version="1.1" xmlns="http://www.w3.org/2000/svg" xmlns:xlink="http://www.w3.org/1999/xlink" xml:space="preserve" onload="init(evt)">
<style type="text/css"><![CDATA[
.edge:hover path { stroke: red; }
.edge:hover polygon { stroke: red; fill: red; }
]]></style>
<script type="text/javascript"><![CDATA[
var edges = document.getElementsByTagName('g');
if (edges && edges.length) {
  for (var i=0;i<edges.length;i++) {
    if (edges[i].id.substr(0,4)=='edge') {
      edges[i].setAttribute('class','edge');
    }
  }
}
]]></script>
        <defs>
                <circle id="rim" cx="0" cy="0" r="7"/>
                <circle id="rim2" cx="0" cy="0" r="3.5"/>
                <g id="zoomPlus">
                        <use xlink:href="#rim" fill="#404040">
                                <set attributeName="fill" to="#808080" begin="zoomplus.mouseover" end="zoomplus.mouseout"/>
                        </use>
                        <path d="M-4,0h8M0,-4v8" fill="none" stroke="white" stroke-width="1.5" pointer-events="none"/>
                </g>
                <g id="zoomMin">
                        <use xlink:href="#rim" fill="#404040">
                                <set attributeName="fill" to="#808080" begin="zoomminus.mouseover" end="zoomminus.mouseout"/>
                        </use>
                        <path d="M-4,0h8" fill="none" stroke="white" stroke-width="1.5" pointer-events="none"/>
                </g>
                <g id="dirArrow">
                        <path fill="none" stroke="white" stroke-width="1.5" d="M0,-3.0v7 M-2.5,-0.5L0,-3.0L2.5,-0.5"/>
                </g>
               <g id="resetDef">
                       <use xlink:href="#rim2" fill="#404040">
                               <set attributeName="fill" to="#808080" begin="reset.mouseover" end="reset.mouseout"/>
                       </use>
               </g>
        </defs>

<script type="text/javascript">
var viewWidth = 544;
var viewHeight = 214;
var sectionId = 'dynsection-25';
</script>
<script xlink:href="../../svgpan.js"/>
<svg id="graph" class="graph">
<g id="viewport">
<title>controller.Controller.createVisualCommands</title>
<polygon fill="white" stroke="none" points="-4,4 -4,-210 540,-210 540,4 -4,4"/>
<!-- Node1 -->
<g id="node1" class="node"><title>Node1</title>
<polygon fill="#bfbfbf" stroke="black" points="0.5,-83 0.5,-113 143.5,-113 143.5,-83 0.5,-83"/>
<text text-anchor="start" x="8.5" y="-101" font-family="Helvetica,sans-Serif" font-size="10.00">controller.Controller.create</text>
<text text-anchor="middle" x="72" y="-90" font-family="Helvetica,sans-Serif" font-size="10.00">VisualCommands</text>
</g>
<!-- Node2 -->
<g id="node2" class="node"><title>Node2</title>
<g id="a_node2"><a xlink:href="../../de/d84/classcontroller_1_1_workspace.html#a4b337514dd9c663a9d975cf23359860d" target="_top" xlink:title="controller.Workspace.add\lHistory">
<polygon fill="white" stroke="black" points="195,-176 195,-206 331,-206 331,-176 195,-176"/>
<text text-anchor="start" x="203" y="-194" font-family="Helvetica,sans-Serif" font-size="10.00">controller.Workspace.add</text>
<text text-anchor="middle" x="263" y="-183" font-family="Helvetica,sans-Serif" font-size="10.00">History</text>
</a>
</g>
</g>
<!-- Node1&#45;&gt;Node2 -->
<g id="edge1" class="edge"><title>Node1&#45;&gt;Node2</title>
<path fill="none" stroke="midnightblue" d="M92.968,-113.026C113.784,-128.116 147.805,-151.195 180,-166 184.986,-168.293 190.237,-170.444 195.573,-172.447"/>
<polygon fill="midnightblue" stroke="midnightblue" points="194.637,-175.828 205.232,-175.889 196.987,-169.235 194.637,-175.828"/>
</g>
<!-- Node3 -->
<g id="node3" class="node"><title>Node3</title>
<g id="a_node3"><a xlink:href="../../de/d84/classcontroller_1_1_workspace.html#a463927ff3ea61d412cbee3a3b0b9d74f" target="_top" xlink:title="controller.Workspace.get\lTurtleManager">
<polygon fill="white" stroke="black" points="196,-127 196,-157 330,-157 330,-127 196,-127"/>
<text text-anchor="start" x="204" y="-145" font-family="Helvetica,sans-Serif" font-size="10.00">controller.Workspace.get</text>
<text text-anchor="middle" x="263" y="-134" font-family="Helvetica,sans-Serif" font-size="10.00">TurtleManager</text>
</a>
</g>
</g>
<!-- Node1&#45;&gt;Node3 -->
<g id="edge2" class="edge"><title>Node1&#45;&gt;Node3</title>
<path fill="none" stroke="midnightblue" d="M137.514,-113.019C153.543,-116.751 170.856,-120.781 187.328,-124.616"/>
<polygon fill="midnightblue" stroke="midnightblue" points="186.922,-128.115 197.456,-126.974 188.51,-121.297 186.922,-128.115"/>
</g>
<!-- Node4 -->
<g id="node4" class="node"><title>Node4</title>
<g id="a_node4"><a xlink:href="../../d8/dff/classmodel_1_1_turtle_manager.html#ae661b1676bacbdfac66e971c950e8cf3" target="_top" xlink:title="model.TurtleManager.getTurtles">
<polygon fill="white" stroke="black" points="180,-88.5 180,-107.5 346,-107.5 346,-88.5 180,-88.5"/>
<text text-anchor="middle" x="263" y="-95.5" font-family="Helvetica,sans-Serif" font-size="10.00">model.TurtleManager.getTurtles</text>
</a>
</g>
</g>
<!-- Node1&#45;&gt;Node4 -->
<g id="edge3" class="edge"><title>Node1&#45;&gt;Node4</title>
<path fill="none" stroke="midnightblue" d="M143.645,-98C152.161,-98 160.953,-98 169.72,-98"/>
<polygon fill="midnightblue" stroke="midnightblue" points="169.982,-101.5 179.982,-98 169.982,-94.5001 169.982,-101.5"/>
</g>
<!-- Node5 -->
<g id="node5" class="node"><title>Node5</title>
<g id="a_node5"><a xlink:href="../../d9/df7/classcontroller_1_1_controller.html#a318978485f5c3bbf5a89f5dac0db71ae" target="_top" xlink:title="controller.Controller.get\lWorkspace">
<polygon fill="white" stroke="black" points="199,-39 199,-69 327,-69 327,-39 199,-39"/>
<text text-anchor="start" x="207" y="-57" font-family="Helvetica,sans-Serif" font-size="10.00">controller.Controller.get</text>
<text text-anchor="middle" x="263" y="-46" font-family="Helvetica,sans-Serif" font-size="10.00">Workspace</text>
</a>
</g>
</g>
<!-- Node1&#45;&gt;Node5 -->
<g id="edge4" class="edge"><title>Node1&#45;&gt;Node5</title>
<path fill="none" stroke="midnightblue" d="M137.514,-82.9808C154.052,-79.1307 171.957,-74.9625 188.894,-71.0195"/>
<polygon fill="midnightblue" stroke="midnightblue" points="189.79,-74.4044 198.736,-68.7281 188.203,-67.5867 189.79,-74.4044"/>
</g>
<!-- Node7 -->
<g id="node7" class="node"><title>Node7</title>
<g id="a_node7"><a xlink:href="../../de/d84/classcontroller_1_1_workspace.html#a06f94274c983b2edde00bcdc2b15f790" target="_top" xlink:title="controller.Workspace.update">
<polygon fill="white" stroke="black" points="187,-0.5 187,-19.5 339,-19.5 339,-0.5 187,-0.5"/>
<text text-anchor="middle" x="263" y="-7.5" font-family="Helvetica,sans-Serif" font-size="10.00">controller.Workspace.update</text>
</a>
</g>
</g>
<!-- Node1&#45;&gt;Node7 -->
<g id="edge6" class="edge"><title>Node1&#45;&gt;Node7</title>
<path fill="none" stroke="midnightblue" d="M91.9661,-82.8556C112.512,-67.1727 146.818,-43.0378 180,-29 185.918,-26.4966 192.221,-24.2926 198.604,-22.3591"/>
<polygon fill="midnightblue" stroke="midnightblue" points="199.972,-25.6104 208.655,-19.5391 198.081,-18.8707 199.972,-25.6104"/>
</g>
<!-- Node6 -->
<g id="node6" class="node"><title>Node6</title>
<g id="a_node6"><a xlink:href="../../dc/dbd/interfaceview_1_1_workspace_handler.html#ac88b6c9e5fb3ffa06ab3ef23b9ce2ae0" target="_top" xlink:title="view.WorkspaceHandler.get\lWorkspace">
<polygon fill="white" stroke="black" points="386,-39 386,-69 532,-69 532,-39 386,-39"/>
<text text-anchor="start" x="394" y="-57" font-family="Helvetica,sans-Serif" font-size="10.00">view.WorkspaceHandler.get</text>
<text text-anchor="middle" x="459" y="-46" font-family="Helvetica,sans-Serif" font-size="10.00">Workspace</text>
</a>
</g>
</g>
<!-- Node5&#45;&gt;Node6 -->
<g id="edge5" class="edge"><title>Node5&#45;&gt;Node6</title>
<path fill="none" stroke="midnightblue" d="M327.254,-54C342.729,-54 359.513,-54 375.734,-54"/>
<polygon fill="midnightblue" stroke="midnightblue" points="375.745,-57.5001 385.745,-54 375.745,-50.5001 375.745,-57.5001"/>
</g>
<!-- Node8 -->
<g id="node8" class="node"><title>Node8</title>
<g id="a_node8"><a xlink:href="../../d8/dff/classmodel_1_1_turtle_manager.html#a8679aef13c1e2b3d695b1467c2bb5e9f" target="_top" xlink:title="model.TurtleManager.update">
<polygon fill="white" stroke="black" points="382.5,-0.5 382.5,-19.5 535.5,-19.5 535.5,-0.5 382.5,-0.5"/>
<text text-anchor="middle" x="459" y="-7.5" font-family="Helvetica,sans-Serif" font-size="10.00">model.TurtleManager.update</text>
</a>
</g>
</g>
<!-- Node7&#45;&gt;Node8 -->
<g id="edge7" class="edge"><title>Node7&#45;&gt;Node8</title>
<path fill="none" stroke="midnightblue" d="M339.005,-10C349.863,-10 361.108,-10 372.158,-10"/>
<polygon fill="midnightblue" stroke="midnightblue" points="372.234,-13.5001 382.234,-10 372.234,-6.5001 372.234,-13.5001"/>
</g>
</g>
</svg>
        <g id="navigator" transform="translate(0 0)" fill="#404254">
                <rect fill="#f2f5e9" fill-opacity="0.5" stroke="#606060" stroke-width=".5" x="0" y="0" width="60" height="60"/>
                <use id="zoomplus" xlink:href="#zoomPlus" x="17" y="9" onmousedown="handleZoom(evt,'in')"/>
                <use id="zoomminus" xlink:href="#zoomMin" x="42" y="9" onmousedown="handleZoom(evt,'out')"/>
                <use id="reset" xlink:href="#resetDef" x="30" y="36" onmousedown="handleReset()"/>
                <g id="arrowUp" xlink:href="#dirArrow" transform="translate(30 24)" onmousedown="handlePan(0,-1)">
                  <use xlink:href="#rim" fill="#404040">
                        <set attributeName="fill" to="#808080" begin="arrowUp.mouseover" end="arrowUp.mouseout"/>
                  </use>
                  <path fill="none" stroke="white" stroke-width="1.5" d="M0,-3.0v7 M-2.5,-0.5L0,-3.0L2.5,-0.5"/>
                </g>
                <g id="arrowRight" xlink:href="#dirArrow" transform="rotate(90) translate(36 -43)" onmousedown="handlePan(1,0)">
                  <use xlink:href="#rim" fill="#404040">
                        <set attributeName="fill" to="#808080" begin="arrowRight.mouseover" end="arrowRight.mouseout"/>
                  </use>
                  <path fill="none" stroke="white" stroke-width="1.5" d="M0,-3.0v7 M-2.5,-0.5L0,-3.0L2.5,-0.5"/>
                </g>
                <g id="arrowDown" xlink:href="#dirArrow" transform="rotate(180) translate(-30 -48)" onmousedown="handlePan(0,1)">
                  <use xlink:href="#rim" fill="#404040">
                        <set attributeName="fill" to="#808080" begin="arrowDown.mouseover" end="arrowDown.mouseout"/>
                  </use>
                  <path fill="none" stroke="white" stroke-width="1.5" d="M0,-3.0v7 M-2.5,-0.5L0,-3.0L2.5,-0.5"/>
                </g>
                <g id="arrowLeft" xlink:href="#dirArrow" transform="rotate(270) translate(-36 17)" onmousedown="handlePan(-1,0)">
                  <use xlink:href="#rim" fill="#404040">
                        <set attributeName="fill" to="#808080" begin="arrowLeft.mouseover" end="arrowLeft.mouseout"/>
                  </use>
                  <path fill="none" stroke="white" stroke-width="1.5" d="M0,-3.0v7 M-2.5,-0.5L0,-3.0L2.5,-0.5"/>
                </g>
        </g>
        <svg viewBox="0 0 15 15" width="100%" height="30px" preserveAspectRatio="xMaxYMin meet">
         <g id="arrow_out" transform="scale(0.3 0.3)">
          <a xlink:href="classcontroller_1_1_controller_aaa03ac2d4ba85ce0aea59ded9a2f65b9_cgraph_org.svg" target="_base">
           <rect id="button" ry="5" rx="5" y="6" x="6" height="38" width="38"
                fill="#f2f5e9" fill-opacity="0.5" stroke="#606060" stroke-width="1.0"/>
           <path id="arrow"
             d="M 11.500037,31.436501 C 11.940474,20.09759 22.043105,11.32322 32.158766,21.979434 L 37.068811,17.246167 C 37.068811,17.246167 37.088388,32 37.088388,32 L 22.160133,31.978069 C 22.160133,31.978069 26.997745,27.140456 26.997745,27.140456 C 18.528582,18.264221 13.291696,25.230495 11.500037,31.436501 z"
             style="fill:#404040;"/>
          </a>
         </g>
        </svg>
</svg>
