<?xml version="1.0" encoding="UTF-8" standalone="no"?>
<!DOCTYPE svg PUBLIC "-//W3C//DTD SVG 1.1//EN"
 "http://www.w3.org/Graphics/SVG/1.1/DTD/svg11.dtd">
<!-- Generated by graphviz version 2.36.0 (20140111.2315)
 -->
<!-- Title: controller.Controller.createSettingMenu Pages: 1 -->
<!--zoomable 609 -->
<svg id="main" version="1.1" xmlns="http://www.w3.org/2000/svg" xmlns:xlink="http://www.w3.org/1999/xlink" xml:space="preserve" onload="init(evt)">
<style type="text/css"><![CDATA[
.edge:hover path { stroke: red; }
.edge:hover polygon { stroke: red; fill: red; }
]]></style>
<script type="text/javascript"><![CDATA[
var edges = document.getElementsByTagName('g');
if (edges && edges.length) {
  for (var i=0;i<edges.length;i++) {
    if (edges[i].id.substr(0,4)=='edge') {
      edges[i].setAttribute('class','edge');
    }
  }
}
]]></script>
        <defs>
                <circle id="rim" cx="0" cy="0" r="7"/>
                <circle id="rim2" cx="0" cy="0" r="3.5"/>
                <g id="zoomPlus">
                        <use xlink:href="#rim" fill="#404040">
                                <set attributeName="fill" to="#808080" begin="zoomplus.mouseover" end="zoomplus.mouseout"/>
                        </use>
                        <path d="M-4,0h8M0,-4v8" fill="none" stroke="white" stroke-width="1.5" pointer-events="none"/>
                </g>
                <g id="zoomMin">
                        <use xlink:href="#rim" fill="#404040">
                                <set attributeName="fill" to="#808080" begin="zoomminus.mouseover" end="zoomminus.mouseout"/>
                        </use>
                        <path d="M-4,0h8" fill="none" stroke="white" stroke-width="1.5" pointer-events="none"/>
                </g>
                <g id="dirArrow">
                        <path fill="none" stroke="white" stroke-width="1.5" d="M0,-3.0v7 M-2.5,-0.5L0,-3.0L2.5,-0.5"/>
                </g>
               <g id="resetDef">
                       <use xlink:href="#rim2" fill="#404040">
                               <set attributeName="fill" to="#808080" begin="reset.mouseover" end="reset.mouseout"/>
                       </use>
               </g>
        </defs>

<script type="text/javascript">
var viewWidth = 1498;
var viewHeight = 609;
var sectionId = 'dynsection-21';
</script>
<script xlink:href="../../svgpan.js"/>
<svg id="graph" class="graph">
<g id="viewport">
<title>controller.Controller.createSettingMenu</title>
<polygon fill="white" stroke="none" points="-4,4 -4,-605 1494,-605 1494,4 -4,4"/>
<!-- Node1 -->
<g id="node1" class="node"><title>Node1</title>
<polygon fill="#bfbfbf" stroke="black" points="0.5,-208 0.5,-238 143.5,-238 143.5,-208 0.5,-208"/>
<text text-anchor="start" x="8.5" y="-226" font-family="Helvetica,sans-Serif" font-size="10.00">controller.Controller.create</text>
<text text-anchor="middle" x="72" y="-215" font-family="Helvetica,sans-Serif" font-size="10.00">SettingMenu</text>
</g>
<!-- Node2 -->
<g id="node2" class="node"><title>Node2</title>
<g id="a_node2"><a xlink:href="../../de/d84/classcontroller_1_1_workspace.html#a6edc5179c7840bd8bdd91bb19ef7405b" target="_top" xlink:title="controller.Workspace.add\lTurtle">
<polygon fill="white" stroke="black" points="592,-522 592,-552 728,-552 728,-522 592,-522"/>
<text text-anchor="start" x="600" y="-540" font-family="Helvetica,sans-Serif" font-size="10.00">controller.Workspace.add</text>
<text text-anchor="middle" x="660" y="-529" font-family="Helvetica,sans-Serif" font-size="10.00">Turtle</text>
</a>
</g>
</g>
<!-- Node1&#45;&gt;Node2 -->
<g id="edge1" class="edge"><title>Node1&#45;&gt;Node2</title>
<path fill="none" stroke="midnightblue" d="M79.2823,-238.355C93.0671,-270.355 128.865,-344.866 180,-389 295.897,-489.03 478.659,-521.47 581.69,-531.978"/>
<polygon fill="midnightblue" stroke="midnightblue" points="581.42,-535.468 591.712,-532.957 582.1,-528.501 581.42,-535.468"/>
</g>
<!-- Node10 -->
<g id="node10" class="node"><title>Node10</title>
<g id="a_node10"><a xlink:href="../../d9/df7/classcontroller_1_1_controller.html#a17d9d0474952b983548cde23a4e27134" target="_top" xlink:title="controller.Controller.create\lTellMenuListener">
<polygon fill="white" stroke="black" points="187.5,-312 187.5,-342 330.5,-342 330.5,-312 187.5,-312"/>
<text text-anchor="start" x="195.5" y="-330" font-family="Helvetica,sans-Serif" font-size="10.00">controller.Controller.create</text>
<text text-anchor="middle" x="259" y="-319" font-family="Helvetica,sans-Serif" font-size="10.00">TellMenuListener</text>
</a>
</g>
</g>
<!-- Node1&#45;&gt;Node10 -->
<g id="edge9" class="edge"><title>Node1&#45;&gt;Node10</title>
<path fill="none" stroke="midnightblue" d="M91.8357,-238.097C112.548,-254.192 147.25,-279.694 180,-297 187.56,-300.995 195.774,-304.741 203.939,-308.14"/>
<polygon fill="midnightblue" stroke="midnightblue" points="202.876,-311.485 213.46,-311.966 205.486,-304.989 202.876,-311.485"/>
</g>
<!-- Node11 -->
<g id="node11" class="node"><title>Node11</title>
<g id="a_node11"><a xlink:href="../../d9/df7/classcontroller_1_1_controller.html#a318978485f5c3bbf5a89f5dac0db71ae" target="_top" xlink:title="controller.Controller.get\lWorkspace">
<polygon fill="white" stroke="black" points="596,-375 596,-405 724,-405 724,-375 596,-375"/>
<text text-anchor="start" x="604" y="-393" font-family="Helvetica,sans-Serif" font-size="10.00">controller.Controller.get</text>
<text text-anchor="middle" x="660" y="-382" font-family="Helvetica,sans-Serif" font-size="10.00">Workspace</text>
</a>
</g>
</g>
<!-- Node1&#45;&gt;Node11 -->
<g id="edge30" class="edge"><title>Node1&#45;&gt;Node11</title>
<path fill="none" stroke="midnightblue" d="M80.8218,-238.4C95.8365,-266.184 131.554,-324.29 180,-351 308.61,-421.909 486.816,-413.744 585.613,-401.722"/>
<polygon fill="midnightblue" stroke="midnightblue" points="586.316,-405.161 595.798,-400.434 585.438,-398.216 586.316,-405.161"/>
</g>
<!-- Node15 -->
<g id="node15" class="node"><title>Node15</title>
<g id="a_node15"><a xlink:href="../../de/d84/classcontroller_1_1_workspace.html#a463927ff3ea61d412cbee3a3b0b9d74f" target="_top" xlink:title="controller.Workspace.get\lTurtleManager">
<polygon fill="white" stroke="black" points="390,-263 390,-293 524,-293 524,-263 390,-263"/>
<text text-anchor="start" x="398" y="-281" font-family="Helvetica,sans-Serif" font-size="10.00">controller.Workspace.get</text>
<text text-anchor="middle" x="457" y="-270" font-family="Helvetica,sans-Serif" font-size="10.00">TurtleManager</text>
</a>
</g>
</g>
<!-- Node1&#45;&gt;Node15 -->
<g id="edge28" class="edge"><title>Node1&#45;&gt;Node15</title>
<path fill="none" stroke="midnightblue" d="M143.717,-236.031C155.806,-238.123 168.252,-240.192 180,-242 247.33,-252.363 324.203,-262.23 379.691,-269.004"/>
<polygon fill="midnightblue" stroke="midnightblue" points="379.446,-272.5 389.795,-270.233 380.291,-265.551 379.446,-272.5"/>
</g>
<!-- Node16 -->
<g id="node16" class="node"><title>Node16</title>
<g id="a_node16"><a xlink:href="../../d8/dff/classmodel_1_1_turtle_manager.html#ae661b1676bacbdfac66e971c950e8cf3" target="_top" xlink:title="model.TurtleManager.getTurtles">
<polygon fill="white" stroke="black" points="374,-224.5 374,-243.5 540,-243.5 540,-224.5 374,-224.5"/>
<text text-anchor="middle" x="457" y="-231.5" font-family="Helvetica,sans-Serif" font-size="10.00">model.TurtleManager.getTurtles</text>
</a>
</g>
</g>
<!-- Node1&#45;&gt;Node16 -->
<g id="edge29" class="edge"><title>Node1&#45;&gt;Node16</title>
<path fill="none" stroke="midnightblue" d="M143.694,-225.03C205.577,-226.808 295.906,-229.402 363.518,-231.344"/>
<polygon fill="midnightblue" stroke="midnightblue" points="363.648,-234.849 373.744,-231.638 363.849,-227.852 363.648,-234.849"/>
</g>
<!-- Node23 -->
<g id="node23" class="node"><title>Node23</title>
<g id="a_node23"><a xlink:href="../../de/d84/classcontroller_1_1_workspace.html#ab065682c4b66c8e1fb75a534646db637" target="_top" xlink:title="controller.Workspace.get\lCanvas">
<polygon fill="white" stroke="black" points="192,-186 192,-216 326,-216 326,-186 192,-186"/>
<text text-anchor="start" x="200" y="-204" font-family="Helvetica,sans-Serif" font-size="10.00">controller.Workspace.get</text>
<text text-anchor="middle" x="259" y="-193" font-family="Helvetica,sans-Serif" font-size="10.00">Canvas</text>
</a>
</g>
</g>
<!-- Node1&#45;&gt;Node23 -->
<g id="edge26" class="edge"><title>Node1&#45;&gt;Node23</title>
<path fill="none" stroke="midnightblue" d="M143.732,-214.589C156.208,-213.105 169.244,-211.555 181.86,-210.054"/>
<polygon fill="midnightblue" stroke="midnightblue" points="182.353,-213.521 191.869,-208.864 181.526,-206.57 182.353,-213.521"/>
</g>
<!-- Node24 -->
<g id="node24" class="node"><title>Node24</title>
<g id="a_node24"><a xlink:href="../../de/d84/classcontroller_1_1_workspace.html#a4875aba1e67d340f7acb043392bc4c6f" target="_top" xlink:title="controller.Workspace.get\lColors">
<polygon fill="white" stroke="black" points="192,-137 192,-167 326,-167 326,-137 192,-137"/>
<text text-anchor="start" x="200" y="-155" font-family="Helvetica,sans-Serif" font-size="10.00">controller.Workspace.get</text>
<text text-anchor="middle" x="259" y="-144" font-family="Helvetica,sans-Serif" font-size="10.00">Colors</text>
</a>
</g>
</g>
<!-- Node1&#45;&gt;Node24 -->
<g id="edge27" class="edge"><title>Node1&#45;&gt;Node24</title>
<path fill="none" stroke="midnightblue" d="M105.924,-207.875C126.916,-198.474 154.813,-186.426 180,-177 186.031,-174.743 192.368,-172.503 198.716,-170.343"/>
<polygon fill="midnightblue" stroke="midnightblue" points="200.278,-173.512 208.655,-167.026 198.061,-166.872 200.278,-173.512"/>
</g>
<!-- Node25 -->
<g id="node25" class="node"><title>Node25</title>
<g id="a_node25"><a xlink:href="../../d8/ddd/classview_1_1_canvas.html#ab816c40d65c4c6cb4bfc76bae165d1b7" target="_top" xlink:title="view.Canvas.setBackground\lImage">
<polygon fill="white" stroke="black" points="184.5,-88 184.5,-118 333.5,-118 333.5,-88 184.5,-88"/>
<text text-anchor="start" x="192.5" y="-106" font-family="Helvetica,sans-Serif" font-size="10.00">view.Canvas.setBackground</text>
<text text-anchor="middle" x="259" y="-95" font-family="Helvetica,sans-Serif" font-size="10.00">Image</text>
</a>
</g>
</g>
<!-- Node1&#45;&gt;Node25 -->
<g id="edge31" class="edge"><title>Node1&#45;&gt;Node25</title>
<path fill="none" stroke="midnightblue" d="M86.3669,-207.664C105.274,-186.854 141.801,-149.776 180,-128 183.857,-125.801 187.933,-123.767 192.117,-121.89"/>
<polygon fill="midnightblue" stroke="midnightblue" points="193.517,-125.099 201.408,-118.029 190.831,-118.635 193.517,-125.099"/>
</g>
<!-- Node26 -->
<g id="node26" class="node"><title>Node26</title>
<g id="a_node26"><a xlink:href="../../d6/dda/classmodel_1_1_color_manager.html#a193623eeb052934d4e36edfede9b804b" target="_top" xlink:title="model.ColorManager.setColor">
<polygon fill="white" stroke="black" points="180,-49.5 180,-68.5 338,-68.5 338,-49.5 180,-49.5"/>
<text text-anchor="middle" x="259" y="-56.5" font-family="Helvetica,sans-Serif" font-size="10.00">model.ColorManager.setColor</text>
</a>
</g>
</g>
<!-- Node1&#45;&gt;Node26 -->
<g id="edge32" class="edge"><title>Node1&#45;&gt;Node26</title>
<path fill="none" stroke="midnightblue" d="M79.6784,-207.981C93.71,-178.234 129.205,-111.79 180,-78 183.082,-75.9495 186.365,-74.1199 189.773,-72.4876"/>
<polygon fill="midnightblue" stroke="midnightblue" points="191.162,-75.7004 199.035,-68.6108 188.459,-69.2432 191.162,-75.7004"/>
</g>
<!-- Node27 -->
<g id="node27" class="node"><title>Node27</title>
<g id="a_node27"><a xlink:href="../../de/d84/classcontroller_1_1_workspace.html#a6b1f99115388e9de9dc779e30ed16041" target="_top" xlink:title="controller.Workspace.show\lError">
<polygon fill="white" stroke="black" points="188,-0 188,-30 330,-30 330,-0 188,-0"/>
<text text-anchor="start" x="196" y="-18" font-family="Helvetica,sans-Serif" font-size="10.00">controller.Workspace.show</text>
<text text-anchor="middle" x="259" y="-7" font-family="Helvetica,sans-Serif" font-size="10.00">Error</text>
</a>
</g>
</g>
<!-- Node1&#45;&gt;Node27 -->
<g id="edge33" class="edge"><title>Node1&#45;&gt;Node27</title>
<path fill="none" stroke="midnightblue" d="M77.6176,-207.958C89.0766,-173.13 122.148,-86.3954 180,-40 182.087,-38.3263 184.288,-36.7636 186.576,-35.3047"/>
<polygon fill="midnightblue" stroke="midnightblue" points="188.742,-38.1045 195.77,-30.176 185.331,-31.9914 188.742,-38.1045"/>
</g>
<!-- Node3 -->
<g id="node3" class="node"><title>Node3</title>
<g id="a_node3"><a xlink:href="../../d8/dff/classmodel_1_1_turtle_manager.html#a3d0172590b0214793dbd3997c56f7759" target="_top" xlink:title="model.TurtleManager.addNew">
<polygon fill="white" stroke="black" points="986,-554.5 986,-573.5 1144,-573.5 1144,-554.5 986,-554.5"/>
<text text-anchor="middle" x="1065" y="-561.5" font-family="Helvetica,sans-Serif" font-size="10.00">model.TurtleManager.addNew</text>
</a>
</g>
</g>
<!-- Node2&#45;&gt;Node3 -->
<g id="edge2" class="edge"><title>Node2&#45;&gt;Node3</title>
<path fill="none" stroke="midnightblue" d="M728.453,-541.519C796.293,-546.064 901.232,-553.095 975.673,-558.082"/>
<polygon fill="midnightblue" stroke="midnightblue" points="975.756,-561.596 985.967,-558.772 976.224,-554.611 975.756,-561.596"/>
</g>
<!-- Node8 -->
<g id="node8" class="node"><title>Node8</title>
<g id="a_node8"><a xlink:href="../../de/d84/classcontroller_1_1_workspace.html#a06f94274c983b2edde00bcdc2b15f790" target="_top" xlink:title="controller.Workspace.update">
<polygon fill="white" stroke="black" points="789,-473.5 789,-492.5 941,-492.5 941,-473.5 789,-473.5"/>
<text text-anchor="middle" x="865" y="-480.5" font-family="Helvetica,sans-Serif" font-size="10.00">controller.Workspace.update</text>
</a>
</g>
</g>
<!-- Node2&#45;&gt;Node8 -->
<g id="edge7" class="edge"><title>Node2&#45;&gt;Node8</title>
<path fill="none" stroke="midnightblue" d="M711.115,-521.915C737.375,-514.08 766.765,-505.439 780,-502 789.551,-499.518 799.76,-497.053 809.654,-494.761"/>
<polygon fill="midnightblue" stroke="midnightblue" points="810.437,-498.172 819.406,-492.532 808.878,-491.348 810.437,-498.172"/>
</g>
<!-- Node4 -->
<g id="node4" class="node"><title>Node4</title>
<g id="a_node4"><a xlink:href="../../d8/dff/classmodel_1_1_turtle_manager.html#a9831377a60a443edcedede2e809e36f4" target="_top" xlink:title="model.TurtleManager.create\lTurtle">
<polygon fill="white" stroke="black" points="1180,-571 1180,-601 1330,-601 1330,-571 1180,-571"/>
<text text-anchor="start" x="1188" y="-589" font-family="Helvetica,sans-Serif" font-size="10.00">model.TurtleManager.create</text>
<text text-anchor="middle" x="1255" y="-578" font-family="Helvetica,sans-Serif" font-size="10.00">Turtle</text>
</a>
</g>
</g>
<!-- Node3&#45;&gt;Node4 -->
<g id="edge3" class="edge"><title>Node3&#45;&gt;Node4</title>
<path fill="none" stroke="midnightblue" d="M1144.1,-573.139C1152.58,-574.132 1161.24,-575.145 1169.79,-576.146"/>
<polygon fill="midnightblue" stroke="midnightblue" points="1169.43,-579.627 1179.77,-577.313 1170.24,-572.674 1169.43,-579.627"/>
</g>
<!-- Node6 -->
<g id="node6" class="node"><title>Node6</title>
<g id="a_node6"><a xlink:href="../../d6/d34/classmodel_1_1_turtle.html#a65a22c7a1a7abfbc46a6f339479e7646" target="_top" xlink:title="model.Turtle.setStroke">
<polygon fill="white" stroke="black" points="1192.5,-532.5 1192.5,-551.5 1317.5,-551.5 1317.5,-532.5 1192.5,-532.5"/>
<text text-anchor="middle" x="1255" y="-539.5" font-family="Helvetica,sans-Serif" font-size="10.00">model.Turtle.setStroke</text>
</a>
</g>
</g>
<!-- Node3&#45;&gt;Node6 -->
<g id="edge5" class="edge"><title>Node3&#45;&gt;Node6</title>
<path fill="none" stroke="midnightblue" d="M1144.1,-554.861C1156.83,-553.371 1169.97,-551.833 1182.54,-550.363"/>
<polygon fill="midnightblue" stroke="midnightblue" points="1182.95,-553.838 1192.47,-549.2 1182.14,-546.886 1182.95,-553.838"/>
</g>
<!-- Node5 -->
<g id="node5" class="node"><title>Node5</title>
<g id="a_node5"><a xlink:href="../../d6/d34/classmodel_1_1_turtle.html#a27ce4fa61b6e292b1cfff08d511e7fc4" target="_top" xlink:title="model.Turtle.setImage">
<polygon fill="white" stroke="black" points="1366.5,-576.5 1366.5,-595.5 1489.5,-595.5 1489.5,-576.5 1366.5,-576.5"/>
<text text-anchor="middle" x="1428" y="-583.5" font-family="Helvetica,sans-Serif" font-size="10.00">model.Turtle.setImage</text>
</a>
</g>
</g>
<!-- Node4&#45;&gt;Node5 -->
<g id="edge4" class="edge"><title>Node4&#45;&gt;Node5</title>
<path fill="none" stroke="midnightblue" d="M1330.01,-586C1338.7,-586 1347.56,-586 1356.2,-586"/>
<polygon fill="midnightblue" stroke="midnightblue" points="1356.24,-589.5 1366.24,-586 1356.24,-582.5 1356.24,-589.5"/>
</g>
<!-- Node7 -->
<g id="node7" class="node"><title>Node7</title>
<g id="a_node7"><a xlink:href="../../de/ded/classmodel_1_1_pen.html#a00c08e5bfc9d04986e0ff7ae4ceae10b" target="_top" xlink:title="model.Pen.setStroke">
<polygon fill="white" stroke="black" points="1369.5,-532.5 1369.5,-551.5 1486.5,-551.5 1486.5,-532.5 1369.5,-532.5"/>
<text text-anchor="middle" x="1428" y="-539.5" font-family="Helvetica,sans-Serif" font-size="10.00">model.Pen.setStroke</text>
</a>
</g>
</g>
<!-- Node6&#45;&gt;Node7 -->
<g id="edge6" class="edge"><title>Node6&#45;&gt;Node7</title>
<path fill="none" stroke="midnightblue" d="M1317.73,-542C1331.15,-542 1345.42,-542 1359.06,-542"/>
<polygon fill="midnightblue" stroke="midnightblue" points="1359.35,-545.5 1369.35,-542 1359.35,-538.5 1359.35,-545.5"/>
</g>
<!-- Node9 -->
<g id="node9" class="node"><title>Node9</title>
<g id="a_node9"><a xlink:href="../../d8/dff/classmodel_1_1_turtle_manager.html#a8679aef13c1e2b3d695b1467c2bb5e9f" target="_top" xlink:title="model.TurtleManager.update">
<polygon fill="white" stroke="black" points="988.5,-466.5 988.5,-485.5 1141.5,-485.5 1141.5,-466.5 988.5,-466.5"/>
<text text-anchor="middle" x="1065" y="-473.5" font-family="Helvetica,sans-Serif" font-size="10.00">model.TurtleManager.update</text>
</a>
</g>
</g>
<!-- Node8&#45;&gt;Node9 -->
<g id="edge8" class="edge"><title>Node8&#45;&gt;Node9</title>
<path fill="none" stroke="midnightblue" d="M941.138,-480.344C953.189,-479.918 965.741,-479.474 978.022,-479.04"/>
<polygon fill="midnightblue" stroke="midnightblue" points="978.387,-482.529 988.257,-478.678 978.139,-475.533 978.387,-482.529"/>
</g>
<!-- Node10&#45;&gt;Node11 -->
<g id="edge10" class="edge"><title>Node10&#45;&gt;Node11</title>
<path fill="none" stroke="midnightblue" d="M327.361,-342.014C342.655,-345.191 358.855,-348.373 374,-351 445.717,-363.44 528.152,-374.356 585.854,-381.452"/>
<polygon fill="midnightblue" stroke="midnightblue" points="585.622,-384.949 595.973,-382.688 586.471,-378.001 585.622,-384.949"/>
</g>
<!-- Node13 -->
<g id="node13" class="node"><title>Node13</title>
<g id="a_node13"><a xlink:href="../../de/d84/classcontroller_1_1_workspace.html#a376960fdadb99029dd6585c07f3a33c0" target="_top" xlink:title="controller.Workspace.get\lAllTurtles">
<polygon fill="white" stroke="black" points="390,-312 390,-342 524,-342 524,-312 390,-312"/>
<text text-anchor="start" x="398" y="-330" font-family="Helvetica,sans-Serif" font-size="10.00">controller.Workspace.get</text>
<text text-anchor="middle" x="457" y="-319" font-family="Helvetica,sans-Serif" font-size="10.00">AllTurtles</text>
</a>
</g>
</g>
<!-- Node10&#45;&gt;Node13 -->
<g id="edge12" class="edge"><title>Node10&#45;&gt;Node13</title>
<path fill="none" stroke="midnightblue" d="M330.76,-327C346.592,-327 363.453,-327 379.504,-327"/>
<polygon fill="midnightblue" stroke="midnightblue" points="379.917,-330.5 389.917,-327 379.917,-323.5 379.917,-330.5"/>
</g>
<!-- Node10&#45;&gt;Node15 -->
<g id="edge14" class="edge"><title>Node10&#45;&gt;Node15</title>
<path fill="none" stroke="midnightblue" d="M320.138,-311.965C341.021,-306.745 364.615,-300.846 386.21,-295.447"/>
<polygon fill="midnightblue" stroke="midnightblue" points="387.123,-298.827 395.975,-293.006 385.425,-292.036 387.123,-298.827"/>
</g>
<!-- Node10&#45;&gt;Node16 -->
<g id="edge15" class="edge"><title>Node10&#45;&gt;Node16</title>
<path fill="none" stroke="midnightblue" d="M279.064,-311.968C300.848,-295.487 338.134,-269.35 374,-254 380.761,-251.106 388.023,-248.579 395.329,-246.385"/>
<polygon fill="midnightblue" stroke="midnightblue" points="396.592,-249.665 405.276,-243.596 394.703,-242.925 396.592,-249.665"/>
</g>
<!-- Node17 -->
<g id="node17" class="node"><title>Node17</title>
<g id="a_node17"><a xlink:href="../../d9/df7/classcontroller_1_1_controller.html#acd242cba05fd983be695439ef2186966" target="_top" xlink:title="controller.Controller.create\lCheckBoxItemListener">
<polygon fill="white" stroke="black" points="385.5,-438 385.5,-468 528.5,-468 528.5,-438 385.5,-438"/>
<text text-anchor="start" x="393.5" y="-456" font-family="Helvetica,sans-Serif" font-size="10.00">controller.Controller.create</text>
<text text-anchor="middle" x="457" y="-445" font-family="Helvetica,sans-Serif" font-size="10.00">CheckBoxItemListener</text>
</a>
</g>
</g>
<!-- Node10&#45;&gt;Node17 -->
<g id="edge16" class="edge"><title>Node10&#45;&gt;Node17</title>
<path fill="none" stroke="midnightblue" d="M283.642,-342.199C318.76,-364.774 384.782,-407.217 424.133,-432.514"/>
<polygon fill="midnightblue" stroke="midnightblue" points="422.275,-435.48 432.579,-437.944 426.06,-429.592 422.275,-435.48"/>
</g>
<!-- Node12 -->
<g id="node12" class="node"><title>Node12</title>
<g id="a_node12"><a xlink:href="../../dc/dbd/interfaceview_1_1_workspace_handler.html#ac88b6c9e5fb3ffa06ab3ef23b9ce2ae0" target="_top" xlink:title="view.WorkspaceHandler.get\lWorkspace">
<polygon fill="white" stroke="black" points="792,-375 792,-405 938,-405 938,-375 792,-375"/>
<text text-anchor="start" x="800" y="-393" font-family="Helvetica,sans-Serif" font-size="10.00">view.WorkspaceHandler.get</text>
<text text-anchor="middle" x="865" y="-382" font-family="Helvetica,sans-Serif" font-size="10.00">Workspace</text>
</a>
</g>
</g>
<!-- Node11&#45;&gt;Node12 -->
<g id="edge11" class="edge"><title>Node11&#45;&gt;Node12</title>
<path fill="none" stroke="midnightblue" d="M724.118,-390C742.271,-390 762.345,-390 781.485,-390"/>
<polygon fill="midnightblue" stroke="midnightblue" points="781.697,-393.5 791.697,-390 781.697,-386.5 781.697,-393.5"/>
</g>
<!-- Node14 -->
<g id="node14" class="node"><title>Node14</title>
<g id="a_node14"><a xlink:href="../../d8/dff/classmodel_1_1_turtle_manager.html#a5d4d01dd0d2fb3c5142614a74dee11af" target="_top" xlink:title="model.TurtleManager.getAll\lTurtles">
<polygon fill="white" stroke="black" points="587,-312 587,-342 733,-342 733,-312 587,-312"/>
<text text-anchor="start" x="595" y="-330" font-family="Helvetica,sans-Serif" font-size="10.00">model.TurtleManager.getAll</text>
<text text-anchor="middle" x="660" y="-319" font-family="Helvetica,sans-Serif" font-size="10.00">Turtles</text>
</a>
</g>
</g>
<!-- Node13&#45;&gt;Node14 -->
<g id="edge13" class="edge"><title>Node13&#45;&gt;Node14</title>
<path fill="none" stroke="midnightblue" d="M524.093,-327C540.928,-327 559.227,-327 576.759,-327"/>
<polygon fill="midnightblue" stroke="midnightblue" points="576.976,-330.5 586.976,-327 576.975,-323.5 576.976,-330.5"/>
</g>
<!-- Node17&#45;&gt;Node11 -->
<g id="edge25" class="edge"><title>Node17&#45;&gt;Node11</title>
<path fill="none" stroke="midnightblue" d="M503.887,-437.999C525.702,-430.925 552.165,-422.427 576,-415 583.375,-412.702 591.129,-410.321 598.814,-407.982"/>
<polygon fill="midnightblue" stroke="midnightblue" points="599.923,-411.303 608.477,-405.051 597.892,-404.604 599.923,-411.303"/>
</g>
<!-- Node18 -->
<g id="node18" class="node"><title>Node18</title>
<g id="a_node18"><a xlink:href="../../de/d84/classcontroller_1_1_workspace.html#abceb71fe227a560303f42bb77b0a1113" target="_top" xlink:title="controller.Workspace.activate\lTurtle">
<polygon fill="white" stroke="black" points="582,-473 582,-503 738,-503 738,-473 582,-473"/>
<text text-anchor="start" x="590" y="-491" font-family="Helvetica,sans-Serif" font-size="10.00">controller.Workspace.activate</text>
<text text-anchor="middle" x="660" y="-480" font-family="Helvetica,sans-Serif" font-size="10.00">Turtle</text>
</a>
</g>
</g>
<!-- Node17&#45;&gt;Node18 -->
<g id="edge17" class="edge"><title>Node17&#45;&gt;Node18</title>
<path fill="none" stroke="midnightblue" d="M528.582,-465.29C542.552,-467.723 557.371,-470.303 571.816,-472.819"/>
<polygon fill="midnightblue" stroke="midnightblue" points="571.29,-476.28 581.742,-474.547 572.49,-469.383 571.29,-476.28"/>
</g>
<!-- Node21 -->
<g id="node21" class="node"><title>Node21</title>
<g id="a_node21"><a xlink:href="../../de/d84/classcontroller_1_1_workspace.html#a497dad2e57c3d43cd971274660863e6c" target="_top" xlink:title="controller.Workspace.deactivate\lTurtle">
<polygon fill="white" stroke="black" points="576,-424 576,-454 744,-454 744,-424 576,-424"/>
<text text-anchor="start" x="584" y="-442" font-family="Helvetica,sans-Serif" font-size="10.00">controller.Workspace.deactivate</text>
<text text-anchor="middle" x="660" y="-431" font-family="Helvetica,sans-Serif" font-size="10.00">Turtle</text>
</a>
</g>
</g>
<!-- Node17&#45;&gt;Node21 -->
<g id="edge22" class="edge"><title>Node17&#45;&gt;Node21</title>
<path fill="none" stroke="midnightblue" d="M528.582,-448.084C540.632,-447.245 553.313,-446.361 565.841,-445.489"/>
<polygon fill="midnightblue" stroke="midnightblue" points="566.108,-448.979 575.841,-444.792 565.622,-441.996 566.108,-448.979"/>
</g>
<!-- Node18&#45;&gt;Node8 -->
<g id="edge21" class="edge"><title>Node18&#45;&gt;Node8</title>
<path fill="none" stroke="midnightblue" d="M738.035,-486.103C751.263,-485.777 765.081,-485.436 778.515,-485.106"/>
<polygon fill="midnightblue" stroke="midnightblue" points="778.786,-488.6 788.697,-484.855 778.613,-481.602 778.786,-488.6"/>
</g>
<!-- Node19 -->
<g id="node19" class="node"><title>Node19</title>
<g id="a_node19"><a xlink:href="../../d8/dff/classmodel_1_1_turtle_manager.html#a1c46b383a49e06a2436ad084bf7cd5aa" target="_top" xlink:title="model.TurtleManager.activate">
<polygon fill="white" stroke="black" points="786,-511.5 786,-530.5 944,-530.5 944,-511.5 786,-511.5"/>
<text text-anchor="middle" x="865" y="-518.5" font-family="Helvetica,sans-Serif" font-size="10.00">model.TurtleManager.activate</text>
</a>
</g>
</g>
<!-- Node18&#45;&gt;Node19 -->
<g id="edge18" class="edge"><title>Node18&#45;&gt;Node19</title>
<path fill="none" stroke="midnightblue" d="M738.035,-500.523C756.868,-503.584 776.895,-506.84 795.309,-509.833"/>
<polygon fill="midnightblue" stroke="midnightblue" points="794.923,-513.317 805.355,-511.467 796.046,-506.407 794.923,-513.317"/>
</g>
<!-- Node19&#45;&gt;Node3 -->
<g id="edge19" class="edge"><title>Node19&#45;&gt;Node3</title>
<path fill="none" stroke="midnightblue" d="M909.943,-530.543C939.55,-536.973 978.791,-545.495 1010.26,-552.329"/>
<polygon fill="midnightblue" stroke="midnightblue" points="1009.67,-555.782 1020.18,-554.484 1011.15,-548.941 1009.67,-555.782"/>
</g>
<!-- Node20 -->
<g id="node20" class="node"><title>Node20</title>
<g id="a_node20"><a xlink:href="../../d8/dff/classmodel_1_1_turtle_manager.html#a2c8eed018128d3a0be175415b36445d9" target="_top" xlink:title="model.TurtleManager.activate\lTurtle">
<polygon fill="white" stroke="black" points="986,-505 986,-535 1144,-535 1144,-505 986,-505"/>
<text text-anchor="start" x="994" y="-523" font-family="Helvetica,sans-Serif" font-size="10.00">model.TurtleManager.activate</text>
<text text-anchor="middle" x="1065" y="-512" font-family="Helvetica,sans-Serif" font-size="10.00">Turtle</text>
</a>
</g>
</g>
<!-- Node19&#45;&gt;Node20 -->
<g id="edge20" class="edge"><title>Node19&#45;&gt;Node20</title>
<path fill="none" stroke="midnightblue" d="M944.255,-520.605C954.658,-520.552 965.381,-520.498 975.937,-520.445"/>
<polygon fill="midnightblue" stroke="midnightblue" points="976.007,-523.945 985.989,-520.394 975.972,-516.945 976.007,-523.945"/>
</g>
<!-- Node21&#45;&gt;Node8 -->
<g id="edge24" class="edge"><title>Node21&#45;&gt;Node8</title>
<path fill="none" stroke="midnightblue" d="M730.293,-454.019C756.439,-459.686 785.766,-466.043 810.277,-471.356"/>
<polygon fill="midnightblue" stroke="midnightblue" points="809.599,-474.79 820.113,-473.488 811.082,-467.949 809.599,-474.79"/>
</g>
<!-- Node22 -->
<g id="node22" class="node"><title>Node22</title>
<g id="a_node22"><a xlink:href="../../d8/dff/classmodel_1_1_turtle_manager.html#a9d3fda35812c5961b645ebcc5cf0c77a" target="_top" xlink:title="model.TurtleManager.deactivate\lTurtle">
<polygon fill="white" stroke="black" points="780,-424 780,-454 950,-454 950,-424 780,-424"/>
<text text-anchor="start" x="788" y="-442" font-family="Helvetica,sans-Serif" font-size="10.00">model.TurtleManager.deactivate</text>
<text text-anchor="middle" x="865" y="-431" font-family="Helvetica,sans-Serif" font-size="10.00">Turtle</text>
</a>
</g>
</g>
<!-- Node21&#45;&gt;Node22 -->
<g id="edge23" class="edge"><title>Node21&#45;&gt;Node22</title>
<path fill="none" stroke="midnightblue" d="M744.154,-439C752.653,-439 761.33,-439 769.936,-439"/>
<polygon fill="midnightblue" stroke="midnightblue" points="769.99,-442.5 779.99,-439 769.99,-435.5 769.99,-442.5"/>
</g>
</g>
</svg>
        <g id="navigator" transform="translate(0 0)" fill="#404254">
                <rect fill="#f2f5e9" fill-opacity="0.5" stroke="#606060" stroke-width=".5" x="0" y="0" width="60" height="60"/>
                <use id="zoomplus" xlink:href="#zoomPlus" x="17" y="9" onmousedown="handleZoom(evt,'in')"/>
                <use id="zoomminus" xlink:href="#zoomMin" x="42" y="9" onmousedown="handleZoom(evt,'out')"/>
                <use id="reset" xlink:href="#resetDef" x="30" y="36" onmousedown="handleReset()"/>
                <g id="arrowUp" xlink:href="#dirArrow" transform="translate(30 24)" onmousedown="handlePan(0,-1)">
                  <use xlink:href="#rim" fill="#404040">
                        <set attributeName="fill" to="#808080" begin="arrowUp.mouseover" end="arrowUp.mouseout"/>
                  </use>
                  <path fill="none" stroke="white" stroke-width="1.5" d="M0,-3.0v7 M-2.5,-0.5L0,-3.0L2.5,-0.5"/>
                </g>
                <g id="arrowRight" xlink:href="#dirArrow" transform="rotate(90) translate(36 -43)" onmousedown="handlePan(1,0)">
                  <use xlink:href="#rim" fill="#404040">
                        <set attributeName="fill" to="#808080" begin="arrowRight.mouseover" end="arrowRight.mouseout"/>
                  </use>
                  <path fill="none" stroke="white" stroke-width="1.5" d="M0,-3.0v7 M-2.5,-0.5L0,-3.0L2.5,-0.5"/>
                </g>
                <g id="arrowDown" xlink:href="#dirArrow" transform="rotate(180) translate(-30 -48)" onmousedown="handlePan(0,1)">
                  <use xlink:href="#rim" fill="#404040">
                        <set attributeName="fill" to="#808080" begin="arrowDown.mouseover" end="arrowDown.mouseout"/>
                  </use>
                  <path fill="none" stroke="white" stroke-width="1.5" d="M0,-3.0v7 M-2.5,-0.5L0,-3.0L2.5,-0.5"/>
                </g>
                <g id="arrowLeft" xlink:href="#dirArrow" transform="rotate(270) translate(-36 17)" onmousedown="handlePan(-1,0)">
                  <use xlink:href="#rim" fill="#404040">
                        <set attributeName="fill" to="#808080" begin="arrowLeft.mouseover" end="arrowLeft.mouseout"/>
                  </use>
                  <path fill="none" stroke="white" stroke-width="1.5" d="M0,-3.0v7 M-2.5,-0.5L0,-3.0L2.5,-0.5"/>
                </g>
        </g>
        <svg viewBox="0 0 15 15" width="100%" height="30px" preserveAspectRatio="xMaxYMin meet">
         <g id="arrow_out" transform="scale(0.3 0.3)">
          <a xlink:href="classcontroller_1_1_controller_ac03add001882f876041934dfe435b43f_cgraph_org.svg" target="_base">
           <rect id="button" ry="5" rx="5" y="6" x="6" height="38" width="38"
                fill="#f2f5e9" fill-opacity="0.5" stroke="#606060" stroke-width="1.0"/>
           <path id="arrow"
             d="M 11.500037,31.436501 C 11.940474,20.09759 22.043105,11.32322 32.158766,21.979434 L 37.068811,17.246167 C 37.068811,17.246167 37.088388,32 37.088388,32 L 22.160133,31.978069 C 22.160133,31.978069 26.997745,27.140456 26.997745,27.140456 C 18.528582,18.264221 13.291696,25.230495 11.500037,31.436501 z"
             style="fill:#404040;"/>
          </a>
         </g>
        </svg>
</svg>
