<?xml version="1.0" encoding="UTF-8" standalone="no"?>
<!DOCTYPE svg PUBLIC "-//W3C//DTD SVG 1.1//EN"
 "http://www.w3.org/Graphics/SVG/1.1/DTD/svg11.dtd">
<!-- Generated by graphviz version 2.36.0 (20140111.2315)
 -->
<!-- Title: model.Paintable Pages: 1 -->
<svg width="350pt" height="84pt"
 viewBox="0.00 0.00 350.00 84.00" xmlns="http://www.w3.org/2000/svg" xmlns:xlink="http://www.w3.org/1999/xlink">
<g id="graph0" class="graph" transform="scale(1 1) rotate(0) translate(4 80)">
<title>model.Paintable</title>
<polygon fill="white" stroke="none" points="-4,4 -4,-80 346,-80 346,4 -4,4"/>
<!-- Node1 -->
<g id="node1" class="node"><title>Node1</title>
<polygon fill="#bfbfbf" stroke="black" points="123.5,-56.5 123.5,-75.5 216.5,-75.5 216.5,-56.5 123.5,-56.5"/>
<text text-anchor="middle" x="170" y="-63.5" font-family="Helvetica,sans-Serif" font-size="10.00">model.Paintable</text>
</g>
<!-- Node2 -->
<g id="node2" class="node"><title>Node2</title>
<g id="a_node2"><a xlink:href="../../de/d84/classcontroller_1_1_workspace.html" target="_top" xlink:title="controller.Workspace">
<polygon fill="white" stroke="black" points="-0.5,-0.5 -0.5,-19.5 114.5,-19.5 114.5,-0.5 -0.5,-0.5"/>
<text text-anchor="middle" x="57" y="-7.5" font-family="Helvetica,sans-Serif" font-size="10.00">controller.Workspace</text>
</a>
</g>
</g>
<!-- Node1&#45;&gt;Node2 -->
<g id="edge1" class="edge"><title>Node1&#45;&gt;Node2</title>
<path fill="none" stroke="midnightblue" d="M142.997,-52.096C121.886,-42.0073 93.1385,-28.2697 74.8214,-19.5164"/>
<polygon fill="midnightblue" stroke="midnightblue" points="141.563,-55.2897 152.095,-56.4435 144.581,-48.9738 141.563,-55.2897"/>
</g>
<!-- Node3 -->
<g id="node3" class="node"><title>Node3</title>
<g id="a_node3"><a xlink:href="../../d6/d34/classmodel_1_1_turtle.html" target="_top" xlink:title="model.Turtle">
<polygon fill="white" stroke="black" points="132.5,-0.5 132.5,-19.5 207.5,-19.5 207.5,-0.5 132.5,-0.5"/>
<text text-anchor="middle" x="170" y="-7.5" font-family="Helvetica,sans-Serif" font-size="10.00">model.Turtle</text>
</a>
</g>
</g>
<!-- Node1&#45;&gt;Node3 -->
<g id="edge2" class="edge"><title>Node1&#45;&gt;Node3</title>
<path fill="none" stroke="midnightblue" d="M170,-45.8045C170,-36.9102 170,-26.7798 170,-19.7511"/>
<polygon fill="midnightblue" stroke="midnightblue" points="166.5,-46.083 170,-56.083 173.5,-46.083 166.5,-46.083"/>
</g>
<!-- Node4 -->
<g id="node4" class="node"><title>Node4</title>
<g id="a_node4"><a xlink:href="../../d8/dff/classmodel_1_1_turtle_manager.html" target="_top" xlink:title="model.TurtleManager">
<polygon fill="white" stroke="black" points="225.5,-0.5 225.5,-19.5 342.5,-19.5 342.5,-0.5 225.5,-0.5"/>
<text text-anchor="middle" x="284" y="-7.5" font-family="Helvetica,sans-Serif" font-size="10.00">model.TurtleManager</text>
</a>
</g>
</g>
<!-- Node1&#45;&gt;Node4 -->
<g id="edge3" class="edge"><title>Node1&#45;&gt;Node4</title>
<path fill="none" stroke="midnightblue" d="M197.242,-52.096C218.54,-42.0073 247.542,-28.2697 266.021,-19.5164"/>
<polygon fill="midnightblue" stroke="midnightblue" points="195.603,-48.9995 188.064,-56.4435 198.599,-55.3257 195.603,-48.9995"/>
</g>
</g>
</svg>
