<?xml version="1.0" encoding="UTF-8" standalone="no"?>
<!DOCTYPE svg PUBLIC "-//W3C//DTD SVG 1.1//EN"
 "http://www.w3.org/Graphics/SVG/1.1/DTD/svg11.dtd">
<!-- Generated by graphviz version 2.36.0 (20140111.2315)
 -->
<!-- Title: parser.SemanticsChecker Pages: 1 -->
<svg width="523pt" height="164pt"
 viewBox="0.00 0.00 523.00 164.00" xmlns="http://www.w3.org/2000/svg" xmlns:xlink="http://www.w3.org/1999/xlink">
<g id="graph0" class="graph" transform="scale(1 1) rotate(0) translate(4 160)">
<title>parser.SemanticsChecker</title>
<polygon fill="white" stroke="none" points="-4,4 -4,-160 519,-160 519,4 -4,4"/>
<!-- Node1 -->
<g id="node1" class="node"><title>Node1</title>
<polygon fill="#bfbfbf" stroke="black" points="197,-0.5 197,-19.5 337,-19.5 337,-0.5 197,-0.5"/>
<text text-anchor="middle" x="267" y="-7.5" font-family="Helvetica,sans-Serif" font-size="10.00">parser.SemanticsChecker</text>
</g>
<!-- Node2 -->
<g id="node2" class="node"><title>Node2</title>
<g id="a_node2"><a xlink:href="../../df/daf/classparser_1_1_semantics_table.html" target="_top" xlink:title="parser.SemanticsTable">
<polygon fill="white" stroke="black" points="204.5,-68.5 204.5,-87.5 329.5,-87.5 329.5,-68.5 204.5,-68.5"/>
<text text-anchor="middle" x="267" y="-75.5" font-family="Helvetica,sans-Serif" font-size="10.00">parser.SemanticsTable</text>
</a>
</g>
</g>
<!-- Node2&#45;&gt;Node1 -->
<g id="edge1" class="edge"><title>Node2&#45;&gt;Node1</title>
<path fill="none" stroke="#9a32cd" stroke-dasharray="5,2" d="M267,-58.0413C267,-45.4724 267,-29.5631 267,-19.8411"/>
<polygon fill="#9a32cd" stroke="#9a32cd" points="263.5,-58.3716 267,-68.3717 270.5,-58.3717 263.5,-58.3716"/>
<text text-anchor="middle" x="288.5" y="-41.5" font-family="Helvetica,sans-Serif" font-size="10.00"> myTable</text>
</g>
<!-- Node2&#45;&gt;Node2 -->
<g id="edge4" class="edge"><title>Node2&#45;&gt;Node2</title>
<path fill="none" stroke="#9a32cd" stroke-dasharray="5,2" d="M339.688,-82.4752C344.251,-81.4217 347,-79.9299 347,-78 347,-74.9121 339.961,-72.946 329.72,-72.1016"/>
<polygon fill="#9a32cd" stroke="#9a32cd" points="339.125,-79.0201 329.72,-83.8984 340.114,-85.9498 339.125,-79.0201"/>
<text text-anchor="middle" x="369" y="-75.5" font-family="Helvetica,sans-Serif" font-size="10.00"> instance</text>
</g>
<!-- Node3 -->
<g id="node3" class="node"><title>Node3</title>
<g id="a_node3"><a xlink:href="../../dd/da7/interfaceparser_1_1_i_parser_provider.html" target="_top" xlink:title="parser.IParserProvider">
<polygon fill="white" stroke="black" points="-0.5,-136.5 -0.5,-155.5 120.5,-155.5 120.5,-136.5 -0.5,-136.5"/>
<text text-anchor="middle" x="60" y="-143.5" font-family="Helvetica,sans-Serif" font-size="10.00">parser.IParserProvider</text>
</a>
</g>
</g>
<!-- Node3&#45;&gt;Node2 -->
<g id="edge2" class="edge"><title>Node3&#45;&gt;Node2</title>
<path fill="none" stroke="#9a32cd" stroke-dasharray="5,2" d="M88.7184,-132.537C108.29,-124.33 134.921,-113.716 159,-106 181.454,-98.8042 207.035,-92.3349 227.662,-87.5339"/>
<polygon fill="#9a32cd" stroke="#9a32cd" points="87.2913,-129.341 79.4497,-136.466 90.0228,-135.786 87.2913,-129.341"/>
<text text-anchor="middle" x="187" y="-109.5" font-family="Helvetica,sans-Serif" font-size="10.00"> myContext</text>
</g>
<!-- Node4 -->
<g id="node4" class="node"><title>Node4</title>
<polygon fill="white" stroke="#bfbfbf" points="138.5,-136.5 138.5,-155.5 231.5,-155.5 231.5,-136.5 138.5,-136.5"/>
<text text-anchor="middle" x="185" y="-143.5" font-family="Helvetica,sans-Serif" font-size="10.00">ResourceBundle</text>
</g>
<!-- Node4&#45;&gt;Node2 -->
<g id="edge3" class="edge"><title>Node4&#45;&gt;Node2</title>
<path fill="none" stroke="#9a32cd" stroke-dasharray="5,2" d="M203.517,-130.096C219.786,-117.001 242.894,-98.4028 256.277,-87.6305"/>
<polygon fill="#9a32cd" stroke="#9a32cd" points="201.316,-127.375 195.72,-136.372 205.705,-132.828 201.316,-127.375"/>
<text text-anchor="middle" x="265" y="-109.5" font-family="Helvetica,sans-Serif" font-size="10.00"> myResource</text>
</g>
<!-- Node5 -->
<g id="node5" class="node"><title>Node5</title>
<polygon fill="white" stroke="#bfbfbf" points="249.5,-136.5 249.5,-155.5 450.5,-155.5 450.5,-136.5 249.5,-136.5"/>
<text text-anchor="middle" x="350" y="-143.5" font-family="Helvetica,sans-Serif" font-size="10.00">List&lt; parser.nodes.NodeInformation &gt;</text>
</g>
<!-- Node5&#45;&gt;Node2 -->
<g id="edge5" class="edge"><title>Node5&#45;&gt;Node2</title>
<path fill="none" stroke="#9a32cd" stroke-dasharray="5,2" d="M331.257,-130.096C314.789,-117.001 291.4,-98.4028 277.853,-87.6305"/>
<polygon fill="#9a32cd" stroke="#9a32cd" points="329.144,-132.887 339.149,-136.372 333.501,-127.408 329.144,-132.887"/>
<text text-anchor="middle" x="346.5" y="-109.5" font-family="Helvetica,sans-Serif" font-size="10.00"> myNodeList</text>
</g>
<!-- Node6 -->
<g id="node6" class="node"><title>Node6</title>
<polygon fill="white" stroke="#bfbfbf" points="468.5,-136.5 468.5,-155.5 515.5,-155.5 515.5,-136.5 468.5,-136.5"/>
<text text-anchor="middle" x="492" y="-143.5" font-family="Helvetica,sans-Serif" font-size="10.00">Locale</text>
</g>
<!-- Node6&#45;&gt;Node2 -->
<g id="edge6" class="edge"><title>Node6&#45;&gt;Node2</title>
<path fill="none" stroke="#9a32cd" stroke-dasharray="5,2" d="M460.175,-132.815C438.14,-124.626 408.026,-113.924 381,-106 356.896,-98.9324 329.517,-92.4002 307.633,-87.5317"/>
<polygon fill="#9a32cd" stroke="#9a32cd" points="459.099,-136.149 469.691,-136.381 461.555,-129.594 459.099,-136.149"/>
<text text-anchor="middle" x="461.5" y="-109.5" font-family="Helvetica,sans-Serif" font-size="10.00"> DEFAULT_REGION</text>
</g>
</g>
</svg>
