<?xml version="1.0" encoding="UTF-8" standalone="no"?>
<!DOCTYPE svg PUBLIC "-//W3C//DTD SVG 1.1//EN"
 "http://www.w3.org/Graphics/SVG/1.1/DTD/svg11.dtd">
<!-- Generated by graphviz version 2.36.0 (20140111.2315)
 -->
<!-- Title: view.components.ErrorBox.showError Pages: 1 -->
<svg width="560pt" height="136pt"
 viewBox="0.00 0.00 560.00 136.00" xmlns="http://www.w3.org/2000/svg" xmlns:xlink="http://www.w3.org/1999/xlink">
<g id="graph0" class="graph" transform="scale(1 1) rotate(0) translate(4 132)">
<title>view.components.ErrorBox.showError</title>
<polygon fill="white" stroke="none" points="-4,4 -4,-132 556,-132 556,4 -4,4"/>
<!-- Node1 -->
<g id="node1" class="node"><title>Node1</title>
<polygon fill="#bfbfbf" stroke="black" points="0,-49 0,-79 170,-79 170,-49 0,-49"/>
<text text-anchor="start" x="8" y="-67" font-family="Helvetica,sans-Serif" font-size="10.00">view.components.ErrorBox.show</text>
<text text-anchor="middle" x="85" y="-56" font-family="Helvetica,sans-Serif" font-size="10.00">Error</text>
</g>
<!-- Node2 -->
<g id="node2" class="node"><title>Node2</title>
<g id="a_node2"><a xlink:href="../../d8/dff/classmodel_1_1_turtle_manager.html#a14022290b69ac8fd9c2e1530798a3a44" target="_top" xlink:title="model.TurtleManager.addTurtle\lImage">
<polygon fill="white" stroke="black" points="206.5,-95 206.5,-125 369.5,-125 369.5,-95 206.5,-95"/>
<text text-anchor="start" x="214.5" y="-113" font-family="Helvetica,sans-Serif" font-size="10.00">model.TurtleManager.addTurtle</text>
<text text-anchor="middle" x="288" y="-102" font-family="Helvetica,sans-Serif" font-size="10.00">Image</text>
</a>
</g>
</g>
<!-- Node1&#45;&gt;Node2 -->
<g id="edge1" class="edge"><title>Node1&#45;&gt;Node2</title>
<path fill="none" stroke="midnightblue" d="M161.643,-81.3113C181.292,-85.8082 202.295,-90.6147 221.381,-94.9826"/>
<polygon fill="midnightblue" stroke="midnightblue" points="162.344,-77.8813 151.815,-79.0621 160.782,-84.7049 162.344,-77.8813"/>
</g>
<!-- Node4 -->
<g id="node4" class="node"><title>Node4</title>
<g id="a_node4"><a xlink:href="../../d8/dff/classmodel_1_1_turtle_manager.html#ad3a7dfe2894f5335c74644ad749dd77a" target="_top" xlink:title="model.TurtleManager.setImage">
<polygon fill="white" stroke="black" points="206,-54.5 206,-73.5 370,-73.5 370,-54.5 206,-54.5"/>
<text text-anchor="middle" x="288" y="-61.5" font-family="Helvetica,sans-Serif" font-size="10.00">model.TurtleManager.setImage</text>
</a>
</g>
</g>
<!-- Node1&#45;&gt;Node4 -->
<g id="edge3" class="edge"><title>Node1&#45;&gt;Node4</title>
<path fill="none" stroke="midnightblue" d="M180.121,-64C188.714,-64 197.369,-64 205.834,-64"/>
<polygon fill="midnightblue" stroke="midnightblue" points="180.078,-60.5001 170.077,-64 180.077,-67.5001 180.078,-60.5001"/>
</g>
<!-- Node6 -->
<g id="node6" class="node"><title>Node6</title>
<g id="a_node6"><a xlink:href="../../d8/dff/classmodel_1_1_turtle_manager.html#a86e0e9159dad59c6aee3d0563a40e241" target="_top" xlink:title="model.TurtleManager.setImage\lRelative">
<polygon fill="white" stroke="black" points="206,-3 206,-33 370,-33 370,-3 206,-3"/>
<text text-anchor="start" x="214" y="-21" font-family="Helvetica,sans-Serif" font-size="10.00">model.TurtleManager.setImage</text>
<text text-anchor="middle" x="288" y="-10" font-family="Helvetica,sans-Serif" font-size="10.00">Relative</text>
</a>
</g>
</g>
<!-- Node1&#45;&gt;Node6 -->
<g id="edge5" class="edge"><title>Node1&#45;&gt;Node6</title>
<path fill="none" stroke="midnightblue" d="M161.643,-46.6887C181.292,-42.1918 202.295,-37.3853 221.381,-33.0174"/>
<polygon fill="midnightblue" stroke="midnightblue" points="160.782,-43.2951 151.815,-48.9379 162.344,-50.1187 160.782,-43.2951"/>
</g>
<!-- Node3 -->
<g id="node3" class="node"><title>Node3</title>
<g id="a_node3"><a xlink:href="../../de/d84/classcontroller_1_1_workspace.html#ac659349589573f5405c3950d38505407" target="_top" xlink:title="controller.Workspace.add\lTurtleImage">
<polygon fill="white" stroke="black" points="411,-98 411,-128 547,-128 547,-98 411,-98"/>
<text text-anchor="start" x="419" y="-116" font-family="Helvetica,sans-Serif" font-size="10.00">controller.Workspace.add</text>
<text text-anchor="middle" x="479" y="-105" font-family="Helvetica,sans-Serif" font-size="10.00">TurtleImage</text>
</a>
</g>
</g>
<!-- Node2&#45;&gt;Node3 -->
<g id="edge2" class="edge"><title>Node2&#45;&gt;Node3</title>
<path fill="none" stroke="midnightblue" d="M379.741,-111.44C390.25,-111.607 400.822,-111.775 410.934,-111.935"/>
<polygon fill="midnightblue" stroke="midnightblue" points="379.756,-107.94 369.701,-111.281 379.644,-114.939 379.756,-107.94"/>
</g>
<!-- Node5 -->
<g id="node5" class="node"><title>Node5</title>
<g id="a_node5"><a xlink:href="../../de/d84/classcontroller_1_1_workspace.html#a836bba8f70a28fe652d3ab9684394b7d" target="_top" xlink:title="controller.Workspace.set\lImage">
<polygon fill="white" stroke="black" points="412.5,-49 412.5,-79 545.5,-79 545.5,-49 412.5,-49"/>
<text text-anchor="start" x="420.5" y="-67" font-family="Helvetica,sans-Serif" font-size="10.00">controller.Workspace.set</text>
<text text-anchor="middle" x="479" y="-56" font-family="Helvetica,sans-Serif" font-size="10.00">Image</text>
</a>
</g>
</g>
<!-- Node4&#45;&gt;Node5 -->
<g id="edge4" class="edge"><title>Node4&#45;&gt;Node5</title>
<path fill="none" stroke="midnightblue" d="M380.552,-64C391.332,-64 402.164,-64 412.485,-64"/>
<polygon fill="midnightblue" stroke="midnightblue" points="380.25,-60.5001 370.25,-64 380.25,-67.5001 380.25,-60.5001"/>
</g>
<!-- Node7 -->
<g id="node7" class="node"><title>Node7</title>
<g id="a_node7"><a xlink:href="../../d8/dff/classmodel_1_1_turtle_manager.html#aaf9a9034c70a70c0b8e6317192c064d9" target="_top" xlink:title="model.TurtleManager.Turtle\lManager">
<polygon fill="white" stroke="black" points="406.5,-0 406.5,-30 551.5,-30 551.5,-0 406.5,-0"/>
<text text-anchor="start" x="414.5" y="-18" font-family="Helvetica,sans-Serif" font-size="10.00">model.TurtleManager.Turtle</text>
<text text-anchor="middle" x="479" y="-7" font-family="Helvetica,sans-Serif" font-size="10.00">Manager</text>
</a>
</g>
</g>
<!-- Node6&#45;&gt;Node7 -->
<g id="edge6" class="edge"><title>Node6&#45;&gt;Node7</title>
<path fill="none" stroke="midnightblue" d="M380.431,-16.5487C389.133,-16.4106 397.869,-16.2719 406.345,-16.1374"/>
<polygon fill="midnightblue" stroke="midnightblue" points="380.193,-13.052 370.25,-16.7103 380.304,-20.0511 380.193,-13.052"/>
</g>
</g>
</svg>
