<?xml version="1.0" encoding="UTF-8" standalone="no"?>
<!DOCTYPE svg PUBLIC "-//W3C//DTD SVG 1.1//EN"
 "http://www.w3.org/Graphics/SVG/1.1/DTD/svg11.dtd">
<!-- Generated by graphviz version 2.36.0 (20140111.2315)
 -->
<!-- Title: parser.commands.math.Minus.evaluate Pages: 1 -->
<svg width="650pt" height="77pt"
 viewBox="0.00 0.00 650.00 77.00" xmlns="http://www.w3.org/2000/svg" xmlns:xlink="http://www.w3.org/1999/xlink">
<g id="graph0" class="graph" transform="scale(1 1) rotate(0) translate(4 73)">
<title>parser.commands.math.Minus.evaluate</title>
<polygon fill="white" stroke="none" points="-4,4 -4,-73 646,-73 646,4 -4,4"/>
<!-- Node1 -->
<g id="node1" class="node"><title>Node1</title>
<polygon fill="#bfbfbf" stroke="black" points="0.5,-27.5 0.5,-46.5 207.5,-46.5 207.5,-27.5 0.5,-27.5"/>
<text text-anchor="middle" x="104" y="-34.5" font-family="Helvetica,sans-Serif" font-size="10.00">parser.commands.math.Minus.evaluate</text>
</g>
<!-- Node2 -->
<g id="node2" class="node"><title>Node2</title>
<g id="a_node2"><a xlink:href="../../da/d96/classparser_1_1nodes_1_1_syntax_node.html#a669c370adce66a1960835323a90b9adb" target="_top" xlink:title="parser.nodes.SyntaxNode.evaluate">
<polygon fill="white" stroke="black" points="244.5,-49.5 244.5,-68.5 429.5,-68.5 429.5,-49.5 244.5,-49.5"/>
<text text-anchor="middle" x="337" y="-56.5" font-family="Helvetica,sans-Serif" font-size="10.00">parser.nodes.SyntaxNode.evaluate</text>
</a>
</g>
</g>
<!-- Node1&#45;&gt;Node2 -->
<g id="edge1" class="edge"><title>Node1&#45;&gt;Node2</title>
<path fill="none" stroke="midnightblue" d="M204.976,-46.5216C214.66,-47.4438 224.491,-48.3801 234.192,-49.304"/>
<polygon fill="midnightblue" stroke="midnightblue" points="233.956,-52.7972 244.243,-50.2612 234.619,-45.8288 233.956,-52.7972"/>
</g>
<!-- Node3 -->
<g id="node3" class="node"><title>Node3</title>
<g id="a_node3"><a xlink:href="../../d3/d36/classparser_1_1nodes_1_1_unary_node.html#a5075c2524d5d8551552e4cb93d4b0aac" target="_top" xlink:title="parser.nodes.UnaryNode.get\lArgument">
<polygon fill="white" stroke="black" points="259.5,-0 259.5,-30 414.5,-30 414.5,-0 259.5,-0"/>
<text text-anchor="start" x="267.5" y="-18" font-family="Helvetica,sans-Serif" font-size="10.00">parser.nodes.UnaryNode.get</text>
<text text-anchor="middle" x="337" y="-7" font-family="Helvetica,sans-Serif" font-size="10.00">Argument</text>
</a>
</g>
</g>
<!-- Node1&#45;&gt;Node3 -->
<g id="edge2" class="edge"><title>Node1&#45;&gt;Node3</title>
<path fill="none" stroke="midnightblue" d="M204.976,-27.4784C219.596,-26.0861 234.554,-24.6615 248.89,-23.2962"/>
<polygon fill="midnightblue" stroke="midnightblue" points="249.581,-26.7463 259.204,-22.3139 248.918,-19.7778 249.581,-26.7463"/>
</g>
<!-- Node4 -->
<g id="node4" class="node"><title>Node4</title>
<g id="a_node4"><a xlink:href="../../d7/d93/classparser_1_1nodes_1_1_parameter_node.html#a2c57eab9997daf1efb840a189c1034c5" target="_top" xlink:title="parser.nodes.ParameterNode.get\lParameter">
<polygon fill="white" stroke="black" points="466,-0 466,-30 642,-30 642,-0 466,-0"/>
<text text-anchor="start" x="474" y="-18" font-family="Helvetica,sans-Serif" font-size="10.00">parser.nodes.ParameterNode.get</text>
<text text-anchor="middle" x="554" y="-7" font-family="Helvetica,sans-Serif" font-size="10.00">Parameter</text>
</a>
</g>
</g>
<!-- Node3&#45;&gt;Node4 -->
<g id="edge3" class="edge"><title>Node3&#45;&gt;Node4</title>
<path fill="none" stroke="midnightblue" d="M414.709,-15C427.875,-15 441.714,-15 455.34,-15"/>
<polygon fill="midnightblue" stroke="midnightblue" points="455.703,-18.5001 465.703,-15 455.703,-11.5001 455.703,-18.5001"/>
</g>
</g>
</svg>
