<?xml version="1.0" encoding="UTF-8" standalone="no"?>
<!DOCTYPE svg PUBLIC "-//W3C//DTD SVG 1.1//EN"
 "http://www.w3.org/Graphics/SVG/1.1/DTD/svg11.dtd">
<!-- Generated by graphviz version 2.36.0 (20140111.2315)
 -->
<!-- Title: parser.SemanticsTable.registerCustomCommand Pages: 1 -->
<svg width="1714pt" height="799pt"
 viewBox="0.00 0.00 1714.00 799.00" xmlns="http://www.w3.org/2000/svg" xmlns:xlink="http://www.w3.org/1999/xlink">
<g id="graph0" class="graph" transform="scale(1 1) rotate(0) translate(4 795)">
<title>parser.SemanticsTable.registerCustomCommand</title>
<polygon fill="white" stroke="none" points="-4,4 -4,-795 1710,-795 1710,4 -4,4"/>
<!-- Node1 -->
<g id="node1" class="node"><title>Node1</title>
<polygon fill="#bfbfbf" stroke="black" points="0,-386 0,-416 164,-416 164,-386 0,-386"/>
<text text-anchor="start" x="8" y="-404" font-family="Helvetica,sans-Serif" font-size="10.00">parser.SemanticsTable.register</text>
<text text-anchor="middle" x="82" y="-393" font-family="Helvetica,sans-Serif" font-size="10.00">CustomCommand</text>
</g>
<!-- Node2 -->
<g id="node2" class="node"><title>Node2</title>
<g id="a_node2"><a xlink:href="../../d7/d0d/classparser_1_1_semantics_checker.html#a8620f3090287a61f86765ee920d53de0" target="_top" xlink:title="parser.SemanticsChecker.evaluate\lExpression">
<polygon fill="white" stroke="black" points="200.5,-386 200.5,-416 383.5,-416 383.5,-386 200.5,-386"/>
<text text-anchor="start" x="208.5" y="-404" font-family="Helvetica,sans-Serif" font-size="10.00">parser.SemanticsChecker.evaluate</text>
<text text-anchor="middle" x="292" y="-393" font-family="Helvetica,sans-Serif" font-size="10.00">Expression</text>
</a>
</g>
</g>
<!-- Node1&#45;&gt;Node2 -->
<g id="edge1" class="edge"><title>Node1&#45;&gt;Node2</title>
<path fill="none" stroke="midnightblue" d="M174.108,-401C182.767,-401 191.547,-401 200.203,-401"/>
<polygon fill="midnightblue" stroke="midnightblue" points="174.014,-397.5 164.014,-401 174.014,-404.5 174.014,-397.5"/>
</g>
<!-- Node3 -->
<g id="node3" class="node"><title>Node3</title>
<g id="a_node3"><a xlink:href="../../d6/d95/classparser_1_1_parser.html#ac0cfecef1d5308df35c49519d94f85a5" target="_top" xlink:title="parser.Parser.parseCommand">
<polygon fill="white" stroke="black" points="420.5,-391.5 420.5,-410.5 579.5,-410.5 579.5,-391.5 420.5,-391.5"/>
<text text-anchor="middle" x="500" y="-398.5" font-family="Helvetica,sans-Serif" font-size="10.00">parser.Parser.parseCommand</text>
</a>
</g>
</g>
<!-- Node2&#45;&gt;Node3 -->
<g id="edge2" class="edge"><title>Node2&#45;&gt;Node3</title>
<path fill="none" stroke="midnightblue" d="M393.699,-401C402.616,-401 411.557,-401 420.253,-401"/>
<polygon fill="midnightblue" stroke="midnightblue" points="393.654,-397.5 383.654,-401 393.654,-404.5 393.654,-397.5"/>
</g>
<!-- Node4 -->
<g id="node4" class="node"><title>Node4</title>
<g id="a_node4"><a xlink:href="../../d7/dde/classparser_1_1_main.html#a75a40fb31f3397122c167e54e6e233c1" target="_top" xlink:title="parser.Main.checkFile">
<polygon fill="white" stroke="black" points="649,-771.5 649,-790.5 767,-790.5 767,-771.5 649,-771.5"/>
<text text-anchor="middle" x="708" y="-778.5" font-family="Helvetica,sans-Serif" font-size="10.00">parser.Main.checkFile</text>
</a>
</g>
</g>
<!-- Node3&#45;&gt;Node4 -->
<g id="edge3" class="edge"><title>Node3&#45;&gt;Node4</title>
<path fill="none" stroke="midnightblue" d="M500.846,-420.774C501.514,-481.76 512.317,-668.441 616,-762 625.106,-770.217 636.826,-775.23 648.805,-778.217"/>
<polygon fill="midnightblue" stroke="midnightblue" points="504.345,-420.599 500.821,-410.608 497.345,-420.616 504.345,-420.599"/>
</g>
<!-- Node6 -->
<g id="node6" class="node"><title>Node6</title>
<g id="a_node6"><a xlink:href="../../d6/d95/classparser_1_1_parser.html#afc96f83c32dde8c90fdab91dd543dddf" target="_top" xlink:title="parser.Parser.parseCommand">
<polygon fill="white" stroke="black" points="628.5,-733.5 628.5,-752.5 787.5,-752.5 787.5,-733.5 628.5,-733.5"/>
<text text-anchor="middle" x="708" y="-740.5" font-family="Helvetica,sans-Serif" font-size="10.00">parser.Parser.parseCommand</text>
</a>
</g>
</g>
<!-- Node3&#45;&gt;Node6 -->
<g id="edge5" class="edge"><title>Node3&#45;&gt;Node6</title>
<path fill="none" stroke="midnightblue" d="M501.764,-420.826C505.069,-477.396 522.645,-640.781 616,-723 620.856,-727.276 626.416,-730.705 632.341,-733.446"/>
<polygon fill="midnightblue" stroke="midnightblue" points="505.254,-420.531 501.264,-410.716 498.262,-420.877 505.254,-420.531"/>
</g>
<!-- Node7 -->
<g id="node7" class="node"><title>Node7</title>
<g id="a_node7"><a xlink:href="../../d9/df7/classcontroller_1_1_controller.html#a89b63f37e67efbeddda1f247016c837b" target="_top" xlink:title="controller.Controller.process\lCommand">
<polygon fill="white" stroke="black" points="633,-684 633,-714 783,-714 783,-684 633,-684"/>
<text text-anchor="start" x="641" y="-702" font-family="Helvetica,sans-Serif" font-size="10.00">controller.Controller.process</text>
<text text-anchor="middle" x="708" y="-691" font-family="Helvetica,sans-Serif" font-size="10.00">Command</text>
</a>
</g>
</g>
<!-- Node3&#45;&gt;Node7 -->
<g id="edge6" class="edge"><title>Node3&#45;&gt;Node7</title>
<path fill="none" stroke="midnightblue" d="M503.434,-420.888C510.67,-471.198 536.733,-604.462 616,-674 621.05,-678.43 626.816,-682.082 632.94,-685.092"/>
<polygon fill="midnightblue" stroke="midnightblue" points="506.868,-420.156 502.07,-410.71 499.93,-421.087 506.868,-420.156"/>
</g>
<!-- Node10 -->
<g id="node10" class="node"><title>Node10</title>
<g id="a_node10"><a xlink:href="../../d9/df7/classcontroller_1_1_controller.html#aec5e242ff69899c974dbd6302510f70b" target="_top" xlink:title="controller.Controller.processFile">
<polygon fill="white" stroke="black" points="625.5,-645.5 625.5,-664.5 790.5,-664.5 790.5,-645.5 625.5,-645.5"/>
<text text-anchor="middle" x="708" y="-652.5" font-family="Helvetica,sans-Serif" font-size="10.00">controller.Controller.processFile</text>
</a>
</g>
</g>
<!-- Node3&#45;&gt;Node10 -->
<g id="edge9" class="edge"><title>Node3&#45;&gt;Node10</title>
<path fill="none" stroke="midnightblue" d="M504.607,-420.852C514.017,-466.61 543.777,-579.859 616,-636 620.842,-639.764 626.252,-642.829 631.954,-645.32"/>
<polygon fill="midnightblue" stroke="midnightblue" points="508.031,-420.125 502.682,-410.98 501.16,-421.465 508.031,-420.125"/>
</g>
<!-- Node15 -->
<g id="node15" class="node"><title>Node15</title>
<g id="a_node15"><a xlink:href="../../d1/d01/classparser_1_1tests_1_1_boolean_tester.html#ab009444f79be316835e50742f06550a9" target="_top" xlink:title="parser.tests.BooleanTester.testAnd">
<polygon fill="white" stroke="black" points="616,-607.5 616,-626.5 800,-626.5 800,-607.5 616,-607.5"/>
<text text-anchor="middle" x="708" y="-614.5" font-family="Helvetica,sans-Serif" font-size="10.00">parser.tests.BooleanTester.testAnd</text>
</a>
</g>
</g>
<!-- Node3&#45;&gt;Node15 -->
<g id="edge15" class="edge"><title>Node3&#45;&gt;Node15</title>
<path fill="none" stroke="midnightblue" d="M506.58,-420.444C519.081,-460.32 553.272,-551.43 616,-597 621.889,-601.278 628.52,-604.67 635.449,-607.356"/>
<polygon fill="midnightblue" stroke="midnightblue" points="509.861,-419.2 503.624,-410.636 503.159,-421.22 509.861,-419.2"/>
</g>
<!-- Node16 -->
<g id="node16" class="node"><title>Node16</title>
<g id="a_node16"><a xlink:href="../../d3/d64/classparser_1_1tests_1_1_math_tester.html#a1677c0f6237b5c48799087b702e713ca" target="_top" xlink:title="parser.tests.MathTester.test\lDifference">
<polygon fill="white" stroke="black" points="633,-558 633,-588 783,-588 783,-558 633,-558"/>
<text text-anchor="start" x="641" y="-576" font-family="Helvetica,sans-Serif" font-size="10.00">parser.tests.MathTester.test</text>
<text text-anchor="middle" x="708" y="-565" font-family="Helvetica,sans-Serif" font-size="10.00">Difference</text>
</a>
</g>
</g>
<!-- Node3&#45;&gt;Node16 -->
<g id="edge16" class="edge"><title>Node3&#45;&gt;Node16</title>
<path fill="none" stroke="midnightblue" d="M510.383,-419.615C527.171,-450.994 565.382,-514.29 616,-548 621.864,-551.905 628.325,-555.204 635.018,-557.989"/>
<polygon fill="midnightblue" stroke="midnightblue" points="513.423,-417.875 505.696,-410.626 507.216,-421.111 513.423,-417.875"/>
</g>
<!-- Node17 -->
<g id="node17" class="node"><title>Node17</title>
<g id="a_node17"><a xlink:href="../../d1/d01/classparser_1_1tests_1_1_boolean_tester.html#a99be1a3a9584ed717090f5bb310bdae0" target="_top" xlink:title="parser.tests.BooleanTester.test\lEqual">
<polygon fill="white" stroke="black" points="625.5,-509 625.5,-539 790.5,-539 790.5,-509 625.5,-509"/>
<text text-anchor="start" x="633.5" y="-527" font-family="Helvetica,sans-Serif" font-size="10.00">parser.tests.BooleanTester.test</text>
<text text-anchor="middle" x="708" y="-516" font-family="Helvetica,sans-Serif" font-size="10.00">Equal</text>
</a>
</g>
</g>
<!-- Node3&#45;&gt;Node17 -->
<g id="edge17" class="edge"><title>Node3&#45;&gt;Node17</title>
<path fill="none" stroke="midnightblue" d="M516.495,-418.226C537.122,-440.132 575.709,-477.668 616,-499 623.24,-502.833 631.123,-506.123 639.122,-508.935"/>
<polygon fill="midnightblue" stroke="midnightblue" points="518.861,-415.629 509.502,-410.662 513.72,-420.381 518.861,-415.629"/>
</g>
<!-- Node18 -->
<g id="node18" class="node"><title>Node18</title>
<g id="a_node18"><a xlink:href="../../d1/d01/classparser_1_1tests_1_1_boolean_tester.html#ad5101fc213b8aeaa37baf5e3b5868d9d" target="_top" xlink:title="parser.tests.BooleanTester.test\lGreaterThan">
<polygon fill="white" stroke="black" points="625.5,-460 625.5,-490 790.5,-490 790.5,-460 625.5,-460"/>
<text text-anchor="start" x="633.5" y="-478" font-family="Helvetica,sans-Serif" font-size="10.00">parser.tests.BooleanTester.test</text>
<text text-anchor="middle" x="708" y="-467" font-family="Helvetica,sans-Serif" font-size="10.00">GreaterThan</text>
</a>
</g>
</g>
<!-- Node3&#45;&gt;Node18 -->
<g id="edge18" class="edge"><title>Node3&#45;&gt;Node18</title>
<path fill="none" stroke="midnightblue" d="M530.234,-414.751C553.225,-425.247 586.235,-439.623 616,-450 626.056,-453.506 636.872,-456.843 647.414,-459.871"/>
<polygon fill="midnightblue" stroke="midnightblue" points="531.581,-411.518 521.033,-410.513 528.652,-417.876 531.581,-411.518"/>
</g>
<!-- Node19 -->
<g id="node19" class="node"><title>Node19</title>
<g id="a_node19"><a xlink:href="../../d1/d01/classparser_1_1tests_1_1_boolean_tester.html#a828f5f4183434799d083a68a00791dba" target="_top" xlink:title="parser.tests.BooleanTester.test\lLessThan">
<polygon fill="white" stroke="black" points="625.5,-411 625.5,-441 790.5,-441 790.5,-411 625.5,-411"/>
<text text-anchor="start" x="633.5" y="-429" font-family="Helvetica,sans-Serif" font-size="10.00">parser.tests.BooleanTester.test</text>
<text text-anchor="middle" x="708" y="-418" font-family="Helvetica,sans-Serif" font-size="10.00">LessThan</text>
</a>
</g>
</g>
<!-- Node3&#45;&gt;Node19 -->
<g id="edge19" class="edge"><title>Node3&#45;&gt;Node19</title>
<path fill="none" stroke="midnightblue" d="M589.408,-411.729C601.335,-413.177 613.527,-414.656 625.329,-416.088"/>
<polygon fill="midnightblue" stroke="midnightblue" points="589.816,-408.253 579.467,-410.523 588.973,-415.202 589.816,-408.253"/>
</g>
<!-- Node20 -->
<g id="node20" class="node"><title>Node20</title>
<g id="a_node20"><a xlink:href="../../d3/d64/classparser_1_1tests_1_1_math_tester.html#a06cade99788206056814bc20735cd193" target="_top" xlink:title="parser.tests.MathTester.test\lMinus">
<polygon fill="white" stroke="black" points="633,-362 633,-392 783,-392 783,-362 633,-362"/>
<text text-anchor="start" x="641" y="-380" font-family="Helvetica,sans-Serif" font-size="10.00">parser.tests.MathTester.test</text>
<text text-anchor="middle" x="708" y="-369" font-family="Helvetica,sans-Serif" font-size="10.00">Minus</text>
</a>
</g>
</g>
<!-- Node3&#45;&gt;Node20 -->
<g id="edge20" class="edge"><title>Node3&#45;&gt;Node20</title>
<path fill="none" stroke="midnightblue" d="M590.04,-390.626C604.265,-388.969 618.852,-387.27 632.689,-385.658"/>
<polygon fill="midnightblue" stroke="midnightblue" points="589.289,-387.19 579.762,-391.824 590.099,-394.143 589.289,-387.19"/>
</g>
<!-- Node21 -->
<g id="node21" class="node"><title>Node21</title>
<g id="a_node21"><a xlink:href="../../d1/d01/classparser_1_1tests_1_1_boolean_tester.html#a402bae747c40cf9030ea6e85a44b10d2" target="_top" xlink:title="parser.tests.BooleanTester.testNot">
<polygon fill="white" stroke="black" points="617,-323.5 617,-342.5 799,-342.5 799,-323.5 617,-323.5"/>
<text text-anchor="middle" x="708" y="-330.5" font-family="Helvetica,sans-Serif" font-size="10.00">parser.tests.BooleanTester.testNot</text>
</a>
</g>
</g>
<!-- Node3&#45;&gt;Node21 -->
<g id="edge21" class="edge"><title>Node3&#45;&gt;Node21</title>
<path fill="none" stroke="midnightblue" d="M530.122,-387.135C553.051,-376.64 586.034,-362.463 616,-353 628.803,-348.957 642.869,-345.433 656.035,-342.517"/>
<polygon fill="midnightblue" stroke="midnightblue" points="528.552,-384.005 520.949,-391.383 531.494,-390.357 528.552,-384.005"/>
</g>
<!-- Node22 -->
<g id="node22" class="node"><title>Node22</title>
<g id="a_node22"><a xlink:href="../../d1/d01/classparser_1_1tests_1_1_boolean_tester.html#ac0deac7b7ba9e48e30a9ed6cff134d09" target="_top" xlink:title="parser.tests.BooleanTester.test\lNotEqual">
<polygon fill="white" stroke="black" points="625.5,-274 625.5,-304 790.5,-304 790.5,-274 625.5,-274"/>
<text text-anchor="start" x="633.5" y="-292" font-family="Helvetica,sans-Serif" font-size="10.00">parser.tests.BooleanTester.test</text>
<text text-anchor="middle" x="708" y="-281" font-family="Helvetica,sans-Serif" font-size="10.00">NotEqual</text>
</a>
</g>
</g>
<!-- Node3&#45;&gt;Node22 -->
<g id="edge22" class="edge"><title>Node3&#45;&gt;Node22</title>
<path fill="none" stroke="midnightblue" d="M518.479,-384.339C539.863,-364.816 577.937,-332.758 616,-314 623.642,-310.234 631.934,-306.966 640.297,-304.15"/>
<polygon fill="midnightblue" stroke="midnightblue" points="515.831,-382.021 510.885,-391.39 520.594,-387.151 515.831,-382.021"/>
</g>
<!-- Node23 -->
<g id="node23" class="node"><title>Node23</title>
<g id="a_node23"><a xlink:href="../../d1/d01/classparser_1_1tests_1_1_boolean_tester.html#a733a8bed2ef17160461077bd2e53490c" target="_top" xlink:title="parser.tests.BooleanTester.testOr">
<polygon fill="white" stroke="black" points="620,-235.5 620,-254.5 796,-254.5 796,-235.5 620,-235.5"/>
<text text-anchor="middle" x="708" y="-242.5" font-family="Helvetica,sans-Serif" font-size="10.00">parser.tests.BooleanTester.testOr</text>
</a>
</g>
</g>
<!-- Node3&#45;&gt;Node23 -->
<g id="edge23" class="edge"><title>Node3&#45;&gt;Node23</title>
<path fill="none" stroke="midnightblue" d="M511.304,-382.273C528.738,-352.457 566.992,-294.551 616,-265 623.203,-260.657 631.235,-257.253 639.461,-254.585"/>
<polygon fill="midnightblue" stroke="midnightblue" points="508.113,-380.805 506.205,-391.227 514.195,-384.27 508.113,-380.805"/>
</g>
<!-- Node24 -->
<g id="node24" class="node"><title>Node24</title>
<g id="a_node24"><a xlink:href="../../d3/d64/classparser_1_1tests_1_1_math_tester.html#af3c9e732ab91e0cad71ea7cd66a7a0d4" target="_top" xlink:title="parser.tests.MathTester.test\lProduct">
<polygon fill="white" stroke="black" points="633,-186 633,-216 783,-216 783,-186 633,-186"/>
<text text-anchor="start" x="641" y="-204" font-family="Helvetica,sans-Serif" font-size="10.00">parser.tests.MathTester.test</text>
<text text-anchor="middle" x="708" y="-193" font-family="Helvetica,sans-Serif" font-size="10.00">Product</text>
</a>
</g>
</g>
<!-- Node3&#45;&gt;Node24 -->
<g id="edge24" class="edge"><title>Node3&#45;&gt;Node24</title>
<path fill="none" stroke="midnightblue" d="M508.167,-381.893C522.725,-345.739 559.268,-267.257 616,-226 621.3,-222.146 627.166,-218.885 633.291,-216.128"/>
<polygon fill="midnightblue" stroke="midnightblue" points="504.876,-380.697 504.5,-391.285 511.397,-383.243 504.876,-380.697"/>
</g>
<!-- Node25 -->
<g id="node25" class="node"><title>Node25</title>
<g id="a_node25"><a xlink:href="../../d3/d64/classparser_1_1tests_1_1_math_tester.html#a0bee886e0100c55a64fb804fa462e079" target="_top" xlink:title="parser.tests.MathTester.test\lQuotient">
<polygon fill="white" stroke="black" points="633,-137 633,-167 783,-167 783,-137 633,-137"/>
<text text-anchor="start" x="641" y="-155" font-family="Helvetica,sans-Serif" font-size="10.00">parser.tests.MathTester.test</text>
<text text-anchor="middle" x="708" y="-144" font-family="Helvetica,sans-Serif" font-size="10.00">Quotient</text>
</a>
</g>
</g>
<!-- Node3&#45;&gt;Node25 -->
<g id="edge25" class="edge"><title>Node3&#45;&gt;Node25</title>
<path fill="none" stroke="midnightblue" d="M505.421,-381.2C516.244,-337.44 548.272,-232.027 616,-177 621.086,-172.867 626.805,-169.416 632.834,-166.534"/>
<polygon fill="midnightblue" stroke="midnightblue" points="501.963,-380.616 503.068,-391.153 508.775,-382.227 501.963,-380.616"/>
</g>
<!-- Node26 -->
<g id="node26" class="node"><title>Node26</title>
<g id="a_node26"><a xlink:href="../../d3/d64/classparser_1_1tests_1_1_math_tester.html#a0834a1beeeb3689ab52b3523b1ec053e" target="_top" xlink:title="parser.tests.MathTester.test\lRandom">
<polygon fill="white" stroke="black" points="633,-88 633,-118 783,-118 783,-88 633,-88"/>
<text text-anchor="start" x="641" y="-106" font-family="Helvetica,sans-Serif" font-size="10.00">parser.tests.MathTester.test</text>
<text text-anchor="middle" x="708" y="-95" font-family="Helvetica,sans-Serif" font-size="10.00">Random</text>
</a>
</g>
</g>
<!-- Node3&#45;&gt;Node26 -->
<g id="edge26" class="edge"><title>Node3&#45;&gt;Node26</title>
<path fill="none" stroke="midnightblue" d="M503.434,-381.112C510.67,-330.802 536.733,-197.538 616,-128 621.05,-123.57 626.816,-119.918 632.94,-116.908"/>
<polygon fill="midnightblue" stroke="midnightblue" points="499.93,-380.913 502.07,-391.29 506.868,-381.844 499.93,-380.913"/>
</g>
<!-- Node27 -->
<g id="node27" class="node"><title>Node27</title>
<g id="a_node27"><a xlink:href="../../d3/d64/classparser_1_1tests_1_1_math_tester.html#aeba46a296188edda903e21c6be23bdd8" target="_top" xlink:title="parser.tests.MathTester.test\lRemainder">
<polygon fill="white" stroke="black" points="633,-39 633,-69 783,-69 783,-39 633,-39"/>
<text text-anchor="start" x="641" y="-57" font-family="Helvetica,sans-Serif" font-size="10.00">parser.tests.MathTester.test</text>
<text text-anchor="middle" x="708" y="-46" font-family="Helvetica,sans-Serif" font-size="10.00">Remainder</text>
</a>
</g>
</g>
<!-- Node3&#45;&gt;Node27 -->
<g id="edge27" class="edge"><title>Node3&#45;&gt;Node27</title>
<path fill="none" stroke="midnightblue" d="M501.977,-381.41C505.852,-325.471 524.805,-163.607 616,-79 620.924,-74.4313 626.606,-70.6847 632.675,-67.6142"/>
<polygon fill="midnightblue" stroke="midnightblue" points="498.483,-381.21 501.372,-391.403 505.47,-381.633 498.483,-381.21"/>
</g>
<!-- Node28 -->
<g id="node28" class="node"><title>Node28</title>
<g id="a_node28"><a xlink:href="../../d3/d64/classparser_1_1tests_1_1_math_tester.html#a0059e207747b76f3579b4218cfe7c5dc" target="_top" xlink:title="parser.tests.MathTester.testSum">
<polygon fill="white" stroke="black" points="621.5,-0.5 621.5,-19.5 794.5,-19.5 794.5,-0.5 621.5,-0.5"/>
<text text-anchor="middle" x="708" y="-7.5" font-family="Helvetica,sans-Serif" font-size="10.00">parser.tests.MathTester.testSum</text>
</a>
</g>
</g>
<!-- Node3&#45;&gt;Node28 -->
<g id="edge28" class="edge"><title>Node3&#45;&gt;Node28</title>
<path fill="none" stroke="midnightblue" d="M500.693,-381.155C500.882,-319.1 510.356,-127.099 616,-30 620.645,-25.731 625.986,-22.2985 631.704,-19.5468"/>
<polygon fill="midnightblue" stroke="midnightblue" points="497.195,-381.493 500.75,-391.473 504.195,-381.454 497.195,-381.493"/>
</g>
<!-- Node5 -->
<g id="node5" class="node"><title>Node5</title>
<g id="a_node5"><a xlink:href="../../d7/dde/classparser_1_1_main.html#ac3abd936d94632f17feedf0cce82afff" target="_top" xlink:title="parser.Main.main">
<polygon fill="white" stroke="black" points="853.5,-771.5 853.5,-790.5 952.5,-790.5 952.5,-771.5 853.5,-771.5"/>
<text text-anchor="middle" x="903" y="-778.5" font-family="Helvetica,sans-Serif" font-size="10.00">parser.Main.main</text>
</a>
</g>
</g>
<!-- Node4&#45;&gt;Node5 -->
<g id="edge4" class="edge"><title>Node4&#45;&gt;Node5</title>
<path fill="none" stroke="midnightblue" d="M777.366,-781C802.471,-781 830.36,-781 853.38,-781"/>
<polygon fill="midnightblue" stroke="midnightblue" points="777.168,-777.5 767.168,-781 777.168,-784.5 777.168,-777.5"/>
</g>
<!-- Node8 -->
<g id="node8" class="node"><title>Node8</title>
<g id="a_node8"><a xlink:href="../../d9/df7/classcontroller_1_1_controller.html#a2bfb87bca460d87b2c97e0b5045a2175" target="_top" xlink:title="controller.Controller.create\lRunCommandListener">
<polygon fill="white" stroke="black" points="1006.5,-686 1006.5,-716 1149.5,-716 1149.5,-686 1006.5,-686"/>
<text text-anchor="start" x="1014.5" y="-704" font-family="Helvetica,sans-Serif" font-size="10.00">controller.Controller.create</text>
<text text-anchor="middle" x="1078" y="-693" font-family="Helvetica,sans-Serif" font-size="10.00">RunCommandListener</text>
</a>
</g>
</g>
<!-- Node7&#45;&gt;Node8 -->
<g id="edge7" class="edge"><title>Node7&#45;&gt;Node8</title>
<path fill="none" stroke="midnightblue" d="M793.156,-699.457C857.567,-699.807 945.39,-700.285 1006.21,-700.615"/>
<polygon fill="midnightblue" stroke="midnightblue" points="793.047,-695.957 783.028,-699.402 793.008,-702.957 793.047,-695.957"/>
</g>
<!-- Node9 -->
<g id="node9" class="node"><title>Node9</title>
<g id="a_node9"><a xlink:href="../../d9/df7/classcontroller_1_1_controller.html#a47511ec57338c8e75e71e9314cda5271" target="_top" xlink:title="controller.Controller.Controller">
<polygon fill="white" stroke="black" points="1546.5,-667.5 1546.5,-686.5 1705.5,-686.5 1705.5,-667.5 1546.5,-667.5"/>
<text text-anchor="middle" x="1626" y="-674.5" font-family="Helvetica,sans-Serif" font-size="10.00">controller.Controller.Controller</text>
</a>
</g>
</g>
<!-- Node8&#45;&gt;Node9 -->
<g id="edge8" class="edge"><title>Node8&#45;&gt;Node9</title>
<path fill="none" stroke="midnightblue" d="M1159.67,-697.454C1263.64,-692.884 1443.25,-684.989 1546.27,-680.461"/>
<polygon fill="midnightblue" stroke="midnightblue" points="1159.38,-693.963 1149.54,-697.899 1159.69,-700.957 1159.38,-693.963"/>
</g>
<!-- Node11 -->
<g id="node11" class="node"><title>Node11</title>
<g id="a_node11"><a xlink:href="../../d9/df7/classcontroller_1_1_controller.html#a37c3009658f66dc4de0be01b75adf660" target="_top" xlink:title="controller.Controller.load\lWorkspace">
<polygon fill="white" stroke="black" points="836.5,-638 836.5,-668 969.5,-668 969.5,-638 836.5,-638"/>
<text text-anchor="start" x="844.5" y="-656" font-family="Helvetica,sans-Serif" font-size="10.00">controller.Controller.load</text>
<text text-anchor="middle" x="903" y="-645" font-family="Helvetica,sans-Serif" font-size="10.00">Workspace</text>
</a>
</g>
</g>
<!-- Node10&#45;&gt;Node11 -->
<g id="edge10" class="edge"><title>Node10&#45;&gt;Node11</title>
<path fill="none" stroke="midnightblue" d="M800.618,-654.051C812.629,-653.926 824.741,-653.801 836.207,-653.682"/>
<polygon fill="midnightblue" stroke="midnightblue" points="800.533,-650.551 790.57,-654.155 800.605,-657.551 800.533,-650.551"/>
</g>
<!-- Node12 -->
<g id="node12" class="node"><title>Node12</title>
<g id="a_node12"><a xlink:href="../../d9/df7/classcontroller_1_1_controller.html#aa46804b9ca132af8504b5dafb1cadb0d" target="_top" xlink:title="controller.Controller.create\lFileCommands">
<polygon fill="white" stroke="black" points="1006.5,-637 1006.5,-667 1149.5,-667 1149.5,-637 1006.5,-637"/>
<text text-anchor="start" x="1014.5" y="-655" font-family="Helvetica,sans-Serif" font-size="10.00">controller.Controller.create</text>
<text text-anchor="middle" x="1078" y="-644" font-family="Helvetica,sans-Serif" font-size="10.00">FileCommands</text>
</a>
</g>
</g>
<!-- Node11&#45;&gt;Node12 -->
<g id="edge11" class="edge"><title>Node11&#45;&gt;Node12</title>
<path fill="none" stroke="midnightblue" d="M980.078,-652.56C988.826,-652.51 997.718,-652.458 1006.39,-652.408"/>
<polygon fill="midnightblue" stroke="midnightblue" points="979.877,-649.061 969.897,-652.619 979.917,-656.061 979.877,-649.061"/>
</g>
<!-- Node13 -->
<g id="node13" class="node"><title>Node13</title>
<g id="a_node13"><a xlink:href="../../d9/df7/classcontroller_1_1_controller.html#af4c05286f1534b1fa6de523c54549288" target="_top" xlink:title="controller.Controller.create\lFileMenu">
<polygon fill="white" stroke="black" points="1186.5,-639 1186.5,-669 1329.5,-669 1329.5,-639 1186.5,-639"/>
<text text-anchor="start" x="1194.5" y="-657" font-family="Helvetica,sans-Serif" font-size="10.00">controller.Controller.create</text>
<text text-anchor="middle" x="1258" y="-646" font-family="Helvetica,sans-Serif" font-size="10.00">FileMenu</text>
</a>
</g>
</g>
<!-- Node12&#45;&gt;Node13 -->
<g id="edge12" class="edge"><title>Node12&#45;&gt;Node13</title>
<path fill="none" stroke="midnightblue" d="M1159.65,-652.906C1168.6,-653.007 1177.67,-653.109 1186.48,-653.208"/>
<polygon fill="midnightblue" stroke="midnightblue" points="1159.64,-649.406 1149.61,-652.793 1159.57,-656.406 1159.64,-649.406"/>
</g>
<!-- Node14 -->
<g id="node14" class="node"><title>Node14</title>
<g id="a_node14"><a xlink:href="../../d9/df7/classcontroller_1_1_controller.html#a2901bf43bb8e47b485558dbf00d40d6d" target="_top" xlink:title="controller.Controller.create\lJMenuBar">
<polygon fill="white" stroke="black" points="1366.5,-640 1366.5,-670 1509.5,-670 1509.5,-640 1366.5,-640"/>
<text text-anchor="start" x="1374.5" y="-658" font-family="Helvetica,sans-Serif" font-size="10.00">controller.Controller.create</text>
<text text-anchor="middle" x="1438" y="-647" font-family="Helvetica,sans-Serif" font-size="10.00">JMenuBar</text>
</a>
</g>
</g>
<!-- Node13&#45;&gt;Node14 -->
<g id="edge13" class="edge"><title>Node13&#45;&gt;Node14</title>
<path fill="none" stroke="midnightblue" d="M1339.65,-654.453C1348.6,-654.503 1357.67,-654.554 1366.48,-654.604"/>
<polygon fill="midnightblue" stroke="midnightblue" points="1339.63,-650.953 1329.61,-654.397 1339.59,-657.953 1339.63,-650.953"/>
</g>
<!-- Node14&#45;&gt;Node9 -->
<g id="edge14" class="edge"><title>Node14&#45;&gt;Node9</title>
<path fill="none" stroke="midnightblue" d="M1519.55,-664.527C1528.45,-665.58 1537.5,-666.651 1546.38,-667.701"/>
<polygon fill="midnightblue" stroke="midnightblue" points="1519.93,-661.048 1509.58,-663.349 1519.1,-667.999 1519.93,-661.048"/>
</g>
</g>
</svg>
