<?xml version="1.0" encoding="UTF-8" standalone="no"?>
<!DOCTYPE svg PUBLIC "-//W3C//DTD SVG 1.1//EN"
 "http://www.w3.org/Graphics/SVG/1.1/DTD/svg11.dtd">
<!-- Generated by graphviz version 2.36.0 (20140111.2315)
 -->
<!-- Title: parser.SemanticsTable.setContext Pages: 1 -->
<svg width="1260pt" height="87pt"
 viewBox="0.00 0.00 1260.00 87.00" xmlns="http://www.w3.org/2000/svg" xmlns:xlink="http://www.w3.org/1999/xlink">
<g id="graph0" class="graph" transform="scale(1 1) rotate(0) translate(4 83)">
<title>parser.SemanticsTable.setContext</title>
<polygon fill="white" stroke="none" points="-4,4 -4,-83 1256,-83 1256,4 -4,4"/>
<!-- Node1 -->
<g id="node1" class="node"><title>Node1</title>
<polygon fill="#bfbfbf" stroke="black" points="0.5,-24 0.5,-54 143.5,-54 143.5,-24 0.5,-24"/>
<text text-anchor="start" x="8.5" y="-42" font-family="Helvetica,sans-Serif" font-size="10.00">parser.SemanticsTable.set</text>
<text text-anchor="middle" x="72" y="-31" font-family="Helvetica,sans-Serif" font-size="10.00">Context</text>
</g>
<!-- Node2 -->
<g id="node2" class="node"><title>Node2</title>
<g id="a_node2"><a xlink:href="../../d9/df7/classcontroller_1_1_controller.html#a89b63f37e67efbeddda1f247016c837b" target="_top" xlink:title="controller.Controller.process\lCommand">
<polygon fill="white" stroke="black" points="188,-47 188,-77 338,-77 338,-47 188,-47"/>
<text text-anchor="start" x="196" y="-65" font-family="Helvetica,sans-Serif" font-size="10.00">controller.Controller.process</text>
<text text-anchor="middle" x="263" y="-54" font-family="Helvetica,sans-Serif" font-size="10.00">Command</text>
</a>
</g>
</g>
<!-- Node1&#45;&gt;Node2 -->
<g id="edge1" class="edge"><title>Node1&#45;&gt;Node2</title>
<path fill="none" stroke="midnightblue" d="M153.586,-48.8067C164.998,-50.1955 176.686,-51.6179 187.966,-52.9906"/>
<polygon fill="midnightblue" stroke="midnightblue" points="153.995,-45.3308 143.645,-47.5971 153.149,-52.2795 153.995,-45.3308"/>
</g>
<!-- Node5 -->
<g id="node5" class="node"><title>Node5</title>
<g id="a_node5"><a xlink:href="../../d9/df7/classcontroller_1_1_controller.html#aec5e242ff69899c974dbd6302510f70b" target="_top" xlink:title="controller.Controller.processFile">
<polygon fill="white" stroke="black" points="180.5,-7.5 180.5,-26.5 345.5,-26.5 345.5,-7.5 180.5,-7.5"/>
<text text-anchor="middle" x="263" y="-14.5" font-family="Helvetica,sans-Serif" font-size="10.00">controller.Controller.processFile</text>
</a>
</g>
</g>
<!-- Node1&#45;&gt;Node5 -->
<g id="edge4" class="edge"><title>Node1&#45;&gt;Node5</title>
<path fill="none" stroke="midnightblue" d="M153.841,-29.5899C162.605,-28.5698 171.529,-27.531 180.303,-26.5097"/>
<polygon fill="midnightblue" stroke="midnightblue" points="153.174,-26.1439 143.645,-30.7767 153.983,-33.097 153.174,-26.1439"/>
</g>
<!-- Node3 -->
<g id="node3" class="node"><title>Node3</title>
<g id="a_node3"><a xlink:href="../../d9/df7/classcontroller_1_1_controller.html#a2bfb87bca460d87b2c97e0b5045a2175" target="_top" xlink:title="controller.Controller.create\lRunCommandListener">
<polygon fill="white" stroke="black" points="552.5,-49 552.5,-79 695.5,-79 695.5,-49 552.5,-49"/>
<text text-anchor="start" x="560.5" y="-67" font-family="Helvetica,sans-Serif" font-size="10.00">controller.Controller.create</text>
<text text-anchor="middle" x="624" y="-56" font-family="Helvetica,sans-Serif" font-size="10.00">RunCommandListener</text>
</a>
</g>
</g>
<!-- Node2&#45;&gt;Node3 -->
<g id="edge2" class="edge"><title>Node2&#45;&gt;Node3</title>
<path fill="none" stroke="midnightblue" d="M348.541,-62.471C410.581,-62.8166 493.875,-63.2806 552.374,-63.6065"/>
<polygon fill="midnightblue" stroke="midnightblue" points="348.404,-58.9703 338.385,-62.4144 348.365,-65.9702 348.404,-58.9703"/>
</g>
<!-- Node4 -->
<g id="node4" class="node"><title>Node4</title>
<g id="a_node4"><a xlink:href="../../d9/df7/classcontroller_1_1_controller.html#a47511ec57338c8e75e71e9314cda5271" target="_top" xlink:title="controller.Controller.Controller">
<polygon fill="white" stroke="black" points="1092.5,-30.5 1092.5,-49.5 1251.5,-49.5 1251.5,-30.5 1092.5,-30.5"/>
<text text-anchor="middle" x="1172" y="-37.5" font-family="Helvetica,sans-Serif" font-size="10.00">controller.Controller.Controller</text>
</a>
</g>
</g>
<!-- Node3&#45;&gt;Node4 -->
<g id="edge3" class="edge"><title>Node3&#45;&gt;Node4</title>
<path fill="none" stroke="midnightblue" d="M705.67,-60.4541C809.639,-55.884 989.246,-47.9892 1092.27,-43.4608"/>
<polygon fill="midnightblue" stroke="midnightblue" points="705.378,-56.9634 695.541,-60.8993 705.685,-63.9567 705.378,-56.9634"/>
</g>
<!-- Node6 -->
<g id="node6" class="node"><title>Node6</title>
<g id="a_node6"><a xlink:href="../../d9/df7/classcontroller_1_1_controller.html#a37c3009658f66dc4de0be01b75adf660" target="_top" xlink:title="controller.Controller.load\lWorkspace">
<polygon fill="white" stroke="black" points="382.5,-0 382.5,-30 515.5,-30 515.5,-0 382.5,-0"/>
<text text-anchor="start" x="390.5" y="-18" font-family="Helvetica,sans-Serif" font-size="10.00">controller.Controller.load</text>
<text text-anchor="middle" x="449" y="-7" font-family="Helvetica,sans-Serif" font-size="10.00">Workspace</text>
</a>
</g>
</g>
<!-- Node5&#45;&gt;Node6 -->
<g id="edge5" class="edge"><title>Node5&#45;&gt;Node6</title>
<path fill="none" stroke="midnightblue" d="M355.64,-16.0039C364.632,-15.9062 373.629,-15.8084 382.286,-15.7143"/>
<polygon fill="midnightblue" stroke="midnightblue" points="355.47,-12.5055 345.509,-16.114 355.546,-19.505 355.47,-12.5055"/>
</g>
<!-- Node7 -->
<g id="node7" class="node"><title>Node7</title>
<g id="a_node7"><a xlink:href="../../d9/df7/classcontroller_1_1_controller.html#aa46804b9ca132af8504b5dafb1cadb0d" target="_top" xlink:title="controller.Controller.create\lFileCommands">
<polygon fill="white" stroke="black" points="552.5,-0 552.5,-30 695.5,-30 695.5,-0 552.5,-0"/>
<text text-anchor="start" x="560.5" y="-18" font-family="Helvetica,sans-Serif" font-size="10.00">controller.Controller.create</text>
<text text-anchor="middle" x="624" y="-7" font-family="Helvetica,sans-Serif" font-size="10.00">FileCommands</text>
</a>
</g>
</g>
<!-- Node6&#45;&gt;Node7 -->
<g id="edge6" class="edge"><title>Node6&#45;&gt;Node7</title>
<path fill="none" stroke="midnightblue" d="M526.078,-15C534.826,-15 543.718,-15 552.39,-15"/>
<polygon fill="midnightblue" stroke="midnightblue" points="525.897,-11.5001 515.897,-15 525.897,-18.5001 525.897,-11.5001"/>
</g>
<!-- Node8 -->
<g id="node8" class="node"><title>Node8</title>
<g id="a_node8"><a xlink:href="../../d9/df7/classcontroller_1_1_controller.html#af4c05286f1534b1fa6de523c54549288" target="_top" xlink:title="controller.Controller.create\lFileMenu">
<polygon fill="white" stroke="black" points="732.5,-2 732.5,-32 875.5,-32 875.5,-2 732.5,-2"/>
<text text-anchor="start" x="740.5" y="-20" font-family="Helvetica,sans-Serif" font-size="10.00">controller.Controller.create</text>
<text text-anchor="middle" x="804" y="-9" font-family="Helvetica,sans-Serif" font-size="10.00">FileMenu</text>
</a>
</g>
</g>
<!-- Node7&#45;&gt;Node8 -->
<g id="edge7" class="edge"><title>Node7&#45;&gt;Node8</title>
<path fill="none" stroke="midnightblue" d="M705.646,-15.9061C714.599,-16.0067 723.666,-16.1086 732.479,-16.2076"/>
<polygon fill="midnightblue" stroke="midnightblue" points="705.645,-12.406 695.606,-15.7933 705.566,-19.4056 705.645,-12.406"/>
</g>
<!-- Node9 -->
<g id="node9" class="node"><title>Node9</title>
<g id="a_node9"><a xlink:href="../../d9/df7/classcontroller_1_1_controller.html#a2901bf43bb8e47b485558dbf00d40d6d" target="_top" xlink:title="controller.Controller.create\lJMenuBar">
<polygon fill="white" stroke="black" points="912.5,-3 912.5,-33 1055.5,-33 1055.5,-3 912.5,-3"/>
<text text-anchor="start" x="920.5" y="-21" font-family="Helvetica,sans-Serif" font-size="10.00">controller.Controller.create</text>
<text text-anchor="middle" x="984" y="-10" font-family="Helvetica,sans-Serif" font-size="10.00">JMenuBar</text>
</a>
</g>
</g>
<!-- Node8&#45;&gt;Node9 -->
<g id="edge8" class="edge"><title>Node8&#45;&gt;Node9</title>
<path fill="none" stroke="midnightblue" d="M885.646,-17.4531C894.599,-17.5034 903.666,-17.5543 912.479,-17.6038"/>
<polygon fill="midnightblue" stroke="midnightblue" points="885.626,-13.953 875.606,-17.3967 885.586,-20.9529 885.626,-13.953"/>
</g>
<!-- Node9&#45;&gt;Node4 -->
<g id="edge9" class="edge"><title>Node9&#45;&gt;Node4</title>
<path fill="none" stroke="midnightblue" d="M1065.55,-27.5273C1074.45,-28.58 1083.5,-29.651 1092.38,-30.7008"/>
<polygon fill="midnightblue" stroke="midnightblue" points="1065.93,-24.0476 1055.58,-26.3486 1065.1,-30.9991 1065.93,-24.0476"/>
</g>
</g>
</svg>
