<?xml version="1.0" encoding="UTF-8" standalone="no"?>
<!DOCTYPE svg PUBLIC "-//W3C//DTD SVG 1.1//EN"
 "http://www.w3.org/Graphics/SVG/1.1/DTD/svg11.dtd">
<!-- Generated by graphviz version 2.36.0 (20140111.2315)
 -->
<!-- Title: parser.SemanticsTable.getTokenClass Pages: 1 -->
<svg width="582pt" height="82pt"
 viewBox="0.00 0.00 582.00 82.00" xmlns="http://www.w3.org/2000/svg" xmlns:xlink="http://www.w3.org/1999/xlink">
<g id="graph0" class="graph" transform="scale(1 1) rotate(0) translate(4 78)">
<title>parser.SemanticsTable.getTokenClass</title>
<polygon fill="white" stroke="none" points="-4,4 -4,-78 578,-78 578,4 -4,4"/>
<!-- Node1 -->
<g id="node1" class="node"><title>Node1</title>
<polygon fill="#bfbfbf" stroke="black" points="0.5,-22 0.5,-52 143.5,-52 143.5,-22 0.5,-22"/>
<text text-anchor="start" x="8.5" y="-40" font-family="Helvetica,sans-Serif" font-size="10.00">parser.SemanticsTable.get</text>
<text text-anchor="middle" x="72" y="-29" font-family="Helvetica,sans-Serif" font-size="10.00">TokenClass</text>
</g>
<!-- Node2 -->
<g id="node2" class="node"><title>Node2</title>
<g id="a_node2"><a xlink:href="../../d5/d08/classparser_1_1nodes_1_1_node_information.html#a10357cfb2c29282a4571d4713551a448" target="_top" xlink:title="parser.nodes.NodeInformation.clone">
<polygon fill="white" stroke="black" points="180.5,-49.5 180.5,-68.5 371.5,-68.5 371.5,-49.5 180.5,-49.5"/>
<text text-anchor="middle" x="276" y="-56.5" font-family="Helvetica,sans-Serif" font-size="10.00">parser.nodes.NodeInformation.clone</text>
</a>
</g>
</g>
<!-- Node1&#45;&gt;Node2 -->
<g id="edge1" class="edge"><title>Node1&#45;&gt;Node2</title>
<path fill="none" stroke="midnightblue" d="M143.65,-44.6945C154.649,-45.8925 166.178,-47.1481 177.644,-48.3969"/>
<polygon fill="midnightblue" stroke="midnightblue" points="177.369,-51.8875 187.689,-49.4909 178.127,-44.9287 177.369,-51.8875"/>
</g>
<!-- Node4 -->
<g id="node4" class="node"><title>Node4</title>
<g id="a_node4"><a xlink:href="../../d5/d08/classparser_1_1nodes_1_1_node_information.html#a0c4a6fe4a61e93a5dbe095ee42c213ed" target="_top" xlink:title="parser.nodes.NodeInformation.set\lToken">
<polygon fill="white" stroke="black" points="186,-0 186,-30 366,-30 366,-0 186,-0"/>
<text text-anchor="start" x="194" y="-18" font-family="Helvetica,sans-Serif" font-size="10.00">parser.nodes.NodeInformation.set</text>
<text text-anchor="middle" x="276" y="-7" font-family="Helvetica,sans-Serif" font-size="10.00">Token</text>
</a>
</g>
</g>
<!-- Node1&#45;&gt;Node4 -->
<g id="edge3" class="edge"><title>Node1&#45;&gt;Node4</title>
<path fill="none" stroke="midnightblue" d="M143.65,-29.3055C154.103,-28.167 165.033,-26.9766 175.934,-25.7893"/>
<polygon fill="midnightblue" stroke="midnightblue" points="176.36,-29.2638 185.922,-24.7015 175.602,-22.3049 176.36,-29.2638"/>
</g>
<!-- Node3 -->
<g id="node3" class="node"><title>Node3</title>
<g id="a_node3"><a xlink:href="../../d5/d08/classparser_1_1nodes_1_1_node_information.html#a0672ed587472f62f81cad30d9c35e3f0" target="_top" xlink:title="parser.nodes.NodeInformation.\lNodeInformation">
<polygon fill="white" stroke="black" points="408.5,-44 408.5,-74 573.5,-74 573.5,-44 408.5,-44"/>
<text text-anchor="start" x="416.5" y="-62" font-family="Helvetica,sans-Serif" font-size="10.00">parser.nodes.NodeInformation.</text>
<text text-anchor="middle" x="491" y="-51" font-family="Helvetica,sans-Serif" font-size="10.00">NodeInformation</text>
</a>
</g>
</g>
<!-- Node2&#45;&gt;Node3 -->
<g id="edge2" class="edge"><title>Node2&#45;&gt;Node3</title>
<path fill="none" stroke="midnightblue" d="M371.665,-59C380.45,-59 389.343,-59 398.102,-59"/>
<polygon fill="midnightblue" stroke="midnightblue" points="398.308,-62.5001 408.308,-59 398.308,-55.5001 398.308,-62.5001"/>
</g>
</g>
</svg>
