<?xml version="1.0" encoding="UTF-8" standalone="no"?>
<!DOCTYPE svg PUBLIC "-//W3C//DTD SVG 1.1//EN"
 "http://www.w3.org/Graphics/SVG/1.1/DTD/svg11.dtd">
<!-- Generated by graphviz version 2.36.0 (20140111.2315)
 -->
<!-- Title: parser.SemanticsTable.getInstance Pages: 1 -->
<svg width="1260pt" height="175pt"
 viewBox="0.00 0.00 1260.00 175.00" xmlns="http://www.w3.org/2000/svg" xmlns:xlink="http://www.w3.org/1999/xlink">
<g id="graph0" class="graph" transform="scale(1 1) rotate(0) translate(4 171)">
<title>parser.SemanticsTable.getInstance</title>
<polygon fill="white" stroke="none" points="-4,4 -4,-171 1256,-171 1256,4 -4,4"/>
<!-- Node1 -->
<g id="node1" class="node"><title>Node1</title>
<polygon fill="#bfbfbf" stroke="black" points="0.5,-66 0.5,-96 143.5,-96 143.5,-66 0.5,-66"/>
<text text-anchor="start" x="8.5" y="-84" font-family="Helvetica,sans-Serif" font-size="10.00">parser.SemanticsTable.get</text>
<text text-anchor="middle" x="72" y="-73" font-family="Helvetica,sans-Serif" font-size="10.00">Instance</text>
</g>
<!-- Node2 -->
<g id="node2" class="node"><title>Node2</title>
<g id="a_node2"><a xlink:href="../../df/ddc/classparser_1_1nodes_1_1_command_node.html#afc528cdec7c087a621e6828b02bce48b" target="_top" xlink:title="parser.nodes.CommandNode.\lCommandNode">
<polygon fill="white" stroke="black" points="182.5,-137 182.5,-167 343.5,-167 343.5,-137 182.5,-137"/>
<text text-anchor="start" x="190.5" y="-155" font-family="Helvetica,sans-Serif" font-size="10.00">parser.nodes.CommandNode.</text>
<text text-anchor="middle" x="263" y="-144" font-family="Helvetica,sans-Serif" font-size="10.00">CommandNode</text>
</a>
</g>
</g>
<!-- Node1&#45;&gt;Node2 -->
<g id="edge1" class="edge"><title>Node1&#45;&gt;Node2</title>
<path fill="none" stroke="midnightblue" d="M114.67,-100.181C134.289,-108.883 158.135,-118.994 180,-127 189.504,-130.48 199.744,-133.874 209.659,-136.984"/>
<polygon fill="midnightblue" stroke="midnightblue" points="115.963,-96.9248 105.406,-96.0369 113.105,-103.315 115.963,-96.9248"/>
</g>
<!-- Node3 -->
<g id="node3" class="node"><title>Node3</title>
<g id="a_node3"><a xlink:href="../../d9/df7/classcontroller_1_1_controller.html#a89b63f37e67efbeddda1f247016c837b" target="_top" xlink:title="controller.Controller.process\lCommand">
<polygon fill="white" stroke="black" points="188,-88 188,-118 338,-118 338,-88 188,-88"/>
<text text-anchor="start" x="196" y="-106" font-family="Helvetica,sans-Serif" font-size="10.00">controller.Controller.process</text>
<text text-anchor="middle" x="263" y="-95" font-family="Helvetica,sans-Serif" font-size="10.00">Command</text>
</a>
</g>
</g>
<!-- Node1&#45;&gt;Node3 -->
<g id="edge2" class="edge"><title>Node1&#45;&gt;Node3</title>
<path fill="none" stroke="midnightblue" d="M153.586,-90.3803C164.998,-91.7087 176.686,-93.0693 187.966,-94.3823"/>
<polygon fill="midnightblue" stroke="midnightblue" points="153.983,-86.903 143.645,-89.2233 153.174,-93.8561 153.983,-86.903"/>
</g>
<!-- Node6 -->
<g id="node6" class="node"><title>Node6</title>
<g id="a_node6"><a xlink:href="../../d9/df7/classcontroller_1_1_controller.html#aec5e242ff69899c974dbd6302510f70b" target="_top" xlink:title="controller.Controller.processFile">
<polygon fill="white" stroke="black" points="180.5,-49.5 180.5,-68.5 345.5,-68.5 345.5,-49.5 180.5,-49.5"/>
<text text-anchor="middle" x="263" y="-56.5" font-family="Helvetica,sans-Serif" font-size="10.00">controller.Controller.processFile</text>
</a>
</g>
</g>
<!-- Node1&#45;&gt;Node6 -->
<g id="edge5" class="edge"><title>Node1&#45;&gt;Node6</title>
<path fill="none" stroke="midnightblue" d="M153.841,-71.5899C162.605,-70.5698 171.529,-69.531 180.303,-68.5097"/>
<polygon fill="midnightblue" stroke="midnightblue" points="153.174,-68.1439 143.645,-72.7767 153.983,-75.097 153.174,-68.1439"/>
</g>
<!-- Node11 -->
<g id="node11" class="node"><title>Node11</title>
<g id="a_node11"><a xlink:href="../../d7/d0d/classparser_1_1_semantics_checker.html#a21d75c2c82bd1c79cb8817689b912466" target="_top" xlink:title="parser.SemanticsChecker.\lSemanticsChecker">
<polygon fill="white" stroke="black" points="192,-0 192,-30 334,-30 334,-0 192,-0"/>
<text text-anchor="start" x="200" y="-18" font-family="Helvetica,sans-Serif" font-size="10.00">parser.SemanticsChecker.</text>
<text text-anchor="middle" x="263" y="-7" font-family="Helvetica,sans-Serif" font-size="10.00">SemanticsChecker</text>
</a>
</g>
</g>
<!-- Node1&#45;&gt;Node11 -->
<g id="edge11" class="edge"><title>Node1&#45;&gt;Node11</title>
<path fill="none" stroke="midnightblue" d="M119.831,-62.2402C138.451,-54.9956 160.134,-46.8253 180,-40 189.853,-36.615 200.448,-33.2119 210.644,-30.0538"/>
<polygon fill="midnightblue" stroke="midnightblue" points="118.436,-59.0279 110.399,-65.9322 120.987,-65.5463 118.436,-59.0279"/>
</g>
<!-- Node4 -->
<g id="node4" class="node"><title>Node4</title>
<g id="a_node4"><a xlink:href="../../d9/df7/classcontroller_1_1_controller.html#a2bfb87bca460d87b2c97e0b5045a2175" target="_top" xlink:title="controller.Controller.create\lRunCommandListener">
<polygon fill="white" stroke="black" points="552.5,-90 552.5,-120 695.5,-120 695.5,-90 552.5,-90"/>
<text text-anchor="start" x="560.5" y="-108" font-family="Helvetica,sans-Serif" font-size="10.00">controller.Controller.create</text>
<text text-anchor="middle" x="624" y="-97" font-family="Helvetica,sans-Serif" font-size="10.00">RunCommandListener</text>
</a>
</g>
</g>
<!-- Node3&#45;&gt;Node4 -->
<g id="edge3" class="edge"><title>Node3&#45;&gt;Node4</title>
<path fill="none" stroke="midnightblue" d="M348.541,-103.471C410.581,-103.817 493.875,-104.281 552.374,-104.607"/>
<polygon fill="midnightblue" stroke="midnightblue" points="348.404,-99.9703 338.385,-103.414 348.365,-106.97 348.404,-99.9703"/>
</g>
<!-- Node5 -->
<g id="node5" class="node"><title>Node5</title>
<g id="a_node5"><a xlink:href="../../d9/df7/classcontroller_1_1_controller.html#a47511ec57338c8e75e71e9314cda5271" target="_top" xlink:title="controller.Controller.Controller">
<polygon fill="white" stroke="black" points="1092.5,-71.5 1092.5,-90.5 1251.5,-90.5 1251.5,-71.5 1092.5,-71.5"/>
<text text-anchor="middle" x="1172" y="-78.5" font-family="Helvetica,sans-Serif" font-size="10.00">controller.Controller.Controller</text>
</a>
</g>
</g>
<!-- Node4&#45;&gt;Node5 -->
<g id="edge4" class="edge"><title>Node4&#45;&gt;Node5</title>
<path fill="none" stroke="midnightblue" d="M705.67,-101.454C809.639,-96.884 989.246,-88.9892 1092.27,-84.4608"/>
<polygon fill="midnightblue" stroke="midnightblue" points="705.378,-97.9634 695.541,-101.899 705.685,-104.957 705.378,-97.9634"/>
</g>
<!-- Node7 -->
<g id="node7" class="node"><title>Node7</title>
<g id="a_node7"><a xlink:href="../../d9/df7/classcontroller_1_1_controller.html#a37c3009658f66dc4de0be01b75adf660" target="_top" xlink:title="controller.Controller.load\lWorkspace">
<polygon fill="white" stroke="black" points="382.5,-42 382.5,-72 515.5,-72 515.5,-42 382.5,-42"/>
<text text-anchor="start" x="390.5" y="-60" font-family="Helvetica,sans-Serif" font-size="10.00">controller.Controller.load</text>
<text text-anchor="middle" x="449" y="-49" font-family="Helvetica,sans-Serif" font-size="10.00">Workspace</text>
</a>
</g>
</g>
<!-- Node6&#45;&gt;Node7 -->
<g id="edge6" class="edge"><title>Node6&#45;&gt;Node7</title>
<path fill="none" stroke="midnightblue" d="M355.64,-58.0039C364.632,-57.9062 373.629,-57.8084 382.286,-57.7143"/>
<polygon fill="midnightblue" stroke="midnightblue" points="355.47,-54.5055 345.509,-58.114 355.546,-61.505 355.47,-54.5055"/>
</g>
<!-- Node8 -->
<g id="node8" class="node"><title>Node8</title>
<g id="a_node8"><a xlink:href="../../d9/df7/classcontroller_1_1_controller.html#aa46804b9ca132af8504b5dafb1cadb0d" target="_top" xlink:title="controller.Controller.create\lFileCommands">
<polygon fill="white" stroke="black" points="552.5,-41 552.5,-71 695.5,-71 695.5,-41 552.5,-41"/>
<text text-anchor="start" x="560.5" y="-59" font-family="Helvetica,sans-Serif" font-size="10.00">controller.Controller.create</text>
<text text-anchor="middle" x="624" y="-48" font-family="Helvetica,sans-Serif" font-size="10.00">FileCommands</text>
</a>
</g>
</g>
<!-- Node7&#45;&gt;Node8 -->
<g id="edge7" class="edge"><title>Node7&#45;&gt;Node8</title>
<path fill="none" stroke="midnightblue" d="M526.078,-56.5602C534.826,-56.5097 543.718,-56.4583 552.39,-56.4082"/>
<polygon fill="midnightblue" stroke="midnightblue" points="525.877,-53.0612 515.897,-56.6191 525.917,-60.0611 525.877,-53.0612"/>
</g>
<!-- Node9 -->
<g id="node9" class="node"><title>Node9</title>
<g id="a_node9"><a xlink:href="../../d9/df7/classcontroller_1_1_controller.html#af4c05286f1534b1fa6de523c54549288" target="_top" xlink:title="controller.Controller.create\lFileMenu">
<polygon fill="white" stroke="black" points="732.5,-43 732.5,-73 875.5,-73 875.5,-43 732.5,-43"/>
<text text-anchor="start" x="740.5" y="-61" font-family="Helvetica,sans-Serif" font-size="10.00">controller.Controller.create</text>
<text text-anchor="middle" x="804" y="-50" font-family="Helvetica,sans-Serif" font-size="10.00">FileMenu</text>
</a>
</g>
</g>
<!-- Node8&#45;&gt;Node9 -->
<g id="edge8" class="edge"><title>Node8&#45;&gt;Node9</title>
<path fill="none" stroke="midnightblue" d="M705.646,-56.9061C714.599,-57.0067 723.666,-57.1086 732.479,-57.2076"/>
<polygon fill="midnightblue" stroke="midnightblue" points="705.645,-53.406 695.606,-56.7933 705.566,-60.4056 705.645,-53.406"/>
</g>
<!-- Node10 -->
<g id="node10" class="node"><title>Node10</title>
<g id="a_node10"><a xlink:href="../../d9/df7/classcontroller_1_1_controller.html#a2901bf43bb8e47b485558dbf00d40d6d" target="_top" xlink:title="controller.Controller.create\lJMenuBar">
<polygon fill="white" stroke="black" points="912.5,-44 912.5,-74 1055.5,-74 1055.5,-44 912.5,-44"/>
<text text-anchor="start" x="920.5" y="-62" font-family="Helvetica,sans-Serif" font-size="10.00">controller.Controller.create</text>
<text text-anchor="middle" x="984" y="-51" font-family="Helvetica,sans-Serif" font-size="10.00">JMenuBar</text>
</a>
</g>
</g>
<!-- Node9&#45;&gt;Node10 -->
<g id="edge9" class="edge"><title>Node9&#45;&gt;Node10</title>
<path fill="none" stroke="midnightblue" d="M885.646,-58.4531C894.599,-58.5034 903.666,-58.5543 912.479,-58.6038"/>
<polygon fill="midnightblue" stroke="midnightblue" points="885.626,-54.953 875.606,-58.3967 885.586,-61.9529 885.626,-54.953"/>
</g>
<!-- Node10&#45;&gt;Node5 -->
<g id="edge10" class="edge"><title>Node10&#45;&gt;Node5</title>
<path fill="none" stroke="midnightblue" d="M1065.55,-68.5273C1074.45,-69.58 1083.5,-70.651 1092.38,-71.7008"/>
<polygon fill="midnightblue" stroke="midnightblue" points="1065.93,-65.0476 1055.58,-67.3486 1065.1,-71.9991 1065.93,-65.0476"/>
</g>
</g>
</svg>
