<?xml version="1.0" encoding="UTF-8" standalone="no"?>
<!DOCTYPE svg PUBLIC "-//W3C//DTD SVG 1.1//EN"
 "http://www.w3.org/Graphics/SVG/1.1/DTD/svg11.dtd">
<!-- Generated by graphviz version 2.36.0 (20140111.2315)
 -->
<!-- Title: parser.SemanticsTable.getCommand Pages: 1 -->
<svg width="1928pt" height="799pt"
 viewBox="0.00 0.00 1928.00 799.00" xmlns="http://www.w3.org/2000/svg" xmlns:xlink="http://www.w3.org/1999/xlink">
<g id="graph0" class="graph" transform="scale(1 1) rotate(0) translate(4 795)">
<title>parser.SemanticsTable.getCommand</title>
<polygon fill="white" stroke="none" points="-4,4 -4,-795 1924,-795 1924,4 -4,4"/>
<!-- Node1 -->
<g id="node1" class="node"><title>Node1</title>
<polygon fill="#bfbfbf" stroke="black" points="0.5,-408 0.5,-438 143.5,-438 143.5,-408 0.5,-408"/>
<text text-anchor="start" x="8.5" y="-426" font-family="Helvetica,sans-Serif" font-size="10.00">parser.SemanticsTable.get</text>
<text text-anchor="middle" x="72" y="-415" font-family="Helvetica,sans-Serif" font-size="10.00">Command</text>
</g>
<!-- Node2 -->
<g id="node2" class="node"><title>Node2</title>
<g id="a_node2"><a xlink:href="../../df/ddc/classparser_1_1nodes_1_1_command_node.html#afc528cdec7c087a621e6828b02bce48b" target="_top" xlink:title="parser.nodes.CommandNode.\lCommandNode">
<polygon fill="white" stroke="black" points="198.5,-430 198.5,-460 359.5,-460 359.5,-430 198.5,-430"/>
<text text-anchor="start" x="206.5" y="-448" font-family="Helvetica,sans-Serif" font-size="10.00">parser.nodes.CommandNode.</text>
<text text-anchor="middle" x="279" y="-437" font-family="Helvetica,sans-Serif" font-size="10.00">CommandNode</text>
</a>
</g>
</g>
<!-- Node1&#45;&gt;Node2 -->
<g id="edge1" class="edge"><title>Node1&#45;&gt;Node2</title>
<path fill="none" stroke="midnightblue" d="M153.584,-431.648C168.245,-433.221 183.534,-434.862 198.173,-436.433"/>
<polygon fill="midnightblue" stroke="midnightblue" points="153.866,-428.158 143.549,-430.571 153.119,-435.118 153.866,-428.158"/>
</g>
<!-- Node3 -->
<g id="node3" class="node"><title>Node3</title>
<g id="a_node3"><a xlink:href="../../d7/d0d/classparser_1_1_semantics_checker.html#a9874458f603e4eac6181412441aff5af" target="_top" xlink:title="parser.SemanticsChecker.createNode">
<polygon fill="white" stroke="black" points="180,-391.5 180,-410.5 378,-410.5 378,-391.5 180,-391.5"/>
<text text-anchor="middle" x="279" y="-398.5" font-family="Helvetica,sans-Serif" font-size="10.00">parser.SemanticsChecker.createNode</text>
</a>
</g>
</g>
<!-- Node1&#45;&gt;Node3 -->
<g id="edge2" class="edge"><title>Node1&#45;&gt;Node3</title>
<path fill="none" stroke="midnightblue" d="M153.681,-414.342C165.344,-413.09 177.402,-411.796 189.213,-410.528"/>
<polygon fill="midnightblue" stroke="midnightblue" points="153.119,-410.882 143.549,-415.429 153.866,-417.842 153.119,-410.882"/>
</g>
<!-- Node4 -->
<g id="node4" class="node"><title>Node4</title>
<g id="a_node4"><a xlink:href="../../d7/d0d/classparser_1_1_semantics_checker.html#a8620f3090287a61f86765ee920d53de0" target="_top" xlink:title="parser.SemanticsChecker.evaluate\lExpression">
<polygon fill="white" stroke="black" points="414.5,-386 414.5,-416 597.5,-416 597.5,-386 414.5,-386"/>
<text text-anchor="start" x="422.5" y="-404" font-family="Helvetica,sans-Serif" font-size="10.00">parser.SemanticsChecker.evaluate</text>
<text text-anchor="middle" x="506" y="-393" font-family="Helvetica,sans-Serif" font-size="10.00">Expression</text>
</a>
</g>
</g>
<!-- Node3&#45;&gt;Node4 -->
<g id="edge3" class="edge"><title>Node3&#45;&gt;Node4</title>
<path fill="none" stroke="midnightblue" d="M388.267,-401C397.008,-401 405.783,-401 414.381,-401"/>
<polygon fill="midnightblue" stroke="midnightblue" points="388.034,-397.5 378.034,-401 388.034,-404.5 388.034,-397.5"/>
</g>
<!-- Node5 -->
<g id="node5" class="node"><title>Node5</title>
<g id="a_node5"><a xlink:href="../../d6/d95/classparser_1_1_parser.html#ac0cfecef1d5308df35c49519d94f85a5" target="_top" xlink:title="parser.Parser.parseCommand">
<polygon fill="white" stroke="black" points="634.5,-391.5 634.5,-410.5 793.5,-410.5 793.5,-391.5 634.5,-391.5"/>
<text text-anchor="middle" x="714" y="-398.5" font-family="Helvetica,sans-Serif" font-size="10.00">parser.Parser.parseCommand</text>
</a>
</g>
</g>
<!-- Node4&#45;&gt;Node5 -->
<g id="edge4" class="edge"><title>Node4&#45;&gt;Node5</title>
<path fill="none" stroke="midnightblue" d="M607.699,-401C616.616,-401 625.557,-401 634.253,-401"/>
<polygon fill="midnightblue" stroke="midnightblue" points="607.654,-397.5 597.654,-401 607.654,-404.5 607.654,-397.5"/>
</g>
<!-- Node6 -->
<g id="node6" class="node"><title>Node6</title>
<g id="a_node6"><a xlink:href="../../d7/dde/classparser_1_1_main.html#a75a40fb31f3397122c167e54e6e233c1" target="_top" xlink:title="parser.Main.checkFile">
<polygon fill="white" stroke="black" points="863,-771.5 863,-790.5 981,-790.5 981,-771.5 863,-771.5"/>
<text text-anchor="middle" x="922" y="-778.5" font-family="Helvetica,sans-Serif" font-size="10.00">parser.Main.checkFile</text>
</a>
</g>
</g>
<!-- Node5&#45;&gt;Node6 -->
<g id="edge5" class="edge"><title>Node5&#45;&gt;Node6</title>
<path fill="none" stroke="midnightblue" d="M714.846,-420.774C715.514,-481.76 726.317,-668.441 830,-762 839.106,-770.217 850.826,-775.23 862.805,-778.217"/>
<polygon fill="midnightblue" stroke="midnightblue" points="718.345,-420.599 714.821,-410.608 711.345,-420.616 718.345,-420.599"/>
</g>
<!-- Node8 -->
<g id="node8" class="node"><title>Node8</title>
<g id="a_node8"><a xlink:href="../../d6/d95/classparser_1_1_parser.html#afc96f83c32dde8c90fdab91dd543dddf" target="_top" xlink:title="parser.Parser.parseCommand">
<polygon fill="white" stroke="black" points="842.5,-733.5 842.5,-752.5 1001.5,-752.5 1001.5,-733.5 842.5,-733.5"/>
<text text-anchor="middle" x="922" y="-740.5" font-family="Helvetica,sans-Serif" font-size="10.00">parser.Parser.parseCommand</text>
</a>
</g>
</g>
<!-- Node5&#45;&gt;Node8 -->
<g id="edge7" class="edge"><title>Node5&#45;&gt;Node8</title>
<path fill="none" stroke="midnightblue" d="M715.764,-420.826C719.069,-477.396 736.645,-640.781 830,-723 834.856,-727.276 840.416,-730.705 846.341,-733.446"/>
<polygon fill="midnightblue" stroke="midnightblue" points="719.254,-420.531 715.264,-410.716 712.262,-420.877 719.254,-420.531"/>
</g>
<!-- Node9 -->
<g id="node9" class="node"><title>Node9</title>
<g id="a_node9"><a xlink:href="../../d9/df7/classcontroller_1_1_controller.html#a89b63f37e67efbeddda1f247016c837b" target="_top" xlink:title="controller.Controller.process\lCommand">
<polygon fill="white" stroke="black" points="847,-684 847,-714 997,-714 997,-684 847,-684"/>
<text text-anchor="start" x="855" y="-702" font-family="Helvetica,sans-Serif" font-size="10.00">controller.Controller.process</text>
<text text-anchor="middle" x="922" y="-691" font-family="Helvetica,sans-Serif" font-size="10.00">Command</text>
</a>
</g>
</g>
<!-- Node5&#45;&gt;Node9 -->
<g id="edge8" class="edge"><title>Node5&#45;&gt;Node9</title>
<path fill="none" stroke="midnightblue" d="M717.434,-420.888C724.67,-471.198 750.733,-604.462 830,-674 835.05,-678.43 840.816,-682.082 846.94,-685.092"/>
<polygon fill="midnightblue" stroke="midnightblue" points="720.868,-420.156 716.07,-410.71 713.93,-421.087 720.868,-420.156"/>
</g>
<!-- Node12 -->
<g id="node12" class="node"><title>Node12</title>
<g id="a_node12"><a xlink:href="../../d9/df7/classcontroller_1_1_controller.html#aec5e242ff69899c974dbd6302510f70b" target="_top" xlink:title="controller.Controller.processFile">
<polygon fill="white" stroke="black" points="839.5,-645.5 839.5,-664.5 1004.5,-664.5 1004.5,-645.5 839.5,-645.5"/>
<text text-anchor="middle" x="922" y="-652.5" font-family="Helvetica,sans-Serif" font-size="10.00">controller.Controller.processFile</text>
</a>
</g>
</g>
<!-- Node5&#45;&gt;Node12 -->
<g id="edge11" class="edge"><title>Node5&#45;&gt;Node12</title>
<path fill="none" stroke="midnightblue" d="M718.607,-420.852C728.017,-466.61 757.777,-579.859 830,-636 834.842,-639.764 840.252,-642.829 845.954,-645.32"/>
<polygon fill="midnightblue" stroke="midnightblue" points="722.031,-420.125 716.682,-410.98 715.16,-421.465 722.031,-420.125"/>
</g>
<!-- Node17 -->
<g id="node17" class="node"><title>Node17</title>
<g id="a_node17"><a xlink:href="../../d1/d01/classparser_1_1tests_1_1_boolean_tester.html#ab009444f79be316835e50742f06550a9" target="_top" xlink:title="parser.tests.BooleanTester.testAnd">
<polygon fill="white" stroke="black" points="830,-607.5 830,-626.5 1014,-626.5 1014,-607.5 830,-607.5"/>
<text text-anchor="middle" x="922" y="-614.5" font-family="Helvetica,sans-Serif" font-size="10.00">parser.tests.BooleanTester.testAnd</text>
</a>
</g>
</g>
<!-- Node5&#45;&gt;Node17 -->
<g id="edge17" class="edge"><title>Node5&#45;&gt;Node17</title>
<path fill="none" stroke="midnightblue" d="M720.58,-420.444C733.081,-460.32 767.272,-551.43 830,-597 835.889,-601.278 842.52,-604.67 849.449,-607.356"/>
<polygon fill="midnightblue" stroke="midnightblue" points="723.861,-419.2 717.624,-410.636 717.159,-421.22 723.861,-419.2"/>
</g>
<!-- Node18 -->
<g id="node18" class="node"><title>Node18</title>
<g id="a_node18"><a xlink:href="../../d3/d64/classparser_1_1tests_1_1_math_tester.html#a1677c0f6237b5c48799087b702e713ca" target="_top" xlink:title="parser.tests.MathTester.test\lDifference">
<polygon fill="white" stroke="black" points="847,-558 847,-588 997,-588 997,-558 847,-558"/>
<text text-anchor="start" x="855" y="-576" font-family="Helvetica,sans-Serif" font-size="10.00">parser.tests.MathTester.test</text>
<text text-anchor="middle" x="922" y="-565" font-family="Helvetica,sans-Serif" font-size="10.00">Difference</text>
</a>
</g>
</g>
<!-- Node5&#45;&gt;Node18 -->
<g id="edge18" class="edge"><title>Node5&#45;&gt;Node18</title>
<path fill="none" stroke="midnightblue" d="M724.383,-419.615C741.171,-450.994 779.382,-514.29 830,-548 835.864,-551.905 842.325,-555.204 849.018,-557.989"/>
<polygon fill="midnightblue" stroke="midnightblue" points="727.423,-417.875 719.696,-410.626 721.216,-421.111 727.423,-417.875"/>
</g>
<!-- Node19 -->
<g id="node19" class="node"><title>Node19</title>
<g id="a_node19"><a xlink:href="../../d1/d01/classparser_1_1tests_1_1_boolean_tester.html#a99be1a3a9584ed717090f5bb310bdae0" target="_top" xlink:title="parser.tests.BooleanTester.test\lEqual">
<polygon fill="white" stroke="black" points="839.5,-509 839.5,-539 1004.5,-539 1004.5,-509 839.5,-509"/>
<text text-anchor="start" x="847.5" y="-527" font-family="Helvetica,sans-Serif" font-size="10.00">parser.tests.BooleanTester.test</text>
<text text-anchor="middle" x="922" y="-516" font-family="Helvetica,sans-Serif" font-size="10.00">Equal</text>
</a>
</g>
</g>
<!-- Node5&#45;&gt;Node19 -->
<g id="edge19" class="edge"><title>Node5&#45;&gt;Node19</title>
<path fill="none" stroke="midnightblue" d="M730.495,-418.226C751.122,-440.132 789.709,-477.668 830,-499 837.24,-502.833 845.123,-506.123 853.122,-508.935"/>
<polygon fill="midnightblue" stroke="midnightblue" points="732.861,-415.629 723.502,-410.662 727.72,-420.381 732.861,-415.629"/>
</g>
<!-- Node20 -->
<g id="node20" class="node"><title>Node20</title>
<g id="a_node20"><a xlink:href="../../d1/d01/classparser_1_1tests_1_1_boolean_tester.html#ad5101fc213b8aeaa37baf5e3b5868d9d" target="_top" xlink:title="parser.tests.BooleanTester.test\lGreaterThan">
<polygon fill="white" stroke="black" points="839.5,-460 839.5,-490 1004.5,-490 1004.5,-460 839.5,-460"/>
<text text-anchor="start" x="847.5" y="-478" font-family="Helvetica,sans-Serif" font-size="10.00">parser.tests.BooleanTester.test</text>
<text text-anchor="middle" x="922" y="-467" font-family="Helvetica,sans-Serif" font-size="10.00">GreaterThan</text>
</a>
</g>
</g>
<!-- Node5&#45;&gt;Node20 -->
<g id="edge20" class="edge"><title>Node5&#45;&gt;Node20</title>
<path fill="none" stroke="midnightblue" d="M744.234,-414.751C767.225,-425.247 800.235,-439.623 830,-450 840.056,-453.506 850.872,-456.843 861.414,-459.871"/>
<polygon fill="midnightblue" stroke="midnightblue" points="745.581,-411.518 735.033,-410.513 742.652,-417.876 745.581,-411.518"/>
</g>
<!-- Node21 -->
<g id="node21" class="node"><title>Node21</title>
<g id="a_node21"><a xlink:href="../../d1/d01/classparser_1_1tests_1_1_boolean_tester.html#a828f5f4183434799d083a68a00791dba" target="_top" xlink:title="parser.tests.BooleanTester.test\lLessThan">
<polygon fill="white" stroke="black" points="839.5,-411 839.5,-441 1004.5,-441 1004.5,-411 839.5,-411"/>
<text text-anchor="start" x="847.5" y="-429" font-family="Helvetica,sans-Serif" font-size="10.00">parser.tests.BooleanTester.test</text>
<text text-anchor="middle" x="922" y="-418" font-family="Helvetica,sans-Serif" font-size="10.00">LessThan</text>
</a>
</g>
</g>
<!-- Node5&#45;&gt;Node21 -->
<g id="edge21" class="edge"><title>Node5&#45;&gt;Node21</title>
<path fill="none" stroke="midnightblue" d="M803.408,-411.729C815.335,-413.177 827.527,-414.656 839.329,-416.088"/>
<polygon fill="midnightblue" stroke="midnightblue" points="803.816,-408.253 793.467,-410.523 802.973,-415.202 803.816,-408.253"/>
</g>
<!-- Node22 -->
<g id="node22" class="node"><title>Node22</title>
<g id="a_node22"><a xlink:href="../../d3/d64/classparser_1_1tests_1_1_math_tester.html#a06cade99788206056814bc20735cd193" target="_top" xlink:title="parser.tests.MathTester.test\lMinus">
<polygon fill="white" stroke="black" points="847,-362 847,-392 997,-392 997,-362 847,-362"/>
<text text-anchor="start" x="855" y="-380" font-family="Helvetica,sans-Serif" font-size="10.00">parser.tests.MathTester.test</text>
<text text-anchor="middle" x="922" y="-369" font-family="Helvetica,sans-Serif" font-size="10.00">Minus</text>
</a>
</g>
</g>
<!-- Node5&#45;&gt;Node22 -->
<g id="edge22" class="edge"><title>Node5&#45;&gt;Node22</title>
<path fill="none" stroke="midnightblue" d="M804.04,-390.626C818.265,-388.969 832.852,-387.27 846.689,-385.658"/>
<polygon fill="midnightblue" stroke="midnightblue" points="803.289,-387.19 793.762,-391.824 804.099,-394.143 803.289,-387.19"/>
</g>
<!-- Node23 -->
<g id="node23" class="node"><title>Node23</title>
<g id="a_node23"><a xlink:href="../../d1/d01/classparser_1_1tests_1_1_boolean_tester.html#a402bae747c40cf9030ea6e85a44b10d2" target="_top" xlink:title="parser.tests.BooleanTester.testNot">
<polygon fill="white" stroke="black" points="831,-323.5 831,-342.5 1013,-342.5 1013,-323.5 831,-323.5"/>
<text text-anchor="middle" x="922" y="-330.5" font-family="Helvetica,sans-Serif" font-size="10.00">parser.tests.BooleanTester.testNot</text>
</a>
</g>
</g>
<!-- Node5&#45;&gt;Node23 -->
<g id="edge23" class="edge"><title>Node5&#45;&gt;Node23</title>
<path fill="none" stroke="midnightblue" d="M744.122,-387.135C767.051,-376.64 800.034,-362.463 830,-353 842.803,-348.957 856.869,-345.433 870.035,-342.517"/>
<polygon fill="midnightblue" stroke="midnightblue" points="742.552,-384.005 734.949,-391.383 745.494,-390.357 742.552,-384.005"/>
</g>
<!-- Node24 -->
<g id="node24" class="node"><title>Node24</title>
<g id="a_node24"><a xlink:href="../../d1/d01/classparser_1_1tests_1_1_boolean_tester.html#ac0deac7b7ba9e48e30a9ed6cff134d09" target="_top" xlink:title="parser.tests.BooleanTester.test\lNotEqual">
<polygon fill="white" stroke="black" points="839.5,-274 839.5,-304 1004.5,-304 1004.5,-274 839.5,-274"/>
<text text-anchor="start" x="847.5" y="-292" font-family="Helvetica,sans-Serif" font-size="10.00">parser.tests.BooleanTester.test</text>
<text text-anchor="middle" x="922" y="-281" font-family="Helvetica,sans-Serif" font-size="10.00">NotEqual</text>
</a>
</g>
</g>
<!-- Node5&#45;&gt;Node24 -->
<g id="edge24" class="edge"><title>Node5&#45;&gt;Node24</title>
<path fill="none" stroke="midnightblue" d="M732.479,-384.339C753.863,-364.816 791.937,-332.758 830,-314 837.642,-310.234 845.934,-306.966 854.297,-304.15"/>
<polygon fill="midnightblue" stroke="midnightblue" points="729.831,-382.021 724.885,-391.39 734.594,-387.151 729.831,-382.021"/>
</g>
<!-- Node25 -->
<g id="node25" class="node"><title>Node25</title>
<g id="a_node25"><a xlink:href="../../d1/d01/classparser_1_1tests_1_1_boolean_tester.html#a733a8bed2ef17160461077bd2e53490c" target="_top" xlink:title="parser.tests.BooleanTester.testOr">
<polygon fill="white" stroke="black" points="834,-235.5 834,-254.5 1010,-254.5 1010,-235.5 834,-235.5"/>
<text text-anchor="middle" x="922" y="-242.5" font-family="Helvetica,sans-Serif" font-size="10.00">parser.tests.BooleanTester.testOr</text>
</a>
</g>
</g>
<!-- Node5&#45;&gt;Node25 -->
<g id="edge25" class="edge"><title>Node5&#45;&gt;Node25</title>
<path fill="none" stroke="midnightblue" d="M725.304,-382.273C742.738,-352.457 780.992,-294.551 830,-265 837.203,-260.657 845.235,-257.253 853.461,-254.585"/>
<polygon fill="midnightblue" stroke="midnightblue" points="722.113,-380.805 720.205,-391.227 728.195,-384.27 722.113,-380.805"/>
</g>
<!-- Node26 -->
<g id="node26" class="node"><title>Node26</title>
<g id="a_node26"><a xlink:href="../../d3/d64/classparser_1_1tests_1_1_math_tester.html#af3c9e732ab91e0cad71ea7cd66a7a0d4" target="_top" xlink:title="parser.tests.MathTester.test\lProduct">
<polygon fill="white" stroke="black" points="847,-186 847,-216 997,-216 997,-186 847,-186"/>
<text text-anchor="start" x="855" y="-204" font-family="Helvetica,sans-Serif" font-size="10.00">parser.tests.MathTester.test</text>
<text text-anchor="middle" x="922" y="-193" font-family="Helvetica,sans-Serif" font-size="10.00">Product</text>
</a>
</g>
</g>
<!-- Node5&#45;&gt;Node26 -->
<g id="edge26" class="edge"><title>Node5&#45;&gt;Node26</title>
<path fill="none" stroke="midnightblue" d="M722.167,-381.893C736.725,-345.739 773.268,-267.257 830,-226 835.3,-222.146 841.166,-218.885 847.291,-216.128"/>
<polygon fill="midnightblue" stroke="midnightblue" points="718.876,-380.697 718.5,-391.285 725.397,-383.243 718.876,-380.697"/>
</g>
<!-- Node27 -->
<g id="node27" class="node"><title>Node27</title>
<g id="a_node27"><a xlink:href="../../d3/d64/classparser_1_1tests_1_1_math_tester.html#a0bee886e0100c55a64fb804fa462e079" target="_top" xlink:title="parser.tests.MathTester.test\lQuotient">
<polygon fill="white" stroke="black" points="847,-137 847,-167 997,-167 997,-137 847,-137"/>
<text text-anchor="start" x="855" y="-155" font-family="Helvetica,sans-Serif" font-size="10.00">parser.tests.MathTester.test</text>
<text text-anchor="middle" x="922" y="-144" font-family="Helvetica,sans-Serif" font-size="10.00">Quotient</text>
</a>
</g>
</g>
<!-- Node5&#45;&gt;Node27 -->
<g id="edge27" class="edge"><title>Node5&#45;&gt;Node27</title>
<path fill="none" stroke="midnightblue" d="M719.421,-381.2C730.244,-337.44 762.272,-232.027 830,-177 835.086,-172.867 840.805,-169.416 846.834,-166.534"/>
<polygon fill="midnightblue" stroke="midnightblue" points="715.963,-380.616 717.068,-391.153 722.775,-382.227 715.963,-380.616"/>
</g>
<!-- Node28 -->
<g id="node28" class="node"><title>Node28</title>
<g id="a_node28"><a xlink:href="../../d3/d64/classparser_1_1tests_1_1_math_tester.html#a0834a1beeeb3689ab52b3523b1ec053e" target="_top" xlink:title="parser.tests.MathTester.test\lRandom">
<polygon fill="white" stroke="black" points="847,-88 847,-118 997,-118 997,-88 847,-88"/>
<text text-anchor="start" x="855" y="-106" font-family="Helvetica,sans-Serif" font-size="10.00">parser.tests.MathTester.test</text>
<text text-anchor="middle" x="922" y="-95" font-family="Helvetica,sans-Serif" font-size="10.00">Random</text>
</a>
</g>
</g>
<!-- Node5&#45;&gt;Node28 -->
<g id="edge28" class="edge"><title>Node5&#45;&gt;Node28</title>
<path fill="none" stroke="midnightblue" d="M717.434,-381.112C724.67,-330.802 750.733,-197.538 830,-128 835.05,-123.57 840.816,-119.918 846.94,-116.908"/>
<polygon fill="midnightblue" stroke="midnightblue" points="713.93,-380.913 716.07,-391.29 720.868,-381.844 713.93,-380.913"/>
</g>
<!-- Node29 -->
<g id="node29" class="node"><title>Node29</title>
<g id="a_node29"><a xlink:href="../../d3/d64/classparser_1_1tests_1_1_math_tester.html#aeba46a296188edda903e21c6be23bdd8" target="_top" xlink:title="parser.tests.MathTester.test\lRemainder">
<polygon fill="white" stroke="black" points="847,-39 847,-69 997,-69 997,-39 847,-39"/>
<text text-anchor="start" x="855" y="-57" font-family="Helvetica,sans-Serif" font-size="10.00">parser.tests.MathTester.test</text>
<text text-anchor="middle" x="922" y="-46" font-family="Helvetica,sans-Serif" font-size="10.00">Remainder</text>
</a>
</g>
</g>
<!-- Node5&#45;&gt;Node29 -->
<g id="edge29" class="edge"><title>Node5&#45;&gt;Node29</title>
<path fill="none" stroke="midnightblue" d="M715.977,-381.41C719.852,-325.471 738.805,-163.607 830,-79 834.924,-74.4313 840.606,-70.6847 846.675,-67.6142"/>
<polygon fill="midnightblue" stroke="midnightblue" points="712.483,-381.21 715.372,-391.403 719.47,-381.633 712.483,-381.21"/>
</g>
<!-- Node30 -->
<g id="node30" class="node"><title>Node30</title>
<g id="a_node30"><a xlink:href="../../d3/d64/classparser_1_1tests_1_1_math_tester.html#a0059e207747b76f3579b4218cfe7c5dc" target="_top" xlink:title="parser.tests.MathTester.testSum">
<polygon fill="white" stroke="black" points="835.5,-0.5 835.5,-19.5 1008.5,-19.5 1008.5,-0.5 835.5,-0.5"/>
<text text-anchor="middle" x="922" y="-7.5" font-family="Helvetica,sans-Serif" font-size="10.00">parser.tests.MathTester.testSum</text>
</a>
</g>
</g>
<!-- Node5&#45;&gt;Node30 -->
<g id="edge30" class="edge"><title>Node5&#45;&gt;Node30</title>
<path fill="none" stroke="midnightblue" d="M714.693,-381.155C714.882,-319.1 724.356,-127.099 830,-30 834.645,-25.731 839.986,-22.2985 845.704,-19.5468"/>
<polygon fill="midnightblue" stroke="midnightblue" points="711.195,-381.493 714.75,-391.473 718.195,-381.454 711.195,-381.493"/>
</g>
<!-- Node7 -->
<g id="node7" class="node"><title>Node7</title>
<g id="a_node7"><a xlink:href="../../d7/dde/classparser_1_1_main.html#ac3abd936d94632f17feedf0cce82afff" target="_top" xlink:title="parser.Main.main">
<polygon fill="white" stroke="black" points="1067.5,-771.5 1067.5,-790.5 1166.5,-790.5 1166.5,-771.5 1067.5,-771.5"/>
<text text-anchor="middle" x="1117" y="-778.5" font-family="Helvetica,sans-Serif" font-size="10.00">parser.Main.main</text>
</a>
</g>
</g>
<!-- Node6&#45;&gt;Node7 -->
<g id="edge6" class="edge"><title>Node6&#45;&gt;Node7</title>
<path fill="none" stroke="midnightblue" d="M991.366,-781C1016.47,-781 1044.36,-781 1067.38,-781"/>
<polygon fill="midnightblue" stroke="midnightblue" points="991.168,-777.5 981.168,-781 991.168,-784.5 991.168,-777.5"/>
</g>
<!-- Node10 -->
<g id="node10" class="node"><title>Node10</title>
<g id="a_node10"><a xlink:href="../../d9/df7/classcontroller_1_1_controller.html#a2bfb87bca460d87b2c97e0b5045a2175" target="_top" xlink:title="controller.Controller.create\lRunCommandListener">
<polygon fill="white" stroke="black" points="1220.5,-686 1220.5,-716 1363.5,-716 1363.5,-686 1220.5,-686"/>
<text text-anchor="start" x="1228.5" y="-704" font-family="Helvetica,sans-Serif" font-size="10.00">controller.Controller.create</text>
<text text-anchor="middle" x="1292" y="-693" font-family="Helvetica,sans-Serif" font-size="10.00">RunCommandListener</text>
</a>
</g>
</g>
<!-- Node9&#45;&gt;Node10 -->
<g id="edge9" class="edge"><title>Node9&#45;&gt;Node10</title>
<path fill="none" stroke="midnightblue" d="M1007.16,-699.457C1071.57,-699.807 1159.39,-700.285 1220.21,-700.615"/>
<polygon fill="midnightblue" stroke="midnightblue" points="1007.05,-695.957 997.028,-699.402 1007.01,-702.957 1007.05,-695.957"/>
</g>
<!-- Node11 -->
<g id="node11" class="node"><title>Node11</title>
<g id="a_node11"><a xlink:href="../../d9/df7/classcontroller_1_1_controller.html#a47511ec57338c8e75e71e9314cda5271" target="_top" xlink:title="controller.Controller.Controller">
<polygon fill="white" stroke="black" points="1760.5,-667.5 1760.5,-686.5 1919.5,-686.5 1919.5,-667.5 1760.5,-667.5"/>
<text text-anchor="middle" x="1840" y="-674.5" font-family="Helvetica,sans-Serif" font-size="10.00">controller.Controller.Controller</text>
</a>
</g>
</g>
<!-- Node10&#45;&gt;Node11 -->
<g id="edge10" class="edge"><title>Node10&#45;&gt;Node11</title>
<path fill="none" stroke="midnightblue" d="M1373.67,-697.454C1477.64,-692.884 1657.25,-684.989 1760.27,-680.461"/>
<polygon fill="midnightblue" stroke="midnightblue" points="1373.38,-693.963 1363.54,-697.899 1373.69,-700.957 1373.38,-693.963"/>
</g>
<!-- Node13 -->
<g id="node13" class="node"><title>Node13</title>
<g id="a_node13"><a xlink:href="../../d9/df7/classcontroller_1_1_controller.html#a37c3009658f66dc4de0be01b75adf660" target="_top" xlink:title="controller.Controller.load\lWorkspace">
<polygon fill="white" stroke="black" points="1050.5,-638 1050.5,-668 1183.5,-668 1183.5,-638 1050.5,-638"/>
<text text-anchor="start" x="1058.5" y="-656" font-family="Helvetica,sans-Serif" font-size="10.00">controller.Controller.load</text>
<text text-anchor="middle" x="1117" y="-645" font-family="Helvetica,sans-Serif" font-size="10.00">Workspace</text>
</a>
</g>
</g>
<!-- Node12&#45;&gt;Node13 -->
<g id="edge12" class="edge"><title>Node12&#45;&gt;Node13</title>
<path fill="none" stroke="midnightblue" d="M1014.62,-654.051C1026.63,-653.926 1038.74,-653.801 1050.21,-653.682"/>
<polygon fill="midnightblue" stroke="midnightblue" points="1014.53,-650.551 1004.57,-654.155 1014.61,-657.551 1014.53,-650.551"/>
</g>
<!-- Node14 -->
<g id="node14" class="node"><title>Node14</title>
<g id="a_node14"><a xlink:href="../../d9/df7/classcontroller_1_1_controller.html#aa46804b9ca132af8504b5dafb1cadb0d" target="_top" xlink:title="controller.Controller.create\lFileCommands">
<polygon fill="white" stroke="black" points="1220.5,-637 1220.5,-667 1363.5,-667 1363.5,-637 1220.5,-637"/>
<text text-anchor="start" x="1228.5" y="-655" font-family="Helvetica,sans-Serif" font-size="10.00">controller.Controller.create</text>
<text text-anchor="middle" x="1292" y="-644" font-family="Helvetica,sans-Serif" font-size="10.00">FileCommands</text>
</a>
</g>
</g>
<!-- Node13&#45;&gt;Node14 -->
<g id="edge13" class="edge"><title>Node13&#45;&gt;Node14</title>
<path fill="none" stroke="midnightblue" d="M1194.08,-652.56C1202.83,-652.51 1211.72,-652.458 1220.39,-652.408"/>
<polygon fill="midnightblue" stroke="midnightblue" points="1193.88,-649.061 1183.9,-652.619 1193.92,-656.061 1193.88,-649.061"/>
</g>
<!-- Node15 -->
<g id="node15" class="node"><title>Node15</title>
<g id="a_node15"><a xlink:href="../../d9/df7/classcontroller_1_1_controller.html#af4c05286f1534b1fa6de523c54549288" target="_top" xlink:title="controller.Controller.create\lFileMenu">
<polygon fill="white" stroke="black" points="1400.5,-639 1400.5,-669 1543.5,-669 1543.5,-639 1400.5,-639"/>
<text text-anchor="start" x="1408.5" y="-657" font-family="Helvetica,sans-Serif" font-size="10.00">controller.Controller.create</text>
<text text-anchor="middle" x="1472" y="-646" font-family="Helvetica,sans-Serif" font-size="10.00">FileMenu</text>
</a>
</g>
</g>
<!-- Node14&#45;&gt;Node15 -->
<g id="edge14" class="edge"><title>Node14&#45;&gt;Node15</title>
<path fill="none" stroke="midnightblue" d="M1373.65,-652.906C1382.6,-653.007 1391.67,-653.109 1400.48,-653.208"/>
<polygon fill="midnightblue" stroke="midnightblue" points="1373.64,-649.406 1363.61,-652.793 1373.57,-656.406 1373.64,-649.406"/>
</g>
<!-- Node16 -->
<g id="node16" class="node"><title>Node16</title>
<g id="a_node16"><a xlink:href="../../d9/df7/classcontroller_1_1_controller.html#a2901bf43bb8e47b485558dbf00d40d6d" target="_top" xlink:title="controller.Controller.create\lJMenuBar">
<polygon fill="white" stroke="black" points="1580.5,-640 1580.5,-670 1723.5,-670 1723.5,-640 1580.5,-640"/>
<text text-anchor="start" x="1588.5" y="-658" font-family="Helvetica,sans-Serif" font-size="10.00">controller.Controller.create</text>
<text text-anchor="middle" x="1652" y="-647" font-family="Helvetica,sans-Serif" font-size="10.00">JMenuBar</text>
</a>
</g>
</g>
<!-- Node15&#45;&gt;Node16 -->
<g id="edge15" class="edge"><title>Node15&#45;&gt;Node16</title>
<path fill="none" stroke="midnightblue" d="M1553.65,-654.453C1562.6,-654.503 1571.67,-654.554 1580.48,-654.604"/>
<polygon fill="midnightblue" stroke="midnightblue" points="1553.63,-650.953 1543.61,-654.397 1553.59,-657.953 1553.63,-650.953"/>
</g>
<!-- Node16&#45;&gt;Node11 -->
<g id="edge16" class="edge"><title>Node16&#45;&gt;Node11</title>
<path fill="none" stroke="midnightblue" d="M1733.55,-664.527C1742.45,-665.58 1751.5,-666.651 1760.38,-667.701"/>
<polygon fill="midnightblue" stroke="midnightblue" points="1733.93,-661.048 1723.58,-663.349 1733.1,-667.999 1733.93,-661.048"/>
</g>
</g>
</svg>
