<?xml version="1.0" encoding="UTF-8" standalone="no"?>
<!DOCTYPE svg PUBLIC "-//W3C//DTD SVG 1.1//EN"
 "http://www.w3.org/Graphics/SVG/1.1/DTD/svg11.dtd">
<!-- Generated by graphviz version 2.36.0 (20140111.2315)
 -->
<!-- Title: parser.nodes.UnaryNode Pages: 1 -->
<!--zoomable 623 -->
<svg id="main" version="1.1" xmlns="http://www.w3.org/2000/svg" xmlns:xlink="http://www.w3.org/1999/xlink" xml:space="preserve" onload="init(evt)">
<style type="text/css"><![CDATA[
.edge:hover path { stroke: red; }
.edge:hover polygon { stroke: red; fill: red; }
]]></style>
<script type="text/javascript"><![CDATA[
var edges = document.getElementsByTagName('g');
if (edges && edges.length) {
  for (var i=0;i<edges.length;i++) {
    if (edges[i].id.substr(0,4)=='edge') {
      edges[i].setAttribute('class','edge');
    }
  }
}
]]></script>
        <defs>
                <circle id="rim" cx="0" cy="0" r="7"/>
                <circle id="rim2" cx="0" cy="0" r="3.5"/>
                <g id="zoomPlus">
                        <use xlink:href="#rim" fill="#404040">
                                <set attributeName="fill" to="#808080" begin="zoomplus.mouseover" end="zoomplus.mouseout"/>
                        </use>
                        <path d="M-4,0h8M0,-4v8" fill="none" stroke="white" stroke-width="1.5" pointer-events="none"/>
                </g>
                <g id="zoomMin">
                        <use xlink:href="#rim" fill="#404040">
                                <set attributeName="fill" to="#808080" begin="zoomminus.mouseover" end="zoomminus.mouseout"/>
                        </use>
                        <path d="M-4,0h8" fill="none" stroke="white" stroke-width="1.5" pointer-events="none"/>
                </g>
                <g id="dirArrow">
                        <path fill="none" stroke="white" stroke-width="1.5" d="M0,-3.0v7 M-2.5,-0.5L0,-3.0L2.5,-0.5"/>
                </g>
               <g id="resetDef">
                       <use xlink:href="#rim2" fill="#404040">
                               <set attributeName="fill" to="#808080" begin="reset.mouseover" end="reset.mouseout"/>
                       </use>
               </g>
        </defs>

<script type="text/javascript">
var viewWidth = 760;
var viewHeight = 623;
var sectionId = 'dynsection-0';
</script>
<script xlink:href="../../svgpan.js"/>
<svg id="graph" class="graph">
<g id="viewport">
<title>parser.nodes.UnaryNode</title>
<polygon fill="white" stroke="none" points="-4,4 -4,-619 756,-619 756,4 -4,4"/>
<!-- Node1 -->
<g id="node1" class="node"><title>Node1</title>
<polygon fill="#bfbfbf" stroke="black" points="370,-313.5 370,-332.5 506,-332.5 506,-313.5 370,-313.5"/>
<text text-anchor="middle" x="438" y="-320.5" font-family="Helvetica,sans-Serif" font-size="10.00">parser.nodes.UnaryNode</text>
</g>
<!-- Node4 -->
<g id="node4" class="node"><title>Node4</title>
<g id="a_node4"><a xlink:href="../../da/d3d/classparser_1_1commands_1_1bool_1_1_not.html" target="_top" xlink:title="parser.commands.bool.Not">
<polygon fill="white" stroke="black" points="573.5,-595.5 573.5,-614.5 720.5,-614.5 720.5,-595.5 573.5,-595.5"/>
<text text-anchor="middle" x="647" y="-602.5" font-family="Helvetica,sans-Serif" font-size="10.00">parser.commands.bool.Not</text>
</a>
</g>
</g>
<!-- Node1&#45;&gt;Node4 -->
<g id="edge3" class="edge"><title>Node1&#45;&gt;Node4</title>
<path fill="none" stroke="midnightblue" d="M440.395,-342.523C445.032,-391.846 464.403,-522.072 542,-586 550.995,-593.411 561.927,-598.314 573.281,-601.498"/>
<polygon fill="midnightblue" stroke="midnightblue" points="443.881,-342.213 439.559,-332.54 436.906,-342.797 443.881,-342.213"/>
</g>
<!-- Node5 -->
<g id="node5" class="node"><title>Node5</title>
<g id="a_node5"><a xlink:href="../../d0/dd3/classparser_1_1commands_1_1math_1_1_minus.html" target="_top" xlink:title="parser.commands.math.Minus">
<polygon fill="white" stroke="black" points="565.5,-557.5 565.5,-576.5 728.5,-576.5 728.5,-557.5 565.5,-557.5"/>
<text text-anchor="middle" x="647" y="-564.5" font-family="Helvetica,sans-Serif" font-size="10.00">parser.commands.math.Minus</text>
</a>
</g>
</g>
<!-- Node1&#45;&gt;Node5 -->
<g id="edge4" class="edge"><title>Node1&#45;&gt;Node5</title>
<path fill="none" stroke="midnightblue" d="M441.833,-342.655C449.329,-387.006 473.996,-495.102 542,-548 548.954,-553.409 556.956,-557.458 565.37,-560.466"/>
<polygon fill="midnightblue" stroke="midnightblue" points="445.262,-341.933 440.248,-332.6 438.348,-343.023 445.262,-341.933"/>
</g>
<!-- Node6 -->
<g id="node6" class="node"><title>Node6</title>
<g id="a_node6"><a xlink:href="../../dd/db0/classparser_1_1commands_1_1math_1_1_random.html" target="_top" xlink:title="parser.commands.math.Random">
<polygon fill="white" stroke="black" points="559.5,-519.5 559.5,-538.5 734.5,-538.5 734.5,-519.5 559.5,-519.5"/>
<text text-anchor="middle" x="647" y="-526.5" font-family="Helvetica,sans-Serif" font-size="10.00">parser.commands.math.Random</text>
</a>
</g>
</g>
<!-- Node1&#45;&gt;Node6 -->
<g id="edge5" class="edge"><title>Node1&#45;&gt;Node6</title>
<path fill="none" stroke="midnightblue" d="M443.87,-342.585C454.539,-381.139 483.802,-466.787 542,-509 547.879,-513.264 554.42,-516.689 561.278,-519.431"/>
<polygon fill="midnightblue" stroke="midnightblue" points="447.179,-341.408 441.244,-332.632 440.411,-343.194 447.179,-341.408"/>
</g>
<!-- Node7 -->
<g id="node7" class="node"><title>Node7</title>
<g id="a_node7"><a xlink:href="../../db/d45/classparser_1_1commands_1_1turtle_1_1commands_1_1_backward.html" target="_top" xlink:title="parser.commands.turtle.commands.\lBackward">
<polygon fill="white" stroke="black" points="551,-470 551,-500 743,-500 743,-470 551,-470"/>
<text text-anchor="start" x="559" y="-488" font-family="Helvetica,sans-Serif" font-size="10.00">parser.commands.turtle.commands.</text>
<text text-anchor="middle" x="647" y="-477" font-family="Helvetica,sans-Serif" font-size="10.00">Backward</text>
</a>
</g>
</g>
<!-- Node1&#45;&gt;Node7 -->
<g id="edge6" class="edge"><title>Node1&#45;&gt;Node7</title>
<path fill="none" stroke="midnightblue" d="M447.931,-342.15C462.947,-372.15 496.164,-429.903 542,-460 547.899,-463.873 554.338,-467.147 561.027,-469.915"/>
<polygon fill="midnightblue" stroke="midnightblue" points="450.903,-340.256 443.389,-332.787 444.605,-343.311 450.903,-340.256"/>
</g>
<!-- Node8 -->
<g id="node8" class="node"><title>Node8</title>
<g id="a_node8"><a xlink:href="../../de/d5d/classparser_1_1commands_1_1turtle_1_1commands_1_1_forward.html" target="_top" xlink:title="parser.commands.turtle.commands.\lForward">
<polygon fill="white" stroke="black" points="551,-421 551,-451 743,-451 743,-421 551,-421"/>
<text text-anchor="start" x="559" y="-439" font-family="Helvetica,sans-Serif" font-size="10.00">parser.commands.turtle.commands.</text>
<text text-anchor="middle" x="647" y="-428" font-family="Helvetica,sans-Serif" font-size="10.00">Forward</text>
</a>
</g>
</g>
<!-- Node1&#45;&gt;Node8 -->
<g id="edge7" class="edge"><title>Node1&#45;&gt;Node8</title>
<path fill="none" stroke="midnightblue" d="M454.124,-340.104C472.793,-360.136 506.456,-392.879 542,-411 549.61,-414.88 557.843,-418.172 566.23,-420.964"/>
<polygon fill="midnightblue" stroke="midnightblue" points="456.621,-337.648 447.296,-332.619 451.45,-342.366 456.621,-337.648"/>
</g>
<!-- Node9 -->
<g id="node9" class="node"><title>Node9</title>
<g id="a_node9"><a xlink:href="../../de/dc8/classparser_1_1commands_1_1turtle_1_1commands_1_1_left.html" target="_top" xlink:title="parser.commands.turtle.commands.Left">
<polygon fill="white" stroke="black" points="542,-382.5 542,-401.5 752,-401.5 752,-382.5 542,-382.5"/>
<text text-anchor="middle" x="647" y="-389.5" font-family="Helvetica,sans-Serif" font-size="10.00">parser.commands.turtle.commands.Left</text>
</a>
</g>
</g>
<!-- Node1&#45;&gt;Node9 -->
<g id="edge8" class="edge"><title>Node1&#45;&gt;Node9</title>
<path fill="none" stroke="midnightblue" d="M464.537,-337.398C484.934,-348.338 514.549,-362.994 542,-372 554.928,-376.241 569.072,-379.702 582.649,-382.479"/>
<polygon fill="midnightblue" stroke="midnightblue" points="466.04,-334.231 455.585,-332.516 462.689,-340.377 466.04,-334.231"/>
</g>
<!-- Node10 -->
<g id="node10" class="node"><title>Node10</title>
<g id="a_node10"><a xlink:href="../../dc/d11/classparser_1_1commands_1_1turtle_1_1commands_1_1_nothing.html" target="_top" xlink:title="parser.commands.turtle.commands.\lNothing">
<polygon fill="white" stroke="black" points="551,-333 551,-363 743,-363 743,-333 551,-333"/>
<text text-anchor="start" x="559" y="-351" font-family="Helvetica,sans-Serif" font-size="10.00">parser.commands.turtle.commands.</text>
<text text-anchor="middle" x="647" y="-340" font-family="Helvetica,sans-Serif" font-size="10.00">Nothing</text>
</a>
</g>
</g>
<!-- Node1&#45;&gt;Node10 -->
<g id="edge9" class="edge"><title>Node1&#45;&gt;Node10</title>
<path fill="none" stroke="midnightblue" d="M516.408,-332.349C527.669,-333.709 539.371,-335.122 550.931,-336.518"/>
<polygon fill="midnightblue" stroke="midnightblue" points="516.555,-328.841 506.207,-331.117 515.715,-335.791 516.555,-328.841"/>
</g>
<!-- Node11 -->
<g id="node11" class="node"><title>Node11</title>
<g id="a_node11"><a xlink:href="../../d4/d1b/classparser_1_1commands_1_1turtle_1_1commands_1_1_right.html" target="_top" xlink:title="parser.commands.turtle.commands.\lRight">
<polygon fill="white" stroke="black" points="551,-284 551,-314 743,-314 743,-284 551,-284"/>
<text text-anchor="start" x="559" y="-302" font-family="Helvetica,sans-Serif" font-size="10.00">parser.commands.turtle.commands.</text>
<text text-anchor="middle" x="647" y="-291" font-family="Helvetica,sans-Serif" font-size="10.00">Right</text>
</a>
</g>
</g>
<!-- Node1&#45;&gt;Node11 -->
<g id="edge10" class="edge"><title>Node1&#45;&gt;Node11</title>
<path fill="none" stroke="midnightblue" d="M516.408,-314.025C527.669,-312.72 539.371,-311.363 550.931,-310.022"/>
<polygon fill="midnightblue" stroke="midnightblue" points="515.737,-310.579 506.207,-315.208 516.544,-317.533 515.737,-310.579"/>
</g>
<!-- Node12 -->
<g id="node12" class="node"><title>Node12</title>
<g id="a_node12"><a xlink:href="../../d3/da6/classparser_1_1commands_1_1turtle_1_1commands_1_1_set_heading.html" target="_top" xlink:title="parser.commands.turtle.commands.\lSetHeading">
<polygon fill="white" stroke="black" points="551,-235 551,-265 743,-265 743,-235 551,-235"/>
<text text-anchor="start" x="559" y="-253" font-family="Helvetica,sans-Serif" font-size="10.00">parser.commands.turtle.commands.</text>
<text text-anchor="middle" x="647" y="-242" font-family="Helvetica,sans-Serif" font-size="10.00">SetHeading</text>
</a>
</g>
</g>
<!-- Node1&#45;&gt;Node12 -->
<g id="edge11" class="edge"><title>Node1&#45;&gt;Node12</title>
<path fill="none" stroke="midnightblue" d="M464.995,-308.69C485.431,-297.922 514.881,-283.454 542,-274 551.536,-270.676 561.725,-267.679 571.858,-265.021"/>
<polygon fill="midnightblue" stroke="midnightblue" points="463.179,-305.692 456.009,-313.492 466.478,-311.866 463.179,-305.692"/>
</g>
<!-- Node13 -->
<g id="node13" class="node"><title>Node13</title>
<g id="a_node13"><a xlink:href="../../d3/d01/classparser_1_1commands_1_1turtle_1_1commands_1_1_set_pen_color.html" target="_top" xlink:title="parser.commands.turtle.commands.\lSetPenColor">
<polygon fill="white" stroke="black" points="551,-186 551,-216 743,-216 743,-186 551,-186"/>
<text text-anchor="start" x="559" y="-204" font-family="Helvetica,sans-Serif" font-size="10.00">parser.commands.turtle.commands.</text>
<text text-anchor="middle" x="647" y="-193" font-family="Helvetica,sans-Serif" font-size="10.00">SetPenColor</text>
</a>
</g>
</g>
<!-- Node1&#45;&gt;Node13 -->
<g id="edge12" class="edge"><title>Node1&#45;&gt;Node13</title>
<path fill="none" stroke="midnightblue" d="M452.319,-305.508C470.222,-283.273 504.199,-245.341 542,-225 548.445,-221.532 555.378,-218.562 562.494,-216.02"/>
<polygon fill="midnightblue" stroke="midnightblue" points="449.5,-303.431 446.068,-313.455 455.001,-307.759 449.5,-303.431"/>
</g>
<!-- Node14 -->
<g id="node14" class="node"><title>Node14</title>
<g id="a_node14"><a xlink:href="../../d5/d8a/classparser_1_1commands_1_1turtle_1_1commands_1_1_set_pen_size.html" target="_top" xlink:title="parser.commands.turtle.commands.\lSetPenSize">
<polygon fill="white" stroke="black" points="551,-137 551,-167 743,-167 743,-137 551,-137"/>
<text text-anchor="start" x="559" y="-155" font-family="Helvetica,sans-Serif" font-size="10.00">parser.commands.turtle.commands.</text>
<text text-anchor="middle" x="647" y="-144" font-family="Helvetica,sans-Serif" font-size="10.00">SetPenSize</text>
</a>
</g>
</g>
<!-- Node1&#45;&gt;Node14 -->
<g id="edge13" class="edge"><title>Node1&#45;&gt;Node14</title>
<path fill="none" stroke="midnightblue" d="M446.912,-303.755C461.038,-271.913 493.715,-208.554 542,-176 547.147,-172.53 552.728,-169.557 558.541,-167.01"/>
<polygon fill="midnightblue" stroke="midnightblue" points="443.563,-302.686 442.837,-313.256 449.996,-305.445 443.563,-302.686"/>
</g>
<!-- Node15 -->
<g id="node15" class="node"><title>Node15</title>
<g id="a_node15"><a xlink:href="../../d2/d5a/classparser_1_1commands_1_1turtle_1_1commands_1_1_set_shape.html" target="_top" xlink:title="parser.commands.turtle.commands.\lSetShape">
<polygon fill="white" stroke="black" points="551,-88 551,-118 743,-118 743,-88 551,-88"/>
<text text-anchor="start" x="559" y="-106" font-family="Helvetica,sans-Serif" font-size="10.00">parser.commands.turtle.commands.</text>
<text text-anchor="middle" x="647" y="-95" font-family="Helvetica,sans-Serif" font-size="10.00">SetShape</text>
</a>
</g>
</g>
<!-- Node1&#45;&gt;Node15 -->
<g id="edge14" class="edge"><title>Node1&#45;&gt;Node15</title>
<path fill="none" stroke="midnightblue" d="M443.408,-303.647C453.503,-263.941 482.176,-173.131 542,-127 546.476,-123.549 551.361,-120.579 556.495,-118.026"/>
<polygon fill="midnightblue" stroke="midnightblue" points="439.996,-302.869 441.043,-313.412 446.799,-304.517 439.996,-302.869"/>
</g>
<!-- Node16 -->
<g id="node16" class="node"><title>Node16</title>
<g id="a_node16"><a xlink:href="../../da/dbd/classparser_1_1commands_1_1view_1_1_set_background.html" target="_top" xlink:title="parser.commands.view.Set\lBackground">
<polygon fill="white" stroke="black" points="574,-39 574,-69 720,-69 720,-39 574,-39"/>
<text text-anchor="start" x="582" y="-57" font-family="Helvetica,sans-Serif" font-size="10.00">parser.commands.view.Set</text>
<text text-anchor="middle" x="647" y="-46" font-family="Helvetica,sans-Serif" font-size="10.00">Background</text>
</a>
</g>
</g>
<!-- Node1&#45;&gt;Node16 -->
<g id="edge15" class="edge"><title>Node1&#45;&gt;Node16</title>
<path fill="none" stroke="midnightblue" d="M441.224,-303.45C447.615,-256.778 470.427,-138.262 542,-78 551.143,-70.3021 562.28,-64.9597 573.827,-61.2745"/>
<polygon fill="midnightblue" stroke="midnightblue" points="437.741,-303.097 439.96,-313.457 444.685,-303.974 437.741,-303.097"/>
</g>
<!-- Node17 -->
<g id="node17" class="node"><title>Node17</title>
<g id="a_node17"><a xlink:href="../../de/d96/classparser_1_1commands_1_1workspace_1_1_tell.html" target="_top" xlink:title="parser.commands.workspace.Tell">
<polygon fill="white" stroke="black" points="560,-0.5 560,-19.5 734,-19.5 734,-0.5 560,-0.5"/>
<text text-anchor="middle" x="647" y="-7.5" font-family="Helvetica,sans-Serif" font-size="10.00">parser.commands.workspace.Tell</text>
</a>
</g>
</g>
<!-- Node1&#45;&gt;Node17 -->
<g id="edge16" class="edge"><title>Node1&#45;&gt;Node17</title>
<path fill="none" stroke="midnightblue" d="M439.512,-303.03C442.037,-249.484 456.78,-101.843 542,-29 547.372,-24.4086 553.48,-20.7684 559.981,-17.8973"/>
<polygon fill="midnightblue" stroke="midnightblue" points="436.007,-303.107 439.131,-313.231 443.002,-303.369 436.007,-303.107"/>
</g>
<!-- Node2 -->
<g id="node2" class="node"><title>Node2</title>
<g id="a_node2"><a xlink:href="../../d7/d93/classparser_1_1nodes_1_1_parameter_node.html" target="_top" xlink:title="parser.nodes.ParameterNode">
<polygon fill="white" stroke="black" points="176,-313.5 176,-332.5 334,-332.5 334,-313.5 176,-313.5"/>
<text text-anchor="middle" x="255" y="-320.5" font-family="Helvetica,sans-Serif" font-size="10.00">parser.nodes.ParameterNode</text>
</a>
</g>
</g>
<!-- Node2&#45;&gt;Node1 -->
<g id="edge1" class="edge"><title>Node2&#45;&gt;Node1</title>
<path fill="none" stroke="midnightblue" d="M344.216,-323C352.882,-323 361.577,-323 369.982,-323"/>
<polygon fill="midnightblue" stroke="midnightblue" points="344.074,-319.5 334.074,-323 344.074,-326.5 344.074,-319.5"/>
</g>
<!-- Node3 -->
<g id="node3" class="node"><title>Node3</title>
<g id="a_node3"><a xlink:href="../../da/d96/classparser_1_1nodes_1_1_syntax_node.html" target="_top" xlink:title="parser.nodes.SyntaxNode">
<polygon fill="white" stroke="black" points="0,-313.5 0,-332.5 140,-332.5 140,-313.5 0,-313.5"/>
<text text-anchor="middle" x="70" y="-320.5" font-family="Helvetica,sans-Serif" font-size="10.00">parser.nodes.SyntaxNode</text>
</a>
</g>
</g>
<!-- Node3&#45;&gt;Node2 -->
<g id="edge2" class="edge"><title>Node3&#45;&gt;Node2</title>
<path fill="none" stroke="midnightblue" d="M150.387,-323C158.825,-323 167.402,-323 175.825,-323"/>
<polygon fill="midnightblue" stroke="midnightblue" points="150.184,-319.5 140.184,-323 150.184,-326.5 150.184,-319.5"/>
</g>
</g>
</svg>
        <g id="navigator" transform="translate(0 0)" fill="#404254">
                <rect fill="#f2f5e9" fill-opacity="0.5" stroke="#606060" stroke-width=".5" x="0" y="0" width="60" height="60"/>
                <use id="zoomplus" xlink:href="#zoomPlus" x="17" y="9" onmousedown="handleZoom(evt,'in')"/>
                <use id="zoomminus" xlink:href="#zoomMin" x="42" y="9" onmousedown="handleZoom(evt,'out')"/>
                <use id="reset" xlink:href="#resetDef" x="30" y="36" onmousedown="handleReset()"/>
                <g id="arrowUp" xlink:href="#dirArrow" transform="translate(30 24)" onmousedown="handlePan(0,-1)">
                  <use xlink:href="#rim" fill="#404040">
                        <set attributeName="fill" to="#808080" begin="arrowUp.mouseover" end="arrowUp.mouseout"/>
                  </use>
                  <path fill="none" stroke="white" stroke-width="1.5" d="M0,-3.0v7 M-2.5,-0.5L0,-3.0L2.5,-0.5"/>
                </g>
                <g id="arrowRight" xlink:href="#dirArrow" transform="rotate(90) translate(36 -43)" onmousedown="handlePan(1,0)">
                  <use xlink:href="#rim" fill="#404040">
                        <set attributeName="fill" to="#808080" begin="arrowRight.mouseover" end="arrowRight.mouseout"/>
                  </use>
                  <path fill="none" stroke="white" stroke-width="1.5" d="M0,-3.0v7 M-2.5,-0.5L0,-3.0L2.5,-0.5"/>
                </g>
                <g id="arrowDown" xlink:href="#dirArrow" transform="rotate(180) translate(-30 -48)" onmousedown="handlePan(0,1)">
                  <use xlink:href="#rim" fill="#404040">
                        <set attributeName="fill" to="#808080" begin="arrowDown.mouseover" end="arrowDown.mouseout"/>
                  </use>
                  <path fill="none" stroke="white" stroke-width="1.5" d="M0,-3.0v7 M-2.5,-0.5L0,-3.0L2.5,-0.5"/>
                </g>
                <g id="arrowLeft" xlink:href="#dirArrow" transform="rotate(270) translate(-36 17)" onmousedown="handlePan(-1,0)">
                  <use xlink:href="#rim" fill="#404040">
                        <set attributeName="fill" to="#808080" begin="arrowLeft.mouseover" end="arrowLeft.mouseout"/>
                  </use>
                  <path fill="none" stroke="white" stroke-width="1.5" d="M0,-3.0v7 M-2.5,-0.5L0,-3.0L2.5,-0.5"/>
                </g>
        </g>
        <svg viewBox="0 0 15 15" width="100%" height="30px" preserveAspectRatio="xMaxYMin meet">
         <g id="arrow_out" transform="scale(0.3 0.3)">
          <a xlink:href="classparser_1_1nodes_1_1_unary_node__inherit__graph_org.svg" target="_base">
           <rect id="button" ry="5" rx="5" y="6" x="6" height="38" width="38"
                fill="#f2f5e9" fill-opacity="0.5" stroke="#606060" stroke-width="1.0"/>
           <path id="arrow"
             d="M 11.500037,31.436501 C 11.940474,20.09759 22.043105,11.32322 32.158766,21.979434 L 37.068811,17.246167 C 37.068811,17.246167 37.088388,32 37.088388,32 L 22.160133,31.978069 C 22.160133,31.978069 26.997745,27.140456 26.997745,27.140456 C 18.528582,18.264221 13.291696,25.230495 11.500037,31.436501 z"
             style="fill:#404040;"/>
          </a>
         </g>
        </svg>
</svg>
