<?xml version="1.0" encoding="UTF-8" standalone="no"?>
<!DOCTYPE svg PUBLIC "-//W3C//DTD SVG 1.1//EN"
 "http://www.w3.org/Graphics/SVG/1.1/DTD/svg11.dtd">
<!-- Generated by graphviz version 2.36.0 (20140111.2315)
 -->
<!-- Title: view.windows.HelpWindow Pages: 1 -->
<svg width="346pt" height="96pt"
 viewBox="0.00 0.00 346.00 96.00" xmlns="http://www.w3.org/2000/svg" xmlns:xlink="http://www.w3.org/1999/xlink">
<g id="graph0" class="graph" transform="scale(1 1) rotate(0) translate(4 92)">
<title>view.windows.HelpWindow</title>
<polygon fill="white" stroke="none" points="-4,4 -4,-92 342,-92 342,4 -4,4"/>
<!-- Node1 -->
<g id="node1" class="node"><title>Node1</title>
<polygon fill="#bfbfbf" stroke="black" points="74,-0.5 74,-19.5 212,-19.5 212,-0.5 74,-0.5"/>
<text text-anchor="middle" x="143" y="-7.5" font-family="Helvetica,sans-Serif" font-size="10.00">view.windows.HelpWindow</text>
</g>
<!-- Node2 -->
<g id="node2" class="node"><title>Node2</title>
<polygon fill="white" stroke="#bfbfbf" points="-0.5,-68.5 -0.5,-87.5 48.5,-87.5 48.5,-68.5 -0.5,-68.5"/>
<text text-anchor="middle" x="24" y="-75.5" font-family="Helvetica,sans-Serif" font-size="10.00">JFrame</text>
</g>
<!-- Node2&#45;&gt;Node1 -->
<g id="edge1" class="edge"><title>Node2&#45;&gt;Node1</title>
<path fill="none" stroke="midnightblue" d="M48.3141,-63.5149C72.0026,-50.3767 107.303,-30.7981 127.439,-19.6305"/>
<polygon fill="midnightblue" stroke="midnightblue" points="46.6046,-60.4606 39.5572,-68.3717 49.9998,-66.5822 46.6046,-60.4606"/>
</g>
<!-- Node3 -->
<g id="node3" class="node"><title>Node3</title>
<polygon fill="white" stroke="#bfbfbf" points="67,-68.5 67,-87.5 137,-87.5 137,-68.5 67,-68.5"/>
<text text-anchor="middle" x="102" y="-75.5" font-family="Helvetica,sans-Serif" font-size="10.00">JEditorPane</text>
</g>
<!-- Node3&#45;&gt;Node1 -->
<g id="edge2" class="edge"><title>Node3&#45;&gt;Node1</title>
<path fill="none" stroke="#9a32cd" stroke-dasharray="5,2" d="M101.46,-58.0171C102.013,-51.3167 103.523,-43.9706 107,-38 111.482,-30.304 119.112,-24.108 126.196,-19.6023"/>
<polygon fill="#9a32cd" stroke="#9a32cd" points="97.954,-58.2585 101.251,-68.3273 104.953,-58.4003 97.954,-58.2585"/>
<text text-anchor="middle" x="134.5" y="-41.5" font-family="Helvetica,sans-Serif" font-size="10.00"> editorpane</text>
</g>
<!-- Node4 -->
<g id="node4" class="node"><title>Node4</title>
<polygon fill="white" stroke="#bfbfbf" points="155,-68.5 155,-87.5 223,-87.5 223,-68.5 155,-68.5"/>
<text text-anchor="middle" x="189" y="-75.5" font-family="Helvetica,sans-Serif" font-size="10.00">Dimension</text>
</g>
<!-- Node4&#45;&gt;Node1 -->
<g id="edge3" class="edge"><title>Node4&#45;&gt;Node1</title>
<path fill="none" stroke="#9a32cd" stroke-dasharray="5,2" d="M177.183,-59.8705C172.471,-53.0561 166.99,-45.1496 162,-38 157.67,-31.7959 152.753,-24.8113 149.007,-19.5006"/>
<polygon fill="#9a32cd" stroke="#9a32cd" points="174.451,-62.0733 183.014,-68.3125 180.211,-58.0952 174.451,-62.0733"/>
<text text-anchor="middle" x="224" y="-41.5" font-family="Helvetica,sans-Serif" font-size="10.00"> DEFAULT_DIMENSION</text>
</g>
<!-- Node5 -->
<g id="node5" class="node"><title>Node5</title>
<polygon fill="white" stroke="#bfbfbf" points="295.5,-68.5 295.5,-87.5 330.5,-87.5 330.5,-68.5 295.5,-68.5"/>
<text text-anchor="middle" x="313" y="-75.5" font-family="Helvetica,sans-Serif" font-size="10.00">URL</text>
</g>
<!-- Node5&#45;&gt;Node1 -->
<g id="edge4" class="edge"><title>Node5&#45;&gt;Node1</title>
<path fill="none" stroke="#9a32cd" stroke-dasharray="5,2" d="M302.846,-59.8147C297.349,-51.9814 289.863,-43.2941 281,-38 260.461,-25.7316 235.424,-18.8995 212.342,-15.1394"/>
<polygon fill="#9a32cd" stroke="#9a32cd" points="299.994,-61.8499 308.35,-68.3635 305.879,-58.0607 299.994,-61.8499"/>
<text text-anchor="middle" x="316.5" y="-41.5" font-family="Helvetica,sans-Serif" font-size="10.00"> helpURL</text>
</g>
</g>
</svg>
