<?xml version="1.0" encoding="UTF-8" standalone="no"?>
<!DOCTYPE svg PUBLIC "-//W3C//DTD SVG 1.1//EN"
 "http://www.w3.org/Graphics/SVG/1.1/DTD/svg11.dtd">
<!-- Generated by graphviz version 2.36.0 (20140111.2315)
 -->
<!-- Title: parser.commands.turtle.queries.XCor Pages: 1 -->
<svg width="290pt" height="196pt"
 viewBox="0.00 0.00 290.00 196.00" xmlns="http://www.w3.org/2000/svg" xmlns:xlink="http://www.w3.org/1999/xlink">
<g id="graph0" class="graph" transform="scale(1 1) rotate(0) translate(4 192)">
<title>parser.commands.turtle.queries.XCor</title>
<polygon fill="white" stroke="none" points="-4,4 -4,-192 286,-192 286,4 -4,4"/>
<!-- Node1 -->
<g id="node1" class="node"><title>Node1</title>
<polygon fill="#bfbfbf" stroke="black" points="48.5,-0.5 48.5,-19.5 243.5,-19.5 243.5,-0.5 48.5,-0.5"/>
<text text-anchor="middle" x="146" y="-7.5" font-family="Helvetica,sans-Serif" font-size="10.00">parser.commands.turtle.queries.XCor</text>
</g>
<!-- Node2 -->
<g id="node2" class="node"><title>Node2</title>
<g id="a_node2"><a xlink:href="../../d4/d4c/classparser_1_1nodes_1_1_basic_control.html" target="_top" xlink:title="parser.nodes.BasicControl">
<polygon fill="white" stroke="black" points="0,-56.5 0,-75.5 142,-75.5 142,-56.5 0,-56.5"/>
<text text-anchor="middle" x="71" y="-63.5" font-family="Helvetica,sans-Serif" font-size="10.00">parser.nodes.BasicControl</text>
</a>
</g>
</g>
<!-- Node2&#45;&gt;Node1 -->
<g id="edge1" class="edge"><title>Node2&#45;&gt;Node1</title>
<path fill="none" stroke="midnightblue" d="M91.3051,-50.3804C104.861,-40.6204 122.242,-28.1057 133.731,-19.8339"/>
<polygon fill="midnightblue" stroke="midnightblue" points="89.1203,-47.6405 83.05,-56.324 93.2105,-53.3213 89.1203,-47.6405"/>
</g>
<!-- Node3 -->
<g id="node3" class="node"><title>Node3</title>
<g id="a_node3"><a xlink:href="../../da/df7/classparser_1_1nodes_1_1_simple_node.html" target="_top" xlink:title="parser.nodes.SimpleNode">
<polygon fill="white" stroke="black" points="1,-112.5 1,-131.5 141,-131.5 141,-112.5 1,-112.5"/>
<text text-anchor="middle" x="71" y="-119.5" font-family="Helvetica,sans-Serif" font-size="10.00">parser.nodes.SimpleNode</text>
</a>
</g>
</g>
<!-- Node3&#45;&gt;Node2 -->
<g id="edge2" class="edge"><title>Node3&#45;&gt;Node2</title>
<path fill="none" stroke="midnightblue" d="M71,-101.805C71,-92.9102 71,-82.7798 71,-75.7511"/>
<polygon fill="midnightblue" stroke="midnightblue" points="67.5001,-102.083 71,-112.083 74.5001,-102.083 67.5001,-102.083"/>
</g>
<!-- Node4 -->
<g id="node4" class="node"><title>Node4</title>
<g id="a_node4"><a xlink:href="../../da/d96/classparser_1_1nodes_1_1_syntax_node.html" target="_top" xlink:title="parser.nodes.SyntaxNode">
<polygon fill="white" stroke="black" points="1,-168.5 1,-187.5 141,-187.5 141,-168.5 1,-168.5"/>
<text text-anchor="middle" x="71" y="-175.5" font-family="Helvetica,sans-Serif" font-size="10.00">parser.nodes.SyntaxNode</text>
</a>
</g>
</g>
<!-- Node4&#45;&gt;Node3 -->
<g id="edge3" class="edge"><title>Node4&#45;&gt;Node3</title>
<path fill="none" stroke="midnightblue" d="M71,-157.805C71,-148.91 71,-138.78 71,-131.751"/>
<polygon fill="midnightblue" stroke="midnightblue" points="67.5001,-158.083 71,-168.083 74.5001,-158.083 67.5001,-158.083"/>
</g>
<!-- Node5 -->
<g id="node5" class="node"><title>Node5</title>
<g id="a_node5"><a xlink:href="../../d0/d32/interfaceview_1_1_i_label_information.html" target="_top" xlink:title="view.ILabelInformation">
<polygon fill="white" stroke="black" points="160,-56.5 160,-75.5 282,-75.5 282,-56.5 160,-56.5"/>
<text text-anchor="middle" x="221" y="-63.5" font-family="Helvetica,sans-Serif" font-size="10.00">view.ILabelInformation</text>
</a>
</g>
</g>
<!-- Node5&#45;&gt;Node1 -->
<g id="edge4" class="edge"><title>Node5&#45;&gt;Node1</title>
<path fill="none" stroke="midnightblue" d="M200.695,-50.3804C187.139,-40.6204 169.758,-28.1057 158.269,-19.8339"/>
<polygon fill="midnightblue" stroke="midnightblue" points="198.79,-53.3213 208.95,-56.324 202.88,-47.6405 198.79,-53.3213"/>
</g>
</g>
</svg>
