<?xml version="1.0" encoding="UTF-8" standalone="no"?>
<!DOCTYPE svg PUBLIC "-//W3C//DTD SVG 1.1//EN"
 "http://www.w3.org/Graphics/SVG/1.1/DTD/svg11.dtd">
<!-- Generated by graphviz version 2.36.0 (20140111.2315)
 -->
<!-- Title: parser.commands.workspace.AskWith.evaluate Pages: 1 -->
<!--zoomable 406 -->
<svg id="main" version="1.1" xmlns="http://www.w3.org/2000/svg" xmlns:xlink="http://www.w3.org/1999/xlink" xml:space="preserve" onload="init(evt)">
<style type="text/css"><![CDATA[
.edge:hover path { stroke: red; }
.edge:hover polygon { stroke: red; fill: red; }
]]></style>
<script type="text/javascript"><![CDATA[
var edges = document.getElementsByTagName('g');
if (edges && edges.length) {
  for (var i=0;i<edges.length;i++) {
    if (edges[i].id.substr(0,4)=='edge') {
      edges[i].setAttribute('class','edge');
    }
  }
}
]]></script>
        <defs>
                <circle id="rim" cx="0" cy="0" r="7"/>
                <circle id="rim2" cx="0" cy="0" r="3.5"/>
                <g id="zoomPlus">
                        <use xlink:href="#rim" fill="#404040">
                                <set attributeName="fill" to="#808080" begin="zoomplus.mouseover" end="zoomplus.mouseout"/>
                        </use>
                        <path d="M-4,0h8M0,-4v8" fill="none" stroke="white" stroke-width="1.5" pointer-events="none"/>
                </g>
                <g id="zoomMin">
                        <use xlink:href="#rim" fill="#404040">
                                <set attributeName="fill" to="#808080" begin="zoomminus.mouseover" end="zoomminus.mouseout"/>
                        </use>
                        <path d="M-4,0h8" fill="none" stroke="white" stroke-width="1.5" pointer-events="none"/>
                </g>
                <g id="dirArrow">
                        <path fill="none" stroke="white" stroke-width="1.5" d="M0,-3.0v7 M-2.5,-0.5L0,-3.0L2.5,-0.5"/>
                </g>
               <g id="resetDef">
                       <use xlink:href="#rim2" fill="#404040">
                               <set attributeName="fill" to="#808080" begin="reset.mouseover" end="reset.mouseout"/>
                       </use>
               </g>
        </defs>

<script type="text/javascript">
var viewWidth = 972;
var viewHeight = 406;
var sectionId = 'dynsection-4';
</script>
<script xlink:href="../../svgpan.js"/>
<svg id="graph" class="graph">
<g id="viewport">
<title>parser.commands.workspace.AskWith.evaluate</title>
<polygon fill="white" stroke="none" points="-4,4 -4,-402 968,-402 968,4 -4,4"/>
<!-- Node1 -->
<g id="node1" class="node"><title>Node1</title>
<polygon fill="#bfbfbf" stroke="black" points="0,-175 0,-205 160,-205 160,-175 0,-175"/>
<text text-anchor="start" x="8" y="-193" font-family="Helvetica,sans-Serif" font-size="10.00">parser.commands.workspace.</text>
<text text-anchor="middle" x="80" y="-182" font-family="Helvetica,sans-Serif" font-size="10.00">AskWith.evaluate</text>
</g>
<!-- Node2 -->
<g id="node2" class="node"><title>Node2</title>
<g id="a_node2"><a xlink:href="../../d8/dff/classmodel_1_1_turtle_manager.html#a1c46b383a49e06a2436ad084bf7cd5aa" target="_top" xlink:title="model.TurtleManager.activate">
<polygon fill="white" stroke="black" points="210,-350.5 210,-369.5 368,-369.5 368,-350.5 210,-350.5"/>
<text text-anchor="middle" x="289" y="-357.5" font-family="Helvetica,sans-Serif" font-size="10.00">model.TurtleManager.activate</text>
</a>
</g>
</g>
<!-- Node1&#45;&gt;Node2 -->
<g id="edge1" class="edge"><title>Node1&#45;&gt;Node2</title>
<path fill="none" stroke="midnightblue" d="M88.5087,-205.05C104.184,-234.871 143.35,-301.551 196,-336 202.874,-340.498 210.552,-344.154 218.462,-347.125"/>
<polygon fill="midnightblue" stroke="midnightblue" points="217.592,-350.526 228.187,-350.421 219.839,-343.896 217.592,-350.526"/>
</g>
<!-- Node9 -->
<g id="node9" class="node"><title>Node9</title>
<g id="a_node9"><a xlink:href="../../db/d77/classparser_1_1commands_1_1workspace_1_1_ask_with.html#ac831d7c1b648c218daeea32ddc90dd35" target="_top" xlink:title="parser.commands.workspace.\lAskWith.checkSyntax">
<polygon fill="white" stroke="black" points="209,-263 209,-293 369,-293 369,-263 209,-263"/>
<text text-anchor="start" x="217" y="-281" font-family="Helvetica,sans-Serif" font-size="10.00">parser.commands.workspace.</text>
<text text-anchor="middle" x="289" y="-270" font-family="Helvetica,sans-Serif" font-size="10.00">AskWith.checkSyntax</text>
</a>
</g>
</g>
<!-- Node1&#45;&gt;Node9 -->
<g id="edge8" class="edge"><title>Node1&#45;&gt;Node9</title>
<path fill="none" stroke="midnightblue" d="M107.873,-205.02C130.84,-217.497 164.992,-235.212 196,-248 205.988,-252.119 216.764,-256.062 227.302,-259.658"/>
<polygon fill="midnightblue" stroke="midnightblue" points="226.289,-263.009 236.883,-262.857 228.506,-256.37 226.289,-263.009"/>
</g>
<!-- Node10 -->
<g id="node10" class="node"><title>Node10</title>
<g id="a_node10"><a xlink:href="../../db/d11/classparser_1_1nodes_1_1_binary_node.html#a555930c71203ce7c05e1290f069b19a1" target="_top" xlink:title="parser.nodes.BinaryNode.getLeft">
<polygon fill="white" stroke="black" points="418,-288.5 418,-307.5 592,-307.5 592,-288.5 418,-288.5"/>
<text text-anchor="middle" x="505" y="-295.5" font-family="Helvetica,sans-Serif" font-size="10.00">parser.nodes.BinaryNode.getLeft</text>
</a>
</g>
</g>
<!-- Node1&#45;&gt;Node10 -->
<g id="edge19" class="edge"><title>Node1&#45;&gt;Node10</title>
<path fill="none" stroke="midnightblue" d="M90.7576,-205.333C108.194,-231.116 147.463,-282.27 196,-302 282.347,-337.099 393.89,-322.55 456.293,-309.688"/>
<polygon fill="midnightblue" stroke="midnightblue" points="457.196,-313.074 466.246,-307.564 455.736,-306.228 457.196,-313.074"/>
</g>
<!-- Node12 -->
<g id="node12" class="node"><title>Node12</title>
<g id="a_node12"><a xlink:href="../../db/d11/classparser_1_1nodes_1_1_binary_node.html#a9c33799a377e3c277de0fc9138a2cb81" target="_top" xlink:title="parser.nodes.BinaryNode.get\lRight">
<polygon fill="white" stroke="black" points="427,-239 427,-269 583,-269 583,-239 427,-239"/>
<text text-anchor="start" x="435" y="-257" font-family="Helvetica,sans-Serif" font-size="10.00">parser.nodes.BinaryNode.get</text>
<text text-anchor="middle" x="505" y="-246" font-family="Helvetica,sans-Serif" font-size="10.00">Right</text>
</a>
</g>
</g>
<!-- Node1&#45;&gt;Node12 -->
<g id="edge20" class="edge"><title>Node1&#45;&gt;Node12</title>
<path fill="none" stroke="midnightblue" d="M148.639,-205.016C164.157,-208.21 180.616,-211.4 196,-214 270.16,-226.535 354.944,-237.285 416.758,-244.474"/>
<polygon fill="midnightblue" stroke="midnightblue" points="416.526,-247.971 426.862,-245.642 417.33,-241.017 416.526,-247.971"/>
</g>
<!-- Node13 -->
<g id="node13" class="node"><title>Node13</title>
<g id="a_node13"><a xlink:href="../../d8/dff/classmodel_1_1_turtle_manager.html#a574d2559ea66b6d03c753ef8498103d4" target="_top" xlink:title="model.TurtleManager.clear\lActive">
<polygon fill="white" stroke="black" points="217.5,-175 217.5,-205 360.5,-205 360.5,-175 217.5,-175"/>
<text text-anchor="start" x="225.5" y="-193" font-family="Helvetica,sans-Serif" font-size="10.00">model.TurtleManager.clear</text>
<text text-anchor="middle" x="289" y="-182" font-family="Helvetica,sans-Serif" font-size="10.00">Active</text>
</a>
</g>
</g>
<!-- Node1&#45;&gt;Node13 -->
<g id="edge13" class="edge"><title>Node1&#45;&gt;Node13</title>
<path fill="none" stroke="midnightblue" d="M160.144,-190C175.592,-190 191.808,-190 207.306,-190"/>
<polygon fill="midnightblue" stroke="midnightblue" points="207.371,-193.5 217.371,-190 207.371,-186.5 207.371,-193.5"/>
</g>
<!-- Node14 -->
<g id="node14" class="node"><title>Node14</title>
<g id="a_node14"><a xlink:href="../../d8/dff/classmodel_1_1_turtle_manager.html#a97d7fc3f46cfc4e419c5638b5d17ed71" target="_top" xlink:title="model.TurtleManager.copy\lActive">
<polygon fill="white" stroke="black" points="218,-126 218,-156 360,-156 360,-126 218,-126"/>
<text text-anchor="start" x="226" y="-144" font-family="Helvetica,sans-Serif" font-size="10.00">model.TurtleManager.copy</text>
<text text-anchor="middle" x="289" y="-133" font-family="Helvetica,sans-Serif" font-size="10.00">Active</text>
</a>
</g>
</g>
<!-- Node1&#45;&gt;Node14 -->
<g id="edge14" class="edge"><title>Node1&#45;&gt;Node14</title>
<path fill="none" stroke="midnightblue" d="M144.514,-174.965C166.668,-169.721 191.711,-163.793 214.602,-158.374"/>
<polygon fill="midnightblue" stroke="midnightblue" points="215.682,-161.716 224.607,-156.006 214.069,-154.904 215.682,-161.716"/>
</g>
<!-- Node16 -->
<g id="node16" class="node"><title>Node16</title>
<g id="a_node16"><a xlink:href="../../da/d96/classparser_1_1nodes_1_1_syntax_node.html#a669c370adce66a1960835323a90b9adb" target="_top" xlink:title="parser.nodes.SyntaxNode.evaluate">
<polygon fill="white" stroke="black" points="196.5,-87.5 196.5,-106.5 381.5,-106.5 381.5,-87.5 196.5,-87.5"/>
<text text-anchor="middle" x="289" y="-94.5" font-family="Helvetica,sans-Serif" font-size="10.00">parser.nodes.SyntaxNode.evaluate</text>
</a>
</g>
</g>
<!-- Node1&#45;&gt;Node16 -->
<g id="edge16" class="edge"><title>Node1&#45;&gt;Node16</title>
<path fill="none" stroke="midnightblue" d="M100.183,-174.808C122.115,-158.184 159.689,-131.919 196,-117 203.417,-113.953 211.369,-111.339 219.379,-109.105"/>
<polygon fill="midnightblue" stroke="midnightblue" points="220.35,-112.469 229.147,-106.563 218.588,-105.694 220.35,-112.469"/>
</g>
<!-- Node17 -->
<g id="node17" class="node"><title>Node17</title>
<g id="a_node17"><a xlink:href="../../d4/d1c/classparser_1_1nodes_1_1_list_node.html#abfbc6ff7aa0cbf42cb7575aefeb966a1" target="_top" xlink:title="parser.nodes.ListNode.evaluate">
<polygon fill="white" stroke="black" points="205,-49.5 205,-68.5 373,-68.5 373,-49.5 205,-49.5"/>
<text text-anchor="middle" x="289" y="-56.5" font-family="Helvetica,sans-Serif" font-size="10.00">parser.nodes.ListNode.evaluate</text>
</a>
</g>
</g>
<!-- Node1&#45;&gt;Node17 -->
<g id="edge17" class="edge"><title>Node1&#45;&gt;Node17</title>
<path fill="none" stroke="midnightblue" d="M91.8223,-174.908C110.252,-150.413 150.212,-102.301 196,-78 200.477,-75.6239 205.223,-73.5447 210.107,-71.7253"/>
<polygon fill="midnightblue" stroke="midnightblue" points="211.261,-75.0299 219.633,-68.537 209.039,-68.3917 211.261,-75.0299"/>
</g>
<!-- Node18 -->
<g id="node18" class="node"><title>Node18</title>
<g id="a_node18"><a xlink:href="../../d8/dff/classmodel_1_1_turtle_manager.html#a5d4d01dd0d2fb3c5142614a74dee11af" target="_top" xlink:title="model.TurtleManager.getAll\lTurtles">
<polygon fill="white" stroke="black" points="216,-0 216,-30 362,-30 362,-0 216,-0"/>
<text text-anchor="start" x="224" y="-18" font-family="Helvetica,sans-Serif" font-size="10.00">model.TurtleManager.getAll</text>
<text text-anchor="middle" x="289" y="-7" font-family="Helvetica,sans-Serif" font-size="10.00">Turtles</text>
</a>
</g>
</g>
<!-- Node1&#45;&gt;Node18 -->
<g id="edge18" class="edge"><title>Node1&#45;&gt;Node18</title>
<path fill="none" stroke="midnightblue" d="M88.4262,-174.582C103.954,-144.024 142.866,-75.6548 196,-40 199.307,-37.7808 202.805,-35.7579 206.43,-33.914"/>
<polygon fill="midnightblue" stroke="midnightblue" points="208.024,-37.0335 215.661,-29.6896 205.111,-30.6684 208.024,-37.0335"/>
</g>
<!-- Node3 -->
<g id="node3" class="node"><title>Node3</title>
<g id="a_node3"><a xlink:href="../../d8/dff/classmodel_1_1_turtle_manager.html#a2c8eed018128d3a0be175415b36445d9" target="_top" xlink:title="model.TurtleManager.activate\lTurtle">
<polygon fill="white" stroke="black" points="426,-368 426,-398 584,-398 584,-368 426,-368"/>
<text text-anchor="start" x="434" y="-386" font-family="Helvetica,sans-Serif" font-size="10.00">model.TurtleManager.activate</text>
<text text-anchor="middle" x="505" y="-375" font-family="Helvetica,sans-Serif" font-size="10.00">Turtle</text>
</a>
</g>
</g>
<!-- Node2&#45;&gt;Node3 -->
<g id="edge2" class="edge"><title>Node2&#45;&gt;Node3</title>
<path fill="none" stroke="midnightblue" d="M368.167,-368.401C383.545,-370.054 399.78,-371.799 415.47,-373.485"/>
<polygon fill="midnightblue" stroke="midnightblue" points="415.37,-376.994 425.686,-374.583 416.118,-370.034 415.37,-376.994"/>
</g>
<!-- Node4 -->
<g id="node4" class="node"><title>Node4</title>
<g id="a_node4"><a xlink:href="../../d8/dff/classmodel_1_1_turtle_manager.html#a3d0172590b0214793dbd3997c56f7759" target="_top" xlink:title="model.TurtleManager.addNew">
<polygon fill="white" stroke="black" points="426,-329.5 426,-348.5 584,-348.5 584,-329.5 426,-329.5"/>
<text text-anchor="middle" x="505" y="-336.5" font-family="Helvetica,sans-Serif" font-size="10.00">model.TurtleManager.addNew</text>
</a>
</g>
</g>
<!-- Node2&#45;&gt;Node4 -->
<g id="edge3" class="edge"><title>Node2&#45;&gt;Node4</title>
<path fill="none" stroke="midnightblue" d="M368.167,-352.329C383.545,-350.82 399.78,-349.227 415.47,-347.688"/>
<polygon fill="midnightblue" stroke="midnightblue" points="416.076,-351.145 425.686,-346.685 415.392,-344.178 416.076,-351.145"/>
</g>
<!-- Node5 -->
<g id="node5" class="node"><title>Node5</title>
<g id="a_node5"><a xlink:href="../../d8/dff/classmodel_1_1_turtle_manager.html#a9831377a60a443edcedede2e809e36f4" target="_top" xlink:title="model.TurtleManager.create\lTurtle">
<polygon fill="white" stroke="black" points="641,-357 641,-387 791,-387 791,-357 641,-357"/>
<text text-anchor="start" x="649" y="-375" font-family="Helvetica,sans-Serif" font-size="10.00">model.TurtleManager.create</text>
<text text-anchor="middle" x="716" y="-364" font-family="Helvetica,sans-Serif" font-size="10.00">Turtle</text>
</a>
</g>
</g>
<!-- Node4&#45;&gt;Node5 -->
<g id="edge4" class="edge"><title>Node4&#45;&gt;Node5</title>
<path fill="none" stroke="midnightblue" d="M566.171,-348.501C586.263,-351.673 609.039,-355.269 630.624,-358.678"/>
<polygon fill="midnightblue" stroke="midnightblue" points="630.351,-362.178 640.775,-360.28 631.443,-355.263 630.351,-362.178"/>
</g>
<!-- Node7 -->
<g id="node7" class="node"><title>Node7</title>
<g id="a_node7"><a xlink:href="../../d6/d34/classmodel_1_1_turtle.html#a65a22c7a1a7abfbc46a6f339479e7646" target="_top" xlink:title="model.Turtle.setStroke">
<polygon fill="white" stroke="black" points="653.5,-318.5 653.5,-337.5 778.5,-337.5 778.5,-318.5 653.5,-318.5"/>
<text text-anchor="middle" x="716" y="-325.5" font-family="Helvetica,sans-Serif" font-size="10.00">model.Turtle.setStroke</text>
</a>
</g>
</g>
<!-- Node4&#45;&gt;Node7 -->
<g id="edge6" class="edge"><title>Node4&#45;&gt;Node7</title>
<path fill="none" stroke="midnightblue" d="M584.121,-334.888C603.482,-333.869 624.136,-332.782 643.18,-331.78"/>
<polygon fill="midnightblue" stroke="midnightblue" points="643.473,-335.27 653.275,-331.249 643.105,-328.279 643.473,-335.27"/>
</g>
<!-- Node6 -->
<g id="node6" class="node"><title>Node6</title>
<g id="a_node6"><a xlink:href="../../d6/d34/classmodel_1_1_turtle.html#a27ce4fa61b6e292b1cfff08d511e7fc4" target="_top" xlink:title="model.Turtle.setImage">
<polygon fill="white" stroke="black" points="840.5,-362.5 840.5,-381.5 963.5,-381.5 963.5,-362.5 840.5,-362.5"/>
<text text-anchor="middle" x="902" y="-369.5" font-family="Helvetica,sans-Serif" font-size="10.00">model.Turtle.setImage</text>
</a>
</g>
</g>
<!-- Node5&#45;&gt;Node6 -->
<g id="edge5" class="edge"><title>Node5&#45;&gt;Node6</title>
<path fill="none" stroke="midnightblue" d="M791.044,-372C803.967,-372 817.381,-372 830.214,-372"/>
<polygon fill="midnightblue" stroke="midnightblue" points="830.359,-375.5 840.359,-372 830.359,-368.5 830.359,-375.5"/>
</g>
<!-- Node8 -->
<g id="node8" class="node"><title>Node8</title>
<g id="a_node8"><a xlink:href="../../de/ded/classmodel_1_1_pen.html#a00c08e5bfc9d04986e0ff7ae4ceae10b" target="_top" xlink:title="model.Pen.setStroke">
<polygon fill="white" stroke="black" points="843.5,-318.5 843.5,-337.5 960.5,-337.5 960.5,-318.5 843.5,-318.5"/>
<text text-anchor="middle" x="902" y="-325.5" font-family="Helvetica,sans-Serif" font-size="10.00">model.Pen.setStroke</text>
</a>
</g>
</g>
<!-- Node7&#45;&gt;Node8 -->
<g id="edge7" class="edge"><title>Node7&#45;&gt;Node8</title>
<path fill="none" stroke="midnightblue" d="M778.525,-328C796.073,-328 815.289,-328 833.19,-328"/>
<polygon fill="midnightblue" stroke="midnightblue" points="833.266,-331.5 843.266,-328 833.266,-324.5 833.266,-331.5"/>
</g>
<!-- Node9&#45;&gt;Node10 -->
<g id="edge9" class="edge"><title>Node9&#45;&gt;Node10</title>
<path fill="none" stroke="midnightblue" d="M369.078,-285.39C381.573,-286.558 394.614,-287.777 407.453,-288.977"/>
<polygon fill="midnightblue" stroke="midnightblue" points="407.409,-292.488 417.692,-289.934 408.061,-285.518 407.409,-292.488"/>
</g>
<!-- Node9&#45;&gt;Node12 -->
<g id="edge11" class="edge"><title>Node9&#45;&gt;Node12</title>
<path fill="none" stroke="midnightblue" d="M369.078,-269.131C384.509,-267.401 400.774,-265.577 416.462,-263.817"/>
<polygon fill="midnightblue" stroke="midnightblue" points="417.125,-267.265 426.673,-262.672 416.345,-260.309 417.125,-267.265"/>
</g>
<!-- Node11 -->
<g id="node11" class="node"><title>Node11</title>
<g id="a_node11"><a xlink:href="../../d7/d93/classparser_1_1nodes_1_1_parameter_node.html#a2c57eab9997daf1efb840a189c1034c5" target="_top" xlink:title="parser.nodes.ParameterNode.get\lParameter">
<polygon fill="white" stroke="black" points="628,-259 628,-289 804,-289 804,-259 628,-259"/>
<text text-anchor="start" x="636" y="-277" font-family="Helvetica,sans-Serif" font-size="10.00">parser.nodes.ParameterNode.get</text>
<text text-anchor="middle" x="716" y="-266" font-family="Helvetica,sans-Serif" font-size="10.00">Parameter</text>
</a>
</g>
</g>
<!-- Node10&#45;&gt;Node11 -->
<g id="edge10" class="edge"><title>Node10&#45;&gt;Node11</title>
<path fill="none" stroke="midnightblue" d="M588.903,-288.48C598.376,-287.392 608.097,-286.276 617.736,-285.169"/>
<polygon fill="midnightblue" stroke="midnightblue" points="618.201,-288.639 627.737,-284.021 617.403,-281.684 618.201,-288.639"/>
</g>
<!-- Node12&#45;&gt;Node11 -->
<g id="edge12" class="edge"><title>Node12&#45;&gt;Node11</title>
<path fill="none" stroke="midnightblue" d="M583.23,-261.39C594.472,-262.466 606.167,-263.585 617.743,-264.693"/>
<polygon fill="midnightblue" stroke="midnightblue" points="617.582,-268.194 627.87,-265.662 618.249,-261.225 617.582,-268.194"/>
</g>
<!-- Node15 -->
<g id="node15" class="node"><title>Node15</title>
<g id="a_node15"><a xlink:href="../../d8/dff/classmodel_1_1_turtle_manager.html#ae661b1676bacbdfac66e971c950e8cf3" target="_top" xlink:title="model.TurtleManager.getTurtles">
<polygon fill="white" stroke="black" points="422,-131.5 422,-150.5 588,-150.5 588,-131.5 422,-131.5"/>
<text text-anchor="middle" x="505" y="-138.5" font-family="Helvetica,sans-Serif" font-size="10.00">model.TurtleManager.getTurtles</text>
</a>
</g>
</g>
<!-- Node14&#45;&gt;Node15 -->
<g id="edge15" class="edge"><title>Node14&#45;&gt;Node15</title>
<path fill="none" stroke="midnightblue" d="M360.072,-141C376.579,-141 394.423,-141 411.742,-141"/>
<polygon fill="midnightblue" stroke="midnightblue" points="411.865,-144.5 421.864,-141 411.864,-137.5 411.865,-144.5"/>
</g>
</g>
</svg>
        <g id="navigator" transform="translate(0 0)" fill="#404254">
                <rect fill="#f2f5e9" fill-opacity="0.5" stroke="#606060" stroke-width=".5" x="0" y="0" width="60" height="60"/>
                <use id="zoomplus" xlink:href="#zoomPlus" x="17" y="9" onmousedown="handleZoom(evt,'in')"/>
                <use id="zoomminus" xlink:href="#zoomMin" x="42" y="9" onmousedown="handleZoom(evt,'out')"/>
                <use id="reset" xlink:href="#resetDef" x="30" y="36" onmousedown="handleReset()"/>
                <g id="arrowUp" xlink:href="#dirArrow" transform="translate(30 24)" onmousedown="handlePan(0,-1)">
                  <use xlink:href="#rim" fill="#404040">
                        <set attributeName="fill" to="#808080" begin="arrowUp.mouseover" end="arrowUp.mouseout"/>
                  </use>
                  <path fill="none" stroke="white" stroke-width="1.5" d="M0,-3.0v7 M-2.5,-0.5L0,-3.0L2.5,-0.5"/>
                </g>
                <g id="arrowRight" xlink:href="#dirArrow" transform="rotate(90) translate(36 -43)" onmousedown="handlePan(1,0)">
                  <use xlink:href="#rim" fill="#404040">
                        <set attributeName="fill" to="#808080" begin="arrowRight.mouseover" end="arrowRight.mouseout"/>
                  </use>
                  <path fill="none" stroke="white" stroke-width="1.5" d="M0,-3.0v7 M-2.5,-0.5L0,-3.0L2.5,-0.5"/>
                </g>
                <g id="arrowDown" xlink:href="#dirArrow" transform="rotate(180) translate(-30 -48)" onmousedown="handlePan(0,1)">
                  <use xlink:href="#rim" fill="#404040">
                        <set attributeName="fill" to="#808080" begin="arrowDown.mouseover" end="arrowDown.mouseout"/>
                  </use>
                  <path fill="none" stroke="white" stroke-width="1.5" d="M0,-3.0v7 M-2.5,-0.5L0,-3.0L2.5,-0.5"/>
                </g>
                <g id="arrowLeft" xlink:href="#dirArrow" transform="rotate(270) translate(-36 17)" onmousedown="handlePan(-1,0)">
                  <use xlink:href="#rim" fill="#404040">
                        <set attributeName="fill" to="#808080" begin="arrowLeft.mouseover" end="arrowLeft.mouseout"/>
                  </use>
                  <path fill="none" stroke="white" stroke-width="1.5" d="M0,-3.0v7 M-2.5,-0.5L0,-3.0L2.5,-0.5"/>
                </g>
        </g>
        <svg viewBox="0 0 15 15" width="100%" height="30px" preserveAspectRatio="xMaxYMin meet">
         <g id="arrow_out" transform="scale(0.3 0.3)">
          <a xlink:href="classparser_1_1commands_1_1workspace_1_1_ask_with_a1de9ef4326a655f16ceec2a53302a0b5_cgraph_org.svg" target="_base">
           <rect id="button" ry="5" rx="5" y="6" x="6" height="38" width="38"
                fill="#f2f5e9" fill-opacity="0.5" stroke="#606060" stroke-width="1.0"/>
           <path id="arrow"
             d="M 11.500037,31.436501 C 11.940474,20.09759 22.043105,11.32322 32.158766,21.979434 L 37.068811,17.246167 C 37.068811,17.246167 37.088388,32 37.088388,32 L 22.160133,31.978069 C 22.160133,31.978069 26.997745,27.140456 26.997745,27.140456 C 18.528582,18.264221 13.291696,25.230495 11.500037,31.436501 z"
             style="fill:#404040;"/>
          </a>
         </g>
        </svg>
</svg>
