<?xml version="1.0" encoding="UTF-8" standalone="no"?>
<!DOCTYPE svg PUBLIC "-//W3C//DTD SVG 1.1//EN"
 "http://www.w3.org/Graphics/SVG/1.1/DTD/svg11.dtd">
<!-- Generated by graphviz version 2.36.0 (20140111.2315)
 -->
<!-- Title: model.TurtleManager Pages: 1 -->
<svg width="189pt" height="84pt"
 viewBox="0.00 0.00 189.00 84.00" xmlns="http://www.w3.org/2000/svg" xmlns:xlink="http://www.w3.org/1999/xlink">
<g id="graph0" class="graph" transform="scale(1 1) rotate(0) translate(4 80)">
<title>model.TurtleManager</title>
<polygon fill="white" stroke="none" points="-4,4 -4,-80 185,-80 185,4 -4,4"/>
<!-- Node1 -->
<g id="node1" class="node"><title>Node1</title>
<polygon fill="#bfbfbf" stroke="black" points="26.5,-0.5 26.5,-19.5 143.5,-19.5 143.5,-0.5 26.5,-0.5"/>
<text text-anchor="middle" x="85" y="-7.5" font-family="Helvetica,sans-Serif" font-size="10.00">model.TurtleManager</text>
</g>
<!-- Node2 -->
<g id="node2" class="node"><title>Node2</title>
<polygon fill="white" stroke="#bfbfbf" points="-0.5,-56.5 -0.5,-75.5 70.5,-75.5 70.5,-56.5 -0.5,-56.5"/>
<text text-anchor="middle" x="35" y="-63.5" font-family="Helvetica,sans-Serif" font-size="10.00">Observable</text>
</g>
<!-- Node2&#45;&gt;Node1 -->
<g id="edge1" class="edge"><title>Node2&#45;&gt;Node1</title>
<path fill="none" stroke="midnightblue" d="M50.0763,-48.7175C58.8891,-39.1997 69.6659,-27.5608 76.8972,-19.7511"/>
<polygon fill="midnightblue" stroke="midnightblue" points="47.4824,-46.3674 43.2565,-56.083 52.6188,-51.1233 47.4824,-46.3674"/>
</g>
<!-- Node3 -->
<g id="node3" class="node"><title>Node3</title>
<g id="a_node3"><a xlink:href="../../dc/d3c/interfacemodel_1_1_paintable.html" target="_top" xlink:title="model.Paintable">
<polygon fill="white" stroke="black" points="88.5,-56.5 88.5,-75.5 181.5,-75.5 181.5,-56.5 88.5,-56.5"/>
<text text-anchor="middle" x="135" y="-63.5" font-family="Helvetica,sans-Serif" font-size="10.00">model.Paintable</text>
</a>
</g>
</g>
<!-- Node3&#45;&gt;Node1 -->
<g id="edge2" class="edge"><title>Node3&#45;&gt;Node1</title>
<path fill="none" stroke="midnightblue" d="M119.924,-48.7175C111.111,-39.1997 100.334,-27.5608 93.1028,-19.7511"/>
<polygon fill="midnightblue" stroke="midnightblue" points="117.381,-51.1233 126.744,-56.083 122.518,-46.3674 117.381,-51.1233"/>
</g>
</g>
</svg>
