<?xml version="1.0" encoding="UTF-8" standalone="no"?>
<!DOCTYPE svg PUBLIC "-//W3C//DTD SVG 1.1//EN"
 "http://www.w3.org/Graphics/SVG/1.1/DTD/svg11.dtd">
<!-- Generated by graphviz version 2.36.0 (20140111.2315)
 -->
<!-- Title: view.windows.WorkspaceSettingsWindow Pages: 1 -->
<svg width="180pt" height="152pt"
 viewBox="0.00 0.00 180.00 152.00" xmlns="http://www.w3.org/2000/svg" xmlns:xlink="http://www.w3.org/1999/xlink">
<g id="graph0" class="graph" transform="scale(1 1) rotate(0) translate(4 148)">
<title>view.windows.WorkspaceSettingsWindow</title>
<polygon fill="white" stroke="none" points="-4,4 -4,-148 176,-148 176,4 -4,4"/>
<!-- Node1 -->
<g id="node1" class="node"><title>Node1</title>
<polygon fill="#bfbfbf" stroke="black" points="0,-1 0,-31 172,-31 172,-1 0,-1"/>
<text text-anchor="start" x="8" y="-19" font-family="Helvetica,sans-Serif" font-size="10.00">view.windows.WorkspaceSettings</text>
<text text-anchor="middle" x="86" y="-8" font-family="Helvetica,sans-Serif" font-size="10.00">Window</text>
</g>
<!-- Node2 -->
<g id="node2" class="node"><title>Node2</title>
<g id="a_node2"><a xlink:href="../../de/d6c/classview_1_1windows_1_1_settings_window.html" target="_top" xlink:title="view.windows.SettingsWindow">
<polygon fill="white" stroke="black" points="8,-68.5 8,-87.5 164,-87.5 164,-68.5 8,-68.5"/>
<text text-anchor="middle" x="86" y="-75.5" font-family="Helvetica,sans-Serif" font-size="10.00">view.windows.SettingsWindow</text>
</a>
</g>
</g>
<!-- Node2&#45;&gt;Node1 -->
<g id="edge1" class="edge"><title>Node2&#45;&gt;Node1</title>
<path fill="none" stroke="midnightblue" d="M86,-58.3707C86,-49.5849 86,-39.2721 86,-31.1408"/>
<polygon fill="midnightblue" stroke="midnightblue" points="82.5001,-58.4034 86,-68.4035 89.5001,-58.4035 82.5001,-58.4034"/>
</g>
<!-- Node3 -->
<g id="node3" class="node"><title>Node3</title>
<polygon fill="white" stroke="#bfbfbf" points="61.5,-124.5 61.5,-143.5 110.5,-143.5 110.5,-124.5 61.5,-124.5"/>
<text text-anchor="middle" x="86" y="-131.5" font-family="Helvetica,sans-Serif" font-size="10.00">JFrame</text>
</g>
<!-- Node3&#45;&gt;Node2 -->
<g id="edge2" class="edge"><title>Node3&#45;&gt;Node2</title>
<path fill="none" stroke="midnightblue" d="M86,-113.805C86,-104.91 86,-94.7798 86,-87.7511"/>
<polygon fill="midnightblue" stroke="midnightblue" points="82.5001,-114.083 86,-124.083 89.5001,-114.083 82.5001,-114.083"/>
</g>
</g>
</svg>
