<?xml version="1.0" encoding="UTF-8" standalone="no"?>
<!DOCTYPE svg PUBLIC "-//W3C//DTD SVG 1.1//EN"
 "http://www.w3.org/Graphics/SVG/1.1/DTD/svg11.dtd">
<!-- Generated by graphviz version 2.36.0 (20140111.2315)
 -->
<!-- Title: parser.commands.bool.Equal.evaluate Pages: 1 -->
<svg width="630pt" height="77pt"
 viewBox="0.00 0.00 630.00 77.00" xmlns="http://www.w3.org/2000/svg" xmlns:xlink="http://www.w3.org/1999/xlink">
<g id="graph0" class="graph" transform="scale(1 1) rotate(0) translate(4 73)">
<title>parser.commands.bool.Equal.evaluate</title>
<polygon fill="white" stroke="none" points="-4,4 -4,-73 626,-73 626,4 -4,4"/>
<!-- Node1 -->
<g id="node1" class="node"><title>Node1</title>
<polygon fill="#bfbfbf" stroke="black" points="0,-27.5 0,-46.5 200,-46.5 200,-27.5 0,-27.5"/>
<text text-anchor="middle" x="100" y="-34.5" font-family="Helvetica,sans-Serif" font-size="10.00">parser.commands.bool.Equal.evaluate</text>
</g>
<!-- Node2 -->
<g id="node2" class="node"><title>Node2</title>
<g id="a_node2"><a xlink:href="../../db/d11/classparser_1_1nodes_1_1_binary_node.html#a555930c71203ce7c05e1290f069b19a1" target="_top" xlink:title="parser.nodes.BinaryNode.getLeft">
<polygon fill="white" stroke="black" points="236,-49.5 236,-68.5 410,-68.5 410,-49.5 236,-49.5"/>
<text text-anchor="middle" x="323" y="-56.5" font-family="Helvetica,sans-Serif" font-size="10.00">parser.nodes.BinaryNode.getLeft</text>
</a>
</g>
</g>
<!-- Node1&#45;&gt;Node2 -->
<g id="edge1" class="edge"><title>Node1&#45;&gt;Node2</title>
<path fill="none" stroke="midnightblue" d="M196.648,-46.5216C206.345,-47.4869 216.198,-48.4677 225.9,-49.4335"/>
<polygon fill="midnightblue" stroke="midnightblue" points="225.645,-52.9253 235.943,-50.4332 226.339,-45.9597 225.645,-52.9253"/>
</g>
<!-- Node4 -->
<g id="node4" class="node"><title>Node4</title>
<g id="a_node4"><a xlink:href="../../db/d11/classparser_1_1nodes_1_1_binary_node.html#a9c33799a377e3c277de0fc9138a2cb81" target="_top" xlink:title="parser.nodes.BinaryNode.get\lRight">
<polygon fill="white" stroke="black" points="245,-0 245,-30 401,-30 401,-0 245,-0"/>
<text text-anchor="start" x="253" y="-18" font-family="Helvetica,sans-Serif" font-size="10.00">parser.nodes.BinaryNode.get</text>
<text text-anchor="middle" x="323" y="-7" font-family="Helvetica,sans-Serif" font-size="10.00">Right</text>
</a>
</g>
</g>
<!-- Node1&#45;&gt;Node4 -->
<g id="edge3" class="edge"><title>Node1&#45;&gt;Node4</title>
<path fill="none" stroke="midnightblue" d="M196.648,-27.4784C209.351,-26.2139 222.321,-24.9228 234.869,-23.6737"/>
<polygon fill="midnightblue" stroke="midnightblue" points="235.224,-27.1557 244.829,-22.6822 234.531,-20.1901 235.224,-27.1557"/>
</g>
<!-- Node3 -->
<g id="node3" class="node"><title>Node3</title>
<g id="a_node3"><a xlink:href="../../d7/d93/classparser_1_1nodes_1_1_parameter_node.html#a2c57eab9997daf1efb840a189c1034c5" target="_top" xlink:title="parser.nodes.ParameterNode.get\lParameter">
<polygon fill="white" stroke="black" points="446,-22 446,-52 622,-52 622,-22 446,-22"/>
<text text-anchor="start" x="454" y="-40" font-family="Helvetica,sans-Serif" font-size="10.00">parser.nodes.ParameterNode.get</text>
<text text-anchor="middle" x="534" y="-29" font-family="Helvetica,sans-Serif" font-size="10.00">Parameter</text>
</a>
</g>
</g>
<!-- Node2&#45;&gt;Node3 -->
<g id="edge2" class="edge"><title>Node2&#45;&gt;Node3</title>
<path fill="none" stroke="midnightblue" d="M410.215,-49.9247C418.701,-49.0315 427.353,-48.1207 435.938,-47.2171"/>
<polygon fill="midnightblue" stroke="midnightblue" points="436.392,-50.6887 445.971,-46.161 435.659,-43.7271 436.392,-50.6887"/>
</g>
<!-- Node4&#45;&gt;Node3 -->
<g id="edge4" class="edge"><title>Node4&#45;&gt;Node3</title>
<path fill="none" stroke="midnightblue" d="M401.23,-23.1295C412.472,-24.3129 424.167,-25.5439 435.743,-26.7624"/>
<polygon fill="midnightblue" stroke="midnightblue" points="435.559,-30.2623 445.87,-27.8285 436.292,-23.3007 435.559,-30.2623"/>
</g>
</g>
</svg>
