<?xml version="1.0" encoding="UTF-8" standalone="no"?>
<!DOCTYPE svg PUBLIC "-//W3C//DTD SVG 1.1//EN"
 "http://www.w3.org/Graphics/SVG/1.1/DTD/svg11.dtd">
<!-- Generated by graphviz version 2.36.0 (20140111.2315)
 -->
<!-- Title: parser.commands.bool.Or.evaluate Pages: 1 -->
<svg width="616pt" height="77pt"
 viewBox="0.00 0.00 616.00 77.00" xmlns="http://www.w3.org/2000/svg" xmlns:xlink="http://www.w3.org/1999/xlink">
<g id="graph0" class="graph" transform="scale(1 1) rotate(0) translate(4 73)">
<title>parser.commands.bool.Or.evaluate</title>
<polygon fill="white" stroke="none" points="-4,4 -4,-73 612,-73 612,4 -4,4"/>
<!-- Node1 -->
<g id="node1" class="node"><title>Node1</title>
<polygon fill="#bfbfbf" stroke="black" points="0.5,-27.5 0.5,-46.5 185.5,-46.5 185.5,-27.5 0.5,-27.5"/>
<text text-anchor="middle" x="93" y="-34.5" font-family="Helvetica,sans-Serif" font-size="10.00">parser.commands.bool.Or.evaluate</text>
</g>
<!-- Node2 -->
<g id="node2" class="node"><title>Node2</title>
<g id="a_node2"><a xlink:href="../../db/d11/classparser_1_1nodes_1_1_binary_node.html#a555930c71203ce7c05e1290f069b19a1" target="_top" xlink:title="parser.nodes.BinaryNode.getLeft">
<polygon fill="white" stroke="black" points="222,-49.5 222,-68.5 396,-68.5 396,-49.5 222,-49.5"/>
<text text-anchor="middle" x="309" y="-56.5" font-family="Helvetica,sans-Serif" font-size="10.00">parser.nodes.BinaryNode.getLeft</text>
</a>
</g>
</g>
<!-- Node1&#45;&gt;Node2 -->
<g id="edge1" class="edge"><title>Node1&#45;&gt;Node2</title>
<path fill="none" stroke="midnightblue" d="M185.687,-46.4257C194.33,-47.3143 203.109,-48.2168 211.792,-49.1095"/>
<polygon fill="midnightblue" stroke="midnightblue" points="211.622,-52.6103 221.928,-50.1514 212.338,-45.647 211.622,-52.6103"/>
</g>
<!-- Node4 -->
<g id="node4" class="node"><title>Node4</title>
<g id="a_node4"><a xlink:href="../../db/d11/classparser_1_1nodes_1_1_binary_node.html#a9c33799a377e3c277de0fc9138a2cb81" target="_top" xlink:title="parser.nodes.BinaryNode.get\lRight">
<polygon fill="white" stroke="black" points="231,-0 231,-30 387,-30 387,-0 231,-0"/>
<text text-anchor="start" x="239" y="-18" font-family="Helvetica,sans-Serif" font-size="10.00">parser.nodes.BinaryNode.get</text>
<text text-anchor="middle" x="309" y="-7" font-family="Helvetica,sans-Serif" font-size="10.00">Right</text>
</a>
</g>
</g>
<!-- Node1&#45;&gt;Node4 -->
<g id="edge3" class="edge"><title>Node1&#45;&gt;Node4</title>
<path fill="none" stroke="midnightblue" d="M185.687,-27.5743C197.356,-26.3746 209.274,-25.1494 220.869,-23.9574"/>
<polygon fill="midnightblue" stroke="midnightblue" points="221.372,-27.4242 230.961,-22.9199 220.656,-20.4609 221.372,-27.4242"/>
</g>
<!-- Node3 -->
<g id="node3" class="node"><title>Node3</title>
<g id="a_node3"><a xlink:href="../../d7/d93/classparser_1_1nodes_1_1_parameter_node.html#a2c57eab9997daf1efb840a189c1034c5" target="_top" xlink:title="parser.nodes.ParameterNode.get\lParameter">
<polygon fill="white" stroke="black" points="432,-22 432,-52 608,-52 608,-22 432,-22"/>
<text text-anchor="start" x="440" y="-40" font-family="Helvetica,sans-Serif" font-size="10.00">parser.nodes.ParameterNode.get</text>
<text text-anchor="middle" x="520" y="-29" font-family="Helvetica,sans-Serif" font-size="10.00">Parameter</text>
</a>
</g>
</g>
<!-- Node2&#45;&gt;Node3 -->
<g id="edge2" class="edge"><title>Node2&#45;&gt;Node3</title>
<path fill="none" stroke="midnightblue" d="M396.215,-49.9247C404.701,-49.0315 413.353,-48.1207 421.938,-47.2171"/>
<polygon fill="midnightblue" stroke="midnightblue" points="422.392,-50.6887 431.971,-46.161 421.659,-43.7271 422.392,-50.6887"/>
</g>
<!-- Node4&#45;&gt;Node3 -->
<g id="edge4" class="edge"><title>Node4&#45;&gt;Node3</title>
<path fill="none" stroke="midnightblue" d="M387.23,-23.1295C398.472,-24.3129 410.167,-25.5439 421.743,-26.7624"/>
<polygon fill="midnightblue" stroke="midnightblue" points="421.559,-30.2623 431.87,-27.8285 422.292,-23.3007 421.559,-30.2623"/>
</g>
</g>
</svg>
