<?xml version="1.0" encoding="UTF-8" standalone="no"?>
<!DOCTYPE svg PUBLIC "-//W3C//DTD SVG 1.1//EN"
 "http://www.w3.org/Graphics/SVG/1.1/DTD/svg11.dtd">
<!-- Generated by graphviz version 2.36.0 (20140111.2315)
 -->
<!-- Title: parser.commands.other.If.evaluate Pages: 1 -->
<svg width="626pt" height="115pt"
 viewBox="0.00 0.00 626.00 115.00" xmlns="http://www.w3.org/2000/svg" xmlns:xlink="http://www.w3.org/1999/xlink">
<g id="graph0" class="graph" transform="scale(1 1) rotate(0) translate(4 111)">
<title>parser.commands.other.If.evaluate</title>
<polygon fill="white" stroke="none" points="-4,4 -4,-111 622,-111 622,4 -4,4"/>
<!-- Node1 -->
<g id="node1" class="node"><title>Node1</title>
<polygon fill="#bfbfbf" stroke="black" points="0.5,-49.5 0.5,-68.5 183.5,-68.5 183.5,-49.5 0.5,-49.5"/>
<text text-anchor="middle" x="92" y="-56.5" font-family="Helvetica,sans-Serif" font-size="10.00">parser.commands.other.If.evaluate</text>
</g>
<!-- Node2 -->
<g id="node2" class="node"><title>Node2</title>
<g id="a_node2"><a xlink:href="../../da/d96/classparser_1_1nodes_1_1_syntax_node.html#a669c370adce66a1960835323a90b9adb" target="_top" xlink:title="parser.nodes.SyntaxNode.evaluate">
<polygon fill="white" stroke="black" points="220.5,-87.5 220.5,-106.5 405.5,-106.5 405.5,-87.5 220.5,-87.5"/>
<text text-anchor="middle" x="313" y="-94.5" font-family="Helvetica,sans-Serif" font-size="10.00">parser.nodes.SyntaxNode.evaluate</text>
</a>
</g>
</g>
<!-- Node1&#45;&gt;Node2 -->
<g id="edge1" class="edge"><title>Node1&#45;&gt;Node2</title>
<path fill="none" stroke="midnightblue" d="M147.98,-68.54C178.049,-73.7574 215.482,-80.2525 246.992,-85.72"/>
<polygon fill="midnightblue" stroke="midnightblue" points="246.546,-89.1949 256.997,-87.4561 247.743,-82.298 246.546,-89.1949"/>
</g>
<!-- Node3 -->
<g id="node3" class="node"><title>Node3</title>
<g id="a_node3"><a xlink:href="../../db/d11/classparser_1_1nodes_1_1_binary_node.html#a555930c71203ce7c05e1290f069b19a1" target="_top" xlink:title="parser.nodes.BinaryNode.getLeft">
<polygon fill="white" stroke="black" points="226,-49.5 226,-68.5 400,-68.5 400,-49.5 226,-49.5"/>
<text text-anchor="middle" x="313" y="-56.5" font-family="Helvetica,sans-Serif" font-size="10.00">parser.nodes.BinaryNode.getLeft</text>
</a>
</g>
</g>
<!-- Node1&#45;&gt;Node3 -->
<g id="edge2" class="edge"><title>Node1&#45;&gt;Node3</title>
<path fill="none" stroke="midnightblue" d="M183.657,-59C194.268,-59 205.123,-59 215.807,-59"/>
<polygon fill="midnightblue" stroke="midnightblue" points="215.984,-62.5001 225.984,-59 215.984,-55.5001 215.984,-62.5001"/>
</g>
<!-- Node5 -->
<g id="node5" class="node"><title>Node5</title>
<g id="a_node5"><a xlink:href="../../db/d11/classparser_1_1nodes_1_1_binary_node.html#a9c33799a377e3c277de0fc9138a2cb81" target="_top" xlink:title="parser.nodes.BinaryNode.get\lRight">
<polygon fill="white" stroke="black" points="235,-0 235,-30 391,-30 391,-0 235,-0"/>
<text text-anchor="start" x="243" y="-18" font-family="Helvetica,sans-Serif" font-size="10.00">parser.nodes.BinaryNode.get</text>
<text text-anchor="middle" x="313" y="-7" font-family="Helvetica,sans-Serif" font-size="10.00">Right</text>
</a>
</g>
</g>
<!-- Node1&#45;&gt;Node5 -->
<g id="edge4" class="edge"><title>Node1&#45;&gt;Node5</title>
<path fill="none" stroke="midnightblue" d="M140.52,-49.4527C165.837,-44.3661 197.745,-37.9553 227.152,-32.0471"/>
<polygon fill="midnightblue" stroke="midnightblue" points="227.901,-35.4666 237.016,-30.0654 226.522,-28.6038 227.901,-35.4666"/>
</g>
<!-- Node4 -->
<g id="node4" class="node"><title>Node4</title>
<g id="a_node4"><a xlink:href="../../d7/d93/classparser_1_1nodes_1_1_parameter_node.html#a2c57eab9997daf1efb840a189c1034c5" target="_top" xlink:title="parser.nodes.ParameterNode.get\lParameter">
<polygon fill="white" stroke="black" points="442,-22 442,-52 618,-52 618,-22 442,-22"/>
<text text-anchor="start" x="450" y="-40" font-family="Helvetica,sans-Serif" font-size="10.00">parser.nodes.ParameterNode.get</text>
<text text-anchor="middle" x="530" y="-29" font-family="Helvetica,sans-Serif" font-size="10.00">Parameter</text>
</a>
</g>
</g>
<!-- Node3&#45;&gt;Node4 -->
<g id="edge3" class="edge"><title>Node3&#45;&gt;Node4</title>
<path fill="none" stroke="midnightblue" d="M400.21,-50.1785C410.568,-49.1186 421.201,-48.0306 431.703,-46.956"/>
<polygon fill="midnightblue" stroke="midnightblue" points="432.127,-50.431 441.718,-45.9311 431.414,-43.4674 432.127,-50.431"/>
</g>
<!-- Node5&#45;&gt;Node4 -->
<g id="edge5" class="edge"><title>Node5&#45;&gt;Node4</title>
<path fill="none" stroke="midnightblue" d="M391.013,-22.8804C404.167,-24.2264 417.985,-25.6404 431.586,-27.0321"/>
<polygon fill="midnightblue" stroke="midnightblue" points="431.626,-30.5543 441.93,-28.0905 432.338,-23.5907 431.626,-30.5543"/>
</g>
</g>
</svg>
