<?xml version="1.0" encoding="UTF-8" standalone="no"?>
<!DOCTYPE svg PUBLIC "-//W3C//DTD SVG 1.1//EN"
 "http://www.w3.org/Graphics/SVG/1.1/DTD/svg11.dtd">
<!-- Generated by graphviz version 2.36.0 (20140111.2315)
 -->
<!-- Title: parser.SemanticsChecker.createNode Pages: 1 -->
<!--zoomable 111 -->
<svg id="main" version="1.1" xmlns="http://www.w3.org/2000/svg" xmlns:xlink="http://www.w3.org/1999/xlink" xml:space="preserve" onload="init(evt)">
<style type="text/css"><![CDATA[
.edge:hover path { stroke: red; }
.edge:hover polygon { stroke: red; fill: red; }
]]></style>
<script type="text/javascript"><![CDATA[
var edges = document.getElementsByTagName('g');
if (edges && edges.length) {
  for (var i=0;i<edges.length;i++) {
    if (edges[i].id.substr(0,4)=='edge') {
      edges[i].setAttribute('class','edge');
    }
  }
}
]]></script>
        <defs>
                <circle id="rim" cx="0" cy="0" r="7"/>
                <circle id="rim2" cx="0" cy="0" r="3.5"/>
                <g id="zoomPlus">
                        <use xlink:href="#rim" fill="#404040">
                                <set attributeName="fill" to="#808080" begin="zoomplus.mouseover" end="zoomplus.mouseout"/>
                        </use>
                        <path d="M-4,0h8M0,-4v8" fill="none" stroke="white" stroke-width="1.5" pointer-events="none"/>
                </g>
                <g id="zoomMin">
                        <use xlink:href="#rim" fill="#404040">
                                <set attributeName="fill" to="#808080" begin="zoomminus.mouseover" end="zoomminus.mouseout"/>
                        </use>
                        <path d="M-4,0h8" fill="none" stroke="white" stroke-width="1.5" pointer-events="none"/>
                </g>
                <g id="dirArrow">
                        <path fill="none" stroke="white" stroke-width="1.5" d="M0,-3.0v7 M-2.5,-0.5L0,-3.0L2.5,-0.5"/>
                </g>
               <g id="resetDef">
                       <use xlink:href="#rim2" fill="#404040">
                               <set attributeName="fill" to="#808080" begin="reset.mouseover" end="reset.mouseout"/>
                       </use>
               </g>
        </defs>

<script type="text/javascript">
var viewWidth = 746;
var viewHeight = 111;
var sectionId = 'dynsection-4';
</script>
<script xlink:href="../../svgpan.js"/>
<svg id="graph" class="graph">
<g id="viewport">
<title>parser.SemanticsChecker.createNode</title>
<polygon fill="white" stroke="none" points="-4,4 -4,-107 742,-107 742,4 -4,4"/>
<!-- Node1 -->
<g id="node1" class="node"><title>Node1</title>
<polygon fill="#bfbfbf" stroke="black" points="0,-29.5 0,-48.5 198,-48.5 198,-29.5 0,-29.5"/>
<text text-anchor="middle" x="99" y="-36.5" font-family="Helvetica,sans-Serif" font-size="10.00">parser.SemanticsChecker.createNode</text>
</g>
<!-- Node2 -->
<g id="node2" class="node"><title>Node2</title>
<g id="a_node2"><a xlink:href="../../d6/dcd/classparser_1_1reflection_1_1_reflection_helper.html#aff20ce969eb8ac26feda4d41f9f26411" target="_top" xlink:title="parser.reflection.Reflection\lHelper.createInstanceOf">
<polygon fill="white" stroke="black" points="234.5,-49 234.5,-79 377.5,-79 377.5,-49 234.5,-49"/>
<text text-anchor="start" x="242.5" y="-67" font-family="Helvetica,sans-Serif" font-size="10.00">parser.reflection.Reflection</text>
<text text-anchor="middle" x="306" y="-56" font-family="Helvetica,sans-Serif" font-size="10.00">Helper.createInstanceOf</text>
</a>
</g>
</g>
<!-- Node1&#45;&gt;Node2 -->
<g id="edge1" class="edge"><title>Node1&#45;&gt;Node2</title>
<path fill="none" stroke="midnightblue" d="M178.087,-48.5227C193.072,-50.3502 208.796,-52.2678 223.875,-54.1067"/>
<polygon fill="midnightblue" stroke="midnightblue" points="223.844,-57.6287 234.194,-55.3651 224.691,-50.6802 223.844,-57.6287"/>
</g>
<!-- Node6 -->
<g id="node6" class="node"><title>Node6</title>
<g id="a_node6"><a xlink:href="../../df/daf/classparser_1_1_semantics_table.html#ad21bbcf3716340782e1da8da4efe1e82" target="_top" xlink:title="parser.SemanticsTable.get\lCommand">
<polygon fill="white" stroke="black" points="234.5,-0 234.5,-30 377.5,-30 377.5,-0 234.5,-0"/>
<text text-anchor="start" x="242.5" y="-18" font-family="Helvetica,sans-Serif" font-size="10.00">parser.SemanticsTable.get</text>
<text text-anchor="middle" x="306" y="-7" font-family="Helvetica,sans-Serif" font-size="10.00">Command</text>
</a>
</g>
</g>
<!-- Node1&#45;&gt;Node6 -->
<g id="edge5" class="edge"><title>Node1&#45;&gt;Node6</title>
<path fill="none" stroke="midnightblue" d="M181.316,-29.4801C195.439,-27.8267 210.122,-26.1076 224.23,-24.456"/>
<polygon fill="midnightblue" stroke="midnightblue" points="224.86,-27.9063 234.385,-23.2671 224.046,-20.9537 224.86,-27.9063"/>
</g>
<!-- Node3 -->
<g id="node3" class="node"><title>Node3</title>
<g id="a_node3"><a xlink:href="../../d6/dcd/classparser_1_1reflection_1_1_reflection_helper.html#a560ebe5618d9e6e27c57d13b55fe1b43" target="_top" xlink:title="parser.reflection.Reflection\lHelper.findConstructor">
<polygon fill="white" stroke="black" points="414.5,-49 414.5,-79 557.5,-79 557.5,-49 414.5,-49"/>
<text text-anchor="start" x="422.5" y="-67" font-family="Helvetica,sans-Serif" font-size="10.00">parser.reflection.Reflection</text>
<text text-anchor="middle" x="486" y="-56" font-family="Helvetica,sans-Serif" font-size="10.00">Helper.findConstructor</text>
</a>
</g>
</g>
<!-- Node2&#45;&gt;Node3 -->
<g id="edge2" class="edge"><title>Node2&#45;&gt;Node3</title>
<path fill="none" stroke="midnightblue" d="M377.606,-64C386.421,-64 395.488,-64 404.441,-64"/>
<polygon fill="midnightblue" stroke="midnightblue" points="404.479,-67.5001 414.479,-64 404.479,-60.5001 404.479,-67.5001"/>
</g>
<!-- Node4 -->
<g id="node4" class="node"><title>Node4</title>
<g id="a_node4"><a xlink:href="../../d6/dcd/classparser_1_1reflection_1_1_reflection_helper.html#ab29ddff567376a34fe0e284cf6833b0d" target="_top" xlink:title="parser.reflection.Reflection\lHelper.toClassArray">
<polygon fill="white" stroke="black" points="594.5,-73 594.5,-103 737.5,-103 737.5,-73 594.5,-73"/>
<text text-anchor="start" x="602.5" y="-91" font-family="Helvetica,sans-Serif" font-size="10.00">parser.reflection.Reflection</text>
<text text-anchor="middle" x="666" y="-80" font-family="Helvetica,sans-Serif" font-size="10.00">Helper.toClassArray</text>
</a>
</g>
</g>
<!-- Node3&#45;&gt;Node4 -->
<g id="edge3" class="edge"><title>Node3&#45;&gt;Node4</title>
<path fill="none" stroke="midnightblue" d="M557.606,-73.5199C566.421,-74.7085 575.488,-75.931 584.441,-77.1381"/>
<polygon fill="midnightblue" stroke="midnightblue" points="584.101,-80.6239 594.479,-78.4916 585.037,-73.6867 584.101,-80.6239"/>
</g>
<!-- Node5 -->
<g id="node5" class="node"><title>Node5</title>
<g id="a_node5"><a xlink:href="../../d6/dcd/classparser_1_1reflection_1_1_reflection_helper.html#ac2c724f682c2eb9bd6be04a816e86320" target="_top" xlink:title="parser.reflection.Reflection\lHelper.paramsEqual">
<polygon fill="white" stroke="black" points="594.5,-24 594.5,-54 737.5,-54 737.5,-24 594.5,-24"/>
<text text-anchor="start" x="602.5" y="-42" font-family="Helvetica,sans-Serif" font-size="10.00">parser.reflection.Reflection</text>
<text text-anchor="middle" x="666" y="-31" font-family="Helvetica,sans-Serif" font-size="10.00">Helper.paramsEqual</text>
</a>
</g>
</g>
<!-- Node3&#45;&gt;Node5 -->
<g id="edge4" class="edge"><title>Node3&#45;&gt;Node5</title>
<path fill="none" stroke="midnightblue" d="M557.606,-54.0834C566.421,-52.8453 575.488,-51.5719 584.441,-50.3145"/>
<polygon fill="midnightblue" stroke="midnightblue" points="585.063,-53.7615 594.479,-48.9046 584.09,-46.8295 585.063,-53.7615"/>
</g>
<!-- Node7 -->
<g id="node7" class="node"><title>Node7</title>
<g id="a_node7"><a xlink:href="../../dd/da7/interfaceparser_1_1_i_parser_provider.html#a190d86fe0b03a1c15700dae1237754fb" target="_top" xlink:title="parser.IParserProvider.get\lCommand">
<polygon fill="white" stroke="black" points="416.5,-0 416.5,-30 555.5,-30 555.5,-0 416.5,-0"/>
<text text-anchor="start" x="424.5" y="-18" font-family="Helvetica,sans-Serif" font-size="10.00">parser.IParserProvider.get</text>
<text text-anchor="middle" x="486" y="-7" font-family="Helvetica,sans-Serif" font-size="10.00">Command</text>
</a>
</g>
</g>
<!-- Node6&#45;&gt;Node7 -->
<g id="edge6" class="edge"><title>Node6&#45;&gt;Node7</title>
<path fill="none" stroke="midnightblue" d="M377.606,-15C386.944,-15 396.564,-15 406.031,-15"/>
<polygon fill="midnightblue" stroke="midnightblue" points="406.223,-18.5001 416.223,-15 406.223,-11.5001 406.223,-18.5001"/>
</g>
</g>
</svg>
        <g id="navigator" transform="translate(0 0)" fill="#404254">
                <rect fill="#f2f5e9" fill-opacity="0.5" stroke="#606060" stroke-width=".5" x="0" y="0" width="60" height="60"/>
                <use id="zoomplus" xlink:href="#zoomPlus" x="17" y="9" onmousedown="handleZoom(evt,'in')"/>
                <use id="zoomminus" xlink:href="#zoomMin" x="42" y="9" onmousedown="handleZoom(evt,'out')"/>
                <use id="reset" xlink:href="#resetDef" x="30" y="36" onmousedown="handleReset()"/>
                <g id="arrowUp" xlink:href="#dirArrow" transform="translate(30 24)" onmousedown="handlePan(0,-1)">
                  <use xlink:href="#rim" fill="#404040">
                        <set attributeName="fill" to="#808080" begin="arrowUp.mouseover" end="arrowUp.mouseout"/>
                  </use>
                  <path fill="none" stroke="white" stroke-width="1.5" d="M0,-3.0v7 M-2.5,-0.5L0,-3.0L2.5,-0.5"/>
                </g>
                <g id="arrowRight" xlink:href="#dirArrow" transform="rotate(90) translate(36 -43)" onmousedown="handlePan(1,0)">
                  <use xlink:href="#rim" fill="#404040">
                        <set attributeName="fill" to="#808080" begin="arrowRight.mouseover" end="arrowRight.mouseout"/>
                  </use>
                  <path fill="none" stroke="white" stroke-width="1.5" d="M0,-3.0v7 M-2.5,-0.5L0,-3.0L2.5,-0.5"/>
                </g>
                <g id="arrowDown" xlink:href="#dirArrow" transform="rotate(180) translate(-30 -48)" onmousedown="handlePan(0,1)">
                  <use xlink:href="#rim" fill="#404040">
                        <set attributeName="fill" to="#808080" begin="arrowDown.mouseover" end="arrowDown.mouseout"/>
                  </use>
                  <path fill="none" stroke="white" stroke-width="1.5" d="M0,-3.0v7 M-2.5,-0.5L0,-3.0L2.5,-0.5"/>
                </g>
                <g id="arrowLeft" xlink:href="#dirArrow" transform="rotate(270) translate(-36 17)" onmousedown="handlePan(-1,0)">
                  <use xlink:href="#rim" fill="#404040">
                        <set attributeName="fill" to="#808080" begin="arrowLeft.mouseover" end="arrowLeft.mouseout"/>
                  </use>
                  <path fill="none" stroke="white" stroke-width="1.5" d="M0,-3.0v7 M-2.5,-0.5L0,-3.0L2.5,-0.5"/>
                </g>
        </g>
        <svg viewBox="0 0 15 15" width="100%" height="30px" preserveAspectRatio="xMaxYMin meet">
         <g id="arrow_out" transform="scale(0.3 0.3)">
          <a xlink:href="classparser_1_1_semantics_checker_a9874458f603e4eac6181412441aff5af_cgraph_org.svg" target="_base">
           <rect id="button" ry="5" rx="5" y="6" x="6" height="38" width="38"
                fill="#f2f5e9" fill-opacity="0.5" stroke="#606060" stroke-width="1.0"/>
           <path id="arrow"
             d="M 11.500037,31.436501 C 11.940474,20.09759 22.043105,11.32322 32.158766,21.979434 L 37.068811,17.246167 C 37.068811,17.246167 37.088388,32 37.088388,32 L 22.160133,31.978069 C 22.160133,31.978069 26.997745,27.140456 26.997745,27.140456 C 18.528582,18.264221 13.291696,25.230495 11.500037,31.436501 z"
             style="fill:#404040;"/>
          </a>
         </g>
        </svg>
</svg>
