<?xml version="1.0" encoding="UTF-8" standalone="no"?>
<!DOCTYPE svg PUBLIC "-//W3C//DTD SVG 1.1//EN"
 "http://www.w3.org/Graphics/SVG/1.1/DTD/svg11.dtd">
<!-- Generated by graphviz version 2.36.0 (20140111.2315)
 -->
<!-- Title: parser.SemanticsChecker.evaluateExpression Pages: 1 -->
<!--zoomable 364 -->
<svg id="main" version="1.1" xmlns="http://www.w3.org/2000/svg" xmlns:xlink="http://www.w3.org/1999/xlink" xml:space="preserve" onload="init(evt)">
<style type="text/css"><![CDATA[
.edge:hover path { stroke: red; }
.edge:hover polygon { stroke: red; fill: red; }
]]></style>
<script type="text/javascript"><![CDATA[
var edges = document.getElementsByTagName('g');
if (edges && edges.length) {
  for (var i=0;i<edges.length;i++) {
    if (edges[i].id.substr(0,4)=='edge') {
      edges[i].setAttribute('class','edge');
    }
  }
}
]]></script>
        <defs>
                <circle id="rim" cx="0" cy="0" r="7"/>
                <circle id="rim2" cx="0" cy="0" r="3.5"/>
                <g id="zoomPlus">
                        <use xlink:href="#rim" fill="#404040">
                                <set attributeName="fill" to="#808080" begin="zoomplus.mouseover" end="zoomplus.mouseout"/>
                        </use>
                        <path d="M-4,0h8M0,-4v8" fill="none" stroke="white" stroke-width="1.5" pointer-events="none"/>
                </g>
                <g id="zoomMin">
                        <use xlink:href="#rim" fill="#404040">
                                <set attributeName="fill" to="#808080" begin="zoomminus.mouseover" end="zoomminus.mouseout"/>
                        </use>
                        <path d="M-4,0h8" fill="none" stroke="white" stroke-width="1.5" pointer-events="none"/>
                </g>
                <g id="dirArrow">
                        <path fill="none" stroke="white" stroke-width="1.5" d="M0,-3.0v7 M-2.5,-0.5L0,-3.0L2.5,-0.5"/>
                </g>
               <g id="resetDef">
                       <use xlink:href="#rim2" fill="#404040">
                               <set attributeName="fill" to="#808080" begin="reset.mouseover" end="reset.mouseout"/>
                       </use>
               </g>
        </defs>

<script type="text/javascript">
var viewWidth = 1058;
var viewHeight = 364;
var sectionId = 'dynsection-6';
</script>
<script xlink:href="../../svgpan.js"/>
<svg id="graph" class="graph">
<g id="viewport">
<title>parser.SemanticsChecker.evaluateExpression</title>
<polygon fill="white" stroke="none" points="-4,4 -4,-360 1054,-360 1054,4 -4,4"/>
<!-- Node1 -->
<g id="node1" class="node"><title>Node1</title>
<polygon fill="#bfbfbf" stroke="black" points="0.5,-118 0.5,-148 183.5,-148 183.5,-118 0.5,-118"/>
<text text-anchor="start" x="8.5" y="-136" font-family="Helvetica,sans-Serif" font-size="10.00">parser.SemanticsChecker.evaluate</text>
<text text-anchor="middle" x="92" y="-125" font-family="Helvetica,sans-Serif" font-size="10.00">Expression</text>
</g>
<!-- Node2 -->
<g id="node2" class="node"><title>Node2</title>
<g id="a_node2"><a xlink:href="../../d7/d0d/classparser_1_1_semantics_checker.html#a41a9f32483c1d0e32acd7fa553c9670c" target="_top" xlink:title="parser.SemanticsChecker.create\lCustomCommand">
<polygon fill="white" stroke="black" points="238.5,-260 238.5,-290 411.5,-290 411.5,-260 238.5,-260"/>
<text text-anchor="start" x="246.5" y="-278" font-family="Helvetica,sans-Serif" font-size="10.00">parser.SemanticsChecker.create</text>
<text text-anchor="middle" x="325" y="-267" font-family="Helvetica,sans-Serif" font-size="10.00">CustomCommand</text>
</a>
</g>
</g>
<!-- Node1&#45;&gt;Node2 -->
<g id="edge1" class="edge"><title>Node1&#45;&gt;Node2</title>
<path fill="none" stroke="midnightblue" d="M117.721,-148.196C159.49,-173.873 244.048,-225.852 290.891,-254.647"/>
<polygon fill="midnightblue" stroke="midnightblue" points="289.105,-257.658 299.457,-259.913 292.77,-251.694 289.105,-257.658"/>
</g>
<!-- Node6 -->
<g id="node6" class="node"><title>Node6</title>
<g id="a_node6"><a xlink:href="../../d7/d0d/classparser_1_1_semantics_checker.html#a9874458f603e4eac6181412441aff5af" target="_top" xlink:title="parser.SemanticsChecker.createNode">
<polygon fill="white" stroke="black" points="226,-161.5 226,-180.5 424,-180.5 424,-161.5 226,-161.5"/>
<text text-anchor="middle" x="325" y="-168.5" font-family="Helvetica,sans-Serif" font-size="10.00">parser.SemanticsChecker.createNode</text>
</a>
</g>
</g>
<!-- Node1&#45;&gt;Node6 -->
<g id="edge5" class="edge"><title>Node1&#45;&gt;Node6</title>
<path fill="none" stroke="midnightblue" d="M183.634,-147.91C207.857,-151.894 233.612,-156.131 256.359,-159.873"/>
<polygon fill="midnightblue" stroke="midnightblue" points="255.809,-163.329 266.244,-161.499 256.945,-156.422 255.809,-163.329"/>
</g>
<!-- Node13 -->
<g id="node13" class="node"><title>Node13</title>
<g id="a_node13"><a xlink:href="../../d5/d08/classparser_1_1nodes_1_1_node_information.html#a1553927792e60fe77a0b2a7d21c53182" target="_top" xlink:title="parser.nodes.NodeInformation.getName">
<polygon fill="white" stroke="black" points="220,-123.5 220,-142.5 430,-142.5 430,-123.5 220,-123.5"/>
<text text-anchor="middle" x="325" y="-130.5" font-family="Helvetica,sans-Serif" font-size="10.00">parser.nodes.NodeInformation.getName</text>
</a>
</g>
</g>
<!-- Node1&#45;&gt;Node13 -->
<g id="edge12" class="edge"><title>Node1&#45;&gt;Node13</title>
<path fill="none" stroke="midnightblue" d="M183.634,-133C192.174,-133 200.904,-133 209.626,-133"/>
<polygon fill="midnightblue" stroke="midnightblue" points="209.849,-136.5 219.848,-133 209.848,-129.5 209.849,-136.5"/>
</g>
<!-- Node14 -->
<g id="node14" class="node"><title>Node14</title>
<g id="a_node14"><a xlink:href="../../df/daf/classparser_1_1_semantics_table.html#aab459a521d748abf6058d243b8714d32" target="_top" xlink:title="parser.SemanticsTable.get\lTokenClass">
<polygon fill="white" stroke="black" points="253.5,-74 253.5,-104 396.5,-104 396.5,-74 253.5,-74"/>
<text text-anchor="start" x="261.5" y="-92" font-family="Helvetica,sans-Serif" font-size="10.00">parser.SemanticsTable.get</text>
<text text-anchor="middle" x="325" y="-81" font-family="Helvetica,sans-Serif" font-size="10.00">TokenClass</text>
</a>
</g>
</g>
<!-- Node1&#45;&gt;Node14 -->
<g id="edge13" class="edge"><title>Node1&#45;&gt;Node14</title>
<path fill="none" stroke="midnightblue" d="M171.851,-117.981C194.849,-113.6 220.01,-108.808 243.131,-104.404"/>
<polygon fill="midnightblue" stroke="midnightblue" points="244.079,-107.786 253.248,-102.477 242.77,-100.91 244.079,-107.786"/>
</g>
<!-- Node18 -->
<g id="node18" class="node"><title>Node18</title>
<g id="a_node18"><a xlink:href="../../df/daf/classparser_1_1_semantics_table.html#a8b10ea894ea685fb78306df326a17db2" target="_top" xlink:title="parser.SemanticsTable.register\lCustomCommand">
<polygon fill="white" stroke="black" points="243,-20 243,-50 407,-50 407,-20 243,-20"/>
<text text-anchor="start" x="251" y="-38" font-family="Helvetica,sans-Serif" font-size="10.00">parser.SemanticsTable.register</text>
<text text-anchor="middle" x="325" y="-27" font-family="Helvetica,sans-Serif" font-size="10.00">CustomCommand</text>
</a>
</g>
</g>
<!-- Node1&#45;&gt;Node18 -->
<g id="edge17" class="edge"><title>Node1&#45;&gt;Node18</title>
<path fill="none" stroke="midnightblue" d="M117.018,-117.811C141.978,-102.547 182.555,-79.1653 220,-64 229.976,-59.9596 240.71,-56.2727 251.358,-52.9839"/>
<polygon fill="midnightblue" stroke="midnightblue" points="252.51,-56.2928 261.09,-50.0769 250.507,-49.5856 252.51,-56.2928"/>
</g>
<!-- Node3 -->
<g id="node3" class="node"><title>Node3</title>
<g id="a_node3"><a xlink:href="../../d5/d08/classparser_1_1nodes_1_1_node_information.html#ae642533c8e960e3d6dff2653e422f301" target="_top" xlink:title="parser.nodes.NodeInformation.get\lToken">
<polygon fill="white" stroke="black" points="476.5,-326 476.5,-356 657.5,-356 657.5,-326 476.5,-326"/>
<text text-anchor="start" x="484.5" y="-344" font-family="Helvetica,sans-Serif" font-size="10.00">parser.nodes.NodeInformation.get</text>
<text text-anchor="middle" x="567" y="-333" font-family="Helvetica,sans-Serif" font-size="10.00">Token</text>
</a>
</g>
</g>
<!-- Node2&#45;&gt;Node3 -->
<g id="edge2" class="edge"><title>Node2&#45;&gt;Node3</title>
<path fill="none" stroke="midnightblue" d="M375.755,-290.096C402.442,-298.06 435.935,-307.843 466,-316 475.165,-318.487 484.827,-321.017 494.387,-323.465"/>
<polygon fill="midnightblue" stroke="midnightblue" points="493.733,-326.91 504.287,-325.982 495.458,-320.126 493.733,-326.91"/>
</g>
<!-- Node4 -->
<g id="node4" class="node"><title>Node4</title>
<g id="a_node4"><a xlink:href="../../d5/d08/classparser_1_1nodes_1_1_node_information.html#ad42f8e4caa516857bf2ad3eb9e392a9e" target="_top" xlink:title="parser.nodes.NodeInformation.getType">
<polygon fill="white" stroke="black" points="466,-287.5 466,-306.5 668,-306.5 668,-287.5 466,-287.5"/>
<text text-anchor="middle" x="567" y="-294.5" font-family="Helvetica,sans-Serif" font-size="10.00">parser.nodes.NodeInformation.getType</text>
</a>
</g>
</g>
<!-- Node2&#45;&gt;Node4 -->
<g id="edge3" class="edge"><title>Node2&#45;&gt;Node4</title>
<path fill="none" stroke="midnightblue" d="M411.629,-282.849C425.848,-284.153 440.77,-285.521 455.5,-286.871"/>
<polygon fill="midnightblue" stroke="midnightblue" points="455.379,-290.374 465.656,-287.802 456.018,-283.404 455.379,-290.374"/>
</g>
<!-- Node5 -->
<g id="node5" class="node"><title>Node5</title>
<g id="a_node5"><a xlink:href="../../d5/d08/classparser_1_1nodes_1_1_node_information.html#a1a0cba33547c0d09dd567f0a9db27a51" target="_top" xlink:title="parser.nodes.NodeInformation.set\lShouldCreate">
<polygon fill="white" stroke="black" points="477,-238 477,-268 657,-268 657,-238 477,-238"/>
<text text-anchor="start" x="485" y="-256" font-family="Helvetica,sans-Serif" font-size="10.00">parser.nodes.NodeInformation.set</text>
<text text-anchor="middle" x="567" y="-245" font-family="Helvetica,sans-Serif" font-size="10.00">ShouldCreate</text>
</a>
</g>
</g>
<!-- Node2&#45;&gt;Node5 -->
<g id="edge4" class="edge"><title>Node2&#45;&gt;Node5</title>
<path fill="none" stroke="midnightblue" d="M411.629,-267.151C429.462,-265.516 448.4,-263.78 466.679,-262.104"/>
<polygon fill="midnightblue" stroke="midnightblue" points="467.116,-265.579 476.755,-261.181 466.477,-258.608 467.116,-265.579"/>
</g>
<!-- Node7 -->
<g id="node7" class="node"><title>Node7</title>
<g id="a_node7"><a xlink:href="../../d6/dcd/classparser_1_1reflection_1_1_reflection_helper.html#aff20ce969eb8ac26feda4d41f9f26411" target="_top" xlink:title="parser.reflection.Reflection\lHelper.createInstanceOf">
<polygon fill="white" stroke="black" points="495.5,-189 495.5,-219 638.5,-219 638.5,-189 495.5,-189"/>
<text text-anchor="start" x="503.5" y="-207" font-family="Helvetica,sans-Serif" font-size="10.00">parser.reflection.Reflection</text>
<text text-anchor="middle" x="567" y="-196" font-family="Helvetica,sans-Serif" font-size="10.00">Helper.createInstanceOf</text>
</a>
</g>
</g>
<!-- Node6&#45;&gt;Node7 -->
<g id="edge6" class="edge"><title>Node6&#45;&gt;Node7</title>
<path fill="none" stroke="midnightblue" d="M395.096,-180.501C423.215,-184.367 455.912,-188.863 485.132,-192.881"/>
<polygon fill="midnightblue" stroke="midnightblue" points="484.926,-196.385 495.31,-194.28 485.88,-189.45 484.926,-196.385"/>
</g>
<!-- Node11 -->
<g id="node11" class="node"><title>Node11</title>
<g id="a_node11"><a xlink:href="../../df/daf/classparser_1_1_semantics_table.html#ad21bbcf3716340782e1da8da4efe1e82" target="_top" xlink:title="parser.SemanticsTable.get\lCommand">
<polygon fill="white" stroke="black" points="495.5,-140 495.5,-170 638.5,-170 638.5,-140 495.5,-140"/>
<text text-anchor="start" x="503.5" y="-158" font-family="Helvetica,sans-Serif" font-size="10.00">parser.SemanticsTable.get</text>
<text text-anchor="middle" x="567" y="-147" font-family="Helvetica,sans-Serif" font-size="10.00">Command</text>
</a>
</g>
</g>
<!-- Node6&#45;&gt;Node11 -->
<g id="edge10" class="edge"><title>Node6&#45;&gt;Node11</title>
<path fill="none" stroke="midnightblue" d="M424.31,-164.446C444.593,-163.094 465.732,-161.685 485.303,-160.38"/>
<polygon fill="midnightblue" stroke="midnightblue" points="485.636,-163.865 495.381,-159.708 485.171,-156.881 485.636,-163.865"/>
</g>
<!-- Node8 -->
<g id="node8" class="node"><title>Node8</title>
<g id="a_node8"><a xlink:href="../../d6/dcd/classparser_1_1reflection_1_1_reflection_helper.html#a560ebe5618d9e6e27c57d13b55fe1b43" target="_top" xlink:title="parser.reflection.Reflection\lHelper.findConstructor">
<polygon fill="white" stroke="black" points="715.5,-189 715.5,-219 858.5,-219 858.5,-189 715.5,-189"/>
<text text-anchor="start" x="723.5" y="-207" font-family="Helvetica,sans-Serif" font-size="10.00">parser.reflection.Reflection</text>
<text text-anchor="middle" x="787" y="-196" font-family="Helvetica,sans-Serif" font-size="10.00">Helper.findConstructor</text>
</a>
</g>
</g>
<!-- Node7&#45;&gt;Node8 -->
<g id="edge7" class="edge"><title>Node7&#45;&gt;Node8</title>
<path fill="none" stroke="midnightblue" d="M638.778,-204C659.922,-204 683.262,-204 705.008,-204"/>
<polygon fill="midnightblue" stroke="midnightblue" points="705.204,-207.5 715.204,-204 705.204,-200.5 705.204,-207.5"/>
</g>
<!-- Node9 -->
<g id="node9" class="node"><title>Node9</title>
<g id="a_node9"><a xlink:href="../../d6/dcd/classparser_1_1reflection_1_1_reflection_helper.html#ab29ddff567376a34fe0e284cf6833b0d" target="_top" xlink:title="parser.reflection.Reflection\lHelper.toClassArray">
<polygon fill="white" stroke="black" points="906.5,-214 906.5,-244 1049.5,-244 1049.5,-214 906.5,-214"/>
<text text-anchor="start" x="914.5" y="-232" font-family="Helvetica,sans-Serif" font-size="10.00">parser.reflection.Reflection</text>
<text text-anchor="middle" x="978" y="-221" font-family="Helvetica,sans-Serif" font-size="10.00">Helper.toClassArray</text>
</a>
</g>
</g>
<!-- Node8&#45;&gt;Node9 -->
<g id="edge8" class="edge"><title>Node8&#45;&gt;Node9</title>
<path fill="none" stroke="midnightblue" d="M858.645,-213.345C870.973,-214.975 883.879,-216.682 896.449,-218.345"/>
<polygon fill="midnightblue" stroke="midnightblue" points="896.068,-221.825 906.44,-219.667 896.986,-214.885 896.068,-221.825"/>
</g>
<!-- Node10 -->
<g id="node10" class="node"><title>Node10</title>
<g id="a_node10"><a xlink:href="../../d6/dcd/classparser_1_1reflection_1_1_reflection_helper.html#ac2c724f682c2eb9bd6be04a816e86320" target="_top" xlink:title="parser.reflection.Reflection\lHelper.paramsEqual">
<polygon fill="white" stroke="black" points="906.5,-165 906.5,-195 1049.5,-195 1049.5,-165 906.5,-165"/>
<text text-anchor="start" x="914.5" y="-183" font-family="Helvetica,sans-Serif" font-size="10.00">parser.reflection.Reflection</text>
<text text-anchor="middle" x="978" y="-172" font-family="Helvetica,sans-Serif" font-size="10.00">Helper.paramsEqual</text>
</a>
</g>
</g>
<!-- Node8&#45;&gt;Node10 -->
<g id="edge9" class="edge"><title>Node8&#45;&gt;Node10</title>
<path fill="none" stroke="midnightblue" d="M858.645,-195.029C870.973,-193.464 883.879,-191.825 896.449,-190.229"/>
<polygon fill="midnightblue" stroke="midnightblue" points="896.961,-193.692 906.44,-188.96 896.079,-186.748 896.961,-193.692"/>
</g>
<!-- Node12 -->
<g id="node12" class="node"><title>Node12</title>
<g id="a_node12"><a xlink:href="../../dd/da7/interfaceparser_1_1_i_parser_provider.html#a190d86fe0b03a1c15700dae1237754fb" target="_top" xlink:title="parser.IParserProvider.get\lCommand">
<polygon fill="white" stroke="black" points="717.5,-140 717.5,-170 856.5,-170 856.5,-140 717.5,-140"/>
<text text-anchor="start" x="725.5" y="-158" font-family="Helvetica,sans-Serif" font-size="10.00">parser.IParserProvider.get</text>
<text text-anchor="middle" x="787" y="-147" font-family="Helvetica,sans-Serif" font-size="10.00">Command</text>
</a>
</g>
</g>
<!-- Node11&#45;&gt;Node12 -->
<g id="edge11" class="edge"><title>Node11&#45;&gt;Node12</title>
<path fill="none" stroke="midnightblue" d="M638.778,-155C660.664,-155 684.905,-155 707.293,-155"/>
<polygon fill="midnightblue" stroke="midnightblue" points="707.434,-158.5 717.434,-155 707.434,-151.5 707.434,-158.5"/>
</g>
<!-- Node15 -->
<g id="node15" class="node"><title>Node15</title>
<g id="a_node15"><a xlink:href="../../d5/d08/classparser_1_1nodes_1_1_node_information.html#a10357cfb2c29282a4571d4713551a448" target="_top" xlink:title="parser.nodes.NodeInformation.clone">
<polygon fill="white" stroke="black" points="471.5,-98.5 471.5,-117.5 662.5,-117.5 662.5,-98.5 471.5,-98.5"/>
<text text-anchor="middle" x="567" y="-105.5" font-family="Helvetica,sans-Serif" font-size="10.00">parser.nodes.NodeInformation.clone</text>
</a>
</g>
</g>
<!-- Node14&#45;&gt;Node15 -->
<g id="edge14" class="edge"><title>Node14&#45;&gt;Node15</title>
<path fill="none" stroke="midnightblue" d="M396.71,-94.5979C416.974,-96.2021 439.508,-97.986 461.352,-99.7153"/>
<polygon fill="midnightblue" stroke="midnightblue" points="461.084,-103.205 471.329,-100.505 461.636,-96.2268 461.084,-103.205"/>
</g>
<!-- Node17 -->
<g id="node17" class="node"><title>Node17</title>
<g id="a_node17"><a xlink:href="../../d5/d08/classparser_1_1nodes_1_1_node_information.html#a0c4a6fe4a61e93a5dbe095ee42c213ed" target="_top" xlink:title="parser.nodes.NodeInformation.set\lToken">
<polygon fill="white" stroke="black" points="477,-49 477,-79 657,-79 657,-49 477,-49"/>
<text text-anchor="start" x="485" y="-67" font-family="Helvetica,sans-Serif" font-size="10.00">parser.nodes.NodeInformation.set</text>
<text text-anchor="middle" x="567" y="-56" font-family="Helvetica,sans-Serif" font-size="10.00">Token</text>
</a>
</g>
</g>
<!-- Node14&#45;&gt;Node17 -->
<g id="edge16" class="edge"><title>Node14&#45;&gt;Node17</title>
<path fill="none" stroke="midnightblue" d="M396.71,-81.6344C418.608,-79.3533 443.157,-76.7961 466.622,-74.3519"/>
<polygon fill="midnightblue" stroke="midnightblue" points="467.017,-77.8297 476.601,-73.3124 466.292,-70.8674 467.017,-77.8297"/>
</g>
<!-- Node16 -->
<g id="node16" class="node"><title>Node16</title>
<g id="a_node16"><a xlink:href="../../d5/d08/classparser_1_1nodes_1_1_node_information.html#a0672ed587472f62f81cad30d9c35e3f0" target="_top" xlink:title="parser.nodes.NodeInformation.\lNodeInformation">
<polygon fill="white" stroke="black" points="704.5,-91 704.5,-121 869.5,-121 869.5,-91 704.5,-91"/>
<text text-anchor="start" x="712.5" y="-109" font-family="Helvetica,sans-Serif" font-size="10.00">parser.nodes.NodeInformation.</text>
<text text-anchor="middle" x="787" y="-98" font-family="Helvetica,sans-Serif" font-size="10.00">NodeInformation</text>
</a>
</g>
</g>
<!-- Node15&#45;&gt;Node16 -->
<g id="edge15" class="edge"><title>Node15&#45;&gt;Node16</title>
<path fill="none" stroke="midnightblue" d="M662.667,-107.131C673.095,-107.036 683.7,-106.939 694.094,-106.843"/>
<polygon fill="midnightblue" stroke="midnightblue" points="694.434,-110.34 704.402,-106.749 694.37,-103.341 694.434,-110.34"/>
</g>
<!-- Node19 -->
<g id="node19" class="node"><title>Node19</title>
<g id="a_node19"><a xlink:href="../../dd/da7/interfaceparser_1_1_i_parser_provider.html#a933bbd5080c55f69c3e3f740a465e0a5" target="_top" xlink:title="parser.IParserProvider.add\lCommand">
<polygon fill="white" stroke="black" points="496.5,-0 496.5,-30 637.5,-30 637.5,-0 496.5,-0"/>
<text text-anchor="start" x="504.5" y="-18" font-family="Helvetica,sans-Serif" font-size="10.00">parser.IParserProvider.add</text>
<text text-anchor="middle" x="567" y="-7" font-family="Helvetica,sans-Serif" font-size="10.00">Command</text>
</a>
</g>
</g>
<!-- Node18&#45;&gt;Node19 -->
<g id="edge18" class="edge"><title>Node18&#45;&gt;Node19</title>
<path fill="none" stroke="midnightblue" d="M407.253,-28.2289C432.824,-26.098 461.025,-23.7479 486.474,-21.6271"/>
<polygon fill="midnightblue" stroke="midnightblue" points="486.776,-25.1142 496.451,-20.7957 486.195,-18.1384 486.776,-25.1142"/>
</g>
</g>
</svg>
        <g id="navigator" transform="translate(0 0)" fill="#404254">
                <rect fill="#f2f5e9" fill-opacity="0.5" stroke="#606060" stroke-width=".5" x="0" y="0" width="60" height="60"/>
                <use id="zoomplus" xlink:href="#zoomPlus" x="17" y="9" onmousedown="handleZoom(evt,'in')"/>
                <use id="zoomminus" xlink:href="#zoomMin" x="42" y="9" onmousedown="handleZoom(evt,'out')"/>
                <use id="reset" xlink:href="#resetDef" x="30" y="36" onmousedown="handleReset()"/>
                <g id="arrowUp" xlink:href="#dirArrow" transform="translate(30 24)" onmousedown="handlePan(0,-1)">
                  <use xlink:href="#rim" fill="#404040">
                        <set attributeName="fill" to="#808080" begin="arrowUp.mouseover" end="arrowUp.mouseout"/>
                  </use>
                  <path fill="none" stroke="white" stroke-width="1.5" d="M0,-3.0v7 M-2.5,-0.5L0,-3.0L2.5,-0.5"/>
                </g>
                <g id="arrowRight" xlink:href="#dirArrow" transform="rotate(90) translate(36 -43)" onmousedown="handlePan(1,0)">
                  <use xlink:href="#rim" fill="#404040">
                        <set attributeName="fill" to="#808080" begin="arrowRight.mouseover" end="arrowRight.mouseout"/>
                  </use>
                  <path fill="none" stroke="white" stroke-width="1.5" d="M0,-3.0v7 M-2.5,-0.5L0,-3.0L2.5,-0.5"/>
                </g>
                <g id="arrowDown" xlink:href="#dirArrow" transform="rotate(180) translate(-30 -48)" onmousedown="handlePan(0,1)">
                  <use xlink:href="#rim" fill="#404040">
                        <set attributeName="fill" to="#808080" begin="arrowDown.mouseover" end="arrowDown.mouseout"/>
                  </use>
                  <path fill="none" stroke="white" stroke-width="1.5" d="M0,-3.0v7 M-2.5,-0.5L0,-3.0L2.5,-0.5"/>
                </g>
                <g id="arrowLeft" xlink:href="#dirArrow" transform="rotate(270) translate(-36 17)" onmousedown="handlePan(-1,0)">
                  <use xlink:href="#rim" fill="#404040">
                        <set attributeName="fill" to="#808080" begin="arrowLeft.mouseover" end="arrowLeft.mouseout"/>
                  </use>
                  <path fill="none" stroke="white" stroke-width="1.5" d="M0,-3.0v7 M-2.5,-0.5L0,-3.0L2.5,-0.5"/>
                </g>
        </g>
        <svg viewBox="0 0 15 15" width="100%" height="30px" preserveAspectRatio="xMaxYMin meet">
         <g id="arrow_out" transform="scale(0.3 0.3)">
          <a xlink:href="classparser_1_1_semantics_checker_a8620f3090287a61f86765ee920d53de0_cgraph_org.svg" target="_base">
           <rect id="button" ry="5" rx="5" y="6" x="6" height="38" width="38"
                fill="#f2f5e9" fill-opacity="0.5" stroke="#606060" stroke-width="1.0"/>
           <path id="arrow"
             d="M 11.500037,31.436501 C 11.940474,20.09759 22.043105,11.32322 32.158766,21.979434 L 37.068811,17.246167 C 37.068811,17.246167 37.088388,32 37.088388,32 L 22.160133,31.978069 C 22.160133,31.978069 26.997745,27.140456 26.997745,27.140456 C 18.528582,18.264221 13.291696,25.230495 11.500037,31.436501 z"
             style="fill:#404040;"/>
          </a>
         </g>
        </svg>
</svg>
