<?xml version="1.0" encoding="UTF-8" standalone="no"?>
<!DOCTYPE svg PUBLIC "-//W3C//DTD SVG 1.1//EN"
 "http://www.w3.org/Graphics/SVG/1.1/DTD/svg11.dtd">
<!-- Generated by graphviz version 2.36.0 (20140111.2315)
 -->
<!-- Title: parser.SemanticsChecker.evaluateExpression Pages: 1 -->
<!--zoomable 799 -->
<svg id="main" version="1.1" xmlns="http://www.w3.org/2000/svg" xmlns:xlink="http://www.w3.org/1999/xlink" xml:space="preserve" onload="init(evt)">
<style type="text/css"><![CDATA[
.edge:hover path { stroke: red; }
.edge:hover polygon { stroke: red; fill: red; }
]]></style>
<script type="text/javascript"><![CDATA[
var edges = document.getElementsByTagName('g');
if (edges && edges.length) {
  for (var i=0;i<edges.length;i++) {
    if (edges[i].id.substr(0,4)=='edge') {
      edges[i].setAttribute('class','edge');
    }
  }
}
]]></script>
        <defs>
                <circle id="rim" cx="0" cy="0" r="7"/>
                <circle id="rim2" cx="0" cy="0" r="3.5"/>
                <g id="zoomPlus">
                        <use xlink:href="#rim" fill="#404040">
                                <set attributeName="fill" to="#808080" begin="zoomplus.mouseover" end="zoomplus.mouseout"/>
                        </use>
                        <path d="M-4,0h8M0,-4v8" fill="none" stroke="white" stroke-width="1.5" pointer-events="none"/>
                </g>
                <g id="zoomMin">
                        <use xlink:href="#rim" fill="#404040">
                                <set attributeName="fill" to="#808080" begin="zoomminus.mouseover" end="zoomminus.mouseout"/>
                        </use>
                        <path d="M-4,0h8" fill="none" stroke="white" stroke-width="1.5" pointer-events="none"/>
                </g>
                <g id="dirArrow">
                        <path fill="none" stroke="white" stroke-width="1.5" d="M0,-3.0v7 M-2.5,-0.5L0,-3.0L2.5,-0.5"/>
                </g>
               <g id="resetDef">
                       <use xlink:href="#rim2" fill="#404040">
                               <set attributeName="fill" to="#808080" begin="reset.mouseover" end="reset.mouseout"/>
                       </use>
               </g>
        </defs>

<script type="text/javascript">
var viewWidth = 1514;
var viewHeight = 799;
var sectionId = 'dynsection-7';
</script>
<script xlink:href="../../svgpan.js"/>
<svg id="graph" class="graph">
<g id="viewport">
<title>parser.SemanticsChecker.evaluateExpression</title>
<polygon fill="white" stroke="none" points="-4,4 -4,-795 1510,-795 1510,4 -4,4"/>
<!-- Node1 -->
<g id="node1" class="node"><title>Node1</title>
<polygon fill="#bfbfbf" stroke="black" points="0.5,-386 0.5,-416 183.5,-416 183.5,-386 0.5,-386"/>
<text text-anchor="start" x="8.5" y="-404" font-family="Helvetica,sans-Serif" font-size="10.00">parser.SemanticsChecker.evaluate</text>
<text text-anchor="middle" x="92" y="-393" font-family="Helvetica,sans-Serif" font-size="10.00">Expression</text>
</g>
<!-- Node2 -->
<g id="node2" class="node"><title>Node2</title>
<g id="a_node2"><a xlink:href="../../d6/d95/classparser_1_1_parser.html#ac0cfecef1d5308df35c49519d94f85a5" target="_top" xlink:title="parser.Parser.parseCommand">
<polygon fill="white" stroke="black" points="220.5,-391.5 220.5,-410.5 379.5,-410.5 379.5,-391.5 220.5,-391.5"/>
<text text-anchor="middle" x="300" y="-398.5" font-family="Helvetica,sans-Serif" font-size="10.00">parser.Parser.parseCommand</text>
</a>
</g>
</g>
<!-- Node1&#45;&gt;Node2 -->
<g id="edge1" class="edge"><title>Node1&#45;&gt;Node2</title>
<path fill="none" stroke="midnightblue" d="M193.699,-401C202.616,-401 211.557,-401 220.253,-401"/>
<polygon fill="midnightblue" stroke="midnightblue" points="193.654,-397.5 183.654,-401 193.654,-404.5 193.654,-397.5"/>
</g>
<!-- Node3 -->
<g id="node3" class="node"><title>Node3</title>
<g id="a_node3"><a xlink:href="../../d7/dde/classparser_1_1_main.html#a75a40fb31f3397122c167e54e6e233c1" target="_top" xlink:title="parser.Main.checkFile">
<polygon fill="white" stroke="black" points="449,-771.5 449,-790.5 567,-790.5 567,-771.5 449,-771.5"/>
<text text-anchor="middle" x="508" y="-778.5" font-family="Helvetica,sans-Serif" font-size="10.00">parser.Main.checkFile</text>
</a>
</g>
</g>
<!-- Node2&#45;&gt;Node3 -->
<g id="edge2" class="edge"><title>Node2&#45;&gt;Node3</title>
<path fill="none" stroke="midnightblue" d="M300.846,-420.774C301.514,-481.76 312.317,-668.441 416,-762 425.106,-770.217 436.826,-775.23 448.805,-778.217"/>
<polygon fill="midnightblue" stroke="midnightblue" points="304.345,-420.599 300.821,-410.608 297.345,-420.616 304.345,-420.599"/>
</g>
<!-- Node5 -->
<g id="node5" class="node"><title>Node5</title>
<g id="a_node5"><a xlink:href="../../d6/d95/classparser_1_1_parser.html#afc96f83c32dde8c90fdab91dd543dddf" target="_top" xlink:title="parser.Parser.parseCommand">
<polygon fill="white" stroke="black" points="428.5,-733.5 428.5,-752.5 587.5,-752.5 587.5,-733.5 428.5,-733.5"/>
<text text-anchor="middle" x="508" y="-740.5" font-family="Helvetica,sans-Serif" font-size="10.00">parser.Parser.parseCommand</text>
</a>
</g>
</g>
<!-- Node2&#45;&gt;Node5 -->
<g id="edge4" class="edge"><title>Node2&#45;&gt;Node5</title>
<path fill="none" stroke="midnightblue" d="M301.764,-420.826C305.069,-477.396 322.645,-640.781 416,-723 420.856,-727.276 426.416,-730.705 432.341,-733.446"/>
<polygon fill="midnightblue" stroke="midnightblue" points="305.254,-420.531 301.264,-410.716 298.262,-420.877 305.254,-420.531"/>
</g>
<!-- Node6 -->
<g id="node6" class="node"><title>Node6</title>
<g id="a_node6"><a xlink:href="../../d9/df7/classcontroller_1_1_controller.html#a89b63f37e67efbeddda1f247016c837b" target="_top" xlink:title="controller.Controller.process\lCommand">
<polygon fill="white" stroke="black" points="433,-684 433,-714 583,-714 583,-684 433,-684"/>
<text text-anchor="start" x="441" y="-702" font-family="Helvetica,sans-Serif" font-size="10.00">controller.Controller.process</text>
<text text-anchor="middle" x="508" y="-691" font-family="Helvetica,sans-Serif" font-size="10.00">Command</text>
</a>
</g>
</g>
<!-- Node2&#45;&gt;Node6 -->
<g id="edge5" class="edge"><title>Node2&#45;&gt;Node6</title>
<path fill="none" stroke="midnightblue" d="M303.434,-420.888C310.67,-471.198 336.733,-604.462 416,-674 421.05,-678.43 426.816,-682.082 432.94,-685.092"/>
<polygon fill="midnightblue" stroke="midnightblue" points="306.868,-420.156 302.07,-410.71 299.93,-421.087 306.868,-420.156"/>
</g>
<!-- Node9 -->
<g id="node9" class="node"><title>Node9</title>
<g id="a_node9"><a xlink:href="../../d9/df7/classcontroller_1_1_controller.html#aec5e242ff69899c974dbd6302510f70b" target="_top" xlink:title="controller.Controller.processFile">
<polygon fill="white" stroke="black" points="425.5,-645.5 425.5,-664.5 590.5,-664.5 590.5,-645.5 425.5,-645.5"/>
<text text-anchor="middle" x="508" y="-652.5" font-family="Helvetica,sans-Serif" font-size="10.00">controller.Controller.processFile</text>
</a>
</g>
</g>
<!-- Node2&#45;&gt;Node9 -->
<g id="edge8" class="edge"><title>Node2&#45;&gt;Node9</title>
<path fill="none" stroke="midnightblue" d="M304.607,-420.852C314.017,-466.61 343.777,-579.859 416,-636 420.842,-639.764 426.252,-642.829 431.954,-645.32"/>
<polygon fill="midnightblue" stroke="midnightblue" points="308.031,-420.125 302.682,-410.98 301.16,-421.465 308.031,-420.125"/>
</g>
<!-- Node14 -->
<g id="node14" class="node"><title>Node14</title>
<g id="a_node14"><a xlink:href="../../d1/d01/classparser_1_1tests_1_1_boolean_tester.html#ab009444f79be316835e50742f06550a9" target="_top" xlink:title="parser.tests.BooleanTester.testAnd">
<polygon fill="white" stroke="black" points="416,-607.5 416,-626.5 600,-626.5 600,-607.5 416,-607.5"/>
<text text-anchor="middle" x="508" y="-614.5" font-family="Helvetica,sans-Serif" font-size="10.00">parser.tests.BooleanTester.testAnd</text>
</a>
</g>
</g>
<!-- Node2&#45;&gt;Node14 -->
<g id="edge14" class="edge"><title>Node2&#45;&gt;Node14</title>
<path fill="none" stroke="midnightblue" d="M306.58,-420.444C319.081,-460.32 353.272,-551.43 416,-597 421.889,-601.278 428.52,-604.67 435.449,-607.356"/>
<polygon fill="midnightblue" stroke="midnightblue" points="309.861,-419.2 303.624,-410.636 303.159,-421.22 309.861,-419.2"/>
</g>
<!-- Node15 -->
<g id="node15" class="node"><title>Node15</title>
<g id="a_node15"><a xlink:href="../../d3/d64/classparser_1_1tests_1_1_math_tester.html#a1677c0f6237b5c48799087b702e713ca" target="_top" xlink:title="parser.tests.MathTester.test\lDifference">
<polygon fill="white" stroke="black" points="433,-558 433,-588 583,-588 583,-558 433,-558"/>
<text text-anchor="start" x="441" y="-576" font-family="Helvetica,sans-Serif" font-size="10.00">parser.tests.MathTester.test</text>
<text text-anchor="middle" x="508" y="-565" font-family="Helvetica,sans-Serif" font-size="10.00">Difference</text>
</a>
</g>
</g>
<!-- Node2&#45;&gt;Node15 -->
<g id="edge15" class="edge"><title>Node2&#45;&gt;Node15</title>
<path fill="none" stroke="midnightblue" d="M310.383,-419.615C327.171,-450.994 365.382,-514.29 416,-548 421.864,-551.905 428.325,-555.204 435.018,-557.989"/>
<polygon fill="midnightblue" stroke="midnightblue" points="313.423,-417.875 305.696,-410.626 307.216,-421.111 313.423,-417.875"/>
</g>
<!-- Node16 -->
<g id="node16" class="node"><title>Node16</title>
<g id="a_node16"><a xlink:href="../../d1/d01/classparser_1_1tests_1_1_boolean_tester.html#a99be1a3a9584ed717090f5bb310bdae0" target="_top" xlink:title="parser.tests.BooleanTester.test\lEqual">
<polygon fill="white" stroke="black" points="425.5,-509 425.5,-539 590.5,-539 590.5,-509 425.5,-509"/>
<text text-anchor="start" x="433.5" y="-527" font-family="Helvetica,sans-Serif" font-size="10.00">parser.tests.BooleanTester.test</text>
<text text-anchor="middle" x="508" y="-516" font-family="Helvetica,sans-Serif" font-size="10.00">Equal</text>
</a>
</g>
</g>
<!-- Node2&#45;&gt;Node16 -->
<g id="edge16" class="edge"><title>Node2&#45;&gt;Node16</title>
<path fill="none" stroke="midnightblue" d="M316.495,-418.226C337.122,-440.132 375.709,-477.668 416,-499 423.24,-502.833 431.123,-506.123 439.122,-508.935"/>
<polygon fill="midnightblue" stroke="midnightblue" points="318.861,-415.629 309.502,-410.662 313.72,-420.381 318.861,-415.629"/>
</g>
<!-- Node17 -->
<g id="node17" class="node"><title>Node17</title>
<g id="a_node17"><a xlink:href="../../d1/d01/classparser_1_1tests_1_1_boolean_tester.html#ad5101fc213b8aeaa37baf5e3b5868d9d" target="_top" xlink:title="parser.tests.BooleanTester.test\lGreaterThan">
<polygon fill="white" stroke="black" points="425.5,-460 425.5,-490 590.5,-490 590.5,-460 425.5,-460"/>
<text text-anchor="start" x="433.5" y="-478" font-family="Helvetica,sans-Serif" font-size="10.00">parser.tests.BooleanTester.test</text>
<text text-anchor="middle" x="508" y="-467" font-family="Helvetica,sans-Serif" font-size="10.00">GreaterThan</text>
</a>
</g>
</g>
<!-- Node2&#45;&gt;Node17 -->
<g id="edge17" class="edge"><title>Node2&#45;&gt;Node17</title>
<path fill="none" stroke="midnightblue" d="M330.234,-414.751C353.225,-425.247 386.235,-439.623 416,-450 426.056,-453.506 436.872,-456.843 447.414,-459.871"/>
<polygon fill="midnightblue" stroke="midnightblue" points="331.581,-411.518 321.033,-410.513 328.652,-417.876 331.581,-411.518"/>
</g>
<!-- Node18 -->
<g id="node18" class="node"><title>Node18</title>
<g id="a_node18"><a xlink:href="../../d1/d01/classparser_1_1tests_1_1_boolean_tester.html#a828f5f4183434799d083a68a00791dba" target="_top" xlink:title="parser.tests.BooleanTester.test\lLessThan">
<polygon fill="white" stroke="black" points="425.5,-411 425.5,-441 590.5,-441 590.5,-411 425.5,-411"/>
<text text-anchor="start" x="433.5" y="-429" font-family="Helvetica,sans-Serif" font-size="10.00">parser.tests.BooleanTester.test</text>
<text text-anchor="middle" x="508" y="-418" font-family="Helvetica,sans-Serif" font-size="10.00">LessThan</text>
</a>
</g>
</g>
<!-- Node2&#45;&gt;Node18 -->
<g id="edge18" class="edge"><title>Node2&#45;&gt;Node18</title>
<path fill="none" stroke="midnightblue" d="M389.408,-411.729C401.335,-413.177 413.527,-414.656 425.329,-416.088"/>
<polygon fill="midnightblue" stroke="midnightblue" points="389.816,-408.253 379.467,-410.523 388.973,-415.202 389.816,-408.253"/>
</g>
<!-- Node19 -->
<g id="node19" class="node"><title>Node19</title>
<g id="a_node19"><a xlink:href="../../d3/d64/classparser_1_1tests_1_1_math_tester.html#a06cade99788206056814bc20735cd193" target="_top" xlink:title="parser.tests.MathTester.test\lMinus">
<polygon fill="white" stroke="black" points="433,-362 433,-392 583,-392 583,-362 433,-362"/>
<text text-anchor="start" x="441" y="-380" font-family="Helvetica,sans-Serif" font-size="10.00">parser.tests.MathTester.test</text>
<text text-anchor="middle" x="508" y="-369" font-family="Helvetica,sans-Serif" font-size="10.00">Minus</text>
</a>
</g>
</g>
<!-- Node2&#45;&gt;Node19 -->
<g id="edge19" class="edge"><title>Node2&#45;&gt;Node19</title>
<path fill="none" stroke="midnightblue" d="M390.04,-390.626C404.265,-388.969 418.852,-387.27 432.689,-385.658"/>
<polygon fill="midnightblue" stroke="midnightblue" points="389.289,-387.19 379.762,-391.824 390.099,-394.143 389.289,-387.19"/>
</g>
<!-- Node20 -->
<g id="node20" class="node"><title>Node20</title>
<g id="a_node20"><a xlink:href="../../d1/d01/classparser_1_1tests_1_1_boolean_tester.html#a402bae747c40cf9030ea6e85a44b10d2" target="_top" xlink:title="parser.tests.BooleanTester.testNot">
<polygon fill="white" stroke="black" points="417,-323.5 417,-342.5 599,-342.5 599,-323.5 417,-323.5"/>
<text text-anchor="middle" x="508" y="-330.5" font-family="Helvetica,sans-Serif" font-size="10.00">parser.tests.BooleanTester.testNot</text>
</a>
</g>
</g>
<!-- Node2&#45;&gt;Node20 -->
<g id="edge20" class="edge"><title>Node2&#45;&gt;Node20</title>
<path fill="none" stroke="midnightblue" d="M330.122,-387.135C353.051,-376.64 386.034,-362.463 416,-353 428.803,-348.957 442.869,-345.433 456.035,-342.517"/>
<polygon fill="midnightblue" stroke="midnightblue" points="328.552,-384.005 320.949,-391.383 331.494,-390.357 328.552,-384.005"/>
</g>
<!-- Node21 -->
<g id="node21" class="node"><title>Node21</title>
<g id="a_node21"><a xlink:href="../../d1/d01/classparser_1_1tests_1_1_boolean_tester.html#ac0deac7b7ba9e48e30a9ed6cff134d09" target="_top" xlink:title="parser.tests.BooleanTester.test\lNotEqual">
<polygon fill="white" stroke="black" points="425.5,-274 425.5,-304 590.5,-304 590.5,-274 425.5,-274"/>
<text text-anchor="start" x="433.5" y="-292" font-family="Helvetica,sans-Serif" font-size="10.00">parser.tests.BooleanTester.test</text>
<text text-anchor="middle" x="508" y="-281" font-family="Helvetica,sans-Serif" font-size="10.00">NotEqual</text>
</a>
</g>
</g>
<!-- Node2&#45;&gt;Node21 -->
<g id="edge21" class="edge"><title>Node2&#45;&gt;Node21</title>
<path fill="none" stroke="midnightblue" d="M318.479,-384.339C339.863,-364.816 377.937,-332.758 416,-314 423.642,-310.234 431.934,-306.966 440.297,-304.15"/>
<polygon fill="midnightblue" stroke="midnightblue" points="315.831,-382.021 310.885,-391.39 320.594,-387.151 315.831,-382.021"/>
</g>
<!-- Node22 -->
<g id="node22" class="node"><title>Node22</title>
<g id="a_node22"><a xlink:href="../../d1/d01/classparser_1_1tests_1_1_boolean_tester.html#a733a8bed2ef17160461077bd2e53490c" target="_top" xlink:title="parser.tests.BooleanTester.testOr">
<polygon fill="white" stroke="black" points="420,-235.5 420,-254.5 596,-254.5 596,-235.5 420,-235.5"/>
<text text-anchor="middle" x="508" y="-242.5" font-family="Helvetica,sans-Serif" font-size="10.00">parser.tests.BooleanTester.testOr</text>
</a>
</g>
</g>
<!-- Node2&#45;&gt;Node22 -->
<g id="edge22" class="edge"><title>Node2&#45;&gt;Node22</title>
<path fill="none" stroke="midnightblue" d="M311.304,-382.273C328.738,-352.457 366.992,-294.551 416,-265 423.203,-260.657 431.235,-257.253 439.461,-254.585"/>
<polygon fill="midnightblue" stroke="midnightblue" points="308.113,-380.805 306.205,-391.227 314.195,-384.27 308.113,-380.805"/>
</g>
<!-- Node23 -->
<g id="node23" class="node"><title>Node23</title>
<g id="a_node23"><a xlink:href="../../d3/d64/classparser_1_1tests_1_1_math_tester.html#af3c9e732ab91e0cad71ea7cd66a7a0d4" target="_top" xlink:title="parser.tests.MathTester.test\lProduct">
<polygon fill="white" stroke="black" points="433,-186 433,-216 583,-216 583,-186 433,-186"/>
<text text-anchor="start" x="441" y="-204" font-family="Helvetica,sans-Serif" font-size="10.00">parser.tests.MathTester.test</text>
<text text-anchor="middle" x="508" y="-193" font-family="Helvetica,sans-Serif" font-size="10.00">Product</text>
</a>
</g>
</g>
<!-- Node2&#45;&gt;Node23 -->
<g id="edge23" class="edge"><title>Node2&#45;&gt;Node23</title>
<path fill="none" stroke="midnightblue" d="M308.167,-381.893C322.725,-345.739 359.268,-267.257 416,-226 421.3,-222.146 427.166,-218.885 433.291,-216.128"/>
<polygon fill="midnightblue" stroke="midnightblue" points="304.876,-380.697 304.5,-391.285 311.397,-383.243 304.876,-380.697"/>
</g>
<!-- Node24 -->
<g id="node24" class="node"><title>Node24</title>
<g id="a_node24"><a xlink:href="../../d3/d64/classparser_1_1tests_1_1_math_tester.html#a0bee886e0100c55a64fb804fa462e079" target="_top" xlink:title="parser.tests.MathTester.test\lQuotient">
<polygon fill="white" stroke="black" points="433,-137 433,-167 583,-167 583,-137 433,-137"/>
<text text-anchor="start" x="441" y="-155" font-family="Helvetica,sans-Serif" font-size="10.00">parser.tests.MathTester.test</text>
<text text-anchor="middle" x="508" y="-144" font-family="Helvetica,sans-Serif" font-size="10.00">Quotient</text>
</a>
</g>
</g>
<!-- Node2&#45;&gt;Node24 -->
<g id="edge24" class="edge"><title>Node2&#45;&gt;Node24</title>
<path fill="none" stroke="midnightblue" d="M305.421,-381.2C316.244,-337.44 348.272,-232.027 416,-177 421.086,-172.867 426.805,-169.416 432.834,-166.534"/>
<polygon fill="midnightblue" stroke="midnightblue" points="301.963,-380.616 303.068,-391.153 308.775,-382.227 301.963,-380.616"/>
</g>
<!-- Node25 -->
<g id="node25" class="node"><title>Node25</title>
<g id="a_node25"><a xlink:href="../../d3/d64/classparser_1_1tests_1_1_math_tester.html#a0834a1beeeb3689ab52b3523b1ec053e" target="_top" xlink:title="parser.tests.MathTester.test\lRandom">
<polygon fill="white" stroke="black" points="433,-88 433,-118 583,-118 583,-88 433,-88"/>
<text text-anchor="start" x="441" y="-106" font-family="Helvetica,sans-Serif" font-size="10.00">parser.tests.MathTester.test</text>
<text text-anchor="middle" x="508" y="-95" font-family="Helvetica,sans-Serif" font-size="10.00">Random</text>
</a>
</g>
</g>
<!-- Node2&#45;&gt;Node25 -->
<g id="edge25" class="edge"><title>Node2&#45;&gt;Node25</title>
<path fill="none" stroke="midnightblue" d="M303.434,-381.112C310.67,-330.802 336.733,-197.538 416,-128 421.05,-123.57 426.816,-119.918 432.94,-116.908"/>
<polygon fill="midnightblue" stroke="midnightblue" points="299.93,-380.913 302.07,-391.29 306.868,-381.844 299.93,-380.913"/>
</g>
<!-- Node26 -->
<g id="node26" class="node"><title>Node26</title>
<g id="a_node26"><a xlink:href="../../d3/d64/classparser_1_1tests_1_1_math_tester.html#aeba46a296188edda903e21c6be23bdd8" target="_top" xlink:title="parser.tests.MathTester.test\lRemainder">
<polygon fill="white" stroke="black" points="433,-39 433,-69 583,-69 583,-39 433,-39"/>
<text text-anchor="start" x="441" y="-57" font-family="Helvetica,sans-Serif" font-size="10.00">parser.tests.MathTester.test</text>
<text text-anchor="middle" x="508" y="-46" font-family="Helvetica,sans-Serif" font-size="10.00">Remainder</text>
</a>
</g>
</g>
<!-- Node2&#45;&gt;Node26 -->
<g id="edge26" class="edge"><title>Node2&#45;&gt;Node26</title>
<path fill="none" stroke="midnightblue" d="M301.977,-381.41C305.852,-325.471 324.805,-163.607 416,-79 420.924,-74.4313 426.606,-70.6847 432.675,-67.6142"/>
<polygon fill="midnightblue" stroke="midnightblue" points="298.483,-381.21 301.372,-391.403 305.47,-381.633 298.483,-381.21"/>
</g>
<!-- Node27 -->
<g id="node27" class="node"><title>Node27</title>
<g id="a_node27"><a xlink:href="../../d3/d64/classparser_1_1tests_1_1_math_tester.html#a0059e207747b76f3579b4218cfe7c5dc" target="_top" xlink:title="parser.tests.MathTester.testSum">
<polygon fill="white" stroke="black" points="421.5,-0.5 421.5,-19.5 594.5,-19.5 594.5,-0.5 421.5,-0.5"/>
<text text-anchor="middle" x="508" y="-7.5" font-family="Helvetica,sans-Serif" font-size="10.00">parser.tests.MathTester.testSum</text>
</a>
</g>
</g>
<!-- Node2&#45;&gt;Node27 -->
<g id="edge27" class="edge"><title>Node2&#45;&gt;Node27</title>
<path fill="none" stroke="midnightblue" d="M300.693,-381.155C300.882,-319.1 310.356,-127.099 416,-30 420.645,-25.731 425.986,-22.2985 431.704,-19.5468"/>
<polygon fill="midnightblue" stroke="midnightblue" points="297.195,-381.493 300.75,-391.473 304.195,-381.454 297.195,-381.493"/>
</g>
<!-- Node4 -->
<g id="node4" class="node"><title>Node4</title>
<g id="a_node4"><a xlink:href="../../d7/dde/classparser_1_1_main.html#ac3abd936d94632f17feedf0cce82afff" target="_top" xlink:title="parser.Main.main">
<polygon fill="white" stroke="black" points="653.5,-771.5 653.5,-790.5 752.5,-790.5 752.5,-771.5 653.5,-771.5"/>
<text text-anchor="middle" x="703" y="-778.5" font-family="Helvetica,sans-Serif" font-size="10.00">parser.Main.main</text>
</a>
</g>
</g>
<!-- Node3&#45;&gt;Node4 -->
<g id="edge3" class="edge"><title>Node3&#45;&gt;Node4</title>
<path fill="none" stroke="midnightblue" d="M577.366,-781C602.471,-781 630.36,-781 653.38,-781"/>
<polygon fill="midnightblue" stroke="midnightblue" points="577.168,-777.5 567.168,-781 577.168,-784.5 577.168,-777.5"/>
</g>
<!-- Node7 -->
<g id="node7" class="node"><title>Node7</title>
<g id="a_node7"><a xlink:href="../../d9/df7/classcontroller_1_1_controller.html#a2bfb87bca460d87b2c97e0b5045a2175" target="_top" xlink:title="controller.Controller.create\lRunCommandListener">
<polygon fill="white" stroke="black" points="806.5,-686 806.5,-716 949.5,-716 949.5,-686 806.5,-686"/>
<text text-anchor="start" x="814.5" y="-704" font-family="Helvetica,sans-Serif" font-size="10.00">controller.Controller.create</text>
<text text-anchor="middle" x="878" y="-693" font-family="Helvetica,sans-Serif" font-size="10.00">RunCommandListener</text>
</a>
</g>
</g>
<!-- Node6&#45;&gt;Node7 -->
<g id="edge6" class="edge"><title>Node6&#45;&gt;Node7</title>
<path fill="none" stroke="midnightblue" d="M593.156,-699.457C657.567,-699.807 745.39,-700.285 806.214,-700.615"/>
<polygon fill="midnightblue" stroke="midnightblue" points="593.047,-695.957 583.028,-699.402 593.008,-702.957 593.047,-695.957"/>
</g>
<!-- Node8 -->
<g id="node8" class="node"><title>Node8</title>
<g id="a_node8"><a xlink:href="../../d9/df7/classcontroller_1_1_controller.html#a47511ec57338c8e75e71e9314cda5271" target="_top" xlink:title="controller.Controller.Controller">
<polygon fill="white" stroke="black" points="1346.5,-667.5 1346.5,-686.5 1505.5,-686.5 1505.5,-667.5 1346.5,-667.5"/>
<text text-anchor="middle" x="1426" y="-674.5" font-family="Helvetica,sans-Serif" font-size="10.00">controller.Controller.Controller</text>
</a>
</g>
</g>
<!-- Node7&#45;&gt;Node8 -->
<g id="edge7" class="edge"><title>Node7&#45;&gt;Node8</title>
<path fill="none" stroke="midnightblue" d="M959.67,-697.454C1063.64,-692.884 1243.25,-684.989 1346.27,-680.461"/>
<polygon fill="midnightblue" stroke="midnightblue" points="959.378,-693.963 949.541,-697.899 959.685,-700.957 959.378,-693.963"/>
</g>
<!-- Node10 -->
<g id="node10" class="node"><title>Node10</title>
<g id="a_node10"><a xlink:href="../../d9/df7/classcontroller_1_1_controller.html#a37c3009658f66dc4de0be01b75adf660" target="_top" xlink:title="controller.Controller.load\lWorkspace">
<polygon fill="white" stroke="black" points="636.5,-638 636.5,-668 769.5,-668 769.5,-638 636.5,-638"/>
<text text-anchor="start" x="644.5" y="-656" font-family="Helvetica,sans-Serif" font-size="10.00">controller.Controller.load</text>
<text text-anchor="middle" x="703" y="-645" font-family="Helvetica,sans-Serif" font-size="10.00">Workspace</text>
</a>
</g>
</g>
<!-- Node9&#45;&gt;Node10 -->
<g id="edge9" class="edge"><title>Node9&#45;&gt;Node10</title>
<path fill="none" stroke="midnightblue" d="M600.618,-654.051C612.629,-653.926 624.741,-653.801 636.207,-653.682"/>
<polygon fill="midnightblue" stroke="midnightblue" points="600.533,-650.551 590.57,-654.155 600.605,-657.551 600.533,-650.551"/>
</g>
<!-- Node11 -->
<g id="node11" class="node"><title>Node11</title>
<g id="a_node11"><a xlink:href="../../d9/df7/classcontroller_1_1_controller.html#aa46804b9ca132af8504b5dafb1cadb0d" target="_top" xlink:title="controller.Controller.create\lFileCommands">
<polygon fill="white" stroke="black" points="806.5,-637 806.5,-667 949.5,-667 949.5,-637 806.5,-637"/>
<text text-anchor="start" x="814.5" y="-655" font-family="Helvetica,sans-Serif" font-size="10.00">controller.Controller.create</text>
<text text-anchor="middle" x="878" y="-644" font-family="Helvetica,sans-Serif" font-size="10.00">FileCommands</text>
</a>
</g>
</g>
<!-- Node10&#45;&gt;Node11 -->
<g id="edge10" class="edge"><title>Node10&#45;&gt;Node11</title>
<path fill="none" stroke="midnightblue" d="M780.078,-652.56C788.826,-652.51 797.718,-652.458 806.39,-652.408"/>
<polygon fill="midnightblue" stroke="midnightblue" points="779.877,-649.061 769.897,-652.619 779.917,-656.061 779.877,-649.061"/>
</g>
<!-- Node12 -->
<g id="node12" class="node"><title>Node12</title>
<g id="a_node12"><a xlink:href="../../d9/df7/classcontroller_1_1_controller.html#af4c05286f1534b1fa6de523c54549288" target="_top" xlink:title="controller.Controller.create\lFileMenu">
<polygon fill="white" stroke="black" points="986.5,-639 986.5,-669 1129.5,-669 1129.5,-639 986.5,-639"/>
<text text-anchor="start" x="994.5" y="-657" font-family="Helvetica,sans-Serif" font-size="10.00">controller.Controller.create</text>
<text text-anchor="middle" x="1058" y="-646" font-family="Helvetica,sans-Serif" font-size="10.00">FileMenu</text>
</a>
</g>
</g>
<!-- Node11&#45;&gt;Node12 -->
<g id="edge11" class="edge"><title>Node11&#45;&gt;Node12</title>
<path fill="none" stroke="midnightblue" d="M959.646,-652.906C968.599,-653.007 977.666,-653.109 986.479,-653.208"/>
<polygon fill="midnightblue" stroke="midnightblue" points="959.645,-649.406 949.606,-652.793 959.566,-656.406 959.645,-649.406"/>
</g>
<!-- Node13 -->
<g id="node13" class="node"><title>Node13</title>
<g id="a_node13"><a xlink:href="../../d9/df7/classcontroller_1_1_controller.html#a2901bf43bb8e47b485558dbf00d40d6d" target="_top" xlink:title="controller.Controller.create\lJMenuBar">
<polygon fill="white" stroke="black" points="1166.5,-640 1166.5,-670 1309.5,-670 1309.5,-640 1166.5,-640"/>
<text text-anchor="start" x="1174.5" y="-658" font-family="Helvetica,sans-Serif" font-size="10.00">controller.Controller.create</text>
<text text-anchor="middle" x="1238" y="-647" font-family="Helvetica,sans-Serif" font-size="10.00">JMenuBar</text>
</a>
</g>
</g>
<!-- Node12&#45;&gt;Node13 -->
<g id="edge12" class="edge"><title>Node12&#45;&gt;Node13</title>
<path fill="none" stroke="midnightblue" d="M1139.65,-654.453C1148.6,-654.503 1157.67,-654.554 1166.48,-654.604"/>
<polygon fill="midnightblue" stroke="midnightblue" points="1139.63,-650.953 1129.61,-654.397 1139.59,-657.953 1139.63,-650.953"/>
</g>
<!-- Node13&#45;&gt;Node8 -->
<g id="edge13" class="edge"><title>Node13&#45;&gt;Node8</title>
<path fill="none" stroke="midnightblue" d="M1319.55,-664.527C1328.45,-665.58 1337.5,-666.651 1346.38,-667.701"/>
<polygon fill="midnightblue" stroke="midnightblue" points="1319.93,-661.048 1309.58,-663.349 1319.1,-667.999 1319.93,-661.048"/>
</g>
</g>
</svg>
        <g id="navigator" transform="translate(0 0)" fill="#404254">
                <rect fill="#f2f5e9" fill-opacity="0.5" stroke="#606060" stroke-width=".5" x="0" y="0" width="60" height="60"/>
                <use id="zoomplus" xlink:href="#zoomPlus" x="17" y="9" onmousedown="handleZoom(evt,'in')"/>
                <use id="zoomminus" xlink:href="#zoomMin" x="42" y="9" onmousedown="handleZoom(evt,'out')"/>
                <use id="reset" xlink:href="#resetDef" x="30" y="36" onmousedown="handleReset()"/>
                <g id="arrowUp" xlink:href="#dirArrow" transform="translate(30 24)" onmousedown="handlePan(0,-1)">
                  <use xlink:href="#rim" fill="#404040">
                        <set attributeName="fill" to="#808080" begin="arrowUp.mouseover" end="arrowUp.mouseout"/>
                  </use>
                  <path fill="none" stroke="white" stroke-width="1.5" d="M0,-3.0v7 M-2.5,-0.5L0,-3.0L2.5,-0.5"/>
                </g>
                <g id="arrowRight" xlink:href="#dirArrow" transform="rotate(90) translate(36 -43)" onmousedown="handlePan(1,0)">
                  <use xlink:href="#rim" fill="#404040">
                        <set attributeName="fill" to="#808080" begin="arrowRight.mouseover" end="arrowRight.mouseout"/>
                  </use>
                  <path fill="none" stroke="white" stroke-width="1.5" d="M0,-3.0v7 M-2.5,-0.5L0,-3.0L2.5,-0.5"/>
                </g>
                <g id="arrowDown" xlink:href="#dirArrow" transform="rotate(180) translate(-30 -48)" onmousedown="handlePan(0,1)">
                  <use xlink:href="#rim" fill="#404040">
                        <set attributeName="fill" to="#808080" begin="arrowDown.mouseover" end="arrowDown.mouseout"/>
                  </use>
                  <path fill="none" stroke="white" stroke-width="1.5" d="M0,-3.0v7 M-2.5,-0.5L0,-3.0L2.5,-0.5"/>
                </g>
                <g id="arrowLeft" xlink:href="#dirArrow" transform="rotate(270) translate(-36 17)" onmousedown="handlePan(-1,0)">
                  <use xlink:href="#rim" fill="#404040">
                        <set attributeName="fill" to="#808080" begin="arrowLeft.mouseover" end="arrowLeft.mouseout"/>
                  </use>
                  <path fill="none" stroke="white" stroke-width="1.5" d="M0,-3.0v7 M-2.5,-0.5L0,-3.0L2.5,-0.5"/>
                </g>
        </g>
        <svg viewBox="0 0 15 15" width="100%" height="30px" preserveAspectRatio="xMaxYMin meet">
         <g id="arrow_out" transform="scale(0.3 0.3)">
          <a xlink:href="classparser_1_1_semantics_checker_a8620f3090287a61f86765ee920d53de0_icgraph_org.svg" target="_base">
           <rect id="button" ry="5" rx="5" y="6" x="6" height="38" width="38"
                fill="#f2f5e9" fill-opacity="0.5" stroke="#606060" stroke-width="1.0"/>
           <path id="arrow"
             d="M 11.500037,31.436501 C 11.940474,20.09759 22.043105,11.32322 32.158766,21.979434 L 37.068811,17.246167 C 37.068811,17.246167 37.088388,32 37.088388,32 L 22.160133,31.978069 C 22.160133,31.978069 26.997745,27.140456 26.997745,27.140456 C 18.528582,18.264221 13.291696,25.230495 11.500037,31.436501 z"
             style="fill:#404040;"/>
          </a>
         </g>
        </svg>
</svg>
