<?xml version="1.0" encoding="UTF-8" standalone="no"?>
<!DOCTYPE svg PUBLIC "-//W3C//DTD SVG 1.1//EN"
 "http://www.w3.org/Graphics/SVG/1.1/DTD/svg11.dtd">
<!-- Generated by graphviz version 2.36.0 (20140111.2315)
 -->
<!-- Title: parser.SemanticsChecker.createCustomCommand Pages: 1 -->
<!--zoomable 799 -->
<svg id="main" version="1.1" xmlns="http://www.w3.org/2000/svg" xmlns:xlink="http://www.w3.org/1999/xlink" xml:space="preserve" onload="init(evt)">
<style type="text/css"><![CDATA[
.edge:hover path { stroke: red; }
.edge:hover polygon { stroke: red; fill: red; }
]]></style>
<script type="text/javascript"><![CDATA[
var edges = document.getElementsByTagName('g');
if (edges && edges.length) {
  for (var i=0;i<edges.length;i++) {
    if (edges[i].id.substr(0,4)=='edge') {
      edges[i].setAttribute('class','edge');
    }
  }
}
]]></script>
        <defs>
                <circle id="rim" cx="0" cy="0" r="7"/>
                <circle id="rim2" cx="0" cy="0" r="3.5"/>
                <g id="zoomPlus">
                        <use xlink:href="#rim" fill="#404040">
                                <set attributeName="fill" to="#808080" begin="zoomplus.mouseover" end="zoomplus.mouseout"/>
                        </use>
                        <path d="M-4,0h8M0,-4v8" fill="none" stroke="white" stroke-width="1.5" pointer-events="none"/>
                </g>
                <g id="zoomMin">
                        <use xlink:href="#rim" fill="#404040">
                                <set attributeName="fill" to="#808080" begin="zoomminus.mouseover" end="zoomminus.mouseout"/>
                        </use>
                        <path d="M-4,0h8" fill="none" stroke="white" stroke-width="1.5" pointer-events="none"/>
                </g>
                <g id="dirArrow">
                        <path fill="none" stroke="white" stroke-width="1.5" d="M0,-3.0v7 M-2.5,-0.5L0,-3.0L2.5,-0.5"/>
                </g>
               <g id="resetDef">
                       <use xlink:href="#rim2" fill="#404040">
                               <set attributeName="fill" to="#808080" begin="reset.mouseover" end="reset.mouseout"/>
                       </use>
               </g>
        </defs>

<script type="text/javascript">
var viewWidth = 1724;
var viewHeight = 799;
var sectionId = 'dynsection-3';
</script>
<script xlink:href="../../svgpan.js"/>
<svg id="graph" class="graph">
<g id="viewport">
<title>parser.SemanticsChecker.createCustomCommand</title>
<polygon fill="white" stroke="none" points="-4,4 -4,-795 1720,-795 1720,4 -4,4"/>
<!-- Node1 -->
<g id="node1" class="node"><title>Node1</title>
<polygon fill="#bfbfbf" stroke="black" points="0.5,-386 0.5,-416 173.5,-416 173.5,-386 0.5,-386"/>
<text text-anchor="start" x="8.5" y="-404" font-family="Helvetica,sans-Serif" font-size="10.00">parser.SemanticsChecker.create</text>
<text text-anchor="middle" x="87" y="-393" font-family="Helvetica,sans-Serif" font-size="10.00">CustomCommand</text>
</g>
<!-- Node2 -->
<g id="node2" class="node"><title>Node2</title>
<g id="a_node2"><a xlink:href="../../d7/d0d/classparser_1_1_semantics_checker.html#a8620f3090287a61f86765ee920d53de0" target="_top" xlink:title="parser.SemanticsChecker.evaluate\lExpression">
<polygon fill="white" stroke="black" points="210.5,-386 210.5,-416 393.5,-416 393.5,-386 210.5,-386"/>
<text text-anchor="start" x="218.5" y="-404" font-family="Helvetica,sans-Serif" font-size="10.00">parser.SemanticsChecker.evaluate</text>
<text text-anchor="middle" x="302" y="-393" font-family="Helvetica,sans-Serif" font-size="10.00">Expression</text>
</a>
</g>
</g>
<!-- Node1&#45;&gt;Node2 -->
<g id="edge1" class="edge"><title>Node1&#45;&gt;Node2</title>
<path fill="none" stroke="midnightblue" d="M183.931,-401C192.684,-401 201.534,-401 210.239,-401"/>
<polygon fill="midnightblue" stroke="midnightblue" points="183.715,-397.5 173.715,-401 183.715,-404.5 183.715,-397.5"/>
</g>
<!-- Node3 -->
<g id="node3" class="node"><title>Node3</title>
<g id="a_node3"><a xlink:href="../../d6/d95/classparser_1_1_parser.html#ac0cfecef1d5308df35c49519d94f85a5" target="_top" xlink:title="parser.Parser.parseCommand">
<polygon fill="white" stroke="black" points="430.5,-391.5 430.5,-410.5 589.5,-410.5 589.5,-391.5 430.5,-391.5"/>
<text text-anchor="middle" x="510" y="-398.5" font-family="Helvetica,sans-Serif" font-size="10.00">parser.Parser.parseCommand</text>
</a>
</g>
</g>
<!-- Node2&#45;&gt;Node3 -->
<g id="edge2" class="edge"><title>Node2&#45;&gt;Node3</title>
<path fill="none" stroke="midnightblue" d="M403.699,-401C412.616,-401 421.557,-401 430.253,-401"/>
<polygon fill="midnightblue" stroke="midnightblue" points="403.654,-397.5 393.654,-401 403.654,-404.5 403.654,-397.5"/>
</g>
<!-- Node4 -->
<g id="node4" class="node"><title>Node4</title>
<g id="a_node4"><a xlink:href="../../d7/dde/classparser_1_1_main.html#a75a40fb31f3397122c167e54e6e233c1" target="_top" xlink:title="parser.Main.checkFile">
<polygon fill="white" stroke="black" points="659,-771.5 659,-790.5 777,-790.5 777,-771.5 659,-771.5"/>
<text text-anchor="middle" x="718" y="-778.5" font-family="Helvetica,sans-Serif" font-size="10.00">parser.Main.checkFile</text>
</a>
</g>
</g>
<!-- Node3&#45;&gt;Node4 -->
<g id="edge3" class="edge"><title>Node3&#45;&gt;Node4</title>
<path fill="none" stroke="midnightblue" d="M510.846,-420.774C511.514,-481.76 522.317,-668.441 626,-762 635.106,-770.217 646.826,-775.23 658.805,-778.217"/>
<polygon fill="midnightblue" stroke="midnightblue" points="514.345,-420.599 510.821,-410.608 507.345,-420.616 514.345,-420.599"/>
</g>
<!-- Node6 -->
<g id="node6" class="node"><title>Node6</title>
<g id="a_node6"><a xlink:href="../../d6/d95/classparser_1_1_parser.html#afc96f83c32dde8c90fdab91dd543dddf" target="_top" xlink:title="parser.Parser.parseCommand">
<polygon fill="white" stroke="black" points="638.5,-733.5 638.5,-752.5 797.5,-752.5 797.5,-733.5 638.5,-733.5"/>
<text text-anchor="middle" x="718" y="-740.5" font-family="Helvetica,sans-Serif" font-size="10.00">parser.Parser.parseCommand</text>
</a>
</g>
</g>
<!-- Node3&#45;&gt;Node6 -->
<g id="edge5" class="edge"><title>Node3&#45;&gt;Node6</title>
<path fill="none" stroke="midnightblue" d="M511.764,-420.826C515.069,-477.396 532.645,-640.781 626,-723 630.856,-727.276 636.416,-730.705 642.341,-733.446"/>
<polygon fill="midnightblue" stroke="midnightblue" points="515.254,-420.531 511.264,-410.716 508.262,-420.877 515.254,-420.531"/>
</g>
<!-- Node7 -->
<g id="node7" class="node"><title>Node7</title>
<g id="a_node7"><a xlink:href="../../d9/df7/classcontroller_1_1_controller.html#a89b63f37e67efbeddda1f247016c837b" target="_top" xlink:title="controller.Controller.process\lCommand">
<polygon fill="white" stroke="black" points="643,-684 643,-714 793,-714 793,-684 643,-684"/>
<text text-anchor="start" x="651" y="-702" font-family="Helvetica,sans-Serif" font-size="10.00">controller.Controller.process</text>
<text text-anchor="middle" x="718" y="-691" font-family="Helvetica,sans-Serif" font-size="10.00">Command</text>
</a>
</g>
</g>
<!-- Node3&#45;&gt;Node7 -->
<g id="edge6" class="edge"><title>Node3&#45;&gt;Node7</title>
<path fill="none" stroke="midnightblue" d="M513.434,-420.888C520.67,-471.198 546.733,-604.462 626,-674 631.05,-678.43 636.816,-682.082 642.94,-685.092"/>
<polygon fill="midnightblue" stroke="midnightblue" points="516.868,-420.156 512.07,-410.71 509.93,-421.087 516.868,-420.156"/>
</g>
<!-- Node10 -->
<g id="node10" class="node"><title>Node10</title>
<g id="a_node10"><a xlink:href="../../d9/df7/classcontroller_1_1_controller.html#aec5e242ff69899c974dbd6302510f70b" target="_top" xlink:title="controller.Controller.processFile">
<polygon fill="white" stroke="black" points="635.5,-645.5 635.5,-664.5 800.5,-664.5 800.5,-645.5 635.5,-645.5"/>
<text text-anchor="middle" x="718" y="-652.5" font-family="Helvetica,sans-Serif" font-size="10.00">controller.Controller.processFile</text>
</a>
</g>
</g>
<!-- Node3&#45;&gt;Node10 -->
<g id="edge9" class="edge"><title>Node3&#45;&gt;Node10</title>
<path fill="none" stroke="midnightblue" d="M514.607,-420.852C524.017,-466.61 553.777,-579.859 626,-636 630.842,-639.764 636.252,-642.829 641.954,-645.32"/>
<polygon fill="midnightblue" stroke="midnightblue" points="518.031,-420.125 512.682,-410.98 511.16,-421.465 518.031,-420.125"/>
</g>
<!-- Node15 -->
<g id="node15" class="node"><title>Node15</title>
<g id="a_node15"><a xlink:href="../../d1/d01/classparser_1_1tests_1_1_boolean_tester.html#ab009444f79be316835e50742f06550a9" target="_top" xlink:title="parser.tests.BooleanTester.testAnd">
<polygon fill="white" stroke="black" points="626,-607.5 626,-626.5 810,-626.5 810,-607.5 626,-607.5"/>
<text text-anchor="middle" x="718" y="-614.5" font-family="Helvetica,sans-Serif" font-size="10.00">parser.tests.BooleanTester.testAnd</text>
</a>
</g>
</g>
<!-- Node3&#45;&gt;Node15 -->
<g id="edge15" class="edge"><title>Node3&#45;&gt;Node15</title>
<path fill="none" stroke="midnightblue" d="M516.58,-420.444C529.081,-460.32 563.272,-551.43 626,-597 631.889,-601.278 638.52,-604.67 645.449,-607.356"/>
<polygon fill="midnightblue" stroke="midnightblue" points="519.861,-419.2 513.624,-410.636 513.159,-421.22 519.861,-419.2"/>
</g>
<!-- Node16 -->
<g id="node16" class="node"><title>Node16</title>
<g id="a_node16"><a xlink:href="../../d3/d64/classparser_1_1tests_1_1_math_tester.html#a1677c0f6237b5c48799087b702e713ca" target="_top" xlink:title="parser.tests.MathTester.test\lDifference">
<polygon fill="white" stroke="black" points="643,-558 643,-588 793,-588 793,-558 643,-558"/>
<text text-anchor="start" x="651" y="-576" font-family="Helvetica,sans-Serif" font-size="10.00">parser.tests.MathTester.test</text>
<text text-anchor="middle" x="718" y="-565" font-family="Helvetica,sans-Serif" font-size="10.00">Difference</text>
</a>
</g>
</g>
<!-- Node3&#45;&gt;Node16 -->
<g id="edge16" class="edge"><title>Node3&#45;&gt;Node16</title>
<path fill="none" stroke="midnightblue" d="M520.383,-419.615C537.171,-450.994 575.382,-514.29 626,-548 631.864,-551.905 638.325,-555.204 645.018,-557.989"/>
<polygon fill="midnightblue" stroke="midnightblue" points="523.423,-417.875 515.696,-410.626 517.216,-421.111 523.423,-417.875"/>
</g>
<!-- Node17 -->
<g id="node17" class="node"><title>Node17</title>
<g id="a_node17"><a xlink:href="../../d1/d01/classparser_1_1tests_1_1_boolean_tester.html#a99be1a3a9584ed717090f5bb310bdae0" target="_top" xlink:title="parser.tests.BooleanTester.test\lEqual">
<polygon fill="white" stroke="black" points="635.5,-509 635.5,-539 800.5,-539 800.5,-509 635.5,-509"/>
<text text-anchor="start" x="643.5" y="-527" font-family="Helvetica,sans-Serif" font-size="10.00">parser.tests.BooleanTester.test</text>
<text text-anchor="middle" x="718" y="-516" font-family="Helvetica,sans-Serif" font-size="10.00">Equal</text>
</a>
</g>
</g>
<!-- Node3&#45;&gt;Node17 -->
<g id="edge17" class="edge"><title>Node3&#45;&gt;Node17</title>
<path fill="none" stroke="midnightblue" d="M526.495,-418.226C547.122,-440.132 585.709,-477.668 626,-499 633.24,-502.833 641.123,-506.123 649.122,-508.935"/>
<polygon fill="midnightblue" stroke="midnightblue" points="528.861,-415.629 519.502,-410.662 523.72,-420.381 528.861,-415.629"/>
</g>
<!-- Node18 -->
<g id="node18" class="node"><title>Node18</title>
<g id="a_node18"><a xlink:href="../../d1/d01/classparser_1_1tests_1_1_boolean_tester.html#ad5101fc213b8aeaa37baf5e3b5868d9d" target="_top" xlink:title="parser.tests.BooleanTester.test\lGreaterThan">
<polygon fill="white" stroke="black" points="635.5,-460 635.5,-490 800.5,-490 800.5,-460 635.5,-460"/>
<text text-anchor="start" x="643.5" y="-478" font-family="Helvetica,sans-Serif" font-size="10.00">parser.tests.BooleanTester.test</text>
<text text-anchor="middle" x="718" y="-467" font-family="Helvetica,sans-Serif" font-size="10.00">GreaterThan</text>
</a>
</g>
</g>
<!-- Node3&#45;&gt;Node18 -->
<g id="edge18" class="edge"><title>Node3&#45;&gt;Node18</title>
<path fill="none" stroke="midnightblue" d="M540.234,-414.751C563.225,-425.247 596.235,-439.623 626,-450 636.056,-453.506 646.872,-456.843 657.414,-459.871"/>
<polygon fill="midnightblue" stroke="midnightblue" points="541.581,-411.518 531.033,-410.513 538.652,-417.876 541.581,-411.518"/>
</g>
<!-- Node19 -->
<g id="node19" class="node"><title>Node19</title>
<g id="a_node19"><a xlink:href="../../d1/d01/classparser_1_1tests_1_1_boolean_tester.html#a828f5f4183434799d083a68a00791dba" target="_top" xlink:title="parser.tests.BooleanTester.test\lLessThan">
<polygon fill="white" stroke="black" points="635.5,-411 635.5,-441 800.5,-441 800.5,-411 635.5,-411"/>
<text text-anchor="start" x="643.5" y="-429" font-family="Helvetica,sans-Serif" font-size="10.00">parser.tests.BooleanTester.test</text>
<text text-anchor="middle" x="718" y="-418" font-family="Helvetica,sans-Serif" font-size="10.00">LessThan</text>
</a>
</g>
</g>
<!-- Node3&#45;&gt;Node19 -->
<g id="edge19" class="edge"><title>Node3&#45;&gt;Node19</title>
<path fill="none" stroke="midnightblue" d="M599.408,-411.729C611.335,-413.177 623.527,-414.656 635.329,-416.088"/>
<polygon fill="midnightblue" stroke="midnightblue" points="599.816,-408.253 589.467,-410.523 598.973,-415.202 599.816,-408.253"/>
</g>
<!-- Node20 -->
<g id="node20" class="node"><title>Node20</title>
<g id="a_node20"><a xlink:href="../../d3/d64/classparser_1_1tests_1_1_math_tester.html#a06cade99788206056814bc20735cd193" target="_top" xlink:title="parser.tests.MathTester.test\lMinus">
<polygon fill="white" stroke="black" points="643,-362 643,-392 793,-392 793,-362 643,-362"/>
<text text-anchor="start" x="651" y="-380" font-family="Helvetica,sans-Serif" font-size="10.00">parser.tests.MathTester.test</text>
<text text-anchor="middle" x="718" y="-369" font-family="Helvetica,sans-Serif" font-size="10.00">Minus</text>
</a>
</g>
</g>
<!-- Node3&#45;&gt;Node20 -->
<g id="edge20" class="edge"><title>Node3&#45;&gt;Node20</title>
<path fill="none" stroke="midnightblue" d="M600.04,-390.626C614.265,-388.969 628.852,-387.27 642.689,-385.658"/>
<polygon fill="midnightblue" stroke="midnightblue" points="599.289,-387.19 589.762,-391.824 600.099,-394.143 599.289,-387.19"/>
</g>
<!-- Node21 -->
<g id="node21" class="node"><title>Node21</title>
<g id="a_node21"><a xlink:href="../../d1/d01/classparser_1_1tests_1_1_boolean_tester.html#a402bae747c40cf9030ea6e85a44b10d2" target="_top" xlink:title="parser.tests.BooleanTester.testNot">
<polygon fill="white" stroke="black" points="627,-323.5 627,-342.5 809,-342.5 809,-323.5 627,-323.5"/>
<text text-anchor="middle" x="718" y="-330.5" font-family="Helvetica,sans-Serif" font-size="10.00">parser.tests.BooleanTester.testNot</text>
</a>
</g>
</g>
<!-- Node3&#45;&gt;Node21 -->
<g id="edge21" class="edge"><title>Node3&#45;&gt;Node21</title>
<path fill="none" stroke="midnightblue" d="M540.122,-387.135C563.051,-376.64 596.034,-362.463 626,-353 638.803,-348.957 652.869,-345.433 666.035,-342.517"/>
<polygon fill="midnightblue" stroke="midnightblue" points="538.552,-384.005 530.949,-391.383 541.494,-390.357 538.552,-384.005"/>
</g>
<!-- Node22 -->
<g id="node22" class="node"><title>Node22</title>
<g id="a_node22"><a xlink:href="../../d1/d01/classparser_1_1tests_1_1_boolean_tester.html#ac0deac7b7ba9e48e30a9ed6cff134d09" target="_top" xlink:title="parser.tests.BooleanTester.test\lNotEqual">
<polygon fill="white" stroke="black" points="635.5,-274 635.5,-304 800.5,-304 800.5,-274 635.5,-274"/>
<text text-anchor="start" x="643.5" y="-292" font-family="Helvetica,sans-Serif" font-size="10.00">parser.tests.BooleanTester.test</text>
<text text-anchor="middle" x="718" y="-281" font-family="Helvetica,sans-Serif" font-size="10.00">NotEqual</text>
</a>
</g>
</g>
<!-- Node3&#45;&gt;Node22 -->
<g id="edge22" class="edge"><title>Node3&#45;&gt;Node22</title>
<path fill="none" stroke="midnightblue" d="M528.479,-384.339C549.863,-364.816 587.937,-332.758 626,-314 633.642,-310.234 641.934,-306.966 650.297,-304.15"/>
<polygon fill="midnightblue" stroke="midnightblue" points="525.831,-382.021 520.885,-391.39 530.594,-387.151 525.831,-382.021"/>
</g>
<!-- Node23 -->
<g id="node23" class="node"><title>Node23</title>
<g id="a_node23"><a xlink:href="../../d1/d01/classparser_1_1tests_1_1_boolean_tester.html#a733a8bed2ef17160461077bd2e53490c" target="_top" xlink:title="parser.tests.BooleanTester.testOr">
<polygon fill="white" stroke="black" points="630,-235.5 630,-254.5 806,-254.5 806,-235.5 630,-235.5"/>
<text text-anchor="middle" x="718" y="-242.5" font-family="Helvetica,sans-Serif" font-size="10.00">parser.tests.BooleanTester.testOr</text>
</a>
</g>
</g>
<!-- Node3&#45;&gt;Node23 -->
<g id="edge23" class="edge"><title>Node3&#45;&gt;Node23</title>
<path fill="none" stroke="midnightblue" d="M521.304,-382.273C538.738,-352.457 576.992,-294.551 626,-265 633.203,-260.657 641.235,-257.253 649.461,-254.585"/>
<polygon fill="midnightblue" stroke="midnightblue" points="518.113,-380.805 516.205,-391.227 524.195,-384.27 518.113,-380.805"/>
</g>
<!-- Node24 -->
<g id="node24" class="node"><title>Node24</title>
<g id="a_node24"><a xlink:href="../../d3/d64/classparser_1_1tests_1_1_math_tester.html#af3c9e732ab91e0cad71ea7cd66a7a0d4" target="_top" xlink:title="parser.tests.MathTester.test\lProduct">
<polygon fill="white" stroke="black" points="643,-186 643,-216 793,-216 793,-186 643,-186"/>
<text text-anchor="start" x="651" y="-204" font-family="Helvetica,sans-Serif" font-size="10.00">parser.tests.MathTester.test</text>
<text text-anchor="middle" x="718" y="-193" font-family="Helvetica,sans-Serif" font-size="10.00">Product</text>
</a>
</g>
</g>
<!-- Node3&#45;&gt;Node24 -->
<g id="edge24" class="edge"><title>Node3&#45;&gt;Node24</title>
<path fill="none" stroke="midnightblue" d="M518.167,-381.893C532.725,-345.739 569.268,-267.257 626,-226 631.3,-222.146 637.166,-218.885 643.291,-216.128"/>
<polygon fill="midnightblue" stroke="midnightblue" points="514.876,-380.697 514.5,-391.285 521.397,-383.243 514.876,-380.697"/>
</g>
<!-- Node25 -->
<g id="node25" class="node"><title>Node25</title>
<g id="a_node25"><a xlink:href="../../d3/d64/classparser_1_1tests_1_1_math_tester.html#a0bee886e0100c55a64fb804fa462e079" target="_top" xlink:title="parser.tests.MathTester.test\lQuotient">
<polygon fill="white" stroke="black" points="643,-137 643,-167 793,-167 793,-137 643,-137"/>
<text text-anchor="start" x="651" y="-155" font-family="Helvetica,sans-Serif" font-size="10.00">parser.tests.MathTester.test</text>
<text text-anchor="middle" x="718" y="-144" font-family="Helvetica,sans-Serif" font-size="10.00">Quotient</text>
</a>
</g>
</g>
<!-- Node3&#45;&gt;Node25 -->
<g id="edge25" class="edge"><title>Node3&#45;&gt;Node25</title>
<path fill="none" stroke="midnightblue" d="M515.421,-381.2C526.244,-337.44 558.272,-232.027 626,-177 631.086,-172.867 636.805,-169.416 642.834,-166.534"/>
<polygon fill="midnightblue" stroke="midnightblue" points="511.963,-380.616 513.068,-391.153 518.775,-382.227 511.963,-380.616"/>
</g>
<!-- Node26 -->
<g id="node26" class="node"><title>Node26</title>
<g id="a_node26"><a xlink:href="../../d3/d64/classparser_1_1tests_1_1_math_tester.html#a0834a1beeeb3689ab52b3523b1ec053e" target="_top" xlink:title="parser.tests.MathTester.test\lRandom">
<polygon fill="white" stroke="black" points="643,-88 643,-118 793,-118 793,-88 643,-88"/>
<text text-anchor="start" x="651" y="-106" font-family="Helvetica,sans-Serif" font-size="10.00">parser.tests.MathTester.test</text>
<text text-anchor="middle" x="718" y="-95" font-family="Helvetica,sans-Serif" font-size="10.00">Random</text>
</a>
</g>
</g>
<!-- Node3&#45;&gt;Node26 -->
<g id="edge26" class="edge"><title>Node3&#45;&gt;Node26</title>
<path fill="none" stroke="midnightblue" d="M513.434,-381.112C520.67,-330.802 546.733,-197.538 626,-128 631.05,-123.57 636.816,-119.918 642.94,-116.908"/>
<polygon fill="midnightblue" stroke="midnightblue" points="509.93,-380.913 512.07,-391.29 516.868,-381.844 509.93,-380.913"/>
</g>
<!-- Node27 -->
<g id="node27" class="node"><title>Node27</title>
<g id="a_node27"><a xlink:href="../../d3/d64/classparser_1_1tests_1_1_math_tester.html#aeba46a296188edda903e21c6be23bdd8" target="_top" xlink:title="parser.tests.MathTester.test\lRemainder">
<polygon fill="white" stroke="black" points="643,-39 643,-69 793,-69 793,-39 643,-39"/>
<text text-anchor="start" x="651" y="-57" font-family="Helvetica,sans-Serif" font-size="10.00">parser.tests.MathTester.test</text>
<text text-anchor="middle" x="718" y="-46" font-family="Helvetica,sans-Serif" font-size="10.00">Remainder</text>
</a>
</g>
</g>
<!-- Node3&#45;&gt;Node27 -->
<g id="edge27" class="edge"><title>Node3&#45;&gt;Node27</title>
<path fill="none" stroke="midnightblue" d="M511.977,-381.41C515.852,-325.471 534.805,-163.607 626,-79 630.924,-74.4313 636.606,-70.6847 642.675,-67.6142"/>
<polygon fill="midnightblue" stroke="midnightblue" points="508.483,-381.21 511.372,-391.403 515.47,-381.633 508.483,-381.21"/>
</g>
<!-- Node28 -->
<g id="node28" class="node"><title>Node28</title>
<g id="a_node28"><a xlink:href="../../d3/d64/classparser_1_1tests_1_1_math_tester.html#a0059e207747b76f3579b4218cfe7c5dc" target="_top" xlink:title="parser.tests.MathTester.testSum">
<polygon fill="white" stroke="black" points="631.5,-0.5 631.5,-19.5 804.5,-19.5 804.5,-0.5 631.5,-0.5"/>
<text text-anchor="middle" x="718" y="-7.5" font-family="Helvetica,sans-Serif" font-size="10.00">parser.tests.MathTester.testSum</text>
</a>
</g>
</g>
<!-- Node3&#45;&gt;Node28 -->
<g id="edge28" class="edge"><title>Node3&#45;&gt;Node28</title>
<path fill="none" stroke="midnightblue" d="M510.693,-381.155C510.882,-319.1 520.356,-127.099 626,-30 630.645,-25.731 635.986,-22.2985 641.704,-19.5468"/>
<polygon fill="midnightblue" stroke="midnightblue" points="507.195,-381.493 510.75,-391.473 514.195,-381.454 507.195,-381.493"/>
</g>
<!-- Node5 -->
<g id="node5" class="node"><title>Node5</title>
<g id="a_node5"><a xlink:href="../../d7/dde/classparser_1_1_main.html#ac3abd936d94632f17feedf0cce82afff" target="_top" xlink:title="parser.Main.main">
<polygon fill="white" stroke="black" points="863.5,-771.5 863.5,-790.5 962.5,-790.5 962.5,-771.5 863.5,-771.5"/>
<text text-anchor="middle" x="913" y="-778.5" font-family="Helvetica,sans-Serif" font-size="10.00">parser.Main.main</text>
</a>
</g>
</g>
<!-- Node4&#45;&gt;Node5 -->
<g id="edge4" class="edge"><title>Node4&#45;&gt;Node5</title>
<path fill="none" stroke="midnightblue" d="M787.366,-781C812.471,-781 840.36,-781 863.38,-781"/>
<polygon fill="midnightblue" stroke="midnightblue" points="787.168,-777.5 777.168,-781 787.168,-784.5 787.168,-777.5"/>
</g>
<!-- Node8 -->
<g id="node8" class="node"><title>Node8</title>
<g id="a_node8"><a xlink:href="../../d9/df7/classcontroller_1_1_controller.html#a2bfb87bca460d87b2c97e0b5045a2175" target="_top" xlink:title="controller.Controller.create\lRunCommandListener">
<polygon fill="white" stroke="black" points="1016.5,-686 1016.5,-716 1159.5,-716 1159.5,-686 1016.5,-686"/>
<text text-anchor="start" x="1024.5" y="-704" font-family="Helvetica,sans-Serif" font-size="10.00">controller.Controller.create</text>
<text text-anchor="middle" x="1088" y="-693" font-family="Helvetica,sans-Serif" font-size="10.00">RunCommandListener</text>
</a>
</g>
</g>
<!-- Node7&#45;&gt;Node8 -->
<g id="edge7" class="edge"><title>Node7&#45;&gt;Node8</title>
<path fill="none" stroke="midnightblue" d="M803.156,-699.457C867.567,-699.807 955.39,-700.285 1016.21,-700.615"/>
<polygon fill="midnightblue" stroke="midnightblue" points="803.047,-695.957 793.028,-699.402 803.008,-702.957 803.047,-695.957"/>
</g>
<!-- Node9 -->
<g id="node9" class="node"><title>Node9</title>
<g id="a_node9"><a xlink:href="../../d9/df7/classcontroller_1_1_controller.html#a47511ec57338c8e75e71e9314cda5271" target="_top" xlink:title="controller.Controller.Controller">
<polygon fill="white" stroke="black" points="1556.5,-667.5 1556.5,-686.5 1715.5,-686.5 1715.5,-667.5 1556.5,-667.5"/>
<text text-anchor="middle" x="1636" y="-674.5" font-family="Helvetica,sans-Serif" font-size="10.00">controller.Controller.Controller</text>
</a>
</g>
</g>
<!-- Node8&#45;&gt;Node9 -->
<g id="edge8" class="edge"><title>Node8&#45;&gt;Node9</title>
<path fill="none" stroke="midnightblue" d="M1169.67,-697.454C1273.64,-692.884 1453.25,-684.989 1556.27,-680.461"/>
<polygon fill="midnightblue" stroke="midnightblue" points="1169.38,-693.963 1159.54,-697.899 1169.69,-700.957 1169.38,-693.963"/>
</g>
<!-- Node11 -->
<g id="node11" class="node"><title>Node11</title>
<g id="a_node11"><a xlink:href="../../d9/df7/classcontroller_1_1_controller.html#a37c3009658f66dc4de0be01b75adf660" target="_top" xlink:title="controller.Controller.load\lWorkspace">
<polygon fill="white" stroke="black" points="846.5,-638 846.5,-668 979.5,-668 979.5,-638 846.5,-638"/>
<text text-anchor="start" x="854.5" y="-656" font-family="Helvetica,sans-Serif" font-size="10.00">controller.Controller.load</text>
<text text-anchor="middle" x="913" y="-645" font-family="Helvetica,sans-Serif" font-size="10.00">Workspace</text>
</a>
</g>
</g>
<!-- Node10&#45;&gt;Node11 -->
<g id="edge10" class="edge"><title>Node10&#45;&gt;Node11</title>
<path fill="none" stroke="midnightblue" d="M810.618,-654.051C822.629,-653.926 834.741,-653.801 846.207,-653.682"/>
<polygon fill="midnightblue" stroke="midnightblue" points="810.533,-650.551 800.57,-654.155 810.605,-657.551 810.533,-650.551"/>
</g>
<!-- Node12 -->
<g id="node12" class="node"><title>Node12</title>
<g id="a_node12"><a xlink:href="../../d9/df7/classcontroller_1_1_controller.html#aa46804b9ca132af8504b5dafb1cadb0d" target="_top" xlink:title="controller.Controller.create\lFileCommands">
<polygon fill="white" stroke="black" points="1016.5,-637 1016.5,-667 1159.5,-667 1159.5,-637 1016.5,-637"/>
<text text-anchor="start" x="1024.5" y="-655" font-family="Helvetica,sans-Serif" font-size="10.00">controller.Controller.create</text>
<text text-anchor="middle" x="1088" y="-644" font-family="Helvetica,sans-Serif" font-size="10.00">FileCommands</text>
</a>
</g>
</g>
<!-- Node11&#45;&gt;Node12 -->
<g id="edge11" class="edge"><title>Node11&#45;&gt;Node12</title>
<path fill="none" stroke="midnightblue" d="M990.078,-652.56C998.826,-652.51 1007.72,-652.458 1016.39,-652.408"/>
<polygon fill="midnightblue" stroke="midnightblue" points="989.877,-649.061 979.897,-652.619 989.917,-656.061 989.877,-649.061"/>
</g>
<!-- Node13 -->
<g id="node13" class="node"><title>Node13</title>
<g id="a_node13"><a xlink:href="../../d9/df7/classcontroller_1_1_controller.html#af4c05286f1534b1fa6de523c54549288" target="_top" xlink:title="controller.Controller.create\lFileMenu">
<polygon fill="white" stroke="black" points="1196.5,-639 1196.5,-669 1339.5,-669 1339.5,-639 1196.5,-639"/>
<text text-anchor="start" x="1204.5" y="-657" font-family="Helvetica,sans-Serif" font-size="10.00">controller.Controller.create</text>
<text text-anchor="middle" x="1268" y="-646" font-family="Helvetica,sans-Serif" font-size="10.00">FileMenu</text>
</a>
</g>
</g>
<!-- Node12&#45;&gt;Node13 -->
<g id="edge12" class="edge"><title>Node12&#45;&gt;Node13</title>
<path fill="none" stroke="midnightblue" d="M1169.65,-652.906C1178.6,-653.007 1187.67,-653.109 1196.48,-653.208"/>
<polygon fill="midnightblue" stroke="midnightblue" points="1169.64,-649.406 1159.61,-652.793 1169.57,-656.406 1169.64,-649.406"/>
</g>
<!-- Node14 -->
<g id="node14" class="node"><title>Node14</title>
<g id="a_node14"><a xlink:href="../../d9/df7/classcontroller_1_1_controller.html#a2901bf43bb8e47b485558dbf00d40d6d" target="_top" xlink:title="controller.Controller.create\lJMenuBar">
<polygon fill="white" stroke="black" points="1376.5,-640 1376.5,-670 1519.5,-670 1519.5,-640 1376.5,-640"/>
<text text-anchor="start" x="1384.5" y="-658" font-family="Helvetica,sans-Serif" font-size="10.00">controller.Controller.create</text>
<text text-anchor="middle" x="1448" y="-647" font-family="Helvetica,sans-Serif" font-size="10.00">JMenuBar</text>
</a>
</g>
</g>
<!-- Node13&#45;&gt;Node14 -->
<g id="edge13" class="edge"><title>Node13&#45;&gt;Node14</title>
<path fill="none" stroke="midnightblue" d="M1349.65,-654.453C1358.6,-654.503 1367.67,-654.554 1376.48,-654.604"/>
<polygon fill="midnightblue" stroke="midnightblue" points="1349.63,-650.953 1339.61,-654.397 1349.59,-657.953 1349.63,-650.953"/>
</g>
<!-- Node14&#45;&gt;Node9 -->
<g id="edge14" class="edge"><title>Node14&#45;&gt;Node9</title>
<path fill="none" stroke="midnightblue" d="M1529.55,-664.527C1538.45,-665.58 1547.5,-666.651 1556.38,-667.701"/>
<polygon fill="midnightblue" stroke="midnightblue" points="1529.93,-661.048 1519.58,-663.349 1529.1,-667.999 1529.93,-661.048"/>
</g>
</g>
</svg>
        <g id="navigator" transform="translate(0 0)" fill="#404254">
                <rect fill="#f2f5e9" fill-opacity="0.5" stroke="#606060" stroke-width=".5" x="0" y="0" width="60" height="60"/>
                <use id="zoomplus" xlink:href="#zoomPlus" x="17" y="9" onmousedown="handleZoom(evt,'in')"/>
                <use id="zoomminus" xlink:href="#zoomMin" x="42" y="9" onmousedown="handleZoom(evt,'out')"/>
                <use id="reset" xlink:href="#resetDef" x="30" y="36" onmousedown="handleReset()"/>
                <g id="arrowUp" xlink:href="#dirArrow" transform="translate(30 24)" onmousedown="handlePan(0,-1)">
                  <use xlink:href="#rim" fill="#404040">
                        <set attributeName="fill" to="#808080" begin="arrowUp.mouseover" end="arrowUp.mouseout"/>
                  </use>
                  <path fill="none" stroke="white" stroke-width="1.5" d="M0,-3.0v7 M-2.5,-0.5L0,-3.0L2.5,-0.5"/>
                </g>
                <g id="arrowRight" xlink:href="#dirArrow" transform="rotate(90) translate(36 -43)" onmousedown="handlePan(1,0)">
                  <use xlink:href="#rim" fill="#404040">
                        <set attributeName="fill" to="#808080" begin="arrowRight.mouseover" end="arrowRight.mouseout"/>
                  </use>
                  <path fill="none" stroke="white" stroke-width="1.5" d="M0,-3.0v7 M-2.5,-0.5L0,-3.0L2.5,-0.5"/>
                </g>
                <g id="arrowDown" xlink:href="#dirArrow" transform="rotate(180) translate(-30 -48)" onmousedown="handlePan(0,1)">
                  <use xlink:href="#rim" fill="#404040">
                        <set attributeName="fill" to="#808080" begin="arrowDown.mouseover" end="arrowDown.mouseout"/>
                  </use>
                  <path fill="none" stroke="white" stroke-width="1.5" d="M0,-3.0v7 M-2.5,-0.5L0,-3.0L2.5,-0.5"/>
                </g>
                <g id="arrowLeft" xlink:href="#dirArrow" transform="rotate(270) translate(-36 17)" onmousedown="handlePan(-1,0)">
                  <use xlink:href="#rim" fill="#404040">
                        <set attributeName="fill" to="#808080" begin="arrowLeft.mouseover" end="arrowLeft.mouseout"/>
                  </use>
                  <path fill="none" stroke="white" stroke-width="1.5" d="M0,-3.0v7 M-2.5,-0.5L0,-3.0L2.5,-0.5"/>
                </g>
        </g>
        <svg viewBox="0 0 15 15" width="100%" height="30px" preserveAspectRatio="xMaxYMin meet">
         <g id="arrow_out" transform="scale(0.3 0.3)">
          <a xlink:href="classparser_1_1_semantics_checker_a41a9f32483c1d0e32acd7fa553c9670c_icgraph_org.svg" target="_base">
           <rect id="button" ry="5" rx="5" y="6" x="6" height="38" width="38"
                fill="#f2f5e9" fill-opacity="0.5" stroke="#606060" stroke-width="1.0"/>
           <path id="arrow"
             d="M 11.500037,31.436501 C 11.940474,20.09759 22.043105,11.32322 32.158766,21.979434 L 37.068811,17.246167 C 37.068811,17.246167 37.088388,32 37.088388,32 L 22.160133,31.978069 C 22.160133,31.978069 26.997745,27.140456 26.997745,27.140456 C 18.528582,18.264221 13.291696,25.230495 11.500037,31.436501 z"
             style="fill:#404040;"/>
          </a>
         </g>
        </svg>
</svg>
