<?xml version="1.0" encoding="UTF-8" standalone="no"?>
<!DOCTYPE svg PUBLIC "-//W3C//DTD SVG 1.1//EN"
 "http://www.w3.org/Graphics/SVG/1.1/DTD/svg11.dtd">
<!-- Generated by graphviz version 2.36.0 (20140111.2315)
 -->
<!-- Title: parser.SemanticsChecker.createNode Pages: 1 -->
<svg width="1748pt" height="799pt"
 viewBox="0.00 0.00 1748.00 799.00" xmlns="http://www.w3.org/2000/svg" xmlns:xlink="http://www.w3.org/1999/xlink">
<g id="graph0" class="graph" transform="scale(1 1) rotate(0) translate(4 795)">
<title>parser.SemanticsChecker.createNode</title>
<polygon fill="white" stroke="none" points="-4,4 -4,-795 1744,-795 1744,4 -4,4"/>
<!-- Node1 -->
<g id="node1" class="node"><title>Node1</title>
<polygon fill="#bfbfbf" stroke="black" points="0,-391.5 0,-410.5 198,-410.5 198,-391.5 0,-391.5"/>
<text text-anchor="middle" x="99" y="-398.5" font-family="Helvetica,sans-Serif" font-size="10.00">parser.SemanticsChecker.createNode</text>
</g>
<!-- Node2 -->
<g id="node2" class="node"><title>Node2</title>
<g id="a_node2"><a xlink:href="../../d7/d0d/classparser_1_1_semantics_checker.html#a8620f3090287a61f86765ee920d53de0" target="_top" xlink:title="parser.SemanticsChecker.evaluate\lExpression">
<polygon fill="white" stroke="black" points="234.5,-386 234.5,-416 417.5,-416 417.5,-386 234.5,-386"/>
<text text-anchor="start" x="242.5" y="-404" font-family="Helvetica,sans-Serif" font-size="10.00">parser.SemanticsChecker.evaluate</text>
<text text-anchor="middle" x="326" y="-393" font-family="Helvetica,sans-Serif" font-size="10.00">Expression</text>
</a>
</g>
</g>
<!-- Node1&#45;&gt;Node2 -->
<g id="edge1" class="edge"><title>Node1&#45;&gt;Node2</title>
<path fill="none" stroke="midnightblue" d="M208.267,-401C217.008,-401 225.783,-401 234.381,-401"/>
<polygon fill="midnightblue" stroke="midnightblue" points="208.034,-397.5 198.034,-401 208.034,-404.5 208.034,-397.5"/>
</g>
<!-- Node3 -->
<g id="node3" class="node"><title>Node3</title>
<g id="a_node3"><a xlink:href="../../d6/d95/classparser_1_1_parser.html#ac0cfecef1d5308df35c49519d94f85a5" target="_top" xlink:title="parser.Parser.parseCommand">
<polygon fill="white" stroke="black" points="454.5,-391.5 454.5,-410.5 613.5,-410.5 613.5,-391.5 454.5,-391.5"/>
<text text-anchor="middle" x="534" y="-398.5" font-family="Helvetica,sans-Serif" font-size="10.00">parser.Parser.parseCommand</text>
</a>
</g>
</g>
<!-- Node2&#45;&gt;Node3 -->
<g id="edge2" class="edge"><title>Node2&#45;&gt;Node3</title>
<path fill="none" stroke="midnightblue" d="M427.699,-401C436.616,-401 445.557,-401 454.253,-401"/>
<polygon fill="midnightblue" stroke="midnightblue" points="427.654,-397.5 417.654,-401 427.654,-404.5 427.654,-397.5"/>
</g>
<!-- Node4 -->
<g id="node4" class="node"><title>Node4</title>
<g id="a_node4"><a xlink:href="../../d7/dde/classparser_1_1_main.html#a75a40fb31f3397122c167e54e6e233c1" target="_top" xlink:title="parser.Main.checkFile">
<polygon fill="white" stroke="black" points="683,-771.5 683,-790.5 801,-790.5 801,-771.5 683,-771.5"/>
<text text-anchor="middle" x="742" y="-778.5" font-family="Helvetica,sans-Serif" font-size="10.00">parser.Main.checkFile</text>
</a>
</g>
</g>
<!-- Node3&#45;&gt;Node4 -->
<g id="edge3" class="edge"><title>Node3&#45;&gt;Node4</title>
<path fill="none" stroke="midnightblue" d="M534.846,-420.774C535.514,-481.76 546.317,-668.441 650,-762 659.106,-770.217 670.826,-775.23 682.805,-778.217"/>
<polygon fill="midnightblue" stroke="midnightblue" points="538.345,-420.599 534.821,-410.608 531.345,-420.616 538.345,-420.599"/>
</g>
<!-- Node6 -->
<g id="node6" class="node"><title>Node6</title>
<g id="a_node6"><a xlink:href="../../d6/d95/classparser_1_1_parser.html#afc96f83c32dde8c90fdab91dd543dddf" target="_top" xlink:title="parser.Parser.parseCommand">
<polygon fill="white" stroke="black" points="662.5,-733.5 662.5,-752.5 821.5,-752.5 821.5,-733.5 662.5,-733.5"/>
<text text-anchor="middle" x="742" y="-740.5" font-family="Helvetica,sans-Serif" font-size="10.00">parser.Parser.parseCommand</text>
</a>
</g>
</g>
<!-- Node3&#45;&gt;Node6 -->
<g id="edge5" class="edge"><title>Node3&#45;&gt;Node6</title>
<path fill="none" stroke="midnightblue" d="M535.764,-420.826C539.069,-477.396 556.645,-640.781 650,-723 654.856,-727.276 660.416,-730.705 666.341,-733.446"/>
<polygon fill="midnightblue" stroke="midnightblue" points="539.254,-420.531 535.264,-410.716 532.262,-420.877 539.254,-420.531"/>
</g>
<!-- Node7 -->
<g id="node7" class="node"><title>Node7</title>
<g id="a_node7"><a xlink:href="../../d9/df7/classcontroller_1_1_controller.html#a89b63f37e67efbeddda1f247016c837b" target="_top" xlink:title="controller.Controller.process\lCommand">
<polygon fill="white" stroke="black" points="667,-684 667,-714 817,-714 817,-684 667,-684"/>
<text text-anchor="start" x="675" y="-702" font-family="Helvetica,sans-Serif" font-size="10.00">controller.Controller.process</text>
<text text-anchor="middle" x="742" y="-691" font-family="Helvetica,sans-Serif" font-size="10.00">Command</text>
</a>
</g>
</g>
<!-- Node3&#45;&gt;Node7 -->
<g id="edge6" class="edge"><title>Node3&#45;&gt;Node7</title>
<path fill="none" stroke="midnightblue" d="M537.434,-420.888C544.67,-471.198 570.733,-604.462 650,-674 655.05,-678.43 660.816,-682.082 666.94,-685.092"/>
<polygon fill="midnightblue" stroke="midnightblue" points="540.868,-420.156 536.07,-410.71 533.93,-421.087 540.868,-420.156"/>
</g>
<!-- Node10 -->
<g id="node10" class="node"><title>Node10</title>
<g id="a_node10"><a xlink:href="../../d9/df7/classcontroller_1_1_controller.html#aec5e242ff69899c974dbd6302510f70b" target="_top" xlink:title="controller.Controller.processFile">
<polygon fill="white" stroke="black" points="659.5,-645.5 659.5,-664.5 824.5,-664.5 824.5,-645.5 659.5,-645.5"/>
<text text-anchor="middle" x="742" y="-652.5" font-family="Helvetica,sans-Serif" font-size="10.00">controller.Controller.processFile</text>
</a>
</g>
</g>
<!-- Node3&#45;&gt;Node10 -->
<g id="edge9" class="edge"><title>Node3&#45;&gt;Node10</title>
<path fill="none" stroke="midnightblue" d="M538.607,-420.852C548.017,-466.61 577.777,-579.859 650,-636 654.842,-639.764 660.252,-642.829 665.954,-645.32"/>
<polygon fill="midnightblue" stroke="midnightblue" points="542.031,-420.125 536.682,-410.98 535.16,-421.465 542.031,-420.125"/>
</g>
<!-- Node15 -->
<g id="node15" class="node"><title>Node15</title>
<g id="a_node15"><a xlink:href="../../d1/d01/classparser_1_1tests_1_1_boolean_tester.html#ab009444f79be316835e50742f06550a9" target="_top" xlink:title="parser.tests.BooleanTester.testAnd">
<polygon fill="white" stroke="black" points="650,-607.5 650,-626.5 834,-626.5 834,-607.5 650,-607.5"/>
<text text-anchor="middle" x="742" y="-614.5" font-family="Helvetica,sans-Serif" font-size="10.00">parser.tests.BooleanTester.testAnd</text>
</a>
</g>
</g>
<!-- Node3&#45;&gt;Node15 -->
<g id="edge15" class="edge"><title>Node3&#45;&gt;Node15</title>
<path fill="none" stroke="midnightblue" d="M540.58,-420.444C553.081,-460.32 587.272,-551.43 650,-597 655.889,-601.278 662.52,-604.67 669.449,-607.356"/>
<polygon fill="midnightblue" stroke="midnightblue" points="543.861,-419.2 537.624,-410.636 537.159,-421.22 543.861,-419.2"/>
</g>
<!-- Node16 -->
<g id="node16" class="node"><title>Node16</title>
<g id="a_node16"><a xlink:href="../../d3/d64/classparser_1_1tests_1_1_math_tester.html#a1677c0f6237b5c48799087b702e713ca" target="_top" xlink:title="parser.tests.MathTester.test\lDifference">
<polygon fill="white" stroke="black" points="667,-558 667,-588 817,-588 817,-558 667,-558"/>
<text text-anchor="start" x="675" y="-576" font-family="Helvetica,sans-Serif" font-size="10.00">parser.tests.MathTester.test</text>
<text text-anchor="middle" x="742" y="-565" font-family="Helvetica,sans-Serif" font-size="10.00">Difference</text>
</a>
</g>
</g>
<!-- Node3&#45;&gt;Node16 -->
<g id="edge16" class="edge"><title>Node3&#45;&gt;Node16</title>
<path fill="none" stroke="midnightblue" d="M544.383,-419.615C561.171,-450.994 599.382,-514.29 650,-548 655.864,-551.905 662.325,-555.204 669.018,-557.989"/>
<polygon fill="midnightblue" stroke="midnightblue" points="547.423,-417.875 539.696,-410.626 541.216,-421.111 547.423,-417.875"/>
</g>
<!-- Node17 -->
<g id="node17" class="node"><title>Node17</title>
<g id="a_node17"><a xlink:href="../../d1/d01/classparser_1_1tests_1_1_boolean_tester.html#a99be1a3a9584ed717090f5bb310bdae0" target="_top" xlink:title="parser.tests.BooleanTester.test\lEqual">
<polygon fill="white" stroke="black" points="659.5,-509 659.5,-539 824.5,-539 824.5,-509 659.5,-509"/>
<text text-anchor="start" x="667.5" y="-527" font-family="Helvetica,sans-Serif" font-size="10.00">parser.tests.BooleanTester.test</text>
<text text-anchor="middle" x="742" y="-516" font-family="Helvetica,sans-Serif" font-size="10.00">Equal</text>
</a>
</g>
</g>
<!-- Node3&#45;&gt;Node17 -->
<g id="edge17" class="edge"><title>Node3&#45;&gt;Node17</title>
<path fill="none" stroke="midnightblue" d="M550.495,-418.226C571.122,-440.132 609.709,-477.668 650,-499 657.24,-502.833 665.123,-506.123 673.122,-508.935"/>
<polygon fill="midnightblue" stroke="midnightblue" points="552.861,-415.629 543.502,-410.662 547.72,-420.381 552.861,-415.629"/>
</g>
<!-- Node18 -->
<g id="node18" class="node"><title>Node18</title>
<g id="a_node18"><a xlink:href="../../d1/d01/classparser_1_1tests_1_1_boolean_tester.html#ad5101fc213b8aeaa37baf5e3b5868d9d" target="_top" xlink:title="parser.tests.BooleanTester.test\lGreaterThan">
<polygon fill="white" stroke="black" points="659.5,-460 659.5,-490 824.5,-490 824.5,-460 659.5,-460"/>
<text text-anchor="start" x="667.5" y="-478" font-family="Helvetica,sans-Serif" font-size="10.00">parser.tests.BooleanTester.test</text>
<text text-anchor="middle" x="742" y="-467" font-family="Helvetica,sans-Serif" font-size="10.00">GreaterThan</text>
</a>
</g>
</g>
<!-- Node3&#45;&gt;Node18 -->
<g id="edge18" class="edge"><title>Node3&#45;&gt;Node18</title>
<path fill="none" stroke="midnightblue" d="M564.234,-414.751C587.225,-425.247 620.235,-439.623 650,-450 660.056,-453.506 670.872,-456.843 681.414,-459.871"/>
<polygon fill="midnightblue" stroke="midnightblue" points="565.581,-411.518 555.033,-410.513 562.652,-417.876 565.581,-411.518"/>
</g>
<!-- Node19 -->
<g id="node19" class="node"><title>Node19</title>
<g id="a_node19"><a xlink:href="../../d1/d01/classparser_1_1tests_1_1_boolean_tester.html#a828f5f4183434799d083a68a00791dba" target="_top" xlink:title="parser.tests.BooleanTester.test\lLessThan">
<polygon fill="white" stroke="black" points="659.5,-411 659.5,-441 824.5,-441 824.5,-411 659.5,-411"/>
<text text-anchor="start" x="667.5" y="-429" font-family="Helvetica,sans-Serif" font-size="10.00">parser.tests.BooleanTester.test</text>
<text text-anchor="middle" x="742" y="-418" font-family="Helvetica,sans-Serif" font-size="10.00">LessThan</text>
</a>
</g>
</g>
<!-- Node3&#45;&gt;Node19 -->
<g id="edge19" class="edge"><title>Node3&#45;&gt;Node19</title>
<path fill="none" stroke="midnightblue" d="M623.408,-411.729C635.335,-413.177 647.527,-414.656 659.329,-416.088"/>
<polygon fill="midnightblue" stroke="midnightblue" points="623.816,-408.253 613.467,-410.523 622.973,-415.202 623.816,-408.253"/>
</g>
<!-- Node20 -->
<g id="node20" class="node"><title>Node20</title>
<g id="a_node20"><a xlink:href="../../d3/d64/classparser_1_1tests_1_1_math_tester.html#a06cade99788206056814bc20735cd193" target="_top" xlink:title="parser.tests.MathTester.test\lMinus">
<polygon fill="white" stroke="black" points="667,-362 667,-392 817,-392 817,-362 667,-362"/>
<text text-anchor="start" x="675" y="-380" font-family="Helvetica,sans-Serif" font-size="10.00">parser.tests.MathTester.test</text>
<text text-anchor="middle" x="742" y="-369" font-family="Helvetica,sans-Serif" font-size="10.00">Minus</text>
</a>
</g>
</g>
<!-- Node3&#45;&gt;Node20 -->
<g id="edge20" class="edge"><title>Node3&#45;&gt;Node20</title>
<path fill="none" stroke="midnightblue" d="M624.04,-390.626C638.265,-388.969 652.852,-387.27 666.689,-385.658"/>
<polygon fill="midnightblue" stroke="midnightblue" points="623.289,-387.19 613.762,-391.824 624.099,-394.143 623.289,-387.19"/>
</g>
<!-- Node21 -->
<g id="node21" class="node"><title>Node21</title>
<g id="a_node21"><a xlink:href="../../d1/d01/classparser_1_1tests_1_1_boolean_tester.html#a402bae747c40cf9030ea6e85a44b10d2" target="_top" xlink:title="parser.tests.BooleanTester.testNot">
<polygon fill="white" stroke="black" points="651,-323.5 651,-342.5 833,-342.5 833,-323.5 651,-323.5"/>
<text text-anchor="middle" x="742" y="-330.5" font-family="Helvetica,sans-Serif" font-size="10.00">parser.tests.BooleanTester.testNot</text>
</a>
</g>
</g>
<!-- Node3&#45;&gt;Node21 -->
<g id="edge21" class="edge"><title>Node3&#45;&gt;Node21</title>
<path fill="none" stroke="midnightblue" d="M564.122,-387.135C587.051,-376.64 620.034,-362.463 650,-353 662.803,-348.957 676.869,-345.433 690.035,-342.517"/>
<polygon fill="midnightblue" stroke="midnightblue" points="562.552,-384.005 554.949,-391.383 565.494,-390.357 562.552,-384.005"/>
</g>
<!-- Node22 -->
<g id="node22" class="node"><title>Node22</title>
<g id="a_node22"><a xlink:href="../../d1/d01/classparser_1_1tests_1_1_boolean_tester.html#ac0deac7b7ba9e48e30a9ed6cff134d09" target="_top" xlink:title="parser.tests.BooleanTester.test\lNotEqual">
<polygon fill="white" stroke="black" points="659.5,-274 659.5,-304 824.5,-304 824.5,-274 659.5,-274"/>
<text text-anchor="start" x="667.5" y="-292" font-family="Helvetica,sans-Serif" font-size="10.00">parser.tests.BooleanTester.test</text>
<text text-anchor="middle" x="742" y="-281" font-family="Helvetica,sans-Serif" font-size="10.00">NotEqual</text>
</a>
</g>
</g>
<!-- Node3&#45;&gt;Node22 -->
<g id="edge22" class="edge"><title>Node3&#45;&gt;Node22</title>
<path fill="none" stroke="midnightblue" d="M552.479,-384.339C573.863,-364.816 611.937,-332.758 650,-314 657.642,-310.234 665.934,-306.966 674.297,-304.15"/>
<polygon fill="midnightblue" stroke="midnightblue" points="549.831,-382.021 544.885,-391.39 554.594,-387.151 549.831,-382.021"/>
</g>
<!-- Node23 -->
<g id="node23" class="node"><title>Node23</title>
<g id="a_node23"><a xlink:href="../../d1/d01/classparser_1_1tests_1_1_boolean_tester.html#a733a8bed2ef17160461077bd2e53490c" target="_top" xlink:title="parser.tests.BooleanTester.testOr">
<polygon fill="white" stroke="black" points="654,-235.5 654,-254.5 830,-254.5 830,-235.5 654,-235.5"/>
<text text-anchor="middle" x="742" y="-242.5" font-family="Helvetica,sans-Serif" font-size="10.00">parser.tests.BooleanTester.testOr</text>
</a>
</g>
</g>
<!-- Node3&#45;&gt;Node23 -->
<g id="edge23" class="edge"><title>Node3&#45;&gt;Node23</title>
<path fill="none" stroke="midnightblue" d="M545.304,-382.273C562.738,-352.457 600.992,-294.551 650,-265 657.203,-260.657 665.235,-257.253 673.461,-254.585"/>
<polygon fill="midnightblue" stroke="midnightblue" points="542.113,-380.805 540.205,-391.227 548.195,-384.27 542.113,-380.805"/>
</g>
<!-- Node24 -->
<g id="node24" class="node"><title>Node24</title>
<g id="a_node24"><a xlink:href="../../d3/d64/classparser_1_1tests_1_1_math_tester.html#af3c9e732ab91e0cad71ea7cd66a7a0d4" target="_top" xlink:title="parser.tests.MathTester.test\lProduct">
<polygon fill="white" stroke="black" points="667,-186 667,-216 817,-216 817,-186 667,-186"/>
<text text-anchor="start" x="675" y="-204" font-family="Helvetica,sans-Serif" font-size="10.00">parser.tests.MathTester.test</text>
<text text-anchor="middle" x="742" y="-193" font-family="Helvetica,sans-Serif" font-size="10.00">Product</text>
</a>
</g>
</g>
<!-- Node3&#45;&gt;Node24 -->
<g id="edge24" class="edge"><title>Node3&#45;&gt;Node24</title>
<path fill="none" stroke="midnightblue" d="M542.167,-381.893C556.725,-345.739 593.268,-267.257 650,-226 655.3,-222.146 661.166,-218.885 667.291,-216.128"/>
<polygon fill="midnightblue" stroke="midnightblue" points="538.876,-380.697 538.5,-391.285 545.397,-383.243 538.876,-380.697"/>
</g>
<!-- Node25 -->
<g id="node25" class="node"><title>Node25</title>
<g id="a_node25"><a xlink:href="../../d3/d64/classparser_1_1tests_1_1_math_tester.html#a0bee886e0100c55a64fb804fa462e079" target="_top" xlink:title="parser.tests.MathTester.test\lQuotient">
<polygon fill="white" stroke="black" points="667,-137 667,-167 817,-167 817,-137 667,-137"/>
<text text-anchor="start" x="675" y="-155" font-family="Helvetica,sans-Serif" font-size="10.00">parser.tests.MathTester.test</text>
<text text-anchor="middle" x="742" y="-144" font-family="Helvetica,sans-Serif" font-size="10.00">Quotient</text>
</a>
</g>
</g>
<!-- Node3&#45;&gt;Node25 -->
<g id="edge25" class="edge"><title>Node3&#45;&gt;Node25</title>
<path fill="none" stroke="midnightblue" d="M539.421,-381.2C550.244,-337.44 582.272,-232.027 650,-177 655.086,-172.867 660.805,-169.416 666.834,-166.534"/>
<polygon fill="midnightblue" stroke="midnightblue" points="535.963,-380.616 537.068,-391.153 542.775,-382.227 535.963,-380.616"/>
</g>
<!-- Node26 -->
<g id="node26" class="node"><title>Node26</title>
<g id="a_node26"><a xlink:href="../../d3/d64/classparser_1_1tests_1_1_math_tester.html#a0834a1beeeb3689ab52b3523b1ec053e" target="_top" xlink:title="parser.tests.MathTester.test\lRandom">
<polygon fill="white" stroke="black" points="667,-88 667,-118 817,-118 817,-88 667,-88"/>
<text text-anchor="start" x="675" y="-106" font-family="Helvetica,sans-Serif" font-size="10.00">parser.tests.MathTester.test</text>
<text text-anchor="middle" x="742" y="-95" font-family="Helvetica,sans-Serif" font-size="10.00">Random</text>
</a>
</g>
</g>
<!-- Node3&#45;&gt;Node26 -->
<g id="edge26" class="edge"><title>Node3&#45;&gt;Node26</title>
<path fill="none" stroke="midnightblue" d="M537.434,-381.112C544.67,-330.802 570.733,-197.538 650,-128 655.05,-123.57 660.816,-119.918 666.94,-116.908"/>
<polygon fill="midnightblue" stroke="midnightblue" points="533.93,-380.913 536.07,-391.29 540.868,-381.844 533.93,-380.913"/>
</g>
<!-- Node27 -->
<g id="node27" class="node"><title>Node27</title>
<g id="a_node27"><a xlink:href="../../d3/d64/classparser_1_1tests_1_1_math_tester.html#aeba46a296188edda903e21c6be23bdd8" target="_top" xlink:title="parser.tests.MathTester.test\lRemainder">
<polygon fill="white" stroke="black" points="667,-39 667,-69 817,-69 817,-39 667,-39"/>
<text text-anchor="start" x="675" y="-57" font-family="Helvetica,sans-Serif" font-size="10.00">parser.tests.MathTester.test</text>
<text text-anchor="middle" x="742" y="-46" font-family="Helvetica,sans-Serif" font-size="10.00">Remainder</text>
</a>
</g>
</g>
<!-- Node3&#45;&gt;Node27 -->
<g id="edge27" class="edge"><title>Node3&#45;&gt;Node27</title>
<path fill="none" stroke="midnightblue" d="M535.977,-381.41C539.852,-325.471 558.805,-163.607 650,-79 654.924,-74.4313 660.606,-70.6847 666.675,-67.6142"/>
<polygon fill="midnightblue" stroke="midnightblue" points="532.483,-381.21 535.372,-391.403 539.47,-381.633 532.483,-381.21"/>
</g>
<!-- Node28 -->
<g id="node28" class="node"><title>Node28</title>
<g id="a_node28"><a xlink:href="../../d3/d64/classparser_1_1tests_1_1_math_tester.html#a0059e207747b76f3579b4218cfe7c5dc" target="_top" xlink:title="parser.tests.MathTester.testSum">
<polygon fill="white" stroke="black" points="655.5,-0.5 655.5,-19.5 828.5,-19.5 828.5,-0.5 655.5,-0.5"/>
<text text-anchor="middle" x="742" y="-7.5" font-family="Helvetica,sans-Serif" font-size="10.00">parser.tests.MathTester.testSum</text>
</a>
</g>
</g>
<!-- Node3&#45;&gt;Node28 -->
<g id="edge28" class="edge"><title>Node3&#45;&gt;Node28</title>
<path fill="none" stroke="midnightblue" d="M534.693,-381.155C534.882,-319.1 544.356,-127.099 650,-30 654.645,-25.731 659.986,-22.2985 665.704,-19.5468"/>
<polygon fill="midnightblue" stroke="midnightblue" points="531.195,-381.493 534.75,-391.473 538.195,-381.454 531.195,-381.493"/>
</g>
<!-- Node5 -->
<g id="node5" class="node"><title>Node5</title>
<g id="a_node5"><a xlink:href="../../d7/dde/classparser_1_1_main.html#ac3abd936d94632f17feedf0cce82afff" target="_top" xlink:title="parser.Main.main">
<polygon fill="white" stroke="black" points="887.5,-771.5 887.5,-790.5 986.5,-790.5 986.5,-771.5 887.5,-771.5"/>
<text text-anchor="middle" x="937" y="-778.5" font-family="Helvetica,sans-Serif" font-size="10.00">parser.Main.main</text>
</a>
</g>
</g>
<!-- Node4&#45;&gt;Node5 -->
<g id="edge4" class="edge"><title>Node4&#45;&gt;Node5</title>
<path fill="none" stroke="midnightblue" d="M811.366,-781C836.471,-781 864.36,-781 887.38,-781"/>
<polygon fill="midnightblue" stroke="midnightblue" points="811.168,-777.5 801.168,-781 811.168,-784.5 811.168,-777.5"/>
</g>
<!-- Node8 -->
<g id="node8" class="node"><title>Node8</title>
<g id="a_node8"><a xlink:href="../../d9/df7/classcontroller_1_1_controller.html#a2bfb87bca460d87b2c97e0b5045a2175" target="_top" xlink:title="controller.Controller.create\lRunCommandListener">
<polygon fill="white" stroke="black" points="1040.5,-686 1040.5,-716 1183.5,-716 1183.5,-686 1040.5,-686"/>
<text text-anchor="start" x="1048.5" y="-704" font-family="Helvetica,sans-Serif" font-size="10.00">controller.Controller.create</text>
<text text-anchor="middle" x="1112" y="-693" font-family="Helvetica,sans-Serif" font-size="10.00">RunCommandListener</text>
</a>
</g>
</g>
<!-- Node7&#45;&gt;Node8 -->
<g id="edge7" class="edge"><title>Node7&#45;&gt;Node8</title>
<path fill="none" stroke="midnightblue" d="M827.156,-699.457C891.567,-699.807 979.39,-700.285 1040.21,-700.615"/>
<polygon fill="midnightblue" stroke="midnightblue" points="827.047,-695.957 817.028,-699.402 827.008,-702.957 827.047,-695.957"/>
</g>
<!-- Node9 -->
<g id="node9" class="node"><title>Node9</title>
<g id="a_node9"><a xlink:href="../../d9/df7/classcontroller_1_1_controller.html#a47511ec57338c8e75e71e9314cda5271" target="_top" xlink:title="controller.Controller.Controller">
<polygon fill="white" stroke="black" points="1580.5,-667.5 1580.5,-686.5 1739.5,-686.5 1739.5,-667.5 1580.5,-667.5"/>
<text text-anchor="middle" x="1660" y="-674.5" font-family="Helvetica,sans-Serif" font-size="10.00">controller.Controller.Controller</text>
</a>
</g>
</g>
<!-- Node8&#45;&gt;Node9 -->
<g id="edge8" class="edge"><title>Node8&#45;&gt;Node9</title>
<path fill="none" stroke="midnightblue" d="M1193.67,-697.454C1297.64,-692.884 1477.25,-684.989 1580.27,-680.461"/>
<polygon fill="midnightblue" stroke="midnightblue" points="1193.38,-693.963 1183.54,-697.899 1193.69,-700.957 1193.38,-693.963"/>
</g>
<!-- Node11 -->
<g id="node11" class="node"><title>Node11</title>
<g id="a_node11"><a xlink:href="../../d9/df7/classcontroller_1_1_controller.html#a37c3009658f66dc4de0be01b75adf660" target="_top" xlink:title="controller.Controller.load\lWorkspace">
<polygon fill="white" stroke="black" points="870.5,-638 870.5,-668 1003.5,-668 1003.5,-638 870.5,-638"/>
<text text-anchor="start" x="878.5" y="-656" font-family="Helvetica,sans-Serif" font-size="10.00">controller.Controller.load</text>
<text text-anchor="middle" x="937" y="-645" font-family="Helvetica,sans-Serif" font-size="10.00">Workspace</text>
</a>
</g>
</g>
<!-- Node10&#45;&gt;Node11 -->
<g id="edge10" class="edge"><title>Node10&#45;&gt;Node11</title>
<path fill="none" stroke="midnightblue" d="M834.618,-654.051C846.629,-653.926 858.741,-653.801 870.207,-653.682"/>
<polygon fill="midnightblue" stroke="midnightblue" points="834.533,-650.551 824.57,-654.155 834.605,-657.551 834.533,-650.551"/>
</g>
<!-- Node12 -->
<g id="node12" class="node"><title>Node12</title>
<g id="a_node12"><a xlink:href="../../d9/df7/classcontroller_1_1_controller.html#aa46804b9ca132af8504b5dafb1cadb0d" target="_top" xlink:title="controller.Controller.create\lFileCommands">
<polygon fill="white" stroke="black" points="1040.5,-637 1040.5,-667 1183.5,-667 1183.5,-637 1040.5,-637"/>
<text text-anchor="start" x="1048.5" y="-655" font-family="Helvetica,sans-Serif" font-size="10.00">controller.Controller.create</text>
<text text-anchor="middle" x="1112" y="-644" font-family="Helvetica,sans-Serif" font-size="10.00">FileCommands</text>
</a>
</g>
</g>
<!-- Node11&#45;&gt;Node12 -->
<g id="edge11" class="edge"><title>Node11&#45;&gt;Node12</title>
<path fill="none" stroke="midnightblue" d="M1014.08,-652.56C1022.83,-652.51 1031.72,-652.458 1040.39,-652.408"/>
<polygon fill="midnightblue" stroke="midnightblue" points="1013.88,-649.061 1003.9,-652.619 1013.92,-656.061 1013.88,-649.061"/>
</g>
<!-- Node13 -->
<g id="node13" class="node"><title>Node13</title>
<g id="a_node13"><a xlink:href="../../d9/df7/classcontroller_1_1_controller.html#af4c05286f1534b1fa6de523c54549288" target="_top" xlink:title="controller.Controller.create\lFileMenu">
<polygon fill="white" stroke="black" points="1220.5,-639 1220.5,-669 1363.5,-669 1363.5,-639 1220.5,-639"/>
<text text-anchor="start" x="1228.5" y="-657" font-family="Helvetica,sans-Serif" font-size="10.00">controller.Controller.create</text>
<text text-anchor="middle" x="1292" y="-646" font-family="Helvetica,sans-Serif" font-size="10.00">FileMenu</text>
</a>
</g>
</g>
<!-- Node12&#45;&gt;Node13 -->
<g id="edge12" class="edge"><title>Node12&#45;&gt;Node13</title>
<path fill="none" stroke="midnightblue" d="M1193.65,-652.906C1202.6,-653.007 1211.67,-653.109 1220.48,-653.208"/>
<polygon fill="midnightblue" stroke="midnightblue" points="1193.64,-649.406 1183.61,-652.793 1193.57,-656.406 1193.64,-649.406"/>
</g>
<!-- Node14 -->
<g id="node14" class="node"><title>Node14</title>
<g id="a_node14"><a xlink:href="../../d9/df7/classcontroller_1_1_controller.html#a2901bf43bb8e47b485558dbf00d40d6d" target="_top" xlink:title="controller.Controller.create\lJMenuBar">
<polygon fill="white" stroke="black" points="1400.5,-640 1400.5,-670 1543.5,-670 1543.5,-640 1400.5,-640"/>
<text text-anchor="start" x="1408.5" y="-658" font-family="Helvetica,sans-Serif" font-size="10.00">controller.Controller.create</text>
<text text-anchor="middle" x="1472" y="-647" font-family="Helvetica,sans-Serif" font-size="10.00">JMenuBar</text>
</a>
</g>
</g>
<!-- Node13&#45;&gt;Node14 -->
<g id="edge13" class="edge"><title>Node13&#45;&gt;Node14</title>
<path fill="none" stroke="midnightblue" d="M1373.65,-654.453C1382.6,-654.503 1391.67,-654.554 1400.48,-654.604"/>
<polygon fill="midnightblue" stroke="midnightblue" points="1373.63,-650.953 1363.61,-654.397 1373.59,-657.953 1373.63,-650.953"/>
</g>
<!-- Node14&#45;&gt;Node9 -->
<g id="edge14" class="edge"><title>Node14&#45;&gt;Node9</title>
<path fill="none" stroke="midnightblue" d="M1553.55,-664.527C1562.45,-665.58 1571.5,-666.651 1580.38,-667.701"/>
<polygon fill="midnightblue" stroke="midnightblue" points="1553.93,-661.048 1543.58,-663.349 1553.1,-667.999 1553.93,-661.048"/>
</g>
</g>
</svg>
