<?xml version="1.0" encoding="UTF-8" standalone="no"?>
<!DOCTYPE svg PUBLIC "-//W3C//DTD SVG 1.1//EN"
 "http://www.w3.org/Graphics/SVG/1.1/DTD/svg11.dtd">
<!-- Generated by graphviz version 2.36.0 (20140111.2315)
 -->
<!-- Title: view.Location.translate Pages: 1 -->
<svg width="474pt" height="66pt"
 viewBox="0.00 0.00 474.00 66.00" xmlns="http://www.w3.org/2000/svg" xmlns:xlink="http://www.w3.org/1999/xlink">
<g id="graph0" class="graph" transform="scale(1 1) rotate(0) translate(4 62)">
<title>view.Location.translate</title>
<polygon fill="white" stroke="none" points="-4,4 -4,-62 470,-62 470,4 -4,4"/>
<!-- Node1 -->
<g id="node1" class="node"><title>Node1</title>
<polygon fill="#bfbfbf" stroke="black" points="0.5,-19.5 0.5,-38.5 125.5,-38.5 125.5,-19.5 0.5,-19.5"/>
<text text-anchor="middle" x="63" y="-26.5" font-family="Helvetica,sans-Serif" font-size="10.00">view.Location.translate</text>
</g>
<!-- Node2 -->
<g id="node2" class="node"><title>Node2</title>
<g id="a_node2"><a xlink:href="../../d7/d7d/classview_1_1_vector.html#ae6a99f4d2d1f1a79f362b5e1cd2c77d2" target="_top" xlink:title="view.Vector.getXChange">
<polygon fill="white" stroke="black" points="162,-38.5 162,-57.5 292,-57.5 292,-38.5 162,-38.5"/>
<text text-anchor="middle" x="227" y="-45.5" font-family="Helvetica,sans-Serif" font-size="10.00">view.Vector.getXChange</text>
</a>
</g>
</g>
<!-- Node1&#45;&gt;Node2 -->
<g id="edge1" class="edge"><title>Node1&#45;&gt;Node2</title>
<path fill="none" stroke="midnightblue" d="M125.707,-36.2373C134.191,-37.2322 142.974,-38.2624 151.654,-39.2805"/>
<polygon fill="midnightblue" stroke="midnightblue" points="151.434,-42.7785 161.773,-40.4672 152.249,-35.8261 151.434,-42.7785"/>
</g>
<!-- Node5 -->
<g id="node5" class="node"><title>Node5</title>
<g id="a_node5"><a xlink:href="../../d7/d7d/classview_1_1_vector.html#a2fd7acd224e15efaaa94491f7f1a9fa4" target="_top" xlink:title="view.Vector.getYChange">
<polygon fill="white" stroke="black" points="162.5,-0.5 162.5,-19.5 291.5,-19.5 291.5,-0.5 162.5,-0.5"/>
<text text-anchor="middle" x="227" y="-7.5" font-family="Helvetica,sans-Serif" font-size="10.00">view.Vector.getYChange</text>
</a>
</g>
</g>
<!-- Node1&#45;&gt;Node5 -->
<g id="edge4" class="edge"><title>Node1&#45;&gt;Node5</title>
<path fill="none" stroke="midnightblue" d="M125.707,-21.7627C134.413,-20.7417 143.434,-19.6837 152.336,-18.6396"/>
<polygon fill="midnightblue" stroke="midnightblue" points="152.789,-22.1106 162.313,-17.4695 151.973,-15.1582 152.789,-22.1106"/>
</g>
<!-- Node3 -->
<g id="node3" class="node"><title>Node3</title>
<g id="a_node3"><a xlink:href="../../d7/d7d/classview_1_1_vector.html#a5382c66a53d3c0c1d6dc41fdaa84834f" target="_top" xlink:title="view.Vector.getMagnitude">
<polygon fill="white" stroke="black" points="328,-38.5 328,-57.5 466,-57.5 466,-38.5 328,-38.5"/>
<text text-anchor="middle" x="397" y="-45.5" font-family="Helvetica,sans-Serif" font-size="10.00">view.Vector.getMagnitude</text>
</a>
</g>
</g>
<!-- Node2&#45;&gt;Node3 -->
<g id="edge2" class="edge"><title>Node2&#45;&gt;Node3</title>
<path fill="none" stroke="midnightblue" d="M292.473,-48C300.696,-48 309.183,-48 317.596,-48"/>
<polygon fill="midnightblue" stroke="midnightblue" points="317.797,-51.5001 327.797,-48 317.797,-44.5001 317.797,-51.5001"/>
</g>
<!-- Node4 -->
<g id="node4" class="node"><title>Node4</title>
<g id="a_node4"><a xlink:href="../../d7/d7d/classview_1_1_vector.html#a41523e735a5bfaa72067ee65d1c01fe1" target="_top" xlink:title="view.Vector.getDirection">
<polygon fill="white" stroke="black" points="331.5,-0.5 331.5,-19.5 462.5,-19.5 462.5,-0.5 331.5,-0.5"/>
<text text-anchor="middle" x="397" y="-7.5" font-family="Helvetica,sans-Serif" font-size="10.00">view.Vector.getDirection</text>
</a>
</g>
</g>
<!-- Node2&#45;&gt;Node4 -->
<g id="edge3" class="edge"><title>Node2&#45;&gt;Node4</title>
<path fill="none" stroke="midnightblue" d="M270.393,-38.411C292.763,-33.3513 320.398,-27.1004 344.047,-21.7512"/>
<polygon fill="midnightblue" stroke="midnightblue" points="344.93,-25.1401 353.911,-19.5201 343.386,-18.3125 344.93,-25.1401"/>
</g>
<!-- Node5&#45;&gt;Node3 -->
<g id="edge5" class="edge"><title>Node5&#45;&gt;Node3</title>
<path fill="none" stroke="midnightblue" d="M270.393,-19.589C292.763,-24.6487 320.398,-30.8996 344.047,-36.2488"/>
<polygon fill="midnightblue" stroke="midnightblue" points="343.386,-39.6875 353.911,-38.4799 344.93,-32.8599 343.386,-39.6875"/>
</g>
<!-- Node5&#45;&gt;Node4 -->
<g id="edge6" class="edge"><title>Node5&#45;&gt;Node4</title>
<path fill="none" stroke="midnightblue" d="M291.514,-10C301.168,-10 311.208,-10 321.078,-10"/>
<polygon fill="midnightblue" stroke="midnightblue" points="321.28,-13.5001 331.28,-10 321.28,-6.5001 321.28,-13.5001"/>
</g>
</g>
</svg>
