<?xml version="1.0" encoding="UTF-8" standalone="no"?>
<!DOCTYPE svg PUBLIC "-//W3C//DTD SVG 1.1//EN"
 "http://www.w3.org/Graphics/SVG/1.1/DTD/svg11.dtd">
<!-- Generated by graphviz version 2.36.0 (20140111.2315)
 -->
<!-- Title: parser.commands.view.SetPalette Pages: 1 -->
<svg width="319pt" height="178pt"
 viewBox="0.00 0.00 319.00 178.00" xmlns="http://www.w3.org/2000/svg" xmlns:xlink="http://www.w3.org/1999/xlink">
<g id="graph0" class="graph" transform="scale(1 1) rotate(0) translate(4 174)">
<title>parser.commands.view.SetPalette</title>
<polygon fill="white" stroke="none" points="-4,4 -4,-174 315,-174 315,4 -4,4"/>
<!-- Node1 -->
<g id="node1" class="node"><title>Node1</title>
<polygon fill="#bfbfbf" stroke="black" points="79,-1 79,-31 225,-31 225,-1 79,-1"/>
<text text-anchor="start" x="87" y="-19" font-family="Helvetica,sans-Serif" font-size="10.00">parser.commands.view.Set</text>
<text text-anchor="middle" x="152" y="-8" font-family="Helvetica,sans-Serif" font-size="10.00">Palette</text>
</g>
<!-- Node2 -->
<g id="node2" class="node"><title>Node2</title>
<g id="a_node2"><a xlink:href="../../d7/d93/classparser_1_1nodes_1_1_parameter_node.html" target="_top" xlink:title="parser.nodes.ParameterNode">
<polygon fill="white" stroke="black" points="73,-70.5 73,-89.5 231,-89.5 231,-70.5 73,-70.5"/>
<text text-anchor="middle" x="152" y="-77.5" font-family="Helvetica,sans-Serif" font-size="10.00">parser.nodes.ParameterNode</text>
</a>
</g>
</g>
<!-- Node2&#45;&gt;Node1 -->
<g id="edge1" class="edge"><title>Node2&#45;&gt;Node1</title>
<path fill="none" stroke="midnightblue" d="M152,-60.1826C152,-50.8859 152,-39.8507 152,-31.263"/>
<polygon fill="midnightblue" stroke="midnightblue" points="148.5,-60.3791 152,-70.3792 155.5,-60.3792 148.5,-60.3791"/>
</g>
<!-- Node3 -->
<g id="node3" class="node"><title>Node3</title>
<g id="a_node3"><a xlink:href="../../da/d96/classparser_1_1nodes_1_1_syntax_node.html" target="_top" xlink:title="parser.nodes.SyntaxNode">
<polygon fill="white" stroke="black" points="0,-144.5 0,-163.5 140,-163.5 140,-144.5 0,-144.5"/>
<text text-anchor="middle" x="70" y="-151.5" font-family="Helvetica,sans-Serif" font-size="10.00">parser.nodes.SyntaxNode</text>
</a>
</g>
</g>
<!-- Node3&#45;&gt;Node2 -->
<g id="edge2" class="edge"><title>Node3&#45;&gt;Node2</title>
<path fill="none" stroke="midnightblue" d="M87.6627,-137.491C104.378,-122.815 128.852,-101.325 142.284,-89.531"/>
<polygon fill="midnightblue" stroke="midnightblue" points="84.9336,-135.23 79.7285,-144.458 89.5522,-140.49 84.9336,-135.23"/>
</g>
<!-- Node4 -->
<g id="node4" class="node"><title>Node4</title>
<polygon fill="white" stroke="#bfbfbf" points="158.5,-139 158.5,-169 311.5,-169 311.5,-139 158.5,-139"/>
<text text-anchor="start" x="166.5" y="-157" font-family="Helvetica,sans-Serif" font-size="10.00">Map&lt; Integer, parser.nodes.</text>
<text text-anchor="middle" x="235" y="-146" font-family="Helvetica,sans-Serif" font-size="10.00">SyntaxNode &gt;</text>
</g>
<!-- Node4&#45;&gt;Node2 -->
<g id="edge3" class="edge"><title>Node4&#45;&gt;Node2</title>
<path fill="none" stroke="#9a32cd" stroke-dasharray="5,2" d="M211.04,-132.216C194.804,-118.131 174.177,-100.238 162.097,-89.7589"/>
<polygon fill="#9a32cd" stroke="#9a32cd" points="208.754,-134.866 218.602,-138.775 213.341,-129.578 208.754,-134.866"/>
<text text-anchor="middle" x="220.5" y="-111.5" font-family="Helvetica,sans-Serif" font-size="10.00"> myNodes</text>
</g>
</g>
</svg>
