<?xml version="1.0" encoding="UTF-8" standalone="no"?>
<!DOCTYPE svg PUBLIC "-//W3C//DTD SVG 1.1//EN"
 "http://www.w3.org/Graphics/SVG/1.1/DTD/svg11.dtd">
<!-- Generated by graphviz version 2.36.0 (20140111.2315)
 -->
<!-- Title: parser.nodes.TokenNode.getToken Pages: 1 -->
<svg width="346pt" height="87pt"
 viewBox="0.00 0.00 346.00 87.00" xmlns="http://www.w3.org/2000/svg" xmlns:xlink="http://www.w3.org/1999/xlink">
<g id="graph0" class="graph" transform="scale(1 1) rotate(0) translate(4 83)">
<title>parser.nodes.TokenNode.getToken</title>
<polygon fill="white" stroke="none" points="-4,4 -4,-83 342,-83 342,4 -4,4"/>
<!-- Node1 -->
<g id="node1" class="node"><title>Node1</title>
<polygon fill="#bfbfbf" stroke="black" points="0.5,-24 0.5,-54 153.5,-54 153.5,-24 0.5,-24"/>
<text text-anchor="start" x="8.5" y="-42" font-family="Helvetica,sans-Serif" font-size="10.00">parser.nodes.TokenNode.get</text>
<text text-anchor="middle" x="77" y="-31" font-family="Helvetica,sans-Serif" font-size="10.00">Token</text>
</g>
<!-- Node2 -->
<g id="node2" class="node"><title>Node2</title>
<g id="a_node2"><a xlink:href="../../dd/db0/classparser_1_1nodes_1_1_list_end_node.html#a19e282f1341c2af9ab6d281bd809491f" target="_top" xlink:title="parser.nodes.ListEndNode.\lListEndNode">
<polygon fill="white" stroke="black" points="191.5,-49 191.5,-79 336.5,-79 336.5,-49 191.5,-49"/>
<text text-anchor="start" x="199.5" y="-67" font-family="Helvetica,sans-Serif" font-size="10.00">parser.nodes.ListEndNode.</text>
<text text-anchor="middle" x="264" y="-56" font-family="Helvetica,sans-Serif" font-size="10.00">ListEndNode</text>
</a>
</g>
</g>
<!-- Node1&#45;&gt;Node2 -->
<g id="edge1" class="edge"><title>Node1&#45;&gt;Node2</title>
<path fill="none" stroke="midnightblue" d="M163.538,-50.5592C172.827,-51.8145 182.21,-53.0825 191.31,-54.3122"/>
<polygon fill="midnightblue" stroke="midnightblue" points="163.892,-47.0753 153.513,-49.2045 162.955,-54.0123 163.892,-47.0753"/>
</g>
<!-- Node3 -->
<g id="node3" class="node"><title>Node3</title>
<g id="a_node3"><a xlink:href="../../d9/d13/classparser_1_1nodes_1_1_param_list_end_node.html#a5743ceb7a4cf634b693325d0df86dc0b" target="_top" xlink:title="parser.nodes.ParamListEnd\lNode.ParamListEndNode">
<polygon fill="white" stroke="black" points="190.5,-0 190.5,-30 337.5,-30 337.5,-0 190.5,-0"/>
<text text-anchor="start" x="198.5" y="-18" font-family="Helvetica,sans-Serif" font-size="10.00">parser.nodes.ParamListEnd</text>
<text text-anchor="middle" x="264" y="-7" font-family="Helvetica,sans-Serif" font-size="10.00">Node.ParamListEndNode</text>
</a>
</g>
</g>
<!-- Node1&#45;&gt;Node3 -->
<g id="edge2" class="edge"><title>Node1&#45;&gt;Node3</title>
<path fill="none" stroke="midnightblue" d="M163.586,-27.897C172.556,-26.7333 181.613,-25.5583 190.417,-24.4161"/>
<polygon fill="midnightblue" stroke="midnightblue" points="162.98,-24.4461 153.513,-29.2037 163.881,-31.388 162.98,-24.4461"/>
</g>
</g>
</svg>
