<?xml version="1.0" encoding="UTF-8" standalone="no"?>
<!DOCTYPE svg PUBLIC "-//W3C//DTD SVG 1.1//EN"
 "http://www.w3.org/Graphics/SVG/1.1/DTD/svg11.dtd">
<!-- Generated by graphviz version 2.36.0 (20140111.2315)
 -->
<!-- Title: view.windows.CustomCommandWindow Pages: 1 -->
<svg width="176pt" height="152pt"
 viewBox="0.00 0.00 176.00 152.00" xmlns="http://www.w3.org/2000/svg" xmlns:xlink="http://www.w3.org/1999/xlink">
<g id="graph0" class="graph" transform="scale(1 1) rotate(0) translate(4 148)">
<title>view.windows.CustomCommandWindow</title>
<polygon fill="white" stroke="none" points="-4,4 -4,-148 172,-148 172,4 -4,4"/>
<!-- Node1 -->
<g id="node1" class="node"><title>Node1</title>
<polygon fill="#bfbfbf" stroke="black" points="-0.5,-1 -0.5,-31 168.5,-31 168.5,-1 -0.5,-1"/>
<text text-anchor="start" x="7.5" y="-19" font-family="Helvetica,sans-Serif" font-size="10.00">view.windows.CustomCommand</text>
<text text-anchor="middle" x="84" y="-8" font-family="Helvetica,sans-Serif" font-size="10.00">Window</text>
</g>
<!-- Node2 -->
<g id="node2" class="node"><title>Node2</title>
<g id="a_node2"><a xlink:href="../../d3/d50/classview_1_1windows_1_1_logo_list_window.html" target="_top" xlink:title="view.windows.LogoListWindow">
<polygon fill="white" stroke="black" points="6,-68.5 6,-87.5 162,-87.5 162,-68.5 6,-68.5"/>
<text text-anchor="middle" x="84" y="-75.5" font-family="Helvetica,sans-Serif" font-size="10.00">view.windows.LogoListWindow</text>
</a>
</g>
</g>
<!-- Node2&#45;&gt;Node1 -->
<g id="edge1" class="edge"><title>Node2&#45;&gt;Node1</title>
<path fill="none" stroke="midnightblue" d="M84,-58.3707C84,-49.5849 84,-39.2721 84,-31.1408"/>
<polygon fill="midnightblue" stroke="midnightblue" points="80.5001,-58.4034 84,-68.4035 87.5001,-58.4035 80.5001,-58.4034"/>
</g>
<!-- Node3 -->
<g id="node3" class="node"><title>Node3</title>
<polygon fill="white" stroke="#bfbfbf" points="27,-124.5 27,-143.5 71,-143.5 71,-124.5 27,-124.5"/>
<text text-anchor="middle" x="49" y="-131.5" font-family="Helvetica,sans-Serif" font-size="10.00">JPanel</text>
</g>
<!-- Node3&#45;&gt;Node2 -->
<g id="edge2" class="edge"><title>Node3&#45;&gt;Node2</title>
<path fill="none" stroke="midnightblue" d="M60.3001,-115.566C66.3219,-106.275 73.4686,-95.2484 78.328,-87.7511"/>
<polygon fill="midnightblue" stroke="midnightblue" points="57.2815,-113.788 54.7795,-124.083 63.1556,-117.595 57.2815,-113.788"/>
</g>
<!-- Node4 -->
<g id="node4" class="node"><title>Node4</title>
<polygon fill="white" stroke="#bfbfbf" points="89,-124.5 89,-143.5 149,-143.5 149,-124.5 89,-124.5"/>
<text text-anchor="middle" x="119" y="-131.5" font-family="Helvetica,sans-Serif" font-size="10.00">Observer</text>
</g>
<!-- Node4&#45;&gt;Node2 -->
<g id="edge3" class="edge"><title>Node4&#45;&gt;Node2</title>
<path fill="none" stroke="midnightblue" d="M107.7,-115.566C101.678,-106.275 94.5314,-95.2484 89.672,-87.7511"/>
<polygon fill="midnightblue" stroke="midnightblue" points="104.844,-117.595 113.22,-124.083 110.719,-113.788 104.844,-117.595"/>
</g>
</g>
</svg>
