<?xml version="1.0" encoding="UTF-8" standalone="no"?>
<!DOCTYPE svg PUBLIC "-//W3C//DTD SVG 1.1//EN"
 "http://www.w3.org/Graphics/SVG/1.1/DTD/svg11.dtd">
<!-- Generated by graphviz version 2.36.0 (20140111.2315)
 -->
<!-- Title: parser.commands.other.Repeat.evaluate Pages: 1 -->
<svg width="654pt" height="286pt"
 viewBox="0.00 0.00 654.00 286.00" xmlns="http://www.w3.org/2000/svg" xmlns:xlink="http://www.w3.org/1999/xlink">
<g id="graph0" class="graph" transform="scale(1 1) rotate(0) translate(4 282)">
<title>parser.commands.other.Repeat.evaluate</title>
<polygon fill="white" stroke="none" points="-4,4 -4,-282 650,-282 650,4 -4,4"/>
<!-- Node1 -->
<g id="node1" class="node"><title>Node1</title>
<polygon fill="#bfbfbf" stroke="black" points="0,-149.5 0,-168.5 212,-168.5 212,-149.5 0,-149.5"/>
<text text-anchor="middle" x="106" y="-156.5" font-family="Helvetica,sans-Serif" font-size="10.00">parser.commands.other.Repeat.evaluate</text>
</g>
<!-- Node2 -->
<g id="node2" class="node"><title>Node2</title>
<g id="a_node2"><a xlink:href="../../db/d29/classparser_1_1_variable_manager.html#a1dd0d3b879a7a7173d2c059bef5cb187" target="_top" xlink:title="parser.VariableManager.create\lVariableScope">
<polygon fill="white" stroke="black" points="259.5,-248 259.5,-278 422.5,-278 422.5,-248 259.5,-248"/>
<text text-anchor="start" x="267.5" y="-266" font-family="Helvetica,sans-Serif" font-size="10.00">parser.VariableManager.create</text>
<text text-anchor="middle" x="341" y="-255" font-family="Helvetica,sans-Serif" font-size="10.00">VariableScope</text>
</a>
</g>
</g>
<!-- Node1&#45;&gt;Node2 -->
<g id="edge1" class="edge"><title>Node1&#45;&gt;Node2</title>
<path fill="none" stroke="midnightblue" d="M121.224,-168.536C146.017,-184.792 199.17,-218.041 248,-238 253.932,-240.425 260.174,-242.688 266.497,-244.783"/>
<polygon fill="midnightblue" stroke="midnightblue" points="265.876,-248.257 276.466,-247.935 267.987,-241.583 265.876,-248.257"/>
</g>
<!-- Node3 -->
<g id="node3" class="node"><title>Node3</title>
<g id="a_node3"><a xlink:href="../../da/d96/classparser_1_1nodes_1_1_syntax_node.html#a669c370adce66a1960835323a90b9adb" target="_top" xlink:title="parser.nodes.SyntaxNode.evaluate">
<polygon fill="white" stroke="black" points="248.5,-209.5 248.5,-228.5 433.5,-228.5 433.5,-209.5 248.5,-209.5"/>
<text text-anchor="middle" x="341" y="-216.5" font-family="Helvetica,sans-Serif" font-size="10.00">parser.nodes.SyntaxNode.evaluate</text>
</a>
</g>
</g>
<!-- Node1&#45;&gt;Node3 -->
<g id="edge2" class="edge"><title>Node1&#45;&gt;Node3</title>
<path fill="none" stroke="midnightblue" d="M137.341,-168.579C165.768,-177.374 209.526,-190.449 248,-200 258.422,-202.587 269.569,-205.1 280.379,-207.407"/>
<polygon fill="midnightblue" stroke="midnightblue" points="279.675,-210.835 290.181,-209.462 281.112,-203.984 279.675,-210.835"/>
</g>
<!-- Node4 -->
<g id="node4" class="node"><title>Node4</title>
<g id="a_node4"><a xlink:href="../../db/d11/classparser_1_1nodes_1_1_binary_node.html#a555930c71203ce7c05e1290f069b19a1" target="_top" xlink:title="parser.nodes.BinaryNode.getLeft">
<polygon fill="white" stroke="black" points="254,-171.5 254,-190.5 428,-190.5 428,-171.5 254,-171.5"/>
<text text-anchor="middle" x="341" y="-178.5" font-family="Helvetica,sans-Serif" font-size="10.00">parser.nodes.BinaryNode.getLeft</text>
</a>
</g>
</g>
<!-- Node1&#45;&gt;Node4 -->
<g id="edge3" class="edge"><title>Node1&#45;&gt;Node4</title>
<path fill="none" stroke="midnightblue" d="M207.842,-168.522C219.733,-169.644 231.845,-170.788 243.671,-171.905"/>
<polygon fill="midnightblue" stroke="midnightblue" points="243.693,-175.422 253.978,-172.878 244.351,-168.453 243.693,-175.422"/>
</g>
<!-- Node6 -->
<g id="node6" class="node"><title>Node6</title>
<g id="a_node6"><a xlink:href="../../db/d11/classparser_1_1nodes_1_1_binary_node.html#a9c33799a377e3c277de0fc9138a2cb81" target="_top" xlink:title="parser.nodes.BinaryNode.get\lRight">
<polygon fill="white" stroke="black" points="263,-122 263,-152 419,-152 419,-122 263,-122"/>
<text text-anchor="start" x="271" y="-140" font-family="Helvetica,sans-Serif" font-size="10.00">parser.nodes.BinaryNode.get</text>
<text text-anchor="middle" x="341" y="-129" font-family="Helvetica,sans-Serif" font-size="10.00">Right</text>
</a>
</g>
</g>
<!-- Node1&#45;&gt;Node6 -->
<g id="edge5" class="edge"><title>Node1&#45;&gt;Node6</title>
<path fill="none" stroke="midnightblue" d="M207.842,-149.478C222.831,-148.063 238.173,-146.615 252.85,-145.229"/>
<polygon fill="midnightblue" stroke="midnightblue" points="253.265,-148.705 262.892,-144.281 252.607,-141.736 253.265,-148.705"/>
</g>
<!-- Node7 -->
<g id="node7" class="node"><title>Node7</title>
<g id="a_node7"><a xlink:href="../../db/d29/classparser_1_1_variable_manager.html#acfee079f598dca91fef11afca02f3bbc" target="_top" xlink:title="parser.VariableManager.revert\lVariableScope">
<polygon fill="white" stroke="black" points="260.5,-73 260.5,-103 421.5,-103 421.5,-73 260.5,-73"/>
<text text-anchor="start" x="268.5" y="-91" font-family="Helvetica,sans-Serif" font-size="10.00">parser.VariableManager.revert</text>
<text text-anchor="middle" x="341" y="-80" font-family="Helvetica,sans-Serif" font-size="10.00">VariableScope</text>
</a>
</g>
</g>
<!-- Node1&#45;&gt;Node7 -->
<g id="edge7" class="edge"><title>Node1&#45;&gt;Node7</title>
<path fill="none" stroke="midnightblue" d="M134.96,-149.421C163.316,-139.814 208.526,-124.794 248,-113 256.093,-110.582 264.615,-108.135 273.074,-105.766"/>
<polygon fill="midnightblue" stroke="midnightblue" points="274.245,-109.073 282.945,-103.027 272.373,-102.328 274.245,-109.073"/>
</g>
<!-- Node8 -->
<g id="node8" class="node"><title>Node8</title>
<g id="a_node8"><a xlink:href="../../db/d29/classparser_1_1_variable_manager.html#aa9ecb1f9858ee96bc9f17e6a16adc9ad" target="_top" xlink:title="parser.VariableManager.set\lVariable">
<polygon fill="white" stroke="black" points="267.5,-24 267.5,-54 414.5,-54 414.5,-24 267.5,-24"/>
<text text-anchor="start" x="275.5" y="-42" font-family="Helvetica,sans-Serif" font-size="10.00">parser.VariableManager.set</text>
<text text-anchor="middle" x="341" y="-31" font-family="Helvetica,sans-Serif" font-size="10.00">Variable</text>
</a>
</g>
</g>
<!-- Node1&#45;&gt;Node8 -->
<g id="edge8" class="edge"><title>Node1&#45;&gt;Node8</title>
<path fill="none" stroke="midnightblue" d="M118.246,-149.314C141.134,-130.085 195.424,-86.888 248,-63 252.372,-61.0134 256.939,-59.1684 261.6,-57.4584"/>
<polygon fill="midnightblue" stroke="midnightblue" points="262.946,-60.6966 271.265,-54.1361 260.671,-54.0768 262.946,-60.6966"/>
</g>
<!-- Node5 -->
<g id="node5" class="node"><title>Node5</title>
<g id="a_node5"><a xlink:href="../../d7/d93/classparser_1_1nodes_1_1_parameter_node.html#a2c57eab9997daf1efb840a189c1034c5" target="_top" xlink:title="parser.nodes.ParameterNode.get\lParameter">
<polygon fill="white" stroke="black" points="470,-144 470,-174 646,-174 646,-144 470,-144"/>
<text text-anchor="start" x="478" y="-162" font-family="Helvetica,sans-Serif" font-size="10.00">parser.nodes.ParameterNode.get</text>
<text text-anchor="middle" x="558" y="-151" font-family="Helvetica,sans-Serif" font-size="10.00">Parameter</text>
</a>
</g>
</g>
<!-- Node4&#45;&gt;Node5 -->
<g id="edge4" class="edge"><title>Node4&#45;&gt;Node5</title>
<path fill="none" stroke="midnightblue" d="M428.21,-172.179C438.568,-171.119 449.201,-170.031 459.703,-168.956"/>
<polygon fill="midnightblue" stroke="midnightblue" points="460.127,-172.431 469.718,-167.931 459.414,-165.467 460.127,-172.431"/>
</g>
<!-- Node6&#45;&gt;Node5 -->
<g id="edge6" class="edge"><title>Node6&#45;&gt;Node5</title>
<path fill="none" stroke="midnightblue" d="M419.013,-144.88C432.167,-146.226 445.985,-147.64 459.586,-149.032"/>
<polygon fill="midnightblue" stroke="midnightblue" points="459.626,-152.554 469.93,-150.091 460.338,-145.591 459.626,-152.554"/>
</g>
<!-- Node9 -->
<g id="node9" class="node"><title>Node9</title>
<g id="a_node9"><a xlink:href="../../da/d34/classparser_1_1_variable_scope.html#a01641ffadbd14f821da3ff44d9e7ce4e" target="_top" xlink:title="parser.VariableScope.contains\lVariable">
<polygon fill="white" stroke="black" points="477.5,-49 477.5,-79 638.5,-79 638.5,-49 477.5,-49"/>
<text text-anchor="start" x="485.5" y="-67" font-family="Helvetica,sans-Serif" font-size="10.00">parser.VariableScope.contains</text>
<text text-anchor="middle" x="558" y="-56" font-family="Helvetica,sans-Serif" font-size="10.00">Variable</text>
</a>
</g>
</g>
<!-- Node8&#45;&gt;Node9 -->
<g id="edge9" class="edge"><title>Node8&#45;&gt;Node9</title>
<path fill="none" stroke="midnightblue" d="M414.789,-47.4639C431.592,-49.4177 449.663,-51.5189 467.098,-53.5463"/>
<polygon fill="midnightblue" stroke="midnightblue" points="466.939,-57.0513 477.276,-54.7298 467.747,-50.0981 466.939,-57.0513"/>
</g>
<!-- Node10 -->
<g id="node10" class="node"><title>Node10</title>
<g id="a_node10"><a xlink:href="../../da/d34/classparser_1_1_variable_scope.html#a49590398e11784b1310e8b65d9933011" target="_top" xlink:title="parser.VariableScope.set\lVariable">
<polygon fill="white" stroke="black" points="490,-0 490,-30 626,-30 626,-0 490,-0"/>
<text text-anchor="start" x="498" y="-18" font-family="Helvetica,sans-Serif" font-size="10.00">parser.VariableScope.set</text>
<text text-anchor="middle" x="558" y="-7" font-family="Helvetica,sans-Serif" font-size="10.00">Variable</text>
</a>
</g>
</g>
<!-- Node8&#45;&gt;Node10 -->
<g id="edge10" class="edge"><title>Node8&#45;&gt;Node10</title>
<path fill="none" stroke="midnightblue" d="M414.789,-30.8747C435.623,-28.5491 458.405,-26.006 479.509,-23.6501"/>
<polygon fill="midnightblue" stroke="midnightblue" points="480.169,-27.0983 489.719,-22.5104 479.392,-20.1415 480.169,-27.0983"/>
</g>
</g>
</svg>
