<?xml version="1.0" encoding="UTF-8" standalone="no"?>
<!DOCTYPE svg PUBLIC "-//W3C//DTD SVG 1.1//EN"
 "http://www.w3.org/Graphics/SVG/1.1/DTD/svg11.dtd">
<!-- Generated by graphviz version 2.36.0 (20140111.2315)
 -->
<!-- Title: view.Vector.equals Pages: 1 -->
<svg width="286pt" height="142pt"
 viewBox="0.00 0.00 286.00 142.00" xmlns="http://www.w3.org/2000/svg" xmlns:xlink="http://www.w3.org/1999/xlink">
<g id="graph0" class="graph" transform="scale(1 1) rotate(0) translate(4 138)">
<title>view.Vector.equals</title>
<polygon fill="white" stroke="none" points="-4,4 -4,-138 282,-138 282,4 -4,4"/>
<!-- Node1 -->
<g id="node1" class="node"><title>Node1</title>
<polygon fill="#bfbfbf" stroke="black" points="0,-57.5 0,-76.5 104,-76.5 104,-57.5 0,-57.5"/>
<text text-anchor="middle" x="52" y="-64.5" font-family="Helvetica,sans-Serif" font-size="10.00">view.Vector.equals</text>
</g>
<!-- Node2 -->
<g id="node2" class="node"><title>Node2</title>
<g id="a_node2"><a xlink:href="../../d7/d7d/classview_1_1_vector.html#a0a7d1fe5e63063fcc54a5181e4a708cb" target="_top" xlink:title="view.Vector.fuzzyEquals">
<polygon fill="white" stroke="black" points="145,-114.5 145,-133.5 273,-133.5 273,-114.5 145,-114.5"/>
<text text-anchor="middle" x="209" y="-121.5" font-family="Helvetica,sans-Serif" font-size="10.00">view.Vector.fuzzyEquals</text>
</a>
</g>
</g>
<!-- Node1&#45;&gt;Node2 -->
<g id="edge1" class="edge"><title>Node1&#45;&gt;Node2</title>
<path fill="none" stroke="midnightblue" d="M72.7239,-76.5573C90.1535,-84.7743 116.399,-96.5948 140,-105 146.517,-107.321 153.465,-109.542 160.338,-111.594"/>
<polygon fill="midnightblue" stroke="midnightblue" points="159.716,-115.058 170.295,-114.473 161.66,-108.333 159.716,-115.058"/>
</g>
<!-- Node3 -->
<g id="node3" class="node"><title>Node3</title>
<g id="a_node3"><a xlink:href="../../d7/d7d/classview_1_1_vector.html#a41523e735a5bfaa72067ee65d1c01fe1" target="_top" xlink:title="view.Vector.getDirection">
<polygon fill="white" stroke="black" points="143.5,-76.5 143.5,-95.5 274.5,-95.5 274.5,-76.5 143.5,-76.5"/>
<text text-anchor="middle" x="209" y="-83.5" font-family="Helvetica,sans-Serif" font-size="10.00">view.Vector.getDirection</text>
</a>
</g>
</g>
<!-- Node1&#45;&gt;Node3 -->
<g id="edge2" class="edge"><title>Node1&#45;&gt;Node3</title>
<path fill="none" stroke="midnightblue" d="M104.182,-73.274C113.476,-74.4131 123.342,-75.6226 133.151,-76.825"/>
<polygon fill="midnightblue" stroke="midnightblue" points="132.976,-80.3296 143.327,-78.0724 133.827,-73.3816 132.976,-80.3296"/>
</g>
<!-- Node4 -->
<g id="node4" class="node"><title>Node4</title>
<g id="a_node4"><a xlink:href="../../d7/d7d/classview_1_1_vector.html#a5382c66a53d3c0c1d6dc41fdaa84834f" target="_top" xlink:title="view.Vector.getMagnitude">
<polygon fill="white" stroke="black" points="140,-38.5 140,-57.5 278,-57.5 278,-38.5 140,-38.5"/>
<text text-anchor="middle" x="209" y="-45.5" font-family="Helvetica,sans-Serif" font-size="10.00">view.Vector.getMagnitude</text>
</a>
</g>
</g>
<!-- Node1&#45;&gt;Node4 -->
<g id="edge3" class="edge"><title>Node1&#45;&gt;Node4</title>
<path fill="none" stroke="midnightblue" d="M104.182,-60.726C112.358,-59.7238 120.978,-58.6673 129.612,-57.6089"/>
<polygon fill="midnightblue" stroke="midnightblue" points="130.229,-61.0596 139.728,-56.3688 129.377,-54.1116 130.229,-61.0596"/>
</g>
<!-- Node5 -->
<g id="node5" class="node"><title>Node5</title>
<g id="a_node5"><a xlink:href="../../d7/d7d/classview_1_1_vector.html#afdf42cc2f5841f7991ee34203bd14575" target="_top" xlink:title="view.Vector.Vector">
<polygon fill="white" stroke="black" points="157.5,-0.5 157.5,-19.5 260.5,-19.5 260.5,-0.5 157.5,-0.5"/>
<text text-anchor="middle" x="209" y="-7.5" font-family="Helvetica,sans-Serif" font-size="10.00">view.Vector.Vector</text>
</a>
</g>
</g>
<!-- Node1&#45;&gt;Node5 -->
<g id="edge4" class="edge"><title>Node1&#45;&gt;Node5</title>
<path fill="none" stroke="midnightblue" d="M72.7239,-57.4427C90.1535,-49.2257 116.399,-37.4052 140,-29 146.517,-26.679 153.465,-24.458 160.338,-22.4056"/>
<polygon fill="midnightblue" stroke="midnightblue" points="161.66,-25.6668 170.295,-19.5273 159.716,-18.9422 161.66,-25.6668"/>
</g>
</g>
</svg>
