<?xml version="1.0" encoding="UTF-8" standalone="no"?>
<!DOCTYPE svg PUBLIC "-//W3C//DTD SVG 1.1//EN"
 "http://www.w3.org/Graphics/SVG/1.1/DTD/svg11.dtd">
<!-- Generated by graphviz version 2.36.0 (20140111.2315)
 -->
<!-- Title: view.Vector.Vector Pages: 1 -->
<svg width="302pt" height="142pt"
 viewBox="0.00 0.00 302.00 142.00" xmlns="http://www.w3.org/2000/svg" xmlns:xlink="http://www.w3.org/1999/xlink">
<g id="graph0" class="graph" transform="scale(1 1) rotate(0) translate(4 138)">
<title>view.Vector.Vector</title>
<polygon fill="white" stroke="none" points="-4,4 -4,-138 298,-138 298,4 -4,4"/>
<!-- Node1 -->
<g id="node1" class="node"><title>Node1</title>
<polygon fill="#bfbfbf" stroke="black" points="0.5,-57.5 0.5,-76.5 103.5,-76.5 103.5,-57.5 0.5,-57.5"/>
<text text-anchor="middle" x="52" y="-64.5" font-family="Helvetica,sans-Serif" font-size="10.00">view.Vector.Vector</text>
</g>
<!-- Node2 -->
<g id="node2" class="node"><title>Node2</title>
<g id="a_node2"><a xlink:href="../../d7/d7d/classview_1_1_vector.html#a70c26c70b498930ca2f04ab3edc6ebdd" target="_top" xlink:title="view.Vector.angleBetween">
<polygon fill="white" stroke="black" points="147,-114.5 147,-133.5 287,-133.5 287,-114.5 147,-114.5"/>
<text text-anchor="middle" x="217" y="-121.5" font-family="Helvetica,sans-Serif" font-size="10.00">view.Vector.angleBetween</text>
</a>
</g>
</g>
<!-- Node1&#45;&gt;Node2 -->
<g id="edge1" class="edge"><title>Node1&#45;&gt;Node2</title>
<path fill="none" stroke="midnightblue" d="M72.3256,-76.5545C89.7163,-84.882 116.13,-96.8668 140,-105 147.332,-107.498 155.163,-109.825 162.909,-111.934"/>
<polygon fill="midnightblue" stroke="midnightblue" points="162.069,-115.332 172.63,-114.484 163.845,-108.561 162.069,-115.332"/>
</g>
<!-- Node3 -->
<g id="node3" class="node"><title>Node3</title>
<g id="a_node3"><a xlink:href="../../d7/d7d/classview_1_1_vector.html#adeeb35fddfd53999832274309804f047" target="_top" xlink:title="view.Vector.distanceBetween">
<polygon fill="white" stroke="black" points="140,-76.5 140,-95.5 294,-95.5 294,-76.5 140,-76.5"/>
<text text-anchor="middle" x="217" y="-83.5" font-family="Helvetica,sans-Serif" font-size="10.00">view.Vector.distanceBetween</text>
</a>
</g>
</g>
<!-- Node1&#45;&gt;Node3 -->
<g id="edge2" class="edge"><title>Node1&#45;&gt;Node3</title>
<path fill="none" stroke="midnightblue" d="M103.681,-72.9076C112.033,-73.8811 120.891,-74.9136 129.824,-75.955"/>
<polygon fill="midnightblue" stroke="midnightblue" points="129.581,-79.4502 139.919,-77.1317 130.392,-72.4973 129.581,-79.4502"/>
</g>
<!-- Node4 -->
<g id="node4" class="node"><title>Node4</title>
<g id="a_node4"><a xlink:href="../../d7/d7d/classview_1_1_vector.html#a485a40fbe58f654a1aeae82cf6b297a0" target="_top" xlink:title="view.Vector.setDirection">
<polygon fill="white" stroke="black" points="152,-38.5 152,-57.5 282,-57.5 282,-38.5 152,-38.5"/>
<text text-anchor="middle" x="217" y="-45.5" font-family="Helvetica,sans-Serif" font-size="10.00">view.Vector.setDirection</text>
</a>
</g>
</g>
<!-- Node1&#45;&gt;Node4 -->
<g id="edge3" class="edge"><title>Node1&#45;&gt;Node4</title>
<path fill="none" stroke="midnightblue" d="M103.681,-61.0924C115.701,-59.6913 128.769,-58.168 141.602,-56.6722"/>
<polygon fill="midnightblue" stroke="midnightblue" points="142.29,-60.1157 151.818,-55.4814 141.48,-53.1628 142.29,-60.1157"/>
</g>
<!-- Node5 -->
<g id="node5" class="node"><title>Node5</title>
<g id="a_node5"><a xlink:href="../../d7/d7d/classview_1_1_vector.html#ace16f664e139892ab0c09087273877eb" target="_top" xlink:title="view.Vector.setMagnitude">
<polygon fill="white" stroke="black" points="148.5,-0.5 148.5,-19.5 285.5,-19.5 285.5,-0.5 148.5,-0.5"/>
<text text-anchor="middle" x="217" y="-7.5" font-family="Helvetica,sans-Serif" font-size="10.00">view.Vector.setMagnitude</text>
</a>
</g>
</g>
<!-- Node1&#45;&gt;Node5 -->
<g id="edge4" class="edge"><title>Node1&#45;&gt;Node5</title>
<path fill="none" stroke="midnightblue" d="M72.3256,-57.4455C89.7163,-49.118 116.13,-37.1332 140,-29 147.332,-26.5018 155.163,-24.1747 162.909,-22.0663"/>
<polygon fill="midnightblue" stroke="midnightblue" points="163.845,-25.4392 172.63,-19.5163 162.069,-18.6683 163.845,-25.4392"/>
</g>
</g>
</svg>
