<?xml version="1.0" encoding="UTF-8" standalone="no"?>
<!DOCTYPE svg PUBLIC "-//W3C//DTD SVG 1.1//EN"
 "http://www.w3.org/Graphics/SVG/1.1/DTD/svg11.dtd">
<!-- Generated by graphviz version 2.36.0 (20140111.2315)
 -->
<!-- Title: view.Vector.toString Pages: 1 -->
<svg width="292pt" height="66pt"
 viewBox="0.00 0.00 292.00 66.00" xmlns="http://www.w3.org/2000/svg" xmlns:xlink="http://www.w3.org/1999/xlink">
<g id="graph0" class="graph" transform="scale(1 1) rotate(0) translate(4 62)">
<title>view.Vector.toString</title>
<polygon fill="white" stroke="none" points="-4,4 -4,-62 288,-62 288,4 -4,4"/>
<!-- Node1 -->
<g id="node1" class="node"><title>Node1</title>
<polygon fill="#bfbfbf" stroke="black" points="0,-19.5 0,-38.5 110,-38.5 110,-19.5 0,-19.5"/>
<text text-anchor="middle" x="55" y="-26.5" font-family="Helvetica,sans-Serif" font-size="10.00">view.Vector.toString</text>
</g>
<!-- Node2 -->
<g id="node2" class="node"><title>Node2</title>
<g id="a_node2"><a xlink:href="../../d7/d7d/classview_1_1_vector.html#a41523e735a5bfaa72067ee65d1c01fe1" target="_top" xlink:title="view.Vector.getDirection">
<polygon fill="white" stroke="black" points="149.5,-38.5 149.5,-57.5 280.5,-57.5 280.5,-38.5 149.5,-38.5"/>
<text text-anchor="middle" x="215" y="-45.5" font-family="Helvetica,sans-Serif" font-size="10.00">view.Vector.getDirection</text>
</a>
</g>
</g>
<!-- Node1&#45;&gt;Node2 -->
<g id="edge1" class="edge"><title>Node1&#45;&gt;Node2</title>
<path fill="none" stroke="midnightblue" d="M110.375,-35.5387C119.716,-36.6621 129.568,-37.8468 139.331,-39.0209"/>
<polygon fill="midnightblue" stroke="midnightblue" points="139.102,-42.5185 149.449,-40.2375 139.938,-35.5685 139.102,-42.5185"/>
</g>
<!-- Node3 -->
<g id="node3" class="node"><title>Node3</title>
<g id="a_node3"><a xlink:href="../../d7/d7d/classview_1_1_vector.html#a5382c66a53d3c0c1d6dc41fdaa84834f" target="_top" xlink:title="view.Vector.getMagnitude">
<polygon fill="white" stroke="black" points="146,-0.5 146,-19.5 284,-19.5 284,-0.5 146,-0.5"/>
<text text-anchor="middle" x="215" y="-7.5" font-family="Helvetica,sans-Serif" font-size="10.00">view.Vector.getMagnitude</text>
</a>
</g>
</g>
<!-- Node1&#45;&gt;Node3 -->
<g id="edge2" class="edge"><title>Node1&#45;&gt;Node3</title>
<path fill="none" stroke="midnightblue" d="M110.375,-22.4613C118.587,-21.4737 127.194,-20.4387 135.788,-19.4052"/>
<polygon fill="midnightblue" stroke="midnightblue" points="136.337,-22.8646 145.847,-18.1956 135.501,-15.9146 136.337,-22.8646"/>
</g>
</g>
</svg>
