<?xml version="1.0" encoding="UTF-8" standalone="no"?>
<!DOCTYPE svg PUBLIC "-//W3C//DTD SVG 1.1//EN"
 "http://www.w3.org/Graphics/SVG/1.1/DTD/svg11.dtd">
<!-- Generated by graphviz version 2.36.0 (20140111.2315)
 -->
<!-- Title: view.Vector.getDirection Pages: 1 -->
<svg width="700pt" height="294pt"
 viewBox="0.00 0.00 700.00 294.00" xmlns="http://www.w3.org/2000/svg" xmlns:xlink="http://www.w3.org/1999/xlink">
<g id="graph0" class="graph" transform="scale(1 1) rotate(0) translate(4 290)">
<title>view.Vector.getDirection</title>
<polygon fill="white" stroke="none" points="-4,4 -4,-290 696,-290 696,4 -4,4"/>
<!-- Node1 -->
<g id="node1" class="node"><title>Node1</title>
<polygon fill="#bfbfbf" stroke="black" points="0.5,-133.5 0.5,-152.5 131.5,-152.5 131.5,-133.5 0.5,-133.5"/>
<text text-anchor="middle" x="66" y="-140.5" font-family="Helvetica,sans-Serif" font-size="10.00">view.Vector.getDirection</text>
</g>
<!-- Node2 -->
<g id="node2" class="node"><title>Node2</title>
<g id="a_node2"><a xlink:href="../../d7/d7d/classview_1_1_vector.html#a7212dc650fb893f2055246143a86b465" target="_top" xlink:title="view.Vector.average">
<polygon fill="white" stroke="black" points="190.5,-266.5 190.5,-285.5 301.5,-285.5 301.5,-266.5 190.5,-266.5"/>
<text text-anchor="middle" x="246" y="-273.5" font-family="Helvetica,sans-Serif" font-size="10.00">view.Vector.average</text>
</a>
</g>
</g>
<!-- Node1&#45;&gt;Node2 -->
<g id="edge1" class="edge"><title>Node1&#45;&gt;Node2</title>
<path fill="none" stroke="midnightblue" d="M78.1345,-161.419C94.5418,-186.927 127.672,-232.614 168,-257 174.834,-261.132 182.523,-264.367 190.33,-266.9"/>
<polygon fill="midnightblue" stroke="midnightblue" points="80.9589,-159.334 72.6849,-152.717 75.0263,-163.05 80.9589,-159.334"/>
</g>
<!-- Node3 -->
<g id="node3" class="node"><title>Node3</title>
<g id="a_node3"><a xlink:href="../../d7/d7d/classview_1_1_vector.html#a6288c95a90573ba7f9120ec0e6e561ff" target="_top" xlink:title="view.Vector.equals">
<polygon fill="white" stroke="black" points="194,-228.5 194,-247.5 298,-247.5 298,-228.5 194,-228.5"/>
<text text-anchor="middle" x="246" y="-235.5" font-family="Helvetica,sans-Serif" font-size="10.00">view.Vector.equals</text>
</a>
</g>
</g>
<!-- Node1&#45;&gt;Node3 -->
<g id="edge2" class="edge"><title>Node1&#45;&gt;Node3</title>
<path fill="none" stroke="midnightblue" d="M84.5486,-159.759C103.621,-177.071 135.712,-203.661 168,-219 176.084,-222.84 185.027,-225.956 193.871,-228.466"/>
<polygon fill="midnightblue" stroke="midnightblue" points="86.694,-156.976 76.9785,-152.75 81.938,-162.112 86.694,-156.976"/>
</g>
<!-- Node4 -->
<g id="node4" class="node"><title>Node4</title>
<g id="a_node4"><a xlink:href="../../d7/d7d/classview_1_1_vector.html#acde29778b8573b72ea13da832db278a0" target="_top" xlink:title="view.Vector.getAngleBetween">
<polygon fill="white" stroke="black" points="168,-190.5 168,-209.5 324,-209.5 324,-190.5 168,-190.5"/>
<text text-anchor="middle" x="246" y="-197.5" font-family="Helvetica,sans-Serif" font-size="10.00">view.Vector.getAngleBetween</text>
</a>
</g>
</g>
<!-- Node1&#45;&gt;Node4 -->
<g id="edge3" class="edge"><title>Node1&#45;&gt;Node4</title>
<path fill="none" stroke="midnightblue" d="M99.3975,-156.303C119.045,-164.091 144.733,-173.78 168,-181 179.046,-184.428 191.134,-187.652 202.39,-190.437"/>
<polygon fill="midnightblue" stroke="midnightblue" points="100.582,-153.008 89.9974,-152.54 97.9803,-159.506 100.582,-153.008"/>
</g>
<!-- Node6 -->
<g id="node6" class="node"><title>Node6</title>
<g id="a_node6"><a xlink:href="../../d7/d7d/classview_1_1_vector.html#ae6a99f4d2d1f1a79f362b5e1cd2c77d2" target="_top" xlink:title="view.Vector.getXChange">
<polygon fill="white" stroke="black" points="181,-152.5 181,-171.5 311,-171.5 311,-152.5 181,-152.5"/>
<text text-anchor="middle" x="246" y="-159.5" font-family="Helvetica,sans-Serif" font-size="10.00">view.Vector.getXChange</text>
</a>
</g>
</g>
<!-- Node1&#45;&gt;Node6 -->
<g id="edge5" class="edge"><title>Node1&#45;&gt;Node6</title>
<path fill="none" stroke="midnightblue" d="M141.782,-150.982C154.723,-152.364 168.075,-153.789 180.706,-155.137"/>
<polygon fill="midnightblue" stroke="midnightblue" points="141.829,-147.468 131.514,-149.886 141.086,-154.428 141.829,-147.468"/>
</g>
<!-- Node10 -->
<g id="node10" class="node"><title>Node10</title>
<g id="a_node10"><a xlink:href="../../d7/d7d/classview_1_1_vector.html#a2fd7acd224e15efaaa94491f7f1a9fa4" target="_top" xlink:title="view.Vector.getYChange">
<polygon fill="white" stroke="black" points="181.5,-114.5 181.5,-133.5 310.5,-133.5 310.5,-114.5 181.5,-114.5"/>
<text text-anchor="middle" x="246" y="-121.5" font-family="Helvetica,sans-Serif" font-size="10.00">view.Vector.getYChange</text>
</a>
</g>
</g>
<!-- Node1&#45;&gt;Node10 -->
<g id="edge9" class="edge"><title>Node1&#45;&gt;Node10</title>
<path fill="none" stroke="midnightblue" d="M141.522,-135.045C154.747,-133.634 168.411,-132.175 181.302,-130.799"/>
<polygon fill="midnightblue" stroke="midnightblue" points="141.086,-131.572 131.514,-136.114 141.829,-138.532 141.086,-131.572"/>
</g>
<!-- Node11 -->
<g id="node11" class="node"><title>Node11</title>
<g id="a_node11"><a xlink:href="../../d7/d7d/classview_1_1_vector.html#ac85e95f0785953b33585e645521f8c55" target="_top" xlink:title="view.Vector.toString">
<polygon fill="white" stroke="black" points="191,-38.5 191,-57.5 301,-57.5 301,-38.5 191,-38.5"/>
<text text-anchor="middle" x="246" y="-45.5" font-family="Helvetica,sans-Serif" font-size="10.00">view.Vector.toString</text>
</a>
</g>
</g>
<!-- Node1&#45;&gt;Node11 -->
<g id="edge12" class="edge"><title>Node1&#45;&gt;Node11</title>
<path fill="none" stroke="midnightblue" d="M84.5486,-126.241C103.621,-108.929 135.712,-82.3389 168,-67 176.084,-63.1596 185.027,-60.0445 193.871,-57.5339"/>
<polygon fill="midnightblue" stroke="midnightblue" points="81.938,-123.888 76.9785,-133.25 86.694,-129.024 81.938,-123.888"/>
</g>
<!-- Node12 -->
<g id="node12" class="node"><title>Node12</title>
<g id="a_node12"><a xlink:href="../../d7/d7d/classview_1_1_vector.html#ad2c9c045430c737cb25ccd1ed2f2d479" target="_top" xlink:title="view.Vector.turn">
<polygon fill="white" stroke="black" points="200,-76.5 200,-95.5 292,-95.5 292,-76.5 200,-76.5"/>
<text text-anchor="middle" x="246" y="-83.5" font-family="Helvetica,sans-Serif" font-size="10.00">view.Vector.turn</text>
</a>
</g>
</g>
<!-- Node1&#45;&gt;Node12 -->
<g id="edge13" class="edge"><title>Node1&#45;&gt;Node12</title>
<path fill="none" stroke="midnightblue" d="M99.3975,-129.697C119.045,-121.909 144.733,-112.22 168,-105 179.046,-101.572 191.134,-98.3483 202.39,-95.5634"/>
<polygon fill="midnightblue" stroke="midnightblue" points="97.9803,-126.494 89.9974,-133.46 100.582,-132.992 97.9803,-126.494"/>
</g>
<!-- Node14 -->
<g id="node14" class="node"><title>Node14</title>
<g id="a_node14"><a xlink:href="../../d7/d7d/classview_1_1_vector.html#a00efed141d66c7fa729d9b30eb70600b" target="_top" xlink:title="view.Vector.Vector">
<polygon fill="white" stroke="black" points="194.5,-0.5 194.5,-19.5 297.5,-19.5 297.5,-0.5 194.5,-0.5"/>
<text text-anchor="middle" x="246" y="-7.5" font-family="Helvetica,sans-Serif" font-size="10.00">view.Vector.Vector</text>
</a>
</g>
</g>
<!-- Node1&#45;&gt;Node14 -->
<g id="edge16" class="edge"><title>Node1&#45;&gt;Node14</title>
<path fill="none" stroke="midnightblue" d="M78.1345,-124.581C94.5418,-99.0733 127.672,-53.3857 168,-29 176.012,-24.1553 185.201,-20.5437 194.375,-17.852"/>
<polygon fill="midnightblue" stroke="midnightblue" points="75.0263,-122.95 72.6849,-133.283 80.9589,-126.666 75.0263,-122.95"/>
</g>
<!-- Node5 -->
<g id="node5" class="node"><title>Node5</title>
<g id="a_node5"><a xlink:href="../../d7/d7d/classview_1_1_vector.html#a72c9590488e9e44242efcbbfa051d19f" target="_top" xlink:title="view.Vector.getRelativeMagnitude">
<polygon fill="white" stroke="black" points="360.5,-190.5 360.5,-209.5 535.5,-209.5 535.5,-190.5 360.5,-190.5"/>
<text text-anchor="middle" x="448" y="-197.5" font-family="Helvetica,sans-Serif" font-size="10.00">view.Vector.getRelativeMagnitude</text>
</a>
</g>
</g>
<!-- Node4&#45;&gt;Node5 -->
<g id="edge4" class="edge"><title>Node4&#45;&gt;Node5</title>
<path fill="none" stroke="midnightblue" d="M334.159,-200C342.845,-200 351.662,-200 360.343,-200"/>
<polygon fill="midnightblue" stroke="midnightblue" points="334.039,-196.5 324.039,-200 334.039,-203.5 334.039,-196.5"/>
</g>
<!-- Node7 -->
<g id="node7" class="node"><title>Node7</title>
<g id="a_node7"><a xlink:href="../../d5/db8/classview_1_1_location.html#a263189008987a7fefeb358d5749e3939" target="_top" xlink:title="view.Location.translate">
<polygon fill="white" stroke="black" points="385.5,-152.5 385.5,-171.5 510.5,-171.5 510.5,-152.5 385.5,-152.5"/>
<text text-anchor="middle" x="448" y="-159.5" font-family="Helvetica,sans-Serif" font-size="10.00">view.Location.translate</text>
</a>
</g>
</g>
<!-- Node6&#45;&gt;Node7 -->
<g id="edge6" class="edge"><title>Node6&#45;&gt;Node7</title>
<path fill="none" stroke="midnightblue" d="M321.3,-162C342.367,-162 365.067,-162 385.302,-162"/>
<polygon fill="midnightblue" stroke="midnightblue" points="321.107,-158.5 311.107,-162 321.106,-165.5 321.107,-158.5"/>
</g>
<!-- Node8 -->
<g id="node8" class="node"><title>Node8</title>
<g id="a_node8"><a xlink:href="../../d7/d7d/classview_1_1_vector.html#a6bb31da650b3b50ef13c2bd0c5164db8" target="_top" xlink:title="view.Vector.sum">
<polygon fill="white" stroke="black" points="401.5,-114.5 401.5,-133.5 494.5,-133.5 494.5,-114.5 401.5,-114.5"/>
<text text-anchor="middle" x="448" y="-121.5" font-family="Helvetica,sans-Serif" font-size="10.00">view.Vector.sum</text>
</a>
</g>
</g>
<!-- Node6&#45;&gt;Node8 -->
<g id="edge7" class="edge"><title>Node6&#45;&gt;Node8</title>
<path fill="none" stroke="midnightblue" d="M307.202,-150.562C337.378,-144.828 373.331,-137.997 401.22,-132.698"/>
<polygon fill="midnightblue" stroke="midnightblue" points="306.381,-147.155 297.21,-152.46 307.688,-154.032 306.381,-147.155"/>
</g>
<!-- Node9 -->
<g id="node9" class="node"><title>Node9</title>
<g id="a_node9"><a xlink:href="../../d7/d7d/classview_1_1_vector.html#a8eb196d068714eeb5d4cee2e86c44882" target="_top" xlink:title="view.Vector.difference">
<polygon fill="white" stroke="black" points="572.5,-95.5 572.5,-114.5 691.5,-114.5 691.5,-95.5 572.5,-95.5"/>
<text text-anchor="middle" x="632" y="-102.5" font-family="Helvetica,sans-Serif" font-size="10.00">view.Vector.difference</text>
</a>
</g>
</g>
<!-- Node8&#45;&gt;Node9 -->
<g id="edge8" class="edge"><title>Node8&#45;&gt;Node9</title>
<path fill="none" stroke="midnightblue" d="M505.126,-118.141C526.446,-115.915 550.776,-113.375 572.326,-111.125"/>
<polygon fill="midnightblue" stroke="midnightblue" points="504.509,-114.686 494.926,-119.205 505.236,-121.648 504.509,-114.686"/>
</g>
<!-- Node10&#45;&gt;Node7 -->
<g id="edge10" class="edge"><title>Node10&#45;&gt;Node7</title>
<path fill="none" stroke="midnightblue" d="M307.095,-135.418C335.712,-140.855 369.543,-147.283 396.769,-152.456"/>
<polygon fill="midnightblue" stroke="midnightblue" points="307.688,-131.968 297.21,-133.54 306.381,-138.845 307.688,-131.968"/>
</g>
<!-- Node10&#45;&gt;Node8 -->
<g id="edge11" class="edge"><title>Node10&#45;&gt;Node8</title>
<path fill="none" stroke="midnightblue" d="M320.756,-124C347.767,-124 377.527,-124 401.366,-124"/>
<polygon fill="midnightblue" stroke="midnightblue" points="320.556,-120.5 310.556,-124 320.556,-127.5 320.556,-120.5"/>
</g>
<!-- Node13 -->
<g id="node13" class="node"><title>Node13</title>
<g id="a_node13"><a xlink:href="../../d7/d7d/classview_1_1_vector.html#aa033c0e2ea57f133e3d225db9010588d" target="_top" xlink:title="view.Vector.negate">
<polygon fill="white" stroke="black" points="395,-76.5 395,-95.5 501,-95.5 501,-76.5 395,-76.5"/>
<text text-anchor="middle" x="448" y="-83.5" font-family="Helvetica,sans-Serif" font-size="10.00">view.Vector.negate</text>
</a>
</g>
</g>
<!-- Node12&#45;&gt;Node13 -->
<g id="edge14" class="edge"><title>Node12&#45;&gt;Node13</title>
<path fill="none" stroke="midnightblue" d="M302.692,-86C331.493,-86 366.44,-86 394.73,-86"/>
<polygon fill="midnightblue" stroke="midnightblue" points="302.383,-82.5001 292.383,-86 302.383,-89.5001 302.383,-82.5001"/>
</g>
<!-- Node13&#45;&gt;Node9 -->
<g id="edge15" class="edge"><title>Node13&#45;&gt;Node9</title>
<path fill="none" stroke="midnightblue" d="M511.3,-92.5039C531.098,-94.5707 552.915,-96.8483 572.44,-98.8866"/>
<polygon fill="midnightblue" stroke="midnightblue" points="511.463,-89.002 501.154,-91.4446 510.736,-95.9641 511.463,-89.002"/>
</g>
</g>
</svg>
