<?xml version="1.0" encoding="UTF-8" standalone="no"?>
<!DOCTYPE svg PUBLIC "-//W3C//DTD SVG 1.1//EN"
 "http://www.w3.org/Graphics/SVG/1.1/DTD/svg11.dtd">
<!-- Generated by graphviz version 2.36.0 (20140111.2315)
 -->
<!-- Title: view.Vector.setMagnitude Pages: 1 -->
<svg width="442pt" height="142pt"
 viewBox="0.00 0.00 442.00 142.00" xmlns="http://www.w3.org/2000/svg" xmlns:xlink="http://www.w3.org/1999/xlink">
<g id="graph0" class="graph" transform="scale(1 1) rotate(0) translate(4 138)">
<title>view.Vector.setMagnitude</title>
<polygon fill="white" stroke="none" points="-4,4 -4,-138 438,-138 438,4 -4,4"/>
<!-- Node1 -->
<g id="node1" class="node"><title>Node1</title>
<polygon fill="#bfbfbf" stroke="black" points="0.5,-57.5 0.5,-76.5 137.5,-76.5 137.5,-57.5 0.5,-57.5"/>
<text text-anchor="middle" x="69" y="-64.5" font-family="Helvetica,sans-Serif" font-size="10.00">view.Vector.setMagnitude</text>
</g>
<!-- Node2 -->
<g id="node2" class="node"><title>Node2</title>
<g id="a_node2"><a xlink:href="../../d7/d7d/classview_1_1_vector.html#a032466b8f7758eacb8ed54396d4a27bd" target="_top" xlink:title="view.Vector.reset">
<polygon fill="white" stroke="black" points="177.5,-114.5 177.5,-133.5 274.5,-133.5 274.5,-114.5 177.5,-114.5"/>
<text text-anchor="middle" x="226" y="-121.5" font-family="Helvetica,sans-Serif" font-size="10.00">view.Vector.reset</text>
</a>
</g>
</g>
<!-- Node1&#45;&gt;Node2 -->
<g id="edge1" class="edge"><title>Node1&#45;&gt;Node2</title>
<path fill="none" stroke="midnightblue" d="M105.529,-80.0655C134.02,-90.5428 173.347,-105.005 198.972,-114.428"/>
<polygon fill="midnightblue" stroke="midnightblue" points="106.537,-76.7071 95.9435,-76.5405 104.121,-83.2769 106.537,-76.7071"/>
</g>
<!-- Node3 -->
<g id="node3" class="node"><title>Node3</title>
<g id="a_node3"><a xlink:href="../../d7/d7d/classview_1_1_vector.html#addad1b8a5189f17b070dd5f61f0364df" target="_top" xlink:title="view.Vector.scale">
<polygon fill="white" stroke="black" points="177.5,-76.5 177.5,-95.5 274.5,-95.5 274.5,-76.5 177.5,-76.5"/>
<text text-anchor="middle" x="226" y="-83.5" font-family="Helvetica,sans-Serif" font-size="10.00">view.Vector.scale</text>
</a>
</g>
</g>
<!-- Node1&#45;&gt;Node3 -->
<g id="edge2" class="edge"><title>Node1&#45;&gt;Node3</title>
<path fill="none" stroke="midnightblue" d="M147.619,-76.5146C157.728,-77.7537 167.834,-78.9926 177.25,-80.1468"/>
<polygon fill="midnightblue" stroke="midnightblue" points="147.886,-73.0212 137.534,-75.2784 147.034,-79.9692 147.886,-73.0212"/>
</g>
<!-- Node4 -->
<g id="node4" class="node"><title>Node4</title>
<g id="a_node4"><a xlink:href="../../d7/d7d/classview_1_1_vector.html#a6bb31da650b3b50ef13c2bd0c5164db8" target="_top" xlink:title="view.Vector.sum">
<polygon fill="white" stroke="black" points="179.5,-38.5 179.5,-57.5 272.5,-57.5 272.5,-38.5 179.5,-38.5"/>
<text text-anchor="middle" x="226" y="-45.5" font-family="Helvetica,sans-Serif" font-size="10.00">view.Vector.sum</text>
</a>
</g>
</g>
<!-- Node1&#45;&gt;Node4 -->
<g id="edge3" class="edge"><title>Node1&#45;&gt;Node4</title>
<path fill="none" stroke="midnightblue" d="M147.781,-57.4656C158.493,-56.1524 169.199,-54.8402 179.078,-53.6291"/>
<polygon fill="midnightblue" stroke="midnightblue" points="147.034,-54.0308 137.534,-58.7216 147.886,-60.9788 147.034,-54.0308"/>
</g>
<!-- Node6 -->
<g id="node6" class="node"><title>Node6</title>
<g id="a_node6"><a xlink:href="../../d7/d7d/classview_1_1_vector.html#a57cfd0d7cfde8bbf092def6cf6d974ad" target="_top" xlink:title="view.Vector.Vector">
<polygon fill="white" stroke="black" points="174.5,-0.5 174.5,-19.5 277.5,-19.5 277.5,-0.5 174.5,-0.5"/>
<text text-anchor="middle" x="226" y="-7.5" font-family="Helvetica,sans-Serif" font-size="10.00">view.Vector.Vector</text>
</a>
</g>
</g>
<!-- Node1&#45;&gt;Node6 -->
<g id="edge5" class="edge"><title>Node1&#45;&gt;Node6</title>
<path fill="none" stroke="midnightblue" d="M105.529,-53.9345C134.02,-43.4572 173.347,-28.9949 198.972,-19.5716"/>
<polygon fill="midnightblue" stroke="midnightblue" points="104.121,-50.7231 95.9435,-57.4595 106.537,-57.2929 104.121,-50.7231"/>
</g>
<!-- Node5 -->
<g id="node5" class="node"><title>Node5</title>
<g id="a_node5"><a xlink:href="../../d7/d7d/classview_1_1_vector.html#a8eb196d068714eeb5d4cee2e86c44882" target="_top" xlink:title="view.Vector.difference">
<polygon fill="white" stroke="black" points="314.5,-38.5 314.5,-57.5 433.5,-57.5 433.5,-38.5 314.5,-38.5"/>
<text text-anchor="middle" x="374" y="-45.5" font-family="Helvetica,sans-Serif" font-size="10.00">view.Vector.difference</text>
</a>
</g>
</g>
<!-- Node4&#45;&gt;Node5 -->
<g id="edge4" class="edge"><title>Node4&#45;&gt;Node5</title>
<path fill="none" stroke="midnightblue" d="M282.932,-48C293.263,-48 304.077,-48 314.482,-48"/>
<polygon fill="midnightblue" stroke="midnightblue" points="282.795,-44.5001 272.795,-48 282.795,-51.5001 282.795,-44.5001"/>
</g>
</g>
</svg>
