<?xml version="1.0" encoding="UTF-8" standalone="no"?>
<!DOCTYPE svg PUBLIC "-//W3C//DTD SVG 1.1//EN"
 "http://www.w3.org/Graphics/SVG/1.1/DTD/svg11.dtd">
<!-- Generated by graphviz version 2.36.0 (20140111.2315)
 -->
<!-- Title: view.Vector.sum Pages: 1 -->
<svg width="466pt" height="218pt"
 viewBox="0.00 0.00 466.00 218.00" xmlns="http://www.w3.org/2000/svg" xmlns:xlink="http://www.w3.org/1999/xlink">
<g id="graph0" class="graph" transform="scale(1 1) rotate(0) translate(4 214)">
<title>view.Vector.sum</title>
<polygon fill="white" stroke="none" points="-4,4 -4,-214 462,-214 462,4 -4,4"/>
<!-- Node1 -->
<g id="node1" class="node"><title>Node1</title>
<polygon fill="#bfbfbf" stroke="black" points="0.5,-95.5 0.5,-114.5 93.5,-114.5 93.5,-95.5 0.5,-95.5"/>
<text text-anchor="middle" x="47" y="-102.5" font-family="Helvetica,sans-Serif" font-size="10.00">view.Vector.sum</text>
</g>
<!-- Node2 -->
<g id="node2" class="node"><title>Node2</title>
<g id="a_node2"><a xlink:href="../../d7/d7d/classview_1_1_vector.html#a70c26c70b498930ca2f04ab3edc6ebdd" target="_top" xlink:title="view.Vector.angleBetween">
<polygon fill="white" stroke="black" points="137,-190.5 137,-209.5 277,-209.5 277,-190.5 137,-190.5"/>
<text text-anchor="middle" x="207" y="-197.5" font-family="Helvetica,sans-Serif" font-size="10.00">view.Vector.angleBetween</text>
</a>
</g>
</g>
<!-- Node1&#45;&gt;Node2 -->
<g id="edge1" class="edge"><title>Node1&#45;&gt;Node2</title>
<path fill="none" stroke="midnightblue" d="M55.4908,-114.561C68.7289,-130.783 97.9097,-163.627 130,-181 134.261,-183.307 138.808,-185.339 143.478,-187.13"/>
<polygon fill="midnightblue" stroke="midnightblue" points="142.592,-190.526 153.187,-190.474 144.872,-183.908 142.592,-190.526"/>
</g>
<!-- Node3 -->
<g id="node3" class="node"><title>Node3</title>
<g id="a_node3"><a xlink:href="../../d7/d7d/classview_1_1_vector.html#adeeb35fddfd53999832274309804f047" target="_top" xlink:title="view.Vector.distanceBetween">
<polygon fill="white" stroke="black" points="130,-152.5 130,-171.5 284,-171.5 284,-152.5 130,-152.5"/>
<text text-anchor="middle" x="207" y="-159.5" font-family="Helvetica,sans-Serif" font-size="10.00">view.Vector.distanceBetween</text>
</a>
</g>
</g>
<!-- Node1&#45;&gt;Node3 -->
<g id="edge2" class="edge"><title>Node1&#45;&gt;Node3</title>
<path fill="none" stroke="midnightblue" d="M66.1478,-114.622C82.4949,-122.994 107.364,-135.006 130,-143 137.044,-145.488 144.565,-147.782 152.033,-149.853"/>
<polygon fill="midnightblue" stroke="midnightblue" points="151.212,-153.256 161.775,-152.442 153.01,-146.491 151.212,-153.256"/>
</g>
<!-- Node4 -->
<g id="node4" class="node"><title>Node4</title>
<g id="a_node4"><a xlink:href="../../d7/d7d/classview_1_1_vector.html#ae6a99f4d2d1f1a79f362b5e1cd2c77d2" target="_top" xlink:title="view.Vector.getXChange">
<polygon fill="white" stroke="black" points="142,-114.5 142,-133.5 272,-133.5 272,-114.5 142,-114.5"/>
<text text-anchor="middle" x="207" y="-121.5" font-family="Helvetica,sans-Serif" font-size="10.00">view.Vector.getXChange</text>
</a>
</g>
</g>
<!-- Node1&#45;&gt;Node4 -->
<g id="edge3" class="edge"><title>Node1&#45;&gt;Node4</title>
<path fill="none" stroke="midnightblue" d="M93.7001,-110.496C105.566,-111.923 118.659,-113.497 131.587,-115.052"/>
<polygon fill="midnightblue" stroke="midnightblue" points="131.547,-118.572 141.894,-116.291 132.383,-111.622 131.547,-118.572"/>
</g>
<!-- Node7 -->
<g id="node7" class="node"><title>Node7</title>
<g id="a_node7"><a xlink:href="../../d7/d7d/classview_1_1_vector.html#a2fd7acd224e15efaaa94491f7f1a9fa4" target="_top" xlink:title="view.Vector.getYChange">
<polygon fill="white" stroke="black" points="142.5,-76.5 142.5,-95.5 271.5,-95.5 271.5,-76.5 142.5,-76.5"/>
<text text-anchor="middle" x="207" y="-83.5" font-family="Helvetica,sans-Serif" font-size="10.00">view.Vector.getYChange</text>
</a>
</g>
</g>
<!-- Node1&#45;&gt;Node7 -->
<g id="edge6" class="edge"><title>Node1&#45;&gt;Node7</title>
<path fill="none" stroke="midnightblue" d="M93.7001,-99.5044C105.829,-98.0459 119.239,-96.4333 132.446,-94.8451"/>
<polygon fill="midnightblue" stroke="midnightblue" points="132.97,-98.3074 142.481,-93.6384 132.134,-91.3575 132.97,-98.3074"/>
</g>
<!-- Node8 -->
<g id="node8" class="node"><title>Node8</title>
<g id="a_node8"><a xlink:href="../../d7/d7d/classview_1_1_vector.html#a485a40fbe58f654a1aeae82cf6b297a0" target="_top" xlink:title="view.Vector.setDirection">
<polygon fill="white" stroke="black" points="142,-38.5 142,-57.5 272,-57.5 272,-38.5 142,-38.5"/>
<text text-anchor="middle" x="207" y="-45.5" font-family="Helvetica,sans-Serif" font-size="10.00">view.Vector.setDirection</text>
</a>
</g>
</g>
<!-- Node1&#45;&gt;Node8 -->
<g id="edge9" class="edge"><title>Node1&#45;&gt;Node8</title>
<path fill="none" stroke="midnightblue" d="M66.1478,-95.3777C82.4949,-87.0058 107.364,-74.9937 130,-67 137.044,-64.5124 144.565,-62.2175 152.033,-60.1473"/>
<polygon fill="midnightblue" stroke="midnightblue" points="153.01,-63.5091 161.775,-57.5577 151.212,-56.744 153.01,-63.5091"/>
</g>
<!-- Node9 -->
<g id="node9" class="node"><title>Node9</title>
<g id="a_node9"><a xlink:href="../../d7/d7d/classview_1_1_vector.html#ace16f664e139892ab0c09087273877eb" target="_top" xlink:title="view.Vector.setMagnitude">
<polygon fill="white" stroke="black" points="138.5,-0.5 138.5,-19.5 275.5,-19.5 275.5,-0.5 138.5,-0.5"/>
<text text-anchor="middle" x="207" y="-7.5" font-family="Helvetica,sans-Serif" font-size="10.00">view.Vector.setMagnitude</text>
</a>
</g>
</g>
<!-- Node1&#45;&gt;Node9 -->
<g id="edge10" class="edge"><title>Node1&#45;&gt;Node9</title>
<path fill="none" stroke="midnightblue" d="M55.4908,-95.4392C68.7289,-79.2169 97.9097,-46.3734 130,-29 134.261,-26.6932 138.808,-24.6605 143.478,-22.8703"/>
<polygon fill="midnightblue" stroke="midnightblue" points="144.872,-26.092 153.187,-19.526 142.592,-19.4737 144.872,-26.092"/>
</g>
<!-- Node5 -->
<g id="node5" class="node"><title>Node5</title>
<g id="a_node5"><a xlink:href="../../d7/d7d/classview_1_1_vector.html#a41523e735a5bfaa72067ee65d1c01fe1" target="_top" xlink:title="view.Vector.getDirection">
<polygon fill="white" stroke="black" points="323.5,-114.5 323.5,-133.5 454.5,-133.5 454.5,-114.5 323.5,-114.5"/>
<text text-anchor="middle" x="389" y="-121.5" font-family="Helvetica,sans-Serif" font-size="10.00">view.Vector.getDirection</text>
</a>
</g>
</g>
<!-- Node4&#45;&gt;Node5 -->
<g id="edge4" class="edge"><title>Node4&#45;&gt;Node5</title>
<path fill="none" stroke="midnightblue" d="M272.222,-124C285.497,-124 299.589,-124 313.204,-124"/>
<polygon fill="midnightblue" stroke="midnightblue" points="313.5,-127.5 323.5,-124 313.5,-120.5 313.5,-127.5"/>
</g>
<!-- Node6 -->
<g id="node6" class="node"><title>Node6</title>
<g id="a_node6"><a xlink:href="../../d7/d7d/classview_1_1_vector.html#a5382c66a53d3c0c1d6dc41fdaa84834f" target="_top" xlink:title="view.Vector.getMagnitude">
<polygon fill="white" stroke="black" points="320,-76.5 320,-95.5 458,-95.5 458,-76.5 320,-76.5"/>
<text text-anchor="middle" x="389" y="-83.5" font-family="Helvetica,sans-Serif" font-size="10.00">view.Vector.getMagnitude</text>
</a>
</g>
</g>
<!-- Node4&#45;&gt;Node6 -->
<g id="edge5" class="edge"><title>Node4&#45;&gt;Node6</title>
<path fill="none" stroke="midnightblue" d="M253.422,-114.411C277.603,-109.306 307.527,-102.989 333.014,-97.6082"/>
<polygon fill="midnightblue" stroke="midnightblue" points="333.844,-101.01 342.905,-95.5201 332.398,-94.1612 333.844,-101.01"/>
</g>
<!-- Node7&#45;&gt;Node5 -->
<g id="edge7" class="edge"><title>Node7&#45;&gt;Node5</title>
<path fill="none" stroke="midnightblue" d="M253.422,-95.589C277.603,-100.694 307.527,-107.011 333.014,-112.392"/>
<polygon fill="midnightblue" stroke="midnightblue" points="332.398,-115.839 342.905,-114.48 333.844,-108.99 332.398,-115.839"/>
</g>
<!-- Node7&#45;&gt;Node6 -->
<g id="edge8" class="edge"><title>Node7&#45;&gt;Node6</title>
<path fill="none" stroke="midnightblue" d="M271.715,-86C284.004,-86 297.01,-86 309.7,-86"/>
<polygon fill="midnightblue" stroke="midnightblue" points="309.79,-89.5001 319.79,-86 309.79,-82.5001 309.79,-89.5001"/>
</g>
</g>
</svg>
