<?xml version="1.0" encoding="UTF-8" standalone="no"?>
<!DOCTYPE svg PUBLIC "-//W3C//DTD SVG 1.1//EN"
 "http://www.w3.org/Graphics/SVG/1.1/DTD/svg11.dtd">
<!-- Generated by graphviz version 2.36.0 (20140111.2315)
 -->
<!-- Title: view.Vector.turn Pages: 1 -->
<svg width="398pt" height="28pt"
 viewBox="0.00 0.00 398.00 28.00" xmlns="http://www.w3.org/2000/svg" xmlns:xlink="http://www.w3.org/1999/xlink">
<g id="graph0" class="graph" transform="scale(1 1) rotate(0) translate(4 24)">
<title>view.Vector.turn</title>
<polygon fill="white" stroke="none" points="-4,4 -4,-24 394,-24 394,4 -4,4"/>
<!-- Node1 -->
<g id="node1" class="node"><title>Node1</title>
<polygon fill="#bfbfbf" stroke="black" points="0,-0.5 0,-19.5 92,-19.5 92,-0.5 0,-0.5"/>
<text text-anchor="middle" x="46" y="-7.5" font-family="Helvetica,sans-Serif" font-size="10.00">view.Vector.turn</text>
</g>
<!-- Node2 -->
<g id="node2" class="node"><title>Node2</title>
<g id="a_node2"><a xlink:href="../../d7/d7d/classview_1_1_vector.html#aa033c0e2ea57f133e3d225db9010588d" target="_top" xlink:title="view.Vector.negate">
<polygon fill="white" stroke="black" points="128,-0.5 128,-19.5 234,-19.5 234,-0.5 128,-0.5"/>
<text text-anchor="middle" x="181" y="-7.5" font-family="Helvetica,sans-Serif" font-size="10.00">view.Vector.negate</text>
</a>
</g>
</g>
<!-- Node1&#45;&gt;Node2 -->
<g id="edge1" class="edge"><title>Node1&#45;&gt;Node2</title>
<path fill="none" stroke="midnightblue" d="M102.162,-10C110.603,-10 119.296,-10 127.674,-10"/>
<polygon fill="midnightblue" stroke="midnightblue" points="102.028,-6.5001 92.0277,-10 102.028,-13.5001 102.028,-6.5001"/>
</g>
<!-- Node3 -->
<g id="node3" class="node"><title>Node3</title>
<g id="a_node3"><a xlink:href="../../d7/d7d/classview_1_1_vector.html#a8eb196d068714eeb5d4cee2e86c44882" target="_top" xlink:title="view.Vector.difference">
<polygon fill="white" stroke="black" points="270.5,-0.5 270.5,-19.5 389.5,-19.5 389.5,-0.5 270.5,-0.5"/>
<text text-anchor="middle" x="330" y="-7.5" font-family="Helvetica,sans-Serif" font-size="10.00">view.Vector.difference</text>
</a>
</g>
</g>
<!-- Node2&#45;&gt;Node3 -->
<g id="edge2" class="edge"><title>Node2&#45;&gt;Node3</title>
<path fill="none" stroke="midnightblue" d="M244.285,-10C252.951,-10 261.829,-10 270.423,-10"/>
<polygon fill="midnightblue" stroke="midnightblue" points="244.241,-6.5001 234.241,-10 244.241,-13.5001 244.241,-6.5001"/>
</g>
</g>
</svg>
