<?xml version="1.0" encoding="UTF-8" standalone="no"?>
<!DOCTYPE svg PUBLIC "-//W3C//DTD SVG 1.1//EN"
 "http://www.w3.org/Graphics/SVG/1.1/DTD/svg11.dtd">
<!-- Generated by graphviz version 2.36.0 (20140111.2315)
 -->
<!-- Title: view.Vector.average Pages: 1 -->
<svg width="294pt" height="104pt"
 viewBox="0.00 0.00 294.00 104.00" xmlns="http://www.w3.org/2000/svg" xmlns:xlink="http://www.w3.org/1999/xlink">
<g id="graph0" class="graph" transform="scale(1 1) rotate(0) translate(4 100)">
<title>view.Vector.average</title>
<polygon fill="white" stroke="none" points="-4,4 -4,-100 290,-100 290,4 -4,4"/>
<!-- Node1 -->
<g id="node1" class="node"><title>Node1</title>
<polygon fill="#bfbfbf" stroke="black" points="0.5,-38.5 0.5,-57.5 111.5,-57.5 111.5,-38.5 0.5,-38.5"/>
<text text-anchor="middle" x="56" y="-45.5" font-family="Helvetica,sans-Serif" font-size="10.00">view.Vector.average</text>
</g>
<!-- Node2 -->
<g id="node2" class="node"><title>Node2</title>
<g id="a_node2"><a xlink:href="../../d7/d7d/classview_1_1_vector.html#a41523e735a5bfaa72067ee65d1c01fe1" target="_top" xlink:title="view.Vector.getDirection">
<polygon fill="white" stroke="black" points="151.5,-76.5 151.5,-95.5 282.5,-95.5 282.5,-76.5 151.5,-76.5"/>
<text text-anchor="middle" x="217" y="-83.5" font-family="Helvetica,sans-Serif" font-size="10.00">view.Vector.getDirection</text>
</a>
</g>
</g>
<!-- Node1&#45;&gt;Node2 -->
<g id="edge1" class="edge"><title>Node1&#45;&gt;Node2</title>
<path fill="none" stroke="midnightblue" d="M97.1224,-57.589C118.104,-62.6035 143.982,-68.7881 166.23,-74.1053"/>
<polygon fill="midnightblue" stroke="midnightblue" points="165.626,-77.5595 176.166,-76.4799 167.254,-70.7513 165.626,-77.5595"/>
</g>
<!-- Node3 -->
<g id="node3" class="node"><title>Node3</title>
<g id="a_node3"><a xlink:href="../../d7/d7d/classview_1_1_vector.html#a5382c66a53d3c0c1d6dc41fdaa84834f" target="_top" xlink:title="view.Vector.getMagnitude">
<polygon fill="white" stroke="black" points="148,-38.5 148,-57.5 286,-57.5 286,-38.5 148,-38.5"/>
<text text-anchor="middle" x="217" y="-45.5" font-family="Helvetica,sans-Serif" font-size="10.00">view.Vector.getMagnitude</text>
</a>
</g>
</g>
<!-- Node1&#45;&gt;Node3 -->
<g id="edge2" class="edge"><title>Node1&#45;&gt;Node3</title>
<path fill="none" stroke="midnightblue" d="M111.719,-48C120.112,-48 128.915,-48 137.699,-48"/>
<polygon fill="midnightblue" stroke="midnightblue" points="137.975,-51.5001 147.975,-48 137.975,-44.5001 137.975,-51.5001"/>
</g>
<!-- Node4 -->
<g id="node4" class="node"><title>Node4</title>
<g id="a_node4"><a xlink:href="../../d7/d7d/classview_1_1_vector.html#afdf42cc2f5841f7991ee34203bd14575" target="_top" xlink:title="view.Vector.Vector">
<polygon fill="white" stroke="black" points="165.5,-0.5 165.5,-19.5 268.5,-19.5 268.5,-0.5 165.5,-0.5"/>
<text text-anchor="middle" x="217" y="-7.5" font-family="Helvetica,sans-Serif" font-size="10.00">view.Vector.Vector</text>
</a>
</g>
</g>
<!-- Node1&#45;&gt;Node4 -->
<g id="edge3" class="edge"><title>Node1&#45;&gt;Node4</title>
<path fill="none" stroke="midnightblue" d="M97.1224,-38.411C118.104,-33.3965 143.982,-27.2119 166.23,-21.8947"/>
<polygon fill="midnightblue" stroke="midnightblue" points="167.254,-25.2487 176.166,-19.5201 165.626,-18.4405 167.254,-25.2487"/>
</g>
</g>
</svg>
