<?xml version="1.0" encoding="UTF-8" standalone="no"?>
<!DOCTYPE svg PUBLIC "-//W3C//DTD SVG 1.1//EN"
 "http://www.w3.org/Graphics/SVG/1.1/DTD/svg11.dtd">
<!-- Generated by graphviz version 2.36.0 (20140111.2315)
 -->
<!-- Title: view.Vector.getMagnitude Pages: 1 -->
<svg width="676pt" height="294pt"
 viewBox="0.00 0.00 676.00 294.00" xmlns="http://www.w3.org/2000/svg" xmlns:xlink="http://www.w3.org/1999/xlink">
<g id="graph0" class="graph" transform="scale(1 1) rotate(0) translate(4 290)">
<title>view.Vector.getMagnitude</title>
<polygon fill="white" stroke="none" points="-4,4 -4,-290 672,-290 672,4 -4,4"/>
<!-- Node1 -->
<g id="node1" class="node"><title>Node1</title>
<polygon fill="#bfbfbf" stroke="black" points="0,-133.5 0,-152.5 138,-152.5 138,-133.5 0,-133.5"/>
<text text-anchor="middle" x="69" y="-140.5" font-family="Helvetica,sans-Serif" font-size="10.00">view.Vector.getMagnitude</text>
</g>
<!-- Node2 -->
<g id="node2" class="node"><title>Node2</title>
<g id="a_node2"><a xlink:href="../../d7/d7d/classview_1_1_vector.html#a7212dc650fb893f2055246143a86b465" target="_top" xlink:title="view.Vector.average">
<polygon fill="white" stroke="black" points="206.5,-266.5 206.5,-285.5 317.5,-285.5 317.5,-266.5 206.5,-266.5"/>
<text text-anchor="middle" x="262" y="-273.5" font-family="Helvetica,sans-Serif" font-size="10.00">view.Vector.average</text>
</a>
</g>
</g>
<!-- Node1&#45;&gt;Node2 -->
<g id="edge1" class="edge"><title>Node1&#45;&gt;Node2</title>
<path fill="none" stroke="midnightblue" d="M81.2875,-161.227C98.1582,-186.845 132.455,-233.04 174,-257 183.777,-262.638 195.052,-266.606 206.176,-269.397"/>
<polygon fill="midnightblue" stroke="midnightblue" points="84.2258,-159.326 75.8792,-152.8 78.3345,-163.106 84.2258,-159.326"/>
</g>
<!-- Node3 -->
<g id="node3" class="node"><title>Node3</title>
<g id="a_node3"><a xlink:href="../../d7/d7d/classview_1_1_vector.html#a6288c95a90573ba7f9120ec0e6e561ff" target="_top" xlink:title="view.Vector.equals">
<polygon fill="white" stroke="black" points="210,-228.5 210,-247.5 314,-247.5 314,-228.5 210,-228.5"/>
<text text-anchor="middle" x="262" y="-235.5" font-family="Helvetica,sans-Serif" font-size="10.00">view.Vector.equals</text>
</a>
</g>
</g>
<!-- Node1&#45;&gt;Node3 -->
<g id="edge2" class="edge"><title>Node1&#45;&gt;Node3</title>
<path fill="none" stroke="midnightblue" d="M87.505,-159.399C107.079,-176.823 140.456,-203.897 174,-219 185.137,-224.014 197.685,-227.743 209.713,-230.502"/>
<polygon fill="midnightblue" stroke="midnightblue" points="89.7571,-156.716 80.0009,-152.585 85.0514,-161.898 89.7571,-156.716"/>
</g>
<!-- Node4 -->
<g id="node4" class="node"><title>Node4</title>
<g id="a_node4"><a xlink:href="../../d7/d7d/classview_1_1_vector.html#a72c9590488e9e44242efcbbfa051d19f" target="_top" xlink:title="view.Vector.getRelativeMagnitude">
<polygon fill="white" stroke="black" points="174.5,-190.5 174.5,-209.5 349.5,-209.5 349.5,-190.5 174.5,-190.5"/>
<text text-anchor="middle" x="262" y="-197.5" font-family="Helvetica,sans-Serif" font-size="10.00">view.Vector.getRelativeMagnitude</text>
</a>
</g>
</g>
<!-- Node1&#45;&gt;Node4 -->
<g id="edge3" class="edge"><title>Node1&#45;&gt;Node4</title>
<path fill="none" stroke="midnightblue" d="M102.651,-156.221C122.954,-164.118 149.728,-173.95 174,-181 186.174,-184.536 199.476,-187.756 211.933,-190.5"/>
<polygon fill="midnightblue" stroke="midnightblue" points="103.83,-152.924 93.2428,-152.521 101.268,-159.438 103.83,-152.924"/>
</g>
<!-- Node5 -->
<g id="node5" class="node"><title>Node5</title>
<g id="a_node5"><a xlink:href="../../d7/d7d/classview_1_1_vector.html#ae6a99f4d2d1f1a79f362b5e1cd2c77d2" target="_top" xlink:title="view.Vector.getXChange">
<polygon fill="white" stroke="black" points="197,-152.5 197,-171.5 327,-171.5 327,-152.5 197,-152.5"/>
<text text-anchor="middle" x="262" y="-159.5" font-family="Helvetica,sans-Serif" font-size="10.00">view.Vector.getXChange</text>
</a>
</g>
</g>
<!-- Node1&#45;&gt;Node5 -->
<g id="edge4" class="edge"><title>Node1&#45;&gt;Node5</title>
<path fill="none" stroke="midnightblue" d="M148.103,-150.769C164.264,-152.377 181.113,-154.053 196.714,-155.605"/>
<polygon fill="midnightblue" stroke="midnightblue" points="148.444,-147.286 138.146,-149.779 147.751,-154.252 148.444,-147.286"/>
</g>
<!-- Node9 -->
<g id="node9" class="node"><title>Node9</title>
<g id="a_node9"><a xlink:href="../../d7/d7d/classview_1_1_vector.html#a2fd7acd224e15efaaa94491f7f1a9fa4" target="_top" xlink:title="view.Vector.getYChange">
<polygon fill="white" stroke="black" points="197.5,-114.5 197.5,-133.5 326.5,-133.5 326.5,-114.5 197.5,-114.5"/>
<text text-anchor="middle" x="262" y="-121.5" font-family="Helvetica,sans-Serif" font-size="10.00">view.Vector.getYChange</text>
</a>
</g>
</g>
<!-- Node1&#45;&gt;Node9 -->
<g id="edge8" class="edge"><title>Node1&#45;&gt;Node9</title>
<path fill="none" stroke="midnightblue" d="M148.216,-135.219C164.562,-133.593 181.607,-131.898 197.348,-130.332"/>
<polygon fill="midnightblue" stroke="midnightblue" points="147.751,-131.748 138.146,-136.221 148.444,-138.714 147.751,-131.748"/>
</g>
<!-- Node10 -->
<g id="node10" class="node"><title>Node10</title>
<g id="a_node10"><a xlink:href="../../d7/d7d/classview_1_1_vector.html#addad1b8a5189f17b070dd5f61f0364df" target="_top" xlink:title="view.Vector.scale">
<polygon fill="white" stroke="black" points="213.5,-76.5 213.5,-95.5 310.5,-95.5 310.5,-76.5 213.5,-76.5"/>
<text text-anchor="middle" x="262" y="-83.5" font-family="Helvetica,sans-Serif" font-size="10.00">view.Vector.scale</text>
</a>
</g>
</g>
<!-- Node1&#45;&gt;Node10 -->
<g id="edge11" class="edge"><title>Node1&#45;&gt;Node10</title>
<path fill="none" stroke="midnightblue" d="M102.651,-129.779C122.954,-121.882 149.728,-112.05 174,-105 186.62,-101.335 200.45,-98.0088 213.297,-95.2009"/>
<polygon fill="midnightblue" stroke="midnightblue" points="101.268,-126.562 93.2428,-133.479 103.83,-133.076 101.268,-126.562"/>
</g>
<!-- Node11 -->
<g id="node11" class="node"><title>Node11</title>
<g id="a_node11"><a xlink:href="../../d7/d7d/classview_1_1_vector.html#ac85e95f0785953b33585e645521f8c55" target="_top" xlink:title="view.Vector.toString">
<polygon fill="white" stroke="black" points="207,-38.5 207,-57.5 317,-57.5 317,-38.5 207,-38.5"/>
<text text-anchor="middle" x="262" y="-45.5" font-family="Helvetica,sans-Serif" font-size="10.00">view.Vector.toString</text>
</a>
</g>
</g>
<!-- Node1&#45;&gt;Node11 -->
<g id="edge12" class="edge"><title>Node1&#45;&gt;Node11</title>
<path fill="none" stroke="midnightblue" d="M87.505,-126.601C107.079,-109.177 140.456,-82.1025 174,-67 184.291,-62.3667 195.787,-58.8308 206.965,-56.1433"/>
<polygon fill="midnightblue" stroke="midnightblue" points="85.0514,-124.102 80.0009,-133.415 89.7571,-129.284 85.0514,-124.102"/>
</g>
<!-- Node12 -->
<g id="node12" class="node"><title>Node12</title>
<g id="a_node12"><a xlink:href="../../d7/d7d/classview_1_1_vector.html#a00efed141d66c7fa729d9b30eb70600b" target="_top" xlink:title="view.Vector.Vector">
<polygon fill="white" stroke="black" points="210.5,-0.5 210.5,-19.5 313.5,-19.5 313.5,-0.5 210.5,-0.5"/>
<text text-anchor="middle" x="262" y="-7.5" font-family="Helvetica,sans-Serif" font-size="10.00">view.Vector.Vector</text>
</a>
</g>
</g>
<!-- Node1&#45;&gt;Node12 -->
<g id="edge13" class="edge"><title>Node1&#45;&gt;Node12</title>
<path fill="none" stroke="midnightblue" d="M81.2875,-124.773C98.1582,-99.1554 132.455,-52.9597 174,-29 184.982,-22.6665 197.855,-18.441 210.28,-15.6229"/>
<polygon fill="midnightblue" stroke="midnightblue" points="78.3345,-122.894 75.8792,-133.2 84.2258,-126.674 78.3345,-122.894"/>
</g>
<!-- Node6 -->
<g id="node6" class="node"><title>Node6</title>
<g id="a_node6"><a xlink:href="../../d5/db8/classview_1_1_location.html#a263189008987a7fefeb358d5749e3939" target="_top" xlink:title="view.Location.translate">
<polygon fill="white" stroke="black" points="386.5,-152.5 386.5,-171.5 511.5,-171.5 511.5,-152.5 386.5,-152.5"/>
<text text-anchor="middle" x="449" y="-159.5" font-family="Helvetica,sans-Serif" font-size="10.00">view.Location.translate</text>
</a>
</g>
</g>
<!-- Node5&#45;&gt;Node6 -->
<g id="edge5" class="edge"><title>Node5&#45;&gt;Node6</title>
<path fill="none" stroke="midnightblue" d="M337.227,-162C353.549,-162 370.662,-162 386.422,-162"/>
<polygon fill="midnightblue" stroke="midnightblue" points="337.185,-158.5 327.185,-162 337.185,-165.5 337.185,-158.5"/>
</g>
<!-- Node7 -->
<g id="node7" class="node"><title>Node7</title>
<g id="a_node7"><a xlink:href="../../d7/d7d/classview_1_1_vector.html#a6bb31da650b3b50ef13c2bd0c5164db8" target="_top" xlink:title="view.Vector.sum">
<polygon fill="white" stroke="black" points="402.5,-114.5 402.5,-133.5 495.5,-133.5 495.5,-114.5 402.5,-114.5"/>
<text text-anchor="middle" x="449" y="-121.5" font-family="Helvetica,sans-Serif" font-size="10.00">view.Vector.sum</text>
</a>
</g>
</g>
<!-- Node5&#45;&gt;Node7 -->
<g id="edge6" class="edge"><title>Node5&#45;&gt;Node7</title>
<path fill="none" stroke="midnightblue" d="M319.597,-150.375C346.117,-144.927 377.298,-138.523 402.292,-133.389"/>
<polygon fill="midnightblue" stroke="midnightblue" points="318.775,-146.97 309.683,-152.411 320.183,-153.827 318.775,-146.97"/>
</g>
<!-- Node8 -->
<g id="node8" class="node"><title>Node8</title>
<g id="a_node8"><a xlink:href="../../d7/d7d/classview_1_1_vector.html#a8eb196d068714eeb5d4cee2e86c44882" target="_top" xlink:title="view.Vector.difference">
<polygon fill="white" stroke="black" points="548.5,-114.5 548.5,-133.5 667.5,-133.5 667.5,-114.5 548.5,-114.5"/>
<text text-anchor="middle" x="608" y="-121.5" font-family="Helvetica,sans-Serif" font-size="10.00">view.Vector.difference</text>
</a>
</g>
</g>
<!-- Node7&#45;&gt;Node8 -->
<g id="edge7" class="edge"><title>Node7&#45;&gt;Node8</title>
<path fill="none" stroke="midnightblue" d="M506.071,-124C519.752,-124 534.426,-124 548.229,-124"/>
<polygon fill="midnightblue" stroke="midnightblue" points="505.833,-120.5 495.833,-124 505.833,-127.5 505.833,-120.5"/>
</g>
<!-- Node9&#45;&gt;Node6 -->
<g id="edge9" class="edge"><title>Node9&#45;&gt;Node6</title>
<path fill="none" stroke="midnightblue" d="M319.52,-135.61C345.831,-141.014 376.743,-147.364 401.652,-152.48"/>
<polygon fill="midnightblue" stroke="midnightblue" points="320.183,-132.173 309.683,-133.589 318.775,-139.03 320.183,-132.173"/>
</g>
<!-- Node9&#45;&gt;Node7 -->
<g id="edge10" class="edge"><title>Node9&#45;&gt;Node7</title>
<path fill="none" stroke="midnightblue" d="M336.722,-124C358.88,-124 382.538,-124 402.318,-124"/>
<polygon fill="midnightblue" stroke="midnightblue" points="336.667,-120.5 326.667,-124 336.666,-127.5 336.667,-120.5"/>
</g>
</g>
</svg>
