<?xml version="1.0" encoding="UTF-8" standalone="no"?>
<!DOCTYPE svg PUBLIC "-//W3C//DTD SVG 1.1//EN"
 "http://www.w3.org/Graphics/SVG/1.1/DTD/svg11.dtd">
<!-- Generated by graphviz version 2.36.0 (20140111.2315)
 -->
<!-- Title: view.Vector.turn Pages: 1 -->
<svg width="268pt" height="66pt"
 viewBox="0.00 0.00 268.00 66.00" xmlns="http://www.w3.org/2000/svg" xmlns:xlink="http://www.w3.org/1999/xlink">
<g id="graph0" class="graph" transform="scale(1 1) rotate(0) translate(4 62)">
<title>view.Vector.turn</title>
<polygon fill="white" stroke="none" points="-4,4 -4,-62 264,-62 264,4 -4,4"/>
<!-- Node1 -->
<g id="node1" class="node"><title>Node1</title>
<polygon fill="#bfbfbf" stroke="black" points="0,-19.5 0,-38.5 92,-38.5 92,-19.5 0,-19.5"/>
<text text-anchor="middle" x="46" y="-26.5" font-family="Helvetica,sans-Serif" font-size="10.00">view.Vector.turn</text>
</g>
<!-- Node2 -->
<g id="node2" class="node"><title>Node2</title>
<g id="a_node2"><a xlink:href="../../d7/d7d/classview_1_1_vector.html#a41523e735a5bfaa72067ee65d1c01fe1" target="_top" xlink:title="view.Vector.getDirection">
<polygon fill="white" stroke="black" points="128.5,-38.5 128.5,-57.5 259.5,-57.5 259.5,-38.5 128.5,-38.5"/>
<text text-anchor="middle" x="194" y="-45.5" font-family="Helvetica,sans-Serif" font-size="10.00">view.Vector.getDirection</text>
</a>
</g>
</g>
<!-- Node1&#45;&gt;Node2 -->
<g id="edge1" class="edge"><title>Node1&#45;&gt;Node2</title>
<path fill="none" stroke="midnightblue" d="M92.395,-34.9076C100.666,-35.984 109.492,-37.1326 118.351,-38.2854"/>
<polygon fill="midnightblue" stroke="midnightblue" points="117.97,-41.7652 128.338,-39.5851 118.873,-34.8238 117.97,-41.7652"/>
</g>
<!-- Node3 -->
<g id="node3" class="node"><title>Node3</title>
<g id="a_node3"><a xlink:href="../../d7/d7d/classview_1_1_vector.html#a485a40fbe58f654a1aeae82cf6b297a0" target="_top" xlink:title="view.Vector.setDirection">
<polygon fill="white" stroke="black" points="129,-0.5 129,-19.5 259,-19.5 259,-0.5 129,-0.5"/>
<text text-anchor="middle" x="194" y="-7.5" font-family="Helvetica,sans-Serif" font-size="10.00">view.Vector.setDirection</text>
</a>
</g>
</g>
<!-- Node1&#45;&gt;Node3 -->
<g id="edge2" class="edge"><title>Node1&#45;&gt;Node3</title>
<path fill="none" stroke="midnightblue" d="M92.395,-23.0924C100.788,-22.0002 109.752,-20.8336 118.742,-19.6638"/>
<polygon fill="midnightblue" stroke="midnightblue" points="119.408,-23.1066 128.873,-18.3453 118.505,-16.1652 119.408,-23.1066"/>
</g>
</g>
</svg>
