<?xml version="1.0" encoding="UTF-8" standalone="no"?>
<!DOCTYPE svg PUBLIC "-//W3C//DTD SVG 1.1//EN"
 "http://www.w3.org/Graphics/SVG/1.1/DTD/svg11.dtd">
<!-- Generated by graphviz version 2.36.0 (20140111.2315)
 -->
<!-- Title: view.Vector.getXChange Pages: 1 -->
<svg width="456pt" height="66pt"
 viewBox="0.00 0.00 456.00 66.00" xmlns="http://www.w3.org/2000/svg" xmlns:xlink="http://www.w3.org/1999/xlink">
<g id="graph0" class="graph" transform="scale(1 1) rotate(0) translate(4 62)">
<title>view.Vector.getXChange</title>
<polygon fill="white" stroke="none" points="-4,4 -4,-62 452,-62 452,4 -4,4"/>
<!-- Node1 -->
<g id="node1" class="node"><title>Node1</title>
<polygon fill="#bfbfbf" stroke="black" points="0,-19.5 0,-38.5 130,-38.5 130,-19.5 0,-19.5"/>
<text text-anchor="middle" x="65" y="-26.5" font-family="Helvetica,sans-Serif" font-size="10.00">view.Vector.getXChange</text>
</g>
<!-- Node2 -->
<g id="node2" class="node"><title>Node2</title>
<g id="a_node2"><a xlink:href="../../d7/d7d/classview_1_1_vector.html#a6bb31da650b3b50ef13c2bd0c5164db8" target="_top" xlink:title="view.Vector.sum">
<polygon fill="white" stroke="black" points="182.5,-38.5 182.5,-57.5 275.5,-57.5 275.5,-38.5 182.5,-38.5"/>
<text text-anchor="middle" x="229" y="-45.5" font-family="Helvetica,sans-Serif" font-size="10.00">view.Vector.sum</text>
</a>
</g>
</g>
<!-- Node1&#45;&gt;Node2 -->
<g id="edge1" class="edge"><title>Node1&#45;&gt;Node2</title>
<path fill="none" stroke="midnightblue" d="M139.971,-37.6756C154.437,-39.3722 169.205,-41.1042 182.409,-42.6529"/>
<polygon fill="midnightblue" stroke="midnightblue" points="140.366,-34.1981 130.027,-36.5093 139.551,-41.1504 140.366,-34.1981"/>
</g>
<!-- Node4 -->
<g id="node4" class="node"><title>Node4</title>
<g id="a_node4"><a xlink:href="../../d5/db8/classview_1_1_location.html#a263189008987a7fefeb358d5749e3939" target="_top" xlink:title="view.Location.translate">
<polygon fill="white" stroke="black" points="166.5,-0.5 166.5,-19.5 291.5,-19.5 291.5,-0.5 166.5,-0.5"/>
<text text-anchor="middle" x="229" y="-7.5" font-family="Helvetica,sans-Serif" font-size="10.00">view.Location.translate</text>
</a>
</g>
</g>
<!-- Node1&#45;&gt;Node4 -->
<g id="edge3" class="edge"><title>Node1&#45;&gt;Node4</title>
<path fill="none" stroke="midnightblue" d="M140.198,-20.2977C148.926,-19.2742 157.759,-18.2382 166.289,-17.2377"/>
<polygon fill="midnightblue" stroke="midnightblue" points="139.551,-16.8496 130.027,-21.4907 140.366,-23.8019 139.551,-16.8496"/>
</g>
<!-- Node3 -->
<g id="node3" class="node"><title>Node3</title>
<g id="a_node3"><a xlink:href="../../d7/d7d/classview_1_1_vector.html#a8eb196d068714eeb5d4cee2e86c44882" target="_top" xlink:title="view.Vector.difference">
<polygon fill="white" stroke="black" points="328.5,-38.5 328.5,-57.5 447.5,-57.5 447.5,-38.5 328.5,-38.5"/>
<text text-anchor="middle" x="388" y="-45.5" font-family="Helvetica,sans-Serif" font-size="10.00">view.Vector.difference</text>
</a>
</g>
</g>
<!-- Node2&#45;&gt;Node3 -->
<g id="edge2" class="edge"><title>Node2&#45;&gt;Node3</title>
<path fill="none" stroke="midnightblue" d="M286.071,-48C299.752,-48 314.426,-48 328.229,-48"/>
<polygon fill="midnightblue" stroke="midnightblue" points="285.833,-44.5001 275.833,-48 285.833,-51.5001 285.833,-44.5001"/>
</g>
</g>
</svg>
