<?xml version="1.0" encoding="UTF-8" standalone="no"?>
<!DOCTYPE svg PUBLIC "-//W3C//DTD SVG 1.1//EN"
 "http://www.w3.org/Graphics/SVG/1.1/DTD/svg11.dtd">
<!-- Generated by graphviz version 2.36.0 (20140111.2315)
 -->
<!-- Title: view.Vector.scale Pages: 1 -->
<svg width="280pt" height="66pt"
 viewBox="0.00 0.00 280.00 66.00" xmlns="http://www.w3.org/2000/svg" xmlns:xlink="http://www.w3.org/1999/xlink">
<g id="graph0" class="graph" transform="scale(1 1) rotate(0) translate(4 62)">
<title>view.Vector.scale</title>
<polygon fill="white" stroke="none" points="-4,4 -4,-62 276,-62 276,4 -4,4"/>
<!-- Node1 -->
<g id="node1" class="node"><title>Node1</title>
<polygon fill="#bfbfbf" stroke="black" points="0.5,-19.5 0.5,-38.5 97.5,-38.5 97.5,-19.5 0.5,-19.5"/>
<text text-anchor="middle" x="49" y="-26.5" font-family="Helvetica,sans-Serif" font-size="10.00">view.Vector.scale</text>
</g>
<!-- Node2 -->
<g id="node2" class="node"><title>Node2</title>
<g id="a_node2"><a xlink:href="../../d7/d7d/classview_1_1_vector.html#a5382c66a53d3c0c1d6dc41fdaa84834f" target="_top" xlink:title="view.Vector.getMagnitude">
<polygon fill="white" stroke="black" points="134,-38.5 134,-57.5 272,-57.5 272,-38.5 134,-38.5"/>
<text text-anchor="middle" x="203" y="-45.5" font-family="Helvetica,sans-Serif" font-size="10.00">view.Vector.getMagnitude</text>
</a>
</g>
</g>
<!-- Node1&#45;&gt;Node2 -->
<g id="edge1" class="edge"><title>Node1&#45;&gt;Node2</title>
<path fill="none" stroke="midnightblue" d="M97.6767,-34.9596C106.027,-36.0033 114.909,-37.1136 123.831,-38.2289"/>
<polygon fill="midnightblue" stroke="midnightblue" points="123.538,-41.7194 133.895,-39.4869 124.406,-34.7735 123.538,-41.7194"/>
</g>
<!-- Node3 -->
<g id="node3" class="node"><title>Node3</title>
<g id="a_node3"><a xlink:href="../../d7/d7d/classview_1_1_vector.html#ace16f664e139892ab0c09087273877eb" target="_top" xlink:title="view.Vector.setMagnitude">
<polygon fill="white" stroke="black" points="134.5,-0.5 134.5,-19.5 271.5,-19.5 271.5,-0.5 134.5,-0.5"/>
<text text-anchor="middle" x="203" y="-7.5" font-family="Helvetica,sans-Serif" font-size="10.00">view.Vector.setMagnitude</text>
</a>
</g>
</g>
<!-- Node1&#45;&gt;Node3 -->
<g id="edge2" class="edge"><title>Node1&#45;&gt;Node3</title>
<path fill="none" stroke="midnightblue" d="M97.6767,-23.0404C106.153,-21.9809 115.178,-20.8527 124.237,-19.7204"/>
<polygon fill="midnightblue" stroke="midnightblue" points="124.962,-23.1571 134.451,-18.4437 124.094,-16.2111 124.962,-23.1571"/>
</g>
</g>
</svg>
