<?xml version="1.0" encoding="UTF-8" standalone="no"?>
<!DOCTYPE svg PUBLIC "-//W3C//DTD SVG 1.1//EN"
 "http://www.w3.org/Graphics/SVG/1.1/DTD/svg11.dtd">
<!-- Generated by graphviz version 2.36.0 (20140111.2315)
 -->
<!-- Title: view.Vector.getRelativeMagnitude Pages: 1 -->
<svg width="544pt" height="66pt"
 viewBox="0.00 0.00 544.00 66.00" xmlns="http://www.w3.org/2000/svg" xmlns:xlink="http://www.w3.org/1999/xlink">
<g id="graph0" class="graph" transform="scale(1 1) rotate(0) translate(4 62)">
<title>view.Vector.getRelativeMagnitude</title>
<polygon fill="white" stroke="none" points="-4,4 -4,-62 540,-62 540,4 -4,4"/>
<!-- Node1 -->
<g id="node1" class="node"><title>Node1</title>
<polygon fill="#bfbfbf" stroke="black" points="0.5,-19.5 0.5,-38.5 175.5,-38.5 175.5,-19.5 0.5,-19.5"/>
<text text-anchor="middle" x="88" y="-26.5" font-family="Helvetica,sans-Serif" font-size="10.00">view.Vector.getRelativeMagnitude</text>
</g>
<!-- Node2 -->
<g id="node2" class="node"><title>Node2</title>
<g id="a_node2"><a xlink:href="../../d7/d7d/classview_1_1_vector.html#acde29778b8573b72ea13da832db278a0" target="_top" xlink:title="view.Vector.getAngleBetween">
<polygon fill="white" stroke="black" points="212,-38.5 212,-57.5 368,-57.5 368,-38.5 212,-38.5"/>
<text text-anchor="middle" x="290" y="-45.5" font-family="Helvetica,sans-Serif" font-size="10.00">view.Vector.getAngleBetween</text>
</a>
</g>
</g>
<!-- Node1&#45;&gt;Node2 -->
<g id="edge1" class="edge"><title>Node1&#45;&gt;Node2</title>
<path fill="none" stroke="midnightblue" d="M175.56,-37.2232C184.21,-38.0449 192.997,-38.8797 201.655,-39.7022"/>
<polygon fill="midnightblue" stroke="midnightblue" points="201.458,-43.1992 211.744,-40.6607 202.12,-36.2305 201.458,-43.1992"/>
</g>
<!-- Node4 -->
<g id="node4" class="node"><title>Node4</title>
<g id="a_node4"><a xlink:href="../../d7/d7d/classview_1_1_vector.html#a5382c66a53d3c0c1d6dc41fdaa84834f" target="_top" xlink:title="view.Vector.getMagnitude">
<polygon fill="white" stroke="black" points="221,-0.5 221,-19.5 359,-19.5 359,-0.5 221,-0.5"/>
<text text-anchor="middle" x="290" y="-7.5" font-family="Helvetica,sans-Serif" font-size="10.00">view.Vector.getMagnitude</text>
</a>
</g>
</g>
<!-- Node1&#45;&gt;Node4 -->
<g id="edge3" class="edge"><title>Node1&#45;&gt;Node4</title>
<path fill="none" stroke="midnightblue" d="M175.56,-20.7768C187.318,-19.6598 199.328,-18.5188 210.925,-17.4171"/>
<polygon fill="midnightblue" stroke="midnightblue" points="211.368,-20.8908 220.993,-16.4607 210.706,-13.9222 211.368,-20.8908"/>
</g>
<!-- Node3 -->
<g id="node3" class="node"><title>Node3</title>
<g id="a_node3"><a xlink:href="../../d7/d7d/classview_1_1_vector.html#a41523e735a5bfaa72067ee65d1c01fe1" target="_top" xlink:title="view.Vector.getDirection">
<polygon fill="white" stroke="black" points="404.5,-38.5 404.5,-57.5 535.5,-57.5 535.5,-38.5 404.5,-38.5"/>
<text text-anchor="middle" x="470" y="-45.5" font-family="Helvetica,sans-Serif" font-size="10.00">view.Vector.getDirection</text>
</a>
</g>
</g>
<!-- Node2&#45;&gt;Node3 -->
<g id="edge2" class="edge"><title>Node2&#45;&gt;Node3</title>
<path fill="none" stroke="midnightblue" d="M368.038,-48C376.75,-48 385.617,-48 394.298,-48"/>
<polygon fill="midnightblue" stroke="midnightblue" points="394.383,-51.5001 404.383,-48 394.383,-44.5001 394.383,-51.5001"/>
</g>
</g>
</svg>
