<?xml version="1.0" encoding="UTF-8" standalone="no"?>
<!DOCTYPE svg PUBLIC "-//W3C//DTD SVG 1.1//EN"
 "http://www.w3.org/Graphics/SVG/1.1/DTD/svg11.dtd">
<!-- Generated by graphviz version 2.36.0 (20140111.2315)
 -->
<!-- Title: view.Vector.angleBetween Pages: 1 -->
<svg width="444pt" height="66pt"
 viewBox="0.00 0.00 444.00 66.00" xmlns="http://www.w3.org/2000/svg" xmlns:xlink="http://www.w3.org/1999/xlink">
<g id="graph0" class="graph" transform="scale(1 1) rotate(0) translate(4 62)">
<title>view.Vector.angleBetween</title>
<polygon fill="white" stroke="none" points="-4,4 -4,-62 440,-62 440,4 -4,4"/>
<!-- Node1 -->
<g id="node1" class="node"><title>Node1</title>
<polygon fill="#bfbfbf" stroke="black" points="0,-19.5 0,-38.5 140,-38.5 140,-19.5 0,-19.5"/>
<text text-anchor="middle" x="70" y="-26.5" font-family="Helvetica,sans-Serif" font-size="10.00">view.Vector.angleBetween</text>
</g>
<!-- Node2 -->
<g id="node2" class="node"><title>Node2</title>
<g id="a_node2"><a xlink:href="../../d7/d7d/classview_1_1_vector.html#a6bb31da650b3b50ef13c2bd0c5164db8" target="_top" xlink:title="view.Vector.sum">
<polygon fill="white" stroke="black" points="181.5,-38.5 181.5,-57.5 274.5,-57.5 274.5,-38.5 181.5,-38.5"/>
<text text-anchor="middle" x="228" y="-45.5" font-family="Helvetica,sans-Serif" font-size="10.00">view.Vector.sum</text>
</a>
</g>
</g>
<!-- Node1&#45;&gt;Node2 -->
<g id="edge1" class="edge"><title>Node1&#45;&gt;Node2</title>
<path fill="none" stroke="midnightblue" d="M150.423,-38.6733C160.963,-39.957 171.468,-41.2365 181.168,-42.418"/>
<polygon fill="midnightblue" stroke="midnightblue" points="150.682,-35.1791 140.332,-37.4443 149.836,-42.1278 150.682,-35.1791"/>
</g>
<!-- Node4 -->
<g id="node4" class="node"><title>Node4</title>
<g id="a_node4"><a xlink:href="../../d7/d7d/classview_1_1_vector.html#afd316c58f2721c9c4bac3dcb171e4249" target="_top" xlink:title="view.Vector.Vector">
<polygon fill="white" stroke="black" points="176.5,-0.5 176.5,-19.5 279.5,-19.5 279.5,-0.5 176.5,-0.5"/>
<text text-anchor="middle" x="228" y="-7.5" font-family="Helvetica,sans-Serif" font-size="10.00">view.Vector.Vector</text>
</a>
</g>
</g>
<!-- Node1&#45;&gt;Node4 -->
<g id="edge3" class="edge"><title>Node1&#45;&gt;Node4</title>
<path fill="none" stroke="midnightblue" d="M150.534,-19.3131C159.237,-18.2532 167.914,-17.1964 176.132,-16.1954"/>
<polygon fill="midnightblue" stroke="midnightblue" points="149.836,-15.8722 140.332,-20.5557 150.682,-22.8209 149.836,-15.8722"/>
</g>
<!-- Node3 -->
<g id="node3" class="node"><title>Node3</title>
<g id="a_node3"><a xlink:href="../../d7/d7d/classview_1_1_vector.html#a8eb196d068714eeb5d4cee2e86c44882" target="_top" xlink:title="view.Vector.difference">
<polygon fill="white" stroke="black" points="316.5,-38.5 316.5,-57.5 435.5,-57.5 435.5,-38.5 316.5,-38.5"/>
<text text-anchor="middle" x="376" y="-45.5" font-family="Helvetica,sans-Serif" font-size="10.00">view.Vector.difference</text>
</a>
</g>
</g>
<!-- Node2&#45;&gt;Node3 -->
<g id="edge2" class="edge"><title>Node2&#45;&gt;Node3</title>
<path fill="none" stroke="midnightblue" d="M284.932,-48C295.263,-48 306.077,-48 316.482,-48"/>
<polygon fill="midnightblue" stroke="midnightblue" points="284.795,-44.5001 274.795,-48 284.795,-51.5001 284.795,-44.5001"/>
</g>
</g>
</svg>
