<?xml version="1.0" encoding="UTF-8" standalone="no"?>
<!DOCTYPE svg PUBLIC "-//W3C//DTD SVG 1.1//EN"
 "http://www.w3.org/Graphics/SVG/1.1/DTD/svg11.dtd">
<!-- Generated by graphviz version 2.36.0 (20140111.2315)
 -->
<!-- Title: view.Vector.negate Pages: 1 -->
<svg width="410pt" height="66pt"
 viewBox="0.00 0.00 410.00 66.00" xmlns="http://www.w3.org/2000/svg" xmlns:xlink="http://www.w3.org/1999/xlink">
<g id="graph0" class="graph" transform="scale(1 1) rotate(0) translate(4 62)">
<title>view.Vector.negate</title>
<polygon fill="white" stroke="none" points="-4,4 -4,-62 406,-62 406,4 -4,4"/>
<!-- Node1 -->
<g id="node1" class="node"><title>Node1</title>
<polygon fill="#bfbfbf" stroke="black" points="0,-19.5 0,-38.5 106,-38.5 106,-19.5 0,-19.5"/>
<text text-anchor="middle" x="53" y="-26.5" font-family="Helvetica,sans-Serif" font-size="10.00">view.Vector.negate</text>
</g>
<!-- Node2 -->
<g id="node2" class="node"><title>Node2</title>
<g id="a_node2"><a xlink:href="../../d7/d7d/classview_1_1_vector.html#ad2c9c045430c737cb25ccd1ed2f2d479" target="_top" xlink:title="view.Vector.turn">
<polygon fill="white" stroke="black" points="142,-19.5 142,-38.5 234,-38.5 234,-19.5 142,-19.5"/>
<text text-anchor="middle" x="188" y="-26.5" font-family="Helvetica,sans-Serif" font-size="10.00">view.Vector.turn</text>
</a>
</g>
</g>
<!-- Node1&#45;&gt;Node2 -->
<g id="edge1" class="edge"><title>Node1&#45;&gt;Node2</title>
<path fill="none" stroke="midnightblue" d="M106.183,-29C114.565,-29 123.265,-29 131.716,-29"/>
<polygon fill="midnightblue" stroke="midnightblue" points="131.864,-32.5001 141.864,-29 131.864,-25.5001 131.864,-32.5001"/>
</g>
<!-- Node3 -->
<g id="node3" class="node"><title>Node3</title>
<g id="a_node3"><a xlink:href="../../d7/d7d/classview_1_1_vector.html#a485a40fbe58f654a1aeae82cf6b297a0" target="_top" xlink:title="view.Vector.setDirection">
<polygon fill="white" stroke="black" points="271,-38.5 271,-57.5 401,-57.5 401,-38.5 271,-38.5"/>
<text text-anchor="middle" x="336" y="-45.5" font-family="Helvetica,sans-Serif" font-size="10.00">view.Vector.setDirection</text>
</a>
</g>
</g>
<!-- Node2&#45;&gt;Node3 -->
<g id="edge2" class="edge"><title>Node2&#45;&gt;Node3</title>
<path fill="none" stroke="midnightblue" d="M234.395,-34.9076C242.788,-35.9998 251.752,-37.1664 260.742,-38.3362"/>
<polygon fill="midnightblue" stroke="midnightblue" points="260.505,-41.8348 270.873,-39.6547 261.408,-34.8934 260.505,-41.8348"/>
</g>
<!-- Node4 -->
<g id="node4" class="node"><title>Node4</title>
<g id="a_node4"><a xlink:href="../../d7/d7d/classview_1_1_vector.html#a41523e735a5bfaa72067ee65d1c01fe1" target="_top" xlink:title="view.Vector.getDirection">
<polygon fill="white" stroke="black" points="270.5,-0.5 270.5,-19.5 401.5,-19.5 401.5,-0.5 270.5,-0.5"/>
<text text-anchor="middle" x="336" y="-7.5" font-family="Helvetica,sans-Serif" font-size="10.00">view.Vector.getDirection</text>
</a>
</g>
</g>
<!-- Node2&#45;&gt;Node4 -->
<g id="edge3" class="edge"><title>Node2&#45;&gt;Node4</title>
<path fill="none" stroke="midnightblue" d="M234.395,-23.0924C242.666,-22.016 251.492,-20.8674 260.351,-19.7146"/>
<polygon fill="midnightblue" stroke="midnightblue" points="260.873,-23.1762 270.338,-18.4149 259.97,-16.2348 260.873,-23.1762"/>
</g>
</g>
</svg>
