<?xml version="1.0" encoding="UTF-8" standalone="no"?>
<!DOCTYPE svg PUBLIC "-//W3C//DTD SVG 1.1//EN"
 "http://www.w3.org/Graphics/SVG/1.1/DTD/svg11.dtd">
<!-- Generated by graphviz version 2.36.0 (20140111.2315)
 -->
<!-- Title: view.Vector.setDirection Pages: 1 -->
<svg width="576pt" height="142pt"
 viewBox="0.00 0.00 576.00 142.00" xmlns="http://www.w3.org/2000/svg" xmlns:xlink="http://www.w3.org/1999/xlink">
<g id="graph0" class="graph" transform="scale(1 1) rotate(0) translate(4 138)">
<title>view.Vector.setDirection</title>
<polygon fill="white" stroke="none" points="-4,4 -4,-138 572,-138 572,4 -4,4"/>
<!-- Node1 -->
<g id="node1" class="node"><title>Node1</title>
<polygon fill="#bfbfbf" stroke="black" points="0,-57.5 0,-76.5 130,-76.5 130,-57.5 0,-57.5"/>
<text text-anchor="middle" x="65" y="-64.5" font-family="Helvetica,sans-Serif" font-size="10.00">view.Vector.setDirection</text>
</g>
<!-- Node2 -->
<g id="node2" class="node"><title>Node2</title>
<g id="a_node2"><a xlink:href="../../d7/d7d/classview_1_1_vector.html#a032466b8f7758eacb8ed54396d4a27bd" target="_top" xlink:title="view.Vector.reset">
<polygon fill="white" stroke="black" points="169.5,-114.5 169.5,-133.5 266.5,-133.5 266.5,-114.5 169.5,-114.5"/>
<text text-anchor="middle" x="218" y="-121.5" font-family="Helvetica,sans-Serif" font-size="10.00">view.Vector.reset</text>
</a>
</g>
</g>
<!-- Node1&#45;&gt;Node2 -->
<g id="edge1" class="edge"><title>Node1&#45;&gt;Node2</title>
<path fill="none" stroke="midnightblue" d="M100.976,-80.203C128.702,-90.669 166.789,-105.046 191.644,-114.428"/>
<polygon fill="midnightblue" stroke="midnightblue" points="101.866,-76.7977 91.274,-76.5405 99.3936,-83.3466 101.866,-76.7977"/>
</g>
<!-- Node3 -->
<g id="node3" class="node"><title>Node3</title>
<g id="a_node3"><a xlink:href="../../d7/d7d/classview_1_1_vector.html#a6bb31da650b3b50ef13c2bd0c5164db8" target="_top" xlink:title="view.Vector.sum">
<polygon fill="white" stroke="black" points="312.5,-76.5 312.5,-95.5 405.5,-95.5 405.5,-76.5 312.5,-76.5"/>
<text text-anchor="middle" x="359" y="-83.5" font-family="Helvetica,sans-Serif" font-size="10.00">view.Vector.sum</text>
</a>
</g>
</g>
<!-- Node1&#45;&gt;Node3 -->
<g id="edge2" class="edge"><title>Node1&#45;&gt;Node3</title>
<path fill="none" stroke="midnightblue" d="M140.324,-71.8361C194.491,-75.3607 266.163,-80.0243 312.184,-83.0188"/>
<polygon fill="midnightblue" stroke="midnightblue" points="140.287,-68.3264 130.081,-71.1696 139.832,-75.3116 140.287,-68.3264"/>
</g>
<!-- Node5 -->
<g id="node5" class="node"><title>Node5</title>
<g id="a_node5"><a xlink:href="../../d7/d7d/classview_1_1_vector.html#ad2c9c045430c737cb25ccd1ed2f2d479" target="_top" xlink:title="view.Vector.turn">
<polygon fill="white" stroke="black" points="172,-38.5 172,-57.5 264,-57.5 264,-38.5 172,-38.5"/>
<text text-anchor="middle" x="218" y="-45.5" font-family="Helvetica,sans-Serif" font-size="10.00">view.Vector.turn</text>
</a>
</g>
</g>
<!-- Node1&#45;&gt;Node5 -->
<g id="edge4" class="edge"><title>Node1&#45;&gt;Node5</title>
<path fill="none" stroke="midnightblue" d="M140.266,-57.6553C150.974,-56.3079 161.715,-54.9563 171.628,-53.7091"/>
<polygon fill="midnightblue" stroke="midnightblue" points="139.522,-54.2212 130.038,-58.9423 140.396,-61.1664 139.522,-54.2212"/>
</g>
<!-- Node7 -->
<g id="node7" class="node"><title>Node7</title>
<g id="a_node7"><a xlink:href="../../d7/d7d/classview_1_1_vector.html#a57cfd0d7cfde8bbf092def6cf6d974ad" target="_top" xlink:title="view.Vector.Vector">
<polygon fill="white" stroke="black" points="166.5,-0.5 166.5,-19.5 269.5,-19.5 269.5,-0.5 166.5,-0.5"/>
<text text-anchor="middle" x="218" y="-7.5" font-family="Helvetica,sans-Serif" font-size="10.00">view.Vector.Vector</text>
</a>
</g>
</g>
<!-- Node1&#45;&gt;Node7 -->
<g id="edge7" class="edge"><title>Node1&#45;&gt;Node7</title>
<path fill="none" stroke="midnightblue" d="M100.606,-53.7863C119.851,-46.4538 144.241,-37.1874 166,-29 174.224,-25.9054 183.204,-22.5518 191.304,-19.5357"/>
<polygon fill="midnightblue" stroke="midnightblue" points="99.149,-50.5958 91.0518,-57.4285 101.643,-57.1366 99.149,-50.5958"/>
</g>
<!-- Node4 -->
<g id="node4" class="node"><title>Node4</title>
<g id="a_node4"><a xlink:href="../../d7/d7d/classview_1_1_vector.html#a8eb196d068714eeb5d4cee2e86c44882" target="_top" xlink:title="view.Vector.difference">
<polygon fill="white" stroke="black" points="448.5,-57.5 448.5,-76.5 567.5,-76.5 567.5,-57.5 448.5,-57.5"/>
<text text-anchor="middle" x="508" y="-64.5" font-family="Helvetica,sans-Serif" font-size="10.00">view.Vector.difference</text>
</a>
</g>
</g>
<!-- Node3&#45;&gt;Node4 -->
<g id="edge3" class="edge"><title>Node3&#45;&gt;Node4</title>
<path fill="none" stroke="midnightblue" d="M415.73,-78.7969C426.387,-77.4194 437.574,-75.9734 448.321,-74.5844"/>
<polygon fill="midnightblue" stroke="midnightblue" points="415.175,-75.3394 405.706,-80.0924 416.072,-82.2816 415.175,-75.3394"/>
</g>
<!-- Node6 -->
<g id="node6" class="node"><title>Node6</title>
<g id="a_node6"><a xlink:href="../../d7/d7d/classview_1_1_vector.html#aa033c0e2ea57f133e3d225db9010588d" target="_top" xlink:title="view.Vector.negate">
<polygon fill="white" stroke="black" points="306,-38.5 306,-57.5 412,-57.5 412,-38.5 306,-38.5"/>
<text text-anchor="middle" x="359" y="-45.5" font-family="Helvetica,sans-Serif" font-size="10.00">view.Vector.negate</text>
</a>
</g>
</g>
<!-- Node5&#45;&gt;Node6 -->
<g id="edge5" class="edge"><title>Node5&#45;&gt;Node6</title>
<path fill="none" stroke="midnightblue" d="M274.337,-48C284.729,-48 295.562,-48 305.852,-48"/>
<polygon fill="midnightblue" stroke="midnightblue" points="274.129,-44.5001 264.129,-48 274.129,-51.5001 274.129,-44.5001"/>
</g>
<!-- Node6&#45;&gt;Node4 -->
<g id="edge6" class="edge"><title>Node6&#45;&gt;Node4</title>
<path fill="none" stroke="midnightblue" d="M422.285,-56.0505C430.951,-57.1705 439.829,-58.318 448.423,-59.4288"/>
<polygon fill="midnightblue" stroke="midnightblue" points="422.607,-52.563 412.241,-54.7522 421.709,-59.5053 422.607,-52.563"/>
</g>
</g>
</svg>
