<?xml version="1.0" encoding="UTF-8" standalone="no"?>
<!DOCTYPE svg PUBLIC "-//W3C//DTD SVG 1.1//EN"
 "http://www.w3.org/Graphics/SVG/1.1/DTD/svg11.dtd">
<!-- Generated by graphviz version 2.36.0 (20140111.2315)
 -->
<!-- Title: view.Vector.difference Pages: 1 -->
<!--zoomable 256 -->
<svg id="main" version="1.1" xmlns="http://www.w3.org/2000/svg" xmlns:xlink="http://www.w3.org/1999/xlink" xml:space="preserve" onload="init(evt)">
<style type="text/css"><![CDATA[
.edge:hover path { stroke: red; }
.edge:hover polygon { stroke: red; fill: red; }
]]></style>
<script type="text/javascript"><![CDATA[
var edges = document.getElementsByTagName('g');
if (edges && edges.length) {
  for (var i=0;i<edges.length;i++) {
    if (edges[i].id.substr(0,4)=='edge') {
      edges[i].setAttribute('class','edge');
    }
  }
}
]]></script>
        <defs>
                <circle id="rim" cx="0" cy="0" r="7"/>
                <circle id="rim2" cx="0" cy="0" r="3.5"/>
                <g id="zoomPlus">
                        <use xlink:href="#rim" fill="#404040">
                                <set attributeName="fill" to="#808080" begin="zoomplus.mouseover" end="zoomplus.mouseout"/>
                        </use>
                        <path d="M-4,0h8M0,-4v8" fill="none" stroke="white" stroke-width="1.5" pointer-events="none"/>
                </g>
                <g id="zoomMin">
                        <use xlink:href="#rim" fill="#404040">
                                <set attributeName="fill" to="#808080" begin="zoomminus.mouseover" end="zoomminus.mouseout"/>
                        </use>
                        <path d="M-4,0h8" fill="none" stroke="white" stroke-width="1.5" pointer-events="none"/>
                </g>
                <g id="dirArrow">
                        <path fill="none" stroke="white" stroke-width="1.5" d="M0,-3.0v7 M-2.5,-0.5L0,-3.0L2.5,-0.5"/>
                </g>
               <g id="resetDef">
                       <use xlink:href="#rim2" fill="#404040">
                               <set attributeName="fill" to="#808080" begin="reset.mouseover" end="reset.mouseout"/>
                       </use>
               </g>
        </defs>

<script type="text/javascript">
var viewWidth = 634;
var viewHeight = 256;
var sectionId = 'dynsection-6';
</script>
<script xlink:href="../../svgpan.js"/>
<svg id="graph" class="graph">
<g id="viewport">
<title>view.Vector.difference</title>
<polygon fill="white" stroke="none" points="-4,4 -4,-252 630,-252 630,4 -4,4"/>
<!-- Node1 -->
<g id="node1" class="node"><title>Node1</title>
<polygon fill="#bfbfbf" stroke="black" points="0.5,-114.5 0.5,-133.5 119.5,-133.5 119.5,-114.5 0.5,-114.5"/>
<text text-anchor="middle" x="60" y="-121.5" font-family="Helvetica,sans-Serif" font-size="10.00">view.Vector.difference</text>
</g>
<!-- Node2 -->
<g id="node2" class="node"><title>Node2</title>
<g id="a_node2"><a xlink:href="../../d7/d7d/classview_1_1_vector.html#aa033c0e2ea57f133e3d225db9010588d" target="_top" xlink:title="view.Vector.negate">
<polygon fill="white" stroke="black" points="156,-190.5 156,-209.5 262,-209.5 262,-190.5 156,-190.5"/>
<text text-anchor="middle" x="209" y="-197.5" font-family="Helvetica,sans-Serif" font-size="10.00">view.Vector.negate</text>
</a>
</g>
</g>
<!-- Node1&#45;&gt;Node2 -->
<g id="edge1" class="edge"><title>Node1&#45;&gt;Node2</title>
<path fill="none" stroke="midnightblue" d="M79.6177,-133.625C105.132,-146.817 151.147,-170.607 180.6,-185.834"/>
<polygon fill="midnightblue" stroke="midnightblue" points="179.043,-188.969 189.534,-190.453 182.258,-182.751 179.043,-188.969"/>
</g>
<!-- Node6 -->
<g id="node6" class="node"><title>Node6</title>
<g id="a_node6"><a xlink:href="../../d7/d7d/classview_1_1_vector.html#a6bb31da650b3b50ef13c2bd0c5164db8" target="_top" xlink:title="view.Vector.sum">
<polygon fill="white" stroke="black" points="162.5,-114.5 162.5,-133.5 255.5,-133.5 255.5,-114.5 162.5,-114.5"/>
<text text-anchor="middle" x="209" y="-121.5" font-family="Helvetica,sans-Serif" font-size="10.00">view.Vector.sum</text>
</a>
</g>
</g>
<!-- Node1&#45;&gt;Node6 -->
<g id="edge5" class="edge"><title>Node1&#45;&gt;Node6</title>
<path fill="none" stroke="midnightblue" d="M119.521,-124C130.321,-124 141.571,-124 152.286,-124"/>
<polygon fill="midnightblue" stroke="midnightblue" points="152.362,-127.5 162.362,-124 152.362,-120.5 152.362,-127.5"/>
</g>
<!-- Node13 -->
<g id="node13" class="node"><title>Node13</title>
<g id="a_node13"><a xlink:href="../../d7/d7d/classview_1_1_vector.html#afdf42cc2f5841f7991ee34203bd14575" target="_top" xlink:title="view.Vector.Vector">
<polygon fill="white" stroke="black" points="157.5,-76.5 157.5,-95.5 260.5,-95.5 260.5,-76.5 157.5,-76.5"/>
<text text-anchor="middle" x="209" y="-83.5" font-family="Helvetica,sans-Serif" font-size="10.00">view.Vector.Vector</text>
</a>
</g>
</g>
<!-- Node1&#45;&gt;Node13 -->
<g id="edge16" class="edge"><title>Node1&#45;&gt;Node13</title>
<path fill="none" stroke="midnightblue" d="M98.0943,-114.411C117.318,-109.442 140.986,-103.323 161.429,-98.0387"/>
<polygon fill="midnightblue" stroke="midnightblue" points="162.367,-101.412 171.172,-95.5201 160.615,-94.6343 162.367,-101.412"/>
</g>
<!-- Node3 -->
<g id="node3" class="node"><title>Node3</title>
<g id="a_node3"><a xlink:href="../../d7/d7d/classview_1_1_vector.html#ad2c9c045430c737cb25ccd1ed2f2d479" target="_top" xlink:title="view.Vector.turn">
<polygon fill="white" stroke="black" points="329,-228.5 329,-247.5 421,-247.5 421,-228.5 329,-228.5"/>
<text text-anchor="middle" x="375" y="-235.5" font-family="Helvetica,sans-Serif" font-size="10.00">view.Vector.turn</text>
</a>
</g>
</g>
<!-- Node2&#45;&gt;Node3 -->
<g id="edge2" class="edge"><title>Node2&#45;&gt;Node3</title>
<path fill="none" stroke="midnightblue" d="M251.384,-209.589C273.123,-214.626 299.957,-220.844 322.975,-226.177"/>
<polygon fill="midnightblue" stroke="midnightblue" points="322.381,-229.632 332.913,-228.48 323.962,-222.813 322.381,-229.632"/>
</g>
<!-- Node4 -->
<g id="node4" class="node"><title>Node4</title>
<g id="a_node4"><a xlink:href="../../d7/d7d/classview_1_1_vector.html#a485a40fbe58f654a1aeae82cf6b297a0" target="_top" xlink:title="view.Vector.setDirection">
<polygon fill="white" stroke="black" points="492,-209.5 492,-228.5 622,-228.5 622,-209.5 492,-209.5"/>
<text text-anchor="middle" x="557" y="-216.5" font-family="Helvetica,sans-Serif" font-size="10.00">view.Vector.setDirection</text>
</a>
</g>
</g>
<!-- Node3&#45;&gt;Node4 -->
<g id="edge3" class="edge"><title>Node3&#45;&gt;Node4</title>
<path fill="none" stroke="midnightblue" d="M421.422,-233.205C439.769,-231.269 461.424,-228.983 481.938,-226.818"/>
<polygon fill="midnightblue" stroke="midnightblue" points="482.32,-230.297 491.897,-225.766 481.585,-223.336 482.32,-230.297"/>
</g>
<!-- Node5 -->
<g id="node5" class="node"><title>Node5</title>
<g id="a_node5"><a xlink:href="../../d7/d7d/classview_1_1_vector.html#a41523e735a5bfaa72067ee65d1c01fe1" target="_top" xlink:title="view.Vector.getDirection">
<polygon fill="white" stroke="black" points="491.5,-38.5 491.5,-57.5 622.5,-57.5 622.5,-38.5 491.5,-38.5"/>
<text text-anchor="middle" x="557" y="-45.5" font-family="Helvetica,sans-Serif" font-size="10.00">view.Vector.getDirection</text>
</a>
</g>
</g>
<!-- Node3&#45;&gt;Node5 -->
<g id="edge4" class="edge"><title>Node3&#45;&gt;Node5</title>
<path fill="none" stroke="midnightblue" d="M391.201,-228.348C407.239,-217.78 432.8,-199.817 452,-181 489.827,-143.927 526.068,-92.9274 544.117,-66.131"/>
<polygon fill="midnightblue" stroke="midnightblue" points="547.085,-67.9881 549.714,-57.7247 541.259,-64.1081 547.085,-67.9881"/>
</g>
<!-- Node6&#45;&gt;Node4 -->
<g id="edge12" class="edge"><title>Node6&#45;&gt;Node4</title>
<path fill="none" stroke="midnightblue" d="M221.356,-133.687C237.325,-146.737 267.852,-169.635 298,-181 357.277,-203.346 428.831,-212.617 481.532,-216.43"/>
<polygon fill="midnightblue" stroke="midnightblue" points="481.6,-219.942 491.812,-217.122 482.07,-212.958 481.6,-219.942"/>
</g>
<!-- Node7 -->
<g id="node7" class="node"><title>Node7</title>
<g id="a_node7"><a xlink:href="../../d7/d7d/classview_1_1_vector.html#ae6a99f4d2d1f1a79f362b5e1cd2c77d2" target="_top" xlink:title="view.Vector.getXChange">
<polygon fill="white" stroke="black" points="310,-0.5 310,-19.5 440,-19.5 440,-0.5 310,-0.5"/>
<text text-anchor="middle" x="375" y="-7.5" font-family="Helvetica,sans-Serif" font-size="10.00">view.Vector.getXChange</text>
</a>
</g>
</g>
<!-- Node6&#45;&gt;Node7 -->
<g id="edge6" class="edge"><title>Node6&#45;&gt;Node7</title>
<path fill="none" stroke="midnightblue" d="M247.276,-114.475C252.619,-111.994 257.739,-108.886 262,-105 289.617,-79.8155 269.096,-52.6957 298,-29 300.071,-27.3024 302.272,-25.7536 304.573,-24.3406"/>
<polygon fill="midnightblue" stroke="midnightblue" points="306.589,-27.2384 313.865,-19.5373 303.375,-21.02 306.589,-27.2384"/>
</g>
<!-- Node9 -->
<g id="node9" class="node"><title>Node9</title>
<g id="a_node9"><a xlink:href="../../d7/d7d/classview_1_1_vector.html#a2fd7acd224e15efaaa94491f7f1a9fa4" target="_top" xlink:title="view.Vector.getYChange">
<polygon fill="white" stroke="black" points="310.5,-38.5 310.5,-57.5 439.5,-57.5 439.5,-38.5 310.5,-38.5"/>
<text text-anchor="middle" x="375" y="-45.5" font-family="Helvetica,sans-Serif" font-size="10.00">view.Vector.getYChange</text>
</a>
</g>
</g>
<!-- Node6&#45;&gt;Node9 -->
<g id="edge9" class="edge"><title>Node6&#45;&gt;Node9</title>
<path fill="none" stroke="midnightblue" d="M243.284,-114.445C249.757,-111.878 256.297,-108.748 262,-105 281.442,-92.2239 277.912,-78.7348 298,-67 301.87,-64.7393 306.003,-62.7458 310.267,-60.9882"/>
<polygon fill="midnightblue" stroke="midnightblue" points="311.578,-64.2355 319.76,-57.505 309.166,-57.6639 311.578,-64.2355"/>
</g>
<!-- Node10 -->
<g id="node10" class="node"><title>Node10</title>
<g id="a_node10"><a xlink:href="../../d7/d7d/classview_1_1_vector.html#a70c26c70b498930ca2f04ab3edc6ebdd" target="_top" xlink:title="view.Vector.angleBetween">
<polygon fill="white" stroke="black" points="305,-152.5 305,-171.5 445,-171.5 445,-152.5 305,-152.5"/>
<text text-anchor="middle" x="375" y="-159.5" font-family="Helvetica,sans-Serif" font-size="10.00">view.Vector.angleBetween</text>
</a>
</g>
</g>
<!-- Node6&#45;&gt;Node10 -->
<g id="edge13" class="edge"><title>Node6&#45;&gt;Node10</title>
<path fill="none" stroke="midnightblue" d="M251.384,-133.589C273.123,-138.626 299.957,-144.844 322.975,-150.177"/>
<polygon fill="midnightblue" stroke="midnightblue" points="322.381,-153.632 332.913,-152.48 323.962,-146.813 322.381,-153.632"/>
</g>
<!-- Node11 -->
<g id="node11" class="node"><title>Node11</title>
<g id="a_node11"><a xlink:href="../../d7/d7d/classview_1_1_vector.html#ace16f664e139892ab0c09087273877eb" target="_top" xlink:title="view.Vector.setMagnitude">
<polygon fill="white" stroke="black" points="306.5,-114.5 306.5,-133.5 443.5,-133.5 443.5,-114.5 306.5,-114.5"/>
<text text-anchor="middle" x="375" y="-121.5" font-family="Helvetica,sans-Serif" font-size="10.00">view.Vector.setMagnitude</text>
</a>
</g>
</g>
<!-- Node6&#45;&gt;Node11 -->
<g id="edge14" class="edge"><title>Node6&#45;&gt;Node11</title>
<path fill="none" stroke="midnightblue" d="M255.683,-124C268.343,-124 282.451,-124 296.389,-124"/>
<polygon fill="midnightblue" stroke="midnightblue" points="296.485,-127.5 306.485,-124 296.485,-120.5 296.485,-127.5"/>
</g>
<!-- Node12 -->
<g id="node12" class="node"><title>Node12</title>
<g id="a_node12"><a xlink:href="../../d7/d7d/classview_1_1_vector.html#adeeb35fddfd53999832274309804f047" target="_top" xlink:title="view.Vector.distanceBetween">
<polygon fill="white" stroke="black" points="298,-76.5 298,-95.5 452,-95.5 452,-76.5 298,-76.5"/>
<text text-anchor="middle" x="375" y="-83.5" font-family="Helvetica,sans-Serif" font-size="10.00">view.Vector.distanceBetween</text>
</a>
</g>
</g>
<!-- Node6&#45;&gt;Node12 -->
<g id="edge15" class="edge"><title>Node6&#45;&gt;Node12</title>
<path fill="none" stroke="midnightblue" d="M251.384,-114.411C273.123,-109.374 299.957,-103.156 322.975,-97.8229"/>
<polygon fill="midnightblue" stroke="midnightblue" points="323.962,-101.187 332.913,-95.5201 322.381,-94.3677 323.962,-101.187"/>
</g>
<!-- Node7&#45;&gt;Node5 -->
<g id="edge8" class="edge"><title>Node7&#45;&gt;Node5</title>
<path fill="none" stroke="midnightblue" d="M421.422,-19.589C445.603,-24.6939 475.527,-31.0113 501.014,-36.3918"/>
<polygon fill="midnightblue" stroke="midnightblue" points="500.398,-39.8388 510.905,-38.4799 501.844,-32.9898 500.398,-39.8388"/>
</g>
<!-- Node8 -->
<g id="node8" class="node"><title>Node8</title>
<g id="a_node8"><a xlink:href="../../d7/d7d/classview_1_1_vector.html#a5382c66a53d3c0c1d6dc41fdaa84834f" target="_top" xlink:title="view.Vector.getMagnitude">
<polygon fill="white" stroke="black" points="488,-0.5 488,-19.5 626,-19.5 626,-0.5 488,-0.5"/>
<text text-anchor="middle" x="557" y="-7.5" font-family="Helvetica,sans-Serif" font-size="10.00">view.Vector.getMagnitude</text>
</a>
</g>
</g>
<!-- Node7&#45;&gt;Node8 -->
<g id="edge7" class="edge"><title>Node7&#45;&gt;Node8</title>
<path fill="none" stroke="midnightblue" d="M440.222,-10C452.29,-10 465.034,-10 477.48,-10"/>
<polygon fill="midnightblue" stroke="midnightblue" points="477.843,-13.5001 487.843,-10 477.843,-6.5001 477.843,-13.5001"/>
</g>
<!-- Node9&#45;&gt;Node5 -->
<g id="edge11" class="edge"><title>Node9&#45;&gt;Node5</title>
<path fill="none" stroke="midnightblue" d="M439.715,-48C453.093,-48 467.32,-48 481.065,-48"/>
<polygon fill="midnightblue" stroke="midnightblue" points="481.46,-51.5001 491.46,-48 481.46,-44.5001 481.46,-51.5001"/>
</g>
<!-- Node9&#45;&gt;Node8 -->
<g id="edge10" class="edge"><title>Node9&#45;&gt;Node8</title>
<path fill="none" stroke="midnightblue" d="M421.422,-38.411C445.603,-33.3061 475.527,-26.9887 501.014,-21.6082"/>
<polygon fill="midnightblue" stroke="midnightblue" points="501.844,-25.0102 510.905,-19.5201 500.398,-18.1612 501.844,-25.0102"/>
</g>
</g>
</svg>
        <g id="navigator" transform="translate(0 0)" fill="#404254">
                <rect fill="#f2f5e9" fill-opacity="0.5" stroke="#606060" stroke-width=".5" x="0" y="0" width="60" height="60"/>
                <use id="zoomplus" xlink:href="#zoomPlus" x="17" y="9" onmousedown="handleZoom(evt,'in')"/>
                <use id="zoomminus" xlink:href="#zoomMin" x="42" y="9" onmousedown="handleZoom(evt,'out')"/>
                <use id="reset" xlink:href="#resetDef" x="30" y="36" onmousedown="handleReset()"/>
                <g id="arrowUp" xlink:href="#dirArrow" transform="translate(30 24)" onmousedown="handlePan(0,-1)">
                  <use xlink:href="#rim" fill="#404040">
                        <set attributeName="fill" to="#808080" begin="arrowUp.mouseover" end="arrowUp.mouseout"/>
                  </use>
                  <path fill="none" stroke="white" stroke-width="1.5" d="M0,-3.0v7 M-2.5,-0.5L0,-3.0L2.5,-0.5"/>
                </g>
                <g id="arrowRight" xlink:href="#dirArrow" transform="rotate(90) translate(36 -43)" onmousedown="handlePan(1,0)">
                  <use xlink:href="#rim" fill="#404040">
                        <set attributeName="fill" to="#808080" begin="arrowRight.mouseover" end="arrowRight.mouseout"/>
                  </use>
                  <path fill="none" stroke="white" stroke-width="1.5" d="M0,-3.0v7 M-2.5,-0.5L0,-3.0L2.5,-0.5"/>
                </g>
                <g id="arrowDown" xlink:href="#dirArrow" transform="rotate(180) translate(-30 -48)" onmousedown="handlePan(0,1)">
                  <use xlink:href="#rim" fill="#404040">
                        <set attributeName="fill" to="#808080" begin="arrowDown.mouseover" end="arrowDown.mouseout"/>
                  </use>
                  <path fill="none" stroke="white" stroke-width="1.5" d="M0,-3.0v7 M-2.5,-0.5L0,-3.0L2.5,-0.5"/>
                </g>
                <g id="arrowLeft" xlink:href="#dirArrow" transform="rotate(270) translate(-36 17)" onmousedown="handlePan(-1,0)">
                  <use xlink:href="#rim" fill="#404040">
                        <set attributeName="fill" to="#808080" begin="arrowLeft.mouseover" end="arrowLeft.mouseout"/>
                  </use>
                  <path fill="none" stroke="white" stroke-width="1.5" d="M0,-3.0v7 M-2.5,-0.5L0,-3.0L2.5,-0.5"/>
                </g>
        </g>
        <svg viewBox="0 0 15 15" width="100%" height="30px" preserveAspectRatio="xMaxYMin meet">
         <g id="arrow_out" transform="scale(0.3 0.3)">
          <a xlink:href="classview_1_1_vector_a8eb196d068714eeb5d4cee2e86c44882_cgraph_org.svg" target="_base">
           <rect id="button" ry="5" rx="5" y="6" x="6" height="38" width="38"
                fill="#f2f5e9" fill-opacity="0.5" stroke="#606060" stroke-width="1.0"/>
           <path id="arrow"
             d="M 11.500037,31.436501 C 11.940474,20.09759 22.043105,11.32322 32.158766,21.979434 L 37.068811,17.246167 C 37.068811,17.246167 37.088388,32 37.088388,32 L 22.160133,31.978069 C 22.160133,31.978069 26.997745,27.140456 26.997745,27.140456 C 18.528582,18.264221 13.291696,25.230495 11.500037,31.436501 z"
             style="fill:#404040;"/>
          </a>
         </g>
        </svg>
</svg>
