<?xml version="1.0" encoding="UTF-8" standalone="no"?>
<!DOCTYPE svg PUBLIC "-//W3C//DTD SVG 1.1//EN"
 "http://www.w3.org/Graphics/SVG/1.1/DTD/svg11.dtd">
<!-- Generated by graphviz version 2.36.0 (20140111.2315)
 -->
<!-- Title: parser.nodes.CommandNode.evaluate Pages: 1 -->
<svg width="650pt" height="412pt"
 viewBox="0.00 0.00 650.00 412.00" xmlns="http://www.w3.org/2000/svg" xmlns:xlink="http://www.w3.org/1999/xlink">
<g id="graph0" class="graph" transform="scale(1 1) rotate(0) translate(4 408)">
<title>parser.nodes.CommandNode.evaluate</title>
<polygon fill="white" stroke="none" points="-4,4 -4,-408 646,-408 646,4 -4,4"/>
<!-- Node1 -->
<g id="node1" class="node"><title>Node1</title>
<polygon fill="#bfbfbf" stroke="black" points="0,-209.5 0,-228.5 202,-228.5 202,-209.5 0,-209.5"/>
<text text-anchor="middle" x="101" y="-216.5" font-family="Helvetica,sans-Serif" font-size="10.00">parser.nodes.CommandNode.evaluate</text>
</g>
<!-- Node2 -->
<g id="node2" class="node"><title>Node2</title>
<g id="a_node2"><a xlink:href="../../db/d29/classparser_1_1_variable_manager.html#a1dd0d3b879a7a7173d2c059bef5cb187" target="_top" xlink:title="parser.VariableManager.create\lVariableScope">
<polygon fill="white" stroke="black" points="259.5,-374 259.5,-404 422.5,-404 422.5,-374 259.5,-374"/>
<text text-anchor="start" x="267.5" y="-392" font-family="Helvetica,sans-Serif" font-size="10.00">parser.VariableManager.create</text>
<text text-anchor="middle" x="341" y="-381" font-family="Helvetica,sans-Serif" font-size="10.00">VariableScope</text>
</a>
</g>
</g>
<!-- Node1&#45;&gt;Node2 -->
<g id="edge1" class="edge"><title>Node1&#45;&gt;Node2</title>
<path fill="none" stroke="midnightblue" d="M108.014,-228.561C124.976,-254.694 176.02,-327.777 238,-364 241.868,-366.26 245.933,-368.317 250.121,-370.189"/>
<polygon fill="midnightblue" stroke="midnightblue" points="248.878,-373.462 259.46,-373.997 251.522,-366.98 248.878,-373.462"/>
</g>
<!-- Node3 -->
<g id="node3" class="node"><title>Node3</title>
<g id="a_node3"><a xlink:href="../../d4/d1c/classparser_1_1nodes_1_1_list_node.html#abfbc6ff7aa0cbf42cb7575aefeb966a1" target="_top" xlink:title="parser.nodes.ListNode.evaluate">
<polygon fill="white" stroke="black" points="257,-335.5 257,-354.5 425,-354.5 425,-335.5 257,-335.5"/>
<text text-anchor="middle" x="341" y="-342.5" font-family="Helvetica,sans-Serif" font-size="10.00">parser.nodes.ListNode.evaluate</text>
</a>
</g>
</g>
<!-- Node1&#45;&gt;Node3 -->
<g id="edge2" class="edge"><title>Node1&#45;&gt;Node3</title>
<path fill="none" stroke="midnightblue" d="M110.819,-228.561C131.048,-249.844 183.269,-301.204 238,-326 243.653,-328.561 249.632,-330.777 255.746,-332.694"/>
<polygon fill="midnightblue" stroke="midnightblue" points="254.862,-336.082 265.439,-335.468 256.788,-329.352 254.862,-336.082"/>
</g>
<!-- Node4 -->
<g id="node4" class="node"><title>Node4</title>
<g id="a_node4"><a xlink:href="../../d9/d06/classparser_1_1_custom_command.html#a0e09d961b73b8085e997662fc7c303cc" target="_top" xlink:title="parser.CustomCommand.getArgs">
<polygon fill="white" stroke="black" points="252,-297.5 252,-316.5 430,-316.5 430,-297.5 252,-297.5"/>
<text text-anchor="middle" x="341" y="-304.5" font-family="Helvetica,sans-Serif" font-size="10.00">parser.CustomCommand.getArgs</text>
</a>
</g>
</g>
<!-- Node1&#45;&gt;Node4 -->
<g id="edge3" class="edge"><title>Node1&#45;&gt;Node4</title>
<path fill="none" stroke="midnightblue" d="M117.715,-228.631C142.427,-243.36 192.277,-271.408 238,-287 247.351,-290.189 257.368,-292.928 267.338,-295.265"/>
<polygon fill="midnightblue" stroke="midnightblue" points="266.745,-298.719 277.266,-297.469 268.262,-291.885 266.745,-298.719"/>
</g>
<!-- Node5 -->
<g id="node5" class="node"><title>Node5</title>
<g id="a_node5"><a xlink:href="../../d9/d06/classparser_1_1_custom_command.html#a7fe54ef3c6a752616d913d8468af6472" target="_top" xlink:title="parser.CustomCommand.get\lCommands">
<polygon fill="white" stroke="black" points="263,-248 263,-278 419,-278 419,-248 263,-248"/>
<text text-anchor="start" x="271" y="-266" font-family="Helvetica,sans-Serif" font-size="10.00">parser.CustomCommand.get</text>
<text text-anchor="middle" x="341" y="-255" font-family="Helvetica,sans-Serif" font-size="10.00">Commands</text>
</a>
</g>
</g>
<!-- Node1&#45;&gt;Node5 -->
<g id="edge4" class="edge"><title>Node1&#45;&gt;Node5</title>
<path fill="none" stroke="midnightblue" d="M153.642,-228.547C182.511,-233.884 219.264,-240.679 252.489,-246.821"/>
<polygon fill="midnightblue" stroke="midnightblue" points="252.205,-250.328 262.674,-248.704 253.477,-243.445 252.205,-250.328"/>
</g>
<!-- Node6 -->
<g id="node6" class="node"><title>Node6</title>
<g id="a_node6"><a xlink:href="../../d4/d75/classparser_1_1nodes_1_1_variable_node.html#adf64e8f71cf1e4be7914c1e8f3f70a67" target="_top" xlink:title="parser.nodes.VariableNode.getName">
<polygon fill="white" stroke="black" points="244,-209.5 244,-228.5 438,-228.5 438,-209.5 244,-209.5"/>
<text text-anchor="middle" x="341" y="-216.5" font-family="Helvetica,sans-Serif" font-size="10.00">parser.nodes.VariableNode.getName</text>
</a>
</g>
</g>
<!-- Node1&#45;&gt;Node6 -->
<g id="edge5" class="edge"><title>Node1&#45;&gt;Node6</title>
<path fill="none" stroke="midnightblue" d="M202.244,-219C212.534,-219 223.016,-219 233.372,-219"/>
<polygon fill="midnightblue" stroke="midnightblue" points="233.673,-222.5 243.673,-219 233.673,-215.5 233.673,-222.5"/>
</g>
<!-- Node7 -->
<g id="node7" class="node"><title>Node7</title>
<g id="a_node7"><a xlink:href="../../df/ddc/classparser_1_1nodes_1_1_command_node.html#a75fa72b2e9b07e4d1876c02bad95e7ad" target="_top" xlink:title="parser.nodes.CommandNode.getName">
<polygon fill="white" stroke="black" points="238,-171.5 238,-190.5 444,-190.5 444,-171.5 238,-171.5"/>
<text text-anchor="middle" x="341" y="-178.5" font-family="Helvetica,sans-Serif" font-size="10.00">parser.nodes.CommandNode.getName</text>
</a>
</g>
</g>
<!-- Node1&#45;&gt;Node7 -->
<g id="edge6" class="edge"><title>Node1&#45;&gt;Node7</title>
<path fill="none" stroke="midnightblue" d="M161.75,-209.46C194.711,-204.197 235.813,-197.635 270.24,-192.138"/>
<polygon fill="midnightblue" stroke="midnightblue" points="270.902,-195.577 280.225,-190.544 269.798,-188.664 270.902,-195.577"/>
</g>
<!-- Node8 -->
<g id="node8" class="node"><title>Node8</title>
<g id="a_node8"><a xlink:href="../../d9/d06/classparser_1_1_custom_command.html#a2628b31a755893bc825fbd0001b7f144" target="_top" xlink:title="parser.CustomCommand.get\lNumArgs">
<polygon fill="white" stroke="black" points="263,-122 263,-152 419,-152 419,-122 263,-122"/>
<text text-anchor="start" x="271" y="-140" font-family="Helvetica,sans-Serif" font-size="10.00">parser.CustomCommand.get</text>
<text text-anchor="middle" x="341" y="-129" font-family="Helvetica,sans-Serif" font-size="10.00">NumArgs</text>
</a>
</g>
</g>
<!-- Node1&#45;&gt;Node8 -->
<g id="edge7" class="edge"><title>Node1&#45;&gt;Node8</title>
<path fill="none" stroke="midnightblue" d="M121.901,-209.497C148.071,-197.272 195.696,-175.954 238,-162 245.84,-159.414 254.098,-156.96 262.381,-154.674"/>
<polygon fill="midnightblue" stroke="midnightblue" points="263.341,-158.04 272.092,-152.068 261.526,-151.279 263.341,-158.04"/>
</g>
<!-- Node9 -->
<g id="node9" class="node"><title>Node9</title>
<g id="a_node9"><a xlink:href="../../db/d29/classparser_1_1_variable_manager.html#acfee079f598dca91fef11afca02f3bbc" target="_top" xlink:title="parser.VariableManager.revert\lVariableScope">
<polygon fill="white" stroke="black" points="260.5,-73 260.5,-103 421.5,-103 421.5,-73 260.5,-73"/>
<text text-anchor="start" x="268.5" y="-91" font-family="Helvetica,sans-Serif" font-size="10.00">parser.VariableManager.revert</text>
<text text-anchor="middle" x="341" y="-80" font-family="Helvetica,sans-Serif" font-size="10.00">VariableScope</text>
</a>
</g>
</g>
<!-- Node1&#45;&gt;Node9 -->
<g id="edge8" class="edge"><title>Node1&#45;&gt;Node9</title>
<path fill="none" stroke="midnightblue" d="M111.251,-209.438C131.947,-188.62 184.39,-138.977 238,-113 242.974,-110.59 248.199,-108.4 253.548,-106.412"/>
<polygon fill="midnightblue" stroke="midnightblue" points="254.973,-109.623 263.28,-103.048 252.686,-103.007 254.973,-109.623"/>
</g>
<!-- Node10 -->
<g id="node10" class="node"><title>Node10</title>
<g id="a_node10"><a xlink:href="../../db/d29/classparser_1_1_variable_manager.html#aa9ecb1f9858ee96bc9f17e6a16adc9ad" target="_top" xlink:title="parser.VariableManager.set\lVariable">
<polygon fill="white" stroke="black" points="267.5,-24 267.5,-54 414.5,-54 414.5,-24 267.5,-24"/>
<text text-anchor="start" x="275.5" y="-42" font-family="Helvetica,sans-Serif" font-size="10.00">parser.VariableManager.set</text>
<text text-anchor="middle" x="341" y="-31" font-family="Helvetica,sans-Serif" font-size="10.00">Variable</text>
</a>
</g>
</g>
<!-- Node1&#45;&gt;Node10 -->
<g id="edge9" class="edge"><title>Node1&#45;&gt;Node10</title>
<path fill="none" stroke="midnightblue" d="M107.601,-209.17C123.867,-181.564 174.037,-102.819 238,-64 244.162,-60.2605 250.852,-57.0798 257.762,-54.3745"/>
<polygon fill="midnightblue" stroke="midnightblue" points="259.05,-57.631 267.291,-50.9722 256.696,-51.0386 259.05,-57.631"/>
</g>
<!-- Node11 -->
<g id="node11" class="node"><title>Node11</title>
<g id="a_node11"><a xlink:href="../../da/d34/classparser_1_1_variable_scope.html#a01641ffadbd14f821da3ff44d9e7ce4e" target="_top" xlink:title="parser.VariableScope.contains\lVariable">
<polygon fill="white" stroke="black" points="480.5,-49 480.5,-79 641.5,-79 641.5,-49 480.5,-49"/>
<text text-anchor="start" x="488.5" y="-67" font-family="Helvetica,sans-Serif" font-size="10.00">parser.VariableScope.contains</text>
<text text-anchor="middle" x="561" y="-56" font-family="Helvetica,sans-Serif" font-size="10.00">Variable</text>
</a>
</g>
</g>
<!-- Node10&#45;&gt;Node11 -->
<g id="edge10" class="edge"><title>Node10&#45;&gt;Node11</title>
<path fill="none" stroke="midnightblue" d="M414.591,-47.3246C432.357,-49.362 451.581,-51.5666 470.052,-53.6849"/>
<polygon fill="midnightblue" stroke="midnightblue" points="469.888,-57.189 480.222,-54.8511 470.686,-50.2345 469.888,-57.189"/>
</g>
<!-- Node12 -->
<g id="node12" class="node"><title>Node12</title>
<g id="a_node12"><a xlink:href="../../da/d34/classparser_1_1_variable_scope.html#a49590398e11784b1310e8b65d9933011" target="_top" xlink:title="parser.VariableScope.set\lVariable">
<polygon fill="white" stroke="black" points="493,-0 493,-30 629,-30 629,-0 493,-0"/>
<text text-anchor="start" x="501" y="-18" font-family="Helvetica,sans-Serif" font-size="10.00">parser.VariableScope.set</text>
<text text-anchor="middle" x="561" y="-7" font-family="Helvetica,sans-Serif" font-size="10.00">Variable</text>
</a>
</g>
</g>
<!-- Node10&#45;&gt;Node12 -->
<g id="edge11" class="edge"><title>Node10&#45;&gt;Node12</title>
<path fill="none" stroke="midnightblue" d="M414.591,-31.0083C436.502,-28.5961 460.632,-25.9396 482.83,-23.4957"/>
<polygon fill="midnightblue" stroke="midnightblue" points="483.322,-26.9628 492.879,-22.3895 482.556,-20.0049 483.322,-26.9628"/>
</g>
</g>
</svg>
