<?xml version="1.0" encoding="UTF-8" standalone="no"?>
<!DOCTYPE svg PUBLIC "-//W3C//DTD SVG 1.1//EN"
 "http://www.w3.org/Graphics/SVG/1.1/DTD/svg11.dtd">
<!-- Generated by graphviz version 2.36.0 (20140111.2315)
 -->
<!-- Title: parser.nodes.CommandNode.CommandNode Pages: 1 -->
<!--zoomable 87 -->
<svg id="main" version="1.1" xmlns="http://www.w3.org/2000/svg" xmlns:xlink="http://www.w3.org/1999/xlink" xml:space="preserve" onload="init(evt)">
<style type="text/css"><![CDATA[
.edge:hover path { stroke: red; }
.edge:hover polygon { stroke: red; fill: red; }
]]></style>
<script type="text/javascript"><![CDATA[
var edges = document.getElementsByTagName('g');
if (edges && edges.length) {
  for (var i=0;i<edges.length;i++) {
    if (edges[i].id.substr(0,4)=='edge') {
      edges[i].setAttribute('class','edge');
    }
  }
}
]]></script>
        <defs>
                <circle id="rim" cx="0" cy="0" r="7"/>
                <circle id="rim2" cx="0" cy="0" r="3.5"/>
                <g id="zoomPlus">
                        <use xlink:href="#rim" fill="#404040">
                                <set attributeName="fill" to="#808080" begin="zoomplus.mouseover" end="zoomplus.mouseout"/>
                        </use>
                        <path d="M-4,0h8M0,-4v8" fill="none" stroke="white" stroke-width="1.5" pointer-events="none"/>
                </g>
                <g id="zoomMin">
                        <use xlink:href="#rim" fill="#404040">
                                <set attributeName="fill" to="#808080" begin="zoomminus.mouseover" end="zoomminus.mouseout"/>
                        </use>
                        <path d="M-4,0h8" fill="none" stroke="white" stroke-width="1.5" pointer-events="none"/>
                </g>
                <g id="dirArrow">
                        <path fill="none" stroke="white" stroke-width="1.5" d="M0,-3.0v7 M-2.5,-0.5L0,-3.0L2.5,-0.5"/>
                </g>
               <g id="resetDef">
                       <use xlink:href="#rim2" fill="#404040">
                               <set attributeName="fill" to="#808080" begin="reset.mouseover" end="reset.mouseout"/>
                       </use>
               </g>
        </defs>

<script type="text/javascript">
var viewWidth = 772;
var viewHeight = 87;
var sectionId = 'dynsection-2';
</script>
<script xlink:href="../../svgpan.js"/>
<svg id="graph" class="graph">
<g id="viewport">
<title>parser.nodes.CommandNode.CommandNode</title>
<polygon fill="white" stroke="none" points="-4,4 -4,-83 768,-83 768,4 -4,4"/>
<!-- Node1 -->
<g id="node1" class="node"><title>Node1</title>
<polygon fill="#bfbfbf" stroke="black" points="0.5,-24 0.5,-54 161.5,-54 161.5,-24 0.5,-24"/>
<text text-anchor="start" x="8.5" y="-42" font-family="Helvetica,sans-Serif" font-size="10.00">parser.nodes.CommandNode.</text>
<text text-anchor="middle" x="81" y="-31" font-family="Helvetica,sans-Serif" font-size="10.00">CommandNode</text>
</g>
<!-- Node2 -->
<g id="node2" class="node"><title>Node2</title>
<g id="a_node2"><a xlink:href="../../df/daf/classparser_1_1_semantics_table.html#ad21bbcf3716340782e1da8da4efe1e82" target="_top" xlink:title="parser.SemanticsTable.get\lCommand">
<polygon fill="white" stroke="black" points="198.5,-49 198.5,-79 341.5,-79 341.5,-49 198.5,-49"/>
<text text-anchor="start" x="206.5" y="-67" font-family="Helvetica,sans-Serif" font-size="10.00">parser.SemanticsTable.get</text>
<text text-anchor="middle" x="270" y="-56" font-family="Helvetica,sans-Serif" font-size="10.00">Command</text>
</a>
</g>
</g>
<!-- Node1&#45;&gt;Node2 -->
<g id="edge1" class="edge"><title>Node1&#45;&gt;Node2</title>
<path fill="none" stroke="midnightblue" d="M161.576,-49.6385C170.46,-50.8262 179.515,-52.0368 188.411,-53.2261"/>
<polygon fill="midnightblue" stroke="midnightblue" points="187.995,-56.7015 198.37,-54.5575 188.922,-49.7632 187.995,-56.7015"/>
</g>
<!-- Node4 -->
<g id="node4" class="node"><title>Node4</title>
<g id="a_node4"><a xlink:href="../../df/daf/classparser_1_1_semantics_table.html#a737b71f0ef1c252dbe00b3862c45bc74" target="_top" xlink:title="parser.SemanticsTable.get\lInstance">
<polygon fill="white" stroke="black" points="198.5,-0 198.5,-30 341.5,-30 341.5,-0 198.5,-0"/>
<text text-anchor="start" x="206.5" y="-18" font-family="Helvetica,sans-Serif" font-size="10.00">parser.SemanticsTable.get</text>
<text text-anchor="middle" x="270" y="-7" font-family="Helvetica,sans-Serif" font-size="10.00">Instance</text>
</a>
</g>
</g>
<!-- Node1&#45;&gt;Node4 -->
<g id="edge3" class="edge"><title>Node1&#45;&gt;Node4</title>
<path fill="none" stroke="midnightblue" d="M161.576,-28.787C170.46,-27.6469 179.515,-26.4847 188.411,-25.3429"/>
<polygon fill="midnightblue" stroke="midnightblue" points="188.897,-28.8093 198.37,-24.0648 188.006,-21.8663 188.897,-28.8093"/>
</g>
<!-- Node3 -->
<g id="node3" class="node"><title>Node3</title>
<g id="a_node3"><a xlink:href="../../dd/da7/interfaceparser_1_1_i_parser_provider.html#a190d86fe0b03a1c15700dae1237754fb" target="_top" xlink:title="parser.IParserProvider.get\lCommand">
<polygon fill="white" stroke="black" points="398.5,-49 398.5,-79 537.5,-79 537.5,-49 398.5,-49"/>
<text text-anchor="start" x="406.5" y="-67" font-family="Helvetica,sans-Serif" font-size="10.00">parser.IParserProvider.get</text>
<text text-anchor="middle" x="468" y="-56" font-family="Helvetica,sans-Serif" font-size="10.00">Command</text>
</a>
</g>
</g>
<!-- Node2&#45;&gt;Node3 -->
<g id="edge2" class="edge"><title>Node2&#45;&gt;Node3</title>
<path fill="none" stroke="midnightblue" d="M341.76,-64C356.872,-64 372.922,-64 388.311,-64"/>
<polygon fill="midnightblue" stroke="midnightblue" points="388.311,-67.5001 398.311,-64 388.311,-60.5001 388.311,-67.5001"/>
</g>
<!-- Node5 -->
<g id="node5" class="node"><title>Node5</title>
<g id="a_node5"><a xlink:href="../../df/daf/classparser_1_1_semantics_table.html#a1ee110bb77636170fa5e8bb1921b8296" target="_top" xlink:title="parser.SemanticsTable.Semantics\lTable">
<polygon fill="white" stroke="black" points="378.5,-0 378.5,-30 557.5,-30 557.5,-0 378.5,-0"/>
<text text-anchor="start" x="386.5" y="-18" font-family="Helvetica,sans-Serif" font-size="10.00">parser.SemanticsTable.Semantics</text>
<text text-anchor="middle" x="468" y="-7" font-family="Helvetica,sans-Serif" font-size="10.00">Table</text>
</a>
</g>
</g>
<!-- Node4&#45;&gt;Node5 -->
<g id="edge4" class="edge"><title>Node4&#45;&gt;Node5</title>
<path fill="none" stroke="midnightblue" d="M341.76,-15C350.365,-15 359.273,-15 368.191,-15"/>
<polygon fill="midnightblue" stroke="midnightblue" points="368.247,-18.5001 378.247,-15 368.247,-11.5001 368.247,-18.5001"/>
</g>
<!-- Node6 -->
<g id="node6" class="node"><title>Node6</title>
<g id="a_node6"><a xlink:href="../../df/daf/classparser_1_1_semantics_table.html#a9c805f5773f5a74c3985fb4a605f0e35" target="_top" xlink:title="parser.SemanticsTable.buildMap">
<polygon fill="white" stroke="black" points="594,-5.5 594,-24.5 764,-24.5 764,-5.5 594,-5.5"/>
<text text-anchor="middle" x="679" y="-12.5" font-family="Helvetica,sans-Serif" font-size="10.00">parser.SemanticsTable.buildMap</text>
</a>
</g>
</g>
<!-- Node5&#45;&gt;Node6 -->
<g id="edge5" class="edge"><title>Node5&#45;&gt;Node6</title>
<path fill="none" stroke="midnightblue" d="M557.635,-15C566.271,-15 575.055,-15 583.744,-15"/>
<polygon fill="midnightblue" stroke="midnightblue" points="583.886,-18.5001 593.886,-15 583.886,-11.5001 583.886,-18.5001"/>
</g>
</g>
</svg>
        <g id="navigator" transform="translate(0 0)" fill="#404254">
                <rect fill="#f2f5e9" fill-opacity="0.5" stroke="#606060" stroke-width=".5" x="0" y="0" width="60" height="60"/>
                <use id="zoomplus" xlink:href="#zoomPlus" x="17" y="9" onmousedown="handleZoom(evt,'in')"/>
                <use id="zoomminus" xlink:href="#zoomMin" x="42" y="9" onmousedown="handleZoom(evt,'out')"/>
                <use id="reset" xlink:href="#resetDef" x="30" y="36" onmousedown="handleReset()"/>
                <g id="arrowUp" xlink:href="#dirArrow" transform="translate(30 24)" onmousedown="handlePan(0,-1)">
                  <use xlink:href="#rim" fill="#404040">
                        <set attributeName="fill" to="#808080" begin="arrowUp.mouseover" end="arrowUp.mouseout"/>
                  </use>
                  <path fill="none" stroke="white" stroke-width="1.5" d="M0,-3.0v7 M-2.5,-0.5L0,-3.0L2.5,-0.5"/>
                </g>
                <g id="arrowRight" xlink:href="#dirArrow" transform="rotate(90) translate(36 -43)" onmousedown="handlePan(1,0)">
                  <use xlink:href="#rim" fill="#404040">
                        <set attributeName="fill" to="#808080" begin="arrowRight.mouseover" end="arrowRight.mouseout"/>
                  </use>
                  <path fill="none" stroke="white" stroke-width="1.5" d="M0,-3.0v7 M-2.5,-0.5L0,-3.0L2.5,-0.5"/>
                </g>
                <g id="arrowDown" xlink:href="#dirArrow" transform="rotate(180) translate(-30 -48)" onmousedown="handlePan(0,1)">
                  <use xlink:href="#rim" fill="#404040">
                        <set attributeName="fill" to="#808080" begin="arrowDown.mouseover" end="arrowDown.mouseout"/>
                  </use>
                  <path fill="none" stroke="white" stroke-width="1.5" d="M0,-3.0v7 M-2.5,-0.5L0,-3.0L2.5,-0.5"/>
                </g>
                <g id="arrowLeft" xlink:href="#dirArrow" transform="rotate(270) translate(-36 17)" onmousedown="handlePan(-1,0)">
                  <use xlink:href="#rim" fill="#404040">
                        <set attributeName="fill" to="#808080" begin="arrowLeft.mouseover" end="arrowLeft.mouseout"/>
                  </use>
                  <path fill="none" stroke="white" stroke-width="1.5" d="M0,-3.0v7 M-2.5,-0.5L0,-3.0L2.5,-0.5"/>
                </g>
        </g>
        <svg viewBox="0 0 15 15" width="100%" height="30px" preserveAspectRatio="xMaxYMin meet">
         <g id="arrow_out" transform="scale(0.3 0.3)">
          <a xlink:href="classparser_1_1nodes_1_1_command_node_afc528cdec7c087a621e6828b02bce48b_cgraph_org.svg" target="_base">
           <rect id="button" ry="5" rx="5" y="6" x="6" height="38" width="38"
                fill="#f2f5e9" fill-opacity="0.5" stroke="#606060" stroke-width="1.0"/>
           <path id="arrow"
             d="M 11.500037,31.436501 C 11.940474,20.09759 22.043105,11.32322 32.158766,21.979434 L 37.068811,17.246167 C 37.068811,17.246167 37.088388,32 37.088388,32 L 22.160133,31.978069 C 22.160133,31.978069 26.997745,27.140456 26.997745,27.140456 C 18.528582,18.264221 13.291696,25.230495 11.500037,31.436501 z"
             style="fill:#404040;"/>
          </a>
         </g>
        </svg>
</svg>
