<?xml version="1.0" encoding="UTF-8" standalone="no"?>
<!DOCTYPE svg PUBLIC "-//W3C//DTD SVG 1.1//EN"
 "http://www.w3.org/Graphics/SVG/1.1/DTD/svg11.dtd">
<!-- Generated by graphviz version 2.36.0 (20140111.2315)
 -->
<!-- Title: util.CompositeStroke Pages: 1 -->
<svg width="124pt" height="106pt"
 viewBox="0.00 0.00 124.00 106.00" xmlns="http://www.w3.org/2000/svg" xmlns:xlink="http://www.w3.org/1999/xlink">
<g id="graph0" class="graph" transform="scale(1 1) rotate(0) translate(4 102)">
<title>util.CompositeStroke</title>
<polygon fill="white" stroke="none" points="-4,4 -4,-102 120,-102 120,4 -4,4"/>
<!-- Node1 -->
<g id="node1" class="node"><title>Node1</title>
<polygon fill="#bfbfbf" stroke="black" points="-0.5,-0.5 -0.5,-19.5 116.5,-19.5 116.5,-0.5 -0.5,-0.5"/>
<text text-anchor="middle" x="58" y="-7.5" font-family="Helvetica,sans-Serif" font-size="10.00">util.CompositeStroke</text>
</g>
<!-- Node2 -->
<g id="node2" class="node"><title>Node2</title>
<polygon fill="white" stroke="#bfbfbf" points="34,-78.5 34,-97.5 82,-97.5 82,-78.5 34,-78.5"/>
<text text-anchor="middle" x="58" y="-85.5" font-family="Helvetica,sans-Serif" font-size="10.00">Stroke</text>
</g>
<!-- Node2&#45;&gt;Node1 -->
<g id="edge1" class="edge"><title>Node2&#45;&gt;Node1</title>
<path fill="none" stroke="midnightblue" d="M56.4399,-68.3825C56.2572,-65.5753 56.1003,-62.7126 56,-60 55.6386,-50.2289 55.6386,-47.7711 56,-38 56.2293,-31.7998 56.7539,-24.8151 57.2083,-19.5033"/>
<polygon fill="midnightblue" stroke="midnightblue" points="52.9607,-68.7906 57.2083,-78.4967 59.9406,-68.2602 52.9607,-68.7906"/>
</g>
<!-- Node2&#45;&gt;Node1 -->
<g id="edge2" class="edge"><title>Node2&#45;&gt;Node1</title>
<path fill="none" stroke="#9a32cd" stroke-dasharray="5,2" d="M58,-68.2239C58,-52.6974 58,-31.3582 58,-19.6165"/>
<polygon fill="#9a32cd" stroke="#9a32cd" points="54.5001,-68.2818 58,-78.2818 61.5001,-68.2819 54.5001,-68.2818"/>
<text text-anchor="middle" x="78" y="-52" font-family="Helvetica,sans-Serif" font-size="10.00"> stroke1</text>
<text text-anchor="middle" x="78" y="-41" font-family="Helvetica,sans-Serif" font-size="10.00">stroke2</text>
</g>
</g>
</svg>
