<?xml version="1.0" encoding="UTF-8" standalone="no"?>
<!DOCTYPE svg PUBLIC "-//W3C//DTD SVG 1.1//EN"
 "http://www.w3.org/Graphics/SVG/1.1/DTD/svg11.dtd">
<!-- Generated by graphviz version 2.36.0 (20140111.2315)
 -->
<!-- Title: view.labels.InformationLabel Pages: 1 -->
<svg width="253pt" height="164pt"
 viewBox="0.00 0.00 253.00 164.00" xmlns="http://www.w3.org/2000/svg" xmlns:xlink="http://www.w3.org/1999/xlink">
<g id="graph0" class="graph" transform="scale(1 1) rotate(0) translate(4 160)">
<title>view.labels.InformationLabel</title>
<polygon fill="white" stroke="none" points="-4,4 -4,-160 249,-160 249,4 -4,4"/>
<!-- Node1 -->
<g id="node1" class="node"><title>Node1</title>
<polygon fill="#bfbfbf" stroke="black" points="80,-0.5 80,-19.5 230,-19.5 230,-0.5 80,-0.5"/>
<text text-anchor="middle" x="155" y="-7.5" font-family="Helvetica,sans-Serif" font-size="10.00">view.labels.InformationLabel</text>
</g>
<!-- Node2 -->
<g id="node2" class="node"><title>Node2</title>
<g id="a_node2"><a xlink:href="../../d5/da8/classview_1_1labels_1_1_logo_label.html" target="_top" xlink:title="view.labels.LogoLabel">
<polygon fill="white" stroke="black" points="23.5,-68.5 23.5,-87.5 142.5,-87.5 142.5,-68.5 23.5,-68.5"/>
<text text-anchor="middle" x="83" y="-75.5" font-family="Helvetica,sans-Serif" font-size="10.00">view.labels.LogoLabel</text>
</a>
</g>
</g>
<!-- Node2&#45;&gt;Node1 -->
<g id="edge1" class="edge"><title>Node2&#45;&gt;Node1</title>
<path fill="none" stroke="midnightblue" d="M100.005,-61.4122C114.149,-48.4468 133.775,-30.4559 145.355,-19.8411"/>
<polygon fill="midnightblue" stroke="midnightblue" points="97.4193,-59.0343 92.4127,-68.3717 102.149,-64.1944 97.4193,-59.0343"/>
</g>
<!-- Node3 -->
<g id="node3" class="node"><title>Node3</title>
<polygon fill="white" stroke="#bfbfbf" points="0,-136.5 0,-155.5 44,-155.5 44,-136.5 0,-136.5"/>
<text text-anchor="middle" x="22" y="-143.5" font-family="Helvetica,sans-Serif" font-size="10.00">JLabel</text>
</g>
<!-- Node3&#45;&gt;Node2 -->
<g id="edge2" class="edge"><title>Node3&#45;&gt;Node2</title>
<path fill="none" stroke="midnightblue" d="M37.0836,-128.68C49.0093,-115.777 65.2014,-98.2575 74.8287,-87.8411"/>
<polygon fill="midnightblue" stroke="midnightblue" points="34.1918,-126.652 29.9747,-136.372 39.3325,-131.403 34.1918,-126.652"/>
</g>
<!-- Node4 -->
<g id="node4" class="node"><title>Node4</title>
<polygon fill="white" stroke="#bfbfbf" points="62.5,-136.5 62.5,-155.5 103.5,-155.5 103.5,-136.5 62.5,-136.5"/>
<text text-anchor="middle" x="83" y="-143.5" font-family="Helvetica,sans-Serif" font-size="10.00">Color</text>
</g>
<!-- Node4&#45;&gt;Node2 -->
<g id="edge3" class="edge"><title>Node4&#45;&gt;Node2</title>
<path fill="none" stroke="#9a32cd" stroke-dasharray="5,2" d="M83,-126.041C83,-113.472 83,-97.5631 83,-87.8411"/>
<polygon fill="#9a32cd" stroke="#9a32cd" points="79.5001,-126.372 83,-136.372 86.5001,-126.372 79.5001,-126.372"/>
<text text-anchor="middle" x="121" y="-109.5" font-family="Helvetica,sans-Serif" font-size="10.00"> LETTER_COLOR</text>
</g>
<!-- Node5 -->
<g id="node5" class="node"><title>Node5</title>
<g id="a_node5"><a xlink:href="../../d0/d32/interfaceview_1_1_i_label_information.html" target="_top" xlink:title="view.ILabelInformation">
<polygon fill="white" stroke="black" points="122,-136.5 122,-155.5 244,-155.5 244,-136.5 122,-136.5"/>
<text text-anchor="middle" x="183" y="-143.5" font-family="Helvetica,sans-Serif" font-size="10.00">view.ILabelInformation</text>
</a>
</g>
</g>
<!-- Node5&#45;&gt;Node2 -->
<g id="edge4" class="edge"><title>Node5&#45;&gt;Node2</title>
<path fill="none" stroke="#9a32cd" stroke-dasharray="5,2" d="M176.235,-127.032C172.676,-119.648 167.649,-111.546 161,-106 150.766,-97.4634 137.674,-91.5659 125.151,-87.5166"/>
<polygon fill="#9a32cd" stroke="#9a32cd" points="173.061,-128.513 180.191,-136.35 179.504,-125.777 173.061,-128.513"/>
<text text-anchor="middle" x="208.5" y="-109.5" font-family="Helvetica,sans-Serif" font-size="10.00"> myTurtleQuery</text>
</g>
<!-- Node6 -->
<g id="node6" class="node"><title>Node6</title>
<polygon fill="white" stroke="#bfbfbf" points="161,-68.5 161,-87.5 199,-87.5 199,-68.5 161,-68.5"/>
<text text-anchor="middle" x="180" y="-75.5" font-family="Helvetica,sans-Serif" font-size="10.00">Font</text>
</g>
<!-- Node6&#45;&gt;Node1 -->
<g id="edge5" class="edge"><title>Node6&#45;&gt;Node1</title>
<path fill="none" stroke="#9a32cd" stroke-dasharray="5,2" d="M173.109,-58.8066C168.305,-46.1244 162.107,-29.7615 158.349,-19.8411"/>
<polygon fill="#9a32cd" stroke="#9a32cd" points="169.916,-60.2599 176.732,-68.3717 176.462,-57.7802 169.916,-60.2599"/>
<text text-anchor="middle" x="198.5" y="-41.5" font-family="Helvetica,sans-Serif" font-size="10.00"> INFO_FONT</text>
</g>
</g>
</svg>
