<?xml version="1.0" encoding="UTF-8" standalone="no"?>
<!DOCTYPE svg PUBLIC "-//W3C//DTD SVG 1.1//EN"
 "http://www.w3.org/Graphics/SVG/1.1/DTD/svg11.dtd">
<!-- Generated by graphviz version 2.36.0 (20140111.2315)
 -->
<!-- Title: model.ColorManager.setColor Pages: 1 -->
<svg width="722pt" height="87pt"
 viewBox="0.00 0.00 722.00 87.00" xmlns="http://www.w3.org/2000/svg" xmlns:xlink="http://www.w3.org/1999/xlink">
<g id="graph0" class="graph" transform="scale(1 1) rotate(0) translate(4 83)">
<title>model.ColorManager.setColor</title>
<polygon fill="white" stroke="none" points="-4,4 -4,-83 718,-83 718,4 -4,4"/>
<!-- Node1 -->
<g id="node1" class="node"><title>Node1</title>
<polygon fill="#bfbfbf" stroke="black" points="0,-29.5 0,-48.5 158,-48.5 158,-29.5 0,-29.5"/>
<text text-anchor="middle" x="79" y="-36.5" font-family="Helvetica,sans-Serif" font-size="10.00">model.ColorManager.setColor</text>
</g>
<!-- Node2 -->
<g id="node2" class="node"><title>Node2</title>
<g id="a_node2"><a xlink:href="../../d6/dda/classmodel_1_1_color_manager.html#ad0577d9d6e7ea9de0c380b057d947190" target="_top" xlink:title="model.ColorManager.Color\lManager">
<polygon fill="white" stroke="black" points="194.5,-49 194.5,-79 337.5,-79 337.5,-49 194.5,-49"/>
<text text-anchor="start" x="202.5" y="-67" font-family="Helvetica,sans-Serif" font-size="10.00">model.ColorManager.Color</text>
<text text-anchor="middle" x="266" y="-56" font-family="Helvetica,sans-Serif" font-size="10.00">Manager</text>
</a>
</g>
</g>
<!-- Node1&#45;&gt;Node2 -->
<g id="edge1" class="edge"><title>Node1&#45;&gt;Node2</title>
<path fill="none" stroke="midnightblue" d="M160.697,-49.905C171.928,-51.4227 183.395,-52.9723 194.421,-54.4623"/>
<polygon fill="midnightblue" stroke="midnightblue" points="160.847,-46.3935 150.468,-48.5227 159.909,-53.3305 160.847,-46.3935"/>
</g>
<!-- Node3 -->
<g id="node3" class="node"><title>Node3</title>
<g id="a_node3"><a xlink:href="../../d9/df7/classcontroller_1_1_controller.html#ac03add001882f876041934dfe435b43f" target="_top" xlink:title="controller.Controller.create\lSettingMenu">
<polygon fill="white" stroke="black" points="194.5,-0 194.5,-30 337.5,-30 337.5,-0 194.5,-0"/>
<text text-anchor="start" x="202.5" y="-18" font-family="Helvetica,sans-Serif" font-size="10.00">controller.Controller.create</text>
<text text-anchor="middle" x="266" y="-7" font-family="Helvetica,sans-Serif" font-size="10.00">SettingMenu</text>
</a>
</g>
</g>
<!-- Node1&#45;&gt;Node3 -->
<g id="edge2" class="edge"><title>Node1&#45;&gt;Node3</title>
<path fill="none" stroke="midnightblue" d="M163.609,-28.1535C173.903,-26.8179 184.346,-25.4632 194.421,-24.1562"/>
<polygon fill="midnightblue" stroke="midnightblue" points="162.849,-24.7226 153.383,-29.4801 163.75,-31.6644 162.849,-24.7226"/>
</g>
<!-- Node4 -->
<g id="node4" class="node"><title>Node4</title>
<g id="a_node4"><a xlink:href="../../d9/df7/classcontroller_1_1_controller.html#a2901bf43bb8e47b485558dbf00d40d6d" target="_top" xlink:title="controller.Controller.create\lJMenuBar">
<polygon fill="white" stroke="black" points="374.5,-0 374.5,-30 517.5,-30 517.5,-0 374.5,-0"/>
<text text-anchor="start" x="382.5" y="-18" font-family="Helvetica,sans-Serif" font-size="10.00">controller.Controller.create</text>
<text text-anchor="middle" x="446" y="-7" font-family="Helvetica,sans-Serif" font-size="10.00">JMenuBar</text>
</a>
</g>
</g>
<!-- Node3&#45;&gt;Node4 -->
<g id="edge3" class="edge"><title>Node3&#45;&gt;Node4</title>
<path fill="none" stroke="midnightblue" d="M347.646,-15C356.599,-15 365.666,-15 374.479,-15"/>
<polygon fill="midnightblue" stroke="midnightblue" points="347.606,-11.5001 337.606,-15 347.606,-18.5001 347.606,-11.5001"/>
</g>
<!-- Node5 -->
<g id="node5" class="node"><title>Node5</title>
<g id="a_node5"><a xlink:href="../../d9/df7/classcontroller_1_1_controller.html#a47511ec57338c8e75e71e9314cda5271" target="_top" xlink:title="controller.Controller.Controller">
<polygon fill="white" stroke="black" points="554.5,-5.5 554.5,-24.5 713.5,-24.5 713.5,-5.5 554.5,-5.5"/>
<text text-anchor="middle" x="634" y="-12.5" font-family="Helvetica,sans-Serif" font-size="10.00">controller.Controller.Controller</text>
</a>
</g>
</g>
<!-- Node4&#45;&gt;Node5 -->
<g id="edge4" class="edge"><title>Node4&#45;&gt;Node5</title>
<path fill="none" stroke="midnightblue" d="M527.836,-15C536.644,-15 545.599,-15 554.38,-15"/>
<polygon fill="midnightblue" stroke="midnightblue" points="527.584,-11.5001 517.584,-15 527.584,-18.5001 527.584,-11.5001"/>
</g>
</g>
</svg>
