<?xml version="1.0" encoding="UTF-8" standalone="no"?>
<!DOCTYPE svg PUBLIC "-//W3C//DTD SVG 1.1//EN"
 "http://www.w3.org/Graphics/SVG/1.1/DTD/svg11.dtd">
<!-- Generated by graphviz version 2.36.0 (20140111.2315)
 -->
<!-- Title: controller.WSUndoManager Pages: 1 -->
<svg width="1292pt" height="897pt"
 viewBox="0.00 0.00 1292.00 897.00" xmlns="http://www.w3.org/2000/svg" xmlns:xlink="http://www.w3.org/1999/xlink">
<g id="graph0" class="graph" transform="scale(1 1) rotate(0) translate(4 893)">
<title>controller.WSUndoManager</title>
<polygon fill="white" stroke="none" points="-4,4 -4,-893 1288,-893 1288,4 -4,4"/>
<!-- Node1 -->
<g id="node1" class="node"><title>Node1</title>
<polygon fill="#bfbfbf" stroke="black" points="892,-36.5 892,-55.5 1038,-55.5 1038,-36.5 892,-36.5"/>
<text text-anchor="middle" x="965" y="-43.5" font-family="Helvetica,sans-Serif" font-size="10.00">controller.WSUndoManager</text>
</g>
<!-- Node3 -->
<g id="node3" class="node"><title>Node3</title>
<g id="a_node3"><a xlink:href="../../de/d84/classcontroller_1_1_workspace.html" target="_top" xlink:title="controller.Workspace">
<polygon fill="white" stroke="black" points="1168.5,-243.5 1168.5,-262.5 1283.5,-262.5 1283.5,-243.5 1168.5,-243.5"/>
<text text-anchor="middle" x="1226" y="-250.5" font-family="Helvetica,sans-Serif" font-size="10.00">controller.Workspace</text>
</a>
</g>
</g>
<!-- Node1&#45;&gt;Node3 -->
<g id="edge8" class="edge"><title>Node1&#45;&gt;Node3</title>
<path fill="none" stroke="#9a32cd" stroke-dasharray="5,2" d="M1003.54,-33.7481C1043.62,-23.1627 1107.13,-13.8349 1150,-44 1218.42,-92.137 1224.73,-208.838 1225.07,-243.278"/>
<polygon fill="#9a32cd" stroke="#9a32cd" points="1002.57,-30.3838 993.883,-36.4431 1004.46,-37.1262 1002.57,-30.3838"/>
<text text-anchor="middle" x="1105" y="-47" font-family="Helvetica,sans-Serif" font-size="10.00"> myUndoManager</text>
</g>
<!-- Node2 -->
<g id="node2" class="node"><title>Node2</title>
<polygon fill="white" stroke="#bfbfbf" points="620,-49.5 620,-68.5 704,-68.5 704,-49.5 620,-49.5"/>
<text text-anchor="middle" x="662" y="-56.5" font-family="Helvetica,sans-Serif" font-size="10.00">UndoManager</text>
</g>
<!-- Node2&#45;&gt;Node1 -->
<g id="edge1" class="edge"><title>Node2&#45;&gt;Node1</title>
<path fill="none" stroke="midnightblue" d="M714.242,-56.7869C763.064,-54.6783 837.037,-51.4834 891.819,-49.1175"/>
<polygon fill="midnightblue" stroke="midnightblue" points="714.061,-53.2913 704.222,-57.2197 714.363,-60.2848 714.061,-53.2913"/>
</g>
<!-- Node3&#45;&gt;Node1 -->
<g id="edge2" class="edge"><title>Node3&#45;&gt;Node1</title>
<path fill="none" stroke="#9a32cd" stroke-dasharray="5,2" d="M1222.07,-233.088C1215.72,-197.523 1197.29,-123.234 1150,-85 1132.73,-71.0397 1081.88,-60.9053 1038,-54.4719"/>
<polygon fill="#9a32cd" stroke="#9a32cd" points="1218.65,-233.878 1223.72,-243.18 1225.56,-232.745 1218.65,-233.878"/>
<text text-anchor="middle" x="1105" y="-88" font-family="Helvetica,sans-Serif" font-size="10.00"> myWorkspace</text>
</g>
<!-- Node4 -->
<g id="node4" class="node"><title>Node4</title>
<polygon fill="white" stroke="#bfbfbf" points="626.5,-650.5 626.5,-669.5 697.5,-669.5 697.5,-650.5 626.5,-650.5"/>
<text text-anchor="middle" x="662" y="-657.5" font-family="Helvetica,sans-Serif" font-size="10.00">Observable</text>
</g>
<!-- Node4&#45;&gt;Node3 -->
<g id="edge3" class="edge"><title>Node4&#45;&gt;Node3</title>
<path fill="none" stroke="midnightblue" d="M707.817,-657.498C751.145,-653.641 817.73,-643.846 870,-619 1015.96,-549.618 1046.56,-511.171 1150,-387 1184.64,-345.418 1211.5,-285.523 1221.14,-262.506"/>
<polygon fill="midnightblue" stroke="midnightblue" points="707.275,-654.031 697.595,-658.337 707.847,-661.007 707.275,-654.031"/>
</g>
<!-- Node15 -->
<g id="node15" class="node"><title>Node15</title>
<g id="a_node15"><a xlink:href="../../d8/dff/classmodel_1_1_turtle_manager.html" target="_top" xlink:title="model.TurtleManager">
<polygon fill="white" stroke="black" points="906.5,-367.5 906.5,-386.5 1023.5,-386.5 1023.5,-367.5 906.5,-367.5"/>
<text text-anchor="middle" x="965" y="-374.5" font-family="Helvetica,sans-Serif" font-size="10.00">model.TurtleManager</text>
</a>
</g>
</g>
<!-- Node4&#45;&gt;Node15 -->
<g id="edge16" class="edge"><title>Node4&#45;&gt;Node15</title>
<path fill="none" stroke="midnightblue" d="M707.572,-651.847C753.381,-641.404 824.286,-619.232 870,-576 929.409,-519.817 955.18,-418.505 962.037,-386.775"/>
<polygon fill="midnightblue" stroke="midnightblue" points="706.653,-648.465 697.631,-654.019 708.147,-655.304 706.653,-648.465"/>
</g>
<!-- Node5 -->
<g id="node5" class="node"><title>Node5</title>
<g id="a_node5"><a xlink:href="../../dc/d3c/interfacemodel_1_1_paintable.html" target="_top" xlink:title="model.Paintable">
<polygon fill="white" stroke="black" points="311.5,-869.5 311.5,-888.5 404.5,-888.5 404.5,-869.5 311.5,-869.5"/>
<text text-anchor="middle" x="358" y="-876.5" font-family="Helvetica,sans-Serif" font-size="10.00">model.Paintable</text>
</a>
</g>
</g>
<!-- Node5&#45;&gt;Node3 -->
<g id="edge4" class="edge"><title>Node5&#45;&gt;Node3</title>
<path fill="none" stroke="midnightblue" d="M414.836,-885.598C454.907,-889.072 510.065,-891.271 558,-884 789.14,-848.938 865.616,-831.44 1042,-678 1180.19,-557.786 1217.39,-314.588 1223.87,-262.826"/>
<polygon fill="midnightblue" stroke="midnightblue" points="415.009,-882.099 404.73,-884.667 414.367,-889.069 415.009,-882.099"/>
</g>
<!-- Node5&#45;&gt;Node15 -->
<g id="edge17" class="edge"><title>Node5&#45;&gt;Node15</title>
<path fill="none" stroke="midnightblue" d="M414.75,-880.283C455.223,-879.835 510.911,-876.344 558,-863 649.221,-837.151 673.982,-825.252 748,-766 814.282,-712.941 827.638,-692.579 870,-619 881.576,-598.894 879.749,-591.684 888,-570 914.894,-499.32 948.806,-414.727 960.125,-386.609"/>
<polygon fill="midnightblue" stroke="midnightblue" points="414.524,-876.784 404.542,-880.335 414.56,-883.784 414.524,-876.784"/>
</g>
<!-- Node17 -->
<g id="node17" class="node"><title>Node17</title>
<g id="a_node17"><a xlink:href="../../d6/d34/classmodel_1_1_turtle.html" target="_top" xlink:title="model.Turtle">
<polygon fill="white" stroke="black" points="624.5,-428.5 624.5,-447.5 699.5,-447.5 699.5,-428.5 624.5,-428.5"/>
<text text-anchor="middle" x="662" y="-435.5" font-family="Helvetica,sans-Serif" font-size="10.00">model.Turtle</text>
</a>
</g>
</g>
<!-- Node5&#45;&gt;Node17 -->
<g id="edge20" class="edge"><title>Node5&#45;&gt;Node17</title>
<path fill="none" stroke="midnightblue" d="M414.309,-869.936C421.927,-866.426 428.879,-861.607 434,-855 476.545,-800.109 409.942,-598.265 452,-543 482.131,-503.407 513.392,-529.036 558,-507 593.121,-489.651 630.364,-462.095 648.96,-447.614"/>
<polygon fill="midnightblue" stroke="midnightblue" points="412.847,-866.748 404.766,-873.599 415.356,-873.283 412.847,-866.748"/>
</g>
<!-- Node31 -->
<g id="node31" class="node"><title>Node31</title>
<g id="a_node31"><a xlink:href="../../d8/ddd/classview_1_1_canvas.html" target="_top" xlink:title="view.Canvas">
<polygon fill="white" stroke="black" points="625,-737.5 625,-756.5 699,-756.5 699,-737.5 625,-737.5"/>
<text text-anchor="middle" x="662" y="-744.5" font-family="Helvetica,sans-Serif" font-size="10.00">view.Canvas</text>
</a>
</g>
</g>
<!-- Node5&#45;&gt;Node31 -->
<g id="edge40" class="edge"><title>Node5&#45;&gt;Node31</title>
<path fill="none" stroke="#9a32cd" stroke-dasharray="5,2" d="M399.577,-866.561C415.811,-861.758 434.724,-856.376 452,-852 498.731,-840.162 515.683,-852.092 558,-829 567.931,-823.581 567.46,-818.421 576,-811 599.843,-790.281 629.759,-768.686 646.996,-756.629"/>
<polygon fill="#9a32cd" stroke="#9a32cd" points="398.435,-863.249 389.854,-869.464 400.438,-869.957 398.435,-863.249"/>
<text text-anchor="middle" x="505" y="-855" font-family="Helvetica,sans-Serif" font-size="10.00"> myPaintingResource</text>
</g>
<!-- Node6 -->
<g id="node6" class="node"><title>Node6</title>
<g id="a_node6"><a xlink:href="../../dd/da7/interfaceparser_1_1_i_parser_provider.html" target="_top" xlink:title="parser.IParserProvider">
<polygon fill="white" stroke="black" points="904.5,-281.5 904.5,-300.5 1025.5,-300.5 1025.5,-281.5 904.5,-281.5"/>
<text text-anchor="middle" x="965" y="-288.5" font-family="Helvetica,sans-Serif" font-size="10.00">parser.IParserProvider</text>
</a>
</g>
</g>
<!-- Node6&#45;&gt;Node3 -->
<g id="edge5" class="edge"><title>Node6&#45;&gt;Node3</title>
<path fill="none" stroke="midnightblue" d="M1035.75,-282.817C1070.2,-278.542 1112.35,-272.964 1150,-267 1158.5,-265.653 1167.52,-264.087 1176.25,-262.501"/>
<polygon fill="midnightblue" stroke="midnightblue" points="1035.28,-279.348 1025.78,-284.044 1036.14,-286.296 1035.28,-279.348"/>
</g>
<!-- Node7 -->
<g id="node7" class="node"><title>Node7</title>
<g id="a_node7"><a xlink:href="../../dc/d3c/interfacecontroller_1_1support_1_1_i_error.html" target="_top" xlink:title="controller.support.IError">
<polygon fill="white" stroke="black" points="900.5,-243.5 900.5,-262.5 1029.5,-262.5 1029.5,-243.5 900.5,-243.5"/>
<text text-anchor="middle" x="965" y="-250.5" font-family="Helvetica,sans-Serif" font-size="10.00">controller.support.IError</text>
</a>
</g>
</g>
<!-- Node7&#45;&gt;Node3 -->
<g id="edge6" class="edge"><title>Node7&#45;&gt;Node3</title>
<path fill="none" stroke="midnightblue" d="M1039.85,-253C1080.62,-253 1130.47,-253 1168.18,-253"/>
<polygon fill="midnightblue" stroke="midnightblue" points="1039.69,-249.5 1029.69,-253 1039.69,-256.5 1039.69,-249.5"/>
</g>
<!-- Node8 -->
<g id="node8" class="node"><title>Node8</title>
<polygon fill="white" stroke="#bfbfbf" points="918.5,-205.5 918.5,-224.5 1011.5,-224.5 1011.5,-205.5 918.5,-205.5"/>
<text text-anchor="middle" x="965" y="-212.5" font-family="Helvetica,sans-Serif" font-size="10.00">ResourceBundle</text>
</g>
<!-- Node8&#45;&gt;Node3 -->
<g id="edge7" class="edge"><title>Node8&#45;&gt;Node3</title>
<path fill="none" stroke="#9a32cd" stroke-dasharray="5,2" d="M1021.48,-220.866C1058.07,-224.998 1107.01,-231.024 1150,-238 1159.7,-239.574 1170.06,-241.491 1179.88,-243.422"/>
<polygon fill="#9a32cd" stroke="#9a32cd" points="1021.83,-217.383 1011.5,-219.752 1021.05,-224.34 1021.83,-217.383"/>
<text text-anchor="middle" x="1105" y="-241" font-family="Helvetica,sans-Serif" font-size="10.00"> myErrorResource</text>
</g>
<!-- Node9 -->
<g id="node9" class="node"><title>Node9</title>
<polygon fill="white" stroke="#bfbfbf" points="923,-167.5 923,-186.5 1007,-186.5 1007,-167.5 923,-167.5"/>
<text text-anchor="middle" x="965" y="-174.5" font-family="Helvetica,sans-Serif" font-size="10.00">List&lt; String &gt;</text>
</g>
<!-- Node9&#45;&gt;Node3 -->
<g id="edge9" class="edge"><title>Node9&#45;&gt;Node3</title>
<path fill="none" stroke="#9a32cd" stroke-dasharray="5,2" d="M1017.41,-181.931C1054.98,-186.622 1106.71,-195.365 1150,-211 1172.74,-219.213 1196.73,-233.85 1211.29,-243.492"/>
<polygon fill="#9a32cd" stroke="#9a32cd" points="1017.55,-178.424 1007.21,-180.713 1016.72,-185.374 1017.55,-178.424"/>
<text text-anchor="middle" x="1105" y="-214" font-family="Helvetica,sans-Serif" font-size="10.00"> myHistory</text>
</g>
<!-- Node10 -->
<g id="node10" class="node"><title>Node10</title>
<g id="a_node10"><a xlink:href="../../db/d29/classparser_1_1_variable_manager.html" target="_top" xlink:title="parser.VariableManager">
<polygon fill="white" stroke="black" points="900,-129.5 900,-148.5 1030,-148.5 1030,-129.5 900,-129.5"/>
<text text-anchor="middle" x="965" y="-136.5" font-family="Helvetica,sans-Serif" font-size="10.00">parser.VariableManager</text>
</a>
</g>
</g>
<!-- Node10&#45;&gt;Node3 -->
<g id="edge10" class="edge"><title>Node10&#45;&gt;Node3</title>
<path fill="none" stroke="#9a32cd" stroke-dasharray="5,2" d="M1040.34,-142.633C1075.33,-146.901 1116.62,-155.778 1150,-174 1181.54,-191.216 1207.58,-226.394 1218.9,-243.388"/>
<polygon fill="#9a32cd" stroke="#9a32cd" points="1040.49,-139.129 1030.17,-141.499 1039.72,-146.086 1040.49,-139.129"/>
<text text-anchor="middle" x="1105" y="-177" font-family="Helvetica,sans-Serif" font-size="10.00"> myVariables</text>
</g>
<!-- Node11 -->
<g id="node11" class="node"><title>Node11</title>
<polygon fill="white" stroke="#bfbfbf" points="576,-138.5 576,-157.5 748,-157.5 748,-138.5 576,-138.5"/>
<text text-anchor="middle" x="662" y="-145.5" font-family="Helvetica,sans-Serif" font-size="10.00">Deque&lt; parser.VariableScope &gt;</text>
</g>
<!-- Node11&#45;&gt;Node10 -->
<g id="edge11" class="edge"><title>Node11&#45;&gt;Node10</title>
<path fill="none" stroke="#9a32cd" stroke-dasharray="5,2" d="M758.071,-145.157C804.235,-143.777 858.487,-142.155 899.714,-140.922"/>
<polygon fill="#9a32cd" stroke="#9a32cd" points="757.938,-141.66 748.048,-145.457 758.148,-148.657 757.938,-141.66"/>
<text text-anchor="middle" x="818" y="-148" font-family="Helvetica,sans-Serif" font-size="10.00"> myScopes</text>
</g>
<!-- Node12 -->
<g id="node12" class="node"><title>Node12</title>
<g id="a_node12"><a xlink:href="../../da/d34/classparser_1_1_variable_scope.html" target="_top" xlink:title="parser.VariableScope">
<polygon fill="white" stroke="black" points="603,-100.5 603,-119.5 721,-119.5 721,-100.5 603,-100.5"/>
<text text-anchor="middle" x="662" y="-107.5" font-family="Helvetica,sans-Serif" font-size="10.00">parser.VariableScope</text>
</a>
</g>
</g>
<!-- Node12&#45;&gt;Node10 -->
<g id="edge12" class="edge"><title>Node12&#45;&gt;Node10</title>
<path fill="none" stroke="#9a32cd" stroke-dasharray="5,2" d="M731.072,-114.815C771.487,-117.867 823.716,-122.148 870,-127 879.654,-128.012 889.851,-129.195 899.827,-130.416"/>
<polygon fill="#9a32cd" stroke="#9a32cd" points="731.296,-111.322 721.062,-114.066 730.773,-118.303 731.296,-111.322"/>
<text text-anchor="middle" x="818" y="-130" font-family="Helvetica,sans-Serif" font-size="10.00"> myGlobal</text>
</g>
<!-- Node13 -->
<g id="node13" class="node"><title>Node13</title>
<polygon fill="white" stroke="#bfbfbf" points="294,-100.5 294,-119.5 422,-119.5 422,-100.5 294,-100.5"/>
<text text-anchor="middle" x="358" y="-107.5" font-family="Helvetica,sans-Serif" font-size="10.00">Map&lt; String, Integer &gt;</text>
</g>
<!-- Node13&#45;&gt;Node12 -->
<g id="edge13" class="edge"><title>Node13&#45;&gt;Node12</title>
<path fill="none" stroke="#9a32cd" stroke-dasharray="5,2" d="M432.547,-110C484.933,-110 554.372,-110 602.889,-110"/>
<polygon fill="#9a32cd" stroke="#9a32cd" points="432.309,-106.5 422.309,-110 432.309,-113.5 432.309,-106.5"/>
<text text-anchor="middle" x="505" y="-113" font-family="Helvetica,sans-Serif" font-size="10.00"> myVariables</text>
</g>
<!-- Node14 -->
<g id="node14" class="node"><title>Node14</title>
<polygon fill="white" stroke="#bfbfbf" points="888.5,-80 888.5,-110 1041.5,-110 1041.5,-80 888.5,-80"/>
<text text-anchor="start" x="896.5" y="-98" font-family="Helvetica,sans-Serif" font-size="10.00">Map&lt; String, parser.Custom</text>
<text text-anchor="middle" x="965" y="-87" font-family="Helvetica,sans-Serif" font-size="10.00">Command &gt;</text>
</g>
<!-- Node14&#45;&gt;Node3 -->
<g id="edge14" class="edge"><title>Node14&#45;&gt;Node3</title>
<path fill="none" stroke="#9a32cd" stroke-dasharray="5,2" d="M1051.82,-97.8624C1084.88,-102.474 1121.5,-112.204 1150,-132 1191.2,-160.626 1214.22,-219.938 1221.99,-243.269"/>
<polygon fill="#9a32cd" stroke="#9a32cd" points="1052.04,-94.3633 1041.69,-96.5899 1051.17,-101.309 1052.04,-94.3633"/>
<text text-anchor="middle" x="1105" y="-135" font-family="Helvetica,sans-Serif" font-size="10.00"> myCommandMap</text>
</g>
<!-- Node15&#45;&gt;Node3 -->
<g id="edge15" class="edge"><title>Node15&#45;&gt;Node3</title>
<path fill="none" stroke="#9a32cd" stroke-dasharray="5,2" d="M1033.9,-375.493C1070.43,-372.062 1115.02,-363.469 1150,-343 1184.06,-323.073 1209.57,-281.663 1219.93,-262.773"/>
<polygon fill="#9a32cd" stroke="#9a32cd" points="1033.51,-372.014 1023.83,-376.329 1034.09,-378.99 1033.51,-372.014"/>
<text text-anchor="middle" x="1105" y="-375" font-family="Helvetica,sans-Serif" font-size="10.00"> myTurtleManager</text>
</g>
<!-- Node16 -->
<g id="node16" class="node"><title>Node16</title>
<polygon fill="white" stroke="#bfbfbf" points="577,-224.5 577,-243.5 747,-243.5 747,-224.5 577,-224.5"/>
<text text-anchor="middle" x="662" y="-231.5" font-family="Helvetica,sans-Serif" font-size="10.00">Map&lt; Integer, BufferedImage &gt;</text>
</g>
<!-- Node16&#45;&gt;Node15 -->
<g id="edge18" class="edge"><title>Node16&#45;&gt;Node15</title>
<path fill="none" stroke="#9a32cd" stroke-dasharray="5,2" d="M708.066,-222.435C754.513,-213.452 826.148,-208.221 870,-247 902.519,-275.757 861.12,-308.913 888,-343 897.13,-354.577 911.049,-362.326 924.492,-367.46"/>
<polygon fill="#9a32cd" stroke="#9a32cd" points="707.356,-219.008 698.27,-224.458 708.771,-225.864 707.356,-219.008"/>
<text text-anchor="middle" x="818" y="-250" font-family="Helvetica,sans-Serif" font-size="10.00"> myTurtleImages</text>
</g>
<!-- Node17&#45;&gt;Node15 -->
<g id="edge19" class="edge"><title>Node17&#45;&gt;Node15</title>
<path fill="none" stroke="#9a32cd" stroke-dasharray="5,2" d="M709.833,-431.48C751.962,-425.283 815.437,-415.125 870,-403 890.992,-398.335 914.29,-391.9 932.44,-386.599"/>
<polygon fill="#9a32cd" stroke="#9a32cd" points="709.256,-428.027 699.865,-432.931 710.264,-434.954 709.256,-428.027"/>
<text text-anchor="middle" x="818" y="-426" font-family="Helvetica,sans-Serif" font-size="10.00"> myCurrent</text>
</g>
<!-- Node18 -->
<g id="node18" class="node"><title>Node18</title>
<g id="a_node18"><a xlink:href="../../df/dca/interfacemodel_1_1_i_state.html" target="_top" xlink:title="model.IState">
<polygon fill="white" stroke="black" points="319,-505.5 319,-524.5 397,-524.5 397,-505.5 319,-505.5"/>
<text text-anchor="middle" x="358" y="-512.5" font-family="Helvetica,sans-Serif" font-size="10.00">model.IState</text>
</a>
</g>
</g>
<!-- Node18&#45;&gt;Node17 -->
<g id="edge21" class="edge"><title>Node18&#45;&gt;Node17</title>
<path fill="none" stroke="midnightblue" d="M407.207,-510.278C447.962,-505.514 507.592,-496.715 558,-482 588.612,-473.064 622.274,-457.519 642.515,-447.501"/>
<polygon fill="midnightblue" stroke="midnightblue" points="406.555,-506.83 397.012,-511.432 407.342,-513.785 406.555,-506.83"/>
</g>
<!-- Node19 -->
<g id="node19" class="node"><title>Node19</title>
<g id="a_node19"><a xlink:href="../../d4/d67/classutil_1_1_vector.html" target="_top" xlink:title="util.Vector">
<polygon fill="white" stroke="black" points="325.5,-467.5 325.5,-486.5 390.5,-486.5 390.5,-467.5 325.5,-467.5"/>
<text text-anchor="middle" x="358" y="-474.5" font-family="Helvetica,sans-Serif" font-size="10.00">util.Vector</text>
</a>
</g>
</g>
<!-- Node19&#45;&gt;Node17 -->
<g id="edge22" class="edge"><title>Node19&#45;&gt;Node17</title>
<path fill="none" stroke="#9a32cd" stroke-dasharray="5,2" d="M400.752,-472.654C441.059,-468.345 503.786,-461.341 558,-454 580.057,-451.013 604.696,-447.203 624.345,-444.05"/>
<polygon fill="#9a32cd" stroke="#9a32cd" points="400.33,-469.179 390.756,-473.716 401.07,-476.14 400.33,-469.179"/>
<text text-anchor="middle" x="505" y="-470" font-family="Helvetica,sans-Serif" font-size="10.00"> myHeading</text>
</g>
<!-- Node20 -->
<g id="node20" class="node"><title>Node20</title>
<g id="a_node20"><a xlink:href="../../d7/d1e/classutil_1_1_location.html" target="_top" xlink:title="util.Location">
<polygon fill="white" stroke="black" points="321,-345.5 321,-364.5 395,-364.5 395,-345.5 321,-345.5"/>
<text text-anchor="middle" x="358" y="-352.5" font-family="Helvetica,sans-Serif" font-size="10.00">util.Location</text>
</a>
</g>
</g>
<!-- Node20&#45;&gt;Node17 -->
<g id="edge23" class="edge"><title>Node20&#45;&gt;Node17</title>
<path fill="none" stroke="#9a32cd" stroke-dasharray="5,2" d="M404.949,-362.398C445.647,-369.492 506.43,-381.419 558,-397 587.11,-405.795 619.522,-419.352 640.072,-428.442"/>
<polygon fill="#9a32cd" stroke="#9a32cd" points="405.5,-358.941 395.052,-360.699 404.316,-365.84 405.5,-358.941"/>
<text text-anchor="middle" x="505" y="-400" font-family="Helvetica,sans-Serif" font-size="10.00"> myCenter</text>
</g>
<!-- Node21 -->
<g id="node21" class="node"><title>Node21</title>
<polygon fill="white" stroke="#bfbfbf" points="23,-237.5 23,-256.5 117,-256.5 117,-237.5 23,-237.5"/>
<text text-anchor="middle" x="70" y="-244.5" font-family="Helvetica,sans-Serif" font-size="10.00">Point2D::Double</text>
</g>
<!-- Node21&#45;&gt;Node20 -->
<g id="edge24" class="edge"><title>Node21&#45;&gt;Node20</title>
<path fill="none" stroke="midnightblue" d="M101.654,-260.644C142.383,-278.505 216.797,-310.215 282,-333 294.81,-337.476 309.056,-341.812 321.662,-345.435"/>
<polygon fill="midnightblue" stroke="midnightblue" points="102.853,-257.347 92.29,-256.521 100.032,-263.754 102.853,-257.347"/>
</g>
<!-- Node22 -->
<g id="node22" class="node"><title>Node22</title>
<polygon fill="white" stroke="#bfbfbf" points="36,-377.5 36,-396.5 104,-396.5 104,-377.5 36,-377.5"/>
<text text-anchor="middle" x="70" y="-384.5" font-family="Helvetica,sans-Serif" font-size="10.00">Dimension</text>
</g>
<!-- Node22&#45;&gt;Node20 -->
<g id="edge25" class="edge"><title>Node22&#45;&gt;Node20</title>
<path fill="none" stroke="#9a32cd" stroke-dasharray="5,2" d="M101.162,-373.415C117.599,-366.744 138.513,-359.419 158,-356 214.148,-346.15 280.587,-348.582 320.725,-351.555"/>
<polygon fill="#9a32cd" stroke="#9a32cd" points="99.4256,-370.348 91.5581,-377.444 102.134,-376.803 99.4256,-370.348"/>
<text text-anchor="middle" x="211" y="-359" font-family="Helvetica,sans-Serif" font-size="10.00"> myCanvasDimension</text>
</g>
<!-- Node22&#45;&gt;Node31 -->
<g id="edge44" class="edge"><title>Node22&#45;&gt;Node31</title>
<path fill="none" stroke="#9a32cd" stroke-dasharray="5,2" d="M108.711,-401.131C120.473,-407.338 132.354,-415.816 140,-427 169.445,-470.069 141.059,-493.655 158,-543 194.824,-650.258 184.25,-708.509 282,-766 399.266,-834.97 573.953,-780.309 637.123,-756.592"/>
<polygon fill="#9a32cd" stroke="#9a32cd" points="109.915,-397.826 99.3876,-396.632 106.873,-404.13 109.915,-397.826"/>
<text text-anchor="middle" x="358" y="-802" font-family="Helvetica,sans-Serif" font-size="10.00"> DEFAULT_CANVAS_DIMENSION</text>
</g>
<!-- Node23 -->
<g id="node23" class="node"><title>Node23</title>
<polygon fill="white" stroke="#bfbfbf" points="314.5,-304.5 314.5,-323.5 401.5,-323.5 401.5,-304.5 314.5,-304.5"/>
<text text-anchor="middle" x="358" y="-311.5" font-family="Helvetica,sans-Serif" font-size="10.00">BufferedImage</text>
</g>
<!-- Node23&#45;&gt;Node15 -->
<g id="edge36" class="edge"><title>Node23&#45;&gt;Node15</title>
<path fill="none" stroke="#9a32cd" stroke-dasharray="5,2" d="M411.861,-315.233C452.006,-316.45 508.55,-318.766 558,-323 682.692,-333.678 827.831,-355.197 906.366,-367.604"/>
<polygon fill="#9a32cd" stroke="#9a32cd" points="411.863,-311.732 401.766,-314.94 411.66,-318.729 411.863,-311.732"/>
<text text-anchor="middle" x="662" y="-347" font-family="Helvetica,sans-Serif" font-size="10.00"> myImage</text>
</g>
<!-- Node23&#45;&gt;Node17 -->
<g id="edge26" class="edge"><title>Node23&#45;&gt;Node17</title>
<path fill="none" stroke="#9a32cd" stroke-dasharray="5,2" d="M411.783,-320.029C462.89,-326.799 535.809,-339.216 558,-357 572.897,-368.938 562.681,-382.323 576,-396 590.814,-411.212 612.282,-421.758 629.936,-428.478"/>
<polygon fill="#9a32cd" stroke="#9a32cd" points="411.92,-316.518 401.555,-318.711 411.025,-323.461 411.92,-316.518"/>
<text text-anchor="middle" x="505" y="-360" font-family="Helvetica,sans-Serif" font-size="10.00"> myImage</text>
</g>
<!-- Node24 -->
<g id="node24" class="node"><title>Node24</title>
<g id="a_node24"><a xlink:href="../../de/ded/classmodel_1_1_pen.html" target="_top" xlink:title="model.Pen">
<polygon fill="white" stroke="black" points="324,-429.5 324,-448.5 392,-448.5 392,-429.5 324,-429.5"/>
<text text-anchor="middle" x="358" y="-436.5" font-family="Helvetica,sans-Serif" font-size="10.00">model.Pen</text>
</a>
</g>
</g>
<!-- Node24&#45;&gt;Node17 -->
<g id="edge27" class="edge"><title>Node24&#45;&gt;Node17</title>
<path fill="none" stroke="#9a32cd" stroke-dasharray="5,2" d="M402.416,-438.856C462.15,-438.658 568.616,-438.306 624.48,-438.121"/>
<polygon fill="#9a32cd" stroke="#9a32cd" points="402.171,-435.357 392.183,-438.89 402.195,-442.357 402.171,-435.357"/>
<text text-anchor="middle" x="505" y="-442" font-family="Helvetica,sans-Serif" font-size="10.00"> myPen</text>
</g>
<!-- Node25 -->
<g id="node25" class="node"><title>Node25</title>
<polygon fill="white" stroke="#bfbfbf" points="49.5,-298.5 49.5,-317.5 90.5,-317.5 90.5,-298.5 49.5,-298.5"/>
<text text-anchor="middle" x="70" y="-305.5" font-family="Helvetica,sans-Serif" font-size="10.00">Color</text>
</g>
<!-- Node25&#45;&gt;Node15 -->
<g id="edge33" class="edge"><title>Node25&#45;&gt;Node15</title>
<path fill="none" stroke="#9a32cd" stroke-dasharray="5,2" d="M100.857,-305.802C141.72,-302.876 217.372,-297.75 282,-295 357.508,-291.787 376.429,-291.889 452,-291 499.108,-290.446 511.033,-287.315 558,-291 643.229,-297.687 663.763,-306.413 748,-321 802.368,-330.415 816.705,-329.709 870,-344 894.223,-350.495 921.163,-360.22 939.97,-367.431"/>
<polygon fill="#9a32cd" stroke="#9a32cd" points="100.49,-302.319 90.7682,-306.53 100.994,-309.301 100.49,-302.319"/>
<text text-anchor="middle" x="505" y="-305" font-family="Helvetica,sans-Serif" font-size="10.00"> INITIAL_GRAD_COLOR</text>
<text text-anchor="middle" x="505" y="-294" font-family="Helvetica,sans-Serif" font-size="10.00">FINAL_GRAD_COLOR</text>
</g>
<!-- Node25&#45;&gt;Node24 -->
<g id="edge28" class="edge"><title>Node25&#45;&gt;Node24</title>
<path fill="none" stroke="#9a32cd" stroke-dasharray="5,2" d="M89.9249,-324.003C106.756,-337.428 132.573,-356.106 158,-367 202.311,-385.985 224.822,-361.911 264,-390 276.637,-399.06 269.521,-410.724 282,-420 294.074,-428.975 309.938,-433.734 323.966,-436.247"/>
<polygon fill="#9a32cd" stroke="#9a32cd" points="91.9531,-321.141 81.9922,-317.531 87.5278,-326.565 91.9531,-321.141"/>
<text text-anchor="middle" x="211" y="-393" font-family="Helvetica,sans-Serif" font-size="10.00"> myCurrentColor</text>
</g>
<!-- Node25&#45;&gt;Node31 -->
<g id="edge41" class="edge"><title>Node25&#45;&gt;Node31</title>
<path fill="none" stroke="#9a32cd" stroke-dasharray="5,2" d="M92.7379,-323.627C107.314,-334.842 126.28,-350.936 140,-368 150.469,-381.02 145.261,-390.191 158,-401 196.047,-433.284 231.468,-400.164 264,-438 292.301,-470.916 255.676,-499.482 282,-534 327.563,-593.745 367.69,-572.668 434,-608 490.242,-637.968 503.717,-646.615 558,-680 590.162,-699.78 627.089,-724.237 646.816,-737.448"/>
<polygon fill="#9a32cd" stroke="#9a32cd" points="94.8337,-320.823 84.7359,-317.616 90.6298,-326.421 94.8337,-320.823"/>
<text text-anchor="middle" x="358" y="-644" font-family="Helvetica,sans-Serif" font-size="10.00"> DEFAULT_BACKGROUND</text>
<text text-anchor="middle" x="358" y="-633" font-family="Helvetica,sans-Serif" font-size="10.00">myBackgroundColor</text>
<text text-anchor="start" x="298" y="-622" font-family="Helvetica,sans-Serif" font-size="10.00">DEFAULT_BACKGROUND</text>
<text text-anchor="middle" x="358" y="-611" font-family="Helvetica,sans-Serif" font-size="10.00">_COLOR</text>
</g>
<!-- Node35 -->
<g id="node35" class="node"><title>Node35</title>
<g id="a_node35"><a xlink:href="../../d6/dda/classmodel_1_1_color_manager.html" target="_top" xlink:title="model.ColorManager">
<polygon fill="white" stroke="black" points="300,-186.5 300,-205.5 416,-205.5 416,-186.5 300,-186.5"/>
<text text-anchor="middle" x="358" y="-193.5" font-family="Helvetica,sans-Serif" font-size="10.00">model.ColorManager</text>
</a>
</g>
</g>
<!-- Node25&#45;&gt;Node35 -->
<g id="edge47" class="edge"><title>Node25&#45;&gt;Node35</title>
<path fill="none" stroke="#9a32cd" stroke-dasharray="5,2" d="M98.7561,-293.359C111.813,-285.918 127.272,-276.284 140,-266 149.048,-258.689 147.973,-252.897 158,-247 201.654,-221.325 258.107,-208.442 299.729,-202.059"/>
<polygon fill="#9a32cd" stroke="#9a32cd" points="96.7865,-290.449 89.7466,-298.367 100.187,-296.568 96.7865,-290.449"/>
<text text-anchor="middle" x="211" y="-250" font-family="Helvetica,sans-Serif" font-size="10.00"> DEFAULT_COLORS</text>
</g>
<!-- Node26 -->
<g id="node26" class="node"><title>Node26</title>
<polygon fill="white" stroke="#bfbfbf" points="46,-543.5 46,-562.5 94,-562.5 94,-543.5 46,-543.5"/>
<text text-anchor="middle" x="70" y="-550.5" font-family="Helvetica,sans-Serif" font-size="10.00">Stroke</text>
</g>
<!-- Node26&#45;&gt;Node15 -->
<g id="edge34" class="edge"><title>Node26&#45;&gt;Node15</title>
<path fill="none" stroke="#9a32cd" stroke-dasharray="5,2" d="M104.054,-554.043C216.352,-556.404 591.687,-554.568 870,-438 902.12,-424.547 935.279,-400.084 952.321,-386.585"/>
<polygon fill="#9a32cd" stroke="#9a32cd" points="104.1,-550.543 94.02,-553.805 103.934,-557.541 104.1,-550.543"/>
<text text-anchor="middle" x="505" y="-552" font-family="Helvetica,sans-Serif" font-size="10.00"> ACTIVE_STROKE</text>
<text text-anchor="middle" x="505" y="-541" font-family="Helvetica,sans-Serif" font-size="10.00">myStroke</text>
</g>
<!-- Node26&#45;&gt;Node24 -->
<g id="edge29" class="edge"><title>Node26&#45;&gt;Node24</title>
<path fill="none" stroke="#9a32cd" stroke-dasharray="5,2" d="M100.975,-539.352C117.564,-532.116 138.679,-523.422 158,-517 204.134,-501.667 225.413,-519.572 264,-490 276.952,-480.074 269.042,-467.918 282,-458 293.947,-448.857 309.795,-444.077 323.845,-441.593"/>
<polygon fill="#9a32cd" stroke="#9a32cd" points="99.5101,-536.173 91.7777,-543.416 102.339,-542.576 99.5101,-536.173"/>
<text text-anchor="middle" x="211" y="-531" font-family="Helvetica,sans-Serif" font-size="10.00"> myStroke</text>
<text text-anchor="middle" x="211" y="-520" font-family="Helvetica,sans-Serif" font-size="10.00">DEFAULT_STROKE</text>
</g>
<!-- Node26&#45;&gt;Node31 -->
<g id="edge42" class="edge"><title>Node26&#45;&gt;Node31</title>
<path fill="none" stroke="#9a32cd" stroke-dasharray="5,2" d="M70.756,-572.865C71.3592,-622.371 80.6288,-751.245 158,-807 230.117,-858.969 472.302,-827.611 558,-804 593.466,-794.228 629.98,-770.018 648.534,-756.505"/>
<polygon fill="#9a32cd" stroke="#9a32cd" points="74.2559,-572.565 70.7475,-562.568 67.2559,-572.571 74.2559,-572.565"/>
<text text-anchor="middle" x="358" y="-838" font-family="Helvetica,sans-Serif" font-size="10.00"> GRID_STROKE</text>
</g>
<!-- Node27 -->
<g id="node27" class="node"><title>Node27</title>
<polygon fill="white" stroke="#bfbfbf" points="15,-436.5 15,-455.5 125,-455.5 125,-436.5 15,-436.5"/>
<text text-anchor="middle" x="70" y="-443.5" font-family="Helvetica,sans-Serif" font-size="10.00">List&lt; util.PenLine &gt;</text>
</g>
<!-- Node27&#45;&gt;Node24 -->
<g id="edge30" class="edge"><title>Node27&#45;&gt;Node24</title>
<path fill="none" stroke="#9a32cd" stroke-dasharray="5,2" d="M135.367,-444.425C193.797,-442.994 277.646,-440.942 323.647,-439.816"/>
<polygon fill="#9a32cd" stroke="#9a32cd" points="135.042,-440.931 125.131,-444.675 135.213,-447.929 135.042,-440.931"/>
<text text-anchor="middle" x="211" y="-447" font-family="Helvetica,sans-Serif" font-size="10.00"> myLines</text>
</g>
<!-- Node28 -->
<g id="node28" class="node"><title>Node28</title>
<g id="a_node28"><a xlink:href="../../d7/da7/enumview_1_1components_1_1_strokes.html" target="_top" xlink:title="view.components.Strokes">
<polygon fill="white" stroke="black" points="0.5,-474.5 0.5,-493.5 139.5,-493.5 139.5,-474.5 0.5,-474.5"/>
<text text-anchor="middle" x="70" y="-481.5" font-family="Helvetica,sans-Serif" font-size="10.00">view.components.Strokes</text>
</a>
</g>
</g>
<!-- Node28&#45;&gt;Node24 -->
<g id="edge31" class="edge"><title>Node28&#45;&gt;Node24</title>
<path fill="none" stroke="#9a32cd" stroke-dasharray="5,2" d="M149.721,-475.303C184.803,-471.041 226.572,-465.437 264,-459 284.019,-455.557 306.271,-450.805 323.987,-446.798"/>
<polygon fill="#9a32cd" stroke="#9a32cd" points="149.049,-471.858 139.538,-476.525 149.884,-478.808 149.049,-471.858"/>
<text text-anchor="middle" x="211" y="-478" font-family="Helvetica,sans-Serif" font-size="10.00"> myStrokeType</text>
</g>
<!-- Node29 -->
<g id="node29" class="node"><title>Node29</title>
<polygon fill="white" stroke="#bfbfbf" points="301.5,-391.5 301.5,-410.5 414.5,-410.5 414.5,-391.5 301.5,-391.5"/>
<text text-anchor="middle" x="358" y="-398.5" font-family="Helvetica,sans-Serif" font-size="10.00">List&lt; util.Location &gt;</text>
</g>
<!-- Node29&#45;&gt;Node17 -->
<g id="edge32" class="edge"><title>Node29&#45;&gt;Node17</title>
<path fill="none" stroke="#9a32cd" stroke-dasharray="5,2" d="M424.906,-408.282C463.68,-412.65 513.653,-418.424 558,-424 580.024,-426.769 604.661,-430.109 624.317,-432.832"/>
<polygon fill="#9a32cd" stroke="#9a32cd" points="425.12,-404.784 414.792,-407.146 424.338,-411.74 425.12,-404.784"/>
<text text-anchor="middle" x="505" y="-427" font-family="Helvetica,sans-Serif" font-size="10.00"> myStamp</text>
</g>
<!-- Node30 -->
<g id="node30" class="node"><title>Node30</title>
<polygon fill="white" stroke="#bfbfbf" points="583,-367.5 583,-386.5 741,-386.5 741,-367.5 583,-367.5"/>
<text text-anchor="middle" x="662" y="-374.5" font-family="Helvetica,sans-Serif" font-size="10.00">Map&lt; Integer, model.Turtle &gt;</text>
</g>
<!-- Node30&#45;&gt;Node15 -->
<g id="edge35" class="edge"><title>Node30&#45;&gt;Node15</title>
<path fill="none" stroke="#9a32cd" stroke-dasharray="5,2" d="M751.444,-377C801.334,-377 862.254,-377 906.064,-377"/>
<polygon fill="#9a32cd" stroke="#9a32cd" points="751.298,-373.5 741.298,-377 751.298,-380.5 751.298,-373.5"/>
<text text-anchor="middle" x="818" y="-391" font-family="Helvetica,sans-Serif" font-size="10.00"> myTurtles</text>
<text text-anchor="middle" x="818" y="-380" font-family="Helvetica,sans-Serif" font-size="10.00">myActiveTurtles</text>
</g>
<!-- Node31&#45;&gt;Node3 -->
<g id="edge37" class="edge"><title>Node31&#45;&gt;Node3</title>
<path fill="none" stroke="#9a32cd" stroke-dasharray="5,2" d="M704.557,-734.359C777.65,-710.812 931.896,-655.152 1042,-574 1100.03,-531.232 1112.71,-514.688 1150,-453 1190.67,-385.721 1215.41,-292.715 1222.72,-262.731"/>
<polygon fill="#9a32cd" stroke="#9a32cd" points="703.262,-731.098 694.795,-737.468 705.386,-737.768 703.262,-731.098"/>
<text text-anchor="middle" x="965" y="-666" font-family="Helvetica,sans-Serif" font-size="10.00"> myCanvas</text>
</g>
<!-- Node32 -->
<g id="node32" class="node"><title>Node32</title>
<polygon fill="white" stroke="#bfbfbf" points="320.5,-737.5 320.5,-756.5 395.5,-756.5 395.5,-737.5 320.5,-737.5"/>
<text text-anchor="middle" x="358" y="-744.5" font-family="Helvetica,sans-Serif" font-size="10.00">JComponent</text>
</g>
<!-- Node32&#45;&gt;Node31 -->
<g id="edge38" class="edge"><title>Node32&#45;&gt;Node31</title>
<path fill="none" stroke="midnightblue" d="M405.771,-747C466.252,-747 570.297,-747 624.995,-747"/>
<polygon fill="midnightblue" stroke="midnightblue" points="405.729,-743.5 395.729,-747 405.729,-750.5 405.729,-743.5"/>
</g>
<!-- Node33 -->
<g id="node33" class="node"><title>Node33</title>
<polygon fill="white" stroke="#bfbfbf" points="328,-699.5 328,-718.5 388,-718.5 388,-699.5 328,-699.5"/>
<text text-anchor="middle" x="358" y="-706.5" font-family="Helvetica,sans-Serif" font-size="10.00">Observer</text>
</g>
<!-- Node33&#45;&gt;Node31 -->
<g id="edge39" class="edge"><title>Node33&#45;&gt;Node31</title>
<path fill="none" stroke="midnightblue" d="M398.267,-713.941C457.202,-721.357 567.691,-735.259 624.786,-742.443"/>
<polygon fill="midnightblue" stroke="midnightblue" points="398.59,-710.454 388.231,-712.678 397.716,-717.399 398.59,-710.454"/>
</g>
<!-- Node34 -->
<g id="node34" class="node"><title>Node34</title>
<polygon fill="white" stroke="#bfbfbf" points="334.5,-661.5 334.5,-680.5 381.5,-680.5 381.5,-661.5 334.5,-661.5"/>
<text text-anchor="middle" x="358" y="-668.5" font-family="Helvetica,sans-Serif" font-size="10.00">Image</text>
</g>
<!-- Node34&#45;&gt;Node31 -->
<g id="edge43" class="edge"><title>Node34&#45;&gt;Node31</title>
<path fill="none" stroke="#9a32cd" stroke-dasharray="5,2" d="M391.663,-674.66C431.47,-679.596 500.535,-689.695 558,-706 587.44,-714.353 620.043,-728.146 640.523,-737.399"/>
<polygon fill="#9a32cd" stroke="#9a32cd" points="392.069,-671.184 381.721,-673.46 391.23,-678.133 392.069,-671.184"/>
<text text-anchor="middle" x="505" y="-709" font-family="Helvetica,sans-Serif" font-size="10.00"> myBackgroundImage</text>
</g>
<!-- Node35&#45;&gt;Node3 -->
<g id="edge45" class="edge"><title>Node35&#45;&gt;Node3</title>
<path fill="none" stroke="#9a32cd" stroke-dasharray="5,2" d="M426.527,-186.568C549.966,-170.933 805.302,-146.537 870,-202 906.945,-233.671 850.87,-278.546 888,-310 940.224,-354.241 973.901,-316.866 1042,-310 1090.74,-305.086 1103.48,-303.353 1150,-288 1170.47,-281.245 1192.7,-270.39 1207.6,-262.558"/>
<polygon fill="#9a32cd" stroke="#9a32cd" points="425.909,-183.118 416.437,-187.864 426.801,-190.061 425.909,-183.118"/>
<text text-anchor="middle" x="818" y="-205" font-family="Helvetica,sans-Serif" font-size="10.00"> myPalette</text>
</g>
<!-- Node36 -->
<g id="node36" class="node"><title>Node36</title>
<polygon fill="white" stroke="#bfbfbf" points="8,-177.5 8,-196.5 132,-196.5 132,-177.5 8,-177.5"/>
<text text-anchor="middle" x="70" y="-184.5" font-family="Helvetica,sans-Serif" font-size="10.00">Map&lt; Integer, Color &gt;</text>
</g>
<!-- Node36&#45;&gt;Node35 -->
<g id="edge46" class="edge"><title>Node36&#45;&gt;Node35</title>
<path fill="none" stroke="#9a32cd" stroke-dasharray="5,2" d="M142.345,-185.999C178.766,-185.836 223.766,-186.168 264,-188 275.656,-188.531 288.112,-189.396 299.996,-190.365"/>
<polygon fill="#9a32cd" stroke="#9a32cd" points="142.291,-182.499 132.311,-186.058 142.331,-189.499 142.291,-182.499"/>
<text text-anchor="middle" x="211" y="-191" font-family="Helvetica,sans-Serif" font-size="10.00"> myPalette</text>
</g>
<!-- Node37 -->
<g id="node37" class="node"><title>Node37</title>
<polygon fill="white" stroke="#bfbfbf" points="588,-0 588,-30 736,-30 736,-0 588,-0"/>
<text text-anchor="start" x="596" y="-18" font-family="Helvetica,sans-Serif" font-size="10.00">Stack&lt; List&lt; parser.nodes.</text>
<text text-anchor="middle" x="662" y="-7" font-family="Helvetica,sans-Serif" font-size="10.00">SyntaxNode &gt; &gt;</text>
</g>
<!-- Node37&#45;&gt;Node1 -->
<g id="edge48" class="edge"><title>Node37&#45;&gt;Node1</title>
<path fill="none" stroke="#9a32cd" stroke-dasharray="5,2" d="M746.549,-15.7783C784.38,-16.9662 829.585,-19.5504 870,-25 889.389,-27.6144 910.69,-32.2255 928.105,-36.4621"/>
<polygon fill="#9a32cd" stroke="#9a32cd" points="746.18,-12.2664 736.084,-15.479 745.98,-19.2635 746.18,-12.2664"/>
<text text-anchor="middle" x="818" y="-39" font-family="Helvetica,sans-Serif" font-size="10.00"> myActiveCommands</text>
<text text-anchor="middle" x="818" y="-28" font-family="Helvetica,sans-Serif" font-size="10.00">undoneCommands</text>
</g>
</g>
</svg>
