<?xml version="1.0" encoding="UTF-8" standalone="no"?>
<!DOCTYPE svg PUBLIC "-//W3C//DTD SVG 1.1//EN"
 "http://www.w3.org/Graphics/SVG/1.1/DTD/svg11.dtd">
<!-- Generated by graphviz version 2.36.0 (20140111.2315)
 -->
<!-- Title: parser.nodes.VariableNode.getName Pages: 1 -->
<svg width="442pt" height="66pt"
 viewBox="0.00 0.00 442.00 66.00" xmlns="http://www.w3.org/2000/svg" xmlns:xlink="http://www.w3.org/1999/xlink">
<g id="graph0" class="graph" transform="scale(1 1) rotate(0) translate(4 62)">
<title>parser.nodes.VariableNode.getName</title>
<polygon fill="white" stroke="none" points="-4,4 -4,-62 438,-62 438,4 -4,4"/>
<!-- Node1 -->
<g id="node1" class="node"><title>Node1</title>
<polygon fill="#bfbfbf" stroke="black" points="0,-19.5 0,-38.5 194,-38.5 194,-19.5 0,-19.5"/>
<text text-anchor="middle" x="97" y="-26.5" font-family="Helvetica,sans-Serif" font-size="10.00">parser.nodes.VariableNode.getName</text>
</g>
<!-- Node2 -->
<g id="node2" class="node"><title>Node2</title>
<g id="a_node2"><a xlink:href="../../d6/d87/classparser_1_1commands_1_1other_1_1_make.html#a7fc80a476ce57bf7ffa57061b0543dbf" target="_top" xlink:title="parser.commands.other.Make.evaluate">
<polygon fill="white" stroke="black" points="230,-38.5 230,-57.5 434,-57.5 434,-38.5 230,-38.5"/>
<text text-anchor="middle" x="332" y="-45.5" font-family="Helvetica,sans-Serif" font-size="10.00">parser.commands.other.Make.evaluate</text>
</a>
</g>
</g>
<!-- Node1&#45;&gt;Node2 -->
<g id="edge1" class="edge"><title>Node1&#45;&gt;Node2</title>
<path fill="none" stroke="midnightblue" d="M204.115,-37.6531C212.671,-38.3509 221.304,-39.0548 229.825,-39.7496"/>
<polygon fill="midnightblue" stroke="midnightblue" points="204.367,-34.1621 194.115,-36.8377 203.798,-41.139 204.367,-34.1621"/>
</g>
<!-- Node3 -->
<g id="node3" class="node"><title>Node3</title>
<g id="a_node3"><a xlink:href="../../df/ddc/classparser_1_1nodes_1_1_command_node.html#a40c9fa452b071f108d17f6093a72861d" target="_top" xlink:title="parser.nodes.CommandNode.evaluate">
<polygon fill="white" stroke="black" points="231,-0.5 231,-19.5 433,-19.5 433,-0.5 231,-0.5"/>
<text text-anchor="middle" x="332" y="-7.5" font-family="Helvetica,sans-Serif" font-size="10.00">parser.nodes.CommandNode.evaluate</text>
</a>
</g>
</g>
<!-- Node1&#45;&gt;Node3 -->
<g id="edge2" class="edge"><title>Node1&#45;&gt;Node3</title>
<path fill="none" stroke="midnightblue" d="M204.147,-20.3442C213.073,-19.6163 222.081,-18.8818 230.959,-18.1578"/>
<polygon fill="midnightblue" stroke="midnightblue" points="203.798,-16.861 194.115,-21.1623 204.367,-23.8379 203.798,-16.861"/>
</g>
</g>
</svg>
