<?xml version="1.0" encoding="UTF-8" standalone="no"?>
<!DOCTYPE svg PUBLIC "-//W3C//DTD SVG 1.1//EN"
 "http://www.w3.org/Graphics/SVG/1.1/DTD/svg11.dtd">
<!-- Generated by graphviz version 2.36.0 (20140111.2315)
 -->
<!-- Title: parser.commands.turtle.commands.Home Pages: 1 -->
<svg width="228pt" height="196pt"
 viewBox="0.00 0.00 228.00 196.00" xmlns="http://www.w3.org/2000/svg" xmlns:xlink="http://www.w3.org/1999/xlink">
<g id="graph0" class="graph" transform="scale(1 1) rotate(0) translate(4 192)">
<title>parser.commands.turtle.commands.Home</title>
<polygon fill="white" stroke="none" points="-4,4 -4,-192 224,-192 224,4 -4,4"/>
<!-- Node1 -->
<g id="node1" class="node"><title>Node1</title>
<polygon fill="#bfbfbf" stroke="black" points="-0.5,-0.5 -0.5,-19.5 220.5,-19.5 220.5,-0.5 -0.5,-0.5"/>
<text text-anchor="middle" x="110" y="-7.5" font-family="Helvetica,sans-Serif" font-size="10.00">parser.commands.turtle.commands.Home</text>
</g>
<!-- Node2 -->
<g id="node2" class="node"><title>Node2</title>
<g id="a_node2"><a xlink:href="../../d4/d4c/classparser_1_1nodes_1_1_basic_control.html" target="_top" xlink:title="parser.nodes.BasicControl">
<polygon fill="white" stroke="black" points="39,-56.5 39,-75.5 181,-75.5 181,-56.5 39,-56.5"/>
<text text-anchor="middle" x="110" y="-63.5" font-family="Helvetica,sans-Serif" font-size="10.00">parser.nodes.BasicControl</text>
</a>
</g>
</g>
<!-- Node2&#45;&gt;Node1 -->
<g id="edge1" class="edge"><title>Node2&#45;&gt;Node1</title>
<path fill="none" stroke="midnightblue" d="M110,-45.8045C110,-36.9102 110,-26.7798 110,-19.7511"/>
<polygon fill="midnightblue" stroke="midnightblue" points="106.5,-46.083 110,-56.083 113.5,-46.083 106.5,-46.083"/>
</g>
<!-- Node3 -->
<g id="node3" class="node"><title>Node3</title>
<g id="a_node3"><a xlink:href="../../da/df7/classparser_1_1nodes_1_1_simple_node.html" target="_top" xlink:title="parser.nodes.SimpleNode">
<polygon fill="white" stroke="black" points="40,-112.5 40,-131.5 180,-131.5 180,-112.5 40,-112.5"/>
<text text-anchor="middle" x="110" y="-119.5" font-family="Helvetica,sans-Serif" font-size="10.00">parser.nodes.SimpleNode</text>
</a>
</g>
</g>
<!-- Node3&#45;&gt;Node2 -->
<g id="edge2" class="edge"><title>Node3&#45;&gt;Node2</title>
<path fill="none" stroke="midnightblue" d="M110,-101.805C110,-92.9102 110,-82.7798 110,-75.7511"/>
<polygon fill="midnightblue" stroke="midnightblue" points="106.5,-102.083 110,-112.083 113.5,-102.083 106.5,-102.083"/>
</g>
<!-- Node4 -->
<g id="node4" class="node"><title>Node4</title>
<g id="a_node4"><a xlink:href="../../da/d96/classparser_1_1nodes_1_1_syntax_node.html" target="_top" xlink:title="parser.nodes.SyntaxNode">
<polygon fill="white" stroke="black" points="40,-168.5 40,-187.5 180,-187.5 180,-168.5 40,-168.5"/>
<text text-anchor="middle" x="110" y="-175.5" font-family="Helvetica,sans-Serif" font-size="10.00">parser.nodes.SyntaxNode</text>
</a>
</g>
</g>
<!-- Node4&#45;&gt;Node3 -->
<g id="edge3" class="edge"><title>Node4&#45;&gt;Node3</title>
<path fill="none" stroke="midnightblue" d="M110,-157.805C110,-148.91 110,-138.78 110,-131.751"/>
<polygon fill="midnightblue" stroke="midnightblue" points="106.5,-158.083 110,-168.083 113.5,-158.083 106.5,-158.083"/>
</g>
</g>
</svg>
