<?xml version="1.0" encoding="UTF-8" standalone="no"?>
<!DOCTYPE svg PUBLIC "-//W3C//DTD SVG 1.1//EN"
 "http://www.w3.org/Graphics/SVG/1.1/DTD/svg11.dtd">
<!-- Generated by graphviz version 2.36.0 (20140111.2315)
 -->
<!-- Title: model.TurtleManager.addNew Pages: 1 -->
<svg width="512pt" height="77pt"
 viewBox="0.00 0.00 512.00 77.00" xmlns="http://www.w3.org/2000/svg" xmlns:xlink="http://www.w3.org/1999/xlink">
<g id="graph0" class="graph" transform="scale(1 1) rotate(0) translate(4 73)">
<title>model.TurtleManager.addNew</title>
<polygon fill="white" stroke="none" points="-4,4 -4,-73 508,-73 508,4 -4,4"/>
<!-- Node1 -->
<g id="node1" class="node"><title>Node1</title>
<polygon fill="#bfbfbf" stroke="black" points="0,-22.5 0,-41.5 158,-41.5 158,-22.5 0,-22.5"/>
<text text-anchor="middle" x="79" y="-29.5" font-family="Helvetica,sans-Serif" font-size="10.00">model.TurtleManager.addNew</text>
</g>
<!-- Node2 -->
<g id="node2" class="node"><title>Node2</title>
<g id="a_node2"><a xlink:href="../../d8/dff/classmodel_1_1_turtle_manager.html#a9831377a60a443edcedede2e809e36f4" target="_top" xlink:title="model.TurtleManager.create\lTurtle">
<polygon fill="white" stroke="black" points="194,-39 194,-69 344,-69 344,-39 194,-39"/>
<text text-anchor="start" x="202" y="-57" font-family="Helvetica,sans-Serif" font-size="10.00">model.TurtleManager.create</text>
<text text-anchor="middle" x="269" y="-46" font-family="Helvetica,sans-Serif" font-size="10.00">Turtle</text>
</a>
</g>
</g>
<!-- Node1&#45;&gt;Node2 -->
<g id="edge1" class="edge"><title>Node1&#45;&gt;Node2</title>
<path fill="none" stroke="midnightblue" d="M158.096,-41.1389C166.579,-42.1316 175.241,-43.1452 183.794,-44.1461"/>
<polygon fill="midnightblue" stroke="midnightblue" points="183.427,-47.6269 193.766,-45.313 184.241,-40.6744 183.427,-47.6269"/>
</g>
<!-- Node4 -->
<g id="node4" class="node"><title>Node4</title>
<g id="a_node4"><a xlink:href="../../d6/d34/classmodel_1_1_turtle.html#a65a22c7a1a7abfbc46a6f339479e7646" target="_top" xlink:title="model.Turtle.setStroke">
<polygon fill="white" stroke="black" points="206.5,-0.5 206.5,-19.5 331.5,-19.5 331.5,-0.5 206.5,-0.5"/>
<text text-anchor="middle" x="269" y="-7.5" font-family="Helvetica,sans-Serif" font-size="10.00">model.Turtle.setStroke</text>
</a>
</g>
</g>
<!-- Node1&#45;&gt;Node4 -->
<g id="edge3" class="edge"><title>Node1&#45;&gt;Node4</title>
<path fill="none" stroke="midnightblue" d="M158.096,-22.8611C170.832,-21.3707 183.97,-19.8333 196.537,-18.3627"/>
<polygon fill="midnightblue" stroke="midnightblue" points="196.949,-21.8385 206.474,-17.1998 196.135,-14.8859 196.949,-21.8385"/>
</g>
<!-- Node3 -->
<g id="node3" class="node"><title>Node3</title>
<g id="a_node3"><a xlink:href="../../d6/d34/classmodel_1_1_turtle.html#a27ce4fa61b6e292b1cfff08d511e7fc4" target="_top" xlink:title="model.Turtle.setImage">
<polygon fill="white" stroke="black" points="380.5,-44.5 380.5,-63.5 503.5,-63.5 503.5,-44.5 380.5,-44.5"/>
<text text-anchor="middle" x="442" y="-51.5" font-family="Helvetica,sans-Serif" font-size="10.00">model.Turtle.setImage</text>
</a>
</g>
</g>
<!-- Node2&#45;&gt;Node3 -->
<g id="edge2" class="edge"><title>Node2&#45;&gt;Node3</title>
<path fill="none" stroke="midnightblue" d="M344.009,-54C352.702,-54 361.557,-54 370.205,-54"/>
<polygon fill="midnightblue" stroke="midnightblue" points="370.24,-57.5001 380.24,-54 370.24,-50.5001 370.24,-57.5001"/>
</g>
<!-- Node5 -->
<g id="node5" class="node"><title>Node5</title>
<g id="a_node5"><a xlink:href="../../de/ded/classmodel_1_1_pen.html#a00c08e5bfc9d04986e0ff7ae4ceae10b" target="_top" xlink:title="model.Pen.setStroke">
<polygon fill="white" stroke="black" points="383.5,-0.5 383.5,-19.5 500.5,-19.5 500.5,-0.5 383.5,-0.5"/>
<text text-anchor="middle" x="442" y="-7.5" font-family="Helvetica,sans-Serif" font-size="10.00">model.Pen.setStroke</text>
</a>
</g>
</g>
<!-- Node4&#45;&gt;Node5 -->
<g id="edge4" class="edge"><title>Node4&#45;&gt;Node5</title>
<path fill="none" stroke="midnightblue" d="M331.735,-10C345.152,-10 359.417,-10 373.059,-10"/>
<polygon fill="midnightblue" stroke="midnightblue" points="373.346,-13.5001 383.346,-10 373.346,-6.5001 373.346,-13.5001"/>
</g>
</g>
</svg>
