<?xml version="1.0" encoding="UTF-8" standalone="no"?>
<!DOCTYPE svg PUBLIC "-//W3C//DTD SVG 1.1//EN"
 "http://www.w3.org/Graphics/SVG/1.1/DTD/svg11.dtd">
<!-- Generated by graphviz version 2.36.0 (20140111.2315)
 -->
<!-- Title: model.TurtleManager.deactivateTurtle Pages: 1 -->
<svg width="1298pt" height="38pt"
 viewBox="0.00 0.00 1298.00 38.00" xmlns="http://www.w3.org/2000/svg" xmlns:xlink="http://www.w3.org/1999/xlink">
<g id="graph0" class="graph" transform="scale(1 1) rotate(0) translate(4 34)">
<title>model.TurtleManager.deactivateTurtle</title>
<polygon fill="white" stroke="none" points="-4,4 -4,-34 1294,-34 1294,4 -4,4"/>
<!-- Node1 -->
<g id="node1" class="node"><title>Node1</title>
<polygon fill="#bfbfbf" stroke="black" points="0,-0 0,-30 170,-30 170,-0 0,-0"/>
<text text-anchor="start" x="8" y="-18" font-family="Helvetica,sans-Serif" font-size="10.00">model.TurtleManager.deactivate</text>
<text text-anchor="middle" x="85" y="-7" font-family="Helvetica,sans-Serif" font-size="10.00">Turtle</text>
</g>
<!-- Node2 -->
<g id="node2" class="node"><title>Node2</title>
<g id="a_node2"><a xlink:href="../../de/d84/classcontroller_1_1_workspace.html#a497dad2e57c3d43cd971274660863e6c" target="_top" xlink:title="controller.Workspace.deactivate\lTurtle">
<polygon fill="white" stroke="black" points="206,-0 206,-30 374,-30 374,-0 206,-0"/>
<text text-anchor="start" x="214" y="-18" font-family="Helvetica,sans-Serif" font-size="10.00">controller.Workspace.deactivate</text>
<text text-anchor="middle" x="290" y="-7" font-family="Helvetica,sans-Serif" font-size="10.00">Turtle</text>
</a>
</g>
</g>
<!-- Node1&#45;&gt;Node2 -->
<g id="edge1" class="edge"><title>Node1&#45;&gt;Node2</title>
<path fill="none" stroke="midnightblue" d="M180.035,-15C188.595,-15 197.227,-15 205.684,-15"/>
<polygon fill="midnightblue" stroke="midnightblue" points="180.033,-11.5001 170.033,-15 180.033,-18.5001 180.033,-11.5001"/>
</g>
<!-- Node3 -->
<g id="node3" class="node"><title>Node3</title>
<g id="a_node3"><a xlink:href="../../d9/df7/classcontroller_1_1_controller.html#acd242cba05fd983be695439ef2186966" target="_top" xlink:title="controller.Controller.create\lCheckBoxItemListener">
<polygon fill="white" stroke="black" points="410.5,-0 410.5,-30 553.5,-30 553.5,-0 410.5,-0"/>
<text text-anchor="start" x="418.5" y="-18" font-family="Helvetica,sans-Serif" font-size="10.00">controller.Controller.create</text>
<text text-anchor="middle" x="482" y="-7" font-family="Helvetica,sans-Serif" font-size="10.00">CheckBoxItemListener</text>
</a>
</g>
</g>
<!-- Node2&#45;&gt;Node3 -->
<g id="edge2" class="edge"><title>Node2&#45;&gt;Node3</title>
<path fill="none" stroke="midnightblue" d="M384.299,-15C393.044,-15 401.808,-15 410.295,-15"/>
<polygon fill="midnightblue" stroke="midnightblue" points="384.06,-11.5001 374.06,-15 384.06,-18.5001 384.06,-11.5001"/>
</g>
<!-- Node4 -->
<g id="node4" class="node"><title>Node4</title>
<g id="a_node4"><a xlink:href="../../d9/df7/classcontroller_1_1_controller.html#a17d9d0474952b983548cde23a4e27134" target="_top" xlink:title="controller.Controller.create\lTellMenuListener">
<polygon fill="white" stroke="black" points="590.5,-0 590.5,-30 733.5,-30 733.5,-0 590.5,-0"/>
<text text-anchor="start" x="598.5" y="-18" font-family="Helvetica,sans-Serif" font-size="10.00">controller.Controller.create</text>
<text text-anchor="middle" x="662" y="-7" font-family="Helvetica,sans-Serif" font-size="10.00">TellMenuListener</text>
</a>
</g>
</g>
<!-- Node3&#45;&gt;Node4 -->
<g id="edge3" class="edge"><title>Node3&#45;&gt;Node4</title>
<path fill="none" stroke="midnightblue" d="M563.646,-15C572.599,-15 581.666,-15 590.479,-15"/>
<polygon fill="midnightblue" stroke="midnightblue" points="563.606,-11.5001 553.606,-15 563.606,-18.5001 563.606,-11.5001"/>
</g>
<!-- Node5 -->
<g id="node5" class="node"><title>Node5</title>
<g id="a_node5"><a xlink:href="../../d9/df7/classcontroller_1_1_controller.html#ac03add001882f876041934dfe435b43f" target="_top" xlink:title="controller.Controller.create\lSettingMenu">
<polygon fill="white" stroke="black" points="770.5,-0 770.5,-30 913.5,-30 913.5,-0 770.5,-0"/>
<text text-anchor="start" x="778.5" y="-18" font-family="Helvetica,sans-Serif" font-size="10.00">controller.Controller.create</text>
<text text-anchor="middle" x="842" y="-7" font-family="Helvetica,sans-Serif" font-size="10.00">SettingMenu</text>
</a>
</g>
</g>
<!-- Node4&#45;&gt;Node5 -->
<g id="edge4" class="edge"><title>Node4&#45;&gt;Node5</title>
<path fill="none" stroke="midnightblue" d="M743.646,-15C752.599,-15 761.666,-15 770.479,-15"/>
<polygon fill="midnightblue" stroke="midnightblue" points="743.606,-11.5001 733.606,-15 743.606,-18.5001 743.606,-11.5001"/>
</g>
<!-- Node6 -->
<g id="node6" class="node"><title>Node6</title>
<g id="a_node6"><a xlink:href="../../d9/df7/classcontroller_1_1_controller.html#a2901bf43bb8e47b485558dbf00d40d6d" target="_top" xlink:title="controller.Controller.create\lJMenuBar">
<polygon fill="white" stroke="black" points="950.5,-0 950.5,-30 1093.5,-30 1093.5,-0 950.5,-0"/>
<text text-anchor="start" x="958.5" y="-18" font-family="Helvetica,sans-Serif" font-size="10.00">controller.Controller.create</text>
<text text-anchor="middle" x="1022" y="-7" font-family="Helvetica,sans-Serif" font-size="10.00">JMenuBar</text>
</a>
</g>
</g>
<!-- Node5&#45;&gt;Node6 -->
<g id="edge5" class="edge"><title>Node5&#45;&gt;Node6</title>
<path fill="none" stroke="midnightblue" d="M923.646,-15C932.599,-15 941.666,-15 950.479,-15"/>
<polygon fill="midnightblue" stroke="midnightblue" points="923.606,-11.5001 913.606,-15 923.606,-18.5001 923.606,-11.5001"/>
</g>
<!-- Node7 -->
<g id="node7" class="node"><title>Node7</title>
<g id="a_node7"><a xlink:href="../../d9/df7/classcontroller_1_1_controller.html#a47511ec57338c8e75e71e9314cda5271" target="_top" xlink:title="controller.Controller.Controller">
<polygon fill="white" stroke="black" points="1130.5,-5.5 1130.5,-24.5 1289.5,-24.5 1289.5,-5.5 1130.5,-5.5"/>
<text text-anchor="middle" x="1210" y="-12.5" font-family="Helvetica,sans-Serif" font-size="10.00">controller.Controller.Controller</text>
</a>
</g>
</g>
<!-- Node6&#45;&gt;Node7 -->
<g id="edge6" class="edge"><title>Node6&#45;&gt;Node7</title>
<path fill="none" stroke="midnightblue" d="M1103.84,-15C1112.64,-15 1121.6,-15 1130.38,-15"/>
<polygon fill="midnightblue" stroke="midnightblue" points="1103.58,-11.5001 1093.58,-15 1103.58,-18.5001 1103.58,-11.5001"/>
</g>
</g>
</svg>
