<?xml version="1.0" encoding="UTF-8" standalone="no"?>
<!DOCTYPE svg PUBLIC "-//W3C//DTD SVG 1.1//EN"
 "http://www.w3.org/Graphics/SVG/1.1/DTD/svg11.dtd">
<!-- Generated by graphviz version 2.36.0 (20140111.2315)
 -->
<!-- Title: model.TurtleManager.update Pages: 1 -->
<svg width="1506pt" height="459pt"
 viewBox="0.00 0.00 1506.00 459.00" xmlns="http://www.w3.org/2000/svg" xmlns:xlink="http://www.w3.org/1999/xlink">
<g id="graph0" class="graph" transform="scale(1 1) rotate(0) translate(4 455)">
<title>model.TurtleManager.update</title>
<polygon fill="white" stroke="none" points="-4,4 -4,-455 1502,-455 1502,4 -4,4"/>
<!-- Node1 -->
<g id="node1" class="node"><title>Node1</title>
<polygon fill="#bfbfbf" stroke="black" points="0.5,-336.5 0.5,-355.5 153.5,-355.5 153.5,-336.5 0.5,-336.5"/>
<text text-anchor="middle" x="77" y="-343.5" font-family="Helvetica,sans-Serif" font-size="10.00">model.TurtleManager.update</text>
</g>
<!-- Node2 -->
<g id="node2" class="node"><title>Node2</title>
<g id="a_node2"><a xlink:href="../../d8/dff/classmodel_1_1_turtle_manager.html#aaba8ff7fe556efe6e986cd43e5315608" target="_top" xlink:title="model.TurtleManager.execute">
<polygon fill="white" stroke="black" points="205,-431.5 205,-450.5 363,-450.5 363,-431.5 205,-431.5"/>
<text text-anchor="middle" x="284" y="-438.5" font-family="Helvetica,sans-Serif" font-size="10.00">model.TurtleManager.execute</text>
</a>
</g>
</g>
<!-- Node1&#45;&gt;Node2 -->
<g id="edge1" class="edge"><title>Node1&#45;&gt;Node2</title>
<path fill="none" stroke="midnightblue" d="M96.7608,-362.2C117.969,-379.645 154.22,-406.92 190,-422 199.111,-425.84 209.061,-428.924 218.954,-431.395"/>
<polygon fill="midnightblue" stroke="midnightblue" points="98.8048,-359.346 88.892,-355.607 94.309,-364.712 98.8048,-359.346"/>
</g>
<!-- Node3 -->
<g id="node3" class="node"><title>Node3</title>
<g id="a_node3"><a xlink:href="../../d7/d40/classcontroller_1_1_w_s_undo_manager.html#afc81c41b9d95a8ebd556ea5d5c709d05" target="_top" xlink:title="controller.WSUndoManager.redo">
<polygon fill="white" stroke="black" points="199,-393.5 199,-412.5 369,-412.5 369,-393.5 199,-393.5"/>
<text text-anchor="middle" x="284" y="-400.5" font-family="Helvetica,sans-Serif" font-size="10.00">controller.WSUndoManager.redo</text>
</a>
</g>
</g>
<!-- Node1&#45;&gt;Node3 -->
<g id="edge2" class="edge"><title>Node1&#45;&gt;Node3</title>
<path fill="none" stroke="midnightblue" d="M112.623,-359.004C134.579,-366.936 163.703,-376.883 190,-384 203.044,-387.53 217.273,-390.748 230.59,-393.492"/>
<polygon fill="midnightblue" stroke="midnightblue" points="113.669,-355.66 103.075,-355.519 111.269,-362.235 113.669,-355.66"/>
</g>
<!-- Node7 -->
<g id="node7" class="node"><title>Node7</title>
<g id="a_node7"><a xlink:href="../../d8/dff/classmodel_1_1_turtle_manager.html#aeb1863da9ca7c9973578e7a140f58d87" target="_top" xlink:title="model.TurtleManager.setHighlighted">
<polygon fill="white" stroke="black" points="190,-317.5 190,-336.5 378,-336.5 378,-317.5 190,-317.5"/>
<text text-anchor="middle" x="284" y="-324.5" font-family="Helvetica,sans-Serif" font-size="10.00">model.TurtleManager.setHighlighted</text>
</a>
</g>
</g>
<!-- Node1&#45;&gt;Node7 -->
<g id="edge6" class="edge"><title>Node1&#45;&gt;Node7</title>
<path fill="none" stroke="midnightblue" d="M163.769,-338.051C172.378,-337.253 181.148,-336.44 189.829,-335.635"/>
<polygon fill="midnightblue" stroke="midnightblue" points="163.386,-334.571 153.752,-338.979 164.032,-341.541 163.386,-334.571"/>
</g>
<!-- Node9 -->
<g id="node9" class="node"><title>Node9</title>
<g id="a_node9"><a xlink:href="../../d8/dff/classmodel_1_1_turtle_manager.html#ad3a7dfe2894f5335c74644ad749dd77a" target="_top" xlink:title="model.TurtleManager.setImage">
<polygon fill="white" stroke="black" points="202,-279.5 202,-298.5 366,-298.5 366,-279.5 202,-279.5"/>
<text text-anchor="middle" x="284" y="-286.5" font-family="Helvetica,sans-Serif" font-size="10.00">model.TurtleManager.setImage</text>
</a>
</g>
</g>
<!-- Node1&#45;&gt;Node9 -->
<g id="edge8" class="edge"><title>Node1&#45;&gt;Node9</title>
<path fill="none" stroke="midnightblue" d="M112.623,-332.996C134.579,-325.064 163.703,-315.117 190,-308 203.044,-304.47 217.273,-301.252 230.59,-298.508"/>
<polygon fill="midnightblue" stroke="midnightblue" points="111.269,-329.765 103.075,-336.481 113.669,-336.34 111.269,-329.765"/>
</g>
<!-- Node11 -->
<g id="node11" class="node"><title>Node11</title>
<g id="a_node11"><a xlink:href="../../d7/d40/classcontroller_1_1_w_s_undo_manager.html#aea6c6bd525f338f036c8daa4f0ca3225" target="_top" xlink:title="controller.WSUndoManager.undo">
<polygon fill="white" stroke="black" points="197.5,-355.5 197.5,-374.5 370.5,-374.5 370.5,-355.5 197.5,-355.5"/>
<text text-anchor="middle" x="284" y="-362.5" font-family="Helvetica,sans-Serif" font-size="10.00">controller.WSUndoManager.undo</text>
</a>
</g>
</g>
<!-- Node1&#45;&gt;Node11 -->
<g id="edge10" class="edge"><title>Node1&#45;&gt;Node11</title>
<path fill="none" stroke="midnightblue" d="M163.801,-353.952C174.842,-354.976 186.148,-356.024 197.189,-357.047"/>
<polygon fill="midnightblue" stroke="midnightblue" points="164.032,-350.459 153.752,-353.021 163.386,-357.429 164.032,-350.459"/>
</g>
<!-- Node12 -->
<g id="node12" class="node"><title>Node12</title>
<g id="a_node12"><a xlink:href="../../de/d84/classcontroller_1_1_workspace.html#a06f94274c983b2edde00bcdc2b15f790" target="_top" xlink:title="controller.Workspace.update">
<polygon fill="white" stroke="black" points="208,-137.5 208,-156.5 360,-156.5 360,-137.5 208,-137.5"/>
<text text-anchor="middle" x="284" y="-144.5" font-family="Helvetica,sans-Serif" font-size="10.00">controller.Workspace.update</text>
</a>
</g>
</g>
<!-- Node1&#45;&gt;Node12 -->
<g id="edge12" class="edge"><title>Node1&#45;&gt;Node12</title>
<path fill="none" stroke="midnightblue" d="M95.3094,-329.197C136.787,-288.933 240.816,-187.95 273.212,-156.502"/>
<polygon fill="midnightblue" stroke="midnightblue" points="92.625,-326.925 87.8876,-336.402 97.5008,-331.948 92.625,-326.925"/>
</g>
<!-- Node4 -->
<g id="node4" class="node"><title>Node4</title>
<g id="a_node4"><a xlink:href="../../d9/df7/classcontroller_1_1_controller.html#a028264f3c286e8e1a2d897dda5ff0b53" target="_top" xlink:title="controller.Controller.create\lEditMenu">
<polygon fill="white" stroke="black" points="426.5,-372 426.5,-402 569.5,-402 569.5,-372 426.5,-372"/>
<text text-anchor="start" x="434.5" y="-390" font-family="Helvetica,sans-Serif" font-size="10.00">controller.Controller.create</text>
<text text-anchor="middle" x="498" y="-379" font-family="Helvetica,sans-Serif" font-size="10.00">EditMenu</text>
</a>
</g>
</g>
<!-- Node3&#45;&gt;Node4 -->
<g id="edge3" class="edge"><title>Node3&#45;&gt;Node4</title>
<path fill="none" stroke="midnightblue" d="M379.392,-395.876C395.165,-394.686 411.284,-393.469 426.331,-392.334"/>
<polygon fill="midnightblue" stroke="midnightblue" points="378.801,-392.411 369.093,-396.653 379.328,-399.391 378.801,-392.411"/>
</g>
<!-- Node5 -->
<g id="node5" class="node"><title>Node5</title>
<g id="a_node5"><a xlink:href="../../d9/df7/classcontroller_1_1_controller.html#a2901bf43bb8e47b485558dbf00d40d6d" target="_top" xlink:title="controller.Controller.create\lJMenuBar">
<polygon fill="white" stroke="black" points="1158.5,-156 1158.5,-186 1301.5,-186 1301.5,-156 1158.5,-156"/>
<text text-anchor="start" x="1166.5" y="-174" font-family="Helvetica,sans-Serif" font-size="10.00">controller.Controller.create</text>
<text text-anchor="middle" x="1230" y="-163" font-family="Helvetica,sans-Serif" font-size="10.00">JMenuBar</text>
</a>
</g>
</g>
<!-- Node4&#45;&gt;Node5 -->
<g id="edge4" class="edge"><title>Node4&#45;&gt;Node5</title>
<path fill="none" stroke="midnightblue" d="M559.522,-369.092C700.239,-327.455 1047.37,-224.743 1178.1,-186.061"/>
<polygon fill="midnightblue" stroke="midnightblue" points="558.349,-365.789 549.753,-371.983 560.335,-372.502 558.349,-365.789"/>
</g>
<!-- Node6 -->
<g id="node6" class="node"><title>Node6</title>
<g id="a_node6"><a xlink:href="../../d9/df7/classcontroller_1_1_controller.html#a47511ec57338c8e75e71e9314cda5271" target="_top" xlink:title="controller.Controller.Controller">
<polygon fill="white" stroke="black" points="1338.5,-161.5 1338.5,-180.5 1497.5,-180.5 1497.5,-161.5 1338.5,-161.5"/>
<text text-anchor="middle" x="1418" y="-168.5" font-family="Helvetica,sans-Serif" font-size="10.00">controller.Controller.Controller</text>
</a>
</g>
</g>
<!-- Node5&#45;&gt;Node6 -->
<g id="edge5" class="edge"><title>Node5&#45;&gt;Node6</title>
<path fill="none" stroke="midnightblue" d="M1311.84,-171C1320.64,-171 1329.6,-171 1338.38,-171"/>
<polygon fill="midnightblue" stroke="midnightblue" points="1311.58,-167.5 1301.58,-171 1311.58,-174.5 1311.58,-167.5"/>
</g>
<!-- Node8 -->
<g id="node8" class="node"><title>Node8</title>
<g id="a_node8"><a xlink:href="../../de/d84/classcontroller_1_1_workspace.html#a6b0df4c240b7a8aba6a78b8cb3518bb3" target="_top" xlink:title="controller.Workspace.set\lHighlighted">
<polygon fill="white" stroke="black" points="431.5,-323 431.5,-353 564.5,-353 564.5,-323 431.5,-323"/>
<text text-anchor="start" x="439.5" y="-341" font-family="Helvetica,sans-Serif" font-size="10.00">controller.Workspace.set</text>
<text text-anchor="middle" x="498" y="-330" font-family="Helvetica,sans-Serif" font-size="10.00">Highlighted</text>
</a>
</g>
</g>
<!-- Node7&#45;&gt;Node8 -->
<g id="edge7" class="edge"><title>Node7&#45;&gt;Node8</title>
<path fill="none" stroke="midnightblue" d="M388.393,-332.365C403.015,-333.123 417.702,-333.886 431.343,-334.593"/>
<polygon fill="midnightblue" stroke="midnightblue" points="388.463,-328.864 378.295,-331.841 388.1,-335.854 388.463,-328.864"/>
</g>
<!-- Node10 -->
<g id="node10" class="node"><title>Node10</title>
<g id="a_node10"><a xlink:href="../../de/d84/classcontroller_1_1_workspace.html#a836bba8f70a28fe652d3ab9684394b7d" target="_top" xlink:title="controller.Workspace.set\lImage">
<polygon fill="white" stroke="black" points="431.5,-274 431.5,-304 564.5,-304 564.5,-274 431.5,-274"/>
<text text-anchor="start" x="439.5" y="-292" font-family="Helvetica,sans-Serif" font-size="10.00">controller.Workspace.set</text>
<text text-anchor="middle" x="498" y="-281" font-family="Helvetica,sans-Serif" font-size="10.00">Image</text>
</a>
</g>
</g>
<!-- Node9&#45;&gt;Node10 -->
<g id="edge9" class="edge"><title>Node9&#45;&gt;Node10</title>
<path fill="none" stroke="midnightblue" d="M376.285,-289C394.838,-289 414.005,-289 431.451,-289"/>
<polygon fill="midnightblue" stroke="midnightblue" points="376.056,-285.5 366.056,-289 376.056,-292.5 376.056,-285.5"/>
</g>
<!-- Node11&#45;&gt;Node4 -->
<g id="edge11" class="edge"><title>Node11&#45;&gt;Node4</title>
<path fill="none" stroke="midnightblue" d="M380.661,-374.927C396.029,-376.522 411.69,-378.147 426.335,-379.667"/>
<polygon fill="midnightblue" stroke="midnightblue" points="380.925,-371.436 370.617,-373.885 380.203,-378.398 380.925,-371.436"/>
</g>
<!-- Node13 -->
<g id="node13" class="node"><title>Node13</title>
<g id="a_node13"><a xlink:href="../../de/d84/classcontroller_1_1_workspace.html#abceb71fe227a560303f42bb77b0a1113" target="_top" xlink:title="controller.Workspace.activate\lTurtle">
<polygon fill="white" stroke="black" points="420,-225 420,-255 576,-255 576,-225 420,-225"/>
<text text-anchor="start" x="428" y="-243" font-family="Helvetica,sans-Serif" font-size="10.00">controller.Workspace.activate</text>
<text text-anchor="middle" x="498" y="-232" font-family="Helvetica,sans-Serif" font-size="10.00">Turtle</text>
</a>
</g>
</g>
<!-- Node12&#45;&gt;Node13 -->
<g id="edge13" class="edge"><title>Node12&#45;&gt;Node13</title>
<path fill="none" stroke="midnightblue" d="M309.431,-161.703C334.88,-176.578 376.235,-199.528 414,-215 422.773,-218.594 432.255,-221.934 441.565,-224.926"/>
<polygon fill="midnightblue" stroke="midnightblue" points="311.202,-158.684 300.81,-156.616 307.644,-164.713 311.202,-158.684"/>
</g>
<!-- Node17 -->
<g id="node17" class="node"><title>Node17</title>
<g id="a_node17"><a xlink:href="../../de/d84/classcontroller_1_1_workspace.html#a6edc5179c7840bd8bdd91bb19ef7405b" target="_top" xlink:title="controller.Workspace.add\lTurtle">
<polygon fill="white" stroke="black" points="802,-132 802,-162 938,-162 938,-132 802,-132"/>
<text text-anchor="start" x="810" y="-150" font-family="Helvetica,sans-Serif" font-size="10.00">controller.Workspace.add</text>
<text text-anchor="middle" x="870" y="-139" font-family="Helvetica,sans-Serif" font-size="10.00">Turtle</text>
</a>
</g>
</g>
<!-- Node12&#45;&gt;Node17 -->
<g id="edge18" class="edge"><title>Node12&#45;&gt;Node17</title>
<path fill="none" stroke="midnightblue" d="M370.496,-147C487.536,-147 695.241,-147 801.817,-147"/>
<polygon fill="midnightblue" stroke="midnightblue" points="370.152,-143.5 360.152,-147 370.152,-150.5 370.152,-143.5"/>
</g>
<!-- Node18 -->
<g id="node18" class="node"><title>Node18</title>
<g id="a_node18"><a xlink:href="../../d9/df7/classcontroller_1_1_controller.html#a19e3ac02ba1459ff9e16013584ba0ae5" target="_top" xlink:title="controller.Controller.create\lPhysicalCommands">
<polygon fill="white" stroke="black" points="426.5,-88 426.5,-118 569.5,-118 569.5,-88 426.5,-88"/>
<text text-anchor="start" x="434.5" y="-106" font-family="Helvetica,sans-Serif" font-size="10.00">controller.Controller.create</text>
<text text-anchor="middle" x="498" y="-95" font-family="Helvetica,sans-Serif" font-size="10.00">PhysicalCommands</text>
</a>
</g>
</g>
<!-- Node12&#45;&gt;Node18 -->
<g id="edge20" class="edge"><title>Node12&#45;&gt;Node18</title>
<path fill="none" stroke="midnightblue" d="M341.124,-135.352C367.296,-129.92 398.722,-123.397 426.478,-117.637"/>
<polygon fill="midnightblue" stroke="midnightblue" points="340.081,-131.993 331.001,-137.453 341.503,-138.847 340.081,-131.993"/>
</g>
<!-- Node20 -->
<g id="node20" class="node"><title>Node20</title>
<g id="a_node20"><a xlink:href="../../d9/df7/classcontroller_1_1_controller.html#aaa03ac2d4ba85ce0aea59ded9a2f65b9" target="_top" xlink:title="controller.Controller.create\lVisualCommands">
<polygon fill="white" stroke="black" points="426.5,-39 426.5,-69 569.5,-69 569.5,-39 426.5,-39"/>
<text text-anchor="start" x="434.5" y="-57" font-family="Helvetica,sans-Serif" font-size="10.00">controller.Controller.create</text>
<text text-anchor="middle" x="498" y="-46" font-family="Helvetica,sans-Serif" font-size="10.00">VisualCommands</text>
</a>
</g>
</g>
<!-- Node12&#45;&gt;Node20 -->
<g id="edge23" class="edge"><title>Node12&#45;&gt;Node20</title>
<path fill="none" stroke="midnightblue" d="M308.945,-132.22C334.305,-117.043 375.865,-93.5118 414,-78 421.92,-74.7785 430.428,-71.8017 438.869,-69.1205"/>
<polygon fill="midnightblue" stroke="midnightblue" points="307.119,-129.234 300.372,-137.403 310.74,-135.224 307.119,-129.234"/>
</g>
<!-- Node21 -->
<g id="node21" class="node"><title>Node21</title>
<g id="a_node21"><a xlink:href="../../de/d84/classcontroller_1_1_workspace.html#a497dad2e57c3d43cd971274660863e6c" target="_top" xlink:title="controller.Workspace.deactivate\lTurtle">
<polygon fill="white" stroke="black" points="414,-176 414,-206 582,-206 582,-176 414,-176"/>
<text text-anchor="start" x="422" y="-194" font-family="Helvetica,sans-Serif" font-size="10.00">controller.Workspace.deactivate</text>
<text text-anchor="middle" x="498" y="-183" font-family="Helvetica,sans-Serif" font-size="10.00">Turtle</text>
</a>
</g>
</g>
<!-- Node12&#45;&gt;Node21 -->
<g id="edge25" class="edge"><title>Node12&#45;&gt;Node21</title>
<path fill="none" stroke="midnightblue" d="M340.897,-158.601C366.467,-163.908 397.089,-170.264 424.412,-175.935"/>
<polygon fill="midnightblue" stroke="midnightblue" points="341.503,-155.153 331.001,-156.547 340.081,-162.007 341.503,-155.153"/>
</g>
<!-- Node22 -->
<g id="node22" class="node"><title>Node22</title>
<g id="a_node22"><a xlink:href="../../d9/dc7/classview_1_1_window.html#aaa5394101525164bc2ec030e9bb9c6b1" target="_top" xlink:title="view.Window.updateObservers">
<polygon fill="white" stroke="black" points="418.5,-0.5 418.5,-19.5 577.5,-19.5 577.5,-0.5 418.5,-0.5"/>
<text text-anchor="middle" x="498" y="-7.5" font-family="Helvetica,sans-Serif" font-size="10.00">view.Window.updateObservers</text>
</a>
</g>
</g>
<!-- Node12&#45;&gt;Node22 -->
<g id="edge27" class="edge"><title>Node12&#45;&gt;Node22</title>
<path fill="none" stroke="midnightblue" d="M299.026,-129.33C320.768,-103.196 365.216,-54.5816 414,-29 421.462,-25.0869 429.716,-21.9744 438.039,-19.5"/>
<polygon fill="midnightblue" stroke="midnightblue" points="296.161,-127.304 292.55,-137.265 301.585,-131.731 296.161,-127.304"/>
</g>
<!-- Node14 -->
<g id="node14" class="node"><title>Node14</title>
<g id="a_node14"><a xlink:href="../../d9/df7/classcontroller_1_1_controller.html#acd242cba05fd983be695439ef2186966" target="_top" xlink:title="controller.Controller.create\lCheckBoxItemListener">
<polygon fill="white" stroke="black" points="618.5,-181 618.5,-211 761.5,-211 761.5,-181 618.5,-181"/>
<text text-anchor="start" x="626.5" y="-199" font-family="Helvetica,sans-Serif" font-size="10.00">controller.Controller.create</text>
<text text-anchor="middle" x="690" y="-188" font-family="Helvetica,sans-Serif" font-size="10.00">CheckBoxItemListener</text>
</a>
</g>
</g>
<!-- Node13&#45;&gt;Node14 -->
<g id="edge14" class="edge"><title>Node13&#45;&gt;Node14</title>
<path fill="none" stroke="midnightblue" d="M574.037,-222.623C590.594,-218.789 607.999,-214.758 624.114,-211.026"/>
<polygon fill="midnightblue" stroke="midnightblue" points="572.808,-219.315 563.856,-224.981 574.388,-226.134 572.808,-219.315"/>
</g>
<!-- Node15 -->
<g id="node15" class="node"><title>Node15</title>
<g id="a_node15"><a xlink:href="../../d9/df7/classcontroller_1_1_controller.html#a17d9d0474952b983548cde23a4e27134" target="_top" xlink:title="controller.Controller.create\lTellMenuListener">
<polygon fill="white" stroke="black" points="798.5,-181 798.5,-211 941.5,-211 941.5,-181 798.5,-181"/>
<text text-anchor="start" x="806.5" y="-199" font-family="Helvetica,sans-Serif" font-size="10.00">controller.Controller.create</text>
<text text-anchor="middle" x="870" y="-188" font-family="Helvetica,sans-Serif" font-size="10.00">TellMenuListener</text>
</a>
</g>
</g>
<!-- Node14&#45;&gt;Node15 -->
<g id="edge15" class="edge"><title>Node14&#45;&gt;Node15</title>
<path fill="none" stroke="midnightblue" d="M771.646,-196C780.599,-196 789.666,-196 798.479,-196"/>
<polygon fill="midnightblue" stroke="midnightblue" points="771.606,-192.5 761.606,-196 771.606,-199.5 771.606,-192.5"/>
</g>
<!-- Node16 -->
<g id="node16" class="node"><title>Node16</title>
<g id="a_node16"><a xlink:href="../../d9/df7/classcontroller_1_1_controller.html#ac03add001882f876041934dfe435b43f" target="_top" xlink:title="controller.Controller.create\lSettingMenu">
<polygon fill="white" stroke="black" points="978.5,-156 978.5,-186 1121.5,-186 1121.5,-156 978.5,-156"/>
<text text-anchor="start" x="986.5" y="-174" font-family="Helvetica,sans-Serif" font-size="10.00">controller.Controller.create</text>
<text text-anchor="middle" x="1050" y="-163" font-family="Helvetica,sans-Serif" font-size="10.00">SettingMenu</text>
</a>
</g>
</g>
<!-- Node15&#45;&gt;Node16 -->
<g id="edge16" class="edge"><title>Node15&#45;&gt;Node16</title>
<path fill="none" stroke="midnightblue" d="M951.646,-184.673C960.599,-183.416 969.666,-182.142 978.479,-180.905"/>
<polygon fill="midnightblue" stroke="midnightblue" points="951.022,-181.227 941.606,-186.083 951.996,-188.158 951.022,-181.227"/>
</g>
<!-- Node16&#45;&gt;Node5 -->
<g id="edge17" class="edge"><title>Node16&#45;&gt;Node5</title>
<path fill="none" stroke="midnightblue" d="M1131.65,-171C1140.6,-171 1149.67,-171 1158.48,-171"/>
<polygon fill="midnightblue" stroke="midnightblue" points="1131.61,-167.5 1121.61,-171 1131.61,-174.5 1131.61,-167.5"/>
</g>
<!-- Node17&#45;&gt;Node16 -->
<g id="edge19" class="edge"><title>Node17&#45;&gt;Node16</title>
<path fill="none" stroke="midnightblue" d="M948.054,-157.389C958.157,-158.752 968.469,-160.142 978.457,-161.489"/>
<polygon fill="midnightblue" stroke="midnightblue" points="948.419,-153.907 938.041,-156.039 947.483,-160.844 948.419,-153.907"/>
</g>
<!-- Node19 -->
<g id="node19" class="node"><title>Node19</title>
<g id="a_node19"><a xlink:href="../../d9/df7/classcontroller_1_1_controller.html#aa81e4dbd87e3f8b9a1c43acb096304dd" target="_top" xlink:title="controller.Controller.create\lCommandMenu">
<polygon fill="white" stroke="black" points="618.5,-88 618.5,-118 761.5,-118 761.5,-88 618.5,-88"/>
<text text-anchor="start" x="626.5" y="-106" font-family="Helvetica,sans-Serif" font-size="10.00">controller.Controller.create</text>
<text text-anchor="middle" x="690" y="-95" font-family="Helvetica,sans-Serif" font-size="10.00">CommandMenu</text>
</a>
</g>
</g>
<!-- Node18&#45;&gt;Node19 -->
<g id="edge21" class="edge"><title>Node18&#45;&gt;Node19</title>
<path fill="none" stroke="midnightblue" d="M579.874,-103C592.615,-103 605.702,-103 618.192,-103"/>
<polygon fill="midnightblue" stroke="midnightblue" points="579.749,-99.5001 569.749,-103 579.749,-106.5 579.749,-99.5001"/>
</g>
<!-- Node19&#45;&gt;Node5 -->
<g id="edge22" class="edge"><title>Node19&#45;&gt;Node5</title>
<path fill="none" stroke="midnightblue" d="M771.738,-107.112C858.753,-112.459 1001.04,-123.859 1122,-146 1137.39,-148.817 1153.9,-152.394 1169.23,-155.955"/>
<polygon fill="midnightblue" stroke="midnightblue" points="771.859,-103.613 761.667,-106.505 771.438,-110.6 771.859,-103.613"/>
</g>
<!-- Node20&#45;&gt;Node19 -->
<g id="edge24" class="edge"><title>Node20&#45;&gt;Node19</title>
<path fill="none" stroke="midnightblue" d="M567.05,-71.5498C587.915,-76.9306 610.67,-82.799 630.813,-87.9938"/>
<polygon fill="midnightblue" stroke="midnightblue" points="567.855,-68.1428 557.297,-69.0346 566.107,-74.921 567.855,-68.1428"/>
</g>
<!-- Node21&#45;&gt;Node14 -->
<g id="edge26" class="edge"><title>Node21&#45;&gt;Node14</title>
<path fill="none" stroke="midnightblue" d="M592.299,-193.455C601.044,-193.685 609.808,-193.916 618.295,-194.139"/>
<polygon fill="midnightblue" stroke="midnightblue" points="592.149,-189.95 582.06,-193.186 591.965,-196.948 592.149,-189.95"/>
</g>
</g>
</svg>
