<?xml version="1.0" encoding="UTF-8" standalone="no"?>
<!DOCTYPE svg PUBLIC "-//W3C//DTD SVG 1.1//EN"
 "http://www.w3.org/Graphics/SVG/1.1/DTD/svg11.dtd">
<!-- Generated by graphviz version 2.36.0 (20140111.2315)
 -->
<!-- Title: model.TurtleManager.clearActive Pages: 1 -->
<!--zoomable 145 -->
<svg id="main" version="1.1" xmlns="http://www.w3.org/2000/svg" xmlns:xlink="http://www.w3.org/1999/xlink" xml:space="preserve" onload="init(evt)">
<style type="text/css"><![CDATA[
.edge:hover path { stroke: red; }
.edge:hover polygon { stroke: red; fill: red; }
]]></style>
<script type="text/javascript"><![CDATA[
var edges = document.getElementsByTagName('g');
if (edges && edges.length) {
  for (var i=0;i<edges.length;i++) {
    if (edges[i].id.substr(0,4)=='edge') {
      edges[i].setAttribute('class','edge');
    }
  }
}
]]></script>
        <defs>
                <circle id="rim" cx="0" cy="0" r="7"/>
                <circle id="rim2" cx="0" cy="0" r="3.5"/>
                <g id="zoomPlus">
                        <use xlink:href="#rim" fill="#404040">
                                <set attributeName="fill" to="#808080" begin="zoomplus.mouseover" end="zoomplus.mouseout"/>
                        </use>
                        <path d="M-4,0h8M0,-4v8" fill="none" stroke="white" stroke-width="1.5" pointer-events="none"/>
                </g>
                <g id="zoomMin">
                        <use xlink:href="#rim" fill="#404040">
                                <set attributeName="fill" to="#808080" begin="zoomminus.mouseover" end="zoomminus.mouseout"/>
                        </use>
                        <path d="M-4,0h8" fill="none" stroke="white" stroke-width="1.5" pointer-events="none"/>
                </g>
                <g id="dirArrow">
                        <path fill="none" stroke="white" stroke-width="1.5" d="M0,-3.0v7 M-2.5,-0.5L0,-3.0L2.5,-0.5"/>
                </g>
               <g id="resetDef">
                       <use xlink:href="#rim2" fill="#404040">
                               <set attributeName="fill" to="#808080" begin="reset.mouseover" end="reset.mouseout"/>
                       </use>
               </g>
        </defs>

<script type="text/javascript">
var viewWidth = 574;
var viewHeight = 145;
var sectionId = 'dynsection-15';
</script>
<script xlink:href="../../svgpan.js"/>
<svg id="graph" class="graph">
<g id="viewport">
<title>model.TurtleManager.clearActive</title>
<polygon fill="white" stroke="none" points="-4,4 -4,-141 570,-141 570,4 -4,4"/>
<!-- Node1 -->
<g id="node1" class="node"><title>Node1</title>
<polygon fill="#bfbfbf" stroke="black" points="0.5,-49 0.5,-79 143.5,-79 143.5,-49 0.5,-49"/>
<text text-anchor="start" x="8.5" y="-67" font-family="Helvetica,sans-Serif" font-size="10.00">model.TurtleManager.clear</text>
<text text-anchor="middle" x="72" y="-56" font-family="Helvetica,sans-Serif" font-size="10.00">Active</text>
</g>
<!-- Node2 -->
<g id="node2" class="node"><title>Node2</title>
<g id="a_node2"><a xlink:href="../../d8/dff/classmodel_1_1_turtle_manager.html#adeb56b91fa8a55709a6e87dece71a596" target="_top" xlink:title="model.TurtleManager.addActive">
<polygon fill="white" stroke="black" points="180.5,-98.5 180.5,-117.5 347.5,-117.5 347.5,-98.5 180.5,-98.5"/>
<text text-anchor="middle" x="264" y="-105.5" font-family="Helvetica,sans-Serif" font-size="10.00">model.TurtleManager.addActive</text>
</a>
</g>
</g>
<!-- Node1&#45;&gt;Node2 -->
<g id="edge1" class="edge"><title>Node1&#45;&gt;Node2</title>
<path fill="none" stroke="midnightblue" d="M147.786,-81.3187C173.03,-87.1648 200.271,-93.4732 221.924,-98.4876"/>
<polygon fill="midnightblue" stroke="midnightblue" points="148.388,-77.8656 137.856,-79.0192 146.808,-84.6852 148.388,-77.8656"/>
</g>
<!-- Node5 -->
<g id="node5" class="node"><title>Node5</title>
<g id="a_node5"><a xlink:href="../../d5/d6d/classparser_1_1commands_1_1workspace_1_1_ask.html#a837a075ce77789761e3060413c51e882" target="_top" xlink:title="parser.commands.workspace.\lAsk.evaluate">
<polygon fill="white" stroke="black" points="184,-49 184,-79 344,-79 344,-49 184,-49"/>
<text text-anchor="start" x="192" y="-67" font-family="Helvetica,sans-Serif" font-size="10.00">parser.commands.workspace.</text>
<text text-anchor="middle" x="264" y="-56" font-family="Helvetica,sans-Serif" font-size="10.00">Ask.evaluate</text>
</a>
</g>
</g>
<!-- Node1&#45;&gt;Node5 -->
<g id="edge4" class="edge"><title>Node1&#45;&gt;Node5</title>
<path fill="none" stroke="midnightblue" d="M153.98,-64C163.888,-64 174.004,-64 183.885,-64"/>
<polygon fill="midnightblue" stroke="midnightblue" points="153.749,-60.5001 143.749,-64 153.749,-67.5001 153.749,-60.5001"/>
</g>
<!-- Node6 -->
<g id="node6" class="node"><title>Node6</title>
<g id="a_node6"><a xlink:href="../../db/d77/classparser_1_1commands_1_1workspace_1_1_ask_with.html#a1de9ef4326a655f16ceec2a53302a0b5" target="_top" xlink:title="parser.commands.workspace.\lAskWith.evaluate">
<polygon fill="white" stroke="black" points="184,-0 184,-30 344,-30 344,-0 184,-0"/>
<text text-anchor="start" x="192" y="-18" font-family="Helvetica,sans-Serif" font-size="10.00">parser.commands.workspace.</text>
<text text-anchor="middle" x="264" y="-7" font-family="Helvetica,sans-Serif" font-size="10.00">AskWith.evaluate</text>
</a>
</g>
</g>
<!-- Node1&#45;&gt;Node6 -->
<g id="edge5" class="edge"><title>Node1&#45;&gt;Node6</title>
<path fill="none" stroke="midnightblue" d="M141.05,-46.4502C161.915,-41.0694 184.67,-35.201 204.813,-30.0062"/>
<polygon fill="midnightblue" stroke="midnightblue" points="140.107,-43.079 131.297,-48.9654 141.855,-49.8572 140.107,-43.079"/>
</g>
<!-- Node3 -->
<g id="node3" class="node"><title>Node3</title>
<g id="a_node3"><a xlink:href="../../d8/dff/classmodel_1_1_turtle_manager.html#a3f8173be63c2eaef2027880f7eca7dcf" target="_top" xlink:title="model.TurtleManager.activateEven">
<polygon fill="white" stroke="black" points="384.5,-117.5 384.5,-136.5 565.5,-136.5 565.5,-117.5 384.5,-117.5"/>
<text text-anchor="middle" x="475" y="-124.5" font-family="Helvetica,sans-Serif" font-size="10.00">model.TurtleManager.activateEven</text>
</a>
</g>
</g>
<!-- Node2&#45;&gt;Node3 -->
<g id="edge2" class="edge"><title>Node2&#45;&gt;Node3</title>
<path fill="none" stroke="midnightblue" d="M357.602,-116.418C366.514,-117.229 375.544,-118.049 384.427,-118.857"/>
<polygon fill="midnightblue" stroke="midnightblue" points="357.878,-112.929 347.602,-115.509 357.244,-119.9 357.878,-112.929"/>
</g>
<!-- Node4 -->
<g id="node4" class="node"><title>Node4</title>
<g id="a_node4"><a xlink:href="../../d8/dff/classmodel_1_1_turtle_manager.html#adb87485969ca65b389faf0f9af904528" target="_top" xlink:title="model.TurtleManager.activateOdd">
<polygon fill="white" stroke="black" points="386.5,-79.5 386.5,-98.5 563.5,-98.5 563.5,-79.5 386.5,-79.5"/>
<text text-anchor="middle" x="475" y="-86.5" font-family="Helvetica,sans-Serif" font-size="10.00">model.TurtleManager.activateOdd</text>
</a>
</g>
</g>
<!-- Node2&#45;&gt;Node4 -->
<g id="edge3" class="edge"><title>Node2&#45;&gt;Node4</title>
<path fill="none" stroke="midnightblue" d="M357.775,-99.5659C367.21,-98.7081 376.775,-97.8387 386.155,-96.9859"/>
<polygon fill="midnightblue" stroke="midnightblue" points="357.244,-96.0996 347.602,-100.491 357.878,-103.071 357.244,-96.0996"/>
</g>
</g>
</svg>
        <g id="navigator" transform="translate(0 0)" fill="#404254">
                <rect fill="#f2f5e9" fill-opacity="0.5" stroke="#606060" stroke-width=".5" x="0" y="0" width="60" height="60"/>
                <use id="zoomplus" xlink:href="#zoomPlus" x="17" y="9" onmousedown="handleZoom(evt,'in')"/>
                <use id="zoomminus" xlink:href="#zoomMin" x="42" y="9" onmousedown="handleZoom(evt,'out')"/>
                <use id="reset" xlink:href="#resetDef" x="30" y="36" onmousedown="handleReset()"/>
                <g id="arrowUp" xlink:href="#dirArrow" transform="translate(30 24)" onmousedown="handlePan(0,-1)">
                  <use xlink:href="#rim" fill="#404040">
                        <set attributeName="fill" to="#808080" begin="arrowUp.mouseover" end="arrowUp.mouseout"/>
                  </use>
                  <path fill="none" stroke="white" stroke-width="1.5" d="M0,-3.0v7 M-2.5,-0.5L0,-3.0L2.5,-0.5"/>
                </g>
                <g id="arrowRight" xlink:href="#dirArrow" transform="rotate(90) translate(36 -43)" onmousedown="handlePan(1,0)">
                  <use xlink:href="#rim" fill="#404040">
                        <set attributeName="fill" to="#808080" begin="arrowRight.mouseover" end="arrowRight.mouseout"/>
                  </use>
                  <path fill="none" stroke="white" stroke-width="1.5" d="M0,-3.0v7 M-2.5,-0.5L0,-3.0L2.5,-0.5"/>
                </g>
                <g id="arrowDown" xlink:href="#dirArrow" transform="rotate(180) translate(-30 -48)" onmousedown="handlePan(0,1)">
                  <use xlink:href="#rim" fill="#404040">
                        <set attributeName="fill" to="#808080" begin="arrowDown.mouseover" end="arrowDown.mouseout"/>
                  </use>
                  <path fill="none" stroke="white" stroke-width="1.5" d="M0,-3.0v7 M-2.5,-0.5L0,-3.0L2.5,-0.5"/>
                </g>
                <g id="arrowLeft" xlink:href="#dirArrow" transform="rotate(270) translate(-36 17)" onmousedown="handlePan(-1,0)">
                  <use xlink:href="#rim" fill="#404040">
                        <set attributeName="fill" to="#808080" begin="arrowLeft.mouseover" end="arrowLeft.mouseout"/>
                  </use>
                  <path fill="none" stroke="white" stroke-width="1.5" d="M0,-3.0v7 M-2.5,-0.5L0,-3.0L2.5,-0.5"/>
                </g>
        </g>
        <svg viewBox="0 0 15 15" width="100%" height="30px" preserveAspectRatio="xMaxYMin meet">
         <g id="arrow_out" transform="scale(0.3 0.3)">
          <a xlink:href="classmodel_1_1_turtle_manager_a574d2559ea66b6d03c753ef8498103d4_icgraph_org.svg" target="_base">
           <rect id="button" ry="5" rx="5" y="6" x="6" height="38" width="38"
                fill="#f2f5e9" fill-opacity="0.5" stroke="#606060" stroke-width="1.0"/>
           <path id="arrow"
             d="M 11.500037,31.436501 C 11.940474,20.09759 22.043105,11.32322 32.158766,21.979434 L 37.068811,17.246167 C 37.068811,17.246167 37.088388,32 37.088388,32 L 22.160133,31.978069 C 22.160133,31.978069 26.997745,27.140456 26.997745,27.140456 C 18.528582,18.264221 13.291696,25.230495 11.500037,31.436501 z"
             style="fill:#404040;"/>
          </a>
         </g>
        </svg>
</svg>
