<?xml version="1.0" encoding="UTF-8" standalone="no"?>
<!DOCTYPE svg PUBLIC "-//W3C//DTD SVG 1.1//EN"
 "http://www.w3.org/Graphics/SVG/1.1/DTD/svg11.dtd">
<!-- Generated by graphviz version 2.36.0 (20140111.2315)
 -->
<!-- Title: model.TurtleManager.addNew Pages: 1 -->
<!--zoomable 248 -->
<svg id="main" version="1.1" xmlns="http://www.w3.org/2000/svg" xmlns:xlink="http://www.w3.org/1999/xlink" xml:space="preserve" onload="init(evt)">
<style type="text/css"><![CDATA[
.edge:hover path { stroke: red; }
.edge:hover polygon { stroke: red; fill: red; }
]]></style>
<script type="text/javascript"><![CDATA[
var edges = document.getElementsByTagName('g');
if (edges && edges.length) {
  for (var i=0;i<edges.length;i++) {
    if (edges[i].id.substr(0,4)=='edge') {
      edges[i].setAttribute('class','edge');
    }
  }
}
]]></script>
        <defs>
                <circle id="rim" cx="0" cy="0" r="7"/>
                <circle id="rim2" cx="0" cy="0" r="3.5"/>
                <g id="zoomPlus">
                        <use xlink:href="#rim" fill="#404040">
                                <set attributeName="fill" to="#808080" begin="zoomplus.mouseover" end="zoomplus.mouseout"/>
                        </use>
                        <path d="M-4,0h8M0,-4v8" fill="none" stroke="white" stroke-width="1.5" pointer-events="none"/>
                </g>
                <g id="zoomMin">
                        <use xlink:href="#rim" fill="#404040">
                                <set attributeName="fill" to="#808080" begin="zoomminus.mouseover" end="zoomminus.mouseout"/>
                        </use>
                        <path d="M-4,0h8" fill="none" stroke="white" stroke-width="1.5" pointer-events="none"/>
                </g>
                <g id="dirArrow">
                        <path fill="none" stroke="white" stroke-width="1.5" d="M0,-3.0v7 M-2.5,-0.5L0,-3.0L2.5,-0.5"/>
                </g>
               <g id="resetDef">
                       <use xlink:href="#rim2" fill="#404040">
                               <set attributeName="fill" to="#808080" begin="reset.mouseover" end="reset.mouseout"/>
                       </use>
               </g>
        </defs>

<script type="text/javascript">
var viewWidth = 1472;
var viewHeight = 248;
var sectionId = 'dynsection-12';
</script>
<script xlink:href="../../svgpan.js"/>
<svg id="graph" class="graph">
<g id="viewport">
<title>model.TurtleManager.addNew</title>
<polygon fill="white" stroke="none" points="-4,4 -4,-244.227 1468,-244.227 1468,4 -4,4"/>
<!-- Node1 -->
<g id="node1" class="node"><title>Node1</title>
<polygon fill="#bfbfbf" stroke="black" points="0,-43.7269 0,-62.7269 158,-62.7269 158,-43.7269 0,-43.7269"/>
<text text-anchor="middle" x="79" y="-50.7269" font-family="Helvetica,sans-Serif" font-size="10.00">model.TurtleManager.addNew</text>
</g>
<!-- Node2 -->
<g id="node2" class="node"><title>Node2</title>
<g id="a_node2"><a xlink:href="../../d8/dff/classmodel_1_1_turtle_manager.html#a1c46b383a49e06a2436ad084bf7cd5aa" target="_top" xlink:title="model.TurtleManager.activate">
<polygon fill="white" stroke="black" points="194,-102.727 194,-121.727 352,-121.727 352,-102.727 194,-102.727"/>
<text text-anchor="middle" x="273" y="-109.727" font-family="Helvetica,sans-Serif" font-size="10.00">model.TurtleManager.activate</text>
</a>
</g>
</g>
<!-- Node1&#45;&gt;Node2 -->
<g id="edge1" class="edge"><title>Node1&#45;&gt;Node2</title>
<path fill="none" stroke="midnightblue" d="M120.977,-65.8189C156.939,-76.8695 208.451,-92.6989 241.056,-102.718"/>
<polygon fill="midnightblue" stroke="midnightblue" points="121.862,-62.4294 111.275,-62.8376 119.806,-69.1206 121.862,-62.4294"/>
</g>
<!-- Node13 -->
<g id="node13" class="node"><title>Node13</title>
<g id="a_node13"><a xlink:href="../../de/d84/classcontroller_1_1_workspace.html#a6edc5179c7840bd8bdd91bb19ef7405b" target="_top" xlink:title="controller.Workspace.add\lTurtle">
<polygon fill="white" stroke="black" points="588,-51.2269 588,-81.2269 724,-81.2269 724,-51.2269 588,-51.2269"/>
<text text-anchor="start" x="596" y="-69.2269" font-family="Helvetica,sans-Serif" font-size="10.00">controller.Workspace.add</text>
<text text-anchor="middle" x="656" y="-58.2269" font-family="Helvetica,sans-Serif" font-size="10.00">Turtle</text>
</a>
</g>
</g>
<!-- Node1&#45;&gt;Node13 -->
<g id="edge12" class="edge"><title>Node1&#45;&gt;Node13</title>
<path fill="none" stroke="midnightblue" d="M122.66,-41.0388C205.682,-19.2047 394.309,21.141 548,-14.2269 578.796,-21.3137 611,-38.5036 631.93,-51.1889"/>
<polygon fill="midnightblue" stroke="midnightblue" points="121.589,-37.7021 112.833,-43.6673 123.398,-44.4644 121.589,-37.7021"/>
</g>
<!-- Node3 -->
<g id="node3" class="node"><title>Node3</title>
<g id="a_node3"><a xlink:href="../../d8/dff/classmodel_1_1_turtle_manager.html#a2dfe5fb02eb65a21ec2a752731b3b75c" target="_top" xlink:title="model.TurtleManager.activate">
<polygon fill="white" stroke="black" points="389,-220.727 389,-239.727 547,-239.727 547,-220.727 389,-220.727"/>
<text text-anchor="middle" x="468" y="-227.727" font-family="Helvetica,sans-Serif" font-size="10.00">model.TurtleManager.activate</text>
</a>
</g>
</g>
<!-- Node2&#45;&gt;Node3 -->
<g id="edge2" class="edge"><title>Node2&#45;&gt;Node3</title>
<path fill="none" stroke="midnightblue" d="M289.263,-129.585C309.606,-151.633 347.745,-189.32 388,-210.227 396.287,-214.531 405.552,-217.945 414.739,-220.642"/>
<polygon fill="midnightblue" stroke="midnightblue" points="291.675,-127.034 282.37,-121.968 286.485,-131.731 291.675,-127.034"/>
</g>
<!-- Node4 -->
<g id="node4" class="node"><title>Node4</title>
<g id="a_node4"><a xlink:href="../../de/d84/classcontroller_1_1_workspace.html#abceb71fe227a560303f42bb77b0a1113" target="_top" xlink:title="controller.Workspace.activate\lTurtle">
<polygon fill="white" stroke="black" points="390,-171.227 390,-201.227 546,-201.227 546,-171.227 390,-171.227"/>
<text text-anchor="start" x="398" y="-189.227" font-family="Helvetica,sans-Serif" font-size="10.00">controller.Workspace.activate</text>
<text text-anchor="middle" x="468" y="-178.227" font-family="Helvetica,sans-Serif" font-size="10.00">Turtle</text>
</a>
</g>
</g>
<!-- Node2&#45;&gt;Node4 -->
<g id="edge3" class="edge"><title>Node2&#45;&gt;Node4</title>
<path fill="none" stroke="midnightblue" d="M303.912,-126.053C326.715,-136.355 359.027,-150.446 388,-161.227 397.168,-164.638 407.04,-168.001 416.594,-171.101"/>
<polygon fill="midnightblue" stroke="midnightblue" points="305.31,-122.844 294.758,-121.89 302.412,-129.216 305.31,-122.844"/>
</g>
<!-- Node10 -->
<g id="node10" class="node"><title>Node10</title>
<g id="a_node10"><a xlink:href="../../d5/d6d/classparser_1_1commands_1_1workspace_1_1_ask.html#a837a075ce77789761e3060413c51e882" target="_top" xlink:title="parser.commands.workspace.\lAsk.evaluate">
<polygon fill="white" stroke="black" points="388,-122.227 388,-152.227 548,-152.227 548,-122.227 388,-122.227"/>
<text text-anchor="start" x="396" y="-140.227" font-family="Helvetica,sans-Serif" font-size="10.00">parser.commands.workspace.</text>
<text text-anchor="middle" x="468" y="-129.227" font-family="Helvetica,sans-Serif" font-size="10.00">Ask.evaluate</text>
</a>
</g>
</g>
<!-- Node2&#45;&gt;Node10 -->
<g id="edge9" class="edge"><title>Node2&#45;&gt;Node10</title>
<path fill="none" stroke="midnightblue" d="M357.52,-123.046C367.606,-124.352 377.884,-125.683 387.903,-126.981"/>
<polygon fill="midnightblue" stroke="midnightblue" points="357.882,-119.563 347.516,-121.75 356.983,-126.505 357.882,-119.563"/>
</g>
<!-- Node11 -->
<g id="node11" class="node"><title>Node11</title>
<g id="a_node11"><a xlink:href="../../db/d77/classparser_1_1commands_1_1workspace_1_1_ask_with.html#a1de9ef4326a655f16ceec2a53302a0b5" target="_top" xlink:title="parser.commands.workspace.\lAskWith.evaluate">
<polygon fill="white" stroke="black" points="388,-73.2269 388,-103.227 548,-103.227 548,-73.2269 388,-73.2269"/>
<text text-anchor="start" x="396" y="-91.2269" font-family="Helvetica,sans-Serif" font-size="10.00">parser.commands.workspace.</text>
<text text-anchor="middle" x="468" y="-80.2269" font-family="Helvetica,sans-Serif" font-size="10.00">AskWith.evaluate</text>
</a>
</g>
</g>
<!-- Node2&#45;&gt;Node11 -->
<g id="edge10" class="edge"><title>Node2&#45;&gt;Node11</title>
<path fill="none" stroke="midnightblue" d="M360.653,-101.451C369.655,-100.332 378.773,-99.1982 387.688,-98.0896"/>
<polygon fill="midnightblue" stroke="midnightblue" points="360.048,-97.9997 350.556,-102.707 360.911,-104.946 360.048,-97.9997"/>
</g>
<!-- Node12 -->
<g id="node12" class="node"><title>Node12</title>
<g id="a_node12"><a xlink:href="../../d8/dff/classmodel_1_1_turtle_manager.html#aaf9a9034c70a70c0b8e6317192c064d9" target="_top" xlink:title="model.TurtleManager.Turtle\lManager">
<polygon fill="white" stroke="black" points="395.5,-24.2269 395.5,-54.2269 540.5,-54.2269 540.5,-24.2269 395.5,-24.2269"/>
<text text-anchor="start" x="403.5" y="-42.2269" font-family="Helvetica,sans-Serif" font-size="10.00">model.TurtleManager.Turtle</text>
<text text-anchor="middle" x="468" y="-31.2269" font-family="Helvetica,sans-Serif" font-size="10.00">Manager</text>
</a>
</g>
</g>
<!-- Node2&#45;&gt;Node12 -->
<g id="edge11" class="edge"><title>Node2&#45;&gt;Node12</title>
<path fill="none" stroke="midnightblue" d="M304.36,-98.5442C327.155,-88.4918 359.255,-74.8012 388,-64.2269 397.316,-60.7999 407.349,-57.4042 417.036,-54.2717"/>
<polygon fill="midnightblue" stroke="midnightblue" points="302.918,-95.3548 295.197,-102.61 305.757,-101.753 302.918,-95.3548"/>
</g>
<!-- Node5 -->
<g id="node5" class="node"><title>Node5</title>
<g id="a_node5"><a xlink:href="../../d9/df7/classcontroller_1_1_controller.html#acd242cba05fd983be695439ef2186966" target="_top" xlink:title="controller.Controller.create\lCheckBoxItemListener">
<polygon fill="white" stroke="black" points="584.5,-135.227 584.5,-165.227 727.5,-165.227 727.5,-135.227 584.5,-135.227"/>
<text text-anchor="start" x="592.5" y="-153.227" font-family="Helvetica,sans-Serif" font-size="10.00">controller.Controller.create</text>
<text text-anchor="middle" x="656" y="-142.227" font-family="Helvetica,sans-Serif" font-size="10.00">CheckBoxItemListener</text>
</a>
</g>
</g>
<!-- Node4&#45;&gt;Node5 -->
<g id="edge4" class="edge"><title>Node4&#45;&gt;Node5</title>
<path fill="none" stroke="midnightblue" d="M556.352,-169.32C565.693,-167.512 575.109,-165.69 584.223,-163.926"/>
<polygon fill="midnightblue" stroke="midnightblue" points="555.418,-165.936 546.265,-171.272 556.748,-172.808 555.418,-165.936"/>
</g>
<!-- Node6 -->
<g id="node6" class="node"><title>Node6</title>
<g id="a_node6"><a xlink:href="../../d9/df7/classcontroller_1_1_controller.html#a17d9d0474952b983548cde23a4e27134" target="_top" xlink:title="controller.Controller.create\lTellMenuListener">
<polygon fill="white" stroke="black" points="764.5,-125.227 764.5,-155.227 907.5,-155.227 907.5,-125.227 764.5,-125.227"/>
<text text-anchor="start" x="772.5" y="-143.227" font-family="Helvetica,sans-Serif" font-size="10.00">controller.Controller.create</text>
<text text-anchor="middle" x="836" y="-132.227" font-family="Helvetica,sans-Serif" font-size="10.00">TellMenuListener</text>
</a>
</g>
</g>
<!-- Node5&#45;&gt;Node6 -->
<g id="edge5" class="edge"><title>Node5&#45;&gt;Node6</title>
<path fill="none" stroke="midnightblue" d="M737.646,-145.696C746.599,-145.193 755.666,-144.684 764.479,-144.189"/>
<polygon fill="midnightblue" stroke="midnightblue" points="737.394,-142.205 727.606,-146.26 737.787,-149.194 737.394,-142.205"/>
</g>
<!-- Node7 -->
<g id="node7" class="node"><title>Node7</title>
<g id="a_node7"><a xlink:href="../../d9/df7/classcontroller_1_1_controller.html#ac03add001882f876041934dfe435b43f" target="_top" xlink:title="controller.Controller.create\lSettingMenu">
<polygon fill="white" stroke="black" points="944.5,-98.2269 944.5,-128.227 1087.5,-128.227 1087.5,-98.2269 944.5,-98.2269"/>
<text text-anchor="start" x="952.5" y="-116.227" font-family="Helvetica,sans-Serif" font-size="10.00">controller.Controller.create</text>
<text text-anchor="middle" x="1016" y="-105.227" font-family="Helvetica,sans-Serif" font-size="10.00">SettingMenu</text>
</a>
</g>
</g>
<!-- Node6&#45;&gt;Node7 -->
<g id="edge6" class="edge"><title>Node6&#45;&gt;Node7</title>
<path fill="none" stroke="midnightblue" d="M917.646,-127.994C926.599,-126.636 935.666,-125.261 944.479,-123.924"/>
<polygon fill="midnightblue" stroke="midnightblue" points="916.968,-124.557 907.606,-129.517 918.018,-131.478 916.968,-124.557"/>
</g>
<!-- Node8 -->
<g id="node8" class="node"><title>Node8</title>
<g id="a_node8"><a xlink:href="../../d9/df7/classcontroller_1_1_controller.html#a2901bf43bb8e47b485558dbf00d40d6d" target="_top" xlink:title="controller.Controller.create\lJMenuBar">
<polygon fill="white" stroke="black" points="1124.5,-98.2269 1124.5,-128.227 1267.5,-128.227 1267.5,-98.2269 1124.5,-98.2269"/>
<text text-anchor="start" x="1132.5" y="-116.227" font-family="Helvetica,sans-Serif" font-size="10.00">controller.Controller.create</text>
<text text-anchor="middle" x="1196" y="-105.227" font-family="Helvetica,sans-Serif" font-size="10.00">JMenuBar</text>
</a>
</g>
</g>
<!-- Node7&#45;&gt;Node8 -->
<g id="edge7" class="edge"><title>Node7&#45;&gt;Node8</title>
<path fill="none" stroke="midnightblue" d="M1097.65,-113.227C1106.6,-113.227 1115.67,-113.227 1124.48,-113.227"/>
<polygon fill="midnightblue" stroke="midnightblue" points="1097.61,-109.727 1087.61,-113.227 1097.61,-116.727 1097.61,-109.727"/>
</g>
<!-- Node9 -->
<g id="node9" class="node"><title>Node9</title>
<g id="a_node9"><a xlink:href="../../d9/df7/classcontroller_1_1_controller.html#a47511ec57338c8e75e71e9314cda5271" target="_top" xlink:title="controller.Controller.Controller">
<polygon fill="white" stroke="black" points="1304.5,-103.727 1304.5,-122.727 1463.5,-122.727 1463.5,-103.727 1304.5,-103.727"/>
<text text-anchor="middle" x="1384" y="-110.727" font-family="Helvetica,sans-Serif" font-size="10.00">controller.Controller.Controller</text>
</a>
</g>
</g>
<!-- Node8&#45;&gt;Node9 -->
<g id="edge8" class="edge"><title>Node8&#45;&gt;Node9</title>
<path fill="none" stroke="midnightblue" d="M1277.84,-113.227C1286.64,-113.227 1295.6,-113.227 1304.38,-113.227"/>
<polygon fill="midnightblue" stroke="midnightblue" points="1277.58,-109.727 1267.58,-113.227 1277.58,-116.727 1277.58,-109.727"/>
</g>
<!-- Node13&#45;&gt;Node7 -->
<g id="edge13" class="edge"><title>Node13&#45;&gt;Node7</title>
<path fill="none" stroke="midnightblue" d="M734.516,-76.4036C796.886,-84.5918 883.804,-96.0029 944.291,-103.944"/>
<polygon fill="midnightblue" stroke="midnightblue" points="734.708,-72.8988 724.337,-75.0673 733.796,-79.8392 734.708,-72.8988"/>
</g>
</g>
</svg>
        <g id="navigator" transform="translate(0 0)" fill="#404254">
                <rect fill="#f2f5e9" fill-opacity="0.5" stroke="#606060" stroke-width=".5" x="0" y="0" width="60" height="60"/>
                <use id="zoomplus" xlink:href="#zoomPlus" x="17" y="9" onmousedown="handleZoom(evt,'in')"/>
                <use id="zoomminus" xlink:href="#zoomMin" x="42" y="9" onmousedown="handleZoom(evt,'out')"/>
                <use id="reset" xlink:href="#resetDef" x="30" y="36" onmousedown="handleReset()"/>
                <g id="arrowUp" xlink:href="#dirArrow" transform="translate(30 24)" onmousedown="handlePan(0,-1)">
                  <use xlink:href="#rim" fill="#404040">
                        <set attributeName="fill" to="#808080" begin="arrowUp.mouseover" end="arrowUp.mouseout"/>
                  </use>
                  <path fill="none" stroke="white" stroke-width="1.5" d="M0,-3.0v7 M-2.5,-0.5L0,-3.0L2.5,-0.5"/>
                </g>
                <g id="arrowRight" xlink:href="#dirArrow" transform="rotate(90) translate(36 -43)" onmousedown="handlePan(1,0)">
                  <use xlink:href="#rim" fill="#404040">
                        <set attributeName="fill" to="#808080" begin="arrowRight.mouseover" end="arrowRight.mouseout"/>
                  </use>
                  <path fill="none" stroke="white" stroke-width="1.5" d="M0,-3.0v7 M-2.5,-0.5L0,-3.0L2.5,-0.5"/>
                </g>
                <g id="arrowDown" xlink:href="#dirArrow" transform="rotate(180) translate(-30 -48)" onmousedown="handlePan(0,1)">
                  <use xlink:href="#rim" fill="#404040">
                        <set attributeName="fill" to="#808080" begin="arrowDown.mouseover" end="arrowDown.mouseout"/>
                  </use>
                  <path fill="none" stroke="white" stroke-width="1.5" d="M0,-3.0v7 M-2.5,-0.5L0,-3.0L2.5,-0.5"/>
                </g>
                <g id="arrowLeft" xlink:href="#dirArrow" transform="rotate(270) translate(-36 17)" onmousedown="handlePan(-1,0)">
                  <use xlink:href="#rim" fill="#404040">
                        <set attributeName="fill" to="#808080" begin="arrowLeft.mouseover" end="arrowLeft.mouseout"/>
                  </use>
                  <path fill="none" stroke="white" stroke-width="1.5" d="M0,-3.0v7 M-2.5,-0.5L0,-3.0L2.5,-0.5"/>
                </g>
        </g>
        <svg viewBox="0 0 15 15" width="100%" height="30px" preserveAspectRatio="xMaxYMin meet">
         <g id="arrow_out" transform="scale(0.3 0.3)">
          <a xlink:href="classmodel_1_1_turtle_manager_a3d0172590b0214793dbd3997c56f7759_icgraph_org.svg" target="_base">
           <rect id="button" ry="5" rx="5" y="6" x="6" height="38" width="38"
                fill="#f2f5e9" fill-opacity="0.5" stroke="#606060" stroke-width="1.0"/>
           <path id="arrow"
             d="M 11.500037,31.436501 C 11.940474,20.09759 22.043105,11.32322 32.158766,21.979434 L 37.068811,17.246167 C 37.068811,17.246167 37.088388,32 37.088388,32 L 22.160133,31.978069 C 22.160133,31.978069 26.997745,27.140456 26.997745,27.140456 C 18.528582,18.264221 13.291696,25.230495 11.500037,31.436501 z"
             style="fill:#404040;"/>
          </a>
         </g>
        </svg>
</svg>
