<?xml version="1.0" encoding="UTF-8" standalone="no"?>
<!DOCTYPE svg PUBLIC "-//W3C//DTD SVG 1.1//EN"
 "http://www.w3.org/Graphics/SVG/1.1/DTD/svg11.dtd">
<!-- Generated by graphviz version 2.36.0 (20140111.2315)
 -->
<!-- Title: model.TurtleManager.activate Pages: 1 -->
<svg width="1278pt" height="224pt"
 viewBox="0.00 0.00 1278.00 224.00" xmlns="http://www.w3.org/2000/svg" xmlns:xlink="http://www.w3.org/1999/xlink">
<g id="graph0" class="graph" transform="scale(1 1) rotate(0) translate(4 220)">
<title>model.TurtleManager.activate</title>
<polygon fill="white" stroke="none" points="-4,4 -4,-220 1274,-220 1274,4 -4,4"/>
<!-- Node1 -->
<g id="node1" class="node"><title>Node1</title>
<polygon fill="#bfbfbf" stroke="black" points="0,-103.5 0,-122.5 158,-122.5 158,-103.5 0,-103.5"/>
<text text-anchor="middle" x="79" y="-110.5" font-family="Helvetica,sans-Serif" font-size="10.00">model.TurtleManager.activate</text>
</g>
<!-- Node2 -->
<g id="node2" class="node"><title>Node2</title>
<g id="a_node2"><a xlink:href="../../d8/dff/classmodel_1_1_turtle_manager.html#a2dfe5fb02eb65a21ec2a752731b3b75c" target="_top" xlink:title="model.TurtleManager.activate">
<polygon fill="white" stroke="black" points="195,-196.5 195,-215.5 353,-215.5 353,-196.5 195,-196.5"/>
<text text-anchor="middle" x="274" y="-203.5" font-family="Helvetica,sans-Serif" font-size="10.00">model.TurtleManager.activate</text>
</a>
</g>
</g>
<!-- Node1&#45;&gt;Node2 -->
<g id="edge1" class="edge"><title>Node1&#45;&gt;Node2</title>
<path fill="none" stroke="midnightblue" d="M100.449,-128.996C122.424,-145.468 158.935,-170.811 194,-186 203.737,-190.218 214.549,-193.68 224.971,-196.469"/>
<polygon fill="midnightblue" stroke="midnightblue" points="102.313,-126.016 92.2361,-122.743 98.0723,-131.585 102.313,-126.016"/>
</g>
<!-- Node3 -->
<g id="node3" class="node"><title>Node3</title>
<g id="a_node3"><a xlink:href="../../de/d84/classcontroller_1_1_workspace.html#abceb71fe227a560303f42bb77b0a1113" target="_top" xlink:title="controller.Workspace.activate\lTurtle">
<polygon fill="white" stroke="black" points="196,-147 196,-177 352,-177 352,-147 196,-147"/>
<text text-anchor="start" x="204" y="-165" font-family="Helvetica,sans-Serif" font-size="10.00">controller.Workspace.activate</text>
<text text-anchor="middle" x="274" y="-154" font-family="Helvetica,sans-Serif" font-size="10.00">Turtle</text>
</a>
</g>
</g>
<!-- Node1&#45;&gt;Node3 -->
<g id="edge2" class="edge"><title>Node1&#45;&gt;Node3</title>
<path fill="none" stroke="midnightblue" d="M127.666,-125.102C153.686,-131.708 186.139,-139.947 213.773,-146.963"/>
<polygon fill="midnightblue" stroke="midnightblue" points="128.224,-121.633 117.671,-122.564 126.502,-128.417 128.224,-121.633"/>
</g>
<!-- Node9 -->
<g id="node9" class="node"><title>Node9</title>
<g id="a_node9"><a xlink:href="../../d5/d6d/classparser_1_1commands_1_1workspace_1_1_ask.html#a837a075ce77789761e3060413c51e882" target="_top" xlink:title="parser.commands.workspace.\lAsk.evaluate">
<polygon fill="white" stroke="black" points="194,-98 194,-128 354,-128 354,-98 194,-98"/>
<text text-anchor="start" x="202" y="-116" font-family="Helvetica,sans-Serif" font-size="10.00">parser.commands.workspace.</text>
<text text-anchor="middle" x="274" y="-105" font-family="Helvetica,sans-Serif" font-size="10.00">Ask.evaluate</text>
</a>
</g>
</g>
<!-- Node1&#45;&gt;Node9 -->
<g id="edge8" class="edge"><title>Node1&#45;&gt;Node9</title>
<path fill="none" stroke="midnightblue" d="M168.447,-113C176.877,-113 185.39,-113 193.725,-113"/>
<polygon fill="midnightblue" stroke="midnightblue" points="168.222,-109.5 158.222,-113 168.222,-116.5 168.222,-109.5"/>
</g>
<!-- Node10 -->
<g id="node10" class="node"><title>Node10</title>
<g id="a_node10"><a xlink:href="../../db/d77/classparser_1_1commands_1_1workspace_1_1_ask_with.html#a1de9ef4326a655f16ceec2a53302a0b5" target="_top" xlink:title="parser.commands.workspace.\lAskWith.evaluate">
<polygon fill="white" stroke="black" points="194,-49 194,-79 354,-79 354,-49 194,-49"/>
<text text-anchor="start" x="202" y="-67" font-family="Helvetica,sans-Serif" font-size="10.00">parser.commands.workspace.</text>
<text text-anchor="middle" x="274" y="-56" font-family="Helvetica,sans-Serif" font-size="10.00">AskWith.evaluate</text>
</a>
</g>
</g>
<!-- Node1&#45;&gt;Node10 -->
<g id="edge9" class="edge"><title>Node1&#45;&gt;Node10</title>
<path fill="none" stroke="midnightblue" d="M127.666,-100.898C153.686,-94.292 186.139,-86.0529 213.773,-79.037"/>
<polygon fill="midnightblue" stroke="midnightblue" points="126.502,-97.5827 117.671,-103.436 128.224,-104.367 126.502,-97.5827"/>
</g>
<!-- Node11 -->
<g id="node11" class="node"><title>Node11</title>
<g id="a_node11"><a xlink:href="../../d8/dff/classmodel_1_1_turtle_manager.html#aaf9a9034c70a70c0b8e6317192c064d9" target="_top" xlink:title="model.TurtleManager.Turtle\lManager">
<polygon fill="white" stroke="black" points="201.5,-0 201.5,-30 346.5,-30 346.5,-0 201.5,-0"/>
<text text-anchor="start" x="209.5" y="-18" font-family="Helvetica,sans-Serif" font-size="10.00">model.TurtleManager.Turtle</text>
<text text-anchor="middle" x="274" y="-7" font-family="Helvetica,sans-Serif" font-size="10.00">Manager</text>
</a>
</g>
</g>
<!-- Node1&#45;&gt;Node11 -->
<g id="edge10" class="edge"><title>Node1&#45;&gt;Node11</title>
<path fill="none" stroke="midnightblue" d="M100.993,-97.1486C123.155,-81.0055 159.581,-56.1205 194,-40 201.817,-36.339 210.309,-33.0208 218.73,-30.0858"/>
<polygon fill="midnightblue" stroke="midnightblue" points="98.6556,-94.5235 92.6873,-103.277 102.812,-100.156 98.6556,-94.5235"/>
</g>
<!-- Node4 -->
<g id="node4" class="node"><title>Node4</title>
<g id="a_node4"><a xlink:href="../../d9/df7/classcontroller_1_1_controller.html#acd242cba05fd983be695439ef2186966" target="_top" xlink:title="controller.Controller.create\lCheckBoxItemListener">
<polygon fill="white" stroke="black" points="390.5,-147 390.5,-177 533.5,-177 533.5,-147 390.5,-147"/>
<text text-anchor="start" x="398.5" y="-165" font-family="Helvetica,sans-Serif" font-size="10.00">controller.Controller.create</text>
<text text-anchor="middle" x="462" y="-154" font-family="Helvetica,sans-Serif" font-size="10.00">CheckBoxItemListener</text>
</a>
</g>
</g>
<!-- Node3&#45;&gt;Node4 -->
<g id="edge3" class="edge"><title>Node3&#45;&gt;Node4</title>
<path fill="none" stroke="midnightblue" d="M362.352,-162C371.693,-162 381.109,-162 390.223,-162"/>
<polygon fill="midnightblue" stroke="midnightblue" points="362.265,-158.5 352.265,-162 362.265,-165.5 362.265,-158.5"/>
</g>
<!-- Node5 -->
<g id="node5" class="node"><title>Node5</title>
<g id="a_node5"><a xlink:href="../../d9/df7/classcontroller_1_1_controller.html#a17d9d0474952b983548cde23a4e27134" target="_top" xlink:title="controller.Controller.create\lTellMenuListener">
<polygon fill="white" stroke="black" points="570.5,-147 570.5,-177 713.5,-177 713.5,-147 570.5,-147"/>
<text text-anchor="start" x="578.5" y="-165" font-family="Helvetica,sans-Serif" font-size="10.00">controller.Controller.create</text>
<text text-anchor="middle" x="642" y="-154" font-family="Helvetica,sans-Serif" font-size="10.00">TellMenuListener</text>
</a>
</g>
</g>
<!-- Node4&#45;&gt;Node5 -->
<g id="edge4" class="edge"><title>Node4&#45;&gt;Node5</title>
<path fill="none" stroke="midnightblue" d="M543.646,-162C552.599,-162 561.666,-162 570.479,-162"/>
<polygon fill="midnightblue" stroke="midnightblue" points="543.606,-158.5 533.606,-162 543.606,-165.5 543.606,-158.5"/>
</g>
<!-- Node6 -->
<g id="node6" class="node"><title>Node6</title>
<g id="a_node6"><a xlink:href="../../d9/df7/classcontroller_1_1_controller.html#ac03add001882f876041934dfe435b43f" target="_top" xlink:title="controller.Controller.create\lSettingMenu">
<polygon fill="white" stroke="black" points="750.5,-147 750.5,-177 893.5,-177 893.5,-147 750.5,-147"/>
<text text-anchor="start" x="758.5" y="-165" font-family="Helvetica,sans-Serif" font-size="10.00">controller.Controller.create</text>
<text text-anchor="middle" x="822" y="-154" font-family="Helvetica,sans-Serif" font-size="10.00">SettingMenu</text>
</a>
</g>
</g>
<!-- Node5&#45;&gt;Node6 -->
<g id="edge5" class="edge"><title>Node5&#45;&gt;Node6</title>
<path fill="none" stroke="midnightblue" d="M723.646,-162C732.599,-162 741.666,-162 750.479,-162"/>
<polygon fill="midnightblue" stroke="midnightblue" points="723.606,-158.5 713.606,-162 723.606,-165.5 723.606,-158.5"/>
</g>
<!-- Node7 -->
<g id="node7" class="node"><title>Node7</title>
<g id="a_node7"><a xlink:href="../../d9/df7/classcontroller_1_1_controller.html#a2901bf43bb8e47b485558dbf00d40d6d" target="_top" xlink:title="controller.Controller.create\lJMenuBar">
<polygon fill="white" stroke="black" points="930.5,-147 930.5,-177 1073.5,-177 1073.5,-147 930.5,-147"/>
<text text-anchor="start" x="938.5" y="-165" font-family="Helvetica,sans-Serif" font-size="10.00">controller.Controller.create</text>
<text text-anchor="middle" x="1002" y="-154" font-family="Helvetica,sans-Serif" font-size="10.00">JMenuBar</text>
</a>
</g>
</g>
<!-- Node6&#45;&gt;Node7 -->
<g id="edge6" class="edge"><title>Node6&#45;&gt;Node7</title>
<path fill="none" stroke="midnightblue" d="M903.646,-162C912.599,-162 921.666,-162 930.479,-162"/>
<polygon fill="midnightblue" stroke="midnightblue" points="903.606,-158.5 893.606,-162 903.606,-165.5 903.606,-158.5"/>
</g>
<!-- Node8 -->
<g id="node8" class="node"><title>Node8</title>
<g id="a_node8"><a xlink:href="../../d9/df7/classcontroller_1_1_controller.html#a47511ec57338c8e75e71e9314cda5271" target="_top" xlink:title="controller.Controller.Controller">
<polygon fill="white" stroke="black" points="1110.5,-152.5 1110.5,-171.5 1269.5,-171.5 1269.5,-152.5 1110.5,-152.5"/>
<text text-anchor="middle" x="1190" y="-159.5" font-family="Helvetica,sans-Serif" font-size="10.00">controller.Controller.Controller</text>
</a>
</g>
</g>
<!-- Node7&#45;&gt;Node8 -->
<g id="edge7" class="edge"><title>Node7&#45;&gt;Node8</title>
<path fill="none" stroke="midnightblue" d="M1083.84,-162C1092.64,-162 1101.6,-162 1110.38,-162"/>
<polygon fill="midnightblue" stroke="midnightblue" points="1083.58,-158.5 1073.58,-162 1083.58,-165.5 1083.58,-158.5"/>
</g>
</g>
</svg>
