<?xml version="1.0" encoding="UTF-8" standalone="no"?>
<!DOCTYPE svg PUBLIC "-//W3C//DTD SVG 1.1//EN"
 "http://www.w3.org/Graphics/SVG/1.1/DTD/svg11.dtd">
<!-- Generated by graphviz version 2.36.0 (20140111.2315)
 -->
<!-- Title: model.TurtleManager.addActive Pages: 1 -->
<svg width="394pt" height="66pt"
 viewBox="0.00 0.00 394.00 66.00" xmlns="http://www.w3.org/2000/svg" xmlns:xlink="http://www.w3.org/1999/xlink">
<g id="graph0" class="graph" transform="scale(1 1) rotate(0) translate(4 62)">
<title>model.TurtleManager.addActive</title>
<polygon fill="white" stroke="none" points="-4,4 -4,-62 390,-62 390,4 -4,4"/>
<!-- Node1 -->
<g id="node1" class="node"><title>Node1</title>
<polygon fill="#bfbfbf" stroke="black" points="0.5,-19.5 0.5,-38.5 167.5,-38.5 167.5,-19.5 0.5,-19.5"/>
<text text-anchor="middle" x="84" y="-26.5" font-family="Helvetica,sans-Serif" font-size="10.00">model.TurtleManager.addActive</text>
</g>
<!-- Node2 -->
<g id="node2" class="node"><title>Node2</title>
<g id="a_node2"><a xlink:href="../../d8/dff/classmodel_1_1_turtle_manager.html#a3f8173be63c2eaef2027880f7eca7dcf" target="_top" xlink:title="model.TurtleManager.activateEven">
<polygon fill="white" stroke="black" points="204.5,-38.5 204.5,-57.5 385.5,-57.5 385.5,-38.5 204.5,-38.5"/>
<text text-anchor="middle" x="295" y="-45.5" font-family="Helvetica,sans-Serif" font-size="10.00">model.TurtleManager.activateEven</text>
</a>
</g>
</g>
<!-- Node1&#45;&gt;Node2 -->
<g id="edge1" class="edge"><title>Node1&#45;&gt;Node2</title>
<path fill="none" stroke="midnightblue" d="M177.602,-37.4183C186.514,-38.2286 195.544,-39.0495 204.427,-39.857"/>
<polygon fill="midnightblue" stroke="midnightblue" points="177.878,-33.9291 167.602,-36.5093 177.244,-40.9004 177.878,-33.9291"/>
</g>
<!-- Node3 -->
<g id="node3" class="node"><title>Node3</title>
<g id="a_node3"><a xlink:href="../../d8/dff/classmodel_1_1_turtle_manager.html#adb87485969ca65b389faf0f9af904528" target="_top" xlink:title="model.TurtleManager.activateOdd">
<polygon fill="white" stroke="black" points="206.5,-0.5 206.5,-19.5 383.5,-19.5 383.5,-0.5 206.5,-0.5"/>
<text text-anchor="middle" x="295" y="-7.5" font-family="Helvetica,sans-Serif" font-size="10.00">model.TurtleManager.activateOdd</text>
</a>
</g>
</g>
<!-- Node1&#45;&gt;Node3 -->
<g id="edge2" class="edge"><title>Node1&#45;&gt;Node3</title>
<path fill="none" stroke="midnightblue" d="M177.775,-20.5659C187.21,-19.7081 196.775,-18.8387 206.155,-17.9859"/>
<polygon fill="midnightblue" stroke="midnightblue" points="177.244,-17.0996 167.602,-21.4907 177.878,-24.0709 177.244,-17.0996"/>
</g>
</g>
</svg>
