<?xml version="1.0" encoding="UTF-8" standalone="no"?>
<!DOCTYPE svg PUBLIC "-//W3C//DTD SVG 1.1//EN"
 "http://www.w3.org/Graphics/SVG/1.1/DTD/svg11.dtd">
<!-- Generated by graphviz version 2.36.0 (20140111.2315)
 -->
<!-- Title: model.TurtleManager.activateTurtle Pages: 1 -->
<!--zoomable 301 -->
<svg id="main" version="1.1" xmlns="http://www.w3.org/2000/svg" xmlns:xlink="http://www.w3.org/1999/xlink" xml:space="preserve" onload="init(evt)">
<style type="text/css"><![CDATA[
.edge:hover path { stroke: red; }
.edge:hover polygon { stroke: red; fill: red; }
]]></style>
<script type="text/javascript"><![CDATA[
var edges = document.getElementsByTagName('g');
if (edges && edges.length) {
  for (var i=0;i<edges.length;i++) {
    if (edges[i].id.substr(0,4)=='edge') {
      edges[i].setAttribute('class','edge');
    }
  }
}
]]></script>
        <defs>
                <circle id="rim" cx="0" cy="0" r="7"/>
                <circle id="rim2" cx="0" cy="0" r="3.5"/>
                <g id="zoomPlus">
                        <use xlink:href="#rim" fill="#404040">
                                <set attributeName="fill" to="#808080" begin="zoomplus.mouseover" end="zoomplus.mouseout"/>
                        </use>
                        <path d="M-4,0h8M0,-4v8" fill="none" stroke="white" stroke-width="1.5" pointer-events="none"/>
                </g>
                <g id="zoomMin">
                        <use xlink:href="#rim" fill="#404040">
                                <set attributeName="fill" to="#808080" begin="zoomminus.mouseover" end="zoomminus.mouseout"/>
                        </use>
                        <path d="M-4,0h8" fill="none" stroke="white" stroke-width="1.5" pointer-events="none"/>
                </g>
                <g id="dirArrow">
                        <path fill="none" stroke="white" stroke-width="1.5" d="M0,-3.0v7 M-2.5,-0.5L0,-3.0L2.5,-0.5"/>
                </g>
               <g id="resetDef">
                       <use xlink:href="#rim2" fill="#404040">
                               <set attributeName="fill" to="#808080" begin="reset.mouseover" end="reset.mouseout"/>
                       </use>
               </g>
        </defs>

<script type="text/javascript">
var viewWidth = 1504;
var viewHeight = 301;
var sectionId = 'dynsection-8';
</script>
<script xlink:href="../../svgpan.js"/>
<svg id="graph" class="graph">
<g id="viewport">
<title>model.TurtleManager.activateTurtle</title>
<polygon fill="white" stroke="none" points="-4,4 -4,-297 1500,-297 1500,4 -4,4"/>
<!-- Node1 -->
<g id="node1" class="node"><title>Node1</title>
<polygon fill="#bfbfbf" stroke="black" points="0,-91 0,-121 158,-121 158,-91 0,-91"/>
<text text-anchor="start" x="8" y="-109" font-family="Helvetica,sans-Serif" font-size="10.00">model.TurtleManager.activate</text>
<text text-anchor="middle" x="79" y="-98" font-family="Helvetica,sans-Serif" font-size="10.00">Turtle</text>
</g>
<!-- Node2 -->
<g id="node2" class="node"><title>Node2</title>
<g id="a_node2"><a xlink:href="../../d8/dff/classmodel_1_1_turtle_manager.html#a1c46b383a49e06a2436ad084bf7cd5aa" target="_top" xlink:title="model.TurtleManager.activate">
<polygon fill="white" stroke="black" points="199,-155.5 199,-174.5 357,-174.5 357,-155.5 199,-155.5"/>
<text text-anchor="middle" x="278" y="-162.5" font-family="Helvetica,sans-Serif" font-size="10.00">model.TurtleManager.activate</text>
</a>
</g>
</g>
<!-- Node1&#45;&gt;Node2 -->
<g id="edge1" class="edge"><title>Node1&#45;&gt;Node2</title>
<path fill="none" stroke="midnightblue" d="M140.22,-124.035C174.787,-134.388 216.803,-146.971 245.07,-155.437"/>
<polygon fill="midnightblue" stroke="midnightblue" points="140.805,-120.557 130.221,-121.041 138.797,-127.263 140.805,-120.557"/>
</g>
<!-- Node13 -->
<g id="node13" class="node"><title>Node13</title>
<g id="a_node13"><a xlink:href="../../d8/dff/classmodel_1_1_turtle_manager.html#adeb56b91fa8a55709a6e87dece71a596" target="_top" xlink:title="model.TurtleManager.addActive">
<polygon fill="white" stroke="black" points="194.5,-38.5 194.5,-57.5 361.5,-57.5 361.5,-38.5 194.5,-38.5"/>
<text text-anchor="middle" x="278" y="-45.5" font-family="Helvetica,sans-Serif" font-size="10.00">model.TurtleManager.addActive</text>
</a>
</g>
</g>
<!-- Node1&#45;&gt;Node13 -->
<g id="edge12" class="edge"><title>Node1&#45;&gt;Node13</title>
<path fill="none" stroke="midnightblue" d="M140.884,-88.0747C175.068,-78.0105 216.364,-65.8522 244.441,-57.5859"/>
<polygon fill="midnightblue" stroke="midnightblue" points="139.593,-84.8063 130.989,-90.9881 141.57,-91.5213 139.593,-84.8063"/>
</g>
<!-- Node3 -->
<g id="node3" class="node"><title>Node3</title>
<g id="a_node3"><a xlink:href="../../d8/dff/classmodel_1_1_turtle_manager.html#a2dfe5fb02eb65a21ec2a752731b3b75c" target="_top" xlink:title="model.TurtleManager.activate">
<polygon fill="white" stroke="black" points="410,-273.5 410,-292.5 568,-292.5 568,-273.5 410,-273.5"/>
<text text-anchor="middle" x="489" y="-280.5" font-family="Helvetica,sans-Serif" font-size="10.00">model.TurtleManager.activate</text>
</a>
</g>
</g>
<!-- Node2&#45;&gt;Node3 -->
<g id="edge2" class="edge"><title>Node2&#45;&gt;Node3</title>
<path fill="none" stroke="midnightblue" d="M294.394,-181.886C315.544,-204.013 355.795,-242.415 398,-263 406.919,-267.35 416.797,-270.767 426.647,-273.446"/>
<polygon fill="midnightblue" stroke="midnightblue" points="296.892,-179.433 287.498,-174.534 291.786,-184.222 296.892,-179.433"/>
</g>
<!-- Node4 -->
<g id="node4" class="node"><title>Node4</title>
<g id="a_node4"><a xlink:href="../../de/d84/classcontroller_1_1_workspace.html#abceb71fe227a560303f42bb77b0a1113" target="_top" xlink:title="controller.Workspace.activate\lTurtle">
<polygon fill="white" stroke="black" points="411,-224 411,-254 567,-254 567,-224 411,-224"/>
<text text-anchor="start" x="419" y="-242" font-family="Helvetica,sans-Serif" font-size="10.00">controller.Workspace.activate</text>
<text text-anchor="middle" x="489" y="-231" font-family="Helvetica,sans-Serif" font-size="10.00">Turtle</text>
</a>
</g>
</g>
<!-- Node2&#45;&gt;Node4 -->
<g id="edge3" class="edge"><title>Node2&#45;&gt;Node4</title>
<path fill="none" stroke="midnightblue" d="M309.425,-178.709C333.243,-189.152 367.355,-203.477 398,-214 408.123,-217.476 419.008,-220.821 429.59,-223.873"/>
<polygon fill="midnightblue" stroke="midnightblue" points="310.764,-175.475 300.203,-174.634 307.935,-181.877 310.764,-175.475"/>
</g>
<!-- Node10 -->
<g id="node10" class="node"><title>Node10</title>
<g id="a_node10"><a xlink:href="../../d5/d6d/classparser_1_1commands_1_1workspace_1_1_ask.html#a837a075ce77789761e3060413c51e882" target="_top" xlink:title="parser.commands.workspace.\lAsk.evaluate">
<polygon fill="white" stroke="black" points="409,-175 409,-205 569,-205 569,-175 409,-175"/>
<text text-anchor="start" x="417" y="-193" font-family="Helvetica,sans-Serif" font-size="10.00">parser.commands.workspace.</text>
<text text-anchor="middle" x="489" y="-182" font-family="Helvetica,sans-Serif" font-size="10.00">Ask.evaluate</text>
</a>
</g>
</g>
<!-- Node2&#45;&gt;Node10 -->
<g id="edge9" class="edge"><title>Node2&#45;&gt;Node10</title>
<path fill="none" stroke="midnightblue" d="M367.138,-175.543C381.011,-177.202 395.278,-178.909 408.929,-180.542"/>
<polygon fill="midnightblue" stroke="midnightblue" points="367.466,-172.057 357.121,-174.345 366.635,-179.008 367.466,-172.057"/>
</g>
<!-- Node11 -->
<g id="node11" class="node"><title>Node11</title>
<g id="a_node11"><a xlink:href="../../db/d77/classparser_1_1commands_1_1workspace_1_1_ask_with.html#a1de9ef4326a655f16ceec2a53302a0b5" target="_top" xlink:title="parser.commands.workspace.\lAskWith.evaluate">
<polygon fill="white" stroke="black" points="409,-126 409,-156 569,-156 569,-126 409,-126"/>
<text text-anchor="start" x="417" y="-144" font-family="Helvetica,sans-Serif" font-size="10.00">parser.commands.workspace.</text>
<text text-anchor="middle" x="489" y="-133" font-family="Helvetica,sans-Serif" font-size="10.00">AskWith.evaluate</text>
</a>
</g>
</g>
<!-- Node2&#45;&gt;Node11 -->
<g id="edge10" class="edge"><title>Node2&#45;&gt;Node11</title>
<path fill="none" stroke="midnightblue" d="M367.138,-154.879C381.011,-153.286 395.278,-151.647 408.929,-150.08"/>
<polygon fill="midnightblue" stroke="midnightblue" points="366.656,-151.411 357.121,-156.029 367.455,-158.365 366.656,-151.411"/>
</g>
<!-- Node12 -->
<g id="node12" class="node"><title>Node12</title>
<g id="a_node12"><a xlink:href="../../d8/dff/classmodel_1_1_turtle_manager.html#aaf9a9034c70a70c0b8e6317192c064d9" target="_top" xlink:title="model.TurtleManager.Turtle\lManager">
<polygon fill="white" stroke="black" points="416.5,-77 416.5,-107 561.5,-107 561.5,-77 416.5,-77"/>
<text text-anchor="start" x="424.5" y="-95" font-family="Helvetica,sans-Serif" font-size="10.00">model.TurtleManager.Turtle</text>
<text text-anchor="middle" x="489" y="-84" font-family="Helvetica,sans-Serif" font-size="10.00">Manager</text>
</a>
</g>
</g>
<!-- Node2&#45;&gt;Node12 -->
<g id="edge11" class="edge"><title>Node2&#45;&gt;Node12</title>
<path fill="none" stroke="midnightblue" d="M308.963,-151.392C332.782,-140.885 367.115,-126.427 398,-116 407.346,-112.845 417.348,-109.83 427.163,-107.069"/>
<polygon fill="midnightblue" stroke="midnightblue" points="307.467,-148.226 299.753,-155.489 310.312,-154.622 307.467,-148.226"/>
</g>
<!-- Node5 -->
<g id="node5" class="node"><title>Node5</title>
<g id="a_node5"><a xlink:href="../../d9/df7/classcontroller_1_1_controller.html#acd242cba05fd983be695439ef2186966" target="_top" xlink:title="controller.Controller.create\lCheckBoxItemListener">
<polygon fill="white" stroke="black" points="616.5,-224 616.5,-254 759.5,-254 759.5,-224 616.5,-224"/>
<text text-anchor="start" x="624.5" y="-242" font-family="Helvetica,sans-Serif" font-size="10.00">controller.Controller.create</text>
<text text-anchor="middle" x="688" y="-231" font-family="Helvetica,sans-Serif" font-size="10.00">CheckBoxItemListener</text>
</a>
</g>
</g>
<!-- Node4&#45;&gt;Node5 -->
<g id="edge4" class="edge"><title>Node4&#45;&gt;Node5</title>
<path fill="none" stroke="midnightblue" d="M577.028,-239C590.217,-239 603.685,-239 616.468,-239"/>
<polygon fill="midnightblue" stroke="midnightblue" points="577.012,-235.5 567.012,-239 577.012,-242.5 577.012,-235.5"/>
</g>
<!-- Node6 -->
<g id="node6" class="node"><title>Node6</title>
<g id="a_node6"><a xlink:href="../../d9/df7/classcontroller_1_1_controller.html#a17d9d0474952b983548cde23a4e27134" target="_top" xlink:title="controller.Controller.create\lTellMenuListener">
<polygon fill="white" stroke="black" points="796.5,-224 796.5,-254 939.5,-254 939.5,-224 796.5,-224"/>
<text text-anchor="start" x="804.5" y="-242" font-family="Helvetica,sans-Serif" font-size="10.00">controller.Controller.create</text>
<text text-anchor="middle" x="868" y="-231" font-family="Helvetica,sans-Serif" font-size="10.00">TellMenuListener</text>
</a>
</g>
</g>
<!-- Node5&#45;&gt;Node6 -->
<g id="edge5" class="edge"><title>Node5&#45;&gt;Node6</title>
<path fill="none" stroke="midnightblue" d="M769.646,-239C778.599,-239 787.666,-239 796.479,-239"/>
<polygon fill="midnightblue" stroke="midnightblue" points="769.606,-235.5 759.606,-239 769.606,-242.5 769.606,-235.5"/>
</g>
<!-- Node7 -->
<g id="node7" class="node"><title>Node7</title>
<g id="a_node7"><a xlink:href="../../d9/df7/classcontroller_1_1_controller.html#ac03add001882f876041934dfe435b43f" target="_top" xlink:title="controller.Controller.create\lSettingMenu">
<polygon fill="white" stroke="black" points="976.5,-224 976.5,-254 1119.5,-254 1119.5,-224 976.5,-224"/>
<text text-anchor="start" x="984.5" y="-242" font-family="Helvetica,sans-Serif" font-size="10.00">controller.Controller.create</text>
<text text-anchor="middle" x="1048" y="-231" font-family="Helvetica,sans-Serif" font-size="10.00">SettingMenu</text>
</a>
</g>
</g>
<!-- Node6&#45;&gt;Node7 -->
<g id="edge6" class="edge"><title>Node6&#45;&gt;Node7</title>
<path fill="none" stroke="midnightblue" d="M949.646,-239C958.599,-239 967.666,-239 976.479,-239"/>
<polygon fill="midnightblue" stroke="midnightblue" points="949.606,-235.5 939.606,-239 949.606,-242.5 949.606,-235.5"/>
</g>
<!-- Node8 -->
<g id="node8" class="node"><title>Node8</title>
<g id="a_node8"><a xlink:href="../../d9/df7/classcontroller_1_1_controller.html#a2901bf43bb8e47b485558dbf00d40d6d" target="_top" xlink:title="controller.Controller.create\lJMenuBar">
<polygon fill="white" stroke="black" points="1156.5,-224 1156.5,-254 1299.5,-254 1299.5,-224 1156.5,-224"/>
<text text-anchor="start" x="1164.5" y="-242" font-family="Helvetica,sans-Serif" font-size="10.00">controller.Controller.create</text>
<text text-anchor="middle" x="1228" y="-231" font-family="Helvetica,sans-Serif" font-size="10.00">JMenuBar</text>
</a>
</g>
</g>
<!-- Node7&#45;&gt;Node8 -->
<g id="edge7" class="edge"><title>Node7&#45;&gt;Node8</title>
<path fill="none" stroke="midnightblue" d="M1129.65,-239C1138.6,-239 1147.67,-239 1156.48,-239"/>
<polygon fill="midnightblue" stroke="midnightblue" points="1129.61,-235.5 1119.61,-239 1129.61,-242.5 1129.61,-235.5"/>
</g>
<!-- Node9 -->
<g id="node9" class="node"><title>Node9</title>
<g id="a_node9"><a xlink:href="../../d9/df7/classcontroller_1_1_controller.html#a47511ec57338c8e75e71e9314cda5271" target="_top" xlink:title="controller.Controller.Controller">
<polygon fill="white" stroke="black" points="1336.5,-229.5 1336.5,-248.5 1495.5,-248.5 1495.5,-229.5 1336.5,-229.5"/>
<text text-anchor="middle" x="1416" y="-236.5" font-family="Helvetica,sans-Serif" font-size="10.00">controller.Controller.Controller</text>
</a>
</g>
</g>
<!-- Node8&#45;&gt;Node9 -->
<g id="edge8" class="edge"><title>Node8&#45;&gt;Node9</title>
<path fill="none" stroke="midnightblue" d="M1309.84,-239C1318.64,-239 1327.6,-239 1336.38,-239"/>
<polygon fill="midnightblue" stroke="midnightblue" points="1309.58,-235.5 1299.58,-239 1309.58,-242.5 1309.58,-235.5"/>
</g>
<!-- Node14 -->
<g id="node14" class="node"><title>Node14</title>
<g id="a_node14"><a xlink:href="../../d8/dff/classmodel_1_1_turtle_manager.html#adb87485969ca65b389faf0f9af904528" target="_top" xlink:title="model.TurtleManager.activateOdd">
<polygon fill="white" stroke="black" points="400.5,-38.5 400.5,-57.5 577.5,-57.5 577.5,-38.5 400.5,-38.5"/>
<text text-anchor="middle" x="489" y="-45.5" font-family="Helvetica,sans-Serif" font-size="10.00">model.TurtleManager.activateOdd</text>
</a>
</g>
</g>
<!-- Node13&#45;&gt;Node14 -->
<g id="edge13" class="edge"><title>Node13&#45;&gt;Node14</title>
<path fill="none" stroke="midnightblue" d="M371.775,-48C381.21,-48 390.775,-48 400.155,-48"/>
<polygon fill="midnightblue" stroke="midnightblue" points="371.602,-44.5001 361.602,-48 371.602,-51.5001 371.602,-44.5001"/>
</g>
<!-- Node15 -->
<g id="node15" class="node"><title>Node15</title>
<g id="a_node15"><a xlink:href="../../d8/dff/classmodel_1_1_turtle_manager.html#a3f8173be63c2eaef2027880f7eca7dcf" target="_top" xlink:title="model.TurtleManager.activateEven">
<polygon fill="white" stroke="black" points="398.5,-0.5 398.5,-19.5 579.5,-19.5 579.5,-0.5 398.5,-0.5"/>
<text text-anchor="middle" x="489" y="-7.5" font-family="Helvetica,sans-Serif" font-size="10.00">model.TurtleManager.activateEven</text>
</a>
</g>
</g>
<!-- Node13&#45;&gt;Node15 -->
<g id="edge14" class="edge"><title>Node13&#45;&gt;Node15</title>
<path fill="none" stroke="midnightblue" d="M341.408,-36.653C371.395,-31.2009 406.934,-24.7393 435.509,-19.5439"/>
<polygon fill="midnightblue" stroke="midnightblue" points="340.682,-33.2276 331.47,-38.46 341.935,-40.1147 340.682,-33.2276"/>
</g>
</g>
</svg>
        <g id="navigator" transform="translate(0 0)" fill="#404254">
                <rect fill="#f2f5e9" fill-opacity="0.5" stroke="#606060" stroke-width=".5" x="0" y="0" width="60" height="60"/>
                <use id="zoomplus" xlink:href="#zoomPlus" x="17" y="9" onmousedown="handleZoom(evt,'in')"/>
                <use id="zoomminus" xlink:href="#zoomMin" x="42" y="9" onmousedown="handleZoom(evt,'out')"/>
                <use id="reset" xlink:href="#resetDef" x="30" y="36" onmousedown="handleReset()"/>
                <g id="arrowUp" xlink:href="#dirArrow" transform="translate(30 24)" onmousedown="handlePan(0,-1)">
                  <use xlink:href="#rim" fill="#404040">
                        <set attributeName="fill" to="#808080" begin="arrowUp.mouseover" end="arrowUp.mouseout"/>
                  </use>
                  <path fill="none" stroke="white" stroke-width="1.5" d="M0,-3.0v7 M-2.5,-0.5L0,-3.0L2.5,-0.5"/>
                </g>
                <g id="arrowRight" xlink:href="#dirArrow" transform="rotate(90) translate(36 -43)" onmousedown="handlePan(1,0)">
                  <use xlink:href="#rim" fill="#404040">
                        <set attributeName="fill" to="#808080" begin="arrowRight.mouseover" end="arrowRight.mouseout"/>
                  </use>
                  <path fill="none" stroke="white" stroke-width="1.5" d="M0,-3.0v7 M-2.5,-0.5L0,-3.0L2.5,-0.5"/>
                </g>
                <g id="arrowDown" xlink:href="#dirArrow" transform="rotate(180) translate(-30 -48)" onmousedown="handlePan(0,1)">
                  <use xlink:href="#rim" fill="#404040">
                        <set attributeName="fill" to="#808080" begin="arrowDown.mouseover" end="arrowDown.mouseout"/>
                  </use>
                  <path fill="none" stroke="white" stroke-width="1.5" d="M0,-3.0v7 M-2.5,-0.5L0,-3.0L2.5,-0.5"/>
                </g>
                <g id="arrowLeft" xlink:href="#dirArrow" transform="rotate(270) translate(-36 17)" onmousedown="handlePan(-1,0)">
                  <use xlink:href="#rim" fill="#404040">
                        <set attributeName="fill" to="#808080" begin="arrowLeft.mouseover" end="arrowLeft.mouseout"/>
                  </use>
                  <path fill="none" stroke="white" stroke-width="1.5" d="M0,-3.0v7 M-2.5,-0.5L0,-3.0L2.5,-0.5"/>
                </g>
        </g>
        <svg viewBox="0 0 15 15" width="100%" height="30px" preserveAspectRatio="xMaxYMin meet">
         <g id="arrow_out" transform="scale(0.3 0.3)">
          <a xlink:href="classmodel_1_1_turtle_manager_a2c8eed018128d3a0be175415b36445d9_icgraph_org.svg" target="_base">
           <rect id="button" ry="5" rx="5" y="6" x="6" height="38" width="38"
                fill="#f2f5e9" fill-opacity="0.5" stroke="#606060" stroke-width="1.0"/>
           <path id="arrow"
             d="M 11.500037,31.436501 C 11.940474,20.09759 22.043105,11.32322 32.158766,21.979434 L 37.068811,17.246167 C 37.068811,17.246167 37.088388,32 37.088388,32 L 22.160133,31.978069 C 22.160133,31.978069 26.997745,27.140456 26.997745,27.140456 C 18.528582,18.264221 13.291696,25.230495 11.500037,31.436501 z"
             style="fill:#404040;"/>
          </a>
         </g>
        </svg>
</svg>
