<?xml version="1.0" encoding="UTF-8" standalone="no"?>
<!DOCTYPE svg PUBLIC "-//W3C//DTD SVG 1.1//EN"
 "http://www.w3.org/Graphics/SVG/1.1/DTD/svg11.dtd">
<!-- Generated by graphviz version 2.36.0 (20140111.2315)
 -->
<!-- Title: model.TurtleManager.copyActive Pages: 1 -->
<svg width="346pt" height="87pt"
 viewBox="0.00 0.00 346.00 87.00" xmlns="http://www.w3.org/2000/svg" xmlns:xlink="http://www.w3.org/1999/xlink">
<g id="graph0" class="graph" transform="scale(1 1) rotate(0) translate(4 83)">
<title>model.TurtleManager.copyActive</title>
<polygon fill="white" stroke="none" points="-4,4 -4,-83 342,-83 342,4 -4,4"/>
<!-- Node1 -->
<g id="node1" class="node"><title>Node1</title>
<polygon fill="#bfbfbf" stroke="black" points="0,-24 0,-54 142,-54 142,-24 0,-24"/>
<text text-anchor="start" x="8" y="-42" font-family="Helvetica,sans-Serif" font-size="10.00">model.TurtleManager.copy</text>
<text text-anchor="middle" x="71" y="-31" font-family="Helvetica,sans-Serif" font-size="10.00">Active</text>
</g>
<!-- Node2 -->
<g id="node2" class="node"><title>Node2</title>
<g id="a_node2"><a xlink:href="../../d5/d6d/classparser_1_1commands_1_1workspace_1_1_ask.html#a837a075ce77789761e3060413c51e882" target="_top" xlink:title="parser.commands.workspace.\lAsk.evaluate">
<polygon fill="white" stroke="black" points="178,-49 178,-79 338,-79 338,-49 178,-49"/>
<text text-anchor="start" x="186" y="-67" font-family="Helvetica,sans-Serif" font-size="10.00">parser.commands.workspace.</text>
<text text-anchor="middle" x="258" y="-56" font-family="Helvetica,sans-Serif" font-size="10.00">Ask.evaluate</text>
</a>
</g>
</g>
<!-- Node1&#45;&gt;Node2 -->
<g id="edge1" class="edge"><title>Node1&#45;&gt;Node2</title>
<path fill="none" stroke="midnightblue" d="M152.138,-49.8294C160.67,-50.9825 169.346,-52.1549 177.867,-53.3064"/>
<polygon fill="midnightblue" stroke="midnightblue" points="152.583,-46.3579 142.204,-48.4871 151.646,-53.2948 152.583,-46.3579"/>
</g>
<!-- Node3 -->
<g id="node3" class="node"><title>Node3</title>
<g id="a_node3"><a xlink:href="../../db/d77/classparser_1_1commands_1_1workspace_1_1_ask_with.html#a1de9ef4326a655f16ceec2a53302a0b5" target="_top" xlink:title="parser.commands.workspace.\lAskWith.evaluate">
<polygon fill="white" stroke="black" points="178,-0 178,-30 338,-30 338,-0 178,-0"/>
<text text-anchor="start" x="186" y="-18" font-family="Helvetica,sans-Serif" font-size="10.00">parser.commands.workspace.</text>
<text text-anchor="middle" x="258" y="-7" font-family="Helvetica,sans-Serif" font-size="10.00">AskWith.evaluate</text>
</a>
</g>
</g>
<!-- Node1&#45;&gt;Node3 -->
<g id="edge2" class="edge"><title>Node1&#45;&gt;Node3</title>
<path fill="none" stroke="midnightblue" d="M152.138,-28.6038C160.67,-27.4968 169.346,-26.3713 177.867,-25.2659"/>
<polygon fill="midnightblue" stroke="midnightblue" points="151.671,-25.1349 142.204,-29.8924 152.572,-32.0767 151.671,-25.1349"/>
</g>
</g>
</svg>
