<?xml version="1.0" encoding="UTF-8" standalone="no"?>
<!DOCTYPE svg PUBLIC "-//W3C//DTD SVG 1.1//EN"
 "http://www.w3.org/Graphics/SVG/1.1/DTD/svg11.dtd">
<!-- Generated by graphviz version 2.36.0 (20140111.2315)
 -->
<!-- Title: model.TurtleManager.activateOdd Pages: 1 -->
<svg width="584pt" height="87pt"
 viewBox="0.00 0.00 584.00 87.00" xmlns="http://www.w3.org/2000/svg" xmlns:xlink="http://www.w3.org/1999/xlink">
<g id="graph0" class="graph" transform="scale(1 1) rotate(0) translate(4 83)">
<title>model.TurtleManager.activateOdd</title>
<polygon fill="white" stroke="none" points="-4,4 -4,-83 580,-83 580,4 -4,4"/>
<!-- Node1 -->
<g id="node1" class="node"><title>Node1</title>
<polygon fill="#bfbfbf" stroke="black" points="0.5,-29.5 0.5,-48.5 177.5,-48.5 177.5,-29.5 0.5,-29.5"/>
<text text-anchor="middle" x="89" y="-36.5" font-family="Helvetica,sans-Serif" font-size="10.00">model.TurtleManager.activateOdd</text>
</g>
<!-- Node2 -->
<g id="node2" class="node"><title>Node2</title>
<g id="a_node2"><a xlink:href="../../d8/dff/classmodel_1_1_turtle_manager.html#adeb56b91fa8a55709a6e87dece71a596" target="_top" xlink:title="model.TurtleManager.addActive">
<polygon fill="white" stroke="black" points="214.5,-29.5 214.5,-48.5 381.5,-48.5 381.5,-29.5 214.5,-29.5"/>
<text text-anchor="middle" x="298" y="-36.5" font-family="Helvetica,sans-Serif" font-size="10.00">model.TurtleManager.addActive</text>
</a>
</g>
</g>
<!-- Node1&#45;&gt;Node2 -->
<g id="edge1" class="edge"><title>Node1&#45;&gt;Node2</title>
<path fill="none" stroke="midnightblue" d="M177.787,-39C186.499,-39 195.363,-39 204.124,-39"/>
<polygon fill="midnightblue" stroke="midnightblue" points="204.347,-42.5001 214.347,-39 204.347,-35.5001 204.347,-42.5001"/>
</g>
<!-- Node3 -->
<g id="node3" class="node"><title>Node3</title>
<g id="a_node3"><a xlink:href="../../d8/dff/classmodel_1_1_turtle_manager.html#a574d2559ea66b6d03c753ef8498103d4" target="_top" xlink:title="model.TurtleManager.clear\lActive">
<polygon fill="white" stroke="black" points="425.5,-49 425.5,-79 568.5,-79 568.5,-49 425.5,-49"/>
<text text-anchor="start" x="433.5" y="-67" font-family="Helvetica,sans-Serif" font-size="10.00">model.TurtleManager.clear</text>
<text text-anchor="middle" x="497" y="-56" font-family="Helvetica,sans-Serif" font-size="10.00">Active</text>
</a>
</g>
</g>
<!-- Node2&#45;&gt;Node3 -->
<g id="edge2" class="edge"><title>Node2&#45;&gt;Node3</title>
<path fill="none" stroke="midnightblue" d="M374.039,-48.5227C387.47,-50.2271 401.518,-52.0099 415.104,-53.7341"/>
<polygon fill="midnightblue" stroke="midnightblue" points="415.025,-57.252 425.386,-55.0388 415.906,-50.3077 415.025,-57.252"/>
</g>
<!-- Node4 -->
<g id="node4" class="node"><title>Node4</title>
<g id="a_node4"><a xlink:href="../../d8/dff/classmodel_1_1_turtle_manager.html#a2c8eed018128d3a0be175415b36445d9" target="_top" xlink:title="model.TurtleManager.activate\lTurtle">
<polygon fill="white" stroke="black" points="418,-0 418,-30 576,-30 576,-0 418,-0"/>
<text text-anchor="start" x="426" y="-18" font-family="Helvetica,sans-Serif" font-size="10.00">model.TurtleManager.activate</text>
<text text-anchor="middle" x="497" y="-7" font-family="Helvetica,sans-Serif" font-size="10.00">Turtle</text>
</a>
</g>
</g>
<!-- Node2&#45;&gt;Node4 -->
<g id="edge3" class="edge"><title>Node2&#45;&gt;Node4</title>
<path fill="none" stroke="midnightblue" d="M377.143,-29.4801C387.214,-28.2532 397.581,-26.9901 407.8,-25.7452"/>
<polygon fill="midnightblue" stroke="midnightblue" points="408.449,-29.1921 417.952,-24.5084 407.602,-22.2435 408.449,-29.1921"/>
</g>
</g>
</svg>
