<?xml version="1.0" encoding="UTF-8" standalone="no"?>
<!DOCTYPE svg PUBLIC "-//W3C//DTD SVG 1.1//EN"
 "http://www.w3.org/Graphics/SVG/1.1/DTD/svg11.dtd">
<!-- Generated by graphviz version 2.36.0 (20140111.2315)
 -->
<!-- Title: model.TurtleManager.paint Pages: 1 -->
<svg width="980pt" height="316pt"
 viewBox="0.00 0.00 980.00 316.00" xmlns="http://www.w3.org/2000/svg" xmlns:xlink="http://www.w3.org/1999/xlink">
<g id="graph0" class="graph" transform="scale(1 1) rotate(0) translate(4 312)">
<title>model.TurtleManager.paint</title>
<polygon fill="white" stroke="none" points="-4,4 -4,-312 976,-312 976,4 -4,4"/>
<!-- Node1 -->
<g id="node1" class="node"><title>Node1</title>
<polygon fill="#bfbfbf" stroke="black" points="0.5,-174.5 0.5,-193.5 143.5,-193.5 143.5,-174.5 0.5,-174.5"/>
<text text-anchor="middle" x="72" y="-181.5" font-family="Helvetica,sans-Serif" font-size="10.00">model.TurtleManager.paint</text>
</g>
<!-- Node2 -->
<g id="node2" class="node"><title>Node2</title>
<g id="a_node2"><a xlink:href="../../d6/d34/classmodel_1_1_turtle.html#a9ee77f6669ced6a76546ab85d6cce1c5" target="_top" xlink:title="model.Turtle.getHeight">
<polygon fill="white" stroke="black" points="180.5,-288.5 180.5,-307.5 305.5,-307.5 305.5,-288.5 180.5,-288.5"/>
<text text-anchor="middle" x="243" y="-295.5" font-family="Helvetica,sans-Serif" font-size="10.00">model.Turtle.getHeight</text>
</a>
</g>
</g>
<!-- Node1&#45;&gt;Node2 -->
<g id="edge1" class="edge"><title>Node1&#45;&gt;Node2</title>
<path fill="none" stroke="midnightblue" d="M82.1982,-193.612C99.7577,-211.508 139.89,-250.265 180,-274 186.845,-278.05 194.497,-281.659 202.025,-284.77"/>
<polygon fill="midnightblue" stroke="midnightblue" points="200.837,-288.064 211.426,-288.441 203.384,-281.543 200.837,-288.064"/>
</g>
<!-- Node3 -->
<g id="node3" class="node"><title>Node3</title>
<g id="a_node3"><a xlink:href="../../d7/d1e/classutil_1_1_location.html#a232168bda0ff164c4721dea19a7630d8" target="_top" xlink:title="util.Location.getIntX">
<polygon fill="white" stroke="black" points="683.5,-240.5 683.5,-259.5 794.5,-259.5 794.5,-240.5 683.5,-240.5"/>
<text text-anchor="middle" x="739" y="-247.5" font-family="Helvetica,sans-Serif" font-size="10.00">util.Location.getIntX</text>
</a>
</g>
</g>
<!-- Node1&#45;&gt;Node3 -->
<g id="edge2" class="edge"><title>Node1&#45;&gt;Node3</title>
<path fill="none" stroke="midnightblue" d="M105.969,-193.521C126.98,-199.211 154.879,-206.076 180,-210 357.144,-237.673 568.965,-246.236 673.338,-248.859"/>
<polygon fill="midnightblue" stroke="midnightblue" points="673.32,-252.36 683.402,-249.102 673.489,-245.362 673.32,-252.36"/>
</g>
<!-- Node4 -->
<g id="node4" class="node"><title>Node4</title>
<g id="a_node4"><a xlink:href="../../d7/d1e/classutil_1_1_location.html#a1157d4dc33776ed2764c74e0f8390abe" target="_top" xlink:title="util.Location.getIntY">
<polygon fill="white" stroke="black" points="684,-183.5 684,-202.5 794,-202.5 794,-183.5 684,-183.5"/>
<text text-anchor="middle" x="739" y="-190.5" font-family="Helvetica,sans-Serif" font-size="10.00">util.Location.getIntY</text>
</a>
</g>
</g>
<!-- Node1&#45;&gt;Node4 -->
<g id="edge3" class="edge"><title>Node1&#45;&gt;Node4</title>
<path fill="none" stroke="midnightblue" d="M143.749,-190.199C251.08,-198.737 461.467,-212.085 640,-203 650.919,-202.444 662.496,-201.543 673.722,-200.502"/>
<polygon fill="midnightblue" stroke="midnightblue" points="674.288,-203.964 683.903,-199.514 673.612,-196.997 674.288,-203.964"/>
</g>
<!-- Node5 -->
<g id="node5" class="node"><title>Node5</title>
<g id="a_node5"><a xlink:href="../../d6/d34/classmodel_1_1_turtle.html#aeeab176e64d1ad18647e37aee02affc7" target="_top" xlink:title="model.Turtle.getPainting\lPoint">
<polygon fill="white" stroke="black" points="343.5,-11 343.5,-41 474.5,-41 474.5,-11 343.5,-11"/>
<text text-anchor="start" x="351.5" y="-29" font-family="Helvetica,sans-Serif" font-size="10.00">model.Turtle.getPainting</text>
<text text-anchor="middle" x="409" y="-18" font-family="Helvetica,sans-Serif" font-size="10.00">Point</text>
</a>
</g>
</g>
<!-- Node1&#45;&gt;Node5 -->
<g id="edge4" class="edge"><title>Node1&#45;&gt;Node5</title>
<path fill="none" stroke="midnightblue" d="M88.8341,-174.288C109.308,-162.034 146.338,-140.884 180,-127 234.073,-104.698 252.666,-113.016 306,-89 313.321,-85.7034 348.873,-63.4933 375.964,-46.3671"/>
<polygon fill="midnightblue" stroke="midnightblue" points="377.839,-49.3223 384.416,-41.0158 374.095,-43.4081 377.839,-49.3223"/>
</g>
<!-- Node11 -->
<g id="node11" class="node"><title>Node11</title>
<g id="a_node11"><a xlink:href="../../d6/d34/classmodel_1_1_turtle.html#a0964938bdc49bef0e66ae0caa10cf83b" target="_top" xlink:title="model.Turtle.getWidth">
<polygon fill="white" stroke="black" points="183,-60.5 183,-79.5 303,-79.5 303,-60.5 183,-60.5"/>
<text text-anchor="middle" x="243" y="-67.5" font-family="Helvetica,sans-Serif" font-size="10.00">model.Turtle.getWidth</text>
</a>
</g>
</g>
<!-- Node1&#45;&gt;Node11 -->
<g id="edge12" class="edge"><title>Node1&#45;&gt;Node11</title>
<path fill="none" stroke="midnightblue" d="M82.1982,-174.388C99.7577,-156.492 139.89,-117.735 180,-94 186.845,-89.9497 194.497,-86.341 202.025,-83.2296"/>
<polygon fill="midnightblue" stroke="midnightblue" points="203.384,-86.4566 211.426,-79.5587 200.837,-79.9361 203.384,-86.4566"/>
</g>
<!-- Node12 -->
<g id="node12" class="node"><title>Node12</title>
<g id="a_node12"><a xlink:href="../../d6/d34/classmodel_1_1_turtle.html#a7d850c710649567ac20161f847b2ad11" target="_top" xlink:title="model.Turtle.paint">
<polygon fill="white" stroke="black" points="192,-136.5 192,-155.5 294,-155.5 294,-136.5 192,-136.5"/>
<text text-anchor="middle" x="243" y="-143.5" font-family="Helvetica,sans-Serif" font-size="10.00">model.Turtle.paint</text>
</a>
</g>
</g>
<!-- Node1&#45;&gt;Node12 -->
<g id="edge13" class="edge"><title>Node1&#45;&gt;Node12</title>
<path fill="none" stroke="midnightblue" d="M115.646,-174.411C138.148,-169.351 165.948,-163.1 189.738,-157.751"/>
<polygon fill="midnightblue" stroke="midnightblue" points="190.672,-161.129 199.661,-155.52 189.137,-154.299 190.672,-161.129"/>
</g>
<!-- Node6 -->
<g id="node6" class="node"><title>Node6</title>
<g id="a_node6"><a xlink:href="../../d7/d1e/classutil_1_1_location.html#a82f3e59d7d3e3d46df862be2e63c80e3" target="_top" xlink:title="util.Location.translate">
<polygon fill="white" stroke="black" points="516,-16.5 516,-35.5 636,-35.5 636,-16.5 516,-16.5"/>
<text text-anchor="middle" x="576" y="-23.5" font-family="Helvetica,sans-Serif" font-size="10.00">util.Location.translate</text>
</a>
</g>
</g>
<!-- Node5&#45;&gt;Node6 -->
<g id="edge5" class="edge"><title>Node5&#45;&gt;Node6</title>
<path fill="none" stroke="midnightblue" d="M474.739,-26C484.896,-26 495.43,-26 505.685,-26"/>
<polygon fill="midnightblue" stroke="midnightblue" points="505.823,-29.5001 515.823,-26 505.823,-22.5001 505.823,-29.5001"/>
</g>
<!-- Node7 -->
<g id="node7" class="node"><title>Node7</title>
<g id="a_node7"><a xlink:href="../../d4/d67/classutil_1_1_vector.html#a3509d652ff8c361b07447f55e0007f31" target="_top" xlink:title="util.Vector.getXChange">
<polygon fill="white" stroke="black" points="676.5,-38.5 676.5,-57.5 801.5,-57.5 801.5,-38.5 676.5,-38.5"/>
<text text-anchor="middle" x="739" y="-45.5" font-family="Helvetica,sans-Serif" font-size="10.00">util.Vector.getXChange</text>
</a>
</g>
</g>
<!-- Node6&#45;&gt;Node7 -->
<g id="edge6" class="edge"><title>Node6&#45;&gt;Node7</title>
<path fill="none" stroke="midnightblue" d="M636.036,-34.0671C645.863,-35.4099 656.151,-36.8156 666.252,-38.1959"/>
<polygon fill="midnightblue" stroke="midnightblue" points="665.886,-41.6783 676.268,-39.5645 666.834,-34.7428 665.886,-41.6783"/>
</g>
<!-- Node10 -->
<g id="node10" class="node"><title>Node10</title>
<g id="a_node10"><a xlink:href="../../d4/d67/classutil_1_1_vector.html#aca15e89ce2edd3e93dcb73621c26237f" target="_top" xlink:title="util.Vector.getYChange">
<polygon fill="white" stroke="black" points="677,-0.5 677,-19.5 801,-19.5 801,-0.5 677,-0.5"/>
<text text-anchor="middle" x="739" y="-7.5" font-family="Helvetica,sans-Serif" font-size="10.00">util.Vector.getYChange</text>
</a>
</g>
</g>
<!-- Node6&#45;&gt;Node10 -->
<g id="edge9" class="edge"><title>Node6&#45;&gt;Node10</title>
<path fill="none" stroke="midnightblue" d="M636.036,-20.133C645.998,-19.1431 656.433,-18.1061 666.667,-17.089"/>
<polygon fill="midnightblue" stroke="midnightblue" points="667.205,-20.5529 676.81,-16.081 666.513,-13.5872 667.205,-20.5529"/>
</g>
<!-- Node8 -->
<g id="node8" class="node"><title>Node8</title>
<g id="a_node8"><a xlink:href="../../d4/d67/classutil_1_1_vector.html#afa760c6d12c93fbfcfacd6e279d08d88" target="_top" xlink:title="util.Vector.getMagnitude">
<polygon fill="white" stroke="black" points="838.5,-0.5 838.5,-19.5 971.5,-19.5 971.5,-0.5 838.5,-0.5"/>
<text text-anchor="middle" x="905" y="-7.5" font-family="Helvetica,sans-Serif" font-size="10.00">util.Vector.getMagnitude</text>
</a>
</g>
</g>
<!-- Node7&#45;&gt;Node8 -->
<g id="edge7" class="edge"><title>Node7&#45;&gt;Node8</title>
<path fill="none" stroke="midnightblue" d="M781.384,-38.411C803.123,-33.3739 829.957,-27.1562 852.975,-21.8229"/>
<polygon fill="midnightblue" stroke="midnightblue" points="853.962,-25.1871 862.913,-19.5201 852.381,-18.3677 853.962,-25.1871"/>
</g>
<!-- Node9 -->
<g id="node9" class="node"><title>Node9</title>
<g id="a_node9"><a xlink:href="../../d4/d67/classutil_1_1_vector.html#acebe00e22995a3514458ffa3db195295" target="_top" xlink:title="util.Vector.getDirection">
<polygon fill="white" stroke="black" points="842.5,-38.5 842.5,-57.5 967.5,-57.5 967.5,-38.5 842.5,-38.5"/>
<text text-anchor="middle" x="905" y="-45.5" font-family="Helvetica,sans-Serif" font-size="10.00">util.Vector.getDirection</text>
</a>
</g>
</g>
<!-- Node7&#45;&gt;Node9 -->
<g id="edge8" class="edge"><title>Node7&#45;&gt;Node9</title>
<path fill="none" stroke="midnightblue" d="M801.534,-48C811.555,-48 822.011,-48 832.251,-48"/>
<polygon fill="midnightblue" stroke="midnightblue" points="832.394,-51.5001 842.394,-48 832.394,-44.5001 832.394,-51.5001"/>
</g>
<!-- Node10&#45;&gt;Node8 -->
<g id="edge10" class="edge"><title>Node10&#45;&gt;Node8</title>
<path fill="none" stroke="midnightblue" d="M801.068,-10C809.934,-10 819.15,-10 828.263,-10"/>
<polygon fill="midnightblue" stroke="midnightblue" points="828.483,-13.5001 838.483,-10 828.483,-6.5001 828.483,-13.5001"/>
</g>
<!-- Node10&#45;&gt;Node9 -->
<g id="edge11" class="edge"><title>Node10&#45;&gt;Node9</title>
<path fill="none" stroke="midnightblue" d="M781.384,-19.589C803.123,-24.6261 829.957,-30.8438 852.975,-36.1771"/>
<polygon fill="midnightblue" stroke="midnightblue" points="852.381,-39.6323 862.913,-38.4799 853.962,-32.8129 852.381,-39.6323"/>
</g>
<!-- Node12&#45;&gt;Node5 -->
<g id="edge14" class="edge"><title>Node12&#45;&gt;Node5</title>
<path fill="none" stroke="midnightblue" d="M281.133,-136.463C289.969,-132.95 298.887,-128.244 306,-122 331.112,-99.958 317.53,-78.7522 342,-56 345.975,-52.3039 350.484,-49.0018 355.234,-46.0657"/>
<polygon fill="midnightblue" stroke="midnightblue" points="356.964,-49.1084 363.981,-41.1702 353.545,-43.0001 356.964,-49.1084"/>
</g>
<!-- Node13 -->
<g id="node13" class="node"><title>Node13</title>
<g id="a_node13"><a xlink:href="../../de/ded/classmodel_1_1_pen.html#aae048b738178ae20513d49cbd5a3740c" target="_top" xlink:title="model.Pen.paint">
<polygon fill="white" stroke="black" points="361.5,-98.5 361.5,-117.5 456.5,-117.5 456.5,-98.5 361.5,-98.5"/>
<text text-anchor="middle" x="409" y="-105.5" font-family="Helvetica,sans-Serif" font-size="10.00">model.Pen.paint</text>
</a>
</g>
</g>
<!-- Node12&#45;&gt;Node13 -->
<g id="edge15" class="edge"><title>Node12&#45;&gt;Node13</title>
<path fill="none" stroke="midnightblue" d="M285.384,-136.411C307.123,-131.374 333.957,-125.156 356.975,-119.823"/>
<polygon fill="midnightblue" stroke="midnightblue" points="357.962,-123.187 366.913,-117.52 356.381,-116.368 357.962,-123.187"/>
</g>
<!-- Node14 -->
<g id="node14" class="node"><title>Node14</title>
<g id="a_node14"><a xlink:href="../../d6/d34/classmodel_1_1_turtle.html#aae6d22acacfa7bd29fb818f4f9dd3d2e" target="_top" xlink:title="model.Turtle.paintStamp">
<polygon fill="white" stroke="black" points="342,-136.5 342,-155.5 476,-155.5 476,-136.5 342,-136.5"/>
<text text-anchor="middle" x="409" y="-143.5" font-family="Helvetica,sans-Serif" font-size="10.00">model.Turtle.paintStamp</text>
</a>
</g>
</g>
<!-- Node12&#45;&gt;Node14 -->
<g id="edge16" class="edge"><title>Node12&#45;&gt;Node14</title>
<path fill="none" stroke="midnightblue" d="M294.097,-146C305.989,-146 318.942,-146 331.71,-146"/>
<polygon fill="midnightblue" stroke="midnightblue" points="331.886,-149.5 341.886,-146 331.886,-142.5 331.886,-149.5"/>
</g>
<!-- Node15 -->
<g id="node15" class="node"><title>Node15</title>
<g id="a_node15"><a xlink:href="../../d6/d34/classmodel_1_1_turtle.html#a91368e42c1530a73f909499d8d7b8ef3" target="_top" xlink:title="model.Turtle.paintTurtle">
<polygon fill="white" stroke="black" points="512,-174.5 512,-193.5 640,-193.5 640,-174.5 512,-174.5"/>
<text text-anchor="middle" x="576" y="-181.5" font-family="Helvetica,sans-Serif" font-size="10.00">model.Turtle.paintTurtle</text>
</a>
</g>
</g>
<!-- Node12&#45;&gt;Node15 -->
<g id="edge22" class="edge"><title>Node12&#45;&gt;Node15</title>
<path fill="none" stroke="midnightblue" d="M287.734,-155.548C304.622,-158.953 324.144,-162.549 342,-165 395.268,-172.313 455.803,-177.145 501.818,-180.106"/>
<polygon fill="midnightblue" stroke="midnightblue" points="501.8,-183.612 511.999,-180.746 502.239,-176.626 501.8,-183.612"/>
</g>
<!-- Node16 -->
<g id="node16" class="node"><title>Node16</title>
<g id="a_node16"><a xlink:href="../../d6/d34/classmodel_1_1_turtle.html#ad0ffa5dc7c5e9876e0083f4232035679" target="_top" xlink:title="model.Turtle.transform">
<polygon fill="white" stroke="black" points="513.5,-76.5 513.5,-95.5 638.5,-95.5 638.5,-76.5 513.5,-76.5"/>
<text text-anchor="middle" x="576" y="-83.5" font-family="Helvetica,sans-Serif" font-size="10.00">model.Turtle.transform</text>
</a>
</g>
</g>
<!-- Node12&#45;&gt;Node16 -->
<g id="edge23" class="edge"><title>Node12&#45;&gt;Node16</title>
<path fill="none" stroke="midnightblue" d="M275.351,-136.443C285.514,-132.681 296.586,-127.845 306,-122 324.44,-110.551 321.822,-96.9987 342,-89 397.123,-67.1485 465.506,-69.3359 513.895,-75.1984"/>
<polygon fill="midnightblue" stroke="midnightblue" points="513.537,-78.6813 523.905,-76.4978 514.438,-71.7395 513.537,-78.6813"/>
</g>
<!-- Node14&#45;&gt;Node15 -->
<g id="edge17" class="edge"><title>Node14&#45;&gt;Node15</title>
<path fill="none" stroke="midnightblue" d="M451.636,-155.589C473.508,-160.626 500.506,-166.844 523.664,-172.177"/>
<polygon fill="midnightblue" stroke="midnightblue" points="523.133,-175.646 533.663,-174.48 524.704,-168.825 523.133,-175.646"/>
</g>
<!-- Node14&#45;&gt;Node16 -->
<g id="edge20" class="edge"><title>Node14&#45;&gt;Node16</title>
<path fill="none" stroke="midnightblue" d="M445.854,-136.471C455.696,-133.641 466.321,-130.386 476,-127 499.284,-118.856 525.008,-108.149 544.397,-99.7188"/>
<polygon fill="midnightblue" stroke="midnightblue" points="545.888,-102.887 553.64,-95.6644 543.076,-96.4764 545.888,-102.887"/>
</g>
<!-- Node15&#45;&gt;Node3 -->
<g id="edge18" class="edge"><title>Node15&#45;&gt;Node3</title>
<path fill="none" stroke="midnightblue" d="M600.411,-193.597C628.033,-204.92 674.132,-223.818 705.278,-236.586"/>
<polygon fill="midnightblue" stroke="midnightblue" points="704.242,-239.944 714.822,-240.499 706.897,-233.467 704.242,-239.944"/>
</g>
<!-- Node15&#45;&gt;Node4 -->
<g id="edge19" class="edge"><title>Node15&#45;&gt;Node4</title>
<path fill="none" stroke="midnightblue" d="M640.169,-187.531C651.231,-188.15 662.751,-188.794 673.839,-189.413"/>
<polygon fill="midnightblue" stroke="midnightblue" points="673.695,-192.911 683.875,-189.974 674.086,-185.922 673.695,-192.911"/>
</g>
<!-- Node16&#45;&gt;Node9 -->
<g id="edge21" class="edge"><title>Node16&#45;&gt;Node9</title>
<path fill="none" stroke="midnightblue" d="M638.778,-82.4516C684.085,-79.444 747.029,-74.422 802,-67 817.012,-64.9732 833.167,-62.2278 848.096,-59.4545"/>
<polygon fill="midnightblue" stroke="midnightblue" points="849.032,-62.8394 858.205,-57.5386 847.728,-55.9618 849.032,-62.8394"/>
</g>
</g>
</svg>
