<?xml version="1.0" encoding="UTF-8" standalone="no"?>
<!DOCTYPE svg PUBLIC "-//W3C//DTD SVG 1.1//EN"
 "http://www.w3.org/Graphics/SVG/1.1/DTD/svg11.dtd">
<!-- Generated by graphviz version 2.36.0 (20140111.2315)
 -->
<!-- Title: model.TurtleManager.activate Pages: 1 -->
<svg width="706pt" height="99pt"
 viewBox="0.00 0.00 706.00 99.00" xmlns="http://www.w3.org/2000/svg" xmlns:xlink="http://www.w3.org/1999/xlink">
<g id="graph0" class="graph" transform="scale(1 1) rotate(0) translate(4 95)">
<title>model.TurtleManager.activate</title>
<polygon fill="white" stroke="none" points="-4,4 -4,-95 702,-95 702,4 -4,4"/>
<!-- Node1 -->
<g id="node1" class="node"><title>Node1</title>
<polygon fill="#bfbfbf" stroke="black" points="0,-44.5 0,-63.5 158,-63.5 158,-44.5 0,-44.5"/>
<text text-anchor="middle" x="79" y="-51.5" font-family="Helvetica,sans-Serif" font-size="10.00">model.TurtleManager.activate</text>
</g>
<!-- Node2 -->
<g id="node2" class="node"><title>Node2</title>
<g id="a_node2"><a xlink:href="../../d8/dff/classmodel_1_1_turtle_manager.html#a2c8eed018128d3a0be175415b36445d9" target="_top" xlink:title="model.TurtleManager.activate\lTurtle">
<polygon fill="white" stroke="black" points="194,-61 194,-91 352,-91 352,-61 194,-61"/>
<text text-anchor="start" x="202" y="-79" font-family="Helvetica,sans-Serif" font-size="10.00">model.TurtleManager.activate</text>
<text text-anchor="middle" x="273" y="-68" font-family="Helvetica,sans-Serif" font-size="10.00">Turtle</text>
</a>
</g>
</g>
<!-- Node1&#45;&gt;Node2 -->
<g id="edge1" class="edge"><title>Node1&#45;&gt;Node2</title>
<path fill="none" stroke="midnightblue" d="M158.094,-62.9482C166.601,-63.923 175.302,-64.92 183.918,-65.9072"/>
<polygon fill="midnightblue" stroke="midnightblue" points="183.642,-69.3985 193.975,-67.0597 184.439,-62.444 183.642,-69.3985"/>
</g>
<!-- Node3 -->
<g id="node3" class="node"><title>Node3</title>
<g id="a_node3"><a xlink:href="../../d8/dff/classmodel_1_1_turtle_manager.html#a3d0172590b0214793dbd3997c56f7759" target="_top" xlink:title="model.TurtleManager.addNew">
<polygon fill="white" stroke="black" points="194,-22.5 194,-41.5 352,-41.5 352,-22.5 194,-22.5"/>
<text text-anchor="middle" x="273" y="-29.5" font-family="Helvetica,sans-Serif" font-size="10.00">model.TurtleManager.addNew</text>
</a>
</g>
</g>
<!-- Node1&#45;&gt;Node3 -->
<g id="edge2" class="edge"><title>Node1&#45;&gt;Node3</title>
<path fill="none" stroke="midnightblue" d="M158.094,-45.0518C166.601,-44.077 175.302,-43.08 183.918,-42.0928"/>
<polygon fill="midnightblue" stroke="midnightblue" points="184.439,-45.556 193.975,-40.9403 183.642,-38.6015 184.439,-45.556"/>
</g>
<!-- Node4 -->
<g id="node4" class="node"><title>Node4</title>
<g id="a_node4"><a xlink:href="../../d8/dff/classmodel_1_1_turtle_manager.html#a9831377a60a443edcedede2e809e36f4" target="_top" xlink:title="model.TurtleManager.create\lTurtle">
<polygon fill="white" stroke="black" points="388,-39 388,-69 538,-69 538,-39 388,-39"/>
<text text-anchor="start" x="396" y="-57" font-family="Helvetica,sans-Serif" font-size="10.00">model.TurtleManager.create</text>
<text text-anchor="middle" x="463" y="-46" font-family="Helvetica,sans-Serif" font-size="10.00">Turtle</text>
</a>
</g>
</g>
<!-- Node3&#45;&gt;Node4 -->
<g id="edge3" class="edge"><title>Node3&#45;&gt;Node4</title>
<path fill="none" stroke="midnightblue" d="M352.096,-41.1389C360.579,-42.1316 369.241,-43.1452 377.794,-44.1461"/>
<polygon fill="midnightblue" stroke="midnightblue" points="377.427,-47.6269 387.766,-45.313 378.241,-40.6744 377.427,-47.6269"/>
</g>
<!-- Node6 -->
<g id="node6" class="node"><title>Node6</title>
<g id="a_node6"><a xlink:href="../../d6/d34/classmodel_1_1_turtle.html#a65a22c7a1a7abfbc46a6f339479e7646" target="_top" xlink:title="model.Turtle.setStroke">
<polygon fill="white" stroke="black" points="400.5,-0.5 400.5,-19.5 525.5,-19.5 525.5,-0.5 400.5,-0.5"/>
<text text-anchor="middle" x="463" y="-7.5" font-family="Helvetica,sans-Serif" font-size="10.00">model.Turtle.setStroke</text>
</a>
</g>
</g>
<!-- Node3&#45;&gt;Node6 -->
<g id="edge5" class="edge"><title>Node3&#45;&gt;Node6</title>
<path fill="none" stroke="midnightblue" d="M352.096,-22.8611C364.832,-21.3707 377.97,-19.8333 390.537,-18.3627"/>
<polygon fill="midnightblue" stroke="midnightblue" points="390.949,-21.8385 400.474,-17.1998 390.135,-14.8859 390.949,-21.8385"/>
</g>
<!-- Node5 -->
<g id="node5" class="node"><title>Node5</title>
<g id="a_node5"><a xlink:href="../../d6/d34/classmodel_1_1_turtle.html#a27ce4fa61b6e292b1cfff08d511e7fc4" target="_top" xlink:title="model.Turtle.setImage">
<polygon fill="white" stroke="black" points="574.5,-44.5 574.5,-63.5 697.5,-63.5 697.5,-44.5 574.5,-44.5"/>
<text text-anchor="middle" x="636" y="-51.5" font-family="Helvetica,sans-Serif" font-size="10.00">model.Turtle.setImage</text>
</a>
</g>
</g>
<!-- Node4&#45;&gt;Node5 -->
<g id="edge4" class="edge"><title>Node4&#45;&gt;Node5</title>
<path fill="none" stroke="midnightblue" d="M538.009,-54C546.702,-54 555.557,-54 564.205,-54"/>
<polygon fill="midnightblue" stroke="midnightblue" points="564.24,-57.5001 574.24,-54 564.24,-50.5001 564.24,-57.5001"/>
</g>
<!-- Node7 -->
<g id="node7" class="node"><title>Node7</title>
<g id="a_node7"><a xlink:href="../../de/ded/classmodel_1_1_pen.html#a00c08e5bfc9d04986e0ff7ae4ceae10b" target="_top" xlink:title="model.Pen.setStroke">
<polygon fill="white" stroke="black" points="577.5,-0.5 577.5,-19.5 694.5,-19.5 694.5,-0.5 577.5,-0.5"/>
<text text-anchor="middle" x="636" y="-7.5" font-family="Helvetica,sans-Serif" font-size="10.00">model.Pen.setStroke</text>
</a>
</g>
</g>
<!-- Node6&#45;&gt;Node7 -->
<g id="edge6" class="edge"><title>Node6&#45;&gt;Node7</title>
<path fill="none" stroke="midnightblue" d="M525.735,-10C539.152,-10 553.417,-10 567.059,-10"/>
<polygon fill="midnightblue" stroke="midnightblue" points="567.346,-13.5001 577.346,-10 567.346,-6.5001 567.346,-13.5001"/>
</g>
</g>
</svg>
