<?xml version="1.0" encoding="UTF-8" standalone="no"?>
<!DOCTYPE svg PUBLIC "-//W3C//DTD SVG 1.1//EN"
 "http://www.w3.org/Graphics/SVG/1.1/DTD/svg11.dtd">
<!-- Generated by graphviz version 2.36.0 (20140111.2315)
 -->
<!-- Title: model.TurtleManager.execute Pages: 1 -->
<svg width="356pt" height="77pt"
 viewBox="0.00 0.00 356.00 77.00" xmlns="http://www.w3.org/2000/svg" xmlns:xlink="http://www.w3.org/1999/xlink">
<g id="graph0" class="graph" transform="scale(1 1) rotate(0) translate(4 73)">
<title>model.TurtleManager.execute</title>
<polygon fill="white" stroke="none" points="-4,4 -4,-73 352,-73 352,4 -4,4"/>
<!-- Node1 -->
<g id="node1" class="node"><title>Node1</title>
<polygon fill="#bfbfbf" stroke="black" points="0,-22.5 0,-41.5 158,-41.5 158,-22.5 0,-22.5"/>
<text text-anchor="middle" x="79" y="-29.5" font-family="Helvetica,sans-Serif" font-size="10.00">model.TurtleManager.execute</text>
</g>
<!-- Node2 -->
<g id="node2" class="node"><title>Node2</title>
<g id="a_node2"><a xlink:href="../../d6/dcd/classparser_1_1reflection_1_1_reflection_helper.html#a78dcd12445fe16fa0bc7aaa40b79446e" target="_top" xlink:title="parser.reflection.Reflection\lHelper.findMethod">
<polygon fill="white" stroke="black" points="199.5,-39 199.5,-69 342.5,-69 342.5,-39 199.5,-39"/>
<text text-anchor="start" x="207.5" y="-57" font-family="Helvetica,sans-Serif" font-size="10.00">parser.reflection.Reflection</text>
<text text-anchor="middle" x="271" y="-46" font-family="Helvetica,sans-Serif" font-size="10.00">Helper.findMethod</text>
</a>
</g>
</g>
<!-- Node1&#45;&gt;Node2 -->
<g id="edge1" class="edge"><title>Node1&#45;&gt;Node2</title>
<path fill="none" stroke="midnightblue" d="M158.103,-41.0435C168.312,-42.2257 178.791,-43.439 189.047,-44.6264"/>
<polygon fill="midnightblue" stroke="midnightblue" points="188.873,-48.1297 199.209,-45.8032 189.678,-41.1761 188.873,-48.1297"/>
</g>
<!-- Node3 -->
<g id="node3" class="node"><title>Node3</title>
<g id="a_node3"><a xlink:href="../../d8/dff/classmodel_1_1_turtle_manager.html#a8679aef13c1e2b3d695b1467c2bb5e9f" target="_top" xlink:title="model.TurtleManager.update">
<polygon fill="white" stroke="black" points="194.5,-0.5 194.5,-19.5 347.5,-19.5 347.5,-0.5 194.5,-0.5"/>
<text text-anchor="middle" x="271" y="-7.5" font-family="Helvetica,sans-Serif" font-size="10.00">model.TurtleManager.update</text>
</a>
</g>
</g>
<!-- Node1&#45;&gt;Node3 -->
<g id="edge2" class="edge"><title>Node1&#45;&gt;Node3</title>
<path fill="none" stroke="midnightblue" d="M158.103,-22.9565C166.71,-21.9599 175.508,-20.9411 184.203,-19.9344"/>
<polygon fill="midnightblue" stroke="midnightblue" points="184.813,-23.3872 194.344,-18.7601 184.008,-16.4336 184.813,-23.3872"/>
</g>
</g>
</svg>
