<?xml version="1.0" encoding="UTF-8" standalone="no"?>
<!DOCTYPE svg PUBLIC "-//W3C//DTD SVG 1.1//EN"
 "http://www.w3.org/Graphics/SVG/1.1/DTD/svg11.dtd">
<!-- Generated by graphviz version 2.36.0 (20140111.2315)
 -->
<!-- Title: model.TurtleManager.addActive Pages: 1 -->
<svg width="370pt" height="87pt"
 viewBox="0.00 0.00 370.00 87.00" xmlns="http://www.w3.org/2000/svg" xmlns:xlink="http://www.w3.org/1999/xlink">
<g id="graph0" class="graph" transform="scale(1 1) rotate(0) translate(4 83)">
<title>model.TurtleManager.addActive</title>
<polygon fill="white" stroke="none" points="-4,4 -4,-83 366,-83 366,4 -4,4"/>
<!-- Node1 -->
<g id="node1" class="node"><title>Node1</title>
<polygon fill="#bfbfbf" stroke="black" points="0.5,-29.5 0.5,-48.5 167.5,-48.5 167.5,-29.5 0.5,-29.5"/>
<text text-anchor="middle" x="84" y="-36.5" font-family="Helvetica,sans-Serif" font-size="10.00">model.TurtleManager.addActive</text>
</g>
<!-- Node2 -->
<g id="node2" class="node"><title>Node2</title>
<g id="a_node2"><a xlink:href="../../d8/dff/classmodel_1_1_turtle_manager.html#a2c8eed018128d3a0be175415b36445d9" target="_top" xlink:title="model.TurtleManager.activate\lTurtle">
<polygon fill="white" stroke="black" points="204,-49 204,-79 362,-79 362,-49 204,-49"/>
<text text-anchor="start" x="212" y="-67" font-family="Helvetica,sans-Serif" font-size="10.00">model.TurtleManager.activate</text>
<text text-anchor="middle" x="283" y="-56" font-family="Helvetica,sans-Serif" font-size="10.00">Turtle</text>
</a>
</g>
</g>
<!-- Node1&#45;&gt;Node2 -->
<g id="edge1" class="edge"><title>Node1&#45;&gt;Node2</title>
<path fill="none" stroke="midnightblue" d="M160.039,-48.5227C171.028,-49.9173 182.431,-51.3643 193.656,-52.7888"/>
<polygon fill="midnightblue" stroke="midnightblue" points="193.536,-56.3016 203.897,-54.0885 194.417,-49.3573 193.536,-56.3016"/>
</g>
<!-- Node3 -->
<g id="node3" class="node"><title>Node3</title>
<g id="a_node3"><a xlink:href="../../d8/dff/classmodel_1_1_turtle_manager.html#a574d2559ea66b6d03c753ef8498103d4" target="_top" xlink:title="model.TurtleManager.clear\lActive">
<polygon fill="white" stroke="black" points="211.5,-0 211.5,-30 354.5,-30 354.5,-0 211.5,-0"/>
<text text-anchor="start" x="219.5" y="-18" font-family="Helvetica,sans-Serif" font-size="10.00">model.TurtleManager.clear</text>
<text text-anchor="middle" x="283" y="-7" font-family="Helvetica,sans-Serif" font-size="10.00">Active</text>
</a>
</g>
</g>
<!-- Node1&#45;&gt;Node3 -->
<g id="edge2" class="edge"><title>Node1&#45;&gt;Node3</title>
<path fill="none" stroke="midnightblue" d="M163.143,-29.4801C175.688,-27.9518 188.694,-26.3673 201.297,-24.8318"/>
<polygon fill="midnightblue" stroke="midnightblue" points="201.799,-28.2966 211.302,-23.6129 200.952,-21.348 201.799,-28.2966"/>
</g>
</g>
</svg>
