<?xml version="1.0" encoding="UTF-8" standalone="no"?>
<!DOCTYPE svg PUBLIC "-//W3C//DTD SVG 1.1//EN"
 "http://www.w3.org/Graphics/SVG/1.1/DTD/svg11.dtd">
<!-- Generated by graphviz version 2.36.0 (20140111.2315)
 -->
<!-- Title: model.TurtleManager.TurtleManager Pages: 1 -->
<svg width="906pt" height="153pt"
 viewBox="0.00 0.00 906.00 153.00" xmlns="http://www.w3.org/2000/svg" xmlns:xlink="http://www.w3.org/1999/xlink">
<g id="graph0" class="graph" transform="scale(1 1) rotate(0) translate(4 149)">
<title>model.TurtleManager.TurtleManager</title>
<polygon fill="white" stroke="none" points="-4,4 -4,-149 902,-149 902,4 -4,4"/>
<!-- Node1 -->
<g id="node1" class="node"><title>Node1</title>
<polygon fill="#bfbfbf" stroke="black" points="0.5,-26 0.5,-56 145.5,-56 145.5,-26 0.5,-26"/>
<text text-anchor="start" x="8.5" y="-44" font-family="Helvetica,sans-Serif" font-size="10.00">model.TurtleManager.Turtle</text>
<text text-anchor="middle" x="73" y="-33" font-family="Helvetica,sans-Serif" font-size="10.00">Manager</text>
</g>
<!-- Node2 -->
<g id="node2" class="node"><title>Node2</title>
<g id="a_node2"><a xlink:href="../../d8/dff/classmodel_1_1_turtle_manager.html#a1c46b383a49e06a2436ad084bf7cd5aa" target="_top" xlink:title="model.TurtleManager.activate">
<polygon fill="white" stroke="black" points="185,-54.5 185,-73.5 343,-73.5 343,-54.5 185,-54.5"/>
<text text-anchor="middle" x="264" y="-61.5" font-family="Helvetica,sans-Serif" font-size="10.00">model.TurtleManager.activate</text>
</a>
</g>
</g>
<!-- Node1&#45;&gt;Node2 -->
<g id="edge1" class="edge"><title>Node1&#45;&gt;Node2</title>
<path fill="none" stroke="midnightblue" d="M145.722,-49.7281C155.178,-50.8788 164.957,-52.0688 174.649,-53.2483"/>
<polygon fill="midnightblue" stroke="midnightblue" points="174.352,-56.7379 184.701,-54.4716 175.197,-49.7891 174.352,-56.7379"/>
</g>
<!-- Node9 -->
<g id="node9" class="node"><title>Node9</title>
<g id="a_node9"><a xlink:href="../../d8/dff/classmodel_1_1_turtle_manager.html#a86e0e9159dad59c6aee3d0563a40e241" target="_top" xlink:title="model.TurtleManager.setImage\lRelative">
<polygon fill="white" stroke="black" points="182,-3 182,-33 346,-33 346,-3 182,-3"/>
<text text-anchor="start" x="190" y="-21" font-family="Helvetica,sans-Serif" font-size="10.00">model.TurtleManager.setImage</text>
<text text-anchor="middle" x="264" y="-10" font-family="Helvetica,sans-Serif" font-size="10.00">Relative</text>
</a>
</g>
</g>
<!-- Node1&#45;&gt;Node9 -->
<g id="edge8" class="edge"><title>Node1&#45;&gt;Node9</title>
<path fill="none" stroke="midnightblue" d="M145.722,-32.2719C154.204,-31.2398 162.945,-30.1759 171.651,-29.1165"/>
<polygon fill="midnightblue" stroke="midnightblue" points="172.334,-32.5594 181.837,-27.8769 171.488,-25.6107 172.334,-32.5594"/>
</g>
<!-- Node3 -->
<g id="node3" class="node"><title>Node3</title>
<g id="a_node3"><a xlink:href="../../d8/dff/classmodel_1_1_turtle_manager.html#a3d0172590b0214793dbd3997c56f7759" target="_top" xlink:title="model.TurtleManager.addNew">
<polygon fill="white" stroke="black" points="388,-98.5 388,-117.5 546,-117.5 546,-98.5 388,-98.5"/>
<text text-anchor="middle" x="467" y="-105.5" font-family="Helvetica,sans-Serif" font-size="10.00">model.TurtleManager.addNew</text>
</a>
</g>
</g>
<!-- Node2&#45;&gt;Node3 -->
<g id="edge2" class="edge"><title>Node2&#45;&gt;Node3</title>
<path fill="none" stroke="midnightblue" d="M308.614,-73.5473C339.168,-80.2357 380.181,-89.2137 412.68,-96.3279"/>
<polygon fill="midnightblue" stroke="midnightblue" points="411.954,-99.7518 422.471,-98.4713 413.451,-92.9138 411.954,-99.7518"/>
</g>
<!-- Node8 -->
<g id="node8" class="node"><title>Node8</title>
<g id="a_node8"><a xlink:href="../../d8/dff/classmodel_1_1_turtle_manager.html#a2c8eed018128d3a0be175415b36445d9" target="_top" xlink:title="model.TurtleManager.activate\lTurtle">
<polygon fill="white" stroke="black" points="388,-49 388,-79 546,-79 546,-49 388,-49"/>
<text text-anchor="start" x="396" y="-67" font-family="Helvetica,sans-Serif" font-size="10.00">model.TurtleManager.activate</text>
<text text-anchor="middle" x="467" y="-56" font-family="Helvetica,sans-Serif" font-size="10.00">Turtle</text>
</a>
</g>
</g>
<!-- Node2&#45;&gt;Node8 -->
<g id="edge7" class="edge"><title>Node2&#45;&gt;Node8</title>
<path fill="none" stroke="midnightblue" d="M343.287,-64C354.626,-64 366.362,-64 377.878,-64"/>
<polygon fill="midnightblue" stroke="midnightblue" points="377.926,-67.5001 387.926,-64 377.926,-60.5001 377.926,-67.5001"/>
</g>
<!-- Node4 -->
<g id="node4" class="node"><title>Node4</title>
<g id="a_node4"><a xlink:href="../../d8/dff/classmodel_1_1_turtle_manager.html#a9831377a60a443edcedede2e809e36f4" target="_top" xlink:title="model.TurtleManager.create\lTurtle">
<polygon fill="white" stroke="black" points="588,-115 588,-145 738,-145 738,-115 588,-115"/>
<text text-anchor="start" x="596" y="-133" font-family="Helvetica,sans-Serif" font-size="10.00">model.TurtleManager.create</text>
<text text-anchor="middle" x="663" y="-122" font-family="Helvetica,sans-Serif" font-size="10.00">Turtle</text>
</a>
</g>
</g>
<!-- Node3&#45;&gt;Node4 -->
<g id="edge3" class="edge"><title>Node3&#45;&gt;Node4</title>
<path fill="none" stroke="midnightblue" d="M546.069,-116.853C556.521,-118.038 567.278,-119.258 577.83,-120.455"/>
<polygon fill="midnightblue" stroke="midnightblue" points="577.535,-123.944 587.866,-121.593 578.324,-116.988 577.535,-123.944"/>
</g>
<!-- Node6 -->
<g id="node6" class="node"><title>Node6</title>
<g id="a_node6"><a xlink:href="../../d6/d34/classmodel_1_1_turtle.html#a65a22c7a1a7abfbc46a6f339479e7646" target="_top" xlink:title="model.Turtle.setStroke">
<polygon fill="white" stroke="black" points="600.5,-76.5 600.5,-95.5 725.5,-95.5 725.5,-76.5 600.5,-76.5"/>
<text text-anchor="middle" x="663" y="-83.5" font-family="Helvetica,sans-Serif" font-size="10.00">model.Turtle.setStroke</text>
</a>
</g>
</g>
<!-- Node3&#45;&gt;Node6 -->
<g id="edge5" class="edge"><title>Node3&#45;&gt;Node6</title>
<path fill="none" stroke="midnightblue" d="M546.069,-99.1469C560.641,-97.4943 575.807,-95.7745 590.18,-94.1445"/>
<polygon fill="midnightblue" stroke="midnightblue" points="590.944,-97.5804 600.486,-92.9758 590.155,-90.625 590.944,-97.5804"/>
</g>
<!-- Node5 -->
<g id="node5" class="node"><title>Node5</title>
<g id="a_node5"><a xlink:href="../../d6/d34/classmodel_1_1_turtle.html#a27ce4fa61b6e292b1cfff08d511e7fc4" target="_top" xlink:title="model.Turtle.setImage">
<polygon fill="white" stroke="black" points="774.5,-120.5 774.5,-139.5 897.5,-139.5 897.5,-120.5 774.5,-120.5"/>
<text text-anchor="middle" x="836" y="-127.5" font-family="Helvetica,sans-Serif" font-size="10.00">model.Turtle.setImage</text>
</a>
</g>
</g>
<!-- Node4&#45;&gt;Node5 -->
<g id="edge4" class="edge"><title>Node4&#45;&gt;Node5</title>
<path fill="none" stroke="midnightblue" d="M738.009,-130C746.702,-130 755.557,-130 764.205,-130"/>
<polygon fill="midnightblue" stroke="midnightblue" points="764.24,-133.5 774.24,-130 764.24,-126.5 764.24,-133.5"/>
</g>
<!-- Node7 -->
<g id="node7" class="node"><title>Node7</title>
<g id="a_node7"><a xlink:href="../../de/ded/classmodel_1_1_pen.html#a00c08e5bfc9d04986e0ff7ae4ceae10b" target="_top" xlink:title="model.Pen.setStroke">
<polygon fill="white" stroke="black" points="777.5,-76.5 777.5,-95.5 894.5,-95.5 894.5,-76.5 777.5,-76.5"/>
<text text-anchor="middle" x="836" y="-83.5" font-family="Helvetica,sans-Serif" font-size="10.00">model.Pen.setStroke</text>
</a>
</g>
</g>
<!-- Node6&#45;&gt;Node7 -->
<g id="edge6" class="edge"><title>Node6&#45;&gt;Node7</title>
<path fill="none" stroke="midnightblue" d="M725.735,-86C739.152,-86 753.417,-86 767.059,-86"/>
<polygon fill="midnightblue" stroke="midnightblue" points="767.346,-89.5001 777.346,-86 767.346,-82.5001 767.346,-89.5001"/>
</g>
<!-- Node10 -->
<g id="node10" class="node"><title>Node10</title>
<g id="a_node10"><a xlink:href="../../d3/dcf/classview_1_1components_1_1_error_box.html#aca5c0d49cf82077b4e67e4e32f311a64" target="_top" xlink:title="view.components.ErrorBox.show\lError">
<polygon fill="white" stroke="black" points="382,-0 382,-30 552,-30 552,-0 382,-0"/>
<text text-anchor="start" x="390" y="-18" font-family="Helvetica,sans-Serif" font-size="10.00">view.components.ErrorBox.show</text>
<text text-anchor="middle" x="467" y="-7" font-family="Helvetica,sans-Serif" font-size="10.00">Error</text>
</a>
</g>
</g>
<!-- Node9&#45;&gt;Node10 -->
<g id="edge9" class="edge"><title>Node9&#45;&gt;Node10</title>
<path fill="none" stroke="midnightblue" d="M346.175,-16.7884C354.633,-16.6622 363.28,-16.5331 371.865,-16.405"/>
<polygon fill="midnightblue" stroke="midnightblue" points="371.953,-19.9042 381.9,-16.2552 371.849,-12.905 371.953,-19.9042"/>
</g>
<!-- Node11 -->
<g id="node11" class="node"><title>Node11</title>
<g id="a_node11"><a xlink:href="../../dd/d60/enumview_1_1components_1_1_error.html#aaaf045ebafea6177dfa658991af59af8" target="_top" xlink:title="view.components.Error.get\lMessage">
<polygon fill="white" stroke="black" points="591.5,-0 591.5,-30 734.5,-30 734.5,-0 591.5,-0"/>
<text text-anchor="start" x="599.5" y="-18" font-family="Helvetica,sans-Serif" font-size="10.00">view.components.Error.get</text>
<text text-anchor="middle" x="663" y="-7" font-family="Helvetica,sans-Serif" font-size="10.00">Message</text>
</a>
</g>
</g>
<!-- Node10&#45;&gt;Node11 -->
<g id="edge10" class="edge"><title>Node10&#45;&gt;Node11</title>
<path fill="none" stroke="midnightblue" d="M552.245,-15C561.857,-15 571.639,-15 581.205,-15"/>
<polygon fill="midnightblue" stroke="midnightblue" points="581.481,-18.5001 591.481,-15 581.481,-11.5001 581.481,-18.5001"/>
</g>
</g>
</svg>
