<?xml version="1.0" encoding="UTF-8" standalone="no"?>
<!DOCTYPE svg PUBLIC "-//W3C//DTD SVG 1.1//EN"
 "http://www.w3.org/Graphics/SVG/1.1/DTD/svg11.dtd">
<!-- Generated by graphviz version 2.36.0 (20140111.2315)
 -->
<!-- Title: model.TurtleManager.setImage Pages: 1 -->
<svg width="558pt" height="77pt"
 viewBox="0.00 0.00 558.00 77.00" xmlns="http://www.w3.org/2000/svg" xmlns:xlink="http://www.w3.org/1999/xlink">
<g id="graph0" class="graph" transform="scale(1 1) rotate(0) translate(4 73)">
<title>model.TurtleManager.setImage</title>
<polygon fill="white" stroke="none" points="-4,4 -4,-73 554,-73 554,4 -4,4"/>
<!-- Node1 -->
<g id="node1" class="node"><title>Node1</title>
<polygon fill="#bfbfbf" stroke="black" points="0,-22.5 0,-41.5 164,-41.5 164,-22.5 0,-22.5"/>
<text text-anchor="middle" x="82" y="-29.5" font-family="Helvetica,sans-Serif" font-size="10.00">model.TurtleManager.setImage</text>
</g>
<!-- Node2 -->
<g id="node2" class="node"><title>Node2</title>
<g id="a_node2"><a xlink:href="../../d3/dcf/classview_1_1components_1_1_error_box.html#aca5c0d49cf82077b4e67e4e32f311a64" target="_top" xlink:title="view.components.ErrorBox.show\lError">
<polygon fill="white" stroke="black" points="200,-39 200,-69 370,-69 370,-39 200,-39"/>
<text text-anchor="start" x="208" y="-57" font-family="Helvetica,sans-Serif" font-size="10.00">view.components.ErrorBox.show</text>
<text text-anchor="middle" x="285" y="-46" font-family="Helvetica,sans-Serif" font-size="10.00">Error</text>
</a>
</g>
</g>
<!-- Node1&#45;&gt;Node2 -->
<g id="edge1" class="edge"><title>Node1&#45;&gt;Node2</title>
<path fill="none" stroke="midnightblue" d="M164.175,-40.8848C172.633,-41.8105 181.28,-42.757 189.865,-43.6967"/>
<polygon fill="midnightblue" stroke="midnightblue" points="189.578,-47.1861 199.9,-44.795 190.34,-40.2277 189.578,-47.1861"/>
</g>
<!-- Node4 -->
<g id="node4" class="node"><title>Node4</title>
<g id="a_node4"><a xlink:href="../../d8/dff/classmodel_1_1_turtle_manager.html#a8679aef13c1e2b3d695b1467c2bb5e9f" target="_top" xlink:title="model.TurtleManager.update">
<polygon fill="white" stroke="black" points="208.5,-0.5 208.5,-19.5 361.5,-19.5 361.5,-0.5 208.5,-0.5"/>
<text text-anchor="middle" x="285" y="-7.5" font-family="Helvetica,sans-Serif" font-size="10.00">model.TurtleManager.update</text>
</a>
</g>
</g>
<!-- Node1&#45;&gt;Node4 -->
<g id="edge3" class="edge"><title>Node1&#45;&gt;Node4</title>
<path fill="none" stroke="midnightblue" d="M164.175,-23.1152C175.353,-21.8917 186.863,-20.6319 198.122,-19.3996"/>
<polygon fill="midnightblue" stroke="midnightblue" points="198.815,-22.8447 208.375,-18.2773 198.054,-15.8862 198.815,-22.8447"/>
</g>
<!-- Node3 -->
<g id="node3" class="node"><title>Node3</title>
<g id="a_node3"><a xlink:href="../../dd/d60/enumview_1_1components_1_1_error.html#aaaf045ebafea6177dfa658991af59af8" target="_top" xlink:title="view.components.Error.get\lMessage">
<polygon fill="white" stroke="black" points="406.5,-39 406.5,-69 549.5,-69 549.5,-39 406.5,-39"/>
<text text-anchor="start" x="414.5" y="-57" font-family="Helvetica,sans-Serif" font-size="10.00">view.components.Error.get</text>
<text text-anchor="middle" x="478" y="-46" font-family="Helvetica,sans-Serif" font-size="10.00">Message</text>
</a>
</g>
</g>
<!-- Node2&#45;&gt;Node3 -->
<g id="edge2" class="edge"><title>Node2&#45;&gt;Node3</title>
<path fill="none" stroke="midnightblue" d="M370.053,-54C378.758,-54 387.59,-54 396.257,-54"/>
<polygon fill="midnightblue" stroke="midnightblue" points="396.337,-57.5001 406.337,-54 396.337,-50.5001 396.337,-57.5001"/>
</g>
</g>
</svg>
