<?xml version="1.0" encoding="UTF-8" standalone="no"?>
<!DOCTYPE svg PUBLIC "-//W3C//DTD SVG 1.1//EN"
 "http://www.w3.org/Graphics/SVG/1.1/DTD/svg11.dtd">
<!-- Generated by graphviz version 2.36.0 (20140111.2315)
 -->
<!-- Title: model.TurtleManager.clearActive Pages: 1 -->
<svg width="574pt" height="145pt"
 viewBox="0.00 0.00 574.00 145.00" xmlns="http://www.w3.org/2000/svg" xmlns:xlink="http://www.w3.org/1999/xlink">
<g id="graph0" class="graph" transform="scale(1 1) rotate(0) translate(4 141)">
<title>model.TurtleManager.clearActive</title>
<polygon fill="white" stroke="none" points="-4,4 -4,-141 570,-141 570,4 -4,4"/>
<!-- Node1 -->
<g id="node1" class="node"><title>Node1</title>
<polygon fill="#bfbfbf" stroke="black" points="0.5,-49 0.5,-79 143.5,-79 143.5,-49 0.5,-49"/>
<text text-anchor="start" x="8.5" y="-67" font-family="Helvetica,sans-Serif" font-size="10.00">model.TurtleManager.clear</text>
<text text-anchor="middle" x="72" y="-56" font-family="Helvetica,sans-Serif" font-size="10.00">Active</text>
</g>
<!-- Node2 -->
<g id="node2" class="node"><title>Node2</title>
<g id="a_node2"><a xlink:href="../../d8/dff/classmodel_1_1_turtle_manager.html#adeb56b91fa8a55709a6e87dece71a596" target="_top" xlink:title="model.TurtleManager.addActive">
<polygon fill="white" stroke="black" points="180.5,-98.5 180.5,-117.5 347.5,-117.5 347.5,-98.5 180.5,-98.5"/>
<text text-anchor="middle" x="264" y="-105.5" font-family="Helvetica,sans-Serif" font-size="10.00">model.TurtleManager.addActive</text>
</a>
</g>
</g>
<!-- Node1&#45;&gt;Node2 -->
<g id="edge1" class="edge"><title>Node1&#45;&gt;Node2</title>
<path fill="none" stroke="midnightblue" d="M147.786,-81.3187C173.03,-87.1648 200.271,-93.4732 221.924,-98.4876"/>
<polygon fill="midnightblue" stroke="midnightblue" points="148.388,-77.8656 137.856,-79.0192 146.808,-84.6852 148.388,-77.8656"/>
</g>
<!-- Node5 -->
<g id="node5" class="node"><title>Node5</title>
<g id="a_node5"><a xlink:href="../../d5/d6d/classparser_1_1commands_1_1workspace_1_1_ask.html#a837a075ce77789761e3060413c51e882" target="_top" xlink:title="parser.commands.workspace.\lAsk.evaluate">
<polygon fill="white" stroke="black" points="184,-49 184,-79 344,-79 344,-49 184,-49"/>
<text text-anchor="start" x="192" y="-67" font-family="Helvetica,sans-Serif" font-size="10.00">parser.commands.workspace.</text>
<text text-anchor="middle" x="264" y="-56" font-family="Helvetica,sans-Serif" font-size="10.00">Ask.evaluate</text>
</a>
</g>
</g>
<!-- Node1&#45;&gt;Node5 -->
<g id="edge4" class="edge"><title>Node1&#45;&gt;Node5</title>
<path fill="none" stroke="midnightblue" d="M153.98,-64C163.888,-64 174.004,-64 183.885,-64"/>
<polygon fill="midnightblue" stroke="midnightblue" points="153.749,-60.5001 143.749,-64 153.749,-67.5001 153.749,-60.5001"/>
</g>
<!-- Node6 -->
<g id="node6" class="node"><title>Node6</title>
<g id="a_node6"><a xlink:href="../../db/d77/classparser_1_1commands_1_1workspace_1_1_ask_with.html#a1de9ef4326a655f16ceec2a53302a0b5" target="_top" xlink:title="parser.commands.workspace.\lAskWith.evaluate">
<polygon fill="white" stroke="black" points="184,-0 184,-30 344,-30 344,-0 184,-0"/>
<text text-anchor="start" x="192" y="-18" font-family="Helvetica,sans-Serif" font-size="10.00">parser.commands.workspace.</text>
<text text-anchor="middle" x="264" y="-7" font-family="Helvetica,sans-Serif" font-size="10.00">AskWith.evaluate</text>
</a>
</g>
</g>
<!-- Node1&#45;&gt;Node6 -->
<g id="edge5" class="edge"><title>Node1&#45;&gt;Node6</title>
<path fill="none" stroke="midnightblue" d="M141.05,-46.4502C161.915,-41.0694 184.67,-35.201 204.813,-30.0062"/>
<polygon fill="midnightblue" stroke="midnightblue" points="140.107,-43.079 131.297,-48.9654 141.855,-49.8572 140.107,-43.079"/>
</g>
<!-- Node3 -->
<g id="node3" class="node"><title>Node3</title>
<g id="a_node3"><a xlink:href="../../d8/dff/classmodel_1_1_turtle_manager.html#a3f8173be63c2eaef2027880f7eca7dcf" target="_top" xlink:title="model.TurtleManager.activateEven">
<polygon fill="white" stroke="black" points="384.5,-117.5 384.5,-136.5 565.5,-136.5 565.5,-117.5 384.5,-117.5"/>
<text text-anchor="middle" x="475" y="-124.5" font-family="Helvetica,sans-Serif" font-size="10.00">model.TurtleManager.activateEven</text>
</a>
</g>
</g>
<!-- Node2&#45;&gt;Node3 -->
<g id="edge2" class="edge"><title>Node2&#45;&gt;Node3</title>
<path fill="none" stroke="midnightblue" d="M357.602,-116.418C366.514,-117.229 375.544,-118.049 384.427,-118.857"/>
<polygon fill="midnightblue" stroke="midnightblue" points="357.878,-112.929 347.602,-115.509 357.244,-119.9 357.878,-112.929"/>
</g>
<!-- Node4 -->
<g id="node4" class="node"><title>Node4</title>
<g id="a_node4"><a xlink:href="../../d8/dff/classmodel_1_1_turtle_manager.html#adb87485969ca65b389faf0f9af904528" target="_top" xlink:title="model.TurtleManager.activateOdd">
<polygon fill="white" stroke="black" points="386.5,-79.5 386.5,-98.5 563.5,-98.5 563.5,-79.5 386.5,-79.5"/>
<text text-anchor="middle" x="475" y="-86.5" font-family="Helvetica,sans-Serif" font-size="10.00">model.TurtleManager.activateOdd</text>
</a>
</g>
</g>
<!-- Node2&#45;&gt;Node4 -->
<g id="edge3" class="edge"><title>Node2&#45;&gt;Node4</title>
<path fill="none" stroke="midnightblue" d="M357.775,-99.5659C367.21,-98.7081 376.775,-97.8387 386.155,-96.9859"/>
<polygon fill="midnightblue" stroke="midnightblue" points="357.244,-96.0996 347.602,-100.491 357.878,-103.071 357.244,-96.0996"/>
</g>
</g>
</svg>
