<?xml version="1.0" encoding="UTF-8" standalone="no"?>
<!DOCTYPE svg PUBLIC "-//W3C//DTD SVG 1.1//EN"
 "http://www.w3.org/Graphics/SVG/1.1/DTD/svg11.dtd">
<!-- Generated by graphviz version 2.36.0 (20140111.2315)
 -->
<!-- Title: model.TurtleManager.getAllTurtles Pages: 1 -->
<svg width="1086pt" height="87pt"
 viewBox="0.00 0.00 1086.00 87.00" xmlns="http://www.w3.org/2000/svg" xmlns:xlink="http://www.w3.org/1999/xlink">
<g id="graph0" class="graph" transform="scale(1 1) rotate(0) translate(4 83)">
<title>model.TurtleManager.getAllTurtles</title>
<polygon fill="white" stroke="none" points="-4,4 -4,-83 1082,-83 1082,4 -4,4"/>
<!-- Node1 -->
<g id="node1" class="node"><title>Node1</title>
<polygon fill="#bfbfbf" stroke="black" points="0,-24 0,-54 146,-54 146,-24 0,-24"/>
<text text-anchor="start" x="8" y="-42" font-family="Helvetica,sans-Serif" font-size="10.00">model.TurtleManager.getAll</text>
<text text-anchor="middle" x="73" y="-31" font-family="Helvetica,sans-Serif" font-size="10.00">Turtles</text>
</g>
<!-- Node2 -->
<g id="node2" class="node"><title>Node2</title>
<g id="a_node2"><a xlink:href="../../db/d77/classparser_1_1commands_1_1workspace_1_1_ask_with.html#a1de9ef4326a655f16ceec2a53302a0b5" target="_top" xlink:title="parser.commands.workspace.\lAskWith.evaluate">
<polygon fill="white" stroke="black" points="182,-49 182,-79 342,-79 342,-49 182,-49"/>
<text text-anchor="start" x="190" y="-67" font-family="Helvetica,sans-Serif" font-size="10.00">parser.commands.workspace.</text>
<text text-anchor="middle" x="262" y="-56" font-family="Helvetica,sans-Serif" font-size="10.00">AskWith.evaluate</text>
</a>
</g>
</g>
<!-- Node1&#45;&gt;Node2 -->
<g id="edge1" class="edge"><title>Node1&#45;&gt;Node2</title>
<path fill="none" stroke="midnightblue" d="M156.024,-49.9657C164.601,-51.1125 173.31,-52.2768 181.855,-53.4191"/>
<polygon fill="midnightblue" stroke="midnightblue" points="156.407,-46.486 146.032,-48.6299 155.48,-53.4242 156.407,-46.486"/>
</g>
<!-- Node3 -->
<g id="node3" class="node"><title>Node3</title>
<g id="a_node3"><a xlink:href="../../de/d84/classcontroller_1_1_workspace.html#a376960fdadb99029dd6585c07f3a33c0" target="_top" xlink:title="controller.Workspace.get\lAllTurtles">
<polygon fill="white" stroke="black" points="195,-0 195,-30 329,-30 329,-0 195,-0"/>
<text text-anchor="start" x="203" y="-18" font-family="Helvetica,sans-Serif" font-size="10.00">controller.Workspace.get</text>
<text text-anchor="middle" x="262" y="-7" font-family="Helvetica,sans-Serif" font-size="10.00">AllTurtles</text>
</a>
</g>
</g>
<!-- Node1&#45;&gt;Node3 -->
<g id="edge2" class="edge"><title>Node1&#45;&gt;Node3</title>
<path fill="none" stroke="midnightblue" d="M156.289,-28.4389C169.179,-26.7845 182.358,-25.0931 194.826,-23.4929"/>
<polygon fill="midnightblue" stroke="midnightblue" points="155.505,-25.0107 146.032,-29.7553 156.396,-31.9538 155.505,-25.0107"/>
</g>
<!-- Node4 -->
<g id="node4" class="node"><title>Node4</title>
<g id="a_node4"><a xlink:href="../../d9/df7/classcontroller_1_1_controller.html#a17d9d0474952b983548cde23a4e27134" target="_top" xlink:title="controller.Controller.create\lTellMenuListener">
<polygon fill="white" stroke="black" points="378.5,-0 378.5,-30 521.5,-30 521.5,-0 378.5,-0"/>
<text text-anchor="start" x="386.5" y="-18" font-family="Helvetica,sans-Serif" font-size="10.00">controller.Controller.create</text>
<text text-anchor="middle" x="450" y="-7" font-family="Helvetica,sans-Serif" font-size="10.00">TellMenuListener</text>
</a>
</g>
</g>
<!-- Node3&#45;&gt;Node4 -->
<g id="edge3" class="edge"><title>Node3&#45;&gt;Node4</title>
<path fill="none" stroke="midnightblue" d="M339.345,-15C352.262,-15 365.623,-15 378.385,-15"/>
<polygon fill="midnightblue" stroke="midnightblue" points="339.1,-11.5001 329.1,-15 339.1,-18.5001 339.1,-11.5001"/>
</g>
<!-- Node5 -->
<g id="node5" class="node"><title>Node5</title>
<g id="a_node5"><a xlink:href="../../d9/df7/classcontroller_1_1_controller.html#ac03add001882f876041934dfe435b43f" target="_top" xlink:title="controller.Controller.create\lSettingMenu">
<polygon fill="white" stroke="black" points="558.5,-0 558.5,-30 701.5,-30 701.5,-0 558.5,-0"/>
<text text-anchor="start" x="566.5" y="-18" font-family="Helvetica,sans-Serif" font-size="10.00">controller.Controller.create</text>
<text text-anchor="middle" x="630" y="-7" font-family="Helvetica,sans-Serif" font-size="10.00">SettingMenu</text>
</a>
</g>
</g>
<!-- Node4&#45;&gt;Node5 -->
<g id="edge4" class="edge"><title>Node4&#45;&gt;Node5</title>
<path fill="none" stroke="midnightblue" d="M531.646,-15C540.599,-15 549.666,-15 558.479,-15"/>
<polygon fill="midnightblue" stroke="midnightblue" points="531.606,-11.5001 521.606,-15 531.606,-18.5001 531.606,-11.5001"/>
</g>
<!-- Node6 -->
<g id="node6" class="node"><title>Node6</title>
<g id="a_node6"><a xlink:href="../../d9/df7/classcontroller_1_1_controller.html#a2901bf43bb8e47b485558dbf00d40d6d" target="_top" xlink:title="controller.Controller.create\lJMenuBar">
<polygon fill="white" stroke="black" points="738.5,-0 738.5,-30 881.5,-30 881.5,-0 738.5,-0"/>
<text text-anchor="start" x="746.5" y="-18" font-family="Helvetica,sans-Serif" font-size="10.00">controller.Controller.create</text>
<text text-anchor="middle" x="810" y="-7" font-family="Helvetica,sans-Serif" font-size="10.00">JMenuBar</text>
</a>
</g>
</g>
<!-- Node5&#45;&gt;Node6 -->
<g id="edge5" class="edge"><title>Node5&#45;&gt;Node6</title>
<path fill="none" stroke="midnightblue" d="M711.646,-15C720.599,-15 729.666,-15 738.479,-15"/>
<polygon fill="midnightblue" stroke="midnightblue" points="711.606,-11.5001 701.606,-15 711.606,-18.5001 711.606,-11.5001"/>
</g>
<!-- Node7 -->
<g id="node7" class="node"><title>Node7</title>
<g id="a_node7"><a xlink:href="../../d9/df7/classcontroller_1_1_controller.html#a47511ec57338c8e75e71e9314cda5271" target="_top" xlink:title="controller.Controller.Controller">
<polygon fill="white" stroke="black" points="918.5,-5.5 918.5,-24.5 1077.5,-24.5 1077.5,-5.5 918.5,-5.5"/>
<text text-anchor="middle" x="998" y="-12.5" font-family="Helvetica,sans-Serif" font-size="10.00">controller.Controller.Controller</text>
</a>
</g>
</g>
<!-- Node6&#45;&gt;Node7 -->
<g id="edge6" class="edge"><title>Node6&#45;&gt;Node7</title>
<path fill="none" stroke="midnightblue" d="M891.836,-15C900.644,-15 909.599,-15 918.38,-15"/>
<polygon fill="midnightblue" stroke="midnightblue" points="891.584,-11.5001 881.584,-15 891.584,-18.5001 891.584,-11.5001"/>
</g>
</g>
</svg>
