<?xml version="1.0" encoding="UTF-8" standalone="no"?>
<!DOCTYPE svg PUBLIC "-//W3C//DTD SVG 1.1//EN"
 "http://www.w3.org/Graphics/SVG/1.1/DTD/svg11.dtd">
<!-- Generated by graphviz version 2.36.0 (20140111.2315)
 -->
<!-- Title: parser.SemanticsTable Pages: 1 -->
<svg width="523pt" height="96pt"
 viewBox="0.00 0.00 523.00 96.00" xmlns="http://www.w3.org/2000/svg" xmlns:xlink="http://www.w3.org/1999/xlink">
<g id="graph0" class="graph" transform="scale(1 1) rotate(0) translate(4 92)">
<title>parser.SemanticsTable</title>
<polygon fill="white" stroke="none" points="-4,4 -4,-92 519,-92 519,4 -4,4"/>
<!-- Node1 -->
<g id="node1" class="node"><title>Node1</title>
<polygon fill="#bfbfbf" stroke="black" points="204.5,-0.5 204.5,-19.5 329.5,-19.5 329.5,-0.5 204.5,-0.5"/>
<text text-anchor="middle" x="267" y="-7.5" font-family="Helvetica,sans-Serif" font-size="10.00">parser.SemanticsTable</text>
</g>
<!-- Node1&#45;&gt;Node1 -->
<g id="edge3" class="edge"><title>Node1&#45;&gt;Node1</title>
<path fill="none" stroke="#9a32cd" stroke-dasharray="5,2" d="M339.688,-14.4752C344.251,-13.4217 347,-11.9299 347,-10 347,-6.91211 339.961,-4.94599 329.72,-4.10165"/>
<polygon fill="#9a32cd" stroke="#9a32cd" points="339.125,-11.0201 329.72,-15.8984 340.114,-17.9498 339.125,-11.0201"/>
<text text-anchor="middle" x="369" y="-7.5" font-family="Helvetica,sans-Serif" font-size="10.00"> instance</text>
</g>
<!-- Node2 -->
<g id="node2" class="node"><title>Node2</title>
<g id="a_node2"><a xlink:href="../../dd/da7/interfaceparser_1_1_i_parser_provider.html" target="_top" xlink:title="parser.IParserProvider">
<polygon fill="white" stroke="black" points="-0.5,-68.5 -0.5,-87.5 120.5,-87.5 120.5,-68.5 -0.5,-68.5"/>
<text text-anchor="middle" x="60" y="-75.5" font-family="Helvetica,sans-Serif" font-size="10.00">parser.IParserProvider</text>
</a>
</g>
</g>
<!-- Node2&#45;&gt;Node1 -->
<g id="edge1" class="edge"><title>Node2&#45;&gt;Node1</title>
<path fill="none" stroke="#9a32cd" stroke-dasharray="5,2" d="M88.7184,-64.5374C108.29,-56.3303 134.921,-45.7164 159,-38 181.454,-30.8042 207.035,-24.3349 227.662,-19.5339"/>
<polygon fill="#9a32cd" stroke="#9a32cd" points="87.2913,-61.3408 79.4497,-68.4655 90.0228,-67.7859 87.2913,-61.3408"/>
<text text-anchor="middle" x="187" y="-41.5" font-family="Helvetica,sans-Serif" font-size="10.00"> myContext</text>
</g>
<!-- Node3 -->
<g id="node3" class="node"><title>Node3</title>
<polygon fill="white" stroke="#bfbfbf" points="138.5,-68.5 138.5,-87.5 231.5,-87.5 231.5,-68.5 138.5,-68.5"/>
<text text-anchor="middle" x="185" y="-75.5" font-family="Helvetica,sans-Serif" font-size="10.00">ResourceBundle</text>
</g>
<!-- Node3&#45;&gt;Node1 -->
<g id="edge2" class="edge"><title>Node3&#45;&gt;Node1</title>
<path fill="none" stroke="#9a32cd" stroke-dasharray="5,2" d="M203.517,-62.0961C219.786,-49.0012 242.894,-30.4028 256.277,-19.6305"/>
<polygon fill="#9a32cd" stroke="#9a32cd" points="201.316,-59.375 195.72,-68.3717 205.705,-64.8281 201.316,-59.375"/>
<text text-anchor="middle" x="265" y="-41.5" font-family="Helvetica,sans-Serif" font-size="10.00"> myResource</text>
</g>
<!-- Node4 -->
<g id="node4" class="node"><title>Node4</title>
<polygon fill="white" stroke="#bfbfbf" points="249.5,-68.5 249.5,-87.5 450.5,-87.5 450.5,-68.5 249.5,-68.5"/>
<text text-anchor="middle" x="350" y="-75.5" font-family="Helvetica,sans-Serif" font-size="10.00">List&lt; parser.nodes.NodeInformation &gt;</text>
</g>
<!-- Node4&#45;&gt;Node1 -->
<g id="edge4" class="edge"><title>Node4&#45;&gt;Node1</title>
<path fill="none" stroke="#9a32cd" stroke-dasharray="5,2" d="M331.257,-62.0961C314.789,-49.0012 291.4,-30.4028 277.853,-19.6305"/>
<polygon fill="#9a32cd" stroke="#9a32cd" points="329.144,-64.8872 339.149,-68.3717 333.501,-59.4082 329.144,-64.8872"/>
<text text-anchor="middle" x="346.5" y="-41.5" font-family="Helvetica,sans-Serif" font-size="10.00"> myNodeList</text>
</g>
<!-- Node5 -->
<g id="node5" class="node"><title>Node5</title>
<polygon fill="white" stroke="#bfbfbf" points="468.5,-68.5 468.5,-87.5 515.5,-87.5 515.5,-68.5 468.5,-68.5"/>
<text text-anchor="middle" x="492" y="-75.5" font-family="Helvetica,sans-Serif" font-size="10.00">Locale</text>
</g>
<!-- Node5&#45;&gt;Node1 -->
<g id="edge5" class="edge"><title>Node5&#45;&gt;Node1</title>
<path fill="none" stroke="#9a32cd" stroke-dasharray="5,2" d="M460.175,-64.8148C438.14,-56.6261 408.026,-45.9243 381,-38 356.896,-30.9324 329.517,-24.4002 307.633,-19.5317"/>
<polygon fill="#9a32cd" stroke="#9a32cd" points="459.099,-68.149 469.691,-68.3813 461.555,-61.5943 459.099,-68.149"/>
<text text-anchor="middle" x="461.5" y="-41.5" font-family="Helvetica,sans-Serif" font-size="10.00"> DEFAULT_REGION</text>
</g>
</g>
</svg>
