<?xml version="1.0" encoding="UTF-8" standalone="no"?>
<!DOCTYPE svg PUBLIC "-//W3C//DTD SVG 1.1//EN"
 "http://www.w3.org/Graphics/SVG/1.1/DTD/svg11.dtd">
<!-- Generated by graphviz version 2.36.0 (20140111.2315)
 -->
<!-- Title: parser.CustomCommand.getNumArgs Pages: 1 -->
<svg width="402pt" height="77pt"
 viewBox="0.00 0.00 402.00 77.00" xmlns="http://www.w3.org/2000/svg" xmlns:xlink="http://www.w3.org/1999/xlink">
<g id="graph0" class="graph" transform="scale(1 1) rotate(0) translate(4 73)">
<title>parser.CustomCommand.getNumArgs</title>
<polygon fill="white" stroke="none" points="-4,4 -4,-73 398,-73 398,4 -4,4"/>
<!-- Node1 -->
<g id="node1" class="node"><title>Node1</title>
<polygon fill="#bfbfbf" stroke="black" points="0,-17 0,-47 156,-47 156,-17 0,-17"/>
<text text-anchor="start" x="8" y="-35" font-family="Helvetica,sans-Serif" font-size="10.00">parser.CustomCommand.get</text>
<text text-anchor="middle" x="78" y="-24" font-family="Helvetica,sans-Serif" font-size="10.00">NumArgs</text>
</g>
<!-- Node2 -->
<g id="node2" class="node"><title>Node2</title>
<g id="a_node2"><a xlink:href="../../df/ddc/classparser_1_1nodes_1_1_command_node.html#aea1411dafad864a3871699343d0fdcc5" target="_top" xlink:title="parser.nodes.CommandNode.\lCommandNode">
<polygon fill="white" stroke="black" points="212.5,-39 212.5,-69 373.5,-69 373.5,-39 212.5,-39"/>
<text text-anchor="start" x="220.5" y="-57" font-family="Helvetica,sans-Serif" font-size="10.00">parser.nodes.CommandNode.</text>
<text text-anchor="middle" x="293" y="-46" font-family="Helvetica,sans-Serif" font-size="10.00">CommandNode</text>
</a>
</g>
</g>
<!-- Node1&#45;&gt;Node2 -->
<g id="edge1" class="edge"><title>Node1&#45;&gt;Node2</title>
<path fill="none" stroke="midnightblue" d="M166.561,-41.0438C181.671,-42.6045 197.307,-44.2195 212.198,-45.7576"/>
<polygon fill="midnightblue" stroke="midnightblue" points="166.506,-37.5196 156.199,-39.9736 165.787,-44.4826 166.506,-37.5196"/>
</g>
<!-- Node3 -->
<g id="node3" class="node"><title>Node3</title>
<g id="a_node3"><a xlink:href="../../df/ddc/classparser_1_1nodes_1_1_command_node.html#a40c9fa452b071f108d17f6093a72861d" target="_top" xlink:title="parser.nodes.CommandNode.evaluate">
<polygon fill="white" stroke="black" points="192,-0.5 192,-19.5 394,-19.5 394,-0.5 192,-0.5"/>
<text text-anchor="middle" x="293" y="-7.5" font-family="Helvetica,sans-Serif" font-size="10.00">parser.nodes.CommandNode.evaluate</text>
</a>
</g>
</g>
<!-- Node1&#45;&gt;Node3 -->
<g id="edge2" class="edge"><title>Node1&#45;&gt;Node3</title>
<path fill="none" stroke="midnightblue" d="M166.27,-22.9862C177.34,-21.8429 188.696,-20.6699 199.839,-19.519"/>
<polygon fill="midnightblue" stroke="midnightblue" points="165.787,-19.5174 156.199,-24.0264 166.506,-26.4804 165.787,-19.5174"/>
</g>
</g>
</svg>
