<?xml version="1.0" encoding="UTF-8" standalone="no"?>
<!DOCTYPE svg PUBLIC "-//W3C//DTD SVG 1.1//EN"
 "http://www.w3.org/Graphics/SVG/1.1/DTD/svg11.dtd">
<!-- Generated by graphviz version 2.36.0 (20140111.2315)
 -->
<!-- Title: parser.nodes.TernaryNode Pages: 1 -->
<svg width="329pt" height="252pt"
 viewBox="0.00 0.00 329.00 252.00" xmlns="http://www.w3.org/2000/svg" xmlns:xlink="http://www.w3.org/1999/xlink">
<g id="graph0" class="graph" transform="scale(1 1) rotate(0) translate(4 248)">
<title>parser.nodes.TernaryNode</title>
<polygon fill="white" stroke="none" points="-4,4 -4,-248 325,-248 325,4 -4,4"/>
<!-- Node1 -->
<g id="node1" class="node"><title>Node1</title>
<polygon fill="#bfbfbf" stroke="black" points="93,-56.5 93,-75.5 235,-75.5 235,-56.5 93,-56.5"/>
<text text-anchor="middle" x="164" y="-63.5" font-family="Helvetica,sans-Serif" font-size="10.00">parser.nodes.TernaryNode</text>
</g>
<!-- Node5 -->
<g id="node5" class="node"><title>Node5</title>
<g id="a_node5"><a xlink:href="../../d6/dbc/classparser_1_1commands_1_1other_1_1_if_else.html" target="_top" xlink:title="parser.commands.other.IfElse">
<polygon fill="white" stroke="black" points="-0.5,-0.5 -0.5,-19.5 158.5,-19.5 158.5,-0.5 -0.5,-0.5"/>
<text text-anchor="middle" x="79" y="-7.5" font-family="Helvetica,sans-Serif" font-size="10.00">parser.commands.other.IfElse</text>
</a>
</g>
</g>
<!-- Node1&#45;&gt;Node5 -->
<g id="edge4" class="edge"><title>Node1&#45;&gt;Node5</title>
<path fill="none" stroke="midnightblue" d="M141.806,-50.9005C126.22,-40.9986 105.87,-28.0705 92.6228,-19.6545"/>
<polygon fill="midnightblue" stroke="midnightblue" points="140.026,-53.9158 150.343,-56.324 143.779,-48.0073 140.026,-53.9158"/>
</g>
<!-- Node6 -->
<g id="node6" class="node"><title>Node6</title>
<g id="a_node6"><a xlink:href="../../dc/d8b/classparser_1_1commands_1_1other_1_1_to.html" target="_top" xlink:title="parser.commands.other.To">
<polygon fill="white" stroke="black" points="177,-0.5 177,-19.5 321,-19.5 321,-0.5 177,-0.5"/>
<text text-anchor="middle" x="249" y="-7.5" font-family="Helvetica,sans-Serif" font-size="10.00">parser.commands.other.To</text>
</a>
</g>
</g>
<!-- Node1&#45;&gt;Node6 -->
<g id="edge5" class="edge"><title>Node1&#45;&gt;Node6</title>
<path fill="none" stroke="midnightblue" d="M186.194,-50.9005C201.78,-40.9986 222.13,-28.0705 235.377,-19.6545"/>
<polygon fill="midnightblue" stroke="midnightblue" points="184.221,-48.0073 177.657,-56.324 187.974,-53.9158 184.221,-48.0073"/>
</g>
<!-- Node2 -->
<g id="node2" class="node"><title>Node2</title>
<g id="a_node2"><a xlink:href="../../db/d11/classparser_1_1nodes_1_1_binary_node.html" target="_top" xlink:title="parser.nodes.BinaryNode">
<polygon fill="white" stroke="black" points="95.5,-112.5 95.5,-131.5 232.5,-131.5 232.5,-112.5 95.5,-112.5"/>
<text text-anchor="middle" x="164" y="-119.5" font-family="Helvetica,sans-Serif" font-size="10.00">parser.nodes.BinaryNode</text>
</a>
</g>
</g>
<!-- Node2&#45;&gt;Node1 -->
<g id="edge1" class="edge"><title>Node2&#45;&gt;Node1</title>
<path fill="none" stroke="midnightblue" d="M164,-101.805C164,-92.9102 164,-82.7798 164,-75.7511"/>
<polygon fill="midnightblue" stroke="midnightblue" points="160.5,-102.083 164,-112.083 167.5,-102.083 160.5,-102.083"/>
</g>
<!-- Node3 -->
<g id="node3" class="node"><title>Node3</title>
<g id="a_node3"><a xlink:href="../../d7/d93/classparser_1_1nodes_1_1_parameter_node.html" target="_top" xlink:title="parser.nodes.ParameterNode">
<polygon fill="white" stroke="black" points="85,-168.5 85,-187.5 243,-187.5 243,-168.5 85,-168.5"/>
<text text-anchor="middle" x="164" y="-175.5" font-family="Helvetica,sans-Serif" font-size="10.00">parser.nodes.ParameterNode</text>
</a>
</g>
</g>
<!-- Node3&#45;&gt;Node2 -->
<g id="edge2" class="edge"><title>Node3&#45;&gt;Node2</title>
<path fill="none" stroke="midnightblue" d="M164,-157.805C164,-148.91 164,-138.78 164,-131.751"/>
<polygon fill="midnightblue" stroke="midnightblue" points="160.5,-158.083 164,-168.083 167.5,-158.083 160.5,-158.083"/>
</g>
<!-- Node4 -->
<g id="node4" class="node"><title>Node4</title>
<g id="a_node4"><a xlink:href="../../da/d96/classparser_1_1nodes_1_1_syntax_node.html" target="_top" xlink:title="parser.nodes.SyntaxNode">
<polygon fill="white" stroke="black" points="94,-224.5 94,-243.5 234,-243.5 234,-224.5 94,-224.5"/>
<text text-anchor="middle" x="164" y="-231.5" font-family="Helvetica,sans-Serif" font-size="10.00">parser.nodes.SyntaxNode</text>
</a>
</g>
</g>
<!-- Node4&#45;&gt;Node3 -->
<g id="edge3" class="edge"><title>Node4&#45;&gt;Node3</title>
<path fill="none" stroke="midnightblue" d="M164,-213.805C164,-204.91 164,-194.78 164,-187.751"/>
<polygon fill="midnightblue" stroke="midnightblue" points="160.5,-214.083 164,-224.083 167.5,-214.083 160.5,-214.083"/>
</g>
</g>
</svg>
