<?xml version="1.0" encoding="UTF-8" standalone="no"?>
<!DOCTYPE svg PUBLIC "-//W3C//DTD SVG 1.1//EN"
 "http://www.w3.org/Graphics/SVG/1.1/DTD/svg11.dtd">
<!-- Generated by graphviz version 2.36.0 (20140111.2315)
 -->
<!-- Title: view.windows.VariablesWindow Pages: 1 -->
<svg width="168pt" height="84pt"
 viewBox="0.00 0.00 168.00 84.00" xmlns="http://www.w3.org/2000/svg" xmlns:xlink="http://www.w3.org/1999/xlink">
<g id="graph0" class="graph" transform="scale(1 1) rotate(0) translate(4 80)">
<title>view.windows.VariablesWindow</title>
<polygon fill="white" stroke="none" points="-4,4 -4,-80 164,-80 164,4 -4,4"/>
<!-- Node1 -->
<g id="node1" class="node"><title>Node1</title>
<polygon fill="#bfbfbf" stroke="black" points="0,-0.5 0,-19.5 160,-19.5 160,-0.5 0,-0.5"/>
<text text-anchor="middle" x="80" y="-7.5" font-family="Helvetica,sans-Serif" font-size="10.00">view.windows.VariablesWindow</text>
</g>
<!-- Node2 -->
<g id="node2" class="node"><title>Node2</title>
<polygon fill="white" stroke="#bfbfbf" points="23,-56.5 23,-75.5 67,-75.5 67,-56.5 23,-56.5"/>
<text text-anchor="middle" x="45" y="-63.5" font-family="Helvetica,sans-Serif" font-size="10.00">JPanel</text>
</g>
<!-- Node2&#45;&gt;Node1 -->
<g id="edge1" class="edge"><title>Node2&#45;&gt;Node1</title>
<path fill="none" stroke="midnightblue" d="M56.3001,-47.5656C62.3219,-38.2747 69.4686,-27.2484 74.328,-19.7511"/>
<polygon fill="midnightblue" stroke="midnightblue" points="53.2815,-45.7878 50.7795,-56.083 59.1556,-49.5951 53.2815,-45.7878"/>
</g>
<!-- Node3 -->
<g id="node3" class="node"><title>Node3</title>
<polygon fill="white" stroke="#bfbfbf" points="85,-56.5 85,-75.5 145,-75.5 145,-56.5 85,-56.5"/>
<text text-anchor="middle" x="115" y="-63.5" font-family="Helvetica,sans-Serif" font-size="10.00">Observer</text>
</g>
<!-- Node3&#45;&gt;Node1 -->
<g id="edge2" class="edge"><title>Node3&#45;&gt;Node1</title>
<path fill="none" stroke="midnightblue" d="M103.7,-47.5656C97.6781,-38.2747 90.5314,-27.2484 85.672,-19.7511"/>
<polygon fill="midnightblue" stroke="midnightblue" points="100.844,-49.5951 109.22,-56.083 106.719,-45.7878 100.844,-49.5951"/>
</g>
</g>
</svg>
