<?xml version="1.0" encoding="UTF-8" standalone="no"?>
<!DOCTYPE svg PUBLIC "-//W3C//DTD SVG 1.1//EN"
 "http://www.w3.org/Graphics/SVG/1.1/DTD/svg11.dtd">
<!-- Generated by graphviz version 2.36.0 (20140111.2315)
 -->
<!-- Title: parser.nodes.ListNode Pages: 1 -->
<svg width="309pt" height="108pt"
 viewBox="0.00 0.00 309.00 108.00" xmlns="http://www.w3.org/2000/svg" xmlns:xlink="http://www.w3.org/1999/xlink">
<g id="graph0" class="graph" transform="scale(1 1) rotate(0) translate(4 104)">
<title>parser.nodes.ListNode</title>
<polygon fill="white" stroke="none" points="-4,4 -4,-104 305,-104 305,4 -4,4"/>
<!-- Node1 -->
<g id="node1" class="node"><title>Node1</title>
<polygon fill="#bfbfbf" stroke="black" points="88,-0.5 88,-19.5 212,-19.5 212,-0.5 88,-0.5"/>
<text text-anchor="middle" x="150" y="-7.5" font-family="Helvetica,sans-Serif" font-size="10.00">parser.nodes.ListNode</text>
</g>
<!-- Node2 -->
<g id="node2" class="node"><title>Node2</title>
<g id="a_node2"><a xlink:href="../../da/d96/classparser_1_1nodes_1_1_syntax_node.html" target="_top" xlink:title="parser.nodes.SyntaxNode">
<polygon fill="white" stroke="black" points="0,-74.5 0,-93.5 140,-93.5 140,-74.5 0,-74.5"/>
<text text-anchor="middle" x="70" y="-81.5" font-family="Helvetica,sans-Serif" font-size="10.00">parser.nodes.SyntaxNode</text>
</a>
</g>
</g>
<!-- Node2&#45;&gt;Node1 -->
<g id="edge1" class="edge"><title>Node2&#45;&gt;Node1</title>
<path fill="none" stroke="midnightblue" d="M87.2319,-67.4913C103.539,-52.8145 127.417,-31.325 140.521,-19.531"/>
<polygon fill="midnightblue" stroke="midnightblue" points="84.5828,-65.1667 79.4912,-74.4579 89.2656,-70.3698 84.5828,-65.1667"/>
</g>
<!-- Node3 -->
<g id="node3" class="node"><title>Node3</title>
<polygon fill="white" stroke="#bfbfbf" points="158.5,-69 158.5,-99 301.5,-99 301.5,-69 158.5,-69"/>
<text text-anchor="start" x="166.5" y="-87" font-family="Helvetica,sans-Serif" font-size="10.00">List&lt; parser.nodes.Syntax</text>
<text text-anchor="middle" x="230" y="-76" font-family="Helvetica,sans-Serif" font-size="10.00">Node &gt;</text>
</g>
<!-- Node3&#45;&gt;Node1 -->
<g id="edge2" class="edge"><title>Node3&#45;&gt;Node1</title>
<path fill="none" stroke="#9a32cd" stroke-dasharray="5,2" d="M206.479,-61.8307C190.896,-47.8062 171.27,-30.1426 159.732,-19.7589"/>
<polygon fill="#9a32cd" stroke="#9a32cd" points="204.42,-64.687 214.195,-68.7751 209.103,-59.4839 204.42,-64.687"/>
<text text-anchor="middle" x="224" y="-41.5" font-family="Helvetica,sans-Serif" font-size="10.00"> myContents</text>
</g>
</g>
</svg>
