<?xml version="1.0" encoding="UTF-8" standalone="no"?>
<!DOCTYPE svg PUBLIC "-//W3C//DTD SVG 1.1//EN"
 "http://www.w3.org/Graphics/SVG/1.1/DTD/svg11.dtd">
<!-- Generated by graphviz version 2.36.0 (20140111.2315)
 -->
<!-- Title: parser.Parser.parseCommand Pages: 1 -->
<svg width="1254pt" height="390pt"
 viewBox="0.00 0.00 1254.00 390.00" xmlns="http://www.w3.org/2000/svg" xmlns:xlink="http://www.w3.org/1999/xlink">
<g id="graph0" class="graph" transform="scale(1 1) rotate(0) translate(4 386)">
<title>parser.Parser.parseCommand</title>
<polygon fill="white" stroke="none" points="-4,4 -4,-386 1250,-386 1250,4 -4,4"/>
<!-- Node1 -->
<g id="node1" class="node"><title>Node1</title>
<polygon fill="#bfbfbf" stroke="black" points="0.5,-198.5 0.5,-217.5 159.5,-217.5 159.5,-198.5 0.5,-198.5"/>
<text text-anchor="middle" x="80" y="-205.5" font-family="Helvetica,sans-Serif" font-size="10.00">parser.Parser.parseCommand</text>
</g>
<!-- Node2 -->
<g id="node2" class="node"><title>Node2</title>
<g id="a_node2"><a xlink:href="../../d7/d0d/classparser_1_1_semantics_checker.html#a8620f3090287a61f86765ee920d53de0" target="_top" xlink:title="parser.SemanticsChecker.evaluate\lExpression">
<polygon fill="white" stroke="black" points="196.5,-215 196.5,-245 379.5,-245 379.5,-215 196.5,-215"/>
<text text-anchor="start" x="204.5" y="-233" font-family="Helvetica,sans-Serif" font-size="10.00">parser.SemanticsChecker.evaluate</text>
<text text-anchor="middle" x="288" y="-222" font-family="Helvetica,sans-Serif" font-size="10.00">Expression</text>
</a>
</g>
</g>
<!-- Node1&#45;&gt;Node2 -->
<g id="edge1" class="edge"><title>Node1&#45;&gt;Node2</title>
<path fill="none" stroke="midnightblue" d="M159.762,-216.411C168.427,-217.337 177.334,-218.288 186.22,-219.237"/>
<polygon fill="midnightblue" stroke="midnightblue" points="185.914,-222.724 196.229,-220.306 186.657,-215.764 185.914,-222.724"/>
</g>
<!-- Node21 -->
<g id="node21" class="node"><title>Node21</title>
<g id="a_node21"><a xlink:href="../../d2/df8/classparser_1_1_lex_checker.html#a982a56b6fbf6428a5dca97eb56a81625" target="_top" xlink:title="parser.LexChecker.splitTokens">
<polygon fill="white" stroke="black" points="208.5,-176.5 208.5,-195.5 367.5,-195.5 367.5,-176.5 208.5,-176.5"/>
<text text-anchor="middle" x="288" y="-183.5" font-family="Helvetica,sans-Serif" font-size="10.00">parser.LexChecker.splitTokens</text>
</a>
</g>
</g>
<!-- Node1&#45;&gt;Node21 -->
<g id="edge20" class="edge"><title>Node1&#45;&gt;Node21</title>
<path fill="none" stroke="midnightblue" d="M159.762,-199.589C172.309,-198.249 185.365,-196.854 198.126,-195.491"/>
<polygon fill="midnightblue" stroke="midnightblue" points="198.71,-198.949 208.282,-194.407 197.967,-191.989 198.71,-198.949"/>
</g>
<!-- Node3 -->
<g id="node3" class="node"><title>Node3</title>
<g id="a_node3"><a xlink:href="../../df/daf/classparser_1_1_semantics_table.html#aab459a521d748abf6058d243b8714d32" target="_top" xlink:title="parser.SemanticsTable.get\lTokenClass">
<polygon fill="white" stroke="black" points="449.5,-308 449.5,-338 592.5,-338 592.5,-308 449.5,-308"/>
<text text-anchor="start" x="457.5" y="-326" font-family="Helvetica,sans-Serif" font-size="10.00">parser.SemanticsTable.get</text>
<text text-anchor="middle" x="521" y="-315" font-family="Helvetica,sans-Serif" font-size="10.00">TokenClass</text>
</a>
</g>
</g>
<!-- Node2&#45;&gt;Node3 -->
<g id="edge2" class="edge"><title>Node2&#45;&gt;Node3</title>
<path fill="none" stroke="midnightblue" d="M316.102,-245.228C341.385,-259.001 380.442,-279.181 416,-293 427.221,-297.361 439.339,-301.418 451.202,-305.05"/>
<polygon fill="midnightblue" stroke="midnightblue" points="450.498,-308.492 461.081,-307.998 452.5,-301.785 450.498,-308.492"/>
</g>
<!-- Node7 -->
<g id="node7" class="node"><title>Node7</title>
<g id="a_node7"><a xlink:href="../../d5/d08/classparser_1_1nodes_1_1_node_information.html#a1553927792e60fe77a0b2a7d21c53182" target="_top" xlink:title="parser.nodes.NodeInformation.getName">
<polygon fill="white" stroke="black" points="416,-264.5 416,-283.5 626,-283.5 626,-264.5 416,-264.5"/>
<text text-anchor="middle" x="521" y="-271.5" font-family="Helvetica,sans-Serif" font-size="10.00">parser.nodes.NodeInformation.getName</text>
</a>
</g>
</g>
<!-- Node2&#45;&gt;Node7 -->
<g id="edge6" class="edge"><title>Node2&#45;&gt;Node7</title>
<path fill="none" stroke="midnightblue" d="M367.851,-245.019C398,-250.762 431.866,-257.213 459.98,-262.568"/>
<polygon fill="midnightblue" stroke="midnightblue" points="459.581,-266.055 470.06,-264.488 460.891,-259.178 459.581,-266.055"/>
</g>
<!-- Node8 -->
<g id="node8" class="node"><title>Node8</title>
<g id="a_node8"><a xlink:href="../../df/daf/classparser_1_1_semantics_table.html#a8b10ea894ea685fb78306df326a17db2" target="_top" xlink:title="parser.SemanticsTable.register\lCustomCommand">
<polygon fill="white" stroke="black" points="439,-215 439,-245 603,-245 603,-215 439,-215"/>
<text text-anchor="start" x="447" y="-233" font-family="Helvetica,sans-Serif" font-size="10.00">parser.SemanticsTable.register</text>
<text text-anchor="middle" x="521" y="-222" font-family="Helvetica,sans-Serif" font-size="10.00">CustomCommand</text>
</a>
</g>
</g>
<!-- Node2&#45;&gt;Node8 -->
<g id="edge7" class="edge"><title>Node2&#45;&gt;Node8</title>
<path fill="none" stroke="midnightblue" d="M379.634,-230C395.602,-230 412.235,-230 428.234,-230"/>
<polygon fill="midnightblue" stroke="midnightblue" points="428.642,-233.5 438.642,-230 428.642,-226.5 428.642,-233.5"/>
</g>
<!-- Node10 -->
<g id="node10" class="node"><title>Node10</title>
<g id="a_node10"><a xlink:href="../../d7/d0d/classparser_1_1_semantics_checker.html#a41a9f32483c1d0e32acd7fa553c9670c" target="_top" xlink:title="parser.SemanticsChecker.create\lCustomCommand">
<polygon fill="white" stroke="black" points="434.5,-163 434.5,-193 607.5,-193 607.5,-163 434.5,-163"/>
<text text-anchor="start" x="442.5" y="-181" font-family="Helvetica,sans-Serif" font-size="10.00">parser.SemanticsChecker.create</text>
<text text-anchor="middle" x="521" y="-170" font-family="Helvetica,sans-Serif" font-size="10.00">CustomCommand</text>
</a>
</g>
</g>
<!-- Node2&#45;&gt;Node10 -->
<g id="edge9" class="edge"><title>Node2&#45;&gt;Node10</title>
<path fill="none" stroke="midnightblue" d="M355.815,-214.959C383.23,-208.788 415.124,-201.609 443.47,-195.228"/>
<polygon fill="midnightblue" stroke="midnightblue" points="444.348,-198.618 453.335,-193.007 442.811,-191.788 444.348,-198.618"/>
</g>
<!-- Node14 -->
<g id="node14" class="node"><title>Node14</title>
<g id="a_node14"><a xlink:href="../../d7/d0d/classparser_1_1_semantics_checker.html#a9874458f603e4eac6181412441aff5af" target="_top" xlink:title="parser.SemanticsChecker.createNode">
<polygon fill="white" stroke="black" points="422,-78.5 422,-97.5 620,-97.5 620,-78.5 422,-78.5"/>
<text text-anchor="middle" x="521" y="-85.5" font-family="Helvetica,sans-Serif" font-size="10.00">parser.SemanticsChecker.createNode</text>
</a>
</g>
</g>
<!-- Node2&#45;&gt;Node14 -->
<g id="edge13" class="edge"><title>Node2&#45;&gt;Node14</title>
<path fill="none" stroke="midnightblue" d="M362.112,-214.886C368.431,-212.125 374.502,-208.86 380,-205 402.707,-189.058 395.905,-173.13 416,-154 438.497,-132.583 468.945,-114.223 491.079,-102.345"/>
<polygon fill="midnightblue" stroke="midnightblue" points="492.779,-105.405 500.009,-97.6609 489.528,-99.2063 492.779,-105.405"/>
</g>
<!-- Node4 -->
<g id="node4" class="node"><title>Node4</title>
<g id="a_node4"><a xlink:href="../../d5/d08/classparser_1_1nodes_1_1_node_information.html#a10357cfb2c29282a4571d4713551a448" target="_top" xlink:title="parser.nodes.NodeInformation.clone">
<polygon fill="white" stroke="black" points="667.5,-357.5 667.5,-376.5 858.5,-376.5 858.5,-357.5 667.5,-357.5"/>
<text text-anchor="middle" x="763" y="-364.5" font-family="Helvetica,sans-Serif" font-size="10.00">parser.nodes.NodeInformation.clone</text>
</a>
</g>
</g>
<!-- Node3&#45;&gt;Node4 -->
<g id="edge3" class="edge"><title>Node3&#45;&gt;Node4</title>
<path fill="none" stroke="midnightblue" d="M592.71,-335.963C626.793,-342.212 667.298,-349.638 700.14,-355.659"/>
<polygon fill="midnightblue" stroke="midnightblue" points="699.604,-359.119 710.071,-357.48 700.866,-352.234 699.604,-359.119"/>
</g>
<!-- Node6 -->
<g id="node6" class="node"><title>Node6</title>
<g id="a_node6"><a xlink:href="../../d5/d08/classparser_1_1nodes_1_1_node_information.html#a0c4a6fe4a61e93a5dbe095ee42c213ed" target="_top" xlink:title="parser.nodes.NodeInformation.set\lToken">
<polygon fill="white" stroke="black" points="673,-308 673,-338 853,-338 853,-308 673,-308"/>
<text text-anchor="start" x="681" y="-326" font-family="Helvetica,sans-Serif" font-size="10.00">parser.nodes.NodeInformation.set</text>
<text text-anchor="middle" x="763" y="-315" font-family="Helvetica,sans-Serif" font-size="10.00">Token</text>
</a>
</g>
</g>
<!-- Node3&#45;&gt;Node6 -->
<g id="edge5" class="edge"><title>Node3&#45;&gt;Node6</title>
<path fill="none" stroke="midnightblue" d="M592.71,-323C614.511,-323 638.938,-323 662.308,-323"/>
<polygon fill="midnightblue" stroke="midnightblue" points="662.601,-326.5 672.601,-323 662.601,-319.5 662.601,-326.5"/>
</g>
<!-- Node5 -->
<g id="node5" class="node"><title>Node5</title>
<g id="a_node5"><a xlink:href="../../d5/d08/classparser_1_1nodes_1_1_node_information.html#a0672ed587472f62f81cad30d9c35e3f0" target="_top" xlink:title="parser.nodes.NodeInformation.\lNodeInformation">
<polygon fill="white" stroke="black" points="900.5,-352 900.5,-382 1065.5,-382 1065.5,-352 900.5,-352"/>
<text text-anchor="start" x="908.5" y="-370" font-family="Helvetica,sans-Serif" font-size="10.00">parser.nodes.NodeInformation.</text>
<text text-anchor="middle" x="983" y="-359" font-family="Helvetica,sans-Serif" font-size="10.00">NodeInformation</text>
</a>
</g>
</g>
<!-- Node4&#45;&gt;Node5 -->
<g id="edge4" class="edge"><title>Node4&#45;&gt;Node5</title>
<path fill="none" stroke="midnightblue" d="M858.667,-367C869.095,-367 879.7,-367 890.094,-367"/>
<polygon fill="midnightblue" stroke="midnightblue" points="890.402,-370.5 900.402,-367 890.402,-363.5 890.402,-370.5"/>
</g>
<!-- Node9 -->
<g id="node9" class="node"><title>Node9</title>
<g id="a_node9"><a xlink:href="../../dd/da7/interfaceparser_1_1_i_parser_provider.html#a933bbd5080c55f69c3e3f740a465e0a5" target="_top" xlink:title="parser.IParserProvider.add\lCommand">
<polygon fill="white" stroke="black" points="692.5,-259 692.5,-289 833.5,-289 833.5,-259 692.5,-259"/>
<text text-anchor="start" x="700.5" y="-277" font-family="Helvetica,sans-Serif" font-size="10.00">parser.IParserProvider.add</text>
<text text-anchor="middle" x="763" y="-266" font-family="Helvetica,sans-Serif" font-size="10.00">Command</text>
</a>
</g>
</g>
<!-- Node8&#45;&gt;Node9 -->
<g id="edge8" class="edge"><title>Node8&#45;&gt;Node9</title>
<path fill="none" stroke="midnightblue" d="M603.253,-244.896C628.824,-249.584 657.025,-254.755 682.474,-259.42"/>
<polygon fill="midnightblue" stroke="midnightblue" points="681.984,-262.889 692.451,-261.249 683.246,-256.003 681.984,-262.889"/>
</g>
<!-- Node11 -->
<g id="node11" class="node"><title>Node11</title>
<g id="a_node11"><a xlink:href="../../d5/d08/classparser_1_1nodes_1_1_node_information.html#a1a0cba33547c0d09dd567f0a9db27a51" target="_top" xlink:title="parser.nodes.NodeInformation.set\lShouldCreate">
<polygon fill="white" stroke="black" points="673,-210 673,-240 853,-240 853,-210 673,-210"/>
<text text-anchor="start" x="681" y="-228" font-family="Helvetica,sans-Serif" font-size="10.00">parser.nodes.NodeInformation.set</text>
<text text-anchor="middle" x="763" y="-217" font-family="Helvetica,sans-Serif" font-size="10.00">ShouldCreate</text>
</a>
</g>
</g>
<!-- Node10&#45;&gt;Node11 -->
<g id="edge10" class="edge"><title>Node10&#45;&gt;Node11</title>
<path fill="none" stroke="midnightblue" d="M598.597,-193C623.061,-197.791 650.306,-203.127 675.427,-208.046"/>
<polygon fill="midnightblue" stroke="midnightblue" points="674.821,-211.494 685.307,-209.981 676.166,-204.624 674.821,-211.494"/>
</g>
<!-- Node12 -->
<g id="node12" class="node"><title>Node12</title>
<g id="a_node12"><a xlink:href="../../d5/d08/classparser_1_1nodes_1_1_node_information.html#ae642533c8e960e3d6dff2653e422f301" target="_top" xlink:title="parser.nodes.NodeInformation.get\lToken">
<polygon fill="white" stroke="black" points="672.5,-161 672.5,-191 853.5,-191 853.5,-161 672.5,-161"/>
<text text-anchor="start" x="680.5" y="-179" font-family="Helvetica,sans-Serif" font-size="10.00">parser.nodes.NodeInformation.get</text>
<text text-anchor="middle" x="763" y="-168" font-family="Helvetica,sans-Serif" font-size="10.00">Token</text>
</a>
</g>
</g>
<!-- Node10&#45;&gt;Node12 -->
<g id="edge11" class="edge"><title>Node10&#45;&gt;Node12</title>
<path fill="none" stroke="midnightblue" d="M607.629,-177.286C625.348,-177.139 644.159,-176.982 662.33,-176.831"/>
<polygon fill="midnightblue" stroke="midnightblue" points="662.377,-180.33 672.348,-176.747 662.319,-173.331 662.377,-180.33"/>
</g>
<!-- Node13 -->
<g id="node13" class="node"><title>Node13</title>
<g id="a_node13"><a xlink:href="../../d5/d08/classparser_1_1nodes_1_1_node_information.html#ad42f8e4caa516857bf2ad3eb9e392a9e" target="_top" xlink:title="parser.nodes.NodeInformation.getType">
<polygon fill="white" stroke="black" points="662,-122.5 662,-141.5 864,-141.5 864,-122.5 662,-122.5"/>
<text text-anchor="middle" x="763" y="-129.5" font-family="Helvetica,sans-Serif" font-size="10.00">parser.nodes.NodeInformation.getType</text>
</a>
</g>
</g>
<!-- Node10&#45;&gt;Node13 -->
<g id="edge12" class="edge"><title>Node10&#45;&gt;Node13</title>
<path fill="none" stroke="midnightblue" d="M600.585,-162.938C633.624,-156.605 671.438,-149.358 702.157,-143.47"/>
<polygon fill="midnightblue" stroke="midnightblue" points="703.123,-146.849 712.285,-141.529 701.805,-139.974 703.123,-146.849"/>
</g>
<!-- Node15 -->
<g id="node15" class="node"><title>Node15</title>
<g id="a_node15"><a xlink:href="../../df/daf/classparser_1_1_semantics_table.html#ad21bbcf3716340782e1da8da4efe1e82" target="_top" xlink:title="parser.SemanticsTable.get\lCommand">
<polygon fill="white" stroke="black" points="691.5,-73 691.5,-103 834.5,-103 834.5,-73 691.5,-73"/>
<text text-anchor="start" x="699.5" y="-91" font-family="Helvetica,sans-Serif" font-size="10.00">parser.SemanticsTable.get</text>
<text text-anchor="middle" x="763" y="-80" font-family="Helvetica,sans-Serif" font-size="10.00">Command</text>
</a>
</g>
</g>
<!-- Node14&#45;&gt;Node15 -->
<g id="edge14" class="edge"><title>Node14&#45;&gt;Node15</title>
<path fill="none" stroke="midnightblue" d="M620.31,-88C640.593,-88 661.732,-88 681.303,-88"/>
<polygon fill="midnightblue" stroke="midnightblue" points="681.381,-91.5001 691.381,-88 681.381,-84.5001 681.381,-91.5001"/>
</g>
<!-- Node17 -->
<g id="node17" class="node"><title>Node17</title>
<g id="a_node17"><a xlink:href="../../d6/dcd/classparser_1_1reflection_1_1_reflection_helper.html#aff20ce969eb8ac26feda4d41f9f26411" target="_top" xlink:title="parser.reflection.Reflection\lHelper.createInstanceOf">
<polygon fill="white" stroke="black" points="691.5,-24 691.5,-54 834.5,-54 834.5,-24 691.5,-24"/>
<text text-anchor="start" x="699.5" y="-42" font-family="Helvetica,sans-Serif" font-size="10.00">parser.reflection.Reflection</text>
<text text-anchor="middle" x="763" y="-31" font-family="Helvetica,sans-Serif" font-size="10.00">Helper.createInstanceOf</text>
</a>
</g>
</g>
<!-- Node14&#45;&gt;Node17 -->
<g id="edge16" class="edge"><title>Node14&#45;&gt;Node17</title>
<path fill="none" stroke="midnightblue" d="M568.559,-78.4942C600.593,-71.9539 643.972,-63.0973 681.534,-55.4285"/>
<polygon fill="midnightblue" stroke="midnightblue" points="682.354,-58.8333 691.452,-53.4036 680.954,-51.9748 682.354,-58.8333"/>
</g>
<!-- Node16 -->
<g id="node16" class="node"><title>Node16</title>
<g id="a_node16"><a xlink:href="../../dd/da7/interfaceparser_1_1_i_parser_provider.html#a190d86fe0b03a1c15700dae1237754fb" target="_top" xlink:title="parser.IParserProvider.get\lCommand">
<polygon fill="white" stroke="black" points="913.5,-73 913.5,-103 1052.5,-103 1052.5,-73 913.5,-73"/>
<text text-anchor="start" x="921.5" y="-91" font-family="Helvetica,sans-Serif" font-size="10.00">parser.IParserProvider.get</text>
<text text-anchor="middle" x="983" y="-80" font-family="Helvetica,sans-Serif" font-size="10.00">Command</text>
</a>
</g>
</g>
<!-- Node15&#45;&gt;Node16 -->
<g id="edge15" class="edge"><title>Node15&#45;&gt;Node16</title>
<path fill="none" stroke="midnightblue" d="M834.778,-88C856.664,-88 880.905,-88 903.293,-88"/>
<polygon fill="midnightblue" stroke="midnightblue" points="903.434,-91.5001 913.434,-88 903.434,-84.5001 903.434,-91.5001"/>
</g>
<!-- Node18 -->
<g id="node18" class="node"><title>Node18</title>
<g id="a_node18"><a xlink:href="../../d6/dcd/classparser_1_1reflection_1_1_reflection_helper.html#a560ebe5618d9e6e27c57d13b55fe1b43" target="_top" xlink:title="parser.reflection.Reflection\lHelper.findConstructor">
<polygon fill="white" stroke="black" points="911.5,-24 911.5,-54 1054.5,-54 1054.5,-24 911.5,-24"/>
<text text-anchor="start" x="919.5" y="-42" font-family="Helvetica,sans-Serif" font-size="10.00">parser.reflection.Reflection</text>
<text text-anchor="middle" x="983" y="-31" font-family="Helvetica,sans-Serif" font-size="10.00">Helper.findConstructor</text>
</a>
</g>
</g>
<!-- Node17&#45;&gt;Node18 -->
<g id="edge17" class="edge"><title>Node17&#45;&gt;Node18</title>
<path fill="none" stroke="midnightblue" d="M834.778,-39C855.922,-39 879.262,-39 901.008,-39"/>
<polygon fill="midnightblue" stroke="midnightblue" points="901.204,-42.5001 911.204,-39 901.204,-35.5001 901.204,-42.5001"/>
</g>
<!-- Node19 -->
<g id="node19" class="node"><title>Node19</title>
<g id="a_node19"><a xlink:href="../../d6/dcd/classparser_1_1reflection_1_1_reflection_helper.html#ab29ddff567376a34fe0e284cf6833b0d" target="_top" xlink:title="parser.reflection.Reflection\lHelper.toClassArray">
<polygon fill="white" stroke="black" points="1102.5,-49 1102.5,-79 1245.5,-79 1245.5,-49 1102.5,-49"/>
<text text-anchor="start" x="1110.5" y="-67" font-family="Helvetica,sans-Serif" font-size="10.00">parser.reflection.Reflection</text>
<text text-anchor="middle" x="1174" y="-56" font-family="Helvetica,sans-Serif" font-size="10.00">Helper.toClassArray</text>
</a>
</g>
</g>
<!-- Node18&#45;&gt;Node19 -->
<g id="edge18" class="edge"><title>Node18&#45;&gt;Node19</title>
<path fill="none" stroke="midnightblue" d="M1054.65,-48.3446C1066.97,-49.9752 1079.88,-51.6824 1092.45,-53.3451"/>
<polygon fill="midnightblue" stroke="midnightblue" points="1092.07,-56.8251 1102.44,-54.6667 1092.99,-49.8855 1092.07,-56.8251"/>
</g>
<!-- Node20 -->
<g id="node20" class="node"><title>Node20</title>
<g id="a_node20"><a xlink:href="../../d6/dcd/classparser_1_1reflection_1_1_reflection_helper.html#ac2c724f682c2eb9bd6be04a816e86320" target="_top" xlink:title="parser.reflection.Reflection\lHelper.paramsEqual">
<polygon fill="white" stroke="black" points="1102.5,-0 1102.5,-30 1245.5,-30 1245.5,-0 1102.5,-0"/>
<text text-anchor="start" x="1110.5" y="-18" font-family="Helvetica,sans-Serif" font-size="10.00">parser.reflection.Reflection</text>
<text text-anchor="middle" x="1174" y="-7" font-family="Helvetica,sans-Serif" font-size="10.00">Helper.paramsEqual</text>
</a>
</g>
</g>
<!-- Node18&#45;&gt;Node20 -->
<g id="edge19" class="edge"><title>Node18&#45;&gt;Node20</title>
<path fill="none" stroke="midnightblue" d="M1054.65,-30.0292C1066.97,-28.4638 1079.88,-26.8249 1092.45,-25.2287"/>
<polygon fill="midnightblue" stroke="midnightblue" points="1092.96,-28.6919 1102.44,-23.96 1092.08,-21.7477 1092.96,-28.6919"/>
</g>
</g>
</svg>
