<?xml version="1.0" encoding="UTF-8" standalone="no"?>
<!DOCTYPE svg PUBLIC "-//W3C//DTD SVG 1.1//EN"
 "http://www.w3.org/Graphics/SVG/1.1/DTD/svg11.dtd">
<!-- Generated by graphviz version 2.36.0 (20140111.2315)
 -->
<!-- Title: parser.Parser.parseCommand Pages: 1 -->
<svg width="1294pt" height="799pt"
 viewBox="0.00 0.00 1294.00 799.00" xmlns="http://www.w3.org/2000/svg" xmlns:xlink="http://www.w3.org/1999/xlink">
<g id="graph0" class="graph" transform="scale(1 1) rotate(0) translate(4 795)">
<title>parser.Parser.parseCommand</title>
<polygon fill="white" stroke="none" points="-4,4 -4,-795 1290,-795 1290,4 -4,4"/>
<!-- Node1 -->
<g id="node1" class="node"><title>Node1</title>
<polygon fill="#bfbfbf" stroke="black" points="0.5,-391.5 0.5,-410.5 159.5,-410.5 159.5,-391.5 0.5,-391.5"/>
<text text-anchor="middle" x="80" y="-398.5" font-family="Helvetica,sans-Serif" font-size="10.00">parser.Parser.parseCommand</text>
</g>
<!-- Node2 -->
<g id="node2" class="node"><title>Node2</title>
<g id="a_node2"><a xlink:href="../../d7/dde/classparser_1_1_main.html#a75a40fb31f3397122c167e54e6e233c1" target="_top" xlink:title="parser.Main.checkFile">
<polygon fill="white" stroke="black" points="229,-771.5 229,-790.5 347,-790.5 347,-771.5 229,-771.5"/>
<text text-anchor="middle" x="288" y="-778.5" font-family="Helvetica,sans-Serif" font-size="10.00">parser.Main.checkFile</text>
</a>
</g>
</g>
<!-- Node1&#45;&gt;Node2 -->
<g id="edge1" class="edge"><title>Node1&#45;&gt;Node2</title>
<path fill="none" stroke="midnightblue" d="M80.8458,-420.774C81.5137,-481.76 92.317,-668.441 196,-762 205.106,-770.217 216.826,-775.23 228.805,-778.217"/>
<polygon fill="midnightblue" stroke="midnightblue" points="84.3455,-420.599 80.8208,-410.608 77.3455,-420.616 84.3455,-420.599"/>
</g>
<!-- Node4 -->
<g id="node4" class="node"><title>Node4</title>
<g id="a_node4"><a xlink:href="../../d6/d95/classparser_1_1_parser.html#afc96f83c32dde8c90fdab91dd543dddf" target="_top" xlink:title="parser.Parser.parseCommand">
<polygon fill="white" stroke="black" points="208.5,-733.5 208.5,-752.5 367.5,-752.5 367.5,-733.5 208.5,-733.5"/>
<text text-anchor="middle" x="288" y="-740.5" font-family="Helvetica,sans-Serif" font-size="10.00">parser.Parser.parseCommand</text>
</a>
</g>
</g>
<!-- Node1&#45;&gt;Node4 -->
<g id="edge3" class="edge"><title>Node1&#45;&gt;Node4</title>
<path fill="none" stroke="midnightblue" d="M81.7639,-420.826C85.0688,-477.396 102.645,-640.781 196,-723 200.856,-727.276 206.416,-730.705 212.341,-733.446"/>
<polygon fill="midnightblue" stroke="midnightblue" points="85.2537,-420.531 81.2639,-410.716 78.2622,-420.877 85.2537,-420.531"/>
</g>
<!-- Node5 -->
<g id="node5" class="node"><title>Node5</title>
<g id="a_node5"><a xlink:href="../../d9/df7/classcontroller_1_1_controller.html#a89b63f37e67efbeddda1f247016c837b" target="_top" xlink:title="controller.Controller.process\lCommand">
<polygon fill="white" stroke="black" points="213,-684 213,-714 363,-714 363,-684 213,-684"/>
<text text-anchor="start" x="221" y="-702" font-family="Helvetica,sans-Serif" font-size="10.00">controller.Controller.process</text>
<text text-anchor="middle" x="288" y="-691" font-family="Helvetica,sans-Serif" font-size="10.00">Command</text>
</a>
</g>
</g>
<!-- Node1&#45;&gt;Node5 -->
<g id="edge4" class="edge"><title>Node1&#45;&gt;Node5</title>
<path fill="none" stroke="midnightblue" d="M83.4343,-420.888C90.6704,-471.198 116.733,-604.462 196,-674 201.05,-678.43 206.816,-682.082 212.94,-685.092"/>
<polygon fill="midnightblue" stroke="midnightblue" points="86.8677,-420.156 82.0698,-410.71 79.9297,-421.087 86.8677,-420.156"/>
</g>
<!-- Node8 -->
<g id="node8" class="node"><title>Node8</title>
<g id="a_node8"><a xlink:href="../../d9/df7/classcontroller_1_1_controller.html#aec5e242ff69899c974dbd6302510f70b" target="_top" xlink:title="controller.Controller.processFile">
<polygon fill="white" stroke="black" points="205.5,-645.5 205.5,-664.5 370.5,-664.5 370.5,-645.5 205.5,-645.5"/>
<text text-anchor="middle" x="288" y="-652.5" font-family="Helvetica,sans-Serif" font-size="10.00">controller.Controller.processFile</text>
</a>
</g>
</g>
<!-- Node1&#45;&gt;Node8 -->
<g id="edge7" class="edge"><title>Node1&#45;&gt;Node8</title>
<path fill="none" stroke="midnightblue" d="M84.6067,-420.852C94.0165,-466.61 123.777,-579.859 196,-636 200.842,-639.764 206.252,-642.829 211.954,-645.32"/>
<polygon fill="midnightblue" stroke="midnightblue" points="88.0309,-420.125 82.6817,-410.98 81.1603,-421.465 88.0309,-420.125"/>
</g>
<!-- Node13 -->
<g id="node13" class="node"><title>Node13</title>
<g id="a_node13"><a xlink:href="../../d1/d01/classparser_1_1tests_1_1_boolean_tester.html#ab009444f79be316835e50742f06550a9" target="_top" xlink:title="parser.tests.BooleanTester.testAnd">
<polygon fill="white" stroke="black" points="196,-607.5 196,-626.5 380,-626.5 380,-607.5 196,-607.5"/>
<text text-anchor="middle" x="288" y="-614.5" font-family="Helvetica,sans-Serif" font-size="10.00">parser.tests.BooleanTester.testAnd</text>
</a>
</g>
</g>
<!-- Node1&#45;&gt;Node13 -->
<g id="edge13" class="edge"><title>Node1&#45;&gt;Node13</title>
<path fill="none" stroke="midnightblue" d="M86.5801,-420.444C99.0812,-460.32 133.272,-551.43 196,-597 201.889,-601.278 208.52,-604.67 215.449,-607.356"/>
<polygon fill="midnightblue" stroke="midnightblue" points="89.8609,-419.2 83.6236,-410.636 83.1587,-421.22 89.8609,-419.2"/>
</g>
<!-- Node14 -->
<g id="node14" class="node"><title>Node14</title>
<g id="a_node14"><a xlink:href="../../d3/d64/classparser_1_1tests_1_1_math_tester.html#a1677c0f6237b5c48799087b702e713ca" target="_top" xlink:title="parser.tests.MathTester.test\lDifference">
<polygon fill="white" stroke="black" points="213,-558 213,-588 363,-588 363,-558 213,-558"/>
<text text-anchor="start" x="221" y="-576" font-family="Helvetica,sans-Serif" font-size="10.00">parser.tests.MathTester.test</text>
<text text-anchor="middle" x="288" y="-565" font-family="Helvetica,sans-Serif" font-size="10.00">Difference</text>
</a>
</g>
</g>
<!-- Node1&#45;&gt;Node14 -->
<g id="edge14" class="edge"><title>Node1&#45;&gt;Node14</title>
<path fill="none" stroke="midnightblue" d="M90.383,-419.615C107.171,-450.994 145.382,-514.29 196,-548 201.864,-551.905 208.325,-555.204 215.018,-557.989"/>
<polygon fill="midnightblue" stroke="midnightblue" points="93.4232,-417.875 85.6964,-410.626 87.2161,-421.111 93.4232,-417.875"/>
</g>
<!-- Node15 -->
<g id="node15" class="node"><title>Node15</title>
<g id="a_node15"><a xlink:href="../../d1/d01/classparser_1_1tests_1_1_boolean_tester.html#a99be1a3a9584ed717090f5bb310bdae0" target="_top" xlink:title="parser.tests.BooleanTester.test\lEqual">
<polygon fill="white" stroke="black" points="205.5,-509 205.5,-539 370.5,-539 370.5,-509 205.5,-509"/>
<text text-anchor="start" x="213.5" y="-527" font-family="Helvetica,sans-Serif" font-size="10.00">parser.tests.BooleanTester.test</text>
<text text-anchor="middle" x="288" y="-516" font-family="Helvetica,sans-Serif" font-size="10.00">Equal</text>
</a>
</g>
</g>
<!-- Node1&#45;&gt;Node15 -->
<g id="edge15" class="edge"><title>Node1&#45;&gt;Node15</title>
<path fill="none" stroke="midnightblue" d="M96.4946,-418.226C117.122,-440.132 155.709,-477.668 196,-499 203.24,-502.833 211.123,-506.123 219.122,-508.935"/>
<polygon fill="midnightblue" stroke="midnightblue" points="98.8605,-415.629 89.5023,-410.662 93.7203,-420.381 98.8605,-415.629"/>
</g>
<!-- Node16 -->
<g id="node16" class="node"><title>Node16</title>
<g id="a_node16"><a xlink:href="../../d1/d01/classparser_1_1tests_1_1_boolean_tester.html#ad5101fc213b8aeaa37baf5e3b5868d9d" target="_top" xlink:title="parser.tests.BooleanTester.test\lGreaterThan">
<polygon fill="white" stroke="black" points="205.5,-460 205.5,-490 370.5,-490 370.5,-460 205.5,-460"/>
<text text-anchor="start" x="213.5" y="-478" font-family="Helvetica,sans-Serif" font-size="10.00">parser.tests.BooleanTester.test</text>
<text text-anchor="middle" x="288" y="-467" font-family="Helvetica,sans-Serif" font-size="10.00">GreaterThan</text>
</a>
</g>
</g>
<!-- Node1&#45;&gt;Node16 -->
<g id="edge16" class="edge"><title>Node1&#45;&gt;Node16</title>
<path fill="none" stroke="midnightblue" d="M110.234,-414.751C133.225,-425.247 166.235,-439.623 196,-450 206.056,-453.506 216.872,-456.843 227.414,-459.871"/>
<polygon fill="midnightblue" stroke="midnightblue" points="111.581,-411.518 101.033,-410.513 108.652,-417.876 111.581,-411.518"/>
</g>
<!-- Node17 -->
<g id="node17" class="node"><title>Node17</title>
<g id="a_node17"><a xlink:href="../../d1/d01/classparser_1_1tests_1_1_boolean_tester.html#a828f5f4183434799d083a68a00791dba" target="_top" xlink:title="parser.tests.BooleanTester.test\lLessThan">
<polygon fill="white" stroke="black" points="205.5,-411 205.5,-441 370.5,-441 370.5,-411 205.5,-411"/>
<text text-anchor="start" x="213.5" y="-429" font-family="Helvetica,sans-Serif" font-size="10.00">parser.tests.BooleanTester.test</text>
<text text-anchor="middle" x="288" y="-418" font-family="Helvetica,sans-Serif" font-size="10.00">LessThan</text>
</a>
</g>
</g>
<!-- Node1&#45;&gt;Node17 -->
<g id="edge17" class="edge"><title>Node1&#45;&gt;Node17</title>
<path fill="none" stroke="midnightblue" d="M169.408,-411.729C181.335,-413.177 193.527,-414.656 205.329,-416.088"/>
<polygon fill="midnightblue" stroke="midnightblue" points="169.816,-408.253 159.467,-410.523 168.973,-415.202 169.816,-408.253"/>
</g>
<!-- Node18 -->
<g id="node18" class="node"><title>Node18</title>
<g id="a_node18"><a xlink:href="../../d3/d64/classparser_1_1tests_1_1_math_tester.html#a06cade99788206056814bc20735cd193" target="_top" xlink:title="parser.tests.MathTester.test\lMinus">
<polygon fill="white" stroke="black" points="213,-362 213,-392 363,-392 363,-362 213,-362"/>
<text text-anchor="start" x="221" y="-380" font-family="Helvetica,sans-Serif" font-size="10.00">parser.tests.MathTester.test</text>
<text text-anchor="middle" x="288" y="-369" font-family="Helvetica,sans-Serif" font-size="10.00">Minus</text>
</a>
</g>
</g>
<!-- Node1&#45;&gt;Node18 -->
<g id="edge18" class="edge"><title>Node1&#45;&gt;Node18</title>
<path fill="none" stroke="midnightblue" d="M170.04,-390.626C184.265,-388.969 198.852,-387.27 212.689,-385.658"/>
<polygon fill="midnightblue" stroke="midnightblue" points="169.289,-387.19 159.762,-391.824 170.099,-394.143 169.289,-387.19"/>
</g>
<!-- Node19 -->
<g id="node19" class="node"><title>Node19</title>
<g id="a_node19"><a xlink:href="../../d1/d01/classparser_1_1tests_1_1_boolean_tester.html#a402bae747c40cf9030ea6e85a44b10d2" target="_top" xlink:title="parser.tests.BooleanTester.testNot">
<polygon fill="white" stroke="black" points="197,-323.5 197,-342.5 379,-342.5 379,-323.5 197,-323.5"/>
<text text-anchor="middle" x="288" y="-330.5" font-family="Helvetica,sans-Serif" font-size="10.00">parser.tests.BooleanTester.testNot</text>
</a>
</g>
</g>
<!-- Node1&#45;&gt;Node19 -->
<g id="edge19" class="edge"><title>Node1&#45;&gt;Node19</title>
<path fill="none" stroke="midnightblue" d="M110.122,-387.135C133.051,-376.64 166.034,-362.463 196,-353 208.803,-348.957 222.869,-345.433 236.035,-342.517"/>
<polygon fill="midnightblue" stroke="midnightblue" points="108.552,-384.005 100.949,-391.383 111.494,-390.357 108.552,-384.005"/>
</g>
<!-- Node20 -->
<g id="node20" class="node"><title>Node20</title>
<g id="a_node20"><a xlink:href="../../d1/d01/classparser_1_1tests_1_1_boolean_tester.html#ac0deac7b7ba9e48e30a9ed6cff134d09" target="_top" xlink:title="parser.tests.BooleanTester.test\lNotEqual">
<polygon fill="white" stroke="black" points="205.5,-274 205.5,-304 370.5,-304 370.5,-274 205.5,-274"/>
<text text-anchor="start" x="213.5" y="-292" font-family="Helvetica,sans-Serif" font-size="10.00">parser.tests.BooleanTester.test</text>
<text text-anchor="middle" x="288" y="-281" font-family="Helvetica,sans-Serif" font-size="10.00">NotEqual</text>
</a>
</g>
</g>
<!-- Node1&#45;&gt;Node20 -->
<g id="edge20" class="edge"><title>Node1&#45;&gt;Node20</title>
<path fill="none" stroke="midnightblue" d="M98.479,-384.339C119.863,-364.816 157.937,-332.758 196,-314 203.642,-310.234 211.934,-306.966 220.297,-304.15"/>
<polygon fill="midnightblue" stroke="midnightblue" points="95.8313,-382.021 90.8846,-391.39 100.594,-387.151 95.8313,-382.021"/>
</g>
<!-- Node21 -->
<g id="node21" class="node"><title>Node21</title>
<g id="a_node21"><a xlink:href="../../d1/d01/classparser_1_1tests_1_1_boolean_tester.html#a733a8bed2ef17160461077bd2e53490c" target="_top" xlink:title="parser.tests.BooleanTester.testOr">
<polygon fill="white" stroke="black" points="200,-235.5 200,-254.5 376,-254.5 376,-235.5 200,-235.5"/>
<text text-anchor="middle" x="288" y="-242.5" font-family="Helvetica,sans-Serif" font-size="10.00">parser.tests.BooleanTester.testOr</text>
</a>
</g>
</g>
<!-- Node1&#45;&gt;Node21 -->
<g id="edge21" class="edge"><title>Node1&#45;&gt;Node21</title>
<path fill="none" stroke="midnightblue" d="M91.3043,-382.273C108.738,-352.457 146.992,-294.551 196,-265 203.203,-260.657 211.235,-257.253 219.461,-254.585"/>
<polygon fill="midnightblue" stroke="midnightblue" points="88.1127,-380.805 86.2046,-391.227 94.1952,-384.27 88.1127,-380.805"/>
</g>
<!-- Node22 -->
<g id="node22" class="node"><title>Node22</title>
<g id="a_node22"><a xlink:href="../../d3/d64/classparser_1_1tests_1_1_math_tester.html#af3c9e732ab91e0cad71ea7cd66a7a0d4" target="_top" xlink:title="parser.tests.MathTester.test\lProduct">
<polygon fill="white" stroke="black" points="213,-186 213,-216 363,-216 363,-186 213,-186"/>
<text text-anchor="start" x="221" y="-204" font-family="Helvetica,sans-Serif" font-size="10.00">parser.tests.MathTester.test</text>
<text text-anchor="middle" x="288" y="-193" font-family="Helvetica,sans-Serif" font-size="10.00">Product</text>
</a>
</g>
</g>
<!-- Node1&#45;&gt;Node22 -->
<g id="edge22" class="edge"><title>Node1&#45;&gt;Node22</title>
<path fill="none" stroke="midnightblue" d="M88.1666,-381.893C102.725,-345.739 139.268,-267.257 196,-226 201.3,-222.146 207.166,-218.885 213.291,-216.128"/>
<polygon fill="midnightblue" stroke="midnightblue" points="84.8761,-380.697 84.4998,-391.285 91.3968,-383.243 84.8761,-380.697"/>
</g>
<!-- Node23 -->
<g id="node23" class="node"><title>Node23</title>
<g id="a_node23"><a xlink:href="../../d3/d64/classparser_1_1tests_1_1_math_tester.html#a0bee886e0100c55a64fb804fa462e079" target="_top" xlink:title="parser.tests.MathTester.test\lQuotient">
<polygon fill="white" stroke="black" points="213,-137 213,-167 363,-167 363,-137 213,-137"/>
<text text-anchor="start" x="221" y="-155" font-family="Helvetica,sans-Serif" font-size="10.00">parser.tests.MathTester.test</text>
<text text-anchor="middle" x="288" y="-144" font-family="Helvetica,sans-Serif" font-size="10.00">Quotient</text>
</a>
</g>
</g>
<!-- Node1&#45;&gt;Node23 -->
<g id="edge23" class="edge"><title>Node1&#45;&gt;Node23</title>
<path fill="none" stroke="midnightblue" d="M85.4213,-381.2C96.2435,-337.44 128.272,-232.027 196,-177 201.086,-172.867 206.805,-169.416 212.834,-166.534"/>
<polygon fill="midnightblue" stroke="midnightblue" points="81.9631,-380.616 83.0677,-391.153 88.7752,-382.227 81.9631,-380.616"/>
</g>
<!-- Node24 -->
<g id="node24" class="node"><title>Node24</title>
<g id="a_node24"><a xlink:href="../../d3/d64/classparser_1_1tests_1_1_math_tester.html#a0834a1beeeb3689ab52b3523b1ec053e" target="_top" xlink:title="parser.tests.MathTester.test\lRandom">
<polygon fill="white" stroke="black" points="213,-88 213,-118 363,-118 363,-88 213,-88"/>
<text text-anchor="start" x="221" y="-106" font-family="Helvetica,sans-Serif" font-size="10.00">parser.tests.MathTester.test</text>
<text text-anchor="middle" x="288" y="-95" font-family="Helvetica,sans-Serif" font-size="10.00">Random</text>
</a>
</g>
</g>
<!-- Node1&#45;&gt;Node24 -->
<g id="edge24" class="edge"><title>Node1&#45;&gt;Node24</title>
<path fill="none" stroke="midnightblue" d="M83.4343,-381.112C90.6704,-330.802 116.733,-197.538 196,-128 201.05,-123.57 206.816,-119.918 212.94,-116.908"/>
<polygon fill="midnightblue" stroke="midnightblue" points="79.9297,-380.913 82.0698,-391.29 86.8677,-381.844 79.9297,-380.913"/>
</g>
<!-- Node25 -->
<g id="node25" class="node"><title>Node25</title>
<g id="a_node25"><a xlink:href="../../d3/d64/classparser_1_1tests_1_1_math_tester.html#aeba46a296188edda903e21c6be23bdd8" target="_top" xlink:title="parser.tests.MathTester.test\lRemainder">
<polygon fill="white" stroke="black" points="213,-39 213,-69 363,-69 363,-39 213,-39"/>
<text text-anchor="start" x="221" y="-57" font-family="Helvetica,sans-Serif" font-size="10.00">parser.tests.MathTester.test</text>
<text text-anchor="middle" x="288" y="-46" font-family="Helvetica,sans-Serif" font-size="10.00">Remainder</text>
</a>
</g>
</g>
<!-- Node1&#45;&gt;Node25 -->
<g id="edge25" class="edge"><title>Node1&#45;&gt;Node25</title>
<path fill="none" stroke="midnightblue" d="M81.977,-381.41C85.8521,-325.471 104.805,-163.607 196,-79 200.924,-74.4313 206.606,-70.6847 212.675,-67.6142"/>
<polygon fill="midnightblue" stroke="midnightblue" points="78.4828,-381.21 81.3721,-391.403 85.47,-381.633 78.4828,-381.21"/>
</g>
<!-- Node26 -->
<g id="node26" class="node"><title>Node26</title>
<g id="a_node26"><a xlink:href="../../d3/d64/classparser_1_1tests_1_1_math_tester.html#a0059e207747b76f3579b4218cfe7c5dc" target="_top" xlink:title="parser.tests.MathTester.testSum">
<polygon fill="white" stroke="black" points="201.5,-0.5 201.5,-19.5 374.5,-19.5 374.5,-0.5 201.5,-0.5"/>
<text text-anchor="middle" x="288" y="-7.5" font-family="Helvetica,sans-Serif" font-size="10.00">parser.tests.MathTester.testSum</text>
</a>
</g>
</g>
<!-- Node1&#45;&gt;Node26 -->
<g id="edge26" class="edge"><title>Node1&#45;&gt;Node26</title>
<path fill="none" stroke="midnightblue" d="M80.6935,-381.155C80.8818,-319.1 90.3561,-127.099 196,-30 200.645,-25.731 205.986,-22.2985 211.704,-19.5468"/>
<polygon fill="midnightblue" stroke="midnightblue" points="77.1952,-381.493 80.7495,-391.473 84.1951,-381.454 77.1952,-381.493"/>
</g>
<!-- Node3 -->
<g id="node3" class="node"><title>Node3</title>
<g id="a_node3"><a xlink:href="../../d7/dde/classparser_1_1_main.html#ac3abd936d94632f17feedf0cce82afff" target="_top" xlink:title="parser.Main.main">
<polygon fill="white" stroke="black" points="433.5,-771.5 433.5,-790.5 532.5,-790.5 532.5,-771.5 433.5,-771.5"/>
<text text-anchor="middle" x="483" y="-778.5" font-family="Helvetica,sans-Serif" font-size="10.00">parser.Main.main</text>
</a>
</g>
</g>
<!-- Node2&#45;&gt;Node3 -->
<g id="edge2" class="edge"><title>Node2&#45;&gt;Node3</title>
<path fill="none" stroke="midnightblue" d="M357.366,-781C382.471,-781 410.36,-781 433.38,-781"/>
<polygon fill="midnightblue" stroke="midnightblue" points="357.168,-777.5 347.168,-781 357.168,-784.5 357.168,-777.5"/>
</g>
<!-- Node6 -->
<g id="node6" class="node"><title>Node6</title>
<g id="a_node6"><a xlink:href="../../d9/df7/classcontroller_1_1_controller.html#a2bfb87bca460d87b2c97e0b5045a2175" target="_top" xlink:title="controller.Controller.create\lRunCommandListener">
<polygon fill="white" stroke="black" points="586.5,-686 586.5,-716 729.5,-716 729.5,-686 586.5,-686"/>
<text text-anchor="start" x="594.5" y="-704" font-family="Helvetica,sans-Serif" font-size="10.00">controller.Controller.create</text>
<text text-anchor="middle" x="658" y="-693" font-family="Helvetica,sans-Serif" font-size="10.00">RunCommandListener</text>
</a>
</g>
</g>
<!-- Node5&#45;&gt;Node6 -->
<g id="edge5" class="edge"><title>Node5&#45;&gt;Node6</title>
<path fill="none" stroke="midnightblue" d="M373.156,-699.457C437.567,-699.807 525.39,-700.285 586.214,-700.615"/>
<polygon fill="midnightblue" stroke="midnightblue" points="373.047,-695.957 363.028,-699.402 373.008,-702.957 373.047,-695.957"/>
</g>
<!-- Node7 -->
<g id="node7" class="node"><title>Node7</title>
<g id="a_node7"><a xlink:href="../../d9/df7/classcontroller_1_1_controller.html#a47511ec57338c8e75e71e9314cda5271" target="_top" xlink:title="controller.Controller.Controller">
<polygon fill="white" stroke="black" points="1126.5,-667.5 1126.5,-686.5 1285.5,-686.5 1285.5,-667.5 1126.5,-667.5"/>
<text text-anchor="middle" x="1206" y="-674.5" font-family="Helvetica,sans-Serif" font-size="10.00">controller.Controller.Controller</text>
</a>
</g>
</g>
<!-- Node6&#45;&gt;Node7 -->
<g id="edge6" class="edge"><title>Node6&#45;&gt;Node7</title>
<path fill="none" stroke="midnightblue" d="M739.67,-697.454C843.639,-692.884 1023.25,-684.989 1126.27,-680.461"/>
<polygon fill="midnightblue" stroke="midnightblue" points="739.378,-693.963 729.541,-697.899 739.685,-700.957 739.378,-693.963"/>
</g>
<!-- Node9 -->
<g id="node9" class="node"><title>Node9</title>
<g id="a_node9"><a xlink:href="../../d9/df7/classcontroller_1_1_controller.html#a37c3009658f66dc4de0be01b75adf660" target="_top" xlink:title="controller.Controller.load\lWorkspace">
<polygon fill="white" stroke="black" points="416.5,-638 416.5,-668 549.5,-668 549.5,-638 416.5,-638"/>
<text text-anchor="start" x="424.5" y="-656" font-family="Helvetica,sans-Serif" font-size="10.00">controller.Controller.load</text>
<text text-anchor="middle" x="483" y="-645" font-family="Helvetica,sans-Serif" font-size="10.00">Workspace</text>
</a>
</g>
</g>
<!-- Node8&#45;&gt;Node9 -->
<g id="edge8" class="edge"><title>Node8&#45;&gt;Node9</title>
<path fill="none" stroke="midnightblue" d="M380.618,-654.051C392.629,-653.926 404.741,-653.801 416.207,-653.682"/>
<polygon fill="midnightblue" stroke="midnightblue" points="380.533,-650.551 370.57,-654.155 380.605,-657.551 380.533,-650.551"/>
</g>
<!-- Node10 -->
<g id="node10" class="node"><title>Node10</title>
<g id="a_node10"><a xlink:href="../../d9/df7/classcontroller_1_1_controller.html#aa46804b9ca132af8504b5dafb1cadb0d" target="_top" xlink:title="controller.Controller.create\lFileCommands">
<polygon fill="white" stroke="black" points="586.5,-637 586.5,-667 729.5,-667 729.5,-637 586.5,-637"/>
<text text-anchor="start" x="594.5" y="-655" font-family="Helvetica,sans-Serif" font-size="10.00">controller.Controller.create</text>
<text text-anchor="middle" x="658" y="-644" font-family="Helvetica,sans-Serif" font-size="10.00">FileCommands</text>
</a>
</g>
</g>
<!-- Node9&#45;&gt;Node10 -->
<g id="edge9" class="edge"><title>Node9&#45;&gt;Node10</title>
<path fill="none" stroke="midnightblue" d="M560.078,-652.56C568.826,-652.51 577.718,-652.458 586.39,-652.408"/>
<polygon fill="midnightblue" stroke="midnightblue" points="559.877,-649.061 549.897,-652.619 559.917,-656.061 559.877,-649.061"/>
</g>
<!-- Node11 -->
<g id="node11" class="node"><title>Node11</title>
<g id="a_node11"><a xlink:href="../../d9/df7/classcontroller_1_1_controller.html#af4c05286f1534b1fa6de523c54549288" target="_top" xlink:title="controller.Controller.create\lFileMenu">
<polygon fill="white" stroke="black" points="766.5,-639 766.5,-669 909.5,-669 909.5,-639 766.5,-639"/>
<text text-anchor="start" x="774.5" y="-657" font-family="Helvetica,sans-Serif" font-size="10.00">controller.Controller.create</text>
<text text-anchor="middle" x="838" y="-646" font-family="Helvetica,sans-Serif" font-size="10.00">FileMenu</text>
</a>
</g>
</g>
<!-- Node10&#45;&gt;Node11 -->
<g id="edge10" class="edge"><title>Node10&#45;&gt;Node11</title>
<path fill="none" stroke="midnightblue" d="M739.646,-652.906C748.599,-653.007 757.666,-653.109 766.479,-653.208"/>
<polygon fill="midnightblue" stroke="midnightblue" points="739.645,-649.406 729.606,-652.793 739.566,-656.406 739.645,-649.406"/>
</g>
<!-- Node12 -->
<g id="node12" class="node"><title>Node12</title>
<g id="a_node12"><a xlink:href="../../d9/df7/classcontroller_1_1_controller.html#a2901bf43bb8e47b485558dbf00d40d6d" target="_top" xlink:title="controller.Controller.create\lJMenuBar">
<polygon fill="white" stroke="black" points="946.5,-640 946.5,-670 1089.5,-670 1089.5,-640 946.5,-640"/>
<text text-anchor="start" x="954.5" y="-658" font-family="Helvetica,sans-Serif" font-size="10.00">controller.Controller.create</text>
<text text-anchor="middle" x="1018" y="-647" font-family="Helvetica,sans-Serif" font-size="10.00">JMenuBar</text>
</a>
</g>
</g>
<!-- Node11&#45;&gt;Node12 -->
<g id="edge11" class="edge"><title>Node11&#45;&gt;Node12</title>
<path fill="none" stroke="midnightblue" d="M919.646,-654.453C928.599,-654.503 937.666,-654.554 946.479,-654.604"/>
<polygon fill="midnightblue" stroke="midnightblue" points="919.626,-650.953 909.606,-654.397 919.586,-657.953 919.626,-650.953"/>
</g>
<!-- Node12&#45;&gt;Node7 -->
<g id="edge12" class="edge"><title>Node12&#45;&gt;Node7</title>
<path fill="none" stroke="midnightblue" d="M1099.55,-664.527C1108.45,-665.58 1117.5,-666.651 1126.38,-667.701"/>
<polygon fill="midnightblue" stroke="midnightblue" points="1099.93,-661.048 1089.58,-663.349 1099.1,-667.999 1099.93,-661.048"/>
</g>
</g>
</svg>
