<?xml version="1.0" encoding="UTF-8" standalone="no"?>
<!DOCTYPE svg PUBLIC "-//W3C//DTD SVG 1.1//EN"
 "http://www.w3.org/Graphics/SVG/1.1/DTD/svg11.dtd">
<!-- Generated by graphviz version 2.36.0 (20140111.2315)
 -->
<!-- Title: parser.Parser.parseCommand Pages: 1 -->
<svg width="1450pt" height="390pt"
 viewBox="0.00 0.00 1450.00 390.00" xmlns="http://www.w3.org/2000/svg" xmlns:xlink="http://www.w3.org/1999/xlink">
<g id="graph0" class="graph" transform="scale(1 1) rotate(0) translate(4 386)">
<title>parser.Parser.parseCommand</title>
<polygon fill="white" stroke="none" points="-4,4 -4,-386 1446,-386 1446,4 -4,4"/>
<!-- Node1 -->
<g id="node1" class="node"><title>Node1</title>
<polygon fill="#bfbfbf" stroke="black" points="0.5,-198.5 0.5,-217.5 159.5,-217.5 159.5,-198.5 0.5,-198.5"/>
<text text-anchor="middle" x="80" y="-205.5" font-family="Helvetica,sans-Serif" font-size="10.00">parser.Parser.parseCommand</text>
</g>
<!-- Node2 -->
<g id="node2" class="node"><title>Node2</title>
<g id="a_node2"><a xlink:href="../../d6/d95/classparser_1_1_parser.html#ac0cfecef1d5308df35c49519d94f85a5" target="_top" xlink:title="parser.Parser.parseCommand">
<polygon fill="white" stroke="black" points="196.5,-198.5 196.5,-217.5 355.5,-217.5 355.5,-198.5 196.5,-198.5"/>
<text text-anchor="middle" x="276" y="-205.5" font-family="Helvetica,sans-Serif" font-size="10.00">parser.Parser.parseCommand</text>
</a>
</g>
</g>
<!-- Node1&#45;&gt;Node2 -->
<g id="edge1" class="edge"><title>Node1&#45;&gt;Node2</title>
<path fill="none" stroke="midnightblue" d="M159.628,-208C168.309,-208 177.194,-208 185.992,-208"/>
<polygon fill="midnightblue" stroke="midnightblue" points="186.261,-211.5 196.26,-208 186.26,-204.5 186.261,-211.5"/>
</g>
<!-- Node3 -->
<g id="node3" class="node"><title>Node3</title>
<g id="a_node3"><a xlink:href="../../d7/d0d/classparser_1_1_semantics_checker.html#a8620f3090287a61f86765ee920d53de0" target="_top" xlink:title="parser.SemanticsChecker.evaluate\lExpression">
<polygon fill="white" stroke="black" points="392.5,-215 392.5,-245 575.5,-245 575.5,-215 392.5,-215"/>
<text text-anchor="start" x="400.5" y="-233" font-family="Helvetica,sans-Serif" font-size="10.00">parser.SemanticsChecker.evaluate</text>
<text text-anchor="middle" x="484" y="-222" font-family="Helvetica,sans-Serif" font-size="10.00">Expression</text>
</a>
</g>
</g>
<!-- Node2&#45;&gt;Node3 -->
<g id="edge2" class="edge"><title>Node2&#45;&gt;Node3</title>
<path fill="none" stroke="midnightblue" d="M355.762,-216.411C364.427,-217.337 373.334,-218.288 382.22,-219.237"/>
<polygon fill="midnightblue" stroke="midnightblue" points="381.914,-222.724 392.229,-220.306 382.657,-215.764 381.914,-222.724"/>
</g>
<!-- Node22 -->
<g id="node22" class="node"><title>Node22</title>
<g id="a_node22"><a xlink:href="../../d2/df8/classparser_1_1_lex_checker.html#a982a56b6fbf6428a5dca97eb56a81625" target="_top" xlink:title="parser.LexChecker.splitTokens">
<polygon fill="white" stroke="black" points="404.5,-176.5 404.5,-195.5 563.5,-195.5 563.5,-176.5 404.5,-176.5"/>
<text text-anchor="middle" x="484" y="-183.5" font-family="Helvetica,sans-Serif" font-size="10.00">parser.LexChecker.splitTokens</text>
</a>
</g>
</g>
<!-- Node2&#45;&gt;Node22 -->
<g id="edge21" class="edge"><title>Node2&#45;&gt;Node22</title>
<path fill="none" stroke="midnightblue" d="M355.762,-199.589C368.309,-198.249 381.365,-196.854 394.126,-195.491"/>
<polygon fill="midnightblue" stroke="midnightblue" points="394.71,-198.949 404.282,-194.407 393.967,-191.989 394.71,-198.949"/>
</g>
<!-- Node4 -->
<g id="node4" class="node"><title>Node4</title>
<g id="a_node4"><a xlink:href="../../df/daf/classparser_1_1_semantics_table.html#aab459a521d748abf6058d243b8714d32" target="_top" xlink:title="parser.SemanticsTable.get\lTokenClass">
<polygon fill="white" stroke="black" points="645.5,-308 645.5,-338 788.5,-338 788.5,-308 645.5,-308"/>
<text text-anchor="start" x="653.5" y="-326" font-family="Helvetica,sans-Serif" font-size="10.00">parser.SemanticsTable.get</text>
<text text-anchor="middle" x="717" y="-315" font-family="Helvetica,sans-Serif" font-size="10.00">TokenClass</text>
</a>
</g>
</g>
<!-- Node3&#45;&gt;Node4 -->
<g id="edge3" class="edge"><title>Node3&#45;&gt;Node4</title>
<path fill="none" stroke="midnightblue" d="M512.102,-245.228C537.385,-259.001 576.442,-279.181 612,-293 623.221,-297.361 635.339,-301.418 647.202,-305.05"/>
<polygon fill="midnightblue" stroke="midnightblue" points="646.498,-308.492 657.081,-307.998 648.5,-301.785 646.498,-308.492"/>
</g>
<!-- Node8 -->
<g id="node8" class="node"><title>Node8</title>
<g id="a_node8"><a xlink:href="../../d5/d08/classparser_1_1nodes_1_1_node_information.html#a1553927792e60fe77a0b2a7d21c53182" target="_top" xlink:title="parser.nodes.NodeInformation.getName">
<polygon fill="white" stroke="black" points="612,-264.5 612,-283.5 822,-283.5 822,-264.5 612,-264.5"/>
<text text-anchor="middle" x="717" y="-271.5" font-family="Helvetica,sans-Serif" font-size="10.00">parser.nodes.NodeInformation.getName</text>
</a>
</g>
</g>
<!-- Node3&#45;&gt;Node8 -->
<g id="edge7" class="edge"><title>Node3&#45;&gt;Node8</title>
<path fill="none" stroke="midnightblue" d="M563.851,-245.019C594,-250.762 627.866,-257.213 655.98,-262.568"/>
<polygon fill="midnightblue" stroke="midnightblue" points="655.581,-266.055 666.06,-264.488 656.891,-259.178 655.581,-266.055"/>
</g>
<!-- Node9 -->
<g id="node9" class="node"><title>Node9</title>
<g id="a_node9"><a xlink:href="../../df/daf/classparser_1_1_semantics_table.html#a8b10ea894ea685fb78306df326a17db2" target="_top" xlink:title="parser.SemanticsTable.register\lCustomCommand">
<polygon fill="white" stroke="black" points="635,-215 635,-245 799,-245 799,-215 635,-215"/>
<text text-anchor="start" x="643" y="-233" font-family="Helvetica,sans-Serif" font-size="10.00">parser.SemanticsTable.register</text>
<text text-anchor="middle" x="717" y="-222" font-family="Helvetica,sans-Serif" font-size="10.00">CustomCommand</text>
</a>
</g>
</g>
<!-- Node3&#45;&gt;Node9 -->
<g id="edge8" class="edge"><title>Node3&#45;&gt;Node9</title>
<path fill="none" stroke="midnightblue" d="M575.634,-230C591.602,-230 608.235,-230 624.234,-230"/>
<polygon fill="midnightblue" stroke="midnightblue" points="624.642,-233.5 634.642,-230 624.642,-226.5 624.642,-233.5"/>
</g>
<!-- Node11 -->
<g id="node11" class="node"><title>Node11</title>
<g id="a_node11"><a xlink:href="../../d7/d0d/classparser_1_1_semantics_checker.html#a41a9f32483c1d0e32acd7fa553c9670c" target="_top" xlink:title="parser.SemanticsChecker.create\lCustomCommand">
<polygon fill="white" stroke="black" points="630.5,-163 630.5,-193 803.5,-193 803.5,-163 630.5,-163"/>
<text text-anchor="start" x="638.5" y="-181" font-family="Helvetica,sans-Serif" font-size="10.00">parser.SemanticsChecker.create</text>
<text text-anchor="middle" x="717" y="-170" font-family="Helvetica,sans-Serif" font-size="10.00">CustomCommand</text>
</a>
</g>
</g>
<!-- Node3&#45;&gt;Node11 -->
<g id="edge10" class="edge"><title>Node3&#45;&gt;Node11</title>
<path fill="none" stroke="midnightblue" d="M551.815,-214.959C579.23,-208.788 611.124,-201.609 639.47,-195.228"/>
<polygon fill="midnightblue" stroke="midnightblue" points="640.348,-198.618 649.335,-193.007 638.811,-191.788 640.348,-198.618"/>
</g>
<!-- Node15 -->
<g id="node15" class="node"><title>Node15</title>
<g id="a_node15"><a xlink:href="../../d7/d0d/classparser_1_1_semantics_checker.html#a9874458f603e4eac6181412441aff5af" target="_top" xlink:title="parser.SemanticsChecker.createNode">
<polygon fill="white" stroke="black" points="618,-78.5 618,-97.5 816,-97.5 816,-78.5 618,-78.5"/>
<text text-anchor="middle" x="717" y="-85.5" font-family="Helvetica,sans-Serif" font-size="10.00">parser.SemanticsChecker.createNode</text>
</a>
</g>
</g>
<!-- Node3&#45;&gt;Node15 -->
<g id="edge14" class="edge"><title>Node3&#45;&gt;Node15</title>
<path fill="none" stroke="midnightblue" d="M558.112,-214.886C564.431,-212.125 570.502,-208.86 576,-205 598.707,-189.058 591.905,-173.13 612,-154 634.497,-132.583 664.945,-114.223 687.079,-102.345"/>
<polygon fill="midnightblue" stroke="midnightblue" points="688.779,-105.405 696.009,-97.6609 685.528,-99.2063 688.779,-105.405"/>
</g>
<!-- Node5 -->
<g id="node5" class="node"><title>Node5</title>
<g id="a_node5"><a xlink:href="../../d5/d08/classparser_1_1nodes_1_1_node_information.html#a10357cfb2c29282a4571d4713551a448" target="_top" xlink:title="parser.nodes.NodeInformation.clone">
<polygon fill="white" stroke="black" points="863.5,-357.5 863.5,-376.5 1054.5,-376.5 1054.5,-357.5 863.5,-357.5"/>
<text text-anchor="middle" x="959" y="-364.5" font-family="Helvetica,sans-Serif" font-size="10.00">parser.nodes.NodeInformation.clone</text>
</a>
</g>
</g>
<!-- Node4&#45;&gt;Node5 -->
<g id="edge4" class="edge"><title>Node4&#45;&gt;Node5</title>
<path fill="none" stroke="midnightblue" d="M788.71,-335.963C822.793,-342.212 863.298,-349.638 896.14,-355.659"/>
<polygon fill="midnightblue" stroke="midnightblue" points="895.604,-359.119 906.071,-357.48 896.866,-352.234 895.604,-359.119"/>
</g>
<!-- Node7 -->
<g id="node7" class="node"><title>Node7</title>
<g id="a_node7"><a xlink:href="../../d5/d08/classparser_1_1nodes_1_1_node_information.html#a0c4a6fe4a61e93a5dbe095ee42c213ed" target="_top" xlink:title="parser.nodes.NodeInformation.set\lToken">
<polygon fill="white" stroke="black" points="869,-308 869,-338 1049,-338 1049,-308 869,-308"/>
<text text-anchor="start" x="877" y="-326" font-family="Helvetica,sans-Serif" font-size="10.00">parser.nodes.NodeInformation.set</text>
<text text-anchor="middle" x="959" y="-315" font-family="Helvetica,sans-Serif" font-size="10.00">Token</text>
</a>
</g>
</g>
<!-- Node4&#45;&gt;Node7 -->
<g id="edge6" class="edge"><title>Node4&#45;&gt;Node7</title>
<path fill="none" stroke="midnightblue" d="M788.71,-323C810.511,-323 834.938,-323 858.308,-323"/>
<polygon fill="midnightblue" stroke="midnightblue" points="858.601,-326.5 868.601,-323 858.601,-319.5 858.601,-326.5"/>
</g>
<!-- Node6 -->
<g id="node6" class="node"><title>Node6</title>
<g id="a_node6"><a xlink:href="../../d5/d08/classparser_1_1nodes_1_1_node_information.html#a0672ed587472f62f81cad30d9c35e3f0" target="_top" xlink:title="parser.nodes.NodeInformation.\lNodeInformation">
<polygon fill="white" stroke="black" points="1096.5,-352 1096.5,-382 1261.5,-382 1261.5,-352 1096.5,-352"/>
<text text-anchor="start" x="1104.5" y="-370" font-family="Helvetica,sans-Serif" font-size="10.00">parser.nodes.NodeInformation.</text>
<text text-anchor="middle" x="1179" y="-359" font-family="Helvetica,sans-Serif" font-size="10.00">NodeInformation</text>
</a>
</g>
</g>
<!-- Node5&#45;&gt;Node6 -->
<g id="edge5" class="edge"><title>Node5&#45;&gt;Node6</title>
<path fill="none" stroke="midnightblue" d="M1054.67,-367C1065.09,-367 1075.7,-367 1086.09,-367"/>
<polygon fill="midnightblue" stroke="midnightblue" points="1086.4,-370.5 1096.4,-367 1086.4,-363.5 1086.4,-370.5"/>
</g>
<!-- Node10 -->
<g id="node10" class="node"><title>Node10</title>
<g id="a_node10"><a xlink:href="../../dd/da7/interfaceparser_1_1_i_parser_provider.html#a933bbd5080c55f69c3e3f740a465e0a5" target="_top" xlink:title="parser.IParserProvider.add\lCommand">
<polygon fill="white" stroke="black" points="888.5,-259 888.5,-289 1029.5,-289 1029.5,-259 888.5,-259"/>
<text text-anchor="start" x="896.5" y="-277" font-family="Helvetica,sans-Serif" font-size="10.00">parser.IParserProvider.add</text>
<text text-anchor="middle" x="959" y="-266" font-family="Helvetica,sans-Serif" font-size="10.00">Command</text>
</a>
</g>
</g>
<!-- Node9&#45;&gt;Node10 -->
<g id="edge9" class="edge"><title>Node9&#45;&gt;Node10</title>
<path fill="none" stroke="midnightblue" d="M799.253,-244.896C824.824,-249.584 853.025,-254.755 878.474,-259.42"/>
<polygon fill="midnightblue" stroke="midnightblue" points="877.984,-262.889 888.451,-261.249 879.246,-256.003 877.984,-262.889"/>
</g>
<!-- Node12 -->
<g id="node12" class="node"><title>Node12</title>
<g id="a_node12"><a xlink:href="../../d5/d08/classparser_1_1nodes_1_1_node_information.html#a1a0cba33547c0d09dd567f0a9db27a51" target="_top" xlink:title="parser.nodes.NodeInformation.set\lShouldCreate">
<polygon fill="white" stroke="black" points="869,-210 869,-240 1049,-240 1049,-210 869,-210"/>
<text text-anchor="start" x="877" y="-228" font-family="Helvetica,sans-Serif" font-size="10.00">parser.nodes.NodeInformation.set</text>
<text text-anchor="middle" x="959" y="-217" font-family="Helvetica,sans-Serif" font-size="10.00">ShouldCreate</text>
</a>
</g>
</g>
<!-- Node11&#45;&gt;Node12 -->
<g id="edge11" class="edge"><title>Node11&#45;&gt;Node12</title>
<path fill="none" stroke="midnightblue" d="M794.597,-193C819.061,-197.791 846.306,-203.127 871.427,-208.046"/>
<polygon fill="midnightblue" stroke="midnightblue" points="870.821,-211.494 881.307,-209.981 872.166,-204.624 870.821,-211.494"/>
</g>
<!-- Node13 -->
<g id="node13" class="node"><title>Node13</title>
<g id="a_node13"><a xlink:href="../../d5/d08/classparser_1_1nodes_1_1_node_information.html#ae642533c8e960e3d6dff2653e422f301" target="_top" xlink:title="parser.nodes.NodeInformation.get\lToken">
<polygon fill="white" stroke="black" points="868.5,-161 868.5,-191 1049.5,-191 1049.5,-161 868.5,-161"/>
<text text-anchor="start" x="876.5" y="-179" font-family="Helvetica,sans-Serif" font-size="10.00">parser.nodes.NodeInformation.get</text>
<text text-anchor="middle" x="959" y="-168" font-family="Helvetica,sans-Serif" font-size="10.00">Token</text>
</a>
</g>
</g>
<!-- Node11&#45;&gt;Node13 -->
<g id="edge12" class="edge"><title>Node11&#45;&gt;Node13</title>
<path fill="none" stroke="midnightblue" d="M803.629,-177.286C821.348,-177.139 840.159,-176.982 858.33,-176.831"/>
<polygon fill="midnightblue" stroke="midnightblue" points="858.377,-180.33 868.348,-176.747 858.319,-173.331 858.377,-180.33"/>
</g>
<!-- Node14 -->
<g id="node14" class="node"><title>Node14</title>
<g id="a_node14"><a xlink:href="../../d5/d08/classparser_1_1nodes_1_1_node_information.html#ad42f8e4caa516857bf2ad3eb9e392a9e" target="_top" xlink:title="parser.nodes.NodeInformation.getType">
<polygon fill="white" stroke="black" points="858,-122.5 858,-141.5 1060,-141.5 1060,-122.5 858,-122.5"/>
<text text-anchor="middle" x="959" y="-129.5" font-family="Helvetica,sans-Serif" font-size="10.00">parser.nodes.NodeInformation.getType</text>
</a>
</g>
</g>
<!-- Node11&#45;&gt;Node14 -->
<g id="edge13" class="edge"><title>Node11&#45;&gt;Node14</title>
<path fill="none" stroke="midnightblue" d="M796.585,-162.938C829.624,-156.605 867.438,-149.358 898.157,-143.47"/>
<polygon fill="midnightblue" stroke="midnightblue" points="899.123,-146.849 908.285,-141.529 897.805,-139.974 899.123,-146.849"/>
</g>
<!-- Node16 -->
<g id="node16" class="node"><title>Node16</title>
<g id="a_node16"><a xlink:href="../../df/daf/classparser_1_1_semantics_table.html#ad21bbcf3716340782e1da8da4efe1e82" target="_top" xlink:title="parser.SemanticsTable.get\lCommand">
<polygon fill="white" stroke="black" points="887.5,-73 887.5,-103 1030.5,-103 1030.5,-73 887.5,-73"/>
<text text-anchor="start" x="895.5" y="-91" font-family="Helvetica,sans-Serif" font-size="10.00">parser.SemanticsTable.get</text>
<text text-anchor="middle" x="959" y="-80" font-family="Helvetica,sans-Serif" font-size="10.00">Command</text>
</a>
</g>
</g>
<!-- Node15&#45;&gt;Node16 -->
<g id="edge15" class="edge"><title>Node15&#45;&gt;Node16</title>
<path fill="none" stroke="midnightblue" d="M816.31,-88C836.593,-88 857.732,-88 877.303,-88"/>
<polygon fill="midnightblue" stroke="midnightblue" points="877.381,-91.5001 887.381,-88 877.381,-84.5001 877.381,-91.5001"/>
</g>
<!-- Node18 -->
<g id="node18" class="node"><title>Node18</title>
<g id="a_node18"><a xlink:href="../../d6/dcd/classparser_1_1reflection_1_1_reflection_helper.html#aff20ce969eb8ac26feda4d41f9f26411" target="_top" xlink:title="parser.reflection.Reflection\lHelper.createInstanceOf">
<polygon fill="white" stroke="black" points="887.5,-24 887.5,-54 1030.5,-54 1030.5,-24 887.5,-24"/>
<text text-anchor="start" x="895.5" y="-42" font-family="Helvetica,sans-Serif" font-size="10.00">parser.reflection.Reflection</text>
<text text-anchor="middle" x="959" y="-31" font-family="Helvetica,sans-Serif" font-size="10.00">Helper.createInstanceOf</text>
</a>
</g>
</g>
<!-- Node15&#45;&gt;Node18 -->
<g id="edge17" class="edge"><title>Node15&#45;&gt;Node18</title>
<path fill="none" stroke="midnightblue" d="M764.559,-78.4942C796.593,-71.9539 839.972,-63.0973 877.534,-55.4285"/>
<polygon fill="midnightblue" stroke="midnightblue" points="878.354,-58.8333 887.452,-53.4036 876.954,-51.9748 878.354,-58.8333"/>
</g>
<!-- Node17 -->
<g id="node17" class="node"><title>Node17</title>
<g id="a_node17"><a xlink:href="../../dd/da7/interfaceparser_1_1_i_parser_provider.html#a190d86fe0b03a1c15700dae1237754fb" target="_top" xlink:title="parser.IParserProvider.get\lCommand">
<polygon fill="white" stroke="black" points="1109.5,-73 1109.5,-103 1248.5,-103 1248.5,-73 1109.5,-73"/>
<text text-anchor="start" x="1117.5" y="-91" font-family="Helvetica,sans-Serif" font-size="10.00">parser.IParserProvider.get</text>
<text text-anchor="middle" x="1179" y="-80" font-family="Helvetica,sans-Serif" font-size="10.00">Command</text>
</a>
</g>
</g>
<!-- Node16&#45;&gt;Node17 -->
<g id="edge16" class="edge"><title>Node16&#45;&gt;Node17</title>
<path fill="none" stroke="midnightblue" d="M1030.78,-88C1052.66,-88 1076.9,-88 1099.29,-88"/>
<polygon fill="midnightblue" stroke="midnightblue" points="1099.43,-91.5001 1109.43,-88 1099.43,-84.5001 1099.43,-91.5001"/>
</g>
<!-- Node19 -->
<g id="node19" class="node"><title>Node19</title>
<g id="a_node19"><a xlink:href="../../d6/dcd/classparser_1_1reflection_1_1_reflection_helper.html#a560ebe5618d9e6e27c57d13b55fe1b43" target="_top" xlink:title="parser.reflection.Reflection\lHelper.findConstructor">
<polygon fill="white" stroke="black" points="1107.5,-24 1107.5,-54 1250.5,-54 1250.5,-24 1107.5,-24"/>
<text text-anchor="start" x="1115.5" y="-42" font-family="Helvetica,sans-Serif" font-size="10.00">parser.reflection.Reflection</text>
<text text-anchor="middle" x="1179" y="-31" font-family="Helvetica,sans-Serif" font-size="10.00">Helper.findConstructor</text>
</a>
</g>
</g>
<!-- Node18&#45;&gt;Node19 -->
<g id="edge18" class="edge"><title>Node18&#45;&gt;Node19</title>
<path fill="none" stroke="midnightblue" d="M1030.78,-39C1051.92,-39 1075.26,-39 1097.01,-39"/>
<polygon fill="midnightblue" stroke="midnightblue" points="1097.2,-42.5001 1107.2,-39 1097.2,-35.5001 1097.2,-42.5001"/>
</g>
<!-- Node20 -->
<g id="node20" class="node"><title>Node20</title>
<g id="a_node20"><a xlink:href="../../d6/dcd/classparser_1_1reflection_1_1_reflection_helper.html#ab29ddff567376a34fe0e284cf6833b0d" target="_top" xlink:title="parser.reflection.Reflection\lHelper.toClassArray">
<polygon fill="white" stroke="black" points="1298.5,-49 1298.5,-79 1441.5,-79 1441.5,-49 1298.5,-49"/>
<text text-anchor="start" x="1306.5" y="-67" font-family="Helvetica,sans-Serif" font-size="10.00">parser.reflection.Reflection</text>
<text text-anchor="middle" x="1370" y="-56" font-family="Helvetica,sans-Serif" font-size="10.00">Helper.toClassArray</text>
</a>
</g>
</g>
<!-- Node19&#45;&gt;Node20 -->
<g id="edge19" class="edge"><title>Node19&#45;&gt;Node20</title>
<path fill="none" stroke="midnightblue" d="M1250.65,-48.3446C1262.97,-49.9752 1275.88,-51.6824 1288.45,-53.3451"/>
<polygon fill="midnightblue" stroke="midnightblue" points="1288.07,-56.8251 1298.44,-54.6667 1288.99,-49.8855 1288.07,-56.8251"/>
</g>
<!-- Node21 -->
<g id="node21" class="node"><title>Node21</title>
<g id="a_node21"><a xlink:href="../../d6/dcd/classparser_1_1reflection_1_1_reflection_helper.html#ac2c724f682c2eb9bd6be04a816e86320" target="_top" xlink:title="parser.reflection.Reflection\lHelper.paramsEqual">
<polygon fill="white" stroke="black" points="1298.5,-0 1298.5,-30 1441.5,-30 1441.5,-0 1298.5,-0"/>
<text text-anchor="start" x="1306.5" y="-18" font-family="Helvetica,sans-Serif" font-size="10.00">parser.reflection.Reflection</text>
<text text-anchor="middle" x="1370" y="-7" font-family="Helvetica,sans-Serif" font-size="10.00">Helper.paramsEqual</text>
</a>
</g>
</g>
<!-- Node19&#45;&gt;Node21 -->
<g id="edge20" class="edge"><title>Node19&#45;&gt;Node21</title>
<path fill="none" stroke="midnightblue" d="M1250.65,-30.0292C1262.97,-28.4638 1275.88,-26.8249 1288.45,-25.2287"/>
<polygon fill="midnightblue" stroke="midnightblue" points="1288.96,-28.6919 1298.44,-23.96 1288.08,-21.7477 1288.96,-28.6919"/>
</g>
</g>
</svg>
