<?xml version="1.0" encoding="UTF-8" standalone="no"?>
<!DOCTYPE svg PUBLIC "-//W3C//DTD SVG 1.1//EN"
 "http://www.w3.org/Graphics/SVG/1.1/DTD/svg11.dtd">
<!-- Generated by graphviz version 2.36.0 (20140111.2315)
 -->
<!-- Title: controller.support.IError.showError Pages: 1 -->
<svg width="394pt" height="87pt"
 viewBox="0.00 0.00 394.00 87.00" xmlns="http://www.w3.org/2000/svg" xmlns:xlink="http://www.w3.org/1999/xlink">
<g id="graph0" class="graph" transform="scale(1 1) rotate(0) translate(4 83)">
<title>controller.support.IError.showError</title>
<polygon fill="white" stroke="none" points="-4,4 -4,-83 390,-83 390,4 -4,4"/>
<!-- Node1 -->
<g id="node1" class="node"><title>Node1</title>
<polygon fill="#bfbfbf" stroke="black" points="0.5,-24 0.5,-54 155.5,-54 155.5,-24 0.5,-24"/>
<text text-anchor="start" x="8.5" y="-42" font-family="Helvetica,sans-Serif" font-size="10.00">controller.support.IError.show</text>
<text text-anchor="middle" x="78" y="-31" font-family="Helvetica,sans-Serif" font-size="10.00">Error</text>
</g>
<!-- Node2 -->
<g id="node2" class="node"><title>Node2</title>
<g id="a_node2"><a xlink:href="../../d3/daf/classview_1_1windows_1_1_variables_window.html#a130e9b31651cbf929b9a24ef0a2804fc" target="_top" xlink:title="view.windows.VariablesWindow.create\lOkButton">
<polygon fill="white" stroke="black" points="192.5,-49 192.5,-79 385.5,-79 385.5,-49 192.5,-49"/>
<text text-anchor="start" x="200.5" y="-67" font-family="Helvetica,sans-Serif" font-size="10.00">view.windows.VariablesWindow.create</text>
<text text-anchor="middle" x="289" y="-56" font-family="Helvetica,sans-Serif" font-size="10.00">OkButton</text>
</a>
</g>
</g>
<!-- Node1&#45;&gt;Node2 -->
<g id="edge1" class="edge"><title>Node1&#45;&gt;Node2</title>
<path fill="none" stroke="midnightblue" d="M165.771,-49.3794C174.484,-50.4215 183.365,-51.4838 192.164,-52.5363"/>
<polygon fill="midnightblue" stroke="midnightblue" points="165.982,-45.8797 155.637,-48.1671 165.151,-52.8301 165.982,-45.8797"/>
</g>
<!-- Node3 -->
<g id="node3" class="node"><title>Node3</title>
<g id="a_node3"><a xlink:href="../../d3/daf/classview_1_1windows_1_1_variables_window.html#a360b39c6a71c28028db714be16968cd8" target="_top" xlink:title="view.windows.VariablesWindow.set\lTableListener">
<polygon fill="white" stroke="black" points="200.5,-0 200.5,-30 377.5,-30 377.5,-0 200.5,-0"/>
<text text-anchor="start" x="208.5" y="-18" font-family="Helvetica,sans-Serif" font-size="10.00">view.windows.VariablesWindow.set</text>
<text text-anchor="middle" x="289" y="-7" font-family="Helvetica,sans-Serif" font-size="10.00">TableListener</text>
</a>
</g>
</g>
<!-- Node1&#45;&gt;Node3 -->
<g id="edge2" class="edge"><title>Node1&#45;&gt;Node3</title>
<path fill="none" stroke="midnightblue" d="M165.641,-29.0508C177.127,-27.7318 188.911,-26.3787 200.413,-25.0578"/>
<polygon fill="midnightblue" stroke="midnightblue" points="165.173,-25.5815 155.637,-30.1996 165.971,-32.5358 165.173,-25.5815"/>
</g>
</g>
</svg>
