<?xml version="1.0" encoding="UTF-8" standalone="no"?>
<!DOCTYPE svg PUBLIC "-//W3C//DTD SVG 1.1//EN"
 "http://www.w3.org/Graphics/SVG/1.1/DTD/svg11.dtd">
<!-- Generated by graphviz version 2.36.0 (20140111.2315)
 -->
<!-- Title: controller.Workspace Pages: 1 -->
<svg width="475pt" height="84pt"
 viewBox="0.00 0.00 475.00 84.00" xmlns="http://www.w3.org/2000/svg" xmlns:xlink="http://www.w3.org/1999/xlink">
<g id="graph0" class="graph" transform="scale(1 1) rotate(0) translate(4 80)">
<title>controller.Workspace</title>
<polygon fill="white" stroke="none" points="-4,4 -4,-80 471,-80 471,4 -4,4"/>
<!-- Node1 -->
<g id="node1" class="node"><title>Node1</title>
<polygon fill="#bfbfbf" stroke="black" points="139.5,-0.5 139.5,-19.5 254.5,-19.5 254.5,-0.5 139.5,-0.5"/>
<text text-anchor="middle" x="197" y="-7.5" font-family="Helvetica,sans-Serif" font-size="10.00">controller.Workspace</text>
</g>
<!-- Node2 -->
<g id="node2" class="node"><title>Node2</title>
<polygon fill="white" stroke="#bfbfbf" points="-0.5,-56.5 -0.5,-75.5 70.5,-75.5 70.5,-56.5 -0.5,-56.5"/>
<text text-anchor="middle" x="35" y="-63.5" font-family="Helvetica,sans-Serif" font-size="10.00">Observable</text>
</g>
<!-- Node2&#45;&gt;Node1 -->
<g id="edge1" class="edge"><title>Node2&#45;&gt;Node1</title>
<path fill="none" stroke="midnightblue" d="M70.4839,-53.172C100.988,-43.0039 144.245,-28.5852 171.451,-19.5164"/>
<polygon fill="midnightblue" stroke="midnightblue" points="69.0494,-49.9608 60.6694,-56.4435 71.263,-56.6016 69.0494,-49.9608"/>
</g>
<!-- Node3 -->
<g id="node3" class="node"><title>Node3</title>
<g id="a_node3"><a xlink:href="../../dc/d3c/interfacemodel_1_1_paintable.html" target="_top" xlink:title="model.Paintable">
<polygon fill="white" stroke="black" points="88.5,-56.5 88.5,-75.5 181.5,-75.5 181.5,-56.5 88.5,-56.5"/>
<text text-anchor="middle" x="135" y="-63.5" font-family="Helvetica,sans-Serif" font-size="10.00">model.Paintable</text>
</a>
</g>
</g>
<!-- Node3&#45;&gt;Node1 -->
<g id="edge2" class="edge"><title>Node3&#45;&gt;Node1</title>
<path fill="none" stroke="midnightblue" d="M152.754,-49.5372C163.808,-39.9087 177.631,-27.8694 186.857,-19.8339"/>
<polygon fill="midnightblue" stroke="midnightblue" points="150.203,-47.1168 144.961,-56.324 154.801,-52.3954 150.203,-47.1168"/>
</g>
<!-- Node4 -->
<g id="node4" class="node"><title>Node4</title>
<g id="a_node4"><a xlink:href="../../dd/da7/interfaceparser_1_1_i_parser_provider.html" target="_top" xlink:title="parser.IParserProvider">
<polygon fill="white" stroke="black" points="199.5,-56.5 199.5,-75.5 320.5,-75.5 320.5,-56.5 199.5,-56.5"/>
<text text-anchor="middle" x="260" y="-63.5" font-family="Helvetica,sans-Serif" font-size="10.00">parser.IParserProvider</text>
</a>
</g>
</g>
<!-- Node4&#45;&gt;Node1 -->
<g id="edge3" class="edge"><title>Node4&#45;&gt;Node1</title>
<path fill="none" stroke="midnightblue" d="M241.96,-49.5372C230.727,-39.9087 216.681,-27.8694 207.306,-19.8339"/>
<polygon fill="midnightblue" stroke="midnightblue" points="240.008,-52.4734 249.878,-56.324 244.563,-47.1586 240.008,-52.4734"/>
</g>
<!-- Node5 -->
<g id="node5" class="node"><title>Node5</title>
<g id="a_node5"><a xlink:href="../../dc/d3c/interfacecontroller_1_1support_1_1_i_error.html" target="_top" xlink:title="controller.support.IError">
<polygon fill="white" stroke="black" points="338.5,-56.5 338.5,-75.5 467.5,-75.5 467.5,-56.5 338.5,-56.5"/>
<text text-anchor="middle" x="403" y="-63.5" font-family="Helvetica,sans-Serif" font-size="10.00">controller.support.IError</text>
</a>
</g>
</g>
<!-- Node5&#45;&gt;Node1 -->
<g id="edge4" class="edge"><title>Node5&#45;&gt;Node1</title>
<path fill="none" stroke="midnightblue" d="M360.385,-53.8291C321.49,-43.6333 264.836,-28.7823 229.489,-19.5164"/>
<polygon fill="midnightblue" stroke="midnightblue" points="359.798,-57.2934 370.359,-56.4435 361.573,-50.5222 359.798,-57.2934"/>
</g>
</g>
</svg>
