<?xml version="1.0" encoding="UTF-8" standalone="no"?>
<!DOCTYPE svg PUBLIC "-//W3C//DTD SVG 1.1//EN"
 "http://www.w3.org/Graphics/SVG/1.1/DTD/svg11.dtd">
<!-- Generated by graphviz version 2.36.0 (20140111.2315)
 -->
<!-- Title: parser.nodes.BinaryNode.getLeft Pages: 1 -->
<svg width="678pt" height="1145pt"
 viewBox="0.00 0.00 678.00 1145.00" xmlns="http://www.w3.org/2000/svg" xmlns:xlink="http://www.w3.org/1999/xlink">
<g id="graph0" class="graph" transform="scale(1 1) rotate(0) translate(4 1141)">
<title>parser.nodes.BinaryNode.getLeft</title>
<polygon fill="white" stroke="none" points="-4,4 -4,-1141 674,-1141 674,4 -4,4"/>
<!-- Node1 -->
<g id="node1" class="node"><title>Node1</title>
<polygon fill="#bfbfbf" stroke="black" points="0,-546.5 0,-565.5 174,-565.5 174,-546.5 0,-546.5"/>
<text text-anchor="middle" x="87" y="-553.5" font-family="Helvetica,sans-Serif" font-size="10.00">parser.nodes.BinaryNode.getLeft</text>
</g>
<!-- Node2 -->
<g id="node2" class="node"><title>Node2</title>
<g id="a_node2"><a xlink:href="../../dc/d8b/classparser_1_1commands_1_1other_1_1_to.html#a85e013d5bbd478f988651a121e7fa78d" target="_top" xlink:title="parser.commands.other.To.check\lSyntax">
<polygon fill="white" stroke="black" points="237.5,-1107 237.5,-1137 412.5,-1137 412.5,-1107 237.5,-1107"/>
<text text-anchor="start" x="245.5" y="-1125" font-family="Helvetica,sans-Serif" font-size="10.00">parser.commands.other.To.check</text>
<text text-anchor="middle" x="325" y="-1114" font-family="Helvetica,sans-Serif" font-size="10.00">Syntax</text>
</a>
</g>
</g>
<!-- Node1&#45;&gt;Node2 -->
<g id="edge1" class="edge"><title>Node1&#45;&gt;Node2</title>
<path fill="none" stroke="midnightblue" d="M89.8187,-576.055C98.1974,-664.093 135.873,-1015.35 210,-1092 217.682,-1099.94 227.196,-1105.87 237.427,-1110.28"/>
<polygon fill="midnightblue" stroke="midnightblue" points="93.2794,-575.47 88.8666,-565.837 86.3096,-576.119 93.2794,-575.47"/>
</g>
<!-- Node3 -->
<g id="node3" class="node"><title>Node3</title>
<g id="a_node3"><a xlink:href="../../dc/d8b/classparser_1_1commands_1_1other_1_1_to.html#a835c478a7eb5b7f48d66a3bcee850d5b" target="_top" xlink:title="parser.commands.other.To.evaluate">
<polygon fill="white" stroke="black" points="479,-1090.5 479,-1109.5 667,-1109.5 667,-1090.5 479,-1090.5"/>
<text text-anchor="middle" x="573" y="-1097.5" font-family="Helvetica,sans-Serif" font-size="10.00">parser.commands.other.To.evaluate</text>
</a>
</g>
</g>
<!-- Node1&#45;&gt;Node3 -->
<g id="edge28" class="edge"><title>Node1&#45;&gt;Node3</title>
<path fill="none" stroke="midnightblue" d="M89.8509,-575.845C98.1893,-660.715 135.158,-991.834 210,-1058 229.819,-1075.52 378.254,-1088.08 478.79,-1094.67"/>
<polygon fill="midnightblue" stroke="midnightblue" points="93.3217,-575.372 88.8817,-565.752 86.3538,-576.041 93.3217,-575.372"/>
</g>
<!-- Node4 -->
<g id="node4" class="node"><title>Node4</title>
<g id="a_node4"><a xlink:href="../../d0/d05/classparser_1_1commands_1_1other_1_1_do_times.html#a2ab7e71e355a34d9c136bf67eb751c45" target="_top" xlink:title="parser.commands.other.Do\lTimes.checkSyntax">
<polygon fill="white" stroke="black" points="251,-1019 251,-1049 399,-1049 399,-1019 251,-1019"/>
<text text-anchor="start" x="259" y="-1037" font-family="Helvetica,sans-Serif" font-size="10.00">parser.commands.other.Do</text>
<text text-anchor="middle" x="325" y="-1026" font-family="Helvetica,sans-Serif" font-size="10.00">Times.checkSyntax</text>
</a>
</g>
</g>
<!-- Node1&#45;&gt;Node4 -->
<g id="edge3" class="edge"><title>Node1&#45;&gt;Node4</title>
<path fill="none" stroke="midnightblue" d="M90.724,-575.688C101.926,-653.894 146.847,-941.385 210,-1004 221.118,-1015.02 235.771,-1022.14 250.854,-1026.69"/>
<polygon fill="midnightblue" stroke="midnightblue" points="94.1804,-575.132 89.3177,-565.719 87.249,-576.11 94.1804,-575.132"/>
</g>
<!-- Node5 -->
<g id="node5" class="node"><title>Node5</title>
<g id="a_node5"><a xlink:href="../../d0/d05/classparser_1_1commands_1_1other_1_1_do_times.html#aa1749474b7c85cd1caa0b32ebc3f1120" target="_top" xlink:title="parser.commands.other.Do\lTimes.evaluate">
<polygon fill="white" stroke="black" points="499,-997 499,-1027 647,-1027 647,-997 499,-997"/>
<text text-anchor="start" x="507" y="-1015" font-family="Helvetica,sans-Serif" font-size="10.00">parser.commands.other.Do</text>
<text text-anchor="middle" x="573" y="-1004" font-family="Helvetica,sans-Serif" font-size="10.00">Times.evaluate</text>
</a>
</g>
</g>
<!-- Node1&#45;&gt;Node5 -->
<g id="edge29" class="edge"><title>Node1&#45;&gt;Node5</title>
<path fill="none" stroke="midnightblue" d="M90.9368,-575.88C102.475,-651.153 147.168,-917.092 210,-970 231.627,-988.211 399.543,-1001.47 498.913,-1007.81"/>
<polygon fill="midnightblue" stroke="midnightblue" points="94.3763,-575.215 89.424,-565.849 87.4546,-576.259 94.3763,-575.215"/>
</g>
<!-- Node6 -->
<g id="node6" class="node"><title>Node6</title>
<g id="a_node6"><a xlink:href="../../d5/d6d/classparser_1_1commands_1_1workspace_1_1_ask.html#a1bd211ebe968474e99560ac3723fe0e8" target="_top" xlink:title="parser.commands.workspace.\lAsk.checkSyntax">
<polygon fill="white" stroke="black" points="245,-931 245,-961 405,-961 405,-931 245,-931"/>
<text text-anchor="start" x="253" y="-949" font-family="Helvetica,sans-Serif" font-size="10.00">parser.commands.workspace.</text>
<text text-anchor="middle" x="325" y="-938" font-family="Helvetica,sans-Serif" font-size="10.00">Ask.checkSyntax</text>
</a>
</g>
</g>
<!-- Node1&#45;&gt;Node6 -->
<g id="edge5" class="edge"><title>Node1&#45;&gt;Node6</title>
<path fill="none" stroke="midnightblue" d="M88.5129,-575.923C91.1922,-636.577 107.775,-820.636 210,-916 219.802,-925.144 232.051,-931.573 244.853,-936.077"/>
<polygon fill="midnightblue" stroke="midnightblue" points="92.0057,-575.658 88.1489,-565.79 85.0102,-575.909 92.0057,-575.658"/>
</g>
<!-- Node7 -->
<g id="node7" class="node"><title>Node7</title>
<g id="a_node7"><a xlink:href="../../d5/d6d/classparser_1_1commands_1_1workspace_1_1_ask.html#a837a075ce77789761e3060413c51e882" target="_top" xlink:title="parser.commands.workspace.\lAsk.evaluate">
<polygon fill="white" stroke="black" points="493,-909 493,-939 653,-939 653,-909 493,-909"/>
<text text-anchor="start" x="501" y="-927" font-family="Helvetica,sans-Serif" font-size="10.00">parser.commands.workspace.</text>
<text text-anchor="middle" x="573" y="-916" font-family="Helvetica,sans-Serif" font-size="10.00">Ask.evaluate</text>
</a>
</g>
</g>
<!-- Node1&#45;&gt;Node7 -->
<g id="edge30" class="edge"><title>Node1&#45;&gt;Node7</title>
<path fill="none" stroke="midnightblue" d="M88.7001,-575.829C91.9108,-633.765 109.843,-803.608 210,-882 231.797,-899.061 392.956,-912.423 492.758,-919.171"/>
<polygon fill="midnightblue" stroke="midnightblue" points="92.1944,-575.622 88.2343,-565.795 85.2019,-575.946 92.1944,-575.622"/>
</g>
<!-- Node8 -->
<g id="node8" class="node"><title>Node8</title>
<g id="a_node8"><a xlink:href="../../db/d77/classparser_1_1commands_1_1workspace_1_1_ask_with.html#ac831d7c1b648c218daeea32ddc90dd35" target="_top" xlink:title="parser.commands.workspace.\lAskWith.checkSyntax">
<polygon fill="white" stroke="black" points="245,-843 245,-873 405,-873 405,-843 245,-843"/>
<text text-anchor="start" x="253" y="-861" font-family="Helvetica,sans-Serif" font-size="10.00">parser.commands.workspace.</text>
<text text-anchor="middle" x="325" y="-850" font-family="Helvetica,sans-Serif" font-size="10.00">AskWith.checkSyntax</text>
</a>
</g>
</g>
<!-- Node1&#45;&gt;Node8 -->
<g id="edge7" class="edge"><title>Node1&#45;&gt;Node8</title>
<path fill="none" stroke="midnightblue" d="M90.9576,-575.893C99.5153,-626.204 129.063,-759.378 210,-828 220.068,-836.537 232.3,-842.676 244.966,-847.084"/>
<polygon fill="midnightblue" stroke="midnightblue" points="94.3647,-575.034 89.3256,-565.715 87.453,-576.143 94.3647,-575.034"/>
</g>
<!-- Node9 -->
<g id="node9" class="node"><title>Node9</title>
<g id="a_node9"><a xlink:href="../../db/d77/classparser_1_1commands_1_1workspace_1_1_ask_with.html#a1de9ef4326a655f16ceec2a53302a0b5" target="_top" xlink:title="parser.commands.workspace.\lAskWith.evaluate">
<polygon fill="white" stroke="black" points="493,-810 493,-840 653,-840 653,-810 493,-810"/>
<text text-anchor="start" x="501" y="-828" font-family="Helvetica,sans-Serif" font-size="10.00">parser.commands.workspace.</text>
<text text-anchor="middle" x="573" y="-817" font-family="Helvetica,sans-Serif" font-size="10.00">AskWith.evaluate</text>
</a>
</g>
</g>
<!-- Node1&#45;&gt;Node9 -->
<g id="edge31" class="edge"><title>Node1&#45;&gt;Node9</title>
<path fill="none" stroke="midnightblue" d="M91.4905,-575.776C100.951,-622.848 131.83,-741.517 210,-794 254.644,-823.974 400.396,-827.773 492.773,-826.966"/>
<polygon fill="midnightblue" stroke="midnightblue" points="94.8758,-574.842 89.5727,-565.67 87.9985,-576.148 94.8758,-574.842"/>
</g>
<!-- Node10 -->
<g id="node10" class="node"><title>Node10</title>
<g id="a_node10"><a xlink:href="../../de/df8/classparser_1_1commands_1_1other_1_1_for.html#a933e3bbdcdc5a36054aaeff53163f412" target="_top" xlink:title="parser.commands.other.For.check\lSyntax">
<polygon fill="white" stroke="black" points="235.5,-755 235.5,-785 414.5,-785 414.5,-755 235.5,-755"/>
<text text-anchor="start" x="243.5" y="-773" font-family="Helvetica,sans-Serif" font-size="10.00">parser.commands.other.For.check</text>
<text text-anchor="middle" x="325" y="-762" font-family="Helvetica,sans-Serif" font-size="10.00">Syntax</text>
</a>
</g>
</g>
<!-- Node1&#45;&gt;Node10 -->
<g id="edge9" class="edge"><title>Node1&#45;&gt;Node10</title>
<path fill="none" stroke="midnightblue" d="M95.1991,-575.128C110.374,-612.769 149.323,-696.561 210,-740 218.57,-746.135 228.306,-751.016 238.391,-754.899"/>
<polygon fill="midnightblue" stroke="midnightblue" points="98.4551,-573.844 91.5512,-565.808 91.9365,-576.395 98.4551,-573.844"/>
</g>
<!-- Node11 -->
<g id="node11" class="node"><title>Node11</title>
<g id="a_node11"><a xlink:href="../../de/df8/classparser_1_1commands_1_1other_1_1_for.html#ab174f2bbc0bfe9fa9afd51f9213d4001" target="_top" xlink:title="parser.commands.other.For.evaluate">
<polygon fill="white" stroke="black" points="476.5,-749.5 476.5,-768.5 669.5,-768.5 669.5,-749.5 476.5,-749.5"/>
<text text-anchor="middle" x="573" y="-756.5" font-family="Helvetica,sans-Serif" font-size="10.00">parser.commands.other.For.evaluate</text>
</a>
</g>
</g>
<!-- Node1&#45;&gt;Node11 -->
<g id="edge32" class="edge"><title>Node1&#45;&gt;Node11</title>
<path fill="none" stroke="midnightblue" d="M97.2495,-574.794C114.456,-607.549 154.72,-674.592 210,-706 233.402,-719.296 384.511,-738.22 483.956,-749.49"/>
<polygon fill="midnightblue" stroke="midnightblue" points="100.325,-573.12 92.6585,-565.807 94.0909,-576.305 100.325,-573.12"/>
</g>
<!-- Node12 -->
<g id="node12" class="node"><title>Node12</title>
<g id="a_node12"><a xlink:href="../../dd/d31/classparser_1_1commands_1_1turtle_1_1commands_1_1_towards.html#a4e9fe5ecca2bf6d6abe92ca2cebd9c50" target="_top" xlink:title="parser.commands.turtle.commands.\lTowards.evaluate">
<polygon fill="white" stroke="black" points="229,-667 229,-697 421,-697 421,-667 229,-667"/>
<text text-anchor="start" x="237" y="-685" font-family="Helvetica,sans-Serif" font-size="10.00">parser.commands.turtle.commands.</text>
<text text-anchor="middle" x="325" y="-674" font-family="Helvetica,sans-Serif" font-size="10.00">Towards.evaluate</text>
</a>
</g>
</g>
<!-- Node1&#45;&gt;Node12 -->
<g id="edge11" class="edge"><title>Node1&#45;&gt;Node12</title>
<path fill="none" stroke="midnightblue" d="M103.426,-573.078C124.988,-595.85 166.416,-635.748 210,-657 217.922,-660.863 226.444,-664.135 235.132,-666.905"/>
<polygon fill="midnightblue" stroke="midnightblue" points="105.784,-570.474 96.4136,-565.529 100.655,-575.238 105.784,-570.474"/>
</g>
<!-- Node13 -->
<g id="node13" class="node"><title>Node13</title>
<g id="a_node13"><a xlink:href="../../d4/dd8/classparser_1_1commands_1_1math_1_1_product.html#abaf355a9da0c625ad47ea2925a48fae3" target="_top" xlink:title="parser.commands.math.Product.evaluate">
<polygon fill="white" stroke="black" points="217,-628.5 217,-647.5 433,-647.5 433,-628.5 217,-628.5"/>
<text text-anchor="middle" x="325" y="-635.5" font-family="Helvetica,sans-Serif" font-size="10.00">parser.commands.math.Product.evaluate</text>
</a>
</g>
</g>
<!-- Node1&#45;&gt;Node13 -->
<g id="edge12" class="edge"><title>Node1&#45;&gt;Node13</title>
<path fill="none" stroke="midnightblue" d="M111.427,-570.916C135.3,-585.424 173.854,-606.985 210,-619 221.615,-622.861 234.167,-625.96 246.55,-628.442"/>
<polygon fill="midnightblue" stroke="midnightblue" points="113.083,-567.825 102.736,-565.549 109.406,-573.781 113.083,-567.825"/>
</g>
<!-- Node14 -->
<g id="node14" class="node"><title>Node14</title>
<g id="a_node14"><a xlink:href="../../d9/df8/classparser_1_1commands_1_1math_1_1_sum.html#aac71753de6b82df094d0b032396bc7d8" target="_top" xlink:title="parser.commands.math.Sum.evaluate">
<polygon fill="white" stroke="black" points="224,-590.5 224,-609.5 426,-609.5 426,-590.5 224,-590.5"/>
<text text-anchor="middle" x="325" y="-597.5" font-family="Helvetica,sans-Serif" font-size="10.00">parser.commands.math.Sum.evaluate</text>
</a>
</g>
</g>
<!-- Node1&#45;&gt;Node14 -->
<g id="edge13" class="edge"><title>Node1&#45;&gt;Node14</title>
<path fill="none" stroke="midnightblue" d="M145.262,-567.517C165.677,-571.556 188.849,-576.065 210,-580 228.965,-583.529 249.737,-587.223 268.295,-590.463"/>
<polygon fill="midnightblue" stroke="midnightblue" points="145.664,-564.029 135.174,-565.515 144.301,-570.895 145.664,-564.029"/>
</g>
<!-- Node15 -->
<g id="node15" class="node"><title>Node15</title>
<g id="a_node15"><a xlink:href="../../d2/d73/classparser_1_1commands_1_1turtle_1_1commands_1_1_set_position.html#a194ec4afe3fb1f9563204b56bc42dca3" target="_top" xlink:title="parser.commands.turtle.commands.\lSetPosition.evaluate">
<polygon fill="white" stroke="black" points="229,-541 229,-571 421,-571 421,-541 229,-541"/>
<text text-anchor="start" x="237" y="-559" font-family="Helvetica,sans-Serif" font-size="10.00">parser.commands.turtle.commands.</text>
<text text-anchor="middle" x="325" y="-548" font-family="Helvetica,sans-Serif" font-size="10.00">SetPosition.evaluate</text>
</a>
</g>
</g>
<!-- Node1&#45;&gt;Node15 -->
<g id="edge14" class="edge"><title>Node1&#45;&gt;Node15</title>
<path fill="none" stroke="midnightblue" d="M184.3,-556C199.009,-556 214.184,-556 228.867,-556"/>
<polygon fill="midnightblue" stroke="midnightblue" points="184.203,-552.5 174.203,-556 184.203,-559.5 184.203,-552.5"/>
</g>
<!-- Node16 -->
<g id="node16" class="node"><title>Node16</title>
<g id="a_node16"><a xlink:href="../../d3/da1/classparser_1_1commands_1_1math_1_1_difference.html#afbe5542ce504313e87e25ab8c951983c" target="_top" xlink:title="parser.commands.math.Difference.evaluate">
<polygon fill="white" stroke="black" points="211,-502.5 211,-521.5 439,-521.5 439,-502.5 211,-502.5"/>
<text text-anchor="middle" x="325" y="-509.5" font-family="Helvetica,sans-Serif" font-size="10.00">parser.commands.math.Difference.evaluate</text>
</a>
</g>
</g>
<!-- Node1&#45;&gt;Node16 -->
<g id="edge15" class="edge"><title>Node1&#45;&gt;Node16</title>
<path fill="none" stroke="midnightblue" d="M145.262,-544.483C165.677,-540.444 188.849,-535.935 210,-532 228.965,-528.471 249.737,-524.777 268.295,-521.537"/>
<polygon fill="midnightblue" stroke="midnightblue" points="144.301,-541.105 135.174,-546.485 145.664,-547.971 144.301,-541.105"/>
</g>
<!-- Node17 -->
<g id="node17" class="node"><title>Node17</title>
<g id="a_node17"><a xlink:href="../../d3/df0/classparser_1_1commands_1_1bool_1_1_less_than.html#ac2cc005224acd5bd045788fbd84b51cf" target="_top" xlink:title="parser.commands.bool.Less\lThan.evaluate">
<polygon fill="white" stroke="black" points="249,-453 249,-483 401,-483 401,-453 249,-453"/>
<text text-anchor="start" x="257" y="-471" font-family="Helvetica,sans-Serif" font-size="10.00">parser.commands.bool.Less</text>
<text text-anchor="middle" x="325" y="-460" font-family="Helvetica,sans-Serif" font-size="10.00">Than.evaluate</text>
</a>
</g>
</g>
<!-- Node1&#45;&gt;Node17 -->
<g id="edge16" class="edge"><title>Node1&#45;&gt;Node17</title>
<path fill="none" stroke="midnightblue" d="M111.96,-541.235C135.965,-527.026 174.369,-505.856 210,-493 222.293,-488.564 235.629,-484.777 248.701,-481.593"/>
<polygon fill="midnightblue" stroke="midnightblue" points="109.976,-538.344 103.201,-546.49 113.577,-544.346 109.976,-538.344"/>
</g>
<!-- Node18 -->
<g id="node18" class="node"><title>Node18</title>
<g id="a_node18"><a xlink:href="../../d6/dbc/classparser_1_1commands_1_1other_1_1_if_else.html#abedc5a12ff3ae44d149ebe1b9c854078" target="_top" xlink:title="parser.commands.other.If\lElse.evaluate">
<polygon fill="white" stroke="black" points="255,-404 255,-434 395,-434 395,-404 255,-404"/>
<text text-anchor="start" x="263" y="-422" font-family="Helvetica,sans-Serif" font-size="10.00">parser.commands.other.If</text>
<text text-anchor="middle" x="325" y="-411" font-family="Helvetica,sans-Serif" font-size="10.00">Else.evaluate</text>
</a>
</g>
</g>
<!-- Node1&#45;&gt;Node18 -->
<g id="edge17" class="edge"><title>Node1&#45;&gt;Node18</title>
<path fill="none" stroke="midnightblue" d="M101.8,-538.475C122.511,-513.441 164.128,-467.84 210,-444 223.754,-436.852 239.468,-431.744 254.742,-428.094"/>
<polygon fill="midnightblue" stroke="midnightblue" points="98.9514,-536.43 95.3731,-546.403 104.389,-540.838 98.9514,-536.43"/>
</g>
<!-- Node19 -->
<g id="node19" class="node"><title>Node19</title>
<g id="a_node19"><a xlink:href="../../d5/d43/classparser_1_1commands_1_1bool_1_1_and.html#ae5248829063c1fde7a78e7a3e13aee3f" target="_top" xlink:title="parser.commands.bool.And.evaluate">
<polygon fill="white" stroke="black" points="228.5,-365.5 228.5,-384.5 421.5,-384.5 421.5,-365.5 228.5,-365.5"/>
<text text-anchor="middle" x="325" y="-372.5" font-family="Helvetica,sans-Serif" font-size="10.00">parser.commands.bool.And.evaluate</text>
</a>
</g>
</g>
<!-- Node1&#45;&gt;Node19 -->
<g id="edge18" class="edge"><title>Node1&#45;&gt;Node19</title>
<path fill="none" stroke="midnightblue" d="M96.4869,-537C112.963,-502.509 152.76,-429.938 210,-395 217.032,-390.708 224.736,-387.278 232.716,-384.543"/>
<polygon fill="midnightblue" stroke="midnightblue" points="93.1606,-535.854 92.1289,-546.398 99.5111,-538.799 93.1606,-535.854"/>
</g>
<!-- Node20 -->
<g id="node20" class="node"><title>Node20</title>
<g id="a_node20"><a xlink:href="../../d0/d39/classparser_1_1commands_1_1bool_1_1_equal.html#a37b81268c7dbf951ed1c0c015b45dade" target="_top" xlink:title="parser.commands.bool.Equal.evaluate">
<polygon fill="white" stroke="black" points="225,-327.5 225,-346.5 425,-346.5 425,-327.5 225,-327.5"/>
<text text-anchor="middle" x="325" y="-334.5" font-family="Helvetica,sans-Serif" font-size="10.00">parser.commands.bool.Equal.evaluate</text>
</a>
</g>
</g>
<!-- Node1&#45;&gt;Node20 -->
<g id="edge19" class="edge"><title>Node1&#45;&gt;Node20</title>
<path fill="none" stroke="midnightblue" d="M93.7011,-536.708C106.833,-495.933 143.315,-401.047 210,-356 215.57,-352.237 221.634,-349.134 227.968,-346.582"/>
<polygon fill="midnightblue" stroke="midnightblue" points="90.2901,-535.891 90.6728,-546.479 96.9764,-537.964 90.2901,-535.891"/>
</g>
<!-- Node21 -->
<g id="node21" class="node"><title>Node21</title>
<g id="a_node21"><a xlink:href="../../de/dd8/classparser_1_1commands_1_1other_1_1_if.html#a87f6a4d0e8da520a85595f100561ff61" target="_top" xlink:title="parser.commands.other.If.evaluate">
<polygon fill="white" stroke="black" points="233.5,-289.5 233.5,-308.5 416.5,-308.5 416.5,-289.5 233.5,-289.5"/>
<text text-anchor="middle" x="325" y="-296.5" font-family="Helvetica,sans-Serif" font-size="10.00">parser.commands.other.If.evaluate</text>
</a>
</g>
</g>
<!-- Node1&#45;&gt;Node21 -->
<g id="edge20" class="edge"><title>Node1&#45;&gt;Node21</title>
<path fill="none" stroke="midnightblue" d="M91.8389,-536.305C101.993,-489.898 134.157,-373.43 210,-318 217.047,-312.85 224.99,-308.901 233.322,-305.895"/>
<polygon fill="midnightblue" stroke="midnightblue" points="88.3735,-535.779 89.764,-546.282 95.2269,-537.204 88.3735,-535.779"/>
</g>
<!-- Node22 -->
<g id="node22" class="node"><title>Node22</title>
<g id="a_node22"><a xlink:href="../../d0/d20/classparser_1_1commands_1_1bool_1_1_or.html#a64571a3bca883f771d4e42716d3907f5" target="_top" xlink:title="parser.commands.bool.Or.evaluate">
<polygon fill="white" stroke="black" points="232.5,-251.5 232.5,-270.5 417.5,-270.5 417.5,-251.5 232.5,-251.5"/>
<text text-anchor="middle" x="325" y="-258.5" font-family="Helvetica,sans-Serif" font-size="10.00">parser.commands.bool.Or.evaluate</text>
</a>
</g>
</g>
<!-- Node1&#45;&gt;Node22 -->
<g id="edge21" class="edge"><title>Node1&#45;&gt;Node22</title>
<path fill="none" stroke="midnightblue" d="M90.3446,-536.39C97.593,-485.084 124.572,-346.283 210,-280 216.737,-274.773 224.38,-270.757 232.441,-267.695"/>
<polygon fill="midnightblue" stroke="midnightblue" points="86.854,-536.09 89.0218,-546.461 93.7944,-537.002 86.854,-536.09"/>
</g>
<!-- Node23 -->
<g id="node23" class="node"><title>Node23</title>
<g id="a_node23"><a xlink:href="../../d7/dec/classparser_1_1commands_1_1bool_1_1_not_equal.html#afa9fe1e8e6e0c533a5d79c20799cf1b9" target="_top" xlink:title="parser.commands.bool.Not\lEqual.evaluate">
<polygon fill="white" stroke="black" points="251.5,-202 251.5,-232 398.5,-232 398.5,-202 251.5,-202"/>
<text text-anchor="start" x="259.5" y="-220" font-family="Helvetica,sans-Serif" font-size="10.00">parser.commands.bool.Not</text>
<text text-anchor="middle" x="325" y="-209" font-family="Helvetica,sans-Serif" font-size="10.00">Equal.evaluate</text>
</a>
</g>
</g>
<!-- Node1&#45;&gt;Node23 -->
<g id="edge22" class="edge"><title>Node1&#45;&gt;Node23</title>
<path fill="none" stroke="midnightblue" d="M89.463,-535.899C94.6648,-479.956 117.301,-321.363 210,-242 221.621,-232.051 236.303,-225.796 251.229,-221.921"/>
<polygon fill="midnightblue" stroke="midnightblue" points="85.9461,-535.956 88.5987,-546.213 92.9216,-536.54 85.9461,-535.956"/>
</g>
<!-- Node24 -->
<g id="node24" class="node"><title>Node24</title>
<g id="a_node24"><a xlink:href="../../d4/ddb/classparser_1_1commands_1_1bool_1_1_greater_than.html#a5564e60cb78e7741aa6798741227bde8" target="_top" xlink:title="parser.commands.bool.Greater\lThan.evaluate">
<polygon fill="white" stroke="black" points="241.5,-153 241.5,-183 408.5,-183 408.5,-153 241.5,-153"/>
<text text-anchor="start" x="249.5" y="-171" font-family="Helvetica,sans-Serif" font-size="10.00">parser.commands.bool.Greater</text>
<text text-anchor="middle" x="325" y="-160" font-family="Helvetica,sans-Serif" font-size="10.00">Than.evaluate</text>
</a>
</g>
</g>
<!-- Node1&#45;&gt;Node24 -->
<g id="edge23" class="edge"><title>Node1&#45;&gt;Node24</title>
<path fill="none" stroke="midnightblue" d="M88.2664,-536.132C90.2247,-474.856 104.928,-287.263 210,-193 218.974,-184.949 229.935,-179.29 241.474,-175.346"/>
<polygon fill="midnightblue" stroke="midnightblue" points="84.7623,-536.267 88.0257,-546.347 91.7604,-536.432 84.7623,-536.267"/>
</g>
<!-- Node25 -->
<g id="node25" class="node"><title>Node25</title>
<g id="a_node25"><a xlink:href="../../d7/da6/classparser_1_1commands_1_1math_1_1_remainder.html#a22cfed07cc01dc68980e68dc6c191da8" target="_top" xlink:title="parser.commands.math.Remainder.evaluate">
<polygon fill="white" stroke="black" points="210,-114.5 210,-133.5 440,-133.5 440,-114.5 210,-114.5"/>
<text text-anchor="middle" x="325" y="-121.5" font-family="Helvetica,sans-Serif" font-size="10.00">parser.commands.math.Remainder.evaluate</text>
</a>
</g>
</g>
<!-- Node1&#45;&gt;Node25 -->
<g id="edge24" class="edge"><title>Node1&#45;&gt;Node25</title>
<path fill="none" stroke="midnightblue" d="M91.0482,-536.326C102.992,-461.817 148.969,-198.43 210,-144 214.649,-139.854 219.844,-136.419 225.384,-133.583"/>
<polygon fill="midnightblue" stroke="midnightblue" points="87.5833,-535.83 89.4804,-546.254 94.4976,-536.922 87.5833,-535.83"/>
</g>
<!-- Node26 -->
<g id="node26" class="node"><title>Node26</title>
<g id="a_node26"><a xlink:href="../../d9/de0/classparser_1_1commands_1_1other_1_1_repeat.html#aa94d3f1c4786a256afdbc9718ba2883b" target="_top" xlink:title="parser.commands.other.Repeat.evaluate">
<polygon fill="white" stroke="black" points="219,-76.5 219,-95.5 431,-95.5 431,-76.5 219,-76.5"/>
<text text-anchor="middle" x="325" y="-83.5" font-family="Helvetica,sans-Serif" font-size="10.00">parser.commands.other.Repeat.evaluate</text>
</a>
</g>
</g>
<!-- Node1&#45;&gt;Node26 -->
<g id="edge25" class="edge"><title>Node1&#45;&gt;Node26</title>
<path fill="none" stroke="midnightblue" d="M90.5422,-536.011C101.048,-456.631 143.669,-165.067 210,-105 214.09,-101.296 218.617,-98.169 223.439,-95.5371"/>
<polygon fill="midnightblue" stroke="midnightblue" points="87.0451,-535.762 89.2261,-546.13 93.9866,-536.665 87.0451,-535.762"/>
</g>
<!-- Node27 -->
<g id="node27" class="node"><title>Node27</title>
<g id="a_node27"><a xlink:href="../../dc/d4d/classparser_1_1commands_1_1math_1_1_quotient.html#a1f8c57a0dd1e98dca45aa0b68f1f6d8a" target="_top" xlink:title="parser.commands.math.Quotient.evaluate">
<polygon fill="white" stroke="black" points="214.5,-38.5 214.5,-57.5 435.5,-57.5 435.5,-38.5 214.5,-38.5"/>
<text text-anchor="middle" x="325" y="-45.5" font-family="Helvetica,sans-Serif" font-size="10.00">parser.commands.math.Quotient.evaluate</text>
</a>
</g>
</g>
<!-- Node1&#45;&gt;Node27 -->
<g id="edge26" class="edge"><title>Node1&#45;&gt;Node27</title>
<path fill="none" stroke="midnightblue" d="M90.1019,-535.965C99.2832,-452.399 138.636,-132.915 210,-67 213.98,-63.3242 218.388,-60.2125 223.09,-57.5866"/>
<polygon fill="midnightblue" stroke="midnightblue" points="86.5971,-535.822 89.0065,-546.139 93.5569,-536.571 86.5971,-535.822"/>
</g>
<!-- Node28 -->
<g id="node28" class="node"><title>Node28</title>
<g id="a_node28"><a xlink:href="../../d6/d87/classparser_1_1commands_1_1other_1_1_make.html#a7fc80a476ce57bf7ffa57061b0543dbf" target="_top" xlink:title="parser.commands.other.Make.evaluate">
<polygon fill="white" stroke="black" points="223,-0.5 223,-19.5 427,-19.5 427,-0.5 223,-0.5"/>
<text text-anchor="middle" x="325" y="-7.5" font-family="Helvetica,sans-Serif" font-size="10.00">parser.commands.other.Make.evaluate</text>
</a>
</g>
</g>
<!-- Node1&#45;&gt;Node28 -->
<g id="edge27" class="edge"><title>Node1&#45;&gt;Node28</title>
<path fill="none" stroke="midnightblue" d="M89.7049,-536.111C97.6007,-448.827 133.526,-100.849 210,-29 213.948,-25.2905 218.332,-22.1522 223.015,-19.5057"/>
<polygon fill="midnightblue" stroke="midnightblue" points="86.2036,-535.973 88.8098,-546.243 93.1764,-536.589 86.2036,-535.973"/>
</g>
<!-- Node2&#45;&gt;Node3 -->
<g id="edge2" class="edge"><title>Node2&#45;&gt;Node3</title>
<path fill="none" stroke="midnightblue" d="M422.888,-1113.34C441.344,-1111.68 460.622,-1109.96 478.955,-1108.32"/>
<polygon fill="midnightblue" stroke="midnightblue" points="422.379,-1109.87 412.73,-1114.24 423.002,-1116.84 422.379,-1109.87"/>
</g>
<!-- Node4&#45;&gt;Node5 -->
<g id="edge4" class="edge"><title>Node4&#45;&gt;Node5</title>
<path fill="none" stroke="midnightblue" d="M409.253,-1026.55C438.262,-1023.96 470.575,-1021.07 498.715,-1018.55"/>
<polygon fill="midnightblue" stroke="midnightblue" points="408.791,-1023.08 399.142,-1027.46 409.414,-1030.05 408.791,-1023.08"/>
</g>
<!-- Node6&#45;&gt;Node7 -->
<g id="edge6" class="edge"><title>Node6&#45;&gt;Node7</title>
<path fill="none" stroke="midnightblue" d="M415.199,-938.023C440.639,-935.748 468.17,-933.286 492.958,-931.069"/>
<polygon fill="midnightblue" stroke="midnightblue" points="414.838,-934.541 405.19,-938.918 415.462,-941.513 414.838,-934.541"/>
</g>
<!-- Node8&#45;&gt;Node9 -->
<g id="edge8" class="edge"><title>Node8&#45;&gt;Node9</title>
<path fill="none" stroke="midnightblue" d="M415.199,-846.034C440.639,-842.622 468.17,-838.928 492.958,-835.603"/>
<polygon fill="midnightblue" stroke="midnightblue" points="414.636,-842.578 405.19,-847.377 415.567,-849.516 414.636,-842.578"/>
</g>
<!-- Node10&#45;&gt;Node11 -->
<g id="edge10" class="edge"><title>Node10&#45;&gt;Node11</title>
<path fill="none" stroke="midnightblue" d="M425.205,-765.564C442.045,-764.811 459.503,-764.03 476.252,-763.281"/>
<polygon fill="midnightblue" stroke="midnightblue" points="424.645,-762.085 414.812,-766.029 424.958,-769.078 424.645,-762.085"/>
</g>
</g>
</svg>
