<?xml version="1.0" encoding="UTF-8" standalone="no"?>
<!DOCTYPE svg PUBLIC "-//W3C//DTD SVG 1.1//EN"
 "http://www.w3.org/Graphics/SVG/1.1/DTD/svg11.dtd">
<!-- Generated by graphviz version 2.36.0 (20140111.2315)
 -->
<!-- Title: parser.nodes.BinaryNode.getRight Pages: 1 -->
<svg width="660pt" height="1145pt"
 viewBox="0.00 0.00 660.00 1145.00" xmlns="http://www.w3.org/2000/svg" xmlns:xlink="http://www.w3.org/1999/xlink">
<g id="graph0" class="graph" transform="scale(1 1) rotate(0) translate(4 1141)">
<title>parser.nodes.BinaryNode.getRight</title>
<polygon fill="white" stroke="none" points="-4,4 -4,-1141 656,-1141 656,4 -4,4"/>
<!-- Node1 -->
<g id="node1" class="node"><title>Node1</title>
<polygon fill="#bfbfbf" stroke="black" points="0,-541 0,-571 156,-571 156,-541 0,-541"/>
<text text-anchor="start" x="8" y="-559" font-family="Helvetica,sans-Serif" font-size="10.00">parser.nodes.BinaryNode.get</text>
<text text-anchor="middle" x="78" y="-548" font-family="Helvetica,sans-Serif" font-size="10.00">Right</text>
</g>
<!-- Node2 -->
<g id="node2" class="node"><title>Node2</title>
<g id="a_node2"><a xlink:href="../../dc/d8b/classparser_1_1commands_1_1other_1_1_to.html#a85e013d5bbd478f988651a121e7fa78d" target="_top" xlink:title="parser.commands.other.To.check\lSyntax">
<polygon fill="white" stroke="black" points="219.5,-1107 219.5,-1137 394.5,-1137 394.5,-1107 219.5,-1107"/>
<text text-anchor="start" x="227.5" y="-1125" font-family="Helvetica,sans-Serif" font-size="10.00">parser.commands.other.To.check</text>
<text text-anchor="middle" x="307" y="-1114" font-family="Helvetica,sans-Serif" font-size="10.00">Syntax</text>
</a>
</g>
</g>
<!-- Node1&#45;&gt;Node2 -->
<g id="edge1" class="edge"><title>Node1&#45;&gt;Node2</title>
<path fill="none" stroke="midnightblue" d="M80.8673,-581.21C88.4608,-676.956 120.108,-1016.45 192,-1092 199.619,-1100.01 209.095,-1105.97 219.308,-1110.39"/>
<polygon fill="midnightblue" stroke="midnightblue" points="84.3395,-580.715 80.0774,-571.015 77.3604,-581.256 84.3395,-580.715"/>
</g>
<!-- Node3 -->
<g id="node3" class="node"><title>Node3</title>
<g id="a_node3"><a xlink:href="../../dc/d8b/classparser_1_1commands_1_1other_1_1_to.html#a835c478a7eb5b7f48d66a3bcee850d5b" target="_top" xlink:title="parser.commands.other.To.evaluate">
<polygon fill="white" stroke="black" points="461,-1090.5 461,-1109.5 649,-1109.5 649,-1090.5 461,-1090.5"/>
<text text-anchor="middle" x="555" y="-1097.5" font-family="Helvetica,sans-Serif" font-size="10.00">parser.commands.other.To.evaluate</text>
</a>
</g>
</g>
<!-- Node1&#45;&gt;Node3 -->
<g id="edge28" class="edge"><title>Node1&#45;&gt;Node3</title>
<path fill="none" stroke="midnightblue" d="M80.9056,-581.119C88.4569,-673.55 119.475,-992.776 192,-1058 211.67,-1075.69 360.15,-1088.19 460.736,-1094.73"/>
<polygon fill="midnightblue" stroke="midnightblue" points="84.3829,-580.694 80.0998,-571.004 77.405,-581.25 84.3829,-580.694"/>
</g>
<!-- Node4 -->
<g id="node4" class="node"><title>Node4</title>
<g id="a_node4"><a xlink:href="../../d0/d05/classparser_1_1commands_1_1other_1_1_do_times.html#a2ab7e71e355a34d9c136bf67eb751c45" target="_top" xlink:title="parser.commands.other.Do\lTimes.checkSyntax">
<polygon fill="white" stroke="black" points="233,-1019 233,-1049 381,-1049 381,-1019 233,-1019"/>
<text text-anchor="start" x="241" y="-1037" font-family="Helvetica,sans-Serif" font-size="10.00">parser.commands.other.Do</text>
<text text-anchor="middle" x="307" y="-1026" font-family="Helvetica,sans-Serif" font-size="10.00">Times.checkSyntax</text>
</a>
</g>
</g>
<!-- Node1&#45;&gt;Node4 -->
<g id="edge3" class="edge"><title>Node1&#45;&gt;Node4</title>
<path fill="none" stroke="midnightblue" d="M82.0168,-581.416C92.6692,-666.969 131.184,-942.557 192,-1004 203.086,-1015.2 217.816,-1022.38 232.996,-1026.94"/>
<polygon fill="midnightblue" stroke="midnightblue" points="85.467,-580.796 80.777,-571.296 78.519,-581.647 85.467,-580.796"/>
</g>
<!-- Node5 -->
<g id="node5" class="node"><title>Node5</title>
<g id="a_node5"><a xlink:href="../../d0/d05/classparser_1_1commands_1_1other_1_1_do_times.html#aa1749474b7c85cd1caa0b32ebc3f1120" target="_top" xlink:title="parser.commands.other.Do\lTimes.evaluate">
<polygon fill="white" stroke="black" points="481,-997 481,-1027 629,-1027 629,-997 481,-997"/>
<text text-anchor="start" x="489" y="-1015" font-family="Helvetica,sans-Serif" font-size="10.00">parser.commands.other.Do</text>
<text text-anchor="middle" x="555" y="-1004" font-family="Helvetica,sans-Serif" font-size="10.00">Times.evaluate</text>
</a>
</g>
</g>
<!-- Node1&#45;&gt;Node5 -->
<g id="edge29" class="edge"><title>Node1&#45;&gt;Node5</title>
<path fill="none" stroke="midnightblue" d="M82.2206,-581.399C93.1421,-663.28 131.496,-918.003 192,-970 213.443,-988.428 381.431,-1001.6 480.862,-1007.87"/>
<polygon fill="midnightblue" stroke="midnightblue" points="85.659,-580.7 80.889,-571.24 78.7184,-581.61 85.659,-580.7"/>
</g>
<!-- Node6 -->
<g id="node6" class="node"><title>Node6</title>
<g id="a_node6"><a xlink:href="../../d5/d6d/classparser_1_1commands_1_1workspace_1_1_ask.html#a1bd211ebe968474e99560ac3723fe0e8" target="_top" xlink:title="parser.commands.workspace.\lAsk.checkSyntax">
<polygon fill="white" stroke="black" points="227,-931 227,-961 387,-961 387,-931 227,-931"/>
<text text-anchor="start" x="235" y="-949" font-family="Helvetica,sans-Serif" font-size="10.00">parser.commands.workspace.</text>
<text text-anchor="middle" x="307" y="-938" font-family="Helvetica,sans-Serif" font-size="10.00">Ask.checkSyntax</text>
</a>
</g>
</g>
<!-- Node1&#45;&gt;Node6 -->
<g id="edge5" class="edge"><title>Node1&#45;&gt;Node6</title>
<path fill="none" stroke="midnightblue" d="M79.0849,-581.55C80.7471,-647.177 94.5597,-823.019 192,-916 201.772,-925.325 214.083,-931.836 226.973,-936.363"/>
<polygon fill="midnightblue" stroke="midnightblue" points="82.5801,-581.241 78.9045,-571.304 75.5812,-581.364 82.5801,-581.241"/>
</g>
<!-- Node7 -->
<g id="node7" class="node"><title>Node7</title>
<g id="a_node7"><a xlink:href="../../d5/d6d/classparser_1_1commands_1_1workspace_1_1_ask.html#a837a075ce77789761e3060413c51e882" target="_top" xlink:title="parser.commands.workspace.\lAsk.evaluate">
<polygon fill="white" stroke="black" points="475,-909 475,-939 635,-939 635,-909 475,-909"/>
<text text-anchor="start" x="483" y="-927" font-family="Helvetica,sans-Serif" font-size="10.00">parser.commands.workspace.</text>
<text text-anchor="middle" x="555" y="-916" font-family="Helvetica,sans-Serif" font-size="10.00">Ask.evaluate</text>
</a>
</g>
</g>
<!-- Node1&#45;&gt;Node7 -->
<g id="edge30" class="edge"><title>Node1&#45;&gt;Node7</title>
<path fill="none" stroke="midnightblue" d="M79.2891,-581.203C81.4931,-643.538 96.5892,-805.424 192,-882 213.587,-899.326 374.823,-912.591 474.695,-919.25"/>
<polygon fill="midnightblue" stroke="midnightblue" points="82.7848,-580.993 79.0169,-571.091 75.7874,-581.182 82.7848,-580.993"/>
</g>
<!-- Node8 -->
<g id="node8" class="node"><title>Node8</title>
<g id="a_node8"><a xlink:href="../../db/d77/classparser_1_1commands_1_1workspace_1_1_ask_with.html#ac831d7c1b648c218daeea32ddc90dd35" target="_top" xlink:title="parser.commands.workspace.\lAskWith.checkSyntax">
<polygon fill="white" stroke="black" points="227,-843 227,-873 387,-873 387,-843 227,-843"/>
<text text-anchor="start" x="235" y="-861" font-family="Helvetica,sans-Serif" font-size="10.00">parser.commands.workspace.</text>
<text text-anchor="middle" x="307" y="-850" font-family="Helvetica,sans-Serif" font-size="10.00">AskWith.checkSyntax</text>
</a>
</g>
</g>
<!-- Node1&#45;&gt;Node8 -->
<g id="edge7" class="edge"><title>Node1&#45;&gt;Node8</title>
<path fill="none" stroke="midnightblue" d="M81.9827,-581.038C89.7389,-634.705 115.564,-761.34 192,-828 201.948,-836.676 214.121,-842.885 226.764,-847.318"/>
<polygon fill="midnightblue" stroke="midnightblue" points="85.4375,-580.468 80.6263,-571.029 78.5009,-581.408 85.4375,-580.468"/>
</g>
<!-- Node9 -->
<g id="node9" class="node"><title>Node9</title>
<g id="a_node9"><a xlink:href="../../db/d77/classparser_1_1commands_1_1workspace_1_1_ask_with.html#a1de9ef4326a655f16ceec2a53302a0b5" target="_top" xlink:title="parser.commands.workspace.\lAskWith.evaluate">
<polygon fill="white" stroke="black" points="475,-810 475,-840 635,-840 635,-810 475,-810"/>
<text text-anchor="start" x="483" y="-828" font-family="Helvetica,sans-Serif" font-size="10.00">parser.commands.workspace.</text>
<text text-anchor="middle" x="555" y="-817" font-family="Helvetica,sans-Serif" font-size="10.00">AskWith.evaluate</text>
</a>
</g>
</g>
<!-- Node1&#45;&gt;Node9 -->
<g id="edge31" class="edge"><title>Node1&#45;&gt;Node9</title>
<path fill="none" stroke="midnightblue" d="M82.6827,-581.302C91.46,-631.477 118.646,-743.116 192,-794 236.184,-824.649 382.088,-828.224 474.619,-827.192"/>
<polygon fill="midnightblue" stroke="midnightblue" points="86.114,-580.598 81.037,-571.299 79.2068,-581.734 86.114,-580.598"/>
</g>
<!-- Node10 -->
<g id="node10" class="node"><title>Node10</title>
<g id="a_node10"><a xlink:href="../../de/df8/classparser_1_1commands_1_1other_1_1_for.html#a933e3bbdcdc5a36054aaeff53163f412" target="_top" xlink:title="parser.commands.other.For.check\lSyntax">
<polygon fill="white" stroke="black" points="217.5,-755 217.5,-785 396.5,-785 396.5,-755 217.5,-755"/>
<text text-anchor="start" x="225.5" y="-773" font-family="Helvetica,sans-Serif" font-size="10.00">parser.commands.other.For.check</text>
<text text-anchor="middle" x="307" y="-762" font-family="Helvetica,sans-Serif" font-size="10.00">Syntax</text>
</a>
</g>
</g>
<!-- Node1&#45;&gt;Node10 -->
<g id="edge9" class="edge"><title>Node1&#45;&gt;Node10</title>
<path fill="none" stroke="midnightblue" d="M87.2102,-580.537C101.798,-620.284 136.071,-698.472 192,-740 200.298,-746.161 209.758,-751.059 219.599,-754.952"/>
<polygon fill="midnightblue" stroke="midnightblue" points="90.4957,-579.33 83.847,-571.081 83.9005,-581.676 90.4957,-579.33"/>
</g>
<!-- Node11 -->
<g id="node11" class="node"><title>Node11</title>
<g id="a_node11"><a xlink:href="../../de/df8/classparser_1_1commands_1_1other_1_1_for.html#ab174f2bbc0bfe9fa9afd51f9213d4001" target="_top" xlink:title="parser.commands.other.For.evaluate">
<polygon fill="white" stroke="black" points="458.5,-749.5 458.5,-768.5 651.5,-768.5 651.5,-749.5 458.5,-749.5"/>
<text text-anchor="middle" x="555" y="-756.5" font-family="Helvetica,sans-Serif" font-size="10.00">parser.commands.other.For.evaluate</text>
</a>
</g>
</g>
<!-- Node1&#45;&gt;Node11 -->
<g id="edge32" class="edge"><title>Node1&#45;&gt;Node11</title>
<path fill="none" stroke="midnightblue" d="M89.8112,-580.296C106.438,-614.55 141.717,-676.181 192,-706 215.048,-719.668 365.006,-738.346 464.546,-749.49"/>
<polygon fill="midnightblue" stroke="midnightblue" points="92.8643,-578.564 85.4363,-571.009 86.5318,-581.547 92.8643,-578.564"/>
</g>
<!-- Node12 -->
<g id="node12" class="node"><title>Node12</title>
<g id="a_node12"><a xlink:href="../../dd/d31/classparser_1_1commands_1_1turtle_1_1commands_1_1_towards.html#a4e9fe5ecca2bf6d6abe92ca2cebd9c50" target="_top" xlink:title="parser.commands.turtle.commands.\lTowards.evaluate">
<polygon fill="white" stroke="black" points="211,-667 211,-697 403,-697 403,-667 211,-667"/>
<text text-anchor="start" x="219" y="-685" font-family="Helvetica,sans-Serif" font-size="10.00">parser.commands.turtle.commands.</text>
<text text-anchor="middle" x="307" y="-674" font-family="Helvetica,sans-Serif" font-size="10.00">Towards.evaluate</text>
</a>
</g>
</g>
<!-- Node1&#45;&gt;Node12 -->
<g id="edge11" class="edge"><title>Node1&#45;&gt;Node12</title>
<path fill="none" stroke="midnightblue" d="M98.201,-579.042C118.916,-602.343 154.068,-637.606 192,-657 199.577,-660.874 207.736,-664.15 216.083,-666.919"/>
<polygon fill="midnightblue" stroke="midnightblue" points="100.703,-576.586 91.4949,-571.345 95.4248,-581.184 100.703,-576.586"/>
</g>
<!-- Node13 -->
<g id="node13" class="node"><title>Node13</title>
<g id="a_node13"><a xlink:href="../../d4/dd8/classparser_1_1commands_1_1math_1_1_product.html#abaf355a9da0c625ad47ea2925a48fae3" target="_top" xlink:title="parser.commands.math.Product.evaluate">
<polygon fill="white" stroke="black" points="199,-628.5 199,-647.5 415,-647.5 415,-628.5 199,-628.5"/>
<text text-anchor="middle" x="307" y="-635.5" font-family="Helvetica,sans-Serif" font-size="10.00">parser.commands.math.Product.evaluate</text>
</a>
</g>
</g>
<!-- Node1&#45;&gt;Node13 -->
<g id="edge12" class="edge"><title>Node1&#45;&gt;Node13</title>
<path fill="none" stroke="midnightblue" d="M109.417,-576.758C131.422,-590.804 162.376,-608.625 192,-619 203.078,-622.88 215.046,-625.979 226.919,-628.451"/>
<polygon fill="midnightblue" stroke="midnightblue" points="111.151,-573.71 100.859,-571.196 107.337,-579.58 111.151,-573.71"/>
</g>
<!-- Node14 -->
<g id="node14" class="node"><title>Node14</title>
<g id="a_node14"><a xlink:href="../../d9/df8/classparser_1_1commands_1_1math_1_1_sum.html#aac71753de6b82df094d0b032396bc7d8" target="_top" xlink:title="parser.commands.math.Sum.evaluate">
<polygon fill="white" stroke="black" points="206,-590.5 206,-609.5 408,-609.5 408,-590.5 206,-590.5"/>
<text text-anchor="middle" x="307" y="-597.5" font-family="Helvetica,sans-Serif" font-size="10.00">parser.commands.math.Sum.evaluate</text>
</a>
</g>
</g>
<!-- Node1&#45;&gt;Node14 -->
<g id="edge13" class="edge"><title>Node1&#45;&gt;Node14</title>
<path fill="none" stroke="midnightblue" d="M157.91,-573.134C169.334,-575.506 180.959,-577.86 192,-580 210.642,-583.614 231.055,-587.285 249.391,-590.478"/>
<polygon fill="midnightblue" stroke="midnightblue" points="158.446,-569.671 147.941,-571.05 157.014,-576.523 158.446,-569.671"/>
</g>
<!-- Node15 -->
<g id="node15" class="node"><title>Node15</title>
<g id="a_node15"><a xlink:href="../../d2/d73/classparser_1_1commands_1_1turtle_1_1commands_1_1_set_position.html#a194ec4afe3fb1f9563204b56bc42dca3" target="_top" xlink:title="parser.commands.turtle.commands.\lSetPosition.evaluate">
<polygon fill="white" stroke="black" points="211,-541 211,-571 403,-571 403,-541 211,-541"/>
<text text-anchor="start" x="219" y="-559" font-family="Helvetica,sans-Serif" font-size="10.00">parser.commands.turtle.commands.</text>
<text text-anchor="middle" x="307" y="-548" font-family="Helvetica,sans-Serif" font-size="10.00">SetPosition.evaluate</text>
</a>
</g>
</g>
<!-- Node1&#45;&gt;Node15 -->
<g id="edge14" class="edge"><title>Node1&#45;&gt;Node15</title>
<path fill="none" stroke="midnightblue" d="M166.198,-556C180.847,-556 196.114,-556 210.949,-556"/>
<polygon fill="midnightblue" stroke="midnightblue" points="166.169,-552.5 156.169,-556 166.169,-559.5 166.169,-552.5"/>
</g>
<!-- Node16 -->
<g id="node16" class="node"><title>Node16</title>
<g id="a_node16"><a xlink:href="../../d3/da1/classparser_1_1commands_1_1math_1_1_difference.html#afbe5542ce504313e87e25ab8c951983c" target="_top" xlink:title="parser.commands.math.Difference.evaluate">
<polygon fill="white" stroke="black" points="193,-502.5 193,-521.5 421,-521.5 421,-502.5 193,-502.5"/>
<text text-anchor="middle" x="307" y="-509.5" font-family="Helvetica,sans-Serif" font-size="10.00">parser.commands.math.Difference.evaluate</text>
</a>
</g>
</g>
<!-- Node1&#45;&gt;Node16 -->
<g id="edge15" class="edge"><title>Node1&#45;&gt;Node16</title>
<path fill="none" stroke="midnightblue" d="M157.91,-538.866C169.334,-536.494 180.959,-534.14 192,-532 210.642,-528.386 231.055,-524.715 249.391,-521.522"/>
<polygon fill="midnightblue" stroke="midnightblue" points="157.014,-535.477 147.941,-540.95 158.446,-542.329 157.014,-535.477"/>
</g>
<!-- Node17 -->
<g id="node17" class="node"><title>Node17</title>
<g id="a_node17"><a xlink:href="../../d3/df0/classparser_1_1commands_1_1bool_1_1_less_than.html#ac2cc005224acd5bd045788fbd84b51cf" target="_top" xlink:title="parser.commands.bool.Less\lThan.evaluate">
<polygon fill="white" stroke="black" points="231,-453 231,-483 383,-483 383,-453 231,-453"/>
<text text-anchor="start" x="239" y="-471" font-family="Helvetica,sans-Serif" font-size="10.00">parser.commands.bool.Less</text>
<text text-anchor="middle" x="307" y="-460" font-family="Helvetica,sans-Serif" font-size="10.00">Than.evaluate</text>
</a>
</g>
</g>
<!-- Node1&#45;&gt;Node17 -->
<g id="edge16" class="edge"><title>Node1&#45;&gt;Node17</title>
<path fill="none" stroke="midnightblue" d="M110.004,-535.444C132.059,-521.653 162.833,-504.053 192,-493 204.316,-488.333 217.727,-484.424 230.883,-481.189"/>
<polygon fill="midnightblue" stroke="midnightblue" points="107.976,-532.585 101.411,-540.9 111.729,-538.494 107.976,-532.585"/>
</g>
<!-- Node18 -->
<g id="node18" class="node"><title>Node18</title>
<g id="a_node18"><a xlink:href="../../d6/dbc/classparser_1_1commands_1_1other_1_1_if_else.html#abedc5a12ff3ae44d149ebe1b9c854078" target="_top" xlink:title="parser.commands.other.If\lElse.evaluate">
<polygon fill="white" stroke="black" points="237,-404 237,-434 377,-434 377,-404 237,-404"/>
<text text-anchor="start" x="245" y="-422" font-family="Helvetica,sans-Serif" font-size="10.00">parser.commands.other.If</text>
<text text-anchor="middle" x="307" y="-411" font-family="Helvetica,sans-Serif" font-size="10.00">Else.evaluate</text>
</a>
</g>
</g>
<!-- Node1&#45;&gt;Node18 -->
<g id="edge17" class="edge"><title>Node1&#45;&gt;Node18</title>
<path fill="none" stroke="midnightblue" d="M95.7467,-532.848C115.694,-507.048 151.457,-466.065 192,-444 205.704,-436.542 221.477,-431.308 236.836,-427.636"/>
<polygon fill="midnightblue" stroke="midnightblue" points="92.8468,-530.88 89.604,-540.966 98.429,-535.104 92.8468,-530.88"/>
</g>
<!-- Node19 -->
<g id="node19" class="node"><title>Node19</title>
<g id="a_node19"><a xlink:href="../../d5/d43/classparser_1_1commands_1_1bool_1_1_and.html#ae5248829063c1fde7a78e7a3e13aee3f" target="_top" xlink:title="parser.commands.bool.And.evaluate">
<polygon fill="white" stroke="black" points="210.5,-365.5 210.5,-384.5 403.5,-384.5 403.5,-365.5 210.5,-365.5"/>
<text text-anchor="middle" x="307" y="-372.5" font-family="Helvetica,sans-Serif" font-size="10.00">parser.commands.bool.And.evaluate</text>
</a>
</g>
</g>
<!-- Node1&#45;&gt;Node19 -->
<g id="edge18" class="edge"><title>Node1&#45;&gt;Node19</title>
<path fill="none" stroke="midnightblue" d="M88.9864,-531.169C104.954,-494.9 139.842,-428.156 192,-395 198.698,-390.742 206.044,-387.322 213.677,-384.582"/>
<polygon fill="midnightblue" stroke="midnightblue" points="85.6943,-529.967 84.9858,-540.538 92.1319,-532.716 85.6943,-529.967"/>
</g>
<!-- Node20 -->
<g id="node20" class="node"><title>Node20</title>
<g id="a_node20"><a xlink:href="../../d0/d39/classparser_1_1commands_1_1bool_1_1_equal.html#a37b81268c7dbf951ed1c0c015b45dade" target="_top" xlink:title="parser.commands.bool.Equal.evaluate">
<polygon fill="white" stroke="black" points="207,-327.5 207,-346.5 407,-346.5 407,-327.5 207,-327.5"/>
<text text-anchor="middle" x="307" y="-334.5" font-family="Helvetica,sans-Serif" font-size="10.00">parser.commands.bool.Equal.evaluate</text>
</a>
</g>
</g>
<!-- Node1&#45;&gt;Node20 -->
<g id="edge19" class="edge"><title>Node1&#45;&gt;Node20</title>
<path fill="none" stroke="midnightblue" d="M85.4041,-531.22C97.9576,-488.001 130.129,-399.319 192,-356 197.342,-352.26 203.165,-349.163 209.26,-346.607"/>
<polygon fill="midnightblue" stroke="midnightblue" points="82.0105,-530.36 82.6933,-540.933 88.7528,-532.242 82.0105,-530.36"/>
</g>
<!-- Node21 -->
<g id="node21" class="node"><title>Node21</title>
<g id="a_node21"><a xlink:href="../../de/dd8/classparser_1_1commands_1_1other_1_1_if.html#a87f6a4d0e8da520a85595f100561ff61" target="_top" xlink:title="parser.commands.other.If.evaluate">
<polygon fill="white" stroke="black" points="215.5,-289.5 215.5,-308.5 398.5,-308.5 398.5,-289.5 215.5,-289.5"/>
<text text-anchor="middle" x="307" y="-296.5" font-family="Helvetica,sans-Serif" font-size="10.00">parser.commands.other.If.evaluate</text>
</a>
</g>
</g>
<!-- Node1&#45;&gt;Node21 -->
<g id="edge20" class="edge"><title>Node1&#45;&gt;Node21</title>
<path fill="none" stroke="midnightblue" d="M83.1037,-530.832C92.5865,-481.368 120.902,-371.639 192,-318 199.048,-312.683 207.04,-308.632 215.445,-305.57"/>
<polygon fill="midnightblue" stroke="midnightblue" points="79.6547,-530.236 81.311,-540.701 86.542,-531.488 79.6547,-530.236"/>
</g>
<!-- Node22 -->
<g id="node22" class="node"><title>Node22</title>
<g id="a_node22"><a xlink:href="../../d0/d20/classparser_1_1commands_1_1bool_1_1_or.html#a64571a3bca883f771d4e42716d3907f5" target="_top" xlink:title="parser.commands.bool.Or.evaluate">
<polygon fill="white" stroke="black" points="214.5,-251.5 214.5,-270.5 399.5,-270.5 399.5,-251.5 214.5,-251.5"/>
<text text-anchor="middle" x="307" y="-258.5" font-family="Helvetica,sans-Serif" font-size="10.00">parser.commands.bool.Or.evaluate</text>
</a>
</g>
</g>
<!-- Node1&#45;&gt;Node22 -->
<g id="edge21" class="edge"><title>Node1&#45;&gt;Node22</title>
<path fill="none" stroke="midnightblue" d="M81.3135,-530.786C87.8068,-475.69 111.385,-344.351 192,-280 198.665,-274.68 206.258,-270.603 214.289,-267.502"/>
<polygon fill="midnightblue" stroke="midnightblue" points="77.8321,-530.427 80.2308,-540.747 84.7911,-531.184 77.8321,-530.427"/>
</g>
<!-- Node23 -->
<g id="node23" class="node"><title>Node23</title>
<g id="a_node23"><a xlink:href="../../d7/dec/classparser_1_1commands_1_1bool_1_1_not_equal.html#afa9fe1e8e6e0c533a5d79c20799cf1b9" target="_top" xlink:title="parser.commands.bool.Not\lEqual.evaluate">
<polygon fill="white" stroke="black" points="233.5,-202 233.5,-232 380.5,-232 380.5,-202 233.5,-202"/>
<text text-anchor="start" x="241.5" y="-220" font-family="Helvetica,sans-Serif" font-size="10.00">parser.commands.bool.Not</text>
<text text-anchor="middle" x="307" y="-209" font-family="Helvetica,sans-Serif" font-size="10.00">Equal.evaluate</text>
</a>
</g>
</g>
<!-- Node1&#45;&gt;Node23 -->
<g id="edge22" class="edge"><title>Node1&#45;&gt;Node23</title>
<path fill="none" stroke="midnightblue" d="M80.1987,-530.647C84.4679,-470.682 103.887,-319.377 192,-242 203.571,-231.839 218.319,-225.508 233.338,-221.628"/>
<polygon fill="midnightblue" stroke="midnightblue" points="76.6984,-530.543 79.5647,-540.742 83.6847,-530.981 76.6984,-530.543"/>
</g>
<!-- Node24 -->
<g id="node24" class="node"><title>Node24</title>
<g id="a_node24"><a xlink:href="../../d4/ddb/classparser_1_1commands_1_1bool_1_1_greater_than.html#a5564e60cb78e7741aa6798741227bde8" target="_top" xlink:title="parser.commands.bool.Greater\lThan.evaluate">
<polygon fill="white" stroke="black" points="223.5,-153 223.5,-183 390.5,-183 390.5,-153 223.5,-153"/>
<text text-anchor="start" x="231.5" y="-171" font-family="Helvetica,sans-Serif" font-size="10.00">parser.commands.bool.Greater</text>
<text text-anchor="middle" x="307" y="-160" font-family="Helvetica,sans-Serif" font-size="10.00">Than.evaluate</text>
</a>
</g>
</g>
<!-- Node1&#45;&gt;Node24 -->
<g id="edge23" class="edge"><title>Node1&#45;&gt;Node24</title>
<path fill="none" stroke="midnightblue" d="M78.7819,-530.463C79.6867,-464.095 91.7786,-284.961 192,-193 200.883,-184.849 211.795,-179.137 223.313,-175.169"/>
<polygon fill="midnightblue" stroke="midnightblue" points="75.28,-530.79 78.7223,-540.81 82.2799,-530.831 75.28,-530.79"/>
</g>
<!-- Node25 -->
<g id="node25" class="node"><title>Node25</title>
<g id="a_node25"><a xlink:href="../../d7/da6/classparser_1_1commands_1_1math_1_1_remainder.html#a22cfed07cc01dc68980e68dc6c191da8" target="_top" xlink:title="parser.commands.math.Remainder.evaluate">
<polygon fill="white" stroke="black" points="192,-114.5 192,-133.5 422,-133.5 422,-114.5 192,-114.5"/>
<text text-anchor="middle" x="307" y="-121.5" font-family="Helvetica,sans-Serif" font-size="10.00">parser.commands.math.Remainder.evaluate</text>
</a>
</g>
</g>
<!-- Node1&#45;&gt;Node25 -->
<g id="edge24" class="edge"><title>Node1&#45;&gt;Node25</title>
<path fill="none" stroke="midnightblue" d="M82.3973,-530.612C93.8014,-449.283 133.325,-197.402 192,-144 196.532,-139.875 201.603,-136.449 207.019,-133.614"/>
<polygon fill="midnightblue" stroke="midnightblue" points="78.8751,-530.533 80.9757,-540.918 85.8095,-531.49 78.8751,-530.533"/>
</g>
<!-- Node26 -->
<g id="node26" class="node"><title>Node26</title>
<g id="a_node26"><a xlink:href="../../d9/de0/classparser_1_1commands_1_1other_1_1_repeat.html#aa94d3f1c4786a256afdbc9718ba2883b" target="_top" xlink:title="parser.commands.other.Repeat.evaluate">
<polygon fill="white" stroke="black" points="201,-76.5 201,-95.5 413,-95.5 413,-76.5 201,-76.5"/>
<text text-anchor="middle" x="307" y="-83.5" font-family="Helvetica,sans-Serif" font-size="10.00">parser.commands.other.Repeat.evaluate</text>
</a>
</g>
</g>
<!-- Node1&#45;&gt;Node26 -->
<g id="edge25" class="edge"><title>Node1&#45;&gt;Node26</title>
<path fill="none" stroke="midnightblue" d="M81.7175,-530.775C91.5217,-444.627 127.922,-164.126 192,-105 195.981,-101.326 200.391,-98.216 205.095,-95.5914"/>
<polygon fill="midnightblue" stroke="midnightblue" points="78.213,-530.622 80.5815,-540.948 85.1697,-531.399 78.213,-530.622"/>
</g>
<!-- Node27 -->
<g id="node27" class="node"><title>Node27</title>
<g id="a_node27"><a xlink:href="../../dc/d4d/classparser_1_1commands_1_1math_1_1_quotient.html#a1f8c57a0dd1e98dca45aa0b68f1f6d8a" target="_top" xlink:title="parser.commands.math.Quotient.evaluate">
<polygon fill="white" stroke="black" points="196.5,-38.5 196.5,-57.5 417.5,-57.5 417.5,-38.5 196.5,-38.5"/>
<text text-anchor="middle" x="307" y="-45.5" font-family="Helvetica,sans-Serif" font-size="10.00">parser.commands.math.Quotient.evaluate</text>
</a>
</g>
</g>
<!-- Node1&#45;&gt;Node27 -->
<g id="edge26" class="edge"><title>Node1&#45;&gt;Node27</title>
<path fill="none" stroke="midnightblue" d="M81.1959,-530.741C89.618,-439.928 122.905,-131.942 192,-67 195.948,-63.2897 200.33,-60.1508 205.013,-57.5039"/>
<polygon fill="midnightblue" stroke="midnightblue" points="77.7096,-530.433 80.2913,-540.709 84.6809,-531.066 77.7096,-530.433"/>
</g>
<!-- Node28 -->
<g id="node28" class="node"><title>Node28</title>
<g id="a_node28"><a xlink:href="../../d6/d87/classparser_1_1commands_1_1other_1_1_make.html#a7fc80a476ce57bf7ffa57061b0543dbf" target="_top" xlink:title="parser.commands.other.Make.evaluate">
<polygon fill="white" stroke="black" points="205,-0.5 205,-19.5 409,-19.5 409,-0.5 205,-0.5"/>
<text text-anchor="middle" x="307" y="-7.5" font-family="Helvetica,sans-Serif" font-size="10.00">parser.commands.other.Make.evaluate</text>
</a>
</g>
</g>
<!-- Node1&#45;&gt;Node28 -->
<g id="edge27" class="edge"><title>Node1&#45;&gt;Node28</title>
<path fill="none" stroke="midnightblue" d="M80.748,-530.69C87.8628,-435.36 117.873,-99.788 192,-29 195.918,-25.2585 200.278,-22.0949 204.942,-19.4289"/>
<polygon fill="midnightblue" stroke="midnightblue" points="77.2436,-530.625 80.0092,-540.852 84.2251,-531.132 77.2436,-530.625"/>
</g>
<!-- Node2&#45;&gt;Node3 -->
<g id="edge2" class="edge"><title>Node2&#45;&gt;Node3</title>
<path fill="none" stroke="midnightblue" d="M404.888,-1113.34C423.344,-1111.68 442.622,-1109.96 460.955,-1108.32"/>
<polygon fill="midnightblue" stroke="midnightblue" points="404.379,-1109.87 394.73,-1114.24 405.002,-1116.84 404.379,-1109.87"/>
</g>
<!-- Node4&#45;&gt;Node5 -->
<g id="edge4" class="edge"><title>Node4&#45;&gt;Node5</title>
<path fill="none" stroke="midnightblue" d="M391.253,-1026.55C420.262,-1023.96 452.575,-1021.07 480.715,-1018.55"/>
<polygon fill="midnightblue" stroke="midnightblue" points="390.791,-1023.08 381.142,-1027.46 391.414,-1030.05 390.791,-1023.08"/>
</g>
<!-- Node6&#45;&gt;Node7 -->
<g id="edge6" class="edge"><title>Node6&#45;&gt;Node7</title>
<path fill="none" stroke="midnightblue" d="M397.199,-938.023C422.639,-935.748 450.17,-933.286 474.958,-931.069"/>
<polygon fill="midnightblue" stroke="midnightblue" points="396.838,-934.541 387.19,-938.918 397.462,-941.513 396.838,-934.541"/>
</g>
<!-- Node8&#45;&gt;Node9 -->
<g id="edge8" class="edge"><title>Node8&#45;&gt;Node9</title>
<path fill="none" stroke="midnightblue" d="M397.199,-846.034C422.639,-842.622 450.17,-838.928 474.958,-835.603"/>
<polygon fill="midnightblue" stroke="midnightblue" points="396.636,-842.578 387.19,-847.377 397.567,-849.516 396.636,-842.578"/>
</g>
<!-- Node10&#45;&gt;Node11 -->
<g id="edge10" class="edge"><title>Node10&#45;&gt;Node11</title>
<path fill="none" stroke="midnightblue" d="M407.205,-765.564C424.045,-764.811 441.503,-764.03 458.252,-763.281"/>
<polygon fill="midnightblue" stroke="midnightblue" points="406.645,-762.085 396.812,-766.029 406.958,-769.078 406.645,-762.085"/>
</g>
</g>
</svg>
