<?xml version="1.0" encoding="UTF-8" standalone="no"?>
<!DOCTYPE svg PUBLIC "-//W3C//DTD SVG 1.1//EN"
 "http://www.w3.org/Graphics/SVG/1.1/DTD/svg11.dtd">
<!-- Generated by graphviz version 2.36.0 (20140111.2315)
 -->
<!-- Title: view.components.Error.getMessage Pages: 1 -->
<svg width="740pt" height="136pt"
 viewBox="0.00 0.00 740.00 136.00" xmlns="http://www.w3.org/2000/svg" xmlns:xlink="http://www.w3.org/1999/xlink">
<g id="graph0" class="graph" transform="scale(1 1) rotate(0) translate(4 132)">
<title>view.components.Error.getMessage</title>
<polygon fill="white" stroke="none" points="-4,4 -4,-132 736,-132 736,4 -4,4"/>
<!-- Node1 -->
<g id="node1" class="node"><title>Node1</title>
<polygon fill="#bfbfbf" stroke="black" points="0.5,-49 0.5,-79 143.5,-79 143.5,-49 0.5,-49"/>
<text text-anchor="start" x="8.5" y="-67" font-family="Helvetica,sans-Serif" font-size="10.00">view.components.Error.get</text>
<text text-anchor="middle" x="72" y="-56" font-family="Helvetica,sans-Serif" font-size="10.00">Message</text>
</g>
<!-- Node2 -->
<g id="node2" class="node"><title>Node2</title>
<g id="a_node2"><a xlink:href="../../d3/dcf/classview_1_1components_1_1_error_box.html#aca5c0d49cf82077b4e67e4e32f311a64" target="_top" xlink:title="view.components.ErrorBox.show\lError">
<polygon fill="white" stroke="black" points="180,-49 180,-79 350,-79 350,-49 180,-49"/>
<text text-anchor="start" x="188" y="-67" font-family="Helvetica,sans-Serif" font-size="10.00">view.components.ErrorBox.show</text>
<text text-anchor="middle" x="265" y="-56" font-family="Helvetica,sans-Serif" font-size="10.00">Error</text>
</a>
</g>
</g>
<!-- Node1&#45;&gt;Node2 -->
<g id="edge1" class="edge"><title>Node1&#45;&gt;Node2</title>
<path fill="none" stroke="midnightblue" d="M153.643,-64C162.297,-64 171.117,-64 179.811,-64"/>
<polygon fill="midnightblue" stroke="midnightblue" points="153.579,-60.5001 143.579,-64 153.579,-67.5001 153.579,-60.5001"/>
</g>
<!-- Node3 -->
<g id="node3" class="node"><title>Node3</title>
<g id="a_node3"><a xlink:href="../../d8/dff/classmodel_1_1_turtle_manager.html#a86e0e9159dad59c6aee3d0563a40e241" target="_top" xlink:title="model.TurtleManager.setImage\lRelative">
<polygon fill="white" stroke="black" points="386,-95 386,-125 550,-125 550,-95 386,-95"/>
<text text-anchor="start" x="394" y="-113" font-family="Helvetica,sans-Serif" font-size="10.00">model.TurtleManager.setImage</text>
<text text-anchor="middle" x="468" y="-102" font-family="Helvetica,sans-Serif" font-size="10.00">Relative</text>
</a>
</g>
</g>
<!-- Node2&#45;&gt;Node3 -->
<g id="edge2" class="edge"><title>Node2&#45;&gt;Node3</title>
<path fill="none" stroke="midnightblue" d="M341.643,-81.3113C361.292,-85.8082 382.295,-90.6147 401.381,-94.9826"/>
<polygon fill="midnightblue" stroke="midnightblue" points="342.344,-77.8813 331.815,-79.0621 340.782,-84.7049 342.344,-77.8813"/>
</g>
<!-- Node5 -->
<g id="node5" class="node"><title>Node5</title>
<g id="a_node5"><a xlink:href="../../d8/dff/classmodel_1_1_turtle_manager.html#ad3a7dfe2894f5335c74644ad749dd77a" target="_top" xlink:title="model.TurtleManager.setImage">
<polygon fill="white" stroke="black" points="386,-54.5 386,-73.5 550,-73.5 550,-54.5 386,-54.5"/>
<text text-anchor="middle" x="468" y="-61.5" font-family="Helvetica,sans-Serif" font-size="10.00">model.TurtleManager.setImage</text>
</a>
</g>
</g>
<!-- Node2&#45;&gt;Node5 -->
<g id="edge4" class="edge"><title>Node2&#45;&gt;Node5</title>
<path fill="none" stroke="midnightblue" d="M360.121,-64C368.714,-64 377.369,-64 385.834,-64"/>
<polygon fill="midnightblue" stroke="midnightblue" points="360.078,-60.5001 350.077,-64 360.077,-67.5001 360.078,-60.5001"/>
</g>
<!-- Node7 -->
<g id="node7" class="node"><title>Node7</title>
<g id="a_node7"><a xlink:href="../../d8/dff/classmodel_1_1_turtle_manager.html#a14022290b69ac8fd9c2e1530798a3a44" target="_top" xlink:title="model.TurtleManager.addTurtle\lImage">
<polygon fill="white" stroke="black" points="386.5,-3 386.5,-33 549.5,-33 549.5,-3 386.5,-3"/>
<text text-anchor="start" x="394.5" y="-21" font-family="Helvetica,sans-Serif" font-size="10.00">model.TurtleManager.addTurtle</text>
<text text-anchor="middle" x="468" y="-10" font-family="Helvetica,sans-Serif" font-size="10.00">Image</text>
</a>
</g>
</g>
<!-- Node2&#45;&gt;Node7 -->
<g id="edge6" class="edge"><title>Node2&#45;&gt;Node7</title>
<path fill="none" stroke="midnightblue" d="M341.643,-46.6887C361.292,-42.1918 382.295,-37.3853 401.381,-33.0174"/>
<polygon fill="midnightblue" stroke="midnightblue" points="340.782,-43.2951 331.815,-48.9379 342.344,-50.1187 340.782,-43.2951"/>
</g>
<!-- Node4 -->
<g id="node4" class="node"><title>Node4</title>
<g id="a_node4"><a xlink:href="../../d8/dff/classmodel_1_1_turtle_manager.html#aaf9a9034c70a70c0b8e6317192c064d9" target="_top" xlink:title="model.TurtleManager.Turtle\lManager">
<polygon fill="white" stroke="black" points="586.5,-98 586.5,-128 731.5,-128 731.5,-98 586.5,-98"/>
<text text-anchor="start" x="594.5" y="-116" font-family="Helvetica,sans-Serif" font-size="10.00">model.TurtleManager.Turtle</text>
<text text-anchor="middle" x="659" y="-105" font-family="Helvetica,sans-Serif" font-size="10.00">Manager</text>
</a>
</g>
</g>
<!-- Node3&#45;&gt;Node4 -->
<g id="edge3" class="edge"><title>Node3&#45;&gt;Node4</title>
<path fill="none" stroke="midnightblue" d="M560.431,-111.451C569.133,-111.589 577.869,-111.728 586.345,-111.863"/>
<polygon fill="midnightblue" stroke="midnightblue" points="560.304,-107.949 550.25,-111.29 560.193,-114.948 560.304,-107.949"/>
</g>
<!-- Node6 -->
<g id="node6" class="node"><title>Node6</title>
<g id="a_node6"><a xlink:href="../../de/d84/classcontroller_1_1_workspace.html#a836bba8f70a28fe652d3ab9684394b7d" target="_top" xlink:title="controller.Workspace.set\lImage">
<polygon fill="white" stroke="black" points="592.5,-49 592.5,-79 725.5,-79 725.5,-49 592.5,-49"/>
<text text-anchor="start" x="600.5" y="-67" font-family="Helvetica,sans-Serif" font-size="10.00">controller.Workspace.set</text>
<text text-anchor="middle" x="659" y="-56" font-family="Helvetica,sans-Serif" font-size="10.00">Image</text>
</a>
</g>
</g>
<!-- Node5&#45;&gt;Node6 -->
<g id="edge5" class="edge"><title>Node5&#45;&gt;Node6</title>
<path fill="none" stroke="midnightblue" d="M560.552,-64C571.332,-64 582.164,-64 592.485,-64"/>
<polygon fill="midnightblue" stroke="midnightblue" points="560.25,-60.5001 550.25,-64 560.25,-67.5001 560.25,-60.5001"/>
</g>
<!-- Node8 -->
<g id="node8" class="node"><title>Node8</title>
<g id="a_node8"><a xlink:href="../../de/d84/classcontroller_1_1_workspace.html#ac659349589573f5405c3950d38505407" target="_top" xlink:title="controller.Workspace.add\lTurtleImage">
<polygon fill="white" stroke="black" points="591,-0 591,-30 727,-30 727,-0 591,-0"/>
<text text-anchor="start" x="599" y="-18" font-family="Helvetica,sans-Serif" font-size="10.00">controller.Workspace.add</text>
<text text-anchor="middle" x="659" y="-7" font-family="Helvetica,sans-Serif" font-size="10.00">TurtleImage</text>
</a>
</g>
</g>
<!-- Node7&#45;&gt;Node8 -->
<g id="edge7" class="edge"><title>Node7&#45;&gt;Node8</title>
<path fill="none" stroke="midnightblue" d="M559.741,-16.5597C570.25,-16.3928 580.822,-16.225 590.934,-16.0645"/>
<polygon fill="midnightblue" stroke="midnightblue" points="559.644,-13.0607 549.701,-16.719 559.756,-20.0598 559.644,-13.0607"/>
</g>
</g>
</svg>
